<?xml version="1.0" encoding="UTF-8" standalone="no"?>
<!DOCTYPE svg PUBLIC "-//W3C//DTD SVG 1.1//EN" "http://www.w3.org/Graphics/SVG/1.1/DTD/svg11.dtd">
<!-- Created with Vectornator (http://vectornator.io/) -->
<svg height="100%" stroke-miterlimit="10" style="fill-rule:nonzero;clip-rule:evenodd;stroke-linecap:round;stroke-linejoin:round;" version="1.1" viewBox="0 0 750 1000" width="100%" xml:space="preserve" xmlns="http://www.w3.org/2000/svg" xmlns:vectornator="http://vectornator.io" xmlns:xlink="http://www.w3.org/1999/xlink">
<defs/>
<g id="Layer-1" vectornator:layerName="Layer 1">
<path d="M432.691 331.113C402.334 331.385 372.122 334.758 341.91 340.8C310.981 346.986 280.055 356.03 250.785 367.738C241.556 371.429 232.479 375.485 223.254 379.175C218.508 381.074 213.414 385.003 208.597 386.207C201.821 387.901 194.124 392.841 188.097 396.457C175.318 404.124 161.396 410.03 149.41 419.019C151.113 420.723 156.707 419.153 158.785 419.019C164.348 418.66 169.936 418.409 175.504 418.144C197.518 417.096 219.67 416.476 241.691 417.55C251.891 418.048 262.067 418.935 272.16 420.488C282.398 422.063 304.745 424.992 306.754 438.05C307.147 440.605 306.608 443.806 304.972 445.988C302.523 449.254 299.993 452.436 297.066 455.363C293.492 458.937 289.166 461.81 285.066 464.738C263.249 480.321 237.111 492.045 212.41 501.925C204.968 504.902 197.572 508.042 190.129 511.019C187.858 511.927 184.559 512.496 182.816 514.238C184.006 515.427 191.276 515.062 192.191 515.113C198.651 515.472 205.093 515.996 211.535 516.582C230.631 518.318 263.901 520.604 278.629 535.332C284.105 540.808 278.016 549.533 274.222 553.8C265.723 563.363 254.481 568.739 243.754 575.175C231.158 582.733 216.622 587.897 203.035 593.332C178.582 603.113 153.426 612.452 128.035 619.707C115.806 623.201 103.752 627.465 91.4099 630.55C87.536 631.519 78.9279 632.47 76.1599 635.238C77.7666 637.648 83.4038 638.523 86.1286 639.613C94.1694 642.829 102.542 645.095 110.754 647.832C141.433 658.058 175.06 663.073 207.129 665.988C217.611 666.941 228.371 666.749 238.785 668.05C249.561 669.397 269.587 668.962 280.066 668.05C305.132 665.871 329.859 664.542 354.785 660.707C404.132 653.115 452.415 638.786 498.629 620.3C509.628 615.901 520.17 610.321 531.16 605.925C537.135 603.536 544.472 600.394 549.597 596.55C553.285 593.785 558.256 592.212 562.222 589.832C568.942 585.8 575.687 581.834 582.41 577.8C603.79 564.973 623.743 548.811 641.316 531.238C650.265 522.289 659.044 511.314 664.754 499.894C684.976 459.45 669.412 421.852 638.097 393.519C598.277 357.491 539.895 340.214 487.504 334.05C469.171 331.894 450.906 330.95 432.691 331.113ZM439.347 337.925C455.803 337.962 472.261 339.052 488.66 341.394C537.244 348.335 599.673 364.47 635.754 400.55C658.061 422.858 676.001 453.901 663.004 486.394C658.919 496.606 653.42 505.748 646.597 514.519C635.359 528.969 621.096 541.622 606.441 552.613C506.583 627.507 369.313 663.073 246.097 661.019C208.952 660.4 171.147 655.664 135.066 646.644C126.347 644.464 117.503 642.457 108.972 639.613C106.459 638.775 101.079 638.157 99.3161 636.394C102.385 633.326 110.63 632.631 114.847 631.425C125.639 628.342 136.415 625.007 147.066 621.457C184.018 609.139 222.206 596.773 255.754 576.644C266.686 570.085 279.531 561.901 285.347 550.269C288.196 544.573 289.16 535.894 284.191 530.925C271.885 518.619 253.269 514.933 236.722 512.175C232.839 511.528 217.101 510.71 215.347 508.957C217.232 507.072 221.053 506.137 223.535 505.144C229.697 502.679 235.529 499.421 241.691 496.957C261.104 489.191 282.425 477.078 298.535 463.269C301.846 460.431 304.867 457.27 307.629 453.894C324.643 433.098 304.233 421.621 285.941 416.394C277.573 414.003 268.785 412.721 260.16 411.707C244.664 409.884 228.828 409.187 213.285 409.644C207.427 409.816 201.55 409.791 195.691 409.925C193.053 409.986 190.421 410.13 187.785 410.238C185.636 410.326 183.497 410.448 181.347 410.519C178.812 410.604 179.518 411.034 178.41 409.925C194.549 399.166 213.797 390.764 231.754 383.582C272.597 367.244 313.687 352.494 357.41 345.207C384.507 340.69 411.922 337.864 439.347 337.925ZM434.785 357.707C426.164 357.82 417.534 358.243 408.972 358.957C368.884 362.297 328.99 370.197 290.347 381.238C282.117 383.589 273.95 386.2 265.722 388.55C262.82 389.38 256.975 390.267 254.879 392.363C256.61 394.96 264.265 392.644 266.91 392.644C273.478 392.644 279.996 393.016 286.535 393.519C310.942 395.397 367.438 403.669 352.16 441.863C350.156 446.874 347.247 451.393 343.941 455.644C338.055 463.212 331.028 469.298 323.441 474.988C315.508 480.938 306.796 486.092 297.941 490.519C293.975 492.502 287.182 494.247 284.191 497.238C285.695 499.494 294.105 500.741 297.066 501.925C306.763 505.804 320.326 512.764 324.316 522.738C331.166 539.863 319.762 555.698 308.191 567.269C287.232 588.228 250.817 603.102 222.941 612.394C215.151 614.991 207.406 617.73 199.504 619.988C196.747 620.776 192.44 621.151 190.316 623.082C190.602 623.27 190.832 623.316 191.316 623.8C191.289 623.828 191.25 623.806 191.222 623.832C193.448 624.972 196.608 624.351 199.222 624.394C202.544 624.449 205.87 624.628 209.191 624.675C219.444 624.823 229.687 624.988 239.941 624.988C264.522 624.988 289.076 622.417 313.472 619.707C407.601 609.248 504.44 576.56 581.847 521.269C599.37 508.753 616.42 495.229 631.066 479.363C636.513 473.463 645.959 463.789 646.879 455.05C648.502 439.629 630.116 423.297 620.222 414.925C589.795 389.18 550.408 373.97 511.816 365.394C486.613 359.794 460.647 357.368 434.785 357.707ZM428.316 363.644C460.928 363.644 491.799 366.343 523.254 374.207C556.681 382.564 590.694 397.735 617.285 419.894C624.166 425.629 643.16 442.193 641.316 454.175C640.12 461.953 633.167 469.47 628.129 474.988C614.204 490.239 597.737 503.139 580.972 515.113C509.975 565.825 425.902 594.2 340.441 609.738C313.457 614.644 285.784 617.303 258.41 618.519C253.236 618.749 248.057 618.997 242.879 619.113C236.922 619.247 230.961 619.332 225.004 619.425C223.866 619.443 224.311 619.608 223.535 618.832C225.697 616.67 230.099 616.144 232.91 615.019C240.64 611.927 248.34 608.735 256.066 605.644C278.637 596.616 301.065 583.071 317.879 565.207C328.536 553.883 337.946 534.111 329.004 519.207C324.102 511.038 316.637 506.775 309.379 501.332C306.471 499.151 301.87 498.823 299.41 496.363C304.597 492.472 311.112 489.742 316.691 486.394C337.203 474.087 374.861 440.889 355.066 413.175C350.856 407.281 345.059 404.389 339.566 400.269C331.577 394.277 314.772 391.319 305.285 389.738C302.611 389.292 291.496 388.824 290.347 387.675C292.226 385.797 296.848 385.378 299.41 384.738C306.833 382.882 314.218 380.836 321.691 379.175C356.468 371.447 392.535 363.644 428.316 363.644ZM191.222 623.832C190.85 623.641 190.438 623.516 190.129 623.207C190.179 623.156 190.263 623.13 190.316 623.082C189.667 622.655 189.196 622.702 188.097 623.8C189.074 624.777 190.235 624.755 191.222 623.832ZM422.472 402.613C420.224 402.613 417.967 402.77 415.722 402.894C411.987 403.102 395.47 403.553 392.879 406.144C394.514 407.78 400.4 408.157 402.847 408.769C410.501 410.683 418.103 412.757 425.691 414.925C443.534 420.023 460.956 426.213 478.129 433.082C487.157 436.693 496.703 441.012 504.504 446.863C502.817 448.55 497.281 448.872 494.816 449.488C486.914 451.464 478.933 453.406 471.097 455.644C442.283 463.877 412.9 469.977 384.097 478.207C376.939 480.252 369.631 481.964 362.41 483.769C360.029 484.364 355.632 484.672 353.91 486.394C356.259 488.743 360.559 486.816 363.879 486.707C370.226 486.499 376.563 486.324 382.91 486.113C409.862 485.215 436.834 484.417 463.785 483.488C472.962 483.172 482.144 482.999 491.316 482.582C492.783 482.515 494.653 481.856 495.691 482.894C486.743 491.843 472.771 496.934 462.004 503.394C436.971 518.414 410.322 530.86 384.379 543.832C376.376 547.833 368.666 552.223 360.347 555.55C356.965 556.904 351.17 558.853 348.629 561.394C349.994 562.759 361.551 559.943 364.16 559.363C378.822 556.105 393.378 552.644 407.816 548.519C455.514 534.891 499.052 515.028 541.41 489.613C556.024 480.845 572.404 469.631 583.879 457.113C584.48 456.457 578.174 451.505 577.16 450.675C576.192 449.884 575.199 449.113 574.222 448.332C564.201 440.314 553.157 433.252 541.691 427.519C504.537 408.942 464.042 402.613 422.472 402.613ZM427.16 408.488C437.377 408.256 447.727 409 457.91 409.925C488.293 412.688 516.776 421.937 543.754 435.425C552.331 439.714 560.405 445.492 568.066 451.238C569.312 452.173 575.413 456.648 574.816 457.394C572.797 459.918 569.146 462.105 566.597 464.144C558.269 470.807 549.668 476.993 540.816 482.894C510.546 503.074 476.609 519.734 442.097 531.238C431.665 534.716 421.347 538.461 410.754 541.488C407.562 542.4 401.219 545.735 398.722 543.238C403.82 539.839 409.958 537.48 415.441 534.738C420.827 532.045 426.059 528.741 431.535 526.55C436.479 524.573 441.621 521.386 446.191 518.644C459.268 510.798 472.946 503.935 486.035 496.082C495.597 490.344 506.839 484.372 514.754 476.457C513.784 475.488 512.029 476.077 510.66 476.144C507.83 476.282 504.992 476.357 502.16 476.457C499.425 476.553 496.676 476.645 493.941 476.738C473.141 477.443 452.334 478.058 431.535 478.8C428.703 478.902 425.867 478.987 423.035 479.082C420.008 479.183 417.001 479.307 413.972 479.363C411.524 479.408 408.361 480.532 406.629 478.8C409.616 475.814 426.071 473.451 430.972 472.05C451.912 466.068 473.305 461.63 494.254 455.644C500.264 453.927 506.4 452.674 512.41 450.957C514.149 450.46 517.353 450.42 518.566 449.207C501.167 436.158 479.935 426.465 459.379 419.613C451.387 416.949 443.454 414.023 435.347 411.707C433.034 411.046 428.16 410.644 426.566 409.05C426.762 408.855 426.884 408.494 427.16 408.488ZM651.847 469.644C651.551 469.647 651.178 469.754 650.691 469.988C628.507 480.648 617.153 505.514 597.66 520.675C531.283 572.302 448.889 607.301 366.222 622.332C330.884 628.757 295.3 633.866 259.285 634.363C248.055 634.518 236.828 634.644 225.597 634.644C222.299 634.644 220.753 634.754 217.691 635.519C212.916 636.713 207.922 638.721 203.035 639.332C201.594 639.512 198.292 639.502 198.941 640.8C200.04 642.997 206.291 641.795 208.316 641.957C215.144 642.503 221.971 642.886 228.816 643.144C252.54 644.039 276.081 643.708 299.722 641.957C396.91 634.758 493.797 601.938 574.816 547.925C597.226 532.986 618.14 516.32 637.222 497.238C640.457 494.003 656.292 469.6 651.847 469.644Z" fill="#ffffff" fill-rule="nonzero" opacity="1" stroke="none"/>
</g>
</svg>
