<?xml version="1.0" encoding="UTF-8" standalone="no"?>
<!DOCTYPE svg PUBLIC "-//W3C//DTD SVG 1.1//EN" "http://www.w3.org/Graphics/SVG/1.1/DTD/svg11.dtd">
<!-- Created with Vectornator (http://vectornator.io/) -->
<svg height="100%" stroke-miterlimit="10" style="fill-rule:nonzero;clip-rule:evenodd;stroke-linecap:round;stroke-linejoin:round;" version="1.1" viewBox="0 0 1080 1080" width="100%" xml:space="preserve" xmlns="http://www.w3.org/2000/svg" xmlns:vectornator="http://vectornator.io" xmlns:xlink="http://www.w3.org/1999/xlink">
<defs/>
<g id="Layer-1" vectornator:layerName="Layer 1">
<path d="M533.219 298.406C520.842 298.52 506.279 301.46 494.281 304.5C481.622 307.708 449.969 323.563 449.969 323.562L416.625 327.469L399.625 302.438C399.625 302.438 357.441 311.258 338.969 316.062C346.047 327.711 346.047 327.695 353.125 339.344C327.04 346.435 301.058 354.36 276.156 364.875C317.559 429.635 317.566 429.646 358.969 494.406C345.896 496.106 335.198 494.975 325.125 505.031C316.575 513.567 316.876 531.706 318.781 541.281C321.24 553.642 333.62 568.826 343.438 575.5C351.927 581.272 361.32 585.935 371.156 588.875C379.642 591.411 381.558 586.898 389.125 591.5C403.799 600.425 433.094 633.094 433.094 633.094L407.031 663.312C407.031 663.312 344.456 645.848 313.156 637.125C303.489 671.141 303.479 671.141 293.812 705.156C338.555 711.921 428.031 725.469 428.031 725.469C428.031 725.469 457.112 688.967 471.656 670.719C506.232 724.024 506.237 724.008 540.812 777.312C574.565 724.419 574.591 724.425 608.344 671.531C623.025 689.505 652.375 725.469 652.375 725.469C652.375 725.469 741.765 711.948 786.469 705.188C777.04 671.079 777.054 671.077 767.625 636.969C736.479 645.75 674.187 663.313 674.188 663.312L647.625 627.625C647.625 627.625 679.625 598.007 688.688 581.031C695.981 567.37 702.801 553.34 707.531 538.594C711.482 526.277 717.094 495.469 717.094 495.469C717.094 495.469 773.265 407.032 802.625 360.344C765.522 351.474 725.969 341.938 725.969 341.938C725.969 341.938 737.682 324.966 743.75 317.125C724.606 311.548 686.312 300.406 686.312 300.406L661.094 325.656L624.312 320.562C624.312 320.562 595.56 304.414 576.375 302.156C563.668 300.661 546.013 298.289 533.219 298.406ZM543.844 308.406C553.627 308.629 563.266 309.821 572.438 312.156C583.649 315.01 594.628 318.784 605.438 322.906C610.884 324.983 621.094 330.719 621.094 330.719C621.094 330.719 654.347 332.171 668.844 339.344C667.687 340.254 666.579 341.276 665.531 342.344C657.09 338.311 638.372 334.424 631.781 337.719C639.124 344.581 647.063 350.193 655.156 356.281C653.664 358.583 652.48 360.303 651.969 359.938C625.788 341.227 605.08 326.148 572.969 318.281C565.307 316.404 557.357 315.447 549.469 315.469C501.951 315.599 463.015 328.352 426.406 357.875C426.064 357.386 424.779 355.675 424 354.562C430.453 348.297 438.866 343.759 444.906 337.719C443.619 336.432 415.968 340.216 413.875 341.75C413.017 340.756 412.488 339.949 411.562 338.938C424.666 331.934 453.625 331.875 453.625 331.875C453.625 331.875 464.88 325.428 470.844 322.906C489.975 314.816 512.137 309.394 534.031 308.5C537.315 308.366 540.583 308.332 543.844 308.406ZM394.312 320.812C394.312 320.813 403.595 338.369 407.875 343.875C427.298 368.864 466.719 418.375 466.719 418.375C466.719 418.375 463.428 438.421 461.781 448.438C428.628 408.563 396.912 367.517 365.062 326.594C377.07 322.494 394.312 320.813 394.312 320.812ZM688.594 320.844C688.594 320.844 712.396 325.188 714.594 328.438C690.539 359.232 640.031 424.156 640.031 424.156C640.031 424.156 639.219 424.021 637.156 417.156C636.495 414.956 628.094 395.656 628.094 395.656C628.094 395.656 678.715 334.187 688.594 320.844ZM564 329.594C581.587 331.399 591.797 343.746 601.188 357.719C627.738 397.228 642.426 449.6 643.406 496.844C643.675 509.802 643.735 522.894 641.656 535.688C639.42 549.454 637.322 563.831 630.562 576.031C630.276 576.549 629.844 576.969 629.531 577.469C628.598 593.327 612.073 603.659 600.188 610.438C553.163 637.255 499.752 625.942 458.5 593.688C430.121 571.498 410.829 552.174 378.906 538.281C375.364 538.918 370.992 535.973 367.531 535.281C367.361 535.247 365.143 535.515 363.281 535.656C366.981 537.497 370.904 537.876 375.531 540.125C392.361 548.304 409.714 557.831 423.5 570.688C402.027 581.603 368.379 576.942 352.406 557.844C345.583 549.686 328.291 528.134 342.344 518.938C346.418 513.628 360.761 513.25 364.594 513.469C400.728 515.532 437.357 526.911 466.312 548.875C456.11 539.423 444.601 531.451 432.938 523.875C458.591 513.223 473.215 497.879 493.906 478.5C497.062 480.284 499.824 483.115 503.375 483.844C507.277 484.645 511.524 481.553 515.281 482.875C526.677 486.884 536.579 498.004 548.625 497.094C558.867 496.32 565.557 494.94 572.625 487.781C581.51 478.782 578.862 462.617 586.281 452.375C588.943 448.7 595.215 450.863 599.688 450.094C598.872 449.494 597.906 448.98 597.031 448.406C596.851 448.658 596.686 448.873 596.406 448.844C586.298 447.788 583.353 445.465 572.375 449.281C551.866 456.41 535.071 475.667 513.188 478.594C500.602 480.277 489.731 468.941 494.844 457.125C494.636 456.802 494.543 456.589 494.312 456.25C492.594 459.234 491.007 461.297 489.5 462.969C489.566 462.909 489.656 462.875 489.719 462.812C489.719 464.253 489.748 467.933 490.344 469.812C491.209 472.544 493.367 473.105 493.906 474.781C466.396 493.097 467.786 438.778 471.656 428.281C471.722 428.423 471.751 428.576 471.812 428.719C471.895 427.423 471.925 425.948 472.094 424.969C476.769 397.858 496.09 371.167 516.438 353.688C529.92 342.106 546.319 327.779 564 329.594ZM368.281 345.75C371.085 345.833 374.252 346.613 374.25 348.156C374.211 348.102 374.164 348.054 374.125 348C349.072 358.835 317.57 355.152 293.844 370.625C320.561 405.442 339.129 447.043 365.469 482.188C371.444 468.334 368.102 448.373 373.375 433.281C381.44 410.196 387.949 400.846 399.469 381.219C400.796 382.878 401.002 383.151 402.531 385.062C376.402 420.725 370.793 463.635 372.875 506.469C370.22 506.734 367.188 506.562 367.188 506.562L365.938 489.344C365.937 489.344 354.915 474.262 349.875 466.406C329.047 433.945 309.079 400.953 288.094 368.594C299.349 361.021 313.497 358.973 326.594 355.438C339.471 351.961 352.443 348.806 365.469 345.938C366.21 345.774 367.218 345.719 368.281 345.75ZM711.219 346.906C711.919 346.934 712.79 347.068 713.938 347.312C739.51 352.754 767.221 353.738 789.969 366.625C769.539 398.692 750.033 431.34 729.75 463.5C723.671 473.139 710.5 491.75 710.5 491.75C710.5 491.75 706.277 519.416 702.125 532.719C689.845 572.062 664.466 602.089 631.719 625.656C629.899 623.693 629.914 623.682 628.094 621.719C679.654 581.918 705.294 540.869 703.562 475.375C703.152 459.829 701.303 439.886 694.844 424.844C689.85 413.213 682.941 402.467 677.719 390.938C675.927 386.983 676.998 386.167 678.781 383.906C693.449 402.771 703.344 429.094 707.469 452.375C709.308 462.758 709.021 470.053 710.812 483.844C738.213 448.164 758.803 406.202 783.688 368.594C763.184 355.983 728.451 358.878 706.125 348.906C708.363 347.663 709.347 346.832 711.219 346.906ZM465.5 478.062C467.27 483.93 471.249 484.671 475.375 488.781C471.737 491.977 462.8 501.31 456.438 504.406C448.982 495.252 456.051 481.991 465.5 478.062ZM403.438 579.906C403.437 579.906 424.77 603.729 433.375 610.625C435.928 612.671 446.844 618.883 449.969 623.969L444.906 627.625C444.906 627.625 428.816 613.487 421.844 606.906C414.516 599.989 394.312 579.938 394.312 579.938C394.312 579.938 396.698 580.413 398.75 580.188C400.802 579.962 403.438 579.906 403.438 579.906ZM468.375 611.438C471.451 613.213 484 625.469 484 625.469C484 625.469 450.359 668.665 433.812 690.469C431.06 694.096 423.26 707.526 420.219 707.344C406.189 706.503 395.356 703.723 381.531 701.188C381.239 694.589 383.372 682.296 386.469 675.656C389.791 676.919 393.026 678.44 396.438 679.438C401.961 681.052 413.219 683.469 413.219 683.469C413.219 683.469 421.275 673.131 425.156 667.844C439.17 648.752 451.819 628.373 468.375 611.438ZM612.438 613.5C631.352 638.165 664.281 680.5 664.281 680.5C664.281 680.5 692.813 669.442 694.438 674.344C696.838 681.588 698.258 689.117 699.625 696.625C700.57 701.812 689.595 700.104 684.375 700.844C675.728 702.069 667.012 707.488 658.562 705.281C658.033 705.143 657.613 704.654 657.281 704.219C636.612 677.065 616.137 649.788 595.562 622.562C599.809 617.796 606.696 616.291 612.438 613.5ZM594.688 638.125C596.844 638.258 598.757 639.072 600.406 640.688C570.161 658.454 510.424 656.305 479.094 641.906C478.921 642.125 478.904 642.148 478.75 642.344C478.72 642.323 478.686 642.334 478.656 642.312C479.754 641.078 480.326 638.42 481.969 638.594C504.009 640.926 519.043 648.379 540.812 647.812C546.989 647.652 564.59 646.457 571.906 644.938C578.473 643.573 587.602 637.686 594.688 638.125ZM607.344 649.938C608.3 650.999 610.288 652.007 609.625 653.156C593.434 681.221 574.752 707.802 557.688 735.344C552.134 744.307 547.236 753.732 540.812 762.094C521.065 733.397 503.583 703.224 484.875 674C479.805 666.08 467.091 658.55 473.156 650.031C498.818 682.362 517.089 720.488 540.812 754.281C566.039 722.088 583.838 683.593 607.344 649.938ZM754.031 655.469C761.624 656.239 760.135 669.212 761.719 676.062C763.784 684.996 769.724 688.619 758.406 690.812C758.35 690.823 746.929 692.944 745 692.531C742.751 692.05 743.57 688.149 742.938 685.938C739.553 674.107 736.875 659.406 736.875 659.406C736.875 659.406 745.239 654.577 754.031 655.469ZM324.719 657.531C346.823 663.432 344.078 661.334 338.719 679.344C337.197 684.459 338.909 693.112 333.781 694.594C328.784 696.038 319.492 692.225 314.844 690.469C315.509 680.15 318.028 665.799 324.719 657.531ZM731.875 660.656C732.257 660.589 732.558 660.673 732.656 661.031C734.636 668.242 739.758 691.91 739.625 692.531C738.977 695.561 724.413 695.185 722.406 695.25C720.474 689.272 721.788 682.992 720.281 676.875C708.567 694.227 725.593 698.318 700.531 698.281C699.164 691.624 698.406 672.156 698.406 672.156C698.406 672.156 700.958 670.74 702.938 671.312C704.059 671.637 705.012 672.928 706 676.219C706.924 679.295 707.889 684.31 709.031 686.344C709.255 685.716 709.038 676.885 709.031 676.219C709.009 674.122 707.811 672.09 709.031 669.875C710.518 667.176 725.344 663.594 725.344 663.594C725.344 663.594 726.001 668.671 727.062 672.188C728.125 675.704 729.594 677.656 729.594 677.656C729.594 677.656 729.988 672.051 729.781 668.25C729.575 664.449 728.781 662.469 728.781 662.469C728.781 662.469 730.729 660.857 731.875 660.656ZM346.188 663.594C348.252 664.619 349.674 665.099 350.281 666.406C349.246 672.862 348.518 687.08 349.844 688.406C351.878 686.372 354.5 666.688 354.5 666.688C354.5 666.688 356.076 665.743 359.25 666.938C363.131 668.399 371.622 671.402 371.688 671.531C370.235 676.355 367.875 690.407 369.188 691.719C369.77 691.136 374.812 676.475 375.781 672.344C383.269 674.409 382.555 675.241 381.531 685.938C380.861 692.934 379.716 701.132 378.219 701.188C375.797 701.278 363.742 699.368 360.938 698.281C360.873 698.256 359.215 698.311 359.156 698.281C361.584 689.225 362.52 683.513 360.406 677.656C359.837 686.402 356.521 691.293 355.5 697.375C350.828 698.311 339.703 695.916 339.125 694.594C338.514 693.198 339.643 686.698 339.906 685.625C340.46 683.365 343.216 666.972 346.188 663.594ZM530.562 350.344C529.157 350.397 527.391 351.062 525.188 352.531C522.968 354.616 522.907 354.776 523.438 356.031C523.193 355.828 523.027 355.637 522.719 355.406C520.713 357.412 519.039 362.248 520.844 364.781C520.73 364.951 520.655 365.113 520.531 365.281C531.832 379.089 540.403 349.969 530.562 350.344ZM504.594 380.062C503.504 379.875 502.171 380.561 500.625 382.438C500.553 382.326 500.583 382.274 500.5 382.156C498.348 383.568 496.452 384.8 496.438 386.75C495.295 387.839 494.517 388.918 493.969 391.906C493.333 395.371 496.625 399.789 500.344 399.406C509.322 398.481 509.447 380.897 504.594 380.062ZM590.219 395.75C586.433 396.211 580.665 399.198 579.938 403.562C578.68 411.108 585.828 412.049 591.031 410.562C599.976 408.007 600.741 394.469 590.219 395.75ZM554.375 412.094C553.387 412.194 552.147 412.597 550.688 413.438C550.587 413.495 550.536 413.507 550.438 413.562C546.982 412.809 543.431 415.981 541.438 419.781C541.155 420.115 540.842 420.357 540.562 420.75C536.951 425.819 545.137 428.817 548.688 428.188C557.139 426.688 561.292 411.395 554.375 412.094ZM487.562 417.969C482.212 418.34 477.738 426.738 480.812 431.469C480.583 431.698 480.358 431.923 479.906 432.375C480.524 433.61 480.985 434.704 481.969 435.688C482.096 435.581 482.115 435.555 482.219 435.469C490.305 443.168 499.832 423.216 490.312 418.531C489.397 418.081 488.465 417.906 487.562 417.969ZM519.344 435.219C517.684 435.194 515.807 435.891 513.938 437.25C511.821 436.255 509.509 438.232 508.312 440.625C508.376 440.688 508.383 440.696 508.438 440.75C500.833 451.82 517.369 452.385 523.531 444.719C527.179 440.181 524.124 435.289 519.344 435.219ZM616.844 479.719C612.739 480.221 607.412 483.35 607.656 486.094C607.203 486.491 606.724 486.866 606.312 487.281C602.256 491.377 608.799 494.054 611.5 494.719C621.262 497.123 629.492 481.927 620.312 480.844C620.399 480.758 620.612 480.606 620.688 480.531C619.888 479.731 618.46 479.521 616.844 479.719ZM577.625 495.469C577.248 495.458 576.882 495.555 576.625 495.781C575.985 496.345 575.67 496.812 575.5 497.219C575.076 497.026 574.877 496.902 574.156 496.594C572.305 498.445 568.857 499.773 568 502.344C567.768 503.04 567.752 503.509 567.812 503.875C567.711 504.007 567.563 504.078 567.469 504.219C562.886 511.025 580.798 510.285 584.188 507C588.538 502.784 584.563 492.674 579.25 496.281C579.043 496.108 578.987 495.969 578.688 495.781C578.397 495.599 578.002 495.48 577.625 495.469ZM492.062 496.969C490.566 496.787 488.594 497.482 486.062 499.469C480.688 503.686 486.647 523.929 495.969 515.531C496.483 515.068 498.549 497.758 492.062 496.969ZM520.156 498.344C517.433 498.244 514.635 499.355 513.656 498.656C506.473 505.84 516.297 515.83 525.188 514.719C529.222 514.214 526.074 500.615 522.781 498.969C521.958 498.557 521.064 498.377 520.156 498.344ZM539.594 525.406C528.218 525.266 534.175 538.639 541.25 541.469C545.963 543.354 551.852 540.696 550.688 534.875C549.638 529.63 544.176 525.463 539.594 525.406ZM494.312 530.75C492.529 530.974 489.972 534.023 489.781 536.125C489.449 539.781 490.456 554.201 498.844 550.531C508.079 546.491 503.082 529.647 494.312 530.75ZM560.531 554.062C556.204 555.343 557.365 565.517 562.219 570.281C565.826 573.822 575.815 570.847 573.406 564.844C573.089 564.054 572.507 563.399 571.781 562.781C571.879 562.683 571.935 562.627 572.094 562.469C570.732 559.966 568.961 556.926 566.5 556.5C566.601 556.419 566.621 556.385 566.75 556.281C564.018 554.206 561.974 553.636 560.531 554.062ZM503.938 562.812C498.744 563.077 496.568 570.664 502.531 576.438C508.364 582.084 520.219 577.986 514.906 569.469C514.749 569.626 512.89 567.326 511.188 565.75C511.086 565.851 509.604 565.611 509.938 565.344C507.722 563.464 505.669 562.724 503.938 562.812ZM583.625 582.625C573.456 585.287 583.498 602.506 592.688 600.312C603.371 597.762 590.193 580.905 583.625 582.625Z" fill="#ffffff" fill-rule="nonzero" opacity="1" stroke="none"/>
</g>
</svg>
