<?xml version="1.0" encoding="UTF-8" standalone="no"?>
<!DOCTYPE svg PUBLIC "-//W3C//DTD SVG 1.1//EN" "http://www.w3.org/Graphics/SVG/1.1/DTD/svg11.dtd">
<!-- Created with Vectornator (http://vectornator.io/) -->
<svg height="100%" stroke-miterlimit="10" style="fill-rule:nonzero;clip-rule:evenodd;stroke-linecap:round;stroke-linejoin:round;" version="1.1" viewBox="0 0 1080 1080" width="100%" xml:space="preserve" xmlns="http://www.w3.org/2000/svg" xmlns:vectornator="http://vectornator.io" xmlns:xlink="http://www.w3.org/1999/xlink">
<defs/>
<g id="Layer-1" vectornator:layerName="Layer 1">
<path d="M597.691 371.113C567.334 371.385 537.122 374.758 506.91 380.8C475.981 386.986 445.055 396.03 415.785 407.738C406.556 411.429 397.479 415.485 388.254 419.175C383.508 421.074 378.414 425.003 373.597 426.207C366.821 427.901 359.124 432.841 353.097 436.457C340.318 444.124 326.396 450.03 314.41 459.019C316.113 460.723 321.707 459.153 323.785 459.019C329.348 458.66 334.936 458.409 340.504 458.144C362.518 457.096 384.67 456.476 406.691 457.55C416.891 458.048 427.067 458.935 437.16 460.488C447.398 462.063 469.745 464.992 471.754 478.05C472.147 480.605 471.608 483.806 469.972 485.988C467.523 489.254 464.993 492.436 462.066 495.363C458.492 498.937 454.166 501.81 450.066 504.738C428.249 520.321 402.111 532.045 377.41 541.925C369.968 544.902 362.572 548.042 355.129 551.019C352.858 551.927 349.559 552.496 347.816 554.238C349.006 555.427 356.276 555.062 357.191 555.113C363.651 555.472 370.093 555.996 376.535 556.582C395.631 558.318 428.901 560.604 443.629 575.332C449.105 580.808 443.016 589.533 439.222 593.8C430.723 603.363 419.481 608.739 408.754 615.175C396.158 622.733 381.622 627.897 368.035 633.332C343.582 643.113 318.426 652.452 293.035 659.707C280.806 663.201 268.752 667.465 256.41 670.55C252.536 671.519 243.928 672.47 241.16 675.238C242.767 677.648 248.404 678.523 251.129 679.613C259.169 682.829 267.542 685.095 275.754 687.832C306.433 698.058 340.06 703.073 372.129 705.988C382.611 706.941 393.371 706.749 403.785 708.05C414.561 709.397 434.587 708.962 445.066 708.05C470.132 705.871 494.859 704.542 519.785 700.707C569.132 693.115 617.415 678.786 663.629 660.3C674.628 655.901 685.17 650.321 696.16 645.925C702.135 643.536 709.472 640.394 714.597 636.55C718.285 633.785 723.256 632.212 727.222 629.832C733.942 625.8 740.687 621.834 747.41 617.8C768.79 604.973 788.743 588.811 806.316 571.238C815.265 562.289 824.044 551.314 829.754 539.894C849.976 499.45 834.412 461.852 803.097 433.519C763.277 397.491 704.895 380.214 652.504 374.05C634.171 371.894 615.906 370.95 597.691 371.113ZM604.347 377.925C620.803 377.962 637.261 379.052 653.66 381.394C702.244 388.335 764.673 404.47 800.754 440.55C823.061 462.858 841.001 493.901 828.004 526.394C823.919 536.606 818.42 545.748 811.597 554.519C800.359 568.969 786.096 581.622 771.441 592.613C671.583 667.507 534.313 703.073 411.097 701.019C373.952 700.4 336.147 695.664 300.066 686.644C291.347 684.464 282.503 682.457 273.972 679.613C271.459 678.775 266.079 678.157 264.316 676.394C267.385 673.326 275.63 672.631 279.847 671.425C290.639 668.342 301.415 665.007 312.066 661.457C349.018 649.139 387.206 636.773 420.754 616.644C431.686 610.085 444.531 601.901 450.347 590.269C453.196 584.573 454.16 575.894 449.191 570.925C436.885 558.619 418.269 554.933 401.722 552.175C397.839 551.528 382.101 550.71 380.347 548.957C382.232 547.072 386.053 546.137 388.535 545.144C394.697 542.679 400.529 539.421 406.691 536.957C426.104 529.191 447.425 517.078 463.535 503.269C466.846 500.431 469.867 497.27 472.629 493.894C489.643 473.098 469.233 461.621 450.941 456.394C442.573 454.003 433.785 452.721 425.16 451.707C409.664 449.884 393.828 449.187 378.285 449.644C372.427 449.816 366.55 449.791 360.691 449.925C358.053 449.986 355.421 450.13 352.785 450.238C350.636 450.326 348.497 450.448 346.347 450.519C343.812 450.604 344.518 451.034 343.41 449.925C359.549 439.166 378.797 430.764 396.754 423.582C437.597 407.244 478.687 392.494 522.41 385.207C549.507 380.69 576.922 377.864 604.347 377.925ZM599.785 397.707C591.164 397.82 582.534 398.243 573.972 398.957C533.884 402.297 493.99 410.197 455.347 421.238C447.117 423.589 438.95 426.2 430.722 428.55C427.82 429.38 421.975 430.267 419.879 432.363C421.61 434.96 429.265 432.644 431.91 432.644C438.478 432.644 444.996 433.016 451.535 433.519C475.942 435.397 532.438 443.669 517.16 481.863C515.156 486.874 512.247 491.393 508.941 495.644C503.055 503.212 496.028 509.298 488.441 514.988C480.508 520.938 471.796 526.092 462.941 530.519C458.975 532.502 452.182 534.247 449.191 537.238C450.695 539.494 459.105 540.741 462.066 541.925C471.763 545.804 485.326 552.764 489.316 562.738C496.166 579.863 484.762 595.698 473.191 607.269C452.232 628.228 415.817 643.102 387.941 652.394C380.151 654.991 372.406 657.73 364.504 659.988C361.747 660.776 357.44 661.151 355.316 663.082C355.602 663.27 355.832 663.316 356.316 663.8C356.289 663.828 356.25 663.806 356.222 663.832C358.448 664.972 361.608 664.351 364.222 664.394C367.544 664.449 370.87 664.628 374.191 664.675C384.444 664.823 394.687 664.988 404.941 664.988C429.522 664.988 454.076 662.417 478.472 659.707C572.601 649.248 669.44 616.56 746.847 561.269C764.37 548.753 781.42 535.229 796.066 519.363C801.513 513.463 810.959 503.789 811.879 495.05C813.502 479.629 795.116 463.297 785.222 454.925C754.795 429.18 715.408 413.97 676.816 405.394C651.613 399.794 625.647 397.368 599.785 397.707ZM587.472 442.613C629.043 442.613 669.537 448.942 706.691 467.519C718.157 473.252 729.201 480.314 739.222 488.332C740.199 489.113 741.192 489.884 742.16 490.675C743.174 491.505 749.48 496.457 748.879 497.113C737.404 509.631 721.024 520.845 706.41 529.613C664.052 555.028 620.514 574.891 572.816 588.519C558.378 592.644 543.822 596.105 529.16 599.363C526.551 599.943 514.994 602.759 513.629 601.394C516.17 598.853 521.965 596.904 525.347 595.55C533.666 592.223 541.376 587.833 549.379 583.832C575.322 570.86 601.971 558.414 627.004 543.394C637.771 536.934 651.743 531.843 660.691 522.894C659.653 521.856 657.783 522.515 656.316 522.582C647.144 522.999 637.962 523.172 628.785 523.488C601.834 524.417 574.862 525.215 547.91 526.113C541.563 526.324 535.226 526.499 528.879 526.707C525.559 526.816 521.259 528.743 518.91 526.394C520.632 524.672 525.029 524.364 527.41 523.769C534.631 521.964 541.939 520.252 549.097 518.207C577.9 509.977 607.283 503.877 636.097 495.644C643.933 493.406 651.914 491.464 659.816 489.488C662.281 488.872 667.817 488.55 669.504 486.863C661.703 481.012 652.157 476.693 643.129 473.082C625.956 466.213 608.534 460.023 590.691 454.925C583.103 452.757 575.501 450.683 567.847 448.769C565.4 448.157 559.514 447.78 557.879 446.144C560.47 443.553 576.987 443.102 580.722 442.894C582.967 442.77 585.224 442.613 587.472 442.613ZM818.441 508.675C818.32 508.405 816.08 509.612 815.691 509.988C797.69 527.365 782.153 545.514 762.66 560.675C696.283 612.302 613.89 647.301 531.222 662.332C495.884 668.757 460.3 673.866 424.285 674.363C413.055 674.518 401.828 674.644 390.597 674.644C387.299 674.644 385.753 674.754 382.691 675.519C377.916 676.713 372.922 678.721 368.035 679.332C366.594 679.512 363.292 679.502 363.941 680.8C365.04 682.997 371.291 681.795 373.316 681.957C380.144 682.503 386.971 682.886 393.816 683.144C417.54 684.039 441.081 683.707 464.722 681.957C561.91 674.758 658.797 641.938 739.816 587.925C762.226 572.986 783.14 556.32 802.222 537.238C805.457 534.003 821.87 516.282 818.441 508.675Z" fill="#ffffff" fill-rule="nonzero" opacity="1" stroke="none"/>
</g>
</svg>
