<?xml version="1.0" encoding="UTF-8" standalone="no"?>
<!DOCTYPE svg PUBLIC "-//W3C//DTD SVG 1.1//EN" "http://www.w3.org/Graphics/SVG/1.1/DTD/svg11.dtd">
<!-- Created with Vectornator (http://vectornator.io/) -->
<svg height="100%" stroke-miterlimit="10" style="fill-rule:nonzero;clip-rule:evenodd;stroke-linecap:round;stroke-linejoin:round;" version="1.1" viewBox="0 0 1080 1080" width="100%" xml:space="preserve" xmlns="http://www.w3.org/2000/svg" xmlns:vectornator="http://vectornator.io" xmlns:xlink="http://www.w3.org/1999/xlink">
<defs/>
<g id="Layer-1" vectornator:layerName="Layer 1">
<path d="M896.781 73.7812C890.781 73.7526 885.037 74.94 880.125 78.0625C792.553 133.726 721.88 213.782 632.969 267.281C606.313 283.321 570.716 273.533 540.844 282.219C513.054 290.299 486.324 302.52 461.375 317.188C440.842 329.258 422.211 344.747 405.531 361.75C385.616 382.05 373.654 409.647 352.281 428.406C268.298 502.12 177.908 568.201 90.7188 638.094C105.066 656.532 116.147 678.045 133.75 693.406C151.079 708.529 171.983 719.802 193.531 727.844C212.232 734.822 232.635 738.024 252.594 737.75C278.745 737.39 304.3 729.872 330.156 725.938C340.335 755.888 346.489 787.561 360.719 815.812C378.49 851.093 399.548 885.226 425.438 915.062C446.434 939.26 471.76 960.446 499.75 976.031C525.647 990.451 556.125 994.363 584.312 1003.53C568.35 964.231 547.066 926.682 536.406 885.625C529.085 857.426 532.823 827.485 531.031 798.406C543.598 819.963 554.755 842.404 568.75 863.062C576.048 873.836 584.872 883.666 594.625 892.281C601.831 898.647 609.843 904.94 619.094 907.562C635.859 912.315 653.704 911.816 671 913.938C654.891 887.821 638.046 860.565 632.219 830.438C629.109 814.36 626.637 797.882 627.531 781.531C628.428 765.118 634.196 749.346 637.531 733.25C656.229 747.323 672.033 766.445 693.625 775.469C714.668 784.264 738.822 781.82 761.406 785C749.632 761.536 735.3 739.168 726.062 714.594C717.315 691.324 721.319 664.783 723.938 640.062C771.253 641.665 818.826 650.14 865.875 644.875C890.165 642.157 916.096 633.691 933.562 616.594C958.743 591.946 969.583 556.035 987.594 525.75C976.22 519.362 960.342 517.681 953.469 506.594C944.847 492.685 952.752 472.871 945.656 458.125C937.434 441.038 921.327 429.041 909.156 414.5C907.657 425.351 907.878 436.562 904.656 447.031C901.466 457.401 894.985 466.472 890.156 476.188C884.355 464.234 869.628 453.258 872.75 440.344C882.154 401.447 907.566 368.254 924.969 332.219C928.396 341.184 928.385 341.191 931.812 350.156C932.98 348.49 934.66 347.083 935.312 345.156C947.804 308.246 967.176 272.638 971.156 233.875C975.466 191.909 971.46 148.355 959.688 107.844C955.705 94.1376 939.991 85.6326 926.625 80.625C917.54 77.2214 906.782 73.8289 896.781 73.7812ZM901.906 87.9688C908.017 88.2813 914.316 89.7707 920.906 92.1875C932.635 96.4889 949.324 109.536 951.344 123.406C956.457 158.515 959.676 194.139 958.375 229.594C958.042 238.676 948.685 245.327 946.531 254.156C941.743 273.787 946.872 297.079 935.5 313.781C931.545 305.344 931.549 305.344 927.594 296.906C926.192 298.803 924.433 300.471 923.406 302.594C901.387 348.146 871.84 390.999 858.531 439.812C854.537 454.461 866.037 469.821 874.344 482.531C878.105 488.286 886.554 488.864 892.656 492.031C897.516 486.434 903.616 481.697 907.219 475.219C912.932 464.944 915.888 453.367 920.219 442.438C926.501 453.962 935.768 464.295 939.062 477C942.126 488.816 932.392 503.167 938.688 513.625C944.729 523.661 959.766 523.84 970.312 528.938C957.241 553.096 950.45 581.918 931.094 601.406C915.235 617.372 892.288 627.353 869.938 629.969C818.069 636.039 765.525 627.906 713.312 626.875C705.539 666.407 704.22 703.779 719.344 742.344C723.398 752.68 730.24 761.668 735.688 771.344C718.006 765.95 698.075 765.385 682.656 755.188C663.515 742.529 651.172 721.768 635.438 705.062C629.478 723.226 621.091 740.775 617.562 759.562C614.437 776.206 614.59 793.413 615.688 810.312C617.779 842.513 633.642 872.571 647.219 901.844C636.343 898.185 624.261 897.057 614.594 890.875C601.75 882.662 590.919 871.361 581.188 859.625C554.27 827.162 545.636 795.097 529.469 755.688C525.178 770.93 518.521 785.689 516.594 801.406C508.584 866.733 534.509 924.068 559 982.438C536.176 972.829 511.125 967.333 490.5 953.625C465.5 937.008 443.297 915.854 424.094 892.781C404.772 869.565 388.757 843.379 376 816C360.242 782.181 351.395 745.568 339.094 710.344C311.555 714.947 284.39 724.156 256.469 724.156C231.721 724.156 206.769 718.857 183.531 710.344C167.357 704.419 153.273 693.247 140.531 681.656C127.675 669.96 118.574 654.723 107.594 641.25C193.362 572.456 282.089 507.23 364.875 434.875C381.318 420.504 389.154 398.352 403.906 382.25C427.254 356.766 462.298 327.866 494.688 312.344C509.756 305.122 525.489 298.901 541.781 295.188C572.955 288.083 609.063 296.448 636.5 280.031C721.826 228.977 792.481 156.612 872.344 97.375C882.03 90.1899 891.721 87.4478 901.906 87.9688ZM883.844 104.938C876.272 111.138 864.92 114.51 861.125 123.531C854.905 138.319 857.619 155.427 855.875 171.375C846.354 157.799 846.365 157.826 836.844 144.25C833.708 170.746 833.698 170.723 830.562 197.219C819.488 180.607 819.48 180.611 808.406 164C805.242 194.059 805.258 194.066 802.094 224.125C790.756 206.723 790.744 206.715 779.406 189.312C775.187 221.744 775.188 221.756 770.969 254.188C757.785 233.357 757.809 233.361 744.625 212.531C706.564 242.391 666.589 269.948 630.438 302.094C608.018 322.029 596.236 355.446 584.312 381.281C584.312 362.824 584.312 362.801 584.312 344.344C553.199 370.711 553.176 370.727 522.062 397.094C528.654 369.936 528.658 369.939 535.25 342.781C498.6 375.74 498.619 375.729 461.969 408.688C474.103 390.897 484.374 371.701 498.344 355.312C511.958 339.342 528.931 326.565 544.219 312.188C525.059 319.922 504.265 324.445 486.75 335.406C460.705 351.705 436.722 371.522 414.875 393.125C402.383 405.477 393.501 421.116 384.688 436.312C376.255 450.851 370.456 466.772 363.344 482C363.871 468.816 363.879 468.809 364.406 455.625C248.391 547.383 248.391 547.398 132.375 639.156C153.166 674.286 192.684 694.274 232 700.031C247.64 702.322 263.626 704.207 279.344 702.531C319.957 698.201 359.883 688.928 400.156 682.125C395.454 656.158 395.452 656.155 390.75 630.188C396.292 642.273 400.534 655.036 407.375 666.438C413.804 677.152 422.671 686.207 430.312 696.094C394.453 701.895 394.453 701.887 358.594 707.688C367.729 736.189 374.815 765.426 386 793.188C407.398 846.297 443.849 896.946 490.438 930.812C503.067 939.993 517.671 946.059 531.312 953.656C531.852 954.339 532.4 955.037 532.938 955.719C517.7 906.847 499.614 856.051 503.406 805C504.279 793.249 505.859 781.527 507.875 769.875C511.914 762.364 513.542 753.745 516.281 745.656C521.472 730.331 531.76 715.875 540 702.438C543.287 714.871 544.111 727.839 546.844 740.406C553.076 769.061 565.041 793.178 580.219 817.781L580.625 818.406C580.616 818.415 580.603 818.429 580.594 818.438C580.459 818.22 580.353 817.999 580.219 817.781C580.163 817.837 580.157 817.843 580.094 817.906C584.284 825.037 583.088 823.137 587.594 829.312C587.733 829.551 587.859 829.793 588 830.031C595.267 842.287 605.91 852.176 614.875 863.25C611.162 846.879 605.124 830.887 603.75 814.156C600.942 779.949 605.552 747.93 614.219 716.844C619.172 709.983 622.148 697.161 623.781 693.406C627.226 685.489 636.475 673.085 640.188 667.625C644.44 673.279 645.783 680.693 649.688 686.594C656.953 697.573 665.486 707.671 673.844 717.844C681.453 727.105 692.896 739.621 705.406 740.719C706.332 741.65 707.306 742.636 708.219 743.562C703.335 721.143 696.352 699.057 693.562 676.281C690.31 649.718 698.421 629.741 705.219 604.781C757.547 606.523 811.111 621.509 862.188 610C868.512 608.575 873.92 605.482 878.812 601.438C891.659 596.252 900.189 592.837 920.688 584.562C920.711 584.687 920.725 584.686 920.75 584.812C920.822 584.687 920.897 584.563 920.969 584.438C921.123 584.375 921.125 584.376 921.281 584.312C921.249 584.157 921.251 584.152 921.219 584C930.771 567.391 940.978 551.173 949.781 534.156C954.485 525.065 936.24 522.373 925.5 517.312C926.681 505.238 929.407 493.22 929.031 481.094C928.869 475.835 925.615 471.164 923.906 466.188C915.838 478.336 911.554 494.147 899.688 502.625C894.06 506.646 886.236 499.478 879.5 497.906C904.342 514.736 904.345 514.733 929.188 531.562C927.463 532.487 925.896 533.857 924 534.344C912.824 537.213 901.638 542.745 890.156 541.594C877.36 540.31 866.266 532.09 854.312 527.344C855.368 517.635 857.967 507.972 857.469 498.219C857.073 490.466 853.591 483.175 851.656 475.656C837.945 496.223 837.961 496.246 824.25 516.812C813.109 512.862 797.688 514.553 790.812 504.938C781.729 492.236 770.77 477.761 764 462.812C767.282 471.266 770.541 479.726 773.719 488.219C776.318 495.165 776.042 493.391 775.188 498.875C772.59 494.552 769.823 490.333 767.406 485.906C756.286 465.543 744.477 445.492 734.594 424.5C733.972 423.181 735.76 421.812 736.688 420.688C747.379 407.729 758.507 395.097 769.406 382.312C771.252 383.895 771.248 383.918 773.094 385.5C767.645 394.641 762.376 403.873 756.75 412.906C753.388 418.305 748.266 421.555 750.75 428.25C753.909 436.764 757.217 445.22 760.5 453.688C757.61 444.486 759.375 426.094 759.375 426.094C759.375 426.094 831.11 310.426 866.969 252.594C876.562 264.338 876.532 264.349 886.125 276.094C885.073 259.576 880.684 242.924 882.969 226.531C884.1 218.419 890.176 211.447 895.969 205.656C904.25 197.378 914.946 191.949 924.438 185.094C926.156 196.251 932.158 207.568 929.594 218.562C921.048 255.201 904.402 289.485 891.812 324.938C906.801 296.682 906.824 296.662 921.812 268.406C928.458 278.137 928.449 278.145 935.094 287.875C934.628 272.585 931.498 257.139 933.688 242C934.872 233.806 945.756 228.082 944.938 219.844C944.702 217.478 944.191 215.171 943.562 212.906C941.921 180.49 941.615 174.232 939.656 135.562C933.632 147.148 933.618 147.134 927.594 158.719C923.918 149.042 923.667 137.216 916.562 129.688C910.678 123.452 899.12 126.452 892.281 121.281C887.39 117.583 886.656 110.387 883.844 104.938ZM860.25 222.438C808.862 276.899 765.858 339.285 712.438 391.812C699.167 404.861 678.131 406.577 662.25 416.281C652.629 422.161 645.085 430.908 636.5 438.219C647.478 443.421 659.877 446.347 669.438 453.844C675.933 458.937 678.416 467.699 682.906 474.625C657.242 494.313 629.88 511.973 605.906 533.688C579.077 557.989 553.841 584.193 530.969 612.25C514.562 632.375 500.086 654.31 488.594 677.594C477.248 700.581 468.926 725.176 462.906 750.094C454.874 783.342 457.041 821.965 468.156 854.25C476.445 878.324 490.451 899.907 505.812 920.594C496.369 908.504 487.354 896.146 480.281 882.594C467.963 858.992 459.73 833.058 454.906 806.875C450.496 782.94 449.081 757.915 452.875 733.875C457.002 707.728 469.839 683.734 478.312 658.656C465.639 658.43 452.295 662.012 440.281 657.969C431.9 655.148 427.615 645.64 421.281 639.469C437.116 642.241 451.693 647.687 467.406 639.25C486.45 629.024 504.687 616.896 521.031 602.75C535.533 590.199 547.6 574.985 559.25 559.75C569.917 545.8 580.361 531.385 587.781 515.469C595.499 498.915 601.347 481.251 604.25 463.219C605.565 455.054 594.63 444.931 600.125 438.75C616.661 420.15 640.559 409.465 662.5 397.719C675.603 390.704 693.444 392.742 704.531 382.844C760.118 333.223 807.132 274.669 860.25 222.438ZM322.219 517.844C324.064 519.426 324.061 519.449 325.906 521.031C311.147 543.684 284.527 574.922 295.562 605.344C301.252 621.029 308.434 630.586 321.688 640.188C337.031 651.303 355.124 658.26 372.844 664.969C370.031 665.991 367.342 667.448 364.406 668.031C336.314 673.614 308.254 679.597 279.875 683.469C268.052 685.082 255.513 687.827 244.062 684.469C237.622 682.58 235.066 674.489 231.031 669.125C224.456 660.384 215.839 647.696 223.062 637.031C236.108 644.4 250.113 650.566 264.719 653.906C259.752 621.591 253.938 577.551 280.562 551.594C293.359 539.118 308.332 529.094 322.219 517.844ZM611.219 298.219C595.184 299.677 563.289 322.538 554.781 328.531C562.549 332.241 587.036 328.356 595.688 326.562C594.433 322.927 590.17 321.115 586.938 319.031C596.627 310.667 608.869 309.61 617 299C615.471 298.222 613.509 298.01 611.219 298.219ZM849.562 399.188C839.395 411.902 821.139 425.401 832.344 440.812C837.787 448.299 843.474 455.599 849.031 463C843.004 446.244 835.819 436.059 841.906 419.594C844.425 412.781 847.017 405.99 849.562 399.188Z" fill="#ffffff" fill-rule="nonzero" opacity="1" stroke="none"/>
</g>
</svg>
