<?xml version="1.0" encoding="UTF-8" standalone="no"?>
<!DOCTYPE svg PUBLIC "-//W3C//DTD SVG 1.1//EN" "http://www.w3.org/Graphics/SVG/1.1/DTD/svg11.dtd">
<!-- Created with Vectornator (http://vectornator.io/) -->
<svg height="100%" stroke-miterlimit="10" style="fill-rule:nonzero;clip-rule:evenodd;stroke-linecap:round;stroke-linejoin:round;" version="1.1" viewBox="0 0 900 900" width="100%" xml:space="preserve" xmlns="http://www.w3.org/2000/svg" xmlns:vectornator="http://vectornator.io" xmlns:xlink="http://www.w3.org/1999/xlink">
<defs/>
<g id="Layer-1" vectornator:layerName="Layer 1">
<path d="M346.765 309.117C341.136 310.03 329.803 315.963 312.764 326.916C290.047 341.52 272.603 354.907 260.433 367.078C248.263 379.248 235.282 394.663 221.489 413.324C207.696 431.985 191.875 446.994 174.026 458.353C156.176 469.712 142.789 479.854 133.864 488.778C124.94 497.703 116.015 510.279 107.09 526.506C98.1654 542.732 93.703 555.714 93.703 565.45C93.703 575.186 94.5144 581.271 96.137 583.705C97.7597 586.139 100.599 588.167 104.656 589.79C108.713 591.413 113.175 591.413 118.043 589.79C122.911 588.167 130.213 582.488 139.949 572.752C149.685 563.016 165.912 540.704 188.63 505.816C211.347 470.929 228.385 451.457 239.744 447.4C251.103 443.343 260.839 443.343 261.65 443.749C251.103 463.627 240.555 483.505 230.008 503.382C208.913 543.138 198.771 564.638 199.583 567.884C200.394 571.129 208.913 572.346 225.14 571.535C241.367 570.724 259.622 546.383 279.905 498.514C300.189 450.645 315.198 425.088 324.935 421.843C334.671 418.598 352.926 414.946 379.7 410.89C406.474 406.833 419.861 403.993 419.861 402.371C419.861 400.748 417.021 399.531 411.342 398.72C405.663 397.908 388.625 398.72 360.228 401.154C346.029 402.371 331.831 403.588 317.632 404.805C323.718 389.795 329.803 374.785 335.888 359.775C348.058 329.756 352.926 313.123 350.492 309.878C349.883 309.067 348.641 308.813 346.765 309.117ZM315.198 341.52C314.793 343.954 314.387 346.388 313.981 348.822C313.17 353.69 291.264 385.333 287.207 395.069C283.151 404.805 275.037 412.107 262.867 416.975C256.782 419.409 250.697 421.843 244.612 424.277C251.914 414.541 259.216 404.805 266.518 395.069C281.122 375.597 292.887 361.804 301.811 353.69C306.274 349.634 310.736 345.577 315.198 341.52ZM464.422 371.021C461.38 371.021 459.799 373.568 454.931 379.248C450.063 384.927 448.258 387.767 441.767 387.767C438.522 387.767 431.451 384.256 429.321 386.082C427.191 387.907 432.843 392.635 433.248 395.069C434.06 399.937 431.626 404.805 425.946 409.673C420.267 414.541 417.833 417.786 418.644 419.409C419.455 421.032 428.033 418.093 435.335 414.847C442.637 411.602 444.474 411.994 450.153 414.428C452.993 415.645 455.635 424.282 458.407 423.398C461.178 422.513 460.428 413.729 461.239 410.89C462.862 405.21 462.886 403.235 469.376 400.801C475.867 398.367 484.274 392.703 483.057 389.965C481.84 387.227 467.664 389.896 465.179 387.109C462.694 384.322 467.465 371.021 464.422 371.021ZM335.583 435.23C333.352 435.636 331.425 436.447 329.803 437.664C326.557 440.098 321.284 448.617 313.981 463.221C306.679 477.825 298.16 497.703 288.424 522.855C278.688 548.006 274.226 562.204 275.037 565.45C275.849 568.695 281.528 570.318 292.075 570.318C302.623 570.318 309.113 569.506 311.547 567.884C313.981 566.261 318.849 552.063 326.152 525.289C333.454 498.514 338.727 483.099 341.973 479.042C345.218 474.986 347.652 472.957 349.275 472.957C350.086 472.957 350.897 472.957 351.709 472.957C351.303 478.231 350.897 483.505 350.492 488.778C349.68 499.326 350.897 505.816 354.143 508.25C357.388 510.684 361.039 511.09 365.096 509.467C369.152 507.845 374.832 498.109 382.134 480.259C389.436 462.41 391.059 450.645 387.002 444.966C382.945 439.287 375.643 439.287 365.096 444.966C359.822 447.806 354.548 450.645 349.275 453.485C349.68 450.645 350.086 447.806 350.492 444.966C350.897 442.126 351.303 439.287 351.709 436.447C348.869 436.041 346.029 435.636 343.19 435.23C340.35 434.824 337.815 434.824 335.583 435.23ZM653.527 437.664C651.498 438.07 649.47 438.881 647.442 440.098C643.385 442.532 632.432 464.438 614.582 505.816C605.658 526.506 596.733 547.195 587.808 567.884C592.676 568.289 597.544 568.695 602.412 569.101C612.148 569.912 619.45 568.695 624.318 565.45C629.187 562.204 634.055 551.657 638.923 533.808C643.791 515.958 647.442 503.788 649.876 497.297C652.31 490.807 654.744 486.75 657.178 485.127C659.612 483.505 662.046 482.693 664.48 482.693C665.697 482.693 668.131 485.127 668.131 486.344C668.131 488.778 665.697 496.486 660.829 509.467C655.961 522.449 653.121 533.808 652.31 543.544C651.498 553.28 651.904 559.77 653.527 563.016C655.149 566.261 660.423 567.478 669.348 566.667C673.81 566.261 678.273 565.855 682.735 565.45C682.329 561.393 681.924 557.336 681.518 553.28C680.707 545.166 685.98 527.317 697.339 499.731C708.698 472.146 711.943 455.513 707.075 449.834C702.207 444.155 693.688 443.749 681.518 448.617C675.433 451.051 669.348 453.485 663.263 455.919C663.668 453.079 664.074 450.24 664.48 447.4C665.291 441.721 663.668 438.475 659.612 437.664C657.583 437.258 655.555 437.258 653.527 437.664ZM432.031 438.881C427.163 438.881 423.107 440.098 419.861 442.532C416.616 444.966 410.531 453.891 401.606 469.306C392.681 484.722 384.162 502.571 376.049 522.855C367.935 543.138 363.879 556.119 363.879 561.799C363.879 564.638 363.879 567.478 363.879 570.318C369.152 570.318 374.426 570.318 379.7 570.318C390.247 570.318 396.738 569.101 399.172 566.667C401.606 564.233 408.908 543.949 421.078 505.816C433.248 467.683 439.333 446.994 439.333 443.749C439.333 442.126 439.333 440.504 439.333 438.881C436.899 438.881 434.465 438.881 432.031 438.881ZM585.374 438.881C580.506 438.881 574.015 440.909 565.902 444.966C557.789 449.023 549.675 455.108 541.562 463.221C533.449 471.335 526.958 479.854 522.09 488.778C517.222 497.703 514.382 509.873 513.571 525.289C512.759 540.704 515.193 552.063 520.873 559.365C526.552 566.667 532.637 570.318 539.128 570.318C545.619 570.318 552.515 567.884 559.817 563.016C567.119 558.148 576.855 545.978 589.025 526.506C601.195 507.033 607.686 489.995 608.497 475.391C609.309 460.787 606.875 451.051 601.195 446.183C595.516 441.315 590.242 438.881 585.374 438.881ZM486.797 441.315C466.513 441.315 454.749 447.4 451.503 459.57C449.881 465.655 448.258 471.74 446.635 477.825C452.315 476.203 457.994 474.58 463.673 472.957C475.032 469.712 481.929 468.089 484.363 468.089C485.58 468.089 486.797 468.089 488.014 468.089C488.014 468.901 488.014 469.712 488.014 470.523C488.014 472.146 479.9 481.476 463.673 498.514C447.447 515.552 435.277 529.751 427.163 541.11C419.05 552.468 414.993 559.77 414.993 563.016C414.993 566.261 425.946 568.289 447.852 569.101C469.758 569.912 483.551 569.101 489.231 566.667C494.91 564.233 498.561 557.742 500.184 547.195C500.995 541.921 501.806 536.647 502.618 531.374C497.344 532.996 492.07 534.619 486.797 536.242C476.249 539.487 470.57 540.298 469.758 538.676C468.947 537.053 477.061 524.883 494.099 502.165C511.137 479.448 520.467 466.466 522.09 463.221C523.713 459.976 524.118 456.325 523.307 452.268C522.495 448.211 521.278 445.372 519.656 443.749C518.033 442.126 507.08 441.315 486.797 441.315ZM774.01 443.749C768.331 443.749 759.812 448.211 748.453 457.136C737.095 466.061 726.547 477.42 716.811 491.212C707.075 505.005 700.99 515.552 698.556 522.855C696.122 530.157 694.905 537.864 694.905 545.978C694.905 554.091 696.528 560.176 699.773 564.233C703.018 568.289 706.669 570.318 710.726 570.318C714.783 570.318 720.462 568.289 727.764 564.233C731.415 562.204 735.066 560.176 738.717 558.148C738.717 560.176 738.717 562.204 738.717 564.233C738.717 568.289 741.151 570.724 746.019 571.535C750.887 572.346 756.161 571.941 761.84 570.318C767.52 568.695 771.171 566.667 772.793 564.233C774.416 561.799 780.907 542.327 792.266 505.816C803.624 469.306 808.087 449.834 805.653 447.4C803.219 444.966 800.379 444.966 797.134 447.4C793.888 449.834 790.643 449.834 787.398 447.4C784.152 444.966 779.69 443.749 774.01 443.749ZM775.227 472.957C781.08 473.632 772.793 484.722 763.057 503.382C753.321 522.043 745.614 532.591 739.934 535.025C737.095 536.242 730.604 535.43 730.198 533.808C729.387 530.562 730.604 525.694 733.849 519.203C737.095 512.713 744.397 502.977 755.755 489.995C761.435 483.505 765.776 471.868 775.227 472.957ZM579.289 472.957C580.506 472.957 581.723 472.957 582.94 472.957C582.94 474.986 582.94 477.014 582.94 479.042C582.94 483.099 579.289 492.429 571.987 507.033C564.685 521.638 555.221 536.612 548.73 541.481C545.485 543.915 539.271 534.034 540.488 528.355C542.922 516.996 550.892 505.411 554.949 497.297C559.006 489.184 563.468 483.099 568.336 479.042C573.204 474.986 576.855 472.957 579.289 472.957ZM176.46 475.391C177.271 475.391 178.082 475.391 178.894 475.391C178.488 476.608 178.082 477.825 177.677 479.042C176.865 481.476 169.969 492.429 156.987 511.901C144.006 531.374 135.081 543.949 130.213 549.629C125.345 555.308 120.883 558.959 116.826 560.582C114.798 561.393 109.93 558.959 109.524 556.931C108.713 552.874 109.93 547.195 113.175 539.893C116.421 532.591 121.694 524.477 128.996 515.552C136.298 506.628 145.629 497.703 156.987 488.778C168.346 479.854 174.837 475.391 176.46 475.391Z" fill="#ffffff" fill-rule="nonzero" opacity="1" stroke="none" vectornator:layerName="Curve 1"/>
</g>
</svg>
