<?xml version="1.0" encoding="UTF-8" standalone="no"?>
<!DOCTYPE svg PUBLIC "-//W3C//DTD SVG 1.1//EN" "http://www.w3.org/Graphics/SVG/1.1/DTD/svg11.dtd">
<!-- Created with Vectornator (http://vectornator.io/) -->
<svg height="100%" stroke-miterlimit="10" style="fill-rule:nonzero;clip-rule:evenodd;stroke-linecap:round;stroke-linejoin:round;" version="1.1" viewBox="0 0 750 1000" width="100%" xml:space="preserve" xmlns="http://www.w3.org/2000/svg" xmlns:vectornator="http://vectornator.io" xmlns:xlink="http://www.w3.org/1999/xlink">
<defs/>
<g id="Layer-1" vectornator:layerName="Layer 1">
<path d="M299.104 152.001C297.409 153.696 298.591 158.194 298.775 160.226C299.515 168.366 300.218 175.603 300.969 183.86C301.932 194.46 305.236 208.903 304.149 219.228C304.135 219.366 302.028 221.881 301.956 222.025C299.274 227.389 295.066 233.597 291.208 238.42C277.641 231.636 264.694 223.49 251.124 216.706C248.969 215.628 239.196 208.455 237.58 210.071C239.395 213.701 242.978 216.948 245.476 220.16C252.514 229.209 259.543 238.246 266.587 247.303C270.215 251.967 275.071 256.619 277.938 261.78C278.384 262.582 271.533 272.977 270.371 274.721C265.727 281.686 261.214 288.703 257.485 296.161C255.163 300.805 250 305.139 248.602 310.034C247.7 313.19 248.017 317.482 247.669 320.782C246.828 328.773 245.988 336.753 245.147 344.744C242.823 366.823 240.562 388.905 238.238 410.984C237.345 419.466 237.888 429.996 235.387 438.128C234.734 440.247 221.767 447.691 219.265 449.478C208.085 457.464 196.203 464.595 185.213 472.838C182.284 475.035 173.204 479.254 171.669 481.94C170.925 483.241 179.158 494.726 180.497 497.404C188.021 512.452 198.149 527.152 206.982 541.875C207.889 543.386 216.336 555.858 215.811 556.735C214.2 559.419 209.225 561.929 206.653 563.644C199.529 568.393 192.849 573.794 185.871 578.778C168.23 591.379 151.251 605.222 133.175 617.272C124.602 622.987 113.97 629.238 106.69 636.519C105.898 637.311 115.73 650.984 117.108 652.915C126.363 665.871 135.362 679.089 144.197 692.341C145.431 694.193 152.664 703.468 152.422 704.679C152.128 706.147 142.457 711.02 140.413 712.246C130.088 718.441 119.208 725.375 108.554 731.767C107.544 732.373 95.6899 739.06 95.668 739.663C95.2592 750.906 95.7702 762.192 95.668 773.441C95.6428 776.211 92.85 778.864 92.1586 781.282C90.7503 786.211 88.4965 790.677 86.7848 795.814C199.824 795.918 250.247 795.971 312.868 796.033L374.776 742.843C380.428 736.384 395.442 740.182 402.851 739.992C403.125 739.985 411.231 733.001 412.338 732.096C419.794 725.995 428.237 720.31 435.039 713.507C437.314 711.232 431.668 696.621 433.175 693.273C433.489 692.575 438.875 687.841 439.481 687.296C444.627 682.664 449.831 678.091 454.944 673.423C456.497 672.005 458.163 668.596 459.989 669.639C462.482 671.064 465.034 675.173 466.898 677.206C471.123 681.816 475.304 686.453 479.51 691.08C489.925 702.536 500.443 713.924 510.766 725.461C514.942 730.128 520.068 734.569 523.707 739.663C523.89 739.92 523.704 740.28 523.707 740.595C523.809 751.846 523.782 763.124 523.981 774.373C524.098 780.987 530.209 789.119 531.548 795.814C583.174 795.919 634.83 796.248 686.456 796.143C686.691 796.142 686.785 795.72 686.785 795.485C686.785 791.91 682.967 786.918 681.411 783.805C680.048 781.079 677.083 776.03 676.969 772.783C676.77 767.108 676.809 761.407 676.695 755.73C676.598 750.893 676.931 746.058 676.366 741.253C676.253 740.294 661.21 732.441 659.313 731.493C653.992 728.832 648.762 725.446 643.575 722.335C639.467 719.87 634.14 718.248 630.305 715.371C627.445 713.226 623.579 710.74 620.216 709.394C615.278 707.419 606.556 703.56 602.833 699.305C600.76 696.936 600.74 691.609 599.378 688.886C595.63 681.388 594.707 672.071 590.221 664.594C584.635 655.285 576.001 646.861 569.11 638.438C561.112 628.663 553.037 618.965 545.147 609.102C544.129 607.83 538.085 602.292 539.115 600.877C543.051 595.465 549.934 591.126 554.908 586.674C555.847 585.834 559.662 581.559 561.214 581.301C564.515 580.75 567.921 587.05 570.974 585.742C574.379 584.283 578.476 579.414 581.393 576.914C589.091 570.315 596.835 563.672 604.752 557.338C605.6 557.903 606.694 569.69 606.946 572.198C608.113 583.868 609.288 595.512 610.455 607.183C610.719 609.819 610.444 616.987 612.319 618.862C616.385 614.797 616.705 606.966 619.283 601.809C624.598 591.18 627.041 579.933 632.499 569.018C634.432 565.151 635.704 556.71 638.201 554.212C643.302 559.313 646.051 567.719 649.223 574.063C654.876 585.369 663.1 596.081 668.141 607.841C671.143 614.844 674.984 622.272 679.218 628.623C681.729 626.112 679.588 620.604 679.218 617.272C678.271 608.756 677.312 600.237 676.366 591.719C674.999 579.418 673.549 567.124 672.254 554.816C671.698 549.535 671.858 543.171 670.334 538.091C668.815 533.026 656.979 522.94 653.007 518.57C641.041 505.408 628.934 492.365 617.035 479.144C606.292 484.515 598.102 495.488 588.357 502.449C586.251 503.952 578.298 495.095 578.267 494.552C578.075 491.086 578.142 487.654 577.938 484.189C577.623 478.826 577.312 473.43 577.006 468.067C576.746 463.511 577.531 446.515 574.155 444.105C570.924 441.797 565.641 441.486 562.146 439.389C556.373 435.925 548.891 433.473 542.296 430.835C518.95 421.496 496.134 410.308 472.601 400.895C461.786 396.569 448.141 392.843 437.891 386.693C427.185 380.27 418.956 368.65 409.157 360.811C411.319 358.65 419.573 360.891 422.427 361.14C432.272 361.996 441.661 362.685 451.435 363.662C453.672 363.886 459.125 365.13 460.592 363.662C457.474 358.986 450.211 355.248 445.787 351.708C435.674 343.618 425.549 335.461 415.189 327.691C416.261 325.547 420.114 321.999 420.234 319.849C420.651 312.336 419.696 304.595 419.302 297.093C418.455 281.006 417.649 264.924 416.779 248.839C416.779 248.827 415.57 242.853 415.518 241.6C415.317 236.768 415.719 231.902 415.518 227.069C415.506 226.772 415.07 226.677 414.86 226.466C396.617 242.885 380.489 264.763 364.083 283.22C362.737 284.735 354.376 294.858 353.336 294.9C349.237 295.064 345.155 294.57 341.053 294.571C339.056 294.571 341.274 295.937 338.201 294.571C336.563 293.843 338.078 279.524 338.201 277.243C339.126 260.136 341.953 241.969 341.053 224.876C340.879 221.566 332.409 209.794 330.305 206.287C325.812 198.799 322.554 189.155 317.09 182.324C314.439 179.011 311.137 173.693 309.523 169.657C307.339 164.198 303.442 156.338 299.104 152.001ZM324.986 212.593C326.842 214.226 333.815 225.008 333.815 226.466C333.815 238.365 332.449 250.528 331.895 262.438C331.719 266.224 332.67 281.446 330.305 283.22C327.63 279.208 326.931 272.781 325.589 268.086C322.308 256.602 318.781 245.189 315.5 233.704C314.112 228.848 310.052 221.08 311.058 216.048C311.21 215.291 323.197 212.951 324.986 212.593ZM307 227.069C311.14 225.604 310.979 238.926 312.045 243.191C315.317 256.277 319.032 269.316 322.738 282.288C323.227 283.998 327.791 298.897 327.509 299.341C321.534 308.729 307.645 313.46 302.559 323.633C301.683 325.385 308.262 339.642 308.262 342.88C308.262 347.615 303.382 354.23 301.627 358.617C296.073 372.502 290.328 386.864 283.641 400.237C279.081 409.356 275.145 419.174 271.358 428.641C270.122 431.731 268.565 438.399 266.313 440.65C263.39 443.573 257.985 445.445 254.304 447.285C252.903 447.986 241.107 454.367 240.76 454.194C239.638 453.633 240.693 450.418 240.76 449.807C241.38 444.233 242.005 438.657 242.625 433.083C245.113 410.686 247.559 388.236 250.192 365.856C251.614 353.771 252.961 341.704 254.304 329.61C254.922 324.05 254.701 317.283 256.224 311.953C257.263 308.315 260.837 304.154 262.804 300.877C272.433 284.827 281.906 268.673 291.537 252.622C296.282 244.714 298.326 230.139 307 227.069ZM267.52 233.759C269.896 234.33 273.431 236.988 274.813 237.817C277.227 239.265 287.067 243.352 288.083 245.384C288.469 246.158 283.023 254.416 282.051 255.145C276.417 248.384 271.87 240.248 265.655 234.033C266.073 233.615 266.728 233.569 267.52 233.759ZM407.622 243.465C409.906 244.987 410.139 262.587 410.419 266.221C411.365 278.523 412.324 290.823 413.27 303.125C413.418 305.055 414.974 316.211 414.257 317.327C411.603 321.455 407.237 324.151 403.838 327.691C414.774 336.439 427.339 344.338 437.233 354.231C435.779 355.684 430.117 354.044 428.13 353.902C418.776 353.234 409.411 352.628 400.055 351.982C397.326 351.794 390.474 349.883 388.375 351.982C398.869 360.727 409.643 369.796 419.302 379.455C417.74 381.017 410.776 379.043 408.554 378.797C398.675 377.699 388.774 376.712 378.889 375.671C376.328 375.402 369.486 373.394 367.538 375.342C373.896 384.879 381.994 398.298 389.965 406.269C389.65 406.584 389.623 406.556 389.307 406.872C385.914 405.176 381.015 405.093 377.298 404.35C366.434 402.177 355.205 400.039 344.617 397.715C344.802 397.803 345.695 397.97 345.769 398.044C339.699 407.148 330.441 415.156 323.067 423.267C307.992 439.851 293.51 457.266 277.664 473.112C275.623 471.071 275.66 466.204 275.142 463.352C274.721 461.039 274.301 458.701 273.88 456.388C273.574 454.703 273.2 453.027 272.893 451.343C272.63 449.896 271.799 447.482 271.961 446.024C272.021 445.485 272.33 445.235 272.564 444.927C271.854 441.376 277.978 430.105 279.199 427.051C287.321 406.746 297.892 387.42 306.013 367.117C308.233 361.568 311.087 356.27 313.306 350.721C313.899 349.24 315.829 346.962 315.829 345.402C315.829 340.912 312.958 334.887 311.716 330.542C311.513 329.831 309.9 326.075 310.455 325.497C315.708 320.026 321.436 315.072 326.851 309.76C329.504 307.156 331.145 302.783 334.747 301.864C342.184 299.966 350.118 302.361 357.777 301.864C358.36 301.826 368.803 288.819 370.06 287.333C382.357 272.8 394.166 256.921 407.622 243.465ZM386.511 383.567C392.747 383.782 404.54 385.221 406.964 385.432C411.791 385.851 416.659 386.424 421.495 386.693C422.463 386.747 424.344 386.381 424.346 387.351C424.507 442.971 424.616 498.594 424.017 554.212C424.014 554.51 423.657 554.814 423.359 554.816C388.978 555.024 354.595 555.231 320.216 554.816C318.313 554.793 316.532 546.228 316.103 544.726C313.527 535.711 310.24 526.807 307.275 517.912C306.744 516.321 305.74 510.009 304.149 509.413C301.956 508.59 299.423 509.127 297.185 508.755C290.535 507.646 283.726 507.233 277.006 506.561C258.184 504.679 239.403 502.741 220.581 500.858C213.222 500.122 205.839 499.439 198.483 498.665C196.066 498.41 192.145 498.925 189.983 498.336C189.388 498.174 182.482 486.24 181.758 484.792C193.35 476.098 205.612 468.317 217.401 459.897C222.425 456.308 227.726 451.554 233.193 448.82C235.607 451.235 231.771 456.065 233.193 458.91C234.315 461.153 240.383 463.058 242.625 463.955C251.539 467.521 260.248 472.602 268.836 476.896C270.73 477.843 277.568 482.647 279.528 481.666C279.867 481.497 279.941 480.969 280.186 480.679C284.65 475.404 289.436 470.353 294.06 465.216C306.262 451.658 318.471 438.122 330.634 424.529C335.662 418.909 341.479 409.501 347.962 405.611C349.303 404.806 356.435 407.196 358.106 407.53C368.596 409.628 379.111 411.593 389.636 413.507C392.493 414.026 401.413 417.194 403.509 415.097C398.752 407.961 394.066 400.795 389.307 393.657C387.223 390.53 385.316 386.485 382.672 383.841C382.962 383.551 384.432 383.496 386.511 383.567ZM431.585 390.476C439.765 394.255 448.436 397.875 456.809 401.224C458.812 402.026 465.112 403.431 466.295 405.008C468.912 408.497 465.193 417.315 464.376 421.403C461.258 436.993 457.733 452.477 454.615 468.067C454.24 469.946 451.117 486.497 450.832 486.711C449.653 487.595 437.554 485.128 435.368 484.792C435.137 484.756 431.293 484.803 431.256 483.86C430.949 476.085 430.953 468.281 430.927 460.5C430.848 437.369 430.718 414.265 430.927 391.134C430.929 390.837 431.315 390.352 431.585 390.476ZM474.794 410.052C484.432 414.556 493.515 417.925 502.212 421.403C503.505 421.92 510.531 423.777 510.766 425.187C511.366 428.785 507.164 436.213 505.995 439.718C501.759 452.426 497.623 465.164 493.383 477.883C492.816 479.584 488.838 493.162 488.064 493.291C483.526 494.048 471.666 490.357 466.569 489.508C464.314 489.131 459.676 489.25 458.07 487.643C460.641 482.501 460.929 474.97 462.182 469.328C464.976 456.755 467.552 444.123 470.079 431.493C470.843 427.671 472.87 411.977 474.794 410.052ZM518.333 427.709C528.886 432.985 540.165 437.856 551.124 442.24C554.754 443.692 560.727 445.208 563.407 447.888C557.23 457.153 547.131 465.339 539.444 473.441C535.656 477.434 531.879 481.454 528.094 485.45C526.201 487.447 524.338 489.429 522.446 491.427C520.349 493.641 519.174 497.758 516.14 498.062C511.581 498.518 505.44 496.108 500.95 495.21C500.184 495.057 496.434 494.947 496.235 493.949C495.82 491.878 500.389 481.158 501.279 478.486C505.308 466.401 509.261 454.323 513.288 442.24C514.593 438.326 515.464 430.578 518.333 427.709ZM569.165 454.084C569.851 455.205 568.971 459.495 569.11 462.694C569.416 469.738 569.736 476.815 570.042 483.86C570.248 488.588 569.026 493.524 570.371 498.062C571.093 500.498 578.184 504.857 580.132 506.561C585.179 510.977 590.219 515.415 595.266 519.831C597.044 521.388 602.344 524.56 603.162 526.74C604.22 529.562 603.859 533.556 604.094 536.501C604.271 538.706 605.841 544.321 604.752 546.316C602.472 550.497 594.557 554.884 590.879 557.996C583.904 563.898 577.01 571.209 569.439 576.256C568.603 576.813 564.601 574.166 563.736 573.734C557.815 570.773 551.998 567.536 546.079 564.576C543.27 563.172 530.258 557.642 529.355 555.474C526.969 549.749 527.095 537.95 526.229 531.456C525.262 524.205 524.285 517.001 523.378 509.742C523.176 508.13 521.401 501.881 522.446 500.584C535.82 483.982 550.641 466.78 567.849 454.194C568.516 453.706 568.936 453.711 569.165 454.084ZM616.103 488.246C620.924 493.068 625.181 498.556 629.647 503.71C629.998 504.115 633.919 507.83 633.431 508.48C628.847 514.593 620.541 519.969 614.842 525.15C613.212 526.631 610.314 530.015 609.468 529.592C608.287 529.002 609.83 523.922 609.468 522.957C609.18 522.188 608.231 521.897 607.604 521.367C602.631 517.158 597.35 513.087 592.743 508.48C600.434 501.751 608.88 495.469 616.103 488.246ZM431.475 491.811C431.748 491.845 432.162 491.948 432.407 491.975C433.57 492.104 434.271 492.085 434.272 492.085C435.004 492.198 438.372 492.831 441.674 493.346C443.354 493.608 445.031 493.857 446.609 494.004C447.335 494.071 447.998 494.19 448.748 494.223C448.974 494.289 449.264 494.384 449.461 494.443C450.641 494.791 451.786 495.024 452.97 495.156C454.115 495.283 455.409 495.411 456.809 495.32C457.037 495.402 457.313 495.529 457.521 495.594C458.059 495.765 458.461 495.814 458.947 495.923C457.612 497.681 456.689 499.445 456.151 500.858C455.44 502.724 454.998 504.259 454.67 505.081C452.845 509.643 450.704 514.453 448.638 519.283C445.137 513.388 441.508 507.291 437.178 501.516C435.76 499.627 433.635 498.708 431.475 498.665C431.483 496.38 431.468 494.095 431.475 491.811ZM473.04 498.555C474.162 498.822 474.719 498.951 475.891 499.213C480.092 500.155 484.31 501.2 488.777 500.584C489.39 500.758 490.067 501.016 490.641 501.133C492.321 501.473 493.711 501.626 495.248 501.626C496.002 501.851 496.768 502.082 497.331 502.174C498.66 502.393 499.525 502.448 499.525 502.449C501.19 502.781 503.825 503.588 506.763 504.313C506.884 504.343 507.024 504.393 507.147 504.423C497.592 509.2 487.011 513.596 476.768 517.693C476.226 517.909 475.936 518.116 475.452 518.351C474.946 513.821 474.364 509.43 473.917 505.41C473.901 505.263 473.864 503.802 473.698 502.01C473.622 501.195 473.496 499.965 473.04 498.555ZM465.308 499.597C466.692 500.981 466.357 504.323 466.569 506.232C467.388 513.606 468.817 521.241 468.817 528.66C471.512 529.558 476.861 525.606 479.51 524.547C489.826 520.421 500.569 515.937 510.437 511.003C510.752 511.476 510.725 511.462 511.04 511.935C500.877 525.485 491.274 539.442 481.429 553.225C480.255 554.869 471.883 567.253 471.011 567.428C468.989 567.832 464.547 565.487 462.511 564.905C455.026 562.766 447.569 560.409 440.084 558.27C438.766 557.894 431.043 556.598 430.927 555.145C430.533 550.217 430.685 545.282 430.652 540.339C430.579 529.089 430.446 517.81 430.652 506.561C430.658 506.263 431.045 506.168 431.256 505.958C436.486 512.931 440.972 520.854 445.458 528.33C446.678 530.364 447.925 533.32 449.899 534.636C451.609 532.926 452.446 529.34 453.354 527.069C455.942 520.598 458.936 514.292 461.524 507.822C462.592 505.153 463.289 501.616 465.308 499.597ZM196.344 505.903C198.377 505.643 201.302 506.419 202.87 506.561C213.279 507.507 223.716 508.466 234.125 509.413C249.59 510.819 265.011 512.254 280.461 513.799C286.306 514.384 293.125 513.977 298.775 515.39C300.228 515.753 301.499 522.246 301.956 523.615C304.605 531.564 306.422 540.772 310.126 548.181C309.916 548.391 309.82 548.837 309.523 548.839C279.768 549.048 250.006 549.152 220.252 548.839C220.167 548.838 215.075 540.228 214.549 539.352C208.052 528.524 200.32 517.802 194.699 506.561C195.083 506.177 195.667 505.99 196.344 505.903ZM638.805 513.799C644.048 519.791 649.546 525.587 654.926 531.456C657.214 533.952 662.01 537.547 663.425 540.613C664.495 542.93 665.248 555.979 664.686 558.599C664.608 558.963 654.012 564.238 652.678 564.905C647.271 556.796 643.818 547.433 638.805 539.078C636.675 535.528 635.422 530.322 632.499 527.398C631.266 528.63 632.17 527.296 632.17 528.934C632.17 534.507 632.048 540.087 631.895 545.658C631.838 547.763 631.757 549.867 631.566 551.964C631.428 553.483 628.576 561.212 627.454 562.054C627.188 562.253 626.854 562.383 626.522 562.383C622.315 562.383 618.059 562.745 613.91 562.054C612.627 561.84 613.095 559.565 612.977 558.27C612.685 555.057 610.245 539.519 611.387 537.488C612.615 535.306 617.025 532.525 618.954 530.853C624.944 525.662 631.787 517.308 638.805 513.799ZM516.852 516.541C517.539 521.851 518.231 527.154 518.936 532.443C519.293 535.12 519.477 539.678 519.868 544.342C520.244 548.828 520.745 553.465 522.391 557.722C522.159 557.903 521.835 557.894 521.623 558.106C515.105 564.624 507.684 570.735 500.073 576.859C499.883 576.615 499.804 576.317 499.58 576.091C496.487 572.999 493.023 572.295 490.587 571.705C487.996 571.076 485.581 570.689 484.719 570.443C482.914 569.928 481.201 569.365 479.4 568.853C480.272 567.691 481.19 566.472 482.142 565.125C484.518 561.763 486.954 558.136 487.406 557.502C497.263 543.703 506.853 529.883 516.852 516.541ZM260.281 555.748C260.702 555.748 261.122 555.748 261.543 555.748C277.84 555.748 294.158 555.974 310.455 556.077C311.933 556.086 311.323 556.246 312.319 555.748C314.044 557.472 314.516 560.748 315.171 563.041C317.592 571.516 320.609 579.903 323.396 588.265C323.784 589.428 327.045 598.569 326.851 598.957C325.708 601.242 313.832 607.109 311.058 608.773C297.629 616.831 284.326 626.361 270.371 633.339C266.135 628.043 263.166 621.495 259.678 615.682C251.866 602.662 244.131 589.605 236.319 576.585C232.645 570.462 229.39 561.76 224.365 556.735C224.575 556.525 224.671 556.085 224.968 556.077C236.74 555.767 248.505 555.748 260.281 555.748ZM322.464 561.122C328.903 566.641 331.977 577.194 339.134 582.562C343.623 575.827 349.555 566.822 355.858 561.78C361.351 568.646 366.039 576.677 372.254 582.891C378.07 576.105 383.377 567.772 390.239 562.054C395.632 568.794 400.992 577.037 407.622 582.562C412.54 576.414 416.865 569.206 422.427 563.644C422.269 563.328 422.256 563.356 422.098 563.041C422.729 562.41 422.729 562.41 423.359 561.78C424.696 562.448 424.355 562.389 424.346 563.644C424.244 578.679 424.554 593.739 424.346 608.773C424.342 609.07 423.985 609.354 423.688 609.376C419.597 609.676 415.507 609.672 411.406 609.705C402.574 609.777 393.75 609.5 384.92 609.705C382.598 609.759 384.052 614.356 384.262 616.669C384.453 618.766 388.463 616.989 390.568 616.943C398.348 616.774 406.147 616.744 413.928 616.669C417.082 616.638 420.211 616.472 423.359 616.669C423.656 616.688 423.991 616.976 424.017 617.272C424.228 619.585 425.678 624.094 423.359 624.236C418.426 624.539 413.497 624.47 408.554 624.51C400.563 624.575 392.58 624.306 384.591 624.51C384.294 624.518 383.951 624.871 383.933 625.168C383.757 628.169 384.101 632.046 384.92 632.078C387.444 632.174 389.963 631.871 392.488 631.803C402.789 631.529 413.063 631.054 423.359 631.474C423.657 631.486 423.998 631.781 424.017 632.078C424.213 635.015 424.611 638.077 424.017 640.961C423.597 643.005 420.879 643.652 419.302 645.018C413.2 650.307 406.696 655.431 400.987 661.14C398.674 659.983 396.305 657.173 394.352 655.437C388.563 650.291 382.796 645.138 377.024 639.974C367.478 631.433 357.837 622.962 348.291 614.421C343.752 610.359 338.283 606.533 334.418 601.809C332.674 599.677 332.175 594.368 331.292 591.719C328.104 582.156 326.275 570.718 321.806 561.78C322.121 561.464 322.148 561.437 322.464 561.122ZM219.265 562.054C224.183 567.77 227.272 574.576 230.945 580.698C238.655 593.548 245.992 606.617 253.701 619.466C256.346 623.874 258.898 628.328 261.543 632.736C261.923 633.37 264.404 636.411 263.791 637.177C260.63 641.128 252.663 643.678 248.327 646.28C242.064 650.037 235.671 653.599 229.41 657.356C227.871 658.279 225.425 660.547 223.707 660.811C207.364 663.325 190.343 663.55 173.862 664.923C166.083 665.572 158.282 666.14 150.503 666.788C146.717 667.103 140.249 668.981 136.629 667.775C134.964 667.22 131.997 661.074 130.981 659.55C125.951 652.004 120.549 644.724 115.518 637.177C139.921 617.655 166.414 600.126 191.848 581.959C200.681 575.649 211.602 569.716 219.265 562.054ZM431.365 562.547C432.706 562.488 435.43 563.489 435.971 563.644C441.964 565.356 448.046 567.047 453.957 569.018C463.392 572.163 473.127 574.785 482.69 577.517C485.91 578.437 492.04 578.971 494.37 581.301C473.771 599.325 453.149 618.509 431.256 634.929C430.146 633.819 430.646 634.109 430.652 632.736C430.756 609.499 430.444 586.277 430.652 563.041C430.655 562.705 430.918 562.567 431.365 562.547ZM526.832 563.315C533.391 566.279 551.248 572.823 553.975 576.914C526.688 601.17 498.93 624.891 471.34 648.802C461.54 657.294 451.802 665.862 442.003 674.355C437.93 677.885 433.658 682.948 429.062 685.706C427.962 686.366 426.848 684.358 425.882 683.512C424.32 682.145 411.64 670.675 411.077 670.9C408.556 671.909 405.893 675.116 403.838 676.877C395.967 683.624 388.021 690.31 380.15 697.057C374.249 702.114 368.358 711.688 365.948 699.634C365.81 698.944 373.882 692.427 375.105 691.409C384.505 683.575 393.839 675.679 403.18 667.775C431.319 643.965 459.597 620.245 487.735 596.435C500.647 585.509 514.876 575.272 526.832 563.315ZM532.206 604.989C532.469 604.814 532.868 604.827 533.138 604.989C536.007 606.711 541.476 615.521 543.886 618.533C552.297 629.048 560.698 639.549 569.11 650.063C573.019 654.95 578.949 660.31 581.722 665.856C579.028 668.549 565.869 670.268 561.543 671.229C543.974 675.133 526.305 678.819 508.847 683.183C503.411 684.542 497.921 685.751 492.451 686.967C491.52 687.174 487.887 688.561 487.077 687.954C484.942 686.352 483.195 683.337 481.429 681.319C476.279 675.433 470.973 669.671 465.966 663.662C480.185 650.736 494.813 638.264 509.176 625.497C516.561 618.933 524.026 610.443 532.206 604.989ZM329.373 606.579C337.027 610.407 344.125 619.138 350.539 624.839C365.443 638.087 381.186 650.825 395.284 664.923C386.85 672.153 378.454 679.418 370.06 686.693C366.42 689.848 361.035 693.067 358.709 697.386C358.672 697.454 362.985 707.635 363.425 708.736C365.964 715.083 368.784 721.31 371.321 727.654C371.648 728.47 374.238 733.384 373.844 734.015C372.038 736.903 364.953 741.915 361.89 743.447C354.187 733.175 347.327 721.661 340.724 710.655C339.571 708.734 333.486 700.902 333.486 699.305C333.486 696.36 340.371 685.809 341.985 682.58C328.07 671.448 310.034 661.205 294.663 651.982C288.495 648.282 280.501 644.456 275.416 639.371C287.318 629.848 302.422 622.926 315.5 615.079C319.82 612.487 325.819 610.134 329.373 606.579ZM268.397 642.332L270.426 644.36C276.759 650.694 285.327 654.585 291.044 658.014C304.775 666.253 320.214 675.166 332.828 684.499C332.111 685.727 331.777 686.281 331.018 687.625C330.008 689.416 329.032 691.186 328.221 692.944C327.429 694.661 326.466 696.266 326.467 699.305C326.467 701.517 327.034 702.405 327.344 703.088C327.683 703.833 328.065 704.431 328.441 705.062C329.184 706.31 330.029 707.579 330.908 708.846C332.6 711.281 334.545 714.031 334.692 714.275C334.959 714.72 335.246 715.197 335.514 715.645L334.144 717.016C332.929 718.231 329.485 721.707 326.083 724.858C324.391 726.425 322.739 727.908 321.477 728.915C321.046 729.259 320.767 729.433 320.49 729.628C316.584 730.044 308.085 729.082 302.23 728.861C302.23 728.861 300.963 728.546 298.775 728.312C297.826 728.211 296.207 728.12 294.389 728.532C294.357 728.539 294.311 728.523 294.279 728.532C292.133 728.526 289.458 728.286 286.273 728.532L285.67 728.586L285.45 728.696C285.45 728.696 285.088 728.835 285.012 728.861C277.528 728.728 270.067 728.783 262.584 728.861C262.584 728.861 262.492 727.539 262.365 726.887C262.365 726.887 262.239 726.345 262.201 726.229C262.057 725.793 261.938 725.524 261.817 725.241C261.582 724.695 261.344 724.14 261.049 723.542C260.465 722.36 259.674 720.982 258.911 719.539C257.412 716.712 255.724 713.604 255.511 713.178C249.391 700.939 242.867 689.151 236.922 677.261C236.551 676.519 234.94 673.197 233.303 670.023C232.484 668.436 231.649 666.896 231 665.691C230.876 665.461 230.784 665.295 230.671 665.088C231.901 664.224 232.955 663.431 233.029 663.388C239.161 659.708 245.555 656.147 251.947 652.311C253.411 651.433 256.443 650.11 259.623 648.528C262.478 647.108 265.692 645.28 268.397 642.332ZM223.707 667.117C224.008 667.192 229.971 678.987 230.671 680.387C236.704 692.453 243.228 704.24 249.26 716.303C250.006 717.796 255.682 728.06 255.566 728.641C255.507 728.933 255.26 729.239 254.962 729.244C233.726 729.619 212.451 728.395 191.245 729.573C190.126 729.636 188.707 735.595 188.393 736.537C185.623 744.848 182.818 753.299 179.565 761.432C179.109 762.573 177.868 769.309 176.385 769.328C152.098 769.64 127.796 769.64 103.509 769.328C103.063 769.323 102.603 768.842 102.577 768.396C102.176 761.468 102.339 754.499 102.248 747.559C102.234 746.508 101.858 745.355 102.248 744.379C102.921 742.697 113.977 736.837 116.121 735.55C126.931 729.065 137.5 722.186 148.309 715.7C152.828 712.989 160.007 710.156 163.169 705.94C156.413 695.805 147.421 685.521 142.003 674.684C143.458 673.23 146.938 673.549 148.638 673.423C150.466 673.287 156.529 671.885 158.399 672.82C159.547 673.394 160.845 676.105 161.579 677.206C165.706 683.397 169.734 689.603 173.862 695.795C176.818 700.229 176.764 703.177 182.361 702.43C183.741 702.246 185.487 702.486 186.474 701.498C181.407 691.364 172.927 682.903 167.885 672.82C169.299 671.406 175.138 670.924 177.043 671.558C178.555 672.063 180.844 677.097 181.758 678.468C186.477 685.546 190.759 693.785 196.289 700.237C197.327 701.448 204.789 702.438 204.789 700.237C204.789 698.452 195.042 685.316 193.438 682.909C190.855 679.034 187.603 675.023 185.542 670.9C187.229 669.214 193.535 668.583 195.96 669.31C197.064 669.641 199.127 674.313 199.744 675.342C203.283 681.24 207.281 686.95 211.095 692.67C212.003 694.032 214.183 698.898 215.811 699.305C216.33 699.434 216.865 699.001 217.401 698.976C219.081 698.896 220.786 699.252 222.446 698.976C224.368 698.655 217.809 690.248 217.072 689.215C215.36 686.819 213.661 684.373 212.027 681.922C209.276 677.795 205.392 673.697 203.199 669.31C204.581 667.928 221.342 666.526 223.707 667.117ZM585.176 672.491C587.255 673.738 588.212 679.404 588.96 681.648C590.967 687.669 593.259 693.612 595.266 699.634C595.859 701.412 596.463 705.141 597.514 706.543C600.101 709.992 607.997 711.878 611.716 714.11C624.469 721.762 638.111 728.623 651.416 735.276C653.374 736.255 669.326 744.729 669.402 745.366C670.342 753.196 669.355 761.118 669.073 768.999C669.062 769.297 668.767 769.656 668.47 769.657C630.408 769.883 592.367 769.142 554.304 768.999C546.734 768.971 539.116 769.204 531.548 768.999C531.251 768.991 530.951 768.694 530.945 768.396C530.739 757.779 531.441 747.145 530.945 736.537C530.844 734.384 524.823 729.581 523.378 727.983C513.19 716.724 503.079 705.418 492.78 694.26C496.546 690.494 509.547 691.716 514.549 689.215C520.322 695.629 526.292 701.849 532.206 708.133C535.339 711.461 540.675 717.924 545.75 712.849C538.292 704.325 530.454 695.963 522.446 687.954C523.713 686.687 531.1 683.963 532.809 685.103C538.49 688.889 545.626 698.829 550.521 704.021C554.001 707.711 558.653 713.545 563.736 708.462C556.704 699.672 548.066 691.476 540.102 683.512C541.406 682.209 549.883 679.943 551.453 680.99C556.93 684.641 563.482 694.417 568.178 699.634C569.165 700.731 573.601 705.717 574.758 706.543C575.361 706.974 582.062 705.27 582.654 704.679C577.804 698.859 572.337 693.512 567.191 687.954C565.301 685.913 560.826 682.133 559.623 679.729C562.162 677.19 574.812 675.24 578.87 674.081C579.973 673.766 584.151 671.875 585.176 672.491ZM413.38 679.564C418.097 680.328 423.122 688.354 425.882 692.341C427.199 694.244 426.859 699.222 427.143 701.498C427.33 702.993 428.91 708.614 427.801 709.723C423.561 713.964 418.216 717.5 413.599 721.348C412.199 722.514 401.604 732.062 400.987 732.096C393.848 732.493 386.694 732.3 379.547 732.096C378.823 732.075 373.885 718.902 373.241 717.29C373.03 716.764 371.548 713.658 371.979 713.178C376.724 707.906 383.254 703.517 388.704 698.976C396.245 692.692 402.106 682.859 411.406 679.729C412.059 679.509 412.706 679.455 413.38 679.564ZM339.134 722.006C343.921 726.794 347.383 733.695 351.142 739.334C352.257 741.007 355.481 744.084 355.858 745.969C356.108 747.217 354.889 748.362 355.584 749.753C344.604 759.163 333.666 768.686 322.738 778.157C321.363 779.349 311.415 788.575 310.784 788.575C302.687 788.575 294.589 788.33 286.492 788.246C282.897 788.21 277.909 788.814 277.664 787.588C277.082 784.68 280.751 777.888 281.722 774.976C284.835 765.636 287.767 756.237 290.879 746.901C291.882 743.891 292.501 739.136 294.06 736.537C295.639 733.905 299.783 735.797 301.956 735.879C307.488 736.088 317 737.448 322.464 736.537C325.09 736.1 336.693 724.447 339.134 722.006ZM196.289 735.55C204.491 735.448 212.654 735.833 220.855 735.879C231.159 735.938 241.48 735.673 251.782 735.879C252.08 735.885 252.23 736.327 252.44 736.537C246.973 742.004 235.07 740.254 229.684 745.64C234.774 751.193 240.012 756.63 245.202 762.09C246.68 757.743 248.047 753.447 249.589 748.82C250.876 744.959 252.068 741.04 253.043 737.141C253.111 736.869 253.66 735.885 253.975 735.879C264.698 735.673 275.441 735.673 286.163 735.879C286.461 735.885 286.611 736.327 286.821 736.537C280.977 748.226 278.024 762.546 273.88 774.976C273.004 777.605 268.909 785.543 270.097 787.917C269.59 788.425 269.334 788.841 268.507 788.85C258.308 788.951 248.103 789.155 237.909 788.85C237.62 788.841 237.482 788.515 237.306 788.246C237.208 788.385 237.132 788.573 236.977 788.575C226.043 788.782 215.066 788.575 204.131 788.575C203.921 788.576 203.738 788.573 203.528 788.575C196.063 788.678 188.566 788.75 181.1 788.85C180.492 788.857 178.784 788.949 178.578 787.917C178.105 785.553 181.302 779.855 182.087 777.499C185.38 767.621 188.555 757.767 191.848 747.888C192.292 746.556 195.843 735.556 196.289 735.55ZM639.737 775.305C649.83 775.273 659.969 775.1 670.06 775.305C670.9 775.323 675.062 786.296 675.708 787.588C675.498 787.798 675.402 788.245 675.105 788.246C629.368 788.456 583.592 788.351 537.854 788.246C535.096 788.24 534.456 778.871 532.809 777.225C532.947 776.95 533.393 775.974 533.796 775.963C545.779 775.653 557.726 775.706 569.713 775.634C593.055 775.496 616.395 775.379 639.737 775.305ZM101.645 775.634C105.64 775.634 105.821 775.634 106.032 775.634C128.743 775.634 151.481 775.426 174.191 775.634C174.488 775.637 174.745 775.944 174.794 776.238C175.161 778.44 172.01 785.59 171.011 787.588C170.878 787.854 170.705 788.243 170.408 788.246C146.542 788.559 122.661 788.472 98.7936 788.575C96.2144 788.586 99.2199 779.321 100.713 777.828C100.163 776.728 100.8 776.479 101.645 775.634ZM300.036 253.883C296.797 257.122 294.835 262.553 292.469 266.495C288.127 273.733 283.871 281.027 279.528 288.265C278.838 289.416 273.696 298.314 273.88 298.683C274.033 298.988 287.172 300.086 289.015 299.944C289.486 299.908 291.546 290.531 291.866 289.252C293.889 281.162 295.82 273.051 297.843 264.96C298.552 262.123 298.855 257.259 300.969 255.145C300.52 254.248 300.834 254.681 300.036 253.883ZM401.316 273.459C392.695 282.08 384.313 291.684 376.695 301.206C376.906 301.416 377.001 301.853 377.298 301.864C383.183 302.067 389.123 301.767 395.01 301.864C397.619 301.906 400.064 302.417 402.851 302.138C404.648 301.958 403.707 297.258 403.509 294.297C403.245 290.337 403.659 275.803 401.316 273.459ZM269.768 328.02C267.827 329.96 268.176 334 266.916 336.519C269.55 339.153 281.128 341.183 285.231 342.551C286.244 342.889 290.303 344.803 291.208 344.415C291.755 344.181 292.049 343.575 292.469 343.154C291.466 341.147 294.459 338.843 294.06 336.848C293.829 335.696 288.815 334.679 287.754 334.326C281.861 332.362 275.318 330.795 269.768 328.02ZM340.395 340.303C319.709 342.878 323.492 373.752 344.178 373.752C354.927 373.752 363.745 359.186 358.106 349.789C353.484 342.086 348.597 339.281 340.395 340.303ZM341.985 347.267C346.77 347.233 347.524 348.002 351.142 351.982C358.125 359.664 346.351 366.956 339.792 366.185C327.49 364.737 330.487 347.348 341.985 347.267ZM262.804 404.35C258.182 405.539 259.962 412.171 264.723 411.643C269.502 411.111 266.697 403.347 262.804 404.35ZM252.44 409.723C246.701 410.294 249.344 416.962 253.975 416.961C259.571 416.961 257.288 409.241 252.44 409.723ZM262.53 416.358C259.75 416.14 257.382 422.237 261.543 422.993C267.973 424.162 267.024 416.711 262.53 416.358ZM251.124 422.335C246.827 423.418 247.908 430.174 252.714 429.573C256.783 429.065 254.907 421.382 251.124 422.335ZM260.281 428.97C254.546 429.434 256.12 436.482 261.543 435.879C266.723 435.304 263.211 428.734 260.281 428.97ZM249.589 435.276C245.659 435.728 246.663 441.582 250.85 441.582C254.962 441.582 253.97 434.773 249.589 435.276ZM355.255 448.546C327.671 449.62 313.306 471.965 313.306 498.336C313.306 503.487 315.752 511.449 318.954 515.719C332.178 533.349 342.25 538.42 364.083 538.42C369.004 538.42 376.19 536.016 380.15 533.046C384.981 529.423 389.192 526.91 393.749 522.354C404.372 511.73 406.848 491.302 401.59 478.157C393.377 457.625 376.077 447.736 355.255 448.546ZM353.062 455.784C372.576 454.209 379.148 458.708 390.897 474.373C404.125 492.01 393.582 517.309 370.992 517.309C354.995 517.309 337.269 505.583 337.269 487.972C337.269 476.722 339.227 456.902 353.062 455.784ZM332.828 465.874C333.625 466.671 333.366 466.238 333.815 467.135C330.67 470.28 329.702 477.578 329.702 481.666C329.702 500.351 340.838 518.102 359.971 522.354C364.971 523.465 368.653 523.263 374.173 522.957C376.289 522.839 381.042 520.723 382.672 522.354C378.65 525.571 373.343 527.967 368.47 529.592C329.399 542.615 306.202 492.499 332.828 465.874ZM237.196 787.534C239.534 784.77 239.827 778.902 240.76 775.634C242.034 771.179 243.589 766.854 245.037 762.584C239.752 767.289 225.907 767.129 221.184 771.851C226.56 777.047 231.906 782.249 237.196 787.534Z" fill="#ffffff" fill-rule="nonzero" opacity="1" stroke="none"/>
</g>
</svg>
