<?xml version="1.0" encoding="UTF-8" standalone="no"?>
<!DOCTYPE svg PUBLIC "-//W3C//DTD SVG 1.1//EN" "http://www.w3.org/Graphics/SVG/1.1/DTD/svg11.dtd">
<!-- Created with Vectornator (http://vectornator.io/) -->
<svg height="100%" stroke-miterlimit="10" style="fill-rule:nonzero;clip-rule:evenodd;stroke-linecap:round;stroke-linejoin:round;" version="1.1" viewBox="0 0 1080 760" width="100%" xml:space="preserve" xmlns="http://www.w3.org/2000/svg" xmlns:vectornator="http://vectornator.io" xmlns:xlink="http://www.w3.org/1999/xlink">
<defs/>
<g id="Layer-1" vectornator:layerName="Layer 1">
<g opacity="1"/>
<g fill="#fcb514" opacity="1" stroke="none">
<path d="M121.683 235.732C121.216 235.732 121.016 235.532 121.083 235.132L121.683 231.432C122.549 226.499 123.933 222.332 125.833 218.932C127.733 215.532 129.933 212.616 132.433 210.182C134.933 207.749 137.449 205.582 139.983 203.682C142.516 201.782 144.883 199.832 147.083 197.832C149.283 195.832 151.066 193.549 152.433 190.982C153.799 188.416 154.483 185.299 154.483 181.632C154.483 178.699 153.783 176.549 152.383 175.182C150.983 173.816 148.883 173.132 146.083 173.132C142.216 173.132 139.199 174.249 137.033 176.482C134.866 178.716 133.583 181.966 133.183 186.232C133.183 186.632 132.983 186.832 132.583 186.832L129.883 186.832C129.483 186.832 129.283 186.632 129.283 186.232C129.949 180.766 131.699 176.599 134.533 173.732C137.366 170.866 141.349 169.432 146.483 169.432C150.416 169.432 153.399 170.399 155.433 172.332C157.466 174.266 158.483 177.332 158.483 181.532C158.483 185.666 157.783 189.149 156.383 191.982C154.983 194.816 153.166 197.282 150.933 199.382C148.699 201.482 146.299 203.516 143.733 205.482C141.166 207.449 138.633 209.582 136.133 211.882C133.633 214.182 131.466 216.916 129.633 220.082C127.799 223.249 126.516 227.199 125.783 231.932L150.083 231.932C150.483 231.932 150.649 232.132 150.583 232.532L150.183 235.132C150.116 235.532 149.883 235.732 149.483 235.732L121.683 235.732Z"/>
<path d="M176.883 236.532C171.749 236.532 168.033 234.866 165.733 231.532C163.433 228.199 162.816 223.299 163.883 216.832L168.183 188.532C169.249 182.066 171.349 177.266 174.483 174.132C177.616 170.999 181.749 169.432 186.883 169.432C191.949 169.432 195.633 171.082 197.933 174.382C200.233 177.682 200.883 182.532 199.883 188.932L195.483 217.432C194.483 223.832 192.399 228.616 189.233 231.782C186.066 234.949 181.949 236.532 176.883 236.532ZM177.283 232.832C181.083 232.832 184.216 231.532 186.683 228.932C189.149 226.332 190.749 222.466 191.483 217.332L195.983 188.932C196.849 183.599 196.449 179.632 194.783 177.032C193.116 174.432 190.316 173.132 186.383 173.132C182.583 173.132 179.466 174.416 177.033 176.982C174.599 179.549 172.983 183.432 172.183 188.632L167.783 216.932C166.916 222.266 167.299 226.249 168.933 228.882C170.566 231.516 173.349 232.832 177.283 232.832Z"/>
<path d="M204.583 235.732C204.116 235.732 203.916 235.532 203.983 235.132L204.583 231.432C205.449 226.499 206.833 222.332 208.733 218.932C210.633 215.532 212.833 212.616 215.333 210.182C217.833 207.749 220.349 205.582 222.883 203.682C225.416 201.782 227.783 199.832 229.983 197.832C232.183 195.832 233.966 193.549 235.333 190.982C236.699 188.416 237.383 185.299 237.383 181.632C237.383 178.699 236.683 176.549 235.283 175.182C233.883 173.816 231.783 173.132 228.983 173.132C225.116 173.132 222.099 174.249 219.933 176.482C217.766 178.716 216.483 181.966 216.083 186.232C216.083 186.632 215.883 186.832 215.483 186.832L212.783 186.832C212.383 186.832 212.183 186.632 212.183 186.232C212.849 180.766 214.599 176.599 217.433 173.732C220.266 170.866 224.249 169.432 229.383 169.432C233.316 169.432 236.299 170.399 238.333 172.332C240.366 174.266 241.383 177.332 241.383 181.532C241.383 185.666 240.683 189.149 239.283 191.982C237.883 194.816 236.066 197.282 233.833 199.382C231.599 201.482 229.199 203.516 226.633 205.482C224.066 207.449 221.533 209.582 219.033 211.882C216.533 214.182 214.366 216.916 212.533 220.082C210.699 223.249 209.416 227.199 208.683 231.932L232.983 231.932C233.383 231.932 233.549 232.132 233.483 232.532L233.083 235.132C233.016 235.532 232.783 235.732 232.383 235.732L204.583 235.732Z"/>
<path d="M259.183 236.532C254.116 236.532 250.533 235.082 248.433 232.182C246.333 229.282 245.716 225.032 246.583 219.432C246.649 219.032 246.849 218.832 247.183 218.832L249.883 218.832C250.283 218.832 250.416 219.032 250.283 219.432C249.616 223.966 250.016 227.332 251.483 229.532C252.949 231.732 255.583 232.832 259.383 232.832C263.249 232.832 266.383 231.682 268.783 229.382C271.183 227.082 272.716 223.666 273.383 219.132L273.683 217.332C274.416 212.799 273.933 209.432 272.233 207.232C270.533 205.032 267.683 203.932 263.683 203.932L258.583 203.932C258.183 203.932 258.016 203.732 258.083 203.332L258.383 200.932C258.516 200.466 258.783 200.232 259.183 200.232L264.383 200.232C266.649 200.232 268.699 199.649 270.533 198.482C272.366 197.316 273.899 195.682 275.133 193.582C276.366 191.482 277.149 189.066 277.483 186.332L277.783 184.532C278.716 176.932 275.783 173.132 268.983 173.132C265.249 173.132 262.316 174.232 260.183 176.432C258.049 178.632 256.683 181.899 256.083 186.232C256.016 186.632 255.783 186.832 255.383 186.832L252.783 186.832C252.383 186.832 252.216 186.632 252.283 186.232C253.016 180.832 254.816 176.682 257.683 173.782C260.549 170.882 264.449 169.432 269.383 169.432C273.583 169.432 276.733 170.432 278.833 172.432C280.933 174.432 281.983 177.399 281.983 181.332C281.983 186.199 280.899 190.516 278.733 194.282C276.566 198.049 273.716 200.566 270.183 201.832L270.183 201.932C275.316 203.399 277.883 207.299 277.883 213.632C277.883 220.632 276.199 226.199 272.833 230.332C269.466 234.466 264.916 236.532 259.183 236.532Z"/>
<path d="M289.383 210.832C288.983 210.832 288.816 210.632 288.883 210.232L289.283 208.032C289.349 207.632 289.583 207.432 289.983 207.432L313.283 207.432C313.749 207.432 313.916 207.632 313.783 208.032L313.383 210.332C313.316 210.666 313.083 210.832 312.683 210.832L289.383 210.832Z"/>
<path d="M321.783 235.732C321.316 235.732 321.116 235.532 321.183 235.132L321.783 231.432C322.649 226.499 324.033 222.332 325.933 218.932C327.833 215.532 330.033 212.616 332.533 210.182C335.033 207.749 337.549 205.582 340.083 203.682C342.616 201.782 344.983 199.832 347.183 197.832C349.383 195.832 351.166 193.549 352.533 190.982C353.899 188.416 354.583 185.299 354.583 181.632C354.583 178.699 353.883 176.549 352.483 175.182C351.083 173.816 348.983 173.132 346.183 173.132C342.316 173.132 339.299 174.249 337.133 176.482C334.966 178.716 333.683 181.966 333.283 186.232C333.283 186.632 333.083 186.832 332.683 186.832L329.983 186.832C329.583 186.832 329.383 186.632 329.383 186.232C330.049 180.766 331.799 176.599 334.633 173.732C337.466 170.866 341.449 169.432 346.583 169.432C350.516 169.432 353.499 170.399 355.533 172.332C357.566 174.266 358.583 177.332 358.583 181.532C358.583 185.666 357.883 189.149 356.483 191.982C355.083 194.816 353.266 197.282 351.033 199.382C348.799 201.482 346.399 203.516 343.833 205.482C341.266 207.449 338.733 209.582 336.233 211.882C333.733 214.182 331.566 216.916 329.733 220.082C327.899 223.249 326.616 227.199 325.883 231.932L350.183 231.932C350.583 231.932 350.749 232.132 350.683 232.532L350.283 235.132C350.216 235.532 349.983 235.732 349.583 235.732L321.783 235.732Z"/>
<path d="M381.883 235.732C381.483 235.732 381.316 235.532 381.383 235.132L383.483 221.532L358.683 221.532C358.349 221.532 358.183 221.366 358.183 221.032L358.183 220.632C358.249 220.499 358.316 220.332 358.383 220.132C358.449 219.932 358.516 219.766 358.583 219.632L386.483 170.632C386.616 170.366 386.849 170.232 387.183 170.232L389.983 170.232C390.449 170.232 390.549 170.466 390.283 170.932L363.883 217.732L384.083 217.732L387.983 193.932C388.049 193.466 388.283 193.232 388.683 193.232L391.183 193.232C391.649 193.232 391.816 193.466 391.683 193.932L387.883 217.732L394.383 217.732C394.849 217.732 395.016 217.932 394.883 218.332L394.483 220.932C394.416 221.332 394.183 221.532 393.783 221.532L387.283 221.532L385.083 235.132C385.083 235.532 384.883 235.732 384.483 235.732L381.883 235.732Z"/>
</g>
<g fill="#fcb514" opacity="1" stroke="none">
<path d="M451.229 240.084C442.397 240.084 435.965 237.708 431.933 232.956C427.901 228.204 426.893 221.46 428.909 212.724C429.197 211.764 429.725 211.284 430.493 211.284L438.845 211.284C439.997 211.284 440.429 211.812 440.141 212.868C438.989 218.628 439.493 222.852 441.653 225.54C443.813 228.228 447.341 229.572 452.237 229.572C457.421 229.572 461.357 228.276 464.045 225.684C466.733 223.092 468.077 219.396 468.077 214.596C468.077 212.196 467.765 210.108 467.141 208.332C466.517 206.556 465.557 204.876 464.261 203.292C462.965 201.708 461.213 200.1 459.005 198.468L446.909 188.964C443.357 186.276 440.717 183.228 438.989 179.82C437.261 176.412 436.397 172.452 436.397 167.94C436.397 160.356 438.725 154.38 443.381 150.012C448.037 145.644 454.493 143.46 462.749 143.46C471.293 143.46 477.605 145.74 481.685 150.3C485.765 154.86 486.845 161.412 484.925 169.956C484.733 171.108 484.253 171.684 483.485 171.684L474.701 171.684C473.933 171.684 473.597 171.108 473.693 169.956C474.653 164.58 474.053 160.572 471.893 157.932C469.733 155.292 466.397 153.972 461.885 153.972C457.565 153.972 454.205 155.196 451.805 157.644C449.405 160.092 448.205 163.188 448.205 166.932C448.205 169.908 448.853 172.476 450.149 174.636C451.445 176.796 453.533 179.028 456.413 181.332L467.645 190.116C470.621 192.42 472.997 194.7 474.773 196.956C476.549 199.212 477.845 201.612 478.661 204.156C479.477 206.7 479.885 209.652 479.885 213.012C479.885 221.652 477.389 228.324 472.397 233.028C467.405 237.732 460.349 240.084 451.229 240.084Z"/>
<path d="M504.365 238.932C503.405 238.932 503.021 238.404 503.213 237.348L516.173 155.412L497.309 155.412C496.445 155.412 496.109 154.932 496.301 153.972L497.453 146.052C497.645 145.092 498.125 144.612 498.893 144.612L548.141 144.612C549.101 144.612 549.485 145.092 549.293 146.052L547.997 153.972C547.901 154.932 547.421 155.412 546.557 155.412L527.693 155.412L514.589 237.492C514.493 238.452 513.965 238.932 513.005 238.932L504.365 238.932Z"/>
<path d="M541.085 240.084C538.781 240.084 537.029 239.46 535.829 238.212C534.629 236.964 534.173 235.188 534.461 232.884L534.893 230.436C535.565 226.02 538.301 223.812 543.101 223.812C545.597 223.812 547.445 224.46 548.645 225.756C549.845 227.052 550.301 228.852 550.013 231.156L549.437 233.46C548.861 237.876 546.077 240.084 541.085 240.084Z"/>
<path d="M587.165 238.932C586.205 238.932 585.773 238.452 585.869 237.492L600.413 146.052C600.605 145.092 601.085 144.612 601.853 144.612L610.637 144.612C611.693 144.612 612.125 145.092 611.933 146.052L598.829 228.132L627.629 228.132C628.781 228.132 629.261 228.612 629.069 229.572L627.629 237.492C627.533 238.452 627.053 238.932 626.189 238.932L587.165 238.932Z"/>
<path d="M663.485 240.084C654.365 240.084 647.717 237.348 643.541 231.876C639.365 226.404 638.045 218.676 639.581 208.692L645.341 172.548C646.973 162.66 650.285 155.34 655.277 150.588C660.269 145.836 667.421 143.46 676.733 143.46C685.949 143.46 692.645 146.196 696.821 151.668C700.997 157.14 702.317 164.916 700.781 174.996L694.877 210.996C693.341 220.884 690.053 228.204 685.013 232.956C679.973 237.708 672.797 240.084 663.485 240.084ZM664.781 229.428C670.253 229.428 674.501 227.964 677.525 225.036C680.549 222.108 682.541 217.332 683.501 210.708L689.261 174.996C690.413 167.892 689.789 162.636 687.389 159.228C684.989 155.82 681.053 154.116 675.581 154.116C670.109 154.116 665.861 155.604 662.837 158.58C659.813 161.556 657.773 166.308 656.717 172.836L651.101 208.548C649.949 215.652 650.549 220.908 652.901 224.316C655.253 227.724 659.213 229.428 664.781 229.428Z"/>
<path d="M734.333 240.084C725.213 240.084 718.637 237.348 714.605 231.876C710.573 226.404 709.373 218.34 711.005 207.684L720.941 146.052C721.133 145.092 721.613 144.612 722.381 144.612L731.165 144.612C732.125 144.612 732.557 145.14 732.461 146.196L722.381 207.972C721.325 215.076 721.805 220.428 723.821 224.028C725.837 227.628 729.677 229.428 735.341 229.428C740.621 229.428 744.749 227.7 747.725 224.244C750.701 220.788 752.765 215.316 753.917 207.828L763.853 146.052C764.045 145.092 764.477 144.612 765.149 144.612L773.933 144.612C774.893 144.612 775.325 145.14 775.229 146.196L765.293 208.404C763.565 219.156 760.205 227.124 755.213 232.308C750.221 237.492 743.261 240.084 734.333 240.084Z"/>
<path d="M779.117 238.932C778.157 238.932 777.725 238.452 777.821 237.492L792.365 146.052C792.557 145.092 793.037 144.612 793.805 144.612L802.589 144.612C803.645 144.612 804.077 145.092 803.885 146.052L789.341 237.492C789.245 238.452 788.717 238.932 787.757 238.932L779.117 238.932Z"/>
<path d="M829.805 240.084C820.973 240.084 814.541 237.708 810.509 232.956C806.477 228.204 805.469 221.46 807.485 212.724C807.773 211.764 808.301 211.284 809.069 211.284L817.421 211.284C818.573 211.284 819.005 211.812 818.717 212.868C817.565 218.628 818.069 222.852 820.229 225.54C822.389 228.228 825.917 229.572 830.813 229.572C835.997 229.572 839.933 228.276 842.621 225.684C845.309 223.092 846.653 219.396 846.653 214.596C846.653 212.196 846.341 210.108 845.717 208.332C845.093 206.556 844.133 204.876 842.837 203.292C841.541 201.708 839.789 200.1 837.581 198.468L825.485 188.964C821.933 186.276 819.293 183.228 817.565 179.82C815.837 176.412 814.973 172.452 814.973 167.94C814.973 160.356 817.301 154.38 821.957 150.012C826.613 145.644 833.069 143.46 841.325 143.46C849.869 143.46 856.181 145.74 860.261 150.3C864.341 154.86 865.421 161.412 863.501 169.956C863.309 171.108 862.829 171.684 862.061 171.684L853.277 171.684C852.509 171.684 852.173 171.108 852.269 169.956C853.229 164.58 852.629 160.572 850.469 157.932C848.309 155.292 844.973 153.972 840.461 153.972C836.141 153.972 832.781 155.196 830.381 157.644C827.981 160.092 826.781 163.188 826.781 166.932C826.781 169.908 827.429 172.476 828.725 174.636C830.021 176.796 832.109 179.028 834.989 181.332L846.221 190.116C849.197 192.42 851.573 194.7 853.349 196.956C855.125 199.212 856.421 201.612 857.237 204.156C858.053 206.7 858.461 209.652 858.461 213.012C858.461 221.652 855.965 228.324 850.973 233.028C845.981 237.732 838.925 240.084 829.805 240.084Z"/>
</g>
<g fill="#002f87" opacity="1" stroke="none">
<path d="M77.8631 530.668C73.8631 530.668 72.2631 528.801 73.0631 525.068L113.063 274.268C113.596 270.534 115.463 268.668 118.663 268.668L184.263 268.668C210.93 268.668 230.93 273.401 244.263 282.868C257.596 292.334 264.263 306.534 264.263 325.468C264.263 342.534 260.13 356.668 251.863 367.868C243.596 379.068 232.13 387.068 217.463 391.868L217.463 393.068C229.73 396.534 238.996 402.601 245.263 411.268C251.53 419.934 254.663 431.468 254.663 445.868C254.663 472.534 245.863 493.334 228.263 508.268C210.663 523.201 184.663 530.668 150.263 530.668L77.8631 530.668ZM137.463 482.268L157.863 482.268C170.93 482.268 180.663 479.001 187.063 472.468C193.463 465.934 196.663 456.668 196.663 444.668C196.663 436.134 194.33 429.801 189.663 425.668C184.996 421.534 177.33 419.468 166.663 419.468L147.863 419.468L137.463 482.268ZM154.663 375.868L172.263 375.868C179.196 375.868 185.13 374.268 190.063 371.068C194.996 367.868 198.73 363.468 201.263 357.868C203.796 352.268 205.063 346.001 205.063 339.068C205.063 331.334 202.996 325.668 198.863 322.068C194.73 318.468 188.263 316.668 179.463 316.668L163.863 316.668L154.663 375.868Z"/>
<path d="M274.263 530.668C270.53 530.668 269.063 528.801 269.863 525.068L309.863 274.268C310.396 270.534 312.263 268.668 315.463 268.668L362.663 268.668C366.396 268.668 367.996 270.534 367.463 274.268L335.063 478.668L409.863 478.668C413.863 478.668 415.463 480.401 414.663 483.868L408.263 525.068C407.73 528.801 405.996 530.668 403.063 530.668L274.263 530.668Z"/>
<path d="M518.263 533.868C487.863 533.868 465.93 525.668 452.463 509.268C438.996 492.868 434.796 468.134 439.863 435.068L465.863 274.268C466.396 270.534 468.13 268.668 471.063 268.668L518.663 268.668C522.396 268.668 523.863 270.534 523.063 274.268L497.463 434.668C494.796 450.668 495.663 462.468 500.063 470.068C504.463 477.668 512.263 481.468 523.463 481.468C534.93 481.468 543.53 477.801 549.263 470.468C554.996 463.134 559.196 451.201 561.863 434.668L587.463 274.268C587.996 270.534 589.73 268.668 592.663 268.668L640.263 268.668C643.996 268.668 645.463 270.534 644.663 274.268L618.663 437.068C613.596 470.934 603.13 495.534 587.263 510.868C571.396 526.201 548.396 533.868 518.263 533.868Z"/>
<path d="M644.663 530.668C640.663 530.668 639.063 528.801 639.863 525.068L679.863 274.268C680.396 270.534 682.263 268.668 685.463 268.668L819.863 268.668C823.863 268.668 825.463 270.534 824.663 274.268L818.263 315.068C817.73 318.801 815.863 320.668 812.663 320.668L730.263 320.668L721.863 373.868L795.463 373.868C799.463 373.868 801.063 375.734 800.263 379.468L794.263 417.868C793.73 421.601 791.863 423.468 788.663 423.468L714.263 423.468L705.463 478.668L786.663 478.668C790.396 478.668 791.996 480.401 791.463 483.868L785.063 525.068C784.263 528.801 782.263 530.668 779.063 530.668L644.663 530.668Z"/>
<path d="M895.463 533.868C865.863 533.868 844.73 527.001 832.063 513.268C819.396 499.534 815.863 479.468 821.463 453.068C822.263 449.334 823.996 447.468 826.663 447.468L873.063 447.468C876.796 447.468 878.396 449.334 877.863 453.068C876.263 463.201 877.263 470.801 880.863 475.868C884.463 480.934 890.663 483.468 899.463 483.468C908.263 483.468 914.796 481.468 919.063 477.468C923.33 473.468 925.463 467.468 925.463 459.468C925.463 455.734 924.863 452.268 923.663 449.068C922.463 445.868 920.53 442.801 917.863 439.868C915.196 436.934 911.73 433.734 907.463 430.268L872.263 404.668C860.796 396.134 852.463 386.934 847.263 377.068C842.063 367.201 839.463 355.068 839.463 340.668C839.463 317.201 846.796 298.801 861.463 285.468C876.13 272.134 896.53 265.468 922.663 265.468C951.73 265.468 972.73 272.201 985.663 285.668C998.596 299.134 1002.66 318.668 997.863 344.268C997.063 348.001 995.196 349.868 992.263 349.868L945.063 349.868C941.596 349.868 939.996 348.001 940.263 344.268C941.863 334.668 940.93 327.468 937.463 322.668C933.996 317.868 928.263 315.468 920.263 315.468C913.063 315.468 907.596 317.268 903.863 320.868C900.13 324.468 898.263 329.468 898.263 335.868C898.263 341.468 899.53 346.201 902.063 350.068C904.596 353.934 908.93 358.268 915.063 363.068L952.263 390.668C959.996 396.268 966.196 402.001 970.863 407.868C975.53 413.734 978.996 420.268 981.263 427.468C983.53 434.668 984.663 443.201 984.663 453.068C984.663 478.668 976.93 498.534 961.463 512.668C945.996 526.801 923.996 533.868 895.463 533.868Z"/>
</g>
<path d="M902.591 145.737C899.85 145.747 897.11 145.77 894.369 145.77C894.369 146.683 896.461 148.899 896.873 149.93C897.398 151.242 898.456 152.477 899.2 153.717C900.84 156.45 902.543 159.133 904.207 161.906C905.901 164.729 907.916 167.55 909.404 170.525C910.118 171.953 911.206 173.205 911.914 174.619C913.423 177.638 915.712 180.267 917.227 183.297C918.713 186.269 921.058 188.879 922.547 191.857C924.237 195.237 926.61 198.449 928.597 201.76C929.316 202.958 930.074 204.154 930.801 205.366C931.023 205.736 931.249 206.303 931.531 206.585C931.214 206.902 929.939 206.65 929.634 206.65C929.104 206.65 928.579 206.685 928.05 206.709C925.993 206.8 923.95 207.101 921.934 207.504C915.949 208.701 909.895 211.904 906.046 216.853C905.093 218.079 904.448 219.356 903.908 220.706C900.172 230.044 906.037 237.383 913.687 241.973C916.162 243.458 919.106 244.018 921.876 244.848C923.229 245.254 925.189 245.679 926.583 245.702C928.987 245.742 931.39 245.743 933.793 245.702C939.551 245.606 946.437 242.762 950.907 239.105C954.905 235.834 957.196 231.803 957.505 226.698C957.579 225.484 957.603 223.98 957.205 222.786C956.427 220.453 955.423 218.615 954.148 216.488C952.588 213.889 950.982 211.358 949.44 208.788C948.732 207.608 947.996 205.818 947.054 204.877C947.115 204.785 947.117 204.786 947.178 204.694C947.404 204.807 947.84 204.808 948.032 204.812C950.171 204.849 952.315 204.877 954.454 204.877C955.736 204.877 957.578 204.364 958.607 203.592C958.066 202.51 956.951 201.74 956.41 200.659C956.65 200.418 956.432 200.565 956.957 200.593C957.568 200.627 958.178 200.639 958.79 200.659C959.869 200.692 960.95 200.717 962.03 200.717C965.7 200.717 969.383 200.216 972.97 199.498C973.324 199.427 975.785 198.876 975.903 198.637C975.983 198.478 975.017 197.598 974.502 197.053C973.967 196.487 973.428 195.92 972.911 195.339C973.201 195.049 974.685 195.107 975.173 195.032C976.849 194.774 978.577 194.408 980.187 193.872C985.133 192.223 989.662 189.666 993.63 185.924C994.768 184.851 996.379 183.542 997.112 182.078C997.051 182.017 997.056 182.015 996.994 181.954C996.808 182.047 996.773 182.046 996.623 181.895C997.322 181.196 998.444 180.754 999.257 180.122C1001.5 178.377 1003.9 176.205 1005.18 173.641C1005.47 173.072 1006.82 171.148 1006.71 170.584C1006.65 170.273 1006.2 170.51 1006.04 170.342C1008.39 167.994 1010.07 165.67 1011.23 162.76C1011.49 162.125 1012.25 160.363 1012.15 159.768C1012.09 159.364 1011.34 159.813 1011.05 159.52C1011.86 158.708 1012.8 158.015 1013.62 157.199C1016.23 154.589 1019.49 149.502 1019.49 145.77C967.809 145.77 967.81 145.77 916.132 145.77C916.494 146.858 917.478 147.936 918.088 148.952C919.432 151.192 920.816 153.314 921.934 155.549C923.276 158.233 922.726 159.874 919.431 159.709C919.319 159.703 917.945 157.348 917.781 157.075C916.684 155.247 915.514 153.466 914.417 151.638C913.858 150.705 913.302 149.527 912.644 148.704C912.426 148.431 910.895 145.771 910.812 145.77C908.072 145.73 905.331 145.727 902.591 145.737ZM903.692 147.426C905.699 147.419 907.704 147.435 909.71 147.485C909.856 147.488 911.299 149.987 911.483 150.295C913.206 153.165 915.016 155.978 916.738 158.848C916.904 159.125 918.373 161.534 918.453 161.541C919.236 161.606 919.567 161.48 920.226 161.417C921.328 161.312 922.805 161.225 923.649 160.38C924.767 159.262 924.407 157.662 924.014 156.286C923.131 153.197 921.238 150.313 919.431 147.602C919.471 147.561 919.497 147.485 919.555 147.485C951.99 147.444 984.425 147.444 1016.86 147.485C1016.92 147.485 1016.94 147.561 1016.98 147.602C1015.49 150.573 1014.24 153.323 1011.85 155.915C1010.23 157.663 1008.24 158.971 1006.59 160.622C1007.64 160.972 1009.02 159.997 1009.82 160.804C1009.51 161.434 1009.47 162.26 1009.15 162.884C1008.35 164.488 1007.46 166.234 1006.1 167.591C1005.01 168.685 1003.87 169.687 1002.61 170.584C1002.03 170.998 1001.22 171.311 1000.72 171.809C1001 171.901 1001.33 171.809 1001.64 171.809C1002.29 171.809 1003.13 171.471 1003.59 171.933C1001.98 175.158 999.705 177.904 996.564 179.998C995.54 180.681 994.473 181.188 993.324 181.647C992.935 181.803 992.26 181.858 991.981 182.136C992.474 182.629 993.32 181.891 993.813 182.384C993.351 183.307 992.577 184.292 991.857 185.012C987.491 189.377 982.49 191.373 976.64 192.835C974.918 193.265 973.084 193.477 971.32 193.63C970.805 193.675 969.38 193.55 969.058 193.872C970.122 195.291 971.532 196.533 972.728 197.849C972.193 198.384 970.397 198.293 969.671 198.396C965.757 198.955 961.755 198.883 957.812 198.761C957.038 198.738 956.265 198.731 955.491 198.703C954.832 198.678 953.045 198.214 952.557 198.703C953.599 200.006 954.613 201.338 955.614 202.673C955.155 203.133 954.017 203.163 953.411 203.227C951.165 203.464 948.793 203.202 946.565 202.797C946.111 202.714 943.358 201.975 943.208 202.125C946.01 206.329 948.55 210.749 951.149 215.08C953.932 219.719 956.397 222.532 955.549 228.465C954.933 232.774 951.848 236.338 948.404 238.798C947.527 239.424 946.485 239.823 945.653 240.448C943.367 242.162 939.604 242.876 936.786 243.44C928.654 245.067 916.05 243.365 909.71 237.025C908.056 235.371 906.873 233.535 905.74 231.646C904.617 229.775 904.526 227.022 904.696 224.983C905.483 215.543 915.871 210.113 924.32 208.906C926.865 208.542 929.22 208.474 931.837 208.541C932.438 208.556 934.17 208.488 934.771 208.788C934.961 208.504 933.084 205.664 932.757 205.118C930.519 201.389 928.19 197.755 925.97 194.054C919.459 183.202 912.674 172.516 906.163 161.665C904.074 158.183 901.896 154.754 899.807 151.273C899.074 150.052 898.187 148.875 897.551 147.602C897.592 147.561 897.611 147.485 897.668 147.485C899.675 147.464 901.685 147.433 903.692 147.426ZM902.317 150.047C902.259 150.048 902.219 150.119 902.193 150.171C902.123 150.311 902.646 150.991 902.741 151.149C903.317 152.109 903.893 153.092 904.514 154.024C907.009 157.767 909.292 161.718 911.607 165.577C918.217 176.593 925.104 187.439 931.714 198.455C933.792 201.918 935.938 205.268 938.012 208.723C938.767 209.982 939.676 211.205 940.333 212.518C940.271 212.579 940.27 212.574 940.209 212.635C939.399 212.23 938.395 212.123 937.523 211.905C933.811 210.977 929.81 210.872 926.029 211.292C922.748 211.656 919.421 212.581 916.497 214.043C911.638 216.473 906.6 221.196 907.265 227.187C907.42 228.584 907.791 230.411 908.673 231.588C910.013 233.373 911.315 235.048 913.133 236.412C919.27 241.015 928.575 242.285 935.99 240.937C938.117 240.55 940.367 240.066 942.288 239.105C946.823 236.837 951.661 234.064 952.863 228.654C953.911 223.939 952.005 221.562 949.806 217.896C947.249 213.635 944.588 209.418 942.047 205.183C940.904 203.278 939.702 201.404 938.559 199.498C938.313 199.087 937.337 197.909 937.581 197.542C940.822 198.623 944.108 199.614 947.485 200.228C948.055 200.332 950.373 200.821 950.66 200.535C949.583 198.92 948.537 197.385 947.667 195.645C947.938 195.374 951.44 195.857 952.009 195.893C955.627 196.119 959.257 196.258 962.884 196.258C963.495 196.258 964.111 196.217 964.722 196.193C965.188 196.174 967.033 196.269 967.35 195.951C965.981 194.241 964.321 192.723 962.825 191.12C963.126 190.819 963.89 191.095 964.292 191.12C964.72 191.148 965.148 191.171 965.576 191.186C967.558 191.254 969.528 191.241 971.503 191.062C977.775 190.492 983.847 188.605 988.499 184.34C988.459 184.299 988.433 184.216 988.375 184.216C973.095 184.176 957.816 184.297 942.536 184.216C942.339 184.215 942.004 183.524 941.923 183.362C941.964 183.321 941.99 183.238 942.047 183.238C954.74 183.198 967.429 183.258 980.122 183.238C980.691 183.237 981.448 182.935 982.019 182.808C986.817 181.742 991.93 180.077 995.893 177.247C996.903 176.525 997.893 175.746 998.702 174.802C998.928 174.539 999.515 174.023 999.191 173.7C998.916 173.838 999.259 173.7 998.826 173.7C978.004 173.7 957.184 173.765 936.362 173.765C935.882 173.765 935.727 173.249 935.502 172.911C935.542 172.87 935.568 172.787 935.625 172.787C954.96 172.747 974.296 172.808 993.63 172.787C994.369 172.786 995.23 171.827 995.893 171.562C998.392 170.562 1001.39 168.517 1003.35 166.672C1004.02 166.041 1004.74 165.444 1005.31 164.716C1005.45 164.529 1006.09 163.767 1006.04 163.497C1006.02 163.425 1005.99 163.315 1005.91 163.314C980.507 163.253 955.105 163.375 929.699 163.314C929.501 163.314 929.166 162.555 929.086 162.395C929.127 162.354 929.152 162.271 929.21 162.271C952.518 162.251 975.825 162.336 999.133 162.336C999.702 162.336 1000.73 161.401 1001.21 161.111C1003.62 159.664 1006.02 157.978 1008.06 156.038C1008.85 155.284 1009.66 154.541 1010.38 153.717C1011.13 152.864 1012.41 151.514 1012.7 150.353C1012.73 150.244 1012.67 150.047 1012.52 150.047C983.078 149.986 953.637 150.006 924.197 150.047C924.071 150.047 924.054 150.221 924.073 150.295C924.264 151.059 925.058 151.946 925.422 152.674C926.273 154.376 927.072 156.5 927.072 158.425C927.072 162.449 923.396 163.948 919.92 164.11C919.309 164.138 918.699 164.168 918.088 164.168C917.698 164.168 917.269 164.218 916.921 164.044C916.422 163.795 915.209 161.348 914.847 160.746C913.308 158.181 911.679 155.67 910.14 153.105C909.729 152.42 908.872 150.535 908.308 150.112C908.276 150.087 908.225 150.113 908.184 150.112C906.229 150.092 904.273 150.027 902.317 150.047Z" fill="#002f87" fill-rule="nonzero" opacity="1" stroke="none"/>
</g>
</svg>
