<?xml version="1.0" encoding="UTF-8" standalone="no"?>
<!DOCTYPE svg PUBLIC "-//W3C//DTD SVG 1.1//EN" "http://www.w3.org/Graphics/SVG/1.1/DTD/svg11.dtd">
<!-- Created with Vectornator (http://vectornator.io/) -->
<svg height="100%" stroke-miterlimit="10" style="fill-rule:nonzero;clip-rule:evenodd;stroke-linecap:round;stroke-linejoin:round;" version="1.1" viewBox="0 0 1080 1080" width="100%" xml:space="preserve" xmlns="http://www.w3.org/2000/svg" xmlns:vectornator="http://vectornator.io" xmlns:xlink="http://www.w3.org/1999/xlink">
<defs/>
<g id="Layer-1" vectornator:layerName="Layer 1">
<g opacity="1" vectornator:layerName="g">
<path d="M176.855 421.32C176.559 421.32 176.432 421.193 176.475 420.94L176.855 418.597C177.403 415.473 178.279 412.835 179.483 410.682C180.686 408.529 182.079 406.682 183.662 405.141C185.245 403.6 186.838 402.228 188.443 401.025C190.047 399.822 191.546 398.587 192.939 397.32C194.332 396.054 195.461 394.608 196.327 392.983C197.192 391.358 197.625 389.384 197.625 387.062C197.625 385.205 197.181 383.843 196.295 382.978C195.408 382.113 194.079 381.68 192.306 381.68C189.857 381.68 187.946 382.387 186.575 383.801C185.203 385.216 184.39 387.274 184.137 389.975C184.137 390.228 184.01 390.355 183.757 390.355L182.047 390.355C181.794 390.355 181.667 390.228 181.667 389.975C182.089 386.514 183.197 383.875 184.992 382.06C186.786 380.245 189.308 379.337 192.559 379.337C195.049 379.337 196.938 379.949 198.226 381.173C199.514 382.398 200.158 384.339 200.158 386.999C200.158 389.617 199.714 391.822 198.828 393.616C197.941 395.411 196.791 396.972 195.377 398.302C193.962 399.632 192.442 400.92 190.817 402.165C189.192 403.41 187.588 404.761 186.005 406.217C184.422 407.674 183.05 409.405 181.889 411.41C180.728 413.415 179.915 415.917 179.451 418.914L194.838 418.914C195.092 418.914 195.197 419.04 195.155 419.294L194.902 420.94C194.859 421.193 194.712 421.32 194.459 421.32L176.855 421.32Z" fill="#fcb514" fill-rule="nonzero" opacity="1" stroke="none" vectornator:layerName="path"/>
<path d="M211.809 421.827C208.558 421.827 206.205 420.772 204.749 418.66C203.292 416.55 202.901 413.447 203.577 409.352L206.3 391.431C206.975 387.337 208.305 384.297 210.289 382.313C212.273 380.329 214.89 379.337 218.141 379.337C221.349 379.337 223.682 380.382 225.139 382.471C226.595 384.561 227.007 387.632 226.373 391.685L223.587 409.732C222.954 413.784 221.634 416.814 219.629 418.819C217.624 420.824 215.017 421.827 211.809 421.827ZM212.062 419.484C214.469 419.484 216.453 418.66 218.015 417.014C219.576 415.368 220.589 412.919 221.054 409.668L223.904 391.685C224.452 388.308 224.199 385.796 223.144 384.149C222.088 382.503 220.315 381.68 217.825 381.68C215.418 381.68 213.445 382.493 211.904 384.118C210.363 385.743 209.339 388.202 208.833 391.495L206.047 409.415C205.498 412.793 205.74 415.315 206.775 416.982C207.809 418.65 209.571 419.484 212.062 419.484Z" fill="#fcb514" fill-rule="nonzero" opacity="1" stroke="none" vectornator:layerName="path"/>
<path d="M229.35 421.32C229.054 421.32 228.927 421.193 228.97 420.94L229.35 418.597C229.898 415.473 230.774 412.835 231.977 410.682C233.181 408.529 234.574 406.682 236.157 405.141C237.74 403.6 239.333 402.228 240.938 401.025C242.542 399.822 244.04 398.587 245.434 397.32C246.827 396.054 247.956 394.608 248.821 392.983C249.686 391.358 250.119 389.384 250.119 387.062C250.119 385.205 249.676 383.843 248.79 382.978C247.903 382.113 246.573 381.68 244.8 381.68C242.352 381.68 240.441 382.387 239.07 383.801C237.697 385.216 236.885 387.274 236.632 389.975C236.632 390.228 236.505 390.355 236.252 390.355L234.542 390.355C234.289 390.355 234.162 390.228 234.162 389.975C234.584 386.514 235.692 383.875 237.487 382.06C239.28 380.245 241.803 379.337 245.054 379.337C247.544 379.337 249.433 379.949 250.721 381.173C252.008 382.398 252.652 384.339 252.652 386.999C252.652 389.617 252.209 391.822 251.323 393.616C250.436 395.411 249.286 396.972 247.872 398.302C246.457 399.632 244.937 400.92 243.312 402.165C241.687 403.41 240.083 404.761 238.5 406.217C236.917 407.674 235.544 409.405 234.384 411.41C233.222 413.415 232.41 415.917 231.946 418.914L247.333 418.914C247.587 418.914 247.692 419.04 247.65 419.294L247.397 420.94C247.354 421.193 247.207 421.32 246.953 421.32L229.35 421.32Z" fill="#fcb514" fill-rule="nonzero" opacity="1" stroke="none" vectornator:layerName="path"/>
<path d="M263.924 421.827C260.715 421.827 258.446 420.908 257.117 419.072C255.787 417.236 255.396 414.544 255.945 410.998C255.987 410.745 256.114 410.618 256.325 410.618L258.035 410.618C258.288 410.618 258.372 410.745 258.288 410.998C257.866 413.869 258.119 416.001 259.048 417.394C259.976 418.787 261.644 419.484 264.051 419.484C266.499 419.484 268.483 418.755 270.003 417.299C271.523 415.842 272.493 413.679 272.916 410.808L273.106 409.668C273.57 406.798 273.264 404.666 272.188 403.273C271.111 401.88 269.306 401.183 266.773 401.183L263.544 401.183C263.291 401.183 263.185 401.057 263.227 400.803L263.417 399.284C263.502 398.988 263.671 398.84 263.924 398.84L267.217 398.84C268.652 398.84 269.95 398.471 271.111 397.732C272.272 396.994 273.243 395.959 274.024 394.629C274.805 393.299 275.301 391.77 275.512 390.038L275.702 388.899C276.293 384.086 274.436 381.68 270.13 381.68C267.765 381.68 265.908 382.376 264.557 383.769C263.206 385.162 262.341 387.231 261.961 389.975C261.918 390.228 261.771 390.355 261.518 390.355L259.871 390.355C259.618 390.355 259.512 390.228 259.555 389.975C260.019 386.556 261.159 383.928 262.974 382.091C264.789 380.255 267.258 379.337 270.383 379.337C273.042 379.337 275.037 379.97 276.367 381.236C277.697 382.503 278.362 384.382 278.362 386.872C278.362 389.954 277.675 392.688 276.304 395.073C274.931 397.458 273.127 399.052 270.889 399.853L270.889 399.917C274.14 400.846 275.765 403.315 275.765 407.326C275.765 411.758 274.699 415.283 272.567 417.9C270.435 420.518 267.554 421.827 263.924 421.827Z" fill="#fcb514" fill-rule="nonzero" opacity="1" stroke="none" vectornator:layerName="path"/>
<path d="M283.047 405.552C282.794 405.552 282.688 405.426 282.731 405.173L282.984 403.779C283.026 403.526 283.174 403.399 283.427 403.399L298.182 403.399C298.477 403.399 298.582 403.526 298.498 403.779L298.245 405.236C298.203 405.447 298.055 405.552 297.802 405.552L283.047 405.552Z" fill="#fcb514" fill-rule="nonzero" opacity="1" stroke="none" vectornator:layerName="path"/>
<path d="M303.564 421.32C303.268 421.32 303.142 421.193 303.184 420.94L303.564 418.597C304.112 415.473 304.989 412.835 306.192 410.682C307.395 408.529 308.788 406.682 310.371 405.141C311.954 403.6 313.548 402.228 315.152 401.025C316.756 399.822 318.255 398.587 319.648 397.32C321.041 396.054 322.17 394.608 323.036 392.983C323.901 391.358 324.334 389.384 324.334 387.062C324.334 385.205 323.891 383.843 323.004 382.978C322.118 382.113 320.788 381.68 319.015 381.68C316.566 381.68 314.656 382.387 313.284 383.801C311.912 385.216 311.1 387.274 310.846 389.975C310.846 390.228 310.72 390.355 310.466 390.355L308.757 390.355C308.503 390.355 308.377 390.228 308.377 389.975C308.798 386.514 309.907 383.875 311.701 382.06C313.495 380.245 316.017 379.337 319.268 379.337C321.759 379.337 323.648 379.949 324.936 381.173C326.223 382.398 326.867 384.339 326.867 386.999C326.867 389.617 326.424 391.822 325.537 393.616C324.651 395.411 323.5 396.972 322.086 398.302C320.671 399.632 319.152 400.92 317.527 402.165C315.901 403.41 314.297 404.761 312.714 406.217C311.131 407.674 309.759 409.405 308.598 411.41C307.437 413.415 306.625 415.917 306.16 418.914L321.548 418.914C321.801 418.914 321.906 419.04 321.864 419.294L321.611 420.94C321.569 421.193 321.421 421.32 321.168 421.32L303.564 421.32Z" fill="#fcb514" fill-rule="nonzero" opacity="1" stroke="none" vectornator:layerName="path"/>
<path d="M341.621 421.32C341.368 421.32 341.262 421.193 341.305 420.94L342.634 412.328L326.93 412.328C326.719 412.328 326.614 412.223 326.614 412.011L326.614 411.758C326.656 411.674 326.698 411.568 326.74 411.442C326.782 411.315 326.825 411.21 326.867 411.125L344.534 380.097C344.618 379.928 344.766 379.843 344.977 379.843L346.75 379.843C347.046 379.843 347.109 379.992 346.94 380.287L330.223 409.922L343.014 409.922L345.484 394.851C345.526 394.556 345.674 394.408 345.927 394.408L347.51 394.408C347.805 394.408 347.911 394.556 347.827 394.851L345.421 409.922L349.537 409.922C349.832 409.922 349.937 410.048 349.853 410.302L349.6 411.948C349.558 412.201 349.41 412.328 349.157 412.328L345.041 412.328L343.648 420.94C343.648 421.193 343.521 421.32 343.268 421.32L341.621 421.32Z" fill="#fcb514" fill-rule="nonzero" opacity="1" stroke="none" vectornator:layerName="path"/>
</g>
<path d="M840.903 327.48C838.162 327.49 835.422 327.513 832.681 327.513C832.681 328.426 834.773 330.642 835.185 331.673C835.71 332.985 836.768 334.22 837.512 335.46C839.152 338.193 840.855 340.876 842.519 343.649C844.213 346.472 846.228 349.293 847.716 352.268C848.43 353.696 849.518 354.948 850.226 356.362C851.735 359.381 854.024 362.01 855.539 365.04C857.025 368.012 859.37 370.622 860.859 373.6C862.549 376.98 864.922 380.192 866.909 383.503C867.628 384.701 868.386 385.897 869.113 387.109C869.335 387.479 869.561 388.046 869.843 388.328C869.526 388.645 868.251 388.393 867.946 388.393C867.416 388.393 866.891 388.428 866.362 388.452C864.305 388.543 862.262 388.844 860.246 389.247C854.261 390.444 848.207 393.647 844.358 398.596C843.405 399.822 842.76 401.099 842.22 402.449C838.484 411.787 844.349 419.126 851.999 423.716C854.474 425.201 857.418 425.761 860.188 426.591C861.541 426.997 863.501 427.422 864.895 427.445C867.299 427.485 869.702 427.486 872.105 427.445C877.863 427.349 884.749 424.505 889.219 420.848C893.217 417.577 895.508 413.546 895.817 408.441C895.891 407.227 895.915 405.723 895.517 404.529C894.739 402.196 893.735 400.358 892.46 398.231C890.9 395.632 889.294 393.101 887.752 390.531C887.044 389.351 886.308 387.561 885.366 386.62C885.427 386.528 885.429 386.529 885.49 386.437C885.716 386.55 886.152 386.551 886.344 386.555C888.483 386.592 890.627 386.62 892.766 386.62C894.048 386.62 895.89 386.107 896.919 385.335C896.378 384.253 895.263 383.483 894.722 382.402C894.962 382.161 894.744 382.308 895.269 382.336C895.88 382.37 896.49 382.382 897.102 382.402C898.181 382.435 899.262 382.46 900.342 382.46C904.012 382.46 907.695 381.959 911.282 381.241C911.636 381.17 914.097 380.619 914.215 380.38C914.295 380.221 913.329 379.341 912.814 378.796C912.279 378.23 911.74 377.663 911.223 377.082C911.513 376.792 912.997 376.85 913.485 376.775C915.161 376.517 916.889 376.151 918.499 375.615C923.445 373.966 927.974 371.409 931.942 367.667C933.08 366.594 934.691 365.285 935.424 363.821C935.363 363.76 935.368 363.758 935.306 363.697C935.12 363.79 935.085 363.789 934.935 363.638C935.634 362.939 936.756 362.497 937.569 361.865C939.812 360.12 942.212 357.948 943.492 355.384C943.782 354.815 945.132 352.891 945.022 352.327C944.962 352.016 944.512 352.253 944.352 352.085C946.702 349.737 948.382 347.413 949.542 344.503C949.802 343.868 950.562 342.106 950.462 341.511C950.402 341.107 949.652 341.556 949.362 341.263C950.172 340.451 951.112 339.758 951.932 338.942C954.542 336.332 957.802 331.245 957.802 327.513C906.121 327.513 906.122 327.513 854.444 327.513C854.806 328.601 855.79 329.679 856.4 330.695C857.744 332.935 859.128 335.057 860.246 337.292C861.588 339.976 861.038 341.617 857.743 341.452C857.631 341.446 856.257 339.091 856.093 338.818C854.996 336.99 853.826 335.209 852.729 333.381C852.17 332.448 851.614 331.27 850.956 330.447C850.738 330.174 849.207 327.514 849.124 327.513C846.384 327.473 843.643 327.47 840.903 327.48ZM842.004 329.169C844.011 329.162 846.016 329.178 848.022 329.228C848.168 329.231 849.611 331.73 849.795 332.038C851.518 334.908 853.328 337.721 855.05 340.591C855.216 340.868 856.685 343.277 856.765 343.284C857.548 343.349 857.879 343.223 858.538 343.16C859.64 343.055 861.117 342.968 861.961 342.123C863.079 341.005 862.719 339.405 862.326 338.029C861.443 334.94 859.55 332.056 857.743 329.345C857.783 329.304 857.809 329.228 857.867 329.228C890.302 329.187 922.737 329.187 955.172 329.228C955.232 329.228 955.252 329.304 955.292 329.345C953.802 332.316 952.552 335.066 950.162 337.658C948.542 339.406 946.552 340.714 944.902 342.365C945.952 342.715 947.332 341.74 948.132 342.547C947.822 343.177 947.782 344.003 947.462 344.627C946.662 346.231 945.772 347.977 944.412 349.334C943.322 350.428 942.182 351.43 940.922 352.327C940.342 352.741 939.532 353.054 939.032 353.552C939.312 353.644 939.642 353.552 939.952 353.552C940.602 353.552 941.442 353.214 941.902 353.676C940.292 356.901 938.017 359.647 934.876 361.741C933.852 362.424 932.785 362.931 931.636 363.39C931.247 363.546 930.572 363.601 930.293 363.879C930.786 364.372 931.632 363.634 932.125 364.127C931.663 365.05 930.889 366.035 930.169 366.755C925.803 371.12 920.802 373.116 914.952 374.578C913.23 375.008 911.396 375.22 909.632 375.373C909.117 375.418 907.692 375.293 907.37 375.615C908.434 377.034 909.844 378.276 911.04 379.592C910.505 380.127 908.709 380.036 907.983 380.139C904.069 380.698 900.067 380.626 896.124 380.504C895.35 380.481 894.577 380.474 893.803 380.446C893.144 380.421 891.357 379.957 890.869 380.446C891.911 381.749 892.925 383.081 893.926 384.416C893.467 384.876 892.329 384.906 891.723 384.97C889.477 385.207 887.105 384.945 884.877 384.54C884.423 384.457 881.67 383.718 881.52 383.868C884.322 388.072 886.862 392.492 889.461 396.823C892.244 401.462 894.709 404.275 893.861 410.208C893.245 414.517 890.16 418.081 886.716 420.541C885.839 421.167 884.797 421.566 883.965 422.191C881.679 423.905 877.916 424.619 875.098 425.183C866.966 426.81 854.362 425.108 848.022 418.768C846.368 417.114 845.185 415.278 844.052 413.389C842.929 411.518 842.838 408.765 843.008 406.726C843.795 397.286 854.183 391.856 862.632 390.649C865.177 390.285 867.532 390.217 870.149 390.284C870.75 390.299 872.482 390.231 873.083 390.531C873.273 390.247 871.396 387.407 871.069 386.861C868.831 383.132 866.502 379.498 864.282 375.797C857.771 364.945 850.986 354.259 844.475 343.408C842.386 339.926 840.208 336.497 838.119 333.016C837.386 331.795 836.499 330.618 835.863 329.345C835.904 329.304 835.923 329.228 835.98 329.228C837.987 329.207 839.997 329.176 842.004 329.169ZM840.629 331.79C840.571 331.791 840.531 331.862 840.505 331.914C840.435 332.054 840.958 332.734 841.053 332.892C841.629 333.852 842.205 334.835 842.826 335.767C845.321 339.51 847.604 343.461 849.919 347.32C856.529 358.336 863.416 369.182 870.026 380.198C872.104 383.661 874.25 387.011 876.324 390.466C877.079 391.725 877.988 392.948 878.645 394.261C878.583 394.322 878.582 394.317 878.521 394.378C877.711 393.973 876.707 393.866 875.835 393.648C872.123 392.72 868.122 392.615 864.341 393.035C861.06 393.399 857.733 394.324 854.809 395.786C849.95 398.216 844.912 402.939 845.577 408.93C845.732 410.327 846.103 412.154 846.985 413.331C848.325 415.116 849.627 416.791 851.445 418.155C857.582 422.758 866.887 424.028 874.302 422.68C876.429 422.293 878.679 421.809 880.6 420.848C885.135 418.58 889.973 415.807 891.175 410.397C892.223 405.682 890.317 403.305 888.118 399.639C885.561 395.378 882.9 391.161 880.359 386.926C879.216 385.021 878.014 383.147 876.871 381.241C876.625 380.83 875.649 379.652 875.893 379.285C879.134 380.366 882.42 381.357 885.797 381.971C886.367 382.075 888.685 382.564 888.972 382.278C887.895 380.663 886.849 379.128 885.979 377.388C886.25 377.117 889.752 377.6 890.321 377.636C893.939 377.862 897.569 378.001 901.196 378.001C901.807 378.001 902.423 377.96 903.034 377.936C903.5 377.917 905.345 378.012 905.662 377.694C904.293 375.984 902.633 374.466 901.137 372.863C901.438 372.562 902.202 372.838 902.604 372.863C903.032 372.891 903.46 372.914 903.888 372.929C905.87 372.997 907.84 372.984 909.815 372.805C916.087 372.235 922.159 370.348 926.811 366.083C926.771 366.042 926.745 365.959 926.687 365.959C911.407 365.919 896.128 366.04 880.848 365.959C880.651 365.958 880.316 365.267 880.235 365.105C880.276 365.064 880.302 364.981 880.359 364.981C893.052 364.941 905.741 365.001 918.434 364.981C919.003 364.98 919.76 364.678 920.331 364.551C925.129 363.485 930.242 361.82 934.205 358.99C935.215 358.268 936.205 357.489 937.014 356.545C937.24 356.282 937.827 355.766 937.503 355.443C937.228 355.581 937.571 355.443 937.138 355.443C916.316 355.443 895.496 355.508 874.674 355.508C874.194 355.508 874.039 354.992 873.814 354.654C873.854 354.613 873.88 354.53 873.937 354.53C893.272 354.49 912.608 354.551 931.942 354.53C932.681 354.529 933.542 353.57 934.205 353.305C936.704 352.305 939.702 350.26 941.662 348.415C942.332 347.784 943.052 347.187 943.622 346.459C943.762 346.272 944.402 345.51 944.352 345.24C944.332 345.168 944.302 345.058 944.222 345.057C918.819 344.996 893.417 345.118 868.011 345.057C867.813 345.057 867.478 344.298 867.398 344.138C867.439 344.097 867.464 344.014 867.522 344.014C890.83 343.994 914.137 344.079 937.445 344.079C938.014 344.079 939.042 343.144 939.522 342.854C941.932 341.407 944.332 339.721 946.372 337.781C947.162 337.027 947.972 336.284 948.692 335.46C949.442 334.607 950.722 333.257 951.012 332.096C951.042 331.987 950.982 331.79 950.832 331.79C921.39 331.729 891.949 331.749 862.509 331.79C862.383 331.79 862.366 331.964 862.385 332.038C862.576 332.802 863.37 333.689 863.734 334.417C864.585 336.119 865.384 338.243 865.384 340.168C865.384 344.192 861.708 345.691 858.232 345.853C857.621 345.881 857.011 345.911 856.4 345.911C856.01 345.911 855.581 345.961 855.233 345.787C854.734 345.538 853.521 343.091 853.159 342.489C851.62 339.924 849.991 337.413 848.452 334.848C848.041 334.163 847.184 332.278 846.62 331.855C846.588 331.83 846.537 331.856 846.496 331.855C844.541 331.835 842.585 331.77 840.629 331.79Z" fill="#002f87" fill-rule="nonzero" opacity="1" stroke="none" vectornator:layerName="path"/>
<g opacity="1">
<path d="M387.055 421.827C379.295 421.827 373.644 419.739 370.101 415.564C366.558 411.388 365.673 405.463 367.444 397.787C367.697 396.944 368.161 396.522 368.836 396.522L376.174 396.522C377.186 396.522 377.566 396.986 377.313 397.914C376.301 402.975 376.744 406.686 378.641 409.048C380.539 411.409 383.639 412.59 387.941 412.59C392.496 412.59 395.954 411.452 398.316 409.174C400.678 406.897 401.858 403.649 401.858 399.432C401.858 397.323 401.584 395.489 401.036 393.928C400.488 392.368 399.644 390.892 398.506 389.5C397.367 388.108 395.827 386.695 393.887 385.261L383.26 376.911C380.139 374.549 377.819 371.871 376.301 368.877C374.782 365.882 374.023 362.403 374.023 358.438C374.023 351.775 376.069 346.524 380.16 342.686C384.251 338.848 389.923 336.929 397.177 336.929C404.684 336.929 410.23 338.933 413.815 342.939C417.4 346.946 418.349 352.703 416.662 360.21C416.493 361.222 416.071 361.728 415.396 361.728L407.678 361.728C407.004 361.728 406.708 361.222 406.793 360.21C407.636 355.486 407.109 351.965 405.211 349.645C403.313 347.325 400.382 346.166 396.418 346.166C392.622 346.166 389.67 347.241 387.561 349.392C385.453 351.543 384.398 354.263 384.398 357.553C384.398 360.168 384.968 362.424 386.106 364.322C387.245 366.22 389.08 368.181 391.61 370.205L401.479 377.923C404.094 379.947 406.181 381.951 407.742 383.933C409.302 385.915 410.441 388.024 411.158 390.259C411.875 392.494 412.233 395.088 412.233 398.04C412.233 405.632 410.04 411.494 405.654 415.627C401.268 419.76 395.068 421.827 387.055 421.827Z" fill="#fcb514" fill-rule="nonzero" opacity="1" stroke="none"/>
<path d="M433.742 420.814C432.899 420.814 432.561 420.35 432.73 419.423L444.117 347.431L427.543 347.431C426.783 347.431 426.488 347.009 426.657 346.166L427.669 339.207C427.838 338.363 428.26 337.942 428.934 337.942L472.205 337.942C473.049 337.942 473.386 338.363 473.217 339.207L472.079 346.166C471.994 347.009 471.573 347.431 470.814 347.431L454.239 347.431L442.725 419.549C442.641 420.393 442.177 420.814 441.334 420.814L433.742 420.814Z" fill="#fcb514" fill-rule="nonzero" opacity="1" stroke="none"/>
<path d="M472.205 420.814C471.362 420.814 470.982 420.393 471.067 419.549L483.845 339.207C484.014 338.363 484.436 337.942 485.111 337.942L492.829 337.942C493.756 337.942 494.136 338.363 493.967 339.207L482.454 411.325L507.758 411.325C508.771 411.325 509.192 411.747 509.024 412.59L507.758 419.549C507.674 420.393 507.252 420.814 506.493 420.814L472.205 420.814Z" fill="#fcb514" fill-rule="nonzero" opacity="1" stroke="none"/>
<path d="M538.503 420.814C537.66 420.814 537.323 420.393 537.491 419.549L550.27 339.207C550.439 338.363 550.861 337.942 551.535 337.942L567.351 337.942C574.773 337.942 580.214 339.376 583.672 342.243C587.131 345.111 588.86 349.371 588.86 355.022C588.86 360.421 587.573 365.039 585.001 368.877C582.428 372.714 578.907 375.477 574.436 377.164L574.436 377.417C578.147 378.429 580.931 380.264 582.787 382.921C584.642 385.578 585.57 389.057 585.57 393.359C585.57 402.468 583.019 409.322 577.915 413.919C572.812 418.516 565.622 420.814 556.343 420.814L538.503 420.814ZM548.878 411.578L557.229 411.578C563.049 411.578 567.519 410.102 570.64 407.15C573.761 404.198 575.322 399.601 575.322 393.359C575.322 389.647 574.246 386.885 572.095 385.072C569.944 383.258 566.676 382.351 562.29 382.351L553.433 382.351L548.878 411.578ZM554.951 373.621L563.049 373.621C566.254 373.621 569.017 372.967 571.336 371.66C573.656 370.353 575.448 368.455 576.713 365.967C577.979 363.478 578.611 360.421 578.611 356.794C578.611 353.42 577.662 350.974 575.765 349.455C573.867 347.937 570.725 347.178 566.339 347.178L559.127 347.178L554.951 373.621Z" fill="#fcb514" fill-rule="nonzero" opacity="1" stroke="none"/>
<path d="M594.806 420.814C593.963 420.814 593.583 420.393 593.668 419.549L606.446 339.207C606.615 338.363 607.037 337.942 607.712 337.942L615.43 337.942C616.357 337.942 616.737 338.363 616.568 339.207L605.055 411.325L630.359 411.325C631.371 411.325 631.793 411.747 631.625 412.59L630.359 419.549C630.275 420.393 629.853 420.814 629.094 420.814L594.806 420.814Z" fill="#fcb514" fill-rule="nonzero" opacity="1" stroke="none"/>
<path d="M662.37 421.827C654.357 421.827 648.579 419.423 645.036 414.615C641.493 409.807 640.439 402.722 641.873 393.359L650.603 339.207C650.772 338.363 651.193 337.942 651.868 337.942L659.586 337.942C660.43 337.942 660.809 338.406 660.725 339.333L651.868 393.612C650.94 399.854 651.362 404.556 653.133 407.719C654.905 410.882 658.279 412.464 663.255 412.464C667.895 412.464 671.522 410.946 674.136 407.909C676.751 404.872 678.565 400.065 679.577 393.485L688.307 339.207C688.476 338.363 688.855 337.942 689.446 337.942L697.164 337.942C698.007 337.942 698.387 338.406 698.302 339.333L689.572 393.991C688.054 403.438 685.102 410.439 680.716 414.994C676.329 419.549 670.214 421.827 662.37 421.827Z" fill="#fcb514" fill-rule="nonzero" opacity="1" stroke="none"/>
<path d="M701.592 420.814C700.833 420.814 700.495 420.393 700.58 419.549L713.359 339.207C713.527 338.363 713.949 337.942 714.624 337.942L749.924 337.942C750.852 337.942 751.231 338.363 751.062 339.207L749.924 346.166C749.755 347.009 749.291 347.431 748.532 347.431L722.089 347.431L717.787 374.001L741.953 374.001C742.796 374.001 743.134 374.465 742.965 375.392L741.953 381.972C741.868 382.815 741.404 383.237 740.561 383.237L716.395 383.237L711.967 411.325L738.284 411.325C739.127 411.325 739.464 411.747 739.296 412.59L738.157 419.549C738.073 420.393 737.609 420.814 736.765 420.814L701.592 420.814Z" fill="#fcb514" fill-rule="nonzero" opacity="1" stroke="none"/>
<path d="M772.318 421.827C764.558 421.827 758.907 419.739 755.364 415.564C751.822 411.388 750.936 405.463 752.707 397.787C752.96 396.944 753.424 396.522 754.099 396.522L761.437 396.522C762.45 396.522 762.829 396.986 762.576 397.914C761.564 402.975 762.007 406.686 763.905 409.048C765.802 411.409 768.902 412.59 773.204 412.59C777.759 412.59 781.217 411.452 783.579 409.174C785.941 406.897 787.122 403.649 787.122 399.432C787.122 397.323 786.847 395.489 786.299 393.928C785.751 392.368 784.907 390.892 783.769 389.5C782.63 388.108 781.091 386.695 779.151 385.261L768.523 376.911C765.402 374.549 763.082 371.871 761.564 368.877C760.046 365.882 759.286 362.403 759.286 358.438C759.286 351.775 761.332 346.524 765.423 342.686C769.514 338.848 775.186 336.929 782.44 336.929C789.947 336.929 795.493 338.933 799.078 342.939C802.663 346.946 803.612 352.703 801.925 360.21C801.756 361.222 801.334 361.728 800.66 361.728L792.942 361.728C792.267 361.728 791.972 361.222 792.056 360.21C792.899 355.486 792.372 351.965 790.474 349.645C788.577 347.325 785.645 346.166 781.681 346.166C777.885 346.166 774.933 347.241 772.824 349.392C770.716 351.543 769.661 354.263 769.661 357.553C769.661 360.168 770.231 362.424 771.369 364.322C772.508 366.22 774.343 368.181 776.873 370.205L786.742 377.923C789.357 379.947 791.444 381.951 793.005 383.933C794.565 385.915 795.704 388.024 796.421 390.259C797.138 392.494 797.496 395.088 797.496 398.04C797.496 405.632 795.303 411.494 790.917 415.627C786.531 419.76 780.331 421.827 772.318 421.827Z" fill="#fcb514" fill-rule="nonzero" opacity="1" stroke="none"/>
</g>
<g opacity="1">
<path d="M127.727 748.987C123.304 748.987 121.535 746.922 122.419 742.794L166.653 465.447C167.243 461.319 169.16 459.254 172.404 459.254L235.658 459.254C239.197 459.254 241.409 461.319 242.293 465.447L265.737 588.417C268.391 600.213 270.898 612.083 273.257 624.026C275.616 635.969 277.68 647.838 279.45 659.634L280.777 659.634C281.367 645.774 282.472 630.587 284.094 614.073C285.716 597.559 287.559 582.814 289.624 569.839L306.432 465.447C307.022 461.319 309.086 459.254 312.625 459.254L362.167 459.254C366.591 459.254 368.36 461.319 367.475 465.447L323.241 742.794C322.652 746.922 320.587 748.987 317.049 748.987L254.236 748.987C250.698 748.987 248.633 746.922 248.044 742.794L227.696 647.691C223.862 629.113 220.619 611.272 217.965 594.168C215.311 577.064 213.099 562.762 211.329 551.261L210.002 551.261C209.118 564.826 207.717 580.087 205.8 597.043C203.883 613.999 201.745 629.85 199.386 644.595L183.904 742.794C183.315 746.922 181.25 748.987 177.712 748.987L127.727 748.987Z" fill="#002f87" fill-rule="nonzero" opacity="1" stroke="none"/>
<path d="M464.79 752.525C430.582 752.525 405.664 743.015 390.035 723.994C374.405 704.974 369.392 677.623 374.995 641.94L388.265 557.896C394.163 523.099 406.254 497.369 424.537 480.708C442.82 464.046 468.476 455.716 501.504 455.716C536.007 455.716 561.072 465.226 576.702 484.246C592.331 503.267 597.344 530.618 591.741 566.3L578.029 650.345C572.721 685.142 560.851 710.872 542.421 727.533C523.99 744.195 498.113 752.525 464.79 752.525ZM470.983 694.579C483.958 694.579 493.911 690.893 500.841 683.52C507.771 676.148 512.415 664.057 514.774 647.249L528.044 566.743C530.699 548.459 529.372 535.116 524.063 526.711C518.755 518.307 509.171 513.957 495.311 513.662C482.631 513.662 472.826 517.348 465.896 524.721C458.966 532.093 454.026 544.331 451.077 561.435L438.692 641.498C435.448 659.487 436.554 672.757 442.009 681.309C447.465 689.861 457.123 694.284 470.983 694.579Z" fill="#002f87" fill-rule="nonzero" opacity="1" stroke="none"/>
<path d="M641.283 748.987C637.155 748.987 635.091 747.07 635.091 743.236L621.378 465.447C621.378 461.319 623.295 459.254 627.129 459.254L678.44 459.254C682.273 459.254 684.338 461.171 684.633 465.005L686.402 586.206C686.107 601.835 685.517 617.759 684.633 633.978C683.748 650.197 682.716 666.122 681.536 681.751L682.863 681.751C686.402 671.43 690.088 660.961 693.922 650.345C697.755 639.729 701.589 629.555 705.423 619.824L743.464 522.951L739.04 472.525C739.04 468.396 740.957 466.332 744.791 466.332L795.217 466.332C798.756 466.332 800.82 468.249 801.41 472.082L805.834 616.727C806.129 627.343 806.276 638.107 806.276 649.018C806.276 659.929 806.276 670.84 806.276 681.751L806.718 681.751C810.257 665.532 814.386 648.133 819.104 629.555C823.822 610.977 828.835 593.725 834.143 577.801L870.858 465.005C872.332 461.171 874.691 459.254 877.935 459.254L930.131 459.254C931.9 459.254 933.154 459.77 933.891 460.803C934.628 461.835 934.702 463.383 934.112 465.447L833.259 743.236C831.784 747.07 829.72 748.987 827.066 748.987L769.119 748.987C764.991 748.987 762.927 747.07 762.927 743.236L759.83 660.519C759.535 650.492 759.241 640.54 758.946 630.661C758.651 620.782 758.356 610.829 758.061 600.803L757.176 600.803C753.638 610.829 750.173 620.782 746.781 630.661C743.39 640.54 739.63 650.492 735.502 660.519L704.096 743.236C702.621 747.07 700.557 748.987 697.903 748.987L641.283 748.987Z" fill="#002f87" fill-rule="nonzero" opacity="1" stroke="none"/>
</g>
</g>
</svg>
