<?xml version="1.0" encoding="UTF-8" standalone="no"?>
<!DOCTYPE svg PUBLIC "-//W3C//DTD SVG 1.1//EN" "http://www.w3.org/Graphics/SVG/1.1/DTD/svg11.dtd">
<!-- Created with Vectornator (http://vectornator.io/) -->
<svg height="100%" stroke-miterlimit="10" style="fill-rule:nonzero;clip-rule:evenodd;stroke-linecap:round;stroke-linejoin:round;" version="1.1" viewBox="0 0 1080 760" width="100%" xml:space="preserve" xmlns="http://www.w3.org/2000/svg" xmlns:vectornator="http://vectornator.io" xmlns:xlink="http://www.w3.org/1999/xlink">
<defs/>
<g id="Layer-1" vectornator:layerName="Layer 1">
<g opacity="1"/>
<g fill="#f6c30d" opacity="1" stroke="none">
<path d="M121.683 235.732C121.216 235.732 121.016 235.532 121.083 235.132L121.683 231.432C122.549 226.499 123.933 222.332 125.833 218.932C127.733 215.532 129.933 212.616 132.433 210.182C134.933 207.749 137.449 205.582 139.983 203.682C142.516 201.782 144.883 199.832 147.083 197.832C149.283 195.832 151.066 193.549 152.433 190.982C153.799 188.416 154.483 185.299 154.483 181.632C154.483 178.699 153.783 176.549 152.383 175.182C150.983 173.816 148.883 173.132 146.083 173.132C142.216 173.132 139.199 174.249 137.033 176.482C134.866 178.716 133.583 181.966 133.183 186.232C133.183 186.632 132.983 186.832 132.583 186.832L129.883 186.832C129.483 186.832 129.283 186.632 129.283 186.232C129.949 180.766 131.699 176.599 134.533 173.732C137.366 170.866 141.349 169.432 146.483 169.432C150.416 169.432 153.399 170.399 155.433 172.332C157.466 174.266 158.483 177.332 158.483 181.532C158.483 185.666 157.783 189.149 156.383 191.982C154.983 194.816 153.166 197.282 150.933 199.382C148.699 201.482 146.299 203.516 143.733 205.482C141.166 207.449 138.633 209.582 136.133 211.882C133.633 214.182 131.466 216.916 129.633 220.082C127.799 223.249 126.516 227.199 125.783 231.932L150.083 231.932C150.483 231.932 150.649 232.132 150.583 232.532L150.183 235.132C150.116 235.532 149.883 235.732 149.483 235.732L121.683 235.732Z"/>
<path d="M176.883 236.532C171.749 236.532 168.033 234.866 165.733 231.532C163.433 228.199 162.816 223.299 163.883 216.832L168.183 188.532C169.249 182.066 171.349 177.266 174.483 174.132C177.616 170.999 181.749 169.432 186.883 169.432C191.949 169.432 195.633 171.082 197.933 174.382C200.233 177.682 200.883 182.532 199.883 188.932L195.483 217.432C194.483 223.832 192.399 228.616 189.233 231.782C186.066 234.949 181.949 236.532 176.883 236.532ZM177.283 232.832C181.083 232.832 184.216 231.532 186.683 228.932C189.149 226.332 190.749 222.466 191.483 217.332L195.983 188.932C196.849 183.599 196.449 179.632 194.783 177.032C193.116 174.432 190.316 173.132 186.383 173.132C182.583 173.132 179.466 174.416 177.033 176.982C174.599 179.549 172.983 183.432 172.183 188.632L167.783 216.932C166.916 222.266 167.299 226.249 168.933 228.882C170.566 231.516 173.349 232.832 177.283 232.832Z"/>
<path d="M204.583 235.732C204.116 235.732 203.916 235.532 203.983 235.132L204.583 231.432C205.449 226.499 206.833 222.332 208.733 218.932C210.633 215.532 212.833 212.616 215.333 210.182C217.833 207.749 220.349 205.582 222.883 203.682C225.416 201.782 227.783 199.832 229.983 197.832C232.183 195.832 233.966 193.549 235.333 190.982C236.699 188.416 237.383 185.299 237.383 181.632C237.383 178.699 236.683 176.549 235.283 175.182C233.883 173.816 231.783 173.132 228.983 173.132C225.116 173.132 222.099 174.249 219.933 176.482C217.766 178.716 216.483 181.966 216.083 186.232C216.083 186.632 215.883 186.832 215.483 186.832L212.783 186.832C212.383 186.832 212.183 186.632 212.183 186.232C212.849 180.766 214.599 176.599 217.433 173.732C220.266 170.866 224.249 169.432 229.383 169.432C233.316 169.432 236.299 170.399 238.333 172.332C240.366 174.266 241.383 177.332 241.383 181.532C241.383 185.666 240.683 189.149 239.283 191.982C237.883 194.816 236.066 197.282 233.833 199.382C231.599 201.482 229.199 203.516 226.633 205.482C224.066 207.449 221.533 209.582 219.033 211.882C216.533 214.182 214.366 216.916 212.533 220.082C210.699 223.249 209.416 227.199 208.683 231.932L232.983 231.932C233.383 231.932 233.549 232.132 233.483 232.532L233.083 235.132C233.016 235.532 232.783 235.732 232.383 235.732L204.583 235.732Z"/>
<path d="M259.183 236.532C254.116 236.532 250.533 235.082 248.433 232.182C246.333 229.282 245.716 225.032 246.583 219.432C246.649 219.032 246.849 218.832 247.183 218.832L249.883 218.832C250.283 218.832 250.416 219.032 250.283 219.432C249.616 223.966 250.016 227.332 251.483 229.532C252.949 231.732 255.583 232.832 259.383 232.832C263.249 232.832 266.383 231.682 268.783 229.382C271.183 227.082 272.716 223.666 273.383 219.132L273.683 217.332C274.416 212.799 273.933 209.432 272.233 207.232C270.533 205.032 267.683 203.932 263.683 203.932L258.583 203.932C258.183 203.932 258.016 203.732 258.083 203.332L258.383 200.932C258.516 200.466 258.783 200.232 259.183 200.232L264.383 200.232C266.649 200.232 268.699 199.649 270.533 198.482C272.366 197.316 273.899 195.682 275.133 193.582C276.366 191.482 277.149 189.066 277.483 186.332L277.783 184.532C278.716 176.932 275.783 173.132 268.983 173.132C265.249 173.132 262.316 174.232 260.183 176.432C258.049 178.632 256.683 181.899 256.083 186.232C256.016 186.632 255.783 186.832 255.383 186.832L252.783 186.832C252.383 186.832 252.216 186.632 252.283 186.232C253.016 180.832 254.816 176.682 257.683 173.782C260.549 170.882 264.449 169.432 269.383 169.432C273.583 169.432 276.733 170.432 278.833 172.432C280.933 174.432 281.983 177.399 281.983 181.332C281.983 186.199 280.899 190.516 278.733 194.282C276.566 198.049 273.716 200.566 270.183 201.832L270.183 201.932C275.316 203.399 277.883 207.299 277.883 213.632C277.883 220.632 276.199 226.199 272.833 230.332C269.466 234.466 264.916 236.532 259.183 236.532Z"/>
<path d="M289.383 210.832C288.983 210.832 288.816 210.632 288.883 210.232L289.283 208.032C289.349 207.632 289.583 207.432 289.983 207.432L313.283 207.432C313.749 207.432 313.916 207.632 313.783 208.032L313.383 210.332C313.316 210.666 313.083 210.832 312.683 210.832L289.383 210.832Z"/>
<path d="M321.783 235.732C321.316 235.732 321.116 235.532 321.183 235.132L321.783 231.432C322.649 226.499 324.033 222.332 325.933 218.932C327.833 215.532 330.033 212.616 332.533 210.182C335.033 207.749 337.549 205.582 340.083 203.682C342.616 201.782 344.983 199.832 347.183 197.832C349.383 195.832 351.166 193.549 352.533 190.982C353.899 188.416 354.583 185.299 354.583 181.632C354.583 178.699 353.883 176.549 352.483 175.182C351.083 173.816 348.983 173.132 346.183 173.132C342.316 173.132 339.299 174.249 337.133 176.482C334.966 178.716 333.683 181.966 333.283 186.232C333.283 186.632 333.083 186.832 332.683 186.832L329.983 186.832C329.583 186.832 329.383 186.632 329.383 186.232C330.049 180.766 331.799 176.599 334.633 173.732C337.466 170.866 341.449 169.432 346.583 169.432C350.516 169.432 353.499 170.399 355.533 172.332C357.566 174.266 358.583 177.332 358.583 181.532C358.583 185.666 357.883 189.149 356.483 191.982C355.083 194.816 353.266 197.282 351.033 199.382C348.799 201.482 346.399 203.516 343.833 205.482C341.266 207.449 338.733 209.582 336.233 211.882C333.733 214.182 331.566 216.916 329.733 220.082C327.899 223.249 326.616 227.199 325.883 231.932L350.183 231.932C350.583 231.932 350.749 232.132 350.683 232.532L350.283 235.132C350.216 235.532 349.983 235.732 349.583 235.732L321.783 235.732Z"/>
<path d="M381.883 235.732C381.483 235.732 381.316 235.532 381.383 235.132L383.483 221.532L358.683 221.532C358.349 221.532 358.183 221.366 358.183 221.032L358.183 220.632C358.249 220.499 358.316 220.332 358.383 220.132C358.449 219.932 358.516 219.766 358.583 219.632L386.483 170.632C386.616 170.366 386.849 170.232 387.183 170.232L389.983 170.232C390.449 170.232 390.549 170.466 390.283 170.932L363.883 217.732L384.083 217.732L387.983 193.932C388.049 193.466 388.283 193.232 388.683 193.232L391.183 193.232C391.649 193.232 391.816 193.466 391.683 193.932L387.883 217.732L394.383 217.732C394.849 217.732 395.016 217.932 394.883 218.332L394.483 220.932C394.416 221.332 394.183 221.532 393.783 221.532L387.283 221.532L385.083 235.132C385.083 235.532 384.883 235.732 384.483 235.732L381.883 235.732Z"/>
</g>
<g fill="#f6c30d" opacity="1" stroke="none">
<path d="M451.229 240.084C442.397 240.084 435.965 237.708 431.933 232.956C427.901 228.204 426.893 221.46 428.909 212.724C429.197 211.764 429.725 211.284 430.493 211.284L438.845 211.284C439.997 211.284 440.429 211.812 440.141 212.868C438.989 218.628 439.493 222.852 441.653 225.54C443.813 228.228 447.341 229.572 452.237 229.572C457.421 229.572 461.357 228.276 464.045 225.684C466.733 223.092 468.077 219.396 468.077 214.596C468.077 212.196 467.765 210.108 467.141 208.332C466.517 206.556 465.557 204.876 464.261 203.292C462.965 201.708 461.213 200.1 459.005 198.468L446.909 188.964C443.357 186.276 440.717 183.228 438.989 179.82C437.261 176.412 436.397 172.452 436.397 167.94C436.397 160.356 438.725 154.38 443.381 150.012C448.037 145.644 454.493 143.46 462.749 143.46C471.293 143.46 477.605 145.74 481.685 150.3C485.765 154.86 486.845 161.412 484.925 169.956C484.733 171.108 484.253 171.684 483.485 171.684L474.701 171.684C473.933 171.684 473.597 171.108 473.693 169.956C474.653 164.58 474.053 160.572 471.893 157.932C469.733 155.292 466.397 153.972 461.885 153.972C457.565 153.972 454.205 155.196 451.805 157.644C449.405 160.092 448.205 163.188 448.205 166.932C448.205 169.908 448.853 172.476 450.149 174.636C451.445 176.796 453.533 179.028 456.413 181.332L467.645 190.116C470.621 192.42 472.997 194.7 474.773 196.956C476.549 199.212 477.845 201.612 478.661 204.156C479.477 206.7 479.885 209.652 479.885 213.012C479.885 221.652 477.389 228.324 472.397 233.028C467.405 237.732 460.349 240.084 451.229 240.084Z"/>
<path d="M504.365 238.932C503.405 238.932 503.021 238.404 503.213 237.348L516.173 155.412L497.309 155.412C496.445 155.412 496.109 154.932 496.301 153.972L497.453 146.052C497.645 145.092 498.125 144.612 498.893 144.612L548.141 144.612C549.101 144.612 549.485 145.092 549.293 146.052L547.997 153.972C547.901 154.932 547.421 155.412 546.557 155.412L527.693 155.412L514.589 237.492C514.493 238.452 513.965 238.932 513.005 238.932L504.365 238.932Z"/>
<path d="M541.085 240.084C538.781 240.084 537.029 239.46 535.829 238.212C534.629 236.964 534.173 235.188 534.461 232.884L534.893 230.436C535.565 226.02 538.301 223.812 543.101 223.812C545.597 223.812 547.445 224.46 548.645 225.756C549.845 227.052 550.301 228.852 550.013 231.156L549.437 233.46C548.861 237.876 546.077 240.084 541.085 240.084Z"/>
<path d="M587.165 238.932C586.205 238.932 585.773 238.452 585.869 237.492L600.413 146.052C600.605 145.092 601.085 144.612 601.853 144.612L610.637 144.612C611.693 144.612 612.125 145.092 611.933 146.052L598.829 228.132L627.629 228.132C628.781 228.132 629.261 228.612 629.069 229.572L627.629 237.492C627.533 238.452 627.053 238.932 626.189 238.932L587.165 238.932Z"/>
<path d="M663.485 240.084C654.365 240.084 647.717 237.348 643.541 231.876C639.365 226.404 638.045 218.676 639.581 208.692L645.341 172.548C646.973 162.66 650.285 155.34 655.277 150.588C660.269 145.836 667.421 143.46 676.733 143.46C685.949 143.46 692.645 146.196 696.821 151.668C700.997 157.14 702.317 164.916 700.781 174.996L694.877 210.996C693.341 220.884 690.053 228.204 685.013 232.956C679.973 237.708 672.797 240.084 663.485 240.084ZM664.781 229.428C670.253 229.428 674.501 227.964 677.525 225.036C680.549 222.108 682.541 217.332 683.501 210.708L689.261 174.996C690.413 167.892 689.789 162.636 687.389 159.228C684.989 155.82 681.053 154.116 675.581 154.116C670.109 154.116 665.861 155.604 662.837 158.58C659.813 161.556 657.773 166.308 656.717 172.836L651.101 208.548C649.949 215.652 650.549 220.908 652.901 224.316C655.253 227.724 659.213 229.428 664.781 229.428Z"/>
<path d="M734.333 240.084C725.213 240.084 718.637 237.348 714.605 231.876C710.573 226.404 709.373 218.34 711.005 207.684L720.941 146.052C721.133 145.092 721.613 144.612 722.381 144.612L731.165 144.612C732.125 144.612 732.557 145.14 732.461 146.196L722.381 207.972C721.325 215.076 721.805 220.428 723.821 224.028C725.837 227.628 729.677 229.428 735.341 229.428C740.621 229.428 744.749 227.7 747.725 224.244C750.701 220.788 752.765 215.316 753.917 207.828L763.853 146.052C764.045 145.092 764.477 144.612 765.149 144.612L773.933 144.612C774.893 144.612 775.325 145.14 775.229 146.196L765.293 208.404C763.565 219.156 760.205 227.124 755.213 232.308C750.221 237.492 743.261 240.084 734.333 240.084Z"/>
<path d="M779.117 238.932C778.157 238.932 777.725 238.452 777.821 237.492L792.365 146.052C792.557 145.092 793.037 144.612 793.805 144.612L802.589 144.612C803.645 144.612 804.077 145.092 803.885 146.052L789.341 237.492C789.245 238.452 788.717 238.932 787.757 238.932L779.117 238.932Z"/>
<path d="M829.805 240.084C820.973 240.084 814.541 237.708 810.509 232.956C806.477 228.204 805.469 221.46 807.485 212.724C807.773 211.764 808.301 211.284 809.069 211.284L817.421 211.284C818.573 211.284 819.005 211.812 818.717 212.868C817.565 218.628 818.069 222.852 820.229 225.54C822.389 228.228 825.917 229.572 830.813 229.572C835.997 229.572 839.933 228.276 842.621 225.684C845.309 223.092 846.653 219.396 846.653 214.596C846.653 212.196 846.341 210.108 845.717 208.332C845.093 206.556 844.133 204.876 842.837 203.292C841.541 201.708 839.789 200.1 837.581 198.468L825.485 188.964C821.933 186.276 819.293 183.228 817.565 179.82C815.837 176.412 814.973 172.452 814.973 167.94C814.973 160.356 817.301 154.38 821.957 150.012C826.613 145.644 833.069 143.46 841.325 143.46C849.869 143.46 856.181 145.74 860.261 150.3C864.341 154.86 865.421 161.412 863.501 169.956C863.309 171.108 862.829 171.684 862.061 171.684L853.277 171.684C852.509 171.684 852.173 171.108 852.269 169.956C853.229 164.58 852.629 160.572 850.469 157.932C848.309 155.292 844.973 153.972 840.461 153.972C836.141 153.972 832.781 155.196 830.381 157.644C827.981 160.092 826.781 163.188 826.781 166.932C826.781 169.908 827.429 172.476 828.725 174.636C830.021 176.796 832.109 179.028 834.989 181.332L846.221 190.116C849.197 192.42 851.573 194.7 853.349 196.956C855.125 199.212 856.421 201.612 857.237 204.156C858.053 206.7 858.461 209.652 858.461 213.012C858.461 221.652 855.965 228.324 850.973 233.028C845.981 237.732 838.925 240.084 829.805 240.084Z"/>
</g>
<g fill="#1e51a0" opacity="1" stroke="none">
<path d="M77.8631 530.668C73.8631 530.668 72.2631 528.801 73.0631 525.068L113.063 274.268C113.596 270.534 115.463 268.668 118.663 268.668L184.263 268.668C210.93 268.668 230.93 273.401 244.263 282.868C257.596 292.334 264.263 306.534 264.263 325.468C264.263 342.534 260.13 356.668 251.863 367.868C243.596 379.068 232.13 387.068 217.463 391.868L217.463 393.068C229.73 396.534 238.996 402.601 245.263 411.268C251.53 419.934 254.663 431.468 254.663 445.868C254.663 472.534 245.863 493.334 228.263 508.268C210.663 523.201 184.663 530.668 150.263 530.668L77.8631 530.668ZM137.463 482.268L157.863 482.268C170.93 482.268 180.663 479.001 187.063 472.468C193.463 465.934 196.663 456.668 196.663 444.668C196.663 436.134 194.33 429.801 189.663 425.668C184.996 421.534 177.33 419.468 166.663 419.468L147.863 419.468L137.463 482.268ZM154.663 375.868L172.263 375.868C179.196 375.868 185.13 374.268 190.063 371.068C194.996 367.868 198.73 363.468 201.263 357.868C203.796 352.268 205.063 346.001 205.063 339.068C205.063 331.334 202.996 325.668 198.863 322.068C194.73 318.468 188.263 316.668 179.463 316.668L163.863 316.668L154.663 375.868Z"/>
<path d="M274.263 530.668C270.53 530.668 269.063 528.801 269.863 525.068L309.863 274.268C310.396 270.534 312.263 268.668 315.463 268.668L362.663 268.668C366.396 268.668 367.996 270.534 367.463 274.268L335.063 478.668L409.863 478.668C413.863 478.668 415.463 480.401 414.663 483.868L408.263 525.068C407.73 528.801 405.996 530.668 403.063 530.668L274.263 530.668Z"/>
<path d="M518.263 533.868C487.863 533.868 465.93 525.668 452.463 509.268C438.996 492.868 434.796 468.134 439.863 435.068L465.863 274.268C466.396 270.534 468.13 268.668 471.063 268.668L518.663 268.668C522.396 268.668 523.863 270.534 523.063 274.268L497.463 434.668C494.796 450.668 495.663 462.468 500.063 470.068C504.463 477.668 512.263 481.468 523.463 481.468C534.93 481.468 543.53 477.801 549.263 470.468C554.996 463.134 559.196 451.201 561.863 434.668L587.463 274.268C587.996 270.534 589.73 268.668 592.663 268.668L640.263 268.668C643.996 268.668 645.463 270.534 644.663 274.268L618.663 437.068C613.596 470.934 603.13 495.534 587.263 510.868C571.396 526.201 548.396 533.868 518.263 533.868Z"/>
<path d="M644.663 530.668C640.663 530.668 639.063 528.801 639.863 525.068L679.863 274.268C680.396 270.534 682.263 268.668 685.463 268.668L819.863 268.668C823.863 268.668 825.463 270.534 824.663 274.268L818.263 315.068C817.73 318.801 815.863 320.668 812.663 320.668L730.263 320.668L721.863 373.868L795.463 373.868C799.463 373.868 801.063 375.734 800.263 379.468L794.263 417.868C793.73 421.601 791.863 423.468 788.663 423.468L714.263 423.468L705.463 478.668L786.663 478.668C790.396 478.668 791.996 480.401 791.463 483.868L785.063 525.068C784.263 528.801 782.263 530.668 779.063 530.668L644.663 530.668Z"/>
<path d="M895.463 533.868C865.863 533.868 844.73 527.001 832.063 513.268C819.396 499.534 815.863 479.468 821.463 453.068C822.263 449.334 823.996 447.468 826.663 447.468L873.063 447.468C876.796 447.468 878.396 449.334 877.863 453.068C876.263 463.201 877.263 470.801 880.863 475.868C884.463 480.934 890.663 483.468 899.463 483.468C908.263 483.468 914.796 481.468 919.063 477.468C923.33 473.468 925.463 467.468 925.463 459.468C925.463 455.734 924.863 452.268 923.663 449.068C922.463 445.868 920.53 442.801 917.863 439.868C915.196 436.934 911.73 433.734 907.463 430.268L872.263 404.668C860.796 396.134 852.463 386.934 847.263 377.068C842.063 367.201 839.463 355.068 839.463 340.668C839.463 317.201 846.796 298.801 861.463 285.468C876.13 272.134 896.53 265.468 922.663 265.468C951.73 265.468 972.73 272.201 985.663 285.668C998.596 299.134 1002.66 318.668 997.863 344.268C997.063 348.001 995.196 349.868 992.263 349.868L945.063 349.868C941.596 349.868 939.996 348.001 940.263 344.268C941.863 334.668 940.93 327.468 937.463 322.668C933.996 317.868 928.263 315.468 920.263 315.468C913.063 315.468 907.596 317.268 903.863 320.868C900.13 324.468 898.263 329.468 898.263 335.868C898.263 341.468 899.53 346.201 902.063 350.068C904.596 353.934 908.93 358.268 915.063 363.068L952.263 390.668C959.996 396.268 966.196 402.001 970.863 407.868C975.53 413.734 978.996 420.268 981.263 427.468C983.53 434.668 984.663 443.201 984.663 453.068C984.663 478.668 976.93 498.534 961.463 512.668C945.996 526.801 923.996 533.868 895.463 533.868Z"/>
</g>
<path d="M1015.16 145.734C1013.4 145.737 1011.64 145.748 1009.87 145.754C999.205 145.795 988.537 145.844 977.871 145.943C960.547 146.103 943.22 146.171 925.896 146.259C922.011 146.279 918.127 146.282 914.242 146.322C913.68 146.328 913.79 146.27 913.549 146.51C914.112 147.073 914.565 148.184 914.998 148.905C916.456 151.336 918.086 153.678 918.086 156.652C918.086 157.963 916.784 158.873 915.879 159.552C915.07 158.744 914.414 157.171 913.8 156.148C912.465 153.923 910.683 151.929 909.518 149.598C909.031 148.625 908.577 147.72 908.194 146.764C908.134 146.614 907.993 145.952 907.752 145.943C904.983 145.837 903.106 145.955 900.51 146.006C899.145 146.032 897.777 146.044 896.412 146.068C895.404 146.086 894.396 146.073 893.39 146.134C893.331 146.138 893.307 146.217 893.265 146.259C894.21 148.15 895.638 149.859 896.729 151.677C898.575 154.754 900.364 157.863 902.209 160.938C905.763 166.861 908.671 172.903 912.226 178.828C915.788 184.764 919.435 190.656 922.999 196.595C925.692 201.083 928.264 205.683 930.937 210.139C931.631 211.295 932.191 212.519 932.765 213.666C932.865 213.867 933.379 214.425 933.329 214.675C933.271 214.964 930.673 215.074 930.307 215.114C927.911 215.38 925.503 215.602 923.124 215.998C917.233 216.98 911.609 218.976 907.627 223.683C906.82 224.637 905.893 225.846 905.423 227.022C905.217 227.537 905.084 228.173 904.793 228.658C903.754 230.39 903.702 233.624 904.163 235.465C904.553 237.026 905.067 238.329 905.99 239.622C910.003 245.24 916.674 245.732 923.061 245.732C925.269 245.732 927.557 245.403 929.739 245.04C937.621 243.726 947.157 241.002 951.538 233.7C953.251 230.846 953.212 227.072 952.165 223.933C951.128 220.82 950.048 217.442 948.387 214.675C947.722 213.566 946.865 212.192 946.371 210.957C945.279 208.225 942.718 204.753 940.763 202.58C941.07 202.118 942.185 202.326 942.528 202.326C944.213 202.326 945.895 202.628 947.569 202.768C947.901 202.795 948.43 202.789 948.764 202.956C949.141 202.579 947.883 199.046 947.695 198.294C947.64 198.078 947.179 196.904 947.441 196.845C947.831 196.759 948.239 196.793 948.638 196.783C950.045 196.747 951.451 196.744 952.858 196.72C955.387 196.677 957.603 196.471 960.041 196.027C961.246 195.808 962.472 195.544 963.696 195.46C964.162 195.428 964.874 195.689 965.082 195.272C965.218 195.001 964.34 194.154 964.01 193.823C962.967 192.78 961.782 192.198 961.113 190.86C961.411 190.563 962.095 190.637 962.499 190.547C963.795 190.259 965.126 190.028 966.405 189.663C969.866 188.674 973.481 187.607 976.673 186.01C978.106 185.294 980.239 184.902 981.398 183.744C980.977 182.902 980.196 182.542 979.445 182.167C979.129 182.009 978.706 182.121 978.438 181.853C979.695 180.596 982.029 180.003 983.665 179.458C988.153 177.962 993.274 176.704 996.265 172.717C995.574 171.797 993.836 172.37 993.114 171.648C993.927 170.835 996.151 170.128 997.274 169.566C1000.26 168.075 1003.25 166.572 1006.03 164.716C1006.94 164.108 1009.83 162.29 1009.68 161.252C1009.59 160.578 1007.72 160.991 1007.35 160.622C1008.12 159.858 1009.42 159.43 1010.31 158.794C1013.19 156.742 1016.05 154.592 1018.19 151.74C1018.82 150.897 1019.63 149.875 1019.89 148.843C1020.14 147.852 1020.67 146.97 1020.58 145.88C1020.58 145.821 1020.52 145.755 1020.46 145.754C1018.69 145.734 1016.93 145.73 1015.16 145.734ZM902.162 147.699C903.341 147.699 904.728 147.771 905.674 148.338C907.167 149.234 907.845 151.26 908.699 152.683C910.49 155.669 912.017 159.388 914.621 161.819C915.064 162.232 915.949 162.037 916.384 161.819C917.934 161.044 919.759 159.611 920.165 157.787C920.708 155.343 919.108 152.267 917.96 150.354C917.563 149.692 917.467 148.869 917.139 148.213C917.181 148.171 917.208 148.084 917.267 148.084C950.215 148.021 983.163 148.042 1016.11 148.021C1016.41 148.021 1016.44 148.014 1016.68 147.896C1017.37 148.596 1015.88 151.97 1015.16 152.683C1012.6 155.243 1009.56 156.942 1006.34 158.229C1004.85 158.828 1001.87 159.738 1000.8 160.81C1001.26 161.271 1004.56 161.809 1004.65 162.196C1004.92 163.455 1001.9 165.143 1000.86 165.663C997.723 167.233 994.497 168.605 991.227 169.695C990.215 170.032 987.427 170.72 986.753 171.394C987.031 171.672 987.575 171.753 987.95 171.836C989.34 172.145 990.806 172.573 991.477 173.915C987.825 176.837 983.336 178.184 978.877 179.458C978.016 179.704 977.064 179.947 976.168 180.025C975.001 180.127 973.116 179.927 972.199 180.844C972.799 181.444 975.733 182.189 975.917 183.113C976.217 184.613 972.778 185.44 971.823 185.822C968.463 187.166 964.575 187.941 960.988 188.594C960.193 188.738 956.861 189.128 956.451 189.537C958.044 190.599 959.793 192.255 960.671 194.011C960.629 194.053 960.605 194.133 960.546 194.137C959.497 194.197 958.445 194.172 957.395 194.199C954.39 194.279 951.395 194.579 948.387 194.579C947.001 194.579 945.575 194.18 944.23 194.516C943.863 194.608 944.132 195.271 944.167 195.648C944.296 196.996 945.128 198.146 945.616 199.366C945.68 199.527 946.232 200.6 945.867 200.626C943.903 200.767 937.925 199.865 936.292 198.231C935.759 198.765 936.786 200.4 937.11 200.94C938.59 203.406 940.416 205.654 941.898 208.123C946.58 215.927 954.733 224.867 948.199 234.013C941.94 242.776 927.467 244.589 917.895 243.463C913.255 242.917 909.837 241.644 906.997 237.857C906.419 237.087 905.928 235.8 905.928 234.835C905.928 233.103 906.026 231.64 906.558 230.044C909.412 221.482 919.303 218.163 927.473 217.509C927.85 217.479 928.226 217.449 928.604 217.447C931.418 217.428 934.234 217.488 937.048 217.447C937.107 217.446 937.131 217.363 937.173 217.321C925.469 193.914 908.818 171.763 897.043 148.213C897.423 147.833 900.33 147.708 901.074 147.708C901.397 147.708 901.768 147.699 902.162 147.699ZM903.305 149.294C902.872 149.346 902.413 149.626 902.021 149.724C901.65 149.817 900.879 149.739 900.698 150.1C900.494 150.508 902.489 153.464 902.777 153.944C905.207 157.995 907.528 162.112 909.96 166.165C916.1 176.399 921.792 186.834 927.912 197.034C929.876 200.307 931.493 203.713 933.458 206.988C935.406 210.236 937.278 213.527 939.252 216.817C939.459 217.163 941.287 219.868 941.268 219.964C941.182 220.39 939.72 220.272 939.505 220.281C938.75 220.311 937.992 220.344 937.236 220.344C935.257 220.344 933.273 219.983 931.313 219.776C929.245 219.559 927.147 219.454 925.077 219.651C920.12 220.123 913.465 223.259 910.336 227.084C908.249 229.635 907.171 233.226 908.699 236.283C910.725 240.334 916.741 241.352 920.732 241.447C922.778 241.495 924.708 241.585 926.717 241.384C934.193 240.636 945.754 237.808 948.134 229.48C949.086 226.147 948.213 222.896 946.748 219.964C946.52 219.508 946.416 218.914 946.118 218.516C945.66 217.906 945.146 217.025 944.86 216.312C944.403 215.17 943.494 214.055 942.844 212.973C941.54 210.799 940.097 208.677 938.621 206.611C936.166 203.174 933.986 199.578 931.818 195.964C931.166 194.879 930.863 193.739 930.307 192.625C930.37 192.562 930.369 192.563 930.432 192.5C931.031 193.098 931.914 193.515 932.636 193.949C934.886 195.298 937.129 196.337 939.505 197.288C940.274 197.595 941.871 198.241 942.653 197.98C942.653 195.694 941.532 194.223 940.575 192.309C940.835 192.048 941.941 192.124 942.086 192.121C943.472 192.088 944.86 192.058 946.246 192.058C948.651 192.058 951.089 192.335 953.488 192.5C954.273 192.554 955.873 192.953 956.326 192.5C955.806 191.981 955.409 191.333 954.874 190.798C954.239 190.163 953.397 189.762 952.733 189.161C952.259 188.733 951.41 188.414 951.41 187.775C951.41 187.392 952.162 187.599 952.545 187.584C953.84 187.532 955.165 187.379 956.451 187.208C959.675 186.778 963.075 186.343 966.151 185.318C967.816 184.762 969.565 184.289 971.255 183.806C971.57 183.716 972.68 183.516 972.453 182.985C972.277 182.573 971.114 182.739 970.688 182.483C969.458 181.745 967.883 180.733 966.405 180.405C965.339 180.168 964.221 180.306 963.129 180.276C958.427 180.149 953.721 180.096 949.018 180.025C945.742 179.976 942.46 180.087 939.189 179.9C938.929 179.885 938.932 179.293 939.126 179.27C942.391 178.874 946.532 179.162 949.648 179.144C954.813 179.114 959.979 179.118 965.145 179.081C967.505 179.065 969.916 179.015 972.262 178.702C976.4 178.151 980.66 177.549 984.549 175.993C985.22 175.725 987.723 174.421 987.446 173.727C987.424 173.672 987.378 173.611 987.32 173.598C986.183 173.346 985.2 173.155 984.107 172.717C982.91 172.239 981.73 171.357 980.388 171.332C978.268 171.291 976.148 171.281 974.027 171.269C965.333 171.219 956.639 171.188 947.945 171.143C943.221 171.119 938.496 171.143 933.771 171.08C933.598 171.078 933.624 170.748 933.646 170.576C933.657 170.486 933.848 170.261 933.897 170.259C935.471 170.199 937.046 170.263 938.621 170.259C944.879 170.242 951.137 170.197 957.395 170.197C965.668 170.197 973.942 170.259 982.216 170.259C983.805 170.259 985.529 169.825 987.066 169.441C990.929 168.475 994.596 167.306 997.967 165.284C998.607 164.9 1000.77 163.19 1000.68 162.7C1000.66 162.644 997.598 161.963 997.083 161.757C994.237 160.618 990.962 161.026 988.013 161.001C973.167 160.874 958.321 160.828 943.475 160.747C939.842 160.727 936.207 160.713 932.574 160.684C930.957 160.671 929.34 160.663 927.724 160.622C927.581 160.618 927.438 160.446 927.473 160.308C927.646 159.614 929.039 159.993 929.235 159.992C932.133 159.974 935.031 159.935 937.929 159.929C957.059 159.887 976.192 160.053 995.321 159.803C1000.37 159.737 1006.14 157.501 1010.13 154.511C1011.01 153.851 1013.59 151.685 1013.27 150.1C1013.26 150.013 1013.17 149.912 1013.09 149.912C998.197 149.849 983.31 149.912 968.421 149.912C958.552 149.912 948.678 149.849 938.812 149.849C932.87 149.849 926.925 149.87 920.983 149.912C920.936 149.912 920.894 149.945 920.857 149.975C920.817 150.008 920.501 150.302 920.478 150.417C920.421 150.704 920.825 151.267 920.92 151.551C921.249 152.539 921.574 153.587 921.613 154.637C921.733 157.876 921.466 160.643 919.155 162.954C918.784 163.325 917.944 163.913 917.393 164.023C916.167 164.269 915.245 164.403 913.863 164.403C912.605 164.403 911.66 162.324 911.091 161.377C909.191 158.21 908.005 154.469 905.674 151.36C905.17 150.689 904.658 150.156 904.037 149.535C903.817 149.315 903.565 149.263 903.305 149.294Z" fill="#20529e" fill-rule="nonzero" opacity="1" stroke="none" vectornator:layerName="path"/>
</g>
</svg>
