<?xml version="1.0" encoding="UTF-8" standalone="no"?>
<!DOCTYPE svg PUBLIC "-//W3C//DTD SVG 1.1//EN" "http://www.w3.org/Graphics/SVG/1.1/DTD/svg11.dtd">
<!-- Created with Vectornator (http://vectornator.io/) -->
<svg height="100%" stroke-miterlimit="10" style="fill-rule:nonzero;clip-rule:evenodd;stroke-linecap:round;stroke-linejoin:round;" version="1.1" viewBox="300 0 480 1080" width="100%" xml:space="preserve" xmlns="http://www.w3.org/2000/svg" xmlns:vectornator="http://vectornator.io" xmlns:xlink="http://www.w3.org/1999/xlink">
<defs/>
<g id="Layer-1" vectornator:layerName="Layer 1">
<path d="M414.229 386.036C414.034 386.232 413.639 386.321 413.635 386.599C413.441 401.592 412.891 416.624 413.635 431.599C413.69 432.707 415.188 433.165 415.979 433.943C420.382 438.262 424.797 442.591 429.229 446.88C430.874 448.472 434.165 449.28 434.229 451.568C435.851 510.444 437.115 569.458 434.229 628.286C434.018 632.578 428.195 634.365 425.135 637.38C421.826 640.637 418.477 643.909 415.104 647.099C414.702 647.48 413.645 647.797 413.635 648.568C413.443 663.464 413.441 678.36 413.635 693.255C413.639 693.533 413.952 693.816 414.229 693.818C480.674 694.013 547.128 694.012 613.573 693.818C613.85 693.817 613.967 693.448 614.166 693.255C617.398 690.116 620.622 686.987 623.854 683.849C632.629 675.332 635.907 672.141 644.729 663.568C648.159 660.235 651.579 656.898 655.01 653.568C658.244 650.43 664.224 648.641 664.698 644.161C667.584 616.873 667.262 589.137 664.698 561.818C664.322 557.816 659.064 556.135 656.198 553.318C651.65 548.847 647.028 544.439 642.385 540.068C645.716 536.737 649.031 533.379 652.385 530.068C656.479 526.028 663.951 523.74 664.698 518.036C668.258 490.828 665.824 463.109 664.698 435.693C664.63 434.031 662.386 433.357 661.198 432.193C657.485 428.556 653.625 425.081 650.041 421.318C638.903 409.628 614.291 387.693 614.291 387.693C614.291 387.693 540.651 387.722 414.229 386.036ZM516.979 396.13C547.802 396.022 578.631 396.07 609.448 396.599C611.043 396.627 611.826 398.716 612.979 399.818C622.944 409.351 632.768 419.027 642.666 428.63C645.899 431.767 649.159 434.924 652.385 438.068C652.981 438.648 654.116 438.985 654.135 439.818C654.71 464.508 656.986 489.38 654.135 513.911C653.615 518.386 647.646 520.176 644.416 523.318C640.589 527.037 636.785 530.733 632.979 534.474C631.198 536.222 629.335 537.932 627.666 539.786C627.535 539.932 627.543 540.197 627.666 540.349C631.304 544.896 636.15 548.35 640.323 552.411C643.85 555.843 647.398 559.282 650.916 562.724C652.005 563.79 654.072 564.42 654.135 565.943C655.168 590.618 655.439 615.375 654.135 640.036C654.037 641.906 651.388 642.58 650.041 643.88C642.058 651.576 634.136 659.325 626.198 667.068C622.079 671.084 617.958 675.13 613.854 679.161C612.371 680.618 611.475 683.075 609.448 683.536C604.383 684.687 599.079 683.536 593.885 683.536C537.534 683.536 481.142 683.828 424.791 683.536C424.376 683.534 423.928 683.077 423.916 682.661C423.631 672.768 422.356 662.748 423.916 652.974C424.321 650.441 427.66 649.438 429.51 647.661C432.756 644.538 436.044 641.44 439.229 638.255C441.244 636.241 444.823 634.635 444.823 631.786C444.823 570.242 446.166 508.722 444.823 447.193C444.782 445.321 442.05 444.644 440.698 443.349C437.346 440.136 434.01 436.884 430.698 433.63C428.425 431.396 426.029 429.267 423.916 426.88C423.916 426.88 423.916 425.574 423.916 425.411C423.916 416.002 423.725 406.599 423.916 397.193C423.922 396.916 424.233 396.6 424.51 396.599C455.332 396.502 486.156 396.238 516.979 396.13ZM560.948 439.161C553.015 439.126 545.074 439.183 537.135 439.255C521.257 439.4 505.385 439.672 489.51 439.818C489.233 439.82 488.918 440.133 488.916 440.411C488.721 466.282 488.721 492.165 488.916 518.036C488.918 518.25 489.854 518.911 490.104 518.911C522.053 518.911 554.029 520.038 585.948 518.63C587.886 518.544 588.655 515.863 590.041 514.505C593.262 511.354 596.487 508.226 599.729 505.099C601.974 502.935 606.049 501.684 606.51 498.599C608.421 485.804 608.927 472.525 606.51 459.818C605.707 455.597 600.446 453.707 597.385 450.693C593.38 446.745 590.35 439.688 584.729 439.536C576.794 439.322 568.88 439.196 560.948 439.161ZM561.416 449.13C568.223 449.25 575.035 449.541 581.823 450.099C585.346 450.389 586.922 455.001 589.448 457.474C591.725 459.704 595.652 461.057 596.229 464.193C598.037 474.025 597.924 484.372 596.229 494.224C595.747 497.025 592.072 498.079 590.041 500.068C587.27 502.784 585.687 507.964 581.823 508.318C554.692 510.8 527.316 508.511 500.073 508.318C499.796 508.316 499.513 508.002 499.51 507.724C499.317 488.713 499.316 469.704 499.51 450.693C499.513 450.415 499.795 450.101 500.073 450.099C520.506 449.953 540.997 448.771 561.416 449.13ZM491.323 560.693C489.983 560.712 488.929 561.034 488.916 562.13C488.626 587.903 488.721 613.67 488.916 639.443C488.918 639.721 489.233 640.034 489.51 640.036C521.653 640.28 553.859 641.924 585.948 640.036C586.501 640.004 586.706 639.235 587.104 638.849C589.842 636.197 592.61 633.559 595.354 630.911C598.197 628.169 601.017 625.41 603.885 622.693C604.741 621.881 606.435 621.527 606.51 620.349C607.34 607.341 608.411 594.151 606.51 581.255C606.045 578.102 602 576.711 599.729 574.474C595.728 570.537 591.751 566.606 587.698 562.724C587.145 562.194 586.713 561.238 585.948 561.224C555.769 560.647 525.538 560.926 495.354 560.943C494.258 560.943 492.662 560.673 491.323 560.693ZM540.979 571.411C554.604 571.317 568.208 571.379 581.823 571.849C583.28 571.9 584.031 573.736 585.073 574.755C588.835 578.44 594.84 580.862 596.229 585.943C598.839 595.491 598.455 606.017 596.229 615.661C595.309 619.645 590.337 621.269 587.416 624.13C585.535 625.974 584.451 629.588 581.823 629.755C554.635 631.494 527.316 629.95 500.073 629.755C499.796 629.753 499.513 629.439 499.51 629.161C499.317 610.248 499.316 591.325 499.51 572.411C499.513 572.134 499.795 571.851 500.073 571.849C513.695 571.752 527.356 571.504 540.979 571.411Z" fill="#ffffff" fill-rule="nonzero" opacity="1" stroke="none"/>
</g>
</svg>
