<?xml version="1.0" encoding="UTF-8" standalone="no"?>
<!DOCTYPE svg PUBLIC "-//W3C//DTD SVG 1.1//EN" "http://www.w3.org/Graphics/SVG/1.1/DTD/svg11.dtd">
<!-- Created with Vectornator (http://vectornator.io/) -->
<svg height="100%" stroke-miterlimit="10" style="fill-rule:nonzero;clip-rule:evenodd;stroke-linecap:round;stroke-linejoin:round;" version="1.1" viewBox="0 0 750 1000" width="100%" xml:space="preserve" xmlns="http://www.w3.org/2000/svg" xmlns:vectornator="http://vectornator.io" xmlns:xlink="http://www.w3.org/1999/xlink">
<defs/>
<g id="Layer-1" vectornator:layerName="Layer 1">
<path d="M370.307 200.007C364.51 200.041 358.566 200.215 352.399 200.508C350.657 200.591 347.092 201.212 345.344 201.386C339.826 201.938 334.392 202.608 328.88 203.456C309.716 206.404 289.911 210.946 271.866 218.164C214.701 241.03 162.91 277.342 128.078 329.588C104.735 364.602 88.7284 402.215 80.4421 443.646C78.2987 454.363 75.5917 466.872 75.4559 477.453C75.2624 492.543 75.2626 507.646 75.4559 522.737C75.7317 544.255 82.122 567.409 88.0941 588.311C117.548 691.401 210.077 772.934 314.485 793.817C361.087 803.137 410.091 802.197 455.889 789.112C471.769 784.575 486.543 778.142 501.769 772.052C526.932 761.988 551.202 744.036 571.453 726.486C652.52 656.226 688.871 548.526 669.642 442.767C661.641 398.764 642.227 358.344 616.423 322.218C570.957 258.565 498.398 215.57 421.487 203.739C403.853 201.025 387.697 199.903 370.307 200.007ZM370.056 211.108C403.598 211.091 439.254 214.922 470.88 227.573C491.703 235.902 510.993 244.791 530.276 256.361C584.211 288.722 633.118 351.688 650.825 413.665C667.117 470.684 667.431 527.637 651.108 584.767C622.682 684.257 535.174 760.461 435.316 782.652C419.313 786.208 402.321 788.799 385.925 788.799C355.114 788.799 324.995 786.093 295.387 777.635C285.292 774.75 275.409 771.236 265.688 767.348C261.176 765.543 256.506 762.645 251.858 761.484C245.755 759.957 238.676 754.973 233.324 751.762C215.411 741.014 198.488 729.574 182.771 715.603C103.394 645.045 70.587 538.452 93.6762 434.551C109.486 363.408 157.133 294.11 219.526 256.675C238.429 245.332 257.271 236.038 277.73 227.855C306.611 216.302 339.29 211.125 370.056 211.108ZM366.512 254.009C362.326 254.061 358.305 253.862 358.295 255.201C358.102 281.269 358.005 307.347 358.295 333.413C358.307 334.424 359.242 334.296 359.769 334.291C370.158 334.196 380.526 334.266 390.91 333.978C391.188 333.97 391.504 333.691 391.506 333.413C391.701 307.347 391.701 281.269 391.506 255.201C391.499 254.167 388.298 254.445 383.572 254.323C377.889 254.175 372.196 253.938 366.512 254.009ZM342.991 256.079C299.54 261.51 257.503 279.311 223.352 306.632C232.563 315.844 249.65 334.824 249.65 334.824C249.65 334.824 313.701 334.486 345.062 334.291C345.339 334.29 345.656 333.973 345.658 333.696C345.852 308.02 345.852 282.35 345.658 256.675C345.656 256.397 345.245 256.275 342.991 256.079ZM405.023 256.079C404.827 256.275 404.461 256.397 404.458 256.675C404.264 282.35 404.264 308.02 404.458 333.696C404.461 333.973 404.746 334.288 405.023 334.291C421.584 334.485 438.259 332.549 454.729 334.291C457.486 334.583 458.617 338.213 460.593 340.156C466.031 345.5 471.104 351.262 477.057 356.025C478.195 356.935 479.293 354.173 480.288 353.108C483.422 349.751 486.757 346.64 490.009 343.386C502.105 331.292 513.658 318.316 526.45 306.945C519.997 299.201 508.906 293.577 500.295 288.412C471.982 271.423 440.105 261.048 405.023 256.079ZM212.752 315.162C206.867 321.047 200.72 326.597 194.813 332.504C192.443 334.874 189.512 337.795 190.11 338.4C205.594 354.079 221.286 369.577 236.868 385.159C237.946 384.081 237.755 384.66 237.746 383.371C237.65 368.67 237.657 353.978 237.464 339.278C237.445 337.821 235.552 337.072 234.516 336.048C227.465 329.084 220.397 322.12 212.752 315.162ZM536.455 315.162C519.697 331.724 503.126 348.49 486.466 365.15C494.209 372.893 502.113 380.464 509.986 388.075C534.976 363.231 534.984 363.243 559.974 338.4C556.94 332.331 546.842 324.038 541.754 319.302C539.252 316.972 537.13 314.495 536.455 315.162ZM250.102 346.052C249.907 346.248 249.51 346.339 249.506 346.617C249.312 361.61 248.762 376.643 249.506 391.618C249.561 392.726 251.067 393.194 251.858 393.971C256.261 398.29 260.66 402.602 265.092 406.891C266.737 408.483 270.015 409.309 270.079 411.596C271.701 470.472 272.965 529.483 270.079 588.311C269.868 592.603 264.045 594.391 260.985 597.406C257.676 600.663 254.353 603.937 250.98 607.127C250.578 607.508 249.516 607.83 249.506 608.601C249.314 623.497 249.312 638.395 249.506 653.29C249.51 653.568 249.825 653.854 250.102 653.855C316.547 654.05 382.984 654.05 449.429 653.855C449.706 653.854 449.826 653.483 450.025 653.29C453.257 650.151 456.483 647.02 459.715 643.882C468.49 635.365 471.779 632.165 480.601 623.592C484.031 620.259 487.456 616.919 490.887 613.588C494.121 610.45 500.104 608.66 500.578 604.18C503.464 576.892 503.142 549.179 500.578 521.859C500.202 517.857 494.914 516.146 492.048 513.329C487.5 508.858 482.893 504.465 478.25 500.094C481.581 496.763 484.899 493.401 488.253 490.09C492.347 486.05 499.832 483.752 500.578 478.048C504.138 450.84 501.705 423.144 500.578 395.727C500.51 394.065 498.254 393.378 497.066 392.214C493.353 388.577 489.486 385.096 485.902 381.332C474.764 369.642 450.151 347.714 450.151 347.714C450.151 347.714 376.524 347.738 250.102 346.052ZM352.839 356.15C383.662 356.042 414.504 356.091 445.321 356.62C446.916 356.648 447.68 358.748 448.833 359.85C458.798 369.383 468.634 379.068 478.532 388.671C481.765 391.808 485.027 394.935 488.253 398.079C488.849 398.659 489.99 399.003 490.009 399.835C490.584 424.525 492.86 449.409 490.009 473.94C489.489 478.415 483.518 480.207 480.288 483.348C476.461 487.067 472.648 490.772 468.842 494.513C467.061 496.261 465.21 497.958 463.541 499.812C463.41 499.958 463.418 500.224 463.541 500.376C467.179 504.923 472.007 508.39 476.179 512.451C479.706 515.883 483.262 519.295 486.78 522.737C487.869 523.803 489.946 524.444 490.009 525.966C491.042 550.641 491.313 575.41 490.009 600.071C489.911 601.941 487.249 602.598 485.902 603.898C477.919 611.594 470.006 619.362 462.068 627.105C457.949 631.121 453.815 635.147 449.711 639.178C448.228 640.635 447.348 643.108 445.321 643.569C440.256 644.72 434.929 643.569 429.735 643.569C373.384 643.569 317.021 643.861 260.67 643.569C260.255 643.567 259.804 643.106 259.792 642.69C259.507 632.797 258.232 622.766 259.792 612.992C260.197 610.459 263.525 609.469 265.375 607.692C268.621 604.569 271.911 601.469 275.096 598.284C277.111 596.27 280.679 594.672 280.679 591.823C280.679 530.279 282.023 468.735 280.679 407.205C280.638 405.333 277.922 404.674 276.57 403.379C273.218 400.166 269.879 396.911 266.566 393.657C264.293 391.423 261.905 389.302 259.792 386.915C259.792 386.915 259.792 385.604 259.792 385.441C259.792 376.032 259.601 366.622 259.792 357.216C259.798 356.939 260.111 356.621 260.388 356.62C291.21 356.523 322.016 356.258 352.839 356.15ZM179.228 347.746C173.992 348.316 170.76 362.422 167.185 368.38C153.727 390.811 144.098 413.436 136.891 438.659C134.611 446.638 133.165 454.862 131.905 463.058C131.632 464.831 130.283 468.5 130.744 470.114C130.858 470.513 131.206 470.99 131.622 470.992C173.567 471.187 215.496 471.002 257.44 470.71C257.718 470.708 258.033 470.391 258.036 470.114C258.23 455.023 258.036 424.829 258.036 424.829C258.036 424.829 211.948 367.801 181.58 348.404C180.743 347.869 179.975 347.664 179.228 347.746ZM570.543 347.902C569.811 347.794 568.222 348.404 568.222 348.404L512.652 403.975C512.652 403.975 512.457 448.064 512.652 470.114C512.654 470.391 512.939 470.708 513.216 470.71C548.3 470.905 583.409 470.905 618.494 470.71C619.968 470.702 618.309 463.613 618.179 462.776C616.853 454.15 615.027 445.65 612.911 437.186C606.62 412.022 595.239 389.532 582.021 367.502C578.615 361.826 575.666 348.658 570.543 347.902ZM373.004 399.27C357.126 399.415 341.242 399.689 325.367 399.835C325.09 399.837 324.773 400.153 324.771 400.431C324.576 426.302 324.576 452.177 324.771 478.048C324.773 478.262 325.713 478.926 325.963 478.926C357.912 478.926 389.883 480.052 421.801 478.644C423.739 478.558 424.522 475.893 425.908 474.535C429.129 471.384 432.357 468.254 435.599 465.127C437.844 462.963 441.912 461.721 442.373 458.636C444.284 445.841 444.79 432.551 442.373 419.843C441.57 415.622 436.308 413.733 433.247 410.718C429.242 406.77 426.23 399.705 420.609 399.553C404.739 399.125 388.882 399.127 373.004 399.27ZM397.276 409.149C404.083 409.269 410.904 409.563 417.692 410.121C421.215 410.411 422.787 415.018 425.313 417.491C427.59 419.721 431.51 421.098 432.087 424.233C433.895 434.065 433.782 444.394 432.087 454.246C431.605 457.047 427.939 458.121 425.908 460.109C423.137 462.825 421.557 468.004 417.692 468.358C390.561 470.84 363.179 468.552 335.935 468.358C335.658 468.356 335.374 468.039 335.371 467.761C335.178 448.75 335.177 429.729 335.371 410.718C335.374 410.44 335.658 410.123 335.935 410.121C356.368 409.975 376.857 408.79 397.276 409.149ZM348.574 422.791C348.297 422.793 348.014 423.078 348.009 423.355C347.817 433.937 347.817 444.541 348.009 455.124C348.014 455.401 348.297 455.717 348.574 455.719C369.839 455.914 391.132 456.199 412.393 455.719C413.085 455.704 413.366 454.725 413.866 454.246C415.718 452.471 418.883 451.447 419.449 448.945C420.876 442.637 420.966 435.821 419.449 429.534C418.765 426.704 415.372 425.369 413.271 423.355C413.015 423.111 412.746 422.794 412.393 422.791C391.127 422.597 369.839 422.596 348.574 422.791ZM161.948 482.814C151.34 482.887 140.753 483.045 130.149 483.348C128.387 483.399 129.281 490.881 129.271 491.282C129.123 496.965 128.957 502.657 128.957 508.342C128.957 512.47 128.964 516.553 130.149 516.558C172.582 516.754 215.007 516.754 257.44 516.558C257.718 516.557 258.031 516.24 258.036 515.963C258.229 505.283 258.229 494.624 258.036 483.943C258.031 483.666 257.718 483.349 257.44 483.348C225.615 483.202 193.772 482.599 161.948 482.814ZM512.652 483.348C507.016 488.983 501.332 494.567 495.592 500.094C499.169 503.672 502.822 507.192 506.474 510.695C508.525 512.662 509.814 516.411 512.652 516.558C548.276 518.409 583.982 516.754 619.654 516.558C620.639 516.553 620.365 513.798 620.532 510.381C620.879 503.26 621.162 496.339 620.845 489.212C620.758 487.232 621.365 484.749 512.652 483.348ZM327.186 520.73C325.846 520.749 324.784 521.045 324.771 522.141C324.481 547.914 324.576 573.703 324.771 599.475C324.773 599.753 325.09 600.069 325.367 600.071C357.51 600.315 389.712 601.959 421.801 600.071C422.354 600.039 422.563 599.266 422.961 598.88C425.699 596.228 428.465 593.593 431.209 590.945C434.052 588.203 436.871 585.446 439.739 582.729C440.595 581.917 442.298 581.555 442.373 580.377C443.203 567.369 444.274 554.166 442.373 541.27C441.908 538.117 437.87 536.733 435.599 534.496C431.598 530.559 427.611 526.619 423.557 522.737C423.004 522.207 422.566 521.277 421.801 521.263C391.622 520.686 361.416 520.965 331.232 520.981C330.136 520.981 328.526 520.71 327.186 520.73ZM376.829 531.424C390.454 531.33 404.078 531.392 417.692 531.862C419.149 531.913 419.882 533.76 420.923 534.779C424.685 538.464 430.698 540.895 432.087 545.975C434.697 555.523 434.313 566.029 432.087 575.673C431.167 579.657 426.195 581.31 423.274 584.171C421.393 586.015 420.321 589.618 417.692 589.785C390.504 591.524 363.179 589.98 335.935 589.785C335.658 589.783 335.374 589.467 335.371 589.189C335.178 570.276 335.177 551.341 335.371 532.427C335.374 532.15 335.658 531.864 335.935 531.862C349.557 531.765 363.206 531.517 376.829 531.424ZM131.309 529.197C129.618 530.888 131.534 536.38 131.905 538.605C133.176 546.237 134.734 553.749 136.609 561.248C144.69 593.574 160.193 625.838 181.58 651.503C201.068 634.18 218.718 614.364 237.151 595.932C242.887 590.196 248.753 584.643 254.493 578.903C255.669 577.727 257.954 577.02 258.036 575.359C258.786 560.286 258.23 545.166 258.036 530.075C258.027 529.348 257.206 529.491 131.309 529.197ZM513.216 529.197C513.02 529.392 512.654 529.516 512.652 529.793C512.457 551.646 512.963 597.858 512.963 597.858C512.963 597.858 549.7 632.785 568.222 651.503C574.311 646.936 579.286 637.474 583.212 630.93C596.41 608.936 606.938 585.989 613.193 560.965C615.108 553.306 620.001 531.248 620.001 531.248C620.001 531.248 620.169 530.341 513.216 529.197ZM381.095 543.905C370.555 543.983 360.019 544.194 349.483 544.188C349.216 544.187 348.019 544.555 348.009 545.097C347.817 555.581 347.817 566.067 348.009 576.552C348.015 576.829 348.297 577.114 348.574 577.116C369.937 577.31 391.407 579.146 412.675 577.116C415.848 576.812 418.651 573.46 419.449 570.373C421.067 564.111 420.293 557.374 419.449 550.961C419.268 549.587 417.502 548.971 416.5 548.013C415.248 546.815 414.406 544.599 412.675 544.501C402.157 543.901 391.635 543.827 381.095 543.905ZM509.986 612.114C502.34 619.759 494.557 627.246 486.78 634.757C486.975 635.051 487.096 635.383 487.344 635.635C503.466 651.95 519.639 668.211 535.859 684.431C537.661 686.234 542.588 679.775 543.228 679.163C548.868 673.762 555.208 668.144 559.974 661.789C534.984 636.945 534.976 636.957 509.986 612.114ZM236.868 614.748C221.286 630.33 205.594 645.828 190.11 661.507C189.568 662.055 192.095 664.194 194.25 666.493C200.288 672.935 206.271 679.365 213.066 685.027C221.199 676.991 233.612 671.677 237.464 660.911C242.416 647.07 237.367 631.518 237.464 616.818C237.473 615.539 237.901 615.782 236.868 614.748ZM477.057 644.165C469.811 651.41 462.48 658.598 455.011 665.615C454.851 665.765 454.634 665.927 454.416 665.928C437.952 666.026 421.486 665.735 405.023 665.928C404.746 665.931 404.461 666.215 404.458 666.493C404.264 691.776 404.459 717.069 404.458 742.353C404.458 743.016 404.194 743.778 405.023 744.11C407.085 744.935 411.948 743.316 414.149 742.95C421.764 741.68 429.302 740.118 436.791 738.246C468.789 730.246 501.038 714.733 526.45 693.557C501.754 668.861 501.754 668.861 477.057 644.165ZM250.698 665.928C237.027 679.599 237.023 679.603 223.352 693.275C226.964 698.693 239.441 705.569 245.398 709.143C267.32 722.296 290.444 732.298 315.363 738.528C323.313 740.515 331.369 742.073 339.479 743.232C341.105 743.464 343.515 744.368 345.062 744.11C345.335 744.064 345.656 743.823 345.658 743.546C345.852 717.87 345.852 692.169 345.658 666.493C345.656 666.215 345.269 666.124 250.698 665.928ZM358.891 665.928C358.614 665.933 358.297 666.215 358.295 666.493C358.102 692.56 358.102 718.638 358.295 744.706C358.313 747.076 362.983 745.528 365.352 745.584C371.623 745.733 377.895 745.898 384.168 745.898C387.821 745.898 391.497 745.885 391.506 744.706C391.701 718.638 391.701 692.56 391.506 666.493C391.504 666.215 391.188 665.933 390.91 665.928C380.23 665.736 369.572 665.736 358.891 665.928Z" fill="#ffffff" fill-rule="nonzero" opacity="1" stroke="none" vectornator:layerName="path"/>
</g>
</svg>
