<?xml version="1.0" encoding="UTF-8" standalone="no"?>
<!DOCTYPE svg PUBLIC "-//W3C//DTD SVG 1.1//EN" "http://www.w3.org/Graphics/SVG/1.1/DTD/svg11.dtd">
<!-- Created with Vectornator (http://vectornator.io/) -->
<svg height="100%" stroke-miterlimit="10" style="fill-rule:nonzero;clip-rule:evenodd;stroke-linecap:round;stroke-linejoin:round;" version="1.1" viewBox="0 0 1500 1253" width="100%" xml:space="preserve" xmlns="http://www.w3.org/2000/svg" xmlns:vectornator="http://vectornator.io" xmlns:xlink="http://www.w3.org/1999/xlink">
<defs/>
<g id="Layer-1" vectornator:layerName="Layer 1">
<path d="M812.906 238C768.638 238.785 723.433 250.618 685.125 272.062C668.652 281.284 654.231 294.13 641.062 307.656C629.113 319.93 619.241 334.217 610.375 348.875C603.173 360.783 593.125 386.906 593.125 386.906C593.125 386.906 544.494 418.497 522.25 437C500.211 455.333 477.852 474.102 460.688 497.062C417.877 554.328 385.273 618.699 343.188 676.5C331.23 692.922 299.281 718.75 299.281 718.75C299.281 718.75 318.314 728.078 328.625 729.781C348.266 733.027 368.521 736.351 388.219 733.469C441.785 725.632 493.418 707.525 546.688 697.875C554.357 696.486 562.564 697.917 569.906 700.531C579.392 703.908 588.76 708.67 596.188 715.469C602.871 721.586 610.007 729.22 611.062 738.219C612.006 746.262 607.759 755.43 601.469 760.531C593.018 767.384 581.3 769.304 570.562 771.062C555.437 773.54 539.937 772.443 524.625 773.125C539.856 793.435 540.307 800.234 575.312 813.656C560.183 814.132 544.952 817.012 529.938 815.094C495.38 810.678 480.497 799.737 445.812 796.469C431.419 795.112 400.613 796.484 384.562 801.406C402.998 814.875 424.318 825.073 439.844 841.812C460.912 864.529 473.718 893.782 492.844 918.156C502.738 930.766 514.24 942.202 526.625 952.375C537.509 961.315 549.55 969.001 562.219 975.156C587.929 987.648 614.104 999.561 641.375 1008.12C656.534 1012.89 672.686 1015.44 688.562 1014.81C705.997 1014.12 722.46 1005.72 739.844 1004.22C753.373 1003.05 767.07 1008.89 780.5 1006.88C795.199 1004.67 809.024 998.179 822.469 991.844C837.256 984.876 849.58 973.054 864.812 967.125C883.863 959.71 904.1 955.276 924.312 952.219C956.269 947.385 989.171 953.443 1021.03 958.875C1024.67 947.402 1030.45 936.38 1031.94 924.438C1033.68 910.475 1032.96 896.121 1030.59 882.25C1028.55 870.283 1024.3 858.641 1018.88 847.781C1014.84 839.698 1005.28 834.742 1002.56 826.125C996.401 806.592 992.639 785.917 992.906 765.438C993.014 757.16 997.5 748.596 1003.66 743.062C1009.78 737.559 1020.22 739.605 1026.94 734.844C1034.63 729.389 1037.04 717.723 1045.44 713.438C1066.73 702.577 1092.65 702.471 1113.47 690.719C1133.85 679.211 1150.23 661.585 1166.72 644.969C1173.49 638.147 1178.77 629.756 1182.66 620.969C1188.89 606.882 1195.11 592.279 1196.81 576.969C1199.33 554.353 1199.89 530.977 1195.16 508.719C1191.01 489.197 1181.3 470.962 1170.69 454.062C1162.09 440.379 1149.04 430.06 1138.22 418.062C1135.31 438.639 1134.5 459.649 1129.47 479.812C1126.25 492.696 1118.95 504.186 1113.69 516.375C1100.65 496.048 1100.63 496.046 1087.59 475.719C1095.86 475.549 1095.89 475.545 1104.16 475.375C1103.95 473.519 1104.53 471.391 1103.53 469.812C1094.39 455.322 1085.34 440.587 1074.06 427.688C1065.15 417.492 1049.4 413.171 1043.41 401.031C1037.91 389.917 1046.45 375.604 1042.53 363.844C1037.78 349.588 1028.66 336.741 1018.34 325.812C1009.44 316.375 997.644 309.886 986.062 304.031C948.525 285.056 903.308 287.652 861.344 284.812C885.79 268.273 885.804 268.29 910.25 251.75C884.103 247.282 858.298 239.799 831.812 238.344C825.55 238 819.23 237.888 812.906 238ZM801.688 255.219C823.371 254.567 845.003 257.862 866.656 259.188C830.642 289.015 830.639 289.016 794.625 318.844C832.632 309.88 871.776 298.452 910.625 302.406C926.967 304.069 943.574 306.061 959.062 311.531C974.096 316.841 988.756 324.276 1001.09 334.375C1011.34 342.76 1021.4 353.177 1025.34 365.812C1029.5 379.138 1018.06 395.01 1023.97 407.656C1030.01 420.577 1047.15 424.468 1057.41 434.375C1064.34 441.073 1069.3 449.565 1075.25 457.156C1061.77 459.145 1061.76 459.136 1048.28 461.125C1064.68 482.999 1081.88 504.286 1097.47 526.75C1098.43 528.142 1097.39 530.15 1097.34 531.844C1087.62 532.507 1087.6 532.493 1077.88 533.156C1080.97 537.575 1082.05 544.659 1087.16 546.406C1094.44 548.899 1103.05 547.177 1110.16 544.219C1124.92 538.07 1135.41 516.693 1139.66 503.688C1144.79 487.981 1147.1 471.476 1150.81 455.375C1159.88 472.733 1171.17 489.116 1178 507.469C1181.95 518.071 1182.5 529.751 1182.72 541.062C1183.43 578.182 1168.91 619.143 1142.47 645.75C1131.38 656.906 1119.4 667.711 1105.53 675.125C1088.33 684.317 1068.85 688.312 1050.5 694.906C1048.07 679.661 1048.06 679.652 1045.62 664.406C1039.37 680.259 1034.92 696.959 1026.84 711.969C1024.35 716.603 1019.45 719.826 1014.66 722C1006.26 725.808 994.035 722.542 988.062 729.562C979.147 740.043 975.583 754.943 974.938 768.688C974.391 780.329 982.939 790.754 984.656 802.281C986.067 811.752 981.451 821.833 984.219 831C986.459 838.421 995.266 842.215 998.781 849.125C1004.98 861.305 1011.52 873.977 1013 887.562C1014.84 904.463 1009.99 921.441 1008.5 938.375C989.811 936.623 971.207 932.934 952.438 933.125C932.416 933.329 911.781 933.437 892.719 939.562C852.119 952.609 816.109 978.095 775.188 990.094C763.334 993.569 750.806 983.705 738.5 984.781C723.262 986.114 709.563 995.969 694.312 997.156C679.027 998.346 663.348 996.166 648.656 991.781C635.633 987.894 625.176 977.812 612.562 972.75C588.648 963.151 561.113 959.002 541.531 942.25C526.048 929.005 511.395 914.571 498.75 898.594C484.112 880.099 475.299 857.343 460.094 839.312C450.052 827.406 435.944 819.628 423.875 809.781C461.02 811.041 496.334 827.759 533.219 832.969C546.691 834.872 560.528 833.115 573.969 831C581.746 829.776 589.888 827.713 596.219 823.031C604.697 816.761 610.077 807.142 617 799.188C606.677 797.931 596.082 798.075 586.031 795.406C579.199 793.592 573.384 789.1 567.062 785.938C579.702 782.71 593.167 781.809 604.969 776.25C613.136 772.403 621.465 766.56 625.406 758.438C629.411 750.184 629.488 739.781 626.938 730.969C620.229 707.786 595.333 690.752 572.344 683.406C561.873 680.061 550.46 680.725 539.469 680.875C528.718 681.021 517.861 681.77 507.406 684.281C472.269 692.723 444.518 701.925 408.844 707.688C386.466 711.302 355.622 717.005 335.062 712.125C394.764 650.386 425.946 560.038 486.188 496.031C504.224 476.868 523.302 458.574 543.844 442.125C563.344 426.51 605.938 400.156 605.938 400.156C605.937 400.156 620.993 363.082 632.031 346.562C669.246 290.869 735.087 257.219 801.688 255.219ZM785.344 282.156C759.282 288.201 736.95 295.496 713.656 309.156C652.02 345.303 631.208 411.472 630.688 478.812C630.576 493.238 636.456 507.327 642.406 520.469C652 541.657 684.374 569.519 709.781 563C716.852 561.186 726.272 559.397 729.156 552.719C737.342 545.571 763.26 520.577 756.625 507.531C751.817 498.077 742.755 491.372 737.188 482.344C726.235 464.584 716.822 443.922 715.531 422.688C712.018 364.877 748.178 324.417 787.562 287.031C786.246 286.181 785.425 285.633 784.688 285.281C785.789 284.679 786.917 284.136 788 283.5C788.852 283 786.307 281.933 785.344 282.156ZM863.469 334.719C828.978 335.41 793.723 343.969 764.25 360.531C761.098 362.303 758.612 365.427 757.188 368.75C754.228 375.654 753.073 383.19 751.188 390.469C748.243 393.565 747.893 397.653 749 402.531C748.6 402.631 748.18 402.714 747.781 402.812C748.284 435.022 754.941 460.105 780.719 482.344C783.453 484.703 786.697 486.62 790.156 487.656C795.861 489.366 800.982 489.042 805.875 487.906C814.621 489.27 824.349 488.341 831.531 493.344C837.55 497.536 839.226 506.138 840.75 513.312C842.461 521.37 840.941 529.794 841.031 538.031C829.314 507.221 826.417 495.201 794.938 515.062C800.728 515.797 807.138 514.549 812.312 517.25C821.736 522.169 824.221 539.466 824.688 547.469C826.242 574.129 818.513 604.088 831.75 627.281C843.094 647.158 870.37 654.005 888.312 662.188C878.623 661.104 868.988 658.469 859.25 658.938C829.078 660.388 836.637 685.017 826.844 705.969C823.02 714.149 815.969 720.385 810.531 727.594C812.533 718.144 816.335 708.908 816.531 699.25C816.72 689.96 819.069 677.457 811.688 671.812C800.264 663.078 783.087 667.618 769.406 663.188C765.107 661.795 761.646 658.233 758.844 654.688C739.892 630.717 749.93 599.047 754.406 572.5C740.802 581.005 725.435 587.176 713.594 598C706.075 604.873 703.094 615.458 697.844 624.188C668.874 600.762 642.122 586.425 603.281 588.406C614.991 580.673 615.009 580.671 626.719 572.938C571.761 564.166 527.52 587.798 477.688 608.781C476.701 608.922 475.67 609.014 474.688 609.156C502.044 583.989 522.441 565.74 555.562 550.406C540.843 547.211 525.633 554.165 510.938 557.469C534.962 534.319 556.235 524.365 586.5 509.312C576.597 506.427 565.796 508.893 555.562 510.188C560.652 505.59 565.447 500.639 570.844 496.406C580.492 488.839 595.072 485.776 600.625 474.844C606.228 463.812 600.625 450.092 600.625 437.719C550.118 473.754 501.2 512.752 466.406 565.25C446.34 595.526 428.032 626.941 408.844 657.781C416.799 660.185 425.611 657.149 433.656 655.062C463.852 647.231 493.594 637.646 523.938 630.406C560.505 621.681 598.062 623.187 630.75 641.844C630.75 641.769 630.72 641.7 630.719 641.625C631.131 642.176 631.596 642.621 632 643.188C612.285 643.257 592.065 643.923 573.25 649.812C603.458 660.463 640.052 672.074 653.469 705.312C656.967 713.979 656.849 723.713 658.531 732.906C667.516 731.246 677.247 729.179 685.938 732C678.561 743.941 669.597 755.07 663.781 767.844C656.908 782.94 665.499 808.94 664.719 821.719C664.239 829.577 660.013 836.738 657.656 844.25C673.238 835.051 689.631 827.144 704.375 816.656C718.703 806.464 726.153 789.333 734.531 774.875C745.086 778.545 755.43 784.009 767.25 780.281C779.823 776.316 791.108 769 803.031 763.375C800.164 769.945 798.81 777.413 794.438 783.094C789.45 789.575 781.937 793.662 775.688 798.938C785.393 804.326 795.717 808.686 804.781 815.094C812.323 820.425 816.248 831.469 825.156 833.906C838.315 837.506 852.437 830.7 866.031 831.844C874.492 832.556 882.266 836.819 890.375 839.344C894.938 849.024 896.106 859.333 886.25 868.938C871.243 883.561 854.768 896.645 838.344 909.656C836.687 910.968 834.413 911.429 832.312 911.656C820.561 912.928 814.837 904.469 803.906 903.906C830.695 942.566 788.402 923.247 776.531 954.5C803.671 950.092 826.9 932.448 851.812 920.812C886.967 904.393 922.373 901.918 960.469 901.031C960.449 893.429 961.577 886.415 957.469 879.469C952.136 870.453 942.047 863.872 939.469 853.719C938.183 848.659 945.237 844.971 947.531 840.281C955.047 824.922 956.083 812.195 956.219 795.406C945.619 800.751 938.649 811.419 929.438 818.906C920.402 826.251 909.211 831.733 898.906 837.188C927.411 808.155 954.46 778.795 963.094 737.375C964.582 730.234 964.182 706.595 952.375 707.719C955.309 734.075 942.612 757.157 925.125 776.906C929.442 768.778 931.895 759.462 934.094 750.531C937.213 737.863 939.032 724.6 938 711.594C937.286 702.593 931.984 694.573 928.969 686.062C937.595 688.449 945.945 693.437 954.75 694.094C953.784 694.346 952.941 694.676 951.938 694.906C964.114 699.073 968.736 701.97 983.594 699.062C1025.75 690.814 1024.84 643.831 1024.84 610.062C1041.64 618.9 1041.65 618.881 1058.44 627.719C1055.4 617.616 1053.79 606.961 1049.31 597.406C1043.98 586.006 1035.96 576.072 1029.28 565.406C1040.9 562.429 1053.31 565.099 1065.25 566.219C1058.73 556.384 1053.41 545.643 1045.69 536.719C1036.88 526.536 1025.92 518.449 1016.03 509.312C1028.44 504.644 1042.56 509.157 1055.78 510.188C1034.67 488.468 1011.42 468.684 986.844 450.969C1001.87 447.213 1001.88 447.225 1016.91 443.469C990.307 416.599 967.8 406.725 934.281 393.531C971.6 361.008 932.496 341.443 897.469 336.656C886.376 335.14 874.966 334.488 863.469 334.719ZM728.344 606.062C730.972 612.031 722.628 631.337 726.188 641.656C731.341 656.598 739.185 670.504 745.188 685.125C750.038 696.941 749.243 711.455 747.781 723.562C746.486 734.295 744.716 745.349 739.844 755C735.479 745.467 737.045 733.065 732.781 722.75C723.812 701.05 685.793 663.076 697.844 636.562C704.472 644.738 704.497 644.731 711.125 652.906C714.677 628.55 711.3 626.795 728.344 606.062ZM1152.12 530.5C1142.83 545.644 1138.05 563.996 1119.28 570.906C1113.76 572.94 1102.28 575.719 1102.28 575.719L1106.59 591.938C1106.59 591.938 1087.17 589.771 1077.44 588.844C1060.37 587.217 1065.7 587.322 1070.91 602.719C1073.2 609.499 1075.14 616.4 1077 623.312C1077.06 623.535 1077.6 630.973 1079.66 632.156C1081.35 633.132 1087.64 630.212 1087.69 630.188C1096.59 625.69 1105.76 621.582 1114.06 616.062C1133.85 602.914 1167.96 555.953 1152.12 530.5ZM800.094 535.25C797.268 539.93 800.511 544.514 798.594 549.5C785.749 536.947 771.747 530.611 758.688 549C761.809 553.466 769.979 552.67 773.875 554.375C780.175 557.132 788.849 563.985 792.875 570.062C800.729 581.919 797.349 600.054 798.312 612C799.243 623.531 804.309 631.78 812.344 639.812C815.691 643.159 817.888 645.136 822.281 645.781C812.627 616.749 813.201 592.602 812.75 561.875C812.614 552.634 809.159 539.685 800.094 535.25ZM780.438 599.906C779.478 599.859 778.461 600.005 777.406 600.344C743.985 611.06 769.303 648.363 788 638.125C790.361 636.832 792.593 629.761 787.844 630.281C781.474 630.979 771.528 633.685 770.312 623.75C768.661 610.249 774.756 612.506 785.781 610.062C791.035 608.898 787.151 600.235 780.438 599.906ZM784.812 611.312C783.711 611.163 781.797 611.422 778.719 612.25C773.718 613.596 768.824 627.802 778.719 625.062C782.246 624.086 780.049 622.037 781.812 619.344C784.059 615.912 788.116 611.762 784.812 611.312ZM793.438 643.969C791.643 644.119 789.459 644.543 786.688 644.969C781.528 645.762 778.26 643.246 773.875 646.281C781.246 653.138 794.442 659.296 804.656 655.906C800.714 645.387 798.822 643.519 793.438 643.969ZM765.906 819.938C758.029 829.577 779.349 836.412 781.5 842.5C784.872 852.044 774.076 858.573 768.125 863.25C778.196 865.53 801.495 849.527 795.594 836.906C793.687 832.828 771.283 821.965 765.906 819.938ZM632.469 836.312C597.527 866.235 559.754 867.028 515.344 861.062C517.014 863.704 518.875 866.167 520.812 868.562C520.814 868.584 520.811 868.604 520.812 868.625C520.909 870.392 521.304 871.325 524.344 874.906C528.208 879.458 532.046 884.027 535.969 888.531C539.895 893.043 543.891 897.467 548.094 901.719C556.303 910.024 565.904 917.476 576.312 923.719C583.252 927.881 590.554 931.498 598.062 934.5C609.325 939.003 621.033 942.091 632.656 943.438C642.552 944.584 652.539 945.105 662.5 945C664.04 944.984 665.606 944.804 667.156 944.562C668.717 944.32 670.287 944.003 671.844 943.75C674.956 943.24 678.052 942.942 681.062 943.688C673.329 951.421 673.327 951.423 665.594 959.156C675.207 964.89 687.947 961.593 699.125 961C704.668 960.706 709.934 959.619 714.969 957.969C717.486 957.144 719.928 956.173 722.344 955.094C729.592 951.855 736.417 947.602 743.062 943.094C747.492 940.088 751.854 936.973 756.188 933.969C752.202 931.263 747.828 929.65 743.25 928.656C740.961 928.159 738.626 927.816 736.25 927.562C729.122 926.8 721.711 926.858 714.531 926.062C709.745 925.532 705.059 924.623 700.656 922.844C698.83 922.106 697.308 921.304 695.906 920.469C695.378 920.154 694.921 919.822 694.438 919.5C693.61 918.948 692.793 918.405 692.062 917.844C689.434 915.817 687.198 913.753 684.531 912.094C684.52 912.087 684.512 912.07 684.5 912.062C684.85 911.923 685.171 911.735 685.469 911.438C671.381 899.879 657.88 893.675 639.562 890.875C623.282 888.387 606.309 894.368 591.375 886.25C603.891 878.066 637.896 855.409 632.469 836.312ZM851.562 850.469C849.564 850.208 847.639 850.232 846.219 850.531C841.015 851.629 837.427 854.174 833.062 857.062C835.682 858.355 840.024 856.643 841.906 859.094C844.977 863.093 833.536 868.121 833.531 868.125C826.824 873.022 823.466 879.9 819.812 887.125C827.818 882.557 831.955 874.027 840.562 870.281C844.609 868.521 855.921 866.068 859.75 860.75C864.193 854.58 857.557 851.251 851.562 850.469ZM689.125 865.156C681.122 864.983 682.045 865.098 676.656 867.688C681.692 870.701 688.366 869.613 693 872.969C703.074 880.263 711.714 890.298 723.375 894.625C740.843 901.108 760.31 898.971 777.844 906.125C771.034 892.422 749.287 892.066 736.5 889.469C727.284 887.597 718.881 875.716 712.969 870.625C706.982 865.469 696.015 865.305 689.125 865.156Z" fill="#FFFFFF" fill-rule="nonzero" opacity="1" stroke="none"/>
<path d="M1152.57 528.302C1150.49 530.382 1152.09 531.361 1153.89 533.163C1155.41 531.648 1155.41 529.817 1152.57 528.302Z" fill="#ffffff" fill-rule="nonzero" opacity="1" stroke="none"/>
</g>
</svg>
