<?xml version="1.0" encoding="UTF-8" standalone="no"?>
<!DOCTYPE svg PUBLIC "-//W3C//DTD SVG 1.1//EN" "http://www.w3.org/Graphics/SVG/1.1/DTD/svg11.dtd">
<!-- Created with Vectornator (http://vectornator.io/) -->
<svg height="100%" stroke-miterlimit="10" style="fill-rule:nonzero;clip-rule:evenodd;stroke-linecap:round;stroke-linejoin:round;" version="1.1" viewBox="0 0 750 1000" width="100%" xml:space="preserve" xmlns="http://www.w3.org/2000/svg" xmlns:vectornator="http://vectornator.io" xmlns:xlink="http://www.w3.org/1999/xlink">
<defs/>
<g id="Layer-1" vectornator:layerName="Layer 1">
<path d="M375 200C209.315 200 75 334.315 75 500C75.0002 665.685 209.315 800 375 800C540.685 800 675 665.685 675 500C675 334.315 540.685 200 375 200ZM368.562 216.938C400.062 216.702 429.313 221.496 459.406 230.094C550.575 256.142 621.817 334.97 647.531 424.969C667.817 495.969 657.276 578.769 619.094 642.406C570.494 723.406 479.351 782.781 382.906 782.781C354.384 782.781 325.718 780.107 298.219 772.25C288.606 769.503 279.08 766.269 269.812 762.562C263.805 760.16 257.545 756.207 251.344 754.656C245.47 753.188 238.635 748.068 233.469 744.969C215.868 734.408 197.957 722.957 183.344 708.344C129.02 654.02 95.4771 591.059 91.9375 513.188C90.954 491.557 92.7464 469.457 96.625 448.125C113.858 353.343 181.659 272.286 270.969 236.562C301.977 224.159 335.234 217.186 368.562 216.938ZM401.812 244.969C401.056 244.974 400.459 245.072 400.188 245.344C402.112 247.268 405.942 248.69 408 247.219C408.166 247.12 408.318 246.991 408.5 246.938C408.553 246.879 408.639 246.877 408.688 246.812C407.81 245.935 404.081 244.954 401.812 244.969ZM408.5 246.938C408.366 247.087 408.157 247.106 408 247.219C407.604 247.455 407.218 247.72 406.938 248.281C408.435 249.779 411.125 250.119 413.094 250.906C419.003 253.27 425.057 255.292 430.969 257.656C451.718 265.956 473.359 272.276 494.562 279.344C501.408 281.625 508.575 283.771 515.656 285.188C517.853 285.627 520.983 286.891 522.688 285.188C517.708 279.212 506.87 277.467 499.844 274.656C478.865 266.265 456.485 260.045 434.781 253.844C427.859 251.866 420.956 249.747 413.969 248C412.183 247.553 410.078 246.475 408.5 246.938ZM330.094 247.594C323.03 247.743 315.982 248.614 309.062 250.344C287.066 255.843 268.353 270.414 253.375 286.969C247.75 293.186 243.754 300.965 237.844 306.875C236.134 308.585 231.922 308.715 229.656 309.219C223.341 310.622 217.046 312.172 210.906 314.219C185.356 322.736 175.079 340.75 176.906 367.25C177.283 372.708 177.779 382.476 181.312 387.188C186.778 394.475 193.889 397.701 200.062 403.875C203.182 406.994 204.467 412.915 207.375 416.469C211.893 421.991 216.919 424.663 222.031 429.094C225.67 432.247 229.496 439.882 234.344 441.094C243.874 443.476 246.16 431.124 254.281 429.094C256.447 428.552 260.4 426.432 262.188 428.219C260.072 430.637 253.643 436.675 254.562 440.812C254.936 442.494 266.016 440.5 267.156 440.5C271.151 440.5 275.154 441.687 279.188 441.688C285.845 441.688 292.227 436.111 296.75 432C295.529 430.168 291.194 430.333 289.125 428.781C285.623 426.155 283.263 423.5 282.094 419.406C279.821 411.453 284.461 402.109 293.812 404.188C296.986 404.893 299.578 407.578 301.75 409.75C309.054 417.054 307.371 433.776 301.438 441.688C300.019 443.579 294.909 448.325 295.281 450.188C295.673 452.148 298.661 454.994 300.562 455.469C308.116 457.357 317.085 456.882 324 461.031C326.983 462.821 331.092 467.455 334.562 467.188C340.047 466.766 345.823 466.322 351.25 465.719C353.023 465.522 351.261 459.991 350.969 458.969C349.285 453.076 345.727 446.038 340.719 442.281C338.577 440.675 333.416 446.122 331.031 445.781C328.562 445.428 325.757 441.622 325.188 439.344C322.942 430.361 328.236 424.989 335.719 420C331.257 415.538 327.378 412.294 322.25 408.875C324.056 407.069 330.159 409.362 332.5 410.031C343.273 413.109 358.004 420.577 360.938 432.312C362.551 438.765 363 442.817 363 450.469C363 458.139 356.582 465.055 365.031 470.125C370.503 473.408 378.508 469.982 384.375 469.531C388.517 469.213 392.831 468.667 396.969 469.219C400.205 469.65 403.683 471.281 406.938 471.281C408.305 471.281 410.909 469.462 412.219 468.938C415.54 467.609 419.614 467.72 422.781 466.312C425.089 465.287 422.774 461.903 422.188 460.438C420.321 455.771 412.969 446.514 408.406 445.5C404.675 444.671 400.411 449.811 398.156 451.656C397.221 452.422 394.254 452.734 393.156 452.812C391.011 452.966 388.87 453.125 386.719 453.125C384.913 453.125 385.141 452.985 384.094 451.938C387.411 445.303 391.123 441.025 397.281 436.406C395.876 434.298 390.925 431.428 389.344 429.969C392.081 427.232 396.796 431.329 399.625 428.5C395.826 420.902 391.812 414.37 389.938 405.938C389.716 404.94 388.876 403.056 389.062 402.125C389.332 400.778 394.535 400.256 395.5 400.062C399.309 399.301 403.413 399.187 407.25 399.188C418.151 399.188 427.227 406.732 437.125 410.031C454.031 415.666 469.763 401.286 487.25 408.281C493.82 410.909 500.138 414.967 505.688 419.406C507.026 420.477 510.608 424.642 512.156 424.688C517.004 424.83 524.902 426.132 530.031 425.562C532.081 425.335 528.076 415.245 527.375 413.844C524.899 408.891 521.976 404.413 517.719 400.656C516.586 399.657 510.194 402.95 508.906 403.594C506.866 401.554 509.238 399.709 508.906 397.719C508.839 397.315 508.051 396.994 507.75 396.844C504.727 395.332 498.025 390.002 495.438 389.531C489.274 388.411 473.408 393.251 469.375 389.219C471.815 386.779 485.563 384.87 489.281 384.25C496.264 383.086 502.989 382.49 510.094 382.188C514.891 381.983 520.824 381.094 525.031 384.25C530.413 388.286 535.716 391.997 540.562 396.844C542.457 398.738 544.21 402.39 546.438 403.875C548.632 405.338 555.239 404.76 558.156 405.344C560.305 405.773 564.527 407.761 566.656 407.406C568.557 407.09 567.174 398.273 566.656 395.688C565.722 391.014 563.863 383.183 559.625 380.156C558.27 379.189 552.359 381.133 550.812 381.906C548.452 379.546 551.551 377.879 551.125 375.75C550.925 374.749 547.31 373.842 546.438 373.406C541.882 371.128 537.922 368.061 534.125 364.625C533.048 363.651 532.058 362.573 530.906 361.688C529.742 360.792 521.244 362.863 517.719 361.688C508.781 358.708 514.203 349.63 514.5 342.938C514.661 339.326 514.782 335.709 514.781 332.094C514.781 330.554 511.637 316.235 512.438 315.969C514.696 315.216 518.913 316.925 521.219 317.438C528.062 318.958 536.344 321.078 542.031 325.344C543.725 326.614 547.565 327.957 547.906 330.344C548.498 334.489 539.135 337.544 542.625 341.469C549.612 349.329 574.332 351.387 581.312 344.406C578.217 341.311 564.191 343.287 561.375 337.656C559.313 333.532 573.183 331.526 568.406 326.219C563.549 320.822 555.887 319.167 549.375 316.562C535.162 310.877 520.214 306.998 506 301.312C468.68 286.384 429.609 275.806 392.281 260.875C372.739 253.058 351.285 247.145 330.094 247.594ZM211.469 326.812C224.534 327.704 231.583 330.739 234.938 339.125C239.081 349.485 230.221 363.75 218.812 363.75C218.021 363.75 215.497 363.468 214.406 363.156C202.485 359.75 217.763 347.451 211.781 341.469C207.346 337.033 201.248 337.797 195.375 338.531C193.583 338.755 190.291 340.51 188.906 339.125C195.933 332.468 201.748 328.028 211.469 326.812ZM229.594 379.938C230.32 379.908 231.127 379.982 232 380.156C233.168 380.39 227.558 388.563 228.469 390.688C229.589 393.301 234.937 394.521 234.938 399.188C234.938 402.608 230.244 411.575 226.625 409.156C229.301 407.312 230.762 402.949 227 399.188C224.339 401.849 224.67 405.947 221.156 408.875C221.312 409.031 221.492 409.063 221.656 409.188C221.168 409.353 220.615 409.438 219.969 409.438C218.228 409.437 216.46 409.179 215.281 408C223.424 402.571 218.706 380.386 229.594 379.938ZM138.219 374C135.919 376.3 139.733 385.207 140.875 388.062C146.468 402.045 153.696 414.702 163.719 426.156C167.125 430.049 170.656 433.907 174.281 437.594C206.112 469.969 238.994 500.317 273.594 529.594C301.097 552.866 329.884 574.507 358 597C350.081 604.919 339.271 610.99 330.156 617.5C328.612 618.603 322.015 621.862 321.656 623.656C320.545 629.215 321.462 634.522 324.594 638.906C325.146 639.679 328.112 644.127 329 643.594C340.204 636.871 350.73 627.429 361.219 619.562C364.77 616.899 370.098 610.952 374.406 609.875C375.246 609.665 384.715 617.086 386.125 618.094C394.527 624.095 402.77 630.367 411.031 636.562C413.891 638.707 417.422 642.275 420.719 643.594C421.76 644.01 423.96 640.692 424.219 640.375C427.293 636.617 427.417 633.18 427.75 628.344C427.753 628.302 428.547 624.57 427.75 623.375C425.784 620.427 420.656 618.085 417.781 616.031C408.978 609.743 399.857 603.761 391.406 597C398.443 589.964 407.578 584.363 415.438 578.25C430.135 566.818 444.683 555.166 459.094 543.375C499.057 510.678 537.157 476.155 573.688 439.625C577.83 435.482 581.793 431.131 585.688 426.75C596.244 414.874 603.057 401.934 608.844 387.469C609.878 384.884 613.429 375.929 611.5 374C593.554 391.946 577.304 411.664 559.312 429.656C521.036 467.933 479.379 503.135 437.125 536.938C423.371 547.941 409.4 558.626 395.5 569.438C390.364 573.432 380.867 582.732 375 584.688C374.367 584.899 364.626 577.196 363.281 576.188C352.135 567.828 341.153 559.24 330.156 550.688C275.612 508.264 223.427 462.709 174.562 413.844C161.887 401.169 149.701 387.779 138.219 374ZM496.312 465.031C493.97 464.923 491.04 466.147 492.344 468.25C492.493 468.426 492.667 468.438 492.812 468.656C492.78 468.689 492.722 468.718 492.688 468.75C492.746 468.815 492.746 468.871 492.812 468.938C494.798 467.945 496.551 466.935 498.375 465.719C497.958 465.301 497.177 465.071 496.312 465.031ZM492.688 468.75C492.531 468.576 492.445 468.414 492.344 468.25C489.932 465.402 487.013 467.614 482.844 468.656C475.323 470.536 468.014 473.246 460.562 475.375C436.397 482.28 412.075 490.682 388.781 500C382.119 502.665 365.162 507.554 361.219 513.469C363.362 516.326 367.868 514.456 370.906 513.781C378.75 512.038 386.459 509.566 394.062 507.031C417.829 499.109 441.173 490.218 464.375 480.938C471.45 478.107 478.398 474.984 485.469 472.156C487.669 471.276 490.953 470.393 492.688 468.75ZM314.938 607.844C309.751 607.844 305.266 615.237 304.969 619.844C303.288 645.901 321.659 675.647 300.875 698.094C285.017 715.221 259.098 723.695 238.438 708.938C229.486 702.543 223.906 688.437 211.781 688.438C204.614 688.438 202.687 697.55 202.688 702.781C202.688 709.82 211.466 711.562 216.469 711.562C216.961 711.562 218.118 710.997 218.531 710.688C220.068 709.535 221.553 708.203 222.625 706.594C232.139 716.107 239.037 723.587 251.938 726.812C283.528 734.71 319.664 711.27 324 678.75C325.789 665.334 322.497 652.707 319.625 639.781C318.063 632.753 314.677 623.661 316.688 616.625C317.71 613.047 321.507 613.275 323.719 611.062C321.864 607.353 318.932 607.844 314.938 607.844ZM429.5 607.844C428.25 608.469 425.284 609.554 426 611.344C426.461 612.495 431.105 613.954 432.156 615.156C435.016 618.424 432.81 628.995 431.844 633.344C427.493 652.92 418.417 679.036 431.844 696.938C438.14 705.332 444.272 713.632 453.531 719.188C477.025 733.284 510.559 731.209 526.781 706.875C528.112 708.084 530.471 710.735 532.656 711.281C549.46 715.482 551.933 688.125 535.875 688.125C526.713 688.125 518.06 704.153 510.969 709.219C490.187 724.063 465.011 714.542 448.844 698.375C432.504 682.035 439.654 656.792 443.281 636.844C445.256 625.982 447.668 612.434 429.5 607.844ZM300.281 636.25C298.938 636.922 297.798 637.901 296.594 638.812C297.175 639.567 297.21 639.602 297.531 640.25C299.406 639.304 301.513 638.097 300.281 636.25ZM297.531 640.25C297.462 640.285 297.413 640.341 297.344 640.375C296.636 639.314 296.919 639.807 296.469 638.906C296.511 638.875 296.552 638.844 296.594 638.812C296.509 638.702 296.588 638.753 296.469 638.594C294.515 639.571 292.499 641.282 290.719 642.625C291.441 643.425 291.376 643.721 292.062 644.75C292.011 644.791 291.958 644.834 291.906 644.875C291.994 644.965 291.952 644.952 292.062 645.062C293.784 643.341 295.725 641.895 297.625 640.375C297.587 640.3 297.56 640.309 297.531 640.25ZM291.906 644.875C290.846 643.784 291.214 643.959 290.594 642.719C290.633 642.689 290.679 642.655 290.719 642.625C290.646 642.545 290.686 642.499 290.594 642.406C285.429 647.571 277.236 651.833 270.969 655.594C257.33 663.777 243.919 672.741 230.688 681.562C231.358 682.233 231.481 682.356 232.281 683.156C232.222 683.196 232.153 683.212 232.094 683.25C232.17 683.326 232.187 683.343 232.281 683.438C252.956 673.1 273.813 659.333 291.906 644.875ZM232.094 683.25C231.459 682.615 231.316 682.472 230.531 681.688C230.586 681.651 230.632 681.599 230.688 681.562C230.622 681.497 230.61 681.485 230.531 681.406C229.503 682.435 230.15 681.811 228.469 683.156C228.479 683.167 228.458 683.177 228.469 683.188C226.733 683.093 224.431 685.646 223.219 686.656C224.773 688.211 227.964 685.665 229.594 684.531C229.032 683.678 229.214 683.899 228.5 683.188C229.067 683.228 229.555 683.547 229.938 684.312C229.86 684.364 229.682 684.47 229.594 684.531C229.63 684.587 229.612 684.559 229.656 684.625C230.508 684.199 231.298 683.763 232.094 683.25ZM448.562 636.844C450.926 641.571 458.686 645.71 462.906 648.875C475.83 658.568 489.524 667.24 503.344 675.531C505.209 676.65 518.879 685.143 520.062 684.906C520.268 684.865 520.253 684.732 520.375 684.656C520.158 684.143 520.301 683.541 520.906 682.906C515.571 677.717 507.358 673.783 501 669.969C489.11 662.835 477.665 654.787 466.125 647.094C463.787 645.535 449.876 635.531 448.562 636.844ZM520.906 682.906C520.999 682.996 521.128 683.066 521.219 683.156C520.914 683.765 520.915 684.321 520.375 684.656C521.047 686.245 524.806 687.127 526.219 686.656C524.988 685.118 523.589 684.023 520.938 682.844C520.917 682.864 520.925 682.886 520.906 682.906ZM301.875 644.406C301.025 644.218 300.095 644.485 299.094 645.344C296.727 647.372 298.325 649.924 296.75 651.5C290.316 645.066 290.928 654.978 289.438 656.469C285.265 652.297 284.139 655.337 283.344 658.219C283.505 659.92 283.121 662.504 282.688 662.938C281.682 661.43 280.273 661.085 279.188 660C279.345 659.842 279.521 659.886 279.688 659.812C276.063 658.481 275.893 665.638 274.781 666.75C268.286 660.255 269.171 669.423 267.156 671.438C260.871 665.152 261.285 675.278 259.844 676.719C252.928 669.803 254.069 679.556 252.219 681.406C245.175 674.363 246.445 684.242 244.594 686.094C237.913 679.413 238.643 689.389 236.969 691.062C234.546 689.851 227.773 687.358 228.781 693.406C229.396 697.095 233.449 699.262 236.094 701.906C237.912 703.724 239.711 704.25 242.25 704.25C246.926 704.25 245.48 698.676 247.219 696.938C250.111 698.383 252.308 698.756 254.562 695.75C255.151 694.966 254.501 693.468 255.438 692.531C262.383 696.004 260.608 689.986 263.062 687.531C265.304 689.026 268.381 688.717 269.812 686.094C270.566 684.712 269.129 683.809 270.375 682.562C275.385 687.572 276.882 678.712 278 677.594C283.273 682.866 284.119 673.818 285.344 672.594C290.673 677.923 291.514 668.768 292.656 667.625C293.954 668.923 294.456 668.691 296.75 668.5C300.065 668.224 298.667 663.927 299.969 662.625C309.552 669.014 307.824 645.727 301.875 644.406ZM279.688 659.812C280.371 660.064 281.132 660.507 282.094 661.469C282.607 660.956 282.959 659.612 283.344 658.219C283.25 657.232 283.02 656.474 282.406 656.781C281.22 657.374 282.27 657.464 281.812 658.531C281.317 659.688 280.485 659.462 279.688 659.812ZM448.188 644.438C443.268 644.068 443 659.298 443 660.594C443 664.13 445.992 663.362 448.094 663.125C448.77 662.708 449.473 662.309 450.031 661.75C450.754 662.834 451.249 664.284 450.875 665.469C452.047 667.991 453.925 670.763 457.062 667.625C459.648 670.21 456.216 674.052 463.219 673.469C463.673 673.431 464.114 672.855 464.375 672.594C466.782 675.001 463.119 679.063 470.25 678.469C471.08 678.4 471.193 678.12 471.719 677.594C474.183 680.058 470.902 684.042 478.156 683.438C478.611 683.4 479.051 682.824 479.312 682.562C480.153 683.403 479.489 684.981 479.906 686.094C481.139 689.382 484.898 688.27 486.938 687.25C487.778 688.09 487.079 689.682 487.531 690.781C488.651 693.502 492.633 694.179 494.562 692.25C495.325 693.013 494.502 694.445 494.844 695.469C496.024 699.011 500.073 698.276 502.188 697.219C503.961 698.993 502.646 703.925 506.875 704.25C512.639 704.693 515.092 700.438 519.188 696.344C522.74 692.792 520.095 689.313 515.656 689.312C514.513 689.312 513.417 690.854 512.438 691.344C510.982 689.889 512.323 679.177 505.125 686.375C503.28 684.53 505.386 677.636 499.25 679.938C498.474 680.229 498.086 681.101 497.5 681.688C496.653 680.841 495.223 668.978 489.875 677C488.374 675.499 488.985 665.264 482.531 671.719C479.662 668.85 482.515 661.698 474.938 666.75C473.961 665.773 474.821 663.921 474.344 662.625C473.093 659.231 469.478 659.866 467.594 661.75C466.005 660.161 466.457 650.605 460.281 656.781C459.373 655.873 459.786 654.25 459.688 652.969C459.37 648.84 454.485 650.234 452.938 651.781C450.965 649.809 453.099 647.804 450.594 645.656C449.69 644.881 448.89 644.49 448.188 644.438ZM450.875 665.469C450.548 664.765 450.256 664.055 450.031 663.531C449.807 663.009 449.017 663.021 448.094 663.125C447.749 663.338 447.42 663.568 447.094 663.812C449.053 665.771 449.041 665.165 450.312 666.438C450.595 666.155 450.765 665.817 450.875 665.469Z" fill="#ffffff" fill-rule="nonzero" opacity="1" stroke="none"/>
</g>
</svg>
