<?xml version="1.0" encoding="UTF-8" standalone="no"?>
<!DOCTYPE svg PUBLIC "-//W3C//DTD SVG 1.1//EN" "http://www.w3.org/Graphics/SVG/1.1/DTD/svg11.dtd">
<!-- Created with Vectornator (http://vectornator.io/) -->
<svg height="100%" stroke-miterlimit="10" style="fill-rule:nonzero;clip-rule:evenodd;stroke-linecap:round;stroke-linejoin:round;" version="1.1" viewBox="0 0 1080 1080" width="100%" xml:space="preserve" xmlns="http://www.w3.org/2000/svg" xmlns:vectornator="http://vectornator.io" xmlns:xlink="http://www.w3.org/1999/xlink">
<defs/>
<g id="Layer-1" vectornator:layerName="Layer 1"/>
<g id="Layer-2" vectornator:layerName="Layer 2"/>
<g id="Layer-3" vectornator:layerName="Layer 3"/>
<g id="Layer-4" vectornator:layerName="Layer 4">
<path d="M281.429 189.422C232.846 201.567 170.424 241.554 170.24 296.874C169.996 370.498 170.011 444.123 169.887 517.748C169.886 517.996 169.887 518.251 169.887 518.499C169.887 574.837 169.765 631.167 169.887 687.504C169.905 696.025 171.755 704.957 173.601 713.262C180.373 743.738 195.67 773.466 215.388 797.565C266.606 860.165 329.757 890.47 410.526 890.47C441.587 890.47 473.832 878.731 502.303 867.343C511.868 863.517 521.108 858.853 530.669 855.028C533.752 853.795 537.307 850.938 540.729 850.938C544.265 850.938 557.413 859.081 561.247 860.998C573.175 866.962 586.504 870.946 598.943 875.922C638.969 891.932 686.51 894.481 728.041 885.252C802.267 868.757 868.473 813.601 896.67 743.11C904.281 724.082 910.112 703.358 910.112 682.662C910.112 553.695 910.236 424.736 910.112 295.768C910.073 254.121 868.848 219.918 835.493 203.24C826.712 198.85 817.569 195.512 808.254 192.407C805.48 191.482 800.576 189.247 797.796 190.173C797.796 204.351 797.914 218.535 797.796 232.712C797.758 237.271 794.73 243.837 789.969 245.027C788.707 245.343 786.686 245.752 785.481 245.757C721.931 246.002 658.382 245.889 594.831 246.133C580.969 246.186 566.248 252.179 554.548 259.199C549.986 261.936 545.235 266.201 540.353 268.154C540.067 268.268 528.197 260.559 526.557 259.575C514.78 252.509 499.357 246.561 485.522 246.508C421.971 246.265 358.422 246.378 294.872 246.133C293.438 246.127 290.59 245.438 289.278 244.651C285.531 242.403 283.005 238.638 282.932 234.193C282.696 219.644 282.673 205.092 281.429 189.422ZM832.132 249.427C837.376 249.022 842.696 252.797 847.432 253.981C850.123 254.654 853.647 257.212 855.635 259.199C868.572 272.136 875.748 284.528 874.649 303.219C870.061 381.207 774.282 395.122 714.598 412.175C700.948 416.075 686.377 419.752 673.939 425.971C663.029 431.426 650.255 436.588 641.106 445.737C632.353 454.49 627.159 462.49 621.318 472.224C618.172 477.469 616.118 486.886 615.725 492.388C615.37 497.352 615.462 502.337 615.349 507.312C615.342 507.611 615.722 509.54 614.619 509.545C564.998 509.793 515.355 509.793 465.734 509.545C462.602 509.529 464.781 503.343 464.628 500.215C464.189 491.202 462.591 482.961 459.764 474.479C453.134 454.588 435.433 444.281 419.481 432.317C407.242 423.137 386.067 418.437 371.724 413.656C336.928 402.057 298.912 397.027 266.505 380.824C254.355 374.749 241.712 369.076 231.815 359.178C217.544 344.907 205.704 325.661 205.704 304.723C205.704 277.611 219.712 251.414 249.724 249.869C253.989 249.649 252.132 256.206 252.333 258.823C252.932 266.615 259.185 277.075 268.009 277.108C334.917 277.355 401.81 277.241 468.719 277.484C470.216 277.489 471.719 277.685 473.207 277.86C490.46 279.89 506.294 288.06 520.212 298.001C525.139 301.521 530.01 305.381 534.384 309.565C536.489 311.579 538.858 317.014 541.105 315.158C561.293 298.481 583.343 277.211 611.634 277.108C678.667 276.864 745.687 276.979 812.72 276.732C821.006 276.702 827.044 267.388 828.396 259.951C828.893 257.218 826.89 250.865 829.877 249.869C830.621 249.621 831.383 249.485 832.132 249.427ZM241.521 260.681C215.053 269.503 208.134 306.915 221.357 328.955C226.366 337.302 231.856 345.422 239.266 352.833C255.062 368.629 278.303 375.795 298.962 382.681C338.331 395.804 380.754 402.142 417.977 420.753C433.329 428.429 448.485 438.768 459.035 452.834C461.356 455.929 465.15 460.559 466.11 464.398C468.058 472.189 472.029 479.277 473.207 487.524C473.749 491.316 473.745 495.354 474.334 499.087C474.389 499.435 474.712 499.837 475.064 499.839C518.467 500.086 561.886 500.086 605.289 499.839C607.171 499.828 605.924 496.125 606.018 494.245C606.263 489.361 607.299 484.049 608.65 479.321C611.984 467.65 617.851 456.239 626.182 447.241C651.128 420.299 686.508 410.075 720.944 400.236C766.515 387.215 814.645 379.275 849.289 344.63C855.35 338.569 859.306 329.548 861.604 321.504C869.565 293.642 864.552 273.718 838.478 260.681C835.927 263.231 836.128 269.643 833.614 272.996C827.492 281.157 821.455 286.399 810.863 286.438C744.825 286.681 678.778 286.571 612.74 286.814C594.185 286.882 575.121 298.589 561.247 309.941C554.393 315.548 548.483 322.671 541.105 327.098C538.609 328.595 534.479 323.457 533.654 322.631C529.103 318.081 524.47 313.664 519.46 309.565C506.201 298.717 489.771 289.581 472.455 287.544C470.968 287.369 469.486 287.173 467.989 287.168C402.075 286.925 336.155 287.056 270.242 286.814C260.315 286.778 247.821 279.977 245.236 269.635C244.583 267.025 243.87 263.885 241.521 260.681ZM872.991 406.073C874.428 406.144 875.871 406.303 877.28 406.559C877.626 406.622 878.009 406.959 878.009 407.311C878.134 497.103 877.879 586.901 877.634 676.693C877.571 699.433 868.747 727.439 857.116 746.824C809.676 825.89 725.373 873.867 632.152 850.562C616.89 846.746 600.672 841.908 586.628 834.886C578.981 831.063 570.606 825.338 562.75 822.195C556.933 819.869 550.188 813.965 545.593 809.88C543.748 808.24 542.341 804.258 540 805.038C537.039 806.025 534.603 809.754 532.151 811.76C525.907 816.868 518.454 822.333 511.257 825.932C493.895 834.613 476.745 842.028 457.907 848.307C391.855 870.324 312.331 847.88 263.896 799.445C253.551 789.099 244.042 778.122 235.552 766.236C231.068 759.959 227.672 752.384 223.237 746.47C217.597 738.95 215.388 728.363 212.027 719.961C206.506 706.159 202.364 689.57 202.343 674.46C202.22 585.538 201.972 496.607 202.343 407.687C202.35 406.114 205.237 406.233 206.809 406.205C215.239 406.059 211.955 409.229 217.997 414.408C222.845 418.563 229.24 421.74 235.176 424.114C260.396 434.202 292.713 440.624 314.637 457.676C324.275 465.172 335.133 476.497 335.155 489.779C335.278 564.15 334.907 638.516 335.155 712.886C335.156 713.238 335.555 713.636 335.907 713.638C378.19 713.885 420.465 713.885 462.749 713.638C463.101 713.636 463.499 713.238 463.501 712.886C463.748 660.653 463.13 608.406 463.501 556.174C463.504 555.646 464.101 555.072 464.628 555.069C514.995 554.698 565.358 554.698 615.725 555.069C616.252 555.072 616.848 555.646 616.852 556.174C617.223 608.406 616.605 660.653 616.852 712.886C616.854 713.238 617.252 713.636 617.604 713.638C660.012 713.885 702.414 713.885 744.822 713.638C745.174 713.636 745.572 713.238 745.574 712.886C745.945 637.521 745.703 562.16 745.949 486.794C745.991 474.107 758.63 462.783 767.948 456.571C784.599 445.471 803.375 438.667 822.426 432.317C830.078 429.766 838.419 427.681 845.553 424.114C850.711 421.535 857.478 419.38 861.98 415.16C863.52 413.716 865.01 412.218 866.446 410.671C867.334 409.715 867.201 406.379 868.679 406.205C870.101 406.038 871.553 406.002 872.991 406.073ZM212.779 422.986C212.53 423.235 212.028 423.386 212.027 423.738C211.779 506.939 211.906 590.132 212.027 673.332C212.052 690.568 217.014 710.898 224.718 726.307C227.487 731.844 229.032 738.301 232.921 743.486C236.97 748.885 239.787 755.465 243.754 761.018C252.316 773.004 262.037 783.789 272.475 794.227C310.336 832.089 370.008 851.913 422.841 845.698C453.235 842.122 483.588 831.111 509.024 815.85C516.854 811.152 524.259 805.961 531.045 799.821C533.52 797.582 536.898 793.212 540 791.972C543.193 790.694 545.353 796.302 547.826 798.693C553.62 804.294 562.076 812.012 569.847 815.12C576.583 817.815 583.629 822.564 590.365 825.932C605.674 833.586 624.226 839.576 641.482 842.713C664.607 846.918 688.393 848.485 711.613 843.841C792.578 827.648 868.072 754.05 868.326 668.49C868.567 586.906 868.803 505.322 868.679 423.738C868.679 423.386 868.198 423.235 867.95 422.986C862.865 425.529 858.122 428.829 853.402 431.189C829.593 443.093 801.712 447.491 779.136 461.037C769.788 466.645 755.677 475.44 755.633 487.9C755.387 558.291 755.382 628.677 755.258 699.068C755.244 706.903 755.506 714.761 755.258 722.592C755.246 722.944 754.88 723.32 754.528 723.322C705.653 723.569 656.773 723.569 607.898 723.322C607.546 723.32 607.148 722.944 607.146 722.592C606.899 670.235 607.394 617.862 607.146 565.504C607.144 565.152 606.746 564.756 606.394 564.753C584.259 564.504 562.137 564.753 540 564.753C518.111 564.753 496.22 564.386 474.334 564.753C473.807 564.761 473.211 565.352 473.207 565.88C472.836 618.112 473.454 670.359 473.207 722.592C473.205 722.944 472.807 723.32 472.455 723.322C423.705 723.628 374.935 724.604 326.201 723.322C325.849 723.313 325.45 722.944 325.449 722.592C325.201 644.615 325.573 566.629 325.449 488.652C325.43 476.913 311.772 467.007 303.074 461.789C282.171 449.246 257.581 445.763 235.906 434.926C228.218 431.082 220.606 426.9 212.779 422.986Z" fill="#ffffff" fill-rule="nonzero" opacity="1" stroke="none" vectornator:layerName="Curve 1"/>
</g>
</svg>
