<?xml version="1.0" encoding="UTF-8" standalone="no"?>
<!DOCTYPE svg PUBLIC "-//W3C//DTD SVG 1.1//EN" "http://www.w3.org/Graphics/SVG/1.1/DTD/svg11.dtd">
<!-- Created with Vectornator (http://vectornator.io/) -->
<svg height="100%" stroke-miterlimit="10" style="fill-rule:nonzero;clip-rule:evenodd;stroke-linecap:round;stroke-linejoin:round;" version="1.1" viewBox="0 0 1080 1080" width="100%" xml:space="preserve" xmlns="http://www.w3.org/2000/svg" xmlns:vectornator="http://vectornator.io" xmlns:xlink="http://www.w3.org/1999/xlink">
<defs/>
<g id="Layer-1" vectornator:layerName="Layer 1">
<path d="M881.125 169.188C880.178 169.054 879.142 169.187 878.156 169.688C876.981 170.285 875.526 170.937 874.406 171.375C873.848 171.593 873.365 171.752 873.094 171.844C873.083 171.846 873.073 171.841 873.062 171.844C869.437 172.612 866.169 173.304 862.281 174.625C855.737 176.849 844.946 178.916 836.906 181.219C836.906 181.219 836.113 181.156 834.25 181.156C833.233 181.156 829.578 181.326 827.531 184.375C784.289 199.072 735.599 205.255 695.062 230.562C693.161 231.75 691.557 233.147 690.094 234.594C682.168 237.393 674.178 240.145 666.188 242.969C664.199 243.669 662.17 244.38 660.125 245.125C655.175 246.937 650.289 248.855 645.469 250.875C644.222 251.396 642.817 251.951 641.281 252.625C641.279 252.626 641.252 252.624 641.25 252.625C640.593 252.915 640.019 253.172 639.5 253.406C634.341 255.724 629.231 258.231 624.219 261.062C612.904 267.455 604.087 276.756 595.656 285.188C580.572 300.272 565.639 315.597 551.344 331.562C551.25 331.668 551.147 331.793 551.062 331.906C551.062 331.906 551.063 331.937 551.062 331.938C551.062 331.938 551.032 331.937 551.031 331.938C546.38 337.138 541.784 342.427 537.281 347.781C512.736 376.967 489.583 407.288 467.125 438C448.58 463.36 430.65 489.213 413.25 515.469C369.745 581.102 329.545 649.141 291.344 717.781C291.259 717.933 291.193 718.09 291.125 718.25C283.57 731.829 276.065 745.423 268.656 759.031C246.157 800.359 224.041 841.954 203.031 884.125C202.203 885.786 201.987 887.345 201.875 888.5C201.812 889.096 201.835 889.568 201.812 890.125C201.714 890.297 201.517 890.377 201.438 890.562C198.721 896.932 198.716 896.943 196 903.312C194.558 906.693 197.14 910.433 200.812 910.281C205.531 910.085 212.094 911.736 218.875 912.562C225.381 913.356 233.478 913.46 239.219 907.188C249.415 896.046 255.348 882.557 260.406 869.062C265.476 855.536 269.709 841.891 276 830.062C276.077 829.917 277.25 828.929 279 828.625C339.504 818.11 402.189 823.913 464.719 827.344C464.195 828.259 463.979 829.295 464.062 830.344C463.992 830.562 463.864 830.733 463.812 830.969C463.542 832.2 463.751 833.307 464.094 834.344C464.002 835.906 464.508 837.506 465.938 838.594C468.269 840.368 470.697 842.966 473.562 845.562C476.4 848.135 479.831 850.82 484.344 852.156C508.306 859.249 532.889 861.698 556.562 866.062C556.963 867.007 557.382 867.945 557.906 868.844C559.585 871.72 563.549 872.164 565.844 869.75C567.082 868.447 567.565 867.161 567.969 865.969C568.384 864.742 568.668 863.475 568.906 862.094C569.382 859.342 569.646 856.195 569.719 853.062C569.791 849.93 569.668 846.823 569.344 844.125C569.181 842.77 568.985 841.507 568.656 840.312C569.444 839.265 570.363 838.262 571.688 837.312C573.257 836.187 575.965 835.571 579.688 834.875C583.204 834.217 587.865 833.452 591.75 830C596.405 825.863 598.47 820.427 600.344 816.094C602.297 811.578 604.01 808.261 606.438 806.469C610.447 803.508 616.323 802.432 623.094 801.031C625.382 801.926 627.796 802.011 629.906 801.719C632.717 801.329 635.332 800.254 637.594 798.75C639.815 797.273 641.968 795.218 643 792.281C643.955 789.563 643.406 786.456 641.562 783.938C641.559 783.93 641.566 783.914 641.562 783.906C640.753 780.763 639.315 777.827 637.688 775.062C636.432 772.929 635.261 771.019 634.062 769.062C643.804 758.814 655.258 749.088 663.656 736.094C666.294 732.014 667.203 727.586 667.75 723.625C668.302 719.63 668.53 715.924 669.219 712.875C669.468 711.773 669.233 710.755 668.812 709.812C675.097 706.455 681.528 702.811 687.062 697.219C693.267 690.95 695.033 681.533 695.781 673.094C696.544 664.5 696.143 656.015 696.312 651.219C696.444 647.489 692.603 644.927 689.219 646.5C682.89 649.442 679.771 650.883 676.562 652.375C671.255 652.497 667.156 654.435 663.656 655.969C660.699 654.609 658.255 653.548 656.969 652.219C655.334 650.53 653.976 647.544 652.25 643.938C650.593 640.476 648.43 636.135 643.875 633.344C638.192 629.862 632.007 628.852 626.5 628C620.916 627.136 615.918 626.415 611.969 624.531C611.969 624.531 611.317 623.899 610.094 621.469C609.111 619.517 607.535 615.7 603.25 613.969C596.193 611.118 589.475 609.692 582.875 608.844C584.87 607.606 586.394 606.016 587.375 604.469C588.608 602.524 589.434 600.585 590.188 598.969C590.943 597.347 591.634 596.115 592.094 595.562C592.549 595.015 592.344 595.25 592.344 595.25C599.095 594.921 605.945 595.646 612.906 596.656C613.541 597.782 614.528 598.732 615.906 599.094C620.276 600.239 620.939 600.688 623.031 601.031C625.403 601.42 626.246 601.064 629.781 600.812C629.879 600.806 629.966 600.762 630.062 600.75C630.09 600.753 630.059 600.74 630.188 600.75C630.737 600.794 631.757 600.921 633.031 601.094C635.594 601.442 639.239 601.977 643.312 602.594C651.483 603.831 661.299 605.32 668.219 605.812C685.514 607.044 703.945 604.96 717.688 606.875C720.14 607.217 721.466 607.663 722.312 608C722.218 608.319 722.144 608.222 722.094 609.031C722.094 609.031 722.14 609.883 722.344 610.688C722.344 610.688 722.604 611.288 722.969 611.906C722.969 611.906 723.462 612.515 724.031 613.031C724.031 613.031 724.667 613.458 725.281 613.75C725.281 613.75 725.849 613.928 726.594 614.062C726.594 614.062 727.389 614.087 727.688 614.062C729.034 613.914 729.356 613.603 729.625 613.469C729.625 613.469 730.088 613.407 731.5 613.031C733.021 612.626 735.05 612.068 737.281 611.344C741.721 609.903 747.085 607.861 751.125 604.312C757.244 598.938 762.284 590.415 761.812 581.375C761.483 575.059 759.214 569.505 756.781 564.5C755.79 562.46 754.769 560.541 753.781 558.625C756.427 559.022 759.059 559.414 764.312 560.219C768.202 560.815 771.226 556.89 769.656 553.281C767.181 547.588 763.736 540.872 761.625 536.656C765.447 535.072 770.17 532.611 774.344 528.281C779.103 523.345 783.9 516.718 788.781 510.5C793.657 504.288 798.606 498.566 802.875 495.594C804.053 494.774 805.96 494.331 808.812 494.375C811.601 494.418 814.94 494.938 818.375 495.094C821.557 495.238 824.061 492.391 823.531 489.25C823.201 487.292 823.151 484.834 822.906 482.031C822.664 479.258 822.207 476.013 820.5 472.844C818.263 468.69 815.239 465.756 812.312 463.156C825.58 457.374 836.243 453.459 844.719 436.5C849.275 427.383 853.289 417.247 854.344 406.469C854.563 404.219 853.38 402.201 852.125 401.156C851.495 400.632 850.885 400.28 850.312 400.031C851.848 398.797 851.837 398.891 853.531 397.469C860.675 391.473 868.579 384.498 872.031 378.406C880.139 364.099 881.494 347.881 885.656 334.25C886.885 330.228 882.899 326.582 879 328.156C842.838 342.76 806.859 358.51 769.344 364.531C769.105 364.475 768.763 364.328 768.531 364.281C767.338 364.039 765.968 363.875 764.344 363.688C761.13 363.316 757.086 362.949 753.938 362.5C753.806 362.481 753.663 362.446 753.531 362.438C744.997 361.907 732.135 363.429 729.969 363.688C727.836 362.717 710.101 354.7 698.562 352.625C672.831 347.999 648.703 348.835 625.031 352.781C623.187 352.694 621.014 352.941 618.75 353.906C618.891 353.867 619.012 353.777 619.156 353.75C610.065 355.467 601.011 357.706 591.938 360.188C603.3 349.101 614.323 338.128 626.906 329.656C644.046 318.117 663.013 308.785 682.719 302.969C731.38 288.606 782.938 283.155 832.906 269.094C836.884 267.974 839.92 265.522 842.281 262.969C844.661 260.395 846.494 257.584 848.062 255.156C858.608 238.838 868.086 221.763 876.312 204.156C880.812 194.526 882.468 184.502 885.219 175.656C886.204 172.489 883.967 169.587 881.125 169.188ZM880.438 174.156C877.546 183.453 875.902 193.211 871.781 202.031C863.653 219.429 854.298 236.309 843.875 252.438C840.785 257.219 837.043 262.739 831.562 264.281C782.139 278.189 730.556 283.653 681.312 298.188C661.054 304.167 641.646 313.704 624.125 325.5C605.316 338.164 590.313 355.703 573.406 370.812C589.162 365.818 604.597 361.584 620.094 358.656C620.113 358.646 620.106 358.636 620.125 358.625C621.753 357.729 623.591 357.638 625.5 357.781C648.865 353.854 672.473 352.998 697.688 357.531C708.693 359.51 729.188 368.781 729.188 368.781C729.187 368.781 744.844 366.917 753.219 367.438C759.87 368.385 769.554 368.975 768.625 369.75C807.541 363.779 844.353 347.53 880.875 332.781C876.483 347.164 875.102 362.854 867.688 375.938C862.296 385.453 837 404.188 837 404.188C837 404.188 849.682 402.816 849.375 405.969C848.416 415.826 844.678 425.391 840.25 434.25C831.209 452.34 821.038 453.093 803.312 461.688C807.574 466.194 813.153 469.757 816.094 475.219C818.48 479.649 817.757 485.131 818.594 490.094C812.494 489.818 805.043 488.011 800.031 491.5C789.801 498.623 779.498 515.739 770.75 524.812C764.754 531.032 754.75 533.875 754.75 533.875C754.75 533.875 761.956 548.138 765.062 555.281C755.176 553.766 755.168 553.796 745.281 552.281C749.124 562.064 756.265 571.129 756.812 581.625C757.177 588.609 753.067 595.947 747.812 600.562C741.673 605.956 728.564 608.406 727.375 609C725.595 609.89 733.074 603.986 718.375 601.938C703.676 599.889 685.224 601.999 668.562 600.812C655.402 599.875 629.413 595.015 629.438 595.812C621.938 596.345 626.059 596.576 617.188 594.25C617.653 593.341 618.357 592.802 619.188 592.469C610.189 590.957 601.191 589.806 592.094 590.25C585.621 590.566 585.557 602.621 579.594 605.156C570.59 608.984 560.931 610.833 551.219 612.469C551.163 612.771 551.11 613.06 551 613.656C551.883 613.752 552.771 613.772 553.656 613.844C569.572 612.251 584.557 611.799 601.375 618.594C605.52 620.269 605.777 627.107 609.812 629.031C619.614 633.706 631.99 631.921 641.25 637.594C647.442 641.387 648.325 650.47 653.375 655.688C656.085 658.487 659.984 659.731 663.531 661.438C668.42 659.562 672.658 656.981 677.875 657.281C681.284 655.696 684.592 654.156 691.312 651.031C690.947 661.384 692.955 684.134 683.5 693.688C675.706 701.562 664.785 705.583 655.438 711.531C659.88 711.654 659.901 711.659 664.344 711.781C662.717 718.983 663.477 727.174 659.469 733.375C650.931 746.584 638.343 756.69 627.781 768.344C631.08 774.281 636.296 781.107 637.125 786.25C642.789 791.793 629.811 799.766 623.781 795.781C616.638 797.308 609.213 798.195 603.469 802.438C595.914 808.016 595.458 820.011 588.438 826.25C583.237 830.871 574.435 829.197 568.781 833.25C566.062 835.2 564.263 837.437 563 839.812C565.566 842.71 565.264 863.11 562.219 866.312C561.28 864.703 560.562 862.863 560.031 860.938C560.022 861.146 560.042 861.354 560.031 861.562C535.267 856.829 509.926 854.531 485.75 847.375C479.022 845.383 474.553 838.874 468.969 834.625C469.422 834.455 469.506 834.42 469.875 834.281C467.875 832.814 468.582 831.159 470.438 830.156C469.908 830.068 469.703 830.029 468.969 829.906C469.596 829.856 470.263 829.896 470.906 829.906C472.574 829.178 474.828 828.962 476.656 829.812C477.618 829.693 478.532 829.496 479.406 829.062C480.581 828.481 481.075 827.178 481.469 825.812C477.6 826.607 473.036 826.436 470.188 825.031C471.367 824.067 472.799 823.397 474.344 822.875C408.923 819.586 342.596 812.488 278.156 823.688C275.633 824.126 272.796 825.458 271.594 827.719C258.412 852.506 254.485 883.102 235.531 903.812C227.663 912.409 212.238 904.798 200.594 905.281C203.31 898.912 203.315 898.901 206.031 892.531C206.243 892.544 206.501 892.663 206.719 892.688C206.724 893.327 206.778 893.973 206.719 894.594C213.417 894.151 223.29 898.964 226.812 893.25C267.502 827.246 297.291 755.101 334.594 687.125C354.004 651.753 375.134 617.333 396.875 583.344C441.86 513.015 490.229 444.393 544.844 381.25C558.563 365.388 573.126 350.104 589.219 336.656C606.625 322.111 625.226 308.819 644.938 297.594C652.948 293.032 665.369 296.725 671.469 289.812C684.544 274.994 689.423 254.602 698.406 237C696.536 237.686 694.631 238.303 692.75 238.969C694.207 237.408 695.826 235.994 697.719 234.812C737.579 209.927 786.468 203.941 830.875 188.562C825.857 202.196 816.557 214.309 812.5 228.375C809.808 237.709 800.54 244.431 800.031 255.562C807.832 255.926 816.978 256.236 824.438 253.75C838.551 249.045 849.045 214.269 855.375 202.031C856.657 199.553 874.08 177.536 874.094 176.75C874.092 176.854 877.65 175.573 880.438 174.156ZM867.781 346.625C851.312 353.283 835.295 361.281 818.25 366.281C811.849 368.159 785.928 374.368 781.812 374.656C767.524 375.657 753.166 375.092 738.844 375.312C737.273 380.008 739.267 385.504 741.406 389.969C732.08 380.643 725.785 372.633 711.094 369.25C696.167 365.812 680.596 365.711 665.281 365.406C632.263 364.749 586.389 367.612 558.562 389.219C552.981 393.552 557.448 415.52 557.375 420.875C545.928 424.801 547.424 438.448 543.625 449.938C542.154 454.385 538.949 463.435 537.125 467.75C530.58 483.228 522.87 496.883 515.719 512.562C509.985 525.135 501.316 536.148 493.906 547.812C478.949 571.358 462.716 594.088 447.125 617.219C456.837 616.612 462.342 613.894 471.938 612.281C475.705 611.648 482.785 610.116 486.594 610.406C498.619 611.321 510.425 614.357 522.469 614.969C529.84 615.343 529.421 613.31 531 608.812C545.378 610.035 575.1 602.932 581.531 588.438C576.353 585.026 576.334 585.036 571.156 581.625C572.127 580.205 572.123 580.201 573.094 578.781C580.018 581.3 587.747 580.48 594.969 581.938C597.387 582.426 598.779 585.537 601.219 585.906C605.426 586.543 609.732 584.14 613.938 584.781C616.367 585.152 617.698 588.42 620.125 588.812C626.237 589.801 632.541 588.073 638.688 588.812C640.332 589.01 641.188 591.466 642.844 591.531C666.085 592.447 689.373 591.137 712.625 591.719C731.185 592.183 728.75 608.538 746.5 589.156C750.936 584.312 747.515 575.642 745.188 569.5C742.6 562.673 737.179 557.105 734.844 550.188C733.874 547.315 735.339 544.146 735.594 541.125C741.792 541.812 741.801 541.813 748 542.5C744.15 534.508 744.162 534.523 740.312 526.531C746.504 525.075 753.895 526.112 758.875 522.156C776.191 508.402 783.172 483.441 805.5 479.188C802.222 475.546 799.848 470.787 795.656 468.25C792.814 466.53 789.054 467.56 785.75 467.219C790.025 462.34 793.123 456.129 798.562 452.594C802.957 449.737 809.393 451.686 813.875 448.969C821.151 444.557 828.093 438.924 832.812 431.844C836.439 426.404 836.207 419.219 837.906 412.906C832.827 413.033 832.83 413.029 827.75 413.156C828.344 409.066 826.995 404.139 829.531 400.875C838.328 389.553 852.241 382.751 860.5 371.031C865.389 364.093 865.353 354.759 867.781 346.625ZM665.281 432.938C668.221 433.049 671.437 432.744 674 434.188C675.472 435.016 674.575 438.361 676.219 438.75C682.136 440.151 688.38 439.032 694.406 439.844C707.2 441.567 722.195 432.051 733.75 437.312C715.307 452.65 705.342 469.133 697.938 491.031C694.569 500.993 693.956 510.352 692.219 521.062C692.024 522.261 691.217 523.711 690.031 523.969C687.983 524.414 685.936 523 683.844 522.875C664.241 521.706 644.718 523.39 625.219 523.094C610.209 522.866 595.194 523.323 580.188 523.719C573.267 523.901 573.332 528.846 566.594 526.875C573.813 516.284 588.732 495.944 596.469 481.781C601.051 473.394 605.531 465.548 608.094 457.688C608.91 455.183 607.412 452.099 608.719 449.812C618.016 433.542 650.908 432.392 665.281 432.938ZM549.969 394.719C549.969 394.719 447.119 527.343 403.469 593.688C355.567 666.492 283.969 802.406 283.969 802.406C283.969 802.406 326.263 751.988 347.781 728.406C369.299 704.825 409.665 656.492 441.5 611.688C473.335 566.883 494.499 529.954 518.375 481.906C542.251 433.859 549.969 394.719 549.969 394.719ZM538.719 417.562C533.916 433.225 526.131 455.087 513.906 479.688C490.097 527.601 469.126 564.183 437.438 608.781C405.774 653.344 365.411 701.635 344.062 725.031C335.042 734.916 322.622 749.281 311 762.844C335.837 717.09 376.176 644.284 407.656 596.438C441.222 545.421 509.084 456.183 538.719 417.562ZM492.688 618.938C482.069 618.961 471.392 619.29 460.594 620.125C460.826 621.191 460.831 621.184 461.062 622.25C432.241 622.46 419.125 655.459 402.719 675.125C363.659 721.946 323.545 767.897 283.969 814.281C293.755 811.772 304.116 812.063 314.219 812.062C314.401 810.788 314.38 810.775 314.562 809.5C339.134 809.401 363.736 808.039 388.281 809.188C419.513 810.649 450.532 815.084 481.719 817.312C492.497 818.083 492.494 816.622 501.75 812.062C510.46 824.961 481.997 828.876 483.5 838.031C490.978 838.798 494.302 844.853 499.562 845.188C512.283 845.997 525.121 844.002 537.812 845.188C543.366 845.706 552.211 854.648 554.031 849.375C557.354 839.751 559.036 827.02 568.031 822.25C576.697 817.654 581.657 825.089 586.969 816.406C589.769 811.828 590.393 806.137 593.25 801.594C600.269 790.433 614.848 787.709 626.5 787.562C626.402 786.809 627.379 776.705 622.812 775.875C618.337 775.061 613.725 775.235 609.188 774.906C629.169 756.551 647.593 746.128 653.594 720.281C646.546 720.297 646.548 720.297 639.5 720.312C641.775 702.289 662.548 700.91 673.594 691.844C676.487 689.469 676.811 685.043 678.406 681.656C679.45 681.908 679.425 681.935 680.469 682.188C681.653 672.561 681.66 672.533 682.844 662.906C677.651 662.498 673.921 668.482 668.938 670C664.886 671.234 659.568 672.435 656.219 669.844C646.017 661.953 641.79 647.514 630.906 640.594C624.057 636.238 613.751 634.4 606.656 638.344C595.729 644.419 590.779 657.651 582.844 667.312C582.983 661.175 588.712 656.53 591.562 651.094C595.976 642.676 598.759 636.095 598.625 625.938C594.772 625.932 594.79 625.943 590.938 625.938C590.397 623.976 590.384 623.961 589.844 622C556.029 621.577 524.543 618.868 492.688 618.938ZM494.031 679.75C500.813 679.851 507.536 680.762 510.125 681.312C512.168 681.747 513.167 684.779 515.25 684.938C532.847 686.273 550.555 684.447 568.156 685.719C570.829 685.912 564.406 698.541 564.406 702.062C568.438 702.361 596.219 709.722 596.812 711.156C599.404 717.415 587.087 720.621 582.625 725.719C572.069 737.778 553.108 767.27 548.75 781.469C538.338 779.284 530.126 771.497 520.688 767.25C514.484 764.458 509.189 766.226 502.844 763.969C504.847 763.24 504.841 763.26 506.844 762.531C499.543 755.23 486.193 762.322 475.906 761.438C474.261 761.296 473.546 758.693 471.906 758.5C455.914 756.619 436.629 755.753 420.531 755.25C429.312 738.661 450.19 722.161 460.688 710.156C467.896 701.912 469.571 690.397 477.625 682.938C480.436 680.335 487.249 679.649 494.031 679.75Z" fill="#ffffff" fill-rule="nonzero" opacity="1" stroke="none"/>
</g>
</svg>
