<?xml version="1.0" encoding="UTF-8" standalone="no"?>
<!DOCTYPE svg PUBLIC "-//W3C//DTD SVG 1.1//EN" "http://www.w3.org/Graphics/SVG/1.1/DTD/svg11.dtd">
<!-- Created with Vectornator (http://vectornator.io/) -->
<svg height="100%" stroke-miterlimit="10" style="fill-rule:nonzero;clip-rule:evenodd;stroke-linecap:round;stroke-linejoin:round;" version="1.1" viewBox="0 0 1080 1080" width="100%" xml:space="preserve" xmlns="http://www.w3.org/2000/svg" xmlns:vectornator="http://vectornator.io" xmlns:xlink="http://www.w3.org/1999/xlink">
<defs/>
<g id="Layer-1" vectornator:layerName="Layer 1">
<path d="M274.812 206.281L235 238.531L215.625 314.406L213 323.875L206.156 344.375L194.781 391.031L219.062 424.031L305.156 424.031L345.375 392.188L348.031 378.531L358.281 337.938L296.469 338L287.969 367.188L282.938 371.969L264.5 372.125L261.094 367.906L291.406 262.281L296.5 257.719L311.094 257.844L314.094 260.531L307.594 289.344L370.844 289.344L385.594 239.656L360.188 206.281L274.812 206.281ZM275.781 210.375L356.344 210.906L379.906 241.188L367.594 285.438L313.5 285L318.781 259.969L312.469 253.125L294.938 252.625L285.812 260.906L234.094 260.5L238.656 240.906L275.781 210.375ZM234.094 263.281L284.812 264.188L271.375 315.094L221.031 314.438L234.094 263.281ZM219.594 318.875L234.688 318.938L269.875 319.906L255.469 367.906L207.406 366.688L210.625 352.562L219.594 318.875ZM301.375 343.625L350.688 343.625L339.688 389.531L303.656 417.969L221.344 417.969L200.844 390.281L203.688 375.438L206.531 370.156L255.844 370.156L262.688 378.125L284.812 377.969L293.469 369.688L301.375 343.625ZM243.031 277.156L238.281 300.219L259.656 301.125L266.438 278L243.031 277.156ZM478.875 313.156L393.125 313.312L332.5 445.656L330.75 452.375L305.219 508.781L294.938 531.781L354.875 531.781L371.938 491.375L387.312 491L403.188 491.5L399.5 531.531L462.062 531.25L478.875 313.156ZM437.781 317.375L470.969 318.562L472.438 320.125L457 525.188L405.156 525.812L408.656 486L388.625 485.312L368.75 486L351.625 526.031L303.625 526.125L324.906 475.25L394.344 320.688L397.344 318.562L437.781 317.375ZM231.188 331.094L224.406 353.375L246.125 355L252.188 331.344L231.188 331.094ZM423.156 355L409.656 386.406L385.969 443.781L413.656 444.531L423.156 355ZM415.875 382.406L411.281 422.562L409.125 439.594L393.562 438.844L415.875 382.406ZM562 419.125L506.656 419.656L478.906 526.469L448.406 636.656L505.406 636.719L529.75 550L533.844 573.625L544.5 636.5L601.469 636.875L637.125 499.906L659.219 419.344L603.031 419.25L578.688 509.406L576.812 495.75L568.438 458.188L564.281 432.781L562 419.125ZM511.562 424.812L558.438 425.031L577.562 531.781L606.719 425L651.719 424.906L651.781 431.062L597.75 630.25L549.281 630.594L531.281 521.906L508 605.625L501.5 630.438L456.406 630.562L456.5 625.906L511.562 424.812ZM781.094 529.938L653.375 530.094L632.938 603.875L614.75 678.219L594.938 747.25L724.344 747.281L738.594 693.781L674.281 693.406L681.125 663.438L740 662.562L752.938 609.812L696.156 609.438L698.562 599.688L702.75 583.75L767.406 583.625L773.688 565.156L781.094 529.938ZM658.75 535.188L774.844 536.719L763.469 577.969L698.969 578.438L689.844 615.25L746.125 615.625L735.562 657.188L676.688 658.094L667.469 698.312L731.188 698.688L719.812 741.562L603.344 740.812L658.75 535.188ZM797.594 656.969L756.5 687.5L737.969 769.75L758.906 793.531L817.375 793.656L813.281 821.938L810.406 823.812L789.812 823.656L786.844 822.062L791.656 798.75L728.531 798.531L716.406 842.094L717.094 845.125L740.312 876.25L830.781 875.406L868.906 844.75L874.969 817.438L883.344 790.875L889.188 766.938L868.906 738.531L807.062 737.188L812.562 710.781L817.562 708.062L837.125 708.438L840 710.281L836.531 733.875L896.219 734.75L909.25 689.938L907.625 686.219L885.219 656.969L797.594 656.969ZM799.5 661.906L881.906 662.969L903.062 689.969L892.438 729.062L842.344 729.062L845.156 708.938L837.5 703.688L817.688 703.344L808.219 708.75L801.688 738.156L804.344 741.562L865.125 743.094L882.188 765.656L882 773.656L864.344 840.312L858.719 846.5L827.719 869.906L743.875 870.938L722.094 842.875L733.094 804.156L783.812 804.375L780.344 824.25L786.906 828.812L811.312 829.312L818.219 824.406L823 792.031L818.844 788.25L761.156 787.844L744.688 768.719L756.906 717.094L763.062 691.125L799.5 661.906Z" fill="#ffffff" fill-rule="nonzero" opacity="1" stroke="none"/>
</g>
</svg>
