<?xml version="1.0" encoding="UTF-8" standalone="no"?>
<!DOCTYPE svg PUBLIC "-//W3C//DTD SVG 1.1//EN" "http://www.w3.org/Graphics/SVG/1.1/DTD/svg11.dtd">
<!-- Created with Vectornator (http://vectornator.io/) -->
<svg height="100%" stroke-miterlimit="10" style="fill-rule:nonzero;clip-rule:evenodd;stroke-linecap:round;stroke-linejoin:round;" version="1.1" viewBox="0 0 750 1000" width="100%" xml:space="preserve" xmlns="http://www.w3.org/2000/svg" xmlns:vectornator="http://vectornator.io" xmlns:xlink="http://www.w3.org/1999/xlink">
<defs/>
<g id="Layer-1" vectornator:layerName="Layer 1">
<path d="M487.761 319.76C475.77 320.236 463.784 321.032 451.823 322.228C354.493 331.962 257.642 358.662 173.261 409.291C137.126 430.972 100.653 462.31 84.0108 503.916C79.7736 514.508 76.6134 525.685 75.0733 537.322C75.0867 548.395 75.0478 559.468 75.0733 570.541C75.1274 593.771 93.4083 621.553 111.417 634.416C116.403 637.977 123.154 643.421 129.261 644.947C137.495 647.006 145.452 651.339 153.886 653.447C156.219 654.031 162.462 654.398 163.855 655.791C156.994 662.651 146.804 666.418 139.23 672.478C141.794 675.043 151.103 674.928 154.761 675.416C168.656 677.269 183.224 677.088 196.948 679.51C197.22 679.558 197.266 680.101 197.542 680.103C221.858 680.297 246.164 680.297 270.48 680.103C295.417 679.905 322.629 675.852 347.542 671.322C412.402 659.53 476.933 641.908 535.917 612.416C564.198 598.275 592.235 582.013 616.198 560.572C641.338 538.079 661.128 512.133 670.386 479.728C672.066 473.847 674.684 465.877 674.792 460.072C674.984 449.82 674.983 439.574 674.792 429.322C674.61 419.561 670.259 408.661 666.573 399.447C656.902 375.269 633.522 360.258 610.636 351.103C604.507 348.652 597.952 347.135 591.573 345.541C589.734 345.081 586.723 345.94 585.73 344.947C586.207 343.992 586.887 343.467 587.761 342.885C588.054 343.178 588.062 343.186 588.355 343.478C596.02 339.646 604.184 333.801 611.198 328.541C608.365 324.999 599.784 325.315 595.386 324.728C579.75 322.644 562.77 319.779 547.355 319.76C527.491 319.735 507.625 319.773 487.761 319.76ZM524.761 328.322C532.777 328.454 540.788 328.735 548.792 329.135C558.87 329.639 568.956 330.299 578.98 331.478C581.209 331.741 586.491 331.365 588.073 332.947C581.172 339.849 569.911 342.859 562.855 349.916C564.376 351.438 568.305 350.862 570.48 351.103C576.799 351.806 583.03 352.944 589.23 354.322C606.702 358.205 626.99 365.707 639.917 378.635C646.91 385.627 651.497 392.721 657.198 400.322C663.908 409.268 667.167 429.692 667.167 439.885C667.167 490.219 644.886 525.74 606.823 557.947C593.767 568.995 579.555 578.758 564.917 587.541C558.612 591.324 551.001 594.384 545.292 598.666C540.308 602.404 532.601 605.417 526.823 607.728C508.702 614.977 490.781 622.752 472.636 630.01C454.561 637.239 435.273 642.85 416.386 647.572C367.602 659.768 318.511 668.491 268.136 671.01C244.212 672.206 220.273 672.021 196.355 670.728C188.041 670.279 179.724 669.585 171.448 668.666C169.996 668.505 162.417 668.633 162.073 666.916C161.902 666.058 167.359 663.403 168.23 662.822C174.337 658.75 182.38 655.109 187.573 649.916C187.28 649.623 187.273 649.646 186.98 649.353C184.365 650.661 178.552 648.876 175.573 648.478C164.695 647.028 153.543 644.629 143.323 640.541C99.3777 622.963 79.776 591.913 83.292 544.447C84.2444 531.587 87.5926 519.164 92.3545 507.26C107.887 468.428 142.655 438.167 177.917 417.01C260.886 367.228 356.383 340.797 452.698 331.166C476.631 328.773 500.711 327.926 524.761 328.322ZM496.948 338.791C473.015 338.791 448.545 341.589 424.886 345.228C336.783 358.783 238.052 385.831 165.605 440.166C132.584 464.931 100.335 500.631 97.917 544.166C97.3246 554.831 97.3737 565.396 99.9795 575.822C115.441 637.666 189.453 643.239 241.48 639.385C252.847 638.543 264.235 637.165 275.48 635.291C288.372 633.142 301.176 630.555 313.855 627.385C332.228 622.791 350.745 617.416 368.323 610.385C372.206 608.832 380.359 606.749 384.823 604.197C384.856 604.24 384.883 604.246 384.917 604.291C387.537 603.418 394.229 600.885 396.167 598.947C391.993 599.24 386.215 599.253 381.698 601.322C381.736 601.36 381.755 601.38 381.792 601.416C378.847 601.937 375.522 603.308 373.605 603.947C360.73 608.239 346.814 610.585 333.48 613.01C294.012 620.186 252.819 622.5 213.073 616.822C203.804 615.498 194.65 613.884 185.511 611.853C182.579 611.202 176.836 610.771 174.698 608.635C175.498 607.835 176.245 608.022 177.323 608.041C182.597 608.135 187.861 608.322 193.136 608.322C194.354 608.322 196.858 608.08 197.823 608.041C213.613 607.409 229.064 604.109 244.417 600.697C248.449 599.801 256.987 598.971 259.948 596.01C258.236 594.297 248.174 591.713 245.011 590.447C233.31 585.767 214.873 571.366 211.886 559.416C211.102 556.281 209.47 553.253 208.667 550.041C206.548 541.566 206.323 533.002 206.323 524.26C206.323 488.976 239.838 453.694 264.917 434.885C294.657 412.58 327.516 398.301 361.292 384.791C390.306 373.185 421.022 364.042 451.542 357.26C475.556 351.923 499.746 347.23 524.198 344.353C530.822 343.574 537.427 342.603 544.105 342.603C545.666 342.603 549.595 342.989 550.855 341.728C547.282 338.156 528.902 339.183 524.198 339.103C515.117 338.95 506.031 338.791 496.948 338.791ZM539.542 359.666C525.035 359.361 510.92 360.245 498.417 361.635C486.921 362.912 475.513 364.566 464.136 366.635C450.532 369.108 436.98 372.215 423.698 376.01C407.068 380.761 390.518 386 374.48 392.416C369.395 394.45 360.494 396.152 356.605 400.041C358.218 403.269 367.162 398.714 370.105 397.978C383.969 394.512 397.658 390.818 411.698 388.01C451.415 380.066 492.805 378.265 532.98 382.728C543.638 383.913 554.184 385.999 564.636 388.322C567.608 388.983 573.282 389.343 575.48 391.541C575.187 391.834 575.179 391.811 574.886 392.103C570.962 390.142 555.511 391.813 551.448 392.103C536.451 393.175 521.497 395.49 506.917 399.135C502.565 400.223 493.747 400.898 490.511 404.135C491.962 406.311 506.821 409.703 510.73 412.635C525.481 423.698 536.108 432.007 541.198 449.822C552.727 490.174 527.219 529.523 498.136 554.728C476.077 573.846 449.068 590.556 422.23 601.291C409.475 606.393 396.934 611.997 384.167 617.103C353.251 629.47 320.226 638.014 287.761 645.228C266.352 649.986 244.531 653.65 222.73 656.072C216.866 656.724 210.169 658.164 204.261 657.853C202.707 657.772 200.622 656.523 199.011 658.135C201.07 660.881 215.944 660.601 219.511 660.76C222.244 660.881 224.963 661.021 227.698 661.072C235.412 661.216 243.139 661.353 250.855 661.353C287.473 661.353 324.849 655.936 360.73 648.76C441.497 632.606 526.814 606.192 591.886 554.135C627.562 525.594 655.758 486.331 652.23 438.697C651.629 430.592 649.974 422.23 646.948 414.666C630.029 372.368 583.063 360.58 539.542 359.666ZM433.667 416.135C406.996 417.616 380.171 423.227 354.855 431.666C330.148 439.902 304.935 449.017 284.855 466.228C267.239 481.328 265.542 493.135 256.136 511.947C255.061 514.096 248.829 526.589 251.136 527.166C252.451 527.495 263.166 516.23 265.792 513.978C277.836 503.655 291.308 496.269 304.761 488.197C313.195 483.137 322.905 479.558 332.011 475.916C357.868 465.573 384.662 457.244 411.98 453.041C426.443 450.816 441.418 449.528 455.948 451.603C460.809 452.298 466.147 453.484 470.573 455.697C474.148 457.485 477.408 459.876 480.261 462.728C481.489 463.957 482.456 465.166 483.323 466.385C487.175 470.704 488.739 476.512 486.105 484.416C484.964 487.839 483.432 490.768 481.417 493.791C478.299 498.468 474.426 502.256 470.292 506.072C470.079 506.269 469.85 506.44 469.636 506.635C466.468 510.499 463.315 514.937 459.73 518.666C455.757 522.798 451.782 526.925 447.73 530.978C446.605 532.103 445.408 533.131 444.23 534.197C428.271 548.636 410.755 560.42 392.948 572.291C394.38 573.722 404.133 568.798 406.417 567.885C419.672 562.583 432.312 555.297 444.511 547.978C462.758 537.03 479.194 524.421 494.323 509.291C499.46 504.155 507.383 494.833 509.261 487.322C511.176 479.661 513.672 473.015 513.355 464.76C512.028 430.268 477.319 418.342 433.667 416.135ZM469.636 506.635C469.855 506.367 470.072 506.052 470.292 505.791C479.746 494.564 493.609 480.842 483.323 466.385C473.349 455.199 447.552 454.218 436.011 454.51C383.344 455.843 326.213 475.258 283.073 506.072C279.676 508.499 276.324 510.999 273.136 513.697C260.677 524.239 237.271 547.601 259.355 562.322C262.214 564.228 265.467 565.515 268.73 566.447C273.541 567.822 278.396 568.799 283.386 569.353C300.923 571.302 318.546 569.589 335.823 566.447C374.949 559.333 415.238 545.129 448.323 523.072C455.8 518.088 462.968 512.711 469.636 506.635ZM394.698 489.666C400.141 489.373 405.254 490.083 410.511 491.135C411.185 491.27 412.964 492.119 413.448 492.603C422.666 501.822 407.912 511.732 400.261 516.322C380.113 528.411 355.517 537.3 331.73 535.978C329.735 535.868 327.785 535.555 325.855 535.072C307.203 530.409 323.984 516.493 332.011 510.76C349.569 498.218 373.445 490.812 394.698 489.666Z" fill="#ffffff" fill-rule="nonzero" opacity="1" stroke="none"/>
</g>
</svg>
