<?xml version="1.0" encoding="UTF-8" standalone="no"?>
<!DOCTYPE svg PUBLIC "-//W3C//DTD SVG 1.1//EN" "http://www.w3.org/Graphics/SVG/1.1/DTD/svg11.dtd">
<!-- Created with Vectornator (http://vectornator.io/) -->
<svg height="100%" stroke-miterlimit="10" style="fill-rule:nonzero;clip-rule:evenodd;stroke-linecap:round;stroke-linejoin:round;" version="1.1" viewBox="0 0 1080 1080" width="100%" xml:space="preserve" xmlns="http://www.w3.org/2000/svg" xmlns:vectornator="http://vectornator.io" xmlns:xlink="http://www.w3.org/1999/xlink">
<defs/>
<g id="Layer-1" vectornator:layerName="Layer 1">
<path d="M537.562 198.875C524.229 198.875 508.229 200.208 489.562 202.875C470.896 205.542 457.729 207.875 450.062 209.875C442.396 211.875 431.396 215.542 417.062 220.875C402.729 226.208 390.396 231.542 380.062 236.875C369.729 242.208 359.896 247.875 350.562 253.875C341.229 259.875 332.396 266.208 324.062 272.875C315.729 279.542 307.229 287.042 298.562 295.375C289.896 303.708 282.563 311.375 276.562 318.375C270.562 325.375 263.063 335.375 254.062 348.375C245.062 361.375 236.229 377.042 227.562 395.375C218.896 413.708 213.229 426.875 210.562 434.875C207.896 442.875 204.896 454.708 201.562 470.375C198.229 486.042 196.063 499.042 195.062 509.375C194.062 519.708 193.562 531.208 193.562 543.875C193.562 556.542 194.729 571.708 197.062 589.375C199.396 607.042 202.229 622.042 205.562 634.375C208.896 646.708 212.729 658.375 217.062 669.375C221.396 680.375 226.229 691.042 231.562 701.375C236.896 711.708 243.062 722.208 250.062 732.875C257.063 743.542 267.729 756.875 282.062 772.875C296.396 788.875 307.729 800.375 316.062 807.375C324.396 814.375 334.562 821.875 346.562 829.875C358.563 837.875 373.396 846.042 391.062 854.375C408.729 862.708 423.396 868.708 435.062 872.375C446.729 876.042 457.396 878.875 467.062 880.875C476.729 882.875 487.562 884.542 499.562 885.875C511.563 887.208 524.396 887.875 538.062 887.875C551.729 887.875 567.229 886.708 584.562 884.375C601.896 882.042 615.062 879.708 624.062 877.375C633.063 875.042 644.729 871.208 659.062 865.875C673.396 860.542 689.896 852.542 708.562 841.875C727.229 831.208 741.229 822.208 750.562 814.875C759.896 807.542 770.229 798.208 781.562 786.875C792.896 775.542 802.229 765.208 809.562 755.875C816.896 746.542 823.229 737.708 828.562 729.375C833.896 721.042 841.062 707.208 850.062 687.875C859.063 668.542 865.396 652.542 869.062 639.875C872.729 627.208 875.562 615.042 877.562 603.375C879.563 591.708 880.896 575.542 881.562 554.875C882.229 534.208 882.063 518.708 881.062 508.375C880.062 498.042 878.229 486.375 875.562 473.375C872.896 460.375 870.063 449.042 867.062 439.375C864.062 429.708 860.063 419.042 855.062 407.375C850.062 395.708 844.729 384.875 839.062 374.875C833.396 364.875 826.396 354.042 818.062 342.375C809.729 330.708 798.563 317.708 784.562 303.375C770.562 289.042 759.063 278.375 750.062 271.375C741.062 264.375 731.229 257.542 720.562 250.875C709.896 244.208 695.063 236.708 676.062 228.375C657.062 220.042 637.563 213.542 617.562 208.875C597.562 204.208 582.563 201.375 572.562 200.375C562.562 199.375 550.896 198.875 537.562 198.875ZM538.562 223.875C549.896 223.875 560.562 224.375 570.562 225.375C580.563 226.375 590.729 227.875 601.062 229.875C611.396 231.875 622.396 234.708 634.062 238.375C645.729 242.042 659.062 247.375 674.062 254.375C689.063 261.375 704.896 270.708 721.562 282.375C738.229 294.042 752.396 305.708 764.062 317.375C775.729 329.042 784.896 339.208 791.562 347.875C798.229 356.542 804.396 365.375 810.062 374.375C815.729 383.375 821.229 393.375 826.562 404.375C831.896 415.375 836.396 426.208 840.062 436.875C843.729 447.542 846.729 457.542 849.062 466.875C851.396 476.208 853.396 487.042 855.062 499.375C856.729 511.708 857.229 529.375 856.562 552.375C855.896 575.375 854.063 594.208 851.062 608.875C848.062 623.542 845.229 634.875 842.562 642.875C839.896 650.875 836.729 659.208 833.062 667.875C829.396 676.542 824.729 686.042 819.062 696.375C813.396 706.708 805.063 719.208 794.062 733.875C783.062 748.542 770.229 762.708 755.562 776.375C740.896 790.042 728.396 800.375 718.062 807.375C707.729 814.375 698.563 820.042 690.562 824.375C682.562 828.708 673.896 832.875 664.562 836.875C655.229 840.875 645.229 844.542 634.562 847.875C623.896 851.208 609.229 854.375 590.562 857.375C571.896 860.375 551.229 861.542 528.562 860.875C505.896 860.208 484.563 857.542 464.562 852.875C444.562 848.208 425.729 841.875 408.062 833.875C390.396 825.875 373.563 816.375 357.562 805.375C341.562 794.375 326.063 781.208 311.062 765.875C296.062 750.542 283.229 734.875 272.562 718.875C261.896 702.875 254.229 689.875 249.562 679.875C244.896 669.875 240.396 658.542 236.062 645.875C231.729 633.208 227.896 617.042 224.562 597.375C221.229 577.708 219.896 556.542 220.562 533.875C221.229 511.208 222.396 495.208 224.062 485.875C225.729 476.542 228.229 466.042 231.562 454.375C234.896 442.708 240.896 427.542 249.562 408.875C258.229 390.208 266.562 375.042 274.562 363.375C282.563 351.708 289.562 342.375 295.562 335.375C301.563 328.375 311.396 318.708 325.062 306.375C338.729 294.042 350.562 284.542 360.562 277.875C370.563 271.208 379.896 265.542 388.562 260.875C397.229 256.208 406.896 251.708 417.562 247.375C428.229 243.042 438.062 239.542 447.062 236.875C456.063 234.208 470.729 231.375 491.062 228.375C511.396 225.375 527.229 223.875 538.562 223.875ZM543.875 250.938C531 250.812 517.563 251.625 503.562 253.375C484.896 255.708 466.729 259.708 449.062 265.375C431.396 271.042 414.229 278.542 397.562 287.875C380.896 297.208 367.896 305.542 358.562 312.875C349.229 320.208 339.896 328.542 330.562 337.875C321.229 347.208 310.896 359.875 299.562 375.875C288.229 391.875 280.229 404.542 275.562 413.875C270.896 423.208 266.563 433.375 262.562 444.375C258.562 455.375 255.396 465.708 253.062 475.375C250.729 485.042 248.896 494.875 247.562 504.875C246.229 514.875 245.396 524.708 245.062 534.375C244.729 544.042 245.062 555.042 246.062 567.375C247.063 579.708 248.896 592.042 251.562 604.375C254.229 616.708 258.229 630.042 263.562 644.375C268.896 658.708 275.896 673.375 284.562 688.375C293.229 703.375 301.729 716.042 310.062 726.375C318.396 736.708 325.562 744.875 331.562 750.875C337.563 756.875 345.729 763.875 356.062 771.875C366.396 779.875 373.229 782.208 376.562 778.875C379.896 775.542 383.896 775.542 388.562 778.875C393.229 782.208 399.729 786.042 408.062 790.375C416.396 794.708 427.562 799.375 441.562 804.375C448.563 806.875 455.562 809.375 462.562 811.875C456.562 803.375 450.563 794.875 444.562 786.375C432.562 769.375 431.062 757.375 440.062 750.375C449.063 743.375 453.729 739.375 454.062 738.375C454.396 737.375 451.229 735.375 444.562 732.375C437.896 729.375 430.896 725.542 423.562 720.875C416.229 716.208 407.563 709.375 397.562 700.375C387.562 691.375 381.063 688.208 378.062 690.875C376.562 692.208 375.063 693.542 373.562 694.875C369.229 689.542 364.896 684.208 360.562 678.875C351.896 668.208 344.229 656.208 337.562 642.875C330.896 629.542 326.229 618.542 323.562 609.875C320.896 601.208 318.729 592.208 317.062 582.875C315.396 573.542 314.396 561.208 314.062 545.875C313.729 530.542 314.396 517.542 316.062 506.875C317.729 496.208 320.396 485.208 324.062 473.875C327.729 462.542 331.229 453.375 334.562 446.375C337.896 439.375 342.562 431.208 348.562 421.875C354.563 412.542 363.062 402.042 374.062 390.375C385.063 378.708 397.062 368.375 410.062 359.375C423.063 350.375 436.562 342.875 450.562 336.875C464.563 330.875 480.229 326.208 497.562 322.875C514.896 319.542 531.229 318.042 546.562 318.375C561.896 318.708 577.396 320.875 593.062 324.875C608.729 328.875 623.562 334.375 637.562 341.375C651.563 348.375 662.229 354.542 669.562 359.875C676.896 365.208 685.062 372.208 694.062 380.875C703.063 389.542 710.896 398.208 717.562 406.875C724.229 415.542 729.396 423.042 733.062 429.375C736.729 435.708 740.729 444.042 745.062 454.375C749.396 464.708 752.896 475.042 755.562 485.375C758.229 495.708 760.229 506.708 761.562 518.375C762.896 530.042 763.396 541.375 763.062 552.375C762.729 563.375 761.563 574.542 759.562 585.875C757.562 597.208 755.063 607.375 752.062 616.375C749.062 625.375 745.063 634.875 740.062 644.875C735.062 654.875 729.229 664.542 722.562 673.875C715.896 683.208 711.063 689.208 708.062 691.875C705.062 694.542 701.896 694.375 698.562 691.375C695.229 688.375 691.063 689.542 686.062 694.875C681.062 700.208 675.729 705.042 670.062 709.375C664.396 713.708 655.063 719.375 642.062 726.375C635.563 729.875 629.062 733.375 622.562 736.875C623.063 737.708 623.562 738.542 624.062 739.375C625.063 741.042 629.062 744.375 636.062 749.375C643.063 754.375 647.062 757.708 648.062 759.375C649.063 761.042 643.896 769.708 632.562 785.375C621.229 801.042 615.396 809.375 615.062 810.375C614.896 810.875 614.729 811.375 614.562 811.875C615.063 811.875 615.562 811.875 616.062 811.875C617.063 811.875 624.062 809.375 637.062 804.375C650.063 799.375 662.729 793.375 675.062 786.375C687.396 779.375 694.062 775.875 695.062 775.875C696.063 775.875 697.729 777.542 700.062 780.875C701.229 782.542 702.396 784.208 703.562 785.875C706.896 783.375 710.229 780.875 713.562 778.375C720.229 773.375 728.062 766.708 737.062 758.375C746.063 750.042 756.562 738.208 768.562 722.875C780.563 707.542 790.562 692.208 798.562 676.875C806.563 661.542 813.062 645.708 818.062 629.375C823.063 613.042 826.562 596.375 828.562 579.375C830.563 562.375 830.896 544.208 829.562 524.875C828.229 505.542 825.563 487.875 821.562 471.875C817.562 455.875 811.563 439.042 803.562 421.375C795.562 403.708 787.896 389.375 780.562 378.375C773.229 367.375 762.896 354.875 749.562 340.875C736.229 326.875 722.229 314.708 707.562 304.375C692.896 294.042 681.396 286.708 673.062 282.375C664.729 278.042 655.896 274.042 646.562 270.375C637.229 266.708 624.063 262.875 607.062 258.875C590.062 254.875 573.229 252.375 556.562 251.375C552.396 251.125 548.167 250.979 543.875 250.938ZM529.562 263.875C531.229 263.875 532.896 263.875 534.562 263.875C533.896 265.708 533.229 267.542 532.562 269.375C531.229 273.042 530.562 278.375 530.562 285.375C530.562 288.875 530.562 292.375 530.562 295.875C533.563 295.875 536.562 295.875 539.562 295.875C545.563 295.875 550.062 295.208 553.062 293.875C554.562 293.208 556.063 292.542 557.562 291.875C557.562 293.875 557.562 295.875 557.562 297.875C557.562 301.875 550.896 304.042 537.562 304.375C530.896 304.542 524.229 304.708 517.562 304.875C518.229 303.542 518.896 302.208 519.562 300.875C520.896 298.208 521.562 292.875 521.562 284.875C521.562 276.875 520.729 271.542 519.062 268.875C518.229 267.542 517.396 266.208 516.562 264.875C517.896 264.708 519.229 264.542 520.562 264.375C523.229 264.042 526.229 263.875 529.562 263.875ZM570.562 265.875C573.563 266.375 576.562 266.875 579.562 267.375C582.563 267.875 585.562 268.375 588.562 268.875C587.562 270.208 586.563 271.542 585.562 272.875C583.562 275.542 581.896 280.375 580.562 287.375C579.229 294.375 580.729 298.708 585.062 300.375C589.396 302.042 592.729 302.875 595.062 302.875C597.396 302.875 598.729 302.542 599.062 301.875C599.396 301.208 600.062 298.875 601.062 294.875C602.063 290.875 602.562 286.542 602.562 281.875C602.562 277.208 602.229 274.375 601.562 273.375C601.229 272.875 600.896 272.375 600.562 271.875C603.563 272.542 606.562 273.208 609.562 273.875C612.563 274.542 615.562 275.208 618.562 275.875C617.729 277.042 616.896 278.208 616.062 279.375C614.396 281.708 612.396 287.375 610.062 296.375C607.729 305.375 604.563 310.208 600.562 310.875C596.562 311.542 591.563 311.208 585.562 309.875C579.562 308.542 575.063 306.542 572.062 303.875C569.062 301.208 568.396 296.708 570.062 290.375C571.729 284.042 572.562 278.875 572.562 274.875C572.562 270.875 572.229 268.375 571.562 267.375C571.229 266.875 570.896 266.375 570.562 265.875ZM485.688 270.625C487.104 270.625 488.396 270.708 489.562 270.875C494.229 271.542 496.896 274.542 497.562 279.875C498.229 285.208 499.229 288.875 500.562 290.875C501.896 292.875 502.396 295.375 502.062 298.375C501.729 301.375 500.229 303.875 497.562 305.875C494.896 307.875 488.896 309.875 479.562 311.875C474.896 312.875 470.229 313.875 465.562 314.875C465.896 313.042 466.229 311.208 466.562 309.375C467.229 305.708 466.896 300.875 465.562 294.875C464.229 288.875 462.396 284.208 460.062 280.875C458.896 279.208 457.729 277.542 456.562 275.875C460.896 274.875 465.229 273.875 469.562 272.875C476.063 271.375 481.437 270.625 485.688 270.625ZM638.562 281.875C644.396 284.708 650.229 287.542 656.062 290.375C667.729 296.042 672.729 300.875 671.062 304.875C670.229 306.875 669.396 308.875 668.562 310.875C667.562 309.542 666.563 308.208 665.562 306.875C663.562 304.208 660.063 301.708 655.062 299.375C652.562 298.208 650.063 297.042 647.562 295.875C647.062 297.042 646.563 298.208 646.062 299.375C645.062 301.708 647.229 304.208 652.562 306.875C655.229 308.208 657.896 309.542 660.562 310.875C659.896 312.042 659.229 313.208 658.562 314.375C657.229 316.708 654.396 316.708 650.062 314.375C645.729 312.042 643.063 310.875 642.062 310.875C641.062 310.875 640.229 311.542 639.562 312.875C638.896 314.208 638.729 315.375 639.062 316.375C639.396 317.375 641.396 318.875 645.062 320.875C648.729 322.875 652.562 323.875 656.562 323.875C658.563 323.875 660.562 323.875 662.562 323.875C661.729 325.708 660.896 327.542 660.062 329.375C659.229 331.208 658.396 333.042 657.562 334.875C651.563 332.208 645.562 329.542 639.562 326.875C633.563 324.208 627.562 321.542 621.562 318.875C622.729 317.875 623.896 316.875 625.062 315.875C627.396 313.875 630.062 310.042 633.062 304.375C636.063 298.708 637.729 293.542 638.062 288.875C638.229 286.542 638.396 284.208 638.562 281.875ZM407.562 298C410.063 297.75 411.896 298.542 413.062 300.375C414.229 302.208 415.396 304.042 416.562 305.875C414.062 306.542 411.563 307.208 409.062 307.875C404.062 309.208 399.729 311.208 396.062 313.875C392.396 316.542 390.562 318.708 390.562 320.375C390.562 321.208 390.562 322.042 390.562 322.875C392.396 322.375 394.229 321.875 396.062 321.375C399.729 320.375 403.062 318.708 406.062 316.375C409.063 314.042 412.396 312.875 416.062 312.875C419.729 312.875 422.562 314.375 424.562 317.375C426.563 320.375 427.562 322.708 427.562 324.375C427.562 326.042 426.729 328.208 425.062 330.875C423.396 333.542 418.229 337.375 409.562 342.375C400.896 347.375 395.396 348.042 393.062 344.375C391.896 342.542 390.729 340.708 389.562 338.875C390.563 339.042 391.562 339.208 392.562 339.375C394.563 339.708 397.229 339.208 400.562 337.875C403.896 336.542 407.396 334.542 411.062 331.875C414.729 329.208 416.562 327.208 416.562 325.875C416.562 324.542 415.563 323.708 413.562 323.375C411.562 323.042 408.396 324.375 404.062 327.375C399.729 330.375 395.563 332.042 391.562 332.375C387.562 332.708 384.396 331.375 382.062 328.375C379.729 325.375 378.562 323.208 378.562 321.875C378.562 320.542 379.896 318.042 382.562 314.375C385.229 310.708 390.396 306.542 398.062 301.875C401.896 299.542 405.062 298.25 407.562 298ZM360.562 327.875C361.229 327.875 362.229 329.708 363.562 333.375C364.896 337.042 368.229 341.375 373.562 346.375C378.896 351.375 381.562 354.875 381.562 356.875C381.562 358.875 381.063 360.875 380.062 362.875C379.062 364.875 376.063 368.375 371.062 373.375C366.062 378.375 361.729 381.375 358.062 382.375C354.396 383.375 349.896 381.042 344.562 375.375C339.229 369.708 334.729 366.042 331.062 364.375C329.229 363.542 327.396 362.708 325.562 361.875C327.896 359.708 330.229 357.542 332.562 355.375C334.896 353.208 337.229 351.042 339.562 348.875C339.896 350.542 340.229 352.208 340.562 353.875C341.229 357.208 343.896 361.208 348.562 365.875C353.229 370.542 356.396 372.708 358.062 372.375C359.729 372.042 362.062 370.375 365.062 367.375C368.063 364.375 369.729 361.875 370.062 359.875C370.396 357.875 368.229 354.542 363.562 349.875C358.896 345.208 355.229 342.542 352.562 341.875C351.229 341.542 349.896 341.208 348.562 340.875C350.396 338.708 352.229 336.542 354.062 334.375C357.729 330.042 359.896 327.875 360.562 327.875ZM731.562 342.875C733.729 344.875 735.896 346.875 738.062 348.875C740.229 350.875 742.396 352.875 744.562 354.875C743.062 355.375 741.563 355.875 740.062 356.375C737.062 357.375 733.896 359.875 730.562 363.875C727.229 367.875 723.896 371.042 720.562 373.375C717.229 375.708 714.729 377.042 713.062 377.375C711.396 377.708 706.896 374.208 699.562 366.875C695.896 363.208 692.229 359.542 688.562 355.875C690.229 354.375 691.896 352.875 693.562 351.375C695.229 349.875 696.896 348.375 698.562 346.875C699.229 348.708 699.896 350.542 700.562 352.375C701.896 356.042 704.396 359.375 708.062 362.375C711.729 365.375 715.896 364.542 720.562 359.875C725.229 355.208 728.229 351.208 729.562 347.875C730.229 346.208 730.896 344.542 731.562 342.875ZM762.062 380.875C763.729 380.875 765.562 382.375 767.562 385.375C769.563 388.375 766.729 396.042 759.062 408.375C755.229 414.542 751.396 420.708 747.562 426.875C745.896 424.375 744.229 421.875 742.562 419.375C740.896 416.875 739.229 414.375 737.562 411.875C739.063 411.875 740.562 411.875 742.062 411.875C745.063 411.875 746.896 411.375 747.562 410.375C748.229 409.375 748.396 408.042 748.062 406.375C747.729 404.708 746.396 402.375 744.062 399.375C741.729 396.375 740.063 394.875 739.062 394.875C738.062 394.875 736.563 396.375 734.562 399.375C733.562 400.875 732.563 402.375 731.562 403.875C730.229 402.042 728.896 400.208 727.562 398.375C724.896 394.708 723.396 392.042 723.062 390.375C722.896 389.542 722.729 388.708 722.562 387.875C728.729 386.708 734.896 385.542 741.062 384.375C753.396 382.042 760.396 380.875 762.062 380.875ZM314.688 384.5C316.438 384.25 318.229 384.542 320.062 385.375C323.729 387.042 325.729 388.375 326.062 389.375C326.396 390.375 328.229 391.375 331.562 392.375C334.896 393.375 337.396 394.875 339.062 396.875C340.729 398.875 341.562 401.208 341.562 403.875C341.562 406.542 338.896 412.208 333.562 420.875C330.896 425.208 328.229 429.542 325.562 433.875C324.729 432.708 323.896 431.542 323.062 430.375C321.396 428.042 318.063 425.208 313.062 421.875C308.062 418.542 303.063 416.375 298.062 415.375C295.562 414.875 293.063 414.375 290.562 413.875C292.896 410.042 295.229 406.208 297.562 402.375C302.229 394.708 306.229 389.542 309.562 386.875C311.229 385.542 312.937 384.75 314.688 384.5ZM783.188 424.625C786.104 424.958 788.562 426.208 790.562 428.375C794.563 432.708 797.896 438.875 800.562 446.875C803.229 454.875 802.729 459.542 799.062 460.875C797.229 461.542 795.396 462.208 793.562 462.875C793.396 460.708 793.229 458.542 793.062 456.375C792.729 452.042 791.729 447.875 790.062 443.875C788.396 439.875 787.063 437.208 786.062 435.875C785.062 434.542 782.896 434.375 779.562 435.375C776.229 436.375 773.229 437.542 770.562 438.875C767.896 440.208 766.562 441.542 766.562 442.875C766.562 444.208 767.729 448.042 770.062 454.375C772.396 460.708 774.562 464.875 776.562 466.875C777.563 467.875 778.562 468.875 779.562 469.875C777.562 470.542 775.563 471.208 773.562 471.875C769.562 473.208 765.896 469.708 762.562 461.375C759.229 453.042 757.396 446.542 757.062 441.875C756.729 437.208 757.396 434.208 759.062 432.875C760.729 431.542 765.396 429.375 773.062 426.375C776.896 424.875 780.271 424.292 783.188 424.625ZM280.562 433.875C281.896 435.208 283.229 436.542 284.562 437.875C287.229 440.542 292.062 442.875 299.062 444.875C306.063 446.875 311.062 447.708 314.062 447.375C315.562 447.208 317.063 447.042 318.562 446.875C317.729 449.708 316.896 452.542 316.062 455.375C315.229 458.208 314.396 461.042 313.562 463.875C312.562 462.875 311.563 461.875 310.562 460.875C308.562 458.875 306.063 457.375 303.062 456.375C301.562 455.875 300.063 455.375 298.562 454.875C300.729 457.208 302.896 459.542 305.062 461.875C309.396 466.542 311.562 469.708 311.562 471.375C311.562 473.042 311.063 474.208 310.062 474.875C309.062 475.542 305.729 476.375 300.062 477.375C297.229 477.875 294.396 478.375 291.562 478.875C293.063 479.375 294.562 479.875 296.062 480.375C299.063 481.375 301.896 481.542 304.562 480.875C305.896 480.542 307.229 480.208 308.562 479.875C307.729 482.708 306.896 485.542 306.062 488.375C305.229 491.208 304.396 494.042 303.562 496.875C301.729 495.708 299.896 494.542 298.062 493.375C294.396 491.042 289.896 489.042 284.562 487.375C279.229 485.708 274.563 485.042 270.562 485.375C268.562 485.542 266.563 485.708 264.562 485.875C265.229 483.708 265.896 481.542 266.562 479.375C267.896 475.042 272.729 472.042 281.062 470.375C285.229 469.542 289.396 468.708 293.562 467.875C293.396 467.208 293.229 466.542 293.062 465.875C292.729 464.542 289.896 461.375 284.562 456.375C279.229 451.375 277.229 446.375 278.562 441.375C279.229 438.875 279.896 436.375 280.562 433.875ZM809.562 479.875C810.229 479.875 810.896 482.875 811.562 488.875C811.896 491.875 812.229 494.875 812.562 497.875C811.229 497.375 809.896 496.875 808.562 496.375C805.896 495.375 803.729 495.208 802.062 495.875C801.229 496.208 800.396 496.542 799.562 496.875C802.063 498.708 804.562 500.542 807.062 502.375C812.063 506.042 814.729 509.875 815.062 513.875C815.229 515.875 815.396 517.875 815.562 519.875C812.896 517.875 810.229 515.875 807.562 513.875C802.229 509.875 799.063 507.875 798.062 507.875C797.062 507.875 793.229 511.708 786.562 519.375C783.229 523.208 779.896 527.042 776.562 530.875C776.229 527.208 775.896 523.542 775.562 519.875C775.229 516.208 774.896 512.542 774.562 508.875C775.896 509.208 777.229 509.542 778.562 509.875C781.229 510.542 783.562 509.875 785.562 507.875C787.563 505.875 788.729 504.042 789.062 502.375C789.396 500.708 788.229 499.542 785.562 498.875C782.896 498.208 780.063 498.708 777.062 500.375C775.562 501.208 774.063 502.042 772.562 502.875C772.229 499.875 771.896 496.875 771.562 493.875C771.229 490.875 770.896 487.875 770.562 484.875C771.563 485.375 772.562 485.875 773.562 486.375C775.563 487.375 778.396 487.875 782.062 487.875C785.729 487.875 789.729 487.542 794.062 486.875C798.396 486.208 801.896 484.875 804.562 482.875C807.229 480.875 808.896 479.875 809.562 479.875ZM260.562 503.875C262.396 504.708 264.229 505.542 266.062 506.375C269.729 508.042 275.562 508.875 283.562 508.875C291.563 508.875 295.896 509.208 296.562 509.875C297.229 510.542 298.062 512.042 299.062 514.375C300.063 516.708 300.562 521.875 300.562 529.875C300.562 537.875 299.729 543.042 298.062 545.375C296.396 547.708 291.229 548.875 282.562 548.875C273.896 548.875 267.896 549.542 264.562 550.875C262.896 551.542 261.229 552.208 259.562 552.875C259.729 549.875 259.896 546.875 260.062 543.875C260.229 540.875 260.396 537.875 260.562 534.875C262.396 535.708 264.229 536.542 266.062 537.375C269.729 539.042 274.729 539.875 281.062 539.875C287.396 539.875 290.896 537.875 291.562 533.875C292.229 529.875 292.229 526.375 291.562 523.375C290.896 520.375 287.396 518.708 281.062 518.375C274.729 518.042 269.729 518.542 266.062 519.875C264.229 520.542 262.396 521.208 260.562 521.875C260.562 518.875 260.562 515.875 260.562 512.875C260.562 509.875 260.562 506.875 260.562 503.875ZM777.562 542.875C779.563 543.708 781.562 544.542 783.562 545.375C787.563 547.042 793.229 547.875 800.562 547.875C807.896 547.875 812.562 547.375 814.562 546.375C815.563 545.875 816.562 545.375 817.562 544.875C817.229 551.375 816.896 557.875 816.562 564.375C815.896 577.375 813.396 583.875 809.062 583.875C806.896 583.875 804.729 583.875 802.562 583.875C803.396 581.542 804.229 579.208 805.062 576.875C806.729 572.208 807.396 567.875 807.062 563.875C806.896 561.875 806.729 559.875 806.562 557.875C805.562 558.042 804.563 558.208 803.562 558.375C801.562 558.708 800.562 561.708 800.562 567.375C800.562 570.208 800.562 573.042 800.562 575.875C799.062 575.875 797.563 575.875 796.062 575.875C794.562 575.875 793.063 575.875 791.562 575.875C791.562 572.875 791.562 569.875 791.562 566.875C791.562 560.875 791.229 557.708 790.562 557.375C789.896 557.042 788.896 556.875 787.562 556.875C786.229 556.875 785.396 557.875 785.062 559.875C784.729 561.875 784.562 564.875 784.562 568.875C784.562 572.875 785.062 576.208 786.062 578.875C786.563 580.208 787.062 581.542 787.562 582.875C785.396 582.875 783.229 582.875 781.062 582.875C778.896 582.875 776.729 582.875 774.562 582.875C775.063 576.208 775.562 569.542 776.062 562.875C776.563 556.208 777.062 549.542 777.562 542.875ZM299.062 564.875C300.063 564.875 301.729 571.375 304.062 584.375C305.229 590.875 306.396 597.375 307.562 603.875C306.896 603.542 306.229 603.208 305.562 602.875C304.229 602.208 301.396 601.875 297.062 601.875C292.729 601.875 288.063 602.375 283.062 603.375C278.062 604.375 274.229 605.875 271.562 607.875C270.229 608.875 268.896 609.875 267.562 610.875C267.062 607.875 266.563 604.875 266.062 601.875C265.562 598.875 265.063 595.875 264.562 592.875C265.229 593.208 265.896 593.542 266.562 593.875C267.896 594.542 270.729 594.875 275.062 594.875C279.396 594.875 283.896 594.375 288.562 593.375C293.229 592.375 295.229 589.042 294.562 583.375C293.896 577.708 292.563 573.542 290.562 570.875C289.562 569.542 288.563 568.208 287.562 566.875C289.229 566.542 290.896 566.208 292.562 565.875C295.896 565.208 298.062 564.875 299.062 564.875ZM796.562 604.875C798.063 605.208 799.562 605.542 801.062 605.875C804.063 606.542 806.229 607.542 807.562 608.875C808.896 610.208 807.396 617.542 803.062 630.875C798.729 644.208 796.229 650.875 795.562 650.875C794.896 650.875 792.563 650.042 788.562 648.375C786.562 647.542 784.563 646.708 782.562 645.875C783.896 644.708 785.229 643.542 786.562 642.375C789.229 640.042 790.896 637.708 791.562 635.375C792.229 633.042 789.896 630.875 784.562 628.875C779.229 626.875 774.229 625.708 769.562 625.375C764.896 625.042 762.562 624.375 762.562 623.375C762.562 622.375 763.562 619.708 765.562 615.375C766.563 613.208 767.562 611.042 768.562 608.875C770.063 610.208 771.562 611.542 773.062 612.875C776.063 615.542 780.729 617.875 787.062 619.875C790.229 620.875 793.396 621.875 796.562 622.875C796.562 619.875 796.562 616.875 796.562 613.875C796.562 610.875 796.562 607.875 796.562 604.875ZM302.312 619.75C305.479 619.333 307.896 619.875 309.562 621.375C312.896 624.375 315.562 628.042 317.562 632.375C319.563 636.708 320.896 640.875 321.562 644.875C322.229 648.875 322.229 651.708 321.562 653.375C320.896 655.042 315.896 657.708 306.562 661.375C297.229 665.042 291.563 666.042 289.562 664.375C287.562 662.708 285.563 660.042 283.562 656.375C281.562 652.708 279.896 648.875 278.562 644.875C277.229 640.875 276.562 637.542 276.562 634.875C276.562 632.208 281.229 628.542 290.562 623.875C295.229 621.542 299.146 620.167 302.312 619.75ZM754.562 647.875C756.396 649.042 758.229 650.208 760.062 651.375C761.896 652.542 763.729 653.708 765.562 654.875C764.562 655.208 763.563 655.542 762.562 655.875C760.562 656.542 758.563 658.042 756.562 660.375C754.562 662.708 752.396 665.875 750.062 669.875C747.729 673.875 746.896 676.708 747.562 678.375C748.229 680.042 749.229 680.708 750.562 680.375C751.896 680.042 753.896 677.708 756.562 673.375C759.229 669.042 761.896 665.708 764.562 663.375C767.229 661.042 769.562 659.708 771.562 659.375C773.563 659.042 776.062 660.042 779.062 662.375C782.063 664.708 783.229 668.375 782.562 673.375C781.896 678.375 779.063 684.542 774.062 691.875C769.062 699.208 765.563 702.542 763.562 701.875C761.562 701.208 759.729 700.042 758.062 698.375C757.229 697.542 756.396 696.708 755.562 695.875C757.063 695.042 758.562 694.208 760.062 693.375C763.063 691.708 766.229 688.208 769.562 682.875C772.896 677.542 774.396 674.208 774.062 672.875C773.729 671.542 772.729 670.875 771.062 670.875C769.396 670.875 767.396 672.875 765.062 676.875C762.729 680.875 759.896 684.375 756.562 687.375C753.229 690.375 750.896 692.042 749.562 692.375C748.229 692.708 745.729 691.542 742.062 688.875C738.396 686.208 736.729 683.208 737.062 679.875C737.396 676.542 740.396 670.375 746.062 661.375C748.896 656.875 751.729 652.375 754.562 647.875ZM331.406 663.969C331.844 663.99 332.229 664.125 332.562 664.375C333.896 665.375 337.062 669.875 342.062 677.875C347.063 685.875 349.562 691.708 349.562 695.375C349.562 699.042 346.063 703.208 339.062 707.875C332.062 712.542 327.563 715.042 325.562 715.375C323.562 715.708 320.896 714.542 317.562 711.875C314.229 709.208 310.229 704.042 305.562 696.375C300.896 688.708 300.396 683.708 304.062 681.375C305.896 680.208 307.729 679.042 309.562 677.875C309.729 679.542 309.896 681.208 310.062 682.875C310.396 686.208 312.062 690.375 315.062 695.375C318.063 700.375 320.729 703.208 323.062 703.875C325.396 704.542 327.562 704.208 329.562 702.875C331.563 701.542 333.729 700.042 336.062 698.375C338.396 696.708 339.396 694.542 339.062 691.875C338.729 689.208 336.729 685.375 333.062 680.375C329.396 675.375 326.563 672.542 324.562 671.875C323.562 671.542 322.563 671.208 321.562 670.875C323.063 669.542 324.562 668.208 326.062 666.875C328.313 664.875 330.094 663.906 331.406 663.969ZM484.062 278.875C481.062 278.875 478.229 279.208 475.562 279.875C474.229 280.208 472.896 280.542 471.562 280.875C471.896 282.208 472.229 283.542 472.562 284.875C472.896 286.208 473.229 287.542 473.562 288.875C475.896 288.208 478.229 287.542 480.562 286.875C485.229 285.542 487.729 283.875 488.062 281.875C488.229 280.875 488.396 279.875 488.562 278.875C487.062 278.875 485.563 278.875 484.062 278.875ZM487.062 293.875C484.062 293.875 481.396 294.375 479.062 295.375C476.729 296.375 475.896 298.042 476.562 300.375C477.229 302.708 479.396 303.542 483.062 302.875C486.729 302.208 489.229 301.375 490.562 300.375C491.896 299.375 492.396 298.042 492.062 296.375C491.729 294.708 490.063 293.875 487.062 293.875ZM648.562 371.875C645.896 371.875 643.396 372.375 641.062 373.375C638.729 374.375 636.229 376.708 633.562 380.375C630.896 384.042 627.896 386.542 624.562 387.875C621.229 389.208 618.563 391.375 616.562 394.375C614.562 397.375 592.229 412.208 549.562 438.875C506.896 465.542 485.063 478.708 484.062 478.375C483.062 478.042 481.729 475.375 480.062 470.375C478.396 465.375 475.729 459.875 472.062 453.875C468.396 447.875 464.563 442.708 460.562 438.375C456.562 434.042 452.729 430.542 449.062 427.875C445.396 425.208 442.063 423.208 439.062 421.875C436.062 420.542 429.563 419.875 419.562 419.875C409.562 419.875 403.229 420.208 400.562 420.875C397.896 421.542 394.729 423.042 391.062 425.375C387.396 427.708 383.729 430.875 380.062 434.875C376.396 438.875 373.063 443.542 370.062 448.875C367.062 454.208 363.729 463.542 360.062 476.875C356.396 490.208 354.229 507.375 353.562 528.375C352.896 549.375 354.062 569.208 357.062 587.875C360.063 606.542 359.896 616.708 356.562 618.375C353.229 620.042 351.063 621.542 350.062 622.875C349.062 624.208 348.729 626.375 349.062 629.375C349.396 632.375 350.229 635.208 351.562 637.875C352.896 640.542 354.729 642.042 357.062 642.375C359.396 642.708 362.396 642.375 366.062 641.375C369.729 640.375 372.896 642.875 375.562 648.875C378.229 654.875 381.062 660.042 384.062 664.375C387.063 668.708 390.062 672.375 393.062 675.375C396.063 678.375 400.062 681.375 405.062 684.375C410.063 687.375 415.562 689.208 421.562 689.875C427.563 690.542 434.396 690.375 442.062 689.375C449.729 688.375 456.562 685.542 462.562 680.875C468.563 676.208 474.229 669.042 479.562 659.375C484.896 649.708 489.062 638.875 492.062 626.875C495.063 614.875 496.896 603.042 497.562 591.375C498.229 579.708 502.896 571.042 511.562 565.375C520.229 559.708 534.396 555.708 554.062 553.375C573.729 551.042 585.562 558.042 589.562 574.375C593.563 590.708 597.729 602.875 602.062 610.875C606.396 618.875 610.562 625.042 614.562 629.375C618.563 633.708 623.062 637.375 628.062 640.375C633.063 643.375 637.729 645.542 642.062 646.875C646.396 648.208 652.729 648.542 661.062 647.875C669.396 647.208 676.229 645.375 681.562 642.375C686.896 639.375 692.729 634.208 699.062 626.875C705.396 619.542 710.896 610.375 715.562 599.375C720.229 588.375 723.562 576.208 725.562 562.875C727.563 549.542 728.063 535.375 727.062 520.375C726.062 505.375 724.729 494.875 723.062 488.875C721.396 482.875 718.729 476.042 715.062 468.375C711.396 460.708 706.063 452.708 699.062 444.375C692.062 436.042 688.562 428.708 688.562 422.375C688.562 416.042 687.396 409.875 685.062 403.875C682.729 397.875 678.396 391.708 672.062 385.375C665.729 379.042 660.896 375.208 657.562 373.875C654.229 372.542 651.229 371.875 648.562 371.875ZM645.062 377.375C645.563 377.542 646.062 377.708 646.562 377.875C645.896 379.042 645.229 380.208 644.562 381.375C643.229 383.708 642.229 387.542 641.562 392.875C640.896 398.208 641.896 404.042 644.562 410.375C647.229 416.708 651.229 422.042 656.562 426.375C661.896 430.708 667.229 432.875 672.562 432.875C675.229 432.875 677.896 432.875 680.562 432.875C679.062 433.708 677.563 434.542 676.062 435.375C673.062 437.042 670.063 437.875 667.062 437.875C664.062 437.875 660.729 437.208 657.062 435.875C653.396 434.542 650.563 433.042 648.562 431.375C646.562 429.708 644.229 430.042 641.562 432.375C638.896 434.708 637.229 435.708 636.562 435.375C636.229 435.208 635.896 435.042 635.562 434.875C635.562 435.208 635.562 435.542 635.562 435.875C635.562 436.208 635.562 436.542 635.562 436.875C634.729 436.542 633.896 436.208 633.062 435.875C632.229 435.542 631.396 435.208 630.562 434.875C631.729 436.208 632.896 437.542 634.062 438.875C636.396 441.542 639.062 443.708 642.062 445.375C643.563 446.208 645.062 447.042 646.562 447.875C645.063 447.708 643.562 447.542 642.062 447.375C639.062 447.042 635.896 446.042 632.562 444.375C629.229 442.708 614.396 450.375 588.062 467.375C574.896 475.875 561.729 484.375 548.562 492.875C547.562 491.042 546.563 489.208 545.562 487.375C543.562 483.708 542.229 481.875 541.562 481.875C541.229 481.875 540.896 481.875 540.562 481.875C540.729 481.542 540.896 481.208 541.062 480.875C541.229 480.542 541.396 480.208 541.562 479.875C540.229 479.208 538.896 478.542 537.562 477.875C534.896 476.542 532.563 475.875 530.562 475.875C528.562 475.875 526.896 475.208 525.562 473.875C524.229 472.542 522.563 471.875 520.562 471.875C518.562 471.875 515.896 473.042 512.562 475.375C509.229 477.708 507.229 480.875 506.562 484.875C505.896 488.875 503.229 493.208 498.562 497.875C493.896 502.542 491.229 504.708 490.562 504.375C489.896 504.042 489.063 500.875 488.062 494.875C487.062 488.875 489.896 483.708 496.562 479.375C503.229 475.042 506.896 473.042 507.562 473.375C507.896 473.542 508.229 473.708 508.562 473.875C508.896 473.208 509.229 472.542 509.562 471.875C510.229 470.542 511.562 469.708 513.562 469.375C515.563 469.042 517.896 467.542 520.562 464.875C523.229 462.208 525.062 460.875 526.062 460.875C527.063 460.875 542.562 451.208 572.562 431.875C602.563 412.542 618.562 401.375 620.562 398.375C622.563 395.375 624.896 393.375 627.562 392.375C630.229 391.375 632.062 389.708 633.062 387.375C634.063 385.042 636.062 382.708 639.062 380.375C642.063 378.042 644.062 377.042 645.062 377.375ZM654.562 382.875C656.396 383.875 658.229 384.875 660.062 385.875C663.729 387.875 667.062 390.542 670.062 393.875C673.063 397.208 675.396 401.042 677.062 405.375C678.729 409.708 679.229 413.875 678.562 417.875C677.896 421.875 675.229 423.875 670.562 423.875C668.229 423.875 665.896 423.875 663.562 423.875C664.396 422.875 665.229 421.875 666.062 420.875C667.729 418.875 668.562 416.042 668.562 412.375C668.562 408.708 667.729 405.042 666.062 401.375C664.396 397.708 661.729 394.375 658.062 391.375C654.396 388.375 652.896 386.208 653.562 384.875C653.896 384.208 654.229 383.542 654.562 382.875ZM412.562 422.875C415.563 422.875 418.562 422.875 421.562 422.875C427.563 422.875 433.562 424.208 439.562 426.875C445.563 429.542 451.729 434.375 458.062 441.375C464.396 448.375 469.229 455.042 472.562 461.375C475.896 467.708 479.229 475.875 482.562 485.875C485.896 495.875 488.562 507.208 490.562 519.875C492.563 532.542 493.562 547.542 493.562 564.875C493.562 582.208 493.396 592.042 493.062 594.375C492.729 596.708 491.563 599.208 489.562 601.875C487.562 604.542 485.229 605.875 482.562 605.875C481.229 605.875 479.896 605.875 478.562 605.875C479.062 601.542 479.563 597.208 480.062 592.875C481.063 584.208 481.396 573.208 481.062 559.875C480.729 546.542 479.729 534.042 478.062 522.375C476.396 510.708 473.896 499.375 470.562 488.375C467.229 477.375 463.396 468.042 459.062 460.375C454.729 452.708 450.063 446.208 445.062 440.875C440.062 435.542 433.396 431.208 425.062 427.875C420.896 426.208 416.729 424.542 412.562 422.875ZM659.562 424.875C660.563 425.375 661.562 425.875 662.562 426.375C664.563 427.375 668.062 427.708 673.062 427.375C675.563 427.208 678.062 427.042 680.562 426.875C679.896 427.542 679.229 428.208 678.562 428.875C677.229 430.208 675.063 431.042 672.062 431.375C669.062 431.708 666.229 430.708 663.562 428.375C662.229 427.208 660.896 426.042 659.562 424.875ZM685.812 434.625C686.229 434.625 686.646 434.708 687.062 434.875C688.729 435.542 691.062 437.542 694.062 440.875C697.063 444.208 701.396 450.708 707.062 460.375C712.729 470.042 717.062 480.542 720.062 491.875C723.063 503.208 724.562 509.875 724.562 511.875C724.562 512.875 724.562 513.875 724.562 514.875C724.062 514.875 723.563 514.875 723.062 514.875C722.562 514.875 722.063 514.875 721.562 514.875C721.562 516.208 721.562 517.542 721.562 518.875C721.562 520.208 721.562 521.542 721.562 522.875C720.729 522.875 719.896 522.875 719.062 522.875C717.396 522.875 715.729 517.542 714.062 506.875C712.396 496.208 709.896 486.708 706.562 478.375C703.229 470.042 699.063 462.375 694.062 455.375C689.062 448.375 685.396 444.042 683.062 442.375C681.896 441.542 680.729 440.708 679.562 439.875C680.396 438.875 681.229 437.875 682.062 436.875C683.313 435.375 684.562 434.625 685.812 434.625ZM418.562 437.875C420.896 439.208 423.229 440.542 425.562 441.875C430.229 444.542 430.896 458.375 427.562 483.375C425.896 495.875 424.229 508.375 422.562 520.875C421.896 507.042 421.229 493.208 420.562 479.375C419.896 465.542 419.229 451.708 418.562 437.875ZM407.062 439.375C408.063 439.708 409.729 453.375 412.062 480.375C413.229 493.875 414.396 507.375 415.562 520.875C415.229 520.708 414.896 520.542 414.562 520.375C413.896 520.042 410.229 508.708 403.562 486.375C396.896 464.042 393.562 452.208 393.562 450.875C393.562 449.542 395.562 447.208 399.562 443.875C403.563 440.542 406.062 439.042 407.062 439.375ZM666.562 441.875C669.063 443.542 671.562 445.208 674.062 446.875C679.063 450.208 681.729 452.542 682.062 453.875C682.396 455.208 677.396 464.708 667.062 482.375C661.896 491.208 656.729 500.042 651.562 508.875C654.063 497.708 656.562 486.542 659.062 475.375C661.563 464.208 664.062 453.042 666.562 441.875ZM654.562 448.875C654.896 448.875 655.229 448.875 655.562 448.875C655.396 450.208 655.229 451.542 655.062 452.875C654.729 455.542 652.563 465.542 648.562 482.875C646.562 491.542 644.563 500.208 642.562 508.875C642.562 499.875 642.562 490.875 642.562 481.875C642.563 463.875 644.396 453.875 648.062 451.875C651.729 449.875 653.896 448.875 654.562 448.875ZM441.562 456.875C443.563 460.042 445.562 463.208 447.562 466.375C451.563 472.708 453.896 477.375 454.562 480.375C455.229 483.375 451.563 492.042 443.562 506.375C439.562 513.542 435.563 520.708 431.562 527.875C433.229 516.042 434.896 504.208 436.562 492.375C438.229 480.542 439.896 468.708 441.562 456.875ZM635.562 459.375C636.229 459.708 636.562 467.375 636.562 482.375C636.562 489.875 636.562 497.375 636.562 504.875C636.229 504.708 635.896 504.542 635.562 504.375C634.896 504.042 632.896 498.208 629.562 486.875C626.229 475.542 624.562 469.042 624.562 467.375C624.562 465.708 626.229 463.875 629.562 461.875C632.896 459.875 634.896 459.042 635.562 459.375ZM687.562 461.875C688.563 462.875 689.562 463.875 690.562 464.875C692.563 466.875 695.229 471.875 698.562 479.875C701.896 487.875 697.396 496.542 685.062 505.875C672.729 515.208 666.063 519.875 665.062 519.875C664.062 519.875 662.896 519.375 661.562 518.375C660.229 517.375 659.396 516.042 659.062 514.375C658.729 512.708 663.396 503.542 673.062 486.875C677.896 478.542 682.729 470.208 687.562 461.875ZM385.562 462.875C386.229 462.875 390.062 472.042 397.062 490.375C404.063 508.708 407.896 519.208 408.562 521.875C409.229 524.542 409.229 526.042 408.562 526.375C407.896 526.708 407.063 526.875 406.062 526.875C405.062 526.875 400.063 520.208 391.062 506.875C382.062 493.542 377.562 485.875 377.562 483.875C377.562 481.875 378.729 477.875 381.062 471.875C383.396 465.875 384.896 462.875 385.562 462.875ZM616.438 468.969C616.854 468.99 617.229 469.125 617.562 469.375C618.896 470.375 621.896 478.542 626.562 493.875C628.896 501.542 631.229 509.208 633.562 516.875C632.896 516.875 632.229 516.875 631.562 516.875C630.229 516.875 625.229 512.375 616.562 503.375C607.896 494.375 604.229 487.542 605.562 482.875C606.896 478.208 608.896 474.542 611.562 471.875C613.563 469.875 615.187 468.906 616.438 468.969ZM459.562 495.875C459.896 496.208 460.229 496.542 460.562 496.875C461.229 497.542 461.562 499.708 461.562 503.375C461.562 507.042 460.563 510.042 458.562 512.375C456.562 514.708 455.562 517.042 455.562 519.375C455.562 521.708 456.062 523.875 457.062 525.875C457.563 526.875 458.062 527.875 458.562 528.875C456.062 528.875 453.563 528.875 451.062 528.875C448.562 528.875 446.063 528.875 443.562 528.875C446.229 523.375 448.896 517.875 451.562 512.375C454.229 506.875 456.896 501.375 459.562 495.875ZM373.562 496.875C378.229 502.542 382.896 508.208 387.562 513.875C396.896 525.208 400.396 531.875 398.062 533.875C395.729 535.875 390.563 534.875 382.562 530.875C374.562 526.875 371.062 520.208 372.062 510.875C372.563 506.208 373.062 501.542 373.562 496.875ZM601.562 496.875C602.229 497.208 602.896 497.542 603.562 497.875C604.896 498.542 608.229 502.042 613.562 508.375C616.229 511.542 618.896 514.708 621.562 517.875C617.896 517.875 614.229 517.875 610.562 517.875C606.896 517.875 603.229 517.875 599.562 517.875C599.896 514.375 600.229 510.875 600.562 507.375C600.896 503.875 601.229 500.375 601.562 496.875ZM704.562 498.875C705.396 501.542 706.229 504.208 707.062 506.875C708.729 512.208 709.729 518.875 710.062 526.875C710.229 530.875 710.396 534.875 710.562 538.875C705.062 538.375 699.563 537.875 694.062 537.375C683.062 536.375 677.562 534.542 677.562 531.875C677.562 529.208 676.896 526.708 675.562 524.375C674.229 522.042 678.729 517.208 689.062 509.875C694.229 506.208 699.396 502.542 704.562 498.875ZM644.562 513.875C645.396 513.875 646.229 513.875 647.062 513.875C648.729 513.875 649.896 514.875 650.562 516.875C651.229 518.875 653.062 520.042 656.062 520.375C657.562 520.542 659.063 520.708 660.562 520.875C659.396 521.042 658.229 521.208 657.062 521.375C654.729 521.708 653.562 522.375 653.562 523.375C653.562 524.375 654.062 525.375 655.062 526.375C656.063 527.375 658.062 528.208 661.062 528.875C664.063 529.542 665.562 531.042 665.562 533.375C665.562 535.708 663.396 537.042 659.062 537.375C654.729 537.708 652.229 535.375 651.562 530.375C650.896 525.375 649.563 521.375 647.562 518.375C646.562 516.875 645.563 515.375 644.562 513.875ZM633.562 520.875C634.896 520.875 636.396 523.875 638.062 529.875C638.896 532.875 639.729 535.875 640.562 538.875C630.562 539.708 620.563 540.542 610.562 541.375C600.562 542.208 590.563 543.042 580.562 543.875C581.229 541.375 581.896 538.875 582.562 536.375C583.896 531.375 585.729 527.875 588.062 525.875C590.396 523.875 598.229 522.542 611.562 521.875C624.896 521.208 632.229 520.875 633.562 520.875ZM557.562 524.875C559.229 524.875 560.896 524.875 562.562 524.875C565.896 524.875 568.062 528.375 569.062 535.375C569.563 538.875 570.062 542.375 570.562 545.875C569.062 545.875 567.563 545.875 566.062 545.875C563.062 545.875 560.896 542.375 559.562 535.375C558.896 531.875 558.229 528.375 557.562 524.875ZM508.062 526.875C515.063 526.875 519.229 530.708 520.562 538.375C521.229 542.208 521.896 546.042 522.562 549.875C518.396 550.208 514.229 550.542 510.062 550.875C505.896 551.208 501.729 551.542 497.562 551.875C497.229 547.875 496.896 543.875 496.562 539.875C495.896 531.875 495.896 527.708 496.562 527.375C497.229 527.042 501.062 526.875 508.062 526.875ZM415.562 527.875C417.729 528.542 419.896 529.208 422.062 529.875C426.396 531.208 428.396 532.875 428.062 534.875C427.729 536.875 428.229 538.375 429.562 539.375C430.896 540.375 432.729 540.708 435.062 540.375C437.396 540.042 439.062 539.208 440.062 537.875C441.063 536.542 442.396 535.875 444.062 535.875C444.896 535.875 445.729 535.875 446.562 535.875C446.562 536.875 446.562 537.875 446.562 538.875C446.562 540.875 443.729 542.708 438.062 544.375C432.396 546.042 429.396 547.542 429.062 548.875C428.729 550.208 429.062 551.375 430.062 552.375C431.063 553.375 434.229 553.208 439.562 551.875C442.229 551.208 444.896 550.542 447.562 549.875C447.562 551.375 447.562 552.875 447.562 554.375C447.562 557.375 444.229 559.208 437.562 559.875C430.896 560.542 427.063 557.375 426.062 550.375C425.062 543.375 423.063 537.875 420.062 533.875C418.562 531.875 417.063 529.875 415.562 527.875ZM543.188 529.656C543.521 529.635 543.812 529.708 544.062 529.875C545.063 530.542 545.896 533.708 546.562 539.375C546.896 542.208 547.229 545.042 547.562 547.875C545.229 547.875 542.896 547.875 540.562 547.875C538.229 547.875 535.896 547.875 533.562 547.875C533.896 545.875 534.229 543.875 534.562 541.875C535.229 537.875 536.729 534.708 539.062 532.375C540.813 530.625 542.187 529.719 543.188 529.656ZM410.812 532.25C411.479 532.167 412.229 532.208 413.062 532.375C414.729 532.708 416.729 534.542 419.062 537.875C421.396 541.208 422.896 545.708 423.562 551.375C423.896 554.208 424.229 557.042 424.562 559.875C423.562 559.875 422.563 559.875 421.562 559.875C419.562 559.875 418.229 557.208 417.562 551.875C416.896 546.542 415.896 542.708 414.562 540.375C413.229 538.042 411.729 536.375 410.062 535.375C409.229 534.875 408.396 534.375 407.562 533.875C408.063 533.542 408.562 533.208 409.062 532.875C409.563 532.542 410.146 532.333 410.812 532.25ZM369.562 533.875C371.563 534.542 373.562 535.208 375.562 535.875C377.563 536.542 379.562 537.208 381.562 537.875C380.229 538.708 378.896 539.542 377.562 540.375C374.896 542.042 373.063 544.208 372.062 546.875C371.562 548.208 371.063 549.542 370.562 550.875C370.229 549.708 369.896 548.542 369.562 547.375C368.896 545.042 368.729 542.208 369.062 538.875C369.229 537.208 369.396 535.542 369.562 533.875ZM366.062 536.375C367.063 536.708 367.562 541.042 367.562 549.375C367.562 557.708 366.896 562.208 365.562 562.875C364.229 563.542 363.562 564.542 363.562 565.875C363.562 567.208 364.562 568.875 366.562 570.875C368.563 572.875 370.229 579.042 371.562 589.375C372.896 599.708 374.062 605.708 375.062 607.375C376.063 609.042 376.229 611.208 375.562 613.875C374.896 616.542 375.729 619.208 378.062 621.875C380.396 624.542 381.896 627.375 382.562 630.375C383.229 633.375 384.729 636.708 387.062 640.375C389.396 644.042 390.896 647.708 391.562 651.375C392.229 655.042 393.729 657.208 396.062 657.875C398.396 658.542 401.396 660.708 405.062 664.375C408.729 668.042 413.396 670.708 419.062 672.375C424.729 674.042 427.729 675.208 428.062 675.875C428.229 676.208 428.396 676.542 428.562 676.875C425.562 676.375 422.563 675.875 419.562 675.375C413.562 674.375 408.563 672.708 404.562 670.375C400.562 668.042 396.729 665.042 393.062 661.375C389.396 657.708 387.229 654.875 386.562 652.875C385.896 650.875 385.063 649.708 384.062 649.375C383.062 649.042 380.729 645.208 377.062 637.875C373.396 630.542 370.063 621.708 367.062 611.375C364.062 601.042 361.729 589.875 360.062 577.875C358.396 565.875 357.562 557.542 357.562 552.875C357.562 548.208 358.729 544.208 361.062 540.875C363.396 537.542 365.062 536.042 366.062 536.375ZM400.562 538.875C401.396 538.875 402.229 538.875 403.062 538.875C404.729 538.875 406.229 539.375 407.562 540.375C408.896 541.375 410.062 543.208 411.062 545.875C412.063 548.542 412.562 551.542 412.562 554.875C412.562 556.542 412.562 558.208 412.562 559.875C411.562 559.875 410.563 559.875 409.562 559.875C407.562 559.875 406.396 557.708 406.062 553.375C405.729 549.042 404.729 545.542 403.062 542.875C402.229 541.542 401.396 540.208 400.562 538.875ZM389.688 540.625C390.604 540.625 391.896 540.875 393.562 541.375C396.896 542.375 399.229 545.708 400.562 551.375C401.229 554.208 401.896 557.042 402.562 559.875C401.396 559.875 400.229 559.875 399.062 559.875C396.729 559.875 395.063 559.375 394.062 558.375C393.062 557.375 392.229 555.042 391.562 551.375C390.896 547.708 390.063 545.375 389.062 544.375C388.062 543.375 387.729 542.375 388.062 541.375C388.229 540.875 388.771 540.625 389.688 540.625ZM680.438 543C683.521 542.917 687.896 543.208 693.562 543.875C704.896 545.208 710.396 549.542 710.062 556.875C709.729 564.208 708.896 570.375 707.562 575.375C706.896 577.875 706.229 580.375 705.562 582.875C698.729 577.375 691.896 571.875 685.062 566.375C678.229 560.875 671.396 555.375 664.562 549.875C666.063 549.375 667.562 548.875 669.062 548.375C672.063 547.375 674.062 546.042 675.062 544.375C675.563 543.542 677.354 543.083 680.438 543ZM612.188 545.25C614.104 545.167 615.896 545.208 617.562 545.375C619.229 545.542 620.896 545.708 622.562 545.875C619.229 548.708 615.896 551.542 612.562 554.375C609.229 557.208 605.896 560.042 602.562 562.875C602.062 560.208 601.563 557.542 601.062 554.875C600.562 552.208 600.063 549.542 599.562 546.875C601.729 546.542 603.896 546.208 606.062 545.875C608.229 545.542 610.271 545.333 612.188 545.25ZM381.062 546.875C382.063 546.875 383.229 547.708 384.562 549.375C385.896 551.042 386.562 553.875 386.562 557.875C386.562 561.875 385.729 564.708 384.062 566.375C382.396 568.042 380.729 568.375 379.062 567.375C377.396 566.375 376.229 564.875 375.562 562.875C374.896 560.875 374.729 558.542 375.062 555.875C375.396 553.208 376.229 551.042 377.562 549.375C378.896 547.708 380.062 546.875 381.062 546.875ZM633.562 546.875C633.229 548.375 632.896 549.875 632.562 551.375C631.896 554.375 628.563 562.542 622.562 575.875C619.562 582.542 616.563 589.208 613.562 595.875C611.896 591.708 610.229 587.542 608.562 583.375C605.229 575.042 608.562 566.875 618.562 558.875C623.563 554.875 628.562 550.875 633.562 546.875ZM594.562 547.875C596.563 547.875 598.062 550.542 599.062 555.875C600.063 561.208 600.063 564.208 599.062 564.875C598.062 565.542 597.562 566.542 597.562 567.875C597.562 569.208 598.729 571.208 601.062 573.875C603.396 576.542 605.062 579.708 606.062 583.375C607.063 587.042 608.396 590.208 610.062 592.875C611.729 595.542 612.396 597.875 612.062 599.875C611.729 601.875 611.896 603.542 612.562 604.875C612.896 605.542 613.229 606.208 613.562 606.875C613.896 606.708 614.229 606.542 614.562 606.375C615.229 606.042 616.562 606.708 618.562 608.375C620.563 610.042 623.729 613.708 628.062 619.375C632.396 625.042 635.896 628.042 638.562 628.375C641.229 628.708 644.896 630.042 649.562 632.375C651.896 633.542 654.229 634.708 656.562 635.875C654.396 635.708 652.229 635.542 650.062 635.375C645.729 635.042 641.729 634.208 638.062 632.875C634.396 631.542 632.562 630.542 632.562 629.875C632.562 629.542 632.562 629.208 632.562 628.875C632.229 629.042 631.896 629.208 631.562 629.375C630.896 629.708 627.063 626.375 620.062 619.375C613.062 612.375 607.396 604.375 603.062 595.375C598.729 586.375 595.396 576.708 593.062 566.375C590.729 556.042 589.896 550.375 590.562 549.375C591.229 548.375 592.562 547.875 594.562 547.875ZM653.562 549.875C661.729 556.708 669.896 563.542 678.062 570.375C694.396 584.042 701.729 593.042 700.062 597.375C698.396 601.708 696.229 605.875 693.562 609.875C692.229 611.875 690.896 613.875 689.562 615.875C686.896 611.542 684.229 607.208 681.562 602.875C676.229 594.208 670.229 583.208 663.562 569.875C660.229 563.208 656.896 556.542 653.562 549.875ZM649.562 558.875C655.063 569.208 660.562 579.542 666.062 589.875C677.063 610.542 681.896 621.708 680.562 623.375C679.229 625.042 676.396 626.875 672.062 628.875C669.896 629.875 667.729 630.875 665.562 631.875C662.896 619.708 660.229 607.542 657.562 595.375C654.896 583.208 652.229 571.042 649.562 558.875ZM635.562 562.875C635.562 569.875 635.562 576.875 635.562 583.875C635.562 597.875 635.396 607.708 635.062 613.375C634.729 619.042 634.229 621.875 633.562 621.875C632.896 621.875 630.229 619.042 625.562 613.375C620.896 607.708 621.396 597.875 627.062 583.875C629.896 576.875 632.729 569.875 635.562 562.875ZM642.562 562.875C642.896 563.208 643.229 563.542 643.562 563.875C644.229 564.542 646.729 576.042 651.062 598.375C653.229 609.542 655.396 620.708 657.562 631.875C656.063 631.708 654.562 631.542 653.062 631.375C650.062 631.042 647.229 630.208 644.562 628.875C641.896 627.542 640.896 616.208 641.562 594.875C641.896 584.208 642.229 573.542 642.562 562.875ZM373.562 572.875C374.563 573.542 375.562 574.208 376.562 574.875C378.563 576.208 381.396 576.875 385.062 576.875C388.729 576.875 391.562 576.375 393.562 575.375C395.563 574.375 397.229 574.375 398.562 575.375C399.896 576.375 400.562 577.542 400.562 578.875C400.562 580.208 397.063 584.708 390.062 592.375C386.562 596.208 383.063 600.042 379.562 603.875C378.729 601.708 377.896 599.542 377.062 597.375C375.396 593.042 374.396 587.875 374.062 581.875C373.896 578.875 373.729 575.875 373.562 572.875ZM470.562 585.875C470.896 585.875 471.229 585.875 471.562 585.875C471.396 588.875 471.229 591.875 471.062 594.875C470.729 600.875 469.563 607.208 467.562 613.875C466.563 617.208 465.562 620.542 464.562 623.875C462.396 619.208 460.229 614.542 458.062 609.875C453.729 600.542 454.562 594.208 460.562 590.875C466.563 587.542 469.896 585.875 470.562 585.875ZM443.562 598.875C446.563 604.875 449.562 610.875 452.562 616.875C458.563 628.875 461.063 636.708 460.062 640.375C459.062 644.042 456.563 648.708 452.562 654.375C450.562 657.208 448.563 660.042 446.562 662.875C445.062 653.042 443.563 643.208 442.062 633.375C439.062 613.708 438.562 603.042 440.562 601.375C441.562 600.542 442.563 599.708 443.562 598.875ZM430.562 606.875C431.229 606.875 431.729 607.875 432.062 609.875C432.396 611.875 433.562 622.375 435.562 641.375C437.563 660.375 436.063 670.375 431.062 671.375C428.562 671.875 426.063 672.375 423.562 672.875C423.729 663.708 423.896 654.542 424.062 645.375C424.396 627.042 424.729 616.375 425.062 613.375C425.396 610.375 426.229 608.542 427.562 607.875C428.896 607.208 429.896 606.875 430.562 606.875ZM416.062 615.375C417.063 615.708 417.063 624.708 416.062 642.375C415.062 660.042 414.229 668.875 413.562 668.875C412.896 668.875 410.896 667.542 407.562 664.875C404.229 662.208 402.063 659.208 401.062 655.875C400.062 652.542 400.396 646.042 402.062 636.375C403.729 626.708 406.229 620.708 409.562 618.375C412.896 616.042 415.062 615.042 416.062 615.375ZM396.562 624.875C396.729 625.708 396.896 626.542 397.062 627.375C397.396 629.042 397.063 632.375 396.062 637.375C395.062 642.375 394.229 645.042 393.562 645.375C393.229 645.542 392.896 645.708 392.562 645.875C391.396 643.542 390.229 641.208 389.062 638.875C386.729 634.208 387.396 630.708 391.062 628.375C392.896 627.208 394.729 626.042 396.562 624.875ZM754.562 391.875C752.562 391.875 751.063 392.208 750.062 392.875C749.562 393.208 749.063 393.542 748.562 393.875C749.562 394.708 750.563 395.542 751.562 396.375C752.562 397.208 753.563 398.042 754.562 398.875C755.063 397.708 755.562 396.542 756.062 395.375C756.563 394.208 757.062 393.042 757.562 391.875C756.562 391.875 755.563 391.875 754.562 391.875ZM316.562 394.375C315.229 394.042 313.063 395.708 310.062 399.375C307.062 403.042 306.396 405.708 308.062 407.375C309.729 409.042 311.062 409.708 312.062 409.375C313.063 409.042 314.396 407.375 316.062 404.375C317.729 401.375 318.562 399.042 318.562 397.375C318.562 395.708 317.896 394.708 316.562 394.375ZM328.562 401.875C327.229 401.875 325.396 403.708 323.062 407.375C320.729 411.042 320.229 413.708 321.562 415.375C322.896 417.042 324.229 417.542 325.562 416.875C326.896 416.208 328.396 414.208 330.062 410.875C331.729 407.542 332.229 405.208 331.562 403.875C330.896 402.542 329.896 401.875 328.562 401.875ZM619.562 401.875C618.896 401.875 618.229 403.208 617.562 405.875C616.896 408.542 617.062 411.708 618.062 415.375C619.063 419.042 620.396 422.042 622.062 424.375C622.896 425.542 623.729 426.708 624.562 427.875C624.062 426.542 623.563 425.208 623.062 423.875C622.062 421.208 621.396 416.875 621.062 410.875C620.729 404.875 620.229 401.875 619.562 401.875ZM304.062 629.375C302.396 629.042 298.896 630.208 293.562 632.875C288.229 635.542 286.729 640.042 289.062 646.375C291.396 652.708 293.396 655.875 295.062 655.875C296.729 655.875 300.062 654.708 305.062 652.375C310.063 650.042 312.562 647.708 312.562 645.375C312.562 643.042 311.563 639.875 309.562 635.875C307.562 631.875 305.729 629.708 304.062 629.375ZM536.562 700.875C533.896 709.542 531.229 718.208 528.562 726.875C526.141 734.744 521.5 753 521.5 753C521.5 753 503.391 753.193 493.562 753.375C484.562 753.542 475.563 753.708 466.562 753.875C473.563 759.042 480.562 764.208 487.562 769.375C494.626 774.588 508.344 783.906 508.344 783.906C508.344 783.906 503.54 802.287 501.062 810.875C498.562 819.542 496.063 828.208 493.562 836.875C500.563 831.708 507.562 826.542 514.562 821.375C528.563 811.042 536.062 805.875 537.062 805.875C538.063 805.875 543.396 809.708 553.062 817.375C562.729 825.042 569.896 830.208 574.562 832.875C576.896 834.208 579.229 835.542 581.562 836.875C578.729 828.375 575.896 819.875 573.062 811.375C570.728 804.371 563.469 784.969 563.469 784.969C563.469 784.969 577.939 775.843 586.562 769.375C593.896 763.875 601.229 758.375 608.562 752.875C599.562 752.875 590.563 752.875 581.562 752.875C573.407 752.875 556.25 754.469 556.25 754.469C556.25 754.469 539.562 709.542 536.562 700.875ZM536.562 711.875C536.896 712.042 537.229 712.208 537.562 712.375C538.137 712.662 540.08 717.786 543.375 727.719C543.905 729.317 544.462 731.026 545.062 732.875C549.396 746.208 551.562 753.542 551.562 754.875C551.562 756.208 549.396 759.042 545.062 763.375C542.896 765.542 540.729 767.708 538.562 769.875C548.396 767.708 558.229 765.542 568.062 763.375C577.896 761.208 587.729 759.042 597.562 756.875C597.562 757.208 597.562 757.542 597.562 757.875C597.562 758.542 591.563 763.208 579.562 771.875C567.562 780.542 557.729 782.875 550.062 778.875C546.229 776.875 542.396 774.875 538.562 772.875C544.729 782.375 550.896 791.875 557.062 801.375C563.229 810.875 569.396 820.375 575.562 829.875C569.229 825.375 562.896 820.875 556.562 816.375C543.896 807.375 537.396 797.708 537.062 787.375C536.896 782.208 536.729 777.042 536.562 771.875C530.229 781.375 523.896 790.875 517.562 800.375C511.229 809.875 504.896 819.375 498.562 828.875C500.729 822.042 502.896 815.208 505.062 808.375C509.396 794.708 511.896 787.708 512.562 787.375C512.896 787.208 513.229 787.042 513.562 786.875C513.396 786.542 513.229 786.208 513.062 785.875C512.729 785.208 516.562 782.375 524.562 777.375C528.563 774.875 532.562 772.375 536.562 769.875C526.062 767.708 515.563 765.542 505.062 763.375C494.562 761.208 484.063 759.042 473.562 756.875C481.563 756.708 489.562 756.542 497.562 756.375C513.563 756.042 524.062 758.042 529.062 762.375C531.563 764.542 534.062 766.708 536.562 768.875C536.562 759.375 536.562 749.875 536.562 740.375C536.562 730.875 536.562 721.375 536.562 711.875Z" fill="#ffffff" fill-rule="nonzero" opacity="1" stroke="none"/>
</g>
</svg>
