<?xml version="1.0" encoding="UTF-8" standalone="no"?>
<!DOCTYPE svg PUBLIC "-//W3C//DTD SVG 1.1//EN" "http://www.w3.org/Graphics/SVG/1.1/DTD/svg11.dtd">
<!-- Created with Vectornator (http://vectornator.io/) -->
<svg height="100%" stroke-miterlimit="10" style="fill-rule:nonzero;clip-rule:evenodd;stroke-linecap:round;stroke-linejoin:round;" version="1.1" viewBox="0 0 750 1000" width="100%" xml:space="preserve" xmlns="http://www.w3.org/2000/svg" xmlns:vectornator="http://vectornator.io" xmlns:xlink="http://www.w3.org/1999/xlink">
<defs/>
<g id="Layer-1" vectornator:layerName="Layer 1">
<path d="M373.662 240.719C370.635 243.746 369.371 249.3 367.506 253.031C362.698 262.647 358.253 272.412 353.443 282.031C352.345 284.228 348.048 295.111 346.412 295.812C344.456 296.651 340.953 296.354 338.787 296.688C333.412 297.514 328.044 298.34 322.693 299.312C306.783 302.205 291.044 305.998 275.506 310.438C216.691 327.242 163.43 357.201 119.943 400.688C110.34 410.291 102.312 421.896 95.3494 433.5C93.0411 437.347 89.6797 442.054 88.5994 446.375C86.5855 454.431 81.8333 462.259 79.5057 470.406C77.79 476.411 77.7751 482.977 76.0057 488.875C75.9263 489.14 75.4173 489.162 75.4119 489.438C75.2205 499.201 75.2205 508.986 75.4119 518.75C75.6388 530.321 80.4149 543.57 84.7869 554.5C85.8496 557.157 86.8715 560.697 88.5994 563C92.276 567.902 94.9521 573.75 98.5682 578.812C108.446 592.641 121.659 605.436 136.349 614.25C145.726 619.876 155.217 625.447 165.349 629.5C169.204 631.042 176.55 632.481 179.412 635.344C175.269 643.629 172.349 653.047 168.881 661.719C161.527 680.104 153.954 698.395 146.599 716.781C144.094 723.044 141.48 729.267 138.974 735.531C138.371 737.04 136.041 740.817 137.224 742C145.257 733.967 155.5 727.293 164.474 720.312C183.52 705.5 202.273 690.313 221.318 675.5C228.779 669.697 236.187 663.811 243.568 657.906C245.265 656.549 249.06 652.329 251.193 652.062C254.869 651.603 259.25 652.812 262.912 653.219C270.417 654.053 277.942 654.744 285.474 655.281C309.442 656.993 333.52 657.564 357.537 656.75C375.245 656.15 392.971 654.695 410.568 652.625C416.435 651.935 422.292 651.179 428.131 650.281C429.614 650.053 432.585 649.019 434.006 649.406C435.943 649.935 442.934 657.417 444.849 659.094C452.973 666.202 461.038 673.361 469.162 680.469C499.102 706.666 529.084 732.851 558.818 759.281C560.211 757.888 558.174 754.755 557.631 753.125C555.553 746.891 553.554 740.614 551.474 734.375C542.92 708.712 534.558 682.971 526.006 657.312C523.662 650.281 521.318 643.25 518.974 636.219C518.461 634.68 516.443 631.125 517.787 629.781C519.273 628.295 525.549 627.298 527.756 626.562C535.258 624.062 542.402 620.71 549.724 617.781C552.601 616.63 557.083 615.513 559.099 613.094C562.066 609.534 565.416 598.505 567.318 593.75C573.049 579.422 580.024 565.611 585.756 551.281C603.744 506.31 625.798 462.941 643.787 417.969C651.337 399.094 660.549 380.875 668.099 362C669.049 359.627 675.971 345.748 674.537 345.031C671.327 348.241 665.839 350.006 661.943 352.344C653.066 357.67 643.566 361.958 634.693 367.281C625.642 372.712 615.614 376.51 606.568 381.938C602.819 384.187 598.22 387.032 593.974 388.094C588.085 389.566 581.548 394.151 576.099 396.875C564.647 402.601 552.821 408.248 540.943 413C530.187 417.302 519.767 422.445 509.006 426.75C506.506 427.75 500.954 431.4 498.443 430.562C502.024 426.982 506.705 424.225 510.756 421.188C519.802 414.403 528.96 407.753 538.006 400.969C563.779 381.639 589.446 361.976 615.662 343.25C626.452 335.543 636.776 327.24 647.568 319.531C651.124 316.992 657.638 313.801 659.881 310.438C658.343 308.9 653.961 310.67 651.974 311.031C645.641 312.183 639.293 313.192 632.943 314.25C615.263 317.197 597.546 320.137 579.912 323.344C572.071 324.769 563.262 327.437 555.287 327.438C554.619 327.438 552.7 325.754 552.068 325.375C548.336 323.136 543.12 319.716 538.881 318.656C532.849 317.148 526.572 313.651 520.724 311.312C509.392 306.78 497.189 303.426 485.287 300.781C464.218 296.099 442.697 292.989 421.099 292.281C411.79 291.976 402.593 291.546 393.287 292C392.885 292.02 392.487 292.392 392.099 292.281C391.444 292.094 387.924 281.225 387.412 279.688C384.345 270.487 381.103 261.356 378.037 252.156C376.944 248.877 376.126 243.183 373.662 240.719ZM371.881 267.375C374.757 269.292 380.102 289.07 381.568 293.469C381.946 294.602 383.655 302.196 384.787 302.25C395.809 302.775 406.847 302.061 417.881 302.25C448.862 302.78 480.472 308.26 509.881 318.062C516.982 320.43 532.601 324.658 537.724 329.781C536.392 331.113 534.428 331.443 532.724 332.125C526.176 334.744 519.65 337.411 513.099 340.031C493.536 347.857 474.07 355.956 454.506 363.781C448.932 366.011 443.391 368.271 437.818 370.5C435.925 371.258 433.068 371.75 431.662 373.156C432.958 374.452 439.154 371.846 441.037 371.375C451.674 368.716 462.427 366.201 472.974 363.188C511.964 352.047 551.695 342.835 591.037 333C600.621 330.604 610.169 328.084 619.756 325.688C621.922 325.146 627.444 322.532 629.131 324.219C579.912 357.031 532.443 392.469 483.224 425.281C473.545 431.734 463.971 438.458 454.506 445.219C451.061 447.679 445.849 449.917 443.099 453.125C441.701 454.757 444.943 462.594 446.318 463.969C455.759 459.248 466.65 456.773 476.474 452.844C494.815 445.507 512.955 437.614 531.287 430.281C542.434 425.822 552.953 419.802 564.099 415.344C568.849 413.444 573.5 409.548 578.443 408.312C584.167 406.881 590.109 402.761 595.443 400.094C606.276 394.678 617.569 389.631 627.943 383.406C636.069 378.53 644.736 373.557 653.162 369.344C653.455 369.637 653.431 369.613 653.724 369.906C648.067 381.221 643.203 393.319 638.506 405.062C631.232 423.246 622.342 440.783 615.068 458.969C596.527 505.321 573.828 550.021 555.287 596.375C554.149 599.22 552.974 603.688 551.193 606.062C549.789 607.935 545.432 609.017 543.287 609.875C535.799 612.87 528.22 615.658 520.724 618.656C518.441 619.57 504.037 623.325 504.037 624.5C504.037 627.376 506.737 632.048 507.818 634.75C510.789 642.177 513.067 649.888 516.037 657.312C523.446 675.834 529.129 695.043 536.537 713.562C538.879 719.419 540.222 726.182 543.006 731.75C542.713 732.043 542.705 732.02 542.412 732.312C534.564 726.426 527.489 719.18 520.131 712.688C502.702 697.31 485.346 681.848 467.974 666.406C461.046 660.248 454.144 654.071 447.193 647.938C444.371 645.447 440.575 640.422 437.224 638.875C436.239 638.42 432.785 639.577 431.662 639.75C425.817 640.649 419.928 641.312 414.068 642.094C393.43 644.846 372.191 646.781 351.381 646.781C327.545 646.781 303.913 646.695 280.193 644.719C272.563 644.083 264.948 643.325 257.349 642.375C254.639 642.036 250.658 640.785 247.974 641.5C246.625 641.86 244.337 644.453 243.287 645.312C237.161 650.325 230.944 655.238 224.818 660.25C208.485 673.614 192.079 686.91 175.599 700.094C169.209 705.206 160.641 714.464 153.631 717.969C152.513 716.851 154.544 714.076 155.099 712.688C157.23 707.36 159.846 702.007 162.412 696.875C173.439 674.821 182.205 651.477 193.193 629.5C190.54 626.848 179.392 624.379 175.318 622.75C162.602 617.664 149.915 611.734 138.693 603.719C100.219 576.237 80.3718 537.372 85.9744 489.75C87.0734 480.408 89.1843 470.678 92.6932 461.906C94.0291 458.567 95.929 455.088 96.7869 451.656C97.6636 448.149 100.542 444.19 102.381 441.125C109.466 429.316 117.16 417.533 126.974 407.719C168.907 365.786 221.04 336.637 277.849 320.406C293.72 315.872 309.654 311.925 325.912 308.969C328.616 308.477 340.516 305.729 342.006 307.219C341.118 308.994 337.242 317.984 336.162 318.344C331.011 320.061 324.031 320.88 318.287 322.156C306.653 324.741 295.169 327.98 283.724 331.25C243.08 342.863 195.164 363.063 163.474 392.438C163.599 392.624 163.671 392.748 163.881 393.062C158.386 399.93 154.259 407.773 151.006 415.906C130.519 467.123 172.698 513.778 219.849 527.25C284.031 545.588 349.679 527.384 411.724 509.656C424.463 506.016 437.517 501.983 449.818 497.062C454.915 495.024 460.793 493.919 465.631 491.5C465.723 491.593 465.766 491.635 465.818 491.688C475.117 486.194 484.384 480.717 493.756 475.094C505.49 468.054 516.627 459.887 527.756 451.938C533.484 447.845 540.059 443.759 545.037 438.781C544.597 438.488 544.601 438.48 544.162 438.188C540.106 442.243 531.031 445.427 525.693 447.562C512.885 452.685 500.73 459.435 487.912 464.562C432.508 486.724 375.97 506.596 315.943 512.312C293.177 514.481 269.926 514.068 247.381 509.969C219.967 504.984 179.634 489.31 171.224 459.875C161.448 425.657 198.882 389.943 223.943 374.906C245.865 361.753 268.219 351.852 291.912 342.375C300.608 338.897 309.881 336.165 318.881 333.594C322.237 332.635 326.691 332.173 329.724 330.656C330.017 330.949 329.994 330.957 330.287 331.25C322.981 345.862 315.94 360.57 308.631 375.188C306.688 379.073 302.721 390.459 299.818 392.781C294.872 396.738 285.803 398.612 279.912 400.969C266.09 406.498 252.422 412.44 238.599 417.969C234.253 419.707 222.422 423.021 219.568 425.875C219.861 426.168 219.838 426.176 220.131 426.469C225.807 423.63 233.083 422.652 239.193 420.906C253.935 416.695 268.67 412.525 283.412 408.312C288.881 406.749 294.35 405.187 299.818 403.625C301.548 403.131 305.227 402.916 306.568 401.844C308.308 400.452 309.076 397.391 310.068 395.406C313.994 387.554 317.581 379.536 321.506 371.688C333.87 346.958 345.172 321.698 357.537 296.969C360.695 290.654 364.289 284.182 366.912 277.625C368.088 274.685 369.725 269.531 371.881 267.375ZM390.193 311.375C388.974 311.339 387.897 311.53 387.412 312.5C386.891 313.542 390.088 322.506 391.224 322.75C396.072 323.789 402.443 322.075 407.349 321.875C416.524 321.501 425.699 321.281 434.881 321.281C452.1 321.281 469.724 323.135 486.724 325.969C488.83 326.32 500.692 329.033 501.693 328.031C498.025 324.363 484.972 322.276 479.412 320.688C456.635 314.18 432.03 312.571 393.881 311.625C392.798 311.679 391.413 311.411 390.193 311.375ZM368.381 315.438C364.94 318.878 361.05 332.296 359.006 337.406C351.807 355.404 343.642 373.003 336.443 391C334.085 396.895 331.488 402.701 329.131 408.594C328.031 411.344 327.154 414.976 325.037 417.094C325.25 417.379 325.43 417.522 325.631 417.719C320.834 416.431 308.312 420.936 304.506 421.781C286.537 425.774 268.769 430.786 250.912 435.25C246.741 436.293 234.673 437.995 231.568 440.656C231.485 440.524 231.317 440.322 231.256 440.219C226.539 442.577 213.978 442.309 210.474 445.812C212.641 447.979 224.464 449.606 228.037 450.5C243.137 454.275 258.275 458.247 273.474 461.625C277.043 462.418 288.224 464.095 290.443 466.312C285.405 476.389 280.266 486.385 275.224 496.469C276.592 497.837 278.007 496.579 279.599 497.375C279.72 497.255 279.766 497.037 279.881 496.906C279.793 496.736 279.633 496.635 279.599 496.469C279.351 495.227 282.482 491.047 283.131 489.75C285.83 484.351 288.621 479.02 291.318 473.625C292.229 471.804 293.141 468.615 294.568 467.188C308.422 453.334 325.641 442.487 342.006 431.75C342.941 431.136 343.051 431.666 342.724 432.781C342.792 433.033 342.711 433.274 342.881 433.531C342.497 433.98 342.161 434.525 341.787 435C340.09 438.826 336.755 444.595 335.568 446.375C327.531 458.431 319.304 470.575 311.849 483C310.885 484.607 304.933 494.56 303.224 496.219C305.784 498.635 308.71 496.351 312.131 496.188C320.219 495.802 328.442 494.481 336.443 493.25C338.288 492.966 344.506 492.976 346.068 491C345.792 490.867 345.387 490.868 345.224 490.625C345.42 490.43 345.813 490.307 345.818 490.031C346.013 480.363 346.321 470.701 346.412 461.031C346.508 450.875 345.849 440.715 346.131 430.562C346.146 430.01 346.896 429.797 347.287 429.406C346.701 428.967 346.717 428.939 346.131 428.5C343.699 430.932 325.567 432.046 321.224 432.625C303.442 434.996 285.662 437.567 267.881 439.938C264.108 440.441 256.823 440.664 251.349 441.5C250.866 441.589 250.436 441.652 249.912 441.75C248.326 442.051 246.859 442.401 245.912 442.875C245.76 442.723 245.737 442.608 245.631 442.469C242.497 443.003 239.248 443.518 236.881 443.531C237.96 443.009 239.025 442.363 239.756 442.281C241.577 442.079 243.383 441.683 245.193 441.281C245.47 439.632 249.953 439.305 251.787 438.781C260.809 436.204 269.936 433.713 279.037 431.438C290.004 428.696 300.98 425.762 311.849 422.656C316.681 421.276 323.242 418.25 328.256 418.25C330.285 418.25 343.948 426.582 346.131 428.219C348.455 425.894 350.218 411.374 351.099 407.406C355.309 388.463 359.484 369.537 363.693 350.594C364.484 347.036 366.553 331.89 368.381 330.062C370.62 331.556 373.579 345.18 374.537 348.531C378.034 360.771 381.884 372.916 385.381 385.156C386.76 389.985 387.556 396.289 389.756 400.688C380.901 408.066 370.075 413.631 360.474 420.031C357.385 422.091 353.433 423.854 350.818 426.469C352.048 427.698 358.115 424.995 359.881 424.406C369.052 421.349 378.428 418.562 387.724 415.906C421.376 406.292 454.542 395.052 488.193 385.438C496.217 383.145 504.308 380.764 512.224 378.125C514.562 377.346 519.47 374.808 521.318 376.656C496.162 393.427 470.173 409.45 444.256 425C436.887 429.421 429.652 434.049 422.287 438.469C420.308 439.656 416.154 443.469 413.787 443.469C408.992 443.469 403.263 441.262 398.568 440.219C389.107 438.117 379.592 436.196 370.131 434.094C363.541 432.63 354.098 432.374 348.162 429.406C347.869 429.699 347.861 429.676 347.568 429.969C354.896 440.96 361.867 452.331 368.662 463.656C372.656 470.312 377.806 476.694 381.256 483.594C381.182 483.667 381.003 483.74 380.912 483.812C380.926 483.822 380.96 483.867 380.974 483.875C382.737 484.932 389.804 481.753 391.818 481.25C400.742 479.019 409.748 476.533 418.474 473.625C420.208 473.047 426.245 472.23 426.974 470.406C427.442 469.237 421.135 453.934 420.224 451.656C419.925 450.907 418.559 448.63 418.756 447.844C419.419 445.19 425.612 442.468 427.849 441.125C435.921 436.282 443.737 430.814 451.568 425.594C475.163 409.864 499.197 394.726 522.787 379C530.906 373.587 539.731 368.613 547.381 362.875C545.698 361.192 539.911 363.858 537.724 364.344C528.325 366.432 518.94 368.759 509.599 371.094C482.618 377.839 455.59 384.687 428.443 390.719C420.013 392.592 411.687 395.001 403.256 396.875C401.218 397.328 397.972 398.92 395.912 398.625C394.859 398.475 394.162 394.188 393.881 393.344C392.139 388.118 390.394 382.829 388.881 377.531C384.585 362.497 379.481 347.553 374.537 332.719C372.931 327.902 371.895 318.953 368.381 315.438ZM158.912 396.438C156.947 396.329 144.308 407.666 143.099 408.875C141.457 410.517 136.069 416.282 134.006 418.562C124.366 429.217 115.33 442.081 109.974 455.469C109 457.905 104.885 467.227 105.599 468.656C105.571 468.685 105.534 468.75 105.506 468.781C107.682 471.182 107.732 480.395 108.506 483.875C111.234 496.151 115.579 507.446 122.006 518.156C145.71 557.663 196.547 575.577 239.756 581.75C255.291 583.97 271.244 585.844 286.943 585.844C309.258 585.844 331.255 585.737 353.443 584.094C362.351 583.434 371.23 582.481 380.099 581.438C382.791 581.121 385.969 580.222 388.693 580.062C378.572 578.13 368.464 576.046 358.412 573.812C348.467 571.603 338.611 569.017 328.818 566.219C326.425 565.535 321.081 564.989 319.756 563C322.806 559.95 334.59 556.585 339.099 554.781C348.036 551.206 356.507 547.115 365.037 543.094C343.238 548.332 320.727 552.041 298.349 553.906C270.084 556.261 241.334 556.129 213.693 549.219C172.949 539.032 132.914 510.39 129.318 465.438C128.136 450.662 132.145 440.379 135.474 427.062C138.202 416.153 150.29 404.681 158.912 396.438ZM585.756 428.5C583.346 430.91 582.028 434.967 579.318 437C578.724 437.446 562.888 437.441 570.818 441.406C572.036 440.188 574.446 441.815 575.506 442.875C574.094 445.698 571.716 448.403 569.943 451.062C570.236 451.355 570.244 451.363 570.537 451.656C573.162 450.344 578.173 445.813 581.068 445.812C583.165 445.812 587.309 450.386 589.287 451.375C591.375 449.287 587.783 444.814 588.099 442.281C588.407 439.823 595.794 436.859 597.787 435.531C595.602 433.347 590.413 436.644 587.818 436.125C586.17 435.795 587.176 429.92 585.756 428.5ZM530.381 461.625C528.455 463.551 527.823 467.34 525.693 468.938C525.002 469.456 523.801 468.835 523.068 469.812C523.057 469.827 523.047 469.829 523.037 469.844C521.45 469.112 518.934 470.286 517.506 471C518.664 472.544 520.872 472.689 522.724 473.5C521.653 475.578 519.386 479.84 520.443 481.25C522.014 479.679 525.756 476.143 528.037 475.688C530.618 475.171 533.557 480.705 536.256 478.906C535.501 476.642 534.698 474.291 533.631 472.156C535.798 469.989 538.393 468.294 540.943 466.594C539.554 465.204 534.689 466.643 533.037 467.469C531.443 465.875 532.076 463.32 530.381 461.625ZM218.193 463.562C217.28 463.582 216.35 463.721 215.443 463.969C206.609 466.385 216.131 479.875 220.724 484.469C226.779 490.524 238.55 492.679 246.506 494.125C248.869 494.555 252.7 495.978 255.006 495.594C256.182 495.398 256.669 492.298 257.068 491.5C257.958 489.721 263.479 477.913 262.912 477.156C262.514 476.625 252.632 474.349 251.193 473.938C246.614 472.629 241.99 471.433 237.412 470.125C231.083 468.317 224.586 463.423 218.193 463.562ZM571.412 478.906C569.687 480.631 567.841 484.461 565.849 485.656C563.505 487.063 559.196 484.966 557.068 487.094C557.959 488.875 560.288 488.877 561.756 490.344C560.404 492.372 558.872 494.285 557.349 496.188C557.642 496.627 557.65 496.623 557.943 497.062C560.018 496.025 564.374 492.499 566.724 492.969C568.592 493.342 570.734 496.145 572.568 497.062C572.847 496.784 572.691 492.692 572.443 488.625C574.35 488.802 578.631 485.776 579.912 484.75C578.661 483.499 576.197 484.284 574.631 484.469C573.266 484.629 572.642 484.773 572.099 484.938C571.86 482.333 571.621 479.115 571.412 478.906ZM515.756 494.438C502.536 495.663 484.489 507.506 481.162 520.812C480.054 525.245 478.537 529.541 478.537 534.281C478.537 548.779 492.207 553.906 504.318 553.906C519.739 553.906 536.94 536.044 540.068 521.969C542.036 513.115 539.579 498.925 528.631 496.188C524.243 495.091 520.512 493.996 515.756 494.438ZM514.287 499.406C517.83 499.008 520.923 499.761 524.256 500.594C533.086 502.801 535.135 513.473 533.912 520.812C531.759 533.732 517.973 548.625 504.037 548.625C485.736 548.625 482.447 537.079 486.443 521.094C489.15 510.265 503.531 500.616 514.287 499.406ZM476.193 496.188C474.737 497.644 473.256 500.795 471.506 501.75C469.619 502.779 466.506 501.583 464.474 502.938C465.751 504.214 467.049 504.324 468.287 505.562C467.482 507.173 466.145 508.533 465.068 509.969C465.508 510.555 465.504 510.539 465.943 511.125C470.335 506.733 472.975 507.938 477.349 511.438C477.789 510.998 477.816 510.971 478.256 510.531C477.413 508.847 477.929 506.69 477.068 504.969C477.359 504.678 477.502 504.566 477.662 504.406C479.747 503.364 481.879 502.168 483.818 500.875C482.538 499.595 478.477 499.921 477.131 501.438C477.165 499.655 477.685 497.68 476.193 496.188ZM101.349 509.719C102.983 552.225 133.477 589.782 172.693 605.469C216.385 622.946 262.376 631.531 309.787 631.531C354.096 631.531 398.509 630.099 442.193 622.156C465.291 617.957 488.19 612.897 510.474 605.469C516.834 603.349 523.021 600.919 529.224 598.438C530.584 597.894 533.011 597.588 533.912 596.688C531.761 594.537 527.857 595.939 524.818 595.812C512.008 595.278 499.222 594.491 486.443 593.469C480.327 592.98 474.237 592.248 468.131 591.625C468.356 591.761 468.71 591.829 468.881 592C466.424 594.457 450.729 596.737 446.599 597.562C426.091 601.664 405.577 605.367 384.787 607.812C369.208 609.645 353.592 611.033 337.912 611.625C326.592 612.052 315.27 611.817 303.943 611.625C257.758 610.842 199.667 604.309 158.631 579.688C133.316 564.499 106.931 539.971 101.349 509.719ZM556.474 521.375C554.632 523.217 553.239 525.94 551.193 527.531C549.338 528.974 545.239 527.048 543.287 529C544.721 530.434 546.561 530.524 547.974 531.938C546.448 533.464 545.177 535.178 543.881 536.906C544.32 537.492 544.316 537.508 544.756 538.094C546.653 536.197 549.669 535.168 552.068 533.969C553.658 535.558 555.763 536.849 557.631 538.094C559.636 536.089 556.457 532.481 557.881 530.656C557.913 530.689 557.91 530.717 557.943 530.75C560.227 529.608 562.51 528.091 564.662 526.656C563.255 525.249 559.138 525.475 557.443 526.969C557.496 524.854 557.75 522.65 556.474 521.375ZM426.693 526.938C425.453 528.178 424.231 530.264 422.881 531.344C420.965 532.876 417.87 530.491 416.412 533.406C417.506 534.5 418.762 533.694 419.943 534.875C418.981 536.158 418.008 537.403 417.006 538.656C418.169 540.402 421.707 537.493 423.443 536.625C428.766 541.948 429.311 537.369 428.037 533.844C430.03 532.839 431.575 531.975 433.412 530.75C432.244 529.582 428.693 530.39 426.787 531.156C428.004 529.823 428.38 528.062 426.693 526.938ZM461.537 530.75C460.327 531.96 459.14 534.307 457.724 535.156C456.69 535.777 456.001 535.503 455.318 535.875C454.329 535.185 453.348 535.439 452.474 536.312C453.311 537.149 453.814 537.468 454.287 537.375C455.596 538.931 453.471 540.578 452.474 541.906C453.215 542.647 452.798 542.364 453.631 542.781C454.343 542.069 456.882 539.843 458.037 539.844C459.464 539.844 461.106 543.122 462.412 542.469C464.251 541.549 461.796 538.778 462.974 537.344C464.602 536.5 465.825 535.621 467.412 534.562C466.588 533.326 463.949 533.937 462.506 534.875C462.513 533.281 462.19 531.404 461.537 530.75ZM379.224 549.219C377.827 550.616 376.661 552.716 375.131 553.906C373.781 554.956 371.006 553.594 369.537 555.062C370.684 556.592 371.071 556.003 372.474 557.406C371.754 558.848 370.269 560.263 369.256 561.531C369.549 561.824 369.556 561.801 369.849 562.094C370.888 561.574 375.067 558.578 376.287 559.188C377.643 559.866 378.678 561.383 380.099 562.094C380.392 561.801 380.4 561.824 380.693 561.531C380.121 560.388 379.52 557.111 380.381 556.25C380.326 556.141 380.359 555.991 380.318 555.875C381.973 556.188 384.522 554.171 385.381 553.312C384.546 552.478 385.021 552.896 383.912 552.156C382.853 553.215 381.039 552.968 380.068 553.5C380.131 551.916 380.284 550.278 379.224 549.219ZM413.787 556.844C412.75 557.881 411.459 560.235 410.287 560.938C408.66 561.914 405.979 560.527 404.412 562.094C405.144 562.826 405.148 562.83 405.881 563.562C406.174 563.416 406.181 563.428 406.474 563.281C406.914 563.721 406.91 563.717 407.349 564.156C406.347 565.41 405.303 566.632 404.412 567.969C405.152 568.709 404.767 568.427 405.599 568.844C409.153 565.29 410.717 566.097 414.381 568.844C414.82 568.551 414.816 568.543 415.256 568.25C414.621 566.98 414.681 565.314 414.787 563.625C416.493 562.731 418.087 561.707 419.662 560.656C418.541 559.535 416.319 559.769 414.818 560.719C414.832 559.181 414.708 557.765 413.787 556.844ZM448.068 561.531C447.105 562.494 445.321 565.738 443.974 565.906C439.227 566.5 437.777 566.235 441.631 569.125C440.46 570.296 439.471 571.667 438.412 572.938C439.152 573.678 438.735 573.396 439.568 573.812C443.809 569.572 444.221 570.57 448.662 573.531C450.308 571.885 448.987 570.303 448.568 568.781C450.063 567.512 451.992 566.717 453.631 565.625C452.588 564.582 450.686 564.828 449.256 565.594C448.624 564.149 449.239 562.702 448.068 561.531ZM539.474 563.281C537.44 565.315 535.81 568.215 533.631 570.031C531.633 571.696 526.916 569.371 524.818 571.469C526.291 572.942 528.116 573.584 529.818 574.719C528.063 576.474 525.933 578.614 524.818 580.844C525.558 581.584 525.173 581.333 526.006 581.75C527.214 580.542 532.329 576.878 534.193 577.344C535.933 577.779 538.582 580.636 540.068 581.75C540.508 581.457 540.504 581.449 540.943 581.156C540.161 579.592 539.706 574.906 540.849 573.438C543.453 572.158 546.672 571.021 548.568 569.125C546.397 566.953 541.983 568.777 540.037 570.844C540.787 568.436 540.736 564.544 539.474 563.281ZM491.412 565.344C490.124 566.632 488.74 568.893 487.318 570.031C486.182 570.94 476.577 569.473 482.943 572.656C483.437 572.903 483.709 573.422 484.099 573.812C483.315 575.381 481.689 576.321 480.881 577.938C481.621 578.678 481.204 578.396 482.037 578.812C486.444 574.406 487.491 575.802 492.006 578.812C493.844 576.974 491.159 574.378 492.881 572.656C492.464 572.031 495.004 571.061 495.443 571.5C496.25 570.693 497.539 570.653 498.162 569.719C496.705 568.262 494.65 569.18 492.131 569.906C492.96 568.461 492.621 566.552 491.412 565.344ZM487.912 632.719C485.353 632.207 479.533 636.877 477.662 638.281C482.101 644.2 485.854 650.967 489.662 657.312C490.682 659.012 493.769 662.026 492.599 663.781C486.549 657.73 478.948 652.511 472.099 647.375C467.356 652.119 474.224 656.031 477.662 658.781C486.692 666.005 495.573 674.056 505.193 680.469C506.384 679.278 500.629 665.372 499.631 662.875C496.532 655.129 493.947 647.182 490.849 639.438C490.38 638.264 489.311 632.999 487.912 632.719ZM208.849 633.594C205.875 632.692 203.956 639.286 202.849 641.5C197.869 651.461 192.892 661.414 187.912 671.375C188.351 671.814 188.347 671.811 188.787 672.25C198.712 662.325 212.249 653.39 223.943 645.594C222.877 643.462 221.666 641.593 220.131 639.75C219.106 638.521 215.898 634.695 213.693 635.062C211.801 635.378 203.369 649.83 201.693 652.344C201.4 652.051 201.392 652.043 201.099 651.75C203.895 646.158 206.701 639.708 210.193 634.469C209.724 633.999 209.274 633.723 208.849 633.594Z" fill="#ffffff" fill-rule="nonzero" opacity="1" stroke="none"/>
</g>
</svg>
