<?xml version="1.0" encoding="UTF-8" standalone="no"?>
<!DOCTYPE svg PUBLIC "-//W3C//DTD SVG 1.1//EN" "http://www.w3.org/Graphics/SVG/1.1/DTD/svg11.dtd">
<!-- Created with Vectornator (http://vectornator.io/) -->
<svg height="100%" stroke-miterlimit="10" style="fill-rule:nonzero;clip-rule:evenodd;stroke-linecap:round;stroke-linejoin:round;" version="1.1" viewBox="0 0 900 900" width="100%" xml:space="preserve" xmlns="http://www.w3.org/2000/svg" xmlns:vectornator="http://vectornator.io" xmlns:xlink="http://www.w3.org/1999/xlink">
<defs/>
<g id="Layer-1" vectornator:layerName="Layer 1">
<path d="M575.688 187.344C569.052 187.336 562.137 188.23 556 188.844C547.632 188.972 537.752 191.896 530.5 193.969C514.655 198.496 499.838 204.296 484.875 210.281C471.129 215.779 458.876 223.375 446.219 228.438C438.891 231.369 430.956 235.712 423.125 238.938C415.238 242.186 407.802 244.107 401.719 243.094C397.134 242.33 392.232 239.052 387.5 234.469C382.82 229.936 378.565 224.45 374.781 220.125L371.25 216.094L367.469 219.875C358.26 229.084 353.511 241.523 355.25 254.25C349.968 251.766 344.505 250.032 340.094 248.562C313.679 239.758 283.056 240.567 259.438 257.438C252.498 262.394 245.86 268.321 240.688 275.562C237.66 279.802 235.723 284.527 233.875 286.375C233.875 286.375 232.478 287.223 230.438 287.969C228.441 288.698 226.172 289.351 224.062 290.406C217.345 293.765 211.354 298.211 205.844 302.719C201.997 305.867 198.327 309.866 194.562 313.219C190.77 316.597 187.076 319.114 183.781 319.938C182.576 320.238 178.677 321.188 175.094 322.094C173.296 322.548 171.591 322.97 170.25 323.344C169.574 323.532 169.008 323.707 168.5 323.875C168.238 323.961 167.993 324.044 167.656 324.188C167.479 324.263 167.281 324.352 166.781 324.656C166.781 324.656 166.379 324.921 166 325.25C166 325.25 165.686 325.604 165.312 326.094L164.906 326.812L164.844 326.938L164.719 327.312C163.592 330.693 164.648 333.576 165.375 335.531C166.162 337.645 167.116 339.525 167.469 340.406C173.007 354.252 184.85 363.501 198.062 367.906C200.331 368.662 203.681 369.139 207 369.688C203.686 373.757 199.336 377.318 194.25 380.344C186.999 384.657 178.592 387.808 171.031 389.969C165.277 391.613 159.447 393.092 153.75 393.969C153.75 393.969 152.517 394.027 151.125 394.281C150.382 394.417 149.524 394.617 148.5 395.094C147.597 395.514 145.867 396.463 145.094 398.781C144.32 401.103 145.066 402.86 145.5 403.812C145.996 404.901 146.568 405.718 147.125 406.438C148.208 407.837 149.399 409.03 149.688 409.344C154.358 414.421 159.084 418.626 165.125 422.25C184.121 433.648 208.472 434.416 228.594 431.062C229.324 430.941 230.246 430.751 231.031 430.625C228.938 433.361 227.014 436.351 226.125 439.906C225.22 443.505 223.192 447.658 221.781 452.594C220.015 458.777 218.427 465.57 215.844 469.875C210.559 478.684 202.939 483.492 193.719 490.406L189.094 493.875L193.156 497.938C195.809 500.59 199.125 502.057 202.188 503.156C205.28 504.267 208.348 505.015 210.594 505.656C211.581 505.938 212.331 506.044 213.125 506.188C213.487 509.33 213.547 513.141 214.031 517.25C215.039 525.812 216.609 534.288 218.469 542.656C218.632 543.393 219.003 544.39 219.281 545.25C211.193 543.02 203.233 543 194.969 543C193.683 543 192.506 543.268 191.281 543.812C190.112 544.332 188.52 545.272 187.531 547.25C186.7 548.913 186.889 550.375 187.062 551.25C187.249 552.193 187.54 552.869 187.844 553.5C188.446 554.752 189.168 555.847 189.906 556.875C191.319 558.842 193.014 560.896 193.125 561.062C197.526 567.664 200.927 575.993 202.344 583.781C204.239 594.203 205.512 605.142 207.312 615.938C211.61 641.728 233.45 667.757 260.031 672.188C266.783 673.313 273.419 673.539 280.375 672.469C281.622 672.277 282.906 671.982 284.188 671.719C283.575 672.149 283.012 672.613 282.375 673.031C276.204 677.08 268.888 680.533 261.625 685.375L256.938 688.5L260.594 692.781C268.647 702.177 281.176 706.43 291.156 709.281C291.746 709.45 293.108 709.962 294.531 710.438C295.984 710.922 297.408 711.498 299.531 711.5L299.281 711.5C301.688 711.626 311.026 713.006 315.375 712.594C321.81 711.985 329.897 710.21 337.344 704.625C348.075 696.577 356.802 687.875 364.875 681.344C373.057 674.724 380.114 670.551 387.375 668.938C390.502 668.243 396.075 668.14 403.312 667.906C411.258 667.65 423.486 672.357 437.438 677.938C457.6 686.002 479.826 694.555 505.312 696.312C586.269 701.897 656.174 648.038 697.562 590.094C709.394 573.53 720.525 554.673 727.469 533.844C729.094 528.967 733.273 516.025 733.281 516L733.281 515.969C734.883 510.945 738.086 500.898 739.688 495.875L741.812 489.188L734.812 489.344C729.531 489.477 718.969 489.742 713.688 489.875C713.631 489.876 709.977 489.941 709.656 489.938C703.125 489.854 696.322 489.662 689.281 489.625C659.527 489.465 600.168 489.344 600.156 489.344C597.82 489.336 593.149 489.32 590.812 489.312L587.688 489.312L586.312 492.125C585.281 494.219 583.219 498.406 582.188 500.5C582.166 500.543 580.476 503.988 580.219 504.5L580.188 504.5C578.239 508.398 576.621 511.635 575.031 514.281C570.287 522.189 564.606 529.175 557.562 536.219C549.628 544.153 537.528 546.47 519 546.469C515.007 546.469 508.381 544.434 502 540.219C495.732 536.077 490.15 530.137 487.5 525.719C478.12 510.085 477.156 491.166 477.156 466.281C477.156 458.03 480.814 446.323 484.594 433.094C490.34 412.982 501.609 391.786 516.062 374.406C530.537 357.001 548.1 343.61 566.094 338.469C578.842 334.827 590.082 335.631 597.344 339C604.286 342.221 609.44 347.548 611.469 359.719C612.374 365.153 612.4 370.873 611.562 375.062C610.935 378.2 610.395 383.127 610.375 383.281L610.156 385.031C609.657 388.961 608.913 394.781 608.5 398.031L607.875 402.969L612.781 403.625C616.469 404.125 623.844 405.125 627.531 405.625C627.613 405.636 629.604 405.954 632.312 406C637.293 406.084 642.549 406.249 648.062 406.281C675.96 406.446 731.612 406.594 731.625 406.594C734.453 406.602 740.109 406.617 742.938 406.625L746.719 406.656L747.75 403.031C748.531 400.312 750.094 394.875 750.875 392.156C750.924 391.987 752.182 388.38 752.812 384.906C753.712 379.957 754.755 374.125 754.906 367.438C755.124 357.872 755.694 347.6 754.531 335.969C752.896 319.621 747.683 294.235 734.781 277.031C734.384 276.502 731.863 270.808 727.156 264.219C719.444 253.42 710.693 242.706 699.844 233.062C665.782 202.784 620.274 187.399 575.688 187.344ZM575.688 192.344C619.163 192.398 663.495 207.415 696.531 236.781C706.999 246.086 715.509 256.505 723.094 267.125C727.576 273.4 729.476 278.291 730.781 280.031C742.713 295.942 747.974 320.593 749.562 336.469C750.679 347.642 750.126 357.627 749.906 367.312C749.765 373.553 748.801 379.077 747.906 384C747.357 387.022 746.23 390.28 746.094 390.75L742.969 401.625L731.656 401.594C731.646 401.594 675.975 401.446 648.094 401.281C642.662 401.249 637.437 401.085 632.406 401C629.953 400.958 628.502 400.694 628.219 400.656L613.469 398.656L615.344 383.906C615.374 383.67 615.914 378.806 616.469 376.031C617.466 371.045 617.397 364.821 616.406 358.875C614.144 345.303 607.822 338.345 599.469 334.469C590.79 330.443 578.342 329.764 564.719 333.656C526.048 344.705 491.73 390.01 479.812 431.719C476.074 444.807 472.156 456.752 472.156 466.281C472.156 491.13 472.969 511.197 483.219 528.281C486.357 533.512 492.344 539.812 499.25 544.375C506.241 548.993 513.597 551.469 519 551.469C537.684 551.47 551.595 549.279 561.125 539.75C568.389 532.486 574.359 525.153 579.344 516.844C581.084 513.947 582.742 510.611 584.688 506.719C584.965 506.167 586.688 502.688 586.688 502.688L590.812 494.312L600.156 494.344C600.165 494.344 659.543 494.465 689.281 494.625C696.248 494.662 703.01 494.853 709.594 494.938C710.162 494.944 713.812 494.875 713.812 494.875L734.938 494.344L728.531 514.438C728.52 514.472 724.357 527.428 722.75 532.25C716.028 552.414 705.153 570.873 693.5 587.188C652.651 644.377 584.09 696.723 505.656 691.312C481.089 689.618 459.442 681.332 439.312 673.281C425.474 667.745 412.833 662.594 403.156 662.906C396.006 663.137 390.354 663.133 386.312 664.031C377.916 665.897 370.186 670.612 361.75 677.438C353.377 684.212 344.73 692.836 334.344 700.625C327.909 705.451 320.857 707.031 314.906 707.594C311.866 707.882 302.285 706.642 299.562 706.5C297.934 706.498 294.394 705.002 292.531 704.469C282.687 701.657 271.264 697.532 264.406 689.531C278.139 680.376 293.508 675.797 301.594 659.625C301.301 659.332 301.324 659.356 301.031 659.062C295.143 663.969 287.145 666.374 279.625 667.531C273.25 668.512 267.224 668.308 260.875 667.25C236.874 663.25 216.236 639.016 212.25 615.094C210.478 604.466 209.215 593.512 207.281 582.875C205.732 574.357 202.114 565.482 197.312 558.281C196.319 556.791 191.203 551.125 192.031 549.469C192.52 548.491 193.987 548 194.969 548C206.237 548 215.822 548.05 225.719 553C227.076 551.643 223.843 543.671 223.375 541.562C221.539 533.302 219.981 524.991 219 516.656C218.481 512.249 218.761 507.177 217.812 502.906C217.519 501.582 212.984 501.134 211.969 500.844C207.219 499.487 200.264 497.951 196.719 494.406C205.637 487.718 214.163 482.428 220.156 472.438C223.355 467.107 224.899 459.904 226.594 453.969C227.838 449.617 229.92 445.412 231 441.094C232.828 433.782 241.04 426.96 245.656 422.344C245.363 422.051 245.356 422.043 245.062 421.75C239.988 424.287 233.319 425.202 227.781 426.125C208.322 429.368 185.183 428.416 167.719 417.938C162.15 414.596 157.847 410.799 153.375 405.938C152.502 404.989 149.321 401.912 149.844 400.344C150.265 399.081 153.712 399.032 154.531 398.906C160.55 397.98 166.556 396.453 172.406 394.781C188.096 390.298 207.527 381.695 215.188 366.375C214.293 365.48 202.602 364.138 199.656 363.156C187.541 359.117 177.011 350.747 172.125 338.531C171.114 336.004 168.551 331.63 169.469 328.875C169.595 328.496 182.498 325.406 185 324.781C194.266 322.464 202.143 312.23 209.031 306.594C214.416 302.189 220.12 297.971 226.312 294.875C229.277 293.392 235.213 292.13 237.438 289.906C240.386 286.957 242.331 281.9 244.781 278.469C249.53 271.821 255.716 266.234 262.344 261.5C284.299 245.818 313.208 244.84 338.531 253.281C346.558 255.956 356.989 259.176 363.125 265.312C363.418 265.019 363.426 265.012 363.719 264.719C356.363 250.006 360.059 234.378 371.031 223.406C378.294 231.707 388.5 245.932 400.906 248C416.179 250.545 434.297 238.581 448.094 233.062C461.295 227.783 473.547 220.187 486.75 214.906C501.689 208.93 516.322 203.225 531.875 198.781C539.244 196.675 549.175 193.835 556.5 193.812C562.723 193.191 569.502 192.337 575.688 192.344ZM575.656 207.344C569.924 207.337 564.2 207.589 558.531 208.156C541.679 209.841 524.682 215.395 509.031 221.656C480.531 233.056 453.971 250.691 424.344 259.156C404.111 264.937 389.288 264.157 375.438 248C373.117 250.321 378.26 261.232 379.531 264.406C383.843 275.186 393.887 285.169 402.969 291.656C407.193 294.673 412.017 296.77 416.156 299.875C414.592 301.439 410.86 300.21 408.844 299.875C402.727 298.855 396.423 297.495 390.656 295.188C366.966 285.712 345.963 266.597 320.344 262.656C294.979 258.754 275.389 266.612 257.938 284.062C256.435 285.564 250.132 292.26 251.5 294.312C258.536 290.794 264.921 285.935 273.188 285.5C280.771 285.101 292.414 285.061 299.25 290.188C314.159 301.369 323.24 316.871 334.719 331.219C343.645 342.377 354.081 351.843 364.875 361.094C362.475 363.494 350.294 359.851 346.438 358.75C334.417 355.315 322.495 349.814 310.094 347.906C301.67 346.61 292.796 346.438 284.312 346.438C261.599 346.437 246.003 355.465 230.406 371.062C223.188 378.281 216.963 386.54 209.031 393.031C203.79 397.319 197.61 400.219 191.438 402.688C188.151 404.003 182.729 404.396 180.312 406.812C187.889 414.39 203.744 415 213.125 415C231.132 415 244.035 404.587 259.719 398.312C265.548 395.982 273.025 395.969 279.031 395.969C292.919 395.969 301.814 409.584 309.812 418.812C316.21 426.194 322.991 433.848 331.188 439.312C329.295 441.204 317.09 435.505 314.188 434.344C299.623 428.519 281.188 420.187 265.562 426.438C256.93 429.891 245.724 437.009 243.312 446.656C242.63 449.388 241.171 452.055 240.375 454.844C236.655 467.864 235.406 481.212 223.688 490C225.494 492.71 233.581 489.32 236.281 487.969C243.179 484.52 248.234 477.454 253.562 472.125C255.784 469.904 258.874 467.683 262.062 467.438C278.396 466.181 289.396 481.562 302.469 489.406C311.862 495.041 324.816 494.707 335 498.781C340.286 500.895 345.585 503.228 349.938 507C351.452 508.312 354.424 509.441 354.031 511.406C353.654 513.29 348.434 513.151 347 513.438C339.36 514.966 332.507 517.604 325.344 520.469C316.128 524.156 307.587 529.415 297.781 531.594C268.67 538.064 250.231 527.719 232.469 506.406C230.963 507.912 232.131 514.146 232.156 514.625C232.469 520.571 232.768 526.695 234.219 532.5C239.64 554.182 248.983 571.576 264.969 587.562C268.522 591.114 275.663 596.525 280.812 597.812C285.921 599.09 290.645 601.546 296.031 602.219C309.565 603.911 322.293 601.87 335.594 600.469C342.641 599.728 358.089 597.151 364.312 603.375C362.57 605.987 354.796 607.696 351.688 609.25C344.914 612.637 337.881 618.398 333.25 624.188C325.63 633.713 322.172 645.585 317.719 656.719C316.116 660.728 314.785 665.807 312.156 669.312C308.93 673.613 306.41 677.967 302.469 681.906C299.447 684.928 295.449 686.528 292.219 689.219C293.867 691.416 298.362 691.745 301.031 692.156C308.347 693.281 318.819 693.519 325.344 688.625C343.825 674.764 359.533 654.603 383.062 649.375C389.478 647.949 396.162 648.116 402.688 647.906C417.115 647.441 431.733 654.088 444.875 659.344C464.859 667.338 484.927 674.844 506.688 676.344C577.527 681.23 642.071 633.365 681.281 578.469C692.388 562.92 702.484 545.637 708.531 527.5C710.071 522.878 714.25 509.844 714.25 509.844C714.25 509.844 710.708 509.955 709.406 509.938C702.669 509.852 695.926 509.661 689.188 509.625C659.5 509.465 600.125 509.344 600.125 509.344C600.125 509.344 598.418 512.792 598.094 513.438C596.201 517.226 594.4 520.928 592.219 524.562C586.49 534.112 579.634 542.431 571.719 550.344C557.462 564.602 538.114 566.469 519 566.469C500.126 566.469 479.401 551.095 470.344 536C457.531 514.644 457.156 490.942 457.156 466.281C457.156 453.263 461.837 439.975 465.375 427.594C478.253 382.519 514.694 332.334 560.594 319.219C592.98 309.966 625.199 320.479 631.188 356.406C632.409 363.736 632.65 371.653 631.188 378.969C630.913 380.342 630.219 385.781 630.219 385.781C630.219 385.781 631.65 385.983 632.656 386C637.832 386.087 643.012 386.25 648.188 386.281C676.02 386.446 731.688 386.594 731.688 386.594C731.687 386.594 733.057 381.855 733.156 381.312C734.023 376.544 734.796 371.836 734.906 366.969C735.134 356.994 735.599 347.712 734.625 337.969C733.221 323.931 727.57 300.75 718.781 289.031C715.762 285.006 713.838 279.993 710.875 275.844C703.673 265.763 695.882 256.284 686.562 248C656.617 221.382 615.779 207.394 575.656 207.344ZM257.094 300.969C250.915 301.251 244.772 302.498 238.906 304.844C225.915 310.041 215.636 319.934 204.344 328C201.514 330.021 197.548 332.981 194.094 333.844C191.852 334.405 187.821 335.148 186.188 336.781C190.487 345.379 203.771 350.514 212.844 350.844C224.856 351.281 235.992 350.891 247.125 346.438C259.514 341.482 269.083 330.494 281.969 326.812C288.779 324.867 295.822 324.777 302.781 325.938C304.743 326.264 310.782 328.498 312.156 327.125C310.067 322.946 304.787 319.098 301.031 315.969C290.492 307.187 277.001 301.787 263.281 301C261.223 300.882 259.154 300.876 257.094 300.969ZM264.344 482.469C264.29 482.557 264.299 482.577 264.156 482.719C260.732 486.144 255.368 493.676 246.25 499.312C253.425 507.444 260.059 512.799 266.719 515.625C273.969 518.7 282.293 519.658 294.531 516.938C299.851 515.755 306.316 512.508 314.062 509.062C308.357 507.911 301.617 506.402 294.75 502.281C286.165 497.129 279.924 490.984 274.656 487.156C269.907 483.705 266.935 482.576 264.344 482.469ZM216.656 564.406C215.314 565.748 217.278 568.677 217.812 570.281C219.697 575.934 220.777 581.312 221.344 587.281C223.671 611.714 233.217 647.254 261.188 653.469C289.395 659.738 300.515 641.672 319.188 623C325.036 617.151 332.197 613.723 338.531 608.656C335.451 605.576 322.205 605.908 319.781 606.312C302.989 609.111 287.915 620.105 270.25 615.688C244.425 609.231 240.017 575.793 216.656 564.406Z" fill="#ffffff" fill-rule="nonzero" opacity="1" stroke="none" vectornator:layerName="Curve 1"/>
</g>
</svg>
