<?xml version="1.0" encoding="UTF-8" standalone="no"?>
<!DOCTYPE svg PUBLIC "-//W3C//DTD SVG 1.1//EN" "http://www.w3.org/Graphics/SVG/1.1/DTD/svg11.dtd">
<!-- Created with Vectornator (http://vectornator.io/) -->
<svg height="100%" stroke-miterlimit="10" style="fill-rule:nonzero;clip-rule:evenodd;stroke-linecap:round;stroke-linejoin:round;" version="1.1" viewBox="0 0 1080 1080" width="100%" xml:space="preserve" xmlns="http://www.w3.org/2000/svg" xmlns:vectornator="http://vectornator.io" xmlns:xlink="http://www.w3.org/1999/xlink">
<defs/>
<g id="Layer-1" vectornator:layerName="Layer 1">
<path d="M431.562 88.7812C430.125 88.7676 428.717 88.8421 427.5 88.9688C420.602 89.6864 413.766 92.5878 408.219 96.75C395.453 106.329 383.132 116.964 373.375 129.594C364.643 140.898 357.905 153.975 353.5 167.562C348.404 183.284 345.3 199.911 345.219 216.438C345.124 235.788 354.869 254.709 353 273.969C351.677 287.604 338.262 297.895 336 311.406C332.393 332.953 340.935 355.715 335.75 376.938C332.819 388.935 319.27 395.497 312.875 406.062C297.494 431.474 299.686 464.346 298.625 494.031C285.345 485.772 271.144 478.867 258.812 469.25C248.153 460.937 237.267 452.071 230.125 440.594C212.455 412.197 209.92 376.483 205.406 343.344C196.033 355.175 184 365.327 177.281 378.844C166.715 400.102 159.689 423.142 154.25 446.25C151.434 458.214 151.373 470.88 152.75 483.094C154.164 495.638 163.713 507.119 162.531 519.688C160.645 539.746 146.555 557.184 143.906 577.156C141.67 594.019 142.375 612.034 148.156 628.031C154.564 645.762 170.693 658.468 179.344 675.219C197.94 711.227 203.974 758.046 236.125 782.719C245.244 789.717 256.199 794.365 267.25 797.531C278.347 800.711 290.284 803.479 301.656 801.5C329.356 796.68 354.519 780.224 382.5 777.469C388.766 776.852 391.625 786.601 394.062 792.406C400.476 807.681 405.584 823.639 408.719 839.906C414.606 870.452 409.592 903.478 421.031 932.406C426.916 947.289 444.314 954.645 457.625 963.531C469.327 971.344 482.142 977.705 495.5 982.125C537.827 996.132 581.158 989.402 618.281 965C632.576 955.603 651.178 947.914 657.688 932.094C668.984 904.639 661.194 872.509 668.188 843.656C673.818 820.428 683.285 797.959 695.219 777.25C697.193 773.825 703.31 774.947 707.031 776.281C722.463 781.813 735.76 792.615 751.438 797.406C764.346 801.352 778.205 803.258 791.656 802.125C804.633 801.032 817.793 797.402 829.062 790.875C841.037 783.94 852.612 774.71 859.625 762.781C887.721 714.995 913.541 665.468 933.25 613.656C938.777 599.127 936.901 582.32 934.094 567.031C930.994 550.153 917.356 535.969 915.844 518.875C914.44 502.999 925.175 488.023 925.688 472.094C926.28 453.641 923.594 435.007 919.125 417.094C911.864 387.989 887.14 362.798 870 340.719C869.52 355.81 871.525 371.163 868.562 385.969C865.301 402.272 859.956 418.523 851.562 432.875C835.684 460.026 805.937 476.968 778.969 493.156C778.922 465.451 782.498 434.498 768.281 410.719C760.851 398.291 745.792 390.009 742.25 375.969C737.049 355.356 746.884 333.165 743.438 312.188C741.157 298.305 727.112 287.944 725.5 273.969C723.447 256.17 732.42 238.661 732.875 220.75C733.259 205.657 733.265 189.869 728 175.719C720.356 155.173 709.328 135.408 694.969 118.844C683.981 106.169 669.092 96.7426 653.719 90.0312C648.226 87.6331 641.905 92.0667 636 93.0938C634.621 113.71 638.1 135.235 631.875 154.938C627.02 170.303 613.294 181.274 604 194.438C582.642 187.073 562.086 176.64 539.906 172.344C530.624 170.546 520.851 173.622 511.875 176.594C498.834 180.911 488.236 193.837 474.5 194C466.452 194.095 461.743 183.843 457.125 177.25C452.191 170.206 447.913 162.268 446.344 153.812C442.653 133.92 447.211 112.709 441.562 93.2812C440.537 89.7552 435.876 88.8222 431.562 88.7812ZM661 109.25C669.687 117.019 680.136 123.189 687.062 132.562C696.876 145.842 706.15 160.29 710.5 176.219C716.358 197.67 717.612 220.362 717.125 242.594C716.865 254.452 706.518 265.333 708.281 277.062C710.448 291.477 725.393 301.719 728.156 316.031C732.238 337.177 722.904 359.771 728.281 380.625C732.237 395.969 747.548 405.951 754.938 419.969C759.793 429.179 763.294 439.334 764.656 449.656C766.789 465.811 768.32 482.516 765.312 498.531C761.644 518.065 751.759 535.914 744.969 554.594C756.676 541.745 766.891 527.374 780.062 516.031C804.158 495.282 834.548 481.87 856.312 458.688C868.316 445.902 873.024 427.681 878.625 411.062C882.103 400.742 881.739 389.5 883.281 378.719C896.513 416.049 913.54 455.893 907.469 495.031C905.687 506.521 899.667 517.443 892.375 526.5C879.225 542.833 859.931 553.563 847.031 570.094C843.287 574.893 842.4 582.336 844.281 588.125C846.186 593.987 851.112 600.337 857.188 601.375C865.641 602.819 875.125 599.72 882 594.594C889.96 588.658 895.314 579.352 899.062 570.156C903.56 559.122 903.856 546.797 906.25 535.125C914.349 555.817 921.238 578.276 919.625 600.438C918.064 621.882 911.147 644.359 893.344 658.25C871.146 675.57 847.045 675.899 820.531 680.531C843.731 689.59 843.707 689.566 866.906 698.625C850.052 707.105 830.556 713.379 819.844 730.656C816.457 736.119 828.974 744.942 834.969 742.625C844.054 739.113 850.678 731.106 858.531 725.344C851.372 739.287 846.756 754.896 837.031 767.188C831.237 774.511 822.086 778.684 813.469 782.281C790.868 791.714 767.824 788.139 744.938 780.406C732.671 776.262 723.242 765.289 710.719 762C703.047 759.985 692.801 759.678 687.156 765.25C674.344 777.896 664.877 794.613 660.094 811.969C649.81 849.286 659.233 891.817 642.625 926.781C633.149 946.731 608.068 955.117 587.875 964.062C571.617 971.265 553.265 975.03 535.5 974.25C516.67 973.424 497.958 967.471 480.938 959.375C464.187 951.407 443.178 943.868 435.812 926.844C421.323 893.354 427.126 854.287 420 818.5C417.764 807.27 413.293 796.445 407.844 786.375C403.69 778.7 399.009 770.405 391.531 765.906C384.531 761.694 375.264 759.997 367.344 762C354.37 765.282 344.714 776.988 331.938 780.969C307.481 788.589 277.185 790.72 255.188 777.594C245.655 771.906 237.22 763.871 231.125 754.594C225.318 745.756 224.002 734.675 220.438 724.719C228.097 730.758 234.336 739.256 243.406 742.844C247.766 744.568 253.305 742.073 257 739.188C263.672 733.977 252.434 721.282 245.406 716.562C234.706 709.377 222.576 704.602 211.156 698.625C234.577 689.566 234.58 689.59 258 680.531C233.387 676.567 206.216 674.011 186.406 658.875C177.899 652.375 171.413 643.139 166.625 633.562C149.706 599.719 160.769 567.097 173.156 534.688C176.532 554.423 177.681 578.172 192.594 591.531C199.186 597.436 208.264 602.406 217.094 601.812C224.146 601.338 231.126 595.3 233.781 588.75C236.313 582.503 234.543 574.159 230.438 568.812C218.528 553.305 199.987 543.863 187.656 528.688C180.157 519.458 173.505 508.463 171.844 496.688C168.865 475.58 170.215 453.736 174.125 432.781C177.589 414.22 187.164 397.344 193.688 379.625C196.788 394.101 197.84 409.186 203 423.062C208.14 436.886 213.704 451.566 224.281 461.844C246.227 483.169 275.114 496.139 298.5 515.875C311.56 526.897 321.561 541.076 333.094 553.688C323.864 527.366 306.171 494.646 311.156 463.969C313.9 447.085 318.436 430.227 325.719 414.75C331.511 402.44 346.519 395.012 349.812 381.812C355.15 360.419 346.391 337.325 350.469 315.656C353.068 301.844 367.891 291.948 369.344 277.969C371.974 252.66 361.461 227.369 362.281 201.938C362.705 188.784 367.865 176.073 373.031 163.969C381.672 143.724 393.238 121.961 412.219 110.812C415.503 108.883 419.794 111.352 423.594 111.625C426.107 126.393 425.384 142.113 431.156 155.938C440.531 178.39 455.918 197.813 468.312 218.75C489.115 204.98 511.303 187.372 536.25 187.344C548.386 187.33 560.862 189.316 572.031 194.062C585.968 199.985 597.475 210.522 610.188 218.75C622.396 197.967 637.613 178.685 646.812 156.406C652.258 143.22 649.259 127.753 653.375 114.094C654.243 111.214 658.461 110.863 661 109.25ZM406.031 148.938C396.122 163.891 389.291 171.205 385.938 190.062C383.243 205.21 380.668 220.744 382.094 236.062C383.459 250.735 387.802 265.282 394.188 278.562C401.983 294.778 414.138 308.503 424.125 323.469C397.658 329.377 392.847 322.554 383.938 298.281C376.902 317.61 368.697 339.155 373.625 359.125C377.681 375.562 383.242 392.17 392.781 406.156C406.6 426.417 428.016 440.583 442.625 460.281C455.972 478.277 468.431 497.531 476.156 518.562C487.214 548.669 493.132 580.52 498.406 612.156C505.753 656.227 509.131 700.862 513.938 745.281C514.135 747.111 513.589 748.95 513.406 750.781C498.093 725.517 482.734 699.145 460.531 679.656C454.478 674.343 437.405 666.329 429.312 675.844C419.205 687.728 423.942 705.696 427.438 718.188C427.697 719.116 429.29 718.71 430.219 718.969C432.587 705.868 434.675 697.319 451.094 702.469C455.033 703.704 458.911 705.852 461.688 708.906C479.865 728.903 496.073 753.705 499.812 780.469C502.515 799.812 482.737 815.478 464.344 810.062C455.547 807.473 448.134 801.48 440.031 797.188C441.017 804.561 440.543 812.291 443 819.312C445.208 825.62 448.509 832.064 453.719 836.25C465.623 845.814 479.009 853.845 493.156 859.594C521.672 871.182 566.944 871.711 594.375 856.094C607.621 848.552 622.205 841.683 631.844 829.875C637.994 822.34 636.82 811.069 638.875 801.562C639.184 800.134 638.898 798.649 638.906 797.188C630.183 801.4 622.094 807.375 612.719 809.812C592.786 814.995 574.723 797.364 578.5 777.125C581.002 763.717 585.959 750.597 592.719 738.75C599.453 726.948 607.718 715.477 618.438 707.125C624.338 702.528 632.958 703.514 640.219 701.719C645.164 710.335 645.18 710.353 650.125 718.969C652.072 708.932 660.665 687.262 649.75 676.562C645.672 672.565 638.976 670.417 633.375 671.531C626.026 672.993 619.708 678.298 614.406 683.594C594.836 703.141 579.221 726.563 565.094 750.344C565.177 745.201 564.75 740.016 565.344 734.906C570.811 687.865 575.14 640.622 583.281 593.969C587.675 568.788 593.922 543.786 602.875 519.844C609.62 501.805 618.835 484.491 630.062 468.844C655.834 432.926 692.907 410.651 703.688 366.594C706.727 354.173 707.191 340.925 705.5 328.25C704.094 317.708 698.202 308.275 694.562 298.281C686.783 321.181 680.05 330.369 653.938 323.906C679.136 290.679 695.699 262.933 696.688 219.75C696.904 210.304 696.337 200.566 693.281 191.625C688.162 176.644 679.398 163.172 672.469 148.938C669.965 159.985 670.136 171.982 664.969 182.062C655.754 200.039 639.592 213.796 630.094 231.625C622.166 246.506 625.724 260.987 627.406 276.188C613.367 260.441 600.642 243.398 585.281 228.938C574.497 218.785 553.188 210.341 538.438 209.75C503.409 208.347 469.686 251.347 451.094 275.75C451.169 263.144 456.033 249.626 451.312 237.938C443.023 217.414 423.759 202.914 413.719 183.188C408.407 172.751 408.596 160.363 406.031 148.938ZM415.312 209.906C432.279 228.401 442.352 247.023 437.406 272.656C435.742 281.284 435.307 288.379 430.312 295.188C427.473 288.06 427.711 280.313 424.625 273.312C416.335 254.51 402.399 230.971 415.312 209.906ZM661.875 209.906C683.957 235.541 642.039 270.8 649.938 294.312C644.048 296.255 642.976 281.921 640.719 271.25C635.657 247.319 646.086 227.184 661.875 209.906ZM542.125 248.781C567.319 275.818 607.349 317.241 588.906 359.406C576.836 387.002 563.93 399.821 559.969 427.281C581.383 421.989 588.935 392.962 593.375 375.188C627.965 433.222 579.647 456.022 557.375 504.094C546.107 528.414 543.88 541.531 536.812 567.844C531.606 531.043 528.003 494.749 511.5 460.875C501.252 439.84 488.132 420.245 478.531 398.906C465.386 369.689 485.558 340.947 503.25 319.938C494.123 354.733 490.115 366.386 511.188 397.719C509.941 378.596 507.122 370.978 512.469 354.062C517.514 338.101 531.512 326.437 539.656 311.812C551.729 290.132 547.513 271.368 542.125 248.781ZM353 410.531C344.94 421.202 340.468 435.447 336.719 448.031C313.726 525.202 387.503 562.627 434.469 611.5C445.205 622.672 453.805 635.7 463.469 647.812C455.941 596.679 436.435 551.733 412.219 506.844C415.997 504.487 421.507 506.153 425.5 508.125C433.129 511.893 439.962 517.101 447.188 521.594C448.297 514.68 444.157 507.724 440.719 501.625C437.247 495.467 434.569 487.863 428.438 484.344C417.149 477.866 402.232 481.587 390.125 476.812C363.905 466.472 352.523 436.503 353 410.531ZM695.719 420.656C695.48 420.557 695.248 420.543 695.031 420.688C688.312 425.149 681.308 432.062 676.031 438.375C672.833 442.201 679.957 447.188 672.031 453.844C664.838 459.884 658.539 449.359 652.156 460.469C651.829 461.039 652.196 461.907 652.688 462.344C679.01 485.736 699.842 445.37 697.219 422.906C697.128 422.13 696.434 420.954 695.719 420.656ZM382.594 420.688C379.235 424.046 381.059 437.488 381.281 441.469C382.541 464.071 409.906 473.419 426.25 461.375C416.238 448.472 413.79 461.026 404.969 453.188C399.692 448.499 405.347 443.034 402.031 438.375C396.932 431.21 389.194 426.109 382.594 420.688ZM189.062 433.5C181.244 462.044 184.206 495.716 204.406 518.812C226.96 544.6 255.422 556.749 251.562 594.875C248.393 626.187 208.909 631.85 186.906 615.125C176.666 607.341 176.745 603.531 171.812 592.156C176.214 627.07 197.14 650.431 232.562 657.531C251.28 661.283 271.3 660.164 288.938 667.469C314.084 677.883 326.76 704.484 354.75 705.281C336.477 716.023 324.42 720.836 303.5 711.906C286.693 704.732 270.899 689.283 252.25 702.625C258.865 709.785 268.251 714.129 274.406 721.688C280.404 729.053 281.97 745.195 272.562 751.219C267.882 754.216 257.853 752.316 257.281 757.844C277.3 767.441 297.896 767.931 319.219 760.219C332.123 755.551 343.207 746.126 356.531 742.844C368.446 739.909 381.129 740.803 393.344 741.969C401.275 742.726 414.066 750.744 420.062 755.812C433.129 766.856 444.56 779.854 458.312 790.031C465.172 795.107 473.282 795.037 479.562 789.875C497.37 775.238 473.606 745.053 461.875 735.344C458.072 732.196 453.144 727.634 448.438 729.125C448.699 733.177 450.637 737.476 449.219 741.281C444.126 754.946 424.633 743.725 420.156 737.094C401.688 709.739 384.378 681.583 367.875 653C359.017 637.658 352.909 620.84 344.156 605.438C328.687 578.218 308.906 552.728 285.062 532.438C271.749 521.108 255.062 514.395 240.938 504.094C214.917 485.117 202.005 462.041 189.062 433.5ZM888.562 433.5C880.379 455.361 869.4 477.125 851 492.719C822.414 516.945 787.429 534.302 763.188 562.875C724.447 608.538 702.595 666.188 672.25 717.812C668.565 724.082 663.982 729.818 659.219 735.312C653.204 742.25 635.395 756.696 628.406 740.188C626.856 736.525 628.638 732.225 628.75 728.25C612.191 741.235 597.507 751.208 593 772.906C590.544 784.73 605.916 800.471 617.812 791.844C638.792 776.63 658.13 746.358 687.594 743.125C698.243 741.957 709.284 739.575 719.719 742C733.91 745.298 745.959 754.741 759.594 759.875C781.466 768.111 801.121 766.177 821.844 756.969C816.549 754.936 810.682 754.03 805.969 750.875C797.546 745.238 796.613 729.675 802.844 722.375C809.265 714.851 818.071 709.749 825.688 703.438C824.848 702.422 824.46 700.567 823.156 700.375C814.258 699.062 804.912 696.788 796.219 699.094C786.986 701.543 780.483 710.161 771.75 714.031C753.952 721.92 738.874 713.688 723.75 705.281C729.937 704.103 736.841 704.838 742.312 701.719C760.034 691.615 773.497 674.445 792.219 666.344C810.303 658.519 823.249 662.066 844.062 658.25C879.444 651.763 896.806 630.777 907.562 597.844C908.153 596.037 907.268 594.052 907.125 592.156C899.224 605.503 898.376 610.723 885.031 619.094C862.441 633.263 826.201 619.511 825.906 591.062C825.806 581.387 827.81 566.856 834.656 558.875C847.793 543.56 863.897 530.95 877.094 515.688C889.763 501.035 891.142 482.72 893.062 464.094C894.707 448.148 892.942 446.604 888.562 433.5ZM723.312 442.344C714.392 462.457 702.191 481.814 679.5 488.094C668.11 491.246 657.067 487.979 646 486.281C644.696 486.081 642.629 485.403 642.062 486.594C623.259 526.142 615.275 575.198 608.594 617.844C608.073 621.171 608.757 624.571 608.844 627.938C620.071 610.165 629.011 583.402 636.656 565.375C641.325 554.366 642.161 541.116 649.938 532.031C654.906 526.228 664.563 527.521 671.594 524.531C698.831 512.95 717.419 494.683 723.625 465.344C725.213 457.838 727.604 448.703 723.312 442.344ZM454.469 854.969C469.765 881.571 490.255 895.054 519.156 905.438C525.362 907.667 532.391 910.7 539.188 909.562C539.429 899.333 539.415 899.323 539.656 889.094C508.448 881.654 482.797 870.645 454.469 854.969ZM615.031 885.375C612.634 884.818 607.988 889.474 605.781 891.344C605.615 891.178 605.546 891.109 605.312 890.875C589.149 904.291 569.128 905.084 550.094 911.188C549.719 926.438 565.127 917.658 574.5 914.062C587.027 909.256 597.122 902.126 607.469 893.906C607.498 893.936 607.5 893.938 607.531 893.969C610.979 892.245 613.18 888.726 615.906 886C615.67 885.646 615.392 885.459 615.031 885.375ZM458.156 887.781C457.741 892.209 455.801 905.442 457.281 911.188C459.182 918.565 467.824 922.258 473.812 926.969C489.517 939.324 518.062 957.241 539.188 954.188C539.356 950.168 540.313 934.259 539.25 930.188C538.978 929.145 537.296 929.256 536.25 929C525.066 926.27 513.789 924.541 503.281 919.312C486.85 911.137 472.348 899.418 458.156 887.781Z" fill="#ffffff" fill-rule="nonzero" opacity="1" stroke="none"/>
</g>
</svg>
