<?xml version="1.0" encoding="UTF-8" standalone="no"?>
<!DOCTYPE svg PUBLIC "-//W3C//DTD SVG 1.1//EN" "http://www.w3.org/Graphics/SVG/1.1/DTD/svg11.dtd">
<!-- Created with Vectornator (http://vectornator.io/) -->
<svg height="100%" stroke-miterlimit="10" style="fill-rule:nonzero;clip-rule:evenodd;stroke-linecap:round;stroke-linejoin:round;" version="1.1" viewBox="0 0 750 1000" width="100%" xml:space="preserve" xmlns="http://www.w3.org/2000/svg" xmlns:vectornator="http://vectornator.io" xmlns:xlink="http://www.w3.org/1999/xlink">
<defs/>
<g id="Layer-1" vectornator:layerName="Layer 1">
<path d="M500.675 242.353C494.49 242.346 487.711 243.2 481.488 243.822C474.163 243.844 464.232 246.685 456.863 248.791C441.31 253.235 426.677 258.94 411.738 264.916C398.535 270.197 386.282 277.792 373.081 283.072C359.284 288.591 341.167 300.555 325.894 298.01C313.488 295.942 303.282 281.717 296.019 273.416C285.047 284.388 281.35 300.015 288.706 314.728C288.413 315.021 288.406 315.029 288.113 315.322C281.977 309.186 271.546 305.966 263.519 303.291C238.196 294.85 209.286 295.828 187.331 311.51C180.703 316.244 174.518 321.83 169.769 328.478C167.319 331.909 165.374 336.967 162.425 339.916C160.201 342.14 154.265 343.402 151.3 344.885C145.107 347.981 139.404 352.198 134.019 356.603C127.131 362.239 119.254 372.474 109.988 374.791C107.486 375.416 94.5825 378.506 94.4564 378.885C93.5384 381.64 96.1019 386.014 97.1127 388.541C101.999 400.757 112.529 409.127 124.644 413.166C127.59 414.148 139.28 415.49 140.175 416.385C132.515 431.705 113.084 440.308 97.3939 444.791C91.5433 446.463 85.5376 447.99 79.5189 448.916C78.6995 449.042 75.2526 449.09 74.8314 450.353C74.309 451.921 77.4897 454.998 78.3627 455.947C82.8349 460.808 87.1373 464.606 92.7064 467.947C110.171 478.426 133.31 479.378 152.769 476.135C158.307 475.212 164.975 474.297 170.05 471.76C170.343 472.053 170.351 472.06 170.644 472.353C166.028 476.969 157.816 483.791 155.988 491.103C154.908 495.421 152.825 499.626 151.581 503.978C149.886 509.913 148.343 517.116 145.144 522.447C139.151 532.437 130.624 537.728 121.706 544.416C125.251 547.961 132.206 549.496 136.956 550.853C137.971 551.143 142.506 551.592 142.8 552.916C143.749 557.187 143.469 562.259 143.988 566.666C144.969 575.001 146.527 583.312 148.363 591.572C148.831 593.68 152.063 601.653 150.706 603.01C140.809 598.06 131.224 598.01 119.956 598.01C118.974 598.01 117.508 598.5 117.019 599.478C116.191 601.134 121.307 606.801 122.3 608.291C127.101 615.492 130.72 624.367 132.269 632.885C134.203 643.522 135.466 654.475 137.238 665.103C141.224 689.025 161.862 713.26 185.863 717.26C192.212 718.318 198.238 718.522 204.613 717.541C212.133 716.384 220.131 713.979 226.019 709.072C226.312 709.365 226.288 709.342 226.581 709.635C218.495 725.807 203.127 730.386 189.394 739.541C196.252 747.542 207.675 751.666 217.519 754.478C219.382 755.011 222.922 756.508 224.55 756.51C227.272 756.652 236.854 757.891 239.894 757.603C245.845 757.04 252.896 755.461 259.331 750.635C269.717 742.846 278.365 734.221 286.738 727.447C295.174 720.622 302.904 715.907 311.3 714.041C315.341 713.143 320.994 713.147 328.144 712.916C337.821 712.604 350.461 717.755 364.3 723.291C384.429 731.342 406.077 739.628 430.644 741.322C509.078 746.732 577.639 694.386 618.488 637.197C630.141 620.883 641.016 602.424 647.738 582.26C649.345 577.438 653.508 564.481 653.519 564.447L659.925 544.353L638.8 544.885C638.8 544.885 635.149 544.954 634.581 544.947C627.997 544.863 621.236 544.672 614.269 544.635C584.531 544.475 525.153 544.353 525.144 544.353L515.8 544.322L511.675 552.697C511.675 552.697 509.952 556.176 509.675 556.728C507.73 560.62 506.071 563.956 504.331 566.853C499.346 575.162 493.377 582.496 486.113 589.76C476.583 599.289 462.672 601.479 443.988 601.478C438.585 601.478 431.229 599.003 424.238 594.385C417.332 589.822 411.344 583.522 408.206 578.291C397.956 561.207 397.144 541.14 397.144 516.291C397.144 506.762 401.061 494.816 404.8 481.728C416.717 440.019 451.035 394.715 489.706 383.666C503.329 379.774 515.777 380.452 524.456 384.478C532.809 388.354 539.132 395.313 541.394 408.885C542.385 414.831 542.453 421.055 541.456 426.041C540.901 428.816 540.361 433.68 540.331 433.916L538.456 448.666L553.206 450.666C553.489 450.704 554.941 450.968 557.394 451.01C562.425 451.095 567.649 451.259 573.081 451.291C600.962 451.456 656.634 451.603 656.644 451.603L667.956 451.635L671.081 440.76C671.217 440.29 672.345 437.032 672.894 434.01C673.789 429.087 674.753 423.562 674.894 417.322C675.114 407.637 675.667 397.651 674.55 386.478C672.962 370.602 667.701 345.952 655.769 330.041C654.464 328.301 652.563 323.41 648.081 317.135C640.496 306.515 631.987 296.096 621.519 286.791C588.483 257.425 544.151 242.407 500.675 242.353ZM500.644 257.353C540.767 257.403 581.605 271.392 611.55 298.01C620.869 306.294 628.661 315.772 635.863 325.853C638.826 330.002 640.75 335.016 643.769 339.041C652.558 350.76 658.209 373.94 659.613 387.978C660.587 397.721 660.121 407.003 659.894 416.978C659.784 421.845 659.011 426.554 658.144 431.322C658.045 431.865 656.675 436.603 656.675 436.603C656.675 436.603 601.007 436.456 573.175 436.291C567.999 436.26 562.82 436.097 557.644 436.01C556.638 435.993 555.206 435.791 555.206 435.791C555.206 435.791 555.901 430.351 556.175 428.978C557.638 421.662 557.397 413.746 556.175 406.416C550.187 370.489 517.967 359.975 485.581 369.228C439.681 382.343 403.241 432.528 390.363 477.603C386.825 489.984 382.144 503.273 382.144 516.291C382.144 540.952 382.518 564.654 395.331 586.01C404.388 601.105 425.114 616.478 443.988 616.478C463.102 616.478 482.449 614.611 496.706 600.353C504.621 592.44 511.477 584.122 517.206 574.572C519.387 570.938 521.188 567.235 523.081 563.447C523.405 562.802 525.113 559.353 525.113 559.353C525.113 559.353 584.488 559.475 614.175 559.635C620.914 559.671 627.656 559.861 634.394 559.947C635.696 559.964 639.238 559.853 639.238 559.853C639.238 559.853 635.059 572.888 633.519 577.51C627.472 595.647 617.376 612.929 606.269 628.478C567.059 683.374 502.515 731.239 431.675 726.353C409.915 724.853 389.847 717.347 369.863 709.353C356.721 704.097 342.103 697.451 327.675 697.916C321.149 698.126 314.466 697.959 308.05 699.385C284.521 704.613 268.812 724.774 250.331 738.635C243.806 743.529 233.335 743.291 226.019 742.166C223.35 741.755 218.854 741.425 217.206 739.228C220.436 736.537 224.434 734.938 227.456 731.916C231.397 727.977 233.918 723.623 237.144 719.322C239.773 715.817 241.103 710.737 242.706 706.728C247.159 695.594 250.618 683.722 258.238 674.197C262.869 668.408 269.901 662.647 276.675 659.26C279.784 657.706 287.558 655.997 289.3 653.385C283.077 647.161 267.628 649.737 260.581 650.478C247.28 651.879 234.553 653.92 221.019 652.228C215.633 651.555 210.908 649.099 205.8 647.822C200.651 646.535 193.509 641.124 189.956 637.572C173.97 621.585 164.627 604.192 159.206 582.51C157.755 576.705 157.457 570.581 157.144 564.635C157.119 564.156 155.95 557.922 157.456 556.416C175.218 577.729 193.658 588.073 222.769 581.603C232.575 579.424 241.115 574.165 250.331 570.478C257.494 567.613 264.348 564.975 271.988 563.447C273.422 563.16 278.642 563.3 279.019 561.416C279.412 559.451 276.439 558.322 274.925 557.01C270.573 553.238 265.274 550.905 259.988 548.791C249.804 544.717 236.849 545.051 227.456 539.416C214.383 531.572 203.383 516.191 187.05 517.447C183.862 517.692 180.771 519.914 178.55 522.135C173.222 527.464 168.167 534.529 161.269 537.978C158.569 539.329 150.482 542.72 148.675 540.01C160.393 531.222 161.643 517.873 165.363 504.853C166.159 502.064 167.617 499.398 168.3 496.666C170.711 487.019 181.917 479.901 190.55 476.447C206.175 470.197 224.611 478.528 239.175 484.353C242.078 485.514 254.283 491.214 256.175 489.322C247.978 483.857 241.198 476.204 234.8 468.822C226.802 459.594 217.907 445.978 204.019 445.978C198.013 445.978 190.535 445.991 184.706 448.322C169.022 454.596 156.12 465.01 138.113 465.01C128.732 465.01 112.877 464.399 105.3 456.822C107.716 454.406 113.139 454.012 116.425 452.697C122.597 450.229 128.778 447.329 134.019 443.041C141.951 436.55 148.176 428.291 155.394 421.072C170.991 405.475 186.587 396.447 209.3 396.447C217.783 396.447 226.657 396.62 235.081 397.916C247.482 399.824 259.404 405.325 271.425 408.76C275.281 409.861 287.463 413.503 289.863 411.103C279.069 401.852 268.632 392.386 259.706 381.228C248.227 366.88 239.147 351.379 224.238 340.197C217.402 335.071 205.758 335.111 198.175 335.51C189.909 335.945 183.524 340.804 176.488 344.322C175.12 342.27 181.423 335.574 182.925 334.072C200.376 316.622 219.966 308.764 245.331 312.666C270.95 316.607 291.954 335.721 315.644 345.197C321.411 347.504 327.714 348.865 333.831 349.885C335.847 350.22 339.58 351.449 341.144 349.885C337.005 346.78 332.18 344.683 327.956 341.666C318.874 335.179 308.831 325.196 304.519 314.416C303.248 311.242 298.104 300.331 300.425 298.01C314.275 314.167 329.098 314.947 349.331 309.166C378.958 300.701 405.519 283.066 434.019 271.666C449.67 265.405 466.667 259.851 483.519 258.166C489.188 257.599 494.912 257.346 500.644 257.353ZM182.081 350.978C184.141 350.885 186.211 350.892 188.269 351.01C201.989 351.797 215.48 357.196 226.019 365.978C229.775 369.107 235.055 372.956 237.144 377.135C235.77 378.508 229.731 376.274 227.769 375.947C220.81 374.787 213.766 374.877 206.956 376.822C194.07 380.504 184.502 391.492 172.113 396.447C160.98 400.9 149.843 401.29 137.831 400.853C128.758 400.523 115.474 395.389 111.175 386.791C112.808 385.158 116.839 384.414 119.081 383.853C122.535 382.99 126.501 380.031 129.331 378.01C140.623 369.944 150.903 360.05 163.894 354.853C169.76 352.507 175.902 351.26 182.081 350.978ZM189.331 532.478C191.922 532.585 194.895 533.715 199.644 537.166C204.912 540.994 211.153 547.139 219.738 552.291C226.605 556.412 233.344 557.92 239.05 559.072C231.304 562.517 224.839 565.764 219.519 566.947C207.281 569.667 198.956 568.71 191.706 565.635C185.046 562.809 178.413 557.454 171.238 549.322C180.356 543.686 185.72 536.153 189.144 532.728C189.287 532.586 189.277 532.566 189.331 532.478ZM141.644 614.416C165.005 625.803 169.413 659.241 195.238 665.697C212.903 670.114 227.977 659.121 244.769 656.322C247.193 655.918 260.439 655.586 263.519 658.666C257.185 663.733 250.024 667.161 244.175 673.01C225.503 691.682 214.382 709.747 186.175 703.478C158.205 697.263 148.658 661.724 146.331 637.291C145.764 631.322 144.685 625.944 142.8 620.291C142.266 618.687 140.302 615.758 141.644 614.416Z" fill="#ffffff" fill-rule="nonzero" opacity="1" stroke="none"/>
</g>
</svg>
