<?xml version="1.0" encoding="UTF-8" standalone="no"?>
<!DOCTYPE svg PUBLIC "-//W3C//DTD SVG 1.1//EN" "http://www.w3.org/Graphics/SVG/1.1/DTD/svg11.dtd">
<!-- Created with Vectornator (http://vectornator.io/) -->
<svg height="100%" stroke-miterlimit="10" style="fill-rule:nonzero;clip-rule:evenodd;stroke-linecap:round;stroke-linejoin:round;" version="1.1" viewBox="0 0 900 900" width="100%" xml:space="preserve" xmlns="http://www.w3.org/2000/svg" xmlns:vectornator="http://vectornator.io" xmlns:xlink="http://www.w3.org/1999/xlink">
<defs/>
<g id="Layer-1" vectornator:layerName="Layer 1">
<path d="M120.75 381.438C83.2856 381.438 53.0312 412.216 53.0312 450.031C53.0312 487.857 83.2956 518.562 120.75 518.562C144.806 518.562 165.621 505.695 177.594 486.688L180.312 482.406L175.969 479.75C169.976 476.118 158.289 469.03 152 465.219C151.982 465.199 151.953 465.172 151.938 465.156L147.375 460.312L143.969 466.031C138.477 475.305 129.675 481.406 119.438 481.406C103.278 481.406 89.5937 467.235 89.5938 449.094C89.5938 430.97 103.27 416.813 119.438 416.812C129.027 416.812 137.294 422.054 142.906 430.281L146.312 435.281L150.438 431.125C156.075 426.8 166.938 418.469 172.438 414.25L176.5 411.156L173.312 407.156C160.949 391.634 142.111 381.438 120.75 381.438ZM411.25 381.438C373.786 381.438 343.531 412.216 343.531 450.031C343.531 487.857 373.795 518.562 411.25 518.562C435.306 518.562 456.12 505.695 468.094 486.688L470.812 482.406L466.469 479.75C460.437 476.094 448.6 468.917 442.344 465.125C442.325 465.106 442.297 465.078 442.281 465.062L437.719 460.5L434.438 466.031C428.942 475.311 420.172 481.406 409.938 481.406C393.774 481.406 380.063 467.229 380.062 449.094C380.062 430.976 393.766 416.813 409.938 416.812C419.527 416.812 427.794 422.054 433.406 430.281L436.812 435.281L440.938 431.125C446.575 426.8 457.438 418.469 462.938 414.25L467 411.156L463.812 407.156C451.449 391.634 432.611 381.438 411.25 381.438ZM779.281 381.438C774.135 381.438 769.186 382.076 764.438 383.156C762.84 383.526 761.905 383.98 761.5 384.094C757.706 385.144 753.926 386.462 750.281 388.219L750.25 388.219C749.115 388.775 748.506 389.241 748.312 389.344C744.611 391.286 741.086 393.541 737.781 396.156L737.75 396.156C737.125 396.656 736.696 397.073 736.375 397.344L736.375 397.312C732.927 400.195 729.805 403.428 727 406.906C727 406.906 727.514 406.2 726.75 407.156C717.397 418.89 711.594 433.694 711.594 450.031C711.594 475.129 725.008 496.885 744.844 508.812C745.669 509.317 746.422 509.733 747.125 510.125L747.156 510.125C751.026 512.248 755.079 513.857 759.188 515.156C760.22 515.487 761.472 515.973 763.062 516.375C768.159 517.65 773.547 518.563 779.281 518.562C785.033 518.562 790.429 517.666 795.562 516.375L795.594 516.375C797.075 515.997 798.196 515.565 799.094 515.281C803.329 513.964 807.453 512.294 811.406 510.125L811.438 510.125C812.138 509.734 812.894 509.286 813.719 508.781C833.545 496.852 846.969 475.123 846.969 450.031C846.969 433.695 841.167 418.891 831.812 407.156C831.044 406.192 831.562 406.906 831.562 406.906C828.757 403.427 825.636 400.195 822.188 397.312L822.188 397.344C821.869 397.075 821.44 396.657 820.812 396.156L820.781 396.156C817.463 393.531 813.91 391.28 810.219 389.344C810.026 389.241 809.415 388.775 808.281 388.219C804.648 386.466 800.862 385.146 797.062 384.094C796.655 383.979 795.72 383.525 794.125 383.156L794.094 383.156C789.347 382.076 784.429 381.438 779.281 381.438ZM650.969 381.906C613.499 381.906 583.281 412.722 583.281 450.531C583.281 488.459 613.97 518.164 651.312 518.094C682.746 518.034 702.897 499.481 703.25 499.156L704.938 497.625L704.875 495.344C704.531 480.969 703.844 452.219 703.5 437.844L703.375 432.969L698.5 432.969C693.703 432.969 686.321 432.969 679.312 432.969L680.562 431.719C686.171 427.408 697.157 418.969 702.688 414.719L706.719 411.625L703.531 407.625C691.168 392.103 672.33 381.906 650.969 381.906ZM120.75 386.438C140.477 386.438 157.909 395.846 169.406 410.281L147.125 427.375L147.031 427.469C140.7 418.188 130.987 411.812 119.438 411.812C100.216 411.813 84.5938 428.495 84.5938 449.094C84.5937 469.693 100.216 486.406 119.438 486.406C131.809 486.406 142.109 479.016 148.281 468.594L148.781 469.125L173.375 484.031C162.242 501.704 142.969 513.562 120.75 513.562C86.1109 513.562 58.0312 485.148 58.0312 450.031C58.0313 414.915 86.1109 386.438 120.75 386.438ZM411.25 386.438C430.977 386.438 448.409 395.846 459.906 410.281L437.625 427.375L437.531 427.469C431.2 418.188 421.487 411.812 409.938 411.812C390.716 411.813 375.062 428.495 375.062 449.094C375.062 469.693 390.716 486.406 409.938 486.406C422.309 486.406 432.578 479.016 438.75 468.594L439.281 469.125L463.875 484.031C452.742 501.704 433.469 513.562 411.25 513.562C376.611 513.562 348.531 485.148 348.531 450.031C348.531 414.915 376.611 386.438 411.25 386.438ZM779.281 386.438C784.015 386.437 788.566 387.023 793 388.031C793.937 388.248 794.798 388.647 795.719 388.906C799.302 389.899 802.797 391.129 806.094 392.719C806.713 393.022 807.267 393.426 807.875 393.75C811.342 395.566 814.635 397.647 817.688 400.062C818.13 400.416 818.536 400.791 818.969 401.156C822.153 403.818 825.044 406.791 827.656 410.031C827.731 410.125 827.832 410.188 827.906 410.281C836.614 421.206 841.969 434.896 841.969 450.031C841.969 473.314 829.537 493.469 811.125 504.531C810.427 504.958 809.715 505.351 809 505.75C805.398 507.726 801.577 509.261 797.594 510.5C796.506 510.844 795.457 511.247 794.344 511.531C789.484 512.754 784.515 513.562 779.281 513.562C774.076 513.563 769.117 512.741 764.281 511.531C763.05 511.22 761.92 510.791 760.719 510.406C756.828 509.178 753.087 507.684 749.562 505.75C748.845 505.349 748.138 504.959 747.438 504.531C729.025 493.469 716.594 473.314 716.594 450.031C716.594 434.896 721.948 421.206 730.656 410.281C730.732 410.186 730.83 410.126 730.906 410.031C733.519 406.792 736.409 403.818 739.594 401.156C740.027 400.791 740.432 400.416 740.875 400.062C743.928 397.647 747.189 395.567 750.656 393.75C751.264 393.427 751.818 393.022 752.438 392.719C755.734 391.129 759.261 389.899 762.844 388.906C763.764 388.647 764.625 388.248 765.562 388.031C769.996 387.022 774.547 386.438 779.281 386.438ZM554.031 386.594L550.188 386.656C538.328 386.891 514.609 387.359 502.75 387.594L499.094 387.656L498.062 391.188C489.953 418.719 473.734 473.781 465.625 501.312L464.125 506.406L469.281 507.594C475.391 509 487.609 511.813 493.719 513.219L497.969 514.188L499.531 510.094C501.503 504.868 504.981 495.614 507.406 489.188C517.975 489 533.781 488.72 544.438 488.531C546.738 495.167 550.017 504.609 551.875 509.969L553.375 514.312L557.812 513.188C564.219 511.57 577.031 508.336 583.438 506.719L588.469 505.469L587.031 500.469C579.047 472.914 563.078 417.805 555.094 390.25L554.031 386.594ZM650.969 386.906C670.695 386.906 688.128 396.315 699.625 410.75L677.344 427.875L677.25 427.969C670.919 418.688 661.205 412.281 649.656 412.281C630.435 412.281 614.812 428.995 614.812 449.594C614.812 470.193 632.998 485.49 652.219 485.438C669.155 485.391 672.375 480.281 672.375 480.281L672.281 463.375L645.375 463.031L645.25 437.969L698.5 437.969L699.875 495.469C699.875 495.469 680.742 513.038 651.312 513.094C616.674 513.159 588.281 485.648 588.281 450.531C588.281 415.415 616.33 386.906 650.969 386.906ZM300.312 387.5L300.312 392.5C300.312 421.25 300.312 478.75 300.312 507.5L300.312 512.5L305.312 512.5C311.711 512.5 324.508 512.5 330.906 512.5L335.906 512.5L335.906 507.5C335.906 478.75 335.906 421.25 335.906 392.5L335.906 387.5L330.906 387.5C324.508 387.5 311.711 387.5 305.312 387.5L300.312 387.5ZM181.562 387.531L181.562 392.531C181.562 402.641 181.562 422.859 181.562 432.969C181.562 439.375 181.562 452.188 181.562 458.594C181.562 470.812 181.562 495.25 181.562 507.469L181.562 512.469L186.562 512.469C192.945 512.469 205.711 512.469 212.094 512.469L217.094 512.469L217.094 507.469C217.094 496.5 217.094 476.577 217.094 463.594C227.181 463.594 240.538 463.594 250.625 463.594C250.625 476.577 250.625 496.5 250.625 507.469L250.625 512.469L255.625 512.469C262.031 512.469 274.844 512.469 281.25 512.469L286.25 512.469L286.25 507.469C286.25 495.25 286.25 470.812 286.25 458.594C286.25 452.188 286.25 439.375 286.25 432.969C286.25 422.859 286.25 402.641 286.25 392.531L286.25 387.531L281.25 387.531C274.844 387.531 262.031 387.531 255.625 387.531L250.625 387.531L250.625 392.531C250.625 401.391 250.625 417.189 250.625 427.969C240.538 427.969 227.181 427.969 217.094 427.969C217.094 417.189 217.094 401.391 217.094 392.531L217.094 387.531L212.094 387.531C205.711 387.531 192.945 387.531 186.562 387.531L181.562 387.531ZM550.281 391.656L582.219 501.875L556.594 508.344L547.969 483.469L503.938 484.25L494.844 508.344L470.406 502.719L502.844 392.594L550.281 391.656ZM305.312 392.5L330.906 392.5L330.906 507.5L305.312 507.5L305.312 392.5ZM186.562 392.531L212.094 392.531L212.094 432.969L255.625 432.969L255.625 392.531L281.25 392.531L281.25 432.969L281.25 458.594L281.25 507.469L255.625 507.469L255.625 458.594L212.094 458.594L212.094 507.469L186.562 507.469L186.562 458.594L186.562 432.969L186.562 392.531ZM779.281 413.438C776.559 413.438 773.893 413.795 771.344 414.375C770.805 414.5 770.342 414.726 769.812 414.875C767.752 415.446 765.771 416.179 763.875 417.094C763.519 417.268 763.193 417.502 762.844 417.688C760.85 418.732 758.974 419.861 757.219 421.25C756.964 421.454 756.687 421.727 756.438 421.938C754.606 423.468 752.94 425.199 751.438 427.062C751.394 427.117 751.387 427.07 751.344 427.125C746.336 433.408 743.25 441.328 743.25 450.031C743.25 463.42 750.38 475.013 760.969 481.375C761.371 481.621 761.744 481.832 762.156 482.062C764.183 483.175 766.388 484.075 768.625 484.781C769.316 485.003 769.979 485.196 770.688 485.375C773.468 486.071 776.288 486.562 779.281 486.562C782.291 486.562 785.174 486.078 787.969 485.375C788.609 485.212 789.218 484.979 789.844 484.781C792.134 484.069 794.335 483.199 796.406 482.062C796.818 481.833 797.192 481.62 797.594 481.375C808.182 475.014 815.312 463.42 815.312 450.031C815.313 441.327 812.227 433.407 807.219 427.125C807.176 427.071 807.168 427.116 807.125 427.062C805.623 425.199 803.925 423.468 802.094 421.938C801.845 421.727 801.598 421.453 801.344 421.25C799.588 419.861 797.713 418.732 795.719 417.688C795.369 417.501 795.044 417.268 794.688 417.094C792.792 416.18 790.779 415.446 788.719 414.875C788.189 414.726 787.726 414.5 787.188 414.375C784.638 413.795 782.003 413.437 779.281 413.438ZM531.812 413.562L522.094 413.906L508.875 460.875L542.844 461.031L531.812 413.562ZM649.656 417.281C659.236 417.281 667.508 422.547 673.125 430.781L674.625 432.969C663.649 432.969 652.594 432.969 645.25 432.969L640.219 432.969L640.25 438C640.281 444.266 640.344 456.797 640.375 463.062L640.406 467.969L645.312 468.031C650.812 468.102 660.172 468.221 667.312 468.312C667.332 471.853 667.358 475.32 667.375 478.344C666.242 479.17 662.989 480.408 652.219 480.438C635.459 480.484 619.813 467.072 619.812 449.594C619.812 431.466 633.495 417.281 649.656 417.281ZM779.281 418.438C781.564 418.437 783.836 418.736 786.094 419.25C786.103 419.256 786.307 419.386 787.375 419.688C789.18 420.188 790.908 420.826 792.5 421.594C792.5 421.594 792.633 421.699 793.375 422.094L793.406 422.125C795.232 423.081 796.822 424.026 798.25 425.156C798.252 425.16 798.268 425.238 798.875 425.75L798.875 425.781C800.45 427.097 801.922 428.579 803.219 430.188L803.406 430.438L803.469 430.5L803.5 430.531C807.732 435.952 810.313 442.65 810.312 450.031C810.312 461.601 804.181 471.597 795.031 477.094L795 477.094C794.694 477.281 794.384 477.473 794 477.688C792.296 478.623 790.401 479.36 788.344 480C787.547 480.252 787.029 480.458 786.75 480.531C784.215 481.169 781.752 481.563 779.281 481.562C776.84 481.562 774.458 481.169 771.906 480.531C771.311 480.381 770.768 480.227 770.156 480.031L770.125 480.031L770.125 480C768.151 479.377 766.247 478.612 764.562 477.688C764.179 477.473 763.871 477.282 763.562 477.094L763.531 477.094C754.383 471.597 748.25 461.601 748.25 450.031C748.25 442.625 750.835 435.9 755.094 430.469L755.156 430.438L755.344 430.188C756.662 428.552 758.103 427.079 759.656 425.781L759.656 425.75C760.109 425.368 760.302 425.167 760.312 425.156C761.741 424.026 763.33 423.082 765.156 422.125L765.188 422.094C765.932 421.698 766.062 421.594 766.062 421.594C767.674 420.817 769.364 420.184 771.156 419.688C772.25 419.379 772.469 419.25 772.469 419.25C774.717 418.738 776.997 418.438 779.281 418.438ZM527.875 418.719C530.378 429.487 533.876 444.576 536.531 456C529.666 455.968 522.376 455.938 515.469 455.906C518.688 444.466 522.931 429.353 525.906 418.781C526.629 418.756 527.142 418.745 527.875 418.719Z" fill="#cf0a2c" fill-rule="nonzero" opacity="1" stroke="none" vectornator:layerName="Curve 1"/>
</g>
</svg>
