<?xml version="1.0" encoding="UTF-8" standalone="no"?>
<!DOCTYPE svg PUBLIC "-//W3C//DTD SVG 1.1//EN" "http://www.w3.org/Graphics/SVG/1.1/DTD/svg11.dtd">
<!-- Created with Vectornator (http://vectornator.io/) -->
<svg height="100%" stroke-miterlimit="10" style="fill-rule:nonzero;clip-rule:evenodd;stroke-linecap:round;stroke-linejoin:round;" version="1.1" viewBox="0 0 750 1000" width="100%" xml:space="preserve" xmlns="http://www.w3.org/2000/svg" xmlns:vectornator="http://vectornator.io" xmlns:xlink="http://www.w3.org/1999/xlink">
<defs/>
<g id="Layer-1" vectornator:layerName="Layer 1">
<path d="M374 239.156C368.792 239.052 363.115 239.208 356.969 239.625C350.823 240.042 343.844 240.771 336.031 241.813C328.219 242.854 319.052 242.958 308.531 242.125C298.01 241.292 289.625 240.979 283.375 241.188C277.125 241.396 272.75 241.708 270.25 242.125C267.75 242.542 264.938 243.219 261.813 244.156C258.687 245.094 256.083 246.031 254 246.969C251.917 247.906 249.625 249.208 247.125 250.875C244.625 252.542 241.969 254.937 239.156 258.063C236.344 261.188 234.521 263.479 233.688 264.938C232.854 266.396 231.969 268.375 231.031 270.875C230.094 273.375 229.417 275.667 229 277.75C228.583 279.833 228.375 282.49 228.375 285.719C228.375 288.948 228.74 291.969 229.469 294.781C230.198 297.594 224.208 303.479 211.5 312.438C198.792 321.396 187.177 330.042 176.656 338.375C166.135 346.708 158.01 353.427 152.281 358.531C146.552 363.635 141.969 367.906 138.531 371.344C135.094 374.781 132.073 378.01 129.469 381.031C126.865 384.052 124.833 386.604 123.375 388.688C121.917 390.771 120.615 393.167 119.469 395.875C118.323 398.583 117.802 400.771 117.906 402.438C118.01 404.104 118.531 407.281 119.469 411.969C120.406 416.656 120.875 420.042 120.875 422.125C120.875 424.208 120.51 426.552 119.781 429.156C119.052 431.76 117.177 435.927 114.156 441.656C111.135 447.385 105.719 456.24 97.9063 468.219C90.0938 480.198 85.1979 488.01 83.2188 491.656C81.2396 495.302 79.5729 498.844 78.2188 502.281C76.8646 505.719 75.9792 508.479 75.5625 510.563C75.1458 512.646 74.9896 514.781 75.0938 516.969C75.1979 519.156 75.5104 521.083 76.0313 522.75C76.5521 524.417 77.2813 525.979 78.2188 527.438C79.1563 528.896 80.3542 530.302 81.8125 531.656C83.2708 533.01 85.0417 534.26 87.125 535.406C89.2083 536.552 91.6042 537.542 94.3125 538.375C97.0208 539.208 99.4167 539.781 101.5 540.094C103.583 540.406 104.573 541.5 104.469 543.375C104.365 545.25 103.74 548.844 102.594 554.156C101.448 559.469 100.823 563.479 100.719 566.188C100.615 568.896 100.771 571.292 101.188 573.375C101.604 575.458 102.333 577.333 103.375 579C104.417 580.667 104.469 582.021 103.531 583.063C102.594 584.104 101.76 585.302 101.031 586.656C100.302 588.01 99.8333 589.937 99.625 592.438C99.4167 594.938 99.5208 596.865 99.9375 598.219C100.354 599.573 101.448 601.865 103.219 605.094C104.99 608.323 106.135 610.979 106.656 613.063C107.177 615.146 107.333 617.073 107.125 618.844C106.917 620.615 106.188 623.01 104.938 626.031C103.687 629.052 102.802 632.021 102.281 634.938C101.76 637.854 101.5 640.51 101.5 642.906C101.5 645.302 101.656 647.594 101.969 649.781C102.281 651.969 102.698 653.948 103.219 655.719C103.74 657.49 104.417 659.208 105.25 660.875C106.083 662.542 106.865 663.896 107.594 664.938C108.323 665.979 109.99 667.646 112.594 669.938C115.198 672.229 117.75 674 120.25 675.25C122.75 676.5 125.667 677.594 129 678.531C132.333 679.469 135.562 680.146 138.688 680.563C141.813 680.979 145.615 681.24 150.094 681.344C154.573 681.448 163.479 681.031 176.813 680.094C190.146 679.156 197.229 681.448 198.063 686.969C198.896 692.49 200.25 698.167 202.125 704C204 709.833 205.719 714.365 207.281 717.594C208.844 720.823 210.875 724.521 213.375 728.688C215.875 732.854 217.646 736.656 218.688 740.094C219.729 743.531 220.719 746.344 221.656 748.531C222.594 750.719 223.687 752.75 224.938 754.625C226.188 756.5 227.646 758.01 229.313 759.156C230.979 760.302 232.958 760.875 235.25 760.875C237.542 760.875 241.083 760.302 245.875 759.156C250.667 758.01 256.917 756.188 264.625 753.688C272.333 751.187 279.365 748.74 285.719 746.344C292.073 743.948 302.177 739.677 316.031 733.531C329.885 727.385 340.458 722.385 347.75 718.531C355.042 714.677 360.25 711.76 363.375 709.781C366.5 707.802 370.406 707.49 375.094 708.844C379.781 710.198 385.146 711.292 391.188 712.125C397.229 712.958 402.75 713.479 407.75 713.688C412.75 713.896 420.302 713.948 430.406 713.844C440.51 713.74 446.865 714.104 449.469 714.938C452.073 715.771 454.885 716.969 457.906 718.531C460.927 720.094 462.906 720.979 463.844 721.188C464.781 721.396 465.771 721.396 466.813 721.188C467.854 720.979 469.677 719.469 472.281 716.656C474.885 713.844 477.594 710.146 480.406 705.563C483.219 700.979 485.823 695.979 488.219 690.563C490.615 685.146 492.594 680.042 494.156 675.25C495.719 670.458 497.229 664.885 498.688 658.531C500.146 652.177 501.24 646.604 501.969 641.813C502.698 637.021 503.323 631.448 503.844 625.094C504.365 618.74 504.625 612.125 504.625 605.25C504.625 601.812 504.625 598.375 504.625 594.938C504.781 595.042 504.937 595.146 505.094 595.25C505.406 595.458 507.385 598.687 511.031 604.938C514.677 611.188 519.104 619.156 524.313 628.844C529.521 638.531 533.167 645.771 535.25 650.563C537.333 655.354 538.844 659.312 539.781 662.438C540.719 665.563 541.24 667.75 541.344 669C541.396 669.625 541.448 670.25 541.5 670.875C542.281 670.562 543.062 670.25 543.844 669.938C545.406 669.312 547.021 668.427 548.688 667.281C550.354 666.135 552.125 664.677 554 662.906C555.875 661.135 558.219 658.375 561.031 654.625C563.844 650.875 566.604 646.448 569.313 641.344C572.021 636.24 574.365 631.083 576.344 625.875C578.323 620.667 580.094 615.042 581.656 609C583.219 602.958 584.417 596.917 585.25 590.875C586.083 584.833 586.552 579.208 586.656 574C586.76 568.792 586.656 564.521 586.344 561.188C586.031 557.854 585.615 554.99 585.094 552.594C584.833 551.396 584.573 550.198 584.313 549C585.927 551.135 587.542 553.271 589.156 555.406C592.385 559.677 595.615 563.531 598.844 566.969C602.073 570.406 605.927 574 610.406 577.75C614.885 581.5 618.948 584.521 622.594 586.813C626.24 589.104 629.885 591.083 633.531 592.75C637.177 594.417 640.979 595.823 644.938 596.969C648.896 598.115 652.437 598.896 655.563 599.313C658.688 599.729 662.698 599.833 667.594 599.625C672.49 599.417 674.938 598.583 674.938 597.125C674.938 595.667 674.573 593.063 673.844 589.313C673.115 585.562 672.906 578.167 673.219 567.125C673.531 556.083 673.323 547.385 672.594 541.031C671.865 534.677 671.135 529.833 670.406 526.5C669.677 523.167 668.531 518.948 666.969 513.844C665.406 508.74 663.583 503.635 661.5 498.531C659.417 493.427 657.073 488.323 654.469 483.219C651.865 478.115 649.156 473.219 646.344 468.531C643.531 463.844 640.51 459.156 637.281 454.469C634.052 449.781 630.406 444.833 626.344 439.625C622.281 434.417 617.646 428.844 612.438 422.906C607.229 416.969 601.604 410.927 595.563 404.781C589.521 398.635 584.208 393.427 579.625 389.156C575.042 384.885 569 379.521 561.5 373.063C554 366.604 548.219 361.813 544.156 358.688C542.125 357.125 540.094 355.563 538.063 354C542.438 352.958 546.812 351.917 551.188 350.875C555.563 349.833 559.937 348.792 564.313 347.75C562.073 340.406 559.833 333.063 557.594 325.719C555.354 318.375 553.115 311.031 550.875 303.688C546.5 306.5 542.125 309.312 537.75 312.125C533.375 314.938 529 317.75 524.625 320.563C524.625 316.083 524.625 311.604 524.625 307.125C524.625 302.646 524.625 298.167 524.625 293.688C516.031 293.688 507.438 293.688 498.844 293.688C481.656 293.688 471.083 292.125 467.125 289C463.167 285.875 456.969 280.562 448.531 273.063C440.094 265.562 432.958 259.833 427.125 255.875C421.292 251.917 416.135 248.948 411.656 246.969C407.177 244.99 403.219 243.531 399.781 242.594C396.344 241.656 392.49 240.875 388.219 240.25C383.948 239.625 379.208 239.26 374 239.156ZM300.469 273.313C318.139 273.32 331.335 290.304 348.25 294.063C359.219 296.5 369.963 293.004 378.719 286.75C382.977 283.708 387.487 279.775 392.781 278.813C396.846 278.074 400.927 279.029 404.813 280C409.572 281.19 412.089 286.42 414.75 289.969C422.117 299.792 421.7 314.038 429.125 323.938C434.45 331.037 442.812 332.179 451.094 329.813C453.516 329.121 456.793 326.875 459.281 326.875C461.61 326.875 465.239 329.872 463.406 332.438C457.49 340.721 433.886 340.136 427.063 333.313C419.896 326.146 416.147 318.159 413 308.719C410.62 301.579 408.766 292.348 402.469 287.625C398.181 284.409 391.609 286.928 387.531 289.375C373.365 297.875 369.083 304.315 350.313 301.969C334.883 300.04 324.087 289.06 310.188 283.5C303.828 280.956 295.963 280.187 291.125 285.563C287.384 289.719 289.656 297.812 290.844 302.563C294.735 318.13 305.687 330.716 310.75 345.906C312.367 350.758 313.784 355.782 314.563 360.844C314.733 361.955 314.301 365.048 315.75 365.531C316.936 365.927 320.9 364.351 322.188 364.094C328.489 362.833 334.848 361.693 341.219 360.844C363.611 357.858 386.046 355.852 408.625 355C415.931 354.724 426.621 354.406 433.219 354.406C436.541 354.406 439.93 354.067 443.188 354.719C445.047 355.091 446.911 358.671 445.531 360.281C443.624 362.506 442.924 362.031 440.25 362.031C431.948 362.031 423.644 362.174 415.344 362.313C391.067 362.717 366.689 364.776 342.688 368.469C336.424 369.432 330.152 370.445 323.938 371.688C321.773 372.12 318.244 372.191 316.313 373.156C315.857 373.384 315.615 386.355 315.438 389.281C314.534 404.194 311.67 419.128 309 433.813C306.505 447.537 304.617 461.483 303.719 475.406C302.838 489.056 302.439 503.07 305.781 516.438C313.899 548.906 342.548 570.073 354.719 600.5C360.179 614.149 359.627 627.609 361.438 642.094C362.476 650.403 365.627 657.666 367.594 665.531C368.888 670.709 377.962 679.788 383.406 674.344C387.093 670.657 386.871 667.696 388.969 663.5C379.938 655.974 369.534 644.938 370.813 632.156C371.234 627.942 372.353 623.132 376.969 621.594C389.865 617.295 398.656 637.107 398.656 647.094C398.657 651.298 396.733 655.699 398.063 659.688C398.884 662.15 405.025 660.35 406.563 658.813C411.141 654.234 412.06 650.77 411.531 644.156C409.848 623.11 386.736 604.203 374.031 591.125C353.142 569.622 334.438 545.661 330.094 515.25C328.606 504.839 329.299 494.939 329.5 484.188C329.677 474.691 329.86 464.925 330.969 455.5C331.438 451.507 331.657 447.462 332.156 443.469C332.596 439.95 333.086 436.443 333.625 432.938C335.09 423.417 336.848 412.492 341.813 404.219C343.286 401.762 346.332 397.469 349.719 397.469C363.254 397.469 363.277 413.482 372.875 418.281C374.774 416.382 374.613 412.273 374.906 409.781C375.888 401.442 378.05 368.786 394.844 380.781C397.369 382.585 397.258 382.881 400.406 386.344C403.216 389.434 405.357 393.045 408.313 396C412.741 391.571 411.844 371.773 419.75 373.75C423.48 374.682 422.155 378.755 421.5 381.375C420.37 385.895 416.854 404.812 410.375 404.813C403.004 404.812 398.799 396.899 394.844 391.625C393.852 390.303 390.37 384.924 388.094 386.063C385.523 387.348 385.46 393.819 385.188 396C384.448 401.918 383.757 423.547 375.5 425.906C367.282 428.254 361.679 418.018 357.938 412.406C356.767 410.651 353.732 404.32 350.906 405.969C346.139 408.75 344.813 419.153 343.875 423.844C340.005 443.192 338.446 463.07 337.719 482.719C337.368 492.196 337.263 501.715 338.313 511.156C341.667 541.341 360.027 564.517 380.5 585.844C392.603 598.451 403.276 610.774 413.594 624.531C420.358 633.551 420.805 647.25 418.281 657.344C416.386 664.925 404.049 671.446 396.906 667.875C394.537 670.245 394.771 674.416 392.219 676.969C385.61 683.578 375.315 687.315 367.594 679.594C348.003 660.003 356.293 631.973 348.25 607.844C336.5 572.595 302.123 549.613 295.813 511.75C293.234 496.281 295.13 479.86 296.688 464.281C299.82 432.955 308.444 402.185 307.25 370.531C306.276 344.709 287.707 326.386 282.344 302.25C280.103 292.169 280.394 277.923 292.594 274.438C295.324 273.657 297.944 273.311 300.469 273.313ZM482.719 301.688C515.434 301.883 515.837 301.974 515.844 302.25C516.034 309.767 516.034 317.295 515.844 324.813C515.837 325.089 515.526 325.393 515.25 325.406C511.348 325.592 507.359 326.187 503.531 325.406C500.551 324.798 499.434 320.895 497.375 318.656C492.332 313.175 487.423 307.517 482.156 302.25C482.449 301.957 482.426 301.98 482.719 301.688ZM234 309C238.7 310.175 244.724 315.847 248.656 318.656C278.109 339.694 283.604 372.574 282.625 406.844C281.962 430.043 275.625 452.537 274.438 475.688C272.805 507.52 279.106 543.062 295.813 570.906C297.323 573.423 303.6 586.398 305.5 587.031C306.658 587.417 310.279 585.563 311.625 585.563C320.145 585.562 326.303 589.882 329.5 597.875C332.606 605.64 332.094 614.469 330.094 622.469C329.538 624.69 325.406 632.009 325.406 633.313C325.406 637.878 332.337 648.03 334.188 652.656C340.606 668.701 348.463 685.02 356.156 700.406C347.634 706.798 337.129 711.248 327.75 715.938C307.741 725.942 286.966 735.209 265.656 742.313C257.204 745.13 245.56 750.818 236.625 749.031C233.983 748.503 232.28 745.467 230.781 743.469C228.089 739.88 225.968 733.371 224.906 729.125C223.935 725.242 219.98 719.713 217.594 716.531C213.184 710.652 211.698 700.884 209.969 693.969C209.122 690.579 206.123 679.505 207.063 676.688C207.377 675.745 222.201 672.3 224.344 671.688C240.381 667.105 256.799 661.602 268.281 648.844C270.096 646.828 280.59 632.153 277.938 629.5C256.772 661.248 203.708 671.406 168.969 671.406C163.011 671.406 157.049 671.284 151.094 671.125C137.879 670.773 116.75 666.983 112.406 651.781C109.075 640.122 116.813 632.442 116.813 621.313C116.812 616.444 116.164 612.813 115.063 608.406C113.987 604.103 109.5 601.122 109.5 596.406C109.5 593.347 111.757 585.959 115.063 584.688C117.076 583.913 119.343 585.281 121.5 585.281C130.562 585.281 139.79 585.129 148.75 583.5C154.572 582.442 161.703 579.144 167.5 580.594C175.038 582.478 171.028 589.159 174.25 593.188C175.931 595.288 179.042 594.941 180.094 592.313C180.899 590.298 180.591 588.601 180.375 586.438C180 582.681 179.387 578.699 176.594 575.906C174.411 573.723 171.492 572.184 169.844 569.438C169.095 568.19 169.844 566.041 169.844 565.063C169.844 560.762 165.992 555.969 161.344 555.969C156.892 555.969 152.912 556.116 148.75 557.156C145.1 558.069 145.18 561.552 147.563 563.594C150.035 565.713 154.45 563.769 157.25 564.469C158.51 564.784 160.252 567.029 159 568.281C151.958 575.323 136.003 575.906 127.063 575.906C119.836 575.906 111.308 575.252 110.063 566.531C109.431 562.114 113.297 537.536 117.094 534.281C119.591 532.141 125.478 532.632 128.531 532.25C142.367 530.52 155.707 529.458 169.25 532.844C176.157 534.571 179.807 542.52 182.719 548.344C183.503 549.914 185.362 553.479 187.719 552.469C190.837 551.132 188.765 545.389 188 543.094C185.887 536.756 181.235 532.118 175.688 528.156C173.121 526.323 169.704 525.079 167.5 522.875C168.436 521.004 168.006 519.023 167.781 517C166.531 505.748 156.782 496.744 145.813 494.75C141.203 493.912 132.554 493.755 130.281 499.438C127.777 505.699 132.326 515.844 139.969 515.844C141.039 515.844 144.929 516.077 146.406 514.969C152.836 510.146 136.052 511.541 135.563 506.156C135.319 503.477 135.831 502.007 138.188 500.594C147.089 495.253 163.141 509.217 160.75 518.781C159.074 525.486 145.444 525.271 140.844 525.813C126.848 527.459 93.0011 537.003 86.0625 519.656C82.4693 510.673 89.3553 498.627 93.9688 490.938C101.667 478.108 110.581 465.99 118.281 453.156C122.893 445.469 128.209 437.487 130 428.531C131.596 420.553 127.375 413.717 127.375 405.969C127.375 396.871 133.818 387.807 139.969 381.656C153.648 367.977 168.186 355.736 183.625 344.156C195.887 334.96 208.372 326.002 221.125 317.5C222.76 316.41 233.131 308.783 234 309ZM545.719 316.906C547.142 315.894 547.631 320.018 548.063 321.313C548.955 323.992 554.714 340.549 552.75 341.531C548.307 343.753 541.495 343.949 536.625 345.031C535.313 345.323 531.988 346.822 530.781 346.219C529.058 345.357 528.417 340.033 527.844 338.313C527.384 336.932 525.012 331.656 525.813 330.375C526.44 329.371 528.592 328.418 529.594 327.75C534.68 324.359 540.765 320.429 545.719 316.906ZM504.125 332.438C511.115 332.198 516.527 336.239 519.344 343.281C522.818 351.967 515.907 364.969 505.875 364.969C483.089 364.969 481.378 333.218 504.125 332.438ZM482.438 347.375C488.35 346.905 480.161 360.231 478.031 363.781C467.934 380.61 460.235 399.39 454.031 418C445.663 443.105 438.964 468.585 433.219 494.438C431.147 503.758 429.364 513.169 427.656 522.563C426.925 526.584 426.856 531.313 424.719 534.875C421.432 540.352 414.502 544.689 409.781 548.938C401.117 556.735 391.46 567.777 381.938 574.125C378.279 576.564 372.537 562.605 371.125 559.781C366.708 550.948 362.04 542.236 357.625 533.406C356.269 530.694 352.656 526.566 352.656 523.469C352.656 518.467 354.964 514.747 356.75 510.281C362.298 496.411 369.865 482.673 377.563 469.844C396.487 438.303 417.27 407.855 443.469 381.656C451.605 373.52 460.121 365.592 468.969 358.219C473.324 354.589 476.799 347.823 482.438 347.375ZM525.219 349.719C543.821 363.67 562.087 378.681 578.531 395.125C613.521 430.115 651.098 471.516 663.5 521.125C667.398 536.717 668.308 551.449 667.875 567.688C667.661 575.72 665.066 586.039 668.781 593.469C668.317 593.933 668.073 594.344 667.313 594.344C662.075 594.344 657.135 594.202 652.063 593.188C632.941 589.363 616.274 577.761 603.156 563.594C581.647 540.364 565.24 511.762 552.813 482.531C552.936 482.966 553.034 483.408 553.156 483.844C553.007 483.31 552.838 482.783 552.688 482.25C551.676 479.864 550.488 477.517 549.531 475.125C545.722 465.604 543.69 455.351 539.875 445.813C536.042 436.23 532.863 426.392 529.031 416.813C527.669 413.408 523.75 407.548 523.75 403.938C523.75 403.571 523.616 403.157 523.594 402.781C520.858 396.344 518.128 389.897 515.531 383.406C514.929 381.902 509.235 369.156 508.813 369.063C509.63 368.04 513.125 367.203 514.094 366.719C514.146 366.771 514.139 366.852 514.188 366.906C518.173 363.688 521.547 359.21 523.469 354.406C524.049 352.956 524.163 350.774 525.219 349.719ZM486.25 359.969C487.697 359.268 489.595 363.127 490.344 364.375C490.744 365.043 488.814 369.339 488.594 370.219C486.862 377.146 486.25 384.821 486.25 391.906C486.25 427.089 486.993 462.261 489.188 497.375C491.118 528.263 494.636 558.935 498.25 589.656C501.636 618.434 497.439 647.526 488.313 674.906C484.879 685.206 480.582 695.423 474.531 704.5C472.487 707.566 468.565 714.101 464.281 711.531C457.339 707.366 452.029 696.777 449.031 689.281C440.429 667.775 435.193 645.578 432.625 622.469C430.371 602.179 430.183 581.969 431.156 561.531C433.595 510.333 444.567 456.115 463.688 408.313C468.529 396.209 473.111 384.215 478.938 372.563C480.999 368.439 482.087 361.985 486.25 359.969ZM494.438 367C495.13 367.346 499.437 368.792 499.625 369.313C498.231 371.182 498.706 379.143 498.563 381.375C497.864 392.196 497.234 403.03 497.094 413.875C496.94 425.788 496.782 437.711 496.781 449.625C496.781 510.109 509.331 590.063 550.688 638.313C554.041 634.959 555.419 629.468 557.156 625.125C563.54 609.165 565.072 591.081 565.656 574.125C566.463 550.74 563.462 527.27 558.281 504.156C563.344 512.013 566.97 521.012 571.781 529.031C573.654 532.152 578.594 537.299 579.125 540.75C579.864 545.554 580.281 550.84 580.281 555.688C580.281 563.012 580.163 570.333 580 577.656C579.477 601.212 572.687 624.981 560.656 645.031C556.976 651.166 551.094 660.062 544.844 663.188C542.708 661.051 542.228 655.647 541.031 652.656C537.603 644.086 534.105 635.144 529.313 627.156C523.756 617.896 518.747 608.297 513.188 599.031C511.01 595.402 505.891 590.164 505 586.156C502.804 576.274 502.737 565.446 501.188 555.375C496.34 523.868 492.406 492.136 492.406 460.188C492.406 438.8 492.422 417.38 493 396C493.102 392.213 493.415 382.146 493.563 378.156C493.613 376.78 493.203 368.234 494.438 367ZM512.625 391.625C517.058 393.255 521.057 406.018 522.563 409.781C529.568 427.295 536.234 444.859 542.219 462.813C543.998 468.15 545.643 473.532 547.188 478.938C547.68 480.661 549.476 483.961 548.063 485.375C541.484 482.086 535.021 478.312 528.719 474.531C527.002 473.501 523.328 472.463 522.281 470.719C520.523 467.787 520.742 461.804 520.219 458.406C518.415 446.685 516.606 434.949 514.656 423.25C513.421 415.838 512.391 408.411 511.156 401C510.62 397.783 508.997 393.439 512.625 391.625ZM504.125 393.969C509.25 395.946 508.768 405.95 509.406 409.781C511.86 424.508 513.983 439.304 516.438 454.031C516.763 455.983 519.369 469.556 518.781 470.438C515.22 475.78 507.814 480.217 503.25 484.781C501.313 482.844 501.939 475.383 501.781 472.781C500.81 456.763 500.585 440.764 500.906 424.719C501.008 419.641 501.064 414.578 501.188 409.5C501.269 406.178 499.442 396.31 504.125 393.969ZM518.781 475.125C521.223 476.753 522.871 494.675 523.469 498.563C523.68 499.934 525.557 506.076 524.625 507.063C519.362 512.635 513.639 517.736 508.219 523.156C505.507 520.445 504.336 501.822 503.813 497.375C503.564 495.26 502.501 491.529 503.25 489.469C503.417 489.01 504.04 488.917 504.406 488.594C509.319 484.26 514.15 479.756 518.781 475.125ZM523.75 475.688C531.492 479.412 538.264 483.459 544.844 487.406C546.678 488.507 549.499 489.318 550.688 491.219C553.863 496.3 555.335 509.988 556.563 516.125C556.951 518.069 556.866 520.858 557.719 522.563C556.24 523.548 546.181 517.171 543.969 515.844C540.39 513.696 529.819 509.317 527.844 506.156C525.515 502.43 525.889 494.108 525.219 489.75C524.782 486.908 521.689 477.748 523.75 475.688ZM529.313 511.438C537.181 515.225 543.988 519.449 550.688 523.469C552.544 524.583 557.642 526.191 558.625 528.156C560.973 532.851 560.479 541.168 560.969 546.313C561.402 550.864 562.953 557.093 561.844 561.531C561.452 563.098 551.971 557.332 550.688 556.563C547.523 554.664 535.665 549.954 534.281 547.188C533.377 545.379 533.46 542.165 533.125 540.156C531.988 533.332 530.958 526.494 529.906 519.656C529.565 517.437 529.684 513.962 528.719 512.031C529.012 511.738 529.02 511.73 529.313 511.438ZM524.906 511.75C527.288 514.131 527.057 521.338 527.563 524.625C528.663 531.779 531.96 541.163 531.063 548.344C530.792 550.51 519.99 562.353 517.875 564.469C515.991 562.584 515.691 558.496 514.969 555.969C512.556 547.526 508.5 536.954 508.5 528.156C508.5 525.118 512.801 523.816 514.969 521.688C518.319 518.398 521.586 515.07 524.906 511.75ZM536.344 552.75C542.912 556.836 549.569 559.941 555.688 563C556.644 563.478 561.791 565.634 561.844 566.813C562.013 570.62 561.581 579.136 561.25 584.094C561.087 586.539 560.298 600.853 558.625 601.969C553.836 598.377 548.544 594.135 544.563 589.656C543.774 588.769 543.655 586.684 543.375 585.563C541.766 579.128 540.296 572.653 538.688 566.219C538.029 563.583 534.381 554.712 536.344 552.75ZM531.656 553.344C534.449 556.137 534.79 563.565 535.75 567.406C537.506 574.429 541.313 583.364 541.313 590.531C541.313 592.083 534.704 603.015 533.406 604.313C528.254 599.161 524.77 585.174 522 578.25C521.111 576.029 518.387 570.928 519.063 568.563C519.971 565.382 529.033 555.967 531.656 553.344ZM543.656 593.781C547.971 596.658 555.724 601.844 558.313 606.375C558.817 607.258 557.105 611.487 556.844 612.531C555.524 617.81 554.036 627.37 550.125 631.281C545.185 625.518 537.909 616.601 535.469 609.281C535.048 608.019 542.307 595.13 543.656 593.781ZM232.531 324.531C229.138 324.192 226.92 327.005 224.344 328.938C218.297 333.472 210.928 337.666 205.594 343C201.854 346.739 211.651 352.494 213.5 354.125C220.157 359.999 226.014 366.639 232.25 372.875C235.183 375.808 238.094 371.433 238.094 368.781C238.094 367.534 234.653 364.493 234.281 364.094C231.833 361.464 229.51 358.697 226.969 356.156C223.155 352.342 219.11 348.795 214.969 345.344C216.159 344.154 218.267 341.949 219.938 341.531C220.493 341.392 230.506 350.419 231.656 351.469C242.14 361.041 251.28 371.686 261.25 381.656C264.026 384.432 267.061 379.74 266.813 377.25C266.596 375.086 257.595 366.332 256.281 364.969C252.304 360.841 248.303 356.709 244.25 352.656C238.709 347.115 232.71 341.863 226.688 336.844C227.217 336.137 230.277 332.665 231.375 333.031C235.9 334.539 241.559 341.076 244.844 344.156C246.91 346.093 248.997 348.029 251 350.031C253.752 352.784 256.216 357.424 260.063 352.938C261.997 350.681 259.472 348.302 258.031 346.781C255.134 343.723 252.229 340.698 249.25 337.719C247.364 335.833 235.459 324.824 232.531 324.531ZM505.875 338.219C504.745 338.064 503.571 338.115 502.375 338.313C488.385 340.621 491.702 359.094 506.156 359.094C512.669 359.094 515.726 349.611 513.781 344.75C512.198 340.793 509.266 338.684 505.875 338.219ZM514.188 366.906C514.153 366.934 514.128 366.973 514.094 367C516.191 371.195 516.558 377.328 517.875 381.938C519.684 388.27 523.206 396.219 523.594 402.781C523.745 403.137 523.911 403.488 524.063 403.844C525.512 402.179 522.858 396.581 522.281 394.563C520.166 387.16 518.24 379.685 516.125 372.281C515.587 370.398 515.501 368.363 514.188 366.906ZM522.281 359.094C521.333 358.41 518.782 362.282 518.781 363.5C518.781 366.979 521.838 372.516 523.156 375.813C528.471 389.1 533.093 402.656 538.406 415.938C547.36 438.322 557.866 460.071 566.813 482.438C570.342 491.26 574.899 502.376 580.594 509.969C583.56 513.924 585.352 519.211 587.906 523.469C593.313 532.48 598.81 541.354 605.5 549.531C615.461 561.705 635.677 580.872 654.125 579.719C655.223 579.65 655.252 573.616 655.281 573.25C655.598 569.291 655.875 563.61 655.875 560.063C655.875 546.665 652.497 533.317 648.844 520.531C644.74 506.17 637.561 493.56 630.969 480.375C621.157 460.751 605.267 443.007 590.844 426.781C569.749 403.049 548.131 377.737 522.281 359.094ZM524.344 365.844C544.029 381.592 561.791 400.716 578.813 419.156C576.598 419.895 573.175 418.192 570.906 417.688C568.035 417.049 557.87 415.614 555.969 414.188C553.083 412.023 550.531 405.594 548.656 402.469C547.334 400.265 540.722 388.518 538.688 389.281C535.765 390.377 543.709 400.859 544.844 402.75C546.13 404.893 553.625 415.215 553.625 416.813C553.625 419.818 552.413 423.231 551.875 426.188C551.493 428.287 551.595 432.624 550.125 434.094C546.218 430.187 544.543 421.326 542.5 416.219C537.76 404.368 533.46 392.354 528.719 380.5C526.909 375.977 525.892 370.722 523.75 366.438C524.043 366.145 524.051 366.137 524.344 365.844ZM558.625 418.875C559.504 417.996 575.382 422.33 577.938 422.969C579.128 423.266 582.665 423.457 583.5 424.125C587.536 427.354 590.944 432.514 594.344 436.438C604.416 448.059 613.664 460.278 622.188 473.063C619.677 473.899 607.438 469.417 604.313 468.375C600.78 467.197 588.965 465.252 586.75 463.406C582.824 460.134 579.991 453.11 577.375 448.75C571.398 438.789 563.796 429.217 558.625 418.875ZM556.563 421.781C562.8 431.138 568.654 440.861 574.438 450.5C577.029 454.82 582.284 460.293 583.5 465.156C583.894 466.73 582.053 469.853 581.469 471.313C579.472 476.305 578.125 485.782 574.438 489.469C571.993 487.025 570.436 482.136 569.156 478.938C565.783 470.505 561.406 462.469 558.031 454.031C556.638 450.549 552.469 444.824 552.469 441.125C552.469 438.56 555.306 423.038 556.563 421.781ZM589.969 467.5C597.757 471.394 607.924 473.01 616.313 475.406C618.381 475.997 623.258 476.507 624.813 477.75C626.672 479.238 627.732 482.491 628.938 484.5C632.62 490.638 635.922 497.133 638.594 503.813C639.636 506.417 645.365 519.042 643.875 520.531C638.922 518.055 631.15 517.993 625.688 517C624.34 516.755 620.583 516.805 619.563 516.125C616.082 513.805 613.208 506.513 611.063 502.938C604.088 491.314 595.435 480.213 589.375 468.094C589.668 467.801 589.676 467.793 589.969 467.5ZM586.156 469.25C593.725 480.604 600.825 492.427 607.844 504.125C608.998 506.049 616.031 515.688 616.031 517C616.031 521.322 612.986 526.699 611.625 530.781C610.492 534.18 609.237 542.936 606.375 544.844C600.308 536.755 595.147 528.287 589.969 519.656C587.697 515.87 586.138 511.143 583.5 507.625C582.253 505.962 576.781 496.505 576.781 494.75C576.781 490.45 580.118 485.334 581.469 481.281C582.585 477.933 583.71 471.696 586.156 469.25ZM624.063 519.875C627.185 520.079 632.486 521.691 634.188 522C637.21 522.549 642.38 522.424 645.031 523.75C647.01 524.74 647.479 529.415 647.969 531.375C650.152 540.108 652.063 549.619 652.063 558.625C652.063 562.63 651.929 566.623 651.781 570.625C651.715 572.406 652.67 575.654 650.906 575.906C643.282 576.995 625.566 565.222 620.719 560.375C617.642 557.298 614.661 554.116 611.625 551C610.804 550.158 609.281 549.52 609.281 548.344C609.281 544.19 612.644 538.257 613.969 534.281C614.97 531.277 616.19 523.331 618.656 521.688C622.813 527.231 626.247 533.621 629.813 539.563C630.942 541.445 632.412 545.506 635.063 544.844C637.332 544.276 634.224 540.18 633.625 539.281C629.58 533.214 625.167 526.74 621.906 520.219C622.25 519.875 623.022 519.807 624.063 519.875ZM472.188 360.281C461.161 371.308 450.229 382.242 439.969 393.969C421.818 414.713 404.095 436.768 389.875 460.469C384.539 469.362 379.674 478.523 374.344 487.406C369.641 495.243 365.998 503.881 362.625 512.313C361.537 515.032 359.406 518.415 359.406 521.406C359.406 524.788 363.715 530.93 365.25 534C369.143 541.786 373.141 549.946 376.375 558.031C377.612 561.123 379.002 565.315 381.375 567.688C390.061 559.001 399.299 550.846 408.313 542.5C412.34 538.771 417.489 535.052 420.906 530.781C421.458 530.091 422.631 520.471 422.969 518.781C424.908 509.085 426.98 499.402 429.125 489.75C436.008 458.777 444.267 427.27 456.063 397.781C459.948 388.068 463.675 378.744 468.375 369.344C469.348 367.398 473.206 361.81 472.188 360.281ZM459 378.719C460.09 380.354 457.741 383.268 456.938 384.875C454.393 389.965 452.299 395.603 450.5 401C444.257 419.732 437.737 438.334 432.938 457.531C431.422 463.593 429.607 469.582 428.25 475.688C427.767 477.863 428.079 480.234 426.469 481.844C426.435 481.793 426.409 481.738 426.375 481.688C426.811 483.479 426.705 485.146 425.563 486.5C425.564 486.507 425.593 486.524 425.594 486.531C425.845 488.289 424.51 491.268 424.125 493C422.804 498.943 421.538 504.873 420.344 510.844C419.738 513.877 418.325 525.63 416.719 528C413.308 521.225 408.441 514.506 404.5 507.938C403.293 505.926 401.046 503.427 400.406 501.188C399.816 499.12 402.252 494.949 403.031 493C405.617 486.537 408.954 472.14 413.594 467.5C418.686 472.592 420.959 481.039 425.313 486.844C425.421 486.736 425.468 486.612 425.563 486.5C426.705 485.146 426.811 483.479 426.375 481.688C424.749 475.008 414.853 466.163 415.656 461.344C416.172 458.251 418.581 454.891 419.75 451.969C423.177 443.402 427.334 435.05 431.469 426.781C432.262 425.195 436.817 416.449 436.156 415.656C433.03 411.905 430.895 418.555 429.719 420.906C425.696 428.951 421.632 437.153 418.281 445.531C417.167 448.317 415.663 453.62 413.313 455.5C407.398 460.232 399.013 460.434 393.25 464.813C392.426 465.439 391.653 466.128 390.938 466.938C391.638 466.113 392.426 465.439 393.25 464.813C393.202 464.836 393.142 464.851 393.094 464.875C392.801 464.582 392.793 464.574 392.5 464.281C412.404 434.426 433.556 404.163 459 378.719ZM410.375 461.344C410.668 461.637 410.676 461.645 410.969 461.938C406.906 470.063 404.087 479.221 400.688 487.719C399.585 490.476 398.686 496.951 396 498.563C389.184 502.652 379.766 504.944 372.281 507.938C371.199 508.37 369.938 508.991 368.813 509.75C368.233 508.073 373.496 498.164 374.625 495.906C378.051 489.055 381.535 482.244 385.469 475.688C386.46 474.036 387.474 470.971 389.188 469.906C390.564 470.87 393.364 468.967 394.844 468.375C400.067 466.286 405.341 463.861 410.375 461.344ZM393.969 503.813C394.262 504.105 394.27 504.113 394.563 504.406C389.667 514.197 387.296 526.667 384.281 537.219C383.744 539.098 380.158 548.918 385.188 546.906C387.312 546.056 387.809 539.31 388.406 537.219C390.485 529.944 393.047 522.804 395.125 515.531C395.886 512.867 396.676 508.449 398.656 506.469C405.268 513.081 408.247 523.87 413.875 531.375C413.93 531.339 414.03 531.257 414.094 531.219C414.127 531.269 414.154 531.325 414.188 531.375C409.126 535.874 404.206 540.51 399.25 545.125C394.954 549.124 390.574 553.088 386.344 557.156C385.045 558.404 383.861 561.462 382.25 560.656C380.344 559.703 378.373 553.025 377.563 551C374.761 543.995 371.248 536.933 367.875 530.188C366.755 527.948 363.5 523.262 363.5 520.813C363.5 519.584 364.661 517.669 364.969 516.438C365.079 515.998 365.646 515.438 366.438 514.875C366.195 514.091 366.239 513.414 366.406 512.781C366.466 512.544 366.521 512.313 366.625 512.094C366.706 511.928 366.865 511.811 366.969 511.656C367.436 510.934 368.034 510.308 368.813 509.781C368.041 510.304 367.438 510.954 366.969 511.656C366.868 511.812 366.704 511.928 366.625 512.094C366.52 512.308 366.467 512.549 366.406 512.781C366.245 513.419 366.197 514.097 366.438 514.875C366.448 514.91 366.426 514.934 366.438 514.969C375.176 510.599 385.144 508.225 393.969 503.813ZM166.313 378.156C158.527 378.864 147.281 380.998 147.281 390.75C147.281 394.826 153.261 396.237 152.844 400.406C152.354 405.301 142.993 406.608 143.781 412.125C144.195 415.019 156.037 417.068 158.406 419.438C155.931 424.389 156.243 431.229 156.938 436.438C156.993 436.853 158.401 441.489 157.25 441.719C153.091 442.55 148.854 441.676 144.656 442.875C143.591 443.179 139.119 444.597 140.25 446.406C143.235 451.181 152.494 448.939 156.656 450.5C158.826 451.314 153.904 461.999 158.125 463.406C166.716 466.27 168.238 450.617 170.719 449.625C173.379 448.561 177.476 448.736 180.375 448.156C188.354 446.56 196.299 444.83 204.125 442.594C207.295 441.688 210.217 441.189 212.625 438.781C216.265 435.141 204.063 429.213 201.469 427.656C195.352 423.986 189.15 420.483 183.031 416.813C180.448 415.263 176.954 413.985 174.813 411.844C172.751 409.783 176.251 402.404 177.75 400.406C180.66 396.527 189.361 401.681 192.688 403.344C203.269 408.635 215.359 415.497 227.844 413C231.774 412.214 239.355 409.424 240.438 405.094C241.879 399.326 232.626 400.688 229.906 400.688C224.62 400.688 220.019 401.552 214.969 399.531C198.871 393.092 191.217 380.324 166.313 378.156ZM172.125 396.156C172.807 396.26 173.421 396.607 173.656 397.469C173.967 398.61 169.705 408.925 168.656 409.188C166.814 409.648 153.262 403.432 154.313 401.594C156.3 398.116 166.434 397.018 170.125 396.313C170.677 396.207 171.443 396.052 172.125 396.156ZM173.656 424.438C180.731 427.975 188.564 430.282 195.906 433.219C198.168 434.123 201.596 434.784 203.25 436.438C199.96 439.728 177.057 442.503 173.656 441.719C171.791 441.288 171.192 426.901 173.656 424.438ZM479.813 381.656C476.145 382.21 475.926 390.168 474.531 393.656C470.435 403.896 466.591 414.227 463.094 424.719C447.25 472.251 438.036 521.947 436.75 572.094C436.287 590.151 437.101 608.118 439.656 626C442.472 645.71 446.296 666.037 453.719 684.594C456.019 690.345 458.591 699.621 463.969 703.344C466.562 705.139 470.047 698.804 471.313 696.906C477.14 688.165 480.014 678.081 483.313 668.188C491.484 643.672 493.434 613.625 491.813 588.5C490.052 561.213 486.878 534.013 484.781 506.75C481.782 467.76 480.094 429.031 480.094 389.875C480.094 387.139 482.518 381.248 479.813 381.656ZM473.156 438.813C473.469 438.772 473.85 438.875 474.25 439.094C479.207 441.798 477.488 456.471 477.75 461.063C478.594 475.825 479.741 490.547 480.969 505.281C481.339 509.728 481.017 522.096 482.719 525.5C482.426 525.793 482.449 525.801 482.156 526.094C479.944 524.988 465.027 514.415 464.563 512.906C463.751 510.267 465.239 504.555 465.438 501.781C466.177 491.42 467.06 481.055 468.094 470.719C468.924 462.413 469.743 454.102 470.719 445.813C470.817 444.975 470.97 439.096 473.156 438.813ZM463.406 439.969C467.72 442.817 464.446 457.687 463.969 462.219C462.829 473.043 461.897 483.898 461.063 494.75C460.733 499.031 461.591 505.756 460.188 509.688C459.66 511.166 446.978 520.046 444.938 521.406C443.933 520.402 446.796 505.326 447.281 502.656C450.086 487.231 453.221 471.741 457.531 456.656C459.016 451.458 459.582 443.793 463.406 439.969ZM459.281 514.969C461.013 516.701 459.116 525.191 459 527.563C458.89 529.808 458.809 532.035 458.719 534.281C458.357 543.317 459.472 553.238 458.125 562.125C458.009 562.888 454.75 564.583 454.031 565.063C449.722 567.935 445.437 571.829 440.844 574.125C439.459 572.74 440.942 558.202 441.125 555.094C441.54 548.049 442.136 541.017 442.875 534C443.027 532.558 442.751 528.446 443.469 527.25C444.84 524.965 456.6 516.309 459.281 514.969ZM464.875 517.594C470.405 521.28 479.05 526.066 483.031 531.375C484.097 532.796 483.742 536.677 483.906 538.406C484.603 545.728 485.332 553.048 485.969 560.375C486.266 563.799 488.512 580.082 486.844 581.75C480.309 578.483 474.048 573.128 468.094 568.875C466.923 568.039 462.531 566.084 462.531 564.469C462.531 556.13 463.1 547.384 463.406 538.969C463.491 536.624 463.583 534.281 463.688 531.938C463.807 529.249 462.8 519.669 464.875 517.594ZM457.531 567.094C457.726 567.289 458.114 567.412 458.125 567.688C458.41 574.811 458.27 581.965 458.406 589.094C458.466 592.22 458.605 595.344 458.719 598.469C458.8 600.716 458.888 602.942 459 605.188C459.087 606.918 460.56 614.012 459.594 615.75C458.142 618.363 447.086 623.672 444.063 625.688C441.039 622.663 441.79 612.454 441.438 608.406C440.629 599.113 438.77 588.301 440.25 579.125C440.374 578.353 443.617 576.672 444.344 576.188C448.667 573.305 452.935 569.392 457.531 567.094ZM463.094 570.031C465.612 568.965 479.368 580.745 482.438 582.938C483.724 583.856 487.556 585.478 488 587.031C489.459 592.137 488.514 598.199 488.313 603.438C488.185 606.757 488.125 610.087 488 613.406C487.929 615.289 487.398 630.402 485.969 630.688C484.992 630.883 481.821 628.037 480.969 627.469C478.747 625.988 464.338 617.226 463.969 615.75C462.255 608.894 463.002 599.874 462.813 592.875C462.683 588.091 462.594 583.317 462.531 578.531C462.494 575.693 460.48 571.138 463.094 570.031ZM461.625 618.969C468.07 622.875 473.953 626.781 479.813 630.688C481.376 631.73 485.572 633.567 486.25 635.375C486.901 637.113 485.109 642.187 484.781 644.156C484.349 646.746 484.33 653.268 482.719 655.281C477.032 662.39 467.276 646.557 464.281 643.563C461.269 646.574 460.984 655.594 454.906 655.594C446.123 655.594 446.389 644.153 445.219 637.719C445.004 636.538 443.35 630.984 444.063 630.094C446.48 627.071 457.866 620.848 461.625 618.969ZM207.563 450.219C205.142 450.365 202.654 450.938 200.906 451.375C192.521 453.471 172.77 460.233 170.438 469.563C168.738 476.362 169.843 479.218 174.531 483.906C176.055 485.43 178.348 485.379 179.813 486.844C174.424 492.232 173.168 505.237 182.719 507.625C189.081 509.215 192.612 509.687 200.313 509.688C206.12 509.688 224.285 506.147 226.969 499.438C229.684 492.65 223.104 490.656 217.875 490.656C214.571 490.656 210.643 492.949 207.625 494.156C203.313 495.881 198.464 496.5 193.875 496.5C190.145 496.5 189.01 494.315 189.156 491.844C198.807 487.109 208.31 484.781 219.656 484.781C224.155 484.781 233.887 486.319 238.688 482.719C246.958 476.516 243.314 460.75 232.25 460.75C222.324 460.75 215.108 471.035 205.875 473.344C198.393 475.214 194.092 476.594 185.375 476.594C184.776 476.594 184.752 476.434 184.688 476.344C185.654 465.566 203.649 467.159 210.844 464.281C217.078 461.787 218.945 456.335 213.781 451.688C212.321 450.374 209.983 450.073 207.563 450.219ZM267 501.625C264.488 501.236 261.163 502.544 259.188 503.531C252.964 506.643 245.198 514.71 243.375 522C242.353 526.089 240.727 529.939 240.438 534.281C239.666 545.849 243.348 555.461 253.344 562.125C256.69 564.356 260.396 565.073 263.875 566.813C264.168 566.52 264.176 566.512 264.469 566.219C253.184 554.934 250.65 534.296 256.281 520.219C258.981 513.468 264.283 507.855 269.156 502.656C268.573 502.073 267.837 501.755 267 501.625ZM311.625 589.969C288.992 591.278 278.738 643.563 306.656 643.563C312.27 643.563 318.136 636.03 320.719 632.156C329.414 619.113 331.715 588.807 311.625 589.969ZM312.719 599.813C323.068 600.579 319.269 620.409 314.563 627.469C313.199 629.514 309.552 633.906 306.656 633.906C290.704 633.906 298.332 601.798 310.469 599.906C311.288 599.779 312.029 599.761 312.719 599.813ZM146.125 594.063C143.544 594.523 142.116 597.766 139.656 598.75C136.648 599.953 133.155 599.902 130.875 602.563C129.407 604.276 131.323 607.912 131.469 609.875C131.62 611.922 131.75 613.978 131.75 616.031C131.75 624.904 125.096 640.344 139.094 640.344C143.245 640.344 145.066 636.77 145.844 632.406C146.081 639.144 156.175 648.561 162.813 645.906C171.705 642.349 168.202 629.319 162.938 623.563C167.388 625.254 172.278 625.182 175.125 620.438C180.702 611.142 160.65 604.597 155.188 600.5C151.968 598.085 150.287 593.32 146.125 594.063ZM380.188 628.938C373.183 635.942 385.648 650.209 389.875 655.281C392.567 653.486 390.836 648.86 390.75 645.625C390.657 642.082 386.971 629.23 380.188 628.938Z" fill="#ffffff" fill-rule="nonzero" opacity="1" stroke="none"/>
</g>
</svg>
