<?xml version="1.0" encoding="UTF-8" standalone="no"?>
<!DOCTYPE svg PUBLIC "-//W3C//DTD SVG 1.1//EN" "http://www.w3.org/Graphics/SVG/1.1/DTD/svg11.dtd">
<!-- Created with Vectornator (http://vectornator.io/) -->
<svg height="100%" stroke-miterlimit="10" style="fill-rule:nonzero;clip-rule:evenodd;stroke-linecap:round;stroke-linejoin:round;" version="1.1" viewBox="0 0 900 900" width="100%" xml:space="preserve" xmlns="http://www.w3.org/2000/svg" xmlns:vectornator="http://vectornator.io" xmlns:xlink="http://www.w3.org/1999/xlink">
<defs/>
<g id="Layer-1" vectornator:layerName="Layer 1">
<path d="M446.771 150.195C406.718 150.003 357.987 166.797 327.059 182.062C199.127 245.207 133.777 411.165 178.668 544.745C199.756 607.497 245.675 662.369 302.227 699.63C358.76 736.879 427.666 757.507 495.834 747.13C577.718 734.664 642.881 694.034 695.814 634.032C709.979 617.977 725.212 598.279 733.273 573.244C738.009 558.536 730.325 542.72 715.836 537.349C680.658 524.31 617.337 500.869 610.315 498.267C620.34 467.526 622.397 433.464 613.742 401.824C619.089 399.851 661.65 384.159 687.036 374.587C701.14 369.269 711.427 362.572 719.504 358.533C734.205 351.181 739.821 333.033 731.83 318.669C716.928 291.883 700.678 268.143 682.526 247.54C623.948 181.051 547.192 150.672 446.771 150.195ZM446.591 179.056C541.077 179.504 608.208 206.874 660.881 266.66C677.412 285.424 692.487 307.353 706.577 332.679C696.651 337.643 687.198 343.675 676.814 347.59C650.08 357.67 599.251 376.391 599.251 376.391C599.251 376.391 577.825 349.995 566.723 339.894C532.966 309.181 494.668 296.948 449.597 298.888C427.803 299.825 399.682 311.967 382.797 323.299C297.238 380.722 293.431 504.726 372.695 569.216C405.265 595.716 442.676 602.922 483.268 595.311C509.214 590.447 536.741 585.792 556.922 566.871C570.937 553.732 594.501 523.159 594.501 523.159C594.501 523.159 668.692 550.653 705.795 564.406C699.706 583.317 687.314 600.012 674.169 614.912C624.763 670.915 566.063 707.21 491.445 718.57C372.352 736.698 243.373 646.68 206.025 535.545C165.718 415.606 225.839 264.168 339.806 207.917C367.466 194.264 414.536 178.902 446.591 179.056ZM468.777 321.375C510.991 322.712 550.541 342.011 574.058 381.381C616.268 452.038 572.523 568.795 483.568 575.229C310.168 587.769 282.558 336.674 450.619 321.916C456.72 321.38 462.747 321.185 468.777 321.375Z" fill="#ffffff" fill-rule="nonzero" opacity="1" stroke="none" vectornator:layerName="Curve 1"/>
</g>
</svg>
