<?xml version="1.0" encoding="UTF-8" standalone="no"?>
<!DOCTYPE svg PUBLIC "-//W3C//DTD SVG 1.1//EN" "http://www.w3.org/Graphics/SVG/1.1/DTD/svg11.dtd">
<!-- Created with Vectornator (http://vectornator.io/) -->
<svg height="100%" stroke-miterlimit="10" style="fill-rule:nonzero;clip-rule:evenodd;stroke-linecap:round;stroke-linejoin:round;" version="1.1" viewBox="0 0 1080 1080" width="100%" xml:space="preserve" xmlns="http://www.w3.org/2000/svg" xmlns:vectornator="http://vectornator.io" xmlns:xlink="http://www.w3.org/1999/xlink">
<defs/>
<g id="Layer-1" vectornator:layerName="Layer 1">
<path d="M539.469 261.531C539.469 261.531 522.07 291.543 516.219 301.906C418.875 474.305 318.369 644.882 219.438 816.375C539.48 816.777 539.489 816.785 859.531 817.188C767.944 658.204 674.767 500.096 584.75 340.219C572.047 317.658 539.469 261.531 539.469 261.531ZM539.469 289.25C687.744 546.712 687.756 546.694 836.031 804.156C540.023 804.247 540.008 804.253 244 804.344C336.019 629.09 440.033 460.405 539.469 289.25ZM538.094 388.438C521.271 418.333 521.26 418.323 504.438 448.219C499.816 440.792 495.578 432.709 488.844 427.125C471.42 456.612 453.383 485.71 436.594 515.562C435.974 516.664 436.836 518.087 436.969 519.344C484.434 482.481 543.855 468.678 600.812 493.875C619.351 502.076 630.503 517.545 648.25 525.625C611.382 461.825 611.368 461.831 574.5 398.031C567.873 403.78 562.675 411.011 557.25 417.906C549.242 408.672 547.675 395.976 538.094 388.438ZM529.031 492.688C512.371 492.608 487.907 500.592 473.531 507.688C414.298 536.924 383.051 615.632 404 677.969C423.411 735.73 490.447 782.516 552.344 773.094C591.126 767.19 621.634 748.326 647.312 719.219C654.144 711.475 660.585 702.798 663.75 692.969C644.466 685.821 605.906 671.531 605.906 671.531C605.906 671.531 593.659 687.421 586.375 694.25C575.886 704.084 561.579 706.503 548.094 709.031C526.997 712.987 507.553 709.242 490.625 695.469C449.428 661.951 451.407 597.501 495.875 567.656C504.651 561.766 519.267 555.456 530.594 554.969C554.019 553.961 573.924 560.318 591.469 576.281C597.239 581.531 608.363 595.244 608.363 595.244C608.363 595.244 634.793 585.52 648.688 580.281C654.085 578.246 658.997 575.111 664.156 572.531C656.833 559.368 648.98 547.955 640.388 538.203C613.012 507.13 578.139 492.921 529.031 492.688ZM540.562 566.656C537.428 566.557 534.296 566.659 531.125 566.938C443.777 574.608 458.127 705.112 548.25 698.594C594.483 695.25 617.219 634.567 595.281 597.844C583.058 577.382 562.502 567.351 540.562 566.656ZM680.406 581.25C657.681 585.374 612.727 605.339 611.656 606.156C618.056 625.099 614.775 640.348 612.688 660.531C633.171 667.835 653.845 674.586 674.125 682.438C675.816 683.092 677.434 684.351 678.312 685.938C681.137 691.038 673.205 703.709 672.781 704.438C669.019 710.903 664.704 717.091 660 722.906C638.582 749.384 616.863 763.767 586.031 777.156C587.6 777.854 589.002 779.237 590.719 779.25C657.655 779.761 724.596 779.236 791.531 778.719C792.311 778.713 792.928 778.036 793.625 777.688C737.012 679.469 737.019 679.468 680.406 581.25ZM386.25 604.062C359.136 651.348 332.32 698.794 304.906 745.906C298.667 756.628 287.238 766.068 286.906 778.469C352.099 778.55 417.281 779.499 482.469 778.719C483.701 778.704 484.222 776.997 485.094 776.125C437.008 753.456 397.87 715.538 388.656 661.094C386.584 648.846 384.72 636.319 385.719 623.938C386.252 617.333 388.077 610.432 386.25 604.062Z" fill="#ffffff" fill-rule="nonzero" opacity="1" stroke="none"/>
</g>
</svg>
