<?xml version="1.0" encoding="UTF-8" standalone="no"?>
<!DOCTYPE svg PUBLIC "-//W3C//DTD SVG 1.1//EN" "http://www.w3.org/Graphics/SVG/1.1/DTD/svg11.dtd">
<!-- Created with Vectornator (http://vectornator.io/) -->
<svg height="100%" stroke-miterlimit="10" style="fill-rule:nonzero;clip-rule:evenodd;stroke-linecap:round;stroke-linejoin:round;" version="1.1" viewBox="0 0 750 1000" width="100%" xml:space="preserve" xmlns="http://www.w3.org/2000/svg" xmlns:vectornator="http://vectornator.io" xmlns:xlink="http://www.w3.org/1999/xlink">
<defs/>
<g id="Layer-1" vectornator:layerName="Layer 1">
<path d="M374.192 255.469C370.263 263.327 364.675 270.736 360.129 278.313C350.479 294.397 340.468 310.29 330.817 326.375C324.932 336.183 318.86 345.847 312.973 355.657C310.933 359.057 309.039 363.685 306.223 366.5C304.283 368.44 292.547 371.608 289.223 372.938C277.916 377.461 266.734 382.448 255.817 387.907C252.116 389.757 247.4 391.274 244.098 393.75C239.71 397.041 234.204 399.13 229.473 401.969C218.919 408.301 208.184 414.412 198.129 421.594C165.664 444.784 134.87 471.046 112.567 504.5C89.0365 539.796 77.2961 581.543 93.8169 622.844C98.5845 634.763 108.101 645.909 116.973 654.782C119.315 657.123 122.367 659.057 124.567 661.532C124.969 661.984 122.047 665.855 121.661 666.5C118.843 671.196 115.979 675.865 113.161 680.563C104.01 695.813 94.7798 711.031 85.6294 726.282C83.9696 729.048 75.348 740.992 75.3481 743.25C75.3481 745.602 80.035 744.032 82.3794 743.844C88.983 743.316 96.5805 741.263 103.473 740.344C121.023 738.004 138.629 736.143 156.223 734.188C189.818 730.455 223.591 728.28 257.286 725.688C267.337 724.915 277.415 724.296 287.473 723.625C290.918 723.396 295.294 723.852 298.598 722.75C298.93 722.64 305.167 706.533 305.942 704.594C306.338 703.605 307.116 699.918 308.286 699.625C318.593 697.048 331.197 697.179 341.973 695.219C369.365 690.239 397.725 684.231 423.692 673.844C431.392 670.764 439.705 668.744 447.129 665.032C449.409 667.311 447.442 671.495 447.442 674.719C447.442 677.782 450.975 682.367 452.129 685.25C461.79 709.402 480.704 731.691 505.723 740.032C520.954 745.108 536.144 744.143 552.317 743.844C557.592 743.746 564.402 741.842 569.879 740.625C602.059 733.474 631.804 715.532 652.504 689.657C658.838 681.739 663.167 673.333 668.317 664.75C670.025 661.904 673.109 657.983 673.911 654.782C675.931 646.699 673.34 635.737 671.848 627.532C667.424 603.198 656.843 580.017 640.504 561.344C636.366 556.614 632.07 551.963 627.317 547.844C624.987 545.824 620.638 543.835 618.817 541.407C618.7 541.25 618.716 540.98 618.817 540.813C620.665 537.733 623.229 534.787 625.254 531.75C631.955 521.7 637.516 510.96 641.973 499.813C652.992 472.267 654.179 442.468 643.129 414.844C639.062 404.675 631.387 395.263 624.098 387.313C593.235 353.644 542.727 341.144 499.004 337.5C485.046 336.337 470.599 337.795 456.817 336.344C455.994 336.257 453.518 330.731 453.004 329.875C449.564 324.142 444.341 319.388 438.942 315.532C432.527 310.949 424.819 307.724 417.254 305.563C414.198 304.69 407.897 304.514 405.536 302.625C401.922 299.734 399.125 293.421 396.754 289.469C389.925 278.087 382.736 266.08 374.192 255.469ZM374.786 271.594C378.234 275.044 380.779 280.291 383.286 284.469C387.056 290.753 392.031 296.709 395.286 303.219C395.167 303.338 394.945 303.335 394.786 303.407C398.427 303.701 402.785 305.121 406.411 306.157C424.864 311.429 444.195 321.915 450.661 341.313C452.91 348.064 453.405 354.328 453.004 361.532C452.872 363.915 453.076 370.835 451.254 372.657C448.815 370.217 447.731 366.195 445.098 363.563C440.543 359.006 435.016 355.206 428.692 353.625C428.15 353.49 427.585 353.428 427.036 353.313C428.827 355.36 430.249 358.407 431.598 360.657C436.165 368.267 441.052 375.838 445.973 383.219C464.39 410.843 482.485 439.125 499.567 467.594C504.624 476.024 510.352 484.038 515.411 492.469C517.915 496.643 520.477 502.223 523.911 505.657C522.803 506.764 520.788 506.015 519.223 505.969C517.272 505.912 515.283 506.233 513.348 505.969C513.246 505.955 513.07 505.697 512.942 505.594C510.05 507.469 497.839 506.923 493.723 507.438C478.199 509.378 462.731 513.4 447.723 517.688C424.25 524.394 400.671 531.746 378.004 540.813C351.322 551.485 324.953 561.616 296.254 566.032C269.108 570.208 239.539 565.341 230.942 535.25C230.039 532.092 228.465 528.315 228.879 525C228.882 524.979 228.907 524.929 228.911 524.907C226.513 521.728 227.223 511.23 229.161 508C238.364 492.662 248.083 477.651 257.286 462.313C283.109 419.272 310.273 377.042 336.098 334C344.353 320.243 353.03 306.728 361.286 292.969C365.343 286.207 369.223 277.157 374.786 271.594ZM461.504 364.75C473.714 364.94 485.763 366.965 497.817 369.157C535.8 376.063 573.342 389.369 600.348 418.063C612.785 431.277 623.786 451.276 623.786 469.938C623.786 474.431 623.665 478.916 623.504 483.407C623.168 492.802 620.557 502.807 617.067 511.532C615.872 514.518 613.745 517.818 612.973 520.907C612.22 523.913 608.955 531.58 606.223 533.219C605.914 533.405 597.775 528.633 596.848 527.938C588.926 521.996 576.519 518.713 567.254 515.625C559.354 512.992 551.294 511.205 543.223 509.188C540.963 508.623 536.226 508.834 534.442 507.719C532.412 506.45 530.693 502.127 529.473 500.094C525.026 492.683 520.138 485.535 515.692 478.125C499.915 451.829 482.532 426.484 466.754 400.188C465.019 397.296 457.751 388.161 457.379 385.563C456.974 382.717 459.893 377.374 460.317 374.407C460.656 372.03 459.362 364.717 461.504 364.75ZM282.004 392.782C282.49 392.716 282.854 392.733 283.067 392.875C280.716 397.577 274.818 399.362 270.473 401.969C263.145 406.364 255.938 411.183 249.098 416.313C225.583 433.949 204.432 453.527 187.286 477.532C175.759 493.669 166.086 512.652 160.629 531.75C157.141 543.958 155.983 555.878 156.504 568.657C158.536 618.407 196.511 649.813 245.286 649.813C277.571 649.813 305.525 638.53 335.817 629.875C366.159 621.207 398.892 619.309 429.848 625.5C450.765 629.683 484.428 641.191 494.598 661.532C494.159 661.825 494.163 661.832 493.723 662.125C456.347 634.093 404.603 625.549 359.536 634.563C348.946 636.681 338.695 639.655 328.473 643.063C326.019 643.88 322.12 644.198 320.004 645.407C318.057 646.519 314.715 657.18 313.848 659.782C309.447 672.99 304.082 686.104 298.911 699.032C298.171 700.881 292.977 714.999 292.442 715.125C282.549 717.453 270.684 716.25 260.504 716.907C234.226 718.602 207.926 720.442 181.723 723.063C159.021 725.333 136.343 727.742 113.754 730.969C108.67 731.696 103.57 732.468 98.5044 733.313C97.5227 733.476 92.7107 734.905 91.7544 734.188C90.2921 733.091 93.9694 728.642 94.6919 727.438C98.8201 720.558 103.159 713.816 107.286 706.938C120.435 685.022 134.293 663.508 147.442 641.594C150.985 635.691 154.744 629.934 158.286 624.032C159.22 622.474 162.379 619.046 162.379 617.282C162.379 615.783 160.269 612.476 158.192 609.282C157.493 611.911 147.923 626.069 145.973 627.532C137.09 619.759 131.404 610.866 124.567 601.75C117.572 592.424 113.754 575.955 113.754 564.844C113.754 530.574 129.82 498.091 153.879 474.032C163.881 464.03 174.082 454.572 185.223 445.907C202.634 432.365 221.816 420.579 241.473 410.75C243.406 409.785 258.515 402.513 259.067 402.844C259.091 402.859 259.106 402.89 259.129 402.907C260.501 401.703 264.33 399.494 267.067 398.907C267.84 398.741 268.396 398.838 268.879 399C271.379 397.229 278.87 393.206 282.004 392.782ZM270.786 407.532C271.079 407.971 271.055 407.967 271.348 408.407C251.901 431.096 233.276 454.946 222.129 482.813C218.488 491.916 214.223 502.459 214.223 512.407C214.223 529.55 216.403 547.399 229.161 560.157C232.155 563.151 234.456 565.493 237.661 567.782C238.021 568.039 239.391 569.116 240.786 570.032C240.724 569.948 240.658 569.902 240.598 569.813C241.873 568.538 243.018 570.612 244.692 568.938C245.074 569.225 245.264 569.344 245.473 569.5C246.042 568.576 246.622 567.633 247.348 566.907C251.747 569.106 254.066 572.375 259.067 573.625C267.972 575.851 277.611 574.467 286.598 573.344C306.104 570.906 325.965 567.497 344.317 560.157C356.346 555.345 368.61 551.183 380.629 546.375C427.947 527.448 478.877 507.055 530.942 513.563C571.431 518.624 611.07 538.936 635.223 572.75C642.929 583.539 648.485 595.077 653.379 607.313C658.309 619.64 663.348 633.161 663.348 646.594C663.348 648.743 663.037 662.927 660.723 664.469C659.099 662.844 655.953 646.065 654.567 641.907C649.686 627.265 641.564 609.873 630.536 598.844C628.524 604.878 636.74 620.28 629.379 625.188C626.621 621.509 623.854 617.019 619.692 614.938C618.791 615.838 619.349 617.479 619.411 618.75C619.554 621.678 619.664 624.6 619.692 627.532C619.758 634.447 619.874 641.348 619.942 648.25C621.023 646.877 622.908 645.854 624.098 644.532C629.905 638.079 634.394 630.142 640.504 624.032C646.472 629.999 651.386 647.587 653.692 655.657C654.405 658.152 654.089 662.326 655.161 664.469C656.281 666.71 660.453 663.147 661.004 665.907C661.302 667.395 651.627 680.028 650.473 681.438C638.051 696.622 623.13 708.4 606.504 718.375C574.638 737.495 521.57 747.226 490.192 724.813C477.997 716.103 468.949 701.328 462.379 688.188C464.934 687.336 470.747 691.362 473.504 692.282C483.404 695.581 494.106 697.844 504.567 697.844C531.673 697.844 561.122 691.111 584.536 677.063C589.957 673.809 596.434 670.726 600.942 666.219C607.432 669.464 608.103 682.93 616.567 682.188C616.468 682.105 616.252 682.132 616.192 682.032C614.834 679.767 614.698 676.08 613.848 673.532C611.78 667.325 609.125 661.18 606.223 655.375C597.026 636.98 584.709 619.798 570.192 605.282C566.568 607.698 562.892 610.063 559.348 612.594C559.215 612.689 557.466 614.482 557.004 614.063C545.408 603.521 535.895 592.26 522.442 584.188C495.318 567.914 463.482 563.987 432.192 566.594C422.712 567.384 413.293 568.694 404.067 571C401.355 571.678 395.775 572.261 393.817 574.219C394.87 575.272 393.862 574.595 395.567 574.5C404.751 573.99 413.948 574.43 423.129 574.813C444.284 575.694 465.954 578.942 486.098 585.657C502.712 591.195 518.306 598.818 531.817 610.25C536.286 614.031 540.189 618.219 544.098 622.563C545.933 624.602 548.397 629.525 550.848 630.75C551.526 631.09 563.709 622.867 565.504 621.969C572.276 630.434 578.241 640.161 583.067 649.813C584.401 652.484 587.6 657.932 586.598 660.938C586.089 662.462 583.567 664.563 582.504 665.625C580.497 663.618 579.354 659.687 577.817 657.125C574.51 651.613 570.325 647.009 565.786 642.469C565.181 644.282 567.136 647.438 567.848 649.219C570.183 655.057 573.497 669.039 569.004 673.532C567.368 671.894 566.464 668.62 565.192 666.5C563.298 663.343 560.757 661.19 558.161 658.594C556.644 660.11 557.161 662.875 557.004 664.75C556.592 669.696 555.696 677.102 552.317 681.157C550.202 683.694 544.848 683.969 541.754 684.657C530.802 687.09 519.008 689.344 507.786 689.344C503.293 689.344 498.808 689.21 494.317 689.063C482.23 688.667 470.562 686.101 462.379 676.75C460.011 674.044 455.026 667.579 458.848 665.032C473.776 687.425 502.973 684.5 526.536 680.875C532.332 679.983 539.256 676.75 545.004 676.75C546.532 672.167 533.373 653.699 530.629 650.407C510.835 626.653 481.979 615.29 452.692 608.782C417.626 600.989 378.793 602.457 343.723 610.25C329.083 613.504 315.36 620.171 300.661 623.438C282.716 627.426 264.862 628.637 246.442 628.125C233.427 627.764 219.154 625.571 207.786 618.75C192.883 609.809 181.502 594.756 176.723 578.032C175.713 574.497 173.761 558.945 172.911 558.094C171.219 559.222 169.755 560.567 168.223 561.907C166.856 560.539 168.266 556.2 168.536 554.313C169.732 545.942 171.18 537.543 173.504 529.407C184.603 490.564 205.328 459.723 236.504 433C243.274 427.197 250.347 421.774 257.598 416.594C261.74 413.635 267.206 411.111 270.786 407.532ZM396.848 639.344C403.008 639.258 409.221 639.6 415.504 640.438C420.495 641.103 438.998 643.881 442.161 648.625C440.452 650.335 436.564 650.903 434.254 651.563C427.419 653.516 420.592 655.484 413.754 657.438C383.181 666.173 349.976 672.375 318.223 672.375C317.578 670.44 319.534 667.222 320.286 665.344C321.603 662.049 322.297 656.964 324.379 654.188C326.058 651.949 339.073 648.858 342.254 648.063C360.344 643.54 378.367 639.602 396.848 639.344ZM228.911 524.907C228.997 525.021 229.066 525.187 229.161 525.282C234.956 519.486 239.003 509.783 243.223 502.75C252.357 487.527 261.934 472.535 271.067 457.313C293.35 420.174 316.753 383.733 339.036 346.594C347.109 333.139 355.555 319.895 363.629 306.438C367.314 300.297 370.765 293.735 375.067 288C378.036 290.969 381.023 299.569 384.067 301.938C384.077 301.94 384.088 301.936 384.098 301.938C384.21 301.871 384.348 301.844 384.442 301.75C381.238 296.945 378.53 291.741 375.067 287.125C370.077 292.115 366.694 300.111 363.067 306.157C354.993 319.614 346.515 332.826 338.442 346.282C313.16 388.418 286.691 429.834 261.411 471.969C253.629 484.938 245.442 497.688 237.661 510.657C235.888 513.611 229.362 521.957 228.911 524.907ZM384.098 301.938C384.217 302.03 384.323 302.273 384.442 302.344C385.348 302.888 388.315 302.781 389.411 302.938C390.781 303.133 393.421 304.016 394.786 303.407C394.391 303.375 393.909 303.219 393.536 303.219C390.371 303.219 387.235 302.534 384.098 301.938ZM384.067 301.938C381.001 301.356 377.936 300.856 374.786 301.188C373.56 301.317 373.49 305.282 373.317 306.157C372.964 307.923 372.676 311.274 372.129 314.438C372.908 309.621 373.609 304.071 374.473 302.344C375.931 299.428 381.763 303.262 384.067 301.938ZM512.942 505.594C513.061 505.517 513.262 505.461 513.348 505.375C507.382 496.427 501.518 487.346 495.723 478.219C499.922 485.093 504.208 491.946 508.661 498.625C509.314 499.605 511.661 504.557 512.942 505.594ZM427.036 353.313C426.891 353.147 426.78 352.9 426.629 352.75C425.39 351.51 418.029 351.301 416.286 352.032C416.398 352.114 416.515 352.237 416.629 352.344C420.204 352.366 423.704 352.614 427.036 353.313ZM416.629 352.344C416.393 352.343 416.148 352.374 415.911 352.375C422.376 365.217 432.111 376.97 439.536 389.344C456.257 417.213 474.846 443.988 491.692 471.782C486.234 463.087 480.821 454.351 475.567 445.594C464.321 426.852 451.656 408.993 440.411 390.25C434.586 380.543 428.048 371.24 422.223 361.532C421.14 359.725 418.703 354.278 416.629 352.344ZM415.911 352.375C415.873 352.301 415.823 352.231 415.786 352.157C415.846 352.096 416.164 352.083 416.286 352.032C416.121 351.909 415.943 351.626 415.786 351.563C411.149 349.708 396.138 354.387 390.598 355.969C369.88 361.888 349.27 373.069 331.098 385.563C335.919 382.482 341.236 379.793 345.786 377.063C364.521 365.822 392.26 352.503 415.911 352.375ZM327.442 388.094C325.462 389.502 323.35 390.851 321.442 392.282C321.149 391.989 321.172 391.981 320.879 391.688C327.322 385.245 330.35 374.979 335.817 367.688C338.995 363.45 344.587 361.476 347.817 357.438C348.647 356.4 348.884 352.688 349.286 351.282C350.984 345.336 352.555 339.352 354.254 333.407C354.753 331.663 355.002 328.418 356.036 326.969C358.516 323.497 366.45 324.157 370.098 321.969C370.894 321.491 371.533 318.21 372.129 314.532C371.575 317.705 370.735 320.679 369.223 321.688C367.03 323.15 356.803 323.904 355.723 326.063C352.495 332.518 351.082 343.699 349.004 350.969C348.54 352.595 348.338 355.849 347.223 357.125C343.762 361.08 338.933 363.666 335.223 367.375C330.111 372.487 325.943 383.059 321.754 389.344C321.085 389.679 320.369 391.52 319.692 392.875C319.985 393.168 319.993 393.176 320.286 393.469C321.571 392.612 322.499 391.983 323.786 391.125C324.878 390.033 326.16 389.068 327.442 388.094ZM401.723 334.563C395.3 334.705 389.024 335.57 382.692 336.625C377.192 337.542 367.839 338.132 363.067 341.313C361.911 342.083 360.31 347.106 361.598 347.75C362.531 348.217 366.706 346.069 367.754 345.719C373.421 343.83 379.176 342.204 385.036 341.032C394.029 339.233 403.091 338.375 412.286 338.375C416.365 338.375 425.004 341.594 428.379 341.032C428.475 341.016 428.421 340.956 428.504 340.938C428.412 340.861 428.175 340.796 428.098 340.719C428.466 339.985 428.763 339.831 429.098 339.532C428.226 338.74 426.479 337.929 426.036 337.782C421.636 336.315 416.895 335.511 412.286 335.157C409.203 334.919 404.706 334.497 401.723 334.563ZM429.098 339.532C429.728 340.104 429.809 340.653 428.504 340.938C430.264 342.392 434.618 343.823 436.598 344.813C437.038 344.373 437.034 344.377 437.473 343.938C435.201 341.665 432.404 340.388 429.567 338.969C429.142 339.394 429.256 339.39 429.098 339.532ZM407.286 343.375C390.639 343.375 375.686 350.859 360.723 356.844C355.216 359.047 347.045 362.617 342.848 366.813C340.878 368.783 339.406 372.068 337.848 374.407C338.141 374.7 338.149 374.707 338.442 375C366.503 360.97 407.688 337.842 438.629 353.313C438.526 353.21 438.489 353.173 438.348 353.032C438.631 352.749 438.758 352.622 438.911 352.469C432.119 344.461 416.432 343.375 407.286 343.375ZM438.911 352.469C439 352.574 439.137 352.643 439.223 352.75C438.93 353.043 438.922 353.02 438.629 353.313C439.168 353.851 439.36 354.044 440.098 354.782C440.931 354.365 440.546 354.647 441.286 353.907C440.258 352.878 440.905 353.501 439.223 352.157C439.066 352.313 438.996 352.384 438.911 352.469ZM258.379 405.594C256.386 406.635 254.333 407.647 252.598 408.688C243.478 414.16 234.824 420.806 226.536 427.438C197.936 450.317 175.051 476.352 161.317 506.875C175.694 476.654 201.424 448.302 224.786 429.188C235.47 420.446 247.333 413.652 258.379 405.594ZM161.317 506.875C158.234 513.355 155.479 519.886 153.598 526.469C150.949 535.74 149.078 545.401 148.223 555.125C150.109 537.852 154.594 521.817 161.317 506.875ZM148.223 555.125C147.565 561.152 147.129 567.287 147.129 573.625C147.129 583.807 151.301 594.756 155.036 604.094C155.495 605.243 156.912 607.313 158.192 609.282C158.201 609.247 158.28 609.124 158.286 609.094C158.617 607.438 154.833 601.679 154.161 600C151.553 593.481 149.59 586.137 148.598 579.188C147.463 571.239 147.516 563.161 148.223 555.125ZM616.567 682.188C617.411 682.889 619.338 683.024 619.411 681.75C620.038 670.673 620.052 659.462 619.942 648.25C619.51 648.798 619.167 649.387 619.098 650.094C618.581 655.44 619.191 660.849 619.098 666.219C619.011 671.297 619.015 676.363 618.817 681.438C618.806 681.714 618.489 681.956 618.223 682.032C617.599 682.21 617.12 682.139 616.567 682.188ZM245.473 569.5C245.065 570.163 244.669 570.825 244.098 571.282C243.598 571.682 242.2 570.967 240.817 570.063C242.388 572.147 244.622 572.328 245.879 569.813C245.676 569.66 245.584 569.584 245.473 569.5ZM375.942 459.657C372.838 462.76 370.172 474.359 368.317 479C362.774 492.857 358.048 507.05 352.504 520.907C350.388 526.199 349.212 533.469 346.067 538.188C344.242 540.925 336.25 541.921 333.161 543.157C319.993 548.424 306.046 551.864 292.442 555.75C288.807 556.789 280.305 556.794 277.817 559.282C280.404 561.868 289.133 559.911 292.442 559.563C303.579 558.39 314.516 555.6 325.254 552.532C365.673 540.983 402.837 521.347 443.317 509.782C454.744 506.517 466.402 503.729 478.192 502.157C479.791 501.943 488.78 502.099 489.911 500.969C485.973 497.032 469.517 498.405 464.723 498.938C447.564 500.844 430.645 505.777 414.317 511.219C411.249 512.242 397.123 518.674 395.004 518.25C394.375 518.124 390.486 504.717 390.004 503.032C386.977 492.434 383.516 481.816 380.036 471.375C378.922 468.036 378.451 462.167 375.942 459.657ZM374.786 486.344C376.195 487.755 376.588 490.575 377.129 492.469C379.181 499.653 381.795 506.691 383.848 513.875C384.257 515.3 386.932 520.547 386.192 521.782C384.621 524.399 367.105 530.248 363.348 531.75C361.749 532.39 357.567 535.032 356.317 533.782C361.864 522.689 365.178 510.145 369.786 498.625C371.228 495.023 372.102 489.027 374.786 486.344ZM209.254 479.875C203.573 485.557 198.861 502.643 196.661 510.344C193.174 522.547 191.38 534.802 191.379 547.563C191.379 577.633 216.749 595.812 244.098 599.719C294.996 606.99 351.04 578.792 397.629 560.157C419.674 551.339 445.935 546.969 469.411 546.969C498.815 546.969 529.64 561.454 552.911 578.907C560.75 584.786 567.315 591.619 574.567 598.25C574.854 598.513 582.425 594.634 583.379 594.157C589.089 599.866 594.523 605.849 600.067 611.719C601.692 610.094 601.24 606.615 601.536 604.407C602.398 597.936 602.744 591.154 604.161 584.782C605.096 580.572 614.723 572.52 614.723 568.657C614.723 565.292 606.09 554.575 604.161 552.532C601.363 549.569 598.541 546.632 595.661 543.75C593.588 541.677 591.016 539.892 588.629 538.188C580.279 532.224 570.94 528.093 561.098 525.282C559.051 524.697 552.92 522.366 551.442 523.844C554.726 527.128 561.584 527.623 565.504 530.563C576.384 538.722 586.944 544.183 595.973 555.469C597.41 557.265 604.473 566.112 604.473 568.375C604.473 572.41 597.725 576.8 597.129 580.969C596.655 584.289 598.168 590.742 595.661 593.25C591.85 589.439 588.23 585.456 584.536 581.532C583.43 582.084 579.081 585.653 578.098 585.063C574.07 582.646 571.763 578.135 568.442 574.813C562.689 569.06 547.083 556.731 538.536 554.594C530.8 552.66 523.256 548.336 515.411 546.094C492.255 539.478 466.453 537.443 442.754 539.938C419.083 542.43 395.601 550.199 373.598 559C346.251 569.939 320.705 583.159 290.973 587.407C273.949 589.838 256.192 589.959 239.723 584.469C236.627 583.437 232.397 582.358 229.754 580.375C224.943 576.767 220.088 573.928 215.692 569.532C203.818 557.658 201.075 531.739 202.223 516.813C202.962 507.202 205.138 497.359 207.786 488.094C208.291 486.325 210.518 481.139 209.254 479.875ZM608.848 696.969C604.171 701.646 596.704 704.533 590.692 706.938C572.983 714.021 554.823 719.682 535.629 721.282C528.422 721.882 521.152 722.249 513.942 721.594C503.966 720.687 493.06 718.309 484.942 712.219C484.502 712.512 484.506 712.489 484.067 712.782C491.322 721.073 502.407 725.204 513.067 726.844C519.939 727.901 526.911 728.032 533.848 728.032C552.766 728.032 572.168 721.79 589.536 714.844C594.83 712.726 602.473 709.501 606.504 705.469C607.953 704.02 608.445 699.556 609.442 697.563C609.149 697.27 609.141 697.262 608.848 696.969ZM474.973 698.719C474.534 699.158 474.538 699.186 474.098 699.625C490.909 716.436 518.001 716.449 540.004 712.782C544.96 711.956 558.401 710.445 562.286 707.532C564.238 706.067 565.886 702.083 566.973 699.907C566.534 699.467 566.538 699.471 566.098 699.032C550.201 706.98 523.393 708.406 506.911 708.407C496.779 708.407 482.987 705.398 474.973 698.719Z" fill="#ffffff" fill-rule="nonzero" opacity="1" stroke="none"/>
</g>
</svg>
