<?xml version="1.0" encoding="UTF-8" standalone="no"?>
<!DOCTYPE svg PUBLIC "-//W3C//DTD SVG 1.1//EN" "http://www.w3.org/Graphics/SVG/1.1/DTD/svg11.dtd">
<!-- Created with Vectornator (http://vectornator.io/) -->
<svg height="100%" stroke-miterlimit="10" style="fill-rule:nonzero;clip-rule:evenodd;stroke-linecap:round;stroke-linejoin:round;" version="1.1" viewBox="0 0 1080 1080" width="100%" xml:space="preserve" xmlns="http://www.w3.org/2000/svg" xmlns:vectornator="http://vectornator.io" xmlns:xlink="http://www.w3.org/1999/xlink">
<defs/>
<g id="Layer-1" vectornator:layerName="Layer 1">
<path d="M362.281 141.281L361.594 453.125L119.406 453.969L243.344 573L276.438 655.562L345.406 687.5L314.906 739.094L443.969 739.906L378.656 759.375L335.438 830.844L503.656 740.25L561.844 738.281L676.5 830.125L668 733.344L594.312 733.688C594.312 733.688 635.681 728.611 671.094 709.094C706.506 689.577 735.887 654.104 747.656 631.875C759.425 609.645 766.629 589.174 767.719 577.188C768.808 565.201 766.875 547.125 766.875 547.125C766.875 547.125 774.482 554.723 777.969 564.312C781.456 573.902 784.75 590.031 784.75 590.031L897.844 529.688L759 528.375C759 528.375 748.123 507.656 723.562 497C699.002 486.345 680.575 485.317 676.156 485.188C671.738 485.058 643.406 484.906 643.406 484.906L629.812 345.156L647.438 370.281L897.5 370.875L895.562 468.094L929.5 551.906L908.344 624.375C908.344 624.375 829.185 686.133 779.156 725.312C729.128 764.492 737.763 765.609 728.688 785.531C719.612 805.453 720.474 839.75 720.031 853.031C719.589 866.312 718.719 894.656 718.719 894.656L597.406 844.844L557.344 763.375L524.188 764.156L573.625 867.844L747.656 938.719C747.656 938.719 746.015 929.536 747.656 869.812C749.297 810.089 754.247 803.491 759.75 787.594C765.253 771.697 793.07 749.966 823.031 727.344C852.992 704.721 934.938 639.625 934.938 639.625L960.594 553.438L926.281 464.844L926.219 341.812L629.125 341.094L566.719 315.281L566.219 141.281L362.281 141.281ZM392.781 171.844L536.188 172.281L535.781 333.562L613.406 368.906L544.344 485.719L464.406 485.719L438.938 529.062L304.281 530.438L393.688 605.219L359.562 660.75L298.062 635L268.25 555.625L196.438 485.719L390.75 484.719L392.781 171.844ZM619.25 382.312C620.552 382.312 621.625 383.354 621.625 384.656C621.625 385.958 620.552 387.031 619.25 387.031C617.948 387.031 616.906 385.958 616.906 384.656C616.906 383.354 617.948 382.313 619.25 382.312ZM622.812 392.375C624.115 392.375 625.156 393.448 625.156 394.75C625.156 396.052 624.115 397.094 622.812 397.094C621.51 397.094 620.437 396.052 620.438 394.75C620.438 393.448 621.51 392.375 622.812 392.375ZM616.188 403.094C617.49 403.094 618.563 404.135 618.562 405.438C618.562 406.74 617.49 407.812 616.188 407.812C614.885 407.812 613.844 406.74 613.844 405.438C613.844 404.135 614.885 403.094 616.188 403.094ZM620.438 413.938C621.74 413.938 622.813 415.01 622.812 416.312C622.812 417.615 621.74 418.656 620.438 418.656C619.135 418.656 618.094 417.615 618.094 416.312C618.094 415.01 619.135 413.938 620.438 413.938ZM614.531 423.625C615.833 423.625 616.906 424.698 616.906 426C616.906 427.302 615.833 428.344 614.531 428.344C613.229 428.344 612.187 427.302 612.188 426C612.188 424.698 613.229 423.625 614.531 423.625ZM624.5 423.625C625.802 423.625 626.844 424.698 626.844 426C626.844 427.302 625.802 428.344 624.5 428.344C623.198 428.344 622.125 427.302 622.125 426C622.125 424.698 623.198 423.625 624.5 423.625ZM608.438 433.688C609.74 433.688 610.781 434.76 610.781 436.062C610.781 437.365 609.74 438.406 608.438 438.406C607.135 438.406 606.062 437.365 606.062 436.062C606.062 434.76 607.135 433.688 608.438 433.688ZM618.375 433.688C619.677 433.688 620.75 434.76 620.75 436.062C620.75 437.365 619.677 438.406 618.375 438.406C617.073 438.406 616.031 437.365 616.031 436.062C616.031 434.76 617.073 433.688 618.375 433.688ZM611.938 443.938C613.24 443.938 614.281 444.979 614.281 446.281C614.281 447.583 613.24 448.656 611.938 448.656C610.635 448.656 609.562 447.583 609.562 446.281C609.562 444.979 610.635 443.938 611.938 443.938ZM621.875 443.938C623.177 443.938 624.25 444.979 624.25 446.281C624.25 447.583 623.177 448.656 621.875 448.656C620.573 448.656 619.531 447.583 619.531 446.281C619.531 444.979 620.573 443.938 621.875 443.938ZM606.062 454.656C607.365 454.656 608.406 455.698 608.406 457C608.406 458.302 607.365 459.375 606.062 459.375C604.76 459.375 603.687 458.302 603.688 457C603.688 455.698 604.76 454.656 606.062 454.656ZM615.75 454.656C617.052 454.656 618.125 455.698 618.125 457C618.125 458.302 617.052 459.375 615.75 459.375C614.448 459.375 613.406 458.302 613.406 457C613.406 455.698 614.448 454.656 615.75 454.656ZM625.719 454.656C627.021 454.656 628.094 455.698 628.094 457C628.094 458.302 627.021 459.375 625.719 459.375C624.417 459.375 623.375 458.302 623.375 457C623.375 455.698 624.417 454.656 625.719 454.656ZM599.875 464.062C601.177 464.062 602.219 465.135 602.219 466.438C602.219 467.74 601.177 468.781 599.875 468.781C598.573 468.781 597.5 467.74 597.5 466.438C597.5 465.135 598.573 464.063 599.875 464.062ZM609.812 464.062C611.115 464.063 612.187 465.135 612.188 466.438C612.188 467.74 611.115 468.781 609.812 468.781C608.51 468.781 607.469 467.74 607.469 466.438C607.469 465.135 608.51 464.063 609.812 464.062ZM619.781 464.062C621.083 464.062 622.156 465.135 622.156 466.438C622.156 467.74 621.083 468.781 619.781 468.781C618.479 468.781 617.437 467.74 617.438 466.438C617.438 465.135 618.479 464.063 619.781 464.062ZM629.75 464.062C631.052 464.062 632.094 465.135 632.094 466.438C632.094 467.74 631.052 468.781 629.75 468.781C628.448 468.781 627.375 467.74 627.375 466.438C627.375 465.135 628.448 464.063 629.75 464.062ZM603.688 475.031C604.99 475.031 606.063 476.073 606.062 477.375C606.062 478.677 604.99 479.75 603.688 479.75C602.385 479.75 601.344 478.677 601.344 477.375C601.344 476.073 602.385 475.031 603.688 475.031ZM613.656 475.031C614.958 475.031 616 476.073 616 477.375C616 478.677 614.958 479.75 613.656 479.75C612.354 479.75 611.281 478.677 611.281 477.375C611.281 476.073 612.354 475.031 613.656 475.031ZM623.625 475.031C624.927 475.031 625.969 476.073 625.969 477.375C625.969 478.677 624.927 479.75 623.625 479.75C622.323 479.75 621.25 478.677 621.25 477.375C621.25 476.073 622.323 475.031 623.625 475.031ZM504.156 517.281C505.458 517.281 506.5 518.323 506.5 519.625C506.5 520.927 505.458 522 504.156 522C502.854 522 501.781 520.927 501.781 519.625C501.781 518.323 502.854 517.281 504.156 517.281ZM514 517.281C515.302 517.281 516.344 518.323 516.344 519.625C516.344 520.927 515.302 522 514 522C512.698 522 511.656 520.927 511.656 519.625C511.656 518.323 512.698 517.281 514 517.281ZM524.062 517.281C525.365 517.281 526.438 518.323 526.438 519.625C526.437 520.927 525.365 522 524.062 522C522.76 522 521.719 520.927 521.719 519.625C521.719 518.323 522.76 517.281 524.062 517.281ZM533.656 517.281C534.958 517.281 536 518.323 536 519.625C536 520.927 534.958 522 533.656 522C532.354 522 531.312 520.927 531.312 519.625C531.312 518.323 532.354 517.281 533.656 517.281ZM545.188 517.281C546.49 517.281 547.563 518.323 547.562 519.625C547.562 520.927 546.49 522 545.188 522C543.885 522 542.844 520.927 542.844 519.625C542.844 518.323 543.885 517.281 545.188 517.281ZM555.062 517.281C556.365 517.281 557.406 518.323 557.406 519.625C557.406 520.927 556.365 522 555.062 522C553.76 522 552.688 520.927 552.688 519.625C552.688 518.323 553.76 517.281 555.062 517.281ZM565.125 517.281C566.427 517.281 567.469 518.323 567.469 519.625C567.469 520.927 566.427 522 565.125 522C563.823 522 562.75 520.927 562.75 519.625C562.75 518.323 563.823 517.281 565.125 517.281ZM574.719 517.281C576.021 517.281 577.062 518.323 577.062 519.625C577.062 520.927 576.021 522 574.719 522C573.417 522 572.344 520.927 572.344 519.625C572.344 518.323 573.417 517.281 574.719 517.281ZM586.688 517.281C587.99 517.281 589.031 518.323 589.031 519.625C589.031 520.927 587.99 522 586.688 522C585.385 522 584.313 520.927 584.312 519.625C584.312 518.323 585.385 517.281 586.688 517.281ZM596.531 517.281C597.833 517.281 598.875 518.323 598.875 519.625C598.875 520.927 597.833 522 596.531 522C595.229 522 594.156 520.927 594.156 519.625C594.156 518.323 595.229 517.281 596.531 517.281ZM606.594 517.281C607.896 517.281 608.969 518.323 608.969 519.625C608.969 520.927 607.896 522 606.594 522C605.292 522 604.25 520.927 604.25 519.625C604.25 518.323 605.292 517.281 606.594 517.281ZM616.188 517.281C617.49 517.281 618.531 518.323 618.531 519.625C618.531 520.927 617.49 522 616.188 522C614.885 522 613.812 520.927 613.812 519.625C613.812 518.323 614.885 517.281 616.188 517.281ZM628.531 517.281C629.833 517.281 630.875 518.323 630.875 519.625C630.875 520.927 629.833 522 628.531 522C627.229 522 626.156 520.927 626.156 519.625C626.156 518.323 627.229 517.281 628.531 517.281ZM638.375 517.281C639.677 517.281 640.719 518.323 640.719 519.625C640.719 520.927 639.677 522 638.375 522C637.073 522 636 520.927 636 519.625C636 518.323 637.073 517.281 638.375 517.281ZM648.438 517.281C649.74 517.281 650.813 518.323 650.812 519.625C650.812 520.927 649.74 522 648.438 522C647.135 522 646.094 520.927 646.094 519.625C646.094 518.323 647.135 517.281 648.438 517.281ZM658.031 517.281C659.333 517.281 660.375 518.323 660.375 519.625C660.375 520.927 659.333 522 658.031 522C656.729 522 655.656 520.927 655.656 519.625C655.656 518.323 656.729 517.281 658.031 517.281ZM499.438 528C500.74 528 501.813 529.042 501.812 530.344C501.812 531.646 500.74 532.687 499.438 532.688C498.135 532.688 497.094 531.646 497.094 530.344C497.094 529.042 498.135 528 499.438 528ZM509.281 528C510.583 528 511.656 529.042 511.656 530.344C511.656 531.646 510.583 532.687 509.281 532.688C507.979 532.688 506.937 531.646 506.938 530.344C506.938 529.042 507.979 528 509.281 528ZM519.375 528C520.677 528 521.719 529.042 521.719 530.344C521.719 531.646 520.677 532.687 519.375 532.688C518.073 532.687 517 531.646 517 530.344C517 529.042 518.073 528 519.375 528ZM528.938 528C530.24 528 531.313 529.042 531.312 530.344C531.312 531.646 530.24 532.687 528.938 532.688C527.635 532.688 526.594 531.646 526.594 530.344C526.594 529.042 527.635 528 528.938 528ZM540.5 528C541.802 528 542.844 529.042 542.844 530.344C542.844 531.646 541.802 532.687 540.5 532.688C539.198 532.688 538.125 531.646 538.125 530.344C538.125 529.042 539.198 528 540.5 528ZM550.344 528C551.646 528 552.719 529.042 552.719 530.344C552.719 531.646 551.646 532.687 550.344 532.688C549.042 532.688 548 531.646 548 530.344C548 529.042 549.042 528 550.344 528ZM560.406 528C561.708 528 562.781 529.042 562.781 530.344C562.781 531.646 561.708 532.687 560.406 532.688C559.104 532.688 558.062 531.646 558.062 530.344C558.062 529.042 559.104 528 560.406 528ZM570 528C571.302 528 572.344 529.042 572.344 530.344C572.344 531.646 571.302 532.687 570 532.688C568.698 532.688 567.656 531.646 567.656 530.344C567.656 529.042 568.698 528 570 528ZM581.969 528C583.271 528 584.344 529.042 584.344 530.344C584.344 531.646 583.271 532.687 581.969 532.688C580.667 532.688 579.625 531.646 579.625 530.344C579.625 529.042 580.667 528 581.969 528ZM591.812 528C593.115 528 594.188 529.042 594.188 530.344C594.188 531.646 593.115 532.687 591.812 532.688C590.51 532.688 589.469 531.646 589.469 530.344C589.469 529.042 590.51 528 591.812 528ZM601.906 528C603.208 528 604.25 529.042 604.25 530.344C604.25 531.646 603.208 532.687 601.906 532.688C600.604 532.687 599.531 531.646 599.531 530.344C599.531 529.042 600.604 528 601.906 528ZM611.469 528C612.771 528 613.844 529.042 613.844 530.344C613.844 531.646 612.771 532.687 611.469 532.688C610.167 532.688 609.125 531.646 609.125 530.344C609.125 529.042 610.167 528 611.469 528ZM623.812 528C625.115 528 626.188 529.042 626.188 530.344C626.188 531.646 625.115 532.687 623.812 532.688C622.51 532.688 621.469 531.646 621.469 530.344C621.469 529.042 622.51 528 623.812 528ZM633.656 528C634.958 528 636.031 529.042 636.031 530.344C636.031 531.646 634.958 532.687 633.656 532.688C632.354 532.688 631.312 531.646 631.312 530.344C631.312 529.042 632.354 528 633.656 528ZM643.75 528C645.052 528 646.094 529.042 646.094 530.344C646.094 531.646 645.052 532.687 643.75 532.688C642.448 532.687 641.375 531.646 641.375 530.344C641.375 529.042 642.448 528 643.75 528ZM653.312 528C654.615 528 655.688 529.042 655.688 530.344C655.688 531.646 654.615 532.687 653.312 532.688C652.01 532.688 650.969 531.646 650.969 530.344C650.969 529.042 652.01 528 653.312 528ZM665.406 528C666.708 528 667.75 529.042 667.75 530.344C667.75 531.646 666.708 532.687 665.406 532.688C664.104 532.688 663.031 531.646 663.031 530.344C663.031 529.042 664.104 528 665.406 528ZM675.25 528C676.552 528 677.625 529.042 677.625 530.344C677.625 531.646 676.552 532.687 675.25 532.688C673.948 532.688 672.906 531.646 672.906 530.344C672.906 529.042 673.948 528 675.25 528ZM685.312 528C686.615 528 687.687 529.042 687.688 530.344C687.688 531.646 686.615 532.687 685.312 532.688C684.01 532.688 682.969 531.646 682.969 530.344C682.969 529.042 684.01 528 685.312 528ZM336.562 538.156C337.865 538.156 338.906 539.229 338.906 540.531C338.906 541.833 337.865 542.875 336.562 542.875C335.26 542.875 334.188 541.833 334.188 540.531C334.188 539.229 335.26 538.156 336.562 538.156ZM348 538.156C349.302 538.156 350.375 539.229 350.375 540.531C350.375 541.833 349.302 542.875 348 542.875C346.698 542.875 345.656 541.833 345.656 540.531C345.656 539.229 346.698 538.156 348 538.156ZM492.375 538.156C493.677 538.156 494.719 539.229 494.719 540.531C494.719 541.833 493.677 542.875 492.375 542.875C491.073 542.875 490.031 541.833 490.031 540.531C490.031 539.229 491.073 538.156 492.375 538.156ZM502.219 538.156C503.521 538.156 504.594 539.229 504.594 540.531C504.594 541.833 503.521 542.875 502.219 542.875C500.917 542.875 499.875 541.833 499.875 540.531C499.875 539.229 500.917 538.156 502.219 538.156ZM512.281 538.156C513.583 538.156 514.656 539.229 514.656 540.531C514.656 541.833 513.583 542.875 512.281 542.875C510.979 542.875 509.937 541.833 509.938 540.531C509.938 539.229 510.979 538.156 512.281 538.156ZM521.875 538.156C523.177 538.156 524.25 539.229 524.25 540.531C524.25 541.833 523.177 542.875 521.875 542.875C520.573 542.875 519.531 541.833 519.531 540.531C519.531 539.229 520.573 538.156 521.875 538.156ZM533.438 538.156C534.74 538.156 535.781 539.229 535.781 540.531C535.781 541.833 534.74 542.875 533.438 542.875C532.135 542.875 531.063 541.833 531.062 540.531C531.063 539.229 532.135 538.156 533.438 538.156ZM543.281 538.156C544.583 538.156 545.625 539.229 545.625 540.531C545.625 541.833 544.583 542.875 543.281 542.875C541.979 542.875 540.906 541.833 540.906 540.531C540.906 539.229 541.979 538.156 543.281 538.156ZM553.344 538.156C554.646 538.156 555.719 539.229 555.719 540.531C555.719 541.833 554.646 542.875 553.344 542.875C552.042 542.875 551 541.833 551 540.531C551 539.229 552.042 538.156 553.344 538.156ZM562.938 538.156C564.24 538.156 565.281 539.229 565.281 540.531C565.281 541.833 564.24 542.875 562.938 542.875C561.635 542.875 560.562 541.833 560.562 540.531C560.563 539.229 561.635 538.156 562.938 538.156ZM574.906 538.156C576.208 538.156 577.25 539.229 577.25 540.531C577.25 541.833 576.208 542.875 574.906 542.875C573.604 542.875 572.531 541.833 572.531 540.531C572.531 539.229 573.604 538.156 574.906 538.156ZM584.75 538.156C586.052 538.156 587.094 539.229 587.094 540.531C587.094 541.833 586.052 542.875 584.75 542.875C583.448 542.875 582.406 541.833 582.406 540.531C582.406 539.229 583.448 538.156 584.75 538.156ZM594.812 538.156C596.115 538.156 597.187 539.229 597.188 540.531C597.188 541.833 596.115 542.875 594.812 542.875C593.51 542.875 592.469 541.833 592.469 540.531C592.469 539.229 593.51 538.156 594.812 538.156ZM604.406 538.156C605.708 538.156 606.75 539.229 606.75 540.531C606.75 541.833 605.708 542.875 604.406 542.875C603.104 542.875 602.062 541.833 602.062 540.531C602.063 539.229 603.104 538.156 604.406 538.156ZM616.75 538.156C618.052 538.156 619.094 539.229 619.094 540.531C619.094 541.833 618.052 542.875 616.75 542.875C615.448 542.875 614.375 541.833 614.375 540.531C614.375 539.229 615.448 538.156 616.75 538.156ZM626.594 538.156C627.896 538.156 628.969 539.229 628.969 540.531C628.969 541.833 627.896 542.875 626.594 542.875C625.292 542.875 624.25 541.833 624.25 540.531C624.25 539.229 625.292 538.156 626.594 538.156ZM636.656 538.156C637.958 538.156 639.031 539.229 639.031 540.531C639.031 541.833 637.958 542.875 636.656 542.875C635.354 542.875 634.312 541.833 634.312 540.531C634.313 539.229 635.354 538.156 636.656 538.156ZM646.25 538.156C647.552 538.156 648.594 539.229 648.594 540.531C648.594 541.833 647.552 542.875 646.25 542.875C644.948 542.875 643.906 541.833 643.906 540.531C643.906 539.229 644.948 538.156 646.25 538.156ZM658.344 538.156C659.646 538.156 660.688 539.229 660.688 540.531C660.688 541.833 659.646 542.875 658.344 542.875C657.042 542.875 655.969 541.833 655.969 540.531C655.969 539.229 657.042 538.156 658.344 538.156ZM668.188 538.156C669.49 538.156 670.531 539.229 670.531 540.531C670.531 541.833 669.49 542.875 668.188 542.875C666.885 542.875 665.812 541.833 665.812 540.531C665.813 539.229 666.885 538.156 668.188 538.156ZM678.25 538.156C679.552 538.156 680.625 539.229 680.625 540.531C680.625 541.833 679.552 542.875 678.25 542.875C676.948 542.875 675.906 541.833 675.906 540.531C675.906 539.229 676.948 538.156 678.25 538.156ZM687.844 538.156C689.146 538.156 690.187 539.229 690.188 540.531C690.188 541.833 689.146 542.875 687.844 542.875C686.542 542.875 685.469 541.833 685.469 540.531C685.469 539.229 686.542 538.156 687.844 538.156ZM700.125 538.156C701.427 538.156 702.469 539.229 702.469 540.531C702.469 541.833 701.427 542.875 700.125 542.875C698.823 542.875 697.75 541.833 697.75 540.531C697.75 539.229 698.823 538.156 700.125 538.156ZM740.031 538.156C741.333 538.156 742.406 539.229 742.406 540.531C742.406 541.833 741.333 542.875 740.031 542.875C738.729 542.875 737.688 541.833 737.688 540.531C737.688 539.229 738.729 538.156 740.031 538.156ZM854.375 538.156C855.677 538.156 856.719 539.229 856.719 540.531C856.719 541.833 855.677 542.875 854.375 542.875C853.073 542.875 852.031 541.833 852.031 540.531C852.031 539.229 853.073 538.156 854.375 538.156ZM350.375 548.938C351.677 548.938 352.719 549.979 352.719 551.281C352.719 552.583 351.677 553.656 350.375 553.656C349.073 553.656 348 552.583 348 551.281C348 549.979 349.073 548.938 350.375 548.938ZM360.781 548.938C362.083 548.938 363.125 549.979 363.125 551.281C363.125 552.583 362.083 553.656 360.781 553.656C359.479 553.656 358.406 552.583 358.406 551.281C358.406 549.979 359.479 548.938 360.781 548.938ZM370.906 548.938C372.208 548.938 373.281 549.979 373.281 551.281C373.281 552.583 372.208 553.656 370.906 553.656C369.604 553.656 368.562 552.583 368.562 551.281C368.562 549.979 369.604 548.938 370.906 548.938ZM649.906 548.938C651.208 548.938 652.25 549.979 652.25 551.281C652.25 552.583 651.208 553.656 649.906 553.656C648.604 553.656 647.562 552.583 647.562 551.281C647.562 549.979 648.604 548.938 649.906 548.938ZM662.25 548.938C663.552 548.938 664.594 549.979 664.594 551.281C664.594 552.583 663.552 553.656 662.25 553.656C660.948 553.656 659.875 552.583 659.875 551.281C659.875 549.979 660.948 548.938 662.25 548.938ZM672.094 548.938C673.396 548.938 674.469 549.979 674.469 551.281C674.469 552.583 673.396 553.656 672.094 553.656C670.792 553.656 669.75 552.583 669.75 551.281C669.75 549.979 670.792 548.938 672.094 548.938ZM682.156 548.938C683.458 548.938 684.531 549.979 684.531 551.281C684.531 552.583 683.458 553.656 682.156 553.656C680.854 553.656 679.812 552.583 679.812 551.281C679.812 549.979 680.854 548.938 682.156 548.938ZM691.75 548.938C693.052 548.938 694.094 549.979 694.094 551.281C694.094 552.583 693.052 553.656 691.75 553.656C690.448 553.656 689.406 552.583 689.406 551.281C689.406 549.979 690.448 548.938 691.75 548.938ZM703.844 548.938C705.146 548.938 706.187 549.979 706.188 551.281C706.187 552.583 705.146 553.656 703.844 553.656C702.542 553.656 701.469 552.583 701.469 551.281C701.469 549.979 702.542 548.938 703.844 548.938ZM713.688 548.938C714.99 548.938 716.031 549.979 716.031 551.281C716.031 552.583 714.99 553.656 713.688 553.656C712.385 553.656 711.313 552.583 711.312 551.281C711.312 549.979 712.385 548.938 713.688 548.938ZM723.75 548.938C725.052 548.938 726.125 549.979 726.125 551.281C726.125 552.583 725.052 553.656 723.75 553.656C722.448 553.656 721.406 552.583 721.406 551.281C721.406 549.979 722.448 548.938 723.75 548.938ZM733.344 548.938C734.646 548.938 735.688 549.979 735.688 551.281C735.687 552.583 734.646 553.656 733.344 553.656C732.042 553.656 730.969 552.583 730.969 551.281C730.969 549.979 732.042 548.938 733.344 548.938ZM745.625 548.938C746.927 548.938 747.969 549.979 747.969 551.281C747.969 552.583 746.927 553.656 745.625 553.656C744.323 553.656 743.25 552.583 743.25 551.281C743.25 549.979 744.323 548.938 745.625 548.938ZM818.25 548.938C819.552 548.938 820.625 549.979 820.625 551.281C820.625 552.583 819.552 553.656 818.25 553.656C816.948 553.656 815.906 552.583 815.906 551.281C815.906 549.979 816.948 548.938 818.25 548.938ZM827.844 548.938C829.146 548.938 830.188 549.979 830.188 551.281C830.187 552.583 829.146 553.656 827.844 553.656C826.542 553.656 825.469 552.583 825.469 551.281C825.469 549.979 826.542 548.938 827.844 548.938ZM837.781 548.938C839.083 548.938 840.125 549.979 840.125 551.281C840.125 552.583 839.083 553.656 837.781 553.656C836.479 553.656 835.406 552.583 835.406 551.281C835.406 549.979 836.479 548.938 837.781 548.938ZM592.062 553.656C605.925 553.689 617.942 553.778 625.281 553.938C654.637 554.576 661.786 574.212 663.062 577.562C664.339 580.913 663.245 591.418 661.969 598.438C660.692 605.457 652.742 620.089 644.75 629.062C636.758 638.036 618.563 652.05 602.719 658.5C586.874 664.95 565.099 666.656 550.938 666.656C536.776 666.656 464.594 666.375 464.594 666.375L519.438 576.344L492.062 553.906C492.062 553.906 550.474 553.557 592.062 553.656ZM479.469 557.812C480.771 557.812 481.844 558.854 481.844 560.156C481.844 561.458 480.771 562.531 479.469 562.531C478.167 562.531 477.125 561.458 477.125 560.156C477.125 558.854 478.167 557.813 479.469 557.812ZM789.312 558.469C790.615 558.469 791.688 559.51 791.688 560.812C791.688 562.115 790.615 563.156 789.312 563.156C788.01 563.156 786.969 562.115 786.969 560.812C786.969 559.51 788.01 558.469 789.312 558.469ZM798.906 558.469C800.208 558.469 801.25 559.51 801.25 560.812C801.25 562.115 800.208 563.156 798.906 563.156C797.604 563.156 796.563 562.115 796.562 560.812C796.562 559.51 797.604 558.469 798.906 558.469ZM811.188 558.469C812.49 558.469 813.563 559.51 813.562 560.812C813.562 562.115 812.49 563.156 811.188 563.156C809.885 563.156 808.844 562.115 808.844 560.812C808.844 559.51 809.885 558.469 811.188 558.469ZM365.5 559.031C366.802 559.031 367.844 560.104 367.844 561.406C367.844 562.708 366.802 563.75 365.5 563.75C364.198 563.75 363.125 562.708 363.125 561.406C363.125 560.104 364.198 559.031 365.5 559.031ZM375.625 559.031C376.927 559.031 377.969 560.104 377.969 561.406C377.969 562.708 376.927 563.75 375.625 563.75C374.323 563.75 373.281 562.708 373.281 561.406C373.281 560.104 374.323 559.031 375.625 559.031ZM386.656 559.031C387.958 559.031 389 560.104 389 561.406C389 562.708 387.958 563.75 386.656 563.75C385.354 563.75 384.312 562.708 384.312 561.406C384.313 560.104 385.354 559.031 386.656 559.031ZM395.969 559.031C397.271 559.031 398.344 560.104 398.344 561.406C398.344 562.708 397.271 563.75 395.969 563.75C394.667 563.75 393.625 562.708 393.625 561.406C393.625 560.104 394.667 559.031 395.969 559.031ZM406.469 559.031C407.771 559.031 408.844 560.104 408.844 561.406C408.844 562.708 407.771 563.75 406.469 563.75C405.167 563.75 404.125 562.708 404.125 561.406C404.125 560.104 405.167 559.031 406.469 559.031ZM666 559.031C667.302 559.031 668.344 560.104 668.344 561.406C668.344 562.708 667.302 563.75 666 563.75C664.698 563.75 663.656 562.708 663.656 561.406C663.656 560.104 664.698 559.031 666 559.031ZM678.344 559.031C679.646 559.031 680.688 560.104 680.688 561.406C680.688 562.708 679.646 563.75 678.344 563.75C677.042 563.75 675.969 562.708 675.969 561.406C675.969 560.104 677.042 559.031 678.344 559.031ZM688.188 559.031C689.49 559.031 690.531 560.104 690.531 561.406C690.531 562.708 689.49 563.75 688.188 563.75C686.885 563.75 685.844 562.708 685.844 561.406C685.844 560.104 686.885 559.031 688.188 559.031ZM719.938 559.031C721.24 559.031 722.281 560.104 722.281 561.406C722.281 562.708 721.24 563.75 719.938 563.75C718.635 563.75 717.563 562.708 717.562 561.406C717.563 560.104 718.635 559.031 719.938 559.031ZM729.781 559.031C731.083 559.031 732.125 560.104 732.125 561.406C732.125 562.708 731.083 563.75 729.781 563.75C728.479 563.75 727.406 562.708 727.406 561.406C727.406 560.104 728.479 559.031 729.781 559.031ZM739.844 559.031C741.146 559.031 742.219 560.104 742.219 561.406C742.219 562.708 741.146 563.75 739.844 563.75C738.542 563.75 737.5 562.708 737.5 561.406C737.5 560.104 738.542 559.031 739.844 559.031ZM749.438 559.031C750.74 559.031 751.781 560.104 751.781 561.406C751.781 562.708 750.74 563.75 749.438 563.75C748.135 563.75 747.063 562.708 747.062 561.406C747.063 560.104 748.135 559.031 749.438 559.031ZM472.719 567.438C474.021 567.438 475.063 568.479 475.062 569.781C475.062 571.083 474.021 572.156 472.719 572.156C471.417 572.156 470.375 571.083 470.375 569.781C470.375 568.479 471.417 567.438 472.719 567.438ZM482.781 567.438C484.083 567.438 485.156 568.479 485.156 569.781C485.156 571.083 484.083 572.156 482.781 572.156C481.479 572.156 480.437 571.083 480.438 569.781C480.438 568.479 481.479 567.438 482.781 567.438ZM492.375 567.438C493.677 567.438 494.719 568.479 494.719 569.781C494.719 571.083 493.677 572.156 492.375 572.156C491.073 572.156 490.031 571.083 490.031 569.781C490.031 568.479 491.073 567.438 492.375 567.438ZM380.344 568.562C381.646 568.562 382.688 569.604 382.688 570.906C382.687 572.208 381.646 573.281 380.344 573.281C379.042 573.281 377.969 572.208 377.969 570.906C377.969 569.604 379.042 568.562 380.344 568.562ZM390.312 568.562C391.615 568.562 392.656 569.604 392.656 570.906C392.656 572.208 391.615 573.281 390.312 573.281C389.01 573.281 387.937 572.208 387.938 570.906C387.938 569.604 389.01 568.562 390.312 568.562ZM400.688 568.562C401.99 568.563 403.063 569.604 403.062 570.906C403.062 572.208 401.99 573.281 400.688 573.281C399.385 573.281 398.344 572.208 398.344 570.906C398.344 569.604 399.385 568.562 400.688 568.562ZM411.188 568.562C412.49 568.562 413.531 569.604 413.531 570.906C413.531 572.208 412.49 573.281 411.188 573.281C409.885 573.281 408.844 572.208 408.844 570.906C408.844 569.604 409.885 568.562 411.188 568.562ZM723.5 568.562C724.802 568.563 725.875 569.604 725.875 570.906C725.875 572.208 724.802 573.281 723.5 573.281C722.198 573.281 721.156 572.208 721.156 570.906C721.156 569.604 722.198 568.562 723.5 568.562ZM733.594 568.562C734.896 568.562 735.938 569.604 735.938 570.906C735.937 572.208 734.896 573.281 733.594 573.281C732.292 573.281 731.219 572.208 731.219 570.906C731.219 569.604 732.292 568.562 733.594 568.562ZM743.156 568.562C744.458 568.563 745.531 569.604 745.531 570.906C745.531 572.208 744.458 573.281 743.156 573.281C741.854 573.281 740.813 572.208 740.812 570.906C740.812 569.604 741.854 568.562 743.156 568.562ZM795.344 568.562C796.646 568.562 797.719 569.604 797.719 570.906C797.719 572.208 796.646 573.281 795.344 573.281C794.042 573.281 793 572.208 793 570.906C793 569.604 794.042 568.562 795.344 568.562ZM384.312 578.312C385.615 578.312 386.656 579.354 386.656 580.656C386.656 581.958 385.615 583.031 384.312 583.031C383.01 583.031 381.937 581.958 381.938 580.656C381.938 579.354 383.01 578.313 384.312 578.312ZM393.625 578.312C394.927 578.312 395.969 579.354 395.969 580.656C395.969 581.958 394.927 583.031 393.625 583.031C392.323 583.031 391.25 581.958 391.25 580.656C391.25 579.354 392.323 578.313 393.625 578.312ZM404.125 578.312C405.427 578.312 406.469 579.354 406.469 580.656C406.469 581.958 405.427 583.031 404.125 583.031C402.823 583.031 401.75 581.958 401.75 580.656C401.75 579.354 402.823 578.313 404.125 578.312ZM466.938 578.312C468.24 578.313 469.312 579.354 469.312 580.656C469.312 581.958 468.24 583.031 466.938 583.031C465.635 583.031 464.594 581.958 464.594 580.656C464.594 579.354 465.635 578.313 466.938 578.312ZM477.125 578.312C478.427 578.312 479.469 579.354 479.469 580.656C479.469 581.958 478.427 583.031 477.125 583.031C475.823 583.031 474.75 581.958 474.75 580.656C474.75 579.354 475.823 578.313 477.125 578.312ZM486.594 578.312C487.896 578.312 488.938 579.354 488.938 580.656C488.937 581.958 487.896 583.031 486.594 583.031C485.292 583.031 484.219 581.958 484.219 580.656C484.219 579.354 485.292 578.313 486.594 578.312ZM497.094 578.312C498.396 578.312 499.438 579.354 499.438 580.656C499.437 581.958 498.396 583.031 497.094 583.031C495.792 583.031 494.719 581.958 494.719 580.656C494.719 579.354 495.792 578.313 497.094 578.312ZM716.469 578.312C717.771 578.312 718.844 579.354 718.844 580.656C718.844 581.958 717.771 583.031 716.469 583.031C715.167 583.031 714.125 581.958 714.125 580.656C714.125 579.354 715.167 578.313 716.469 578.312ZM726.312 578.312C727.615 578.313 728.687 579.354 728.688 580.656C728.687 581.958 727.615 583.031 726.312 583.031C725.01 583.031 723.969 581.958 723.969 580.656C723.969 579.354 725.01 578.313 726.312 578.312ZM736.406 578.312C737.708 578.312 738.75 579.354 738.75 580.656C738.75 581.958 737.708 583.031 736.406 583.031C735.104 583.031 734.031 581.958 734.031 580.656C734.031 579.354 735.104 578.313 736.406 578.312ZM745.969 578.312C747.271 578.313 748.344 579.354 748.344 580.656C748.344 581.958 747.271 583.031 745.969 583.031C744.667 583.031 743.625 581.958 743.625 580.656C743.625 579.354 744.667 578.313 745.969 578.312ZM720.062 587.812C721.365 587.812 722.406 588.885 722.406 590.188C722.406 591.49 721.365 592.531 720.062 592.531C718.76 592.531 717.688 591.49 717.688 590.188C717.688 588.885 718.76 587.813 720.062 587.812ZM730.125 587.812C731.427 587.812 732.5 588.885 732.5 590.188C732.5 591.49 731.427 592.531 730.125 592.531C728.823 592.531 727.781 591.49 727.781 590.188C727.781 588.885 728.823 587.813 730.125 587.812ZM739.719 587.812C741.021 587.812 742.062 588.885 742.062 590.188C742.062 591.49 741.021 592.531 739.719 592.531C738.417 592.531 737.344 591.49 737.344 590.188C737.344 588.885 738.417 587.813 739.719 587.812ZM398.344 588.344C399.646 588.344 400.688 589.385 400.688 590.688C400.688 591.99 399.646 593.063 398.344 593.062C397.042 593.062 395.969 591.99 395.969 590.688C395.969 589.385 397.042 588.344 398.344 588.344ZM460.5 588.344C461.802 588.344 462.875 589.385 462.875 590.688C462.875 591.99 461.802 593.063 460.5 593.062C459.198 593.062 458.156 591.99 458.156 590.688C458.156 589.385 459.198 588.344 460.5 588.344ZM470.375 588.344C471.677 588.344 472.719 589.385 472.719 590.688C472.719 591.99 471.677 593.063 470.375 593.062C469.073 593.062 468 591.99 468 590.688C468 589.385 469.073 588.344 470.375 588.344ZM480.438 588.344C481.74 588.344 482.781 589.385 482.781 590.688C482.781 591.99 481.74 593.063 480.438 593.062C479.135 593.062 478.063 591.99 478.062 590.688C478.062 589.385 479.135 588.344 480.438 588.344ZM490.031 588.344C491.333 588.344 492.375 589.385 492.375 590.688C492.375 591.99 491.333 593.063 490.031 593.062C488.729 593.062 487.656 591.99 487.656 590.688C487.656 589.385 488.729 588.344 490.031 588.344ZM454.719 600.438C456.021 600.438 457.094 601.479 457.094 602.781C457.094 604.083 456.021 605.156 454.719 605.156C453.417 605.156 452.375 604.083 452.375 602.781C452.375 601.479 453.417 600.437 454.719 600.438ZM464.594 600.438C465.896 600.438 466.938 601.479 466.938 602.781C466.937 604.083 465.896 605.156 464.594 605.156C463.292 605.156 462.219 604.083 462.219 602.781C462.219 601.479 463.292 600.437 464.594 600.438ZM474.656 600.438C475.958 600.438 477 601.479 477 602.781C477 604.083 475.958 605.156 474.656 605.156C473.354 605.156 472.281 604.083 472.281 602.781C472.281 601.479 473.354 600.437 474.656 600.438ZM484.219 600.438C485.521 600.438 486.594 601.479 486.594 602.781C486.594 604.083 485.521 605.156 484.219 605.156C482.917 605.156 481.875 604.083 481.875 602.781C481.875 601.479 482.917 600.437 484.219 600.438ZM714.125 600.438C715.427 600.438 716.469 601.479 716.469 602.781C716.469 604.083 715.427 605.156 714.125 605.156C712.823 605.156 711.75 604.083 711.75 602.781C711.75 601.479 712.823 600.437 714.125 600.438ZM723.969 600.438C725.271 600.438 726.313 601.479 726.312 602.781C726.312 604.083 725.271 605.156 723.969 605.156C722.667 605.156 721.594 604.083 721.594 602.781C721.594 601.479 722.667 600.437 723.969 600.438ZM734.031 600.438C735.333 600.438 736.406 601.479 736.406 602.781C736.406 604.083 735.333 605.156 734.031 605.156C732.729 605.156 731.688 604.083 731.688 602.781C731.688 601.479 732.729 600.437 734.031 600.438ZM743.625 600.438C744.927 600.438 745.969 601.479 745.969 602.781C745.969 604.083 744.927 605.156 743.625 605.156C742.323 605.156 741.25 604.083 741.25 602.781C741.25 601.479 742.323 600.437 743.625 600.438ZM707.094 609.938C708.396 609.938 709.469 611.01 709.469 612.312C709.469 613.615 708.396 614.656 707.094 614.656C705.792 614.656 704.75 613.615 704.75 612.312C704.75 611.01 705.792 609.938 707.094 609.938ZM717.688 609.938C718.99 609.938 720.062 611.01 720.062 612.312C720.062 613.615 718.99 614.656 717.688 614.656C716.385 614.656 715.344 613.615 715.344 612.312C715.344 611.01 716.385 609.938 717.688 609.938ZM727.781 609.938C729.083 609.938 730.125 611.01 730.125 612.312C730.125 613.615 729.083 614.656 727.781 614.656C726.479 614.656 725.406 613.615 725.406 612.312C725.406 611.01 726.479 609.938 727.781 609.938ZM737.344 609.938C738.646 609.938 739.719 611.01 739.719 612.312C739.719 613.615 738.646 614.656 737.344 614.656C736.042 614.656 735 613.615 735 612.312C735 611.01 736.042 609.938 737.344 609.938ZM448.562 610.156C449.865 610.156 450.938 611.198 450.938 612.5C450.938 613.802 449.865 614.875 448.562 614.875C447.26 614.875 446.219 613.802 446.219 612.5C446.219 611.198 447.26 610.156 448.562 610.156ZM458.438 610.156C459.74 610.156 460.781 611.198 460.781 612.5C460.781 613.802 459.74 614.875 458.438 614.875C457.135 614.875 456.063 613.802 456.062 612.5C456.062 611.198 457.135 610.156 458.438 610.156ZM468.5 610.156C469.802 610.156 470.844 611.198 470.844 612.5C470.844 613.802 469.802 614.875 468.5 614.875C467.198 614.875 466.125 613.802 466.125 612.5C466.125 611.198 467.198 610.156 468.5 610.156ZM478.062 610.156C479.365 610.156 480.437 611.198 480.438 612.5C480.438 613.802 479.365 614.875 478.062 614.875C476.76 614.875 475.719 613.802 475.719 612.5C475.719 611.198 476.76 610.156 478.062 610.156ZM441.312 620.844C442.615 620.844 443.656 621.885 443.656 623.188C443.656 624.49 442.615 625.562 441.312 625.562C440.01 625.562 438.969 624.49 438.969 623.188C438.969 621.885 440.01 620.844 441.312 620.844ZM451.156 620.844C452.458 620.844 453.531 621.885 453.531 623.188C453.531 624.49 452.458 625.562 451.156 625.562C449.854 625.562 448.812 624.49 448.812 623.188C448.812 621.885 449.854 620.844 451.156 620.844ZM461.25 620.844C462.552 620.844 463.594 621.885 463.594 623.188C463.594 624.49 462.552 625.562 461.25 625.562C459.948 625.562 458.875 624.49 458.875 623.188C458.875 621.885 459.948 620.844 461.25 620.844ZM470.812 620.844C472.115 620.844 473.188 621.885 473.188 623.188C473.188 624.49 472.115 625.562 470.812 625.562C469.51 625.562 468.469 624.49 468.469 623.188C468.469 621.885 469.51 620.844 470.812 620.844ZM701.719 620.844C703.021 620.844 704.062 621.885 704.062 623.188C704.062 624.49 703.021 625.562 701.719 625.562C700.417 625.562 699.375 624.49 699.375 623.188C699.375 621.885 700.417 620.844 701.719 620.844ZM711.562 620.844C712.865 620.844 713.938 621.885 713.938 623.188C713.938 624.49 712.865 625.562 711.562 625.562C710.26 625.562 709.219 624.49 709.219 623.188C709.219 621.885 710.26 620.844 711.562 620.844ZM721.656 620.844C722.958 620.844 724 621.885 724 623.188C724 624.49 722.958 625.562 721.656 625.562C720.354 625.562 719.281 624.49 719.281 623.188C719.281 621.885 720.354 620.844 721.656 620.844ZM731.219 620.844C732.521 620.844 733.594 621.885 733.594 623.188C733.594 624.49 732.521 625.562 731.219 625.562C729.917 625.562 728.875 624.49 728.875 623.188C728.875 621.885 729.917 620.844 731.219 620.844ZM694.719 630.344C696.021 630.344 697.062 631.417 697.062 632.719C697.062 634.021 696.021 635.063 694.719 635.062C693.417 635.062 692.344 634.021 692.344 632.719C692.344 631.417 693.417 630.344 694.719 630.344ZM705.312 630.344C706.615 630.344 707.656 631.417 707.656 632.719C707.656 634.021 706.615 635.063 705.312 635.062C704.01 635.062 702.937 634.021 702.938 632.719C702.938 631.417 704.01 630.344 705.312 630.344ZM715.375 630.344C716.677 630.344 717.75 631.417 717.75 632.719C717.75 634.021 716.677 635.063 715.375 635.062C714.073 635.062 713.031 634.021 713.031 632.719C713.031 631.417 714.073 630.344 715.375 630.344ZM724.969 630.344C726.271 630.344 727.313 631.417 727.312 632.719C727.312 634.021 726.271 635.063 724.969 635.062C723.667 635.062 722.594 634.021 722.594 632.719C722.594 631.417 723.667 630.344 724.969 630.344ZM436.156 630.906C437.458 630.906 438.5 631.948 438.5 633.25C438.5 634.552 437.458 635.625 436.156 635.625C434.854 635.625 433.781 634.552 433.781 633.25C433.781 631.948 434.854 630.906 436.156 630.906ZM446 630.906C447.302 630.906 448.344 631.948 448.344 633.25C448.344 634.552 447.302 635.625 446 635.625C444.698 635.625 443.625 634.552 443.625 633.25C443.625 631.948 444.698 630.906 446 630.906ZM456.062 630.906C457.365 630.906 458.437 631.948 458.438 633.25C458.438 634.552 457.365 635.625 456.062 635.625C454.76 635.625 453.719 634.552 453.719 633.25C453.719 631.948 454.76 630.906 456.062 630.906ZM465.656 630.906C466.958 630.906 468 631.948 468 633.25C468 634.552 466.958 635.625 465.656 635.625C464.354 635.625 463.281 634.552 463.281 633.25C463.281 631.948 464.354 630.906 465.656 630.906ZM429.375 641.375C430.677 641.375 431.719 642.417 431.719 643.719C431.719 645.021 430.677 646.094 429.375 646.094C428.073 646.094 427.031 645.021 427.031 643.719C427.031 642.417 428.073 641.375 429.375 641.375ZM439.219 641.375C440.521 641.375 441.594 642.417 441.594 643.719C441.594 645.021 440.521 646.094 439.219 646.094C437.917 646.094 436.875 645.021 436.875 643.719C436.875 642.417 437.917 641.375 439.219 641.375ZM449.312 641.375C450.615 641.375 451.656 642.417 451.656 643.719C451.656 645.021 450.615 646.094 449.312 646.094C448.01 646.094 446.937 645.021 446.938 643.719C446.938 642.417 448.01 641.375 449.312 641.375ZM458.875 641.375C460.177 641.375 461.25 642.417 461.25 643.719C461.25 645.021 460.177 646.094 458.875 646.094C457.573 646.094 456.531 645.021 456.531 643.719C456.531 642.417 457.573 641.375 458.875 641.375ZM689.531 641.375C690.833 641.375 691.906 642.417 691.906 643.719C691.906 645.021 690.833 646.094 689.531 646.094C688.229 646.094 687.188 645.021 687.188 643.719C687.188 642.417 688.229 641.375 689.531 641.375ZM699.375 641.375C700.677 641.375 701.75 642.417 701.75 643.719C701.75 645.021 700.677 646.094 699.375 646.094C698.073 646.094 697.031 645.021 697.031 643.719C697.031 642.417 698.073 641.375 699.375 641.375ZM709.469 641.375C710.771 641.375 711.813 642.417 711.812 643.719C711.812 645.021 710.771 646.094 709.469 646.094C708.167 646.094 707.094 645.021 707.094 643.719C707.094 642.417 708.167 641.375 709.469 641.375ZM719.031 641.375C720.333 641.375 721.406 642.417 721.406 643.719C721.406 645.021 720.333 646.094 719.031 646.094C717.729 646.094 716.688 645.021 716.688 643.719C716.688 642.417 717.729 641.375 719.031 641.375ZM682.531 650.875C683.833 650.875 684.875 651.948 684.875 653.25C684.875 654.552 683.833 655.594 682.531 655.594C681.229 655.594 680.156 654.552 680.156 653.25C680.156 651.948 681.229 650.875 682.531 650.875ZM693.125 650.875C694.427 650.875 695.469 651.948 695.469 653.25C695.469 654.552 694.427 655.594 693.125 655.594C691.823 655.594 690.75 654.552 690.75 653.25C690.75 651.948 691.823 650.875 693.125 650.875ZM703.188 650.875C704.49 650.875 705.563 651.948 705.562 653.25C705.562 654.552 704.49 655.594 703.188 655.594C701.885 655.594 700.844 654.552 700.844 653.25C700.844 651.948 701.885 650.875 703.188 650.875ZM712.781 650.875C714.083 650.875 715.125 651.948 715.125 653.25C715.125 654.552 714.083 655.594 712.781 655.594C711.479 655.594 710.406 654.552 710.406 653.25C710.406 651.948 711.479 650.875 712.781 650.875ZM423.75 651.562C425.052 651.562 426.094 652.635 426.094 653.938C426.094 655.24 425.052 656.281 423.75 656.281C422.448 656.281 421.406 655.24 421.406 653.938C421.406 652.635 422.448 651.563 423.75 651.562ZM433.594 651.562C434.896 651.562 435.969 652.635 435.969 653.938C435.969 655.24 434.896 656.281 433.594 656.281C432.292 656.281 431.25 655.24 431.25 653.938C431.25 652.635 432.292 651.563 433.594 651.562ZM443.656 651.562C444.958 651.563 446.031 652.635 446.031 653.938C446.031 655.24 444.958 656.281 443.656 656.281C442.354 656.281 441.312 655.24 441.312 653.938C441.313 652.635 442.354 651.563 443.656 651.562ZM453.25 651.562C454.552 651.562 455.625 652.635 455.625 653.938C455.625 655.24 454.552 656.281 453.25 656.281C451.948 656.281 450.906 655.24 450.906 653.938C450.906 652.635 451.948 651.563 453.25 651.562ZM417.438 661.938C418.74 661.938 419.781 662.979 419.781 664.281C419.781 665.583 418.74 666.625 417.438 666.625C416.135 666.625 415.094 665.583 415.094 664.281C415.094 662.979 416.135 661.938 417.438 661.938ZM427.281 661.938C428.583 661.938 429.656 662.979 429.656 664.281C429.656 665.583 428.583 666.625 427.281 666.625C425.979 666.625 424.937 665.583 424.938 664.281C424.938 662.979 425.979 661.938 427.281 661.938ZM437.375 661.938C438.677 661.938 439.719 662.979 439.719 664.281C439.719 665.583 438.677 666.625 437.375 666.625C436.073 666.625 435 665.583 435 664.281C435 662.979 436.073 661.938 437.375 661.938ZM446.938 661.938C448.24 661.938 449.313 662.979 449.312 664.281C449.312 665.583 448.24 666.625 446.938 666.625C445.635 666.625 444.594 665.583 444.594 664.281C444.594 662.979 445.635 661.938 446.938 661.938ZM664.75 661.938C666.052 661.938 667.094 662.979 667.094 664.281C667.094 665.583 666.052 666.625 664.75 666.625C663.448 666.625 662.375 665.583 662.375 664.281C662.375 662.979 663.448 661.938 664.75 661.938ZM674.594 661.938C675.896 661.938 676.938 662.979 676.938 664.281C676.938 665.583 675.896 666.625 674.594 666.625C673.292 666.625 672.219 665.583 672.219 664.281C672.219 662.979 673.292 661.938 674.594 661.938ZM684.656 661.938C685.958 661.938 687.031 662.979 687.031 664.281C687.031 665.583 685.958 666.625 684.656 666.625C683.354 666.625 682.312 665.583 682.312 664.281C682.312 662.979 683.354 661.938 684.656 661.938ZM694.25 661.938C695.552 661.938 696.594 662.979 696.594 664.281C696.594 665.583 695.552 666.625 694.25 666.625C692.948 666.625 691.875 665.583 691.875 664.281C691.875 662.979 692.948 661.938 694.25 661.938ZM705.312 661.938C706.615 661.938 707.656 662.979 707.656 664.281C707.656 665.583 706.615 666.625 705.312 666.625C704.01 666.625 702.937 665.583 702.938 664.281C702.938 662.979 704.01 661.938 705.312 661.938ZM657.719 671.438C659.021 671.438 660.094 672.51 660.094 673.812C660.094 675.115 659.021 676.156 657.719 676.156C656.417 676.156 655.375 675.115 655.375 673.812C655.375 672.51 656.417 671.438 657.719 671.438ZM668.312 671.438C669.615 671.438 670.688 672.51 670.688 673.812C670.688 675.115 669.615 676.156 668.312 676.156C667.01 676.156 665.969 675.115 665.969 673.812C665.969 672.51 667.01 671.438 668.312 671.438ZM678.406 671.438C679.708 671.438 680.75 672.51 680.75 673.812C680.75 675.115 679.708 676.156 678.406 676.156C677.104 676.156 676.031 675.115 676.031 673.812C676.031 672.51 677.104 671.438 678.406 671.438ZM687.969 671.438C689.271 671.438 690.344 672.51 690.344 673.812C690.344 675.115 689.271 676.156 687.969 676.156C686.667 676.156 685.625 675.115 685.625 673.812C685.625 672.51 686.667 671.438 687.969 671.438ZM410.188 672.5C411.49 672.5 412.531 673.573 412.531 674.875C412.531 676.177 411.49 677.219 410.188 677.219C408.885 677.219 407.812 676.177 407.812 674.875C407.813 673.573 408.885 672.5 410.188 672.5ZM420.031 672.5C421.333 672.5 422.375 673.573 422.375 674.875C422.375 676.177 421.333 677.219 420.031 677.219C418.729 677.219 417.656 676.177 417.656 674.875C417.656 673.573 418.729 672.5 420.031 672.5ZM430.094 672.5C431.396 672.5 432.469 673.573 432.469 674.875C432.469 676.177 431.396 677.219 430.094 677.219C428.792 677.219 427.75 676.177 427.75 674.875C427.75 673.573 428.792 672.5 430.094 672.5ZM439.688 672.5C440.99 672.5 442.031 673.573 442.031 674.875C442.031 676.177 440.99 677.219 439.688 677.219C438.385 677.219 437.312 676.177 437.312 674.875C437.313 673.573 438.385 672.5 439.688 672.5ZM402.906 682.156C404.208 682.156 405.281 683.198 405.281 684.5C405.281 685.802 404.208 686.875 402.906 686.875C401.604 686.875 400.562 685.802 400.562 684.5C400.562 683.198 401.604 682.156 402.906 682.156ZM412.781 682.156C414.083 682.156 415.125 683.198 415.125 684.5C415.125 685.802 414.083 686.875 412.781 686.875C411.479 686.875 410.406 685.802 410.406 684.5C410.406 683.198 411.479 682.156 412.781 682.156ZM422.844 682.156C424.146 682.156 425.188 683.198 425.188 684.5C425.188 685.802 424.146 686.875 422.844 686.875C421.542 686.875 420.469 685.802 420.469 684.5C420.469 683.198 421.542 682.156 422.844 682.156ZM631.344 683.031C632.646 683.031 633.688 684.104 633.688 685.406C633.688 686.708 632.646 687.75 631.344 687.75C630.042 687.75 628.969 686.708 628.969 685.406C628.969 684.104 630.042 683.031 631.344 683.031ZM641.188 683.031C642.49 683.031 643.531 684.104 643.531 685.406C643.531 686.708 642.49 687.75 641.188 687.75C639.885 687.75 638.812 686.708 638.812 685.406C638.812 684.104 639.885 683.031 641.188 683.031ZM651.25 683.031C652.552 683.031 653.625 684.104 653.625 685.406C653.625 686.708 652.552 687.75 651.25 687.75C649.948 687.75 648.906 686.708 648.906 685.406C648.906 684.104 649.948 683.031 651.25 683.031ZM660.844 683.031C662.146 683.031 663.188 684.104 663.188 685.406C663.188 686.708 662.146 687.75 660.844 687.75C659.542 687.75 658.469 686.708 658.469 685.406C658.469 684.104 659.542 683.031 660.844 683.031ZM672.438 683.031C673.74 683.031 674.813 684.104 674.812 685.406C674.812 686.708 673.74 687.75 672.438 687.75C671.135 687.75 670.094 686.708 670.094 685.406C670.094 684.104 671.135 683.031 672.438 683.031ZM682.312 683.031C683.615 683.031 684.656 684.104 684.656 685.406C684.656 686.708 683.615 687.75 682.312 687.75C681.01 687.75 679.938 686.708 679.938 685.406C679.938 684.104 681.01 683.031 682.312 683.031ZM396.844 693.031C398.146 693.031 399.188 694.104 399.188 695.406C399.188 696.708 398.146 697.75 396.844 697.75C395.542 697.75 394.469 696.708 394.469 695.406C394.469 694.104 395.542 693.031 396.844 693.031ZM406.688 693.031C407.99 693.031 409.031 694.104 409.031 695.406C409.031 696.708 407.99 697.75 406.688 697.75C405.385 697.75 404.312 696.708 404.312 695.406C404.312 694.104 405.385 693.031 406.688 693.031ZM602.781 693.031C604.083 693.031 605.156 694.104 605.156 695.406C605.156 696.708 604.083 697.75 602.781 697.75C601.479 697.75 600.438 696.708 600.438 695.406C600.438 694.104 601.479 693.031 602.781 693.031ZM615.062 693.031C616.365 693.031 617.437 694.104 617.438 695.406C617.438 696.708 616.365 697.75 615.062 697.75C613.76 697.75 612.719 696.708 612.719 695.406C612.719 694.104 613.76 693.031 615.062 693.031ZM624.906 693.031C626.208 693.031 627.281 694.104 627.281 695.406C627.281 696.708 626.208 697.75 624.906 697.75C623.604 697.75 622.562 696.708 622.562 695.406C622.562 694.104 623.604 693.031 624.906 693.031ZM635 693.031C636.302 693.031 637.344 694.104 637.344 695.406C637.344 696.708 636.302 697.75 635 697.75C633.698 697.75 632.625 696.708 632.625 695.406C632.625 694.104 633.698 693.031 635 693.031ZM644.562 693.031C645.865 693.031 646.938 694.104 646.938 695.406C646.938 696.708 645.865 697.75 644.562 697.75C643.26 697.75 642.219 696.708 642.219 695.406C642.219 694.104 643.26 693.031 644.562 693.031ZM656.188 693.031C657.49 693.031 658.563 694.104 658.562 695.406C658.562 696.708 657.49 697.75 656.188 697.75C654.885 697.75 653.844 696.708 653.844 695.406C653.844 694.104 654.885 693.031 656.188 693.031ZM666.031 693.031C667.333 693.031 668.406 694.104 668.406 695.406C668.406 696.708 667.333 697.75 666.031 697.75C664.729 697.75 663.687 696.708 663.688 695.406C663.688 694.104 664.729 693.031 666.031 693.031ZM380.344 703.844C381.646 703.844 382.688 704.917 382.688 706.219C382.688 707.521 381.646 708.563 380.344 708.562C379.042 708.562 377.969 707.521 377.969 706.219C377.969 704.917 379.042 703.844 380.344 703.844ZM390.188 703.844C391.49 703.844 392.563 704.917 392.562 706.219C392.562 707.521 391.49 708.563 390.188 708.562C388.885 708.562 387.844 707.521 387.844 706.219C387.844 704.917 388.885 703.844 390.188 703.844ZM400.25 703.844C401.552 703.844 402.625 704.917 402.625 706.219C402.625 707.521 401.552 708.563 400.25 708.562C398.948 708.562 397.906 707.521 397.906 706.219C397.906 704.917 398.948 703.844 400.25 703.844ZM409.844 703.844C411.146 703.844 412.188 704.917 412.188 706.219C412.188 707.521 411.146 708.563 409.844 708.562C408.542 708.562 407.5 707.521 407.5 706.219C407.5 704.917 408.542 703.844 409.844 703.844ZM421.406 703.844C422.708 703.844 423.75 704.917 423.75 706.219C423.75 707.521 422.708 708.563 421.406 708.562C420.104 708.562 419.031 707.521 419.031 706.219C419.031 704.917 420.104 703.844 421.406 703.844ZM431.25 703.844C432.552 703.844 433.594 704.917 433.594 706.219C433.594 707.521 432.552 708.563 431.25 708.562C429.948 708.562 428.875 707.521 428.875 706.219C428.875 704.917 429.948 703.844 431.25 703.844ZM441.312 703.844C442.615 703.844 443.656 704.917 443.656 706.219C443.656 707.521 442.615 708.563 441.312 708.562C440.01 708.562 438.969 707.521 438.969 706.219C438.969 704.917 440.01 703.844 441.312 703.844ZM450.906 703.844C452.208 703.844 453.25 704.917 453.25 706.219C453.25 707.521 452.208 708.563 450.906 708.562C449.604 708.562 448.531 707.521 448.531 706.219C448.531 704.917 449.604 703.844 450.906 703.844ZM462.875 703.844C464.177 703.844 465.219 704.917 465.219 706.219C465.219 707.521 464.177 708.563 462.875 708.562C461.573 708.562 460.5 707.521 460.5 706.219C460.5 704.917 461.573 703.844 462.875 703.844ZM472.719 703.844C474.021 703.844 475.063 704.917 475.062 706.219C475.062 707.521 474.021 708.563 472.719 708.562C471.417 708.562 470.375 707.521 470.375 706.219C470.375 704.917 471.417 703.844 472.719 703.844ZM482.781 703.844C484.083 703.844 485.156 704.917 485.156 706.219C485.156 707.521 484.083 708.563 482.781 708.562C481.479 708.562 480.437 707.521 480.438 706.219C480.438 704.917 481.479 703.844 482.781 703.844ZM492.375 703.844C493.677 703.844 494.719 704.917 494.719 706.219C494.719 707.521 493.677 708.563 492.375 708.562C491.073 708.562 490.031 707.521 490.031 706.219C490.031 704.917 491.073 703.844 492.375 703.844ZM504.719 703.844C506.021 703.844 507.063 704.917 507.062 706.219C507.062 707.521 506.021 708.563 504.719 708.562C503.417 708.562 502.344 707.521 502.344 706.219C502.344 704.917 503.417 703.844 504.719 703.844ZM514.562 703.844C515.865 703.844 516.906 704.917 516.906 706.219C516.906 707.521 515.865 708.563 514.562 708.562C513.26 708.562 512.219 707.521 512.219 706.219C512.219 704.917 513.26 703.844 514.562 703.844ZM524.625 703.844C525.927 703.844 527 704.917 527 706.219C527 707.521 525.927 708.563 524.625 708.562C523.323 708.562 522.281 707.521 522.281 706.219C522.281 704.917 523.323 703.844 524.625 703.844ZM534.219 703.844C535.521 703.844 536.563 704.917 536.562 706.219C536.562 707.521 535.521 708.563 534.219 708.562C532.917 708.562 531.875 707.521 531.875 706.219C531.875 704.917 532.917 703.844 534.219 703.844ZM546.312 703.844C547.615 703.844 548.656 704.917 548.656 706.219C548.656 707.521 547.615 708.563 546.312 708.562C545.01 708.562 543.938 707.521 543.938 706.219C543.938 704.917 545.01 703.844 546.312 703.844ZM556.156 703.844C557.458 703.844 558.5 704.917 558.5 706.219C558.5 707.521 557.458 708.563 556.156 708.562C554.854 708.562 553.781 707.521 553.781 706.219C553.781 704.917 554.854 703.844 556.156 703.844ZM566.219 703.844C567.521 703.844 568.594 704.917 568.594 706.219C568.594 707.521 567.521 708.563 566.219 708.562C564.917 708.562 563.875 707.521 563.875 706.219C563.875 704.917 564.917 703.844 566.219 703.844ZM575.812 703.844C577.115 703.844 578.156 704.917 578.156 706.219C578.156 707.521 577.115 708.563 575.812 708.562C574.51 708.562 573.438 707.521 573.438 706.219C573.438 704.917 574.51 703.844 575.812 703.844ZM588.094 703.844C589.396 703.844 590.438 704.917 590.438 706.219C590.438 707.521 589.396 708.563 588.094 708.562C586.792 708.562 585.719 707.521 585.719 706.219C585.719 704.917 586.792 703.844 588.094 703.844ZM597.938 703.844C599.24 703.844 600.281 704.917 600.281 706.219C600.281 707.521 599.24 708.563 597.938 708.562C596.635 708.562 595.594 707.521 595.594 706.219C595.594 704.917 596.635 703.844 597.938 703.844ZM608 703.844C609.302 703.844 610.375 704.917 610.375 706.219C610.375 707.521 609.302 708.563 608 708.562C606.698 708.562 605.656 707.521 605.656 706.219C605.656 704.917 606.698 703.844 608 703.844ZM617.594 703.844C618.896 703.844 619.938 704.917 619.938 706.219C619.938 707.521 618.896 708.563 617.594 708.562C616.292 708.562 615.25 707.521 615.25 706.219C615.25 704.917 616.292 703.844 617.594 703.844ZM629.219 703.844C630.521 703.844 631.563 704.917 631.562 706.219C631.562 707.521 630.521 708.563 629.219 708.562C627.917 708.562 626.844 707.521 626.844 706.219C626.844 704.917 627.917 703.844 629.219 703.844ZM639.062 703.844C640.365 703.844 641.406 704.917 641.406 706.219C641.406 707.521 640.365 708.563 639.062 708.562C637.76 708.562 636.688 707.521 636.688 706.219C636.688 704.917 637.76 703.844 639.062 703.844ZM649.125 703.844C650.427 703.844 651.5 704.917 651.5 706.219C651.5 707.521 650.427 708.563 649.125 708.562C647.823 708.562 646.781 707.521 646.781 706.219C646.781 704.917 647.823 703.844 649.125 703.844ZM364.094 713.844C365.396 713.844 366.438 714.917 366.438 716.219C366.438 717.521 365.396 718.562 364.094 718.562C362.792 718.562 361.719 717.521 361.719 716.219C361.719 714.917 362.792 713.844 364.094 713.844ZM373.938 713.844C375.24 713.844 376.281 714.917 376.281 716.219C376.281 717.521 375.24 718.562 373.938 718.562C372.635 718.562 371.562 717.521 371.562 716.219C371.563 714.917 372.635 713.844 373.938 713.844ZM384 713.844C385.302 713.844 386.375 714.917 386.375 716.219C386.375 717.521 385.302 718.562 384 718.562C382.698 718.562 381.656 717.521 381.656 716.219C381.656 714.917 382.698 713.844 384 713.844ZM393.594 713.844C394.896 713.844 395.937 714.917 395.938 716.219C395.938 717.521 394.896 718.562 393.594 718.562C392.292 718.562 391.219 717.521 391.219 716.219C391.219 714.917 392.292 713.844 393.594 713.844ZM405.125 713.844C406.427 713.844 407.5 714.917 407.5 716.219C407.5 717.521 406.427 718.562 405.125 718.562C403.823 718.562 402.781 717.521 402.781 716.219C402.781 714.917 403.823 713.844 405.125 713.844ZM414.969 713.844C416.271 713.844 417.344 714.917 417.344 716.219C417.344 717.521 416.271 718.562 414.969 718.562C413.667 718.562 412.625 717.521 412.625 716.219C412.625 714.917 413.667 713.844 414.969 713.844ZM425.062 713.844C426.365 713.844 427.406 714.917 427.406 716.219C427.406 717.521 426.365 718.562 425.062 718.562C423.76 718.562 422.687 717.521 422.688 716.219C422.688 714.917 423.76 713.844 425.062 713.844ZM434.625 713.844C435.927 713.844 437 714.917 437 716.219C437 717.521 435.927 718.562 434.625 718.562C433.323 718.562 432.281 717.521 432.281 716.219C432.281 714.917 433.323 713.844 434.625 713.844ZM446.625 713.844C447.927 713.844 448.969 714.917 448.969 716.219C448.969 717.521 447.927 718.562 446.625 718.562C445.323 718.562 444.25 717.521 444.25 716.219C444.25 714.917 445.323 713.844 446.625 713.844ZM456.469 713.844C457.771 713.844 458.813 714.917 458.812 716.219C458.812 717.521 457.771 718.562 456.469 718.562C455.167 718.562 454.094 717.521 454.094 716.219C454.094 714.917 455.167 713.844 456.469 713.844ZM466.531 713.844C467.833 713.844 468.875 714.917 468.875 716.219C468.875 717.521 467.833 718.562 466.531 718.562C465.229 718.562 464.187 717.521 464.188 716.219C464.188 714.917 465.229 713.844 466.531 713.844ZM476.125 713.844C477.427 713.844 478.469 714.917 478.469 716.219C478.469 717.521 477.427 718.562 476.125 718.562C474.823 718.562 473.75 717.521 473.75 716.219C473.75 714.917 474.823 713.844 476.125 713.844ZM488.469 713.844C489.771 713.844 490.813 714.917 490.812 716.219C490.812 717.521 489.771 718.562 488.469 718.562C487.167 718.562 486.094 717.521 486.094 716.219C486.094 714.917 487.167 713.844 488.469 713.844ZM498.312 713.844C499.615 713.844 500.656 714.917 500.656 716.219C500.656 717.521 499.615 718.562 498.312 718.562C497.01 718.562 495.938 717.521 495.938 716.219C495.938 714.917 497.01 713.844 498.312 713.844ZM508.375 713.844C509.677 713.844 510.75 714.917 510.75 716.219C510.75 717.521 509.677 718.562 508.375 718.562C507.073 718.562 506.031 717.521 506.031 716.219C506.031 714.917 507.073 713.844 508.375 713.844ZM517.969 713.844C519.271 713.844 520.312 714.917 520.312 716.219C520.312 717.521 519.271 718.562 517.969 718.562C516.667 718.562 515.594 717.521 515.594 716.219C515.594 714.917 516.667 713.844 517.969 713.844ZM530.031 713.844C531.333 713.844 532.406 714.917 532.406 716.219C532.406 717.521 531.333 718.562 530.031 718.562C528.729 718.562 527.687 717.521 527.688 716.219C527.688 714.917 528.729 713.844 530.031 713.844ZM539.875 713.844C541.177 713.844 542.25 714.917 542.25 716.219C542.25 717.521 541.177 718.562 539.875 718.562C538.573 718.562 537.531 717.521 537.531 716.219C537.531 714.917 538.573 713.844 539.875 713.844ZM549.969 713.844C551.271 713.844 552.313 714.917 552.312 716.219C552.312 717.521 551.271 718.562 549.969 718.562C548.667 718.562 547.594 717.521 547.594 716.219C547.594 714.917 548.667 713.844 549.969 713.844ZM559.531 713.844C560.833 713.844 561.906 714.917 561.906 716.219C561.906 717.521 560.833 718.562 559.531 718.562C558.229 718.562 557.188 717.521 557.188 716.219C557.188 714.917 558.229 713.844 559.531 713.844ZM571.844 713.844C573.146 713.844 574.187 714.917 574.188 716.219C574.188 717.521 573.146 718.562 571.844 718.562C570.542 718.562 569.469 717.521 569.469 716.219C569.469 714.917 570.542 713.844 571.844 713.844ZM581.688 713.844C582.99 713.844 584.031 714.917 584.031 716.219C584.031 717.521 582.99 718.562 581.688 718.562C580.385 718.562 579.312 717.521 579.312 716.219C579.313 714.917 580.385 713.844 581.688 713.844ZM591.75 713.844C593.052 713.844 594.125 714.917 594.125 716.219C594.125 717.521 593.052 718.562 591.75 718.562C590.448 718.562 589.406 717.521 589.406 716.219C589.406 714.917 590.448 713.844 591.75 713.844ZM601.344 713.844C602.646 713.844 603.688 714.917 603.688 716.219C603.688 717.521 602.646 718.562 601.344 718.562C600.042 718.562 598.969 717.521 598.969 716.219C598.969 714.917 600.042 713.844 601.344 713.844ZM612.938 713.844C614.24 713.844 615.313 714.917 615.312 716.219C615.312 717.521 614.24 718.562 612.938 718.562C611.635 718.562 610.594 717.521 610.594 716.219C610.594 714.917 611.635 713.844 612.938 713.844ZM622.812 713.844C624.115 713.844 625.156 714.917 625.156 716.219C625.156 717.521 624.115 718.562 622.812 718.562C621.51 718.562 620.437 717.521 620.438 716.219C620.438 714.917 621.51 713.844 622.812 713.844ZM347.281 723.25C348.583 723.25 349.625 724.323 349.625 725.625C349.625 726.927 348.583 727.969 347.281 727.969C345.979 727.969 344.906 726.927 344.906 725.625C344.906 724.323 345.979 723.25 347.281 723.25ZM357.125 723.25C358.427 723.25 359.469 724.323 359.469 725.625C359.469 726.927 358.427 727.969 357.125 727.969C355.823 727.969 354.75 726.927 354.75 725.625C354.75 724.323 355.823 723.25 357.125 723.25ZM367.188 723.25C368.49 723.25 369.562 724.323 369.562 725.625C369.562 726.927 368.49 727.969 367.188 727.969C365.885 727.969 364.844 726.927 364.844 725.625C364.844 724.323 365.885 723.25 367.188 723.25ZM376.781 723.25C378.083 723.25 379.125 724.323 379.125 725.625C379.125 726.927 378.083 727.969 376.781 727.969C375.479 727.969 374.406 726.927 374.406 725.625C374.406 724.323 375.479 723.25 376.781 723.25ZM388.312 723.25C389.615 723.25 390.688 724.323 390.688 725.625C390.688 726.927 389.615 727.969 388.312 727.969C387.01 727.969 385.969 726.927 385.969 725.625C385.969 724.323 387.01 723.25 388.312 723.25ZM398.156 723.25C399.458 723.25 400.531 724.323 400.531 725.625C400.531 726.927 399.458 727.969 398.156 727.969C396.854 727.969 395.812 726.927 395.812 725.625C395.813 724.323 396.854 723.25 398.156 723.25ZM408.25 723.25C409.552 723.25 410.594 724.323 410.594 725.625C410.594 726.927 409.552 727.969 408.25 727.969C406.948 727.969 405.875 726.927 405.875 725.625C405.875 724.323 406.948 723.25 408.25 723.25ZM417.812 723.25C419.115 723.25 420.188 724.323 420.188 725.625C420.188 726.927 419.115 727.969 417.812 727.969C416.51 727.969 415.469 726.927 415.469 725.625C415.469 724.323 416.51 723.25 417.812 723.25ZM429.781 723.25C431.083 723.25 432.156 724.323 432.156 725.625C432.156 726.927 431.083 727.969 429.781 727.969C428.479 727.969 427.437 726.927 427.438 725.625C427.438 724.323 428.479 723.25 429.781 723.25ZM439.656 723.25C440.958 723.25 442 724.323 442 725.625C442 726.927 440.958 727.969 439.656 727.969C438.354 727.969 437.281 726.927 437.281 725.625C437.281 724.323 438.354 723.25 439.656 723.25ZM449.719 723.25C451.021 723.25 452.063 724.323 452.062 725.625C452.062 726.927 451.021 727.969 449.719 727.969C448.417 727.969 447.375 726.927 447.375 725.625C447.375 724.323 448.417 723.25 449.719 723.25ZM459.312 723.25C460.615 723.25 461.656 724.323 461.656 725.625C461.656 726.927 460.615 727.969 459.312 727.969C458.01 727.969 456.937 726.927 456.938 725.625C456.938 724.323 458.01 723.25 459.312 723.25ZM471.625 723.25C472.927 723.25 474 724.323 474 725.625C474 726.927 472.927 727.969 471.625 727.969C470.323 727.969 469.281 726.927 469.281 725.625C469.281 724.323 470.323 723.25 471.625 723.25ZM481.5 723.25C482.802 723.25 483.844 724.323 483.844 725.625C483.844 726.927 482.802 727.969 481.5 727.969C480.198 727.969 479.125 726.927 479.125 725.625C479.125 724.323 480.198 723.25 481.5 723.25ZM491.562 723.25C492.865 723.25 493.906 724.323 493.906 725.625C493.906 726.927 492.865 727.969 491.562 727.969C490.26 727.969 489.219 726.927 489.219 725.625C489.219 724.323 490.26 723.25 491.562 723.25ZM501.156 723.25C502.458 723.25 503.5 724.323 503.5 725.625C503.5 726.927 502.458 727.969 501.156 727.969C499.854 727.969 498.781 726.927 498.781 725.625C498.781 724.323 499.854 723.25 501.156 723.25ZM513.219 723.25C514.521 723.25 515.594 724.323 515.594 725.625C515.594 726.927 514.521 727.969 513.219 727.969C511.917 727.969 510.875 726.927 510.875 725.625C510.875 724.323 511.917 723.25 513.219 723.25ZM523.062 723.25C524.365 723.25 525.437 724.323 525.438 725.625C525.438 726.927 524.365 727.969 523.062 727.969C521.76 727.969 520.719 726.927 520.719 725.625C520.719 724.323 521.76 723.25 523.062 723.25ZM533.156 723.25C534.458 723.25 535.5 724.323 535.5 725.625C535.5 726.927 534.458 727.969 533.156 727.969C531.854 727.969 530.781 726.927 530.781 725.625C530.781 724.323 531.854 723.25 533.156 723.25ZM542.719 723.25C544.021 723.25 545.094 724.323 545.094 725.625C545.094 726.927 544.021 727.969 542.719 727.969C541.417 727.969 540.375 726.927 540.375 725.625C540.375 724.323 541.417 723.25 542.719 723.25ZM555 723.25C556.302 723.25 557.375 724.323 557.375 725.625C557.375 726.927 556.302 727.969 555 727.969C553.698 727.969 552.656 726.927 552.656 725.625C552.656 724.323 553.698 723.25 555 723.25ZM564.875 723.25C566.177 723.25 567.219 724.323 567.219 725.625C567.219 726.927 566.177 727.969 564.875 727.969C563.573 727.969 562.5 726.927 562.5 725.625C562.5 724.323 563.573 723.25 564.875 723.25ZM485.312 734.844C486.615 734.844 487.656 735.917 487.656 737.219C487.656 738.521 486.615 739.562 485.312 739.562C484.01 739.562 482.937 738.521 482.938 737.219C482.938 735.917 484.01 734.844 485.312 734.844ZM459.438 744.375C460.74 744.375 461.812 745.448 461.812 746.75C461.812 748.052 460.74 749.094 459.438 749.094C458.135 749.094 457.094 748.052 457.094 746.75C457.094 745.448 458.135 744.375 459.438 744.375ZM468.875 744.375C470.177 744.375 471.219 745.448 471.219 746.75C471.219 748.052 470.177 749.094 468.875 749.094C467.573 749.094 466.5 748.052 466.5 746.75C466.5 745.448 467.573 744.375 468.875 744.375ZM623.969 744.375C625.271 744.375 626.313 745.448 626.312 746.75C626.312 748.052 625.271 749.094 623.969 749.094C622.667 749.094 621.625 748.052 621.625 746.75C621.625 745.448 622.667 744.375 623.969 744.375ZM633.375 744.375C634.677 744.375 635.75 745.448 635.75 746.75C635.75 748.052 634.677 749.094 633.375 749.094C632.073 749.094 631.031 748.052 631.031 746.75C631.031 745.448 632.073 744.375 633.375 744.375ZM644.719 744.375C646.021 744.375 647.094 745.448 647.094 746.75C647.094 748.052 646.021 749.094 644.719 749.094C643.417 749.094 642.375 748.052 642.375 746.75C642.375 745.448 643.417 744.375 644.719 744.375ZM654.156 744.375C655.458 744.375 656.5 745.448 656.5 746.75C656.5 748.052 655.458 749.094 654.156 749.094C652.854 749.094 651.781 748.052 651.781 746.75C651.781 745.448 652.854 744.375 654.156 744.375ZM421.406 755.281C422.708 755.281 423.75 756.354 423.75 757.656C423.75 758.958 422.708 760 421.406 760C420.104 760 419.031 758.958 419.031 757.656C419.031 756.354 420.104 755.281 421.406 755.281ZM430.812 755.281C432.115 755.281 433.156 756.354 433.156 757.656C433.156 758.958 432.115 760 430.812 760C429.51 760 428.438 758.958 428.438 757.656C428.438 756.354 429.51 755.281 430.812 755.281ZM442.156 755.281C443.458 755.281 444.5 756.354 444.5 757.656C444.5 758.958 443.458 760 442.156 760C440.854 760 439.812 758.958 439.812 757.656C439.813 756.354 440.854 755.281 442.156 755.281ZM451.562 755.281C452.865 755.281 453.937 756.354 453.938 757.656C453.938 758.958 452.865 760 451.562 760C450.26 760 449.219 758.958 449.219 757.656C449.219 756.354 450.26 755.281 451.562 755.281ZM628.531 755.281C629.833 755.281 630.875 756.354 630.875 757.656C630.875 758.958 629.833 760 628.531 760C627.229 760 626.156 758.958 626.156 757.656C626.156 756.354 627.229 755.281 628.531 755.281ZM637.938 755.281C639.24 755.281 640.313 756.354 640.312 757.656C640.312 758.958 639.24 760 637.938 760C636.635 760 635.594 758.958 635.594 757.656C635.594 756.354 636.635 755.281 637.938 755.281ZM649.281 755.281C650.583 755.281 651.656 756.354 651.656 757.656C651.656 758.958 650.583 760 649.281 760C647.979 760 646.937 758.958 646.938 757.656C646.938 756.354 647.979 755.281 649.281 755.281ZM658.719 755.281C660.021 755.281 661.063 756.354 661.062 757.656C661.062 758.958 660.021 760 658.719 760C657.417 760 656.344 758.958 656.344 757.656C656.344 756.354 657.417 755.281 658.719 755.281ZM404.312 765.125C405.615 765.125 406.688 766.167 406.688 767.469C406.688 768.771 405.615 769.844 404.312 769.844C403.01 769.844 401.969 768.771 401.969 767.469C401.969 766.167 403.01 765.125 404.312 765.125ZM415.906 765.125C417.208 765.125 418.25 766.167 418.25 767.469C418.25 768.771 417.208 769.844 415.906 769.844C414.604 769.844 413.531 768.771 413.531 767.469C413.531 766.167 414.604 765.125 415.906 765.125ZM425.312 765.125C426.615 765.125 427.688 766.167 427.688 767.469C427.688 768.771 426.615 769.844 425.312 769.844C424.01 769.844 422.969 768.771 422.969 767.469C422.969 766.167 424.01 765.125 425.312 765.125ZM643.094 765.125C644.396 765.125 645.437 766.167 645.438 767.469C645.438 768.771 644.396 769.844 643.094 769.844C641.792 769.844 640.719 768.771 640.719 767.469C640.719 766.167 641.792 765.125 643.094 765.125ZM652.5 765.125C653.802 765.125 654.875 766.167 654.875 767.469C654.875 768.771 653.802 769.844 652.5 769.844C651.198 769.844 650.156 768.771 650.156 767.469C650.156 766.167 651.198 765.125 652.5 765.125ZM398.156 774.75C399.458 774.75 400.531 775.792 400.531 777.094C400.531 778.396 399.458 779.469 398.156 779.469C396.854 779.469 395.812 778.396 395.812 777.094C395.812 775.792 396.854 774.75 398.156 774.75ZM409.031 774.75C410.333 774.75 411.406 775.792 411.406 777.094C411.406 778.396 410.333 779.469 409.031 779.469C407.729 779.469 406.687 778.396 406.688 777.094C406.688 775.792 407.729 774.75 409.031 774.75ZM646.781 774.75C648.083 774.75 649.125 775.792 649.125 777.094C649.125 778.396 648.083 779.469 646.781 779.469C645.479 779.469 644.406 778.396 644.406 777.094C644.406 775.792 645.479 774.75 646.781 774.75ZM656.188 774.75C657.49 774.75 658.563 775.792 658.562 777.094C658.562 778.396 657.49 779.469 656.188 779.469C654.885 779.469 653.844 778.396 653.844 777.094C653.844 775.792 654.885 774.75 656.188 774.75ZM381.656 786.406C382.958 786.406 384 787.479 384 788.781C384 790.083 382.958 791.125 381.656 791.125C380.354 791.125 379.281 790.083 379.281 788.781C379.281 787.479 380.354 786.406 381.656 786.406ZM391.375 786.406C392.677 786.406 393.719 787.479 393.719 788.781C393.719 790.083 392.677 791.125 391.375 791.125C390.073 791.125 389 790.083 389 788.781C389 787.479 390.073 786.406 391.375 786.406ZM660.906 786.406C662.208 786.406 663.25 787.479 663.25 788.781C663.25 790.083 662.208 791.125 660.906 791.125C659.604 791.125 658.563 790.083 658.562 788.781C658.563 787.479 659.604 786.406 660.906 786.406ZM374.406 796.406C375.708 796.406 376.781 797.479 376.781 798.781C376.781 800.083 375.708 801.125 374.406 801.125C373.104 801.125 372.062 800.083 372.062 798.781C372.062 797.479 373.104 796.406 374.406 796.406Z" fill="#ffffff" fill-rule="nonzero" opacity="1" stroke="none"/>
</g>
</svg>
