<?xml version="1.0" encoding="UTF-8" standalone="no"?>
<!DOCTYPE svg PUBLIC "-//W3C//DTD SVG 1.1//EN" "http://www.w3.org/Graphics/SVG/1.1/DTD/svg11.dtd">
<!-- Created with Vectornator (http://vectornator.io/) -->
<svg height="100%" stroke-miterlimit="10" style="fill-rule:nonzero;clip-rule:evenodd;stroke-linecap:round;stroke-linejoin:round;" version="1.1" viewBox="0 0 900 900" width="100%" xml:space="preserve" xmlns="http://www.w3.org/2000/svg" xmlns:vectornator="http://vectornator.io" xmlns:xlink="http://www.w3.org/1999/xlink">
<defs/>
<g id="Layer-1" vectornator:layerName="Layer 1">
<path d="M747.5 226.688C742.9 226.657 738.166 227.071 735.938 227.094C731.48 227.139 725.841 228.738 722.906 235.781C721.206 239.861 724.403 245.363 728.656 245.656C732.548 245.925 743.554 244.806 744.719 247.719C746.105 251.184 737.764 251 734.031 251C731.898 251 731.52 248.034 729.5 247.719C725.975 247.168 722.339 247.465 718.781 247.719C717.86 247.785 717.764 249.27 717.969 249.781C722.061 260.012 743.593 258.478 750.469 255.531C753.321 254.309 757.821 253.83 758.719 249.344C760.834 238.769 743.275 240.214 738.531 239.875C737.485 239.8 735.101 237.982 735.656 236.594C736.317 234.941 742.768 234.223 746.781 234.531C750.795 234.84 750.344 237.629 751.719 237.844C755.379 238.416 759.148 238.099 762.844 237.844C763.231 237.817 759.906 230.849 758.219 229C756.57 227.193 752.1 226.718 747.5 226.688ZM630.562 227.062C626.555 229.066 618.205 237.576 615.062 240.719C610.058 245.723 602.957 250.846 599 256.781C604.22 257.857 608.873 257.868 613.812 257.594C615.248 257.514 617.344 253.649 618.75 253.469C623.241 252.893 627.823 253.21 632.344 253.469C633.735 253.548 633.421 257.504 634.812 257.594C638.783 257.85 646.75 257.594 646.75 257.594C646.75 257.594 640.143 235.584 630.562 227.062ZM301.281 227.094C297.273 229.098 288.924 237.607 285.781 240.75C280.777 245.755 273.675 250.878 269.719 256.812C274.939 257.888 279.592 257.899 284.531 257.625C285.967 257.545 288.063 253.68 289.469 253.5C293.96 252.924 298.542 253.242 303.062 253.5C304.453 253.579 304.14 257.535 305.531 257.625C309.502 257.881 317.469 257.625 317.469 257.625C317.469 257.625 310.862 235.615 301.281 227.094ZM185.5 229.094C180.564 229.271 174.94 229.666 168.875 229.594C162.751 231.635 161.716 252.002 156.938 256.781C157.212 257.056 157.362 257.583 157.75 257.594C167.351 257.86 176.962 257.86 186.562 257.594C193.702 257.395 202.173 255.025 206.719 248.531C211.27 242.029 209.73 233.331 197.906 229.906C194.67 228.969 190.436 228.917 185.5 229.094ZM402.281 229.406C398.798 229.47 395.813 229.594 395.812 229.594C395.812 229.594 391.8 252.012 387.031 256.781C387.306 257.056 387.456 257.585 387.844 257.594C400.189 257.862 412.561 257.862 424.906 257.594C425.491 257.581 428.375 249.469 428.375 249.469L407.594 248.938C407.594 248.938 412.327 229.672 411.719 229.594C409.746 229.339 405.765 229.343 402.281 229.406ZM506.812 229.594C503.844 231.078 500.732 243.655 499.812 246.875C499.59 247.652 494.584 257.542 496.938 257.594C509.146 257.862 521.358 257.992 533.562 257.594C534.979 257.548 535.883 251.625 535.625 250.594C535.531 250.217 535.169 249.798 534.781 249.781C528.75 249.519 522.719 250.043 516.688 249.781C516.3 249.764 516.149 249.212 515.875 248.938C516.884 247.424 519.844 229.906 519.844 229.906C519.844 229.906 511.682 229.871 506.812 229.594ZM463.594 230C462.908 230.412 461.954 230.571 461.531 231.25C428.428 284.432 395.949 338.001 363.156 391.375C373.035 391.649 382.92 391.53 392.781 392.188C393.362 392.226 393.62 393.026 394.031 393.438C419.552 351.041 419.542 351.022 445.062 308.625C451.237 350.816 457.406 393 457.406 393L482.781 392.875C482.781 392.875 472.29 289.113 465.656 238.25C465.29 235.445 464.28 232.744 463.594 230ZM183.531 235.594C187.107 235.566 192.532 236.205 193.562 239.469C195.606 245.939 189.977 251.112 184.094 251.406C180.895 251.566 175.253 252.922 174.625 249.781C174.031 246.811 177.935 236.241 180.812 235.781C181.363 235.693 182.339 235.603 183.531 235.594ZM629.156 238.875C629.156 238.875 632.885 247.043 632.75 247.312C632.712 247.388 622 247.156 622 247.156L629.156 238.875ZM299.875 238.906C299.875 238.906 303.604 247.074 303.469 247.344C303.431 247.419 292.719 247.188 292.719 247.188L299.875 238.906ZM739.75 267.406C736.496 267.357 733.271 267.393 729.5 267.469C695.394 268.151 656.995 282.312 662.812 323.031C665.936 344.894 704.151 342.677 718.375 343.625C725.861 344.124 738.759 346.49 736.906 356.375C736.011 361.148 729.435 362.215 725.781 363.781C714.883 368.452 701.669 365.319 692.031 360.5C688.346 358.658 687.916 354.51 686.688 351.438C686.543 351.077 686.232 350.633 685.844 350.625C672.537 350.356 659.244 350.356 645.938 350.625C645.549 350.633 645.178 351.059 645.094 351.438C643.443 358.864 649.071 365.775 652.938 371.188C664.141 386.872 689.006 392.762 707.25 393.438C712.873 393.646 718.498 393.844 724.125 393.844C754.844 393.844 794.486 373.137 779.719 336.219C772.729 318.745 744.761 317.936 729.906 316.875C722.035 316.313 704.173 318.008 705.625 304.938C706.561 296.51 721.276 296.539 726.625 295.469C735.404 293.713 749.255 295.345 755.844 302.875C757.191 304.415 756.793 307.181 758.719 308.625C759.454 309.177 762.604 308.625 763.25 308.625C767.778 308.625 772.285 308.625 776.812 308.625C778.326 308.625 799.604 309.577 799.875 307.406C802.922 283.029 769.386 269.361 750.062 267.875C746.269 267.583 743.004 267.455 739.75 267.406ZM184.5 267.469C157.693 267.868 126.859 276.141 117.812 303.281C115.812 309.283 114.952 316.886 117 323.031C124.637 345.941 153.193 341.518 172.156 343.625C179.624 344.455 191.786 345.589 191.094 355.969C191.056 356.533 191.027 357.172 190.688 357.625C182.791 368.153 158.17 367.652 148.281 361.719C146.28 360.518 141.982 357.372 141.688 354.719C141.588 353.82 142.469 350.315 140.062 350.219C126.901 349.692 113.702 350.084 100.531 350.219C96.2276 350.263 101.205 359.989 101.781 361.719C104.189 368.942 107.867 371.929 114.531 378.594C121.971 386.033 144.268 392.466 154.469 393.438C184.542 396.302 244.259 389.303 236.781 344.438C232.811 320.617 205.629 318.74 186.156 317.688C177.348 317.211 158.023 317.923 159.812 304.5C160.24 301.292 165.71 298.619 168.438 297.938C178.921 295.317 194.979 291.469 204.688 298.75C206.879 300.394 209.32 301.655 210.844 304.094C211.634 305.357 210.758 307.754 212.5 308.625C216.936 310.843 227.62 308.625 231.844 308.625C234.811 308.625 254.478 309.834 254.906 307.406C259.225 282.933 221.798 269.466 203.438 268.281C195.687 267.781 192.117 267.355 184.5 267.469ZM527.781 267.875C523.096 272.56 521.712 286.901 518.75 293.812C514.638 303.408 511.715 313.935 508.875 323.875C506.788 331.179 502.286 339.38 501.031 346.906C500.069 352.679 496.712 358.676 494.875 364.188C493.01 369.781 491.673 376.145 489.531 381.5C489.106 382.562 486.5 392.563 486.5 392.562C486.5 392.562 512.294 393.119 524.906 392.594C525.682 392.561 526.132 391.615 526.562 390.969C528.418 388.186 528.224 383.489 529.844 380.25C533.007 373.923 535.437 366.001 537.688 359.25C538.13 357.922 540.762 347.769 541.781 347.75C556.048 347.481 570.327 347.481 584.594 347.75C589.004 347.833 588.905 353.798 588.719 356.781C588.536 359.706 585.904 363.539 585 366.25C583.284 371.397 582.531 378.64 582.531 383.969C582.531 387.23 581.74 393.35 585 393.438C599.95 393.838 614.922 393.707 629.875 393.438C632.112 393.397 627.388 386.565 627 385.594C625.216 381.133 626.594 375.992 626.594 371.188C626.594 362.432 629.875 353.926 629.875 344.844C629.875 341.273 626.871 338.022 625.344 334.969C631.193 329.12 639.765 327.521 644.688 318.906C647.943 313.209 648.763 306.652 649.625 299.562C652.976 271.981 639.275 270.216 527.781 267.875ZM297.906 272C288.358 272.014 278.829 272.124 269.312 272.406C264.022 272.563 262.199 286.309 260.656 290.938C260.269 292.098 255.402 302.431 257.781 302.469C274.793 302.739 291.801 302.199 308.812 302.469C309.201 302.475 309.502 302.913 309.625 303.281C310.399 305.604 305.058 316.386 303.875 319.344C299.669 329.858 296.205 340.666 292.75 351.031C290.483 357.834 286.337 364.594 284.938 371.594C284.365 374.454 276.941 390.455 278.781 391.375C279.287 391.628 279.841 391.781 280.406 391.781C292.344 391.781 304.299 392.03 316.219 391.375C318.03 391.275 323.393 372.526 324.875 369.562C332.222 354.869 337.045 337.435 342.969 322.625C345.202 317.043 345.954 306.762 350.812 302.875C351.052 302.683 351.318 302.471 351.625 302.469C369.05 302.334 386.483 302.739 403.906 302.469C405.278 302.447 406.379 295.565 406.781 294.625C407.937 291.929 415.206 273.931 412.969 272.812C410.27 271.463 402.619 272.406 399.781 272.406C394.291 272.406 388.803 272.812 383.312 272.812C355.228 272.812 326.551 271.957 297.906 272ZM569.844 299.312C581.873 299.06 593.961 299.899 606 300C614.721 300.073 608.13 314.138 603.531 316.438C597.901 319.253 585.192 318.41 578 318.5C569.494 318.606 561.003 318.766 552.5 318.5C552.112 318.488 551.72 318.07 551.656 317.688C551.209 315.003 555.378 300.243 557.844 300C561.838 299.607 565.834 299.397 569.844 299.312ZM440.562 328.906C423.284 357.488 392.752 408.009 376.812 434.375L376.219 435.344L375.094 435.344C353.309 435.421 312.064 435.57 287.969 435.656C304.23 450.438 331.676 475.408 346.25 488.656L347.469 489.781L346.594 491.219C332.603 513.564 306.391 555.412 290.625 580.594C320.219 564.269 370.453 536.554 397.062 521.875L398.281 521.219L399.312 522.094C418.021 537.823 453.705 567.806 474.156 585C471.154 558.634 465.932 512.7 463.188 488.594L463.031 487.219L464.25 486.594C488.326 474.078 533.392 450.608 560.531 436.5C531.129 436.082 482.652 435.4 456.688 435.031L454.938 435L454.719 433.312C451.178 407.209 444.445 357.529 440.562 328.906ZM192.281 403.125L298.656 497.219L195.375 671.062L396.906 565.469L522.094 671.031L500.625 511.156L700.688 403.719L457.5 404.062L462.312 430L588.719 430.469L469.344 491.812L481.281 599.656L403.5 531.719L397.625 529.469L277.719 593.906L337.625 491.812L269.719 430.062L372.625 429.25L387.5 403.188L192.281 403.125Z" fill="#ffffff" fill-rule="nonzero" opacity="1" stroke="none" vectornator:layerName="Curve 1"/>
</g>
</svg>
