<?xml version="1.0" encoding="UTF-8" standalone="no"?>
<!DOCTYPE svg PUBLIC "-//W3C//DTD SVG 1.1//EN" "http://www.w3.org/Graphics/SVG/1.1/DTD/svg11.dtd">
<!-- Created with Vectornator (http://vectornator.io/) -->
<svg height="100%" stroke-miterlimit="10" style="fill-rule:nonzero;clip-rule:evenodd;stroke-linecap:round;stroke-linejoin:round;" version="1.1" viewBox="0 0 750 1000" width="100%" xml:space="preserve" xmlns="http://www.w3.org/2000/svg" xmlns:vectornator="http://vectornator.io" xmlns:xlink="http://www.w3.org/1999/xlink">
<defs/>
<g id="Layer-1" vectornator:layerName="Layer 1">
<path d="M396.672 253.905C393.224 257.353 390.994 262.629 388.484 266.811C383.142 275.715 377.701 284.564 372.359 293.467C356.556 319.807 340.413 345.94 324.609 372.28C318.975 381.671 313.245 391.011 307.609 400.405C307.082 401.283 302.548 408.901 302.359 408.905C285.665 409.288 268.962 408.617 252.266 408.905C251.168 408.924 249.251 413.326 248.734 414.186C245.287 419.931 241.931 425.723 238.484 431.467C237.965 432.333 235.548 437.617 234.672 437.623C181.744 438.012 128.82 437.428 75.8906 437.623C75.6144 437.624 75.4923 437.99 75.2969 438.186C85.6708 448.56 98.5001 457.017 109.859 466.311C133.935 486.009 158.618 504.99 182.516 524.905C178.131 533.673 172.342 541.996 167.297 550.405C155.312 570.38 143.532 590.492 131.547 610.467C126.381 619.077 120.507 627.547 116.016 636.53C116.232 636.746 116.784 637.402 117.203 637.405C132.633 637.501 148.055 637.309 163.484 637.405C163.793 637.407 164.066 637.62 164.359 637.717C159.353 647.729 152.558 657.115 146.797 666.717C136.001 684.711 125.062 702.628 114.266 720.623C110.388 727.086 106.425 733.503 102.547 739.967C102.117 740.683 98.6483 745.611 99.6094 746.092C99.942 746.258 111.016 740.123 112.516 739.373C126.271 732.495 140.331 725.315 153.516 717.405C189.733 695.674 229.205 679.354 265.422 657.623C273.394 652.84 282.077 649.218 290.047 644.436C293.842 642.159 298.94 638.478 303.234 637.405C307.215 636.41 311.446 637.256 315.547 637.123C317.696 637.054 319.848 636.596 321.984 636.842C322.676 636.922 329.63 643.246 330.766 644.155C338.898 650.661 347.017 657.185 355.078 663.78C375.074 680.14 395.427 696.045 415.422 712.405C422.515 718.208 429.672 723.961 436.828 729.686C439.414 731.755 442.066 734.68 445.016 736.155C446.695 734.476 445.23 728.611 445.016 726.467C444.166 717.969 443.24 709.497 442.391 700.998C440.252 679.611 438.203 658.217 435.953 636.842C435.141 629.131 434.381 621.402 433.609 613.686C433.328 610.877 432.364 607.091 432.734 604.311C432.79 603.897 444.043 595.2 445.016 594.342C453.296 587.036 461.43 579.075 467.891 570.03C472.705 563.29 476.805 556.286 481.047 549.217C482.813 546.273 483.898 541.71 486.328 539.28C489.524 536.084 495.631 534.579 499.516 532.248C511.566 525.018 524.686 519.54 536.734 512.311C570.528 492.035 607.222 476.649 641.016 456.373C651.915 449.834 664.12 445.241 674.703 438.186C674.508 437.991 674.417 437.624 674.141 437.623C608.028 437.429 541.9 438.775 475.797 437.623C474.14 437.594 473.466 435.235 472.266 434.092C468.593 430.594 464.317 427.335 459.953 424.717C450.293 418.921 439.674 414.863 428.609 412.405C424.088 411.4 417.412 411.79 413.391 409.78C411.763 408.966 412.101 400.732 411.922 398.936C411.043 390.147 410.176 381.35 409.297 372.561C406.387 343.458 403.546 314.366 400.484 285.28C399.663 277.472 398.922 269.654 398.141 261.842C397.908 259.511 398.441 255.674 396.672 253.905ZM389.359 285.561C391.588 287.789 392.166 306.35 392.578 310.467C395.088 335.563 397.666 360.694 400.203 386.061C401.072 394.753 401.959 403.431 402.828 412.123C402.937 413.215 402.607 419.013 404.016 419.436C408.78 420.865 414.576 420.389 419.547 421.217C431.352 423.185 443.267 426.787 453.516 432.936C457.279 435.193 461.247 437.729 464.359 440.842C466.46 442.942 468.461 445.135 470.516 447.28C470.707 447.479 470.833 447.872 471.109 447.873C523.355 448.068 575.582 447.873 627.828 447.873C629.817 447.873 631.903 446.949 633.391 448.436C622.379 456.694 608.286 461.292 596.484 468.373C569.525 484.549 540.068 496.936 512.984 513.186C504.829 518.079 495.955 521.791 487.797 526.686C484.847 528.456 481.108 529.505 478.422 531.655C475.7 533.832 474.701 539.43 472.859 542.498C467.66 551.164 462.819 559.729 456.453 567.686C449.194 576.76 440.718 584.866 431.547 591.998C430.545 592.778 421.683 598.767 421.578 599.342C421.262 601.082 421.987 602.833 422.172 604.592C422.881 611.328 423.525 618.075 424.234 624.811C426.259 644.042 428.054 663.299 430.078 682.53C430.787 689.265 431.467 696.01 432.141 702.748C432.373 705.072 434.173 710.966 432.422 712.717C423.141 706.53 414.756 698.59 406.047 691.623C388.532 677.612 370.97 663.64 353.609 649.436C347.106 644.115 340.488 638.914 333.984 633.592C332.952 632.747 325.835 626.359 325.203 626.28C317.712 625.343 308.065 626.676 300.578 626.873C297.752 626.948 292.231 631.238 289.766 632.717C280.375 638.352 270.128 642.612 260.734 648.248C232.861 664.973 202.483 677.524 174.609 694.248C163.981 700.626 152.423 705.466 141.797 711.842C137.732 714.281 132.748 717.681 128.328 719.155C127.266 717.562 129.729 714.85 130.672 713.28C133.964 707.793 137.349 702.359 140.641 696.873C150.377 680.646 160.186 664.475 169.922 648.248C174.055 641.36 178.924 634.651 182.516 627.467C182.32 627.272 182.229 626.877 181.953 626.873C166.232 626.68 150.486 627.162 134.766 626.873C134.414 626.867 134.241 626.344 134.172 625.998C133.995 625.115 136.611 621.828 137.109 620.998C140.22 615.813 143.373 610.652 146.484 605.467C158.245 585.865 169.879 566.194 181.641 546.592C185.268 540.546 188.857 534.48 192.484 528.436C192.967 527.631 196.539 522.977 196.016 522.28C194.868 520.749 192.243 519.42 190.734 518.186C184.231 512.865 177.67 507.591 171.109 502.342C157.008 491.061 143.024 479.655 128.922 468.373C120.842 461.91 111.923 455.75 104.609 448.436C105.893 447.152 107.581 447.873 109.297 447.873C153.047 447.873 196.799 448.261 240.547 447.873C241.412 447.866 243.845 442.522 244.328 441.717C247.663 436.159 250.962 430.556 254.297 424.998C254.858 424.063 256.956 419.463 258.109 419.436C274.609 419.054 291.106 419.532 307.609 419.436C307.828 419.434 308.049 419.309 308.203 419.155C310.681 416.676 312.284 412.769 314.078 409.78C318.068 403.13 322.089 396.49 326.078 389.842C340.055 366.547 354.289 343.419 368.266 320.123C372.841 312.499 377.471 304.906 382.047 297.28C384.27 293.575 386.303 288.618 389.359 285.561ZM375.016 349.717C374.393 349.701 373.781 350.859 373.234 352.655C367.953 357.936 364.486 366.464 360.641 372.873C351.42 388.241 342.049 403.507 332.828 418.873C329.606 424.244 326.363 429.597 323.141 434.967C322.713 435.68 320.655 439.95 319.922 439.967C303.227 440.351 286.525 439.679 269.828 439.967C268.785 439.985 266.505 444.994 266.016 445.811C262.681 451.369 259.382 456.941 256.047 462.498C255.584 463.27 252.999 468.646 252.266 468.655C222.775 468.946 193.257 468.46 163.766 468.655C163.489 468.656 163.398 469.053 163.203 469.248C165.503 471.548 164.426 470.751 166.109 471.873C166.159 471.836 166.244 471.845 166.297 471.811C169.803 476.835 179.65 482.899 184.578 486.842C197.382 497.085 210.119 507.379 222.922 517.623C212.595 538.268 198.888 558.303 186.922 578.248C182.708 585.272 178.542 592.32 174.328 599.342C173.391 600.904 170.836 603.8 171.328 605.592C171.259 605.657 171.176 605.713 171.109 605.78C171.198 605.868 171.301 605.912 171.391 605.998C171.401 606.016 171.379 606.043 171.391 606.061C171.4 606.051 171.412 606.039 171.422 606.03C190.623 624.423 231.827 587.966 250.797 606.936C249.639 608.094 247.365 607.347 246.109 608.405C245.675 608.771 245.258 609.184 244.828 609.561C242.481 609.033 232.434 612.191 230.266 612.811C226.643 613.846 215.755 615.45 213.297 617.498C210.841 619.545 209.364 623.283 207.734 625.998C203.856 632.462 199.893 638.849 196.016 645.311C194.119 648.471 185.951 659.479 188.047 661.936C187.08 662.733 186.148 663.593 185.172 664.373C185.465 664.666 185.441 664.674 185.734 664.967C199.902 657.883 214.347 650.549 227.922 642.405C239.668 635.357 252.519 630.109 264.266 623.061C271.375 618.795 279.128 615.606 286.234 611.342C288.394 610.046 293.026 606.426 295.609 606.373C307.627 606.128 319.884 605.667 332.078 604.655C331.954 604.737 331.728 604.818 331.641 604.905C339.714 612.978 349.691 619.738 358.609 626.873C374.745 639.782 390.424 653.445 406.953 665.842C407.246 665.549 407.223 665.541 407.516 665.248C407.251 664.72 406.94 664.184 406.672 663.655C408.064 661.93 405.782 647.132 405.484 644.155C404.477 634.085 403.272 624.035 402.266 613.967C401.935 610.66 402.353 605.62 401.078 602.561C400.262 600.602 393.804 602.178 392.578 602.248C390.528 602.365 388.474 602.495 386.422 602.561C382.314 602.693 377.095 600.64 374.078 603.311C374.05 603.281 373.842 602.844 373.828 602.842C367.528 601.858 360.07 602.571 353.609 602.248C353.304 602.233 352.212 602.317 351.766 602.311C377.722 598.301 402.641 590.133 423.359 572.373C445.304 553.564 464.258 524.651 466.109 495.03C466.314 491.761 465.971 485.563 464.828 479.748C466.624 482.524 470.778 488.807 471.047 489.061C470.997 489.104 470.84 489.143 470.797 489.186C472.849 493.289 474.476 497.803 475.484 502.342C475.96 504.48 475.677 507.786 477.266 509.373C491.053 502.48 505.049 495.053 518.266 487.123C527.441 481.618 537.901 477.587 546.703 471.78C546.776 471.825 546.929 471.818 546.984 471.873C548.116 470.741 549.785 470.218 551.078 469.248C550.883 469.053 550.761 468.656 550.484 468.655C520.505 468.461 490.527 468.849 460.547 468.655C459.846 468.65 457.696 464.481 457.328 463.967C455.392 461.257 452.892 458.687 450.578 456.373C445.344 451.14 438.203 448.192 431.547 445.53C417.106 439.753 400.764 439.214 384.672 439.498C385.059 437.151 384.109 431.464 384.078 431.155C383.17 422.075 382.361 412.984 381.453 403.905C380.105 390.426 378.707 376.979 377.359 363.498C377.042 360.323 378.397 349.803 375.016 349.717ZM285.641 484.498C312.789 484.402 339.961 484.594 367.109 484.78C378.586 484.858 398.453 488.478 398.453 503.811C398.453 509.834 396.622 514.668 395.234 520.217C393.551 526.95 386.171 534.774 381.453 538.967C365.478 553.167 348.026 558.806 326.359 558.905C306.926 558.993 287.51 559.195 268.078 558.905C267.726 558.899 267.553 558.375 267.484 558.03C267.347 557.343 276.054 543.996 277.141 542.186C285.585 528.112 295.92 514.346 303.234 499.717C297.129 495.138 290.473 490.456 285.078 485.061C285.273 484.865 285.364 484.499 285.641 484.498Z" fill="#ffffff" fill-rule="nonzero" opacity="1" stroke="none"/>
</g>
</svg>
