<?xml version="1.0" encoding="UTF-8" standalone="no"?>
<!DOCTYPE svg PUBLIC "-//W3C//DTD SVG 1.1//EN" "http://www.w3.org/Graphics/SVG/1.1/DTD/svg11.dtd">
<!-- Created with Vectornator (http://vectornator.io/) -->
<svg height="100%" stroke-miterlimit="10" style="fill-rule:nonzero;clip-rule:evenodd;stroke-linecap:round;stroke-linejoin:round;" version="1.1" viewBox="0 0 750 1000" width="100%" xml:space="preserve" xmlns="http://www.w3.org/2000/svg" xmlns:vectornator="http://vectornator.io" xmlns:xlink="http://www.w3.org/1999/xlink">
<defs/>
<g id="Layer-1" vectornator:layerName="Layer 1">
<path d="M647.633 278.259C643.688 279.003 639.626 284.652 638.258 285.946C629.764 293.98 620.509 302.17 610.414 308.227C583.578 324.329 554.583 333.65 523.414 338.102C482.138 343.999 440.136 342.2 398.602 341.602C375.246 341.266 349.165 341.164 326.82 350.102C306.271 358.322 288.906 368.392 272.914 384.384C266.979 390.319 261.736 397.4 257.414 404.602C256.664 405.853 254.133 412.406 252.727 412.79C249.824 413.582 244.007 411.81 241.008 411.634C231.958 411.101 223.059 410.965 214.039 411.915C176.514 415.865 143.809 433.801 117.352 460.259C109.274 468.336 93.9286 487.264 91.0079 498.946C90.0162 502.913 87.2605 507.112 85.7267 510.946C81.2494 522.139 75.9672 539.263 75.7579 550.79C75.5662 561.335 75.5662 571.901 75.7579 582.446C75.9674 593.971 80.1328 608.336 84.5392 619.352C106.737 674.846 154.158 714.993 214.32 721.009C264.906 726.067 313.965 707.321 347.633 669.165C354.744 661.106 360.604 652.234 366.102 643.071C368.945 638.333 370.503 630.763 374.289 626.977C376.934 628.3 383.312 627.466 386.008 627.259C396.2 626.475 408.196 621.603 399.477 609.977C401.14 608.314 404.157 609.425 406.508 609.384C409.927 609.324 413.372 609.234 416.789 609.102C418.939 609.02 423.244 608.711 425.57 608.509C431.195 608.02 452.716 606.137 451.945 597.665C451.544 593.244 446.584 590.553 443.445 587.415C441.794 585.764 439.84 584.032 437.883 582.727C439.038 581.573 451.782 581.739 454.57 581.54C458.682 581.246 462.793 580.895 466.883 580.384C469.724 580.028 472.551 579.601 475.383 579.196C483.108 578.093 507.008 573.999 507.008 563.384C507.008 561.304 501.913 556.82 501.445 556.352C500.048 554.955 498.409 553.641 496.758 552.54C499.496 549.802 507.519 548.869 511.414 547.571C524.385 543.248 538.055 538.185 549.477 530.571C559.686 523.765 562.565 519.942 552.414 511.821C555.629 508.606 566.43 505.407 571.164 503.04C582.851 497.197 594.602 489.897 604.57 481.352C606.848 479.4 619.839 469.393 616.289 463.477C613.057 458.09 607.022 461.273 603.383 457.634C606.905 454.112 612.006 451.541 616.008 448.54C623.976 442.564 631.475 436.26 638.539 429.196C640.938 426.797 646.391 419.938 643.227 416.321C638.521 410.944 628.212 415.931 625.383 413.102C648.335 390.15 664.661 370.212 671.664 338.696C673.275 331.446 678.969 311.375 666.664 312.321C664.042 312.523 654.962 325.49 652.914 327.852C648.144 333.357 643.156 338.485 637.977 343.665C630.466 351.176 621.479 356.732 612.477 362.134C610.194 363.503 604.778 367.078 602.227 366.227C607.497 360.957 613.345 356.265 618.633 350.977C633.092 336.518 643.845 318.092 650.258 298.852C652.124 293.254 656.102 284.165 651.445 279.509C650.265 278.328 648.948 278.011 647.633 278.259ZM648.227 283.415C648.482 283.583 648.737 283.923 649.102 284.196C646.262 289.877 645.962 297.484 643.539 303.54C637.309 319.117 628.294 334.597 616.289 346.602C609.682 353.21 602.962 359.738 595.477 365.352C593.209 367.053 582.556 373.044 583.195 375.602C583.589 377.178 590.776 375.305 592.258 375.009C600.93 373.274 608.498 369.529 616.289 365.634C630.361 358.598 642.535 346.533 652.914 335.165C657.881 329.725 662.268 321.407 668.133 317.009C670.409 319.285 667.786 334.491 666.664 338.977C661.127 361.126 650.162 382.135 633.852 398.446C631.458 400.839 628.998 403.152 626.539 405.477C623.194 408.641 615.769 412.704 613.664 416.915C617.178 420.429 623.606 418.071 627.727 418.071C631.048 418.071 634.344 418.291 637.664 418.384C638.835 418.416 638.043 418.138 639.445 419.54C633.312 431.807 613.836 444.81 601.633 452.946C599.741 454.207 588.486 460.348 589.039 462.009C589.97 464.802 594.879 462.784 597.82 462.915C602.377 463.117 608.749 462.688 612.195 466.134C609.482 471.56 604.409 475.475 599.602 479.321C588.616 488.109 575.535 496.904 562.383 502.165C558.158 503.855 554.016 505.755 549.789 507.446C548.403 508.001 545.288 508.347 544.227 509.196C540.285 512.349 557.354 518.038 553.602 521.79C543.176 532.215 520.542 539.747 506.727 544.352C502.898 545.629 487.618 548.492 485.914 550.196C490.128 553.006 494.65 556.306 498.227 559.884C499.76 561.417 503.242 563.329 502.039 565.134C499.871 568.386 493.812 570.011 490.32 571.009C477.048 574.801 463.382 576.458 449.602 577.165C447.356 577.28 445.099 577.383 442.852 577.446C438.165 577.578 433.477 577.665 428.789 577.759C428.23 577.77 427.898 577.581 427.602 578.321C426.854 580.191 431.255 583.183 431.727 583.602C437.003 588.293 442.984 592.598 446.945 598.54C441.877 603.608 419.638 604.357 414.133 604.415C407.005 604.49 399.881 604.134 392.758 604.415C390.601 604.5 392.604 608.064 393.039 608.79C395.5 612.892 400.254 615.894 395.695 619.946C391.658 623.535 382.18 622.95 377.82 622.571C377.693 622.56 371.757 621.634 371.07 621.977C369.716 622.655 365.207 635.093 363.758 637.509C356.616 649.412 349.389 660.971 339.445 670.915C308.064 702.296 268.244 718.329 223.695 716.915C207.738 716.408 191.364 712.876 176.539 706.946C84.4098 670.094 49.5791 556.684 110.039 476.071C134.79 443.07 172.968 421.401 213.758 416.602C223.037 415.511 232.252 415.739 241.57 416.321C243.937 416.469 253.819 418.567 255.633 417.79C256.243 417.528 261.34 407.341 262.102 406.071C267.934 396.351 275.913 388.34 284.07 380.571C306.855 358.872 339.992 348.414 370.789 346.602C388.52 345.559 406.352 346.884 424.102 346.884C446.963 346.884 469.398 347.268 492.07 346.009C527.924 344.017 569.79 337.977 601.352 319.04C612.109 312.586 622.393 306.037 632.102 297.946C634.797 295.7 637.493 293.359 640.008 290.915C642.483 288.508 644.865 285.997 647.352 283.602C647.725 283.243 647.972 283.247 648.227 283.415ZM634.164 302.352C628.842 303.908 624.764 310.768 620.383 314.352C612.887 320.485 604.898 325.256 596.664 330.196C588.422 335.142 578.064 338.68 568.82 341.321C531.192 352.072 492.883 355.404 453.695 355.665C430.063 355.822 406.421 355.795 382.789 355.977C375.514 356.034 368.015 356.902 360.82 358.009C331.444 362.528 302.541 373.037 282.289 395.821C279.618 398.826 267.001 416.007 267.945 420.727C268 420.998 268.283 421.187 268.539 421.29C269.951 421.855 281.017 424.724 281.414 424.227C287.29 416.882 291.271 408.839 298.133 401.977C312.51 387.6 332.211 379.627 351.727 375.29C415.982 361.011 483.564 379.049 547.727 363.009C571.244 357.129 595.73 347.696 613.664 330.759C619.935 324.837 625.412 319.236 630.352 312.321C631.401 310.852 637.548 301.363 634.164 302.352ZM659.633 336.634C650.857 345.41 644.172 355.637 633.852 363.009C597.748 388.797 549.162 391.6 506.414 392.29C484.622 392.641 462.881 392.518 441.102 391.696C420.241 390.909 398.866 387.855 378.102 390.821C337.465 396.626 297.598 421.379 285.82 462.602C281.911 476.284 283.477 489.869 283.477 503.915C283.477 518.177 279.647 534.136 273.227 546.977C272.122 549.186 266.117 559.75 266.789 560.759C284.839 551.734 292.551 527.338 294.602 508.884C295.754 498.514 294.982 488.091 297.258 477.852C305.459 440.946 341.256 411.946 378.383 407.821C443.12 400.628 512.353 416.759 576.445 398.446C602.098 391.117 625.534 380.108 644.695 360.946C646.387 359.255 647.882 357.499 649.383 355.665C651.292 353.332 661.665 339.682 659.633 336.634ZM662.57 338.696C661.441 339.826 660.82 341.803 660.07 343.384C660.126 343.389 660.169 343.373 660.227 343.384C661.291 343.569 661.816 344.009 661.977 344.665C662.987 343.011 663.764 339.492 662.57 338.696ZM660.07 343.384C657.235 343.134 656.926 349.35 655.258 351.852C651.127 358.048 646.145 363.59 640.883 368.852C635.033 374.702 627.746 379.278 620.695 383.509C617.63 385.348 613.09 386.337 610.414 388.477C608.998 389.61 609.59 391.744 608.07 392.884C605.626 394.717 601.007 394.078 598.133 395.227C596.614 395.835 596.509 397.625 595.195 398.446C594.033 399.173 592.454 398.502 591.102 398.727C589.617 398.975 588.297 400.983 586.695 401.384C579.605 403.156 571.042 401.254 564.445 403.727C563.033 404.257 564.24 407.05 561.789 407.54C558.34 408.23 554.676 407.438 551.258 408.415C549.334 408.965 548.127 410.885 546.258 411.352C543.603 412.016 540.799 411.439 538.07 411.634C536.104 411.774 537.281 414.619 535.727 414.852C534.085 415.099 532.386 414.916 530.727 414.852C527.498 414.728 521.895 412.655 519.008 414.259C516.963 415.395 518.11 417.517 516.102 418.665C513.655 420.063 509.454 418.98 507.008 420.727C504.656 422.408 506.502 422.229 505.852 425.696C505.495 427.6 499.788 427.344 498.82 427.446C492.512 428.11 487.612 429.91 481.227 430.384C480.098 430.467 478.302 432.124 478.602 433.321C479.222 435.804 483.149 435.473 485.039 435.946C491.293 437.51 492.072 440.905 499.977 441.227C503.296 441.363 506.624 441.509 509.945 441.509C511.803 441.509 513.654 441.347 515.508 441.227C518.447 441.038 521.368 440.717 524.289 440.352C567.025 435.01 607.878 414.482 638.258 384.102C640.544 381.817 642.647 379.263 644.695 376.759C649.998 370.278 656.992 361.356 659.07 353.04C659.75 350.322 662.403 346.705 661.977 344.727C661.863 344.907 661.814 345.296 661.695 345.415C660.816 344.536 660.824 344.544 659.945 343.665C659.988 343.579 660.028 343.472 660.07 343.384ZM487.664 412.79C485.39 412.584 484.394 414.951 482.414 415.446C481.118 415.77 479.332 414.571 478.008 414.571C476.003 414.571 475.342 418.159 473.32 418.665C469.301 419.67 466.187 416.582 462.195 416.915C460.874 417.025 461.72 419.56 460.414 419.821C457.276 420.449 455.863 417.79 453.102 417.79C450.355 417.79 447.811 421.29 444.32 421.29C441.714 421.29 439.043 418.228 436.414 417.79C432.998 417.221 431.343 419.259 427.602 419.259C425.1 419.259 422.914 417.04 420.289 417.79C418.375 418.337 412.121 420.042 412.664 422.759C413.452 426.7 429.686 429.995 432.602 430.384C447.204 432.331 464.037 431.003 478.008 425.415C483.802 423.097 506.608 414.505 487.664 412.79ZM388.664 417.79C385.17 418.663 382.519 419.821 378.695 419.821C375.961 419.821 373.106 419.07 370.477 419.821C367.429 420.692 365.948 424.406 363.164 425.102C360.42 425.788 355.366 425.043 353.195 426.852C351.036 428.652 352.585 431.014 350.258 433.009C345.168 437.371 341.319 432.496 342.352 443.852C342.504 445.531 345.666 444.766 347.352 444.727C353.381 444.59 355.132 444.572 360.227 444.165C375.893 442.912 395.295 439.535 408.289 429.79C405.12 423.451 397.967 420.305 388.664 417.79ZM615.695 424.509C612.029 424.814 615.054 424.193 611.883 426.571C611.194 427.088 608.782 427.115 607.789 427.446C600.925 429.734 593.981 431.259 586.977 431.259C583.875 431.259 587.144 436.694 584.07 437.134C580.13 437.696 575.023 435.715 571.477 437.134C568.816 438.198 570.652 442.03 569.414 442.384C564.545 443.775 557.74 439.758 552.727 439.759C549.081 439.759 548.918 444.664 546.57 445.602C544.906 446.268 541.791 444.727 540.102 444.727C538.6 444.727 536.693 447.89 534.852 448.259C532.485 448.732 529.308 447.426 527.227 447.946C526.094 448.229 525.536 450.677 524.602 451.196C522.646 452.282 517.695 448.852 515.508 448.852C512.45 448.852 513.904 452.329 512.289 453.54C511.023 454.489 507.674 453.812 507.289 453.821C501.71 453.954 495.118 453.727 489.727 455.884C487.117 456.927 486.753 459.141 484.758 460.852C484.263 461.277 479.035 461.434 478.883 461.446C476.695 461.614 466.27 460.971 466.883 465.259C467.277 468.014 474.8 466.669 477.133 467.602C480.132 468.802 481.969 472.439 484.164 474.634C486.616 477.085 504.421 475.162 507.883 474.915C537.402 472.806 568.455 465.059 594.008 449.727C603.096 444.274 611.98 438.669 620.383 432.134C621.392 431.348 627.418 427.285 626.82 426.29C625.462 424.026 617.253 424.379 615.695 424.509ZM234.758 426.977C199.976 425.822 162.944 438.631 137.883 462.602C134.14 466.182 130.389 469.784 126.727 473.446C119.984 480.188 107.514 496.484 105.07 506.259C104.565 508.279 100.497 513.122 102.133 514.759C109.829 510.911 104.319 519.882 107.977 523.54C110.325 521.974 111.301 515.734 112.664 513.009C116.872 504.594 121.368 496.54 127.039 488.977C143.171 467.468 166.39 450.395 192.352 442.977C210.743 437.723 230.142 435.359 249.195 438.29C257.812 439.615 266.582 441.482 274.695 444.727C276.295 445.367 281.8 448.43 283.195 447.384C284.682 446.268 286.007 441.105 286.977 439.165C285.468 437.657 282.594 437.049 280.539 436.227C270.587 432.246 260.044 429.947 249.477 428.321C244.642 427.577 239.727 427.142 234.758 426.977ZM424.695 433.321C420.059 433.434 411.87 433.409 407.695 436.54C406.181 437.675 403.836 442.341 402.414 442.696C393.32 444.969 395.084 440.77 388.07 446.509C384.88 449.119 378.47 443.693 376.039 447.946C375.462 448.956 376.9 450.478 377.508 450.884C378.59 451.605 381.174 451.314 382.508 451.759C383.858 452.209 385.17 455.046 386.008 455.884C386.782 456.657 388.069 456.382 388.945 457.04C390.639 458.31 391.028 461.143 392.758 462.009C394.856 463.058 397.446 462.217 399.789 462.321C402.328 462.434 404.874 462.554 407.414 462.602C415.128 462.749 422.824 462.915 430.539 462.915C445.354 462.915 460.566 460.229 474.789 456.165C477.109 455.502 486.446 453.795 485.914 450.602C485.321 447.046 478.41 444.944 475.664 443.571C463.894 437.686 449.073 434.81 436.102 433.884C433.66 433.709 426.915 433.267 424.695 433.321ZM335.32 449.134C332.934 449.203 332.95 451.785 331.508 453.227C329.981 454.754 326.854 454.456 325.07 455.884C323.17 457.404 324.423 459.6 323.039 461.446C321.377 463.663 319.104 465.349 317.164 467.29C315.997 468.457 313.737 475.873 313.945 477.54C313.98 477.814 314.263 478.123 314.539 478.134C319.418 478.321 324.282 478.205 329.164 478.134C343.22 477.927 357.731 475.451 370.789 470.227C374.079 468.911 379.63 467.208 381.914 464.352C382.855 463.176 379.704 461.524 378.695 460.852C375 458.389 371.025 456.909 366.977 455.29C356.632 451.152 346.527 448.806 335.32 449.134ZM224.008 464.946C204.546 466.568 187.03 473.024 171.258 484.29C160.86 491.717 142.293 509.402 138.758 523.54C138.079 526.257 136.275 529.137 135.227 531.759C132.725 538.012 131.206 545.028 130.258 551.665C126.08 580.913 134.362 612.239 154.852 634.009C191.227 672.657 246.859 679.731 290.789 648.352C299.183 642.357 308.955 634.614 313.664 625.196C313.186 624.718 302.014 620.189 301.945 620.227C300.164 621.217 298.277 624.369 296.945 625.79C294.725 628.158 292.522 630.526 290.227 632.821C281.807 641.241 269.359 647.725 257.977 650.977C208.725 665.049 157.622 639.401 144.914 588.571C133.477 542.823 157.407 500.243 200.258 483.102C216.226 476.715 234.994 476.207 251.539 479.884C257.189 481.139 263.053 483.172 268.227 485.759C269.222 486.256 276.094 489.955 276.164 488.977C276.47 484.69 277.626 480.204 276.445 476.071C275.863 474.033 269.635 472.653 267.945 471.977C258.4 468.159 248.321 466.093 224.008 464.946ZM417.352 467.009C406.715 467.432 395.836 468.505 385.414 470.821C382.254 471.523 380.425 475.945 379.289 476.071C376.997 476.326 367.282 475.323 366.664 478.415C366.265 480.411 368.897 481.295 369.914 482.821C370.536 483.753 370.826 486.26 371.945 486.634C372.545 486.834 374.215 486.342 374.883 486.915C378.121 489.69 378.193 490.957 380.727 492.477C384.958 495.016 398.619 495.806 403.289 496.009C406.315 496.14 409.354 496.29 412.383 496.29C417.172 496.29 422.377 495.424 427.039 494.259C428.806 493.817 430.189 492.499 432.008 492.196C435.213 491.662 438.602 491.671 441.664 490.446C446.825 488.382 448.991 485.755 454.852 484.29C456.303 483.927 467.124 479.377 465.695 477.54C460.428 470.768 435.79 467.613 428.195 467.29C424.584 467.136 420.963 466.865 417.352 467.009ZM583.164 470.384C577.326 470.375 571.299 471.102 567.664 471.102C566.813 471.102 565.687 472.613 564.727 472.852C563.684 473.113 554.373 472.022 551.477 473.415C551.507 473.446 551.504 473.411 551.539 473.446C550.243 474.742 551.198 475.168 552.414 476.384C551.386 477.412 549.071 478.158 547.508 477.696C541.344 478.612 531.471 476.088 526.945 479.321C525.582 480.295 525.737 482.482 524.289 483.102C521.415 484.334 518.041 483.415 514.914 483.415C511.101 483.415 507.321 482.821 503.508 482.821C500.325 482.821 502.3 486.73 499.977 487.227C492.174 488.899 482.931 486.915 475.07 486.915C472.313 486.915 459.685 490.049 457.508 491.915C456.339 492.916 455.067 495.768 453.383 496.009C449.069 496.625 437.772 494.667 434.352 499.227C432.372 501.867 446.337 507.712 448.414 509.196C449.948 510.291 453.35 514.623 454.57 514.759C463.735 515.777 473.768 514.542 482.977 513.884C527.189 510.726 562.431 500.371 597.539 474.04C594.644 471.145 589.002 470.392 583.164 470.384ZM547.508 477.696C549.158 477.451 550.611 476.999 551.539 476.071C550.171 474.703 550.423 473.921 551.477 473.415C550.869 472.798 551.177 472.968 550.383 472.571C548.578 474.376 550.201 472.3 549.477 475.196C549.347 475.715 546.865 476.964 546.57 477.259C546.817 477.505 547.157 477.592 547.508 477.696ZM324.195 482.227C318.762 481.932 308.788 484.736 308.07 491.915C308.055 492.071 308.778 496.685 308.664 496.884C308.66 496.89 305.204 499.728 305.164 500.977C305.073 503.808 304.9 506.658 305.164 509.477C305.203 509.89 305.635 510.259 306.039 510.352C308.705 510.968 311.493 510.543 314.227 510.665C326.093 511.192 337.943 510.121 349.383 506.852C355.203 505.189 360.78 503.218 366.383 500.977C367.557 500.507 370.857 499.414 370.195 497.759C368.895 494.508 362.065 491.273 358.758 490.446C354.165 489.298 349.644 486.771 345.008 485.446C338.117 483.477 331.291 482.613 324.195 482.227ZM225.758 484.29C224.811 484.376 213.197 485.312 213.164 486.634C212.974 494.248 213.237 501.861 213.164 509.477C213.138 512.213 210.762 517.16 213.445 517.696C215.518 518.111 223.583 515.186 226.352 515.04C229.181 514.891 232.018 514.759 234.852 514.759C237.026 514.759 239.494 516.045 241.57 515.352C241.57 507.094 239.239 498.315 238.07 490.134C237.812 488.328 238.211 484.583 225.758 484.29ZM242.445 485.165C240.808 486.802 242.456 491.549 242.758 493.665C243.623 499.722 244.517 505.764 245.383 511.821C245.552 513.008 245.347 516.782 246.852 517.384C248.486 518.037 249.981 515.689 251.258 514.477C257.97 508.107 264.463 501.516 271.164 495.134C266.057 490.026 250.696 486.589 242.445 485.165ZM206.633 487.477C204.483 487.938 201.633 489.584 200.258 490.134C193.421 492.868 186.928 496.539 181.227 501.29C185.593 505.656 191.227 508.993 196.164 512.696C199.628 515.294 203.132 518.665 207.008 520.602C208.335 519.275 208.453 519.94 208.477 517.696C208.568 509.102 208.587 500.507 208.758 491.915C208.76 491.817 210.031 488.13 208.477 487.509C207.993 487.315 207.349 487.324 206.633 487.477ZM275.258 497.477C267.932 504.803 260.622 512.137 253.008 519.165C254.311 521.119 257.49 522.236 259.445 523.54C263.176 526.027 266.824 528.875 269.695 532.321C272.729 530.299 276.01 512.343 276.164 508.884C276.32 505.37 276.538 501.868 276.445 498.352C276.436 497.977 275.513 497.605 275.258 497.477ZM388.789 499.571C385.463 499.691 382.263 500.128 379.289 500.977C377.419 501.512 375.393 504.368 374.602 505.102C373.246 506.361 370.004 505.054 369.32 507.446C368.565 510.09 370.217 509.829 368.727 510.946C367.148 512.13 364.309 511.821 362.57 511.821C360.591 511.821 360.334 514.724 358.758 515.04C355.146 515.762 350.908 513.75 347.633 514.477C345.457 514.961 347.188 517.355 347.914 517.977C350.401 520.109 355.628 519.951 351.445 524.134C354.651 530.545 372.165 531.235 377.227 531.446C388.142 531.901 397.984 529.422 408.289 526.477C419.746 523.204 432.102 520.945 441.102 512.696C438.574 508.904 423.255 505.023 418.82 503.915C409.799 501.66 398.767 499.212 388.789 499.571ZM177.133 504.196C174.353 505.586 172.581 508.467 170.383 510.665C167.236 513.812 163.624 518.027 161.602 522.071C168.975 529.444 176.315 536.863 183.57 544.352C185.488 542.435 186.393 539.539 187.977 537.321C192.028 531.649 196.785 527.097 202.32 522.946C196.621 517.246 189.144 512.845 182.695 508.009C181.937 507.44 178.048 503.739 177.133 504.196ZM303.383 513.009C300.473 515.919 297.293 529.59 295.789 534.102C295.286 535.613 293.18 539.755 294.602 540.821C297.528 543.016 305.737 541.515 308.977 541.134C319.925 539.846 333.063 537.045 342.07 530.29C336.53 521.979 313.827 515.156 303.383 513.009ZM531.445 517.259C528.058 517.063 524.374 517.696 520.477 517.696C518.758 517.696 518.102 516.915 516.383 517.696C515.606 518.049 515.29 519.93 514.633 520.04C510.244 520.771 505.283 520.753 500.852 521.196C498.213 521.46 493.442 520.324 490.883 520.915C488.565 521.45 490.571 525.595 487.977 525.884C485.041 526.21 481.778 524.86 478.883 524.415C470.666 523.151 462.278 521.091 453.977 520.602C448.141 520.259 438.2 520.427 432.883 524.415C430.878 525.918 429.456 528.107 427.602 529.696C426.48 530.657 422.401 531.109 420.883 531.446C414.109 532.951 408.075 533.612 402.727 538.196C404.351 540.362 409.412 540.536 412.102 541.134C422.331 543.407 432.689 544.136 443.133 544.634C472.395 546.027 515.02 538.907 540.695 521.79C537.929 518.47 534.833 517.454 531.445 517.259ZM226.039 519.727C224.499 519.748 213.533 521.591 212.883 523.54C212.28 525.349 227.699 537.534 230.164 535.571C234.81 531.872 238.655 527.239 242.758 522.946C244.625 520.992 238.009 520.36 237.758 520.321C233.892 519.726 229.95 519.675 226.039 519.727ZM248.914 523.259C245.626 524.113 248.741 544.26 252.727 544.352C256.729 544.445 260.732 544.625 264.727 544.352C265.646 544.29 268.102 538.572 267.664 537.915C265.977 535.384 263.658 533.315 261.508 531.165C260.32 529.977 258.786 528.927 257.414 527.946C254.86 526.121 251.972 522.464 248.914 523.259ZM159.258 526.196C152.527 524.749 152.349 541.485 150.758 547.852C150.428 549.172 148.536 554.939 149.883 555.477C152.569 556.552 167.534 553.072 171.258 552.54C172.191 552.407 184.047 551.659 181.82 549.04C174.927 540.93 169.675 528.435 159.258 526.196ZM206.727 526.196C202.163 527.75 197.705 533.437 194.695 536.446C192.55 538.592 185.607 547.396 189.133 549.915C189.939 550.491 208.143 547.74 208.477 544.946C209.16 539.225 209.015 533.37 208.477 527.634C208.405 526.874 207.449 525.95 206.727 526.196ZM243.039 529.102C240.939 531.203 238.857 533.326 236.602 535.259C237.896 537.2 242.023 537.376 244.227 538.477C245.718 536.986 244.509 530.572 243.039 529.102ZM213.445 531.165C211.369 533.241 212.688 537.016 212.883 539.946C212.901 540.222 213.25 540.345 213.445 540.54C215.526 539.5 219.244 538.273 220.789 536.727C218.772 534.711 216.01 532.447 213.445 531.165ZM351.727 535.259C350.071 535.24 349.697 537.483 348.508 538.196C346.969 539.119 344.337 538.098 342.664 539.352C341.213 540.44 341.377 543.074 340.008 543.759C335.506 546.009 328.723 540.725 324.477 543.759C322.804 544.954 323.469 546.062 322.445 547.29C320.304 549.86 313.919 547.29 311.008 547.29C309.62 547.29 308.214 548.727 306.914 548.727C305.6 548.727 303.892 547.474 302.508 547.29C300.104 546.969 297.788 547.675 295.477 547.29C291.781 546.674 291.987 543.966 288.164 546.696C287.079 547.471 285.883 548.541 285.539 549.915C283.737 557.124 307.838 561.158 311.883 561.634C320.592 562.658 329.522 562.79 338.258 562.79C351.21 562.79 374.955 557.996 383.664 546.384C384.961 544.655 378.747 542.034 377.508 541.415C370.024 537.673 360.002 535.352 351.727 535.259ZM400.383 545.821C397.852 546.077 396.696 549.196 394.508 550.509C392.717 551.583 390.053 551.184 388.07 551.977C386.304 552.684 385.612 554.597 384.258 555.759C382.652 557.135 376.373 555.132 375.477 557.821C374.68 560.212 379.535 560.922 381.039 561.352C388.314 563.431 395.58 565.429 403.008 566.915C421.536 570.62 440.78 571.624 459.539 569.54C463.178 569.136 483.803 566.746 485.633 563.696C486.737 561.855 482.193 559.143 480.633 558.102C474.304 553.883 466.41 559.351 460.414 556.352C458.026 555.158 455.302 552.365 452.227 553.134C451.674 553.272 450.199 555.533 449.883 555.759C449.645 555.929 449.298 555.8 449.008 555.759C446.608 555.416 444.817 553.727 442.258 553.727C440.781 553.727 438.928 554.602 437.289 554.602C435.074 554.602 433.47 551.898 431.414 551.384C428.534 550.663 426.658 552.259 423.82 552.259C420.242 552.259 417.265 547.83 413.852 546.977C409.456 545.878 404.895 545.365 400.383 545.821ZM257.102 548.446C256.827 548.475 256.703 548.844 256.508 549.04C257.441 550.907 258.598 552.862 259.758 554.602C263.349 551.011 264.129 547.706 257.102 548.446ZM228.383 549.321C205.997 552.374 209.952 583.602 233.07 583.602C245.238 583.602 249.935 568.2 246.258 559.009C243.201 551.368 235.418 548.362 228.383 549.321ZM200.664 552.352C198.135 552.194 194.302 552.933 193.227 554.009C196.449 557.378 196.473 557.389 199.695 560.759C201.152 559.302 201.865 555.062 202.602 552.852C202.196 552.582 201.507 552.405 200.664 552.352ZM187.164 554.54C186.752 554.365 186.338 554.359 185.914 554.602C182.688 556.454 183.852 567.15 183.852 569.821C183.852 571.538 185.653 583.191 187.664 584.196C189.46 585.094 200.189 571.384 199.977 569.259C199.494 564.431 193.991 561.573 190.602 558.102C189.578 557.054 188.401 555.065 187.164 554.54ZM177.727 555.759C170.207 556.833 162.684 557.934 155.164 559.009C154.082 559.163 149.047 559.216 148.695 560.446C147.756 563.734 148.414 567.308 148.414 570.727C148.414 572.089 149.147 584.175 151.352 584.196C161.312 584.292 171.268 584.387 181.227 584.196C181.503 584.191 181.625 583.798 181.82 583.602C179.035 578.032 178.883 568.927 178.883 563.102C178.883 561.249 180.56 557.127 177.727 555.759ZM279.383 558.102C277.058 560.427 283.333 565.246 284.633 566.602C289.826 572.021 294.55 577.102 300.164 581.852C323.699 601.766 352.258 614.837 383.664 614.071C385.663 614.022 380.274 607.181 379.852 606.759C378.681 605.588 372.745 603.227 371.07 603.227C369.522 603.227 368.891 605.046 367.258 603.821C363.55 601.04 356.908 593.362 352.914 592.696C350.897 592.36 349.938 596.42 348.508 595.602C346.066 594.207 339.014 585.538 337.383 585.946C335.408 586.44 335.277 588.954 332.977 588.571C329.265 587.952 326.756 582.45 324.477 579.79C318.842 573.216 314.527 569.549 307.508 566.04C306.47 567.077 306.789 567.769 305.445 568.665C303.676 569.844 300.096 568.739 298.414 567.477C293.357 563.685 287.292 559.933 279.383 558.102ZM123.227 561.352C120.352 564.227 121.792 571.858 117.352 573.634C110.842 576.237 114.391 568.291 110.32 567.477C108.167 567.047 107.799 570.209 105.945 570.415C104.269 570.601 102.994 571.845 101.539 571.602C100.732 571.468 99.8285 569.552 98.9142 570.134C95.0119 572.617 94.4318 572.77 91.8829 568.946C90.0357 570.793 92.2014 584.39 92.7579 588.009C95.4472 605.489 101.593 622.161 110.633 637.227C139.15 684.756 184.213 706.071 238.07 706.071C250.673 706.071 263 702.462 274.977 699.04C303.464 690.901 333.957 665.854 348.508 641.602C350.373 638.493 360.555 622.09 359.945 619.04C359.763 618.126 353.995 616.775 352.914 616.415C347.155 614.495 341.346 612.1 335.914 609.384C334.17 608.511 331.014 606.142 329.164 606.759C329.164 614.617 338.077 623.173 342.664 628.415C340.355 630.724 324.017 628.919 319.508 626.665C314.404 631.768 310.598 638.231 305.445 643.384C299.154 649.675 291.914 654.659 284.352 659.196C281.943 660.641 278.929 662.88 276.164 663.571C263.781 666.667 253.951 671.818 240.414 672.946C201.104 676.222 165.153 659.031 142.258 626.977C133.327 614.475 127.586 598.734 125.258 583.602C124.144 576.362 124.412 569.21 123.82 561.915C123.798 561.64 123.422 561.548 123.227 561.352ZM354.383 564.571C351.292 565.602 349.861 566.602 346.164 566.602C345.086 566.602 343.937 565.896 342.945 566.321C341.543 566.922 340.968 569.169 339.445 569.259C337.98 569.345 336.507 569.54 335.039 569.54C332.475 569.54 327.872 567.5 326.258 570.727C325.049 573.145 338.649 579.86 340.883 580.977C358.934 590.003 381.119 595.314 401.258 595.915C406.335 596.066 411.398 596.196 416.477 596.196C419.897 596.196 427.893 596.217 430.539 593.571C429.156 590.805 418.988 583.602 416.195 583.602C414.652 583.602 413.246 584.79 411.508 584.79C408.524 584.79 405.947 580.243 403.008 579.509C400.627 578.913 400.757 582.869 397.445 582.134C392.055 580.936 387.408 577.28 382.789 574.509C381.779 573.902 379.841 572.036 378.695 571.884C375.324 571.434 372.321 572.758 369.008 572.759C365.823 572.759 361.128 565.861 354.383 564.571ZM268.539 565.134C251.605 573.601 269.127 588.597 275.852 595.321C285.423 604.892 297.71 612.321 310.133 617.29C313.111 618.481 327.243 623.617 328.883 621.977C326.151 619.245 325.783 614.752 323.039 612.009C322.147 611.116 320.302 612.03 319.227 611.134C317.741 609.896 317.225 607.905 315.695 606.759C314.632 605.961 312.868 608.149 311.602 607.04C307.793 603.707 304.933 599.184 301.352 595.602C299.602 593.853 297.991 595.726 296.07 595.04C294.484 594.473 292.813 590.907 291.664 589.759C289.149 587.243 285.581 585.144 282.883 582.446C281.41 580.973 280.943 578.496 279.664 576.852C278.234 575.014 276.911 574.412 275.258 572.759C273.211 570.711 273.445 566.561 268.539 565.134ZM200.852 576.571C200.348 577.075 193.539 584.25 195.883 584.477C198.702 584.75 201.557 584.66 204.383 584.477C204.659 584.46 204.75 584.079 204.945 583.884C203.906 581.804 202.398 578.117 200.852 576.571ZM255.352 585.665C254.52 586.496 253.046 587.115 253.008 588.29C252.822 594.049 252.729 599.816 253.008 605.571C253.151 608.523 258.276 604.253 258.852 603.821C261.395 601.913 263.578 599.573 265.883 597.384C262.695 593.399 259.296 589.752 255.352 585.665ZM154.352 588.196C153.304 588.099 152.324 588.192 151.633 588.884C152.824 591.266 153.256 594.489 154.289 597.071C157.028 603.919 160.984 610.226 165.414 616.134C170.334 612.853 177.261 601.073 180.945 595.915C181.319 595.392 186.844 588.679 183.57 588.571C174.884 588.285 166.199 588.652 157.508 588.571C156.53 588.562 155.399 588.293 154.352 588.196ZM191.789 588.884C188.885 591.788 195.154 596.677 197.039 598.852C201.486 603.984 206.782 606.771 212.57 609.665C215.733 606.502 212.595 591.7 191.789 588.884ZM248.039 592.384C245.879 593.464 242.328 594.876 240.695 596.509C242.797 598.61 245.567 600.423 248.039 602.071C250.184 599.926 248.797 596.005 248.602 592.977C248.584 592.702 248.234 592.579 248.039 592.384ZM217.258 594.446C215.768 595.936 216.964 602.621 218.445 604.102C221.815 600.733 221.795 600.753 225.164 597.384C223.542 595.762 219.449 595.906 217.258 594.446ZM187.102 595.04C182.754 599.387 179.356 605.055 175.664 609.977C173.286 613.148 170.122 616.405 168.352 619.946C172.133 623.728 175.574 627.724 179.758 631.071C180.346 631.541 185.79 636.135 186.508 635.446C191.192 630.953 195.638 626.255 200.258 621.696C202.962 619.028 205.742 616.427 208.477 613.79C206.822 611.308 202.133 609.743 199.695 607.915C194.689 604.16 191.381 599.319 187.102 595.04ZM232.195 597.384C229.736 597.771 228.414 600.613 226.633 602.352C224.014 604.91 221.221 607.298 218.727 609.977C216.743 612.108 224.08 612.889 224.289 612.915C230.518 613.693 236.707 613.737 242.758 612.009C244.219 611.591 247.903 611.013 248.602 609.384C249.583 607.094 234.804 596.973 232.195 597.384ZM270.008 600.602C266.437 604.173 263.118 607.012 259.164 609.977C260.788 612.413 264.137 614.066 266.477 615.821C271.915 619.9 277.701 625.699 283.758 628.727C284.428 629.063 284.909 628.158 285.227 627.852C287.565 625.601 289.962 623.398 292.258 621.102C292.469 620.892 295.681 617.818 295.195 617.009C293.855 614.774 288.896 613.329 286.695 612.009C280.89 608.525 275.628 604.349 270.008 600.602ZM254.164 612.602C253.208 613.08 253.02 613.266 253.008 614.352C252.913 623.141 252.894 631.939 252.727 640.727C252.717 641.232 251.327 644.887 253.008 645.727C254.218 646.332 258.173 644.089 259.445 643.665C266.962 641.159 273.964 636.667 280.258 631.946C278.424 629.195 274.445 627.115 271.758 625.196C266.024 621.1 260.614 616.512 254.164 612.602ZM213.445 615.259C205.877 622.827 198.237 630.289 190.602 637.79C193.162 641.63 215.034 648.255 219.008 647.759C220.603 647.559 218.875 640.296 218.727 639.259C218.062 634.609 217.119 618.347 213.445 615.259ZM247.133 615.54C239.864 617.303 233.007 618.165 225.477 618.165C224.685 618.165 220.311 616.694 219.914 617.884C219.311 619.692 220.525 623.062 220.789 624.915C221.654 630.971 222.549 637.015 223.414 643.071C223.515 643.774 223.542 648.574 224.883 648.634C229.078 648.82 233.278 648.713 237.477 648.634C240.319 648.58 244.762 648.315 247.445 647.165C248.313 646.793 248.031 646.17 248.039 645.415C248.132 637.016 248.153 628.624 248.32 620.227C248.368 617.838 249.712 614.914 247.133 615.54Z" fill="#ffffff" fill-rule="nonzero" opacity="1" stroke="none"/>
</g>
</svg>
