<?xml version="1.0" encoding="UTF-8" standalone="no"?>
<!DOCTYPE svg PUBLIC "-//W3C//DTD SVG 1.1//EN" "http://www.w3.org/Graphics/SVG/1.1/DTD/svg11.dtd">
<!-- Created with Vectornator (http://vectornator.io/) -->
<svg height="100%" stroke-miterlimit="10" style="fill-rule:nonzero;clip-rule:evenodd;stroke-linecap:round;stroke-linejoin:round;" version="1.1" viewBox="0 0 900 900" width="100%" xml:space="preserve" xmlns="http://www.w3.org/2000/svg" xmlns:vectornator="http://vectornator.io" xmlns:xlink="http://www.w3.org/1999/xlink">
<defs/>
<g id="Layer-1" vectornator:layerName="Layer 1">
<path d="M113.25 134.25C112.917 134.25 122.833 143.5 122.5 143.5C122.667 144 122.833 144.5 123 145C123.333 146 125.667 149.167 130 154.5C134.333 159.833 143.333 165.833 157 172.5C170.667 179.167 177.667 182.833 178 183.5C178.167 183.833 178.333 184.167 178.5 184.5C178 184.5 177.5 184.5 177 184.5C176 184.5 148.833 176.333 95.5 160C68.8333 151.833 42.1667 143.667 15.5 135.5C18 138.5 20.5 141.5 23 144.5C28 150.5 57 178 110 227C136.5 251.5 163 276 189.5 300.5C189.167 300.667 188.833 300.833 188.5 301C187.833 301.333 168.333 288.333 130 262C91.6667 235.667 71 221.833 68 220.5C66.5 219.833 65 219.167 63.5 218.5C116.667 284.833 169.833 351.167 223 417.5C329.333 550.167 385.333 619.167 391 624.5C396.667 629.833 399 640.167 398 655.5C397 670.833 400.333 681.667 408 688C415.667 694.333 429.667 704.5 450 718.5C470.333 732.5 490.833 734.833 511.5 725.5C532.167 716.167 547 712.333 556 714C565 715.667 576.833 724.667 591.5 741C606.167 757.333 627.833 762.833 656.5 757.5C685.167 752.167 703.167 738.667 710.5 717C717.833 695.333 725.167 682 732.5 677C739.833 672 755 669.833 778 670.5C801 671.167 819.5 660.667 833.5 639C847.5 617.333 856.5 601 860.5 590C864.5 579 860.667 563.833 849 544.5C837.333 525.167 838.5 509.333 852.5 497C866.5 484.667 875.667 471.667 880 458C884.333 444.333 882.5 425 874.5 400C866.5 375 860.5 361.5 856.5 359.5C852.5 357.5 841.167 354.5 822.5 350.5C803.833 346.5 791.667 341.167 786 334.5C780.333 327.833 777.333 314.333 777 294C776.667 273.667 764.667 258 741 247C717.333 236 696.667 234.667 679 243C670.167 247.167 661.333 251.333 652.5 255.5C652.333 252.833 649.375 231.844 649.375 231.844C649.375 231.844 113.917 134.25 113.25 134.25ZM54.5 155.5C121.167 175.333 187.833 195.167 254.5 215C387.833 254.667 456.333 275.333 460 277C463.667 278.667 468.667 282.167 475 287.5C481.333 292.833 503.667 295.667 542 296C580.333 296.333 606.167 297.333 619.5 299C632.833 300.667 643 302.5 650 304.5C657 306.5 664.167 305.833 671.5 302.5C678.833 299.167 684.667 298.5 689 300.5C693.333 302.5 695.5 306.833 695.5 313.5C695.5 320.167 698 325.167 703 328.5C708 331.833 714 337 721 344C728 351 733.833 357.833 738.5 364.5C743.167 371.167 746.667 377 749 382C751.333 387 756.167 390.167 763.5 391.5C770.833 392.833 775 395.167 776 398.5C777 401.833 777.667 404.333 778 406C778.333 407.667 775.667 411 770 416C764.333 421 761.833 428.5 762.5 438.5C763.167 448.5 763.167 456.333 762.5 462C761.833 467.667 760.167 475.5 757.5 485.5C754.833 495.5 752.5 502.5 750.5 506.5C748.5 510.5 749.167 515.667 752.5 522C755.833 528.333 757.333 532.333 757 534C756.667 535.667 755.333 538.333 753 542C750.667 545.667 745.333 547.5 737 547.5C728.667 547.5 721.833 550.5 716.5 556.5C711.167 562.5 704.5 568.667 696.5 575C688.5 581.333 680.667 586.667 673 591C665.333 595.333 658.333 598.5 652 600.5C645.667 602.5 641.5 606.833 639.5 613.5C637.5 620.167 635.833 624 634.5 625C633.167 626 630 627 625 628C620 629 615.167 626.833 610.5 621.5C605.833 616.167 596.833 613.667 583.5 614C570.167 614.333 561 614.167 556 613.5C551 612.833 544 611.333 535 609C526 606.667 519.167 604.333 514.5 602C509.833 599.667 504 600.167 497 603.5C490 606.833 484.5 607.167 480.5 604.5C476.5 601.833 474.833 596.833 475.5 589.5C476.167 582.167 473.167 575.333 466.5 569C459.833 562.667 452.333 554 444 543C435.667 532 423.667 511.667 408 482C392.333 452.333 379.833 435.833 370.5 432.5C361.167 429.167 355.333 426.667 353 425C350.667 423.333 301.5 379.5 205.5 293.5C109.5 207.5 60.3333 163 58 160C56.8333 158.5 55.6667 157 54.5 155.5ZM192.5 163.5C266.667 176.5 340.833 189.5 415 202.5C563.333 228.5 638 241.667 639 242C640 242.333 641.333 251.667 643 270C643.833 279.167 644.667 288.333 645.5 297.5C636.333 296.333 627.167 295.167 618 294C599.667 291.667 574 290.5 541 290.5C508 290.5 488 287.5 481 281.5C474 275.5 448.167 265.833 403.5 252.5C358.833 239.167 312.833 221.5 265.5 199.5C218.167 177.5 194.167 166 193.5 165C193.167 164.5 192.833 164 192.5 163.5ZM704.5 245.875C713.333 245.958 722.5 248.167 732 252.5C751 261.167 760.5 275.167 760.5 294.5C760.5 313.833 762.5 325.333 766.5 329C770.5 332.667 774.5 337.167 778.5 342.5C782.5 347.833 795.333 353.167 817 358.5C838.667 363.833 852.5 376.5 858.5 396.5C864.5 416.5 859.5 433.833 843.5 448.5C827.5 463.167 818.5 476.5 816.5 488.5C814.5 500.5 813.833 508 814.5 511C815.167 514 820.667 524.333 831 542C841.333 559.667 840.5 577.833 828.5 596.5C816.5 615.167 798.667 624.333 775 624C751.333 623.667 737.333 625.333 733 629C728.667 632.667 723 636.5 716 640.5C709 644.5 701.667 657.667 694 680C686.333 702.333 670.667 716 647 721C623.333 726 604 720.333 589 704C574 687.667 560.167 678.333 547.5 676C534.833 673.667 526.5 673 522.5 674C518.5 675 508.333 679.667 492 688C475.667 696.333 466.667 700.5 465 700.5C463.333 700.5 453.833 694.5 436.5 682.5C419.167 670.5 411.333 655 413 636C414.667 617 423.833 604.667 440.5 599C448.833 596.167 457.167 593.333 465.5 590.5C465.167 594.333 464.833 598.167 464.5 602C463.833 609.667 468 616.333 477 622C486 627.667 491.333 630.5 493 630.5C494.667 630.5 498 629 503 626C508 623 511.167 621.5 512.5 621.5C513.833 621.5 517.167 622.667 522.5 625C527.833 627.333 534.5 629.5 542.5 631.5C550.5 633.5 557.167 634.833 562.5 635.5C567.833 636.167 575.667 636.333 586 636C596.333 635.667 603.833 638.333 608.5 644C613.167 649.667 616 652.5 617 652.5C618 652.5 623.5 651.333 633.5 649C643.5 646.667 649.5 641.833 651.5 634.5C653.5 627.167 657 622.667 662 621C667 619.333 674 616 683 611C692 606 699.333 601.333 705 597C710.667 592.667 716.5 587.333 722.5 581C728.5 574.667 735.5 571.667 743.5 572C751.5 572.333 758.167 568.5 763.5 560.5C768.833 552.5 771.833 546.667 772.5 543C773.167 539.333 771.667 534.667 768 529C764.333 523.333 763.667 517.667 766 512C768.333 506.333 770.333 499.5 772 491.5C773.667 483.5 774.667 473.167 775 460.5C775.333 447.833 778.167 439.333 783.5 435C788.833 430.667 791.5 425.833 791.5 420.5C791.5 415.167 790.5 409 788.5 402C786.5 395 781.333 390.333 773 388C764.667 385.667 759.167 381.667 756.5 376C753.833 370.333 750.5 364.833 746.5 359.5C742.5 354.167 737.5 348.5 731.5 342.5C725.5 336.5 720.167 332 715.5 329C710.833 326 708.333 320.833 708 313.5C707.667 306.167 704 300.833 697 297.5C690 294.167 685.333 292.5 683 292.5C680.667 292.5 677 294 672 297C667 300 663.333 301.333 661 301C658.667 300.667 657 294.5 656 282.5C655 270.5 662.667 260.333 679 252C687.167 247.833 695.667 245.792 704.5 245.875ZM114.5 264.5C115 264.5 115.5 264.5 116 264.5C117 264.5 141.833 280.833 190.5 313.5C239.167 346.167 278 375.833 307 402.5C336 429.167 355.333 444.167 365 447.5C374.667 450.833 386.333 465.667 400 492C413.667 518.333 426.167 539.333 437.5 555C443.167 562.833 448.833 570.667 454.5 578.5C443.167 582.667 431.833 586.833 420.5 591C397.833 599.333 341.167 547 250.5 434C205.167 377.5 159.833 321 114.5 264.5ZM668.5 319.5C668.333 319.833 668.167 320.167 668 320.5C667.833 320.833 667.667 321.167 667.5 321.5C668.5 322 669.5 322.5 670.5 323C672.5 324 673.5 325.167 673.5 326.5C673.5 327.833 673 329 672 330C671 331 669.5 331.667 667.5 332C665.5 332.333 663.833 332 662.5 331C661.167 330 660.667 328.5 661 326.5C661.333 324.5 662.333 323 664 322C664.833 321.5 665.667 321 666.5 320.5C665.5 320.667 664.5 320.833 663.5 321C661.5 321.333 660 322.167 659 323.5C658 324.833 657.667 327.667 658 332C658.333 336.333 659.167 339 660.5 340C661.833 341 663.833 341.5 666.5 341.5C669.167 341.5 671.5 340.667 673.5 339C675.5 337.333 676.5 334.5 676.5 330.5C676.5 326.5 675.167 323.667 672.5 322C671.167 321.167 669.833 320.333 668.5 319.5ZM385.5 337.5C401.667 366 417.833 394.5 434 423C466.333 480 486.667 513 495 522C503.333 531 511.167 538 518.5 543C525.833 548 533.333 552 541 555C548.667 558 555.833 560 562.5 561C569.167 562 576.333 562.333 584 562C591.667 561.667 599.667 560.667 608 559C616.333 557.333 624.833 554.667 633.5 551C642.167 547.333 649 543.833 654 540.5C659 537.167 664.167 533 669.5 528C674.833 523 679.667 517.5 684 511.5C688.333 505.5 692.167 499 695.5 492C698.833 485 701.333 478.333 703 472C704.667 465.667 705.833 459.5 706.5 453.5C707.167 447.5 707.167 440.833 706.5 433.5C705.833 426.167 704.667 419.833 703 414.5C701.333 409.167 699 403.667 696 398C693 392.333 688.5 386.167 682.5 379.5C676.5 372.833 670.833 367.667 665.5 364C660.167 360.333 653.667 356.833 646 353.5C638.333 350.167 628.667 347.333 617 345C605.333 342.667 563.833 340.833 492.5 339.5C456.833 338.833 421.167 338.167 385.5 337.5ZM405.5 349.5C436.833 350 468.167 350.5 499.5 351C562.167 352 598.667 353.333 609 355C619.333 356.667 629.333 359.5 639 363.5C648.667 367.5 656 371.333 661 375C666 378.667 670.333 382.5 674 386.5C677.667 390.5 681.833 397.333 686.5 407C691.167 416.667 693.833 423.167 694.5 426.5C695.167 429.833 695.333 436.167 695 445.5C694.667 454.833 692.5 465.167 688.5 476.5C684.5 487.833 680.667 496.167 677 501.5C673.333 506.833 668.833 512.167 663.5 517.5C658.167 522.833 651.333 528 643 533C634.667 538 627.667 541.5 622 543.5C616.333 545.5 609.667 547.167 602 548.5C594.333 549.833 586.5 550.5 578.5 550.5C570.5 550.5 562.667 549.5 555 547.5C547.333 545.5 541.167 543.333 536.5 541C531.833 538.667 524.667 533.333 515 525C505.333 516.667 497.667 508.667 492 501C486.333 493.333 470.5 466.167 444.5 419.5C431.5 396.167 418.5 372.833 405.5 349.5ZM413.5 354.5C427.167 378.5 440.833 402.5 454.5 426.5C481.833 474.5 499.167 502.5 506.5 510.5C513.833 518.5 522 525.333 531 531C540 536.667 548.167 540.5 555.5 542.5C562.833 544.5 570.5 545.5 578.5 545.5C586.5 545.5 594.167 544.833 601.5 543.5C608.833 542.167 615.333 540.5 621 538.5C626.667 536.5 633.333 533.167 641 528.5C648.667 523.833 655.167 518.833 660.5 513.5C665.833 508.167 670.667 502 675 495C679.333 488 683 479.167 686 468.5C689 457.833 690.5 449.167 690.5 442.5C690.5 435.833 689.667 429.333 688 423C686.333 416.667 683.833 410.5 680.5 404.5C677.167 398.5 673.833 393.667 670.5 390C667.167 386.333 661 381.667 652 376C643 370.333 634.667 366.333 627 364C619.333 361.667 611.833 360 604.5 359C597.167 358 563.5 357 503.5 356C473.5 355.5 443.5 355 413.5 354.5ZM563.5 383.5C571.167 384.167 578.833 384.833 586.5 385.5C601.833 386.833 612.5 388.333 618.5 390C624.5 391.667 629.5 393.5 633.5 395.5C637.5 397.5 641.667 401.333 646 407C650.333 412.667 652.667 418.167 653 423.5C653.333 428.833 653 432.667 652 435C651 437.333 649.167 439.667 646.5 442C643.833 444.333 641.167 446 638.5 447C635.833 448 632.667 448.5 629 448.5C625.333 448.5 622.167 448 619.5 447C616.833 446 614.333 444.333 612 442C609.667 439.667 607.667 436.167 606 431.5C604.333 426.833 602.167 422.333 599.5 418C596.833 413.667 592.333 408.333 586 402C579.667 395.667 574.333 391 570 388C567.833 386.5 565.667 385 563.5 383.5ZM731.5 398.5C730.333 399.333 729.167 400.167 728 401C725.667 402.667 724.333 405.5 724 409.5C723.667 413.5 724.167 416.333 725.5 418C726.833 419.667 729.167 420.667 732.5 421C735.833 421.333 738.5 420.833 740.5 419.5C742.5 418.167 743.667 415.333 744 411C744.333 406.667 744 403.833 743 402.5C742 401.167 740.5 400.167 738.5 399.5C737.5 399.167 736.5 398.833 735.5 398.5C736.333 399.333 737.167 400.167 738 401C739.667 402.667 740.5 404.333 740.5 406C740.5 407.667 740 409 739 410C738 411 736.5 411.5 734.5 411.5C732.5 411.5 730.833 411 729.5 410C728.167 409 727.5 407.667 727.5 406C727.5 404.333 728.333 403 730 402C731.667 401 732.333 400.167 732 399.5C731.833 399.167 731.667 398.833 731.5 398.5ZM713.625 506.375C712.208 506.625 710.833 507.167 709.5 508C706.833 509.667 705.333 512.333 705 516C704.667 519.667 705.5 522.667 707.5 525C709.5 527.333 712.167 528.5 715.5 528.5C718.833 528.5 721.333 527.667 723 526C724.667 524.333 725.5 521.5 725.5 517.5C725.5 513.5 725 510.833 724 509.5C723 508.167 721 507.167 718 506.5C716.5 506.167 715.042 506.125 713.625 506.375ZM714.75 508.375C715.75 508.458 716.833 508.833 718 509.5C720.333 510.833 721.5 512.5 721.5 514.5C721.5 516.5 720.833 518 719.5 519C718.167 520 716.667 520.5 715 520.5C713.333 520.5 711.833 519.833 710.5 518.5C709.167 517.167 708.667 515.5 709 513.5C709.333 511.5 710.333 510 712 509C712.833 508.5 713.75 508.292 714.75 508.375ZM505 558C502 557.667 499.5 558.333 497.5 560C495.5 561.667 494.333 563.833 494 566.5C493.667 569.167 494.5 571.833 496.5 574.5C498.5 577.167 501.167 578.5 504.5 578.5C507.833 578.5 510.333 577.667 512 576C513.667 574.333 514.5 572.167 514.5 569.5C514.5 566.833 513.667 564.333 512 562C510.333 559.667 508 558.333 505 558ZM504.5 560C506.5 560.333 507.833 561 508.5 562C509.167 563 508.833 564.833 507.5 567.5C506.167 570.167 504.333 571.5 502 571.5C499.667 571.5 498.167 571.167 497.5 570.5C496.833 569.833 496.5 568.5 496.5 566.5C496.5 564.5 497.333 562.833 499 561.5C500.667 560.167 502.5 559.667 504.5 560ZM616.094 574C613.781 574.25 611.75 575.25 610 577C607.667 579.333 606.667 582 607 585C607.333 588 608.167 590.5 609.5 592.5C610.833 594.5 613 595.667 616 596C619 596.333 621.667 595.667 624 594C626.333 592.333 627.333 589.333 627 585C626.667 580.667 626 577.833 625 576.5C624 575.167 621.833 574.333 618.5 574C617.667 573.917 616.865 573.917 616.094 574ZM615.875 576.375C616.958 576.458 618.167 576.833 619.5 577.5C622.167 578.833 623.5 580.333 623.5 582C623.5 583.667 622.833 585.167 621.5 586.5C620.167 587.833 618.5 588.5 616.5 588.5C614.5 588.5 612.833 587.667 611.5 586C610.167 584.333 609.667 582.667 610 581C610.333 579.333 611.333 578 613 577C613.833 576.5 614.792 576.292 615.875 576.375Z" fill="#ffffff" fill-rule="nonzero" opacity="1" stroke="none" vectornator:layerName="Curve 1"/>
</g>
</svg>
