<?xml version="1.0" encoding="UTF-8" standalone="no"?>
<!DOCTYPE svg PUBLIC "-//W3C//DTD SVG 1.1//EN" "http://www.w3.org/Graphics/SVG/1.1/DTD/svg11.dtd">
<!-- Created with Vectornator (http://vectornator.io/) -->
<svg height="100%" stroke-miterlimit="10" style="fill-rule:nonzero;clip-rule:evenodd;stroke-linecap:round;stroke-linejoin:round;" version="1.1" viewBox="0 0 750 1000" width="100%" xml:space="preserve" xmlns="http://www.w3.org/2000/svg" xmlns:vectornator="http://vectornator.io" xmlns:xlink="http://www.w3.org/1999/xlink">
<defs/>
<g id="Layer-1" vectornator:layerName="Layer 1">
<path d="M361.777 200.737C345.82 201.383 330.034 204.167 314.215 207.331C252.836 219.607 195.711 253.031 153.402 299.019C137.025 316.82 124.117 336.452 111.777 357.019C97.3792 381.015 88.224 409.523 82.1833 436.706C46.1054 599.056 153.899 764.245 318.34 794.144C355.856 800.965 393.868 801.249 431.402 794.425C500.276 781.902 564.758 742.315 608.371 687.8C618.864 674.683 627.622 660.809 636.215 646.487C639.219 641.479 643.85 634.916 645.277 629.206C646.416 624.65 649.384 620.126 651.152 615.706C654.644 606.976 658.213 598.132 660.808 589.05C668.468 562.241 673.437 534.67 674.59 507.019C676.472 461.84 664.515 419.002 647.933 377.55C641.418 361.263 631.402 345.174 621.246 330.956C580.671 274.151 524.393 232.007 457.496 212.894C440.479 208.032 422.958 204.687 405.34 202.925C396.772 202.068 386.113 201.353 377.808 200.862C372.439 200.545 367.096 200.522 361.777 200.737ZM356.121 214.956C357.122 215.047 357.951 215.317 358.465 215.831C342.897 246.966 308.965 278.317 308.965 315.425C308.964 343.625 320.249 358.326 342.34 374.894C347.203 378.541 354.749 380.641 360.527 381.925C390.384 388.56 424.45 372.93 436.09 343.831C452.899 301.809 423.97 268.08 403.871 234.581C400.088 228.277 395.157 222.404 391.871 215.831C393.601 214.101 401.587 216.12 404.183 216.394C418.321 217.882 432.678 220.107 446.371 224.019C509.579 242.078 565.44 276.471 604.558 331.237C649.056 393.535 667.46 464.767 656.402 542.175C637.548 674.152 517.864 785.644 382.496 785.644C352.227 785.644 322.754 782.222 293.715 773.925C284.877 771.4 276.164 768.236 267.652 764.831C263.333 763.103 258.92 760.382 254.465 759.269C248.555 757.791 241.503 753.01 236.308 749.894C220.548 740.437 205.313 730.787 191.183 718.831C135.303 671.548 98.352 603.903 90.6833 531.05C87.0872 496.887 89.9994 462.348 98.3083 429.112C106.453 396.533 120.68 364.741 140.215 337.394C151.512 321.577 163.928 307.253 177.996 293.737C214.302 258.855 262.492 231.613 312.183 221.675C323.574 219.397 334.886 217.27 346.465 216.112C348.587 215.9 353.117 214.683 356.121 214.956ZM375.152 220.519C378.072 220.309 379.13 228.211 379.84 231.05C381.217 236.558 385.757 242.913 388.652 247.737C405.572 275.938 439.793 311.334 415.308 345.612C410.942 351.725 405.403 354.862 399.777 359.081C394.832 362.79 385.783 365.237 379.558 365.237C371.626 365.237 364.431 364.497 356.996 362.019C352.014 360.358 346.441 357.589 342.652 353.8C338.853 350.001 334.288 345.291 331.808 340.331C314.919 306.552 343.738 277.073 359.933 250.081C363.422 244.267 367.373 238.246 369.902 231.925C371.222 228.626 371.78 220.761 375.152 220.519ZM308.09 249.519C297.589 253.019 286.997 255.937 276.715 260.05C236.081 276.303 199.005 305.186 171.84 339.144C163.088 350.083 155.88 361.794 148.715 373.737C146.644 377.188 143.224 381.825 142.246 385.737C141.128 390.209 138.138 394.586 136.402 398.925C133.014 407.395 129.544 415.898 127.027 424.706C117.423 458.321 113.377 493.136 117.058 528.112C131.427 664.619 252.299 766.087 388.933 759.581C521.639 753.262 630.748 641.547 634.152 508.8C634.721 486.628 633.395 464.178 627.996 442.581C622.176 419.303 614.61 395.866 602.215 375.206C594.298 362.011 586.234 349.091 576.433 337.112C568.747 327.718 560.438 319.055 551.84 310.456C528.474 287.091 498.644 270.422 468.34 258.3C461.568 255.591 454.551 253.276 447.527 251.269C445.989 250.829 442.869 249.208 441.683 250.394C444.744 256.515 450.07 262.528 453.683 268.55C463.667 285.19 466.871 306.071 466.871 325.081C466.871 330.234 465.642 335.597 464.527 340.612C449.811 406.835 366.143 431.059 315.683 388.362C289.933 366.574 276.297 329.684 285.808 296.394C289.444 283.668 294.27 271.669 301.621 260.644C303.041 258.514 309.273 251.293 308.09 249.519ZM196.152 423.112C201.623 423.234 207.09 423.428 212.558 423.519C222.123 423.678 231.621 433.566 231.621 443.175C231.621 518.468 231.501 593.757 231.308 669.05C231.297 673.596 229.22 683.675 222.808 683.675C210.471 683.675 203.163 668.659 196.746 659.675C175.132 629.416 160.433 590.182 160.433 552.737C160.433 515.725 160.522 478.717 160.715 441.706C160.767 431.618 170.518 423.719 179.746 423.237C185.207 422.953 190.681 422.991 196.152 423.112ZM237.183 424.112C277.222 424.308 277.617 424.43 277.621 424.706C277.813 437.302 277.813 449.891 277.621 462.487C277.617 462.764 277.281 462.972 277.027 463.081C274.519 464.156 269.996 464.721 269.996 468.644C269.996 501.066 270.18 533.503 270.277 565.925C270.278 566.12 270.23 566.298 270.277 566.487C271.262 570.427 274.79 569.81 277.027 571.487C277.248 571.653 277.62 571.805 277.621 572.081C277.718 619.054 277.501 666.015 277.308 712.987C277.278 720.323 270.425 723.809 263.84 721.175C252.176 716.509 240.332 706.395 231.027 698.331C227.723 695.467 224.557 692.537 221.652 689.269C223.173 687.747 225.958 688.316 227.808 687.206C234.112 683.424 236.569 675.439 236.59 668.456C236.684 636.327 236.395 604.209 236.59 572.081C236.59 572.08 244.215 569.279 244.215 565.331C244.215 533.104 243.999 500.87 243.902 468.644C243.891 464.89 239.807 463.956 237.183 463.081C236.921 462.994 236.594 462.764 236.59 462.487C236.397 449.891 236.397 437.302 236.59 424.706C236.594 424.43 236.988 424.308 237.183 424.112ZM283.183 424.112C323.222 424.308 323.585 424.43 323.59 424.706C323.782 437.302 323.782 449.891 323.59 462.487C323.585 462.764 323.281 462.972 323.027 463.081C320.154 464.312 317.503 464.371 316.277 468.05C316.15 468.432 315.996 468.835 315.996 469.237C315.996 501.269 316.084 533.3 316.277 565.331C316.283 566.403 316.753 567.737 317.465 568.55C321.034 572.63 328.14 572.299 330.34 566.8C330.704 565.889 330.925 564.826 330.933 563.862C331.025 553.023 330.741 542.169 330.933 531.331C330.938 531.055 331.251 530.777 331.527 530.769C337.579 530.579 343.632 530.58 349.683 530.769C349.959 530.777 350.277 531.055 350.277 531.331C350.374 598.421 350.158 665.523 349.965 732.612C349.958 734.706 349.309 737.538 348.215 739.362C344.414 745.696 337.768 747.015 330.933 746.394C316.777 745.107 302.404 739.307 289.34 734.081C284.699 732.225 277.404 730.364 273.808 726.769C278.344 723.366 282.577 719.138 282.59 712.987C282.686 666.015 282.395 619.053 282.59 572.081C282.59 571.931 290.215 569.48 290.215 565.612C290.215 533.19 289.999 500.784 289.902 468.362C289.891 464.569 285.74 463.933 283.183 463.081C282.921 462.994 282.594 462.764 282.59 462.487C282.397 449.891 282.397 437.302 282.59 424.706C282.594 424.43 282.988 424.308 283.183 424.112ZM350.277 424.112C428.695 424.308 429.056 424.43 429.058 424.706C429.252 445.409 429.252 466.098 429.058 486.8C429.056 487.076 428.772 487.385 428.496 487.394C422.444 487.583 416.36 487.583 410.308 487.394C410.032 487.385 409.762 487.076 409.746 486.8C409.465 482.022 409.61 477.239 409.433 472.456C409.378 470.972 408.787 468.872 407.683 467.769C401.794 461.88 389.345 463.063 389.215 473.331C389.124 480.46 389.024 487.611 389.215 494.737C389.373 500.682 410.777 489.972 410.902 495.894C411.093 504.974 411.093 514.064 410.902 523.144C410.778 529.059 389.259 518.44 389.215 524.3C389.118 536.897 389.34 549.516 389.527 562.112C389.595 566.729 394.148 571.487 398.902 571.487C403.707 571.487 409.698 567.72 409.746 562.394C409.839 552.042 409.554 541.681 409.746 531.331C409.751 531.055 410.032 530.777 410.308 530.769C416.36 530.579 422.444 530.58 428.496 530.769C428.772 530.777 429.058 531.055 429.058 531.331C429.156 597.054 428.971 662.796 428.777 728.519C428.774 729.759 428.202 731.413 427.902 732.612C424.215 747.36 397.381 749.894 386.308 749.894C379.179 749.894 372.03 749.767 364.902 749.612C362.366 749.557 349.68 749.89 347.933 748.144C351.941 745.472 355.83 739.143 355.84 734.081C355.936 680.077 355.645 626.085 355.84 572.081C355.841 571.805 356.181 571.653 356.402 571.487C359.334 569.289 363.746 569.444 363.746 564.144C363.746 534.846 363.623 505.565 363.433 476.269C363.4 471.178 360.976 467.816 356.996 464.831C355.841 463.965 349.689 462.842 349.683 462.487C349.491 449.891 349.491 437.302 349.683 424.706C349.688 424.43 350.082 424.308 350.277 424.112ZM435.527 424.112C454.863 424.016 474.192 424.234 493.527 424.425C496.72 424.456 501.245 426.549 503.496 428.8C506.85 432.154 510.808 437.141 510.808 442.269C510.808 460.628 510.718 479.004 510.527 497.362C510.48 501.84 505.927 503.994 503.183 506.737C506.186 508.739 510.76 512.264 510.808 516.394C510.999 532.701 510.899 549.023 511.09 565.331C511.097 565.925 511.258 566.505 511.402 567.081C512.265 570.533 515.281 570.014 517.246 571.487C517.467 571.653 517.839 571.805 517.84 572.081C517.937 609.093 517.746 646.101 517.558 683.112C517.533 688.023 517.014 695.936 514.34 700.394C512.833 702.905 509.903 704.751 507.59 706.55C499.826 712.589 491.182 718.847 482.402 723.237C482.109 722.944 482.101 722.937 481.808 722.644C483.539 719.182 483.871 714.04 483.871 710.362C483.871 648.936 483.751 587.507 483.558 526.081C483.547 522.56 480.759 518.175 476.84 518.175C472.626 518.175 467.465 520.518 467.465 525.487C467.465 537.597 467.559 549.692 467.746 561.8C467.759 562.674 468.115 564.151 468.34 565.05C469.331 569.015 473.982 570.747 477.402 571.175C477.65 571.206 478.589 571.828 478.59 572.081C478.687 619.152 478.47 666.199 478.277 713.269C478.203 731.473 456.876 734.66 443.715 739.925C441.268 740.903 429.298 744.852 427.902 743.456C431.434 738.158 434.921 734.208 434.933 727.331C435.029 675.573 434.739 623.839 434.933 572.081C434.933 572.077 442.558 569.28 442.558 565.05C442.558 533.018 442.343 500.987 442.246 468.956C442.234 465.082 438.356 464.024 435.527 463.081C435.265 462.994 434.937 462.764 434.933 462.487C434.741 449.891 434.741 437.302 434.933 424.706C434.938 424.43 435.251 424.114 435.527 424.112ZM541.558 424.112C580.221 425.927 589.567 432.76 589.621 441.394C589.715 456.53 589.814 471.664 589.621 486.8C589.617 487.076 589.292 487.314 589.027 487.394C585.187 488.546 581.034 487.871 577.027 487.987C573.316 488.095 569.222 489.929 565.902 488.269C565.655 488.145 565.321 487.982 565.308 487.706C565.024 481.462 565.089 475.206 564.996 468.956C564.983 468.103 564.728 466.983 564.121 466.3C559.958 461.617 549.183 462.188 549.183 470.112C549.183 477.144 549.311 484.177 549.496 491.206C549.55 493.252 550.942 496.496 552.402 497.956C560.973 506.527 570.418 514.376 579.371 522.55C582.207 525.139 589.621 530.581 589.621 535.737C589.621 600.484 569.383 647.975 523.996 693.362C523.8 693.167 523.403 693.045 523.402 692.769C523.207 639.253 523.207 585.753 523.402 532.237C523.403 531.961 523.72 531.652 523.996 531.644C530.145 531.455 536.315 531.454 542.465 531.644C542.741 531.652 543.019 531.961 543.027 532.237C543.315 542.78 543.15 553.317 543.34 563.862C543.358 564.909 543.957 566.183 544.496 567.081C549.239 574.985 562.226 572.973 564.433 564.144C564.554 563.661 564.715 563.204 564.715 562.706C564.714 557.53 564.615 552.348 564.433 547.175C564.171 539.687 554.418 534.131 549.777 529.894C546.459 526.864 543.126 523.83 539.808 520.8C535.656 517.01 524.277 509.937 524.277 502.644C524.277 482.233 524.399 461.803 524.59 441.394C524.671 432.685 533.676 425.689 541.558 424.112ZM475.371 462.487C463.893 464.848 467.746 477.653 467.746 487.706C467.746 493.214 474.762 495.019 478.871 495.019C482.594 495.019 486.098 490.195 486.215 486.8C486.393 481.626 486.496 476.476 486.496 471.3C486.496 464.996 480.304 461.473 475.371 462.487ZM194.402 463.081C189.998 463.151 184.465 466.799 184.433 471.862C184.24 502.135 184.152 532.432 184.152 562.706C184.152 574.516 206.042 574.953 206.121 562.706C206.314 532.726 206.402 502.718 206.402 472.737C206.402 466.312 199.591 462.999 194.402 463.081Z" fill="#ffffff" fill-rule="nonzero" opacity="1" stroke="none"/>
</g>
</svg>
