<?xml version="1.0" encoding="UTF-8" standalone="no"?>
<!DOCTYPE svg PUBLIC "-//W3C//DTD SVG 1.1//EN" "http://www.w3.org/Graphics/SVG/1.1/DTD/svg11.dtd">
<!-- Created with Vectornator (http://vectornator.io/) -->
<svg height="100%" stroke-miterlimit="10" style="fill-rule:nonzero;clip-rule:evenodd;stroke-linecap:round;stroke-linejoin:round;" version="1.1" viewBox="0 0 750 1000" width="100%" xml:space="preserve" xmlns="http://www.w3.org/2000/svg" xmlns:vectornator="http://vectornator.io" xmlns:xlink="http://www.w3.org/1999/xlink">
<defs/>
<g id="Layer-1" vectornator:layerName="Layer 1">
<path d="M407.517 165.268C407.299 165.049 380.553 164.436 367.4 164.451C357.18 164.463 316.596 166.106 307.548 166.893C246.895 172.167 185.061 185.406 128.923 207.861C115.09 213.395 100.953 219.237 87.6422 225.893C83.6107 227.908 79.6719 229.837 75.8297 232.143C75.6202 232.268 75.1737 232.211 75.1735 232.455C75.1208 280.954 75.1843 329.457 75.1735 377.955C75.7537 393.606 77.2802 409.188 79.2985 424.33C95.6601 547.043 151.929 666.114 246.111 749.83C274.25 774.842 304.726 795.849 336.361 814.83C343.873 819.337 351.484 823.766 359.736 827.893C359.736 827.893 360.175 828.266 362.08 829.455C363.097 830.09 364.304 830.828 366.048 831.611C367.721 832.362 373.812 835.538 375.736 835.549C377.538 835.545 383.085 831.384 384.892 830.299C391.567 826.294 399.26 821.089 406.548 818.174C416.898 814.034 426.874 805.697 436.705 799.799C458.623 786.648 479.337 770.31 498.642 753.58C595.598 669.551 652.93 549.899 669.736 423.861C672.097 406.15 674.558 386.893 674.642 369.455C674.86 324.006 674.968 278.559 674.642 233.111C674.637 232.404 665.552 227.91 664.142 227.205C653.422 221.845 642.355 216.978 631.048 212.455C577.973 191.225 522.894 177.466 465.861 169.861C457.803 168.787 449.708 167.972 441.611 167.236C439.424 167.037 437.075 167.425 435.048 166.58C434.404 166.311 418.647 165.519 413.736 165.268C412.55 165.207 407.991 164.794 407.517 165.268ZM363.267 180.33C385.442 179.971 407.679 180.799 429.798 182.643C490.494 187.701 552.952 198.273 609.736 220.986C622.691 226.169 635.752 231.353 647.767 237.361C649.15 238.053 658.261 241.773 658.267 242.955C658.484 282.395 658.121 321.828 657.923 361.268C657.832 379.467 656.589 397.943 654.33 416.018C639.247 536.686 587.031 650.149 496.986 733.268C468.936 759.16 437.826 780.901 405.236 800.455C397.792 804.921 390.25 809.417 382.611 813.236C380.539 814.272 376.713 817.518 374.423 817.518C372.32 817.518 368.74 814.504 366.892 813.58C359.211 809.739 351.958 805.539 344.58 801.111C313.526 782.479 283.945 762.019 256.767 737.861C165.869 657.062 111.091 541.619 95.1735 422.236C92.6954 403.652 90.9386 384.601 90.8922 365.861C90.7908 324.892 90.4598 283.923 90.8922 242.955C90.906 241.661 101.866 237.14 103.361 236.393C116.856 229.645 130.922 224.33 144.986 218.705C212.269 191.792 291.691 181.489 363.267 180.33ZM357.361 200.33C296.967 200.681 233.373 210.212 175.455 229.518C154.511 236.499 130.662 242.506 111.892 253.768C111.495 254.006 110.897 254.273 110.892 254.736C110.568 289.368 110.675 324.01 110.892 358.643C110.894 358.952 111.272 359.161 111.548 359.299C112.073 359.561 121.941 354.961 123.361 354.393C134.85 349.797 146.351 345.188 158.111 341.268C202.973 326.313 249.425 317.297 296.423 311.768C373.349 302.717 455.955 305.603 531.736 324.549C550.465 329.231 569.152 333.854 587.455 339.955C594.232 342.214 602.947 343.806 609.08 347.486C615.146 351.126 623.412 353.351 630.08 356.018C631.78 356.698 635.83 359.655 637.611 359.299C637.914 359.238 638.266 358.952 638.267 358.643C638.484 324.01 638.484 289.369 638.267 254.736C638.263 254.076 636.118 253.349 635.642 253.111C614.99 242.785 592.718 236.189 570.736 228.861C502.431 206.093 428.667 199.916 357.361 200.33ZM361.298 219.361C395.058 219.689 396.392 219.399 397.673 219.674C398.792 219.914 400.335 224.547 400.955 225.58C401.761 226.923 404.554 230.346 404.58 231.799C404.685 237.697 404.685 243.588 404.58 249.486C404.566 250.274 397.985 261.221 397.673 261.299C396.488 261.595 394.319 260.757 394.08 261.955C393.771 263.501 396.127 267.074 396.705 268.518C398.82 273.807 400.631 283.569 404.58 287.518C403.118 290.441 401.501 288.616 397.361 288.518C394.849 288.458 392.326 288.806 389.83 288.518C388.6 288.376 382.182 271.382 381.298 269.174C380.694 267.664 379.403 261.471 377.705 260.986C377.555 260.943 375.417 260.625 375.392 261.643C375.179 270.271 375.605 278.889 375.392 287.518C375.343 289.511 371.479 288.469 369.486 288.518C366.755 288.584 364.022 288.719 361.298 288.518C360.99 288.495 360.645 288.17 360.642 287.861C360.425 265.247 360.426 242.632 360.642 220.018C360.645 219.708 361.08 219.58 361.298 219.361ZM320.33 221.299C321.494 221.215 328.506 231.242 328.517 232.799C328.625 247.875 328.625 262.941 328.517 278.018C328.513 278.592 322.013 290.385 321.642 290.486C313.034 292.834 302.099 292.735 293.142 293.424C292.028 293.509 284.975 284.053 284.955 282.611C284.74 267.427 284.847 252.235 284.955 237.049C284.963 235.894 291.518 224.528 292.142 224.268C298.643 221.559 313.003 221.825 320.33 221.299ZM437.361 222.299C441.294 222.556 445.21 223.349 449.142 223.611C449.412 223.629 451.102 223.29 451.111 224.268C451.328 246.882 451.327 269.497 451.111 292.111C451.099 293.33 444.947 291.839 444.236 291.768C443.807 291.725 436.729 292.146 436.705 290.486C436.381 267.982 436.488 245.46 436.705 222.955C436.707 222.646 437.053 222.279 437.361 222.299ZM483.892 228.205C491.72 230.528 500.484 231.333 508.486 233.111C511.274 233.731 517.43 233.648 519.611 235.393C521.611 236.992 522.134 240.47 523.205 242.611C523.962 244.126 526.473 247.011 526.486 248.83C526.594 263.797 526.594 278.769 526.486 293.736C526.475 295.205 521.024 303.765 519.611 304.236C517.492 304.943 500.895 300.293 497.642 299.643C496.339 299.382 495.044 299.224 493.736 298.986C492.236 298.713 483.242 297.346 483.236 296.705C483.019 274.091 483.02 251.476 483.236 228.861C483.239 228.552 483.596 228.117 483.892 228.205ZM228.236 235.393C231.943 254.097 228.755 272.269 231.173 289.486C235.573 287.286 242.11 287.168 246.923 286.205C248.082 285.973 252.136 284.159 252.83 285.893C254.453 289.95 253.066 294.623 252.83 298.986C252.749 300.489 245.941 301.08 244.955 301.299C238.199 302.8 231.361 303.869 224.642 305.549C222.852 305.996 218.527 307.878 216.767 307.174C216.48 307.059 216.114 306.827 216.111 306.518C215.894 284.012 215.788 261.521 216.111 239.018C216.128 237.858 226.819 235.676 228.236 235.393ZM183.673 247.205C185.106 248.37 184.986 247.781 184.986 248.83C184.986 252.872 185.193 256.949 184.986 260.986C184.929 262.084 180.794 262.675 180.048 262.924C175.243 264.525 168.247 265.305 163.986 267.861C163.588 268.1 163.054 268.368 163.017 268.83C162.698 272.866 160.811 278.092 163.673 280.955C165.103 280.241 177.295 276 178.08 276.393C178.355 276.531 178.721 276.709 178.736 277.018C178.943 281.273 179.04 285.58 178.736 289.83C178.703 290.292 178.129 290.509 177.767 290.799C176.229 292.029 163.045 294.898 163.017 296.049C162.804 304.896 163.23 313.733 163.017 322.58C163.01 322.889 162.637 323.098 162.361 323.236C161.405 323.714 149.635 327.545 149.58 327.518C149.303 327.379 148.926 327.17 148.923 326.861C148.707 304.356 148.6 281.834 148.923 259.33C148.945 257.845 155.884 256.145 157.111 255.736C165.912 252.803 174.667 249.457 183.673 247.205ZM564.517 247.205C571.73 247.125 578.787 251.088 585.486 253.768C587.767 254.68 591.461 254.968 593.361 256.393C595.271 257.826 596.478 262.186 597.298 264.236C597.998 265.983 600.225 268.95 600.236 270.799C600.344 289.481 600.452 308.18 600.236 326.861C600.232 327.171 599.883 327.457 599.58 327.518C596.576 328.118 590.595 323.864 587.455 323.236C587.038 323.153 586.177 323.508 586.142 322.58C585.823 313.954 585.936 305.336 585.83 296.705C585.827 296.487 585.942 296.236 585.83 296.049C584.451 293.75 576.301 291.888 573.705 291.455C573.331 291.393 572.069 291.283 572.048 292.111C571.836 300.521 572.261 308.952 572.048 317.361C572.041 317.67 571.695 317.957 571.392 318.018C571.047 318.087 559.212 314.753 558.611 314.393C558.213 314.154 557.65 313.887 557.642 313.424C557.32 294.854 557.534 276.278 557.642 257.705C557.659 254.901 561.905 247.234 564.517 247.205ZM375.392 233.111C375.083 233.125 374.751 233.459 374.736 233.768C374.528 238.023 374.529 242.293 374.736 246.549C374.751 246.857 375.083 247.192 375.392 247.205C380.304 247.414 385.23 247.414 390.142 247.205C390.451 247.192 390.783 246.857 390.798 246.549C391.006 242.402 391.101 238.252 390.798 234.111C390.765 233.649 390.292 233.141 389.83 233.111C385.032 232.805 380.194 232.902 375.392 233.111ZM313.111 235.736C311.74 235.873 298.725 236.765 298.705 238.018C298.49 251.345 298.489 264.69 298.705 278.018C298.723 279.132 300.873 278.739 301.986 278.674C304.036 278.553 312.302 279.298 313.736 277.768C315.164 276.245 314.547 274.531 314.767 272.455C316.019 260.612 315.086 248.609 314.767 236.705C314.737 235.567 313.705 235.677 313.111 235.736ZM497.642 244.58C496.846 244.514 496.674 246.028 496.673 246.893C496.673 259.676 496.56 272.46 496.986 285.236C497.033 286.648 499.066 286.156 499.611 286.205C503.169 286.528 508.666 289.513 512.08 288.83C512.383 288.769 512.731 288.483 512.736 288.174C512.951 274.847 512.952 261.532 512.736 248.205C512.731 247.896 512.327 247.734 512.08 247.549C509.164 245.362 501.414 244.895 497.642 244.58ZM572.048 262.924C571.781 262.769 571.407 263.271 571.392 263.58C571.184 267.945 571.185 272.34 571.392 276.705C571.431 277.51 573.655 277.553 574.017 277.674C575.402 278.135 585.182 281.827 585.83 281.611C586.269 281.465 586.761 281.105 586.798 280.643C587.099 276.94 586.896 273.2 586.798 269.486C586.773 268.513 586.546 268.054 585.83 267.518C582.272 264.849 576.051 265.234 572.048 262.924ZM375.08 326.611C364.147 326.527 353.209 326.678 342.298 327.174C308.847 328.694 275.872 333.007 242.986 338.986C207.954 345.356 172.754 354.935 139.736 368.143C132.694 370.959 125.674 373.69 119.08 376.986C117.444 377.804 111.634 379.079 111.236 381.268C109.894 388.65 112.522 398.321 113.205 405.83C114.841 423.834 117.784 441.934 121.705 459.58C140.037 542.075 174.849 618.785 230.861 682.799C237.237 690.085 243.868 697.071 250.517 704.111C254.867 708.717 259.369 713.177 263.955 717.549C277.261 730.236 291.608 742.23 306.58 752.924C308.228 754.101 318.239 762.158 319.673 761.799C324.477 760.598 330.741 754.711 334.423 751.643C347.086 741.09 355.377 729.227 364.267 715.893C373.146 722.996 376.999 737.906 379.986 748.361C381.125 752.348 380.5 760.344 383.267 763.111C385.115 761.88 384.969 756.847 385.236 754.58C386.436 744.38 386.75 733.977 385.548 723.768C380.778 683.223 355.619 642.169 325.267 615.611C325.595 615.284 325.596 615.283 325.923 614.955C358.536 631.262 396.253 659.113 418.986 686.393C421.572 683.807 419.966 676.206 419.642 672.643C418.793 663.298 416.348 651.929 412.111 643.455C412.439 643.127 412.44 643.127 412.767 642.799C430.32 660.352 448.084 677.723 460.955 699.174C464.804 705.59 468.469 711.922 471.767 718.518C472.633 720.249 473.574 724.843 475.361 725.736C476.39 726.251 485.289 715.773 486.83 713.924C494.912 704.225 501.047 693.53 507.486 682.799C509.883 678.803 511.018 674.287 513.392 670.33C517.369 663.702 519.323 655.333 522.236 648.049C531.166 625.723 536.33 598.145 536.33 574.299C536.33 568.123 532.404 559.405 530.111 553.674C523.041 536 515.665 520.188 502.236 505.799C500.056 507.979 503.128 516.951 503.548 519.893C505.181 531.322 508.486 543.849 508.486 555.299C508.486 558.377 503.612 564.61 501.923 567.424C493.869 580.848 484.199 592.679 473.08 603.799C466.498 610.381 446.687 608.055 437.673 606.768C419.765 604.209 393.524 597.884 377.705 588.393C371.47 584.652 364.426 581.425 358.017 577.58C356.09 576.424 353.011 573.322 350.83 572.986C339.084 571.179 327.018 573.642 315.423 575.299C313.402 575.588 308.277 577.652 306.892 576.268C313.925 562.202 321.142 548.549 325.58 533.018C326.648 529.277 329.927 522.349 329.173 518.58C329.113 518.277 328.733 518.146 328.517 517.924C325.018 514.322 321.599 510.662 318.048 507.111C316.404 505.467 302.231 492.2 299.673 492.049C286.692 491.285 273.593 494.735 260.673 494.018C259.405 493.947 261.455 487.673 261.673 486.799C263.387 479.946 264.087 471.125 267.236 464.83C266.908 464.502 266.908 464.501 266.58 464.174C258.834 471.919 251.032 479.721 243.298 487.455C240.744 490.01 233.005 490.718 229.548 491.705C223.917 493.314 216.724 495.986 210.861 495.986C205.271 495.986 197.311 490.442 192.83 487.455C201.143 470.828 220.59 457.611 236.423 448.111C240.853 445.454 246.857 444.239 250.861 441.236C251.975 440.401 244.66 430.159 245.611 426.83C246.183 424.828 261.808 416.387 264.611 414.705C266.181 413.763 268.992 411.211 270.517 412.736C269.291 413.963 267.871 417.933 269.205 419.268C277.08 411.392 287.6 405.643 297.08 399.955C300.267 398.043 304.58 396.704 307.236 394.049C308.852 392.433 309.598 386.847 310.517 384.549C312.565 379.429 320.642 361.439 324.923 359.299C326.978 358.272 329.505 358.843 331.798 358.986C332.138 359.007 333.96 364.59 334.423 365.518C336.461 369.592 339.022 373.467 341.955 376.986C340.489 379.185 336.711 379.239 334.423 380.611C328.685 384.054 322.308 386.901 316.736 391.08C318.31 392.654 322.568 390.52 324.611 390.111C331.928 388.648 339.169 386.997 346.548 385.861C368.531 382.479 391.437 380.864 413.423 384.861C418.811 385.841 430.608 385.984 434.736 390.111C431.903 395.777 426.124 400.247 422.611 405.518C424.264 407.17 429.122 404.344 431.111 403.549C438.763 400.488 446.404 397.419 454.048 394.361C474.23 386.289 492.635 373.683 513.048 365.518C523.157 361.474 531.821 363.64 541.892 366.518C543.293 366.918 545.992 367.28 547.142 368.143C550.963 371.008 556.986 380.292 556.986 385.518C556.986 390.472 555.333 396.064 554.361 400.924C551.697 414.242 548.241 427.233 544.517 440.268C543.09 445.263 540.8 457.447 537.642 461.236C528.964 471.65 518.48 478.528 508.142 486.799C510.283 488.94 518.698 485.814 521.58 485.174C530.141 483.271 538.694 481.338 547.142 478.924C549.591 478.224 553.191 476.299 555.673 476.299C556.748 476.299 559.903 479.682 560.58 480.236C564.5 483.444 568.007 486.93 571.736 490.393C584.644 502.379 595.551 516.239 606.798 529.736C610.676 525.859 611.908 515.689 613.673 510.393C618.568 495.707 622.439 480.604 625.798 465.486C630.3 445.228 633.352 424.823 635.642 404.205C636.423 397.177 638.606 387.888 637.611 380.924C637.293 378.695 628.859 376.548 627.111 375.674C615.463 369.85 602.804 366.407 590.736 361.58C571.131 353.738 549.923 349.353 529.455 344.236C489.939 334.357 448.493 329.323 407.861 327.518C396.951 327.033 386.012 326.696 375.08 326.611ZM193.486 505.486C196.125 508.126 197.932 512.135 200.392 515.299C202.838 518.443 206.141 520.781 208.58 523.83C211.287 527.214 212.457 534.15 213.83 538.268C214.597 540.57 217.879 546.147 217.423 548.424C217.188 549.596 204.919 565.178 202.673 567.424C196.602 559.329 192.381 548.427 188.58 538.924C187.392 535.955 184.33 531.306 184.33 528.111C184.33 524.523 188.179 518.409 189.548 514.986C190.703 512.1 191.359 507.613 193.486 505.486ZM272.173 505.861C274.692 505.788 277.214 505.807 279.705 506.143C279.881 506.166 287.58 515.253 288.205 515.955C284.515 519.645 275.201 516.521 271.486 520.236C274.142 522.892 286.411 526.215 290.83 528.424C294.469 530.244 297.454 531.151 297.08 535.643C297.04 536.116 297.348 537.152 296.423 537.268C291.373 537.899 277.811 534.567 274.455 537.924C280.715 542.097 288.044 544.982 293.455 550.393C292.967 551.367 292.385 555.056 291.173 555.299C286.553 556.223 274.892 550.58 271.486 553.986C275.753 556.831 284.314 561.267 286.58 565.799C287.015 566.669 283.966 572.478 282.986 572.674C280.427 573.185 273.687 569.742 271.173 568.736C259.376 564.017 247.553 559.357 235.767 554.643C234.099 553.976 220.403 548.071 220.361 547.424C219.855 539.573 218.681 531.577 220.048 523.83C220.264 522.603 221.449 521.773 222.33 520.893C226.354 516.869 230.66 512.984 235.111 509.424C238.25 506.913 260.552 506.209 264.611 506.143C267.123 506.101 269.655 505.935 272.173 505.861ZM220.705 560.549C226.178 563.286 231.172 567.21 236.423 570.361C246.045 576.134 255.895 581.097 265.923 586.111C271.737 589.018 285.154 592.873 289.205 596.924C286.889 599.24 279.218 598.745 275.767 599.205C265.818 600.532 255.477 602.927 245.923 606.111C243.761 606.832 236.219 610.743 234.142 609.705C231.24 608.254 229.455 605.226 227.267 602.83C217.207 591.812 207.884 573.369 220.705 560.549ZM525.83 375.361C521.284 375.361 514.022 378.57 510.423 381.268C507.834 383.209 504.371 384.499 501.58 386.174C492.28 391.754 483.361 398.59 475.048 405.518C476.537 407.006 493.134 405.303 496.017 403.861C497.349 405.193 494.554 409.444 493.736 411.08C490.499 417.553 487.046 423.804 483.892 430.111C487.205 433.424 500.76 427.322 502.892 429.455C500.533 434.173 498.981 439.843 496.986 444.83C494.616 450.754 491.067 456.221 488.798 461.893C488.125 463.576 491.109 468.123 491.767 469.768C492.815 472.387 494.219 478.764 496.673 480.236C497.892 480.968 503.248 476.326 504.205 475.643C512.424 469.772 521.003 463.469 528.142 456.33C529.883 454.589 532.216 443.18 533.048 440.268C537.195 425.755 541.556 411.137 544.517 396.33C545.426 391.787 547.168 380.454 539.923 378.643C535.547 377.548 530.393 375.361 525.83 375.361ZM364.923 419.924C359.67 419.924 352.613 422.004 347.205 423.549C333.818 427.373 320.22 431.478 307.892 437.643C305.649 435.4 304.876 431.672 302.955 429.111C295.467 436.599 289.998 446.856 283.642 455.33C282.746 456.524 277.762 461.776 278.048 463.205C278.379 464.857 293.279 465.772 295.111 465.83C307.859 466.235 322.397 466.688 335.08 463.518C338.678 462.618 344.654 455.175 346.892 453.049C353.91 446.382 360.129 437.576 367.548 431.393C371.386 428.195 380.539 431.183 384.236 427.486C383.072 425.741 367.396 419.924 364.923 419.924ZM340.017 441.893C342.231 448.535 325.664 457.643 319.361 457.643C313.336 457.643 297.16 458.844 306.58 449.424C310.488 451.378 316.148 455.262 320.33 451.08C321.096 450.313 324.589 443.989 325.58 443.549C329.522 441.797 335.829 441.893 340.017 441.893ZM400.486 436.174C400.014 436.206 399.617 436.355 399.33 436.643C401.822 441.627 399.737 447.789 399.642 453.361C399.556 458.444 395.441 461.991 392.455 465.83C385.264 475.075 377.666 483.998 369.83 492.705C370.157 493.197 370.158 493.182 370.486 493.674C382.135 487.849 394.171 483.159 405.892 477.299C409.402 475.544 416.522 474.366 418.986 471.08C419.6 470.262 423.683 450.663 423.58 450.424C422.348 447.55 415.785 444.172 413.08 442.549C410.98 441.289 403.793 435.948 400.486 436.174Z" fill="#ffffff" fill-rule="nonzero" opacity="1" stroke="none"/>
</g>
</svg>
