<?xml version="1.0" encoding="UTF-8" standalone="no"?>
<!DOCTYPE svg PUBLIC "-//W3C//DTD SVG 1.1//EN" "http://www.w3.org/Graphics/SVG/1.1/DTD/svg11.dtd">
<!-- Created with Vectornator (http://vectornator.io/) -->
<svg height="100%" stroke-miterlimit="10" style="fill-rule:nonzero;clip-rule:evenodd;stroke-linecap:round;stroke-linejoin:round;" version="1.1" viewBox="0 0 903 572" width="100%" xml:space="preserve" xmlns="http://www.w3.org/2000/svg" xmlns:vectornator="http://vectornator.io" xmlns:xlink="http://www.w3.org/1999/xlink">
<defs/>
<g id="Layer-1" vectornator:layerName="Layer 1">
<path d="M450.375 0.03125C390.532 0.120126 330.721 0.399473 271.188 0.84375C270.77 0.846868 270.311 1.3333 270.281 1.75C270.008 5.58046 270.335 9.41016 270.281 13.25C270.188 19.8975 269.993 26.541 269.844 33.1875C269.403 52.8163 269.349 72.5086 268.531 92.125C268.518 92.4375 268.14 94.7439 267.188 94.7812C239.805 95.8551 212.19 95.2903 184.781 95.6875C172.815 95.8609 160.577 94.055 148.875 96.5625C148.022 96.7453 140.999 111.47 140.031 113.406C131.465 130.54 122.879 147.679 114.312 164.812C86.6213 220.195 59.7681 274.776 32.3438 329.625C24.5156 345.281 16.7031 360.937 8.875 376.594C6.72671 380.89 4.76837e-07 389.613 0 394.312C0 395.033 0.426956 396.094 1.34375 396.094C11.9792 396.094 22.5833 395.656 33.2188 395.656C62.0208 395.656 90.8234 395.946 119.625 396.094C169.253 396.348 218.914 395.959 268.531 397C269.939 397.03 269.408 399.898 269.406 400.094C269.264 419.59 269.247 439.067 268.969 458.562C268.952 459.753 268.181 460.987 268.531 462.125C269.363 464.829 275.984 467.403 278.281 468.781C287.144 474.099 295.983 479.402 304.844 484.719C339.554 505.545 374.26 526.362 408.969 547.188C419.309 553.391 429.662 559.609 440 565.812C441.779 566.88 447.768 571.959 449.75 571.562C452.941 570.924 457.113 567.07 459.938 565.375C469.08 559.89 478.261 554.456 487.406 548.969C520.572 529.07 553.957 509.494 587.125 489.594C597.746 483.221 608.377 476.905 619 470.531C620.997 469.333 629.111 466.197 629.656 463.906C630.238 461.464 629.64 458.886 629.656 456.375C629.787 436.731 629.657 417.077 630.094 397.438C630.103 397.02 630.595 396.718 630.969 396.531C631.233 396.399 631.58 396.531 631.875 396.531C639.851 396.531 647.805 396.501 655.781 396.531C686.946 396.649 718.118 397.291 749.281 397C750.317 396.99 757.977 381.359 759.031 379.25C768.069 361.174 777.457 343.274 786.5 325.188C824.663 248.862 864.426 173.336 902.594 97C902.298 96.7046 902.136 96.1383 901.719 96.125C892.714 95.8391 883.697 96.1765 874.688 96.125C857.849 96.0288 840.994 95.8358 824.156 95.6875C774.824 95.2529 725.519 94.8005 676.188 94.3438C661.27 94.2056 646.325 93.9062 631.406 93.9062C631.076 93.9062 630.827 94.1961 630.531 94.3438C627.287 91.0994 629.626 85.2131 629.656 80.625C629.776 62.3099 629.889 43.9706 630.094 25.6562C630.185 17.5319 630.674 9.40488 630.531 1.28125C630.524 0.863554 630.074 0.408751 629.656 0.40625C570.091 0.0495719 510.218-0.0576258 450.375 0.03125ZM321.469 12.6875C361.131 12.8792 400.82 13.8743 440.438 14.1562C499.049 14.5734 557.744 14.0209 616.344 15.0312C616.761 15.0385 617.232 15.4889 617.25 15.9062C618.37 41.2878 617.937 66.7195 618.125 92.125C618.157 96.4082 617.849 100.694 618.125 104.969C618.152 105.386 618.582 105.869 619 105.875C688.709 106.834 758.441 106.565 828.156 106.75C845.88 106.797 863.622 106.459 881.344 106.75C881.762 106.757 881.923 107.33 882.219 107.625C847.267 177.528 812.139 247.315 777.188 317.219C768.687 334.219 760.008 351.171 751.5 368.188C750.513 370.161 743.663 384.424 742.625 384.562C738.669 385.09 734.678 385.017 730.688 385.031C694.058 385.164 657.41 384.738 620.781 385.031C618.377 385.05 619.561 389.722 619.469 392.125C619.032 403.493 618.854 414.846 618.562 426.219C618.305 436.26 619.63 446.444 618.125 456.375C617.844 458.227 609.999 461.588 608.375 462.562C597.859 468.872 587.42 475.317 576.906 481.625C547.018 499.558 517.296 517.754 487.406 535.688C476.925 541.976 459.392 549.515 451.062 557.844C435.025 549.825 419.467 540.036 404.094 530.812C376.923 514.51 348.861 499.679 321.688 483.375C311.024 476.977 300.009 471.18 289.344 464.781C287.897 463.913 279.199 460.21 279.156 458.562C278.869 447.341 279.012 436.131 279.156 424.906C279.164 424.297 279.594 423.734 279.594 423.125C279.594 410.866 279.882 398.6 279.594 386.344C279.584 385.926 279.136 385.48 278.719 385.469C224.27 384.023 169.684 384.551 115.219 384.125C96.4608 383.978 77.6959 383.774 58.9375 383.688C45.4969 383.626 32.0627 383.976 18.625 383.688C18.2073 383.679 18.0142 383.108 17.7188 382.812C52.5216 313.207 87.5458 244.033 122.281 174.562C130.65 157.826 139.131 141.331 147.562 124.469C148.44 122.714 155.537 108.572 155.969 108.531C183.95 105.908 212.983 107.536 241.062 107.188C253.026 107.039 264.974 106.891 276.938 106.75C277.528 106.743 278.158 106.937 278.719 106.75C282.386 105.528 279.955 99.0837 280.031 95.2188C280.482 72.4754 280.725 49.7468 280.938 27C280.979 22.5692 280.661 18.1099 280.938 13.6875C280.964 13.2706 281.395 12.8178 281.812 12.8125C295.017 12.6454 308.248 12.6236 321.469 12.6875ZM541.812 33.2812C489.855 33.2833 437.862 34.2231 385.938 34.5312C361.124 34.6785 336.313 34.7005 311.5 34.9688C308.659 34.9995 303.256 33.4761 303.094 36.3125C301.375 66.3947 303.147 96.5607 302.625 126.688C302.586 128.922 298.235 127.567 296 127.594C285.513 127.719 275.018 127.909 264.531 128.031C236.764 128.354 208.983 128.401 181.219 128.906C177.819 128.968 174.392 128.827 171.031 129.344C170.048 129.495 160.336 149.39 159.062 151.938C156.069 157.924 153.099 163.963 150.125 170C141.754 186.994 133.444 204.111 124.969 221.062C123.187 224.626 113.436 244.154 112.094 246.781C110.551 249.19 104.686 259.162 103.688 263.156C102.113 269.453 97.7547 275.897 94.8125 281.781C88.6091 294.188 82.4222 306.593 76.2188 319C71.3446 328.748 66.4679 338.502 61.5938 348.25C60.8596 349.718 53.3384 362.863 55.8438 362.875C137.374 363.263 218.909 361.838 300.438 362.438C304.436 362.467 301.279 370.376 301.312 374.375C301.51 397.713 300.501 421.129 302.188 444.406C302.321 446.242 309.129 449.259 310.625 450.156C319.137 455.264 327.799 460.11 336.312 465.219C362.486 480.923 389.016 496.047 415.188 511.75C423.878 516.964 432.655 522.037 441.344 527.25C443.788 528.716 447.459 532.017 450.188 532.562C451.78 532.881 456.314 528.999 457.719 528.156C464.647 523.999 471.633 519.908 478.562 515.75C507.19 498.573 535.872 481.52 564.5 464.344C572.623 459.47 580.751 454.593 588.875 449.719C589.904 449.101 596.809 445.912 596.844 444.844C597.752 416.692 596.1 392.758 596.406 364.625C596.411 364.207 596.895 363.764 597.312 363.75C641.413 362.304 685.696 364.758 729.781 362.438C731.636 362.34 735.572 351.762 736.438 350.031C743.084 336.738 749.729 323.418 756.375 310.125C778.785 265.305 800.635 222.042 823.281 176.75C829.042 165.229 834.802 153.708 840.562 142.188C841.647 140.019 846.76 132.925 846.312 130.688C846.208 130.165 845.97 129.347 845.438 129.344C762.431 128.902 679.413 129.638 596.406 129.344C594.9 129.338 595.543 126.412 595.531 124.906C595.393 107.182 595.268 89.4738 595.094 71.75C594.972 59.3429 595.089 46.9314 594.656 34.5312C594.642 34.1137 594.168 33.6627 593.75 33.6562C576.442 33.3879 559.132 33.2806 541.812 33.2812ZM516.688 82.3438C517.813 82.3436 518.572 82.3998 519.062 82.5312C519.536 82.6581 519.934 82.9696 520.031 83.4688C520.101 83.8252 520.125 84.3136 520.125 85.0312C520.125 89.4122 520.125 98.1504 520.125 102.531C520.137 105.517 520.203 107.74 520.281 109.594L520.281 110.031L520.719 110.031C521.248 110.031 521.796 110.031 522.156 110.031C522.231 110.031 522.326 110.031 522.438 110.031C522.484 110.127 522.561 110.214 522.594 110.281L522.594 110.312C522.784 110.728 522.875 111.177 522.875 111.656C522.875 112.084 522.781 112.466 522.469 112.75C522.152 113.038 521.792 113.094 521.312 113.094C519.229 113.094 515.052 113.094 512.969 113.094C512.894 113.094 512.768 113.094 512.656 113.094C512.614 112.987 512.591 112.883 512.562 112.812C512.363 112.321 512.25 111.833 512.25 111.375C512.25 111.001 512.35 110.637 512.625 110.375C512.903 110.109 513.273 110.031 513.688 110.031C513.851 110.031 514.101 110.031 514.344 110.031L514.781 110.031L514.781 109.594C514.873 107.63 514.937 104.871 514.938 100.656C514.938 94.7552 514.93 90.9713 514.875 89.375C514.82 87.7691 514.715 86.7465 514.594 86.3438C514.531 86.1343 514.46 85.9873 514.375 85.875C514.296 85.7711 514.164 85.6846 514.031 85.6562C513.787 85.5661 513.459 85.5313 512.969 85.5312C512.894 85.5312 512.768 85.5312 512.656 85.5312C512.612 85.4308 512.593 85.321 512.562 85.25C512.361 84.7682 512.25 84.2639 512.25 83.7812C512.25 83.5164 512.317 83.2385 512.469 83C512.618 82.7654 512.842 82.6104 513.094 82.5312C513.61 82.3692 514.711 82.3438 516.688 82.3438ZM427 83.2812C427.796 83.2812 428.414 83.3136 428.875 83.3438C429.1 83.3584 429.297 83.3787 429.469 83.4062C429.662 83.4372 429.693 83.4278 429.875 83.5312C429.996 83.5998 430.055 83.6467 430.062 83.6562C430.075 83.6723 430.057 83.6385 430.125 83.75C430.174 83.8309 430.19 83.8778 430.219 83.9375C430.286 84.078 430.363 84.3002 430.469 84.5625C430.677 85.0772 430.958 85.8045 431.312 86.7812C432.021 88.7363 433.038 91.6253 434.344 95.4688C436.854 102.86 438.47 107.442 439.406 109.75L439.531 110.031L439.844 110.031C440.281 110.031 440.761 110.031 441.062 110.031C441.137 110.031 441.232 110.031 441.344 110.031C441.386 110.138 441.44 110.242 441.469 110.312C441.655 110.778 441.75 111.236 441.75 111.688C441.75 112.087 441.662 112.463 441.375 112.75C441.096 113.029 440.745 113.094 440.344 113.094C438.172 113.094 433.828 113.094 431.656 113.094C431.578 113.094 431.461 113.094 431.344 113.094C431.305 112.988 431.276 112.883 431.25 112.812C431.053 112.296 430.938 111.787 430.938 111.312C430.937 110.951 431.009 110.59 431.281 110.344C431.54 110.11 431.891 110.038 432.281 110.031L432.844 110.031L432.719 109.469C432.43 108.289 431.973 106.601 431.219 104.094L431.125 103.781L430.781 103.781C428.498 103.781 425.013 103.781 422.719 103.781L422.375 103.781L422.281 104.125C421.6 106.616 421.197 108.318 420.969 109.5L420.844 110.031L421.406 110.031C421.696 110.031 421.992 110.031 422.188 110.031C422.265 110.031 422.383 110.031 422.5 110.031C422.543 110.138 422.597 110.242 422.625 110.312C422.809 110.772 422.906 111.227 422.906 111.688C422.906 112.088 422.85 112.463 422.562 112.75C422.286 113.026 421.902 113.094 421.5 113.094C419.572 113.094 415.74 113.094 413.812 113.094C413.735 113.094 413.617 113.094 413.5 113.094C413.459 112.976 413.402 112.86 413.375 112.781C413.193 112.265 413.094 111.777 413.094 111.312C413.094 110.951 413.196 110.59 413.469 110.344C413.743 110.096 414.103 110.031 414.5 110.031C414.642 110.031 414.85 110.031 415.062 110.031L415.375 110.031L415.5 109.719C416.426 107.131 417.802 102.909 419.844 96.5625C421.983 89.9131 423.303 86.144 423.844 85.0625C424.43 83.8907 425.556 83.2813 427 83.2812ZM340.688 83.5938C342.953 83.5938 347.485 83.5938 349.75 83.5938C349.824 83.5938 349.951 83.5938 350.062 83.5938C350.109 83.7006 350.156 83.8037 350.188 83.875C350.388 84.3369 350.5 84.8192 350.5 85.2812C350.5 85.6717 350.455 86.0142 350.156 86.3125C349.864 86.6044 349.48 86.6875 349.062 86.6875C348.817 86.6875 348.462 86.6875 348.094 86.6875L347.656 86.6875L347.625 87.125C347.544 89.0802 347.5 91.7673 347.5 95.8125C347.5 103.175 347.54 107.256 347.625 109.062L347.656 109.469L348.094 109.469C348.423 109.469 348.749 109.469 348.969 109.469C353.18 109.469 356.508 108.978 358.969 108.031C359.061 107.996 359.205 107.959 359.344 107.906C359.419 108.033 359.512 108.165 359.562 108.25L359.531 108.25C360.013 109.079 360.281 109.939 360.281 110.844C360.281 111.544 360.016 112.175 359.469 112.562C358.894 112.969 358.027 113.094 356.75 113.094C352.574 113.097 344.207 113.091 340.031 113.094C339.953 113.094 339.836 113.094 339.719 113.094C339.677 112.987 339.654 112.887 339.625 112.812C339.429 112.299 339.312 111.798 339.312 111.312C339.313 110.975 339.381 110.624 339.656 110.375C339.943 110.116 340.298 110.031 340.688 110.031C340.851 110.031 341.101 110.031 341.344 110.031L341.781 110.031L341.812 109.594C341.898 107.445 341.938 103.104 341.938 95.5625C341.938 91.6808 341.872 89.0641 341.781 87.125L341.781 86.6875L341.344 86.6875C340.861 86.6875 340.357 86.6875 340.031 86.6875C339.953 86.6875 339.836 86.6875 339.719 86.6875C339.676 86.5758 339.653 86.4494 339.625 86.375C339.427 85.8584 339.312 85.3796 339.312 84.9062C339.313 84.5579 339.372 84.1944 339.656 83.9375C339.943 83.6784 340.298 83.5938 340.688 83.5938ZM486.031 90.7188C486.879 90.7188 487.553 90.7253 488.031 90.75C488.28 90.7629 488.484 90.7943 488.625 90.8125C488.839 90.8403 488.799 90.8001 489.031 90.9375C489.32 91.1079 489.5 91.4311 489.5 91.75C489.5 92.2526 489.313 92.7886 488.969 93.5C488.791 93.8661 488.61 94.1505 488.406 94.375C488.21 94.5906 487.964 94.7813 487.625 94.7812C487.308 94.7812 487.07 94.7063 486.562 94.5312C486.363 94.4624 486.021 94.3214 485.75 94.2188L484.75 93.8438L485.156 94.8125C485.651 95.9942 485.969 97.2134 485.969 98.4688C485.969 100.928 485.17 102.959 483.562 104.5C481.926 106.069 479.404 106.812 476.094 106.812C475.376 106.813 474.808 106.832 474.375 106.906C473.917 106.985 473.674 107.084 473.531 107.188C473.411 107.275 473.28 107.407 473.188 107.594C473.096 107.778 473.062 107.975 473.062 108.188C473.063 108.442 473.103 108.686 473.219 108.906C473.337 109.131 473.537 109.275 473.719 109.375L473.75 109.406L473.781 109.406C473.796 109.41 474.011 109.476 474.312 109.531C474.617 109.587 475.026 109.647 475.562 109.688C476.617 109.766 478.064 109.781 479.906 109.781C481.743 109.781 483.282 109.9 484.5 110.094C485.718 110.288 486.644 110.56 487.281 111C488.49 111.834 489.094 113.108 489.094 114.688C489.094 117.076 487.77 118.973 485.375 120.312C482.964 121.661 479.383 122.281 474.531 122.281C472.161 122.281 470.489 122.014 469.531 121.25C468.622 120.524 468.156 119.466 468.156 118.219C468.156 117.287 468.403 116.343 468.875 115.406C469.187 114.787 469.634 114.169 470.125 113.562L470.406 113.219L470.031 112.938C469.691 112.69 469.401 112.39 469.156 112.062C468.679 111.423 468.438 110.634 468.438 109.75C468.438 108.814 468.731 107.961 469.312 107.188C469.645 106.745 470.11 106.322 470.656 105.938L471.156 105.594L470.719 105.25C470.273 104.87 469.877 104.409 469.562 103.875C468.955 102.844 468.656 101.559 468.656 100C468.656 97.4503 469.469 95.2853 471.062 93.625C472.682 91.938 475.086 91.1563 478.188 91.1562C479.758 91.1562 481.197 91.4 482.562 91.875L482.75 91.9375L482.906 91.875C483.653 91.5397 484.335 91.2466 484.812 91.0625C485.393 90.8387 485.679 90.7188 486.031 90.7188ZM372.156 91.1562C375.259 91.1562 377.619 91.9539 379.156 93.6875C380.684 95.41 381.406 97.9686 381.406 101.281C381.406 105.06 380.532 108.046 378.719 110.219C376.896 112.404 374.253 113.5 370.906 113.5C367.803 113.5 365.444 112.702 363.906 110.969C362.378 109.246 361.656 106.673 361.656 103.375C361.656 99.5827 362.531 96.5791 364.344 94.4062C366.165 92.2231 368.808 91.1562 372.156 91.1562ZM393.812 91.1562C395.685 91.1563 397.189 91.3076 398.344 91.6875C399.517 92.0733 400.281 92.799 400.281 93.8438C400.281 94.7975 399.871 95.728 399.125 96.5938L399.094 96.5938C399.037 96.6612 398.96 96.7425 398.875 96.8438C398.762 96.7926 398.669 96.7529 398.594 96.7188C395.883 95.4604 393.76 94.875 392.281 94.875C391.255 94.875 390.582 95.0547 390.156 95.375C389.968 95.5169 389.797 95.694 389.688 95.9375C389.579 96.1793 389.531 96.4701 389.531 96.7812C389.531 97.0978 389.589 97.3811 389.719 97.6562C389.849 97.9312 390.035 98.1659 390.281 98.375C390.805 98.8205 392.011 99.4336 393.875 100.125L393.938 100.156C396.29 100.993 398.025 101.855 399.094 102.812C400.206 103.808 400.75 105.203 400.75 106.875C400.75 108.996 399.905 110.7 398.25 111.844C396.605 112.98 394.323 113.5 391.438 113.5C389.253 113.5 387.583 113.357 386.375 113.031C385.747 112.862 385.206 112.593 384.844 112.188C384.482 111.782 384.312 111.235 384.312 110.656C384.312 109.819 384.632 109.05 385.219 108.312C385.279 108.238 385.379 108.112 385.469 108C385.588 108.054 385.699 108.119 385.781 108.156C388.117 109.247 390.283 109.781 392.25 109.781C393.498 109.781 394.33 109.593 394.844 109.25C395.061 109.105 395.27 108.906 395.406 108.625C395.541 108.346 395.594 107.992 395.594 107.594C395.594 107.212 395.518 106.84 395.312 106.5C395.108 106.162 394.819 105.907 394.406 105.656C393.491 105.102 391.994 104.385 389.969 103.594C387.926 102.813 386.476 102.007 385.625 101.062C384.777 100.122 384.375 98.9326 384.375 97.5312C384.375 95.6158 385.191 94.0354 386.812 92.875C388.449 91.7042 390.803 91.1563 393.812 91.1562ZM501.531 91.1562C504.192 91.1563 506.252 91.7822 507.625 93.125C509.011 94.4806 509.625 96.625 509.625 99.5C509.625 100.784 509.423 101.773 508.844 102.406C508.532 102.748 508.099 102.957 507.562 103.094C507.023 103.231 506.375 103.281 505.594 103.281C503.534 103.281 499.808 103.281 497.344 103.281L496.844 103.281L496.906 103.781C497.042 105.472 497.394 106.913 498.094 107.938C498.864 109.066 500.207 109.688 502.375 109.688C504.388 109.687 506.299 109.172 508.031 108.125C508.105 108.081 508.203 108.004 508.312 107.938C508.403 108.028 508.502 108.127 508.562 108.188C509.216 108.841 509.594 109.589 509.594 110.406C509.594 111.666 508.523 112.425 506.938 112.812C505.354 113.199 503.564 113.406 501.594 113.406C497.969 113.406 495.28 112.641 493.594 111C491.904 109.356 491.125 106.672 491.125 103.031C491.125 99.4278 492.004 96.5224 493.844 94.375C495.69 92.2195 498.305 91.1562 501.531 91.1562ZM535.656 91.1562C538.317 91.1563 540.377 91.7822 541.75 93.125C543.137 94.4806 543.781 96.6249 543.781 99.5C543.781 100.784 543.579 101.773 543 102.406C542.688 102.747 542.255 102.957 541.719 103.094C541.179 103.231 540.531 103.281 539.75 103.281C537.69 103.281 533.964 103.281 531.5 103.281L531 103.281L531.031 103.781C531.167 105.472 531.519 106.913 532.219 107.938C532.989 109.065 534.394 109.687 536.562 109.688C538.575 109.688 540.424 109.173 542.156 108.125C542.231 108.079 542.357 108.007 542.469 107.938C542.563 108.029 542.623 108.125 542.688 108.188C543.341 108.841 543.75 109.589 543.75 110.406C543.75 111.666 542.679 112.425 541.094 112.812C539.51 113.199 537.72 113.406 535.75 113.406C532.125 113.406 529.405 112.641 527.719 111C526.029 109.356 525.25 106.672 525.25 103.031C525.25 99.4278 526.16 96.5224 528 94.375C529.847 92.2195 532.43 91.1562 535.656 91.1562ZM556.312 91.1562C558.185 91.1562 559.721 91.3078 560.875 91.6875C562.045 92.0724 562.781 92.7957 562.781 93.8438C562.781 94.8012 562.4 95.7306 561.656 96.5938C561.597 96.6621 561.495 96.7413 561.406 96.8438C561.289 96.7906 561.172 96.7542 561.094 96.7188C558.383 95.4604 556.26 94.875 554.781 94.875C553.755 94.8749 553.082 95.0547 552.656 95.375C552.468 95.517 552.297 95.694 552.188 95.9375C552.079 96.1791 552.031 96.4702 552.031 96.7812C552.031 97.0977 552.089 97.3811 552.219 97.6562C552.348 97.9312 552.535 98.1659 552.781 98.375C553.305 98.8204 554.511 99.4336 556.375 100.125L556.438 100.156C556.442 100.158 556.464 100.155 556.469 100.156C558.821 100.993 560.525 101.855 561.594 102.812C562.705 103.808 563.25 105.203 563.25 106.875C563.25 108.996 562.405 110.7 560.75 111.844C559.105 112.98 556.823 113.5 553.938 113.5C551.753 113.5 550.083 113.357 548.875 113.031C548.247 112.862 547.735 112.595 547.375 112.188C547.014 111.779 546.844 111.229 546.844 110.656C546.844 109.828 547.159 109.056 547.75 108.312C547.807 108.239 547.883 108.111 547.969 108C548.088 108.054 548.199 108.119 548.281 108.156L548.312 108.156C550.648 109.247 552.783 109.781 554.75 109.781C555.999 109.781 556.862 109.592 557.375 109.25C557.59 109.107 557.805 108.907 557.938 108.625C558.069 108.346 558.125 107.994 558.125 107.594C558.125 107.212 558.049 106.84 557.844 106.5C557.639 106.162 557.319 105.907 556.906 105.656C555.991 105.102 554.526 104.385 552.5 103.594L552.469 103.594C550.427 102.814 549.009 102.008 548.156 101.062C547.307 100.12 546.875 98.9292 546.875 97.5312C546.875 95.6181 547.721 94.0365 549.344 92.875C550.98 91.7038 553.303 91.1563 556.312 91.1562ZM457.219 91.25C459.139 91.2501 460.631 91.6934 461.688 92.6562C462.788 93.6592 463.281 95.4481 463.281 97.9062C463.281 101.659 463.292 104.519 463.344 106.5C463.351 106.8 463.366 106.928 463.375 107.188L463.312 107.031L463.5 109.469C463.514 109.662 463.652 109.854 463.844 109.938C464.027 110.017 464.265 110.038 464.625 110.031C464.703 110.029 464.821 110.034 464.938 110.031C464.978 110.138 465.035 110.241 465.062 110.312C465.235 110.767 465.313 111.233 465.312 111.688C465.312 112.141 465.147 112.617 464.719 112.844C464.339 113.045 463.872 113.094 463.188 113.094C461.236 113.094 460.077 113.055 459.594 113C459.106 112.945 458.637 112.76 458.375 112.344C458.131 111.956 458.062 111.523 458.062 110.906C458.062 108.653 458.062 104.129 458.062 101.875C458.062 100.436 457.989 99.2823 457.844 98.375C457.699 97.4703 457.488 96.8267 457.219 96.4062C456.975 96.026 456.68 95.6792 456.25 95.4688C455.821 95.2591 455.301 95.1562 454.688 95.1562C453.621 95.1563 452.698 95.4714 451.938 96.0625C451.255 96.5925 450.844 97.6068 450.844 99.25C450.844 100.353 450.844 102.553 450.844 103.656C450.844 105.81 450.896 107.746 450.969 109.594L451 110.031L451.438 110.031C451.965 110.031 452.517 110.031 452.875 110.031C452.949 110.031 453.045 110.031 453.156 110.031C453.2 110.126 453.252 110.218 453.281 110.281C453.478 110.708 453.594 111.18 453.594 111.656C453.594 112.084 453.5 112.466 453.188 112.75C452.87 113.038 452.48 113.094 452 113.094C449.943 113.094 445.838 113.094 443.781 113.094C443.703 113.094 443.586 113.094 443.469 113.094C443.424 112.988 443.407 112.887 443.375 112.812C443.178 112.328 443.063 111.841 443.062 111.375C443.062 110.991 443.168 110.632 443.438 110.375C443.716 110.11 444.085 110.031 444.5 110.031C444.638 110.031 444.859 110.031 445.062 110.031L445.5 110.031L445.5 109.594C445.588 107.526 445.656 105.197 445.656 102.312C445.656 100.259 445.61 98.6428 445.531 97.4688C445.491 96.8718 445.431 96.3777 445.375 96.0312C445.347 95.8578 445.304 95.7291 445.281 95.625C445.257 95.5132 445.276 95.4608 445.219 95.3438C445.129 95.1613 444.977 94.9558 444.719 94.8125C444.467 94.6727 444.161 94.625 443.781 94.625C443.707 94.625 443.612 94.625 443.5 94.625C443.456 94.5299 443.404 94.4384 443.375 94.375C443.168 93.9285 443.063 93.4502 443.062 92.9688C443.062 92.7128 443.093 92.4548 443.219 92.25C443.349 92.0388 443.589 91.8925 443.812 91.8125C444.139 91.6957 444.556 91.6801 445.531 91.625C446.459 91.5726 447.794 91.5247 449.5 91.4688C449.603 91.4652 449.752 91.4428 449.906 91.4375C449.925 91.5914 449.925 91.7412 449.938 91.8438C449.962 92.0343 449.928 92.4467 449.938 92.8125L449.969 93.5625L450.625 93.1875C451.583 92.6547 452.537 92.2056 453.469 91.9062C454.85 91.4624 456.098 91.25 457.219 91.25ZM737.156 143.719C740.299 143.823 743.512 144.212 746.844 144.969C756.958 147.265 766.311 152.213 776.375 154.719C783.214 156.422 783.368 148.047 788.719 146.469C793.342 145.105 798.343 146.995 803.156 147.25C796.601 159.421 790.473 171.814 783.5 183.75C780.554 188.793 777.49 195.547 771.781 196.781C768.849 197.415 765.78 196.571 762.781 196.469C765.277 188.301 765.254 188.292 767.75 180.125C754.904 179.643 754.909 179.638 742.062 179.156C754.909 178.504 754.904 178.527 767.75 177.875C766.786 176.117 766.628 173.568 764.875 172.594C762.112 171.059 758.619 171.573 755.5 171.062C757.64 168.84 761.511 169.365 764.594 169.25C762.703 166.981 761.265 164.214 758.906 162.438C750.422 156.047 735.541 156.459 726.406 160.844C719.915 163.96 713.779 167.877 708.156 172.375C705.283 174.673 702.746 177.639 701.25 181C698.722 186.679 697.116 192.805 696.312 198.969C695.952 201.734 696.678 204.654 697.844 207.188C700.21 212.331 703.078 217.347 706.75 221.656C709.717 225.137 714.231 226.989 717.469 230.219C723.751 236.485 730.313 242.668 735.219 250.062C738.509 255.021 739.989 260.975 741.656 266.688C743.013 271.338 743.301 278.073 741.844 282.906C737.164 298.423 731.182 312.825 719.438 324.312C713.678 329.946 708.209 336.147 701.312 340.312C694.617 344.356 686.896 346.494 679.344 348.531C674.474 349.845 669.356 350.215 664.312 350.281C653.599 350.422 642.679 348.97 632.531 345.531C627.948 343.978 623.995 339.858 619.156 339.844C614.753 339.831 612.09 345.445 607.875 346.719C603.15 348.146 597.997 346.961 593.062 347.094C599.727 334.266 606.084 321.284 613.062 308.625C614.936 305.226 617.076 301.954 619.594 299C621.316 296.979 623.204 294.784 625.688 293.844C628.256 292.871 631.161 293.652 633.906 293.562C632.242 299.159 628.909 304.506 628.906 310.344C628.904 315.299 631.464 320.063 633.906 324.375C636.658 329.235 645.913 331.928 650.125 332.938C659.215 335.115 663.736 335.179 672.469 331.469C684.447 326.38 695.656 319.821 700.969 307.656C693.541 307.223 685.426 308.377 678.844 304.906C689.874 304.681 703.502 308.603 705.219 294.094C705.599 290.876 704.486 287.626 704.125 284.406C682.405 283.763 682.408 283.768 660.688 283.125C674.059 279.168 688.5 280.821 702.438 280.406C699.529 276.176 698.364 272.269 692.5 271.688C682.996 270.745 673.391 271.14 663.844 270.875C664.298 270.194 664.405 268.931 665.219 268.844C674.549 267.839 683.967 268.097 693.344 267.719C686.387 261.404 678.988 255.516 672.469 248.75C668.95 245.098 666.036 240.911 663.375 236.594C661.693 233.866 661.662 230.144 659.531 227.75C658.306 226.373 656.027 226.407 654.188 226.281C649.401 225.954 644.61 226.364 639.812 226.406C640.191 225.726 640.18 224.555 640.938 224.375C646.279 223.109 652.012 223.822 657.281 222.281C660.555 221.324 660.139 212.803 660.219 211.906C641.757 211.819 622.91 214.039 604.875 210.094C618.279 209.843 631.728 210.382 645.094 209.344C650.132 208.952 656.078 209.182 659.844 205.812C664.701 201.465 664.589 193.48 668.562 188.312C676.868 177.511 686.4 167.628 696.344 158.312C700.178 154.721 704.801 151.924 709.625 149.844C718.942 145.826 727.729 143.406 737.156 143.719ZM619.969 144.656C621.915 144.73 623.856 144.909 625.781 145.219C636.105 146.882 645.465 153.04 655.875 154.031C660.133 154.437 663.576 149.999 667.781 149.219C672.298 148.381 676.968 149.262 681.562 149.281C673.244 165.767 667.865 184.124 656.594 198.75C653.916 202.224 647.824 198.75 643.438 198.75C644.118 192.625 644.132 192.625 644.812 186.5C621.842 185.99 621.845 185.979 598.875 185.469C613.754 181.822 629.493 184.154 644.812 184.219C644.411 181.383 644.545 178.42 643.594 175.719C643.06 174.204 642.078 172.296 640.5 172C631.778 170.365 622.79 170.777 613.938 170.156C621.957 166.522 631.449 168.117 640.25 167.875C638.662 166.06 637.519 163.756 635.5 162.438C633.656 161.233 631.34 160.906 629.156 160.625C611.46 158.35 595.644 169.726 584.625 182.344C572.385 196.359 563.426 209.24 553.812 225.5C547.855 235.576 542.339 245.895 537.125 256.375C531.289 268.107 525.163 279.949 521.844 292.625C520.383 298.206 519.388 303.899 518.688 309.625C518.018 315.097 517.764 325.108 521.094 330.219C522.708 332.696 525.566 334.163 528.188 335.531C535.728 339.468 544.305 337.051 549.812 330.594C555.109 324.384 559.004 317.093 563.594 310.344C556.882 310.082 548.823 311.878 543.625 307.625C550.072 307.285 556.612 307.749 562.969 306.625C567.105 305.893 569.112 299.296 570.375 296.75C558.556 296.509 546.174 298.327 535 294.469C543.881 294.313 552.808 294.777 561.656 294C564.901 293.715 568.044 292.612 571.031 291.312C575.496 289.37 577.263 282.936 579 279.5C574.705 279.251 569.586 280.01 566.312 277.219C570.743 277.179 576.676 278.814 579.469 275.375C582.746 271.34 584.616 266.331 587.188 261.812C574.28 261.174 561.34 261.07 548.469 259.906C547.782 259.844 547.676 258.753 547.281 258.188C560.711 257.939 574.187 258.672 587.562 257.438C589.535 257.255 588.763 252.299 586.938 251.531C583.879 250.244 580.439 250.224 577.188 249.562C578.312 247.151 578.323 243.75 580.562 242.312C584.208 239.973 588.892 239.483 593.219 239.281C611.911 238.411 630.632 239.179 649.344 239.125C648.556 240.969 646.424 248.778 642.906 250.25C637.72 252.42 630.543 252.645 627.656 257.469C616.732 275.725 608.528 295.494 597.5 313.688C593.973 319.506 589.095 324.476 584.188 329.188C579.107 334.065 573.958 339.2 567.656 342.344C558.977 346.674 549.408 349.018 539.969 351.25C536.274 352.124 532.266 352.432 528.562 351.594C519.908 349.634 511.266 347.088 503.406 342.969C498.96 340.638 496.955 334.749 492.406 332.625C488.115 330.621 482.994 331.69 478.281 331.219C481.399 328.101 487.029 329.789 491.438 329.875C490.008 327.254 488.73 322.998 485.031 322.312C478.953 321.186 470.34 324.448 466.719 319.438C476.361 319.211 476.358 319.196 486 318.969C485.315 315.3 486.431 310.746 483.938 307.969C481.384 305.125 476.644 305.652 473 304.5C474.5 304.24 482.395 304.523 483.562 300.719C486.251 291.955 487.284 282.715 490.125 274C500.252 242.931 517.837 215.402 535.781 188.438C532.435 187.005 532.44 187.026 529.094 185.594C532.327 185.121 535.875 185.587 538.812 184.156C542.038 182.585 544.116 179.37 546.781 176.969C542.466 176.596 536.938 177.516 534.094 174.25C538.971 173.777 544.293 174.918 548.719 172.812C563.835 165.622 575.726 151.529 591.875 147.125C595.298 146.192 598.833 145.636 602.375 145.438C608.215 145.11 614.131 144.435 619.969 144.656ZM254.594 147.906C252.836 151.215 252.246 155.513 249.312 157.844C246.432 160.133 241.911 158.938 238.625 160.594C236.289 161.771 234.208 163.743 233 166.062C219.649 191.707 207.771 218.111 195.156 244.125C207.861 231.42 207.858 231.392 220.562 218.688C216.705 217.861 217.626 219.068 216.938 215.969C220 214.759 223.579 214.433 226.125 212.344C235.531 204.626 243.578 195.407 252.312 186.938C242.557 186.484 242.568 186.485 232.812 186.031C232.991 185.55 232.837 184.675 233.344 184.594C240.887 183.384 248.755 184.175 256.156 182.281C258.47 181.689 259.657 179.032 261.406 177.406C258.004 177.149 252.965 178.192 251.406 175.156C255.566 174.703 260.06 175.5 263.875 173.781C269.422 171.283 274.168 166.218 276.562 160.625C272.387 159.71 272.363 159.727 268.188 158.812C269.337 156.684 269.533 153.597 271.656 152.438C276.088 150.018 281.346 149.327 286.375 148.875C298.12 147.819 309.962 148.228 321.75 147.906C319.822 151.101 319.091 155.456 315.969 157.5C311.127 160.671 304.167 159.394 299.344 162.594C290.866 168.218 284.196 176.152 277 183.344C250.144 210.183 231.966 234.45 230.656 273.625C230.03 292.364 230.278 311.139 231 329.875C231.193 334.874 236.764 336.054 240.062 337.812C238.638 339.782 238.058 342.867 235.781 343.719C230.488 345.699 224.619 345.569 218.969 345.719C204.685 346.097 190.382 345.418 176.094 345.281C177.644 342.256 178.083 338.326 180.75 336.219C183.636 333.939 188.406 335.39 191.375 333.219C194.303 331.078 196.204 327.579 197.312 324.125C197.697 322.929 196.497 321.324 195.312 320.906C190.469 319.198 185.235 319.008 180.188 318.062C185.216 317.363 190.571 317.939 195.25 315.969C197.863 314.869 198.442 307.093 195.125 306.031C188.605 303.945 181.515 304.385 174.719 303.562C181.504 300.17 189.82 301.838 197.406 301.75C196.952 283.147 196.954 283.134 196.5 264.531C188.89 272.054 180.196 278.6 173.688 287.094C166.926 295.918 161.951 306.015 157.062 316C154.688 320.85 152.569 326.036 152 331.406C151.833 332.981 153.586 334.461 155.062 335.031C158.4 336.319 162.121 336.139 165.656 336.688C164.549 338.577 164.395 341.575 162.344 342.344C155.605 344.871 148.217 345.521 141.031 345.906C124.153 346.811 107.245 346.088 90.3438 346.188C91.9129 343.106 92.2194 338.982 95.0312 336.969C98.4327 334.534 108.679 336.353 111.812 330.969C118.568 319.361 123.816 306.955 129.812 294.938C120.676 294.35 110.386 296.118 102.594 291.312C108.728 291.407 114.922 292.423 121 291.594C135.115 289.667 138.477 276.845 143.875 265.875C137.629 265.782 129.041 268.614 125.281 263.625C131.388 263.058 137.635 263.358 143.594 261.906C147.908 260.855 150.009 251.454 151.094 249.219C146.197 249.091 127.686 247.449 118.719 247.719C114.266 247.853 114.058 245.69 116.281 244.938C119.437 243.87 132.919 245.193 143.156 245.062C154.202 244.922 154.204 243.975 158.438 234.625C162.15 226.425 166.585 218.559 170.656 210.531C161.35 210.443 151.279 212.396 142.812 208.531C151.755 207.595 160.909 207.927 169.625 205.719C172.286 205.044 174.169 202.453 175.719 200.188C178.207 196.55 179.594 192.271 181.531 188.312C165.65 187.405 165.662 187.407 149.781 186.5C159.745 185.782 169.797 185.949 179.656 184.344C185.624 183.372 187.09 177.166 189.25 172.875C176.825 172.764 163.675 174.929 152.031 170.594C161.319 170.494 170.641 170.955 179.906 170.312C183.576 170.058 187.541 169.843 190.688 167.938C193.019 166.526 193.667 163.345 195.156 161.062C189.258 159.928 189.242 159.947 183.344 158.812C185.23 156.307 186.126 152.535 189 151.281C194.504 148.88 200.815 148.871 206.812 148.562C222.716 147.744 238.67 148.124 254.594 147.906ZM364.406 147.906C376.428 147.653 388.445 147.906 400.469 147.906C398.778 150.958 398.118 154.867 395.406 157.062C391.436 160.277 385.6 160.427 381.406 163.344C379.384 164.75 378.555 167.367 377.438 169.562C354.085 215.436 330.954 261.441 308.031 307.531C304.328 314.976 300.356 322.324 297.562 330.156C296.132 334.167 303.298 334.409 308.594 335.781C306.208 341.1 307.046 342.395 301.094 344.062C297.75 344.999 294.28 345.576 290.812 345.75C273.914 346.596 256.976 346.642 240.062 347.094C241.688 343.993 242.381 340.204 244.938 337.812C247.363 335.543 251.212 335.534 254.125 333.938C259.202 331.155 260.748 324.443 263.656 319.438C260.359 318.854 256.045 318.993 254.125 316.25C268.963 316.616 269.663 307.276 275.5 294.656C270.154 294.601 263.938 295.773 259.594 292.656C263.225 292.323 267.002 292.787 270.469 291.656C277.436 289.384 282.155 281.517 285.344 275.875C289.51 268.504 292.971 260.749 296.781 253.188C283.15 252.947 268.988 254.849 255.938 250.906C266.099 250.684 276.308 251.089 286.438 250.25C290.468 249.916 294.811 249.585 298.219 247.406C300.816 245.746 301.49 242.176 303.125 239.562C292.888 239.331 282.642 239.725 272.438 238.875C271.501 238.797 271.121 237.52 270.469 236.844C282.752 236.938 300.282 240.208 308.938 228.125C311.882 224.015 313.537 219.124 315.844 214.625C299.938 214.043 283.497 215.79 268.188 211.438C279.365 211.398 290.548 211.676 301.719 211.312C316.941 210.817 321.475 202.997 327.625 190.562C319.718 190.165 311.063 191.481 304.031 187.844C308.994 187.816 313.995 188.204 318.938 187.75C330.242 186.712 332.524 180.345 337.156 171.062C328.535 170.703 319.925 170.5 311.312 169.969C309.785 169.875 307.67 169.338 307.219 167.875C317.079 167.744 326.971 168.133 336.812 167.5C340.149 167.285 338.847 163.642 338.75 162C332.965 160.866 332.973 160.853 327.188 159.719C328.585 157.3 329.027 153.982 331.375 152.469C334.933 150.175 339.432 149.702 343.625 149.125C350.493 148.18 357.475 148.052 364.406 147.906ZM442.469 147.906C448.963 147.906 455.445 147.958 461.938 147.906C462.391 208.026 462.39 208.036 462.844 268.156C476.002 242.52 475.998 242.511 489.156 216.875C484.11 216.737 478.215 217.668 474.188 214.625C478.692 214.438 486.683 215.532 490.25 210.812C495.849 203.404 499.811 194.897 504.594 186.938C498.168 186.514 490.632 187.682 485.531 183.75C491.713 183.429 497.997 183.884 504.094 182.812C508.284 182.076 510.178 175.423 511.406 172.875C499.721 172.432 487.309 174.072 476.469 169.688C494.803 169.454 494.791 169.452 513.125 169.219C513.054 165.823 513.071 165.834 513 162.438C506.988 160.623 506.981 160.627 500.969 158.812C503.134 154.751 503.472 151.646 508.469 150.562C513.965 149.371 519.569 148.747 525.188 148.5C536.307 148.011 547.463 148.414 558.594 148.375C556.571 151.627 555.649 155.901 552.531 158.125C546.045 162.753 538.132 159.166 534.062 166.875C510.42 211.657 488.563 257.327 465.25 302.281C460.694 311.067 455.82 319.737 450.469 328.062C446.827 333.728 442.765 339.134 438.312 344.188C437.361 345.268 435.925 345.983 434.5 346.188C431.132 346.672 427.684 346.188 424.281 346.188C424.281 336.205 424.281 336.232 424.281 326.25C403.409 326.477 403.403 326.461 382.531 326.688C395.708 322.126 410.34 324.233 424.281 323.969C424.281 317.843 424.281 317.844 424.281 311.719C420.154 311.629 415.179 312.577 412.031 309.906C413.769 309.822 421.032 310.638 422.75 307.469C423.972 305.215 425.751 298.621 422.062 296.5C412.233 290.848 397.954 292.546 388 292.219C399.52 288.468 412.167 290.494 424.281 290.406C424.281 273.391 424.281 273.39 424.281 256.375C410.442 256.148 410.433 256.133 396.594 255.906C404.799 251.62 415.025 253.735 424.281 253.625C424.281 248.18 424.281 248.195 424.281 242.75C414.072 242.296 414.084 242.297 403.875 241.844C410.04 238.924 417.46 240.401 424.281 240.469C424.036 235.553 424.183 230.632 423.562 225.75C423.202 222.914 420.238 223.487 418.375 223.25C419.53 221.548 422.226 221.534 424.281 221.438C423.828 206.237 423.829 206.231 423.375 191.031C400.4 236.291 377.153 281.406 354.469 326.812C350.436 334.885 362.321 335.534 366.219 336.219C364.291 341.356 365.079 342.814 359.156 344.438C355.658 345.397 352.03 345.862 348.406 346.031C336.205 346.601 323.963 346.444 311.75 346.656C313.128 343.913 313.352 340.14 315.906 338.438C318.951 336.407 323.326 338.059 326.719 336.688C329.45 335.583 332.037 333.659 333.688 331.219C339.098 323.221 342.957 314.282 347.594 305.812C337.737 305.546 327.391 306.932 318.125 303.562C329.612 303.328 345.362 305.721 353.219 294.469C356.028 290.445 357.633 285.694 359.844 281.312C349.226 280.891 337.598 283.346 328.094 278.594C336.228 278.187 344.472 278.749 352.5 277.375C356.303 276.724 360.306 275.357 363.031 272.625C366.55 269.098 367.866 263.889 370.281 259.531C365.14 259.274 358.254 260.876 355.094 256.812C358.983 256.795 362.891 257.231 366.75 256.75C371.508 256.157 375.715 248.431 377.094 246.062C380.175 240.769 382.53 235.082 385.25 229.594C374.929 229.33 363.691 231.392 354.406 226.875C362.73 226.657 371.162 227.588 379.375 226.219C383.17 225.586 386.907 223.659 389.688 221C392.003 218.786 392.471 215.223 393.875 212.344C386.714 212.083 377.86 214.451 372.562 209.625C377.084 209.67 381.647 210.376 386.125 209.75C399.246 207.915 403.621 192.601 408.406 182.844C398.263 182.91 387.598 184.78 378 181.5C385.671 181.155 393.433 181.576 401.031 180.469C404.557 179.955 408.286 178.959 411.031 176.688C413.485 174.657 414.107 171.127 415.656 168.344C410.629 168.254 404.772 169.463 400.688 166.531C409.132 165.528 409.15 165.534 417.594 164.531C417.192 163.319 417.451 161.564 416.375 160.875C413.906 159.295 410.745 159.185 407.938 158.344C411.266 151.083 414.324 148.564 423 148.219C429.488 147.96 435.975 147.906 442.469 147.906ZM452.219 360.906C453.083 360.94 453.886 360.995 454.625 361.094C457.114 361.426 459.334 361.054 461.719 361.531C468.39 362.866 463.259 369.494 463.031 372.156C462.575 377.472 460.602 384.352 464.375 388.125C468.998 385.814 469.097 390.444 472.812 390.781C477.656 391.222 476.844 387.644 480.781 387.25C484.634 386.865 486.528 388.742 487 391.219C488.258 391.223 490.56 391.659 492.094 392.625C492.988 390.924 494.007 389.481 495.844 388.562C501.66 390.492 503.028 393.845 502.031 396.375C503.916 397.5 505.845 398.667 507.312 400.281C511.226 395.957 520.624 401.017 516.219 407.625C517.16 408.7 525.331 414.811 525.5 416.5C526.082 422.32 521.307 422.221 523.312 428.906C523.764 430.41 526.264 430.874 526.406 432.438C526.646 435.079 524.523 442.929 520.656 439.062C517.018 440.881 516.602 436.82 514.438 434.656C514.459 434.635 514.45 434.613 514.469 434.594C513.129 435.007 511.458 435.209 510.375 434.906C510.406 434.97 510.437 435.03 510.469 435.094C506.659 438.904 508.198 444.074 506.031 448.406C509.621 451.996 516.174 444.889 518.875 442.188C520.135 442.817 519.536 442.38 520.656 443.5C518.773 447.266 523.326 451.041 520.656 454.156C517.139 458.259 506.151 457.16 505.125 464.344C503.997 472.239 505.41 480.279 505.125 488.25C505.11 488.667 504.668 489.153 504.25 489.156C469.542 489.449 434.833 489.449 400.125 489.156C399.707 489.153 399.265 488.667 399.25 488.25C398.966 480.575 399.933 472.869 399.25 465.219C399.166 464.277 397.717 464.089 397.031 463.438C394.76 461.28 392.999 458.524 390.375 456.812C389.385 456.167 387.988 456.93 386.812 456.812C380.66 456.197 383.813 450.338 384.156 447.938C384.698 444.144 381.839 443.554 384.312 441.812C382.874 441.165 381.211 439.97 380.094 438.938C379.987 438.981 379.835 439.02 379.75 439.062C375.177 434.489 377.965 432.696 381.062 428.438C381.788 427.439 381.882 425.279 382.281 423.75C382.163 423.85 382.064 423.905 381.938 424.031C371.427 418.776 386.874 412.209 387.719 406.719C388.365 402.515 386.799 401.729 389.938 399.219C393.099 396.689 396.789 400.236 401.5 396.344C400.784 395.64 400.317 394.719 400.562 393C401.411 387.062 409.213 387.685 411.531 391.969C413.697 391.202 416.147 392.041 417.844 390.344C417.92 390.42 417.935 390.541 418 390.625C419.152 381.455 427.531 392.394 431.562 390.781C433.02 390.198 433.721 388.39 435.125 387.688C436.419 387.04 440.06 389.012 440.438 387.25C441.148 383.932 442.459 376.409 441.344 373.062C440.933 371.831 438.832 371.083 438.656 369.5C437.854 362.28 446.173 360.674 452.219 360.906ZM426.562 89.5938L426.156 90.875C426.066 91.1543 425.987 91.3 425.875 91.6562C425.323 93.4159 424.493 96.2981 423.531 99.5938L423.344 100.156L423.969 100.156C425.674 100.156 427.66 100.156 429.375 100.156L430 100.156L429.812 99.5625C428.775 96.2778 427.873 93.4137 427.281 91.6562C427.157 91.2879 427.096 91.1526 427 90.875L426.562 89.5938ZM477.25 94.4375C476.01 94.4375 475.156 94.7892 474.625 95.4062C474.103 96.0134 473.781 97.2264 473.781 99.1562C473.781 100.789 474.072 101.886 474.594 102.531C475.105 103.163 475.951 103.5 477.188 103.5C478.53 103.5 479.416 103.194 479.969 102.625C480.244 102.341 480.474 101.895 480.625 101.312C480.777 100.726 480.844 99.9847 480.844 99.0312C480.844 97.3946 480.52 96.2521 479.938 95.5312C479.368 94.827 478.507 94.4375 477.25 94.4375ZM371.344 94.875C370.621 94.875 370.014 94.9826 369.5 95.25C368.985 95.5182 368.581 95.9317 368.281 96.4375C367.637 97.5247 367.281 99.272 367.281 101.75C367.281 104.579 367.635 106.647 368.312 107.938C368.627 108.536 369.053 109.029 369.625 109.344C370.195 109.657 370.875 109.781 371.688 109.781C372.412 109.781 373.046 109.673 373.562 109.406C374.081 109.138 374.481 108.725 374.781 108.219C375.425 107.133 375.781 105.372 375.781 102.906C375.781 100.063 375.395 98.0071 374.719 96.7188C374.404 96.1201 373.978 95.627 373.406 95.3125C372.836 94.999 372.156 94.8749 371.344 94.875ZM500.719 94.875C499.448 94.875 498.539 95.286 497.906 96.1562C497.362 96.9053 497.058 98.1288 496.906 99.625L496.875 100.125L497.375 100.125C497.801 100.125 498.216 100.125 498.5 100.125C500.783 100.125 502.336 100.086 503.125 100C503.517 99.9572 503.831 99.9064 504.031 99.8438L504.25 99.75L504.312 99.5312C504.335 99.4514 504.375 99.2695 504.375 98.8125C504.375 97.5029 504.039 96.5491 503.438 95.875C502.846 95.2126 501.966 94.875 500.719 94.875ZM534.875 94.875C533.605 94.875 532.695 95.286 532.062 96.1562C531.518 96.9053 531.215 98.1288 531.062 99.625L531.031 100.125L531.5 100.125C531.926 100.125 532.372 100.125 532.656 100.125C534.939 100.125 536.492 100.086 537.281 100C537.673 99.9572 537.956 99.9065 538.156 99.8438L538.375 99.75L538.469 99.5312C538.491 99.4514 538.531 99.2695 538.531 98.8125C538.531 97.5029 538.196 96.549 537.594 95.875C537.002 95.2126 536.122 94.875 534.875 94.875ZM474.094 113.719L473.969 113.875C473.673 114.219 473.356 114.618 473.156 115.094C472.919 115.658 472.813 116.22 472.812 116.781C472.813 117.207 472.851 117.564 472.969 117.844C473.088 118.126 473.277 118.328 473.469 118.469C473.708 118.644 474.047 118.745 474.562 118.844C475.081 118.943 475.761 119 476.625 119C479.107 119 480.946 118.71 482.125 118.156C482.7 117.886 483.099 117.569 483.375 117.188C483.653 116.802 483.781 116.37 483.781 115.938C483.781 115.504 483.668 115.157 483.5 114.906C483.332 114.655 483.061 114.419 482.656 114.25C482.286 114.095 481.335 113.973 479.844 113.875C478.471 113.785 476.567 113.726 474.312 113.719L474.094 113.719ZM450.188 362.438C445.378 364.842 451.148 367.229 448.438 370.844C448.319 371.001 439.777 376.302 444.875 376.594C449.741 376.872 454.634 376.872 459.5 376.594C459.917 376.57 460.284 376.127 460.375 375.719C461.609 370.166 451.966 371.256 455.5 364.188C453.937 362.625 454.736 363.161 450.188 362.438ZM452.156 393.938C450.445 393.872 448.745 393.916 447.094 394.312C445.618 394.667 444.495 398.536 444.438 400.094C444.153 407.77 443.858 415.444 444 423.125C444.029 424.681 458.194 423.749 459.5 423.562C459.913 423.503 460.352 423.105 460.375 422.688C460.777 415.46 460.844 408.208 460.844 400.969C460.844 400.093 458.357 394.399 457.281 394.312C455.588 394.177 453.868 394.003 452.156 393.938ZM452.625 398.062C455.817 398.266 458.859 400.844 457.719 405.406C456.974 408.383 453.716 408.316 452.406 410.281C454.38 412.255 455.401 411.159 457.719 414.25C462.552 420.695 445.134 427.333 446.656 415.156C447.062 411.911 450.786 411.901 452.406 410.281C450.736 408.611 446.997 408.034 446.656 404.969C446.108 400.035 449.433 397.859 452.625 398.062ZM411.75 394.594C412.732 397.627 407.98 400.094 405 400.094C404.896 399.782 404.737 399.532 404.594 399.281C402.717 400.411 399.785 400.677 398.781 403.188C397.084 407.432 400.396 405.277 396.125 408.938C393.529 411.163 392.02 408.095 389.469 411.156C386.209 415.067 392.555 417.817 389.469 421.344C387.696 423.37 386.647 423.575 385.75 423.406C385.826 423.479 385.858 423.483 385.938 423.562C383.807 425.693 385.148 428.851 386.656 430.844C389.685 433.088 392.158 432 396.125 432C396.282 432.471 396.316 432.44 396.375 432.625C398.353 428.247 397.981 421.677 400.562 417.375C405.443 409.24 413.214 404.723 419.625 398.312C418.122 396.434 417.869 395.813 417.844 395C417.699 395.22 417.583 395.48 417.406 395.656C413.589 393.748 413.744 395.886 411.75 394.594ZM492.594 394.969C490.517 395.375 488.558 395.08 486.531 396.094C486.445 396.008 486.403 395.996 486.344 395.938C486.033 396.62 485.697 397.278 485.219 397.875C494.2 403.863 502.838 412.08 506.906 422.25C508.339 425.832 508.535 429.568 509.688 433.031C509.873 432.718 510.069 432.4 510.469 432C512.748 432.414 513.795 432.604 514.531 432.812C516.389 431.292 519.72 430.777 520.188 428.438C521.535 421.7 514.987 425.528 514.438 420.031C514.147 417.13 518.07 413.064 515.781 411.156C512.722 408.607 503.941 410.415 506.031 402.75C506.054 402.666 506.069 402.612 506.094 402.531C504.142 401.269 502.019 400.11 500.25 398.625C499.098 399.396 497.593 399.831 495.844 399.656C492.525 399.324 492.821 396.939 492.594 394.969ZM429.812 400.969C417.31 407.22 419.652 419.424 412.531 427.562C412.106 428.049 409.245 431.038 408.094 431.531C407.223 431.904 403.769 428.615 403.656 431.094C403.375 437.291 403.375 443.522 403.656 449.719C403.675 450.136 404.267 450.298 404.562 450.594C405.227 450.151 405.21 450.162 405.875 449.719C407.427 450.96 408.059 453.349 409.875 454.156C414.361 456.15 411.039 452.103 413.844 455.469C415.169 457.059 415.289 461.278 417.406 462.125C418.369 462.51 422.048 461.741 422.281 460.344C423.13 455.253 418.309 456.316 423.156 451.469C428.859 456.031 427.773 462.789 436.031 461.688C439.458 461.231 434.489 450.819 441.781 453.25C441.781 454.119 441.633 457.188 443.094 457.25C449.734 457.533 456.391 457.533 463.031 457.25C465.339 457.152 461.796 450.632 466.156 452.812C469.554 454.512 467.501 457.574 467.906 460.812C468.241 463.487 473.201 462.459 475.875 462.125C477.263 461.951 477.106 456.884 477.219 456.375C477.551 454.882 479.899 452.646 480.781 451.469C483.633 454.32 482.114 467.569 489.188 459.906C490.535 458.446 491.873 456.959 493.188 455.469C495.31 453.063 495.036 451.839 496.719 450.156C505.744 454.669 501.726 433.867 501.594 431.094C501.574 430.676 500.983 430.514 500.688 430.219C499.241 430.942 500.063 430.437 498.5 432C488.83 423.297 486.64 408.875 475.438 401.406C474.994 401.849 475.006 401.869 474.562 402.312C478.075 409.338 483.875 420.072 483.875 428C483.875 432.485 477.67 429.58 477.219 432.438C476.573 436.53 478.352 442.003 475.875 445.719C474.231 444.623 473.45 443.737 471.906 445.281C467.757 442.515 471.98 433.418 468.344 429.781C465.083 431.411 464.783 433.72 461.719 430.656C464.739 424.615 448.466 425.759 443.531 426.656C441.549 427.017 443.468 430.012 442.656 431.094C440.743 433.644 437.735 428.999 436.469 431.531C434.425 435.62 437.84 442.129 434.25 445.719C431.989 444.588 431.518 443.991 428.938 445.281C427.585 443.928 430.844 428.359 424.5 431.531C417.211 424.242 426.584 410.05 430.688 401.844C430.244 401.401 430.256 401.412 429.812 400.969ZM414.625 434.062C420.472 434.079 423.541 444.784 416.062 445.719C408.161 446.706 406.451 435.907 413.406 434.219C413.818 434.119 414.235 434.061 414.625 434.062ZM452.656 434.594C458.262 435.013 461.741 445.317 454.188 446.156C445.842 447.084 443.895 435.937 451.5 434.656C451.89 434.591 452.283 434.566 452.656 434.594ZM489.625 434.656C494.253 434.114 500.723 445.17 491.844 446.156C483.611 447.071 481.588 435.598 489.625 434.656ZM465.25 401.844C464.807 402.287 464.818 402.307 464.375 402.75C465.475 404.949 467.752 418.3 469.688 418.688C482.154 421.181 466.533 403.269 465.25 401.844ZM439.562 402.312C437.323 404.552 424.273 422.315 436.469 418.25C436.469 413.897 441.946 405.888 439.562 402.312ZM393.312 434.938C391.613 434.973 389.534 435.971 388.094 436.688C388.127 436.756 388.121 436.804 388.156 436.875C387.492 437.54 387.477 437.523 386.812 438.188C386.526 438.044 386.069 437.995 385.594 437.969C386.642 439.951 387.079 441.29 386.812 441.844C390.067 445.525 392.026 449.719 398.344 449.719C399.698 445.656 397.49 438.892 394.938 435.344C394.493 435.043 393.925 434.925 393.312 434.938ZM398.781 452.375C396.819 452.553 394.425 452.325 393.031 453.719C396.06 456.747 398.069 461.035 401.875 463C404.295 464.249 411.458 463.466 409.875 461.25C407.673 458.167 404.632 455.449 398.781 452.375ZM502.938 452.375C500.027 455.286 497.227 458.254 494.938 461.688C500.566 467.316 508.131 457.952 510.906 455.031C512.059 453.818 510.578 452.872 502.938 452.375ZM402.781 464.781C402.363 464.786 401.894 465.239 401.875 465.656C401.593 472.001 401.593 478.374 401.875 484.719C401.894 485.136 402.364 485.618 402.781 485.625C420.651 485.916 438.535 485.545 456.406 485.625C471.472 485.693 486.528 486.207 501.594 486.062C502.012 486.058 502.45 485.574 502.469 485.156C502.75 478.959 502.881 472.752 502.469 466.562C502.427 465.937 501.783 465.233 501.156 465.219C481.665 464.786 462.153 465.307 442.656 465.219C429.363 465.159 416.074 464.637 402.781 464.781ZM453.125 468.688C458.721 469.063 461.086 479.515 454.188 480.281C446.021 481.189 444.441 470.104 451.969 468.781C452.369 468.711 452.752 468.662 453.125 468.688ZM431.906 469.062C437.757 469.096 440.822 479.815 433.344 480.75C425.596 481.718 423.933 470.833 430.688 469.219C431.1 469.12 431.516 469.06 431.906 469.062ZM492.625 469.062C498.629 469.084 501.737 479.654 494.062 480.75C486.324 481.855 484.877 470.73 491.406 469.219C491.83 469.121 492.225 469.061 492.625 469.062ZM472.938 469.156C479.943 469.623 480.838 480.75 474.125 480.75C466.375 480.75 464.477 470.158 471.469 469.219C471.99 469.149 472.47 469.125 472.938 469.156ZM412.812 469.5C418.508 469.53 421.325 480.405 414.281 481.188C406.141 482.092 404.501 471.438 411.656 469.656C412.059 469.556 412.433 469.498 412.812 469.5Z" fill="#ffffff" fill-rule="nonzero" opacity="1" stroke="none"/>
</g>
</svg>
