<?xml version="1.0" encoding="UTF-8" standalone="no"?>
<!DOCTYPE svg PUBLIC "-//W3C//DTD SVG 1.1//EN" "http://www.w3.org/Graphics/SVG/1.1/DTD/svg11.dtd">
<!-- Created with Vectornator (http://vectornator.io/) -->
<svg height="100%" stroke-miterlimit="10" style="fill-rule:nonzero;clip-rule:evenodd;stroke-linecap:round;stroke-linejoin:round;" version="1.1" viewBox="0 0 1080 1080" width="100%" xml:space="preserve" xmlns="http://www.w3.org/2000/svg" xmlns:vectornator="http://vectornator.io" xmlns:xlink="http://www.w3.org/1999/xlink">
<defs/>
<g id="Layer-1" vectornator:layerName="Layer 1">
<path d="M540.016 238.991C464.465 238.955 388.903 238.984 313.328 239.179C312.491 239.181 311.849 239.208 311.766 239.21L287.297 239.71L287.297 264.179C287.279 359.464 287.22 550.05 287.203 645.335L287.203 657.585L296.922 665.085C297.02 665.161 305.74 671.956 307.453 673.241C318.584 681.589 329.731 689.364 340.453 697.022C385.819 729.427 430.86 762.737 476.672 795.46C489.13 804.359 501.669 813.556 514.484 822.71C515.665 823.553 517.995 825.088 520.828 826.991C523.51 828.793 526.739 830.994 526.828 831.054L541.703 841.022L556.047 830.022C556.047 830.022 565.157 823.063 568.078 821.116C580.422 812.887 591.255 804.28 601.547 796.929C631.338 775.649 660.461 753.962 689.734 733.054L693.703 730.21C715.793 714.444 738.151 698.586 760.234 682.022C765.157 678.33 770.939 674.439 777.203 669.741C777.714 669.358 782.578 665.774 782.578 665.772L792.797 658.272L792.766 645.616C792.719 550.257 792.655 359.538 792.609 264.179L792.578 239.46L767.891 239.179C767.833 239.178 767.186 239.178 766.609 239.179C691.083 239.13 615.566 239.028 540.016 238.991ZM539.984 263.991C615.522 264.028 691.072 264.13 766.609 264.179C766.858 264.179 767.609 264.179 767.609 264.179L767.766 645.616C767.765 645.616 763.01 649.136 762.203 649.741C756.609 653.937 750.828 657.828 745.234 662.022C722.198 679.3 698.636 695.972 675.203 712.71C645.663 733.81 616.539 755.497 587.016 776.585C576.047 784.419 565.408 792.834 554.203 800.304C549.727 803.288 540.735 810.272 540.734 810.272C540.734 810.273 530.355 803.323 529.016 802.366C516.379 793.34 503.84 784.143 491.203 775.116C445.615 742.553 400.574 709.242 354.984 676.679C344.121 668.919 333.133 661.251 322.453 653.241C321.241 652.332 312.203 645.335 312.203 645.335L312.297 264.179C312.297 264.179 312.837 264.18 313.391 264.179C388.928 263.984 464.447 263.955 539.984 263.991ZM327.734 277.96C327.458 277.96 327.14 278.246 327.141 278.522C326.946 362.214 326.946 445.925 327.141 529.616C327.141 529.892 327.46 530.209 327.734 530.21C469.531 530.405 611.344 530.405 753.141 530.21C753.417 530.21 753.702 529.892 753.703 529.616C753.898 445.925 753.898 362.214 753.703 278.522C753.702 278.246 753.417 277.96 753.141 277.96C611.344 277.765 469.531 277.765 327.734 277.96ZM340.922 291.147C739.359 291.294 739.347 291.294 739.641 291.147C740.677 292.184 740.547 292.395 740.547 293.772C740.547 365.55 740.644 437.339 740.547 509.116C740.546 509.364 739.855 510.272 739.641 510.272C607.121 510.467 474.629 510.272 342.109 510.272C341.719 510.273 341.271 510.447 340.922 510.272C339.881 509.752 340.328 508.571 340.328 507.647C340.328 435.675 340.133 363.682 340.328 291.71C340.329 291.434 340.727 291.343 340.922 291.147ZM351.703 323.21C362.161 344.126 364.25 372.853 364.953 395.71C365.752 421.682 364.568 451.262 352.641 475.116C353.08 475.556 353.076 475.552 353.516 475.991C353.711 475.893 353.891 475.71 354.109 475.71C399.715 475.613 445.316 475.71 490.922 475.71C498.93 475.71 506.954 476.091 514.953 475.71C516.813 475.621 518.977 469.132 519.641 467.804C524.2 458.684 527.608 448.195 528.422 437.616C528.551 435.941 530.049 430.462 528.422 428.835C515.277 441.98 491.068 447.467 473.359 447.585C445.723 447.769 418.059 447.963 390.422 447.866C390.146 447.865 389.862 447.55 389.859 447.272C389.571 420.307 387.974 390.389 392.203 362.897C393.491 354.528 394.6 345.342 397.766 337.429C398.763 334.936 399.424 332.467 401.047 330.304C401.838 329.249 404.547 324.022 404.547 324.022C404.547 324.022 361.339 323.147 351.703 323.21ZM543.359 325.71C543.083 325.711 542.96 326.108 542.766 326.304C555.581 351.934 555.391 384.876 555.391 412.71C555.391 418.516 554.781 424.523 554.203 430.304C553.058 441.753 551.087 453.37 547.453 464.272C546.547 466.99 542.471 473.59 543.672 475.991C543.867 475.893 544.016 475.712 544.234 475.71C556.05 475.614 567.889 475.902 579.703 475.71C579.979 475.705 580.263 475.392 580.266 475.116C580.459 456.953 580.072 438.779 580.266 420.616C580.275 419.711 581.855 420.054 582.328 420.054C618.363 420.054 654.387 419.86 690.422 420.054C690.698 420.055 691.012 420.34 691.016 420.616C691.209 438.486 691.016 456.37 691.016 474.241C691.016 474.436 690.943 474.654 691.016 474.835C691.146 475.162 691.258 475.701 691.609 475.71C703.227 475.998 714.864 475.615 726.484 475.71C728.167 475.724 726.586 476.764 728.234 475.116C720.146 462.983 718.003 440.049 716.797 426.179C714.032 394.385 713.374 356.024 728.234 326.304C728.039 326.108 727.916 325.711 727.641 325.71C666.215 325.515 604.786 325.515 543.359 325.71ZM580.266 353.241C690.91 353.436 691.32 353.559 691.328 353.835C691.523 360.375 691.328 366.917 691.328 373.46C691.328 379.71 691.517 385.963 691.328 392.21C691.32 392.486 691.011 392.8 690.734 392.804C672.376 392.997 653.999 392.804 635.641 392.804C617.184 392.804 598.722 392.999 580.266 392.804C579.989 392.801 579.711 392.485 579.703 392.21C579.508 385.767 579.604 379.311 579.703 372.866C579.798 366.714 579.985 360.581 579.984 354.429C579.984 354.21 579.801 354.03 579.703 353.835C579.996 353.542 579.973 353.534 580.266 353.241ZM327.734 542.804C327.458 542.804 327.142 543.09 327.141 543.366C326.947 574.518 326.85 605.684 327.141 636.835C327.144 637.162 337.358 644.463 338.578 645.335C350.751 654.03 362.957 662.736 374.922 671.71C415.161 701.889 456.417 730.934 497.359 760.179C508.057 767.82 518.6 775.694 529.297 783.335C530.879 784.465 539.171 791.241 540.422 791.241C541.138 791.241 549.167 784.814 550.391 783.897C559.445 777.107 568.72 770.564 577.922 763.991C612.599 739.222 647.54 714.566 681.641 688.991C699.758 675.403 718.307 662.311 736.734 649.147C741.058 646.059 745.286 642.861 749.609 639.772C750.263 639.305 753.695 637.5 753.703 636.835C754.09 605.685 753.897 574.518 753.703 543.366C753.701 543.09 753.416 542.804 753.141 542.804C611.344 542.609 469.531 542.608 327.734 542.804ZM340.922 565.929C437.211 565.929 437.414 565.929 437.609 565.929C506.359 565.929 575.109 565.929 643.859 565.929C675.891 565.929 707.922 565.733 739.953 565.929C740.229 565.931 740.544 566.246 740.547 566.522C740.74 587.615 741.119 608.718 740.547 629.804C740.526 630.566 739.367 630.804 738.766 631.272C722.077 644.253 704.407 656.202 687.203 668.491C656.983 690.077 627.2 712.222 596.984 733.804C583.143 743.69 569.516 753.79 555.672 763.679C550.718 767.217 544.727 770.53 540.422 774.835C535.24 772.244 530.522 767.647 525.797 764.272C513.048 755.167 500.451 745.847 487.703 736.741C454.499 713.025 421.043 689.449 388.391 664.96C376.531 656.065 364.22 647.792 352.359 638.897C350.983 637.865 340.338 630.363 340.328 629.804C339.945 608.714 340.135 587.615 340.328 566.522C340.331 566.246 340.727 566.124 340.922 565.929ZM547.172 580.522C545.239 580.478 542.91 581.245 541.328 581.772C541.328 583.48 541.678 585.204 540.422 586.46C539.212 585.25 540.87 582.089 538.984 581.46C537.431 580.942 533.614 580.419 531.953 580.585C531.004 580.68 527.447 587.574 527.828 588.21C529.507 591.008 533.107 592.601 533.984 596.116C534.058 596.412 526.825 609.451 526.359 609.585C522.684 610.635 516.442 607.22 513.766 609.897C510.997 608.513 507.812 607.779 504.984 606.366C504.334 607.016 508.231 617.589 509.891 619.585C511.081 619.19 512.203 619.057 513.078 619.397C512.877 619.649 512.566 619.835 512.016 619.835C511.552 619.835 510.826 620.484 510.266 620.147C510.181 620.097 509.995 619.711 509.891 619.585C508.178 620.153 506.371 621.174 505.266 621.616C497.684 624.649 487.53 630.938 483.016 637.71C477.604 632.298 474.625 623.44 468.672 618.679C466.267 616.755 465.026 622.858 466.016 624.835C466.152 625.107 466.407 625.257 466.609 625.46C466.757 625.072 466.928 624.729 467.203 624.522C467.991 625.212 468.659 626.01 469.234 626.866C469.674 626.427 469.67 626.431 470.109 625.991C471.018 627.202 471.908 628.529 472.797 629.804C472.293 629.222 471.834 628.591 471.297 628.054C470.822 627.579 470.047 627.357 469.328 627.085C471.247 630.045 472.016 633.737 472.547 637.554C472.542 637.56 472.552 637.578 472.547 637.585C472.928 640.329 473.26 643.149 473.641 645.616C475.558 658.072 478.021 670.495 480.078 682.835C480.826 687.325 481.16 697.281 483.016 700.991C483.673 702.304 486.559 702.252 487.703 702.46C493.739 703.557 499.78 704.274 505.859 705.085C507.826 705.347 510.771 706.61 512.297 705.085C512.032 704.82 511.283 704.506 510.422 704.179C515.538 704.976 522.688 704.351 524.609 706.272C523.471 707.411 509.819 705.924 507.609 705.679C501.792 705.032 488.371 704.715 483.297 702.179C481.281 701.172 481.295 695.418 480.953 693.366C479.692 685.807 478.3 678.368 477.141 670.835C476.818 668.72 475.299 664.957 475.984 662.897C476.042 662.723 476.201 662.705 476.297 662.585C475.028 661.423 475.027 658.834 474.797 657.335C474.16 653.179 470.876 641.698 472.547 637.585C472.429 637.738 472.326 637.869 472.172 638.022C470.916 636.767 470.649 635.178 471.234 633.804C469.717 632.167 470.212 629.159 469.266 627.054C468.254 626.673 467.334 626.182 466.609 625.46C465.382 628.682 468.141 637.445 468.672 640.366C471.631 656.639 474.627 672.941 477.141 689.272C477.464 691.375 479.576 705.241 480.672 705.679C489.095 709.048 504.786 709.107 513.766 709.772C540.061 711.72 566.806 711.495 592.891 707.147C594.315 706.91 600.232 706.496 600.797 705.085C603.455 698.44 603.317 689.071 604.609 681.96C607.127 668.112 609.402 654.226 611.922 640.366C612.633 636.455 616.214 623.6 615.422 620.429C615.255 619.762 613.457 618.844 612.797 618.679C611.358 618.319 609.145 622.359 608.391 623.366C604.878 628.05 601.515 632.861 597.859 637.429C591.723 632.519 586.382 626.075 578.828 623.054C577.235 622.417 571.979 621.386 571.203 619.835C570.303 618.035 577.679 607.261 575.891 606.366C573.867 605.355 569.615 609.902 567.391 609.585C563.247 608.993 558.658 610.141 554.484 609.585C553.186 609.412 551.348 604.817 550.703 603.741C545.367 594.848 546.91 596.081 553.047 587.897C553.385 587.447 549.467 581.109 548.922 580.866C548.415 580.641 547.816 580.537 547.172 580.522ZM545.109 585.554C545.671 585.413 548.232 585.621 547.766 587.022C546.843 589.79 542.729 593.289 541.922 596.241C541.587 597.466 542.199 597.938 542.266 598.241C545.998 602.013 548.891 608.648 551.266 613.397C551.165 613.498 551.1 613.456 551.016 613.522C553.48 614.155 556.308 613.673 559.172 613.991C560.611 614.151 559.13 616.299 558.609 616.335C555.589 616.543 552.817 615.262 550.109 616.616C550.109 618.472 550.107 619.937 550.109 621.491C550.511 621.152 550.991 620.872 551.297 620.991C555.46 616.86 564.191 615.154 569.453 612.522C570.448 614.014 567.854 620.312 566.797 621.897C566.76 621.952 566.685 622.023 566.641 622.085C570.579 624.013 574.461 625.435 578.266 627.085C576.501 625.923 566.262 622.529 566.203 622.179C565.847 620.041 568.763 616.061 569.453 613.991C569.374 613.965 566.716 614.499 564.141 614.991C564.247 615.071 564.343 615.037 564.453 615.147C561.782 617.818 555.923 619.902 551.766 621.304C552.059 621.516 552.361 621.674 552.672 621.772C555.304 620.455 558.733 619.016 561.766 617.929C558.66 619.623 555.364 622.621 552.672 621.772C552.59 621.813 552.47 621.857 552.391 621.897C552.524 622.018 552.56 622.004 552.734 622.179C551.886 623.028 551.241 623.231 550.641 622.991C550.445 623.12 550.239 623.259 550.109 623.366C550.112 623.666 550.117 623.968 550.109 624.241C549.828 634.101 549.797 643.971 549.797 653.835C549.797 654.566 549.692 655.004 549.641 655.554C550.703 654.098 551.886 652.597 552.453 651.179C555.059 644.663 557.305 636.758 560.953 630.679C562.38 628.302 562.466 624.165 564.453 622.179C564.484 622.194 564.489 622.198 564.516 622.21C564.862 620.999 565.237 619.837 565.703 618.804C566.013 617.83 566.191 617.038 565.641 616.929C565.458 616.892 565.265 616.966 565.078 616.96C565.889 616.78 566.943 616.449 567.109 616.616C566.549 617.176 566.092 617.94 565.703 618.804C565.334 619.963 564.77 621.388 564.922 622.335C564.793 622.291 564.679 622.281 564.516 622.21C563.945 624.209 563.438 626.271 562.703 627.741C559.628 633.891 557.691 641.865 554.203 647.679C552.569 650.402 552.291 655.671 549.797 657.335C549.324 655.915 549.516 654.899 549.516 653.522C549.515 643.658 548.953 633.82 549.234 623.96C549.237 623.857 549.901 623.54 550.109 623.366C550.108 623.173 550.108 622.98 550.109 622.804C550.274 622.981 550.466 622.922 550.641 622.991C551.181 622.634 551.456 622.373 552.391 621.897C552.117 621.65 551.856 621.449 551.672 621.335C551.193 621.496 550.527 621.758 550.109 621.897C549.139 619.957 548.538 617.753 549.797 615.991C549.92 615.818 549.946 615.623 550.109 615.46C550.305 615.557 550.485 615.733 550.703 615.741C553.356 615.836 556.578 616.401 558.734 615.022C556.737 614.295 554.057 614.977 551.859 614.585C550.581 614.357 548.428 608.941 547.766 607.835C545.895 604.718 542.192 600.446 541.328 596.991C540.771 594.76 545.871 588.475 547.172 586.741C545.614 585.183 542.929 590.792 541.078 593.397C541.051 593.547 541.069 593.703 540.891 593.835C540.879 593.812 540.84 593.765 540.828 593.741C540.598 594.038 540.333 594.504 540.141 594.647C538.702 592.489 535.78 584.634 533.391 587.022C535.285 589.232 538.986 593.907 539.547 596.71C539.69 597.423 534.42 605.766 533.703 606.96C533.003 608.125 530.401 614.469 529.016 614.585C526.672 614.78 523.648 613.484 521.984 615.147C523.991 617.155 527.66 615.459 530.484 615.741C530.543 615.747 530.555 615.822 530.609 615.835C531.04 615.301 531.516 614.458 531.641 614.272C531.64 614.272 532.697 610.903 533.703 609.897C533.996 610.19 539.692 599.909 539.984 599.616C539.984 599.616 541.835 602.844 542.016 602.71C542.498 603.531 542.859 604.081 543.516 605.147C542.106 602.933 540.398 600.235 539.984 599.616C539.984 599.616 537.932 603.588 537.859 603.366C535.492 607.39 531.414 613.971 531.641 614.272C531.641 614.272 531.121 615.191 530.891 616.054C532.396 616.93 531.856 620.807 530.766 621.897C524.621 618.825 518.152 616.466 512.016 613.397C511.723 613.69 511.715 613.698 511.422 613.991C512.152 615.452 513.89 618.277 513.109 619.366C512.447 617.029 511.086 614.195 510.547 613.116C510.84 612.823 510.848 612.816 511.141 612.522C514.819 614.362 520.956 615.705 523.984 618.429C524.012 618.402 523.984 618.397 524.016 618.366C526.062 619.39 528.133 620.004 530.172 621.022C531.287 619.909 530.581 617.899 530.766 616.335C530.782 616.196 530.854 616.191 530.891 616.054C530.787 615.993 530.735 615.863 530.609 615.835C530.455 616.026 530.288 616.327 530.172 616.335C527.541 616.516 524.879 616.683 522.266 616.335C521.905 616.287 521.331 615.027 521.109 614.585C521.757 613.936 526.428 613.094 529.391 613.429C529.362 613.404 529.324 613.425 529.297 613.397C531.435 609.12 534.138 602.993 537.516 599.616C537.896 598.848 538.577 597.216 538.984 596.397C538.571 595.985 538.874 595.808 538.547 595.304C536.53 592.545 535.254 589.448 532.828 587.022C535.024 582.63 539.511 591.052 540.828 593.741C540.914 593.63 540.988 593.526 541.078 593.397C541.126 593.134 541.13 592.862 541.328 592.585C542.049 591.576 544.342 585.744 545.109 585.554ZM540.422 612.522C548.393 622.487 551.538 622.173 540.141 632.147C538.259 629.639 533.226 625.895 532.516 623.054C532.209 621.83 539.214 613.731 540.422 612.522ZM514.641 616.022C518.741 618.072 523.074 619.52 527.266 621.616C527.919 621.943 531.35 622.59 531.359 623.647C531.455 633.999 531.139 644.358 531.047 654.71C531.029 656.762 531.493 656.045 530.484 657.054C528.723 655.292 527.938 651.297 526.953 648.835C523.791 640.928 521.016 632.555 517.297 625.116C516.363 623.247 512.953 617.71 514.641 616.022ZM513.109 619.397C513.481 619.548 513.83 619.775 514.078 620.147C514.256 620.414 514.835 621.789 514.641 622.179C514.156 623.147 505.349 625.668 503.516 626.585C494.957 630.864 489.7 636.9 483.016 643.585C482.216 642.626 481.514 641.498 480.766 640.46C481.505 641.322 482.225 642.2 483.016 642.991C487.744 635.898 495.307 630.111 502.922 626.304C504.681 625.424 512.58 623.114 513.203 622.491C513.702 621.993 513.494 620.762 513.109 619.397ZM555.453 624.991C555.971 625.082 556.543 625.394 557.141 625.991C556.707 626.858 557.033 628.227 557.734 628.929C550.581 634.293 551.826 624.355 555.453 624.991ZM515.828 625.397C517.566 626.093 518.964 632.207 519.641 633.897C523.135 642.635 526.991 651.254 530.484 659.991C530.908 661.051 534.384 669.784 534.297 669.929C532.868 672.309 527.377 670.311 525.203 671.397C524.69 670.628 524.282 669.796 523.828 668.991C524.083 669.306 524.307 669.686 524.609 669.929C526.818 671.697 529.866 668.951 532.016 670.741C532.564 670.455 533.045 670.307 533.703 669.647C531.849 665.943 530.834 661.847 529.016 658.21C529.095 658.129 529.099 658.095 529.172 658.022C527.581 656.293 526.937 653.325 526.078 651.179C523.723 645.288 521.122 639.508 518.766 633.616C518.308 632.471 516.604 626.203 515.547 625.991C512.775 625.438 501.177 631.863 498.547 633.616C494.932 636.026 492.126 638.502 489.172 641.804C488.379 642.69 485.483 645.674 485.953 647.085C486.51 648.753 488.632 649.94 488.953 651.366C489.288 651.022 489.533 650.589 489.828 650.21C493.595 643.877 498.684 638.532 505.578 635.085C507.305 634.222 511.68 631.811 513.203 633.335C511.541 634.995 507.999 635.833 505.859 637.116C505.502 637.331 505.104 637.681 504.734 637.929C502.662 639.694 500.551 641.462 498.422 643.429C495.428 646.719 492.939 650.582 492.391 654.429C492.013 657.077 495.463 657.869 495.609 659.991C495.792 662.624 495.747 665.263 495.891 667.897C496.009 670.117 495.992 674.999 497.672 676.679C497.965 676.532 497.941 676.544 498.234 676.397C498.323 676.508 498.356 676.533 498.422 676.616C500.004 674.597 498.234 672.269 498.234 669.647C498.236 666.326 498.377 662.996 498.547 659.679C498.907 652.662 503.205 647.427 507.922 642.71C508.001 642.789 508.014 642.803 508.078 642.866C509.619 641.555 512.981 638.145 514.953 639.46C512.999 640.925 511.126 642.436 509.266 644.022C509.319 644.075 509.328 644.084 509.391 644.147C503.735 651.692 502.687 656.008 503.234 666.147C503.339 668.094 503.89 672.961 505.266 674.335C505.689 674.123 505.962 674.259 506.266 674.304C507.343 673.341 508.983 673.964 509.672 672.585C510.08 671.765 512.034 660.579 512.016 660.554C510.836 659.016 509.366 657.729 508.203 656.179C508.423 655.959 508.532 655.85 508.641 655.741C508.603 655.697 508.643 655.63 508.609 655.585C507.779 654.477 507.789 653.063 509.078 651.772C509.131 651.826 509.151 651.933 509.203 651.991C508.532 649.72 511.865 647.679 514.359 647.679C517.275 647.679 519.165 649.546 521.109 651.491C521.065 651.535 521.056 651.63 521.016 651.679C523.508 655.756 522.153 657.915 519.266 660.866C520.272 662.001 520.954 663.582 521.641 665.147C520.823 663.589 520.021 662.015 519.047 660.554C526.516 655.574 517.015 644.254 511.422 649.147C509.749 650.611 508.238 653.311 508.609 655.585C508.733 656.343 509.066 657.041 509.672 657.647C510.601 658.576 512.248 659.009 512.609 660.272C512.799 660.936 510.671 671.781 510.266 672.866C509.736 674.277 506.787 674.687 505.578 674.929C503.471 675.35 502.359 667.144 502.359 665.835C502.36 656.204 503.585 650.474 509.266 644.022C509.828 643.384 510.203 642.774 510.859 642.116C510.566 641.823 510.558 641.816 510.266 641.522C504.999 645.034 498.828 653.01 498.828 659.991C498.828 663.313 498.971 666.611 499.141 669.929C499.266 672.372 501.397 675.848 498.547 677.272C495.481 678.805 495.04 668.491 495.016 667.585C494.946 665.047 495.106 662.529 495.016 659.991C494.956 658.325 491.797 657.139 491.797 655.585C491.797 650.522 494.811 646.762 498.422 643.429C500.439 641.212 502.629 639.338 504.734 637.929C505.584 637.205 506.603 636.404 507.328 635.679C507.035 635.386 507.027 635.378 506.734 635.085C501.585 637.66 497.822 640.312 493.859 644.741C492.343 646.436 491.208 648.438 489.828 650.21C489.569 650.646 489.262 651.046 489.016 651.491C489.01 651.451 488.962 651.406 488.953 651.366C488.917 651.403 488.897 651.454 488.859 651.491C487.924 650.322 485.91 648.461 485.359 647.085C484.794 645.671 487.75 642.352 488.578 641.522C493.47 636.629 499.098 632.294 505.266 629.21C507.358 628.164 513.62 624.514 515.828 625.397ZM565.047 625.397C567.555 624.896 571.411 628.043 573.828 628.647C581.653 630.604 592.013 639.204 595.516 646.21C596.183 647.545 592.537 650.866 591.703 651.491C587.087 644.568 581.889 639.1 574.422 635.366C574.129 635.659 574.121 635.667 573.828 635.96C576.517 637.753 591.208 650.261 589.078 655.585C588.56 656.881 586.031 658.484 585.859 659.679C585.514 662.098 585.637 664.581 585.547 667.022C585.451 669.626 585.728 677.88 582.047 676.96C579.783 676.394 581.533 672.528 581.734 671.116C582.322 667.003 582.05 665.927 581.734 660.554C581.195 651.377 576.143 647.369 570.016 641.241C569.723 641.534 569.746 641.511 569.453 641.804C577.925 647.451 579.142 658.155 577.922 667.304C577.536 670.199 577.526 674.995 574.391 674.366C576.963 673.632 577.922 666.718 577.922 664.366C577.922 662.314 577.781 660.258 577.641 658.21C576.93 647.906 571.768 645.9 565.047 639.179C566.482 637.742 569.523 640.328 570.891 641.241C575.801 644.514 580.266 650.305 581.734 656.179C582.832 660.573 582.598 663.921 582.328 668.772C582.224 670.678 580.908 673.896 581.453 675.804C581.658 676.522 582.674 676.414 583.203 676.679C585.186 674.694 585.166 669.405 585.266 666.71C585.352 664.368 585.016 662.009 585.266 659.679C585.416 658.279 587.872 656.81 588.484 655.585C589.083 654.389 586.757 650.07 586.141 648.835C582.969 642.488 577.154 639.384 571.797 635.366C570.505 634.396 568.913 634.576 567.672 633.335C570.016 630.99 582.937 639.789 584.672 641.522C586.044 642.892 587.243 644.44 588.484 645.929C589.769 647.469 590.568 649.2 591.984 650.616C596.566 644.886 593.887 643.176 588.203 638.304C580.816 631.973 573.538 630.096 565.328 625.991C563.191 628.127 562.346 632.308 561.234 635.085C559.48 639.472 557.678 643.845 555.859 648.21C557.33 644.396 558.839 640.551 560.078 636.835C560.505 635.554 564.596 625.488 565.047 625.397ZM610.453 626.304C611.709 627.56 609.93 633.328 609.578 635.085C608.219 641.882 607.406 648.79 606.047 655.585C605.687 657.384 605.914 661.252 604.891 662.616C604.69 662.883 604.545 662.905 604.391 662.96C604.369 663.095 604.35 663.231 604.328 663.366C604.458 663.572 604.61 663.755 604.609 664.085C604.526 664.112 604.342 664.241 604.172 664.335C604.129 664.606 604.058 664.876 604.016 665.147C604.457 666.909 604.082 669.612 603.078 670.991C603.191 671.131 603.347 671.224 603.422 671.397C603.684 672.01 602.828 674.038 602.828 674.929C602.611 675.001 602.496 674.97 602.328 674.991C602.286 675.253 602.214 675.512 602.172 675.772C602.067 675.429 601.907 675.212 601.703 675.054C601.868 675.082 602.119 675.017 602.328 674.991C602.854 671.71 603.495 668.426 604.016 665.147C603.962 664.933 604.036 664.606 603.953 664.429C604.012 664.404 604.092 664.379 604.172 664.335C604.223 664.013 604.276 663.688 604.328 663.366C604.276 663.284 604.249 663.172 604.203 663.085C604.26 663.07 604.333 662.98 604.391 662.96C605.101 658.558 605.759 654.147 606.641 649.741C607.215 646.871 610.76 629.516 609.578 628.335C607.008 631.762 601.029 641.859 597.578 643.585C592.445 635.886 585.492 632.386 578.578 627.21C581.75 628.6 584.865 630.159 587.891 632.429C591.697 635.283 594.019 640.149 597.859 642.71C600.214 639.886 602.163 636.71 604.734 634.085C604.68 634.016 604.68 633.985 604.609 633.897C606.346 631.291 608.243 628.514 610.453 626.304ZM473.047 633.022C478.174 639.004 482.506 645.629 487.422 651.772C488.92 653.645 493.577 658.109 493.859 660.272C494.407 664.462 493.118 674.87 496.734 678.647C496.786 678.668 496.836 678.694 496.891 678.71C497.298 678.512 498.442 678.27 499.109 678.054C503.027 676.786 509.928 675.296 510.859 674.054C512.2 672.266 512.598 661.14 514.359 660.554C519.016 659.002 520.94 667.275 522.859 670.741C523.403 671.366 524.091 671.845 524.891 672.21C525.776 672.188 526.66 672.059 527.547 671.991C529.253 671.86 535.357 671.901 535.734 671.397C537.301 669.307 533.237 663.008 532.828 660.554C532.62 659.299 539.29 642.373 540.422 641.241C541.636 642.455 546.44 654.979 547.391 659.304C547.417 659.331 547.427 659.371 547.453 659.397C547.614 659.277 547.596 659.168 547.734 659.054C547.658 659.312 547.53 659.581 547.484 659.835C547.547 660.216 547.816 661.019 547.766 661.147C547.363 662.155 544.234 670.313 544.547 670.835C545.652 672.675 547.988 671.871 549.797 671.991C549.881 671.997 555.53 672.518 556.266 672.272C558.214 671.623 561.748 660.53 563.297 660.272C564.392 660.09 565.2 660.348 565.891 660.772C565.968 660.716 566.043 660.686 566.109 660.647C566.12 660.73 566.187 660.894 566.203 660.991C569.217 663.366 568.532 671.045 569.734 674.054C570.058 674.863 581.853 677.769 583.797 678.741C587.866 673.316 585.238 666.539 586.734 660.554C587.06 659.252 588.81 657.567 589.641 656.46C593.742 650.991 597.852 645.522 601.953 640.054C603.438 638.074 604.989 634.739 607.234 633.616C608.973 636.222 605.154 650.023 604.609 653.835C604.346 655.675 604.739 658.613 603.141 659.679C602.529 658.863 602.068 658.043 601.359 657.335C600.518 658.595 599.211 659.201 598.141 660.272C596.747 659.228 597.322 659.735 596.391 658.804C595.376 659.818 596.242 661.071 596.984 662.147C599.024 660.736 601.2 658.832 603.141 661.741C603.037 661.845 602.883 661.897 602.766 661.991C602.801 662.048 602.855 662.058 602.891 662.116C602.778 662.094 602.635 662.126 602.516 662.116C601.612 662.755 600.502 663.162 599.516 662.772C600.56 662.255 601.62 662.042 602.516 662.116C602.592 662.062 602.693 662.05 602.766 661.991C602.449 661.482 602.136 660.959 601.672 660.866C599.368 660.404 598.675 661.771 596.984 662.616C595.077 660.076 594.446 655.984 598.141 659.679C599.02 658.8 599.043 658.807 599.922 657.929C600.025 658.032 600.103 657.972 600.203 658.054C600.475 657.277 600.605 656.62 601.359 655.866C601.892 656.4 602.149 657.244 602.453 658.022C605.319 655.271 606.298 642.126 606.953 639.179C607.149 638.303 607.927 634.641 605.953 635.366C605.961 635.472 606.101 635.571 606.047 635.679C602.541 642.69 595.826 649.296 591.109 655.585C590.452 656.461 587.297 659.576 587.297 660.554C587.295 665.849 588.247 675.134 584.078 679.304C581.488 678.01 570.394 675.869 569.453 674.616C568.081 672.786 568.21 669.175 567.672 667.022C567.506 666.364 566.481 662.68 566.203 660.991C566.105 660.913 565.997 660.838 565.891 660.772C565.683 660.925 565.458 661.131 565.328 661.147C564.74 661.219 564.053 660.51 563.578 660.866C561.964 662.077 561.404 664.969 560.359 666.71C559.665 667.864 557.825 672.684 556.547 672.866C555.176 673.061 550.514 672.909 549.391 672.054C548.112 672.899 545.989 671.991 544.234 671.991C542.99 668.257 547.453 663.698 547.453 659.991C547.453 659.944 547.477 659.884 547.484 659.835C547.459 659.682 547.432 659.492 547.391 659.304C543.39 655.177 544.44 646.727 540.422 642.71C538.67 644.46 533.745 656.914 533.391 659.397C533.033 661.903 537.783 669.676 536.922 671.397C536.123 672.994 533.732 672.832 532.141 672.085C531.99 672.279 531.87 672.544 531.641 672.585C528.45 673.148 526.414 672.907 524.891 672.21C524.703 672.215 524.516 672.287 524.328 672.272C523.817 672.233 523.333 671.595 522.859 670.741C521.064 668.678 520.248 665.402 517.953 661.897C517.238 661.274 516.744 660.932 516.297 660.554C516.056 661.226 515.716 661.686 514.641 661.147C512.374 663.414 513.008 677.961 507.922 675.522C506.015 677.43 501.866 677.206 499.422 678.429C499.233 678.143 499.189 678.178 499.109 678.054C498.226 678.828 497.528 678.897 496.891 678.71C496.873 678.718 496.814 678.733 496.797 678.741C496.771 678.716 496.759 678.675 496.734 678.647C493.86 677.473 493.325 668.1 493.266 666.147C493.21 664.196 493.435 662.218 493.266 660.272C493.095 658.342 489.346 654.602 487.984 653.241C488.022 653.164 488.071 653.099 488.109 653.022C483.052 646.91 478.767 640.1 473.359 634.335C473.618 635.132 473.578 635.939 473.141 636.741C474.668 638.49 473.737 641.045 474.516 642.991C476.669 648.375 475.044 656.707 479.203 660.866C479.878 660.191 480.437 660.356 481.109 660.616C481.591 660.472 482.069 660.36 482.484 660.147C482.867 659.716 483.358 659.393 483.797 659.022C483.777 659.008 483.757 658.991 483.734 658.96C483.763 658.968 483.799 658.983 483.828 658.991C484.246 658.64 484.61 658.241 485.078 657.929C486.378 659.232 484.888 661.338 483.891 662.335C484.184 662.628 484.192 662.604 484.484 662.897C483.866 663.31 482.68 662.921 481.484 662.335C482.394 663.391 482.974 664.301 483.422 665.179C483.77 665.582 484.088 666 484.453 666.366C484.135 666.897 484.127 667.419 484.109 667.96C484.155 667.079 483.924 666.161 483.422 665.179C482.677 664.316 481.924 663.433 481.203 662.647C481.128 662.721 481.079 662.772 480.953 662.897C479.469 662.156 478.372 662.838 477.453 661.46C478.092 661.034 478.157 660.895 478.297 660.772C477.638 660.527 477.14 660.057 477.141 659.116C477.341 659.049 477.487 659.06 477.672 659.022C475.641 658.072 474.259 644.096 474.516 643.585C472.223 641.292 473.797 636.304 472.453 633.616C472.746 633.323 472.754 633.316 473.047 633.022ZM564.547 647.866C567.976 647.281 573.592 651.481 572.359 654.116C573.348 654.284 573.073 655.357 572.484 656.585C572.248 657.853 571.563 658.767 570.641 659.46C569.966 660.33 569.158 661.443 568.859 661.741C570.303 664.63 569.335 670.25 571.203 672.585C571.814 673.348 572.375 673.833 572.891 674.116C571.943 673.978 570.929 673.816 570.609 673.179C568.862 669.684 569.753 664.998 567.984 661.46C568.742 660.702 569.749 660.129 570.641 659.46C571.436 658.434 571.97 657.661 572.484 656.585C572.531 656.334 572.672 656.155 572.672 655.866C572.672 655.298 572.563 654.713 572.359 654.116C571.201 650.725 567.064 647.338 563.609 648.272C563.904 648.106 564.196 647.926 564.547 647.866ZM562.578 648.741C562.22 648.948 561.844 649.1 561.516 649.429C557.284 653.66 559.846 655.917 562.109 659.991C562.249 660.243 556.169 670.62 555.391 671.397C552.928 670.166 548.19 672.134 546.297 670.241C546.65 669.535 546.979 668.741 547.328 668.022C547.1 668.742 547.012 669.328 547.172 669.647C547.451 670.208 548.245 670.474 549.016 670.804C550.078 669.898 554.105 670.192 555.391 670.835C556.156 669.686 560.865 660.91 561.641 659.616C561.597 659.637 561.562 659.655 561.516 659.679C559.131 656.898 557.909 656.011 558.891 652.085C559.292 650.481 560.885 649.296 562.578 648.741ZM565.922 649.147C567.185 649.153 569.214 650.413 569.453 652.085C569.982 655.786 568.427 659.862 563.578 659.116C557.923 658.246 559.846 649.118 565.922 649.147ZM515.578 649.366C519.921 650.304 520.361 658.207 516.422 659.116C513.529 659.784 511.42 658.286 510.422 656.304C510.362 656.256 510.294 656.224 510.234 656.179C510.264 656.12 510.241 656.051 510.266 655.991C509.876 655.08 509.714 654.125 509.859 653.179C509.831 653.127 509.826 653.074 509.797 653.022C509.823 653.053 509.841 653.086 509.859 653.116C510.132 651.475 511.224 649.98 513.484 649.429C514.263 649.239 514.958 649.231 515.578 649.366ZM539.859 656.179C543.847 657.733 546.056 659.358 542.484 662.335C542.044 661.894 531.755 658.88 539.859 656.179ZM592.703 662.116C594.289 661.949 595.509 663.488 593.172 665.241C592.203 663.787 592.823 664.611 591.109 662.897C591.604 662.403 592.175 662.172 592.703 662.116ZM488.109 662.272C488.704 662.282 489.318 662.45 489.766 662.897C488.594 664.069 488.594 664.069 487.422 665.241C484.633 663.847 486.327 662.245 488.109 662.272ZM599.422 662.835C596.449 665.264 597.642 667.63 596.766 669.46C598.143 670.944 600.207 672.31 601.359 674.616C600.34 675.635 599.575 675.177 598.453 674.616C597.456 675.613 596.749 676.442 597.859 677.554C598.445 676.968 598.43 676.983 599.016 676.397C600.409 677.442 599.866 676.935 600.797 677.866C598.587 682.285 598.88 688.491 597.859 693.085C597.627 694.131 597.882 699.025 596.391 699.522C595.741 699.739 578.832 694.189 577.047 693.679C573.609 692.696 570.133 691.97 566.609 691.429C556.039 689.804 545.163 689.866 534.578 689.866C534.467 690.199 534.313 690.408 534.172 690.647C534.232 690.683 534.298 690.708 534.359 690.741C538.538 690.741 542.711 690.741 546.891 690.741C549.217 690.741 551.558 691.079 553.891 691.366C552.03 692.068 549.214 691.335 547.453 691.335C547.353 691.035 547.335 691.051 547.297 690.929C547.171 691.09 547.082 691.322 546.891 691.335C542.8 691.602 537.81 692.623 534.359 690.741C534.339 690.741 534.318 690.741 534.297 690.741C534.256 690.741 534.151 690.741 534.109 690.741C532.963 692.563 531.137 691.786 529.453 690.96C529.302 690.963 529.14 690.987 528.984 690.991C529.003 691.01 528.994 691.002 529.016 691.022C527.857 692.18 525.718 691.827 524.828 691.179C524.443 691.201 524.188 691.184 523.797 691.21C524.047 693.469 512.269 693.626 510.266 693.96C509.898 694.022 509.673 694.301 509.453 694.554C512.977 696.159 516.697 697.027 520.797 697.772C523.077 698.187 528.461 698.095 529.891 699.522C528.249 701.163 522.67 699.695 518.047 699.054C516.934 699.397 515.497 699.176 514.016 698.835C513.173 698.926 512.443 699.095 512.016 699.522C513.502 701.011 515.953 699.96 517.297 701.304C518.342 700.851 519.56 700.911 520.516 701.866C520.153 702.225 519.686 702.365 519.266 702.616C520.803 701.38 524.942 701.323 526.359 702.741C525.132 703.971 520.339 703.961 519.078 702.741C519.072 702.747 519.052 702.736 519.047 702.741C518.05 703.261 517.016 703.478 515.984 702.554C515.003 703.031 513.733 702.8 512.422 702.491C513.675 702.537 514.772 702.36 515.547 701.585C512.835 698.873 507.534 700.884 504.703 698.054C506.474 696.282 510.454 698.014 514.016 698.835C515.111 698.717 516.556 698.847 518.047 699.054C518.521 698.908 518.972 698.722 519.328 698.366C516.776 695.815 511.023 697.342 508.516 694.835C510.849 692.502 517.374 691.643 523.797 691.21C523.774 691.007 523.532 690.762 523.297 690.522C522.953 690.601 522.605 690.693 522.266 690.741C517.374 691.44 512.056 692.155 506.703 693.085C502.225 693.863 497.716 694.781 493.484 696.054C495.819 695.318 498.438 694.473 499.141 694.272C500.301 693.941 505.129 692.152 506.172 692.804C506.347 692.913 506.527 692.98 506.703 693.085C510.183 690.311 518.401 690.702 522.578 689.866C522.991 690.115 523.084 690.306 523.297 690.522C523.745 690.42 524.19 690.34 524.641 690.241C525.021 689.879 526.03 689.585 528.141 689.585C528.427 690.45 528.516 690.419 528.797 690.679C529.01 690.782 529.225 690.848 529.453 690.96C530.95 690.924 533.076 690.742 534.109 690.741C534.128 690.712 534.154 690.679 534.172 690.647C533.725 690.385 533.21 690.248 532.828 689.866C533.902 688.792 537.139 688.279 540.359 688.366C543 688.438 545.552 688.945 546.953 689.835C547.973 688.938 553.413 688.919 555.047 689.991C555.176 689.864 555.277 689.622 555.391 689.585C555.761 689.461 561.397 690.436 566.609 691.429C569.84 692.043 573.408 692.709 573.953 692.991C574.03 692.951 574.048 692.815 574.141 692.804C578.094 692.31 592.158 696.984 596.109 698.96C596.427 698.484 596.717 698.163 596.984 697.96C596.598 696.953 597.263 694.573 597.266 694.554C597.756 691.372 598.304 680.21 600.234 678.179C599.929 677.874 599.62 677.565 599.016 676.96C598.137 677.839 598.145 677.862 597.266 678.741C596.973 678.448 596.965 678.441 596.672 678.147C597.389 676.716 596.738 675.143 598.141 673.741C599.22 674.462 600.178 674.509 600.922 674.647C600.496 674.258 600.103 673.695 599.328 673.179C593.127 669.045 595.995 664.588 599.422 662.835ZM602.797 665.022C602.59 665.333 602.499 665.711 602.328 666.054C602.696 667.045 602.355 668.511 601.703 669.304C601.735 669.496 601.638 669.714 601.703 669.897C601.606 669.845 601.549 669.762 601.453 669.71C600.966 670.033 600.342 669.97 599.609 669.054C599.218 668.564 599.06 667.513 599.328 667.022C599.725 666.295 600.262 665.387 601.078 665.241C601.471 665.171 601.761 665.328 601.984 665.554C602.275 665.382 602.505 665.172 602.797 665.022ZM478.922 665.241C482.059 667.499 481.874 668.25 479.484 670.241C478.275 669.032 477.566 666.597 478.922 665.241ZM593.172 666.71C594.31 667.849 593.765 667.027 593.766 669.647C592.625 670.028 590.812 669.631 589.953 668.772C590.96 667.765 592.126 667.756 593.172 666.71ZM487.984 667.022C489.029 667.545 490.091 667.943 490.922 668.772C489.912 669.783 488.664 669.62 487.422 670.241C487.129 669.948 487.121 669.941 486.828 669.647C487.436 668.43 486.894 668.113 487.984 667.022ZM483.891 668.991C483.844 669.401 483.869 669.811 483.609 670.241C483.492 670.436 483.28 670.562 483.141 670.741C482.65 671.514 481.912 672.387 481.078 673.272C481.451 673.616 481.81 673.771 482.141 673.897C482.219 673.839 482.36 673.803 482.422 673.741C483.84 675.159 485.152 676.886 483.297 678.741C482.033 677.898 481.688 677.497 480.766 677.804C481.195 682.305 482.986 690.064 483.297 691.929C483.477 693.005 483.347 697.748 484.172 698.366C484.67 698.739 489.032 697.436 493.141 696.147C490.09 697.081 487.159 698.186 484.484 699.522C480.65 695.687 482.544 683.641 479.797 678.147C481.109 676.835 481.36 676.18 482.734 677.554C483.971 676.317 483.324 675.29 482.422 674.085C482.335 674.063 482.23 673.932 482.141 673.897C481.803 674.15 481.403 674.395 480.953 674.616C480.66 674.323 480.684 674.347 480.391 674.054C480.678 673.766 480.822 673.545 481.078 673.272C481.031 673.229 481.001 673.226 480.953 673.179C481.669 672.361 482.473 671.597 483.141 670.741C483.525 670.137 483.728 669.57 483.891 668.991ZM485.328 669.429C485.536 669.918 486.023 670.36 486.328 670.835C487.321 671.662 488.307 672.635 488.859 673.741C487.433 675.167 485.079 673.774 483.891 672.585C484.271 672.014 484.618 671.593 484.953 671.147C485.079 670.569 485.292 670.051 485.328 669.429ZM602.172 675.866C602.263 676.204 602.323 676.626 602.266 677.272C602.107 679.029 602.301 678.955 601.953 679.304C602.356 680.416 600.38 689.357 599.016 694.147C598.679 696.039 598.459 696.69 598.109 698.241C598.855 699.105 598.892 701.428 597.578 702.179C595.142 703.571 574.733 706.39 572.953 705.679C572.884 705.65 572.859 705.563 572.797 705.522C570.524 706.883 557.289 707.296 556.266 706.272C556.368 706.172 570.993 703.089 571.484 703.335C571.632 703.408 571.721 703.555 571.828 703.679C571.918 703.662 572.02 703.662 572.109 703.647C572.993 703.182 573.922 703.241 574.703 702.46C574.515 702.272 572.485 702.2 570.922 701.897C570.564 701.986 570.204 702.081 569.859 702.147C568.04 703.467 564.42 703.642 562.078 702.647C560.426 703.809 555.724 703.981 554.484 702.741C555.576 701.648 558.773 701.184 560.891 701.741C562.645 700.28 567.238 699.835 569.453 699.835C569.461 699.858 569.478 699.874 569.484 699.897C569.584 699.768 569.59 699.666 569.734 699.522C568.858 698.647 567.979 698.598 567.141 698.429C566.99 698.464 566.854 698.486 566.703 698.522C566.737 698.564 566.782 698.617 566.797 698.647C565.525 699.918 552.178 700.716 550.984 699.522C551.192 699.313 564.707 696.244 565.328 696.616C565.347 696.627 565.37 696.694 565.391 696.71C567.339 695.205 570.881 695.986 572.672 694.554C570.382 695.208 564.347 692.827 561.828 692.491C559.828 692.224 555.572 692.729 554.047 691.397C554.879 691.5 555.722 691.519 556.547 691.616C560.364 692.066 570.403 691.722 573.234 694.554C570.34 697.447 563.845 695.755 561.234 698.366C562.449 699.581 564.55 699.039 566.703 698.522C566.646 698.45 566.59 698.38 566.547 698.304C566.736 698.373 566.943 698.389 567.141 698.429C568.737 698.056 570.331 697.793 571.609 698.304C572.653 697.357 573.994 697.345 575.016 698.366C574.235 698.887 573.497 699.11 572.672 699.522C572.492 699.343 572.4 699.282 572.297 699.179C570.222 700.801 567.064 699.849 565.328 701.585C566.347 702.604 568.017 702.506 569.859 702.147C570.001 702.045 570.211 701.983 570.328 701.866C570.317 701.844 570.308 701.826 570.297 701.804C570.526 701.873 570.663 701.847 570.922 701.897C574.709 700.961 579.049 699.18 581.172 701.304C579.089 703.386 575.228 703.141 572.109 703.647C572.036 703.686 571.963 703.694 571.891 703.741C571.87 703.72 571.848 703.701 571.828 703.679C570.521 703.915 569.346 704.286 568.547 705.085C569.599 706.138 582.362 704.003 584.672 703.647C588.208 703.104 594.064 703.186 597.266 701.585C597.453 701.492 597.81 699.578 598.109 698.241C598.048 698.17 598.024 698.04 597.953 697.991C598.135 697.798 598.653 695.421 599.016 694.147C599.403 691.97 599.804 689.583 599.922 688.991C600.799 684.604 601.465 680.241 602.172 675.866ZM524.922 677.866C527.733 677.155 530.465 681.365 526.672 683.116C523.154 684.74 521.705 678.68 524.922 677.866ZM552.453 677.866C553.988 677.647 555.222 679.263 556.266 678.741C558.318 680.794 557.615 682.723 555.078 683.991C553.518 682.432 552.336 683.675 550.984 681.647C550.179 680.44 550.816 678.1 552.453 677.866ZM502.266 682.179C505.415 682.664 507.595 687.419 504.109 688.116C501.035 688.731 495.851 683.606 500.891 682.241C501.367 682.112 501.816 682.109 502.266 682.179ZM576.484 682.241C579.429 681.531 582.262 685.51 578.234 687.522C574.977 689.151 573.418 682.981 576.484 682.241ZM503.109 700.491C504.623 700.681 506.334 701.206 508.047 701.679C507.205 701.675 506.451 701.868 505.859 702.46C506.13 702.731 506.545 702.911 506.922 703.116C504.168 702.433 501.255 701.981 500.297 702.46C499.556 701.72 499.838 702.137 499.422 701.304C500.278 700.447 501.596 700.301 503.109 700.491ZM516.359 617.179C515.632 617.069 515.007 617.124 514.641 617.491C520.792 629.793 524.434 643.994 530.453 656.304C530.639 655.835 530.757 655.346 530.766 654.429C530.857 644.273 530.957 634.114 530.766 623.96C530.739 622.556 524.762 621.072 523.266 620.022C523.191 620.093 523.237 620.051 523.141 620.147C521.801 619.478 518.537 617.505 516.359 617.179ZM523.453 625.116C526.738 625.409 525.205 627.9 526.078 629.21C522.533 632.754 519.348 627.169 523.453 625.116ZM538.391 619.835C529.744 628.162 550.849 624.596 541.328 619.835C541.328 619.835 538.625 619.609 538.391 619.835ZM483.828 658.991C483.817 659 483.808 659.013 483.797 659.022C483.826 659.044 483.854 659.061 483.891 659.116C483.626 659.47 483.105 659.832 482.484 660.147C482.269 660.391 482.015 660.586 481.828 660.866C481.542 660.771 481.342 660.706 481.109 660.616C480.78 660.715 480.47 660.878 480.141 660.929C480.621 661.14 481.099 661.407 481.641 661.897C482.341 661.629 482.873 662.16 483.609 662.897C483.694 662.855 483.716 662.829 483.766 662.804C483.633 662.671 483.531 662.569 483.297 662.335C484.462 661.17 484.411 660.731 485.078 659.397C484.621 659.245 484.218 659.103 483.828 658.991ZM509.859 653.116C509.856 653.136 509.862 653.159 509.859 653.179C510.365 654.116 510.611 655.106 510.266 655.991C510.312 656.099 510.369 656.199 510.422 656.304C512.192 657.719 513.753 659.523 516.422 658.522C518.819 657.623 519.498 650.33 516.109 650.022C512.532 649.697 512.301 650.893 509.953 653.241C509.911 653.199 509.886 653.159 509.859 653.116ZM565.672 649.679C562.184 652.258 556.956 651.882 563.828 658.772C565.063 658.8 566.374 658.8 567.391 657.929C569.013 656.538 569.408 654.005 568.859 652.085C568.442 650.62 567.049 650.086 565.672 649.679ZM478.922 660.866C478.799 661.028 478.463 661.519 478.141 661.96C478.228 661.965 478.301 661.95 478.391 661.96C479.343 662.054 480.27 662.182 480.922 662.022C480.174 661.616 479.377 661.17 478.922 660.866ZM528.797 690.679C528.391 690.483 527.87 690.24 527.547 690.147C526.606 689.879 525.624 690.026 524.641 690.241C524.328 690.539 524.427 690.886 524.828 691.179C526.382 691.089 527.617 691.028 528.984 690.991C528.822 690.831 528.877 690.753 528.797 690.679ZM601.984 665.554C600.587 666.377 599.304 667.38 599.922 668.491C600.242 669.066 600.85 669.381 601.453 669.71C601.567 669.634 601.606 669.421 601.703 669.304C601.527 668.235 601.795 667.124 602.328 666.054C602.249 665.842 602.122 665.692 601.984 665.554ZM484.953 671.147C484.846 671.641 484.841 672.208 484.641 672.616C485.629 673.51 486.833 674.331 487.984 673.179C487.242 672.435 486.835 671.625 486.328 670.835C486.096 670.641 485.87 670.413 485.641 670.241C485.327 670.555 485.166 670.864 484.953 671.147ZM572.297 699.179C572.414 699.087 572.562 699.069 572.672 698.96C572.356 698.644 571.992 698.457 571.609 698.304C571.57 698.339 571.523 698.328 571.484 698.366C571.891 698.772 572.063 698.945 572.297 699.179Z" fill="#ffffff" fill-rule="nonzero" opacity="1" stroke="none"/>
</g>
</svg>
