<?xml version="1.0" encoding="UTF-8" standalone="no"?>
<!DOCTYPE svg PUBLIC "-//W3C//DTD SVG 1.1//EN" "http://www.w3.org/Graphics/SVG/1.1/DTD/svg11.dtd">
<!-- Created with Vectornator (http://vectornator.io/) -->
<svg height="100%" stroke-miterlimit="10" style="fill-rule:nonzero;clip-rule:evenodd;stroke-linecap:round;stroke-linejoin:round;" version="1.1" viewBox="0 0 750 1000" width="100%" xml:space="preserve" xmlns="http://www.w3.org/2000/svg" xmlns:vectornator="http://vectornator.io" xmlns:xlink="http://www.w3.org/1999/xlink">
<defs/>
<g id="Layer-1" vectornator:layerName="Layer 1">
<path d="M381.565 306.556C361.272 306.97 338.527 322.094 324.753 335.869C319.725 340.896 315.611 347.401 312.44 353.744C311.759 355.107 310.656 359.984 309.221 360.462C298.304 364.101 286.269 365.28 275.221 368.962C251.752 376.785 229.283 385.894 206.378 395.056C197.073 398.778 185.401 403.383 177.378 409.4C167.982 416.447 155.914 419.846 146.628 427.275C151.292 431.939 157.227 436.206 162.721 439.869C161.426 441.811 158.542 442.495 156.565 443.681C151.425 446.765 146.176 449.659 141.034 452.744C124.436 462.703 108.497 473.935 93.0027 485.556C89.9423 487.851 76.0978 496.749 75.1277 499.337C74.2412 501.701 76.5246 506.345 77.4714 508.712C80.6534 516.667 84.1939 524.219 88.5964 531.556C93.8839 540.369 99.1501 550.609 106.471 557.931C110.234 561.693 116.206 563.115 120.253 566.15C128.089 572.027 139.191 576.225 148.378 579.9C153.904 582.11 165.458 588.994 170.94 588.994C175.429 588.994 179.891 584.587 184.128 584.587C186.532 584.587 200.19 588.541 202.284 589.587C204.372 590.631 202.873 597.376 203.159 599.525C203.932 605.324 208.018 609.652 211.659 613.9C209.584 615.974 206.393 616.819 204.034 618.587C213.424 637.367 234.753 644.519 252.659 651.681C257.518 653.625 264.123 656.087 269.378 656.087C274.418 656.087 280.171 653.922 285.19 653.15C294.464 651.723 303.939 650.778 313.315 650.525C346.986 649.615 380.249 654.459 404.721 678.931C409.092 683.302 411.619 688.743 415.253 693.587C469.283 639.557 524.787 586.817 579.909 533.9C579.714 533.705 579.591 533.348 579.315 533.337C574.436 533.15 569.573 533.382 564.69 533.337C558.733 533.284 552.767 533.308 546.815 533.025C546.539 533.012 546.417 532.627 546.221 532.431C580.379 498.274 613.093 462.537 646.409 427.556C654.507 419.053 662.646 410.611 670.721 402.087C672.201 400.526 676.04 398.877 674.846 397.087C673.842 395.581 667.768 394.727 666.034 394.15C659.526 391.98 652.829 390.077 646.128 388.587C643.538 388.012 638.292 387.783 636.471 385.962C641.443 379.747 649.724 375.344 655.784 370.15C654.145 368.511 649.344 368.326 647.003 367.806C639.411 366.119 631.812 364.51 624.159 363.119C588.22 356.584 552.313 353.36 515.753 352.556C502.617 352.267 489.263 353.744 476.19 353.15C475.914 353.137 475.794 352.777 475.628 352.556C473.984 350.364 473 346.552 471.503 344.056C467.87 338.002 463.345 332.648 458.346 327.65C447.472 316.775 431.09 310.513 416.159 308.025C414.34 307.722 411.154 306.586 409.69 306.556C400.317 306.365 390.938 306.365 381.565 306.556ZM396.221 317.4C413.16 318.091 432.48 323.502 444.846 335.869C450.449 341.471 454.29 347.585 458.909 353.744C459.843 354.989 463.217 363.976 463.596 363.994C477.046 364.634 490.793 363.578 504.315 363.994C529.34 364.764 554.306 367.502 579.034 371.306C586.874 372.512 594.697 373.845 602.471 375.4C605.423 375.99 611.529 375.988 613.596 378.056C608.46 381.909 602.605 385.516 598.065 390.056C599.863 391.854 605.211 391.986 607.753 392.712C616.171 395.117 624.633 397.256 632.94 400.025C635.678 400.938 641.941 401.775 643.503 404.119C603.624 450.644 561.194 494.999 521.315 541.525C521.608 541.818 521.616 541.826 521.909 542.119C525.577 540.284 530.12 542.076 534.221 542.119C539.788 542.176 545.346 541.93 550.909 542.119C551.185 542.128 551.307 542.517 551.503 542.712C533.538 563.243 513.157 582.093 494.065 601.587C468.474 627.717 443.379 654.437 417.034 679.806C393.625 644.693 338.751 639.075 301.878 642.025C294.336 642.628 286.76 643.577 279.315 644.931C275.901 645.552 271.97 646.994 268.503 646.994C264.787 646.994 259.461 644.094 255.878 642.9C243.515 638.779 225.361 632.813 217.815 621.494C220.577 619.422 224.144 618.384 226.596 615.931C225.147 614.481 222.365 614.075 220.721 612.431C217.659 609.368 209.803 602.049 211.346 598.962C213.246 595.163 226.172 600.497 229.815 601.306C242.656 604.16 268.741 605.357 281.378 597.775C283.507 596.497 284.96 595.257 286.659 593.369C296.825 582.072 278.301 578.563 271.409 575.806C268.707 574.725 263.693 572.955 265.253 569.056C267.808 562.666 288.871 559.795 294.284 559.119C296.813 558.803 303.225 559.24 304.815 557.65C303.214 556.048 300.328 556.869 298.065 556.775C295.429 556.665 292.796 556.537 290.159 556.462C285.863 556.342 281.582 556.181 277.284 556.181C272.595 556.181 267.908 556.337 263.221 556.462C260.584 556.533 257.951 556.649 255.315 556.775C249.764 557.039 232.425 557.946 227.753 562.619C221.158 569.214 234.441 572.438 238.596 574.931C242.287 577.145 243.013 580.49 238.596 581.962C226.616 585.956 207.956 581.919 195.253 578.744C191.789 577.878 187.03 574.931 183.534 574.931C179.693 574.931 175.851 579.619 171.815 579.619C166.333 579.619 155.857 573.017 150.409 570.837C141.771 567.382 133.934 562.866 125.815 558.806C121.724 556.76 115.979 554.533 112.628 551.181C106.815 545.369 102.491 537.098 98.2839 530.087C94.411 523.632 90.53 517.203 87.7214 510.181C87.3152 509.166 84.6293 504.005 85.3777 503.15C90.6138 497.166 99.1304 492.518 105.596 487.9C121.702 476.396 138.159 465.562 155.096 455.4C159.744 452.611 164.667 449.583 169.471 447.181C172.772 445.531 177.353 444.268 180.003 441.619C174.137 437.708 167.419 433.129 162.44 428.15C178.16 417.67 196.069 410.742 212.815 402.369C231.355 393.099 251.382 386.107 271.128 379.525C280.729 376.324 290.597 373.759 300.409 371.306C304.745 370.222 311.544 370.286 315.378 368.369C317.232 367.442 318.23 362.914 319.159 361.056C321.965 355.444 325.637 350.008 329.721 345.244C347.115 324.951 369.793 316.321 396.221 317.4ZM393.846 337.587C375.398 336.756 356.364 344.469 344.94 360.462C339.585 367.96 336.418 376.947 335.378 386.181C335.323 385.921 335.367 385.617 335.284 385.369C323.985 385.369 311.082 388.786 300.128 391.525C276.218 397.502 252.728 403.455 229.815 412.619C221.325 416.015 210.689 419.182 203.44 424.619C201.726 425.904 199.872 425.593 198.19 427.275C199.602 428.686 202.468 427.016 204.315 426.4C210.608 424.302 217.169 422.46 223.659 420.837C250.853 414.039 277.939 408.106 305.69 403.837C313.464 402.641 321.309 401.724 329.128 400.9C331.072 400.695 333.772 400.925 335.44 399.712C335.578 399.833 335.7 399.974 335.878 400.025C338.07 400.651 341.87 399.64 344.065 399.431C349.335 398.929 354.626 398.616 359.909 398.275C380.568 396.942 401.339 396.67 422.003 397.962C427.195 398.287 440.711 397.801 445.159 400.025C445.264 399.92 445.254 399.761 445.346 399.65C445.461 399.8 445.549 399.975 445.721 400.025C450.699 401.447 456.921 401.343 462.128 402.087C474.605 403.87 486.862 406.944 499.065 409.994C502.503 410.853 509.419 411.566 511.94 414.087C510.145 415.882 496.221 415.368 492.909 415.556C478.047 416.405 463.175 417.724 448.378 419.369C445.454 419.693 441.108 419.4 438.409 420.525C438.15 420.633 437.912 421.08 437.659 421.337C435.314 420.192 421.387 422.769 418.503 423.181C402.441 425.476 386.441 428.108 370.44 430.775C366.363 431.454 357.836 431.612 354.503 434.337C354.344 434.244 354.192 434.081 354.034 433.994C352.766 433.289 335.322 437.526 332.659 438.119C315.528 441.925 298.4 445.583 281.378 449.837C277.703 450.756 265.689 452.619 263.503 454.806C265.489 456.792 271.603 455.871 274.628 456.275C279.732 456.955 297.893 458.728 301.596 462.431C299.683 464.345 293.234 464.442 290.471 465.056C282.363 466.858 274.151 468.648 266.159 470.931C237.407 479.146 208.632 487.361 180.878 498.462C173.265 501.507 165.643 504.512 158.034 507.556C155.696 508.491 152.198 509.266 150.409 511.056C152.418 513.065 161.093 525.381 161.565 527.744C161.626 528.049 152.626 538.996 151.596 540.369C153.597 542.369 167.897 542.647 170.346 542.712C175.943 542.862 185.589 543.353 192.315 542.712C194.505 542.504 198.033 539.169 199.94 538.025C206.775 533.924 213.604 529.814 220.44 525.712C221.952 524.805 224.61 522.425 226.315 522.181C230.858 521.532 242.746 526.925 247.69 528.337C248.693 528.624 252.421 530.503 253.253 530.087C254.738 529.345 256.093 526.696 257.065 525.4C257.8 524.421 261.855 520.043 261.471 519.275C260.113 516.559 255.666 520.218 253.534 518.087C257.912 509.331 264.397 499.384 270.534 491.712C274.531 495.709 278.408 506.553 281.096 511.931C281.664 513.067 284.538 516.968 284.315 518.087C283.771 520.807 279.887 517.828 278.159 519.556C278.948 521.135 281.143 528.505 282.846 528.931C285.402 529.57 289.083 528.206 291.628 527.744C294.294 527.259 298.974 527.397 301.315 525.994C304.252 524.232 307.319 518.88 309.221 516.025C307.477 514.281 304.809 516.613 303.065 514.869C305.604 511.06 308.151 507.24 310.69 503.431C310.959 503.027 313.818 499.568 312.128 499.337C309.99 499.046 307.215 500.269 305.69 498.744C310.097 489.93 316.008 480.922 321.503 472.681C325.985 477.163 328.566 488.537 332.065 494.369C332.928 495.806 334.977 498.819 334.409 500.525C331.938 500.525 330.845 499.943 329.128 501.087C331.797 506.426 335.212 511.539 337.909 516.931C335.563 519.277 333.131 515.553 330.878 517.806C335.397 526.845 340.324 537.507 346.409 545.619C351.887 540.14 358.472 531.464 361.94 524.525C359.37 521.955 354.855 525.938 352.284 523.369C356.207 515.523 362.609 508.146 367.503 500.806C364.933 498.236 360.417 502.188 357.846 499.619C364.11 487.092 372.301 474.126 380.096 462.431C382.065 464.4 382.912 467.721 384.221 470.337C387.815 477.524 391.143 484.493 394.753 491.712C395.753 493.714 399.29 498.915 398.565 501.087C396.213 501.087 393.197 500.018 391.534 501.681C395.305 509.223 400.356 516.104 404.128 523.65C401.791 525.986 396.831 521.87 395.346 524.837C394.809 525.913 397.734 530.766 398.284 531.869C401.145 537.59 404.012 549.315 408.221 553.525C411.831 549.915 414.406 544.436 417.034 540.056C421.49 532.63 426.91 525.554 430.784 517.806C427.8 514.823 422.361 519.602 419.378 516.619C422.982 509.41 428.102 502.753 432.253 495.837C433.001 494.59 436.94 490.214 436.659 488.806C436.194 486.482 427.961 488.578 426.409 487.025C436.12 472.457 440.411 454.725 450.128 440.15C453.99 444.012 454.955 450.738 457.753 455.4C464.184 466.119 468.746 478.294 474.44 489.681C472.316 491.805 468.937 489.496 466.253 490.837C470.766 499.865 477.268 507.899 481.784 516.931C479.047 519.668 474.324 516.02 471.221 518.087C473.214 524.065 476.789 529.521 479.128 535.369C480.287 538.266 481.62 542.549 483.815 544.744C489.745 538.814 494.742 529.387 499.065 522.181C500.13 520.406 504.315 516.265 504.315 514.275C504.315 512.271 496.06 514.206 494.378 512.525C496.353 508.574 499.966 504.728 502.565 501.087C507.572 494.078 512.333 486.887 517.503 479.994C514.892 476.078 508.695 481.717 505.503 478.525C509.42 474.607 512.532 469.285 515.753 464.775C524.604 452.382 533.49 439.76 543.003 427.869C546.2 431.066 547.714 436.284 550.034 440.15C554.563 447.698 558.025 455.98 562.909 463.306C568.721 458.947 573.218 451.305 577.878 445.712C587.393 434.294 597.367 423.039 606.284 411.15C603.936 408.802 598.561 408.304 595.44 407.056C587.003 403.681 578.105 401.331 569.378 398.837C540.779 390.666 511.361 385.717 481.784 382.431C469.793 381.099 456.883 379.26 444.846 379.806C444.741 379.811 444.764 380.05 444.69 380.119C444.554 379.9 444.442 379.534 444.284 379.525C431.611 378.757 418.887 379.212 406.19 379.212C389.779 379.212 373.29 380.799 356.971 382.431C354.825 382.646 343.534 384.556 342.596 383.619C345.193 381.022 357.373 379.472 361.346 378.337C379.171 373.245 398.378 371.255 416.721 368.962C420.375 368.506 437.565 367.745 439.284 366.025C430.167 347.792 412.296 338.419 393.846 337.587ZM383.878 412.712C381.737 412.821 379.568 413.159 378.659 413.212C370.348 413.701 362.036 414.415 353.753 415.244C331.83 417.436 309.647 420.431 288.128 425.212C281.001 426.796 273.798 428.131 266.721 429.9C265.214 430.277 261.477 432.071 260.003 431.65C257.854 431.036 259.296 424.505 257.659 422.869C254.557 425.97 253.418 430.61 250.315 433.712C248.318 435.71 241.699 436.69 238.909 437.806C230.86 441.026 222.922 444.557 214.878 447.775C212.085 448.892 207.929 450.036 205.784 452.181C206.262 453.138 205.938 452.617 206.971 453.65C215.352 449.46 226.318 447.738 235.378 445.15C238.06 444.383 243.314 441.931 245.94 442.806C243.976 446.735 242.332 450.617 240.378 454.525C240.671 454.818 240.647 454.794 240.94 455.087C242.475 453.706 251.357 445.108 252.971 445.431C254.63 445.763 258.635 450.074 260.284 449.525C264.042 448.272 258.208 440.764 261.159 438.994C262.099 438.43 264.458 438.395 265.565 438.119C271.422 436.654 277.232 435.023 283.128 433.712C301.247 429.686 319.319 425.045 337.628 421.994C346.704 420.481 355.747 418.523 364.878 417.306C369.741 416.658 373.321 417.631 377.471 415.556C380.655 413.964 386.118 416.284 388.909 413.494C388.126 412.711 386.018 412.603 383.878 412.712Z" fill="#ffffff" fill-rule="nonzero" opacity="1" stroke="none"/>
</g>
</svg>
