<?xml version="1.0" encoding="UTF-8" standalone="no"?>
<!DOCTYPE svg PUBLIC "-//W3C//DTD SVG 1.1//EN" "http://www.w3.org/Graphics/SVG/1.1/DTD/svg11.dtd">
<!-- Created with Vectornator (http://vectornator.io/) -->
<svg height="100%" stroke-miterlimit="10" style="fill-rule:nonzero;clip-rule:evenodd;stroke-linecap:round;stroke-linejoin:round;" version="1.1" viewBox="0 0 750 1000" width="100%" xml:space="preserve" xmlns="http://www.w3.org/2000/svg" xmlns:vectornator="http://vectornator.io" xmlns:xlink="http://www.w3.org/1999/xlink">
<defs/>
<g id="Layer-1" vectornator:layerName="Layer 1">
<path d="M339.759 294.922C326.206 295.097 310.98 297.401 297.291 299.89C231.893 311.781 171.819 336.299 124.134 383.984C113.266 394.853 102.861 408.374 96.0093 422.078C94.0157 426.065 90.7034 430.145 89.5718 434.672C88.5063 438.934 85.693 443.057 84.2906 447.265C80.4574 458.765 75.7366 472.547 75.5093 484.484C75.3178 494.541 75.3179 504.584 75.5093 514.64C75.5375 516.118 76.0253 517.571 76.1031 519.047C77.0459 536.961 83.7568 556.604 91.6343 572.359C130.063 649.216 206.96 688.067 289.072 699.797C304.127 701.947 320.522 704.918 335.384 705.078C353.352 705.271 371.322 705.271 389.291 705.078C414.169 704.81 440.372 698.518 464.853 693.078C499.707 685.333 532.177 671.642 565.072 658.484C574.404 654.751 583.257 649.986 592.009 645.609C596.225 643.501 601.927 641.475 605.791 638.578C611.211 634.513 618.397 632.108 624.228 628.609C640.42 618.894 657.692 609.916 672.541 598.109C671.352 596.886 671.401 594.936 672.572 593.765C672.659 593.896 672.764 594.011 672.853 594.14C672.871 594.12 672.865 594.066 672.884 594.047C669.537 587.352 664.162 580.98 659.978 574.703C648.561 557.578 636.271 540.763 625.697 523.14C621.536 516.206 616.39 509.859 612.228 502.922C611.255 501.3 609.198 499.545 608.728 497.672C608.5 496.759 614.718 490.878 616.634 488.859C618.583 486.805 620.524 484.753 622.478 482.703C630.2 474.604 637.938 466.514 645.634 458.39C647.487 456.435 649.646 454.75 651.197 452.547C652.107 451.253 650.296 446.953 650.009 445.515C648.755 439.244 647.304 433.011 645.916 426.765C641.333 406.146 637.013 385.501 632.447 364.953C630.912 358.045 630.184 346.366 627.166 340.328C626.3 338.596 620.525 338.01 618.666 337.39C609.893 334.466 600.901 332.024 592.009 329.484C575.257 324.698 558.682 319.337 541.916 314.547C536.331 312.951 530.814 311.174 525.228 309.578C523.243 309.011 520.522 307.515 518.478 307.515C516.685 307.515 511.408 315.147 508.822 316.297C506.874 317.162 501.462 314.457 499.447 313.953C491.962 312.082 484.379 310.577 476.884 308.703C461.261 304.797 445.058 302.478 429.134 300.203C414.684 298.139 398.865 295.106 384.603 294.922C369.663 294.729 354.7 294.729 339.759 294.922ZM353.822 305.765C397.518 305.765 440.53 312.131 483.041 321.578C489.891 323.1 496.877 324.638 503.541 326.859C504.818 327.285 510.301 329.712 511.447 329.203C515.358 327.465 517.628 322.426 521.103 320.109C521.164 320.068 533.84 323.855 535.166 324.234C550.949 328.744 566.573 333.788 582.353 338.297C590.587 340.649 598.726 343.26 606.947 345.609C609.008 346.198 613.598 346.769 615.103 348.297C615.204 348.195 615.273 348.127 615.447 347.953C617.254 348.857 618.021 350.291 617.728 350.859C619.803 353.864 621.641 367.903 622.478 371.672C626.552 390.005 630.826 408.348 634.509 426.765C635.589 432.165 636.931 437.468 638.009 442.859C638.21 443.863 639.837 447.881 639.197 448.734C636.296 452.603 632.563 455.764 629.228 459.265C617.69 471.38 605.461 483.113 594.353 495.609C593.65 496.401 596.873 500.264 597.291 500.89C601.198 506.752 605.099 512.587 609.009 518.453C625.752 543.569 642.385 568.689 659.103 593.765C646.358 603.961 631.436 611.472 617.509 619.828C612.339 622.931 605.91 625.004 601.103 628.609C596.352 632.173 587.669 636.819 581.759 638.297C575.12 639.956 566.557 645.84 559.791 648.547C527.571 661.435 495.794 673.46 461.947 681.922C407.886 695.437 351.906 697.153 296.697 689.265C207.294 676.494 108.598 628.46 89.2906 531.922C86.6137 518.537 85.7216 505.206 86.6343 491.515C87.6831 475.782 90.3576 455.55 98.6656 441.703C100.73 438.261 101.355 433.679 103.916 430.265C108.162 424.603 111.383 417.467 115.634 411.515C125.785 397.306 138.312 384.888 151.697 373.734C205.652 328.772 284.422 305.765 353.822 305.765ZM672.853 594.14C672.146 594.949 672.057 597.032 672.884 597.859C672.774 597.947 672.651 598.021 672.541 598.109C672.551 598.12 672.561 598.13 672.572 598.14C673.857 597.284 673.181 597.762 674.634 596.672C674.059 595.809 673.441 594.993 672.853 594.14ZM617.728 350.859C617.647 350.743 617.591 350.378 617.509 350.297C617.216 350.59 617.209 350.598 616.916 350.89C616.538 350.639 616.119 350.42 615.728 350.203C616.781 350.937 617.543 351.218 617.728 350.859ZM615.197 349.797C614.924 349.49 614.857 349.137 615.447 348.547C615.381 348.447 615.193 348.389 615.103 348.297C614.863 348.536 614.702 348.697 614.291 349.109C614.683 349.502 614.871 349.53 615.197 349.797ZM367.853 325.859C293.848 324.768 211.572 342.555 157.541 394.547C141.023 410.441 127.958 427.025 117.978 446.984C111.762 459.417 108.692 474.248 107.166 487.984C98.1506 569.119 168.888 636.383 242.197 657.328C282.427 668.822 321.458 674.609 363.791 674.609C438.599 674.609 512.448 651.546 578.259 618.64C596.247 609.647 615.443 599.821 632.447 588.484C614.102 560.967 595.418 533.659 577.072 506.14C546.168 526.743 513.361 540.55 479.228 554.203C469.383 558.141 458.502 561 448.166 563.297C444.183 564.182 438.892 564.401 435.291 566.203C435.095 566.008 434.698 565.917 434.697 565.64C434.502 522.477 434.504 479.304 434.697 436.14C434.703 434.769 442.733 436.563 443.759 436.734C452.083 438.121 460.651 439.906 468.666 442.578C504.734 454.601 535.596 472.014 563.603 498.547C575.154 487.44 586.147 475.781 597.291 464.265C604.033 457.299 612.255 450.377 618.103 442.578C618.388 442.198 614.708 426.298 614.291 424.422C610.887 409.107 607.119 393.816 604.041 378.422C603.536 375.898 601.907 365.024 600.228 363.765C597.618 361.808 587.476 360.122 583.822 359.078C570.146 355.171 556.576 350.524 542.791 347.078C541.012 346.633 526.823 342.135 526.384 342.39C522.6 344.598 520.402 349.645 517.009 352.359C516.434 352.819 511.363 350.332 510.572 350.015C503.594 347.225 496.093 345.325 488.884 343.265C459.678 334.921 429.172 330.081 398.947 327.453C388.818 326.572 378.425 326.015 367.853 325.859ZM343.884 340.047C402.638 341.632 439.552 344.987 474.541 354.984C485.23 358.038 496.152 360.823 506.478 364.953C510.607 366.605 515.308 369.05 519.666 369.922C520.878 370.164 528.87 359.764 530.791 358.484C531.076 358.294 543.194 362.225 544.541 362.609C554.336 365.408 564.062 368.312 573.853 371.109C577.646 372.193 584.458 372.773 587.634 374.89C590.673 376.917 590.659 385.55 591.416 388.953C594.046 400.793 596.867 412.748 599.041 424.703C599.351 426.408 602.18 438.18 601.697 438.765C590.089 452.835 575.913 465.729 562.728 478.328C562.587 478.463 562.286 478.451 562.134 478.328C559.199 475.943 556.551 473.133 553.634 470.703C547.638 465.706 541.3 460.94 534.603 456.922C514.751 445.011 493.661 435.492 471.322 429.109C414.14 412.771 352.79 407.589 294.072 418.265C269.353 422.759 235.942 432.458 217.603 450.797C211.005 457.394 205.327 464.017 200.603 471.89C195.168 480.95 193.74 492.733 194.759 502.922C199.522 550.548 251.473 572.063 292.322 581.14C308.77 584.796 326.479 587.015 343.291 587.015C375.059 587.016 406.949 586.515 438.197 580.265C471.427 573.62 503.981 561.905 534.009 546.89C543.204 542.292 552.094 537.098 561.259 532.515C562.519 531.886 570.634 527.234 570.634 527.234L573.166 525.64L574.447 527.547C574.447 527.547 593.153 555.887 602.572 570.015C603.472 571.365 604.258 572.794 605.197 574.109C605.889 575.079 606.645 576.022 607.259 577.047C607.78 577.915 612.059 583.511 611.634 584.078C609.841 586.468 603.97 588.348 601.384 589.64C596.202 592.232 591.294 595.576 586.166 598.14C583.068 599.69 579.102 600.961 576.197 603.14C568.324 609.045 556.488 613.768 547.197 617.484C536.679 621.691 526.38 626.461 515.853 630.672C499.863 637.067 483.161 641.169 466.634 645.89C443.125 652.607 417.966 655.897 393.666 657.922C323.589 663.762 254.215 655.151 193.884 618.953C150.846 593.13 118.857 545.406 121.228 494.422C121.82 481.701 124.315 466.561 130.009 455.172C149.212 416.768 181.537 389.127 219.947 369.922C258.369 350.71 301.111 342.084 343.884 340.047ZM351.791 427.047C356.576 426.989 361.35 427.23 366.134 427.359C368.575 427.426 371.005 427.541 373.447 427.64C379.465 427.886 385.631 428.054 391.634 428.515C392.255 428.563 392.385 428.979 392.509 429.422C395.108 428.141 399.106 430.145 396.916 432.359C397.016 432.544 397.194 432.704 397.197 432.922C397.391 449.034 397.39 465.153 397.197 481.265C397.192 481.542 396.879 481.825 396.603 481.828C378.733 482.021 360.848 482.021 342.978 481.828C342.702 481.825 342.419 481.542 342.416 481.265C342.225 463.591 342.222 445.909 342.416 428.234C342.431 426.773 345.937 427.117 351.791 427.047ZM303.041 430.797C303.541 430.829 304.04 430.987 304.041 431.453C304.139 476.765 303.825 522.078 303.728 567.39C303.728 567.851 303.972 569.081 303.134 569.14C292.827 569.877 280.133 565.034 270.634 561.234C251.749 553.68 235.131 544.874 220.822 529.578C215.509 523.898 208.509 513.84 208.509 505.578C208.509 495.123 209.812 487.259 213.509 478.015C216.756 469.898 224.825 462.93 231.384 457.828C251.083 442.506 277.415 434.354 301.978 430.859C302.026 430.852 302.54 430.765 303.041 430.797ZM342.978 516.984C396.787 517.18 397.194 517.302 397.197 517.578C397.391 534.471 397.486 551.373 397.197 568.265C397.195 568.349 396.872 568.566 396.759 568.703C398.782 570.628 395.867 572.541 393.447 571.328C391.108 574.134 382.186 573.11 379.322 573.234C376.198 573.37 373.073 573.547 369.947 573.547C365.455 573.547 360.97 573.349 356.478 573.234C353.352 573.154 350.229 573.022 347.103 572.953C345.515 572.918 342.441 573.668 342.416 572.078C342.126 553.916 342.222 535.741 342.416 517.578C342.417 517.302 342.783 517.18 342.978 516.984ZM357.634 443.453C357.358 443.445 357.049 443.77 357.041 444.047C356.851 450.685 357.133 457.313 357.041 463.953C357.026 464.968 356.237 465.994 357.947 466.015C365.564 466.111 373.173 466.202 380.791 466.297C381.195 466.302 382.798 465.974 382.822 465.422C383.106 458.592 383.011 451.755 382.822 444.922C382.814 444.646 382.533 444.357 382.259 444.328C377.888 443.868 373.465 444.207 369.072 444.047C365.261 443.908 361.446 443.569 357.634 443.453ZM283.478 454.828C283.15 454.768 282.786 454.841 282.634 454.89C263.076 461.305 234.902 471.223 229.322 493.547C225.048 510.641 240.332 523.659 253.634 531.64C257.829 534.157 262.338 537.48 267.103 538.672C271.114 539.675 279.753 545.454 283.509 544.828C283.782 544.783 284.101 544.51 284.103 544.234C284.297 514.645 284.297 485.073 284.103 455.484C284.1 455.088 283.806 454.888 283.478 454.828ZM454.603 458.703C454.408 458.898 454.043 458.989 454.041 459.265C453.847 486.609 453.846 513.954 454.041 541.297C454.049 542.456 458.431 540.927 459.009 540.734C464.64 538.857 470.482 537.383 476.009 535.172C493.043 528.358 509.638 521.248 525.791 513.172C531.027 510.554 536.853 507.976 541.634 504.39C537.094 499.094 530.896 494.969 525.228 490.922C504.433 476.068 480.876 465.198 454.603 458.703ZM357.041 533.703C356.764 533.709 356.487 533.989 356.478 534.265C356.288 541.392 356.288 548.545 356.478 555.672C356.485 555.948 356.765 556.259 357.041 556.265C365.535 556.456 374.047 556.456 382.541 556.265C382.817 556.259 383.126 555.948 383.134 555.672C383.324 548.545 383.325 541.392 383.134 534.265C383.127 533.989 382.816 533.709 382.541 533.703C374.047 533.512 365.534 533.512 357.041 533.703Z" fill="#ffffff" fill-rule="nonzero" opacity="1" stroke="none"/>
</g>
</svg>
