<?xml version="1.0" encoding="UTF-8" standalone="no"?>
<!DOCTYPE svg PUBLIC "-//W3C//DTD SVG 1.1//EN" "http://www.w3.org/Graphics/SVG/1.1/DTD/svg11.dtd">
<!-- Created with Vectornator (http://vectornator.io/) -->
<svg height="100%" stroke-miterlimit="10" style="fill-rule:nonzero;clip-rule:evenodd;stroke-linecap:round;stroke-linejoin:round;" version="1.1" viewBox="0 0 500 500" width="100%" xml:space="preserve" xmlns="http://www.w3.org/2000/svg" xmlns:vectornator="http://vectornator.io" xmlns:xlink="http://www.w3.org/1999/xlink">
<defs/>
<g id="Layer-1" vectornator:layerName="Layer 1">
<path d="M139.101 79.3262C134.382 92.4348 130.974 100.737 128.877 104.232C126.779 107.728 123.983 110.699 120.487 113.146C116.992 115.593 109.738 118.477 98.7269 121.798C93.2213 123.458 87.7157 125.119 82.2101 126.779C84.7444 132.372 87.2787 137.965 89.813 143.558C94.8817 154.744 98.2025 162.959 99.7756 168.202C101.349 173.446 102.485 178.427 103.184 183.146C103.883 187.865 104.232 192.847 104.232 198.09C104.232 203.333 103.883 208.227 103.184 212.772C102.485 217.316 99.7756 226.055 95.0565 238.989C90.3374 251.923 87.3661 261.536 86.1426 267.828C84.9192 274.12 84.3074 281.461 84.3074 289.85C84.3074 298.24 84.9192 305.668 86.1426 312.135C87.3661 318.602 88.9391 324.457 90.8617 329.7C92.7843 334.944 95.4934 340.624 98.9891 346.741C102.485 352.859 106.417 358.539 110.787 363.783C115.156 369.026 120.225 374.095 125.993 378.989C131.761 383.882 137.179 387.902 142.247 391.048C147.316 394.194 153.346 397.253 160.337 400.224C167.328 403.196 174.582 405.643 182.098 407.565C189.613 409.488 199.226 411.585 210.936 413.857C215.9 414.82 228.659 417.316 228.659 417.316C228.659 417.316 235.284 424.37 239.513 428.801C243.184 432.646 246.854 436.492 250.524 440.337C254.107 436.492 257.69 432.646 261.273 428.801C263.758 426.135 270.748 417.266 270.748 417.266C270.748 417.266 286.822 414.158 298.24 411.76C315.718 408.09 327.166 405.293 332.584 403.37C338.002 401.448 343.421 399.088 348.839 396.292C354.257 393.495 360.2 389.738 366.666 385.018C373.133 380.299 378.726 375.493 383.445 370.599C388.165 365.705 392.359 360.636 396.03 355.393C399.7 350.15 402.759 344.994 405.206 339.925C407.653 334.856 409.488 330.487 410.711 326.816C411.935 323.146 413.071 318.689 414.12 313.446C415.168 308.202 415.867 302.959 416.217 297.715C416.566 292.472 416.654 287.928 416.479 284.082C416.304 280.237 415.78 275.693 414.906 270.449C414.032 265.206 410.973 255.156 405.73 240.3C400.487 225.443 397.603 216.267 397.078 212.772C396.554 209.276 396.292 204.295 396.292 197.828C396.292 191.361 396.729 185.506 397.603 180.262C398.477 175.019 399.525 170.475 400.749 166.629C401.972 162.784 405.118 155.094 410.187 143.558C412.721 137.79 415.256 132.023 417.79 126.255C412.459 124.769 407.128 123.284 401.797 121.798C391.136 118.827 384.931 116.904 383.183 116.03C381.435 115.156 379.425 113.671 377.153 111.573C374.881 109.476 372.784 106.767 370.861 103.446C368.939 100.125 365.705 92.0852 361.161 79.3262C358.889 72.9467 356.617 66.5671 354.344 60.1876C348.926 64.6446 343.508 69.1015 338.09 73.5584C327.253 82.4722 320.349 87.8031 317.378 89.5509C314.407 91.2987 311.785 92.5222 309.513 93.2213C307.241 93.9204 304.007 94.27 299.813 94.27C295.618 94.27 291.074 93.3961 286.18 91.6482C281.286 89.9004 277.79 88.3274 275.693 86.9292C273.595 85.5309 268.964 81.1614 261.798 73.8206C254.632 66.4798 250.787 62.8094 250.262 62.8094C249.738 62.8094 245.281 66.9167 236.891 75.1314C228.502 83.3461 222.21 88.4148 218.015 90.3374C213.82 92.26 209.538 93.4834 205.169 94.0078C200.799 94.5321 197.041 94.4447 193.895 93.7456C190.749 93.0465 187.428 91.7356 183.933 89.813C180.437 87.8905 173.271 82.3848 162.435 73.2962C157.016 68.7519 151.598 64.2076 146.18 59.6633C143.82 66.2176 141.461 72.7719 139.101 79.3262ZM149.326 68.315C150.025 68.4897 154.657 72.2475 163.221 79.5883C171.785 86.9292 177.204 91.2987 179.476 92.6969C181.748 94.0952 184.544 95.406 187.865 96.6295C191.186 97.853 195.381 98.4647 200.45 98.4647C205.518 98.4647 210.674 97.5034 215.918 95.5808C221.161 93.6582 225.443 91.4735 228.764 89.0265C232.085 86.5796 236.542 82.647 242.135 77.2288C244.931 74.5197 247.728 71.8106 250.524 69.1015C253.408 71.9854 256.292 74.8693 259.176 77.7531C264.944 83.5209 269.313 87.4535 272.285 89.5509C275.256 91.6482 278.926 93.5708 283.296 95.3187C287.665 97.0665 292.297 98.1152 297.191 98.4647C302.085 98.8143 305.93 98.6395 308.726 97.9404C311.523 97.2412 314.319 96.1926 317.116 94.7943C319.912 93.3961 326.379 88.5896 336.517 80.3749C341.585 76.2675 346.654 72.1601 351.723 68.0528C353.733 73.5584 355.743 79.064 357.753 84.5696C361.773 95.5808 364.831 102.834 366.929 106.33C369.026 109.825 371.91 113.059 375.58 116.03C379.251 119.002 386.067 121.973 396.03 124.944C401.011 126.43 405.992 127.915 410.973 129.401C408.876 134.207 406.779 139.014 404.681 143.82C400.487 153.433 397.603 160.862 396.03 166.105C394.457 171.348 393.321 176.068 392.621 180.262C391.922 184.457 391.573 190.137 391.573 197.303C391.573 204.47 391.835 209.888 392.359 213.558C392.884 217.229 393.67 220.986 394.719 224.832C395.768 228.677 398.04 235.056 401.535 243.97C405.031 252.884 407.39 260.137 408.614 265.73C409.837 271.323 410.537 278.664 410.711 287.753C410.886 296.841 410.711 303.221 410.187 306.891C409.663 310.562 408.264 316.067 405.992 323.408C403.72 330.749 400.836 337.565 397.341 343.857C393.845 350.15 389.563 356.267 384.494 362.21C379.425 368.152 373.92 373.483 367.977 378.202C362.035 382.921 356.005 386.941 349.887 390.262C343.77 393.583 338.09 396.204 332.846 398.127C327.603 400.05 315.543 403.021 296.667 407.041C285.749 409.366 268.167 413.056 268.167 413.056C268.167 413.056 261.755 420.233 259.176 423.033C256.117 426.354 253.059 429.675 250 432.996C246.941 429.675 243.883 426.354 240.824 423.033C238.41 420.413 231.13 413.007 231.13 413.007C231.13 413.007 214.918 409.475 203.596 407.041C184.894 403.021 173.096 400.137 168.202 398.389C163.309 396.641 158.152 394.369 152.734 391.573C147.316 388.776 141.461 385.018 135.169 380.299C128.877 375.58 123.895 371.298 120.225 367.453C116.555 363.608 113.409 359.937 110.787 356.442C108.165 352.946 105.543 348.839 102.922 344.12C100.3 339.401 97.9404 334.157 95.843 328.389C93.7456 322.622 92.1726 317.029 91.1239 311.61C90.0752 306.192 89.4635 299.813 89.2887 292.472C89.1139 285.131 89.7257 277.528 91.1239 269.663C92.5222 261.798 94.7069 254.195 97.6782 246.854C100.649 239.513 102.922 233.308 104.495 228.24C106.068 223.171 107.204 218.365 107.903 213.82C108.602 209.276 108.952 203.945 108.952 197.828C108.952 191.71 108.602 186.38 107.903 181.835C107.204 177.291 106.155 172.572 104.757 167.678C103.359 162.784 100.387 155.181 95.843 144.869C93.5708 139.713 91.2987 134.557 89.0265 129.401C93.6582 128.09 98.2899 126.779 102.922 125.468C112.185 122.847 117.953 120.924 120.225 119.701C122.497 118.477 124.682 116.904 126.779 114.982C128.877 113.059 131.149 110 133.596 105.806C136.043 101.611 139.101 94.27 142.772 83.7831C146.442 73.2962 148.627 68.1402 149.326 68.315ZM245.543 89.5509C242.572 92.6969 239.251 95.5808 235.581 98.2025C231.91 100.824 228.677 102.834 225.88 104.232C223.084 105.631 218.889 107.029 213.296 108.427C207.703 109.825 202.896 110.437 198.877 110.262C194.857 110.088 190.487 109.214 185.768 107.641C181.049 106.068 176.155 103.708 171.086 100.562C166.018 97.416 161.823 94.3574 158.502 91.3861C156.842 89.9004 155.181 88.4148 153.521 86.9292C152.734 89.5509 151.948 92.1726 151.161 94.7943C149.588 100.038 147.229 105.194 144.083 110.262C140.937 115.331 137.004 119.875 132.285 123.895C127.566 127.915 123.546 130.712 120.225 132.285C116.904 133.858 113.496 134.994 110 135.693C108.252 136.043 106.505 136.392 104.757 136.742C105.893 139.276 107.029 141.81 108.165 144.345C110.437 149.413 112.447 154.832 114.195 160.599C115.943 166.367 117.254 171.611 118.128 176.33C119.002 181.049 119.613 186.991 119.963 194.157C120.312 201.323 119.788 208.926 118.39 216.966C116.992 225.006 114.195 234.707 110 246.067C105.806 257.428 103.096 266.954 101.873 274.644C100.649 282.335 100.3 289.763 100.824 296.929C101.349 304.095 102.659 311.173 104.757 318.165C106.854 325.156 109.825 332.06 113.671 338.876C117.516 345.693 122.06 351.985 127.304 357.753C132.547 363.52 137.79 368.327 143.034 372.172C148.277 376.017 153.958 379.425 160.075 382.397C166.192 385.368 172.135 387.728 177.903 389.475C183.671 391.223 195.119 393.932 212.247 397.603C229.376 401.273 239.863 405.293 243.708 409.663C245.63 411.847 247.553 414.032 249.476 416.217C251.66 414.032 253.845 411.847 256.03 409.663C260.399 405.293 270.362 401.448 285.918 398.127C301.473 394.806 312.921 392.097 320.262 390C327.603 387.902 333.895 385.63 339.138 383.183C344.382 380.736 349.45 377.852 354.344 374.532C359.238 371.211 363.87 367.453 368.239 363.258C372.609 359.063 376.804 354.17 380.824 348.577C384.844 342.984 388.427 336.517 391.573 329.176C394.719 321.835 396.904 315.019 398.127 308.726C399.351 302.434 399.962 296.142 399.962 289.85C399.962 283.558 399.613 278.227 398.914 273.858C398.214 269.488 395.505 260.574 390.786 247.116C386.067 233.658 383.096 222.822 381.872 214.607C380.649 206.392 380.125 199.663 380.299 194.42C380.474 189.176 381.086 183.496 382.135 177.378C383.183 171.261 384.582 165.406 386.329 159.813C388.077 154.22 390 148.976 392.097 144.083C393.146 141.636 394.194 139.189 395.243 136.742C394.107 136.567 392.971 136.392 391.835 136.217C389.563 135.868 386.679 134.994 383.183 133.596C379.688 132.197 376.367 130.45 373.221 128.352C370.075 126.255 367.103 123.808 364.307 121.011C361.51 118.215 358.539 114.108 355.393 108.689C352.247 103.271 350.062 98.2899 348.839 93.7456C348.227 91.4735 347.615 89.2013 347.004 86.9292C344.557 88.9391 342.11 90.9491 339.663 92.9591C334.769 96.9791 330.137 100.213 325.768 102.659C321.398 105.106 317.291 106.942 313.446 108.165C309.6 109.389 305.58 110.088 301.386 110.262C297.191 110.437 293.346 110.175 289.85 109.476C286.354 108.777 282.335 107.466 277.79 105.543C273.246 103.621 268.789 101.086 264.419 97.9404C260.05 94.7943 256.554 91.823 253.933 89.0265C252.622 87.6283 251.311 86.23 250 84.8318C248.514 86.4048 247.029 87.9778 245.543 89.5509ZM254.719 104.757C257.516 107.204 261.011 109.651 265.206 112.098C269.401 114.545 273.683 116.555 278.052 118.128C282.422 119.701 286.092 120.749 289.064 121.274C292.035 121.798 295.793 122.06 300.337 122.06C304.881 122.06 308.552 121.798 311.348 121.274C314.145 120.749 318.427 119.264 324.195 116.817C329.962 114.37 334.507 112.01 337.828 109.738C339.488 108.602 341.148 107.466 342.809 106.33C343.77 108.515 344.731 110.699 345.693 112.884C347.615 117.254 350.587 121.798 354.607 126.517C358.627 131.236 361.947 134.557 364.569 136.48C367.191 138.402 370.512 140.15 374.532 141.723C376.542 142.51 378.552 143.296 380.562 144.083C379.688 146.355 378.814 148.627 377.94 150.899C376.192 155.443 374.619 160.599 373.221 166.367C371.822 172.135 370.861 177.029 370.337 181.049C369.813 185.069 369.55 190.749 369.55 198.09C369.55 205.431 370.337 213.209 371.91 221.423C373.483 229.638 376.279 239.251 380.299 250.262C384.319 261.273 386.854 270.012 387.902 276.479C388.951 282.946 389.301 289.238 388.951 295.356C388.601 301.473 387.465 307.853 385.543 314.494C383.62 321.136 380.736 327.69 376.891 334.157C373.046 340.624 368.764 346.304 364.045 351.198C359.326 356.092 354.607 360.2 349.887 363.52C345.168 366.841 340.274 369.725 335.206 372.172C330.137 374.619 323.845 376.891 316.329 378.989C308.814 381.086 298.589 383.358 285.655 385.805C272.722 388.252 264.035 389.632 260.889 390.855C257.743 392.079 255.169 393.612 253.247 395.71C252.285 396.758 250.948 398.086 249.987 399.135C248.938 398.086 244.593 392.796 243.02 392.097C241.447 391.398 230.512 389.038 211.461 385.018C192.41 380.998 180.699 378.202 176.33 376.629C171.96 375.056 166.542 372.434 160.075 368.764C153.608 365.093 147.491 360.636 141.723 355.393C135.955 350.15 131.498 345.343 128.352 340.974C125.206 336.604 122.148 330.924 119.176 323.932C116.205 316.941 114.282 311.086 113.409 306.367C112.535 301.648 112.098 296.317 112.098 290.374C112.098 284.432 112.36 279.8 112.884 276.479C113.409 273.159 115.943 265.031 120.487 252.097C125.031 239.164 127.828 230.425 128.877 225.88C129.925 221.336 130.712 216.529 131.236 211.461C131.761 206.392 131.935 200.886 131.761 194.944C131.586 189.001 131.149 183.671 130.45 178.951C129.751 174.232 128.877 169.775 127.828 165.581C126.779 161.386 125.294 156.754 123.371 151.686C122.41 149.151 121.448 146.617 120.487 144.083C122.235 143.471 123.983 142.859 125.731 142.247C129.226 141.024 132.897 139.014 136.742 136.217C140.587 133.421 144.257 129.838 147.753 125.468C151.249 121.099 153.958 116.817 155.88 112.622C156.842 110.525 157.803 108.427 158.764 106.33C160.687 107.641 162.609 108.952 164.532 110.262C168.377 112.884 172.572 115.156 177.116 117.079C181.661 119.002 185.593 120.312 188.914 121.011C192.235 121.711 196.167 122.06 200.712 122.06C205.256 122.06 210.849 121.186 217.491 119.438C224.132 117.691 229.813 115.506 234.532 112.884C239.251 110.262 243.096 107.641 246.067 105.019C249.039 102.397 251.923 102.31 254.719 104.757ZM246.33 120.487C243.883 122.235 240.737 124.07 236.891 125.993C233.046 127.915 227.453 129.838 220.112 131.761C212.772 133.683 207.353 134.732 203.858 134.907C200.362 135.081 196.43 134.907 192.06 134.382C187.691 133.858 183.321 132.897 178.951 131.498C174.582 130.1 170.912 128.614 167.94 127.041C166.44 126.247 163.399 124.783 163.399 124.783C163.399 124.783 162.078 127.141 161.386 128.352C159.988 130.799 158.065 133.421 155.618 136.217C153.171 139.014 150.462 141.636 147.491 144.083C144.52 146.53 141.985 148.277 139.888 149.326C137.79 150.375 137.266 152.385 138.315 155.356C139.364 158.327 140.5 162.872 141.723 168.989C142.947 175.106 143.733 182.884 144.083 192.322C144.432 201.76 143.908 210.849 142.51 219.588C141.111 228.327 138.14 239.251 133.596 252.36C131.324 258.914 129.051 265.468 126.779 272.022C157.366 249.126 187.953 226.23 218.539 203.333C249.126 180.437 279.713 157.541 310.3 134.644C307.066 134.644 303.833 134.644 300.599 134.644C294.132 134.644 288.801 134.207 284.607 133.334C280.412 132.46 276.392 131.324 272.547 129.925C268.702 128.527 263.982 126.168 258.389 122.847C254.955 120.807 249.708 117.789 249.708 117.789C249.708 117.789 247.274 119.813 246.33 120.487ZM231.91 211.985C174.141 255.417 123.427 292.291 123.427 292.291C123.427 292.291 124.841 298.695 124.944 299.55C125.468 303.92 126.342 308.115 127.566 312.135C128.789 316.155 131.061 321.049 134.382 326.816C137.703 332.584 141.461 337.653 145.656 342.022C149.85 346.392 153.346 349.625 156.143 351.723C158.939 353.82 161.998 355.655 165.319 357.228C166.02 357.561 169.344 358.879 169.344 358.879C169.344 358.879 214.688 326.266 263.895 289.326C326.292 242.484 351.198 221.763 356.975 217.871C356.451 214.025 355.917 204.033 355.917 197.041C355.917 190.05 356.442 183.146 357.49 176.33C358.539 169.513 359.763 163.658 361.161 158.764C361.862 156.311 363.138 151.354 363.138 151.354C363.138 151.354 358.883 148.448 356.704 146.966C352.334 143.995 348.402 140.587 344.906 136.742C344.162 135.924 339.824 130.736 339.824 130.736C339.824 130.736 288.462 169.468 231.91 211.985ZM313.446 165.056C313.62 165.056 313.795 165.056 313.97 165.056C313.97 173.883 313.97 182.709 313.97 191.536C313.97 200.362 313.97 209.189 313.97 218.015C318.602 214.519 323.233 211.024 327.865 207.528C332.497 204.033 337.128 200.537 341.76 197.041C341.848 200.1 341.935 203.159 342.022 206.217C342.075 208.056 341.852 214.347 341.852 214.347C341.852 214.347 330.25 224.349 319.738 232.172C312.222 237.765 304.707 243.358 297.191 248.951C297.191 238.814 297.191 228.677 297.191 218.539C297.191 198.265 296.841 187.603 296.142 186.554C295.443 185.506 294.307 184.719 292.734 184.195C291.161 183.671 290.374 183.234 290.374 182.884C290.374 182.534 294.132 179.476 301.648 173.708C309.163 167.94 313.096 165.056 313.446 165.056ZM284.082 186.554C284.17 198.702 284.257 210.849 284.345 222.996C284.461 239.244 283.69 258.607 283.69 258.607C283.69 258.607 278.478 264.137 276.742 265.468C274.12 267.478 271.498 269.488 268.876 271.498C268.876 267.129 268.876 262.759 268.876 258.389C268.876 254.02 268.876 249.65 268.876 245.281C268.614 245.368 268.352 245.456 268.09 245.543C267.566 245.718 264.594 247.903 259.176 252.097C256.805 253.933 250.455 257.985 250.455 257.985C250.455 257.985 251.049 266.747 251.049 271.76C251.049 280.674 248.34 287.054 242.921 290.899C240.212 292.821 237.503 294.744 234.794 296.667C234.794 286.791 234.794 276.916 234.794 267.041C234.794 247.291 234.532 236.717 234.008 235.318C233.483 233.92 232.609 232.784 231.386 231.91C230.162 231.036 229.201 230.599 228.502 230.599C228.152 230.599 227.803 230.599 227.453 230.599C227.453 230.425 227.453 230.25 227.453 230.075C227.453 229.725 231.211 226.667 238.727 220.899C246.242 215.131 250.175 212.247 250.524 212.247C250.699 212.247 250.874 212.247 251.049 212.247C251.049 216.617 251.049 220.986 251.049 225.356C251.049 229.725 251.049 234.095 251.049 238.464C253.758 236.542 256.467 234.619 259.176 232.697C264.594 228.851 267.566 226.667 268.09 226.142C268.614 225.618 268.876 220.812 268.876 211.723C268.876 206.105 268.569 198.052 268.569 198.052C268.569 198.052 274.544 193.791 276.479 192.322C279.014 190.4 281.548 188.477 284.082 186.554ZM273.333 300.599C244.232 322.534 215.131 344.469 186.03 366.404C194.769 368.239 203.508 370.075 212.247 371.91C229.725 375.58 239.688 377.852 242.135 378.726C244.582 379.6 246.592 380.736 248.165 382.135C249.738 383.533 251.223 383.533 252.622 382.135C254.02 380.736 255.68 379.688 257.603 378.989C259.526 378.289 266.779 376.716 279.363 374.269C291.947 371.822 301.997 369.638 309.513 367.715C317.029 365.793 323.233 363.695 328.127 361.423C333.021 359.151 337.391 356.704 341.236 354.082C345.081 351.46 349.188 347.965 353.558 343.595C357.927 339.226 361.423 335.031 364.045 331.011C366.666 326.991 368.939 322.534 370.861 317.64C372.784 312.746 374.095 308.464 374.794 304.794C375.493 301.123 375.93 297.54 376.105 294.045C376.279 290.549 376.105 286.529 375.58 281.985C375.056 277.441 372.434 268.439 367.715 254.981C365.356 248.252 362.996 241.523 360.636 234.794C331.535 256.729 302.434 278.664 273.333 300.599ZM220.112 235.318C220.287 235.318 220.462 235.318 220.637 235.318C220.637 247.378 220.637 259.438 220.637 271.498C220.637 286.508 219.792 307.107 219.792 307.107C219.792 307.107 214.163 312.386 211.985 313.97C209.101 316.067 206.217 318.165 203.333 320.262C200.45 315.805 197.566 311.348 194.682 306.891C191.798 302.434 188.914 297.977 186.03 293.521C186.03 300.25 186.03 306.979 186.03 313.708C186.03 320.608 185.349 333.237 185.349 333.237C185.349 333.237 180.543 337.789 177.903 339.663C175.194 341.585 172.485 343.508 169.775 345.431C169.775 335.293 169.775 325.156 169.775 315.019C169.775 294.744 169.338 283.908 168.465 282.509C167.591 281.111 166.367 280.062 164.794 279.363C164.008 279.014 163.221 278.664 162.435 278.315C166.192 275.605 169.95 272.896 173.708 270.187C177.466 267.478 181.224 264.769 184.981 262.06C188.215 267.129 191.448 272.197 194.682 277.266C197.915 282.335 201.149 287.403 204.382 292.472C204.382 284.869 204.382 277.266 204.382 269.663C204.382 259.108 204.228 246.748 204.228 246.748C204.228 246.748 210.435 242.262 211.985 241.086C217.054 237.241 219.763 235.318 220.112 235.318Z" fill="#ffffff" fill-rule="nonzero" opacity="1" stroke="none" vectornator:layerName="Curve 1"/>
</g>
</svg>
