<?xml version="1.0" encoding="UTF-8" standalone="no"?>
<!DOCTYPE svg PUBLIC "-//W3C//DTD SVG 1.1//EN" "http://www.w3.org/Graphics/SVG/1.1/DTD/svg11.dtd">
<!-- Created with Vectornator (http://vectornator.io/) -->
<svg height="100%" stroke-miterlimit="10" style="fill-rule:nonzero;clip-rule:evenodd;stroke-linecap:round;stroke-linejoin:round;" version="1.1" viewBox="-150 0 1050 467" width="100%" xml:space="preserve" xmlns="http://www.w3.org/2000/svg" xmlns:vectornator="http://vectornator.io" xmlns:xlink="http://www.w3.org/1999/xlink">
<defs/>
<g id="Layer-1" vectornator:layerName="Layer 1">
<path d="M713.5 10.5625C700.209 13.9382 681.447 9.42433 673.625 20.6875C657.121 44.4523 656.476 75.9692 648.719 103.844C642.359 126.697 637.136 149.974 628.406 172.031C624.662 181.493 617.214 190.499 607.969 194.75C601.807 187.108 600.916 175.667 601.969 165.906C603.497 151.73 605.441 137.521 609.25 123.781C618.101 91.8513 629.669 60.7105 639.875 29.1875C631.146 26.7807 621.642 30.7305 613.094 33.7188C588.016 42.4853 584.274 69.4686 579.375 92.75C573.283 121.698 570.567 153.231 554.062 177.781C543.193 193.95 530.872 209.146 518.156 223.906C512.807 230.116 503.54 237.304 494.719 238.5C490.786 239.033 486.119 233.684 485.25 230.875C482.925 223.357 477.922 214.951 480.875 207.656C484.388 198.978 495.541 195.967 502.062 189.25C528.436 162.085 544.897 125.216 543.344 86.9688C543.037 79.4246 535.621 63.7473 527.938 61.2812C513.423 56.6227 496.144 68.363 486.188 79.9062C479.179 88.0317 473.897 97.6092 469.25 107.281C449.318 148.767 444.052 200.703 455.906 244.969C463.822 274.526 494.311 274.478 516.375 259.5C527.271 252.103 536.94 242.869 545.625 232.969C554.223 223.168 560.467 211.51 567.875 200.781C576.679 245.769 610.087 232.847 633.25 205.75C631.508 214.445 633.55 224.902 628.031 231.844C623.531 237.504 613.959 235.424 607.344 238.344C597.101 242.865 587.226 248.303 577.625 254.062C553.6 268.475 532.233 289.431 523.719 316.719C520.534 326.926 522.022 333.193 529.594 341.281C543.772 356.426 570.802 348.78 586.438 342C627.36 324.253 645.247 285.576 659.188 246.469C675.111 247.07 692.044 253.865 706.969 248.281C717.528 244.331 720.809 230.474 727.062 221.094C727.781 220.017 727.461 218.53 727.656 217.25C705.773 215.796 688.583 220.443 667.281 223.562C666.017 223.748 664.836 222.719 663.625 222.312C678.461 151.328 695.493 80.81 713.5 10.5625ZM517.281 92.75C524.949 96.9003 523.726 108.745 522.375 114.875C516.424 141.88 502.143 164.888 481.125 182.531C478.499 173.638 485.167 159.588 487.406 152.125C493.97 130.244 497.768 107 517.281 92.75ZM622.281 252.906C626.219 252.01 620.257 265.769 618.75 268.312C608.43 285.731 597.654 299.683 580.812 310.75C559.718 324.612 542.429 319.92 561.656 294.438C567.201 287.09 573.744 280.827 581.094 275.312C593.33 266.132 608.104 256.132 622.281 252.906ZM726.219 26.6875C721.596 26.9568 721.592 26.9495 716.969 27.2188C705.299 84.4391 689.367 140.782 678.812 198.219C677.77 203.894 675.211 208.544 675.375 215.281C679.516 208.662 691.591 214.195 694.031 195.438C701.42 138.654 715.494 82.9366 726.219 26.6875ZM654.969 46.7188C641.882 47.5159 637.419 64.1685 636.844 63.5938C629.462 88.3534 618.547 115.888 614.25 140.938C611.903 154.617 610.123 165.829 613.719 179.562C619.679 171.662 619.699 173.518 623.594 158.375C625.197 152.143 628.573 140.753 630.438 134.594C639.247 105.492 646.796 76.0058 654.969 46.7188ZM82 89.6562C75.1027 91.4444 67.8335 92.1595 61.3125 95.0312C2.27602 121.03 5.65274 220.48 17.625 269.75C25.1761 300.825 43.9881 323.442 76.25 329.531C59.2423 338.35 33.3202 359.16 31.5312 380.906C27.2987 432.357 77.4998 473.114 105 415.312C108.865 407.19 111.84 398.643 114.438 390.031C117.469 379.982 120.116 369.796 121.812 359.438C124.165 345.072 126.114 330.55 126.562 316C127.521 284.887 126.957 253.739 126.031 222.625C124.665 176.715 112.415 135.313 82 89.6562ZM65.125 127.188C75.0494 133.364 81.2045 177.422 82.5625 189.312C85.1488 211.959 88.6268 234.566 90.0938 257.312C91.43 278.032 93.3092 299.364 88.5 319.562C67.7496 314.887 57.005 289.942 52.1562 271.812C41.9729 233.736 38.3324 192.096 51.9062 154.312C56.3333 141.99 56.515 136.503 65.125 127.188ZM85.4375 339.5C91.2717 338.132 88.5463 350.153 87.375 355.969C84.8891 368.311 77.5792 408.61 68.5625 415.969C58.5033 424.179 51.5851 416.212 51.7188 404.25C51.8716 390.572 51.6137 381.349 57.8125 369.562C64.4318 356.976 71.8368 342.688 85.4375 339.5ZM427.438 95.3125C420.412 95.908 412.077 102.093 409.25 104.594C401.249 111.671 393.402 119.445 388.156 128.75C366.538 167.102 356.604 210.958 341.938 252.469C337.892 263.918 334.409 265.832 326.438 273.969C318.887 266.418 321.306 252.753 322.625 242.156C326.356 212.189 333.196 182.707 337.25 152.781C337.552 150.551 336.607 148.213 335.625 146.188C332.568 139.883 317.138 140.989 315.531 141.031C311.515 141.136 307.832 143.584 303.844 144.062C295.831 145.023 287.722 145.578 279.656 145.312C267.558 144.914 267.861 141.799 259.406 133.344C250.15 139.413 250.729 157.056 255.969 165.906C257.778 168.962 262.794 170.135 263.25 173.656C264.319 181.919 261.722 190.28 260.188 198.469C254.801 227.221 243.608 256.975 227.312 281.344C222.635 288.338 217.644 295.185 211.844 301.281C209.007 304.263 200.381 314.054 193.5 310.375C186.206 306.475 179.957 293.69 182.375 286.25C184.362 280.136 192.739 278.462 196.938 273.594C203.001 266.563 208.225 258.793 212.969 250.812C222.919 234.072 242.367 154.915 199.469 160.781C181.792 163.198 170.966 179.138 163.844 193.812C148.327 225.784 146.881 267.398 154.781 301.531C156.971 310.994 165.399 325.293 171.188 331.594C190.727 352.864 217.126 328.469 229.5 313.438C234.103 307.846 238.198 301.798 241.719 295.469C248.31 283.621 254.431 271.489 259.781 259.031C270.936 233.061 277.238 205.153 282.781 177.438C292.944 177.278 292.931 177.253 303.094 177.094C301.605 212.07 285.787 250.335 297.719 285.062C309.09 318.161 335.552 302.157 350.969 281.625C355.982 274.948 359.163 267.062 363.25 259.781C377.66 278.103 406.514 298.616 426.25 272.281C430.352 266.808 433.615 260.179 434.312 253.375C435.853 238.345 434.996 223.044 432.812 208.094C429.914 188.245 419.678 169.402 419.812 149.344C419.933 131.27 426.922 113.66 433.781 96.9375C431.982 95.5537 429.779 95.114 427.438 95.3125ZM391.781 171.375C392.099 171.361 392.425 171.442 392.75 171.656C401.668 177.533 396.33 192.57 399.281 202.688C401.094 208.904 404.188 214.799 405.25 221.188C407.113 232.396 409.161 246.61 402.75 256.969C398.589 263.691 383.983 260.895 380.5 254.812C370.146 236.729 374.666 219.265 381.219 201.219C383.098 196.043 387.017 171.592 391.781 171.375ZM204.625 188.906C220.804 204.6 193.891 253.031 180.875 263.969C175.332 259.598 180.279 249.786 181.375 242.812C183.479 229.421 189.499 193.599 204.625 188.906ZM552.875 97.4688C548.323 98.6439 552.516 110.08 551 115.344C541.412 148.628 526.459 177.397 502.25 201.938C498.51 205.729 491.025 206.589 489.594 211.719C488.342 216.208 489.046 221.034 489.312 225.688C489.343 226.229 489.936 226.744 490.469 226.844C494.602 227.617 501.553 221.658 504.438 219.125C509.759 214.453 514.828 209.456 519.594 204.219C538.559 183.377 548.208 160.02 557.906 136.031C559.743 131.487 560.361 99.0324 555.406 97.625C554.356 97.3267 553.525 97.3009 552.875 97.4688ZM112.25 104.219C113.779 113.255 121.167 137.693 121.844 141.375C136.712 222.331 140.821 307.437 122.5 388.156C117.896 408.439 108.882 433.437 90 444.75C81.2423 449.997 65.0023 441.546 63.3438 451.781C99.3467 469.113 119.207 435.435 128.312 403.75C132.117 390.512 133.314 376.632 136.938 363.344C138.381 358.05 141.689 353.164 142.031 347.688C143.254 328.113 144.608 308.517 144.844 288.906C145.154 263.104 144.071 237.301 143.688 211.5C142.73 211.692 139.903 182.671 137.875 168.188C137.2 163.368 135.457 158.651 134.375 153.906C133.35 149.411 132.702 145.264 131.625 140.781C129.061 130.113 125.779 119.593 121.781 109.375C120.246 105.45 115.444 105.088 112.25 104.219ZM442.219 111.438C437.84 112.95 432.253 123.142 430.312 126.062C425.858 135.422 428.386 146.728 428.375 157.094C428.37 161.989 428.459 167.125 430.312 171.656C436.741 168.424 435.657 143.691 436.906 137.625C437.579 134.358 447.439 116.282 446 113.406C444.994 111.395 443.678 110.933 442.219 111.438ZM64.6875 134.75C60.6694 143.523 51.8538 170.127 50.6875 178.062C44.6263 219.305 51.4614 233.796 55.8438 266.25C56.9117 274.159 61.1781 288.541 68.1875 293.625C72.7859 289.584 66.6086 277.329 65.9062 273.562C61.8358 251.735 58.125 236.336 58.125 220.562C58.125 192.736 58.1159 179.57 64.9688 153.5C66.7574 146.696 69.247 139.655 64.6875 134.75ZM347.531 158.375C338.575 187.408 331.457 213.389 328.812 243.656C328.476 247.506 328.249 255.073 329.438 258.75C339.879 233.252 347.716 205.525 352.406 178.375C354.297 167.432 352.463 167.558 347.531 158.375ZM293.031 182.375C285.358 182.944 291.433 188.967 283.812 208.562C275.103 230.958 271.76 250.453 262.406 272.031C251.382 297.461 236.553 318.928 216.5 338.719C207.498 347.603 187.841 339.808 182.938 347.656C211.6 367.675 238.841 340.203 252.062 315.719C253.574 312.919 256.253 311.176 261.438 301.219C266.622 291.261 269.702 284.2 272.812 275.875C283.772 246.541 297.505 214.903 297.219 182.438C295.48 182.32 294.127 182.294 293.031 182.375ZM233.875 193.219C233.903 200.768 232.629 208.562 232.188 213.438C231.178 224.58 229.161 235.883 224.656 246.125C219.189 258.554 211.219 271.342 201.406 280.844C197.951 284.19 190.799 287.058 189.219 292.531C184.308 309.534 204.516 295.63 207.812 291.906C222.252 275.593 233.576 260.979 240.094 236.312C246.612 211.646 245.614 200.853 233.875 193.219ZM388.906 201.344C378.531 213.664 379.409 234.042 384.5 248.938C386.313 248.251 388.441 240.91 388.281 236.312C387.805 222.6 393.979 206.463 388.906 201.344ZM569.031 224.531C551.715 233.792 537.441 258.239 517.656 270.125C504.135 278.248 490.017 275.735 475.344 276.75C472.749 290.885 502.35 288.256 508.75 287.531C528.335 285.315 545.947 266.926 559.062 253.719C567.763 244.957 579.283 235.007 569.031 224.531ZM735.5 234.031C717.159 234.766 726.058 253.306 710.312 256.969C696.654 260.146 682.231 253.725 668.281 255.156C665.438 255.448 662.128 273.099 658.688 280.094C646.141 305.607 628.169 326.782 604.719 342.781C590.808 352.271 574.968 356.134 558.375 357.5C551.847 358.037 542.872 354.204 538.812 359.344C592.469 394.026 647.299 328.41 669 285.969C671.973 280.154 674.969 267.312 674.969 267.312C674.969 267.312 686.498 267.628 693.219 268.469C698.527 269.132 705.188 270.57 710.406 271.75C726.358 275.358 736.4 244.745 739.531 234.125C738.051 234.006 736.723 233.982 735.5 234.031ZM445 236.312C436.48 236.11 441.474 255.845 441.406 257.875C441.191 264.357 435.453 277.322 429.906 282.406C421.447 290.159 409.524 293.32 398.125 291.969C394.282 291.513 385.741 288.112 386.5 291.906C387.198 295.394 391.922 298.271 395.438 298.875C410.665 301.491 431.295 308.13 440.781 287.812C443.513 281.962 447.821 276.296 448.062 269.844C448.37 261.641 448.363 253.427 448.312 245.219C448.298 242.818 449.172 236.412 445 236.312ZM600.438 273.594C590.607 273.202 585.151 285.109 578.219 291.594C575.615 294.029 572.722 296.153 570.094 298.562C564.054 304.099 567.659 311.863 574.844 306.312C579.061 303.055 611.751 274.045 600.438 273.594ZM365.156 275.875C354.934 288.782 338.467 317.662 317.25 310.375C314.293 321.503 333.885 321.822 340.625 319.562C348.576 316.896 387.277 283.231 365.156 275.875ZM80.375 355.281C79.1869 355.679 79.1751 355.683 70.875 364.406C60.286 379.148 58.4406 386.776 58.1562 405.281C58.1473 405.863 57.6174 414.381 60.8438 414.75C68.9255 415.674 66.4358 399.309 67.2812 391.219C67.8539 385.739 74.8311 379.244 76.375 373.969C80.0382 361.452 79.4085 366.15 80.375 355.281Z" fill="#ffffff" fill-rule="nonzero" opacity="1" stroke="none"/>
</g>
</svg>
