<?xml version="1.0" encoding="UTF-8" standalone="no"?>
<!DOCTYPE svg PUBLIC "-//W3C//DTD SVG 1.1//EN" "http://www.w3.org/Graphics/SVG/1.1/DTD/svg11.dtd">
<!-- Created with Vectornator (http://vectornator.io/) -->
<svg height="100%" stroke-miterlimit="10" style="fill-rule:nonzero;clip-rule:evenodd;stroke-linecap:round;stroke-linejoin:round;" version="1.1" viewBox="0 0 750 1000" width="100%" xml:space="preserve" xmlns="http://www.w3.org/2000/svg" xmlns:vectornator="http://vectornator.io" xmlns:xlink="http://www.w3.org/1999/xlink">
<defs/>
<g id="Layer-1" vectornator:layerName="Layer 1">
<path d="M540.945 200.141C543.979 203.934 547.364 207.367 550.601 210.984C552.492 213.099 554.362 215.256 556.195 217.422C559.892 221.792 574.279 238.451 572.007 245.266C571.57 246.576 570.511 247.881 569.07 247.891C554.909 247.987 540.761 248.107 526.601 248.203C512.734 248.297 498.843 248.3 484.976 248.203C483.949 248.196 482.896 247.076 482.351 246.422C478.205 241.446 491.691 225.153 494.351 221.828C495.694 220.149 497.087 218.47 498.476 216.828C500.575 214.348 502.723 211.915 504.913 209.516C507.275 206.929 511.111 202.868 513.413 200.422C502.007 200.414 500.864 200.429 490.601 200.422C490.601 200.422 486.108 201.188 484.726 201.266C481.998 201.42 479.175 201.827 476.32 202.297C470.656 203.229 464.994 204.474 462.976 204.922C462.788 204.964 462.734 204.99 462.757 204.984C450.632 207.677 430.999 211.918 417.945 221.453C417.891 221.493 417.66 221.635 417.445 221.797C415.829 223.009 413.226 225.006 410.726 226.766C408.31 228.465 406.507 229.547 406.507 229.547C406.507 229.547 407.127 229.391 404.695 229.016C402.401 228.662 399.872 228.022 396.57 227.828C254.445 219.468 129.623 327.663 120.413 470.422C118.153 505.452 122.735 539.346 133.601 571.984C132.853 572.188 132.034 572.346 131.445 572.641C127.154 574.786 125.831 577.358 124.882 578.734C123.83 580.26 123.012 581.634 123.007 581.641C118.337 588.179 114.195 594.807 110.226 601.422C94.4822 627.661 84.7435 658.315 82.1634 689.047C77.9659 755.523 109.101 799.859 109.101 799.859C109.101 799.859 112.358 795.829 112.913 795.172C117.282 790.009 121.974 785.062 126.976 780.516C142.77 766.157 161.516 754.98 181.195 747.109C199.205 739.905 218.408 735.48 237.726 733.641C245.534 732.897 253.336 732.864 261.163 732.453C262.414 732.387 264.218 731.795 265.257 731.016C268.044 728.926 268.91 726.811 270.82 724.266C293.438 735.575 319.103 742.386 344.07 745.953C484.025 765.947 616.43 668.189 637.913 528.547C643.927 489.459 641.079 450.596 630.288 412.828C626.817 400.679 622.177 388.387 616.538 377.109C615.277 374.586 608.32 363.323 608.32 361.578C608.32 360.505 612.617 359.563 613.601 359.234C617.744 357.853 623.248 356.014 626.788 353.359C638.576 344.519 650.742 337.384 658.726 324.078C660.17 321.672 666.052 311.618 667.32 303.359C668.587 295.101 668.15 288.954 668.163 282.828C668.186 272.263 665.438 243.294 643.851 227.078C631.251 217.614 617.989 210.813 604.382 206.359C586.568 200.528 570.195 200.141 570.195 200.141L540.945 200.141ZM564.101 210.391C573.772 210.149 583.581 211.004 593.101 212.734C624.189 218.387 658.726 241.519 658.726 276.609C658.726 301.895 652.878 322.541 631.476 337.828C623.404 343.594 614.804 347.604 605.413 350.734C601.345 352.091 595.981 352.062 592.226 353.672C591.902 353.81 591.632 354.195 591.632 354.547C591.632 355.894 594.401 358.892 595.132 360.109C598.468 365.668 601.611 371.317 604.507 377.109C613.08 394.255 619.992 412.527 624.163 431.297C637.935 493.268 628.484 560.982 595.726 615.578C537.877 711.992 422.46 759.855 313.32 728.672C288.062 721.456 264.013 710.728 242.132 696.141C235.463 691.695 228.993 686.873 222.788 681.797C220.24 679.712 217.43 676.196 214.57 674.766C209.586 679.749 214.896 689.315 218.382 693.797C226.733 704.534 238.337 708.373 248.57 716.047C251.557 718.287 256.238 718.465 258.82 721.047C257.341 722.525 243.333 722.383 241.538 722.516C228.681 723.468 215.944 725.547 203.445 728.672C167.815 737.579 136.919 755.072 110.882 781.109C108.148 778.375 107.022 773.224 105.601 769.672C101.508 759.44 98.3877 748.544 96.2259 737.734C94.093 727.07 92.4134 716.13 92.4134 705.234C92.4134 671.296 102.208 636.17 119.663 607.078C123.56 600.584 127.56 594.23 131.976 588.047C133.045 586.551 134.712 583.273 136.351 582.453C137.849 581.704 137.76 590.047 137.82 590.672C138.46 597.395 140.309 603.597 141.913 610.016C144.476 620.265 159.296 624.851 166.82 617.328C161.153 605.994 154.284 595.506 149.538 583.641C135.132 547.625 128.862 510.197 131.382 471.141C140.196 334.526 259.765 230.819 395.913 238.828C399.46 239.037 406.572 241.119 409.976 239.984C413.176 238.918 420.94 232.933 424.038 230.609C434.154 223.023 453.296 218.351 465.351 215.672C469.268 214.801 487.432 210.784 489.382 212.734C478.256 221.079 451.001 248.378 477.663 257.266C480.727 258.287 484.079 259.016 487.32 259.016C513.394 259.016 539.496 258.923 565.57 258.734C568.46 258.713 571.3 257.669 574.038 256.984C576.511 256.366 578.753 253.689 580.195 251.984C588.482 242.19 576.941 226.292 570.538 218.609C568.313 215.939 565.965 213.442 563.507 210.984C563.702 210.789 563.825 210.398 564.101 210.391ZM586.257 221.641C585.675 221.669 585.185 221.806 584.882 222.109C596.565 233.792 597.135 255.795 581.976 264.891C576.972 267.893 570.458 269.536 564.663 269.578C539.176 269.765 513.714 269.859 488.226 269.859C464.991 269.859 444.707 250.426 461.538 227.984C460.001 226.447 456.366 228.328 454.507 228.859C448.079 230.696 441.948 233.233 436.07 236.172C408.528 249.942 392.132 269.157 392.132 300.641C392.132 323.009 411.237 338.743 431.663 342.828C441.183 344.732 449.722 344.106 459.788 344.578C460.064 344.591 460.328 344.901 460.382 345.172C460.704 346.78 458.294 350.593 457.757 352.203C455.424 359.201 452.559 366.135 449.82 372.984C442.027 392.466 435.362 412.41 427.57 431.891C425.01 438.289 422.816 444.805 420.257 451.203C419.394 453.361 418.982 456.01 417.32 457.672C410.475 450.827 404.797 442.161 398.851 434.516C386.089 418.107 372.957 401.987 360.195 385.578C344.926 365.947 330.737 349.859 304.82 349.859C284.33 349.859 269.351 370.39 261.163 386.766C254.712 399.668 250.728 414.04 245.351 427.484C232.016 460.821 220.593 494.927 207.257 528.266C201.714 542.122 196.988 556.314 191.445 570.172C190.599 572.287 185.846 582.648 186.163 584.234C186.417 585.503 190.885 583.6 191.726 583.359C197.804 581.623 203.967 580.085 210.195 578.953C225.728 576.129 241.589 575.116 257.351 575.734C267.357 576.127 277.352 577.307 287.226 578.953C288.877 579.228 297.979 581.619 298.945 581.297C300.367 580.823 300.801 577.235 301.288 576.016C303.228 571.167 304.911 566.21 306.851 561.359C312.979 546.038 318.316 530.399 324.445 515.078C326.5 509.939 327.876 500.803 331.757 496.922C336.191 501.356 338.493 509.097 341.726 514.484C349.12 526.807 355.145 539.975 362.538 552.297C365.214 556.756 367.807 561.396 370.132 566.047C370.355 566.493 372.446 569.517 372.195 569.859C366.059 578.226 357.383 585.51 350.226 593.016C346.175 597.264 340.206 605.692 333.538 607.359C328.671 608.576 324.007 610.531 318.882 611.172C289.236 614.878 259.001 607.671 229.226 609.422C215.632 610.222 202.054 612.259 189.382 617.328C175.226 622.99 163.3 636.714 146.32 629.922C141.225 627.884 134.81 621.759 133.413 616.172C132.892 614.085 132.03 610.352 130.507 608.828C125.663 613.672 122.763 622.783 120.257 629.047C111.812 650.161 104.296 671.853 103.538 694.953C103.214 704.834 103.336 714.253 104.726 723.984C106.17 734.094 108.649 743.764 111.445 753.547C112.229 756.293 112.922 759.992 114.976 762.047C117.401 760.834 119.775 758.158 122.007 756.484C127.469 752.388 133.145 748.283 139.007 744.766C154.195 735.653 169.614 727.532 186.445 721.922C195.817 718.798 205.602 716.469 215.445 715.484C218.858 715.143 223.764 716.541 226.288 714.016C224.281 712.008 221.247 710.782 218.976 709.016C214.031 705.169 209.604 700.916 206.382 695.547C194.43 675.627 211.016 655.496 231.57 653.078C263.796 649.287 290.68 668.047 320.913 674.766C371.748 686.062 427.493 669.101 459.788 627.578C477.492 604.817 484.406 576.581 494.945 550.234C513.869 502.923 530.239 454.577 549.163 407.266C554.902 392.919 559.832 378.266 565.57 363.922C567.945 357.982 569.315 350.648 572.601 345.172C573.373 343.885 579.027 344.432 580.507 344.297C587.649 343.648 594.714 342.14 601.601 340.172C620.882 334.663 637.402 322.123 644.945 303.266C654.542 279.272 645.231 250.819 624.726 236.172C621.048 233.545 616.533 230.241 612.132 229.141C605.31 227.435 598.975 224.115 591.913 222.703C590.624 222.445 588.002 221.554 586.257 221.641ZM381.601 263.641C379.145 263.835 376.65 264.297 374.257 264.297C371.671 264.297 366.391 264.652 363.413 264.891C339.717 266.786 317.075 272.52 295.132 281.297C206.393 316.793 150.432 410.162 157.445 504.828C158.871 524.083 162.543 544.512 169.757 562.547C171.744 567.514 173.047 575.211 176.788 578.953C180.185 575.557 181.407 567.094 183.226 562.547C188.344 549.751 192.763 536.657 197.882 523.859C211.378 490.119 223.042 455.663 236.538 421.922C243.974 403.332 249.384 383.632 261.163 367.141C265.434 361.162 270.206 355.155 276.101 350.734C308.258 326.617 341.665 344.862 363.101 372.422C379.949 394.084 396.524 416.305 414.382 437.141C417.109 434.414 419.999 422.349 421.695 418.109C427.433 403.764 432.362 389.112 438.101 374.766C439.267 371.85 445.871 357.556 445.445 355.422C445.234 354.37 440.164 354.613 439.57 354.547C433.88 353.915 428.368 352.583 422.882 351.016C409.426 347.171 396.387 338.097 389.195 326.109C382.114 314.308 380.876 297.491 383.038 284.516C383.915 279.257 385.474 274.222 387.445 269.297C387.84 268.309 389.859 265.238 388.601 264.609C386.46 263.539 384.056 263.446 381.601 263.641ZM572.882 374.453C569.669 377.666 566.895 389.873 564.976 394.672C558.538 410.767 552.946 427.2 546.507 443.297C530.761 482.662 517.128 522.901 501.382 562.266C486.974 598.287 478.986 628.929 447.195 655.422C412.153 684.624 360.131 695.398 316.226 684.422C297.17 679.658 279.686 669.92 260.57 665.672C257.187 664.92 244.11 661.913 242.413 663.609C247.186 668.382 253.629 672.452 259.413 675.922C277.806 686.958 296.37 696.365 317.132 702.297C350.777 711.91 386.244 714.427 420.82 708.141C536.799 687.053 618.11 576.083 602.476 458.828C599.324 435.186 591.575 414.42 582.851 392.609C580.388 386.452 576.856 379.752 572.882 374.453ZM333.538 521.234C330.307 524.466 329.112 532.441 327.382 536.766C322.183 549.763 317.644 563.018 312.445 576.016C311.606 578.113 306.393 593.017 305.413 593.297C303.793 593.76 299.467 591.92 297.788 591.547C291.895 590.237 285.897 589.126 279.913 588.328C273.199 587.433 266.458 586.664 259.695 586.266C252.963 585.87 246.221 585.703 239.476 585.703C225.99 585.703 211.477 588.114 198.476 591.828C194.702 592.906 187.816 593.394 184.976 596.234C186.353 598.989 188.435 603.958 190.851 605.891C190.937 605.959 202.436 602.874 203.445 602.672C217.491 599.863 232.301 598.86 246.507 598.859C263.268 598.859 279.873 601.057 296.601 601.516C304.943 601.744 313.311 602.462 321.507 600.641C332.204 598.264 337.839 591.417 345.538 583.359C348.662 580.091 357.984 572.164 359.601 568.391C359.696 568.168 354.042 558.262 353.445 557.266C346.492 545.678 341.646 532.044 333.538 521.234Z" fill="#ffffff" fill-rule="nonzero" opacity="1" stroke="none"/>
</g>
</svg>
