<?xml version="1.0" encoding="UTF-8" standalone="no"?>
<!DOCTYPE svg PUBLIC "-//W3C//DTD SVG 1.1//EN" "http://www.w3.org/Graphics/SVG/1.1/DTD/svg11.dtd">
<!-- Created with Vectornator (http://vectornator.io/) -->
<svg height="100%" stroke-miterlimit="10" style="fill-rule:nonzero;clip-rule:evenodd;stroke-linecap:round;stroke-linejoin:round;" version="1.1" viewBox="0 0 750 1000" width="100%" xml:space="preserve" xmlns="http://www.w3.org/2000/svg" xmlns:vectornator="http://vectornator.io" xmlns:xlink="http://www.w3.org/1999/xlink">
<defs/>
<g id="Layer-1" vectornator:layerName="Layer 1">
<path d="M456.05 324.273C453.768 324.279 449.768 325.773 447.238 326.335C439.374 328.083 431.42 329.442 423.519 331.023C399.983 335.73 376.453 340.38 352.925 345.085C329.484 349.773 305.096 344.164 281.425 348.898C277.852 349.612 273.239 352.862 272.331 356.491C272.014 357.762 272.196 360.841 270.894 361.491C268.496 362.69 263.93 362.746 261.206 363.241C253.37 364.666 245.607 366.504 237.769 367.929C212.807 372.468 187.976 377.888 163.081 382.866C147.844 385.914 132.599 388.913 117.363 391.96C112.404 392.952 103.933 392.955 99.8002 396.054C94.4426 400.072 90.8857 406.263 86.894 411.585C84.796 414.382 75.3622 424.78 75.1752 427.679C73.9741 446.296 87.9975 444.261 101.831 447.335C130.352 453.673 159.752 463.904 182.394 482.773C203.857 500.659 213.882 526.62 204.675 554.241C202.055 562.101 198.965 570.019 194.706 577.116C192.814 580.271 189.148 584.442 188.269 587.96C186.679 594.32 187.464 600.402 193.55 604.054C197.619 606.495 203.872 606.434 208.488 607.273C218.645 609.12 228.799 610.988 238.956 612.835C245.89 614.096 252.787 615.489 259.738 616.648C262.027 617.029 265.585 617.087 267.644 618.116C273.11 620.849 277.818 626.527 284.05 628.085C288.752 629.261 293.311 631.572 298.113 632.773C307.354 635.083 316.713 635.398 326.238 635.398C331.653 635.398 337.433 634.261 342.644 632.773C349.878 630.706 356.846 626.714 361.706 620.773C363.713 618.32 364.34 613.828 366.675 611.96C369.114 610.009 372.557 609.019 375.175 607.273C386.327 599.838 405.931 585.635 401.238 569.21C399.786 564.13 395.145 557.913 389.831 556.585C387.885 556.098 383.888 556.198 382.488 555.148C380.36 553.552 378.177 552.056 376.05 550.46C382.178 544.332 392.822 540.753 400.956 538.429C417.135 533.806 433.126 528.899 449.581 525.241C455.732 523.875 461.871 522.384 468.05 521.148C469.558 520.846 472.787 519.447 473.894 520.554C454.504 559.335 425.145 593.178 387.488 615.773C378.923 620.911 370.261 625.89 361.706 631.023C356.985 633.856 351.306 635.235 347.331 639.21C344.586 641.956 345.323 645.688 344.706 649.179C344.448 650.645 338.636 651.685 337.394 652.679C332.473 656.616 331.519 659.578 331.519 665.866C331.519 668.757 336.004 675.422 338.863 675.554C344.813 675.829 350.752 675.743 356.706 675.554C366.123 675.255 376.98 672.753 386.613 671.148C437.975 662.587 490.214 644.472 531.613 612.273C545.418 601.535 558.57 590.184 570.581 577.398C571.67 576.239 572.734 575.076 573.8 573.898C574.467 573.161 581.325 565.094 581.425 565.085C588.62 564.405 596.026 566.222 603.113 564.804C606.287 564.169 608.841 562.096 611.613 560.71C616.434 558.299 622.374 556.02 627.706 554.835C633.425 553.564 641.425 554.897 646.175 551.335C653.204 546.064 656.024 535.585 661.113 528.46C664.206 524.13 667.298 519.916 670.769 515.866C671.468 515.051 674.889 511.794 674.894 510.304C674.903 507.398 674.887 504.491 674.894 501.585C674.529 499.285 673.704 497.29 672.894 495.679C671.855 493.612 670.788 491.696 670.456 490.866C667.454 483.36 664.314 475.994 661.363 468.616C660.005 465.222 658.734 460.425 654.675 456.366C652.433 454.124 649.762 453.075 647.425 452.148C645.059 451.21 642.779 450.418 641.675 449.866C630.666 444.361 620.022 440.463 612.488 432.929C611.587 432.028 608.286 428.412 605.363 424.898C603.894 423.132 602.511 421.338 601.519 419.96C601.026 419.276 600.639 418.701 600.425 418.335C600.208 417.964 600.425 418.678 600.425 418.679C600.063 416.503 599.478 411.564 598.613 406.773C598.177 404.358 597.686 401.969 597.019 399.773C596.362 397.609 595.641 395.491 593.925 393.585C589.859 389.067 584.71 386.717 580.269 384.679C575.74 382.601 571.871 380.812 569.363 378.398C568.985 378.034 568.909 377.946 568.956 377.991C564.19 373.388 559.476 368.613 554.581 363.898C554.6 363.916 554.576 363.887 554.425 363.741C551.734 361.151 547.858 359.77 544.019 358.304C540.164 356.831 536.159 355.491 534.363 354.773C520.226 349.118 506.325 342.075 491.644 336.179C491.606 336.164 491.454 336.084 491.3 336.023C487.875 334.653 482.515 331.732 477.019 329.116C472.523 326.978 467.832 324.955 463.175 324.273C460.8 324.278 458.425 324.266 456.05 324.273ZM460.144 328.96C468.227 328.96 481.585 337.543 489.425 340.679C503.957 346.492 517.958 353.617 532.488 359.429C536.635 361.088 548.125 364.611 550.956 367.335C555.982 372.171 560.87 377.153 565.894 381.991C572.631 388.479 583.813 389.825 590.206 396.929C593.295 400.361 594.679 414.64 595.488 419.491C595.913 422.041 606.676 434.211 608.956 436.491C617.485 445.02 628.85 449.079 639.425 454.366C642.68 455.994 648.653 457.438 651.144 459.929C654.119 462.904 655.18 466.644 656.706 470.46C659.683 477.901 662.823 485.298 665.8 492.741C666.937 495.584 670.206 500.243 670.206 503.273C670.206 511.302 662.392 517.066 657.894 523.491C653.086 530.36 649.533 540.613 643.238 546.335C640.561 548.769 630.99 548.163 626.55 549.273C620.928 550.678 615.322 552.84 610.144 555.429C607.956 556.523 604.088 559.492 601.644 559.523C594.125 559.617 586.581 558.974 579.081 559.523C578.746 559.547 571.319 568.662 570.581 569.491C562.326 578.779 553.361 587.466 543.925 595.554C514.274 620.969 480.028 639.509 443.144 651.804C417.077 660.493 390.062 665.459 362.863 669.085C355.196 670.107 332.993 675.535 336.8 660.304C338.256 654.48 347.711 654.956 351.144 651.523C347.806 648.185 349.965 642.511 353.488 640.398C358.456 637.417 364.049 635.474 369.019 632.491C380.872 625.38 392.6 618.277 403.894 610.21C429.908 591.629 452.743 567.931 469.206 540.491C474.466 531.726 477.583 522.302 482.113 513.241C480.889 512.018 476.51 513.775 474.8 514.116C467.262 515.624 459.696 517.221 452.238 519.085C436.527 523.013 420.928 526.95 405.363 531.398C397.626 533.608 389.083 536.053 382.206 540.179C375.677 544.097 365.179 548.765 361.706 555.71C363.963 556.462 369.065 554.545 371.675 554.835C376.168 555.334 377.293 558.689 381.331 560.398C382.594 560.932 384.063 560.559 385.425 560.71C390.138 561.234 392.979 564.709 395.675 568.304C399.915 573.957 394.216 583.819 390.425 588.241C385.249 594.28 378.534 599.657 371.675 603.773C369.019 605.366 365.224 606.493 362.863 608.46C360.32 610.579 360.471 615.258 357.894 617.835C352.66 623.069 347.606 626.087 340.613 628.085C326.7 632.06 311.422 630.678 297.55 627.21C293.313 626.151 289.385 623.841 285.238 622.804C279.453 621.358 274.955 614.728 269.425 613.148C259.57 610.332 248.736 609.42 238.644 607.585C228.79 605.794 218.87 604.268 209.05 602.304C205.113 601.517 199.611 601.74 196.175 599.679C192.907 597.718 192.056 594.188 192.956 590.585C193.791 587.248 197.338 582.763 199.394 580.023C205.19 572.295 208.82 560.192 211.113 551.023C218.36 522.035 207.526 497.221 185.613 478.679C164.028 460.415 134.139 448.734 106.519 443.21C100.769 442.06 79.8627 440.328 79.8627 432.96C79.8627 427.265 84.7807 422.86 88.0815 418.616C92.5545 412.865 96.5675 405.135 102.425 400.741C104.23 399.388 107.617 399.377 109.738 398.991C115.609 397.924 121.478 396.631 127.331 395.46C163.84 388.159 200.263 380.152 236.894 373.491C246.69 371.71 256.409 369.429 266.206 367.648C269.084 367.124 275.608 366.996 277.613 364.991C276.22 363.599 276.429 361.875 276.738 360.023C277.853 353.333 285.404 353.559 290.8 352.991C293.745 352.682 294.388 352.624 297.55 352.398C299.635 352.249 304.975 351.895 306.925 351.804C319.353 351.226 332.425 353.754 344.706 352.116C365.655 349.323 386.654 343.671 407.394 339.523C419.601 337.081 431.812 334.62 444.019 332.179C449.052 331.172 455.026 328.96 460.144 328.96ZM460.738 336.273C457.091 336.273 452.877 337.901 449.3 338.616C441.094 340.258 432.882 341.975 424.675 343.616C401.237 348.304 377.797 352.992 354.363 357.679C336.85 361.182 319.176 358.28 301.363 359.429C298.139 359.637 286.178 359.645 284.05 361.773C286.776 364.499 289.961 366.859 292.863 369.398C290.68 371.581 283.09 371.709 279.956 372.335C268.735 374.58 257.53 377.007 246.269 379.054C213.06 385.092 180.057 392.371 146.956 398.991C137.189 400.945 127.411 402.882 117.644 404.835C114.601 405.444 108.82 405.458 106.238 407.179C104.076 408.62 102.537 411.585 100.956 413.616C96.6161 419.197 90.6441 425.178 87.4877 431.491C89.5593 433.563 96.6508 433.518 99.8002 434.148C110.137 436.215 120.157 439.165 130.269 442.054C161.82 451.069 194.891 469.809 211.988 498.304C223.453 517.413 222.736 543.699 214.644 563.929C211.915 570.752 209.044 577.544 205.269 583.835C204.464 585.177 198.918 593.047 200.581 593.523C205.591 594.954 211.483 595.204 216.675 596.148C228.492 598.296 240.328 600.437 252.144 602.585C256.874 603.445 269.311 604.139 272.925 606.398C276.318 608.518 279.399 611.332 282.894 613.429C298.404 622.735 320.554 625.615 337.675 621.335C343.841 619.794 348.085 617.081 352.613 612.554C354.448 610.719 355.265 603.462 355.831 603.179C365.164 598.513 372.838 594.552 381.05 587.366C383.65 585.091 388.015 581.165 388.956 577.398C391.11 568.784 382.796 564.214 376.644 570.366C374.053 567.776 377.394 564.398 372.55 562.46C366.717 560.127 357.984 566.126 352.331 567.741C349.932 568.427 346.904 568.393 344.706 569.491C344.414 569.198 344.406 569.191 344.113 568.898C358.473 540.177 385.308 529.9 413.863 521.741C427.187 517.934 440.669 514.211 454.269 511.491C463.854 509.574 473.39 507.255 482.988 505.335C485.048 504.923 491.192 502.695 492.644 504.148C491.494 506.448 491.149 509.82 490.3 512.366C488.472 517.852 486.315 523.111 484.175 528.46C478.394 542.914 468.293 557.393 458.394 569.491C439.16 592.999 415.122 613.854 388.956 629.554C379.02 635.516 367.788 640.146 358.175 646.554C359.689 648.068 363.885 646.073 365.8 645.648C372.346 644.193 378.88 642.727 385.425 641.273C387.166 640.886 391.844 638.879 393.05 640.085C390.386 642.749 383.509 644.983 379.581 646.554C371.284 649.873 363.569 654.64 355.269 657.96C351.979 659.276 346.619 660.735 344.113 663.241C346.097 665.226 354.554 662.953 357.3 662.648C370.286 661.205 383.141 659.139 395.988 656.804C452.466 646.535 506.978 622.088 548.613 582.085C555.255 575.703 561.632 569.397 567.644 562.46C570.639 559.004 573.47 553.862 577.019 551.023C577.81 550.39 579.136 552.48 579.956 552.491C586.889 552.586 593.838 552.681 600.769 552.491C602.158 552.453 611.676 546.966 613.956 546.054C619.47 543.848 625.339 541.993 631.238 541.085C633.897 540.676 636.837 540.885 639.425 540.179C641.296 539.669 643.463 533.001 644.425 531.398C649.999 522.108 656.832 514.338 663.175 505.616C663.737 504.844 661.442 500.877 661.113 500.054C658.917 494.565 656.558 489.135 654.363 483.648C652.41 478.767 650.501 469.143 646.456 465.773C644.781 464.376 641.463 463.064 639.425 462.554C635.579 461.592 631.896 457.679 628.019 456.71C624.433 455.814 618.225 453.168 615.425 450.835C611.882 447.882 607.523 445.308 604.269 442.054C599.215 437 594.989 430.642 590.519 425.054C586.399 419.904 587.786 403.899 583.488 400.46C577.384 395.577 568.001 393.828 562.394 388.429C557.27 383.495 552.268 378.425 547.144 373.491C544.73 371.167 533.523 367.643 529.863 366.179C516.714 360.919 504.045 354.439 490.894 349.179C483.183 346.095 475.763 342.295 468.05 339.21C465.869 338.338 463.134 336.273 460.738 336.273ZM458.675 347.71C461.141 347.71 463.75 349.44 465.988 350.335C473.717 353.427 481.417 356.619 489.144 359.71C501.757 364.755 514.315 369.916 526.925 374.96C531.245 376.688 539.008 378.198 542.456 381.116C547.679 385.535 552.341 390.585 557.394 395.179C562.908 400.192 572.894 400.999 578.8 405.429C580.267 406.529 580.2 410.427 580.55 412.179C581.767 418.261 581.793 424.265 586.394 428.866C585.117 431.42 583.268 433.682 582.019 436.179C582.312 436.472 582.32 436.48 582.613 436.773C587.252 434.454 588.692 432.485 592.55 436.773C590.792 439.409 589.058 442.042 587.3 444.679C587.593 444.972 587.57 444.98 587.863 445.273C590.661 443.873 593.326 442.244 596.081 440.866C597.839 442.771 597.824 442.775 599.581 444.679C598.372 446.493 597.306 448.704 595.769 450.241C596.062 450.534 596.07 450.542 596.363 450.835C603.434 446.12 604.157 447.786 610.738 454.366C608.679 456.426 603.862 457.273 601.05 457.273C589.408 457.273 573.967 455.377 565.019 446.429C552.908 452.484 536.141 456.239 525.175 445.273C521.671 441.769 519.131 436.954 515.425 434.085C512.835 440.257 512.903 449.116 511.988 455.523C511.792 456.893 507.036 461.319 506.706 461.679C500.389 468.57 494.172 475.608 487.581 482.241C487.677 482.305 487.769 482.367 487.956 482.491C494.159 477.323 500.928 473.208 507.3 468.429C507.962 467.933 509.319 466.648 510.238 466.648C510.555 466.648 510.887 466.706 511.206 466.71C518.861 459.647 542.684 458.148 550.956 458.148C553.1 458.148 556.283 460.291 558.269 461.085C563.466 463.164 570.305 464.898 575.863 464.898C580.652 464.898 585.417 464.304 590.206 464.304C590.448 464.304 591.144 464.51 591.488 464.554C593.081 463.092 597.699 462.9 599.894 462.273C605.328 460.721 609.887 458.276 614.831 455.804C616.429 457.401 619.989 458.796 622.144 459.335C626.814 460.502 632.148 464.181 636.519 466.366C638.189 467.202 643.144 468.241 644.113 470.179C645.075 472.103 636.763 477.804 634.175 477.804C627.714 477.804 621.478 475.908 615.394 473.585C612.155 476.385 604.842 475.475 602.519 478.96C603.786 480.227 615.206 481.116 618.331 481.898C631.683 485.235 647.863 492.929 654.363 505.929C654.988 507.179 652.101 509.475 651.456 510.304C648.603 513.973 646.12 517.887 643.55 521.741C641.437 524.911 639.639 530.357 636.519 532.585C636.36 532.699 636.063 532.723 635.925 532.585C635.733 532.392 635.707 532.086 635.644 531.804C635.46 532.001 635.278 532.197 635.05 532.273C630.325 533.847 624.701 533.81 619.8 535.21C614.537 536.714 609.464 539.474 604.269 540.773C601.019 541.585 597.385 546.325 593.738 544.866C592.462 544.356 592.633 540.322 592.55 539.616C591.85 533.661 590.091 527.195 586.988 522.023C579.554 509.633 566.64 500.222 552.706 496.241C514.003 485.183 470.118 495.325 432.019 506.21C404.35 514.115 371.797 520.432 350.581 541.648C344.14 548.089 337.044 555.553 333.581 564.21C330.276 572.473 330.438 582.305 335.05 589.991C336.657 592.669 345.851 602.034 342.956 604.929C338.759 609.127 332.689 610.21 326.831 610.21C312.027 610.21 297.133 608.568 284.644 600.241C282.57 598.859 280.247 597.314 278.488 595.554C275.802 592.868 273.953 588.691 270.3 587.648C260.921 584.968 250.872 583.718 241.3 581.804C238.545 581.253 232.535 581.257 230.738 579.46C237.037 566.861 241.498 554.282 242.456 539.898C242.887 533.44 242.497 526.963 241.581 520.554C241.461 519.708 239.994 515.34 240.425 514.71C240.529 514.558 240.687 514.448 240.8 514.304C238.599 510.812 236.742 504.945 235.738 500.929C233.381 491.501 223.384 480.388 216.988 473.991C220.166 467.635 222.596 452.125 228.831 447.741C228.79 447.7 228.77 447.68 228.706 447.616C236.07 436.571 252.447 419.984 266.206 415.398C266.499 415.837 266.476 415.833 266.769 416.273C262.61 421.818 259.011 428.258 255.925 434.429C254.905 436.469 253.706 440.66 251.925 442.241C252.058 442.301 252.334 442.244 252.425 442.335C245.178 456.829 241.667 474.772 242.456 490.96C242.721 496.392 242.576 505.542 245.113 510.616C244.941 510.788 244.914 510.815 244.769 510.96C249.14 515.831 248.827 527.518 254.175 532.866C254.264 532.778 254.297 532.409 254.363 532.21C251.571 528.18 250.081 513.693 250.081 510.023C250.081 487.636 255.486 466.747 269.706 449.366C272.534 445.91 281.067 435.823 285.519 434.71C293.442 429.428 300.683 424.507 309.55 420.96C310.937 420.405 317.77 419.423 318.05 418.023C318.203 417.257 318.317 416.413 318.05 415.679C317.574 414.369 313.295 412.425 312.175 411.585C307.838 408.332 303.784 404.077 300.769 399.554C299.86 398.191 297.38 392.185 295.769 391.648C294.734 391.303 290.775 392.865 289.644 393.116C283.675 394.442 277.733 395.885 271.769 397.21C252.454 401.502 232.94 405.316 213.738 410.116C208.507 411.424 203.191 412.446 197.925 413.616C196.737 413.88 192.95 414.022 192.081 414.804C185.959 420.313 181.66 428.615 178.019 435.898C177.428 437.08 175.721 443.62 174.8 443.804C173.66 444.032 162.928 438.411 161.019 437.648C149.738 433.135 138.139 429.579 126.144 427.398C123.723 426.957 111.624 426.347 110.331 425.054C111.792 423.593 113.725 422.604 115.3 424.179C119.592 422.033 125.842 421.589 130.55 420.648C140.217 418.715 149.993 416.599 159.55 414.21C190.489 406.475 222.017 399.686 253.3 393.429C264.24 391.241 275.289 388.791 286.113 386.085C289.768 385.171 297.093 382.131 300.769 382.866C303.23 383.359 303.149 390.094 304.269 391.96C308.686 399.322 315.457 404.226 322.144 409.241C326.519 412.523 334.767 414.804 340.019 414.804C343.634 414.804 348.307 412.529 350.863 415.085C349.955 416.902 347.162 425.783 346.175 426.523C346.074 426.599 345.882 426.61 345.769 426.679C345.811 426.721 345.831 426.741 345.894 426.804C341.866 434.859 338.677 443.659 335.331 452.023C334.936 453.011 331.448 460 332.706 460.21C334.464 460.504 342.052 458.765 343.55 457.866C345.32 456.804 345.986 453.202 347.05 451.429C349.939 446.614 353.07 441.946 356.706 437.648C357.377 436.855 358.035 436.038 358.769 435.304C361.064 433.008 363.432 430.805 365.8 428.585C368.326 426.217 369.6 424.977 371.738 424.366C371.625 424.275 371.469 424.285 371.363 424.179C378.682 418.324 387.949 413.628 397.144 411.585C401.61 410.593 406.626 410.91 410.925 409.835C413.009 409.314 415.3 398.1 415.3 396.648C415.3 393.402 415.165 390.168 414.738 386.96C414.594 385.883 414.244 381.926 413.55 381.116C408.15 374.816 396.066 371.773 388.644 368.804C386.167 367.813 381.372 367.657 379.581 365.866C381.786 363.662 387.13 363.557 390.113 362.96C400.704 360.841 411.176 358.047 421.769 355.929C430.6 354.163 439.292 351.818 448.113 350.054C451.445 349.387 455.262 347.71 458.675 347.71ZM310.144 365.304C317.663 365.226 325.189 365.114 332.706 365.304C332.983 365.311 333.074 365.671 333.269 365.866C331.104 370.197 329.649 374.929 327.644 379.273C327.935 379.563 328.205 379.834 328.425 380.054C330.381 377.183 338.21 365.96 338.863 365.866C342.928 365.286 347.609 367.054 351.738 367.054C352.375 368.966 344.68 385.545 343.238 388.429C343.531 388.722 343.539 388.73 343.831 389.023C347.568 384.04 351.055 378.84 354.675 373.773C355.64 372.422 357.454 368.701 359.05 368.21C361.984 367.308 366.798 369.991 369.894 369.991C370.715 372.454 363.631 386.29 362.3 389.616C361.649 391.244 358.676 395.648 359.956 396.929C364.071 390.757 368.521 384.808 372.831 378.773C373.706 377.548 376.345 372.265 377.8 372.023C379.889 371.675 383.717 373.693 385.738 374.366C392.454 376.605 402.652 379.281 407.706 384.335C405.437 386.605 391.345 387.597 387.488 388.148C386.905 388.231 383.56 388.343 383.081 388.741C376.564 394.173 371.557 401.776 365.206 407.491C364.196 408.401 353.139 408.505 351.144 408.648C332.39 409.987 321.149 404.113 309.831 389.023C307.181 385.488 306.217 377.784 305.144 373.491C305.075 373.214 304.837 370.86 304.581 370.554C303.311 369.03 301.488 368.036 300.175 366.46C301.599 365.036 308.714 365.319 310.144 365.304ZM229.3 409.648C229.778 409.684 230.173 409.833 230.456 410.116C224.204 418.453 218.784 428 214.925 437.648C213.417 441.419 211.612 450.836 209.644 453.46C209.48 453.679 209.241 453.828 209.019 453.991C209.192 454.037 209.523 453.973 209.644 454.054C208.627 457.103 208.863 462.741 206.706 464.898C203.861 462.527 200.615 460.439 197.956 457.866C197.949 457.866 197.933 457.866 197.925 457.866C196.847 457.866 186.866 450.933 185.613 449.679C192.618 435.669 203.368 424.644 216.394 415.96C218.543 414.528 225.959 409.392 229.3 409.648ZM545.394 507.679C562.038 511.176 573.484 516.106 577.019 526.71C581.032 538.749 563.501 560.478 556.238 567.741C522.969 601.011 478.717 628.542 433.175 641.554C420.701 645.118 408.429 648.691 395.675 651.241C392.971 651.782 385.033 654.63 383.081 652.679C394.588 645.008 407.533 638.721 419.425 631.585C443.814 616.952 465.946 596.49 484.456 575.335C497.114 560.87 507.87 544.975 519.019 529.366C525.848 519.806 533.771 510.585 545.394 507.679ZM381.925 574.46C382.365 574.9 382.361 574.896 382.8 575.335C381.252 577.141 379.794 579.247 378.113 580.929C376.501 582.541 374.793 584.076 373.113 585.616C367.816 590.472 361.587 594.37 354.956 597.023C353.635 597.551 350.534 599.483 349.113 598.773C348.475 598.454 347.764 596.443 347.331 595.866C344.416 591.978 340.697 588.734 338.863 584.148C338.533 583.323 336.567 579.426 337.956 579.148C340.392 578.661 345.148 581.491 347.925 581.491C360.008 581.491 371.16 579.843 381.925 574.46ZM460.144 354.46C456.869 354.051 452.77 355.783 449.581 356.491C442.636 358.035 435.743 359.636 428.8 361.179C425.012 362.021 416.599 362.255 413.863 364.991C435.066 396.796 416.286 426.469 388.081 445.273C382.165 449.217 374.305 455.232 367.269 456.991C361.948 458.322 356.751 461.383 351.456 463.148C342.132 466.256 331.845 467.822 324.8 474.866C325.093 475.159 325.07 475.167 325.363 475.46C321.899 482.387 318.626 489.536 315.706 496.835C314.631 499.523 313.7 503.672 311.894 505.929C309.227 509.263 302.546 511.004 299.019 513.523C290.856 519.353 279.684 529.238 277.019 539.898C274.414 550.316 272.05 557.659 272.05 569.21C272.05 570.902 272.077 570.705 272.925 571.554C274.076 570.404 276.22 557.724 277.613 554.241C281.046 545.657 287.263 537.872 293.738 531.398C303.681 521.454 318.018 517.821 331.519 516.741C333.726 516.565 343.594 518.142 344.706 517.648C346.809 516.713 351.852 507.413 353.8 505.335C356.209 502.765 358.622 500.201 361.113 497.71C362.253 496.57 365.001 495.297 365.8 493.898C366.079 493.411 364.205 488.956 364.05 488.335C363.017 484.201 361.838 478.878 363.175 474.866C363.468 475.159 363.445 475.167 363.738 475.46C362.34 478.256 367.843 488.82 369.894 491.554C373.755 489.623 380.094 487.229 383.081 484.241C381.553 481.185 383.505 465.349 387.175 461.679C388.53 463.034 386.992 466.711 386.894 468.429C386.682 472.132 385.8 478.835 387.769 482.773C388.128 483.491 400.729 481.387 401.55 481.023C403.377 480.211 403.503 474.54 404.175 472.523C406.484 465.597 410.927 460.251 415.894 454.929C416.187 455.222 416.195 455.23 416.488 455.523C413.392 461.714 410.137 466.468 409.175 473.679C408.902 475.726 407.321 479.319 409.175 480.71C410.65 481.816 416.249 481.202 418.55 481.585C420.932 481.982 423.241 482.469 425.581 483.054C426.271 483.226 427.021 484.042 427.613 483.648C434.465 479.079 440.162 470.786 445.769 465.179C445.623 464.886 445.634 464.909 445.488 464.616C450.132 459.972 454.519 455.083 458.956 450.241C455.142 445.664 450.927 441.932 447.831 436.773C437.283 419.192 438.736 395.288 451.363 379.054C455.775 373.382 461.049 368.667 467.175 364.991C469.139 363.813 472.095 363.009 473.613 361.491C471.357 359.236 463.343 354.86 460.144 354.46ZM328.425 380.054C328.291 380.25 327.777 381.01 327.706 381.116C327.414 380.823 327.437 380.816 327.144 380.523C327.343 380.125 327.457 379.678 327.644 379.273C327.563 379.191 327.534 379.163 327.425 379.054C326.216 380.264 325.877 382.463 325.081 384.054C325.374 384.347 325.382 384.323 325.675 384.616C326.907 383.385 327.848 381.918 328.894 380.523C328.66 380.289 328.557 380.186 328.425 380.054ZM505.581 391.523C505.094 391.534 504.654 391.669 504.363 391.96C511.386 398.983 519.152 405.349 525.456 413.054C528.819 417.163 528.25 420.6 530.144 425.335C533.831 434.554 544.871 437.769 553.3 433.554C554.246 434.5 553.18 439.592 554.769 439.71C565.931 440.537 576.705 438.026 582.019 427.398C581.847 427.226 581.776 427.155 581.675 427.054C581.573 427.168 581.537 427.286 581.425 427.398C581.124 426.995 580.966 426.64 580.894 426.304C580.866 426.276 580.863 426.273 580.831 426.241C576.06 431.013 574.439 431.491 567.081 431.491C566.33 431.491 564.813 431.118 564.144 430.616C562.448 429.345 563.626 425.444 563.269 423.304C562.672 419.72 560.951 416.325 558.581 413.616C550.033 403.847 537.834 401.732 526.05 397.804C520.801 396.054 515.485 394.584 510.238 392.835C509.12 392.463 507.044 391.49 505.581 391.523ZM541.05 407.773C541.414 407.622 541.789 407.607 542.175 407.773C544.717 408.862 546.391 411.759 548.019 413.929C541.06 419.148 544.801 429.163 553.019 425.054C555.22 427.255 553.1 430.023 550.363 430.023C544.394 430.023 541.154 429.067 537.488 424.179C534.919 420.755 535.015 413.777 538.081 410.71C538.973 409.819 539.958 408.225 541.05 407.773ZM580.894 426.304C581.238 426.648 581.451 426.83 581.675 427.054C582.613 426.01 583.165 424.882 582.3 423.585C581.316 424.57 580.688 425.34 580.894 426.304ZM547.144 399.554C546.851 399.847 546.843 399.855 546.55 400.148C551.631 405.228 558.92 408.111 564.144 413.335C565.708 414.899 567.983 417.814 568.55 420.085C569.101 422.289 569.009 425.543 570.581 427.116C571.889 425.809 572.173 422.251 572.644 420.366C573.15 418.343 575.218 413.951 573.8 412.179C572.574 410.647 567.24 409.142 565.3 408.366C559.13 405.898 553.09 402.527 547.144 399.554Z" fill="#ffffff" fill-rule="nonzero" opacity="1" stroke="none"/>
</g>
</svg>
