<?xml version="1.0" encoding="UTF-8" standalone="no"?>
<!DOCTYPE svg PUBLIC "-//W3C//DTD SVG 1.1//EN" "http://www.w3.org/Graphics/SVG/1.1/DTD/svg11.dtd">
<!-- Created with Vectornator (http://vectornator.io/) -->
<svg height="100%" stroke-miterlimit="10" style="fill-rule:nonzero;clip-rule:evenodd;stroke-linecap:round;stroke-linejoin:round;" version="1.1" viewBox="0 0 750 1000" width="100%" xml:space="preserve" xmlns="http://www.w3.org/2000/svg" xmlns:vectornator="http://vectornator.io" xmlns:xlink="http://www.w3.org/1999/xlink">
<defs/>
<g id="Layer-1" vectornator:layerName="Layer 1">
<path d="M374.984 210.406C209.38 210.406 75.1406 340.059 75.1406 500C75.1407 659.941 209.38 789.594 374.984 789.594C540.589 789.594 674.859 659.941 674.859 500C674.859 340.059 540.589 210.406 374.984 210.406ZM370.172 231.219C392.199 230.963 414.225 232.863 435.797 237.656C503.523 252.707 564.239 290.001 605.109 347.219C619.876 367.892 630.606 389.71 639.984 413.156C650.812 440.225 655.837 472.912 654.641 501.625C653.612 526.313 650.86 549.949 644.078 573.688C641.66 582.15 638.554 590.452 635.297 598.594C633.834 602.25 631.551 605.954 630.609 609.719C629.27 615.075 624.932 621.42 622.109 626.125C612.541 642.072 602.76 657.367 590.484 671.531C537.521 732.643 458.371 768.812 377.484 768.812C327.182 768.812 274.36 756.132 231.016 730.125C149.108 680.981 93.0553 592.429 96.2344 495.469C97.1942 466.195 101.704 436.372 112.641 409.031C124.291 379.906 139.019 353.037 159.797 329.062C185.034 299.943 216.093 276.743 250.328 259.625C287.33 241.124 328.942 231.698 370.172 231.219ZM379.547 248.5C365.532 248.017 351.523 248.861 337.641 250.844C322.312 253.034 305.806 255.909 291.359 261.688C287.178 263.36 280.222 264.013 276.984 267.25C285.731 284.743 294.461 303.159 304.547 319.969C310.07 329.174 313.526 339.751 319.484 348.688C319.68 348.492 320.076 348.37 320.078 348.094C320.272 322.118 319.981 296.164 320.078 270.188C320.079 270.023 320.465 268.929 320.641 268.719C321.417 267.787 321.856 267.253 322.984 267.25C355.699 267.153 388.426 266.937 421.141 266.938C424.207 266.938 425.099 271.949 426.109 273.969C429.924 281.598 433.787 289.49 436.953 297.406C445.62 319.075 457.879 339.332 466.547 361C469.302 367.887 473.168 374.333 475.922 381.219C476.851 383.543 477.978 387.056 479.734 388.812C482.572 386.921 488.024 372.827 489.984 368.906C498.791 351.293 507.241 333.486 516.047 315.875C518.705 310.559 521.779 305.262 523.984 299.75C524.634 298.125 527.061 295.499 525.734 293.906C524.398 292.303 521.6 291.254 519.859 290.094C512.681 285.308 504.902 281.302 497.297 277.5C460.507 259.105 420.982 249.929 379.547 248.5ZM207.578 306.781C194.965 319.394 181.008 330.453 169.484 344.281C135.162 385.468 114.986 438.59 113.516 492.25C113.379 497.23 113.235 502.206 113.234 507.188C113.234 518.778 114.72 530.672 116.734 541.75C117.239 544.527 117.347 550.17 119.266 552.375C119.402 551.221 119.702 550.219 120.266 549.656C120.489 549.88 120.697 550.425 120.922 550.812C122.906 548.586 125.547 545.324 125.547 543.5C125.547 539.044 116.838 540.52 118.516 532.969C119.651 527.861 123.827 527.679 126.109 523.875C127.48 521.591 127.297 515.721 127.297 514.219C127.297 510.19 123.642 508.023 121.734 504.844C120.251 502.371 120.547 499.679 120.547 496.938C120.547 496.193 119.742 493.97 119.953 493.406C121.98 488.002 130.92 498.048 132.578 497.219C133.994 496.511 134.807 494.76 135.484 493.406C138.326 487.723 130.562 489.223 129.641 486.688C128.954 484.8 130.381 482.103 131.672 480.812C133.014 479.47 137.893 479.656 138.703 479.656C142.895 479.656 144.814 484.168 146.047 487.25C146.444 488.243 148.393 492.233 149.547 491.656C153.036 489.912 151.905 481.996 153.078 479.062C154.854 474.624 170.036 469.094 174.453 469.094C179.251 469.094 178.492 478.219 182.078 481.406C186.401 485.249 186.758 476.811 190.266 477.312C193.536 477.78 194.49 485.165 197.891 484.031C204.245 481.913 192.797 465.3 196.734 462.938C200.976 460.392 208.168 463.571 211.078 467.062C213.017 469.389 207.55 471.707 209.328 473.781C211.553 476.377 212.752 474.245 215.766 475.25C219.628 476.537 221.452 479.413 226.016 479.062C227.533 478.946 229.439 474.896 231.297 473.781C235.355 471.347 241.547 472.453 245.953 473.188C252.597 474.295 256.339 482.052 262.922 482.875C266.099 483.272 284.324 479.551 285.203 478.781C289.766 474.789 286.684 465.875 295.172 465.875C298.187 465.875 300.157 469.989 303.078 470.281C305.729 470.546 307.418 467.043 308.922 467.344C317.832 469.126 326.982 469.968 335.891 471.75C342.235 473.019 347.932 476.354 354.641 477.312C364.821 478.767 375.151 478.363 385.391 478.781C386.762 478.837 388.711 480.141 390.078 480.531C393.282 481.447 397.056 481.688 400.328 481.688C408.089 481.688 415.804 479.322 423.484 478.469C427.445 478.029 432.19 478.989 435.797 478.188C437.367 477.839 439.203 472.218 439.891 470.844C440.991 468.644 443.302 465.658 443.703 463.25C444.199 460.272 436.34 445.898 434.609 442.438C427.316 427.85 419.883 412.762 413.828 397.625C408.71 384.831 401.352 372.92 396.234 360.125C392.799 351.537 387.95 343.492 384.516 334.906C383.493 332.35 382.381 328.678 380.422 326.719C380.227 326.914 379.829 327.036 379.828 327.312C379.634 369.695 379.925 412.055 379.828 454.438C379.826 455.293 378.34 456.777 377.484 456.781C356.196 456.878 334.898 456.878 313.609 456.781C311.775 456.773 303.886 442.43 302.484 440.094C292.088 422.766 282.349 404.75 271.141 387.938C270.945 388.133 270.549 388.255 270.547 388.531C270.353 410.308 270.643 432.098 270.547 453.875C270.541 455.172 269.169 456.494 267.922 456.5C248.977 456.597 230.024 456.781 211.078 456.781C210.059 456.781 208.691 455.7 208.453 454.75C208.406 454.561 208.454 454.352 208.453 454.156C208.356 405.23 208.433 356.3 208.141 307.375C208.139 307.099 207.774 306.977 207.578 306.781ZM120.922 550.812C120.399 551.399 119.725 552.259 119.391 552.594C119.338 552.541 119.316 552.433 119.266 552.375C118.916 555.332 119.803 559.475 121.422 561.094C121.78 560.915 122.055 560.614 122.266 560.25C122.263 560.241 122.269 560.228 122.266 560.219C123.51 558.015 122.306 553.201 120.922 550.812ZM122.266 560.25C120.454 564.92 127.185 581.627 129.047 586.281C140.012 613.694 154.885 638.917 174.453 661.281C181.089 668.865 188.091 676.192 195.547 682.969C256.669 738.534 343.376 761.9 424.641 747.125C444.56 743.503 463.387 737.32 482.078 729.844C487.988 727.48 495.696 724.912 500.828 721.062C506.372 716.905 513.311 713.81 519.297 710.219C530.825 703.302 541.694 694.746 551.797 685.906C558.51 680.032 564.828 673.751 571.141 667.438C584.025 654.553 594.619 639.057 603.953 623.5C606.994 618.431 611.881 612.008 613.328 606.219C614.345 602.15 617.029 598.139 618.609 594.188C620.663 589.054 622.398 583.794 624.453 578.656C632.922 557.483 636.809 532.375 637.359 509.812C637.509 503.661 637.641 497.528 637.641 491.375C637.641 490.742 638.384 484.181 635.891 483.469C634.618 483.105 630.454 485.375 629.141 485.812C622.959 487.873 616.884 490.19 610.703 492.25C597.957 496.499 585.361 501.187 572.609 505.438C568.217 506.902 561.976 510.688 557.359 510.688C555.309 510.688 553.205 510.243 551.203 510.688C546.243 511.79 542.934 516.567 538.328 517.719C530.516 519.672 521.949 519.574 514.297 522.125C505.455 525.072 502.347 530.344 491.453 530.344C489.767 530.344 484.524 530.013 482.953 528.562C478.84 524.766 477.682 522.719 472.109 522.719C467.758 522.719 466.179 530.176 462.141 530.625C460.069 530.855 458.115 528.849 456.578 529.156C452.75 529.922 449.699 534.321 445.734 535.312C442.517 536.117 438.261 536.57 435.172 537.875C433.714 541.177 432.149 544.441 431.328 545C431.394 545.083 431.624 545.202 431.672 545.281C432.149 546.077 429.695 550.239 428.672 550.844C428.781 550.946 428.943 551.021 429.047 551.125C428.418 552.384 427.84 553.797 426.922 554.875C426.929 554.897 426.98 554.916 426.984 554.938C427.234 556.185 425.105 559.92 424.172 560.938C424.188 560.969 424.354 561.066 424.359 561.094C424.522 561.906 422.999 563.79 422.297 564.562C422.298 564.569 422.296 564.588 422.297 564.594C422.498 565.803 420.376 569.879 419.234 570.531C419.364 570.714 419.608 570.87 419.672 571.062C419.895 571.734 418.385 573.798 417.453 574.219C417.585 574.341 417.797 574.438 417.922 574.562C416.986 576.433 416.254 578.835 414.922 580.375C414.931 580.398 414.977 580.415 414.984 580.438C415.14 580.904 409.788 591.736 409.141 593.031C405.703 599.907 402.186 607.001 399.078 614.125C397.724 617.581 396.321 620.988 394.516 624.312C392.963 627.542 391.134 630.559 388.047 632.875C385.751 634.598 381.687 634.893 378.953 635.5C370.797 637.313 357.63 638.848 350.266 642.406C352.644 645.165 354.277 649.997 355.516 653.094C358.735 661.14 363.735 668.485 366.953 676.531C368.389 680.12 370.063 685.797 372.797 688.531C372.992 688.335 373.385 688.214 373.391 687.938C373.679 674.073 373.576 660.211 373.672 646.344C373.679 645.492 374.484 644.281 375.422 644.281C378.978 644.282 391.564 644.218 391.547 648.969C391.45 675.824 391.362 702.707 391.266 729.562C391.261 730.779 391.479 731.065 389.797 731.906C388.667 732.472 374.071 733.149 373.391 732.469C370.121 729.199 368.107 723.4 366.047 719.281C361.337 709.863 356.409 700.567 351.703 691.156C349.925 687.601 348.364 682.567 345.547 679.75C345.351 679.945 344.956 680.067 344.953 680.344C344.76 696.554 345.05 712.758 344.953 728.969C344.948 729.73 343.659 731.312 342.922 731.312C340.12 731.313 326.808 730.029 326.797 726.906C326.701 700.539 326.797 674.18 326.797 647.812C325.438 648.628 314.323 651.414 312.672 651.281C314.887 663.737 316.527 676.319 318.609 688.812C320.252 698.662 321.779 708.537 323.297 718.406C323.509 719.783 326.084 728.375 322.984 728.375C319.207 728.375 308.378 725.366 306.016 722.531C303.921 720.018 304.381 709.105 303.359 705.531C303.143 704.774 287.658 699.747 285.797 699.375C283.336 698.883 282.474 711.732 281.109 713.438C279.917 714.928 265.08 710.701 263.828 709.031C263.651 708.795 263.771 707.779 264.016 706.438C264.02 706.39 264.01 706.361 264.016 706.312C264.147 705.157 264.449 703.888 264.891 702.531C265.91 698.344 267.264 693.554 267.609 692.344C270.635 681.755 273.276 671.043 275.891 660.344C275.867 660.153 275.875 659.924 275.828 659.75C273.977 660.929 264.013 662.934 262.359 662.75C257.889 662.253 258.116 654.201 257.672 651.312C256.08 640.965 254.576 630.628 252.984 620.281C252.331 616.036 249.784 610.007 253.547 606.781C255.497 605.11 259.971 605.35 262.359 605.031C270.175 603.989 277.991 602.928 285.797 601.812C306.971 598.788 328.156 595.858 349.359 593.031C358.862 591.765 369.08 591.258 378.359 588.938C385.306 587.2 386.986 573.015 391.422 568.312C391.393 568.245 391.279 568.194 391.266 568.125C391.06 567.098 393.474 563.423 394.328 562.469C394.291 562.393 394.198 562.329 394.172 562.25C393.935 561.539 395.529 559.029 396.266 558.719C396.173 558.631 396.042 558.558 395.953 558.469C396.867 556.641 397.669 554.248 399.078 552.75C399.018 552.692 398.918 552.652 398.859 552.594C399.331 551.651 400.095 549.27 401.172 548.844C401.104 548.723 400.965 548.628 400.922 548.5C400.614 547.574 403.103 544.142 403.922 543.219C403.823 543.126 403.64 543.031 403.547 542.938C403.824 542.66 404.12 541.915 404.422 541.219C404.415 541.145 404.47 540.997 404.453 540.938C397.523 545.509 381.474 546.802 374.547 548.188C368.941 549.309 368.602 556.406 361.953 556.406C360.979 556.407 355.62 556.511 354.328 555.219C353.747 554.637 353.015 553.706 352.172 552.906C352.164 552.902 352.149 552.911 352.141 552.906C351.062 552.362 349.882 551.904 348.609 551.531C343.881 551.772 339.585 554.062 335.016 554.062C333.068 554.062 331.205 553.759 329.359 553.375C329.085 553.387 328.824 553.469 328.547 553.469C324.985 553.469 321.547 551.917 318.016 550.875C316.951 550.725 315.887 550.531 314.797 550.531C310.34 550.531 306.95 554.062 302.766 554.062C294.566 554.062 286.275 551.162 278.172 553.188C277.674 553.312 277.235 553.598 276.828 553.906C276.661 554.058 276.467 554.189 276.297 554.344C275.231 555.339 274.357 556.616 273.203 557C269.056 558.382 262.864 554.938 258.547 554.938C255.774 554.938 250.942 555.15 247.703 555.531C241.519 556.259 232.964 557.321 227.203 559.625C223.577 561.075 220.846 562.943 216.641 563.438C208.734 564.368 201.056 562.25 193.203 562.25C189.733 562.25 186.485 563.953 182.953 564.031C179.438 564.109 175.933 563.846 172.422 564.031C172.147 564.046 171.832 564.317 171.828 564.594C171.537 586.467 171.612 608.344 171.516 630.219C171.512 631.147 170.825 632.265 169.766 632C167.026 631.315 160.356 619.857 158.359 617.062C157.447 615.787 153.962 612.381 153.953 610.906C153.857 595.769 154.24 580.634 153.953 565.5C153.922 563.871 150.934 564.791 150.141 565.188C146.479 567.018 143.365 571.74 138.703 569.875C131.35 566.934 136.791 557.081 124.078 563.438C123.218 562.578 122.653 561.464 122.266 560.25ZM585.797 541.75C590.492 542.043 591.641 546.937 591.641 549.375C591.641 553.966 591.449 558.566 591.359 563.156C591.331 564.559 590.665 566.476 589.609 567.531C585.849 571.291 581.98 574.945 578.172 578.656C575.225 575.709 578.826 567.657 575.828 568.406C574.026 568.857 570.859 573.115 570.859 575.438C570.859 578.861 569.194 583.088 571.422 585.688C576.579 591.703 588.138 585.991 591.359 595.656C595.93 609.369 583.71 623.158 576.422 632.875C572.592 637.982 566.701 649.777 559.422 648.969C556.391 648.632 554.81 643.87 554.453 641.375C554.328 640.499 554.141 639.603 554.141 638.719C554.141 635.104 554.273 631.485 554.453 627.875C554.611 624.712 559.296 621.279 560.578 619.969C563.186 617.304 565.833 614.652 568.516 612.062C571.538 609.145 570.348 619.258 571.422 619.688C573.616 620.565 577.297 615.906 577.297 613.531C577.296 612.196 577.423 608.929 576.703 607.969C572.827 602.8 561.116 606.529 555.609 599.188C554.598 597.839 554.141 594.829 554.141 593.312C554.14 589.014 554.291 584.733 554.453 580.438C554.762 572.247 558.444 567.92 563.828 561.969C566.657 558.841 569.467 555.721 572.297 552.594C576.251 548.224 579.928 543.217 585.797 541.75ZM462.453 557.875C465.584 557.91 468.702 558.29 471.828 558.469C476.548 558.739 499.948 561.805 500.547 569.594C500.629 570.662 500.396 571.636 499.984 572.562C500.187 572.74 500.539 572.833 500.547 573.094C500.737 579.537 500.642 585.993 500.547 592.438C500.497 595.829 493.944 598.641 491.172 599.75C484.629 602.367 476.754 603.875 469.766 603.875C458.888 603.875 444.105 604.06 433.734 598.875C431.412 597.714 426.468 595.366 426.422 592.438C426.327 586.481 426.422 580.52 426.422 574.562C426.422 573.71 426.388 573.336 426.828 572.781C426.293 571.555 426.093 570.243 426.703 568.719C430.394 559.491 455.751 557.8 462.453 557.875ZM184.141 568.406C192.977 570.057 197.563 575.923 202.578 580.438C208.587 585.845 222.797 594.607 222.797 603.875C222.796 609.052 222.694 614.233 222.516 619.406C222.492 620.096 222.586 620.863 222.203 621.438C220.149 624.519 217.387 621.96 215.484 620.281C212.325 617.493 206.822 614.001 205.234 610.031C203.929 606.767 205.957 601.972 203.172 599.188C201.823 597.839 196.811 591.995 194.953 594.781C191.674 599.701 203.114 612.144 205.797 615.594C213.119 625.008 222.797 634.727 222.797 647.531C222.797 653.098 222.675 658.654 222.516 664.219C222.372 669.251 221.676 673.986 217.828 677.406C213.442 681.304 202.713 668.804 200.547 666.844C192.797 659.831 176.797 650.155 176.797 637.562C176.797 632.191 177.02 626.809 177.109 621.438C177.143 619.459 177.1 619.666 178.547 618.219C182.012 619.951 185.224 623.74 187.922 626.438C190.072 628.588 192.949 630.332 194.078 633.156C195.339 636.306 193.272 641.543 195.266 643.719C196.718 645.303 198.905 646.913 200.547 648.406C200.846 648.678 204.437 651.922 204.641 649.281C204.828 646.846 204.921 644.308 204.328 641.938C203.607 639.051 200.261 636.034 198.484 633.75C193.654 627.54 188.861 621.294 184.141 615C181.364 611.298 176.797 607.167 176.797 602.094C176.797 593.402 176.923 584.721 177.109 576.031C177.19 572.266 180.719 569.262 184.141 568.406ZM541.547 587.469C545.946 586.876 550.047 589.796 550.047 595.062C550.047 604.145 549.949 613.232 549.766 622.312C549.61 630.05 544.42 634.822 540.078 640.5C539.735 640.948 542.716 644.194 543.016 644.594C546.028 648.61 549.098 652.578 552.109 656.594C552.915 657.667 556.283 660.572 555.016 662.156C553.955 663.482 543.104 670.745 542.141 669.781C537.408 665.049 533.564 658.731 529.547 653.375C529.073 652.743 524.373 647.457 524.266 651.312C523.979 661.661 524.08 672.024 523.984 682.375C523.979 683.019 510.368 693.307 509.016 693.5C507.927 693.656 506.109 693.22 506.109 691.75C506.109 664.797 506.294 637.859 506.391 610.906C506.392 610.711 506.264 610.461 506.391 610.312C508.881 607.408 513.26 605.495 516.359 603.281C523.827 597.947 532.356 588.707 541.547 587.469ZM231.297 605.031C233.204 604.799 247.417 613.184 247.422 614.406C247.518 637.258 246.942 660.122 247.422 682.969C247.448 684.238 262.005 690.68 262.047 692.625C262.141 696.92 262.14 701.235 262.047 705.531C262.033 706.215 260.947 707.188 260.297 707.281C257.837 707.632 255.009 704.996 252.984 703.781C247.427 700.446 241.824 697.148 236.266 693.812C234.956 693.026 229.581 690.764 229.547 689.125C228.973 661.69 229.45 634.222 229.547 606.781C229.549 605.968 230.611 605.115 231.297 605.031ZM499.359 613.25C500.21 613.023 501.675 613.724 501.703 615C501.796 619.199 501.796 623.395 501.703 627.594C501.686 628.356 500.82 628.855 500.234 629.344C498.077 631.141 482.983 636.606 482.953 638.438C482.858 644.101 482.859 649.774 482.953 655.438C482.992 657.746 486.083 655.92 487.047 655.438C489.687 654.118 499.468 647.819 501.422 650.75C501.594 651.007 501.696 651.316 501.703 651.625C501.794 655.628 501.796 659.622 501.703 663.625C501.643 666.21 485.414 670.589 483.234 673.312C483.098 673.483 482.957 673.657 482.953 673.875C482.859 679.147 482.859 684.446 482.953 689.719C482.996 692.098 486.068 690.11 487.047 689.719C489.258 688.834 501.592 681.678 501.703 686.469C501.794 690.374 501.796 694.283 501.703 698.188C501.698 698.406 501.562 698.613 501.422 698.781C499.222 701.422 494.31 702.807 491.172 704.062C485.902 706.171 480.912 708.985 475.641 711.094C473.286 712.035 470.509 714.238 468.016 714.594C467.12 714.722 465.107 714.785 465.078 713.156C464.598 685.719 464.981 658.254 465.078 630.812C465.086 628.796 471.53 626.852 472.984 626.125C481.511 621.862 490.161 615.701 499.359 613.25ZM443.391 636.969C447.576 636.767 456.297 637.971 456.297 644.281C456.297 666.352 456.207 688.43 456.016 710.5C455.889 725.083 426.378 726.768 416.734 728.375C412.452 729.088 408.18 730.287 403.859 730.719C402.724 730.833 400.646 730.156 400.641 728.656C400.545 701.41 400.544 674.184 400.641 646.938C400.651 644.08 407.811 643.827 409.703 643.406C420.707 640.961 432.134 637.511 443.391 636.969ZM543.297 307.094C540.958 309.433 540.092 313.785 538.609 316.75C534.64 324.689 530.498 332.826 527.203 341.062C521.957 354.178 514.261 366.323 509.016 379.438C502.675 395.289 494.684 411.038 487.047 426.312C482.419 435.569 478.485 445.186 473.859 454.438C472.67 456.816 468.93 462.213 469.766 464.719C472.28 464.719 475.014 463.167 477.391 462.375C487.845 458.89 495.704 454.425 504.047 447.125C505.212 446.105 508.391 445.675 509.922 445.062C514.592 443.195 518.809 440.592 523.078 438.031C527.599 435.319 531.405 430.589 536.266 428.969C543.374 426.599 550.753 426.031 558.234 426.031C558.453 426.031 561.114 425.796 561.484 426.906C562.366 429.552 556.289 434.651 553.859 434.812C540.811 435.682 540.992 433.561 531.578 442.156C525.676 447.545 518.951 451.851 513.422 457.688C512.63 458.524 517.494 462.055 514.297 464.719C511.628 466.943 506.398 465.416 503.453 467.625C499.616 470.503 500.351 475.518 496.422 477.875C491.768 480.667 484.908 478.459 479.734 479.938C474.891 481.321 472.077 486.425 467.734 489.031C463.782 491.403 459.594 492.212 455.422 494C453.344 494.891 451.982 501.161 451.016 503.094C450.356 504.413 447.678 508.206 448.672 509.531C449.26 510.315 458.84 512.901 460.391 513.344C465.242 514.73 469.58 515.375 474.766 515.375C478.013 515.375 483.04 510.434 485.016 508.656C491.722 502.62 499.472 489.214 508.453 486.969C515.002 485.331 520.968 486.094 527.766 486.094C535.366 486.094 540.881 480.817 546.516 476.719C552.223 472.568 555.93 485.523 561.484 484.906C562.487 484.795 562.876 479.263 563.234 478.188C564.678 473.858 567.697 472.625 572.016 472.625C576.193 472.625 572.891 478.234 572.891 479.938C572.891 482.912 577.056 485.827 578.453 488.156C579.124 489.274 578.961 492.239 579.047 492.844C579.186 493.818 580.435 494.997 581.391 495.188C587.931 496.496 587.637 489.806 593.109 488.438C595.795 487.766 605.244 486.884 606.297 486.094C607.88 484.906 609.155 482.809 611.266 482.281C615.589 481.2 621.894 482.153 625.641 479.344C627.421 478.008 629.084 473.939 630.891 472.906C632.168 472.176 635.142 473.434 635.891 471.438C636.786 469.049 635.087 464.276 634.703 461.781C633.424 453.468 631.49 445.303 629.453 437.156C620.031 399.468 599.29 363.79 573.203 335.219C564.266 325.43 554.513 314.571 543.297 307.094ZM171.516 563.156C171.223 563.449 171.246 563.426 170.953 563.719C171.246 564.012 171.223 564.02 171.516 564.312C171.809 564.02 171.816 564.012 172.109 563.719C171.816 563.426 171.809 563.449 171.516 563.156ZM531.297 610.312C529.901 610.653 523.821 614.599 523.672 615.875C523.061 621.113 523.309 626.426 523.672 631.688C523.994 636.353 532.31 628.232 532.766 627.594C535.514 623.745 534.515 615.887 534.516 612.656C534.516 610.88 532.603 609.993 531.297 610.312ZM431.984 655.438C430.364 655.459 417.933 657.891 417.922 658.938C417.729 676.808 417.729 694.692 417.922 712.562C417.937 713.994 423.66 712.366 424.359 712.25C429.14 711.453 436.921 711.223 438.422 705.219C438.566 704.643 438.695 704.063 438.703 703.469C438.893 689.114 439.016 674.762 439.016 660.406C439.016 656.681 434.703 655.402 431.984 655.438ZM295.172 661.875C294.642 662.405 293.255 662.898 293.109 663.625C292.292 667.714 287.63 680.905 288.703 684.125C291.984 684.125 297.476 686.465 300.422 687.938C300.715 687.645 300.723 687.668 301.016 687.375C297.841 681.026 300.915 671.126 297.516 664.812C296.923 663.711 295.731 662.994 295.172 661.875Z" fill="#ffffff" fill-rule="nonzero" opacity="1" stroke="none"/>
</g>
</svg>
