<?xml version="1.0" encoding="UTF-8" standalone="no"?>
<!DOCTYPE svg PUBLIC "-//W3C//DTD SVG 1.1//EN" "http://www.w3.org/Graphics/SVG/1.1/DTD/svg11.dtd">
<!-- Created with Vectornator (http://vectornator.io/) -->
<svg height="100%" stroke-miterlimit="10" style="fill-rule:nonzero;clip-rule:evenodd;stroke-linecap:round;stroke-linejoin:round;" version="1.1" viewBox="0 0 750 1000" width="100%" xml:space="preserve" xmlns="http://www.w3.org/2000/svg" xmlns:vectornator="http://vectornator.io" xmlns:xlink="http://www.w3.org/1999/xlink">
<defs/>
<g id="Layer-1" vectornator:layerName="Layer 1">
<path d="M374.849 210.929C340.082 211 305.332 211.31 270.568 211.648C269.601 211.658 269.206 213.044 268.506 213.711C267.155 214.997 265.777 216.252 264.412 217.523C259.022 222.541 253.845 228.25 248.006 232.742C246.906 233.588 245.779 231.088 244.787 230.117C240.987 226.397 237.171 222.659 233.349 218.961C231.116 216.799 229.736 212.65 226.631 212.523C176.38 210.468 126.017 212.523 75.7244 212.523C75.2536 214.877 83.5712 227.924 85.4119 230.992C94.2265 245.683 101.785 261.114 110.599 275.804C112.175 278.43 120.253 290.609 120.256 292.804C120.451 425.031 120.159 557.265 120.256 689.492C120.279 720.58 151.809 750.296 182.381 750.429C226.326 750.62 270.279 750.52 314.224 750.711C332.568 750.79 350.811 760.922 363.443 773.554C368.114 778.225 370.963 783.904 374.849 789.086C378.711 785.224 381.004 779.455 384.818 775.336C395.729 763.552 408.481 755.924 424.068 752.461C427.629 751.67 431.585 751.008 435.224 750.992C479.072 750.802 522.908 750.901 566.756 750.711C584.858 750.632 600.769 740.135 613.037 727.867C622.747 718.157 629.142 701.221 629.162 687.711C629.355 556.07 629.249 424.445 629.443 292.804C629.446 290.705 637.289 278.946 638.818 276.398C647.339 262.196 654.609 247.225 663.131 233.023C666.056 228.148 669.088 223.171 671.631 218.086C672.029 217.289 674.45 214.215 674.287 213.398C674.218 213.053 674.045 212.525 673.693 212.523C623.499 212.231 573.286 211.566 523.099 212.523C521.719 212.55 521.149 214.495 520.162 215.461C516.657 218.89 513.155 222.302 509.631 225.711C507.198 228.064 504.816 230.494 502.287 232.742C502.141 232.872 501.883 232.855 501.724 232.742C495.103 228.012 489.222 221.015 483.256 215.461C481.89 214.189 481.027 211.682 479.162 211.648C444.402 211.026 409.617 210.858 374.849 210.929ZM374.849 214.398C409.031 214.339 443.238 214.557 477.412 215.179C479.277 215.214 480.14 217.689 481.506 218.961C488.214 225.206 494.642 232.229 501.724 238.023C501.876 238.147 502.141 238.153 502.287 238.023C508.675 232.32 514.639 226.142 520.756 220.148C522.038 218.891 522.773 216.382 524.568 216.336C572.11 215.1 619.698 216.044 667.256 216.336C668.469 216.343 664.391 223.189 664.006 223.961C661.468 229.037 658.458 234.03 655.537 238.898C647.938 251.564 641.449 264.889 633.849 277.554C632.651 279.551 625.634 290.188 625.631 291.617C625.338 423.745 625.543 555.894 625.349 688.023C625.337 696.738 622.238 707.157 617.724 714.679C607.697 731.392 588.02 746.808 567.349 746.898C523.404 747.089 479.451 747.021 435.506 747.211C419.753 747.278 399.957 754.634 388.631 765.961C383.649 770.942 379.742 776.881 374.849 781.773C359.624 762.742 339.251 747.009 313.631 746.898C269.783 746.709 225.947 746.808 182.099 746.617C159.496 746.519 136.89 728.86 128.756 708.523C126.457 702.776 124.077 696.006 124.068 689.773C123.874 557.156 123.884 424.547 123.787 291.929C123.785 288.727 115.016 275.759 112.943 272.304C105.68 260.199 99.3952 247.474 92.1307 235.367C88.7725 229.77 86.1982 221.528 81.5994 216.929C81.7948 216.734 81.917 216.337 82.1932 216.336C129.849 216.141 177.571 213.845 225.162 216.336C228.955 216.534 230.621 221.599 233.349 224.242C238.112 228.855 242.852 233.526 247.724 238.023C254.208 233.701 259.865 226.94 265.568 221.617C267.033 220.25 268.526 218.908 269.974 217.523C270.773 216.759 271.213 215.192 272.318 215.179C306.496 214.793 340.668 214.457 374.849 214.398ZM374.724 231.523C342.741 231.439 310.736 231.481 278.756 231.867C277.651 231.88 277.21 233.447 276.412 234.211C274.964 235.596 273.502 236.937 272.037 238.304C263.855 245.941 255.694 253.619 247.412 261.148C239.605 253.341 231.641 245.687 223.693 238.023C221.853 236.249 220.684 232.861 218.131 232.742C182.33 231.073 146.439 232.548 110.599 232.742C110.323 232.743 110.201 233.14 110.006 233.336C116.477 246.278 124.222 259.259 131.693 271.711C133.171 274.175 140.473 285.117 140.474 287.242C140.572 420.25 140.378 553.266 140.474 686.273C140.478 691.301 141.926 700.115 145.162 704.429C154.197 716.477 164.991 729.824 181.787 729.898C225.341 730.09 268.889 730.025 312.443 730.211C335.622 730.31 361.215 739.775 374.568 759.804C378.759 756.312 381.832 751.664 386.006 748.086C399.505 736.515 418.46 730.568 436.099 730.492C479.849 730.305 523.6 730.403 567.349 730.211C581.785 730.147 602.316 715.128 605.724 701.492C606.762 697.342 608.656 693.026 608.662 688.617C608.856 554.926 608.748 421.214 608.943 287.523C608.945 286.342 614.151 278.574 615.099 276.992C621.372 266.539 626.702 255.508 632.974 245.054C633.74 243.778 639.549 234.302 639.412 233.617C639.343 233.272 639.17 232.745 638.818 232.742C603.077 232.451 567.339 232.356 531.599 232.742C531.047 232.748 530.808 233.543 530.412 233.929C526.706 237.548 523 241.131 519.287 244.742C513.643 250.231 507.977 255.706 502.287 261.148C495.019 253.88 487.27 247.068 479.756 240.054C478.291 238.687 476.816 237.326 475.349 235.961C473.83 234.546 472.738 231.87 470.662 231.867C438.68 231.818 406.707 231.608 374.724 231.523ZM577.006 285.086C578.962 285.024 580.932 285.044 582.881 285.179C585.123 285.336 580.963 290.906 580.537 291.617C578.638 294.782 567.885 310.097 568.818 312.429C573.573 324.316 579.563 335.697 584.318 347.586C586.16 352.191 588.257 356.932 590.474 361.367C590.751 361.919 592.942 365.996 591.662 366.054C587.565 366.241 583.447 366.241 579.349 366.054C578.754 366.027 574.847 356.658 574.381 355.492C571.283 347.748 567.228 340.392 564.131 332.648C563.131 330.149 562.203 326.315 560.318 324.429C559.065 325.996 554.494 331.308 554.443 333.242C554.155 344.176 554.162 355.117 554.162 366.054C554.162 366.273 554.346 366.422 554.443 366.617C554.248 366.812 554.125 367.198 553.849 367.211C549.752 367.397 545.653 367.582 541.568 367.211C541.133 367.171 540.978 366.491 540.974 366.054C540.782 339.395 540.781 312.714 540.974 286.054C540.976 285.778 541.347 285.658 541.568 285.492C541.742 285.361 541.912 285.179 542.131 285.179C545.941 285.179 549.776 285.131 553.568 285.492C553.981 285.531 554.428 285.953 554.443 286.367C554.726 294.272 554.253 302.178 554.443 310.086C554.45 310.362 554.842 310.484 555.037 310.679C559.123 304.55 562.669 298.059 566.756 291.929C567.504 290.806 569.776 285.621 571.162 285.492C573.107 285.311 575.05 285.148 577.006 285.086ZM273.349 285.117C275.256 285.045 277.168 285.047 279.068 285.179C281.416 285.343 281.677 294.387 281.974 296.023C283.479 304.297 284.717 312.634 286.099 320.929C286.469 323.148 286.422 328.884 288.131 330.023C289.874 328.28 289.785 323.095 290.193 320.648C291.529 312.637 292.951 304.631 294.287 296.617C294.7 294.14 294.599 287.972 296.037 286.054C296.203 285.834 296.355 285.505 296.631 285.492C300.63 285.306 304.667 285.22 308.662 285.492C309.075 285.52 309.352 285.996 309.537 286.367C310.642 288.577 310.602 292.133 311.006 294.554C312.341 302.568 313.646 310.594 315.099 318.586C315.628 321.49 315.437 328.58 317.443 330.586C319.186 328.842 319.067 323.657 319.474 321.211C320.858 312.912 322.216 304.603 323.599 296.304C323.857 294.756 324.258 285.545 326.224 285.492C328.503 285.431 338.289 284.564 338.537 286.054C339.124 289.574 336.261 299.087 335.599 303.054C333.419 316.135 331.342 329.223 329.162 342.304C328.185 348.164 327.201 354.038 326.224 359.898C326 361.244 326.223 364.807 324.943 365.836C325.173 366.013 325.409 366.115 325.631 366.336C325.338 366.628 325.169 367.187 324.756 367.211C319.88 367.487 314.974 367.492 310.099 367.211C309.129 367.155 309.281 365.007 309.662 363.867C308.091 361.893 308.036 357.484 307.756 355.804C306.615 348.963 305.496 342.097 304.256 335.273C303.91 333.372 304.079 329.253 302.787 327.961C300.942 329.806 301.173 333.679 300.724 336.148C299.484 342.971 298.365 349.839 297.224 356.679C297.015 357.934 296.474 365.98 295.162 366.054C290.287 366.33 285.416 366.242 280.537 366.054C279.263 366.006 278.907 359.93 278.756 359.023C277.47 351.311 276.229 343.579 274.943 335.867C273.072 324.638 271.252 313.408 269.381 302.179C268.626 297.654 266.036 290.558 267.037 286.054C267.097 285.785 267.355 285.512 267.631 285.492C269.53 285.353 271.443 285.189 273.349 285.117ZM411.756 285.273C413.711 285.294 415.68 285.399 417.631 285.492C417.907 285.505 418.179 285.782 418.224 286.054C418.681 288.793 415.166 294.903 414.131 297.492C410.85 305.693 408.317 314.197 405.037 322.398C403.935 325.153 401.251 329.693 401.224 332.648C401.129 343.194 401.416 353.728 401.224 364.273C401.219 364.55 400.906 364.852 400.631 364.867C396.408 365.101 389.083 366.176 388.912 363.117C388.36 353.269 389.287 343.379 388.912 333.523C388.883 332.761 387.726 332.481 387.443 331.773C386.285 328.877 385.382 325.887 384.224 322.992C380.83 314.505 378.244 305.698 374.849 297.211C373.958 294.982 373.528 290.687 371.631 285.492C375.568 285.487 384.381 285.461 384.381 285.461C384.381 285.461 391.114 304.905 392.724 308.929C393.338 310.463 393.452 312.415 394.787 313.304C395.954 312.137 396.209 310.139 396.818 308.617C399.261 302.51 401.359 291.743 404.756 286.648C405.062 286.189 405.362 285.542 405.912 285.492C407.857 285.315 409.8 285.252 411.756 285.273ZM254.193 285.429C254.639 285.462 255.016 285.599 255.037 286.054C255.223 290.152 255.223 294.27 255.037 298.367C255.024 298.643 254.719 298.952 254.443 298.961C248.392 299.15 242.339 298.772 236.287 298.961C236.011 298.969 235.697 299.278 235.693 299.554C235.591 306.194 237.793 313.161 235.693 319.461C235.986 319.558 236.259 319.737 236.568 319.742C242.525 319.835 248.489 319.553 254.443 319.742C254.719 319.751 255.023 320.06 255.037 320.336C255.222 324.042 255.222 327.754 255.037 331.461C255.023 331.737 254.719 332.046 254.443 332.054C248.489 332.243 242.522 331.865 236.568 332.054C236.355 332.061 235.693 332.989 235.693 333.242C235.693 339.493 235.911 345.742 236.006 351.992C236.009 352.187 235.918 352.38 236.006 352.554C236.571 353.686 236.569 352.881 237.443 352.867C243.107 352.774 248.782 352.678 254.443 352.867C254.719 352.876 255.031 353.185 255.037 353.461C255.135 357.756 253.115 362.492 255.037 366.336C254.744 366.629 254.576 367.199 254.162 367.211C243.814 367.496 233.447 367.498 223.099 367.211C222.748 367.201 222.636 366.663 222.506 366.336C222.433 366.154 222.506 365.937 222.506 365.742C222.506 340.449 222.506 315.16 222.506 289.867C222.506 288.828 222.506 286.055 222.506 286.054C222.548 285.781 222.823 285.497 223.099 285.492C233.059 285.3 243.014 285.492 252.974 285.492C253.222 285.492 253.748 285.397 254.193 285.429ZM158.662 285.492C162.759 285.306 166.846 285.306 170.943 285.492C171.549 285.519 175.942 296.084 176.506 297.492C179.785 305.691 183.789 313.606 187.068 321.804C188.334 324.97 189.732 330.937 192.037 333.242C192.232 333.047 192.627 332.924 192.631 332.648C192.824 317.122 192.438 301.581 192.631 286.054C192.634 285.778 192.949 285.505 193.224 285.492C197.224 285.306 201.225 285.306 205.224 285.492C205.5 285.505 205.816 285.778 205.818 286.054C206.012 312.519 206.012 338.997 205.818 365.461C205.816 365.737 205.5 366.042 205.224 366.054C201.127 366.241 197.009 366.241 192.912 366.054C192.194 366.022 188.169 355.886 187.662 354.617C184.302 346.217 180.178 338.111 176.818 329.711C175.595 326.652 174.406 321.455 172.131 319.179C171.935 319.375 171.54 319.466 171.537 319.742C171.344 334.877 171.537 350.043 171.537 365.179C171.391 365.228 171.013 365.206 170.818 365.242C170.95 365.343 171.133 365.338 171.256 365.461C170.865 366.242 170.865 365.836 171.256 366.617C171.06 366.812 170.938 367.198 170.662 367.211C166.662 367.397 162.662 367.397 158.662 367.211C158.386 367.198 158.264 366.812 158.068 366.617C158.719 365.315 158.198 366.763 158.068 365.461C157.99 364.684 157.915 363.883 158.068 363.117C158.101 362.954 158.22 362.96 158.318 362.929C158.23 362.792 158.069 362.669 158.068 362.523C157.875 338.305 158.068 314.086 158.068 289.867C158.068 288.759 157.156 285.56 158.662 285.492ZM443.131 285.492C453.219 285.328 466.568 289.239 466.568 302.179C466.568 317.903 466.442 333.614 466.256 349.336C466.163 357.168 457.415 366.054 449.287 366.054C439.577 366.055 425.537 362.085 425.537 349.648C425.537 333.535 425.66 317.417 425.849 301.304C425.959 291.99 434.769 285.628 443.131 285.492ZM480.318 285.492C489.887 285.302 499.468 285.594 509.037 285.773C510.742 285.805 512.672 286.237 514.318 286.648C519.192 287.867 525.162 294.743 525.162 300.117C525.162 304.794 526.234 314.336 522.818 319.461C520.245 323.321 517.499 324.152 514.006 325.898C513.759 326.022 513.497 326.221 513.443 326.492C513.084 328.286 515.665 332.999 516.349 334.711C519.177 341.78 521.567 349.144 523.974 356.367C524.337 357.454 528.001 365.976 526.318 366.054C522.319 366.241 518.318 366.241 514.318 366.054C513.195 366.002 511.959 360.789 511.662 359.898C509.338 352.928 506.673 346.055 504.349 339.086C503.864 337.629 500.374 326.862 499.662 326.773C497.425 326.494 492.946 325.113 492.912 327.367C492.72 340.061 493.104 352.767 492.912 365.461C492.908 365.737 492.545 365.859 492.349 366.054C492.496 366.347 492.484 366.324 492.631 366.617C492.435 366.812 492.313 367.198 492.037 367.211C488.038 367.397 484.031 367.489 480.037 367.211C479.343 367.162 479.443 366.129 479.443 365.742C479.443 339.277 479.153 312.83 479.443 286.367C479.448 285.953 479.904 285.5 480.318 285.492ZM264.412 377.867C374.858 377.477 485.307 378.783 595.756 378.929C596.032 378.93 596.334 379.247 596.349 379.523C596.534 382.839 596.534 386.177 596.349 389.492C596.334 389.768 596.032 390.054 595.756 390.054C448.49 390.25 301.24 390.25 153.974 390.054C153.698 390.054 153.396 389.768 153.381 389.492C153.185 385.976 150.454 378.988 153.974 378.929C190.786 378.317 227.597 377.997 264.412 377.867ZM286.474 405.304C286.593 405.365 286.828 405.566 287.849 405.586C292.341 405.674 296.83 405.403 301.318 405.586C303.333 405.668 307.865 410.207 309.537 411.461C317.312 417.292 325.347 422.812 333.256 428.461C378.705 460.925 424.024 493.528 469.474 525.992C503.449 550.26 538.042 573.91 571.443 598.961C577.486 603.493 583.765 607.758 589.912 612.148C591.078 612.981 596.202 615.683 596.349 617.117C596.719 620.717 598.314 625.402 595.756 627.961C586.442 623.304 577.86 615.267 569.381 609.211C554.629 598.673 539.915 588.092 525.162 577.554C475.611 542.161 426.182 506.605 376.631 471.211C355.328 455.995 334.058 440.739 312.756 425.523C306.206 420.845 299.68 416.139 293.131 411.461C290.858 409.837 287.324 408.203 285.787 405.898C286.341 405.344 286.356 405.244 286.474 405.304ZM332.381 405.586C595.955 405.781 596.349 405.903 596.349 406.179C596.544 468.972 596.642 531.762 596.349 594.554C596.348 594.907 595.827 595.148 595.474 595.148C593.806 595.148 580.286 584.273 577.881 582.554C561.364 570.757 544.898 558.884 528.381 547.086C484.695 515.882 441.097 484.54 397.412 453.336C382.262 442.514 367.156 431.657 352.006 420.836C345.461 416.161 337.468 411.861 331.787 406.179C332.08 405.887 332.088 405.879 332.381 405.586ZM261.474 406.773C269.042 412.449 291.349 424.814 291.349 434.898C291.35 446.727 277.037 469.476 262.943 462.429C259.409 465.964 256.653 483.742 255.037 489.398C254.557 491.078 253.514 498.996 251.818 499.336C251.362 499.427 242.368 492.542 241.568 491.742C247.123 480.632 245.993 466.142 251.506 455.117C249.721 453.69 247.695 451.727 245.662 450.711C240.232 457.499 235.185 464.729 230.131 471.804C228.796 473.672 226.6 478.414 224.568 479.429C223.91 479.759 214.924 472.313 214.006 471.211C223.178 457.451 233.706 444.543 243.318 431.086C249.031 423.087 254.527 413.721 261.474 406.773ZM153.974 446.617C160.204 449.732 165.863 455.158 171.537 459.211C185.079 468.884 198.432 478.819 211.974 488.492C252.491 517.433 292.458 547.176 332.974 576.117C376.733 607.374 419.871 639.485 463.631 670.742C477.46 680.619 491.114 690.739 504.943 700.617C512.083 705.717 520.713 710.543 526.912 716.742C526.433 717.22 526.22 717.601 525.443 717.617C520.952 717.709 516.453 717.968 511.974 717.617C510.862 717.53 503.489 711.333 502.006 710.273C491.706 702.916 481.556 695.38 471.256 688.023C416.799 649.126 363.119 609.14 308.662 570.242C267.175 540.609 226.211 510.219 184.724 480.586C176.872 474.977 169.139 469.226 161.287 463.617C159.87 462.605 153.598 459.197 153.381 457.461C152.957 454.069 153.196 450.624 153.381 447.211C153.396 446.935 153.779 446.812 153.974 446.617ZM323.287 450.992C324.081 450.992 333.457 458.686 333.256 459.492C331.809 465.279 329.035 471.231 326.818 476.773C321.794 489.335 317.78 502.307 312.756 514.867C310.661 520.104 307.738 533.666 304.256 537.148C302.801 536.178 294.332 530.665 294.006 529.523C293.345 527.212 300.32 514.715 299.568 513.398C298.423 511.395 285.356 502.042 282.881 500.804C281.81 500.269 269.448 511.369 268.506 511.054C265.219 509.959 260.658 505.551 258.256 503.148C274.814 492.11 289.866 477.803 305.412 465.367C309.914 461.765 314.41 458.125 318.912 454.523C319.733 453.866 322.195 450.992 323.287 450.992ZM359.318 478.242C359.832 478.036 370.067 484.921 370.162 485.586C370.746 489.674 367.847 496.454 366.943 500.523C364.969 509.405 363.073 518.298 361.099 527.179C360.531 529.738 360.45 533.415 359.318 535.679C359.611 535.972 359.619 535.98 359.912 536.273C366.542 527.433 372.833 518.296 379.256 509.304C381.451 506.231 384.192 500.13 387.443 498.179C387.611 498.079 387.856 498.107 388.037 498.179C389.257 498.668 398.285 505.387 398.006 506.086C395.198 513.104 386.45 522.251 381.881 528.648C375.25 537.932 368.606 547.176 361.974 556.461C358.686 561.065 355.548 567.302 351.131 570.836C348.891 569.342 341.735 565.772 340.881 563.211C340.301 561.473 342.226 557.128 342.631 555.304C344.517 546.815 346.307 538.293 348.193 529.804C348.752 527.288 352.236 513.628 351.131 512.523C347.404 518.114 343.316 523.464 339.412 528.929C335.506 534.398 331.6 539.867 327.693 545.336C326.965 546.355 324.667 550.898 323.287 550.898C321.822 550.898 318.373 547.411 317.131 546.523C315.806 545.577 313.716 544.577 313.037 542.992C312.81 542.462 315.12 539.857 315.381 539.492C318.106 535.677 320.874 531.87 323.599 528.054C332.184 516.036 340.796 504.042 349.381 492.023C350.976 489.79 357.463 478.984 359.318 478.242ZM153.974 479.429C160.293 482.588 166.058 488.19 171.818 492.304C183.199 500.434 194.437 508.8 205.818 516.929C242.806 543.349 279.268 570.478 316.256 596.898C353.243 623.318 389.736 650.478 426.724 676.898C439.186 685.799 451.45 694.934 463.912 703.836C469.639 707.927 476.684 711.92 481.506 716.742C481.31 716.937 481.188 717.3 480.912 717.304C463.043 717.594 445.157 717.434 427.287 717.617C406.758 717.828 388.944 727.835 374.849 741.929C353.263 721.207 334.536 717.304 304.256 717.304C266.365 717.304 228.458 717.212 190.568 717.023C172.057 716.931 153.409 703.152 153.381 683.336C153.284 615.562 153.186 547.796 153.381 480.023C153.382 479.747 153.779 479.625 153.974 479.429ZM420.256 523.648C424.117 523.999 428.117 526.61 431.099 528.929C441.781 537.237 443.997 547.748 436.099 558.804C434.547 560.978 433.051 564.066 430.818 565.554C429.219 564.355 420.849 559.052 420.568 557.648C420.258 556.098 424.926 551.567 425.849 550.336C429.474 545.503 424.741 539.817 420.256 538.023C416.011 536.325 413.29 539.462 411.193 542.398C405.743 550.029 400.237 557.643 394.787 565.273C393.099 567.636 387.756 572.529 387.756 575.523C387.756 581.783 392.368 587.19 399.162 585.492C402.553 584.644 407.622 576.478 409.131 573.461C406.352 571.608 400.89 569.029 399.162 566.148C398.768 565.493 404.157 558.529 405.037 557.648C410.302 560.281 415.177 564.753 419.974 568.179C421.706 569.416 424.735 570.728 425.849 572.586C426.303 573.342 423.386 576.609 422.912 577.273C419.156 582.531 415.566 588.085 411.474 593.086C409.399 595.623 403.645 605.063 401.224 606.273C400.179 606.796 395.467 602.695 395.068 601.898C394.548 600.858 396.4 599.923 394.474 598.961C392.913 598.18 390.585 598.191 388.912 597.773C382.063 596.061 375.649 587.783 373.974 581.086C371.941 572.952 377.284 566.627 381.599 560.586C390.548 548.058 403.03 522.082 420.256 523.648ZM462.756 551.773C469.204 554.997 475.141 560.632 480.912 564.961C483.051 566.565 487.154 568.531 488.537 570.836C488.868 571.386 481.854 580.843 480.631 581.367C480.152 581.572 478.043 579.598 477.693 579.336C473.777 576.398 469.153 573.702 465.693 570.242C461.644 575.304 458.231 581.485 453.662 586.054C458.718 589.847 464.44 593.302 468.912 597.773C466.564 601.295 463.94 605.318 460.693 608.023C455.723 604.296 450.726 600.626 445.756 596.898C441.879 602.066 436.309 607.573 433.443 613.304C437.582 616.616 445.667 620.22 448.381 624.742C448.935 625.667 441.527 634.431 440.474 635.273C433.82 630.836 427.561 625.729 421.162 620.929C419.666 619.808 415.38 617.831 415.006 615.961C414.916 615.511 424.935 602.305 426.131 600.711C434.455 589.612 442.973 578.594 451.037 567.304C454.688 562.193 458.318 556.211 462.756 551.773ZM503.756 581.679C507.789 583.696 511.582 587.158 515.193 589.867C522.376 595.254 533.943 600.893 533.943 611.273C533.943 623.045 518.42 643.652 505.224 637.054C503.903 638.376 503.648 641.361 503.193 643.179C501.381 650.428 499.371 657.683 497.318 664.867C496.528 667.635 496.342 672.56 494.099 674.242C491.633 672.392 485.35 669.461 484.131 666.617C483.474 665.085 486.297 658.677 486.787 656.961C488.645 650.457 490.396 643.898 492.037 637.336C492.45 635.685 494.609 631.292 493.818 629.711C493.176 628.427 489.275 626.283 487.943 625.617C482.34 634.021 474.125 647.726 466.568 654.023C464.324 652.527 457.593 649.194 456.599 646.711C456.321 646.016 466.369 632.393 467.724 630.586C475.851 619.751 483.884 608.794 491.756 597.773C495.542 592.473 499.154 586.282 503.756 581.679ZM554.162 619.742C564.345 619.742 580.818 628.393 580.818 639.961C580.818 644.945 576.976 657.648 571.724 659.898C571.212 660.118 562.606 653.092 561.787 652.273C564.986 647.475 567.753 645.171 566.162 638.804C564.209 630.994 552.58 632.122 548.881 637.054C544.153 643.358 549.631 653.618 551.818 660.179C556.511 674.257 556.255 686.883 544.193 695.929C532.893 704.405 511.978 691.566 508.162 680.117C505.133 671.031 511.421 661.014 517.537 654.898C520.591 656.426 523.918 658.967 526.318 661.367C523.433 665.695 518.741 670.622 520.162 676.304C521.552 681.864 534.106 688.735 538.912 683.929C544.772 678.069 541.005 668.881 538.349 662.242C532.993 648.85 529.378 633.442 543.318 624.148C546.466 622.05 550.175 619.742 554.162 619.742ZM161.006 364.273C164.126 365.196 168.661 365.636 170.818 365.242C168.323 363.334 164.206 364.932 161.006 364.273ZM444.287 298.367C441.835 298.585 438.742 300.909 438.724 303.648C438.628 318.394 438.443 333.121 438.443 347.867C438.443 355.373 449.103 353.672 452.506 349.929C452.952 349.439 453.372 348.267 453.381 347.586C453.572 333.231 453.662 318.879 453.662 304.523C453.662 299.607 447.732 298.061 444.287 298.367ZM492.037 298.367C491.682 298.58 491.185 298.828 491.162 299.242C490.886 304.117 491.068 309.016 491.162 313.898C491.195 315.61 493.437 315.388 494.381 315.367C498.092 315.285 501.828 315.216 505.537 315.054C515.152 314.636 515.193 298.914 507.881 298.648C502.805 298.464 497.709 298.461 492.631 298.367C492.435 298.363 492.205 298.267 492.037 298.367ZM264.131 424.648C258.611 425.431 255.194 434.866 252.693 439.867C252.087 441.079 255.373 442.812 256.193 443.398C259.999 446.117 263.854 450.531 268.818 450.117C271.23 449.916 273.172 446.246 274.381 444.554C275.324 443.234 277.749 440.991 277.881 439.273C278.377 432.826 269.966 423.821 264.131 424.648ZM315.381 472.679C312.628 474.056 309.863 477.408 307.474 479.429C302.082 483.992 296.629 488.486 291.349 493.179C292.666 494.935 294.601 495.993 296.349 497.304C298.818 499.156 301.904 502.35 305.131 499.929C306.463 498.931 307.134 494.734 307.756 493.179C310.398 486.575 312.793 479.637 315.974 473.273C315.681 472.98 315.674 472.972 315.381 472.679ZM506.693 599.554C502.255 603.993 498.459 609.828 494.974 615.054C498.006 619.096 506.006 625.023 511.099 625.023C514.292 625.023 520.475 614.897 520.474 611.554C520.474 608.511 509.555 601.462 506.693 599.554Z" fill="#ffffff" fill-rule="nonzero" opacity="1" stroke="none"/>
</g>
</svg>
