<?xml version="1.0" encoding="UTF-8" standalone="no"?>
<!DOCTYPE svg PUBLIC "-//W3C//DTD SVG 1.1//EN" "http://www.w3.org/Graphics/SVG/1.1/DTD/svg11.dtd">
<!-- Created with Vectornator (http://vectornator.io/) -->
<svg height="100%" stroke-miterlimit="10" style="fill-rule:nonzero;clip-rule:evenodd;stroke-linecap:round;stroke-linejoin:round;" version="1.1" viewBox="0 0 750 1000" width="100%" xml:space="preserve" xmlns="http://www.w3.org/2000/svg" xmlns:vectornator="http://vectornator.io" xmlns:xlink="http://www.w3.org/1999/xlink">
<defs/>
<g id="Layer-1" vectornator:layerName="Layer 1">
<path d="M463.156 261.67C455.547 261.81 446.708 263.679 438.844 264.889C377.023 274.4 318.482 306.713 283.281 359.514C273.235 374.583 265.25 391.013 259.531 408.17C257.352 414.707 255.464 421.348 253.969 428.077C253.759 429.021 253.331 434.747 251.937 434.827C239.846 435.518 227.36 434.25 215.312 433.045C166.426 428.157 118.948 411.551 75.2498 389.702C74.7491 392.206 81.0685 402.184 82.5936 405.233C89.6296 419.305 95.9081 433.985 103.969 447.42C113.852 463.894 123.838 479.009 137.656 492.827C142.599 497.77 148.597 501.706 153.5 506.608C158.102 511.211 160.387 520.036 163.75 525.639C171.271 538.174 177.444 551.162 186 563.139C195.084 575.858 205.573 587.804 217.937 597.42C221.97 600.557 226.149 603.573 230.531 606.202C232.182 607.192 234.729 608.056 236.094 609.42C239.723 613.05 240.945 623.086 244.312 627.577C256.865 644.314 265.946 660.657 285.031 672.108C288.895 674.426 293.464 678.341 297.906 679.452C302.049 680.488 306.024 682.941 310.219 684.139C320.602 687.106 330.986 689.637 341.875 689.983C348.219 690.184 354.573 690.42 360.906 689.983C362.477 689.875 364.154 688.781 365.594 689.42C367.233 690.149 368.512 692.899 369.406 694.389C376.633 706.435 364.378 710.759 358.562 720.452C357.421 722.354 357.406 726.825 357.406 728.358C357.406 731.374 360.981 734.621 362.656 736.295C367.354 740.994 381.358 736.996 387.562 734.514C397.491 730.543 405.453 724.249 413.062 716.639C416.717 712.985 418.543 706.286 422.437 703.17C422.551 703.079 437.93 707.523 439.437 707.858C457.772 711.932 476.573 713.964 495.375 712.858C554.089 709.404 606.988 677.85 641 630.233C651.636 615.342 660.288 597.724 665.312 580.139C669.768 564.545 674.216 547.816 674.687 531.795C676.648 465.12 646.857 403.935 592.062 364.795C569.117 348.406 541.38 337.736 513.531 333.452C504.662 332.087 495.567 331.108 486.594 331.108C486.375 331.108 486.195 331.292 486 331.389C484.719 330.108 488.51 318.054 489.219 315.577C491.953 306.007 494.899 296.409 498.594 287.17C500.292 282.925 503.281 277.763 503.281 273.108C503.281 269.385 500.633 265.503 497.719 263.42C497.129 263 495.095 261.681 494.5 261.67C484.052 261.479 473.603 261.479 463.156 261.67ZM488.937 267.764C491.499 267.986 493.872 268.722 495.687 270.764C498.428 273.848 493.187 282.704 491.875 285.983C487.451 297.045 483.921 308.706 481.031 320.264C479.754 325.376 479.511 332.679 477.219 337.264C477.414 337.46 477.536 337.843 477.812 337.858C483.177 338.14 488.536 337.986 493.906 338.139C510.144 338.603 528.476 341.698 543.719 347.795C558.522 353.717 572.531 359.691 585.906 368.608C619.478 390.989 642.436 423.09 657.094 459.733C665.149 479.871 668.566 503.667 667.656 525.045C666.518 551.794 661.557 582.949 647.437 606.483C639.08 620.412 631.127 633.993 619.906 646.045C587.365 680.998 539.084 706.389 490.406 706.389C469.795 706.389 438.501 704.468 418.906 694.67C415.5 698.076 413.493 705.21 410.406 709.327C402.592 719.746 389.942 728.119 377.031 730.702C374.178 731.272 370.115 732.404 367.344 731.295C364.285 730.072 362.616 725.338 365 722.795C375.951 711.115 384.03 704.153 373.812 688.827C372.434 686.759 370.681 683.679 368.531 682.389C368.471 682.353 357.628 683.545 357.094 683.545C348.126 683.546 339.044 683.558 330.156 682.077C309.167 678.578 287.966 669.512 272.719 654.264C263.768 645.314 257.892 634.849 250.469 624.952C247.618 621.151 246.406 615.358 244.312 611.17C246.311 610.504 249.488 612.899 251.344 613.827C256.907 616.608 262.516 618.907 268.625 620.264C277.159 622.161 285.919 623.911 294.687 624.077C298.399 624.147 302.523 622.698 305.844 624.358C306.137 624.065 306.113 624.088 306.406 623.795C305.674 622.88 303.219 618.622 302.031 618.514C295.662 617.935 289.32 618.386 282.969 617.639C269.92 616.104 254.525 612.448 243.125 605.608C233.104 599.595 222.844 594.108 214.437 585.702C194.887 566.151 180.381 543.995 168.125 519.483C169.989 518.861 185.791 526.443 188.937 527.702C204.35 533.867 222.061 536.595 238.437 538.233C242.508 538.64 246.662 539.025 250.75 539.108C254.075 539.176 258.367 540.866 260.719 538.514C260.316 537.708 259.868 533.68 258.969 533.545C251.192 532.379 243.064 532.718 235.219 531.795C215.864 529.518 194.687 524.639 177.812 514.514C167.07 508.069 155.981 501.496 147.031 492.545C135.651 481.166 124.35 468.962 116 455.045C106.141 438.613 98.1331 421.374 89.6248 404.358C89.9178 404.065 89.9256 404.057 90.2186 403.764C127.908 422.609 170.736 435.322 212.656 439.514C222.848 440.533 233.189 441.545 243.437 441.545C248.126 441.545 252.951 442.401 257.5 441.264C258.29 441.067 260.295 430.363 260.719 428.67C263.049 419.348 265.649 410.064 269.219 401.139C270.865 397.022 273.408 392.755 274.469 388.514C276.287 381.238 284.08 370.456 288.25 364.202C303.917 340.701 324.57 319.647 348.906 305.045C381.096 285.732 415.957 273.993 453.5 269.577C462.614 268.504 471.856 267.827 481.031 267.827C483.62 267.827 486.376 267.542 488.937 267.764ZM488 273.139C486.848 273.196 485.609 273.438 484.531 273.389C479.145 273.144 472.679 273.29 466.969 273.67C447.725 274.953 428.651 278.346 410.125 283.639C322.976 308.539 266.269 378.832 259.844 468.795C255.369 531.441 277.678 584.051 318.719 629.92C326.695 638.835 335.13 647.295 343.906 655.42C358.567 668.995 384.062 680.545 384.062 703.483C384.062 713.097 374.244 718.898 369.687 725.733C371.514 727.56 377.384 725.334 379.656 724.577C389.775 721.204 396.867 715.866 404.562 708.17C422.697 690.036 415.782 661.322 424.469 639.608C426.551 634.401 429.149 629.511 432.406 624.952C434.003 622.716 436.984 620.382 437.969 617.92C438.471 616.665 435.098 614.411 434.156 613.233C423.776 622.315 417.161 637.577 415.094 651.014C413.686 660.165 413.888 669.518 411.875 678.577C408.631 693.176 400.75 705.618 388.156 714.014C387.863 713.721 387.855 713.713 387.562 713.42C401.95 684.646 360.664 662.598 343.906 646.92C308.141 613.463 277.82 570.859 268.906 521.827C265.925 505.43 265.094 489.366 265.094 472.608C265.094 458.836 267.918 444.623 271.25 431.295C287.996 364.312 340.911 310.2 407.187 291.264C425.731 285.966 444.465 282.245 463.75 280.702C466.028 280.519 480.867 278.787 482.5 280.42C479.128 287.164 476.947 295.452 474.875 302.702C470 319.765 465.406 336.825 463.437 354.545C462.521 362.792 462.431 371.192 462.562 379.452C462.58 380.589 467.568 379.378 468.125 379.139C468.379 379.03 468.709 378.853 468.719 378.577C468.907 373.111 468.64 367.639 468.719 362.17C468.778 357.989 469.388 353.725 469.906 349.577C472.917 325.493 480.027 295.927 491 273.983C490.237 273.22 489.151 273.083 488 273.139ZM476.344 282.202C475.466 282.23 474.426 282.457 473.687 282.483C468.611 282.658 463.521 283.107 458.469 283.639C440.199 285.562 421.994 289.266 404.562 295.077C370.78 306.337 338.783 325.293 315.219 352.483C295.879 374.798 283.692 401.138 275.656 429.264C254.73 502.504 278.802 575.133 330.156 628.17C336.112 634.322 341.977 640.567 348.312 646.327C362.045 658.811 381.121 668.882 389.625 685.889C391.959 690.557 395.413 700.343 393.125 704.92C393.418 705.213 393.426 705.221 393.719 705.514C413.794 685.439 407.284 657.848 417.156 633.17C419.757 626.669 423.574 620.705 428 615.295C428.669 614.477 432.059 611.54 431.5 610.608C428.275 605.234 422.9 600.239 418.906 595.358C407.293 581.165 394.712 567.206 384.062 552.295C374.154 538.424 368.743 520.16 367.062 503.358C366.141 494.149 366.42 484.929 367.937 475.827C373.116 444.753 391.977 419.012 417.437 400.827C427.348 393.748 438.18 388.899 449.375 384.42C450.562 383.946 459.61 381.037 459.625 380.608C460.442 357.314 462.016 335.113 468.437 312.639C470.499 305.422 472.361 297.97 475.156 290.983C475.798 289.378 478.425 284.7 478.094 283.045C477.949 282.321 477.221 282.173 476.344 282.202ZM476.344 343.108C475.929 343.122 475.614 343.595 475.469 343.983C473.447 349.373 473.871 358.304 473.687 363.92C473.55 368.119 473.406 372.314 473.406 376.514C473.406 377.139 473.657 377.952 474.281 378.264C474.456 378.352 474.679 378.267 474.875 378.264C480.539 378.17 486.21 377.983 491.875 377.983C492.744 377.983 497.99 378.451 499.187 378.577C514.038 380.14 527.919 384.488 541.656 389.983C546.744 392.018 551.651 394.811 556.312 397.608C557.641 398.405 559.5 400.245 561 400.545C561.227 400.591 570.898 396.209 571.25 395.858C569.423 394.031 566.855 392.805 564.812 391.17C568.205 387.778 573.666 392.269 577.125 388.233C579.947 384.941 574.322 379.599 577.125 376.795C579.859 379.529 585.669 383.501 586.781 387.952C587.507 390.857 586.773 395.538 588.844 397.608C588.551 398.047 588.543 398.044 588.25 398.483C585.659 395.892 582.504 399.791 582.969 402.577C583.02 402.886 589.822 403.659 590.875 403.764C591.458 403.823 592.078 403.86 592.656 403.764C598.133 402.851 593.838 393.207 595.875 391.17C599.615 394.377 603.802 399.767 604.375 404.92C604.632 407.231 603.596 411.02 604.656 413.139C604.363 413.432 604.355 413.44 604.062 413.733C600.933 412.168 598.526 413.669 595.281 412.858C590.425 411.644 586.251 407.566 582.687 404.358C581.279 405.297 579.099 413.046 579.75 414.608C581.476 418.752 586.263 420.809 589.437 423.983C597.687 432.232 603.692 442.22 609.625 452.108C611.288 454.88 613.838 458.617 614.625 461.764C615.619 465.741 617.764 469.926 619.312 473.795C622.556 481.904 624.428 490.984 625.75 499.577C630.7 531.754 625.016 561.389 610.812 589.795C592.295 626.83 552.427 656.766 511.187 663.639C500.828 665.366 490.062 666.264 479.562 666.264C471.141 666.264 462.622 664.976 454.375 663.327C451.262 662.704 447.209 660.702 444.125 660.702C440.837 660.702 435.771 664.75 432.687 665.983C430.61 666.814 425.318 667.88 424.187 669.764C423.605 670.735 423.789 673.774 423.594 675.045C422.9 679.551 422.159 684.977 420.094 689.108C422.77 691.785 429.907 692.751 433.562 693.795C449.508 698.351 465.332 700.018 481.906 700.827C485.71 701.012 489.539 701.004 493.344 700.827C498.341 700.594 503.324 700.019 508.281 699.358C606.535 686.257 674.552 592.664 660.625 495.17C651.677 432.536 606.92 378.714 548.687 355.42C531.212 348.43 511.877 343.937 493.031 343.42C487.466 343.268 481.908 342.922 476.344 343.108ZM510.312 351.014C515.276 352.669 520.609 353.686 523.812 356.889C525.69 358.768 529.688 360.951 528.5 363.327C528.444 363.439 528.295 363.481 528.219 363.577C529.519 364.667 531.104 365.681 532.281 366.858C531.188 367.951 528.472 367.138 526.719 368.014C526.66 367.955 526.648 367.945 526.594 367.889C526.572 368.028 526.604 368.16 526.437 368.327C522.071 372.694 507.221 373.612 504.469 369.483C506.034 368.231 515 363.581 515 362.733C515 358.929 508.703 352.623 510.312 351.014ZM534.344 356.452C538.606 356.869 547.987 366.382 549 367.733C549.555 368.473 549.961 370.256 549.812 371.733C550.883 373.045 552.173 373.844 553.375 375.045C553.082 375.338 553.105 375.346 552.812 375.639C551.201 374.833 548.907 375.372 547.594 374.608C544.298 379.79 527.918 377.892 525.25 373.889C528.255 370.884 532.577 372.127 535.531 369.764C538.565 367.337 534.3 359.739 532.875 356.889C533.236 356.528 533.735 356.392 534.344 356.452ZM498.031 356.889C502.762 357.532 511.134 359.83 504.75 364.795C502.585 366.48 483.021 362.692 480.437 360.108C483.808 356.737 493.904 357.147 498.031 356.889ZM555.719 364.514C560.594 366.952 564.66 370.832 568.031 375.045C570.756 378.451 569.157 382.328 572.437 385.608C571.492 386.552 568.321 385.033 566.875 385.295C565.856 385.481 564.952 387.077 563.656 387.077C558.083 387.077 549.117 385.413 544.906 381.202C548.376 377.732 554.309 380.706 557.187 377.108C560.117 373.445 552.399 367.833 555.719 364.514ZM612.562 406.702C615.511 410.387 619.906 416.3 619.906 421.327C619.906 425 617.859 429.013 619.594 432.483C619.301 432.776 619.293 432.753 619 433.045C615.143 429.74 611.101 431.131 607 428.67C602.49 425.964 599.78 421.451 596.156 417.827C599.59 414.393 605.429 421.729 609.062 418.702C612.825 415.566 609.277 409.987 612.562 406.702ZM626.937 425.452C632.118 428.906 633.992 442.527 629.875 447.67C630.68 449.163 631.207 451.933 630.156 452.983C629.207 451.718 628.072 450.693 627.125 449.483C625.282 449.934 622.922 449.431 619.906 447.42C617.748 445.982 616.528 444.254 614.625 442.139C612.608 439.899 610.681 436.908 609.344 434.233C612.697 430.879 618.488 439.545 622.25 436.858C626.133 434.084 623.788 428.601 626.937 425.452ZM638.656 446.233C643.171 449.243 642.641 461.755 641 465.858C639.865 468.695 636.978 469.282 638.937 473.202C638.644 473.495 638.637 473.503 638.344 473.795C637.101 472.552 636.898 470.914 635.406 469.67C633.6 468.165 630.888 468.965 628.969 467.045C624.518 462.594 622.83 457.675 620.187 452.389C620.48 452.096 620.488 452.088 620.781 451.795C623.58 453.195 630.743 458.395 633.375 456.202C636.472 453.621 635.766 449.123 638.656 446.233ZM647.437 468.202C648.799 469.11 648.68 470.432 648.906 472.014C649.969 479.456 649.452 485.012 644.781 490.202C643.354 491.787 644.731 494.064 643.344 495.452C642.217 494.324 642.525 492.794 641.562 491.639C640.226 490.036 638.099 490.519 636.594 489.014C634.921 487.342 633.583 485.312 632.187 483.452C629.705 480.142 630.084 475.432 628.375 472.014C630.876 469.513 635.714 478.046 640.406 477.577C642.791 477.338 645.829 469.81 647.437 468.202ZM646.844 512.233C649.697 512.461 652.251 514.065 653.594 517.42C655.112 521.218 653.041 529.139 647.719 529.139C636.186 529.139 632.547 514.993 643.906 512.452C644.891 512.231 645.892 512.157 646.844 512.233ZM643.906 546.452C645.106 547.651 643.818 550.143 645.094 551.702C648.701 556.111 650.081 558.768 649.469 564.889C649.268 566.902 649.721 572.293 648.031 573.983C645.681 571.339 641.712 561.056 636.875 565.202C634.068 567.608 632.383 569.213 629.281 570.764C627.455 565.286 634.089 555.276 638.062 552.295C639.048 551.557 640.411 552.009 641.281 551.139C642.717 549.703 642.608 547.75 643.906 546.452ZM638.937 567.233C640.028 568.323 639.126 570.893 639.531 572.514C640.001 574.396 641.912 575.696 642.437 577.795C643.276 581.15 642.579 592.029 639.531 595.077C638.228 593.339 634.415 584.514 633.375 584.514C628.896 584.514 625.709 590.19 621.656 589.514C620.359 589.298 622.941 583.695 623.406 582.764C625.489 578.598 628.108 575.362 631.906 572.514C633.056 571.652 634.811 572.547 635.719 571.639C637.124 570.234 637.619 568.552 638.937 567.233ZM631.312 587.17C631.605 587.463 631.613 587.44 631.906 587.733C629.624 592.296 633.375 593.173 633.375 596.827C633.375 601.886 632.357 611.001 628.375 614.983C625.721 612.329 626.909 603.264 622.531 603.264C620.579 603.264 611.368 608.698 610.812 605.92C610.635 605.035 613.233 601.696 613.75 600.92C616.21 597.23 619.477 593.23 623.687 591.545C624.947 591.042 627.327 591.665 628.094 590.983C629.515 589.72 630.067 588.416 631.312 587.17ZM620.781 606.795C621.074 607.235 621.051 607.231 621.344 607.67C618.901 610.113 621.344 612.669 621.344 615.295C621.343 621.303 618.958 629.792 614.031 633.733C610.902 630.604 614.334 624.831 610.812 622.014C607.035 618.992 601.047 626.795 597.906 622.608C601.123 617.781 605.586 612.811 611.094 610.608C616.453 608.464 616.154 611.422 620.781 606.795ZM607.281 624.952C607.721 625.245 607.748 625.253 608.187 625.545C605.754 629.196 607.353 632.408 606.406 636.67C605.213 642.038 601.451 646.906 597.625 650.733C594.335 647.444 599.098 641.193 595.281 638.139C592.062 635.564 585.211 641.33 582.687 637.545C586.368 634.095 590.473 629.812 595.281 627.889C599.917 626.035 603.426 628.807 607.281 624.952ZM591.781 640.764C592.074 641.204 592.051 641.2 592.344 641.639C589.645 645.238 590.524 648.138 589.437 652.483C588.158 657.6 582.125 662.05 578.594 665.077C575.42 661.903 581.427 656.477 578.594 653.077C575.341 649.173 568.285 654.036 565.687 650.139C569.058 647.33 575.224 641.952 580.062 641.952C584.203 641.952 588.492 644.054 591.781 640.764ZM560.406 654.264C564.78 654.264 570.361 657.096 574.187 654.545C574.48 654.838 574.488 654.846 574.781 655.139C571.855 658.483 572.012 660.341 570.969 664.514C569.715 669.53 562.648 674.222 558.062 676.514C554.987 673.438 562.206 667.749 559.25 664.202C556.121 660.448 550.214 663.666 546.937 660.389C550.419 657.778 555.845 654.264 560.406 654.264ZM540.844 663.733C542.459 663.717 543.949 663.808 545.187 663.92C547.9 664.167 549.722 667.653 552.5 666.264C552.634 666.465 552.634 666.544 552.719 666.702C553.591 665.88 554.305 665.509 555.437 666.264C553.819 667.883 554.578 667.412 553.375 668.014C553.206 667.789 553.12 667.695 553.031 667.577C553.016 668.244 552.27 668.433 551.937 669.764C549.854 678.099 542.933 681.735 535.812 685.295C535.519 685.003 535.512 685.026 535.219 684.733C536.922 681.326 540.818 674.493 537.281 671.545C534.385 669.132 529.953 670.655 527.031 667.733C530.1 664.665 535.997 663.782 540.844 663.733ZM515.594 669.639C519.214 669.688 522.93 670.372 525.25 670.952C528.957 671.879 529.744 676.189 534.344 673.889C534.637 674.182 534.644 674.159 534.937 674.452C533.779 675.61 532.148 675.829 531.125 677.108C530.041 678.462 530.426 680.432 529.062 681.795C525.382 685.476 518.367 690.858 512.656 690.858C511.164 686.384 518.005 684.084 517.344 679.452C516.805 675.681 508.803 675.179 506.5 672.108C508.447 670.16 511.973 669.59 515.594 669.639ZM468.75 671.67C474.613 672.048 483.625 676.17 485.406 679.733C485.312 679.827 485.281 679.858 485.219 679.92C486.753 680.898 488.657 681.234 489.812 682.389C488.625 683.576 487.266 683.542 486.062 684.702C486.136 684.598 486.242 684.527 486.312 684.42C484.841 682.949 485.792 681.869 484.531 680.608C484.876 680.263 484.99 680.149 485.219 679.92C485.099 679.845 484.957 679.818 484.844 679.733C484.404 680.172 484.408 680.169 483.969 680.608C485.331 681.97 484.313 683.046 486 684.733C482.639 689.454 476.811 691.833 471.062 692.045C469.004 692.122 466.363 692.908 464.906 691.452C466.132 689.001 468.517 687.878 470.469 686.17C477.049 680.413 466.545 677.167 464.312 672.702C465.178 671.836 466.796 671.545 468.75 671.67ZM487.75 673.014C490.974 673.014 494.217 673.13 497.437 673.295C502.647 673.562 504.237 675.748 507.969 678.858C509.571 680.193 511.776 678.572 513.25 680.045C512.151 681.144 510.671 680.767 509.437 681.795C506.548 684.204 505.13 688.506 500.656 690.295C497.156 691.696 492.325 691.649 489.219 693.202C488.926 692.909 488.949 692.932 488.656 692.639C489.165 691.622 489.225 690.625 490.094 689.702C491.419 688.294 492.896 687.019 494.219 685.608C499.082 680.42 487.051 677.179 485.406 673.889C486.255 673.041 486.058 673.014 487.75 673.014ZM443.531 674.764C457.614 675.385 470.98 678.495 462.562 683.545C459.736 685.241 441.036 678.928 438.844 675.639C439.968 674.515 441.945 674.877 443.531 674.764ZM526.594 367.889C526.71 367.154 525.263 366.687 525.844 365.67C526.365 364.758 527.578 364.384 528.219 363.577C528.119 363.493 528.002 363.412 527.906 363.327C525.654 365.579 524.273 365.511 526.594 367.889ZM547.594 374.608C547.752 374.358 548.03 374.173 548.125 373.889C549.268 373.889 549.696 372.892 549.812 371.733C549.749 371.655 549.655 371.627 549.594 371.545C548.474 372.665 548.271 373.281 546.937 374.17C547.094 374.405 547.364 374.475 547.594 374.608ZM581.812 396.452C574.241 396.452 567.521 400.223 561 403.483C533.643 417.161 525.596 436.786 516.781 463.233C514.406 470.359 512.447 477.633 510.625 484.92C510.067 487.153 509.847 491.542 508.281 493.108C507.106 492.324 506.778 490.412 506.219 489.014C504.334 484.303 499.989 480.827 494.781 480.827C487.004 480.827 482.581 489.357 481.625 496.045C480.021 507.271 486.022 517.638 497.719 519.764C519.776 523.775 537.028 497.455 549.875 484.608C554.921 479.562 563.554 471.836 570.969 469.983C572.847 469.513 578.874 468.517 579.75 466.764C580.662 464.939 577.147 459.086 576.812 457.077C575.007 446.243 573.483 435.296 574.781 424.264C575.522 417.966 576.497 410.865 578.875 404.92C579.756 402.718 582.579 398.751 581.812 396.452ZM490.687 410.202C489.739 410.182 484.425 410.652 483.062 410.795C478.4 411.286 473.816 412.134 469.312 413.42C425.703 425.88 392.989 475.452 408.062 520.67C413.891 538.155 425.499 552.964 437.969 566.358C444.891 573.793 452.541 580.903 458.469 589.202C459.76 591.009 462.004 593.438 462.562 595.67C463.662 600.068 464.625 604.475 464.625 609.139C464.625 610.892 462.744 616.039 464.031 617.327C473.115 608.242 483.342 600.36 492.437 591.264C493.917 589.785 495.428 587.181 495.687 585.108C497.229 572.778 476.822 557.039 470.187 549.077C468.575 547.142 466.141 544.329 465.5 541.764C464.667 538.434 463.938 534.874 464.906 531.483C467.291 523.136 478.547 516.878 486.312 522.702C491.831 526.841 495.782 532.884 500.062 538.233C507.265 547.237 514.547 556.198 521.75 565.202C532.5 578.639 543.768 588.945 558.969 596.545C560.37 595.144 555.747 590.978 554.562 589.202C551.477 584.574 549.571 579.677 547.531 574.577C544.252 566.379 543.719 556.839 543.719 548.202C543.719 546.53 544.497 544.863 544.312 543.202C544.236 542.514 539.191 540.748 538.437 540.295C534.508 537.938 530.239 533.565 529.062 528.858C528.354 526.023 526.226 514.897 525.25 513.92C521.494 517.676 516.45 520.458 511.5 522.108C506.945 523.626 501.784 524.179 497.125 523.014C484.977 519.977 477.812 510.942 477.812 498.389C477.812 481.872 493.447 471.29 506.812 483.17C509.177 480.805 509.68 474.445 510.625 471.139C512.947 463.01 515.676 454.948 518.812 447.108C521.336 440.798 523.823 434.768 527.312 428.952C527.824 428.099 531.415 423.965 530.844 423.108C524.78 414.012 499.073 410.376 490.687 410.202ZM102.219 414.889C101.926 415.182 101.918 415.19 101.625 415.483C107.933 428.099 113.032 441.077 120.969 452.983C141.511 483.796 168.835 508.085 203.875 519.764C216.912 524.11 230.931 526.377 244.594 527.389C246.436 527.526 259.103 528.727 259.25 527.702C260.482 519.077 250.667 521.967 245.187 521.545C228.457 520.258 212.361 516.596 196.844 510.389C159.149 495.311 131.577 463.045 113.656 427.202C114.882 425.976 120.186 428.883 121.844 429.545C129.517 432.615 137.611 435.18 145.562 437.452C172.313 445.095 199.403 450.796 227.031 452.702C235.49 453.285 244.034 453.848 252.5 453.264C252.548 453.261 255.719 453.245 256.625 452.702C258.294 451.7 257.273 448.999 258.062 447.42C257.769 447.128 257.601 446.56 257.187 446.545C251.916 446.361 246.649 446.827 241.375 446.827C230.657 446.827 219.806 445.666 209.156 444.483C174.285 440.608 133.89 430.725 102.219 414.889ZM627.125 449.483C628.244 449.209 629.148 448.579 629.875 447.67C629.744 447.428 629.709 446.974 629.562 446.827C628.362 448.027 628.15 448.126 626.625 448.889C626.769 449.106 626.966 449.28 627.125 449.483ZM565.406 476.139C563.543 475.518 557.692 481.504 556.906 482.264C551.498 487.5 546.104 492.785 540.781 498.108C537.314 501.575 533.998 505.172 530.531 508.639C527.842 511.328 528.004 509.571 528.187 513.045C528.695 522.691 531.362 530.282 538.156 537.077C539.17 538.091 541.63 539.684 543.125 539.983C544.088 540.176 546.896 539.929 547.25 541.17C547.795 543.079 546.744 546.329 546.656 548.202C546.511 551.325 546.344 554.45 546.344 557.577C546.344 564.301 548.596 572.301 551.625 578.358C554.541 584.19 557.943 589.748 562.187 594.764C564.082 597.004 567.385 598.66 564.812 601.233C559.934 598.794 553.828 597.612 549.281 594.202C542.478 589.1 535.523 584.818 529.375 578.67C521.355 570.651 514.21 561.087 507.406 552.014C501.066 543.561 488.882 523.295 478.094 523.295C470.768 523.295 466.969 531.84 466.969 537.952C466.969 543.829 474.881 550.15 478.094 553.764C479.692 555.563 486.293 564.494 488.062 565.202C493.125 567.227 499.024 560.917 501.25 557.577C506.358 562.685 492.882 567.101 491.562 568.42C495.35 573.471 501.083 580.724 497.719 587.452C499.166 588.899 508.937 589.679 511.781 590.389C522.283 593.015 532.232 596.06 541.094 602.389C546.179 606.022 552.914 611.924 554.562 618.514C555.505 622.285 555.8 628.995 558.969 631.108C561.203 629.432 561.701 625.511 562.75 622.889C565.251 616.635 567.65 610.252 569.781 603.858C570.576 601.475 571.221 597.666 572.719 595.67C574.283 593.584 591.228 593.744 595 591.858C596.487 591.114 592.798 578.648 592.344 576.608C591.798 574.153 590.313 570.894 590.312 568.42C590.312 566.246 593.12 561.854 591.469 560.202C587.113 562.38 581.285 562.059 576.812 564.295C576.519 564.003 576.543 564.026 576.25 563.733C578.128 561.855 590.308 554.221 590.594 552.889C591.096 550.546 589.951 547.532 591.281 545.67C591.052 545.441 590.939 545.328 590.594 544.983C588.249 546.156 573.417 549.671 572.437 548.202C573.122 547.688 575.672 545.95 578.125 544.327C578.138 544.319 578.143 544.304 578.156 544.295C578.165 544.289 578.178 544.301 578.187 544.295C581.486 542.115 584.852 539.983 585.625 539.983C587.007 539.983 589.576 541.095 591.844 542.264C591.946 542.316 592.054 542.365 592.156 542.42C593.162 542.957 594.27 543.524 594.75 543.952C595.628 543.564 596.238 543.432 597.031 542.639C588.839 526.255 581.827 509.012 573.594 492.545C572.539 490.436 566.6 476.538 565.406 476.139ZM571.844 501.608C572.672 501.678 573.381 501.958 573.906 502.483C568.252 506.253 570.747 509.011 574.781 513.045C573 514.827 564.978 512.23 562.187 511.858C560.116 511.582 552.323 514.338 551.031 513.045C553.892 510.593 566.041 501.119 571.844 501.608ZM180.719 530.045C180.426 530.338 180.449 530.315 180.156 530.608C197.955 566.206 227.393 597.716 266.281 608.827C274.309 611.121 282.525 612.544 290.875 612.952C293.608 613.085 297.159 614.574 299.094 612.639C295.338 605.128 290.831 607.179 283.281 605.92C273.913 604.359 264.836 602.099 256.031 598.577C230.548 588.384 206.132 566.497 193.906 542.045C194.199 541.753 194.207 541.745 194.5 541.452C198.463 543.433 203.943 544.019 208.281 544.983C222.064 548.046 236.389 549.874 250.156 550.545C254.774 550.771 271.315 554.82 263.937 544.983C263.772 544.762 263.62 544.401 263.344 544.389C258.855 544.202 254.367 544.461 249.875 544.389C245.887 544.326 241.844 543.911 237.875 543.514C219.253 541.652 197.722 538.547 180.719 530.045ZM497.969 591.983C496.765 591.869 495.648 591.903 494.781 592.139C493.363 592.526 491.018 596.416 489.812 597.42C490.979 598.587 500.755 599.305 503.281 599.764C515.51 601.988 527.974 604.923 537.562 613.233C539.715 615.099 545.51 620.204 544.312 623.795C536.381 623.795 528.622 622.396 520.562 623.202C495.807 625.677 470.484 635.053 448.5 646.045C441.545 649.523 432.656 651.431 426.25 655.702C424.798 656.67 424.287 661.957 425.375 663.045C431.486 659.99 438.568 657.399 445 654.827C468.344 645.489 490.449 634.705 515.594 630.514C527.772 628.484 541.856 626.555 552.219 634.327C552.658 633.887 552.654 633.891 553.094 633.452C550.757 628.778 552.788 622.003 549.281 617.327C538.684 603.197 525.514 598.187 508.844 594.483C506.179 593.891 501.578 592.324 497.969 591.983ZM255.719 621.733C255.426 622.026 255.449 622.034 255.156 622.327C270.581 653.177 301.529 673.19 335.125 677.389C342.095 678.26 349.238 678.264 356.219 678.264C357.596 678.264 362.753 678.48 364.125 677.108C362.917 675.901 359.369 672.008 357.687 671.827C346.472 670.614 335.405 671.673 324.281 669.202C302.438 664.348 284.186 651.73 270.687 633.733C272.44 631.98 279.152 634.092 281.5 634.327C291.889 635.366 302.439 636.234 312.875 635.514C314.624 635.394 315.807 635.769 316.969 634.608C313.363 630.401 313.475 628.875 308.187 629.045C303.306 629.203 298.415 629.358 293.531 629.358C281.938 629.358 266.329 627.038 255.719 621.733Z" fill="#ffffff" fill-rule="nonzero" opacity="1" stroke="none"/>
</g>
</svg>
