<?xml version="1.0" encoding="UTF-8" standalone="no"?>
<!DOCTYPE svg PUBLIC "-//W3C//DTD SVG 1.1//EN" "http://www.w3.org/Graphics/SVG/1.1/DTD/svg11.dtd">
<!-- Created with Vectornator (http://vectornator.io/) -->
<svg height="100%" stroke-miterlimit="10" style="fill-rule:nonzero;clip-rule:evenodd;stroke-linecap:round;stroke-linejoin:round;" version="1.1" viewBox="0 0 750 1000" width="100%" xml:space="preserve" xmlns="http://www.w3.org/2000/svg" xmlns:vectornator="http://vectornator.io" xmlns:xlink="http://www.w3.org/1999/xlink">
<defs/>
<g id="Layer-1" vectornator:layerName="Layer 1">
<path d="M75.1562 289.797C75.1562 308.266 75.1562 311.226 75.1562 326.734C78.5881 347.938 88.6618 369.948 104.125 386.203C97.2537 386.228 90.3414 386.251 83.5312 386.203C83.1673 386.138 75.1562 386.516 75.1562 386.516C75.1562 398.603 75.1562 413.369 75.1562 423.953C78.9269 447.433 89.9297 467.696 105.781 484.391C104.828 484.122 75.1562 484.703 75.1562 484.703C75.1562 493.955 75.1562 512.216 75.1562 521.516C78.7157 543.617 89.0641 564.664 104.594 581.047C97.7171 581.027 75.1562 581.359 75.1562 581.359C75.1562 591.977 75.1562 606.138 75.1562 618.297C75.5878 621.408 76.1203 624.524 76.8125 627.641C85.4861 666.673 117.502 700.311 157.281 708.266C163.152 709.44 169.231 710.153 175.344 710.172C178.753 710.182 182.183 710.187 185.594 710.203C214.7 710.203 245.398 710.203 268.812 710.203C270.748 709.877 272.084 709.058 272.656 708.578C273.474 707.89 273.921 707.319 274.312 706.797C275.084 705.768 275.609 704.825 276.094 703.922C276.983 702.267 277.75 700.61 277.75 700.609C281.758 693.929 285.648 687.253 289.594 680.672C289.575 680.703 289.602 680.638 289.75 680.391C289.824 680.267 289.888 680.14 289.906 680.109C305.61 653.913 319.961 626.965 336.094 601.766C344.451 610.94 352.66 620.974 363.406 629.766C401.609 661.023 453.254 675.583 501.781 671.172C552.137 666.594 600.701 640.367 632.281 600.891C639.797 591.495 645.698 581.786 651.562 572.016C653.252 569.199 656.446 564.833 657.844 559.578C657.852 559.543 657.902 559.406 657.938 559.266C660.374 549.519 666.208 538.684 669.344 526.141C674.051 507.314 674.844 488.622 674.844 469.953C674.844 437.708 662.044 405.913 646.281 379.641C616.381 329.806 558.66 295.262 502.75 289.797C376.456 289.797 288.949 289.797 75.1562 289.797ZM81.5938 295.641C216.848 295.543 352.121 296.011 487.375 295.953C545.22 295.928 608.974 331.055 640.281 383.234C655.65 408.85 667.844 439.558 667.844 469.953C667.844 488.436 667.046 506.519 662.562 524.453C659.715 535.841 653.862 546.632 651.125 557.578C650.246 561.095 647.423 565.29 645.562 568.391C639.712 578.141 633.968 587.571 626.812 596.516C596.445 634.476 549.522 659.803 501.125 664.203C454.364 668.454 404.498 654.349 367.844 624.359C355.424 614.198 346.207 601.567 335.031 590.391C316.519 618.159 300.921 648.179 283.75 676.797C279.717 683.518 275.783 690.293 271.75 697.016C271.144 698.024 268.839 703.445 267.625 703.453C236.864 703.647 206.105 703.268 175.344 703.172C169.752 703.154 164.142 702.519 158.656 701.422C121.847 694.06 91.7543 662.551 83.6562 626.109C80.9119 613.76 80.9687 588.109 80.9688 588.109C80.9692 588.109 83.2438 588.047 83.9375 588.047C96.4374 588.047 108.939 588.239 121.438 588.047C121.714 588.043 121.836 587.648 122.031 587.453C99.8689 570.832 85.2173 544.911 81.5938 517.734C80.9574 512.962 80.7897 508.184 80.7188 503.359C80.6602 499.355 80.0938 491.891 80.0938 491.891C80.0937 491.891 107.072 491.866 121.781 492.047C99.9302 473.837 85.3675 448.475 81.5938 420.172C81.383 418.594 81.0485 415.711 81.0312 414.297C80.9481 407.462 80.8414 400.63 81.0312 393.797C81.0641 392.612 82.6937 393.2 83.0625 393.203C95.855 393.299 108.645 393.107 121.438 393.203C121.656 393.205 121.836 393.418 122.031 393.516C122.324 393.223 122.332 393.215 122.625 392.922C100.09 377.898 85.1212 349.347 81.5938 322.891C80.9901 318.36 81.0312 314.017 81.0312 309.422C81.0312 305.027 80.8444 300.625 81.0312 296.234C81.043 295.958 81.3175 295.641 81.5938 295.641ZM98 308.234C95.8691 310.365 97.4009 315.776 97.7188 318.797C98.3999 325.268 99.7626 331.677 101.812 337.828C112.167 368.892 138.454 393.718 171.531 397.609C172.41 397.713 173.304 397.887 174.188 397.891C216.57 398.082 258.961 398.106 301.344 398.203C309.645 398.222 317.918 398.108 326.219 398.203C329.063 398.236 329.663 401.317 329.469 403.453C329.389 404.331 328.015 405.796 327.125 405.797C250.758 405.894 174.367 405.602 98 405.797C97.7238 405.798 97.4592 406.115 97.4375 406.391C94.0474 448.766 130.565 491.016 172.125 495.172C195.738 497.533 219.581 495.632 243.312 495.734C251.906 495.771 260.5 495.637 269.094 495.734C271.619 495.763 271.896 499.123 271.75 500.734C271.624 502.121 269.995 503.076 268.812 503.078C211.879 503.175 154.933 503.067 98 503.359C95.6482 503.371 97.3678 508.04 97.4375 510.391C97.6591 517.926 99.4315 525.81 101.812 532.953C108.07 551.727 120.171 567.973 136.375 579.547C150.975 589.976 168.576 592.596 186.188 593.016C194.486 593.213 202.793 592.919 211.094 593.016C213.468 593.043 214.312 595.835 214.312 597.703C214.312 599.369 212.569 600.632 211.094 600.641C193.906 600.737 176.719 600.825 159.531 600.922C140.788 601.027 122.026 600.922 103.281 600.922C101.523 600.922 99.7471 600.728 98 600.922C95.6625 601.182 97.3677 605.602 97.4375 607.953C97.5317 611.157 98.0663 614.447 98.5938 617.609C101.047 632.328 107.339 646.308 116.469 658.047C129.774 675.154 151.808 690.117 174.469 690.266C203.179 690.454 231.883 690.675 260.594 690.578C260.87 690.577 261.022 690.206 261.188 689.984C265.723 683.937 269.015 676.564 272.906 670.078C282.773 653.634 292.353 636.99 302.219 620.547C331.999 570.913 360.907 520.774 390.688 471.141C401.146 453.709 410.129 433.824 424.656 419.297C441.604 402.349 467.62 394.177 491.188 396.141C504.75 397.271 516.917 402.141 528.375 409.016C576.286 437.762 579.31 504.018 541.281 542.047C525.044 558.284 501.484 564.891 479.156 564.891C468.312 564.891 454.371 561.494 444.875 555.797C426.599 544.832 412.384 530.492 404.469 510.703C401.838 504.127 400.209 496.924 399.469 489.891C399.252 487.827 399.785 483.738 398.312 482.266C392.518 488.06 387.443 500.465 383.062 507.766C373.601 523.536 364.399 539.466 354.938 555.234C351.379 561.166 347.965 567.148 344.406 573.078C343.835 574.03 341.193 577.245 341.75 578.359C347.212 589.282 362.282 603.168 370.75 610.578C414.225 648.618 476.476 661.29 531.906 645.453C553.243 639.357 573.616 628.435 590.781 614.391C597.762 608.679 603.929 602.712 610.406 596.234C619.995 586.645 626.947 574.917 633.844 563.422C635.485 560.687 637.519 557.564 638.25 554.641C640.254 546.626 645.309 538.997 647.625 530.891C653.54 510.187 656.432 488.991 654.938 467.328C652.075 425.822 633.53 389.926 605.719 359.797C594.011 347.113 583.625 338.141 566.312 328.297C546.423 316.987 532.178 309.529 494.594 309.266C441.098 308.89 338.957 309.094 98 308.234ZM479.469 431.297C472.708 431.278 464.795 433.575 459.25 437.734C451.522 443.53 440.726 450.611 438.156 460.891C436.028 469.406 434.344 475.77 434.344 485.203C434.344 491.138 437.079 497.111 439.625 502.203C448.23 519.414 465.571 529.453 484.719 529.453C500.542 529.453 524.13 516.275 528.094 500.422C530.285 491.655 532.188 485.294 532.188 475.547C532.188 469.628 529.434 460.522 525.75 455.609C512.083 437.387 501.785 431.358 479.469 431.297Z" fill="#ffffff" fill-rule="nonzero" opacity="1" stroke="none"/>
</g>
</svg>
