<?xml version="1.0" encoding="UTF-8" standalone="no"?>
<!DOCTYPE svg PUBLIC "-//W3C//DTD SVG 1.1//EN" "http://www.w3.org/Graphics/SVG/1.1/DTD/svg11.dtd">
<!-- Created with Vectornator (http://vectornator.io/) -->
<svg height="100%" stroke-miterlimit="10" style="fill-rule:nonzero;clip-rule:evenodd;stroke-linecap:round;stroke-linejoin:round;" version="1.1" viewBox="0 0 750 1000" width="100%" xml:space="preserve" xmlns="http://www.w3.org/2000/svg" xmlns:vectornator="http://vectornator.io" xmlns:xlink="http://www.w3.org/1999/xlink">
<defs/>
<g id="Layer-1" vectornator:layerName="Layer 1">
<path d="M274.636 216.549C272.014 216.692 269.297 217.007 266.386 217.362C254.744 218.778 238.762 229.671 235.199 231.424C231.636 233.177 217.864 241.944 211.824 246.299C205.783 250.654 199.353 261.419 197.261 265.237C195.169 269.055 190.48 281.362 190.48 281.362C190.48 281.362 186.773 286.797 182.761 291.612C178.749 296.427 175.011 300.268 175.011 300.268L75.8551 300.987C75.8578 301.257 75.8524 301.528 75.8551 301.799C75.8637 302.645 78.5139 305.834 79.0739 306.768C82.2017 311.981 85.0393 317.398 88.1676 322.612C100.05 342.416 110.847 362.838 122.73 382.643C148.855 426.185 172.481 471.257 198.605 514.799C207.472 529.578 215.52 544.835 224.386 559.612C230.595 569.96 237.145 580.441 242.543 591.237C242.347 591.432 242.257 591.829 241.98 591.83C204.188 592.025 166.397 591.636 128.605 591.83C128.126 591.833 121.242 604.778 120.386 606.205C112.743 618.945 106.342 632.404 98.6989 645.143C97.9957 646.315 91.8654 656.831 91.9801 657.174C92.4216 658.499 92.5961 658.332 93.4489 658.33C150.09 658.233 206.715 658.242 263.355 658.049C266.897 658.037 275.641 653.3 277.699 653.643C279.781 653.99 281.394 658.739 282.386 660.393C285.919 666.281 289.135 672.381 292.668 678.268C307.86 703.588 321.694 729.698 336.886 755.018C341.34 762.441 345.338 770.155 349.793 777.58C351.007 779.604 352.49 784.284 355.355 783.424C357.18 782.877 359.09 777.419 360.043 775.83C364.679 768.104 368.876 760.118 373.511 752.393C386.497 730.75 398.307 708.411 411.293 686.768C416.896 677.428 421.372 666.906 427.699 658.049C428.062 657.54 428.261 656.598 428.886 656.58C445.676 656.103 462.464 656.581 479.261 656.58C482.777 656.58 486.314 656.775 489.824 656.58C490.1 656.565 490.408 656.263 490.418 655.987C490.607 650.033 490.783 644.057 490.418 638.112C490.41 637.981 490.237 637.918 490.136 637.83C489.883 638.051 489.507 638.216 489.23 638.424C489.035 638.229 488.647 638.106 488.636 637.83C488.449 632.854 488.998 627.86 488.636 622.893C488.518 621.269 486.173 621.964 485.418 620.83C485.579 620.669 486.042 620.584 486.324 620.424C486.214 620.273 486.032 620.178 486.011 619.955C485.403 613.261 483.809 605.102 479.574 599.455C478.057 597.433 471.928 589.563 471.668 587.737C471.454 586.241 471.074 584.269 471.074 582.768C471.074 581.086 474.005 577.769 474.886 576.299C478.09 570.959 480.746 562.814 485.136 558.424C486.052 557.509 489.142 557.184 490.418 556.674C495.923 554.472 501.598 552.721 507.105 550.518C527.208 542.477 547.939 535.996 568.043 527.955C575.615 524.927 582.093 518.112 586.199 511.268C587.773 508.645 587.987 504.811 589.73 502.487C590.853 500.989 594.342 501.154 596.168 500.424C600.743 498.594 603.224 495.02 607.293 492.237C608.017 491.741 614.205 493.821 615.199 493.987C621.149 494.978 627.439 495.902 633.386 494.58C641.114 492.863 648.598 487.914 652.699 481.08C653.842 479.176 653.87 476.713 655.043 474.955C656.767 472.369 659.595 470.684 661.793 468.487C666.491 463.789 669.058 456.901 671.449 450.924C672.387 448.58 674.461 444.038 674.105 441.549C673.96 440.533 670.239 440.073 669.418 439.799C665.018 438.333 660.619 436.856 656.23 435.393C637.6 429.183 618.896 423.135 600.261 416.924C593.726 414.745 587.174 412.666 580.636 410.487C579.091 409.971 575.679 408.131 574.48 409.33C573.466 408.824 572.498 409.428 571.855 408.143C571.259 406.95 574.488 403.158 575.074 401.987C578.37 395.394 582.406 388.964 586.199 382.643C596.392 365.654 605.6 348.069 615.793 331.08C621.715 321.21 627.925 311.224 633.074 300.924C632.879 300.729 632.787 300.335 632.511 300.33C620.013 300.138 607.51 300.523 595.011 300.33C594.031 300.315 593.216 296.373 592.668 295.643C589.843 291.877 587.345 288.601 583.855 285.112C577.257 278.513 562.643 274.583 554.855 280.424C551.235 283.139 549.664 286.771 546.949 289.487C544.356 288.19 539.073 286.061 537.293 283.924C535.7 282.013 535.046 279.034 533.761 276.893C530.055 270.716 526.03 264.285 519.699 260.487C514.317 257.257 506.583 256.547 500.668 257.862C498.801 258.276 492.699 261.571 490.98 261.08C489.349 260.614 486.885 257.722 485.418 256.674C481.236 253.687 476.944 250.815 472.543 248.174C456.79 238.723 438.716 232.362 420.105 232.362C415.128 232.362 410.185 233.068 405.324 234.237C390.326 237.842 375.891 245.866 362.074 251.393C353.735 254.729 345.284 260.487 336.011 260.487C332.792 260.487 324.151 248.81 321.668 245.83C320.214 244.086 318.65 242.338 317.136 240.58C312.095 234.813 306.041 228.641 299.48 224.112C289.638 217.318 282.505 216.12 274.636 216.549ZM274.605 228.237C289.134 227.633 297.895 237.068 310.824 251.987C316.994 259.106 324.165 270.041 333.949 272.487C339.808 273.951 347.504 270.908 353.011 268.705C367.513 262.905 381.568 256.039 396.074 250.237C428.898 237.107 466.115 252.309 490.105 276.299C497.643 272.53 502.18 267.74 511.793 270.143C522.155 272.734 523.222 286.882 528.48 293.893C530.569 296.678 537.483 297.381 540.511 299.737C542.68 301.423 545.029 303.874 546.074 306.487C546.629 307.873 546.236 309.586 547.23 310.58C550.257 307.251 556.27 303.453 557.793 299.455C559.718 294.402 556.812 294.688 561.011 290.955C566.797 285.813 576.977 295.456 580.043 298.862C581.757 300.767 584.168 304.379 584.168 307.08C584.168 308.936 582.313 312.604 584.168 312.643C593.248 312.834 602.34 312.356 611.418 312.643C611.77 312.654 611.911 313.173 611.98 313.518C612.043 313.835 607.3 321.662 606.73 322.612C602.094 330.338 597.866 338.322 593.23 346.049C574.17 377.815 556.915 410.658 537.855 442.424C532.409 451.501 527.488 460.88 522.043 469.955C520.46 472.593 516.057 477.77 517.355 480.799C518.241 482.864 522.918 483.262 524.699 484.33C526.082 485.16 532.971 490.438 533.168 490.455C536.087 490.713 539.051 490.299 541.98 490.174C546.179 489.995 552.438 490.468 555.449 486.955C557.292 484.805 553.105 465.755 553.105 462.049C553.105 459.313 553.25 456.594 553.386 453.862C553.517 451.235 553.454 444.418 555.73 442.143C557.356 440.517 558.677 439.06 561.011 438.893C562.582 438.781 565.573 439.9 565.699 438.33C565.878 436.091 565.878 433.819 565.699 431.58C565.597 430.297 554.265 428.346 553.386 427.174C552.419 425.884 555.569 417.559 556.324 416.049C556.928 414.841 561.126 416.807 562.199 417.237C567.894 419.515 573.929 421.136 579.761 423.08C598.609 429.363 617.457 435.552 636.293 441.83C641.2 443.466 655.76 446.641 658.855 449.737C656.595 454.257 654.718 458.562 650.949 462.33C649.648 463.631 644.392 466.308 643.918 468.205C643.56 469.634 643.69 471.428 643.324 472.893C641.982 478.26 634.158 483.143 628.699 483.143C622.175 483.143 615.395 481.786 609.074 480.205C608.342 480.023 602.888 478.004 602.324 478.455C598.156 481.79 595.864 489.893 589.136 489.893C587.658 489.893 582.759 490.079 580.636 489.018C579.001 490.653 579.084 495.425 578.293 497.799C575.752 505.419 572.483 511.529 565.105 515.955C558.403 519.977 549.522 521.551 542.261 524.455C527.951 530.18 513.228 534.856 498.918 540.58C493.698 542.668 488.292 544.337 483.074 546.424C481.592 547.017 477.968 547.436 476.918 548.487C471.664 553.741 467.161 565.55 463.168 572.205C461.905 574.308 458.547 578.149 458.168 580.424C457.618 583.721 459.666 589.633 460.23 593.018C460.664 595.619 464.847 599.209 466.386 601.518C469.76 606.579 473.446 612.577 474.011 618.799C474.372 622.767 462.574 624.611 462.574 626.112C462.574 626.831 464.103 632.232 464.918 632.268C469.112 632.454 473.316 632.081 477.511 632.268C477.787 632.28 478.091 632.586 478.105 632.862C478.291 636.568 478.29 640.28 478.105 643.987C478.091 644.263 477.788 644.577 477.511 644.58C458.958 644.774 440.404 644.102 421.855 644.58C420.849 644.606 418.571 649.855 418.043 650.737C413.812 657.788 409.961 665.061 405.73 672.112C393.554 692.405 382.469 713.35 370.293 733.643C366.467 740.019 362.994 746.578 359.168 752.955C357.656 755.474 356.54 758.801 354.168 760.58C348.546 752.149 344.159 742.888 338.949 734.205C326.368 713.237 314.905 691.611 302.324 670.643C297.689 662.917 293.491 654.932 288.855 647.205C286.717 643.642 284.835 637.979 281.511 635.487C275.608 640.996 269.285 646.032 260.73 646.049C211.512 646.145 162.292 646.244 113.074 646.049C112.798 646.048 112.675 645.651 112.48 645.455C117.84 634.736 123.879 624.071 130.043 613.799C130.731 612.651 135.419 603.865 135.918 603.862C177.323 603.571 218.73 603.862 260.136 603.862C261.218 603.862 262.753 604.472 263.355 603.268C263.795 602.389 261.752 599.939 261.293 599.174C258.571 594.637 256.109 589.931 253.386 585.393C243.124 568.289 233.775 550.655 223.511 533.549C196.689 488.844 172.397 442.598 145.574 397.893C134.794 379.926 125.009 361.357 114.23 343.393C108.248 333.422 101.868 323.325 96.6676 312.924C96.863 312.729 96.9539 312.332 97.2301 312.33C124.574 312.137 151.979 314.155 179.261 312.33C181.949 312.15 183 308.44 184.855 306.487C190.697 300.337 196.591 294.124 200.949 286.862C204.32 281.243 205.17 274.379 208.574 268.705C216.884 254.855 242.008 238.675 257.793 232.362C264.291 229.762 269.762 228.438 274.605 228.237ZM486.324 620.424C487.024 621.391 489.15 621.216 489.23 622.612C489.505 627.389 488.87 632.184 489.23 636.955C489.262 637.376 489.813 637.547 490.136 637.83C490.24 637.74 490.408 637.69 490.418 637.549C490.788 631.897 490.606 626.21 490.418 620.549C490.363 618.9 487.805 619.586 486.324 620.424ZM229.105 261.518C227.977 261.59 226.933 262.05 226.136 263.112C225.111 264.479 224.199 277.316 223.23 280.705C222.206 284.29 218.963 290.805 219.699 294.487C219.972 295.852 222.411 295.975 223.23 295.362C227.352 292.27 226.072 287.737 232.605 287.737C239.662 287.737 237.574 297.423 235.824 300.924C237.102 302.203 237.285 301.788 239.043 301.518C243.889 300.772 244.266 295.864 244.011 291.549C243.49 282.69 232.269 284.47 229.949 279.83C228.467 276.866 237.61 268.04 238.449 266.362C236.767 264.68 232.488 261.301 229.105 261.518ZM511.793 274.549C502.687 273.248 513.176 285.026 514.136 285.987C515.179 287.03 516.708 287.116 517.949 287.737C518.242 287.444 518.25 287.436 518.543 287.143C517.538 285.133 513.454 274.787 511.793 274.549ZM500.074 275.737C492.183 276.445 497.297 281.787 500.949 285.674C505.551 290.573 510.129 296.674 515.324 300.924C516.104 301.562 518.23 300.478 518.23 299.455C518.23 298.001 514.726 294.8 513.855 293.58C511.542 290.342 503.129 275.462 500.074 275.737ZM489.543 283.643C487.542 284.643 486.29 285.926 484.543 287.455C485.323 289.016 484.736 287.934 487.199 290.362C493.248 296.324 499.265 302.316 505.355 308.237C507.122 309.955 507.949 311.514 510.324 311.174C511.418 311.018 513.586 309.447 512.98 308.237C510.314 302.905 501.641 295.466 497.449 290.674C495.676 288.648 493.418 284.848 489.543 283.643ZM479.261 292.424C477.957 292.28 474.056 295.451 474.886 297.112C475.944 299.226 480.607 301.314 482.511 302.674C487.186 306.013 491.9 309.304 496.574 312.643C498.296 313.873 500.679 316.44 502.699 317.018C504.587 317.557 506.292 314.799 505.355 313.237C503.324 309.851 498.472 305.447 496.574 303.549C492.198 299.173 485.55 293.121 479.261 292.424ZM198.918 302.08C189.8 311.198 179.529 319.259 170.199 328.174C166.904 331.323 162.856 333.922 160.511 337.83C157.436 342.956 156.511 349.865 155.824 355.705C155.604 357.571 155.788 360.183 154.949 361.862C155.242 362.155 155.25 362.162 155.543 362.455C171.47 349.714 186.65 335.886 202.136 322.612C202.429 322.905 202.406 322.881 202.699 323.174C198.691 331.191 194.179 339.478 189.543 347.205C188.663 348.672 184.542 354.142 184.855 355.705C185.144 357.151 192.349 353.271 193.918 352.487C201.184 348.853 208.786 344.797 215.324 339.893C217.364 338.363 220.661 336.865 221.168 334.33C221.573 332.303 218.522 327.949 217.355 326.393C211.102 318.056 206.522 309.685 198.918 302.08ZM532.011 303.268C528.855 304.32 525.306 307.488 522.918 309.705C517.458 314.775 508.542 323.269 506.511 331.393C505.434 335.704 504.089 342.144 502.136 346.049C504.56 348.472 506.522 349.939 510.324 349.268C512.025 348.968 514.479 342.77 515.324 341.362C519.532 334.348 524.477 327.209 530.261 321.424C532.474 319.212 539.326 316.48 540.511 313.518C542.031 309.719 538.694 303.561 532.011 303.268ZM470.48 303.549C468.549 304.302 467.581 307.763 468.136 309.987C468.474 311.336 472.56 312.948 473.699 313.518C478.994 316.166 484.466 318.972 489.543 322.018C490.971 322.875 497.089 327.259 498.605 326.393C499.663 325.789 502.12 322.83 500.949 321.424C495.829 315.28 485.223 310.64 478.105 307.08C476.041 306.049 472.614 302.717 470.48 303.549ZM560.418 303.862C556.898 303.938 554.308 308.502 551.918 310.893C547.787 315.024 546.583 320.406 554.261 318.487C561.346 316.715 575.733 303.529 560.418 303.862ZM466.98 316.737C465.315 316.556 463.832 320.195 465.199 322.018C466.586 323.867 470.213 324.509 472.23 325.518C477.951 328.378 483.886 331.361 489.824 333.737C490.941 334.184 492.407 335.487 493.636 335.487C497.528 335.487 495.905 330.929 494.23 329.924C486.054 325.018 476.507 317.772 466.98 316.737ZM579.324 320.58C573.512 320.569 567.694 320.642 561.886 320.83C560.573 320.873 560.102 322.759 559.261 323.768C565.321 331.343 567.4 341.789 564.23 351.299C563.559 353.313 560.617 354.167 560.136 355.705C558.896 359.675 560.442 364.637 557.511 368.299C556.608 369.429 555.482 370.861 553.98 371.237C552.774 371.538 549.931 370.501 549.574 372.112C548.295 377.865 548.348 386.035 540.793 387.924C532.322 390.042 524.706 388.283 516.48 386.455C515.317 386.197 509.45 383.291 508.574 383.83C505.764 385.56 503.133 389.591 500.949 392.018C497.063 396.336 491.618 400.83 488.636 405.799C488.524 405.986 488.851 406.198 488.949 406.393C490.993 410.482 493.113 414.506 494.793 418.705C499.144 429.583 504.262 440.05 507.98 451.205C509.372 455.381 510.498 463.692 513.543 466.737C516.373 463.906 517.963 459.62 520.011 456.205C524.648 448.478 528.845 440.494 533.48 432.768C548.491 407.75 562.126 381.878 577.136 356.862C582.177 348.46 586.721 339.793 591.761 331.393C592.406 330.318 597.449 322.174 597.355 321.705C597.286 321.36 597.113 320.839 596.761 320.83C590.953 320.686 585.136 320.592 579.324 320.58ZM111.886 320.83C111.61 320.833 111.488 321.229 111.293 321.424C116.137 331.113 122.124 340.538 127.699 349.83C137.263 365.771 145.977 382.232 155.543 398.174C182.659 443.367 207.238 490.104 234.355 535.299C244.325 551.915 253.385 569.057 263.355 585.674C264.477 587.544 271.877 601.489 273.011 601.205C274.835 600.749 277.356 598.617 278.605 597.393C287.633 588.551 296.655 579.72 305.543 570.737C305.68 570.598 305.581 570.334 305.543 570.143C304.78 566.33 302.69 562.574 301.73 558.737C300.132 552.344 299.444 545.999 297.636 539.674C297.145 537.955 296.589 530.514 296.449 530.299C291.727 523.035 284.768 517.945 284.168 508.643C283.832 503.439 284.449 502.128 284.449 498.08C284.449 496.239 280.224 491.934 279.168 490.174C275.47 484.011 271.739 477.865 268.043 471.705C256.616 452.662 246.352 430.877 241.98 409.018C240.614 402.188 239.734 394.782 241.105 387.924C242.266 382.118 246.773 378.16 248.136 372.705C250.871 361.768 250.225 351.044 241.98 342.799C236.432 337.251 230.261 339.44 224.105 342.518C211.119 349.011 198.758 357.008 186.293 364.487C183.863 365.945 172.432 373.799 170.793 372.705C174.075 366.14 176.293 359.049 179.574 352.487C180.352 350.93 182.839 347.283 181.605 346.049C171.746 355.908 161.748 365.644 152.324 375.924C150.985 374.585 151.211 370.876 151.136 369.174C150.988 365.758 150.855 362.344 150.855 358.924C150.855 344.783 157.888 332.956 168.136 323.768C168.516 323.427 169.813 323.591 170.793 322.612C170.5 322.319 170.492 322.311 170.199 322.018C170.345 321.725 170.334 321.717 170.48 321.424C170.285 321.229 170.162 320.833 169.886 320.83C150.551 320.637 131.221 320.637 111.886 320.83ZM437.386 320.83C429.864 328.352 438.635 333.694 444.105 339.893C457.071 354.588 467.318 370.588 478.105 386.768C483.34 382.187 487.992 376.889 492.761 371.83C494.041 370.473 495.398 369.153 496.574 367.705C497.148 366.998 495.82 362.776 495.668 361.862C495.382 360.147 492.977 343.517 490.105 342.799C486.598 341.922 482.876 343.111 479.261 343.112C472.951 343.112 462.37 339.575 457.293 335.768C450.644 330.781 462.164 325.309 437.386 320.83ZM539.636 320.83C530.378 322.248 524.821 335.096 520.011 343.112C517.668 347.017 514.893 355.578 524.105 351.893C525.983 351.142 528.153 349.786 529.668 348.393C531.752 346.475 533.821 344.52 535.824 342.518C540.046 338.295 548.741 319.436 539.636 320.83ZM552.918 323.08C552.06 323.312 551.043 324.393 551.043 324.955C551.043 326.362 560.891 342.96 562.199 344.268C562.638 343.828 562.634 343.832 563.074 343.393C559.831 336.907 560.263 328.097 553.699 323.174C553.493 323.02 553.203 323.003 552.918 323.08ZM332.043 325.237C327.901 325.493 323.813 326.097 319.605 327.299C291.475 335.336 273.593 361.501 276.824 390.58C282.303 439.896 329.45 478.096 371.168 498.955C401.25 470.076 429.125 438.623 457.886 408.424C444.583 388.47 427.1 370.193 408.668 355.112C391.335 340.931 367.937 326.162 344.793 325.237C340.371 325.06 336.184 324.98 332.043 325.237ZM461.98 327.862C461.098 328.009 461.107 329.638 460.824 330.205C466.099 335.481 471.773 337.773 479.261 338.424C480.854 338.563 485.259 339.77 486.605 338.424C484.275 336.094 464.761 327.398 461.98 327.862ZM548.699 329.924C547.919 329.175 544.948 335.296 545.48 336.362C546.968 339.337 555.688 353.087 558.074 354.518C562.041 356.898 560.809 348.381 560.418 347.205C558.248 340.698 553.536 334.571 548.699 329.924ZM542.543 343.705C534.963 344.416 542.804 356.459 545.793 360.112C545.992 360.356 548.947 364.019 550.168 363.612C552.868 362.711 551.2 359.067 551.043 357.174C550.682 352.851 546.795 343.307 542.543 343.705ZM531.136 354.518C529.262 354.595 531.255 359.013 531.73 360.674C532.905 364.788 537.872 377.799 543.449 376.205C545.367 375.657 543.785 370.686 543.449 369.174C542.019 362.738 538.115 354.231 531.136 354.518ZM501.261 355.612C500.474 355.452 499.68 355.477 499.199 355.705C497.688 356.423 498.011 358.383 498.011 360.112C498.011 365.358 500.53 363.847 503.886 363.33C504.781 363.193 506.286 363.532 506.824 362.455C507.556 360.992 503.956 357.244 503.293 356.58C502.823 356.111 502.049 355.771 501.261 355.612ZM521.699 358.487C521.038 358.493 520.335 358.61 519.699 358.643C516.854 358.791 514.801 359.121 512.98 361.549C512.156 362.648 515.113 367.944 515.605 369.174C518.481 376.363 525.123 388.325 534.074 387.33C535.433 387.179 534.987 379.608 534.355 377.08C532.928 371.371 528.402 362.185 523.511 358.924C522.982 358.571 522.36 358.48 521.699 358.487ZM505.355 366.83C501.048 366.221 497.649 372.94 495.105 375.612C491.294 379.613 487.474 383.636 483.668 387.643C468.444 403.668 453.224 419.668 437.98 435.674C424.594 449.73 411.21 463.806 397.824 477.862C390.011 486.065 382.199 494.283 374.386 502.487C370.381 506.693 365.457 510.938 362.074 515.674C358.52 520.65 370.406 528.55 374.699 525.33C380.134 521.254 384.49 514.857 389.043 509.799C396.676 501.318 404.277 492.834 411.886 484.33C434.804 458.716 457.812 433.163 480.73 407.549C489.215 398.066 497.746 388.626 506.23 379.143C510.754 374.087 513.285 367.953 505.355 366.83ZM559.543 420.455C552.952 427.046 569.227 425.752 569.793 428.955C570.421 432.515 569.367 436.187 569.511 439.799C569.546 440.676 574.779 441.975 575.355 441.83C577.495 441.295 580.776 434.228 582.105 432.455C589.228 434.83 596.358 437.113 603.48 439.487C605.809 440.263 609.061 440.78 611.105 442.143C614.623 444.488 609.066 453.641 613.449 454.737C614.734 455.058 617.446 456.419 618.73 456.205C621.311 455.775 623.283 448.576 625.48 447.112C626.386 446.508 633.625 449.125 634.543 449.737C637.324 451.591 635.844 461.669 638.355 462.924C638.953 463.223 642.134 464.269 642.761 464.112C643.211 463.999 654.041 454.26 653.605 452.08C653.343 450.769 649.216 450.138 648.011 449.737C642.352 447.85 636.689 446.056 631.043 444.174C614.537 438.672 598.018 433.27 581.511 427.768C574.393 425.395 566.27 423.819 559.543 420.455ZM469.886 426.893C451.682 445.098 435.213 465.421 418.043 484.612C412.278 491.054 406.526 497.513 400.761 503.955C399.209 505.691 396.538 507.995 395.48 510.112C399.727 514.358 409.226 515.779 414.824 518.018C430.048 524.108 447.163 528.357 463.168 529.424C473.997 530.146 484.685 527.831 491.293 518.58C496.442 511.372 496.924 500.207 496.261 491.924C495.107 477.496 487.089 452.653 478.105 440.674C474.937 436.451 473.686 430.693 469.886 426.893ZM583.574 436.549C581.857 438.266 580.26 440.52 579.168 442.705C580.822 444.36 584.486 444.874 586.793 445.643C593.735 447.957 601.613 449.678 608.168 452.955C609.968 451.155 608.956 447.901 608.761 445.362C608.74 445.086 608.389 444.934 608.168 444.768C606.924 443.835 604.15 443.533 602.605 443.018C596.424 440.958 589.395 439.46 583.574 436.549ZM626.918 451.205C617.687 460.436 626.705 457.833 633.386 461.174C634.562 459.999 633.683 458.253 633.386 456.768C632.561 452.639 631.767 452.724 626.918 451.205ZM626.918 468.205C618.994 468.283 614.204 476.705 626.918 476.705C633.423 476.705 636.077 468.115 626.918 468.205ZM318.73 485.205C314.064 487.08 314.978 494.107 317.261 498.674C318.193 500.537 320.837 504.422 323.418 502.487C325.185 501.161 323.647 483.231 318.73 485.205ZM331.043 485.768C327.105 489.705 329.271 503.374 329.855 508.924C330.192 512.126 334.144 514.323 336.605 511.862C335.298 509.248 336.154 504.94 336.293 502.174C336.694 494.148 337.192 491.331 331.043 485.768ZM307.48 486.549C306.693 486.419 305.765 486.464 304.668 486.674C292.119 489.082 302.593 499.595 306.73 505.112C309.015 508.158 308.234 510.674 312.855 510.674C315.794 510.674 312.455 503.189 312.293 501.893C311.553 495.974 312.988 487.457 307.48 486.549ZM340.98 489.018C337.407 490.06 340.026 496.421 340.105 500.143C340.128 501.232 340.534 504.981 340.699 506.299C341.256 510.759 341.768 511.861 346.574 511.862C347.321 511.862 348.608 511.013 348.918 510.393C350.927 506.374 348.785 501.414 348.605 496.924C348.412 492.094 345.31 487.755 340.98 489.018ZM355.043 495.737C352.15 498.629 353.099 511.356 356.824 515.08C361.859 512.563 360.557 496.03 355.043 495.737ZM292.793 496.893C292.405 496.792 292.056 496.808 291.761 496.924C282.982 500.375 290.781 524.252 300.855 523.58C313.61 522.73 298.604 498.402 292.793 496.893ZM323.418 518.58C314.702 519.67 308.807 523.535 302.605 529.737C300.357 531.985 300.101 536.889 302.324 539.112C312.36 531.082 316.049 528.561 328.386 526.799C330.673 526.472 329.408 518.873 323.418 518.58ZM343.98 519.362C342.921 519.374 341.823 519.529 340.699 519.768C330.156 522.012 337.004 538.081 344.23 537.049C348.283 536.47 355.311 527.501 352.136 523.268C349.997 520.415 347.157 519.324 343.98 519.362ZM386.418 522.393C384.47 522.393 382.704 524.662 383.168 526.518C383.529 527.962 385.807 529.868 386.699 531.205C388.979 534.625 389.324 538.864 389.324 542.924C389.324 544.483 387.325 555.667 385.511 556.393C383.229 557.306 381.82 556.553 379.949 558.737C376.302 562.992 374.11 568.106 370.011 572.205C368.173 574.044 364.023 573.526 362.98 574.83C358.564 580.35 355.718 591.091 348.011 593.018C341.76 594.581 335.22 595.936 328.699 594.487C327.881 594.305 321.56 591.372 321.355 591.549C312.806 598.958 305.573 608.415 297.918 616.737C296.302 618.492 288.067 626.181 287.668 628.174C287.405 629.487 291.041 634.004 291.761 635.205C296.103 642.442 300.043 649.936 304.386 657.174C316.157 676.791 326.865 697.025 338.636 716.643C343.952 725.502 348.436 734.982 354.168 743.58C356.228 742.207 357.309 738.97 358.574 736.862C362.805 729.809 366.656 722.506 370.886 715.455C384.784 692.293 399.526 668.739 411.605 644.58C411.41 644.385 411.287 643.991 411.011 643.987C397.829 643.794 384.631 644.179 371.449 643.987C369.693 643.961 371.895 635.991 372.355 634.612C373.39 631.506 376.733 628.193 377.324 625.237C378.888 617.415 378.154 613.876 384.074 607.955C389.724 602.305 402.788 603.979 409.543 603.268C412.366 602.971 417.608 602.163 418.324 598.58C418.841 595.993 418.636 593.312 418.636 590.674C418.636 588.517 419.007 586.135 418.043 584.205C419.648 582.6 424.163 585.302 424.48 582.768C425.979 570.78 419.372 560.017 418.324 548.487C417.756 542.241 418.512 542.454 422.73 538.237C422.993 537.974 424.642 535.963 424.199 535.299C422.517 532.777 417.266 532.113 414.543 531.205C407.754 528.943 400.889 526.702 394.011 524.737C391.632 524.057 388.902 522.393 386.418 522.393ZM359.449 527.674C353.964 528.488 352.199 542.018 359.449 542.018C362.167 542.018 365.938 526.712 359.449 527.674ZM322.824 533.83C314.954 535.798 319.666 543.137 321.355 549.049C324.157 558.855 330.73 582.455 339.543 588.33C342.461 585.412 342.342 570.889 342.449 567.518C342.582 563.32 342.761 559.124 342.761 554.924C342.761 547.158 334.033 536.297 322.824 533.83ZM370.574 533.83C364.336 533.933 367.355 548.61 367.355 552.299C367.355 554.213 365.962 555.195 366.48 557.268C367.559 561.584 373.038 567.1 374.98 559.33C376.618 552.78 379.409 533.685 370.574 533.83ZM380.543 536.768C378.666 538.644 380.235 541.478 379.074 543.799C384.298 549.023 388.66 540.387 380.543 536.768ZM310.824 539.987C308.49 539.409 306.207 545.567 305.543 547.893C304.956 549.947 306.002 553.127 306.418 555.205C308.31 564.665 311.674 573.164 317.261 580.987C319.329 583.882 323.751 590.435 326.355 590.955C326.659 591.016 327.813 590.226 328.105 590.08C331.829 588.218 327.64 583.324 326.355 580.112C322.728 571.043 319.143 561.941 315.511 552.862C314.014 549.119 314.694 540.945 310.824 539.987ZM354.23 545.643C353.678 545.598 353.082 545.652 352.418 545.83C345.507 547.687 349.48 558.819 349.48 564.58C349.48 568.602 348.993 572.968 348.011 576.893C347.382 579.409 344.107 585.114 345.668 587.455C348.587 591.834 355.974 582.043 356.824 578.643C358.768 570.865 360.529 563.902 359.73 555.518C359.332 551.336 358.096 545.96 354.23 545.643ZM462.293 554.643C460.805 555.387 448.647 560.993 448.511 561.674C447.987 564.296 448.855 567.521 449.105 570.143C449.311 572.301 449.067 575.102 450.261 576.893C454.533 572.621 457.113 565.401 460.23 560.205C461.152 558.669 463.342 556.217 462.293 554.643ZM307.293 575.737C298.894 584.135 290.55 592.572 282.105 600.924C275.977 606.985 267.65 607.163 259.855 609.112C258.561 609.435 256.937 615.229 256.324 616.455C253.484 622.135 250.776 628.121 248.418 634.018C247.654 635.927 245.401 638.749 246.074 640.768C251.543 640.768 257.012 640.858 262.48 640.768C270.639 640.634 277.716 632.063 282.386 626.987C284.539 624.647 286.707 622.299 288.855 619.955C292.264 616.236 295.696 612.549 299.105 608.83C303.589 603.939 308.082 599.057 312.574 594.174C314.073 592.545 316.108 591.24 316.98 589.205C317.037 589.072 308.31 576.754 307.293 575.737ZM391.105 608.237C386.264 608.655 378.018 619.08 386.98 619.08C392.424 619.08 400.003 607.468 391.105 608.237ZM138.855 609.112C138.513 609.453 136.641 613.302 136.511 613.237C134.647 615.101 133.735 618.02 132.386 620.268C128.491 626.761 125.461 633.877 121.261 640.174C121.457 640.369 121.579 640.76 121.855 640.768C128.395 640.957 134.94 640.957 141.48 640.768C142.619 640.735 145.625 633.944 146.168 632.862C150.113 624.97 155.127 617.601 159.074 609.705C158.879 609.51 158.756 609.121 158.48 609.112C152.917 608.923 147.325 608.923 141.761 609.112C141.689 609.114 140.174 609.331 138.855 609.112ZM454.355 624.112C448.734 624.6 451.259 636.024 448.23 636.08C437.978 636.272 427.699 636.365 417.449 636.08C415.462 636.025 415.729 624.353 409.855 624.362C403.146 624.372 404.809 635.865 402.23 636.08C399.019 636.348 395.746 636.427 392.543 636.08C388.981 635.695 388.571 622.681 382.293 624.643C378.905 625.701 376.576 633.355 375.574 636.362C375.368 636.978 373.737 640.761 374.98 640.768C407.792 640.962 440.605 640.962 473.418 640.768C473.694 640.766 473.972 640.448 474.011 640.174C474.207 638.807 474.797 636.148 473.418 636.08C469.614 635.895 465.779 636.352 461.98 636.08C460.616 635.983 459.3 625.396 457.293 624.643C456.118 624.202 455.158 624.042 454.355 624.112ZM396.355 624.362C394.493 624.308 392.622 624.335 390.793 624.643C389.746 624.819 393.101 632.561 394.605 632.862C396.233 633.187 397.932 633.108 399.574 632.862C401.126 632.629 402.486 624.671 401.918 624.643C400.064 624.55 398.218 624.415 396.355 624.362ZM420.136 624.362C419.142 624.356 418.095 624.545 417.168 624.643C415.802 624.787 418.335 630.216 418.918 630.799C420.698 629.464 421.735 627.227 422.73 625.237C422.071 624.577 421.131 624.368 420.136 624.362ZM440.168 624.393C437.673 624.35 435.175 624.377 432.699 624.643C431.858 624.733 426.563 632.76 428.605 632.862C434.262 633.144 439.913 633.05 445.574 632.862C446.809 632.82 448.253 624.666 447.636 624.643C445.148 624.549 442.662 624.436 440.168 624.393Z" fill="#ffffff" fill-rule="nonzero" opacity="1" stroke="none"/>
</g>
</svg>
