<?xml version="1.0" encoding="UTF-8" standalone="no"?>
<!DOCTYPE svg PUBLIC "-//W3C//DTD SVG 1.1//EN" "http://www.w3.org/Graphics/SVG/1.1/DTD/svg11.dtd">
<!-- Created with Vectornator (http://vectornator.io/) -->
<svg height="100%" stroke-miterlimit="10" style="fill-rule:nonzero;clip-rule:evenodd;stroke-linecap:round;stroke-linejoin:round;" version="1.1" viewBox="0 0 750 1000" width="100%" xml:space="preserve" xmlns="http://www.w3.org/2000/svg" xmlns:vectornator="http://vectornator.io" xmlns:xlink="http://www.w3.org/1999/xlink">
<defs/>
<g id="Layer-1" vectornator:layerName="Layer 1">
<path d="M390.824 200.067C383.384 200.087 374.02 203.472 366.511 205.348C346.271 210.408 326.937 217.253 307.636 224.973C268.239 240.732 233.098 264.918 202.449 295.567C192.889 305.127 180.746 318.934 175.793 331.317C175.401 332.296 173.915 333.322 173.449 334.255C168.955 343.242 164.287 352.726 161.449 362.661C157.055 378.039 155.293 392.822 155.293 408.942C155.293 424.606 159.78 440.536 165.543 454.942C167.072 458.765 168.604 463.638 171.105 466.973C173.006 469.508 174.6 473.088 176.074 476.036C182.169 488.225 194.614 500.419 203.918 509.723C221.095 526.901 242.546 540.244 262.511 552.223C271.615 557.685 281.528 561.808 290.918 567.442C303.091 574.746 317.529 579.371 329.886 586.786C335.898 590.393 341.104 595.056 347.168 599.098C346.875 599.538 346.898 599.534 346.605 599.973C335.288 594.315 320.894 591.63 308.511 589.723C253.348 581.237 203.631 597.744 167.011 638.942C157.259 649.914 149.357 661.907 143.261 674.098C142.453 675.716 135.746 687.193 136.23 688.161C136.992 689.685 138.276 688.985 139.761 689.036C141.716 689.103 143.668 689.054 145.605 689.317C154.949 690.591 165.233 691.838 174.918 693.13C197.251 696.107 220.042 700.661 241.418 707.786C252.102 711.347 263.539 714.456 273.636 719.505C297.63 731.501 320.679 745.185 339.855 766.38C346.82 774.077 351.744 783.453 358.011 790.973C359.196 792.395 362.149 799.685 363.011 799.786C370.564 800.674 379.974 797.356 387.605 795.661C402.553 792.339 417.894 788.482 432.136 782.786C442.898 778.481 453.56 773.822 464.074 769.317C468.525 767.41 474.096 765.854 478.136 763.161C482.804 760.049 487.826 758.047 492.48 755.255C504.175 748.238 515.511 740.629 526.48 732.098C561.922 704.533 591.063 667.813 599.136 623.411C609.131 568.442 589.669 526.944 552.261 489.536C544.459 481.733 534.645 474.055 525.293 468.442C519.035 464.687 513.354 459.379 506.855 456.13C498.837 452.12 489.151 447.055 481.668 442.067C479.917 440.9 477.894 439.095 475.793 438.255C471.589 436.573 468.368 433.222 464.074 431.505C454.915 427.841 443.18 419.225 436.824 411.598C434.468 408.771 433.984 405.886 432.449 402.817C434.006 401.26 440.907 404.569 442.98 405.161C453.082 408.047 463.815 410.092 474.324 410.411C479.303 410.562 484.28 410.723 489.261 410.723C535.814 410.723 574.846 378.878 599.136 342.442C603.601 335.745 608.199 328.006 611.449 319.88C611.988 318.533 613.785 316.699 613.793 315.192C613.8 313.817 613.787 312.442 613.793 311.067L574.355 303.067C574.042 303.003 557.52 299.605 552.418 298.755C536.15 296.043 519.455 292.045 505.918 286.63C472.528 273.274 445.818 259.029 422.98 236.192C418.979 232.191 405.605 213.535 405.605 213.536L395.949 200.067C394.241 200.071 392.532 200.062 390.824 200.067ZM378.324 232.098C378.324 232.098 391.347 251.246 399.636 259.536C426.951 286.85 458.544 303.205 493.668 317.255C510.441 323.964 529.215 328.356 546.98 331.317C550.404 331.888 567.793 335.411 567.793 335.411C567.793 335.411 564.358 340.099 563.386 341.286C559.65 345.853 555.884 349.337 551.386 353.598C531.14 372.779 501.628 383.026 474.043 382.005C449.288 381.089 425.102 370.846 407.543 353.286C387.819 333.563 373.098 309.147 350.699 292.348C347.846 290.209 342.141 288.255 338.699 288.255C329.136 288.255 320.943 292.165 314.199 298.161C317.394 299.558 320.772 299.921 323.449 302.598C336.689 315.838 320.511 336.063 320.511 351.817C320.511 371.613 332.555 385.697 346.293 398.692C363.293 414.774 386.787 425.252 407.543 435.63C446.562 455.139 493.244 476.206 524.418 507.38C546.864 529.827 567.793 558.954 567.793 592.348C567.793 606.979 566.885 622.774 561.355 636.598C554.304 654.226 545.789 670.883 532.043 684.63C530.433 683.021 532.122 680.587 533.855 678.38C533.868 675.674 536.6 664.825 537.011 662.973C539.39 652.269 539.329 640.586 538.199 629.848C537.664 624.766 536.816 619.596 535.574 614.63C535.057 612.563 533.511 609.701 533.511 607.598C533.511 606.414 534.386 605.199 534.386 604.067C534.386 598.028 532.786 591.93 529.699 586.786C526.681 581.756 522.71 580.526 519.168 577.692C516.389 575.469 514.153 571.034 511.824 568.317C510.591 566.878 507.757 564.723 507.136 563.067C505.365 558.341 504.89 554.945 500.98 551.036C495.065 545.12 490.224 543.368 482.543 541.661C480.99 541.316 469.738 533.294 468.168 531.723C465.989 529.545 465.151 526.331 462.918 524.098C459.728 520.91 455.379 518.145 451.199 516.473C447.118 514.841 443.586 514.671 439.168 514.411C438.201 514.355 425.154 507.428 424.23 506.505C422.895 505.169 422.361 503.166 421.011 501.817C416.674 497.48 411.652 494.673 406.074 492.442C399.425 489.783 392 491.871 386.136 487.473C384.178 486.005 381.142 485.666 379.418 483.942C374.195 478.72 370.066 473.295 363.011 470.473C360.838 469.604 358.019 468.442 355.668 468.442C353.614 468.441 351.503 469.221 349.511 468.723C345.95 467.833 338.033 463.401 335.449 460.817C333.758 459.127 333.361 456.635 331.668 454.942C328.5 451.775 325.199 449.38 321.699 446.755C317.379 443.515 312.283 443.536 307.324 442.661C306.02 442.431 303.705 439.96 302.636 439.13C299.587 436.757 296.449 434.387 293.855 431.505C293.08 430.643 292.977 428.524 292.699 427.411C291.746 423.6 287.68 418.892 285.074 416.286C282.76 413.971 280.062 411.808 277.449 409.848C276.362 409.033 274.195 408.907 273.355 408.067C270.887 405.599 265.449 397.102 265.449 393.442C265.449 384.785 266.889 369.101 259.574 361.786C260.887 359.159 260.021 355.937 260.168 353.005C260.475 346.853 261.407 340.2 263.105 334.255C268.496 315.385 275.374 301.628 286.011 288.036C282.741 291.024 278.514 293.371 275.105 296.161C267.975 301.995 261.72 308.839 256.074 316.098C237.514 339.962 229.689 370.688 238.199 400.473C239.961 406.639 241.938 413.737 245.23 419.223C256.774 438.462 272.314 453.886 290.636 466.973C338.64 501.262 394.722 517.954 442.699 552.223C467.619 570.023 491.175 594.036 496.011 625.473C498.516 641.755 496.236 658.801 491.043 674.38C489.474 679.086 486.629 683.723 485.449 688.442C483.61 695.799 474.561 707.302 469.949 713.067C464.893 719.387 459.5 724.668 453.543 730.348C437.89 745.273 417.842 756.092 397.574 762.848C394.689 763.81 380.828 768.65 378.824 767.848C378.603 767.76 378.603 767.516 378.543 767.317C378.431 767.458 378.346 767.733 378.23 767.848C371.507 759.444 366.325 750.068 358.605 742.348C346.031 729.774 332.71 719.237 318.543 710.161C302.624 699.963 285.639 691.612 267.48 684.348C249.999 677.355 230.908 672.46 212.418 669.098C208.932 668.464 193.266 666.8 191.574 665.098C189.755 666.131 187.764 665.346 190.136 662.973C190.362 663.123 190.493 663.179 190.605 663.255C190.074 660.747 194.794 656.535 196.293 655.036C211.342 639.986 227.316 629.195 247.293 622.536C290.643 608.086 343.184 621.92 374.136 655.348C383.233 665.173 391.017 675.922 396.98 687.848C398.494 690.877 401.691 695.681 401.918 699.161C403.301 697.548 410.788 693.103 412.23 691.661C422.855 681.036 433.886 666.308 433.886 650.348C433.887 623.421 416.599 602.663 394.043 589.13C385.5 584.003 374.307 579.164 366.511 573.317C362.744 570.491 357.396 568.462 353.043 566.286C341.383 560.456 329.229 555.329 318.168 548.692C306.825 541.885 294.673 536.47 283.324 529.661C245.308 506.851 207.732 477.48 193.386 434.442C190.668 426.285 188.699 416.647 188.699 408.067C188.699 393.944 189.826 380.796 193.668 367.348C209.649 311.412 264.261 278.583 312.918 254.255C327.975 246.726 344.797 239.925 361.23 235.817C364.363 235.034 374.74 231.227 377.605 232.161C377.695 232.071 378.324 232.098 378.324 232.098ZM353.636 327.817C354.524 327.373 357.309 330.302 357.449 330.442C361.667 334.659 365.84 339.232 369.168 344.223C377.95 357.397 385.041 371.397 393.168 384.942C397.529 392.212 401.773 400.266 407.824 406.317C407.531 406.61 407.523 406.618 407.23 406.911C404.749 405.67 400.943 405.542 398.168 404.848C394.566 403.948 391.126 402.229 387.605 401.348C385.025 400.703 382.222 398.569 379.98 397.223C364.85 388.145 354.692 372.495 351.574 355.348C351.376 354.263 350.98 351.871 350.98 350.942C350.98 345.4 350.908 341.279 351.574 336.286C351.773 334.792 352.089 328.591 353.636 327.817ZM190.605 663.255C190.672 663.571 190.79 663.877 191.043 664.13C191.336 663.837 191.312 663.829 191.605 663.536C191.807 663.637 191.897 663.698 192.011 663.755C192.062 663.855 192.106 663.943 192.199 664.13C191.759 664.569 191.763 664.565 191.324 665.005C191.346 665.037 191.541 665.065 191.574 665.098C192.007 664.853 192.439 664.601 192.793 664.13C192.086 663.069 192.506 663.423 191.605 662.973C191.312 663.266 191.336 663.243 191.043 663.536C190.828 663.393 190.712 663.326 190.605 663.255Z" fill="#ffffff" fill-rule="nonzero" opacity="1" stroke="none"/>
</g>
</svg>
