<?xml version="1.0" encoding="UTF-8" standalone="no"?>
<!DOCTYPE svg PUBLIC "-//W3C//DTD SVG 1.1//EN" "http://www.w3.org/Graphics/SVG/1.1/DTD/svg11.dtd">
<!-- Created with Vectornator (http://vectornator.io/) -->
<svg height="100%" stroke-miterlimit="10" style="fill-rule:nonzero;clip-rule:evenodd;stroke-linecap:round;stroke-linejoin:round;" version="1.1" viewBox="0 0 750 1000" width="100%" xml:space="preserve" xmlns="http://www.w3.org/2000/svg" xmlns:vectornator="http://vectornator.io" xmlns:xlink="http://www.w3.org/1999/xlink">
<defs/>
<g id="Layer-1" vectornator:layerName="Layer 1">
<path d="M262.257 249.315C262.257 251.922 265.899 256.145 267.257 258.409C271.364 265.254 275.405 272.359 278.976 279.503C292.274 306.098 303.973 332.482 315.007 360.065C318.655 369.184 320.817 378.962 323.195 388.471C323.566 389.958 325.78 396.866 324.382 397.565C323.298 398.107 313.795 396.55 312.07 396.378C302.678 395.439 293.317 394.262 283.945 393.159C247.661 388.89 211.365 383.324 175.538 376.159C163.708 373.793 151.878 371.464 140.101 368.846C137.974 368.374 130.407 365.665 128.976 367.096C154.111 404.799 175.309 445.112 200.445 482.815C206.406 491.758 211.915 501.131 217.445 510.346C218.208 511.619 223.129 517.892 221.538 518.846C220.064 519.731 211.935 519.345 210.132 519.44C202.126 519.862 194.109 520.215 186.101 520.596C159.352 521.87 132.583 522.876 105.82 523.815C97.1316 524.12 88.4413 524.327 79.7572 524.721C78.2649 524.789 76.4071 524.54 75.3509 525.596C87.2602 537.506 104.044 546.623 119.601 552.846C151.528 565.617 182.996 578.5 216.257 588.003C230.767 592.148 245.263 596.34 259.913 600.003C264.123 601.055 273.244 601.712 276.038 604.971C281.245 611.046 285.105 619.511 289.226 626.378C289.702 627.171 293.402 631.808 293.038 632.534C290.87 636.871 283.217 640.875 279.538 643.94C269.039 652.69 259.306 662.422 249.663 672.065C235.274 686.455 222.812 703.005 211.007 719.534C207.055 725.067 200.577 732.072 198.413 738.565C198.248 739.06 204.092 749.905 204.851 750.284C207.078 751.398 214.771 749.851 217.163 749.721C229.172 749.072 241.18 748.451 253.195 747.94C258.108 747.731 265.17 748.636 269.882 747.065C270.762 746.772 271.568 743.039 271.945 742.096C274.059 736.812 276.949 731.684 279.851 726.846C291.042 708.194 304.825 692.145 319.976 676.471C324.999 681.495 328.622 689.986 332.288 696.096C339.329 707.831 346.935 719.237 353.976 730.971C357.726 737.222 361.319 743.886 365.695 749.721C372.176 743.24 376.78 732.381 381.507 724.503C391.141 708.446 401.468 692.809 411.101 676.753C413.875 672.129 416.826 667.627 419.601 663.003C420.19 662.02 422.039 657.728 423.101 657.409C426.78 656.305 429.033 656.979 431.882 658.878C431.517 659.609 428.67 662.685 429.257 663.565C430.329 665.173 432.368 665.739 433.351 667.378C434.275 668.917 433.718 671.249 434.226 672.94C434.692 674.495 446.336 674.554 448.288 673.253C449.637 672.354 449.698 670.376 450.945 669.44C453.297 667.676 453.754 675.196 454.163 675.878C454.61 676.622 456.581 676.989 457.382 677.065C459.038 677.223 460.687 677.346 462.351 677.346C464.637 677.346 466.391 675.003 468.507 675.003C473.669 675.003 479.126 676.843 484.351 677.065C491.866 677.385 498.496 675.878 505.726 675.878C512.397 675.878 519.33 678.503 526.226 678.503C531.709 678.503 536.854 675.284 542.038 675.284C543.631 675.284 546.049 676.894 547.632 677.346C551.278 678.388 554.994 679.188 558.757 679.69C569.686 681.147 580.501 681.159 591.57 681.159C595.324 681.159 601.74 680.695 605.038 678.221C611.539 673.346 608.647 664.954 607.382 658.003C604.253 640.791 598.554 624.178 593.038 607.628C592.067 604.715 586.215 592.911 586.882 590.909C591.204 593.07 596.673 597.378 601.82 597.378C603.135 597.378 606.286 594.036 607.382 593.253C608.958 592.127 611.453 590.952 612.663 589.44C612.971 589.055 609.719 585.289 609.445 584.19C608.937 582.16 609.989 579.258 609.445 577.44C608.547 574.449 602.776 574.583 600.945 572.753C606.883 566.814 611.877 559.364 616.757 552.534C631.572 531.793 643.284 509.822 656.32 488.096C657.258 486.532 658.257 483.198 659.82 482.221C663.9 479.671 670.186 480.692 671.851 474.034C673.928 465.727 675.115 455.413 674.476 446.784C674.353 445.126 666.846 443.795 665.695 443.565C659.782 442.383 653.884 442.378 647.82 442.378C645.304 442.378 639.834 442.618 637.57 444.128C636.34 444.948 629.335 457.188 629.07 458.784C628.081 464.715 631.59 467.746 627.32 473.44C622.473 479.902 619.806 488.118 615.601 495.128C602.611 516.777 592.374 541.076 577.195 561.315C574.296 558.416 572.629 554.405 569.601 551.378C567.323 549.099 564.247 547.729 561.695 545.815C576.814 515.577 592.742 485.102 602.101 452.346C604.332 444.538 606.804 436.855 608.57 428.909C608.946 427.216 610.63 423.064 609.445 421.878C590.691 431.255 571.395 439.731 552.601 449.128C552.308 448.835 552.3 448.827 552.007 448.534C555.134 442.281 559.82 436.418 563.445 430.378C572.173 415.831 581.372 401.549 590.101 387.003C594.08 380.372 598.956 374.011 602.413 367.096C600.654 365.337 593.58 368.049 591.257 368.565C581.538 370.725 571.738 372.457 561.976 374.409C527.145 381.375 492.002 387.308 456.788 392.003C448.011 393.173 439.248 394.243 430.445 395.221C428.829 395.401 425.057 396.593 423.695 395.503C419.657 392.273 416.467 385.078 413.445 380.846C405.848 370.21 397.779 359.855 389.413 349.815C365.754 321.424 339.496 295.686 309.445 274.221C300.522 267.848 285.828 256.95 275.163 254.284C270.825 253.199 266.708 249.315 262.257 249.315ZM278.382 261.315C330.976 287.613 375.131 335.832 408.757 382.909C418.235 396.179 426.768 409.999 435.132 423.94C437.719 428.25 439.859 432.787 442.445 437.096C443.753 439.276 444.454 442.638 446.257 444.44C450.214 448.4 455.885 451.241 460.32 454.69C472.559 464.21 485.372 473.586 496.351 484.565C500.959 478.423 509.422 474.549 516.57 471.69C532.279 465.408 548.001 457.568 563.132 450.003C572.812 445.163 582.744 440.791 592.445 435.94C593.74 435.292 601.538 430.408 601.538 433.878C601.538 441.185 597.489 450.563 594.788 457.315C588.905 472.013 584.562 487.737 577.507 501.846C574.864 507.132 571.043 513.358 569.601 519.128C567.853 526.125 562.261 533.496 559.038 539.94C558.179 541.66 555.226 545.079 555.226 546.971C555.227 549.431 561.004 551.738 562.851 552.846C567.071 555.378 570.967 559.934 572.82 564.565C576.144 572.879 576.839 582.113 580.132 590.346C587.072 607.695 593.131 624.732 598.288 642.784C600.067 649.001 605.376 666.646 603.57 672.065C602.255 676.002 592.598 675.878 590.101 675.878C585.118 675.878 580.143 675.731 575.163 675.596C567.698 675.395 559.898 675.077 552.601 673.253C551.239 672.913 546.434 672.27 545.57 671.19C545.284 670.835 545.131 670.574 544.976 670.284C543.656 670.761 542.094 669.224 540.601 669.721C532.319 672.482 526.198 673.643 516.851 672.659C513.19 672.273 509.062 670.315 505.445 670.315C502.581 670.315 499.491 671.483 496.632 671.784C495.565 671.897 494.492 672.065 493.413 672.065C484.217 672.065 475.975 670.717 467.038 669.44C464.678 669.103 462.55 672.687 459.132 672.065C457.947 671.85 458.155 668.714 458.257 668.253C458.291 668.1 458.473 668.049 458.601 667.94C458.168 667.481 458.035 666.657 457.382 666.221C454.962 664.609 451.533 663.735 448.882 662.409C447.744 663.931 446.065 668.72 443.913 668.846C438.973 669.138 438.255 666.143 436.007 662.096C435.467 661.123 439.079 658.715 439.913 658.159C439.973 658.029 439.995 657.934 440.101 657.721C434.987 654.312 431.612 651.433 425.445 652.159C424.371 652.285 420.366 651.957 419.601 652.721C414.825 657.498 410.032 668.096 406.413 674.128C396.818 690.122 387.164 706.362 376.82 721.878C373.544 726.792 370.275 736.179 365.382 739.44C354.523 723.147 344.425 706.137 334.351 689.346C331.461 684.529 325.008 671.024 320.851 668.253C318.883 670.057 316.907 671.853 314.913 673.628C314.959 673.689 314.956 673.754 315.007 673.815C314.089 674.601 313.907 674.772 313.163 675.409C313.205 675.471 313.211 675.534 313.257 675.596C312.161 676.556 312.034 676.659 311.07 677.503C311.124 677.555 311.132 677.565 311.195 677.628C308.23 680.921 305.227 684.175 302.101 687.315C301.093 688.825 299.842 690.097 298.57 691.378C298.583 691.393 298.585 691.393 298.601 691.409C297.259 693.084 294.531 695.839 294.788 696.096C290.951 700.894 287.233 705.756 283.663 710.753C281.003 714.48 274.076 726.033 273.976 726.284C272.636 729.632 270.099 732.508 268.726 735.94C268.222 737.199 266.863 742.001 265.476 742.096C258.271 742.592 251.034 742.628 243.82 742.971C237.765 743.26 231.686 743.536 225.632 743.846C218.919 744.189 206.767 748.354 204.538 739.44C204.133 737.819 207.463 734.053 208.351 732.721C212.906 725.891 217.481 719.079 222.413 712.503C237.816 691.97 255.331 673.281 274.288 655.971C282.54 648.442 292.506 642.129 300.351 634.284C295.138 623.851 287.099 614.844 281.882 604.409C282.192 604.099 282.753 603.959 283.445 603.971C285.52 604.01 288.798 605.193 290.101 605.565C291.537 605.975 295.596 606.091 296.538 607.034C300.174 610.672 302.98 616.676 305.632 621.096C306.554 622.631 309.431 629.303 311.195 629.596C312.103 629.748 313.087 629.802 314.007 629.94C312.998 629.04 311.672 626.298 311.195 625.503C307.789 619.827 303.288 614.376 300.351 608.503C301.782 607.072 306.045 609.163 307.976 609.378C311.422 609.761 321.481 626.419 323.507 630.471C323.257 630.722 322.663 630.845 322.007 630.94C339.441 632.84 358.224 632.959 375.351 633.096C383.651 633.163 391.959 633.287 400.257 633.096C400.533 633.09 400.656 632.729 400.851 632.534C393.934 627.349 384.785 623.556 378.601 617.534C378.585 617.549 378.585 617.55 378.57 617.565C372.556 614.558 361.126 608.028 356.601 603.503C356.308 603.796 356.3 603.804 356.007 604.096C357.554 605.772 359.083 607.484 360.695 609.096C359.866 609.926 359.191 609.675 358.07 609.659C351.624 609.565 345.17 609.528 338.726 609.378C322.632 609.004 306.566 606.244 290.976 602.346C242.394 590.201 193.922 577.012 147.413 558.409C133.667 552.91 119.972 547.454 106.695 540.815C100.852 537.894 94.4678 535.338 89.6947 530.565C89.9875 530.272 90.189 529.735 90.6009 529.69C99.9073 528.685 109.641 529.138 119.007 528.815C146.017 527.883 172.882 526.653 199.57 525.284C206.604 524.923 213.634 524.541 220.663 524.128C222.74 524.006 229.382 522.893 231.226 523.815C231.519 523.522 231.495 523.546 231.788 523.253C226.295 512.262 218.488 502.137 212.163 491.596C195.629 464.039 178.011 437.123 161.476 409.565C154.568 398.053 146.103 387.006 140.101 375.003C141.447 373.657 148.068 376.071 150.07 376.471C160.509 378.56 170.937 380.723 181.413 382.628C216.833 389.069 252.304 394.848 288.038 399.315C297.382 400.484 306.78 401.437 316.163 402.253C320.097 402.595 327.418 401.708 330.82 403.409C332.12 402.107 330.558 397.332 330.226 395.503C328.916 388.285 327.271 381.177 325.257 374.128C319.951 355.549 312.169 338.329 305.038 320.503C301.435 311.489 294.499 302.594 292.163 293.253C291.616 291.066 289.657 288.866 288.632 286.815C285.924 281.402 283.433 275.823 280.726 270.409C279.732 268.424 276.607 263.091 278.382 261.315ZM589.382 374.44C590.195 374.441 590.848 374.593 591.257 375.003C581.297 394.92 567.281 413.306 555.82 432.409C552.28 438.311 548.518 444.1 544.976 450.003C543.716 452.101 542.25 455.844 540.288 457.315C535.926 460.586 529.566 461.942 524.757 464.346C524.464 464.054 524.488 464.077 524.195 463.784C524.218 463.738 524.265 463.705 524.288 463.659C528.61 459.593 531.378 453.645 534.445 448.534C542.863 434.502 552.089 420.97 560.507 406.94C563.421 402.085 566.687 397.42 569.601 392.565C570.064 391.792 572.241 389.067 571.945 388.471C571.012 386.607 565.536 388.972 564.038 389.346C556.196 391.307 547.924 391.993 540.007 393.753C513.916 399.551 486.822 403.034 460.32 406.346C453.288 407.225 446.27 408.189 439.226 408.971C437.01 409.218 432.752 408.813 431.07 410.409C430.159 409.644 426.186 402.771 425.445 401.659C427.049 400.055 431.769 400.419 433.945 400.19C442.751 399.263 451.533 398.07 460.32 396.971C492.139 392.994 523.691 387.174 555.226 381.44C564.042 379.837 572.819 377.915 581.601 376.159C583.239 375.831 586.945 374.437 589.382 374.44ZM564.226 392.034C564.944 392.045 565.509 392.193 565.788 392.565C566.282 393.223 563.523 396.602 563.132 397.253C560.005 402.464 556.847 407.727 553.476 412.784C545.061 425.405 536.969 438.463 529.163 451.471C526.487 455.932 523.156 464.253 518.913 467.284C516.033 469.341 511.868 470.65 508.663 472.253C507.684 470.782 517.023 457.32 518.601 454.69C528.96 437.426 542.467 420.426 551.413 402.534C550.243 401.365 546.621 402.829 544.976 403.128C537.953 404.404 530.937 405.855 523.882 406.94C503.566 410.066 483.329 413.597 462.945 416.315C456.701 417.148 450.445 417.878 444.195 418.659C442.172 418.912 438.519 419.984 436.57 419.534C435.708 419.335 431.73 412.989 433.351 412.503C442.275 409.825 453.372 410.133 462.663 408.971C486.462 405.997 510.695 402.534 534.132 397.846C541.815 396.31 549.567 394.875 557.288 393.471C558.544 393.243 562.072 392 564.226 392.034ZM651.913 447.378C655.813 447.735 668.986 448.923 669.195 450.596C669.608 453.908 668.623 458.102 668.32 461.44C668.013 464.814 668.739 470.677 665.976 473.44C662.664 476.752 660.487 476.116 656.32 477.253C654.991 477.615 652.852 483.563 652.195 484.878C648.525 492.218 644.415 499.5 640.195 506.534C626.506 529.349 612.43 553.395 593.913 572.753C592.577 574.15 591.522 575.93 589.82 576.846C588.787 577.402 587.45 576.692 586.288 576.846C585.145 576.999 583.274 578.986 582.476 579.784C581.071 578.379 577.891 572.094 578.382 570.128C578.829 568.344 580.661 566.413 581.601 564.846C585.192 558.86 589.323 552.933 592.445 546.69C596.737 538.106 602.159 529.708 607.101 521.471C613.056 511.548 617.836 500.923 623.788 491.003C626.934 485.761 628.919 479.183 632.57 474.315C633.466 473.12 635.788 470.037 635.788 468.471C635.788 465.577 634.217 462.569 634.632 459.659C634.935 457.532 639.657 449.107 641.663 448.534C644.925 447.602 648.587 447.586 651.913 447.378ZM599.757 578.628C603.277 579.142 605.56 580.743 603.226 583.471C606.314 585.947 604.669 590.013 600.945 591.503C599.247 592.182 587.879 585.685 586.882 584.19C586.344 583.385 586.712 582.381 586.288 581.534C587.381 580.442 588.553 580.288 589.757 580.565C589.672 580.49 589.592 580.463 589.507 580.378C591.161 578.723 596.051 578.086 599.757 578.628ZM322.007 630.94C319.309 630.646 316.625 630.333 314.007 629.94C314.14 630.059 314.295 630.438 314.413 630.471C315.666 630.829 319.709 631.274 322.007 630.94ZM328.882 408.221C325.624 408.381 322.045 409.425 319.101 409.878C308.906 411.446 298.983 413.938 289.226 417.19C286.948 417.95 283.305 418.705 281.601 420.409C282.814 421.622 295.213 419.382 297.413 419.253C308.821 418.582 320.269 418.659 331.695 418.659C331.913 418.659 332.093 418.843 332.288 418.94C333.644 417.585 333.653 408.738 332.007 408.409C331.025 408.213 329.968 408.168 328.882 408.221ZM652.507 451.471C647.498 451.765 643.592 451.952 640.788 456.159C640.279 456.924 638.152 459.248 639.601 459.971C641.376 460.859 651.82 458.784 654.257 458.784C656.213 458.784 658.192 459.339 660.132 459.096C661.265 458.955 665.251 453.015 663.913 452.346C662.871 451.825 658.998 451.817 658.07 451.753C656.216 451.625 654.362 451.363 652.507 451.471ZM246.445 453.221C244.537 453.221 240.288 459.658 241.476 461.44C243.453 460.452 245.215 457.379 247.632 457.034C252.856 456.288 260.171 459.692 265.195 461.128C279.217 465.134 291.884 471.566 305.32 476.94C308.91 478.377 313.654 480.207 316.757 482.534C322.777 487.049 330.48 490.042 336.976 493.94C338.667 494.955 342.014 498.019 343.726 496.878C339.048 492.199 332.386 488.555 326.726 485.159C308.928 474.48 290.453 464.804 270.476 459.096C263.128 456.997 254.111 453.221 246.445 453.221ZM450.945 453.221C450.652 453.514 450.644 453.522 450.351 453.815C454.79 462.693 458.673 471.868 462.351 481.065C463.562 484.094 466.534 488.865 466.163 492.19C465.958 494.039 458.688 491.97 457.382 491.596C449.363 489.305 441.578 486.328 433.663 483.69C412.881 476.763 391.745 470.602 369.788 469.034C365.228 468.708 349.438 466.542 346.351 469.628C350.673 473.95 355.041 478.32 359.226 482.815C365.246 489.281 384.132 508.398 384.132 518.846C384.132 522.473 377.462 518.205 376.226 519.44C380.275 523.489 386.06 526.439 390.601 529.971C400.602 537.75 410.171 546.079 419.288 554.878C423.115 558.57 426.965 562.243 430.726 566.003C431.363 566.639 431.593 567.889 432.476 568.065C440.61 569.692 452.122 566.462 459.445 572.159C463.014 574.935 464.127 580.679 466.163 584.753C469.69 591.806 474.208 598.438 479.07 604.69C480.113 606.031 482.826 610.643 484.351 611.128C489.491 612.763 492.447 609.811 494.882 606.159C497.478 608.755 494.935 615.118 493.413 618.159C499.471 624.217 507.793 628.712 515.101 633.096C533.424 644.09 552.712 653.303 572.507 661.221C579.059 663.842 585.644 666.31 592.445 668.253C593.945 668.681 597.842 670.234 598.882 668.846C600.649 666.491 598.598 659.488 598.007 656.534C595.813 645.562 592.164 634.912 588.632 624.315C584.984 613.372 578.817 602.622 576.038 591.503C574.001 583.354 573.037 571.522 567.82 564.565C565.397 561.335 563.347 557.925 559.913 555.471C557.945 554.066 554.886 553.351 553.195 551.659C547.626 546.091 543.156 538.864 537.945 532.909C525.399 518.571 512.141 504.779 498.101 491.909C487.324 482.03 476.237 472.449 464.695 463.471C460.321 460.07 455.915 455.706 450.945 453.221ZM650.82 463.815C649.426 463.877 648 464.065 646.632 464.065C638.842 464.065 635.257 475.406 632.288 481.346C622.334 501.256 611.792 521.155 600.351 540.221C596.655 546.381 592.812 552.554 588.632 558.409C586.658 561.172 583.989 563.88 582.476 566.909C582.769 567.202 582.777 567.179 583.07 567.471C584.711 566.651 586.23 565.583 587.757 564.565C588.741 565.549 587.647 565.613 588.632 566.596C589.023 566.401 589.429 566.198 589.82 566.003C589.905 566.088 589.932 566.061 590.007 566.128C588.756 567.423 586.768 570.394 587.757 571.878C589.223 570.412 591.013 569.196 592.163 567.471C592.075 567.354 592.077 567.408 592.007 567.315C597.689 563.375 605.673 549.163 609.445 542.878C620.247 524.875 631.153 506.958 641.945 488.971C645.591 482.895 648.862 476.579 652.507 470.503C653.067 469.57 656.127 464.894 654.851 464.346C653.593 463.808 652.214 463.754 650.82 463.815ZM260.226 518.846C257.547 518.668 254.987 518.937 252.32 519.128C247.459 519.475 241.775 519.139 237.07 520.315C236.646 520.421 236.263 521.047 236.476 521.471C239.05 526.62 254.536 522.378 259.913 522.378C261.386 522.378 264.8 525.626 266.07 526.471C271.844 530.321 277.518 534.308 283.07 538.471C283.509 538.179 283.505 538.171 283.945 537.878C281.149 535.082 265.974 519.23 260.226 518.846ZM375.07 541.409C373.11 543.369 373.71 552.614 373.601 554.878C373.496 557.026 373.288 559.165 373.288 561.315C373.288 564.694 374.027 581.397 376.82 584.19C378.557 582.453 377.284 574.01 377.413 571.878C377.769 566.004 378.434 560.121 379.163 554.284C379.378 552.567 380.253 549.877 380.038 548.159C379.835 546.534 376.108 542.795 375.07 541.409ZM386.788 551.94C385.005 553.724 385.41 560.803 385.32 563.096C385.178 566.708 385.007 570.326 385.007 573.94C385.007 577.71 384.909 588.467 387.945 591.503C389.855 589.593 388.532 583.256 388.82 580.378C389.381 574.761 392.412 564.801 391.757 559.565C391.521 557.679 387.975 553.522 386.788 551.94ZM398.788 563.659C396.919 565.528 397.208 570.803 397.038 573.346C396.733 577.935 395.042 593.6 398.507 597.065C399.916 595.657 399.606 590.219 399.976 588.003C400.92 582.34 403.476 575.847 403.476 570.128C403.476 568.661 399.73 564.835 398.788 563.659ZM585.695 568.346C584.1 569.144 581.968 569.76 580.726 571.003C581.567 572.686 581.995 574.335 583.351 575.69C585.137 574.261 585.108 571.301 586.288 568.94C585.995 568.647 585.988 568.639 585.695 568.346ZM591.757 581.503C591.855 581.555 591.94 581.604 592.038 581.659C591.916 581.647 591.786 581.589 591.663 581.565C591.358 581.783 590.956 581.867 590.695 582.128C592.761 584.194 598.643 584.492 601.538 585.94C602.477 585.002 602.037 584.906 601.82 583.596C601.806 583.516 601.774 583.456 601.757 583.378C601.407 584.073 601.017 584.988 600.632 585.065C597.686 585.655 594.805 583.209 592.07 581.659C594.559 581.881 597.148 579.832 600.195 580.94C598.009 579.328 594.307 579.745 591.757 581.503ZM600.195 580.94C600.963 581.507 601.527 582.334 601.757 583.378C601.854 583.185 601.948 582.961 602.038 582.846C601.547 582.094 601.234 581.325 600.351 580.971C600.295 580.949 600.25 580.96 600.195 580.94ZM602.038 582.846C602.282 583.219 602.459 583.619 602.976 583.878C603.127 583.727 603.103 583.616 603.226 583.471C602.892 583.204 602.55 582.946 602.101 582.721C602.08 582.742 602.059 582.82 602.038 582.846ZM449.476 583.003C447.672 584.806 449.765 590.626 450.351 592.971C452.954 603.385 454.579 606.523 464.413 611.44C466.333 612.4 469.645 614.477 471.726 613.784C466.067 602.467 457.895 592.357 449.476 583.003ZM425.663 619.721C425.271 619.977 424.808 620.145 424.32 620.284L424.788 620.284L423.413 623.44L432.382 623.096L431.007 628.128L435.413 631.065C438.268 630.574 440.842 630.012 441.257 629.596C442.574 630.914 453.94 629.681 457.101 630.471C459.456 631.06 460.582 638.078 462.945 640.44C462.797 640.588 462.68 640.597 462.538 640.721C464.53 640.364 466.836 639.896 468.226 640.128C468.321 640.143 468.302 640.303 468.382 640.346C468.642 639.748 469.376 639.348 470.288 639.159C472.114 638.781 474.616 639.166 475.257 640.128C472.094 643.922 468.162 646.91 464.695 650.378C465.462 651.298 465.375 651.316 465.538 651.503C467.201 650.428 476.376 651.762 479.07 651.846C481.707 651.929 483.371 652.52 486.976 651.846C489.503 651.375 491.05 648.905 493.726 652.44C492.115 653.918 491.842 654.126 490.476 655.378C490.353 655.492 490.341 655.525 490.195 655.659C490.18 655.646 490.177 655.641 490.163 655.628C488.352 657.129 486.283 658.414 484.632 660.065C484.832 660.265 484.925 660.358 485.038 660.471C487.735 659.5 494.003 660.634 495.476 660.659C500.844 660.752 506.202 660.471 511.57 660.659C511.846 660.669 511.968 661.026 512.163 661.221C509.82 663.712 509.82 663.731 507.476 666.221C510.269 669.012 526.41 668.431 529.445 668.253C530.636 668.183 534.816 668.476 535.913 667.378C534.315 665.779 531.991 665.705 530.351 664.315C529.953 664.224 529.569 664.294 529.163 664.159C525.064 662.793 521.022 660.526 517.163 658.596C497.073 648.553 478.382 635.227 457.663 626.94C450.891 624.232 443.796 622.208 436.57 621.096C433.628 620.644 427.817 621.536 425.663 619.721ZM432.632 631.503L428.663 629.284L429.413 624.909L424.07 624.846L420.476 623.721L422.601 620.565C418.108 620.916 411.738 618.991 409.038 621.69C410.846 623.5 414.551 623.993 416.945 625.19C419.862 626.649 423.102 631.144 425.757 631.94C426.594 632.191 429.56 631.924 432.632 631.503ZM310.788 633.378C309.528 633.421 308.354 633.583 307.382 633.971C302.517 635.916 296.688 641.759 293.038 645.409C294.054 646.426 302.834 646.759 310.038 647.971C318.265 649.356 325.018 651.513 325.851 652.346C325.84 652.37 325.802 652.48 325.788 652.503C332.432 647.6 343.015 649.996 351.038 649.815C378.306 649.202 405.644 646.525 432.788 643.94C438.746 643.373 444.675 642.786 450.632 642.19C452.437 642.01 456.712 642.23 458.788 641.409C456.571 639.735 455.868 634.335 455.632 634.284C448.246 632.702 440.463 635.049 433.07 635.753C405.764 638.353 378.109 637.455 350.757 636.315C341.275 635.92 331.78 635.322 322.32 634.565C319.245 634.319 314.577 633.247 310.788 633.378ZM325.788 652.503C325.536 652.918 323.315 653.222 320.57 652.596C317.452 651.886 313.535 650.159 308.851 649.503C300.183 648.288 290.305 648.498 289.226 648.628C288.072 648.767 278.677 657.281 277.507 658.596C277.233 658.905 282.319 659.347 282.476 659.19C284.142 660.025 286.177 659.629 288.038 659.753C289.314 659.837 290.58 659.995 291.851 660.065C292.639 660.109 296.363 660.659 298.601 660.659C298.711 660.999 298.741 661.148 298.788 661.378C298.953 661.124 298.866 660.988 299.195 660.659C301.855 660.952 300.507 660.8 303.257 661.44C306.007 662.081 317.042 661.218 318.507 659.753C320.851 657.411 321.115 657.145 323.195 655.065C323.965 654.039 324.839 653.203 325.788 652.503ZM468.757 641.909C468.663 642.102 468.707 642.372 468.507 642.471C467.457 642.997 466.048 642.236 465.007 642.784C463.605 643.523 461.832 645.743 460.32 646.878C456.397 649.823 444.236 647.399 441.257 650.378C442.332 651.354 443.455 652.315 444.507 653.315C445.344 654.11 445.876 654.71 446.257 655.221C447.22 654.485 450.821 652.774 451.226 654.19C451.509 655.194 449.982 657.028 450.632 658.003C452.163 660.296 456.295 661.272 458.57 662.409C458.863 662.116 458.839 662.108 459.132 661.815C459.347 661.923 459.492 657.955 461.195 656.253C462.731 657.786 462.434 659.836 463.82 661.221C468.311 665.716 472.285 667.096 478.757 667.096C483.64 667.096 488.532 666.937 493.413 666.784C497.685 666.65 502.837 667.048 506.007 663.878C505.812 663.683 505.72 663.302 505.445 663.284C501.251 663.005 497.018 663.136 492.82 663.003C488.948 662.88 487.163 663.604 483.507 663.159C479.852 662.714 479.587 662.614 478.195 661.221C481.358 658.847 485.16 657.06 488.101 654.378C487.716 654.233 486.822 654.182 486.695 654.19C483.677 654.385 480.626 654.311 477.601 654.19C473.884 654.042 466.001 653.47 465.913 653.253C464.2 654.129 460.715 653.117 459.445 651.846C462.798 648.866 466.463 646.19 469.382 642.784C469.057 642.459 468.934 642.19 468.757 641.909ZM404.945 653.628C400.417 652.393 395.773 663.698 393.507 667.096C383.802 681.655 375.4 697.069 365.695 711.628C362.454 708.387 360.144 703.241 357.788 699.315C352.032 689.721 345.669 680.503 339.913 670.909C337.852 667.473 335.19 660.703 332.007 658.315C331.139 657.664 329.167 659.665 329.663 660.659C332.746 666.825 337.494 672.543 341.07 678.503C348.782 691.356 356.336 705.773 365.695 717.471C369.074 714.092 371.428 708.969 373.882 704.878C379.619 695.317 385.572 685.747 391.757 676.471C395.514 670.837 399.115 664.999 402.601 659.19C403.047 658.447 406.394 654.023 404.945 653.628ZM386.976 654.784C384.036 654.929 380.875 655.322 380.038 655.378C370.185 656.035 360.313 656.512 350.445 656.846C347.016 656.963 342.621 655.296 340.195 657.721C348.948 670.852 356.222 685.215 365.695 697.846C368.685 694.856 370.833 690.346 373.007 686.721C377.034 680.01 381.26 673.296 385.601 666.784C386.652 665.207 392.633 656.874 392.632 655.659C392.632 654.73 389.916 654.639 386.976 654.784ZM461.476 662.096C460.797 663.112 461.004 662.858 460.413 663.44C461.088 665.011 461.193 667.128 460.351 667.971C461.357 668.685 462.127 669.946 464.695 667.378C463.829 665.652 462.837 663.458 461.476 662.096ZM271.351 664.159C266.037 668.067 261.893 673.362 257.32 678.128C257.572 678.264 277.132 676.333 280.445 676.159C286.185 679.558 282.338 678.864 278.382 679.096C275.188 679.284 256.271 680.79 256.101 680.846C253.765 681.626 252.606 683.528 250.851 685.534C248.638 688.063 246.456 690.684 244.288 693.253C244.43 693.366 249.869 692.668 251.413 692.565C259.097 692.053 266.563 692.008 274.288 692.284C277.225 692.389 285.084 693.489 285.413 693.159C286.223 693.564 286.948 693.348 287.757 693.753C290.519 689.609 294.326 685.717 297.851 682.19C297.797 682.126 297.79 682.111 297.726 682.034C298.379 681.38 298.668 681.186 299.007 681.003C298.958 680.949 298.937 680.901 298.882 680.846C299.625 680.106 299.341 680.523 299.757 679.69C298.241 678.179 288.43 678.732 285.695 678.815C283.655 678.877 284.096 678.06 282.788 676.753C283.081 676.46 283.058 676.452 283.351 676.159C289.672 676.472 300.788 676.409 302.101 677.065C304.416 674.49 306.683 671.889 309.132 669.44C305.919 666.227 298.383 665.346 294.195 665.346C294.06 664.946 272.234 663.51 271.351 664.159ZM261.976 697.378C251.859 697.46 241.957 697.84 241.257 697.565C240.058 698.376 234.094 704.844 232.913 706.284C233.995 705.903 274.666 706.016 276.601 709.659C278.694 705.91 280.926 702.053 283.945 699.034C282.43 697.517 272.093 697.296 261.976 697.378ZM231.976 708.784C228.389 711.245 222.865 718.319 220.945 722.159C221.177 722.391 221.259 722.473 221.413 722.628C222.297 722.006 235.052 719.983 246.788 719.534C257.165 719.137 268.484 720.425 268.851 720.628C269.672 719.903 270.27 720.111 271.163 719.346C271.142 719.307 271.09 719.292 271.07 719.253C270.813 718.744 273.584 714.907 273.976 714.253C274.742 712.977 275.594 711.512 276.382 710.096C274.831 711.022 272.979 711.372 271.413 710.096C271.387 710.108 233.737 709.769 231.976 708.784ZM254.038 720.971C251.785 720.931 249.354 720.994 246.882 721.159C234.497 721.988 220.794 724.888 219.913 724.378C216.212 728.129 213.381 732.646 210.413 737.096C211.689 738.371 225.648 736.944 228.288 736.815C239.6 736.264 251.665 736.944 262.851 735.346C263.956 735.189 268.259 723.587 269.101 721.721C268.045 722.094 266.493 721.869 266.382 721.878C266.025 721.905 260.805 721.094 254.038 720.971Z" fill="#ffffff" fill-rule="nonzero" opacity="1" stroke="none"/>
</g>
</svg>
