<?xml version="1.0" encoding="UTF-8" standalone="no"?>
<!DOCTYPE svg PUBLIC "-//W3C//DTD SVG 1.1//EN" "http://www.w3.org/Graphics/SVG/1.1/DTD/svg11.dtd">
<!-- Created with Vectornator (http://vectornator.io/) -->
<svg height="100%" stroke-miterlimit="10" style="fill-rule:nonzero;clip-rule:evenodd;stroke-linecap:round;stroke-linejoin:round;" version="1.1" viewBox="0 0 750 1000" width="100%" xml:space="preserve" xmlns="http://www.w3.org/2000/svg" xmlns:vectornator="http://vectornator.io" xmlns:xlink="http://www.w3.org/1999/xlink">
<defs/>
<g id="Layer-1" vectornator:layerName="Layer 1">
<path d="M114.547 260.362C101.412 260.41 88.2754 260.518 75.1406 260.518C75.1406 264.892 85.1643 275.515 87.1406 280.456C89.6572 286.747 94.7296 292.666 98.2969 298.612C106.155 311.709 114.321 324.569 122.297 337.862C130.416 351.394 140.073 364.914 147.203 379.174C150.626 386.021 155.844 392.019 159.234 398.799C166.469 413.269 177.442 425.871 184.703 440.393C191.825 454.637 203.064 467.147 210.203 481.424C218.303 497.625 229.679 513.019 239.203 528.893C242.648 534.634 246.282 540.367 249.766 546.174C250.832 547.951 251.916 550.668 253.266 552.018C251.746 553.538 245.636 552.331 244.172 552.331C241.631 552.331 239.117 552.499 236.578 552.612C226.722 553.05 216.929 554.491 207.266 556.424C178.579 562.162 149.559 577.516 131.109 601.237C126.541 607.111 123.449 613.232 120.859 619.706C102.955 664.466 131.064 699.642 167.734 721.643C179.599 728.762 193.71 731.442 206.984 735.424C213.471 737.37 222.866 739.407 229.547 739.518C241.069 739.71 252.587 739.71 264.109 739.518C291.706 739.058 324.715 725.423 346.141 707.893C365.305 692.214 376.283 672.893 377.766 648.424C378.118 642.606 378.236 635.397 376.328 629.674C372.6 618.489 367.788 609.68 361.672 599.487C354.197 587.028 346.498 574.895 339.109 562.581C335.714 556.921 332.187 548.345 327.672 543.831C327.965 543.391 327.973 543.395 328.266 542.956C329.35 543.498 331.439 543.502 332.359 543.518C342.612 543.696 352.886 543.831 363.141 543.831C369.285 543.831 378.116 541.372 383.047 537.674C380.452 532.485 375.108 528.797 372.516 523.612C373.668 522.459 372.62 523.163 375.141 523.299C378.068 523.458 380.992 523.52 383.922 523.612C389.096 523.774 394.277 523.893 399.453 523.893C417.044 523.893 434.699 521.488 451.891 518.049C453.589 517.71 465.383 515.065 465.953 513.924C466.335 513.161 461.702 508.944 459.234 506.331C456.672 503.618 454.088 500.901 451.609 498.112C452.999 496.722 460.112 497.003 462.453 496.643C470.486 495.407 478.768 493.652 486.484 491.081C510.194 483.177 531.901 470.921 550.922 452.987C556.378 447.843 564.1 441.568 567.609 434.549C567.316 434.256 567.34 434.249 567.047 433.956C566.154 434.402 565.987 434.396 565.266 433.674C568.618 430.322 573.995 428.204 577.891 425.174C588.645 416.81 600.152 406.402 606.297 394.112C607.66 391.385 614.15 382.161 613.609 379.456C613.312 377.968 611.194 379.103 610.391 378.299C621.648 367.042 629.719 355.902 635.297 341.956C636.515 338.91 640.179 330.464 639.703 327.612C639.381 325.676 635.826 327.829 634.422 326.424C638.315 322.531 642.822 319.211 646.734 315.299C659.244 302.789 674.859 278.407 674.859 260.518C427.154 260.518 427.158 260.518 179.453 260.518C181.191 265.732 185.908 270.901 188.828 275.768C195.272 286.509 201.907 296.676 207.266 307.393C213.696 320.254 211.063 328.121 195.266 327.331C194.729 327.304 188.144 316.014 187.359 314.706C182.102 305.944 176.492 297.406 171.234 288.643C168.553 284.174 165.89 278.525 162.734 274.581C161.688 273.273 154.351 260.524 153.953 260.518C140.82 260.325 127.682 260.314 114.547 260.362ZM119.828 268.456C129.448 268.42 139.056 268.498 148.672 268.737C149.373 268.754 156.287 280.73 157.172 282.206C165.427 295.964 174.104 309.447 182.359 323.206C183.156 324.534 190.196 336.08 190.578 336.112C194.333 336.425 195.918 335.819 199.078 335.518C204.359 335.015 211.437 334.597 215.484 330.549C220.844 325.189 219.118 317.519 217.234 310.924C213.003 296.115 203.927 282.292 195.266 269.299C195.461 269.104 195.583 268.737 195.859 268.737C351.328 268.542 506.797 268.542 662.266 268.737C662.542 268.737 662.633 269.104 662.828 269.299C655.707 283.541 649.701 296.721 638.234 309.143C630.498 317.523 620.957 323.795 613.047 331.706C618.083 333.384 624.681 328.714 628.547 332.581C627.037 335.601 626.825 339.556 625.328 342.549C621.484 350.237 617.209 358.606 610.703 365.112C605.461 370.354 599.998 375.16 593.984 379.456C591.202 381.443 587.311 382.941 584.922 385.331C586.239 385.77 587.851 385.331 589.297 385.331C592.428 385.331 596.458 383.71 598.672 385.924C590.944 401.38 580.042 414.542 564.984 424.581C560.075 427.854 554.96 430.284 549.453 432.487C547.59 433.232 544.352 433.495 543.016 434.831C545.379 437.194 549.434 433.655 551.797 436.018C549.585 440.441 545.873 445.161 542.422 448.612C521.496 469.538 497.524 479.102 469.484 486.112C461.23 488.175 452.437 489.189 443.984 489.924C441.513 490.14 434.684 489.537 433.141 491.081C438.243 497.884 445.002 503.837 450.734 510.143C448.168 512.71 439.559 512.271 436.078 512.768C417.32 515.448 398.135 515.1 379.234 514.518C375.524 514.404 371.819 514.374 368.109 514.237C364.953 514.12 356.389 511.895 354.047 514.237C359.045 520.485 363.903 526.868 368.703 533.268C366.499 535.472 361.048 535.618 358.141 535.924C347.377 537.057 336.004 535.803 325.328 533.862C323.151 533.466 309.957 529.92 309.234 530.643C322.666 550.791 334.842 571.978 347.297 592.737C360.637 614.972 372.453 628.457 368.391 656.893C365.439 677.551 350.652 694.63 334.141 706.424C329.938 709.426 324.944 711.338 320.953 714.331C309.998 722.548 291.963 725.972 278.453 728.674C239.473 736.47 179.06 728.312 148.672 697.924C140.743 689.995 135.072 681.195 129.641 672.143C124.259 663.174 123.826 649.979 124.641 640.206C128.412 594.955 178.205 568.929 218.703 563.143C230.902 561.401 242.189 561.071 254.734 561.393C257.613 561.466 265.916 561.14 268.797 562.581C269.706 561.218 260.712 547.605 259.141 544.987C248.416 527.113 237.253 509.695 226.609 491.956C195.401 439.941 162.881 388.72 131.672 336.706C121.659 320.017 111.215 303.579 101.203 286.893C97.6922 281.042 93.4417 275.402 90.3906 269.299C90.5859 269.104 90.6769 268.74 90.9531 268.737C100.572 268.64 110.208 268.491 119.828 268.456ZM123.641 274.643C116.364 274.667 109.072 274.765 101.797 274.862C101.521 274.866 101.398 275.26 101.203 275.456C104.61 282.269 109.316 288.55 113.234 295.081C123.721 312.559 134.598 329.614 145.172 347.237C176.562 399.553 209.282 451.077 240.672 503.393C249.04 517.339 257.806 531.043 266.172 544.987C271.141 553.269 277.071 561.254 281.391 569.893C279.56 571.724 272.055 569.054 269.672 568.737C258.998 567.314 247.857 566.554 237.141 567.268C198.695 569.831 146.971 587.34 133.453 627.893C121.117 664.901 147.059 694.321 178.266 709.924C230.121 735.852 315.693 731.095 352.578 679.456C363.479 664.195 365.865 644.255 359.922 626.424C356.692 616.735 349.182 607.588 343.797 598.612C336.56 586.55 329.066 574.643 321.828 562.581C315.454 551.958 308.569 541.252 302.203 530.643C300.978 528.601 295.635 522.011 296.922 520.081C299.931 521.585 303.663 522.096 306.891 523.018C317.984 526.188 329.607 528.942 341.172 529.768C344.339 529.994 355.594 532.002 358.141 529.456C355.362 523.898 349.819 518.512 346.141 513.362C345.45 512.396 342.109 508.581 342.328 507.487C342.708 505.586 346.925 506.805 347.891 506.893C353.827 507.433 359.811 507.838 365.766 508.081C385.407 508.882 405.011 509.27 424.641 508.081C427.892 507.884 436.285 508.749 438.703 506.331C432.571 498.972 425.597 492.257 419.078 485.237C419.273 485.042 419.396 484.653 419.672 484.643C425.137 484.455 430.61 484.723 436.078 484.643C443.056 484.54 450.267 483.643 457.172 482.581C487.12 477.973 522.731 465.414 540.391 438.924C535.721 434.255 525.445 442.76 520.453 437.768C521.369 436.852 524.061 436.29 525.422 436.018C530.176 435.067 536.904 432.573 540.953 430.143C544.905 427.772 550.183 426.674 554.141 423.706C563.392 416.767 572.306 411.696 580.797 403.206C582.211 401.791 590.609 390.392 589.016 388.268C587.531 386.288 573.233 390.642 569.953 387.362C573.293 384.022 579.372 381.623 583.453 379.174C593.263 373.288 603.509 364.963 610.703 356.331C613.76 352.662 620.539 344.147 619.766 338.737C619.727 338.463 619.448 338.15 619.172 338.143C611.069 337.952 602.963 338.334 594.859 338.143C594.583 338.137 594.492 337.776 594.297 337.581C598.458 333.42 604.764 330.582 609.516 327.018C621.129 318.308 632.445 308.499 641.172 296.862C645.17 291.532 648.528 285.649 651.422 279.862C651.668 279.37 653.389 274.864 652.297 274.862C503.762 274.667 355.207 274.667 206.672 274.862C206.396 274.862 206.305 275.26 206.109 275.456C212.776 288.788 223.939 301.118 224.859 316.768C225.367 325.406 223.817 336.451 213.422 339.049C210.159 339.865 206.856 340.939 203.453 341.393C198.029 342.116 192.515 342.179 187.047 341.956C186.659 341.94 179.751 330.567 178.859 329.081C170.841 315.716 162.977 302.038 154.234 288.924C153.357 287.608 145.771 274.87 145.453 274.862C138.18 274.67 130.917 274.619 123.641 274.643ZM113.234 281.018C122.609 280.922 131.984 281.235 141.359 281.331C141.555 281.333 141.797 281.213 141.953 281.331C144.656 283.358 148.764 292.391 150.734 295.674C158.111 307.969 165.92 320.005 173.297 332.299C175.03 335.187 180.845 346.917 183.234 348.112C184.903 348.946 186.962 348.706 188.828 348.706C191.759 348.706 194.681 348.561 197.609 348.424C214.27 347.65 231.891 340.462 231.891 321.174C231.891 311.947 228.062 301.768 223.984 293.612C222.239 290.121 218.431 285.868 217.516 282.206C217.428 281.855 217.509 281.019 218.109 281.018C359.223 280.823 500.34 280.726 641.453 281.018C642.193 281.02 642.459 281.965 642.328 282.487C640.938 288.048 634.784 294.52 631.203 298.612C627.747 302.561 623.883 306.122 620.078 309.737C610.291 319.034 598.824 327.115 587.266 334.049C584.943 335.443 580.027 339.924 577.297 339.924C465.578 339.924 353.859 339.514 242.141 339.612C241.864 339.612 241.742 340.01 241.547 340.206C241.931 340.975 243.537 344.61 244.484 344.612C366.261 344.904 488.02 344.319 609.797 344.612C610.149 344.613 610.322 345.142 610.391 345.487C610.65 346.783 607.585 350.437 606.891 351.331C604.177 354.819 600.737 357.68 597.516 360.706C588.099 369.551 573.748 379.35 561.766 384.143C558.592 385.413 554.464 390.014 550.922 390.018C458.246 390.116 365.566 389.823 272.891 390.018C272.614 390.019 272.492 390.417 272.297 390.612C273.377 392.232 274.121 394.706 276.422 394.706C376.227 394.706 476.023 394.393 575.828 394.393C577.904 394.393 576.257 395.054 577.578 394.393C579.127 395.942 576.313 398.416 575.234 399.674C571.354 404.201 566.609 407.934 561.766 411.393C542.772 424.959 518.266 432.938 495.266 438.049C492.53 438.657 488.901 440.107 486.172 440.112C425.332 440.209 364.511 439.917 303.672 440.112C303.396 440.112 303.273 440.51 303.078 440.706C303.467 441.484 305.072 444.794 306.016 444.799C379.257 445.187 452.492 444.605 525.734 444.799C526.011 444.8 526.133 445.198 526.328 445.393C504.026 465.836 474.923 474.879 444.859 477.612C435.392 478.472 425.952 478.533 416.453 478.206C414.401 478.134 412.346 478.025 410.297 477.893C408.37 477.769 404.709 476.449 403.266 477.893C410.436 485.575 418.393 492.85 424.953 501.049C423.434 502.569 414.591 502.116 412.359 502.206C409.43 502.323 406.478 502.518 403.547 502.518C386.163 502.518 368.765 501.852 351.422 500.768C348.695 500.598 331.909 498.281 330.609 499.581C334.78 507.921 339.795 515.28 344.953 523.018C343.581 524.391 332.467 522.046 329.734 521.549C313.55 518.607 297.8 513.853 282.266 508.674C281.095 510.43 285.772 516.08 286.953 518.049C292.433 527.183 298.191 536.165 303.672 545.299C315.849 565.596 328.605 585.813 340.859 606.237C351.401 623.806 360.538 635.2 355.516 657.799C349.753 683.731 326.564 697.025 304.828 707.893C295.616 712.5 284.836 714.821 274.641 716.674C239.096 723.137 194.494 717.049 165.078 694.987C156.364 688.451 150.123 680.421 143.703 671.862C139.475 666.224 137.697 657.465 136.953 650.768C133.763 622.054 157.913 599.413 181.203 587.768C195.221 580.759 211.169 576.327 226.891 574.581C245.018 572.566 264.195 573.071 281.984 577.518C286.168 578.564 290.979 579.078 294.859 581.018C295.152 580.725 295.16 580.749 295.453 580.456C292.307 574.164 287.948 568.302 284.328 562.268C274.391 545.706 264.101 529.65 254.141 513.049C222.458 460.245 189.448 408.26 157.766 355.456C146.668 336.959 135.727 318.023 123.766 300.081C120.789 295.616 118.028 290.903 115.266 286.299C114.811 285.542 112.306 282.282 112.641 281.612C112.764 281.365 112.958 281.021 113.234 281.018Z" fill="#ffffff" fill-rule="nonzero" opacity="1" stroke="none"/>
</g>
</svg>
