<?xml version="1.0" encoding="UTF-8" standalone="no"?>
<!DOCTYPE svg PUBLIC "-//W3C//DTD SVG 1.1//EN" "http://www.w3.org/Graphics/SVG/1.1/DTD/svg11.dtd">
<!-- Created with Vectornator (http://vectornator.io/) -->
<svg height="100%" stroke-miterlimit="10" style="fill-rule:nonzero;clip-rule:evenodd;stroke-linecap:round;stroke-linejoin:round;" version="1.1" viewBox="0 0 750 1000" width="100%" xml:space="preserve" xmlns="http://www.w3.org/2000/svg" xmlns:vectornator="http://vectornator.io" xmlns:xlink="http://www.w3.org/1999/xlink">
<defs/>
<g id="Layer-1" vectornator:layerName="Layer 1">
<path d="M649.422 264.392C641.11 264.408 632.796 264.459 624.484 264.49C574.22 264.681 523.949 264.912 473.687 265.377C392.054 266.133 310.403 266.455 228.767 266.869C210.46 266.962 192.158 266.976 173.852 267.164C171.203 267.192 171.72 266.918 170.587 268.051C173.237 270.701 175.373 275.939 177.413 279.338C184.285 290.791 191.965 301.826 191.965 315.844C191.965 322.021 185.83 326.31 181.564 329.51C177.755 325.7 174.661 318.286 171.769 313.466C165.478 302.981 157.079 293.585 151.588 282.603C149.295 278.018 147.155 273.751 145.353 269.247C145.069 268.538 144.402 265.42 143.27 265.377C130.22 264.881 121.374 265.437 109.142 265.673C102.711 265.796 96.2652 265.854 89.8334 265.968C85.0833 266.052 80.3334 265.993 75.5911 266.278C75.3117 266.295 75.1979 266.671 75 266.869C79.4543 275.777 86.1849 283.831 91.3252 292.398C100.024 306.896 108.454 321.547 117.15 336.04C133.895 363.948 147.601 392.421 164.352 420.34C181.137 448.314 198.324 476.077 215.115 504.063C227.806 525.214 239.926 546.891 252.523 567.886C255.791 573.333 258.434 579.103 261.136 584.507C261.61 585.457 264.031 588.084 263.795 589.264C263.523 590.625 251.277 591.141 249.553 591.332C238.264 592.587 226.914 593.63 215.706 595.498C187.944 600.125 161.445 609.531 142.679 631.709C138.876 636.204 134.51 641.902 132.293 647.443C131.322 649.871 130.696 652.868 129.324 655.156C124.427 663.316 124.185 678.554 126.354 687.229C128.194 694.588 130.614 700.725 134.967 706.819C153.875 733.291 185.313 735.614 215.411 735.614C225.814 735.614 236.594 734.063 246.879 732.349C284.019 726.159 328.955 713.322 349.601 678.912C357.671 665.463 357.487 647.681 352.557 632.891C347.666 618.219 342.578 602.303 334.754 589.264C331.618 584.038 327.582 577.562 325.254 571.742C320.106 558.87 308.039 542.505 298.824 532.266C300.274 530.092 305.527 531.07 307.142 531.07C315.083 531.07 323.008 532.495 330.898 533.153C332.463 533.283 334.956 533.254 336.527 534.039C338.304 532.262 332.375 515.615 331.489 512.071C331.234 511.053 329.061 505.519 330.293 505.245C332.13 504.837 334.054 504.997 335.936 504.95C342.565 504.782 349.192 504.767 355.822 504.654C367.737 504.45 378.18 503.478 389.669 501.389C395.349 500.356 401.124 499.113 406.894 498.715C409.086 498.564 412.442 499.794 413.425 497.828C414.062 496.554 409.929 492.56 408.372 491.003C403.456 486.086 397.872 483.344 394.721 477.042C396.125 475.638 399.349 475.987 401.251 475.564C407.36 474.207 413.631 473.121 419.659 471.398C435.967 466.739 453 461.709 468.044 454.187C474.797 450.81 484.849 448.964 490.308 443.505C488.326 439.541 484.645 437.845 481.104 436.074C479.615 435.33 477.625 435.86 476.361 434.596C482.283 428.674 493.28 425.879 500.99 423.309C522.142 416.259 546.274 410.334 560.366 391.546C557.112 387.208 548.921 389.91 545.518 386.507C549.35 382.675 559.83 379.344 565.122 376.698C579.177 369.671 593.27 362.587 606.386 353.843C610.682 350.979 624.297 342.411 623.598 337.518C623.144 334.344 614.359 336.287 612.62 334.548C616.216 330.952 622.37 328.933 626.567 325.935C640.102 316.267 653.596 306.137 663.679 292.694C666.657 288.722 670.47 283.908 671.687 279.042C672.853 274.376 675.38 270.219 674.952 265.082C674.928 264.803 674.64 264.494 674.361 264.49C666.049 264.393 657.735 264.375 649.422 264.392ZM116.925 273.652C122.482 273.652 129.019 273.991 133.475 276.664C140.512 280.886 143.708 290.435 147.732 297.141C156.173 311.21 163.364 328.735 175.639 340.192C177.723 342.136 181.894 341.216 183.943 340.192C191.247 336.539 199.85 329.784 201.76 321.192C204.319 309.675 196.783 295.18 191.373 286.164C189.501 283.044 189.05 279.165 187.503 276.073C187.701 275.875 187.829 275.468 188.108 275.468C343.367 275.171 498.625 275.271 653.884 275.172C655.295 275.171 655.431 275.137 656.544 274.581C659.841 277.879 652.784 293.779 649.422 297.141C637.362 309.202 623.033 317.208 607.863 323.275C600.813 326.095 586.794 330.384 581.743 335.435C583.918 337.61 599.451 340.144 599.856 341.965C601.174 347.898 586.937 355.855 582.039 358.304C567.238 365.704 552.034 372.167 536.624 377.303C531.856 378.893 518.717 382.136 515.542 385.311C516.852 386.622 519.416 387.001 521.185 387.394C527.735 388.849 534.644 390.865 537.806 397.189C520.595 410.958 499.441 417.306 478.43 423.309C474.373 424.469 469.885 425.616 465.665 425.983C460.165 426.462 451.281 425.52 446.962 429.84C449.79 432.668 463.612 436.178 464.483 440.535C465.896 447.601 449.69 451.499 445.188 453.3C429.354 459.634 411.035 463.286 394.13 466.36C390.385 467.041 374.682 468.878 372.752 470.807C380.259 475.812 388.5 483.613 392.638 491.889C392.44 492.087 392.326 492.464 392.047 492.48C387.106 492.766 382.146 492.646 377.199 492.776C363.041 493.149 348.925 494.563 334.754 494.563C328.222 494.563 321.5 492.684 315.164 494.268C313.433 494.701 314.699 497.826 314.868 499.602C315.473 505.954 319.393 511.372 321.694 517.123C321.997 517.88 324.595 522.939 322.876 523.062C313.623 523.723 285.453 519.472 277.756 511.775C275.244 514.288 280.086 521.996 281.612 524.54C288.586 536.162 297.192 546.752 304.172 558.387C326.237 595.162 364.654 637.288 333.867 680.389C304.372 721.683 236.173 730.225 191.064 724.918C169.202 722.346 153.093 716.346 139.71 698.502C136.988 694.873 134.671 688.808 134.671 684.26C134.671 676.102 135.134 669.207 137.641 661.686C151.09 621.339 197.699 605.699 236.197 602.619C237.976 602.477 239.747 602.336 241.531 602.324C254.791 602.237 268.059 602.519 281.317 602.324C281.597 602.32 281.71 601.931 281.908 601.733C226.756 491.43 148.291 387.048 92.8029 276.073C94.5932 274.283 108.295 273.694 111.802 273.694C113.321 273.694 115.072 273.652 116.925 273.652ZM122.315 281.167C120.273 281.412 118.11 282.732 116.263 283.194C114.512 283.632 110.879 283.268 110.029 284.967C109.067 286.89 118.468 300.821 119.824 303.08C131.278 322.169 142.214 341.573 153.671 360.668C182.607 408.895 209.429 458.069 238.266 506.132C247.521 521.557 255.141 537.606 264.401 553.039C273.583 568.343 282.402 583.852 291.703 599.354C292.682 600.986 301.294 613.734 301.203 614.188C300.802 616.192 293.909 615.639 292.899 615.68C289.339 615.822 285.767 615.975 282.204 615.975C272.88 615.975 263.53 614.273 254.296 613.301C244.549 612.275 234.663 611.781 224.911 612.71C201.552 614.935 170.192 629.713 155.444 647.739C145.611 659.757 140.53 676.682 147.732 691.085C157.276 710.174 185.628 714.971 204.434 715.418C214.074 715.648 223.169 716.07 232.637 715.123C267.865 711.6 322.345 698.27 333.558 659.026C338.045 643.322 333.934 628 327.028 614.188C325.952 612.037 325.465 609.238 324.058 607.362C321.901 604.487 319.477 600.335 318.133 596.976C315.98 591.593 311.694 586.343 308.634 581.242C302.487 570.997 295.686 560.999 288.734 551.265C277.163 535.066 266.892 518.123 256.674 501.093C253.604 495.976 252.176 490.606 249.553 485.359C249.85 485.062 249.847 485.065 250.144 484.768C252.964 487.588 257.128 489.552 260.53 491.594C271.133 497.955 281.701 502.849 292.899 507.328C296.52 508.776 304.046 511.822 307.733 510.593C307.733 499.821 302.448 492.887 297.938 483.868C299.167 482.638 304.375 482.997 305.059 482.981C311.589 482.824 318.132 482.685 324.663 482.685C335.997 482.685 347.485 483.989 358.791 484.768C362.489 485.023 370.027 486.903 372.161 484.768C369.714 482.321 367.843 479.268 365.321 476.746C362.33 473.755 358.36 471.865 355.231 469.034C352.999 467.015 348.996 465.514 348.996 462.504C348.996 460.698 352.54 461.675 354.344 461.603C360.447 461.359 366.691 460.638 372.752 459.83C387.942 457.805 403.967 455.753 418.463 450.922C426.309 448.306 434.547 446.077 442.514 443.8C443.998 443.376 449.229 442.431 448.158 439.93C447.326 437.989 441.848 438.77 439.84 437.566C434.045 434.089 426.624 429.319 419.659 427.771C414.632 426.654 409.368 427.305 404.22 427.166C382.062 426.567 359.888 426.317 337.723 425.983C322.287 425.751 306.821 426.273 291.408 425.392C290.185 425.322 290.195 422.534 291.112 422.423C306.498 420.558 326.011 421.917 340.693 421.832C365.035 421.69 389.378 421.709 413.72 421.536C424.843 421.457 436.203 421.223 447.257 419.749C466.755 417.149 486.832 414.313 505.155 406.984C508.32 405.719 520.115 399.574 518.807 396.302C518.703 396.043 518.489 395.758 518.216 395.697C512.858 394.507 508.225 393.607 503.072 391.546C497.436 389.291 491.873 385.137 485.551 385.016C475.558 384.823 465.569 384.777 455.575 384.72C414.608 384.485 373.638 384.338 332.671 384.129C310.406 384.015 288.141 384.128 265.878 383.833C265.062 383.823 265.186 382.265 265.287 381.455C265.34 381.033 266.242 379.972 266.469 379.963C273.886 379.678 281.312 379.983 288.734 379.963C318.222 379.884 347.711 379.668 377.199 379.668C416.187 379.668 455.176 379.963 494.164 379.963C501.649 379.963 509.775 377.918 517.019 376.107C535.22 371.557 552.503 366.048 568.387 356.517C571.404 354.707 581.614 346.651 581.152 344.343C581.099 344.076 566.65 340.867 564.222 339.896C550.81 334.531 535.379 336.455 521.481 336.335C451.522 335.735 381.563 335.522 311.603 335.139C294.484 335.046 277.354 334.981 260.235 334.844C252.615 334.783 244.997 334.741 237.38 334.548C236.708 334.531 236.035 333.719 236.197 333.07C237.015 329.802 243.577 331.584 244.501 331.579C258.157 331.494 271.813 331.313 285.469 331.283C375.616 331.088 465.779 331.87 555.918 330.692C579.697 330.381 606.892 319.845 625.68 305.754C629.831 302.641 642.007 292.434 640.514 284.967C640.432 284.556 640.047 284.082 639.627 284.081C569.469 283.785 499.317 284.081 429.159 284.081C382.651 284.081 336.122 283.785 289.634 283.785C261.63 283.785 233.619 283.884 205.616 284.081C205.395 284.082 205.195 284.235 205.025 284.376C204.834 284.535 203.345 285.919 203.237 286.459C202.966 287.814 204.873 290.465 205.32 291.807C206.872 296.462 208.402 301.4 208.585 306.345C209.151 321.61 207.891 334.651 197.003 345.539C195.253 347.289 191.294 350.059 188.699 350.578C182.921 351.734 178.576 352.365 172.065 352.365C166.138 352.365 161.682 342.571 159.004 338.109C150.048 323.182 144.462 305.555 133.475 290.906C131.102 287.741 128.688 285.232 125.763 282.307C124.724 281.268 123.54 281.021 122.315 281.167Z" fill="#ffffff" fill-rule="nonzero" opacity="1" stroke="none"/>
</g>
</svg>
