<?xml version="1.0" encoding="UTF-8" standalone="no"?>
<!DOCTYPE svg PUBLIC "-//W3C//DTD SVG 1.1//EN" "http://www.w3.org/Graphics/SVG/1.1/DTD/svg11.dtd">
<!-- Created with Vectornator (http://vectornator.io/) -->
<svg height="100%" stroke-miterlimit="10" style="fill-rule:nonzero;clip-rule:evenodd;stroke-linecap:round;stroke-linejoin:round;" version="1.1" viewBox="0 0 1080 1080" width="100%" xml:space="preserve" xmlns="http://www.w3.org/2000/svg" xmlns:vectornator="http://vectornator.io" xmlns:xlink="http://www.w3.org/1999/xlink">
<defs/>
<g id="Layer-1" vectornator:layerName="Layer 1"/>
<g id="Layer-2" vectornator:layerName="Layer 2"/>
<g id="Layer-3" vectornator:layerName="Layer 3"/>
<g id="Layer-4" vectornator:layerName="Layer 4">
<path d="M182.006 179.766C179.074 181.231 176.468 183.105 174.187 185.385C171.907 187.665 169.952 190.923 168.323 195.158C166.695 199.393 165.717 203.384 165.391 207.13C165.066 210.877 193.001 279.696 249.196 413.588C305.392 547.48 335.77 620.208 340.331 631.773C342.611 637.556 344.891 643.338 347.172 649.12C339.027 648.958 330.883 648.795 322.739 648.632C306.45 648.306 292.035 648.469 279.493 649.12C266.951 649.772 253.268 651.564 238.446 654.496C223.623 657.428 211.488 660.767 202.041 664.513C192.593 668.26 181.761 674.368 169.545 682.838C157.329 691.308 148.696 697.986 143.646 702.873C138.597 707.759 134.606 711.994 131.674 715.578C128.742 719.161 125.729 724.211 122.634 730.726C119.539 737.242 117.503 741.965 116.526 744.897C115.548 747.829 114.327 754.1 112.861 763.71C111.395 773.321 110.743 779.836 110.906 783.257C111.069 786.677 111.965 791.564 113.594 797.916C115.223 804.269 118.806 812.413 124.344 822.349C129.882 832.285 135.095 840.185 139.981 846.049C144.868 851.913 148.533 856.067 150.976 858.51C153.419 860.953 156.84 863.885 161.238 867.306C165.636 870.726 169.138 873.333 171.744 875.124C174.35 876.916 179.97 879.929 188.603 884.164C197.236 888.399 206.194 892.146 215.479 895.404C224.763 898.661 234.455 901.43 244.554 903.711C254.653 905.991 263.204 907.539 270.208 908.353C277.212 909.167 285.194 909.575 294.153 909.575C303.111 909.575 311.011 909.819 317.852 910.308C324.694 910.796 334.141 910.389 346.194 909.086C358.248 907.783 367.125 906.48 372.826 905.177C378.527 903.874 388.545 900.616 402.879 895.404C417.213 890.191 427.474 885.793 433.664 882.21C439.854 878.626 447.265 873.577 455.898 867.061C464.531 860.546 470.639 855.334 474.223 851.424C477.806 847.515 482.041 841.977 486.928 834.81C491.814 827.643 495.398 821.209 497.678 815.508C499.959 809.807 501.587 804.513 502.565 799.627C503.542 794.74 504.031 790.098 504.031 785.7C504.031 781.302 503.135 774.542 501.343 765.421C499.551 756.299 489.127 728.364 470.069 681.616C460.54 658.242 451.011 634.868 441.483 611.494C443.844 612.308 446.206 613.123 448.568 613.937C453.292 615.566 458.748 617.032 464.938 618.335C471.128 619.638 476.829 620.371 482.041 620.534C487.253 620.697 491 620.534 493.28 620.045C495.561 619.557 497.597 618.824 499.388 617.846C501.18 616.869 502.728 615.729 504.031 614.426C505.334 613.123 506.637 611.331 507.94 609.051C509.243 606.77 510.383 603.757 511.36 600.01C512.338 596.264 512.908 592.762 513.071 589.504C513.152 587.875 513.234 586.247 513.315 584.618C517.713 585.025 522.111 585.432 526.509 585.839C535.305 586.654 543.286 587.061 550.453 587.061C557.62 587.061 565.276 586.491 573.42 585.351C581.564 584.211 587.51 582.826 591.256 581.197C595.002 579.568 597.853 577.858 599.807 576.066C601.762 574.275 603.228 572.646 604.205 571.18C605.183 569.714 606.241 567.026 607.382 563.117C608.522 559.208 609.01 554.647 608.848 549.434C608.685 544.222 613.408 541.29 623.019 540.639C632.629 539.987 642.891 538.765 653.804 536.974C664.717 535.182 673.839 533.227 681.169 531.11C688.499 528.992 694.851 526.549 700.226 523.78C705.602 521.011 709.755 518.242 712.687 515.473C715.619 512.704 718.062 509.772 720.017 506.677C721.972 503.582 723.6 499.754 724.904 495.194C726.207 490.633 726.858 486.235 726.858 482C726.858 479.882 726.858 477.765 726.858 475.647C728.813 475.647 730.767 475.647 732.722 475.647C736.631 475.647 740.133 475.321 743.228 474.67C746.323 474.018 752.024 472.064 760.331 468.806C768.638 465.548 778.819 460.662 790.872 454.146C802.926 447.631 810.744 443.152 814.328 440.708C817.911 438.265 821.413 435.496 824.834 432.401C828.254 429.306 830.861 426.537 832.652 424.094C834.444 421.651 836.073 418.8 837.539 415.542C839.005 412.285 839.982 409.516 840.471 407.235C840.96 404.955 841.041 401.453 840.715 396.729C840.389 392.005 845.52 385.246 856.108 376.45C866.696 367.654 874.921 360.324 880.785 354.46C886.649 348.596 891.536 343.058 895.445 337.846C899.354 332.634 901.96 328.399 903.263 325.141C904.566 321.883 905.299 318.707 905.462 315.612C905.625 312.517 905.218 309.667 904.241 307.061C903.263 304.454 902.205 302.5 901.064 301.197C900.494 300.545 899.924 299.894 899.354 299.242C903.996 295.17 908.639 291.098 913.281 287.026C922.565 278.881 932.013 270.167 941.623 260.883C951.233 251.598 957.993 244.513 961.902 239.626C965.811 234.739 968.336 231.156 969.476 228.876C970.617 226.595 971.512 224.233 972.164 221.79C972.815 219.347 973.141 216.333 973.141 212.75C973.141 209.166 972.164 204.85 970.209 199.8C968.255 194.751 965.974 190.842 963.368 188.073C960.762 185.304 957.341 182.942 953.106 180.987C948.871 179.033 842.67 178.381 634.502 179.033C426.334 179.684 320.947 180.824 318.341 182.453C315.735 184.082 313.292 185.955 311.011 188.073C308.731 190.19 306.776 192.552 305.147 195.158C303.518 197.764 302.46 199.963 301.971 201.755C301.482 203.547 301.482 206.479 301.971 210.551C302.46 214.623 304.251 220.161 307.346 227.165C310.441 234.169 312.477 239.3 313.454 242.558C314.432 245.816 315.083 248.34 315.409 250.132C315.735 251.924 315.816 254.611 315.653 258.195C315.491 261.778 315.002 264.466 314.187 266.258C313.373 268.05 312.151 269.841 310.523 271.633C308.894 273.425 306.613 275.216 303.681 277.008C300.749 278.8 295.54 281.053 295.54 281.053C295.54 281.053 288.777 266.176 276.561 237.183C264.344 208.189 257.748 192.878 256.77 191.249C255.793 189.62 254.408 187.91 252.617 186.118C250.825 184.326 248.137 182.535 244.554 180.743C240.97 178.951 230.383 177.974 212.791 177.811C195.199 177.648 184.938 178.3 182.006 179.766ZM232.826 190.516C237.061 190.679 239.667 191.005 240.645 191.493C241.622 191.982 242.762 192.959 244.065 194.425C245.368 195.891 253.187 212.913 267.521 245.49C274.688 261.778 281.855 278.067 289.022 294.356C290.65 293.623 292.279 292.89 293.908 292.157C297.166 290.691 301.319 288.247 306.369 284.827C311.418 281.406 314.839 278.881 316.631 277.253C318.422 275.624 320.133 273.669 321.762 271.389C323.39 269.108 324.612 266.339 325.427 263.082C326.241 259.824 326.567 256.24 326.404 252.331C326.241 248.422 325.101 243.78 322.983 238.404C320.866 233.029 318.585 228.468 316.142 224.722C313.699 220.976 312.151 217.881 311.5 215.437C310.848 212.994 310.523 210.877 310.523 209.085C310.523 207.293 310.93 205.42 311.744 203.465C312.559 201.511 313.862 199.638 315.653 197.846C317.445 196.054 319.563 194.425 322.006 192.959C324.449 191.493 429.592 190.76 637.434 190.76C845.276 190.76 949.93 191.086 951.396 191.738C952.862 192.389 954.491 193.448 956.283 194.914C958.074 196.38 959.54 198.253 960.681 200.533C961.821 202.814 962.472 204.768 962.635 206.397C962.798 208.026 962.309 210.958 961.169 215.193C960.029 219.428 957.341 224.396 953.106 230.097C948.871 235.798 942.193 243.209 933.071 252.331C923.95 261.453 913.444 271.063 901.553 281.162C895.608 286.211 889.662 291.261 883.717 296.31C884.776 297.369 885.835 298.428 886.893 299.486C889.011 301.604 890.558 304.047 891.536 306.816C892.513 309.585 892.839 312.599 892.513 315.856C892.187 319.114 891.454 322.046 890.314 324.652C889.174 327.258 887.545 329.946 885.427 332.715C883.31 335.484 879.645 339.393 874.433 344.443C869.22 349.492 863.112 354.868 856.108 360.569C849.104 366.27 842.263 371.482 835.584 376.206C828.906 380.929 826.137 384.513 827.277 386.956C828.417 389.399 828.987 392.413 828.987 395.996C828.987 399.58 828.173 403.407 826.544 407.48C824.915 411.552 823.042 415.054 820.925 417.986C818.807 420.918 815.957 424.175 812.373 427.759C808.79 431.342 805.695 434.111 803.089 436.066C800.482 438.021 795.27 441.034 787.452 445.106C779.633 449.178 769.941 453.006 758.377 456.59C746.812 460.173 737.609 462.616 730.767 463.919C723.926 465.223 718.632 466.037 714.886 466.363C711.14 466.689 709.185 467.014 709.022 467.34C708.859 467.666 709.348 468.48 710.488 469.783C711.628 471.086 712.769 473.041 713.909 475.647C715.049 478.253 715.782 481.267 716.108 484.687C716.434 488.108 715.945 491.936 714.642 496.171C713.339 500.406 711.71 503.664 709.755 505.944C707.801 508.224 704.136 510.668 698.76 513.274C693.385 515.88 687.114 518.16 679.947 520.115C672.78 522.07 662.518 524.187 649.162 526.468C635.805 528.748 622.693 530.54 609.825 531.843C603.391 532.494 596.957 533.146 590.523 533.797C591.5 535.833 592.478 537.87 593.455 539.906C595.409 543.978 596.55 546.828 596.875 548.457C597.201 550.086 597.283 552.041 597.12 554.321C596.957 556.601 596.142 558.963 594.676 561.407C593.211 563.85 591.745 565.56 590.279 566.537C588.813 567.515 586.939 568.411 584.659 569.225C582.379 570.039 579.039 570.854 574.642 571.668C570.244 572.483 564.054 573.134 556.073 573.623C548.091 574.112 536.689 574.112 521.867 573.623C514.455 573.379 507.044 573.134 499.633 572.89C500.121 575.333 500.61 577.777 501.099 580.22C502.076 585.106 502.402 589.179 502.076 592.436C501.75 595.694 500.936 598.463 499.633 600.743C498.33 603.024 496.375 604.816 493.769 606.119C491.163 607.422 488.068 608.155 484.484 608.318C480.901 608.48 476.422 608.155 471.046 607.34C465.671 606.526 459.644 605.223 452.966 603.431C446.288 601.639 439.284 599.44 431.954 596.834C428.289 595.531 424.624 594.228 420.959 592.925C432.28 620.29 443.6 647.654 454.921 675.019C477.562 729.749 489.289 759.231 490.104 763.466C490.918 767.701 491.407 772.506 491.57 777.882C491.733 783.257 491.57 787.736 491.081 791.32C490.593 794.903 489.371 800.441 487.416 807.934C485.462 815.427 483.751 820.558 482.285 823.327C480.819 826.096 478.865 829.109 476.422 832.367C473.978 835.624 469.662 840.511 463.472 847.026C457.282 853.542 448.65 859.894 437.573 866.084C426.497 872.274 417.701 876.916 411.186 880.011C404.67 883.106 396.363 886.038 386.264 888.807C376.165 891.576 367.125 893.693 359.144 895.159C351.162 896.625 336.584 897.521 315.409 897.847C294.234 898.173 279.411 897.847 270.941 896.869C262.471 895.892 254.083 894.589 245.775 892.96C237.468 891.331 226.718 887.992 213.524 882.943C200.33 877.893 190.72 873.495 184.693 869.749C178.667 866.003 173.291 862.338 168.568 858.754C163.844 855.171 160.016 851.913 157.084 848.981C154.152 846.049 149.836 840.918 144.135 833.588C138.434 826.259 134.769 820.883 133.14 817.463C131.511 814.042 129.149 807.282 126.055 797.183C122.96 787.085 121.494 779.836 121.657 775.438C121.82 771.04 123.041 764.525 125.322 755.892C127.602 747.259 129.557 741.151 131.185 737.567C132.814 733.984 135.176 729.912 138.271 725.351C141.366 720.79 145.031 715.985 149.266 710.936C153.501 705.886 157.491 701.651 161.238 698.23C164.984 694.81 173.047 689.923 185.426 683.571C197.806 677.218 205.461 673.472 208.393 672.332C211.325 671.191 220.284 668.911 235.269 665.49C250.255 662.07 262.145 659.789 270.941 658.649C279.737 657.509 290.488 657.02 303.193 657.183C315.898 657.346 326.811 657.998 335.933 659.138C345.054 660.278 352.221 661.418 357.434 662.559C360.04 663.129 362.646 663.699 365.252 664.269C333.652 588.283 302.052 512.297 270.453 436.31C207.253 284.338 176.06 206.56 176.875 202.977C177.689 199.393 178.748 196.95 180.051 195.647C181.354 194.344 182.82 193.285 184.449 192.471C186.078 191.656 193.489 191.086 206.683 190.76C219.877 190.435 228.591 190.353 232.826 190.516ZM209.126 200.778C196.258 200.941 189.498 201.837 188.847 203.465C188.195 205.094 187.87 206.967 187.87 209.085C187.87 211.202 220.854 290.121 286.823 445.839C319.807 523.699 352.791 601.558 385.776 679.417C382.681 678.521 379.586 677.625 376.491 676.73C370.302 674.938 364.275 673.472 358.411 672.332C352.547 671.191 344.321 670.214 333.734 669.4C323.146 668.585 307.998 668.83 288.289 670.133C268.579 671.436 254.49 672.902 246.02 674.531C237.55 676.159 229.487 678.033 221.831 680.15C214.176 682.268 205.868 685.77 196.91 690.656C187.951 695.543 181.028 699.615 176.142 702.873C171.255 706.13 164.251 712.483 155.13 721.93C146.008 731.378 140.877 737.242 139.737 739.522C138.597 741.802 137.375 745.956 136.072 751.983C134.769 758.009 133.954 762.407 133.629 765.176C133.303 767.946 133.222 771.692 133.384 776.416C133.547 781.139 134.525 787.166 136.316 794.496C138.108 801.826 139.981 807.527 141.936 811.599C143.891 815.671 146.578 819.336 149.999 822.594C153.419 825.851 156.84 829.679 160.261 834.077C163.681 838.475 166.613 841.896 169.056 844.339C171.5 846.782 177.689 851.262 187.625 857.777C197.561 864.292 205.787 868.853 212.302 871.459C218.818 874.066 226.718 876.59 236.002 879.034C245.287 881.477 252.291 883.024 257.015 883.676C261.738 884.327 272 885.142 287.8 886.119C303.6 887.096 315.735 887.422 324.205 887.096C332.675 886.771 343.67 885.468 357.189 883.187C370.709 880.907 380.726 878.708 387.242 876.59C393.757 874.473 402.553 870.971 413.629 866.084C424.705 861.198 431.791 857.614 434.886 855.334C437.981 853.053 443.682 848.004 451.989 840.185C460.296 832.367 465.915 826.014 468.847 821.128C471.779 816.241 474.385 811.273 476.666 806.224C478.946 801.174 480.331 794.985 480.819 787.655C481.308 780.325 480.819 773.076 479.353 765.909C477.887 758.742 464.042 724.129 437.818 662.07C424.705 631.04 411.593 600.01 398.481 568.981C403.856 571.261 409.231 573.542 414.606 575.822C425.357 580.383 434.641 584.048 442.46 586.817C450.278 589.586 457.201 591.785 463.228 593.414C469.255 595.042 473.327 596.02 475.444 596.346C477.562 596.671 479.842 596.753 482.285 596.59C484.729 596.427 486.683 595.613 488.149 594.147C489.615 592.681 490.43 590.4 490.593 587.305C490.755 584.211 490.185 580.546 488.882 576.311C487.579 572.076 485.787 567.759 483.507 563.361C482.367 561.162 481.227 558.963 480.086 556.764C485.299 557.497 490.511 558.23 495.723 558.963C506.148 560.429 516.736 561.651 527.486 562.628C538.237 563.605 547.928 564.094 556.561 564.094C565.194 564.094 570.895 563.85 573.664 563.361C576.433 562.873 578.714 562.14 580.505 561.162C582.297 560.185 583.356 558.067 583.682 554.81C584.007 551.552 583.193 547.724 581.238 543.326C579.284 538.928 576.678 534.693 573.42 530.621C571.791 528.585 570.162 526.549 568.533 524.513C577.003 524.106 585.473 523.699 593.944 523.291C610.884 522.477 625.462 521.092 637.678 519.138C649.895 517.183 660.564 514.821 669.685 512.052C678.807 509.283 685.485 507.003 689.72 505.211C693.955 503.419 697.213 501.546 699.493 499.591C701.774 497.637 703.403 495.682 704.38 493.728C705.357 491.773 705.683 489.818 705.357 487.864C705.032 485.909 704.461 484.362 703.647 483.221C702.833 482.081 701.122 480.371 698.516 478.091C695.91 475.81 692.652 473.448 688.743 471.005C684.834 468.562 642.809 467.34 562.669 467.34C522.6 467.34 482.53 467.34 442.46 467.34C442.46 465.141 442.46 462.942 442.46 460.743C442.46 458.544 442.46 456.345 442.46 454.146C490.267 454.228 538.074 454.309 585.881 454.391C681.495 454.554 734.514 452.68 744.938 448.771C755.363 444.862 764.24 441.034 771.57 437.288C778.9 433.541 785.497 429.795 791.361 426.049C797.225 422.302 801.948 419.044 805.532 416.275C809.115 413.506 811.64 411.307 813.106 409.679C814.572 408.05 815.875 406.095 817.015 403.815C818.156 401.534 818.726 399.498 818.726 397.706C818.726 395.915 818.4 394.449 817.748 393.309C817.097 392.168 815.305 390.702 812.373 388.911C809.441 387.119 740.948 386.223 606.893 386.223C539.865 386.223 472.838 386.223 405.811 386.223C405.811 384.35 405.811 382.477 405.811 380.603C405.811 378.73 405.811 376.857 405.811 374.984C474.141 374.902 542.472 374.821 610.802 374.74C747.463 374.577 817.83 373.437 821.902 371.319C825.974 369.201 830.616 366.27 835.829 362.523C841.041 358.777 848.371 352.424 857.818 343.466C867.266 334.507 873.455 327.91 876.387 323.675C879.319 319.44 880.785 316.427 880.785 314.635C880.785 312.843 880.459 311.377 879.808 310.237C879.156 309.097 877.365 307.631 874.433 305.839C871.501 304.047 788.429 302.988 625.218 302.663C543.612 302.5 462.006 302.337 380.4 302.174C380.4 300.138 380.4 298.102 380.4 296.066C380.4 294.03 380.4 291.994 380.4 289.958C462.25 289.713 544.101 289.469 625.951 289.225C789.651 288.736 876.061 285.641 885.183 279.94C894.305 274.239 903.263 267.724 912.059 260.394C920.855 253.064 928.429 245.979 934.782 239.137C941.134 232.296 944.881 227.898 946.021 225.944C947.161 223.989 948.138 221.627 948.953 218.858C949.767 216.089 950.093 213.32 949.93 210.551C949.767 207.782 949.279 205.827 948.464 204.687C947.65 203.547 946.835 202.814 946.021 202.488C945.206 202.162 841.855 201.918 635.968 201.755C430.081 201.592 326.567 201.999 325.427 202.977C324.286 203.954 323.798 205.99 323.961 209.085C324.123 212.18 324.612 214.704 325.427 216.659C326.241 218.614 328.277 222.116 331.535 227.165C334.792 232.215 336.91 236.613 337.887 240.359C338.865 244.105 339.272 248.666 339.109 254.041C338.946 259.417 338.376 263.814 337.399 267.235C336.421 270.656 335.2 273.588 333.734 276.031C332.268 278.474 328.684 282.221 322.983 287.27C317.282 292.319 311.988 296.229 307.102 298.998C302.215 301.767 285.224 309.255 285.224 309.255C285.224 309.255 276.642 291.505 261.657 258.439C246.671 225.373 238.283 207.782 236.491 205.664C234.699 203.547 232.908 202.162 231.116 201.511C229.324 200.859 221.994 200.615 209.126 200.778ZM462.495 223.5C465.753 223.5 468.44 223.826 470.558 224.478C472.675 225.129 474.711 226.188 476.666 227.654C478.62 229.12 480.086 230.749 481.064 232.54C482.041 234.332 482.611 236.124 482.774 237.916C482.856 238.812 482.937 239.707 483.018 240.603C481.227 240.603 479.435 240.603 477.643 240.603C474.06 240.603 472.105 239.87 471.779 238.404C471.454 236.938 470.313 235.635 468.359 234.495C466.404 233.355 464.287 232.785 462.006 232.785C459.726 232.785 458.015 233.029 456.875 233.518C455.735 234.006 454.839 234.658 454.188 235.472C453.536 236.287 453.21 237.427 453.21 238.893C453.21 240.359 453.618 241.499 454.432 242.314C455.246 243.128 458.993 244.35 465.671 245.979C472.349 247.607 476.422 248.829 477.887 249.643C479.353 250.458 480.657 251.517 481.797 252.82C482.937 254.123 483.751 256.159 484.24 258.928C484.729 261.697 484.729 264.059 484.24 266.013C483.751 267.968 482.774 269.841 481.308 271.633C479.842 273.425 477.969 274.891 475.689 276.031C473.408 277.171 470.313 277.904 466.404 278.23C462.495 278.556 459.319 278.474 456.875 277.986C454.432 277.497 452.314 276.764 450.523 275.787C448.731 274.809 447.265 273.751 446.125 272.61C444.985 271.47 444.089 270.248 443.437 268.945C442.786 267.642 442.378 266.013 442.216 264.059C442.134 263.082 442.053 262.104 441.971 261.127C443.763 261.127 445.555 261.127 447.346 261.127C450.93 261.127 452.966 262.023 453.455 263.814C453.943 265.606 455.165 266.991 457.12 267.968C459.074 268.945 461.599 269.353 464.694 269.19C467.789 269.027 470.069 268.375 471.535 267.235C473.001 266.095 473.815 264.873 473.978 263.57C474.141 262.267 473.897 261.127 473.245 260.15C472.594 259.172 468.847 257.788 462.006 255.996C455.165 254.204 451.093 252.983 449.79 252.331C448.487 251.68 447.184 250.621 445.88 249.155C444.577 247.689 443.682 245.653 443.193 243.047C442.704 240.44 442.786 237.916 443.437 235.472C444.089 233.029 445.392 230.83 447.346 228.876C449.301 226.921 451.5 225.536 453.943 224.722C456.387 223.908 459.237 223.5 462.495 223.5ZM636.212 223.5C639.959 223.5 643.216 223.989 645.985 224.966C648.755 225.944 651.198 227.41 653.315 229.364C655.433 231.319 657.143 233.681 658.446 236.45C659.749 239.219 660.564 243.209 660.89 248.422C661.215 253.634 660.89 257.951 659.912 261.371C658.935 264.792 657.469 267.724 655.514 270.167C653.56 272.61 651.361 274.483 648.917 275.787C646.474 277.09 643.135 277.904 638.9 278.23C634.665 278.556 631.244 278.393 628.638 277.741C626.032 277.09 623.344 275.624 620.575 273.343C617.806 271.063 615.77 268.62 614.467 266.013C613.164 263.407 612.268 259.905 611.779 255.507C611.291 251.109 611.454 246.956 612.268 243.047C613.083 239.137 614.549 235.717 616.666 232.785C618.784 229.853 620.575 227.898 622.041 226.921C623.507 225.944 625.299 225.129 627.417 224.478C629.534 223.826 632.466 223.5 636.212 223.5ZM760.087 223.5C763.345 223.5 766.032 223.826 768.15 224.478C770.267 225.129 772.303 226.188 774.258 227.654C776.213 229.12 777.679 230.83 778.656 232.785C779.633 234.739 780.203 236.531 780.366 238.16C780.448 238.974 780.529 239.789 780.61 240.603C778.819 240.603 777.027 240.603 775.235 240.603C771.652 240.603 769.697 239.87 769.371 238.404C769.046 236.938 767.905 235.635 765.951 234.495C763.996 233.355 761.879 232.785 759.598 232.785C757.318 232.785 755.608 233.029 754.467 233.518C753.327 234.006 752.431 234.658 751.78 235.472C751.128 236.287 750.802 237.427 750.802 238.893C750.802 240.359 751.21 241.499 752.024 242.314C752.838 243.128 756.748 244.431 763.752 246.223C770.756 248.015 775.235 249.643 777.19 251.109C779.144 252.575 780.366 253.797 780.855 254.774C781.343 255.752 781.751 257.299 782.076 259.417C782.402 261.534 782.158 263.896 781.343 266.502C780.529 269.108 779.552 271.063 778.411 272.366C777.271 273.669 775.561 274.891 773.281 276.031C771 277.171 767.905 277.904 763.996 278.23C760.087 278.556 756.911 278.474 754.467 277.986C752.024 277.497 749.907 276.764 748.115 275.787C746.323 274.809 744.857 273.751 743.717 272.61C742.577 271.47 741.681 270.248 741.029 268.945C740.378 267.642 739.97 266.013 739.808 264.059C739.726 263.082 739.645 262.104 739.563 261.127C741.355 261.127 743.147 261.127 744.938 261.127C748.522 261.127 750.558 262.023 751.047 263.814C751.535 265.606 752.757 266.991 754.712 267.968C756.666 268.945 759.191 269.353 762.286 269.19C765.381 269.027 767.661 268.375 769.127 267.235C770.593 266.095 771.326 264.71 771.326 263.082C771.326 261.453 770.919 260.231 770.104 259.417C769.29 258.602 765.625 257.381 759.11 255.752C752.594 254.123 748.685 252.983 747.382 252.331C746.079 251.68 744.776 250.621 743.473 249.155C742.169 247.689 741.274 245.49 740.785 242.558C740.296 239.626 740.378 237.101 741.029 234.984C741.681 232.866 742.984 230.83 744.938 228.876C746.893 226.921 749.092 225.536 751.535 224.722C753.979 223.908 756.829 223.5 760.087 223.5ZM488.394 224.966C495.479 224.966 502.565 224.966 509.65 224.966C516.736 224.966 523.821 224.966 530.907 224.966C530.907 226.514 530.907 228.061 530.907 229.609C530.907 231.156 530.907 232.703 530.907 234.251C528.301 234.251 525.694 234.251 523.088 234.251C520.482 234.251 517.876 234.251 515.27 234.251C515.27 241.418 515.27 248.585 515.27 255.752C515.27 262.919 515.27 270.086 515.27 277.253C513.397 277.253 511.523 277.253 509.65 277.253C507.777 277.253 505.904 277.253 504.031 277.253C504.031 270.086 504.031 262.919 504.031 255.752C504.031 248.585 504.031 241.418 504.031 234.251C501.424 234.251 498.818 234.251 496.212 234.251C493.606 234.251 491 234.251 488.394 234.251C488.394 232.703 488.394 231.156 488.394 229.609C488.394 228.061 488.394 226.514 488.394 224.966ZM569.022 224.966C570.895 224.966 572.768 224.966 574.642 224.966C576.515 224.966 578.388 224.966 580.261 224.966C580.261 232.052 580.261 239.137 580.261 246.223C580.261 253.308 580.261 260.394 580.261 267.479C584.496 267.479 588.731 267.479 592.966 267.479C597.201 267.479 601.436 267.479 605.671 267.479C605.671 269.108 605.671 270.737 605.671 272.366C605.671 273.995 605.671 275.624 605.671 277.253C599.563 277.253 593.455 277.253 587.347 277.253C581.238 277.253 575.13 277.253 569.022 277.253C569.022 268.538 569.022 259.824 569.022 251.109C569.022 242.395 569.022 233.681 569.022 224.966ZM669.685 224.966C671.559 224.966 673.432 224.966 675.305 224.966C677.178 224.966 679.051 224.966 680.924 224.966C681.006 231.482 681.087 237.997 681.169 244.513C681.332 257.543 682.065 264.792 683.368 266.258C684.671 267.724 686.788 268.538 689.72 268.701C692.652 268.864 694.77 268.62 696.073 267.968C697.376 267.317 698.353 266.339 699.005 265.036C699.656 263.733 700.064 256.729 700.226 244.024C700.308 237.671 700.389 231.319 700.471 224.966C702.344 224.966 704.217 224.966 706.09 224.966C707.963 224.966 709.837 224.966 711.71 224.966C711.628 231.563 711.547 238.16 711.465 244.757C711.303 257.951 710.814 265.606 710 267.724C709.185 269.841 707.963 271.714 706.335 273.343C704.706 274.972 702.751 276.194 700.471 277.008C698.19 277.823 695.421 278.311 692.164 278.474C688.906 278.637 685.485 278.148 681.902 277.008C678.318 275.868 675.875 274.646 674.572 273.343C673.269 272.04 672.129 270.004 671.151 267.235C670.174 264.466 669.685 256.729 669.685 244.024C669.685 237.671 669.685 231.319 669.685 224.966ZM720.994 224.966C722.867 225.048 724.741 225.129 726.614 225.211C727.745 225.26 731.997 225.013 731.997 225.013C731.997 225.013 732.103 239.3 731.989 251.354C731.908 259.987 731.826 268.62 731.745 277.253C729.953 277.253 728.161 277.253 726.37 277.253C724.578 277.253 722.786 277.253 720.994 277.253C720.994 268.538 720.994 259.824 720.994 251.109C720.994 242.395 720.994 233.681 720.994 224.966ZM631.081 233.762C629.453 234.414 627.987 235.472 626.684 236.938C625.38 238.404 624.322 240.44 623.507 243.047C622.693 245.653 622.286 248.259 622.286 250.865C622.286 253.471 622.448 255.589 622.774 257.218C623.1 258.846 623.752 260.557 624.729 262.349C625.706 264.14 627.009 265.606 628.638 266.746C630.267 267.887 632.059 268.62 634.013 268.945C635.968 269.271 638.086 269.108 640.366 268.457C642.646 267.805 644.357 266.909 645.497 265.769C646.637 264.629 647.696 262.756 648.673 260.15C649.65 257.543 650.139 254.53 650.139 251.109C650.139 247.689 649.895 245.083 649.406 243.291C648.917 241.499 648.022 239.707 646.718 237.916C645.415 236.124 643.787 234.821 641.832 234.006C639.877 233.192 638.004 232.785 636.212 232.785C634.421 232.785 632.71 233.111 631.081 233.762ZM536.038 266.746C537.504 266.909 538.644 267.561 539.458 268.701C540.273 269.841 540.598 271.063 540.436 272.366C540.273 273.669 539.703 274.728 538.725 275.542C537.748 276.357 536.526 276.682 535.06 276.52C533.594 276.357 532.454 275.787 531.64 274.809C530.825 273.832 530.5 272.61 530.662 271.144C530.825 269.678 531.395 268.538 532.373 267.724C533.35 266.909 534.572 266.584 536.038 266.746Z" fill="#ffffff" fill-rule="nonzero" opacity="1" stroke="none" vectornator:layerName="Curve 1"/>
</g>
</svg>
