<?xml version="1.0" encoding="UTF-8" standalone="no"?>
<!DOCTYPE svg PUBLIC "-//W3C//DTD SVG 1.1//EN" "http://www.w3.org/Graphics/SVG/1.1/DTD/svg11.dtd">
<!-- Created with Vectornator (http://vectornator.io/) -->
<svg height="100%" stroke-miterlimit="10" style="fill-rule:nonzero;clip-rule:evenodd;stroke-linecap:round;stroke-linejoin:round;" version="1.1" viewBox="0 0 968.567 1019.95" width="100%" xml:space="preserve" xmlns="http://www.w3.org/2000/svg" xmlns:vectornator="http://vectornator.io" xmlns:xlink="http://www.w3.org/1999/xlink">
<defs/>
<g id="Layer-2" vectornator:layerName="Layer 2"/>
<g id="Layer-1" vectornator:layerName="Layer 1">
<path d="M306.457 145.624C306.457 145.624 306.34 145.966 306.274 146.611C306.207 147.255 306.175 148.208 306.365 149.41C306.556 150.613 306.969 152.072 307.742 153.747C308.516 155.423 309.665 157.307 311.345 159.369C313.025 161.431 315.317 165.401 318 170.384C320.682 175.367 323.734 181.362 326.903 187.548C330.072 193.734 333.377 200.098 336.518 205.768C339.658 211.439 342.641 216.421 345.238 219.857C347.834 223.294 350.659 226.786 353.613 230.275C356.568 233.765 359.657 237.253 362.769 240.67C365.881 244.088 369.016 247.453 372.085 250.675C375.155 253.897 378.163 256.975 380.989 259.877C383.697 262.658 388.387 267.144 393.885 272.383L393.839 274.701L393.793 277.546L393.724 280.369L396.042 282.273L398.36 284.155L400.677 286.059L402.972 287.941L403.706 296.087L404.441 304.256C404.835 308.682 405.26 313.454 405.634 317.818C406.008 322.182 406.342 326.14 406.552 328.924C406.762 331.709 407.007 335.869 407.263 340.65C407.519 345.431 407.784 350.824 408.02 356.025C408.257 361.226 408.466 366.252 408.617 370.298C408.768 374.343 408.869 377.406 408.869 378.719C408.869 380.033 407.986 381.399 406.667 382.689C405.347 383.979 403.585 385.205 401.825 386.269C400.065 387.332 398.303 388.228 396.983 388.862C395.663 389.495 394.78 389.848 394.78 389.848L394.321 393.336L393.839 396.801L393.357 400.266L392.898 403.731L413.069 403.204L433.239 402.676L453.409 402.148L473.58 401.62L473.901 393.956L474.222 386.292L474.544 378.627L474.842 370.94L471.652 370.94L468.44 370.94L465.227 370.94L462.037 370.94C462.038 370.94 461.884 371.417 461.579 372.248C461.273 373.079 460.799 374.259 460.156 375.69C459.512 377.122 458.692 378.798 457.678 380.601C456.663 382.403 455.47 384.348 454.052 386.292C452.634 388.235 450.287 389.454 447.558 390.193C444.829 390.931 441.721 391.189 438.792 391.202C435.863 391.215 433.101 390.976 431.082 390.743C429.063 390.51 427.778 390.284 427.778 390.284C427.778 390.284 427.748 389.66 427.709 388.517C427.67 387.375 427.624 385.708 427.571 383.607C427.519 381.505 427.473 378.979 427.434 376.103C427.394 373.227 427.365 370.002 427.365 366.534C427.365 363.067 427.208 356.873 426.975 349.439C426.741 342.005 426.428 333.321 426.126 324.863C425.838 316.814 425.573 309.142 425.368 302.765C428.345 305.696 431.518 308.73 434.249 311.508C440.454 317.818 445.827 323.577 449.417 328.006C453.006 332.436 457.922 338.389 463.483 345.033C469.044 351.677 475.243 358.997 481.359 366.213C487.475 373.429 493.52 380.535 498.776 386.682C498.964 386.902 499.048 386.991 499.234 387.209C500.1 389.685 501.027 392.061 502.057 394.231C504.922 400.269 508.409 405.08 512.429 408.367C515.747 411.08 519.446 412.679 523.444 413.162C524.447 414.079 525.268 414.868 526.335 415.824C532.788 421.61 540.262 428.048 547.377 434.044C554.492 440.04 561.23 445.604 566.194 449.671C571.158 453.738 574.363 456.303 574.363 456.303C574.363 456.303 569.816 455.302 562.155 454.123C554.494 452.944 543.713 451.578 531.245 450.91C518.778 450.242 504.613 450.273 490.193 451.805C475.774 453.337 461.099 456.388 447.581 461.81C434.063 467.232 423.001 474.238 414.859 482.21C406.716 490.181 401.493 499.121 399.622 508.415C397.751 517.71 399.234 527.34 404.532 536.732C409.831 546.123 418.933 555.272 432.298 563.534C445.663 571.796 459.441 577.782 472.891 582.052C486.342 586.322 499.475 588.87 511.58 590.267C523.685 591.664 534.746 591.909 544.073 591.552C553.4 591.195 560.985 590.227 566.102 589.234C571.219 588.242 578.563 586.026 586.754 582.809C594.945 579.592 603.978 575.374 612.455 570.372C620.932 565.37 628.852 559.602 634.828 553.254C640.804 546.905 644.834 539.994 645.521 532.739C646.209 525.484 646.012 518.813 644.695 512.431C643.378 506.049 640.957 499.95 637.214 493.821C633.472 487.692 628.404 481.524 621.817 475.027C615.23 468.531 607.116 461.699 597.264 454.215C587.412 446.73 578.685 439.819 570.967 433.493C563.248 427.167 556.549 421.426 550.75 416.352C546.913 412.994 544.026 410.385 540.952 407.609C544.086 404.813 546.809 401.058 549.075 396.205C551.736 390.506 553.801 383.384 555.225 374.841C556.649 366.298 557.423 356.337 557.566 344.941C557.709 333.546 557.012 323.609 555.477 315.133C553.943 306.657 551.591 299.635 548.456 294.091C545.32 288.547 541.39 284.46 536.73 281.86C532.07 279.26 526.661 278.153 520.552 278.51C514.444 278.867 509.675 280.761 505.935 284.04C502.195 287.319 499.486 291.978 497.559 297.808C495.633 303.639 494.487 310.655 493.819 318.667C493.151 326.679 492.957 335.691 492.993 345.515C493.007 349.276 493.233 352.84 493.475 356.392C490.446 352.629 487.79 349.32 486.063 347.305C484.23 345.166 480.674 340.962 476.173 335.717C471.672 330.471 466.24 324.184 460.684 317.864C455.128 311.544 449.435 305.188 444.437 299.828C439.44 294.467 435.124 290.102 432.298 287.735C431.251 286.857 429.156 284.757 427.709 283.42C428.863 282.24 430.226 281.169 431.633 280.277C433.248 279.252 434.857 278.426 436.062 277.867C437.267 277.309 438.081 277.018 438.081 277.018L437.92 274.976L437.76 272.911L437.599 270.869L437.438 268.826L426.562 268.872L415.685 268.918L412.793 268.941C409.708 265.842 406.677 262.843 403.638 259.739C398.234 254.221 393.178 249.01 389.479 245.168C385.78 241.326 383.421 238.858 383.421 238.858C383.421 238.858 384.146 238.885 385.464 239.018C386.781 239.152 388.695 239.386 391.063 239.844C393.43 240.302 396.265 240.982 399.415 241.955C402.566 242.929 406.03 244.199 409.696 245.879C413.361 247.559 419.67 249.607 427.502 251.731C435.335 253.855 444.693 256.059 454.488 258.064C464.282 260.069 474.515 261.882 484.067 263.204C493.618 264.526 502.481 265.354 509.584 265.43C516.686 265.506 524.685 265.287 533.219 264.604C541.753 263.921 550.841 262.785 560.159 261.047C569.476 259.31 579.001 256.976 588.452 253.888C597.903 250.8 607.26 246.943 616.195 242.208C625.13 237.473 632.602 233.644 639.05 230.092C645.499 226.54 650.933 223.267 655.801 219.674C660.67 216.081 664.984 212.163 669.18 207.305C673.375 202.448 677.463 196.661 681.892 189.315C676.241 192.578 671.557 195.259 667.39 197.599C663.223 199.939 659.57 201.945 655.962 203.841C652.354 205.736 648.786 207.509 644.81 209.44C640.834 211.37 636.449 213.444 631.179 215.888C625.91 218.332 620.432 220.868 614.566 223.345C608.7 225.823 602.435 228.24 595.543 230.436C588.65 232.632 581.151 234.62 572.802 236.219C564.454 237.818 555.27 239.042 545.037 239.73C534.803 240.417 524.346 240.144 514.265 239.271C504.184 238.397 494.478 236.923 485.696 235.186C476.913 233.449 469.065 231.446 462.726 229.541C456.387 227.637 451.546 225.822 448.797 224.447C446.048 223.072 442.007 221.267 437.071 219.1C432.136 216.933 426.299 214.392 419.999 211.528C413.698 208.664 406.925 205.493 400.081 202.028C393.236 198.562 386.341 194.824 379.773 190.853C373.205 186.881 365.321 182.068 357.216 177.084C349.111 172.101 340.782 166.942 333.259 162.284L319.858 153.954L306.457 145.624ZM330.597 273.117C330.597 273.117 330.474 273.342 330.207 273.691C329.941 274.04 329.534 274.502 329.037 274.999C328.54 275.496 327.939 276.024 327.247 276.468C326.555 276.911 325.781 277.265 324.93 277.454C324.078 277.644 322.493 277.909 320.363 278.234C318.233 278.56 315.544 278.955 312.515 279.405C309.486 279.854 306.106 280.357 302.556 280.919C299.007 281.481 295.302 282.092 291.611 282.755C287.919 283.418 283.68 284.688 279.403 286.197C275.125 287.706 270.8 289.45 266.943 291.131C263.085 292.811 259.691 294.428 257.259 295.605C254.827 296.783 253.358 297.533 253.358 297.533L253.794 305.587L254.207 313.619L254.643 321.673L255.079 329.704L258.154 329.383L261.229 329.062L264.304 328.718L267.379 328.396C267.379 328.397 267.437 328.142 267.608 327.547C267.78 326.953 268.055 326.019 268.457 324.587C268.859 323.156 269.394 321.247 270.086 318.736C270.779 316.224 271.638 313.092 272.679 309.259C273.721 305.425 274.794 303.041 275.823 301.594C276.853 300.148 277.84 299.656 278.691 299.644C279.543 299.632 280.248 300.092 280.757 300.562C281.265 301.032 281.583 301.503 281.583 301.503C281.583 301.503 281.622 302.688 281.743 304.761C281.865 306.835 282.069 309.805 282.317 313.366C282.566 316.928 282.876 321.087 283.258 325.551C283.639 330.015 284.091 334.768 284.612 339.549C285.132 344.329 285.771 349.32 286.425 354.281C287.078 359.241 287.728 364.177 288.26 368.875C288.793 373.572 289.205 378.033 289.362 382.023C289.519 386.014 289.422 389.533 288.949 392.373C288.475 395.212 287.609 397.855 286.562 400.197C285.515 402.54 284.303 404.598 283.143 406.301C281.984 408.005 280.879 409.348 280.068 410.271C279.258 411.194 278.737 411.694 278.737 411.694L278.691 415.664L278.646 419.634L278.6 423.626L278.554 427.596C278.554 427.596 279.261 427.156 280.527 426.449C281.793 425.742 283.605 424.772 285.782 423.695C287.959 422.618 290.507 421.431 293.24 420.322C295.973 419.213 298.888 418.166 301.822 417.362C304.756 416.557 307.655 415.961 310.335 415.526C313.015 415.091 315.48 414.832 317.587 414.654C319.693 414.476 321.445 414.388 322.658 414.356C323.871 414.323 324.539 414.333 324.539 414.333L324.746 411.51L324.93 408.665L325.113 405.819L325.297 402.974C325.297 402.974 324.624 402.648 323.553 401.941C322.482 401.234 321.029 400.161 319.491 398.706C317.953 397.251 316.327 395.398 314.925 393.153C313.523 390.908 312.329 388.267 311.666 385.19C311.004 382.114 310.293 374.824 309.601 365.639C308.909 356.455 308.242 345.369 307.65 334.661C307.059 323.953 306.543 313.624 306.182 305.977C305.821 298.331 305.608 293.357 305.608 293.357C305.608 293.357 305.737 293.118 306.021 292.852C306.305 292.585 306.758 292.303 307.421 292.232C308.084 292.161 308.947 292.312 310.083 292.898C311.219 293.483 312.624 294.498 314.328 296.202C316.032 297.906 317.453 299.607 318.642 301.204C319.831 302.802 320.777 304.309 321.51 305.587C322.244 306.865 322.78 307.917 323.117 308.662C323.454 309.408 323.599 309.832 323.599 309.832L326.444 308.983L329.289 308.134L332.112 307.285L334.957 306.436L335.187 299.001L335.439 291.567L335.669 284.132L335.898 276.697L334.59 275.802L333.259 274.907L331.928 274.012L330.597 273.117ZM575.74 284.338L575.625 287.666L575.533 290.993L575.441 294.343L575.327 297.671C575.327 297.671 575.951 297.971 576.91 298.497C577.869 299.022 579.171 299.775 580.535 300.677C581.9 301.578 583.312 302.625 584.528 303.751C585.745 304.878 586.767 306.084 587.282 307.285C587.797 308.487 588.142 310.238 588.406 312.311C588.67 314.383 588.851 316.775 588.98 319.264C589.109 321.752 589.192 324.317 589.301 326.767C589.411 329.218 589.531 331.557 589.737 333.514C589.943 335.47 590.079 339.276 590.173 344.069C590.268 348.862 590.323 354.623 590.426 360.476C590.529 366.329 590.676 372.275 590.908 377.411C591.139 382.548 591.459 386.884 591.94 389.527C592.421 392.17 593.513 395.415 595.244 398.775C596.976 402.135 599.346 405.615 602.358 408.688C605.37 411.76 609.026 414.434 613.35 416.214C617.673 417.995 622.67 418.886 628.334 418.371C633.998 417.856 638.988 416.239 643.272 413.851C647.557 411.463 651.142 408.297 653.966 404.649C656.789 401.002 658.857 396.872 660.138 392.579C661.42 388.286 661.904 383.825 661.561 379.499C661.218 375.174 660.891 369.039 660.597 362.151C660.303 355.264 660.055 347.624 659.84 340.329C659.626 333.034 659.44 326.074 659.335 320.526C659.23 314.977 659.186 310.838 659.221 309.19C659.255 307.542 659.866 306.122 660.735 304.899C661.604 303.676 662.737 302.654 663.879 301.847C665.02 301.04 666.148 300.433 667 300.034C667.851 299.635 668.422 299.437 668.422 299.437L668.537 297.143L668.629 294.848L668.744 292.553L668.835 290.259L659.266 289.318L649.675 288.4L640.106 287.459L630.537 286.541L630.399 289.18L630.261 291.819L630.124 294.481L629.986 297.12C629.986 297.12 630.391 297.407 630.996 297.946C631.601 298.484 632.392 299.277 633.199 300.264C634.006 301.251 634.82 302.429 635.425 303.774C636.029 305.12 636.434 306.613 636.434 308.226C636.434 309.84 636.759 315.12 637.237 322.293C637.716 329.465 638.338 338.549 638.981 347.741C639.625 356.932 640.276 366.23 640.771 373.9C641.267 381.571 641.609 387.606 641.643 390.216C641.677 392.825 641.061 395.125 640.014 397.123C638.967 399.12 637.497 400.806 635.883 402.171C634.27 403.536 632.5 404.581 630.835 405.292C629.17 406.002 627.608 406.382 626.406 406.416C625.205 406.45 623.599 406.153 621.863 405.544C620.127 404.935 618.264 404.015 616.539 402.813C614.814 401.612 613.234 400.127 612.065 398.385C610.895 396.643 610.137 394.65 610.068 392.418C610 390.187 609.697 384.453 609.311 377.021C608.925 369.589 608.449 360.441 608.003 351.412C607.557 342.384 607.15 333.466 606.902 326.446C606.653 319.426 606.558 314.315 606.764 312.907C606.97 311.5 607.683 309.898 608.623 308.295C609.562 306.692 610.731 305.093 611.881 303.66C613.031 302.226 614.165 300.956 615.002 300.057C615.839 299.158 616.379 298.634 616.379 298.634L616.424 295.628L616.447 292.645L616.493 289.662L616.516 286.679L606.328 286.082L596.139 285.509L585.928 284.935L575.74 284.338ZM521.286 289.501C523.823 289.466 525.922 290.192 527.643 291.429C529.364 292.666 530.711 294.416 531.773 296.363C532.835 298.31 533.623 300.464 534.183 302.558C534.743 304.653 535.07 306.685 535.284 308.364C535.498 310.043 535.867 315.443 536.271 322.706C536.675 329.968 537.121 339.095 537.487 348.177C537.853 357.258 538.144 366.304 538.244 373.441C538.345 380.579 538.247 385.804 537.854 387.232C537.461 388.661 536.99 390.07 536.409 391.386C535.827 392.702 535.139 393.916 534.32 394.943C533.502 395.969 532.556 396.816 531.452 397.375C531.037 397.585 530.581 397.707 530.121 397.834C528.797 396.631 527.068 395.021 525.991 394.071C523.394 391.78 520.054 388.258 516.399 384.112C515.323 382.891 514.124 381.407 513.003 380.096C512.799 377.833 512.597 374.342 512.383 368.026C512.127 360.436 511.877 350.764 511.672 341.132C511.466 331.5 511.32 321.891 511.236 314.376C511.151 306.861 511.129 301.457 511.236 300.218C511.343 298.978 511.41 297.68 511.58 296.454C511.75 295.228 512.04 294.079 512.635 293.058C513.231 292.038 514.119 291.158 515.504 290.534C516.888 289.91 518.75 289.537 521.286 289.501ZM686.55 294.779L686.55 298.313L686.55 301.847L686.55 305.381L686.55 308.915C686.55 308.915 687.095 309.196 687.927 309.718C688.76 310.239 689.892 311.014 691.025 311.966C692.158 312.919 693.291 314.069 694.192 315.363C695.093 316.656 695.752 318.086 695.89 319.631C696.027 321.176 696.237 323.587 696.486 326.492C696.735 329.397 697.015 332.806 697.29 336.359C697.564 339.912 697.832 343.61 698.047 347.098C698.261 350.587 698.437 353.863 698.506 356.575C698.574 359.287 698.744 363.375 698.942 368.072C699.139 372.768 699.355 378.07 699.561 383.194C699.767 388.317 699.949 393.267 700.043 397.26C700.138 401.253 700.158 404.285 700.02 405.59C699.883 406.895 699.341 408.159 698.62 409.33C697.9 410.502 696.989 411.587 696.096 412.497C695.204 413.407 694.339 414.158 693.687 414.677C693.035 415.196 692.608 415.48 692.608 415.48L692.769 418.578L692.93 421.653L693.113 424.751L693.274 427.849C693.274 427.849 693.881 427.83 694.926 427.826C695.971 427.821 697.452 427.82 699.263 427.871C701.074 427.923 703.207 428.025 705.505 428.193C707.802 428.36 710.273 428.607 712.779 428.95C715.285 429.293 717.836 429.952 720.236 430.763C722.637 431.574 724.897 432.515 726.845 433.425C728.793 434.334 730.424 435.218 731.572 435.857C732.72 436.496 733.385 436.913 733.385 436.913L733.615 433.264L733.867 429.615L734.096 425.99L734.349 422.341C734.349 422.341 733.679 421.941 732.628 421.171C731.576 420.401 730.14 419.277 728.612 417.844C727.084 416.41 725.452 414.67 724.023 412.681C722.594 410.692 721.359 408.44 720.604 406.003C719.848 403.566 718.952 398.204 718.034 391.409C717.115 384.614 716.173 376.383 715.349 368.186C714.525 359.99 713.824 351.834 713.352 345.194C712.88 338.553 712.641 333.439 712.779 331.311C712.916 329.182 713.754 327.17 714.913 325.367C716.071 323.565 717.544 321.956 719.02 320.617C720.496 319.279 721.969 318.212 723.059 317.474C724.149 316.736 724.872 316.326 724.872 316.326L724.964 313.596L725.078 310.842L725.17 308.088L725.285 305.358C725.285 305.358 724.35 305.22 722.852 304.991C721.355 304.761 719.295 304.442 717.047 304.073C714.798 303.704 712.347 303.275 710.094 302.857C707.841 302.438 705.776 302.018 704.265 301.64C702.755 301.263 700.886 300.657 698.942 299.942C696.998 299.228 694.973 298.411 693.136 297.648C691.3 296.884 689.667 296.154 688.478 295.628C687.289 295.103 686.55 294.779 686.55 294.779ZM234.427 298.29L230.319 300.08L226.189 301.893L222.081 303.683L217.951 305.472L215.358 308.364L212.765 311.255L210.149 314.146L207.556 317.038C207.556 317.038 205.866 316.967 203.127 317.015C200.388 317.062 196.6 317.231 192.411 317.657C188.222 318.083 183.634 318.77 179.285 319.906C174.937 321.042 170.824 322.617 167.605 324.794C164.387 326.971 161.329 329.6 158.679 332.573C156.029 335.546 153.793 338.857 152.231 342.371C150.669 345.885 149.774 349.608 149.821 353.409C149.869 357.21 150.857 361.094 153.034 364.928C155.211 368.762 158.134 371.998 161.456 374.749C164.777 377.5 168.489 379.762 172.264 381.679C176.038 383.596 179.858 385.167 183.393 386.498C186.928 387.829 190.175 388.923 192.778 389.917C195.381 390.911 198.804 392.271 202.416 393.91C206.028 395.549 209.829 397.47 213.201 399.624C216.573 401.777 219.509 404.153 221.393 406.691C223.277 409.229 224.104 411.93 223.252 414.723C222.4 417.515 221.254 420.124 219.787 422.479C218.319 424.834 216.545 426.922 214.463 428.721C212.38 430.519 209.978 432.025 207.281 433.149C204.583 434.273 201.575 435.021 198.262 435.352C194.949 435.683 191.842 435.144 189.038 434.159C186.234 433.174 183.754 431.737 181.672 430.258C179.589 428.779 177.909 427.255 176.761 426.105C175.613 424.954 174.994 424.177 174.994 424.177L171.621 426.311L168.271 428.445L164.898 430.579L161.547 432.713L161.823 441.984L162.121 451.254L162.396 460.525L162.672 469.818L165.999 468.35L169.303 466.881L172.631 465.413L175.935 463.944L177.886 460.433L179.813 456.945L181.764 453.434L183.691 449.923C183.691 449.923 184.484 450.021 185.871 450.107C187.258 450.193 189.251 450.28 191.677 450.245C194.102 450.209 196.96 450.058 200.075 449.694C203.19 449.33 206.556 448.757 210.011 447.858C213.466 446.959 217.031 445.649 220.498 443.98C223.965 442.312 227.336 440.266 230.365 437.899C233.394 435.533 236.094 432.838 238.236 429.845C240.378 426.851 241.952 423.573 242.757 420.024C243.561 416.474 243.948 413.135 243.812 409.973C243.676 406.811 243.025 403.831 241.724 400.932C240.422 398.033 238.473 395.224 235.781 392.464C233.089 389.704 229.647 386.994 225.34 384.249C221.033 381.504 216.699 379.234 212.49 377.296C208.28 375.359 204.194 373.749 200.419 372.294C196.645 370.839 193.188 369.531 190.185 368.232C187.183 366.934 184.643 365.638 182.75 364.171C180.857 362.704 179.085 360.816 177.656 358.709C176.227 356.603 175.137 354.284 174.581 351.917C174.025 349.551 174.017 347.143 174.742 344.895C175.467 342.647 176.917 340.543 179.331 338.791C181.745 337.04 183.976 335.38 186.124 333.904C188.271 332.428 190.349 331.144 192.503 330.209C194.656 329.275 196.886 328.684 199.318 328.557C201.75 328.43 204.368 328.758 207.349 329.704C210.331 330.651 212.777 332 214.738 333.491C216.7 334.982 218.181 336.634 219.305 338.149C220.429 339.663 221.175 341.055 221.645 342.073C222.116 343.09 222.311 343.725 222.311 343.725L225.294 342.784L228.277 341.82L231.26 340.88L234.243 339.939L234.289 329.521L234.335 319.103L234.381 308.708L234.427 298.29ZM766.888 321.604C762.917 321.857 759.224 322.571 755.942 323.807C752.659 325.043 749.779 326.807 747.406 329.154C745.032 331.5 743.164 334.429 741.921 338.011C740.678 341.594 740.046 345.824 740.154 350.77C740.263 355.715 741.211 360.163 742.862 364.24C744.514 368.316 746.868 372.037 749.792 375.53C752.716 379.022 756.216 382.296 760.141 385.488C764.067 388.681 768.427 391.789 773.083 394.966C777.74 398.142 782.109 401.315 786.025 404.42C789.942 407.524 793.418 410.55 796.306 413.438C799.193 416.326 801.482 419.08 803.052 421.607C804.622 424.134 805.474 426.447 805.438 428.468C805.402 430.49 804.899 432.238 804.108 433.723C803.316 435.207 802.218 436.415 800.964 437.372C799.709 438.328 798.303 439.022 796.879 439.46C795.456 439.897 794.025 440.083 792.726 440.01C791.426 439.938 789.774 439.312 787.953 438.312C786.132 437.313 784.147 435.935 782.17 434.32C780.194 432.704 778.223 430.87 776.456 428.95C774.69 427.03 773.127 425.035 771.936 423.121C770.745 421.208 769.357 419.411 767.897 417.798C766.438 416.185 764.894 414.748 763.423 413.53C761.952 412.311 760.54 411.321 759.315 410.592C758.09 409.864 757.054 409.406 756.332 409.262C755.61 409.117 754.888 409.017 754.198 408.963C753.508 408.909 752.853 408.894 752.293 408.894C751.734 408.894 751.269 408.922 750.939 408.94C750.61 408.958 750.412 408.963 750.412 408.963L750.572 415.893L750.71 422.823L750.848 429.753L750.985 436.683L753.854 438.129L756.699 439.574L759.545 441.02L762.39 442.466L764.019 441.479L765.648 440.515L767.278 439.529L768.907 438.565C768.907 438.565 769.726 439.747 771.179 441.525C772.632 443.303 774.7 445.673 777.191 448.019C779.681 450.365 782.591 452.693 785.704 454.398C788.817 456.104 792.135 457.181 795.457 457.037C798.777 456.893 802.159 455.982 805.347 454.559C808.534 453.135 811.527 451.199 814.135 449.006C816.743 446.813 818.956 444.367 820.538 441.915C822.119 439.463 823.091 437.003 823.199 434.801C823.308 432.6 823.507 430.036 823.544 427.252C823.58 424.468 823.446 421.481 822.832 418.394C822.219 415.308 821.139 412.141 819.298 409.032C817.457 405.923 814.844 402.866 811.198 400.014C807.552 397.162 803.742 394.411 799.954 391.753C796.166 389.095 792.412 386.538 788.848 384.066C785.283 381.593 781.91 379.203 778.935 376.906C775.959 374.61 773.384 372.404 771.362 370.275C769.341 368.145 767.389 366.11 765.694 364.102C764 362.094 762.565 360.097 761.564 358.021C760.562 355.945 759.993 353.791 760.049 351.458C760.106 349.125 760.772 346.619 762.252 343.84C763.732 341.06 765.94 339.973 768.471 339.962C771.002 339.95 773.856 341.012 776.617 342.555C779.379 344.098 782.065 346.132 784.235 348.016C786.406 349.9 788.067 351.641 788.825 352.651C788.825 352.651 789.233 353.016 789.903 353.615C790.574 354.214 791.501 355.059 792.519 356.025C793.538 356.99 794.664 358.068 795.709 359.168C796.754 360.268 797.714 361.379 798.463 362.381C799.212 363.383 799.732 364.287 800.092 365.066C800.451 365.844 800.652 366.502 800.757 367.039C800.862 367.576 800.887 367.978 800.872 368.255C800.857 368.533 800.803 368.691 800.803 368.691L804.452 369.976L808.1 371.284L811.749 372.569L815.397 373.877C815.397 373.877 815.292 373.169 815.145 372.019C814.998 370.868 814.807 369.272 814.617 367.521C814.428 365.77 814.241 363.86 814.112 362.06C813.984 360.259 813.916 358.563 813.952 357.264C813.988 355.964 814.132 354.338 814.342 352.606C814.552 350.873 814.814 349.034 815.076 347.374C815.338 345.713 815.596 344.234 815.787 343.151C815.979 342.068 816.109 341.384 816.109 341.384L813.653 340.054L811.198 338.723L808.743 337.392L806.287 336.038C806.287 336.038 805.681 336.394 804.704 336.841C803.727 337.288 802.384 337.835 800.895 338.287C799.406 338.738 797.773 339.076 796.237 339.09C794.7 339.103 793.271 338.786 792.152 337.919C791.033 337.053 789.887 335.537 788.549 333.766C787.212 331.995 785.686 329.984 783.799 328.098C781.913 326.212 779.656 324.468 776.892 323.256C774.129 322.045 770.858 321.352 766.888 321.604ZM356.757 383.767C350.137 383.767 347.023 385.819 345.605 388.472C344.186 391.125 344.467 394.385 344.572 396.801C344.677 399.218 345.88 402.409 348.06 404.879C350.24 407.348 353.384 409.098 357.377 408.573C361.369 408.048 364.987 406.665 367.588 404.695C370.188 402.725 371.778 400.156 371.672 397.214C371.567 394.272 371.151 390.915 369.102 388.288C367.054 385.661 363.376 383.767 356.757 383.767ZM204.825 594.374L203.035 597.403L201.246 600.432L199.456 603.461L197.666 606.49L201.131 608.005L204.596 609.519L208.061 611.034L211.503 612.548L197.482 640.337L183.462 668.126L169.441 695.915L155.398 723.703L152.414 721.914L149.408 720.124L146.425 718.357L143.419 716.567L141.836 719.871L140.23 723.176L138.646 726.48L137.04 729.784C137.04 729.784 140.052 731.859 144.773 735.085C149.494 738.311 155.938 742.684 162.809 747.27C169.681 751.856 176.988 756.659 183.439 760.74C189.889 764.821 195.469 768.185 198.928 769.896C202.387 771.606 207.535 773.115 213.522 774.049C219.509 774.983 226.338 775.335 233.188 774.76C240.037 774.186 246.9 772.666 252.945 769.85C258.99 767.033 264.216 762.928 267.792 757.137C271.367 751.346 273.919 746.118 275.571 741.35C277.223 736.581 277.98 732.271 277.98 728.316C277.981 724.361 277.225 720.766 275.846 717.416C274.467 714.066 272.459 710.962 269.972 708.008L264.51 701.468L259.026 694.951L257.282 692.84L255.515 690.752C255.515 690.752 257.676 690.656 261.022 690.155C264.368 689.654 268.914 688.733 273.712 687.08C278.51 685.428 283.559 683.054 287.916 679.599C292.273 676.145 295.923 671.624 297.944 665.716C299.965 659.809 300.196 654.105 298.908 648.713C297.619 643.321 294.822 638.247 290.83 633.545C286.839 628.843 281.636 624.509 275.548 620.672C269.459 616.834 262.474 613.488 254.895 610.69C247.317 607.891 240.404 605.47 234.289 603.416C228.174 601.361 222.866 599.661 218.502 598.321C214.138 596.982 210.731 595.993 208.405 595.338C206.079 594.683 204.825 594.374 204.825 594.374ZM805.324 614.43L801.698 614.637L798.072 614.843L794.447 615.027L790.821 615.233C790.821 615.233 790.9 615.555 790.959 616.082C791.018 616.61 791.067 617.351 791.005 618.17C790.943 618.99 790.771 619.888 790.408 620.763C790.045 621.639 789.486 622.477 788.641 623.173C787.797 623.868 786.275 624.399 784.35 624.802C782.426 625.206 780.087 625.496 777.604 625.72C775.12 625.943 772.506 626.093 769.985 626.248C767.465 626.403 765.046 626.554 763.01 626.753C760.973 626.951 757.852 627.394 754.313 628.313C750.774 629.232 746.817 630.629 743.092 632.765C739.366 634.901 735.866 637.773 733.27 641.622C730.675 645.472 728.991 650.294 728.842 656.354C728.693 662.414 729.894 667.76 732.123 672.532C734.352 677.303 737.609 681.503 741.508 685.29C745.408 689.078 749.956 692.44 754.817 695.548C759.679 698.655 764.846 701.513 769.962 704.244C775.079 706.976 779.744 709.832 783.891 712.666C788.039 715.5 791.669 718.309 794.699 720.904C797.729 723.499 800.164 725.888 801.928 727.903C803.691 729.917 804.792 731.56 805.14 732.653C805.488 733.745 805.908 735.61 805.989 737.908C806.07 740.205 805.795 742.928 804.727 745.71C803.659 748.491 801.79 751.333 798.692 753.879C795.594 756.424 791.278 758.668 785.268 760.258C779.258 761.847 774.81 761.58 771.523 760.258C768.235 758.935 766.109 756.574 764.731 754.016C763.352 751.458 762.718 748.699 762.436 746.581C762.153 744.464 762.206 742.979 762.206 742.979L758.053 743.621L753.877 744.264L749.7 744.929L745.524 745.572L746.671 758.766L747.819 771.984L748.943 785.201L750.09 798.419L753.831 797.179L757.548 795.94L761.266 794.678L765.006 793.439C765.006 793.439 765.05 793.001 765.189 792.269C765.329 791.536 765.564 790.524 765.924 789.332C766.284 788.14 766.754 786.786 767.415 785.408C768.077 784.029 768.919 782.615 769.962 781.323C771.005 780.032 772.581 779.01 774.552 778.156C776.523 777.303 778.881 776.61 781.551 775.977C784.22 775.343 787.201 774.771 790.339 774.141C793.478 773.511 796.783 772.828 800.161 771.984C803.538 771.139 807.372 769.603 811.175 767.371C814.978 765.139 818.742 762.219 821.983 758.606C825.224 754.992 827.956 750.698 829.647 745.71C831.339 740.721 832.006 735.041 831.162 728.683C830.318 722.325 828.417 717.189 825.586 712.781C822.755 708.372 818.98 704.692 814.411 701.215C809.841 697.738 804.476 694.476 798.417 690.912C792.357 687.348 785.617 683.488 778.315 678.819C771.014 674.15 765.25 669.839 761.059 665.946C756.868 662.053 754.252 658.579 753.234 655.574C752.216 652.569 752.785 650.03 755.001 648.024C757.217 646.019 761.076 644.536 766.589 643.642C772.103 642.747 776.646 643.458 780.38 645.041C784.115 646.625 787.038 649.092 789.261 651.65C791.484 654.208 793.01 656.871 793.988 658.901C794.966 660.932 795.388 662.32 795.388 662.32L798.715 661.265L802.042 660.232L805.37 659.2L808.697 658.144L807.871 647.221L807.022 636.299L806.173 625.353L805.324 614.43ZM230.939 620.327C230.939 620.327 234.049 621.658 238.534 623.976C243.02 626.294 248.88 629.592 254.459 633.499C260.039 637.406 265.337 641.927 268.618 646.693C271.898 651.46 273.162 656.482 270.752 661.38C268.342 666.277 264.963 669.584 261.114 671.774C257.265 673.965 252.96 675.039 248.723 675.446C244.485 675.853 240.321 675.6 236.744 675.148C233.168 674.695 230.166 674.045 228.3 673.656C226.434 673.267 224.291 672.593 222.104 671.82C219.917 671.048 217.685 670.177 215.702 669.342C213.719 668.507 211.977 667.717 210.723 667.139C209.468 666.561 208.703 666.198 208.703 666.198L214.279 654.725L219.833 643.251L225.386 631.801L230.939 620.327ZM350.447 634.555L349.391 637.584L348.358 640.613L347.326 643.664L346.27 646.693L349.299 647.979L352.351 649.286L355.38 650.572L358.409 651.879L347.027 687.631L335.623 723.382L324.241 759.133L312.859 794.885L309.785 794.219L306.733 793.577L303.658 792.934L300.583 792.269L299.413 796.17L298.242 800.071L297.072 803.972L295.902 807.85L320.616 816.639L345.329 825.427L370.043 834.216L394.757 843.005L398.773 829.236L402.811 815.468L406.827 801.723L410.866 787.955L407.125 786.693L403.408 785.431L399.691 784.192L395.973 782.929C395.973 782.929 395.645 784.45 394.918 786.83C394.19 789.211 393.062 792.452 391.407 795.872C389.751 799.291 387.582 802.898 384.798 806.014C382.015 809.13 378.607 811.748 374.495 813.219C370.383 814.691 366.709 815.352 363.503 815.514C360.298 815.676 357.575 815.345 355.357 814.826C353.139 814.306 351.436 813.609 350.286 813.036C349.136 812.462 348.542 812.003 348.542 812.003L355.77 772.58L362.999 733.158L370.204 693.735L377.432 654.289L380.645 654.771L383.857 655.253L387.047 655.735L390.259 656.194L390.856 651.834L391.476 647.451L392.072 643.091L392.669 638.708L382.113 637.675L371.558 636.643L361.002 635.61L350.447 634.555ZM693.274 637.882L672.966 640.957L652.635 644.032L632.327 647.129L612.019 650.204L612.317 653.578L612.615 656.951L612.914 660.324L613.212 663.72L615.484 663.812L617.778 663.904L620.05 664.018L622.345 664.11L621.748 706.723L621.152 749.335L620.555 791.948L619.958 834.583L616.493 835.868L613.005 837.153L609.54 838.438L606.052 839.746L606.259 842.867L606.443 845.988L606.649 849.131L606.856 852.252C606.856 852.252 609.111 851.608 612.799 850.531C616.487 849.454 621.593 847.943 627.255 846.217C632.918 844.491 639.139 842.541 645.062 840.595C650.985 838.649 656.609 836.712 661.079 834.973C665.55 833.235 671.093 830.808 676.867 828.135C682.641 825.462 688.659 822.546 694.123 819.851C699.587 817.156 704.49 814.679 708.029 812.875C711.568 811.072 713.742 809.938 713.742 809.938L712.044 796.973L710.369 784.008L708.671 771.043L706.973 758.078L703.347 759.179L699.722 760.258L696.096 761.359L692.471 762.461C692.471 762.461 692.826 764.332 693.09 767.371C693.354 770.411 693.54 774.601 693.205 779.258C692.87 783.914 692.019 789.023 690.222 793.875C688.424 798.727 685.671 803.329 681.548 806.955C677.425 810.581 673.787 813.35 670.648 815.445C667.51 817.541 664.878 818.962 662.754 819.943C660.631 820.924 659.013 821.45 657.936 821.733C656.858 822.015 656.329 822.054 656.329 822.054L653.989 800.805L651.648 779.533L649.307 758.284L646.99 737.013L652.497 735.934L658.004 734.833L663.512 733.754L669.042 732.653L668.789 728.935L668.537 725.195L668.285 721.478L668.032 717.76L662.617 718.953L657.201 720.124L651.809 721.317L646.393 722.51L644.787 706.585L643.204 690.637L641.62 674.689L640.037 658.741C640.037 658.741 641.371 658.462 643.594 658.236C645.816 658.009 648.928 657.843 652.405 658.029C655.882 658.216 659.726 658.764 663.489 660.003C667.251 661.241 670.919 663.153 673.998 666.084C677.078 669.014 679.097 671.865 680.401 674.482C681.704 677.099 682.29 679.503 682.489 681.527C682.687 683.551 682.495 685.194 682.259 686.346C682.023 687.498 681.754 688.136 681.754 688.136L685.38 688.136L689.006 688.136L692.631 688.136L696.257 688.136L695.5 675.584L694.765 663.009L694.008 650.457L693.274 637.882ZM461.762 650.663L461.097 654.725L460.454 658.809L459.812 662.871L459.146 666.933L462.955 667.621L466.765 668.332L470.574 669.021L474.383 669.709L470 693.322L465.594 716.957C463.214 729.714 460.657 743.398 458.32 755.806C455.983 768.214 453.871 779.348 452.4 786.922C450.928 794.496 450.151 803.738 450.633 813.357C451.114 822.976 452.868 832.958 456.438 841.995C460.009 851.032 465.394 859.114 473.19 864.942C480.986 870.77 491.194 874.335 504.352 874.327C517.509 874.319 527.642 871.01 535.468 865.974C543.293 860.939 548.792 854.179 552.655 847.296C556.518 840.412 558.752 833.411 560.021 827.86C561.29 822.308 561.607 818.205 561.65 817.166C561.693 816.128 561.521 806.357 561.237 792.269C560.953 778.181 560.559 759.797 560.159 741.533L559.333 705.254L558.529 668.975L561.352 668.952L564.151 668.906L566.974 668.86L569.773 668.814L570.163 665.097L570.554 661.357L570.944 657.639L571.334 653.922L560.916 654.748L550.475 655.574L540.057 656.4L529.616 657.203L529.318 660.576L529.02 663.973L528.698 667.346L528.4 670.719L531.957 670.421L535.514 670.099L539.047 669.801L542.604 669.503C542.604 669.503 542.429 678.054 542.145 691.073C541.861 704.092 541.464 721.582 541.021 739.468C540.577 757.354 540.077 775.627 539.598 790.227C539.119 804.826 538.657 815.751 538.267 818.91C537.878 822.07 536.923 825.503 535.468 828.892C534.012 832.282 532.067 835.622 529.708 838.576C527.349 841.53 524.57 844.112 521.47 845.965C518.37 847.818 514.937 848.953 511.259 849.04C507.58 849.126 504.12 848.148 501.001 846.309C497.882 844.469 495.114 841.768 492.809 838.392C490.505 835.016 488.676 830.96 487.44 826.437C486.204 821.914 485.563 816.916 485.65 811.636C485.736 806.356 486.37 794.892 487.279 780.658C488.188 766.424 489.369 749.427 490.538 733.089C491.706 716.75 492.862 701.06 493.727 689.467C494.593 677.873 495.173 670.375 495.173 670.375L498.248 670.191L501.323 670.031L504.375 669.847L507.449 669.686L508.161 665.739L508.849 661.793L509.538 657.869L510.226 653.922L498.11 653.119L485.994 652.293L473.878 651.489L461.762 650.663ZM202.026 685.153C202.026 685.153 205.56 685.922 210.677 687.677C215.794 689.432 222.495 692.168 228.851 696.075C235.207 699.983 241.219 705.061 244.937 711.519C248.654 717.976 250.075 725.817 247.277 735.223C244.479 744.628 239.198 749.406 232.843 751.286C226.489 753.165 219.081 752.151 212.008 749.955C204.934 747.758 198.193 744.379 193.237 741.556C188.282 738.733 185.091 736.462 185.091 736.462L189.336 723.635L193.558 710.807L197.803 697.98L202.026 685.153Z" fill="#ffffff" fill-rule="nonzero" opacity="1" stroke="none" vectornator:layerName="Curve 1"/>
</g>
</svg>
