<?xml version="1.0" encoding="UTF-8" standalone="no"?>
<!DOCTYPE svg PUBLIC "-//W3C//DTD SVG 1.1//EN" "http://www.w3.org/Graphics/SVG/1.1/DTD/svg11.dtd">
<!-- Created with Vectornator (http://vectornator.io/) -->
<svg height="100%" stroke-miterlimit="10" style="fill-rule:nonzero;clip-rule:evenodd;stroke-linecap:round;stroke-linejoin:round;" version="1.1" viewBox="0 0 750 1000" width="100%" xml:space="preserve" xmlns="http://www.w3.org/2000/svg" xmlns:vectornator="http://vectornator.io" xmlns:xlink="http://www.w3.org/1999/xlink">
<defs/>
<g id="Layer-1" vectornator:layerName="Layer 1">
<path d="M114.562 260.375C101.428 260.423 88.2911 260.531 75.1562 260.531C75.1562 264.905 85.18 275.528 87.1562 280.469C89.6729 286.76 94.7452 292.679 98.3125 298.625C106.171 311.722 114.337 324.582 122.312 337.875C130.432 351.407 140.089 364.928 147.219 379.188C150.642 386.035 155.829 392.032 159.219 398.812C166.454 413.283 177.458 425.884 184.719 440.406C191.841 454.65 203.08 467.161 210.219 481.438C218.319 497.639 229.695 513.032 239.219 528.906C242.664 534.647 246.297 540.381 249.781 546.188C250.847 547.965 251.931 550.681 253.281 552.031C251.761 553.551 245.651 552.344 244.188 552.344C241.647 552.344 239.133 552.512 236.594 552.625C226.738 553.063 216.944 554.505 207.281 556.438C178.594 562.176 149.544 577.529 131.094 601.25C126.526 607.124 123.434 613.245 120.844 619.719C102.94 664.479 131.049 699.655 167.719 721.656C179.584 728.775 193.695 731.456 206.969 735.438C213.456 737.383 222.881 739.42 229.562 739.531C241.085 739.723 252.572 739.723 264.094 739.531C291.691 739.071 324.73 725.436 346.156 707.906C365.32 692.227 376.298 672.907 377.781 648.438C378.133 642.619 378.252 635.411 376.344 629.688C372.616 618.502 367.804 609.693 361.688 599.5C354.213 587.041 346.483 574.908 339.094 562.594C335.699 556.934 332.203 548.358 327.688 543.844C327.981 543.404 327.988 543.408 328.281 542.969C329.365 543.511 331.424 543.515 332.344 543.531C342.597 543.709 352.901 543.844 363.156 543.844C369.3 543.844 378.131 541.385 383.062 537.688C380.467 532.498 375.123 528.81 372.531 523.625C373.683 522.472 372.635 523.177 375.156 523.312C378.083 523.472 381.008 523.533 383.938 523.625C389.111 523.787 394.293 523.906 399.469 523.906C417.06 523.906 434.714 521.502 451.906 518.062C453.604 517.724 465.399 515.078 465.969 513.938C466.351 513.174 461.687 508.957 459.219 506.344C456.657 503.631 454.073 500.914 451.594 498.125C452.984 496.735 460.128 497.016 462.469 496.656C470.502 495.42 478.753 493.665 486.469 491.094C510.179 483.19 531.917 470.934 550.938 453C556.394 447.856 564.085 441.581 567.594 434.562C567.301 434.269 567.355 434.262 567.062 433.969C566.17 434.415 566.002 434.409 565.281 433.688C568.633 430.335 574.01 428.218 577.906 425.188C588.66 416.824 600.168 406.415 606.312 394.125C607.676 391.398 614.135 382.174 613.594 379.469C613.297 377.981 611.209 379.116 610.406 378.312C621.663 367.055 629.734 355.915 635.312 341.969C636.531 338.923 640.195 330.477 639.719 327.625C639.397 325.689 635.842 327.842 634.438 326.438C638.331 322.544 642.807 319.225 646.719 315.312C659.229 302.803 674.844 278.42 674.844 260.531C427.139 260.531 427.174 260.531 179.469 260.531C181.207 265.745 185.924 270.914 188.844 275.781C195.288 286.522 201.922 296.689 207.281 307.406C213.711 320.267 211.078 328.134 195.281 327.344C194.744 327.317 188.129 316.027 187.344 314.719C182.087 305.957 176.477 297.419 171.219 288.656C168.538 284.187 165.875 278.538 162.719 274.594C161.673 273.286 154.367 260.537 153.969 260.531C140.836 260.338 127.697 260.327 114.562 260.375ZM119.844 268.469C129.464 268.433 139.072 268.511 148.688 268.75C149.388 268.767 156.302 280.743 157.188 282.219C165.443 295.977 174.089 309.46 182.344 323.219C183.141 324.547 190.212 336.093 190.594 336.125C194.349 336.438 195.934 335.832 199.094 335.531C204.375 335.028 211.422 334.61 215.469 330.562C220.829 325.202 219.103 317.533 217.219 310.938C212.988 296.129 203.942 282.305 195.281 269.312C195.476 269.118 195.568 268.75 195.844 268.75C351.313 268.555 506.812 268.555 662.281 268.75C662.557 268.75 662.649 269.117 662.844 269.312C655.723 283.555 649.686 296.734 638.219 309.156C630.483 317.536 620.972 323.808 613.062 331.719C618.099 333.397 624.696 328.727 628.562 332.594C627.052 335.614 626.841 339.569 625.344 342.562C621.5 350.25 617.225 358.619 610.719 365.125C605.477 370.367 599.983 375.173 593.969 379.469C591.187 381.456 587.326 382.954 584.938 385.344C586.255 385.783 587.866 385.344 589.312 385.344C592.443 385.344 596.474 383.723 598.688 385.938C590.959 401.394 580.027 414.555 564.969 424.594C560.06 427.867 554.976 430.297 549.469 432.5C547.606 433.245 544.367 433.508 543.031 434.844C545.394 437.207 549.449 433.668 551.812 436.031C549.6 440.454 545.889 445.174 542.438 448.625C521.511 469.551 497.509 479.115 469.469 486.125C461.215 488.188 452.422 489.202 443.969 489.938C441.498 490.154 434.699 489.55 433.156 491.094C438.258 497.897 444.987 503.85 450.719 510.156C448.153 512.723 439.575 512.284 436.094 512.781C417.336 515.461 398.12 515.113 379.219 514.531C375.509 514.417 371.804 514.387 368.094 514.25C364.938 514.133 356.405 511.908 354.062 514.25C359.061 520.498 363.919 526.881 368.719 533.281C366.515 535.485 361.063 535.632 358.156 535.938C347.392 537.071 336.02 535.816 325.344 533.875C323.167 533.479 309.942 529.933 309.219 530.656C322.651 550.804 334.858 571.991 347.312 592.75C360.653 614.985 372.468 628.47 368.406 656.906C365.454 677.564 350.667 694.644 334.156 706.438C329.953 709.439 324.96 711.351 320.969 714.344C310.014 722.561 291.979 725.986 278.469 728.688C239.489 736.484 179.075 728.325 148.688 697.938C140.758 690.008 135.087 681.208 129.656 672.156C124.274 663.187 123.841 649.992 124.656 640.219C128.427 594.968 178.221 568.942 218.719 563.156C230.918 561.414 242.174 561.084 254.719 561.406C257.598 561.479 265.932 561.153 268.812 562.594C269.722 561.231 260.727 547.618 259.156 545C248.431 527.126 237.238 509.708 226.594 491.969C195.386 439.954 162.896 388.733 131.688 336.719C121.675 320.03 111.231 303.592 101.219 286.906C97.7079 281.055 93.4574 275.415 90.4062 269.312C90.6016 269.118 90.6926 268.753 90.9688 268.75C100.588 268.653 110.224 268.504 119.844 268.469ZM113.219 281.031C112.943 281.034 112.779 281.378 112.656 281.625C112.321 282.295 114.826 285.556 115.281 286.312C118.043 290.916 120.804 295.629 123.781 300.094C135.742 318.036 146.683 336.972 157.781 355.469C189.463 408.273 222.473 460.258 254.156 513.062C264.116 529.664 274.407 545.719 284.344 562.281C287.964 568.315 292.323 574.177 295.469 580.469C295.176 580.762 295.137 580.738 294.844 581.031C290.964 579.091 286.153 578.577 281.969 577.531C264.18 573.084 245.033 572.579 226.906 574.594C211.184 576.34 195.237 580.772 181.219 587.781C157.929 599.426 133.779 622.067 136.969 650.781C137.713 657.478 139.491 666.237 143.719 671.875C150.139 680.434 156.38 688.464 165.094 695C194.51 717.062 239.111 723.151 274.656 716.688C284.851 714.835 295.632 712.513 304.844 707.906C326.58 697.038 349.768 683.744 355.531 657.812C360.553 635.213 351.386 623.819 340.844 606.25C328.59 585.826 315.864 565.61 303.688 545.312C298.207 536.178 292.449 527.197 286.969 518.062C285.788 516.094 281.11 510.444 282.281 508.688C297.815 513.867 313.535 518.62 329.719 521.562C332.452 522.06 343.597 524.404 344.969 523.031C339.811 515.293 334.765 507.934 330.594 499.594C331.894 498.294 348.711 500.611 351.438 500.781C368.78 501.865 386.178 502.531 403.562 502.531C406.494 502.531 409.415 502.336 412.344 502.219C414.576 502.129 423.45 502.583 424.969 501.062C418.409 492.864 410.451 485.588 403.281 477.906C404.724 476.462 408.385 477.782 410.312 477.906C412.362 478.038 414.417 478.147 416.469 478.219C425.968 478.546 435.377 478.485 444.844 477.625C474.908 474.892 504.042 465.849 526.344 445.406C526.149 445.211 525.996 444.814 525.719 444.812C452.477 444.619 379.272 445.201 306.031 444.812C305.087 444.807 303.483 441.497 303.094 440.719C303.289 440.523 303.411 440.125 303.688 440.125C364.527 439.93 425.347 440.222 486.188 440.125C488.916 440.12 492.545 438.671 495.281 438.062C518.281 432.951 542.787 424.972 561.781 411.406C566.624 407.947 571.339 404.215 575.219 399.688C576.298 398.43 579.143 395.955 577.594 394.406C576.273 395.067 577.92 394.406 575.844 394.406C476.039 394.406 376.243 394.719 276.438 394.719C274.136 394.719 273.393 392.245 272.312 390.625C272.508 390.43 272.629 390.032 272.906 390.031C365.581 389.836 458.261 390.129 550.938 390.031C554.48 390.027 558.607 385.426 561.781 384.156C573.763 379.363 588.114 369.564 597.531 360.719C600.752 357.693 604.192 354.832 606.906 351.344C607.6 350.45 610.665 346.796 610.406 345.5C610.337 345.155 610.165 344.626 609.812 344.625C488.036 344.332 366.246 344.917 244.469 344.625C243.522 344.623 241.946 340.988 241.562 340.219C241.757 340.023 241.879 339.625 242.156 339.625C353.874 339.527 465.593 339.938 577.312 339.938C580.042 339.938 584.958 335.457 587.281 334.062C598.839 327.128 610.307 319.047 620.094 309.75C623.899 306.135 627.763 302.574 631.219 298.625C634.8 294.533 640.954 288.061 642.344 282.5C642.475 281.978 642.209 281.033 641.469 281.031C500.356 280.739 359.208 280.836 218.094 281.031C217.494 281.032 217.443 281.868 217.531 282.219C218.446 285.881 222.224 290.134 223.969 293.625C228.047 301.781 231.906 311.96 231.906 321.188C231.906 340.475 214.255 347.663 197.594 348.438C194.666 348.574 191.775 348.719 188.844 348.719C186.978 348.719 184.888 348.959 183.219 348.125C180.83 346.93 175.046 335.2 173.312 332.312C165.935 320.019 158.096 307.982 150.719 295.688C148.749 292.404 144.672 283.371 141.969 281.344C141.813 281.226 141.54 281.346 141.344 281.344C131.969 281.248 122.594 280.935 113.219 281.031Z" fill="#ffffff" fill-rule="nonzero" opacity="1" stroke="none"/>
</g>
</svg>
