<?xml version="1.0" encoding="UTF-8" standalone="no"?>
<!DOCTYPE svg PUBLIC "-//W3C//DTD SVG 1.1//EN" "http://www.w3.org/Graphics/SVG/1.1/DTD/svg11.dtd">
<!-- Created with Vectornator (http://vectornator.io/) -->
<svg height="100%" stroke-miterlimit="10" style="fill-rule:nonzero;clip-rule:evenodd;stroke-linecap:round;stroke-linejoin:round;" version="1.1" viewBox="0 0 750 1000" width="100%" xml:space="preserve" xmlns="http://www.w3.org/2000/svg" xmlns:vectornator="http://vectornator.io" xmlns:xlink="http://www.w3.org/1999/xlink">
<defs/>
<g id="Layer-1" vectornator:layerName="Layer 1">
<path d="M648.221 220.938C634.478 223.686 618.688 227.314 605.721 232.5C596.29 236.273 585.458 236.543 576.034 240.312C559.058 247.103 539.565 247.587 522.596 254.375C492.803 266.292 458.648 267.142 428.846 279.062C419.894 282.644 406.675 279.116 396.659 280C374.62 281.945 352.062 283.869 330.096 288.75C252.372 306.022 192.831 339.14 137.909 394.062C98.7621 433.209 75.4087 485.734 75.4088 546.562C75.4088 558.419 82.1331 597.662 91.0338 606.562C90.8776 606.875 90.8776 606.875 90.7213 607.188C91.0338 607.188 91.0338 607.188 91.3463 607.188C91.3463 608.478 92.6803 612.813 94.1588 612.812C94.0026 613.125 94.0026 613.125 93.8463 613.438C94.1588 613.438 94.1588 613.438 94.4713 613.438C94.4713 614.447 94.9225 616.25 96.0338 616.25C95.8776 616.563 95.8776 616.562 95.7213 616.875C96.0338 616.875 96.0338 616.875 96.3463 616.875C96.3463 617.863 96.4891 619.062 97.5963 619.062C97.5963 620.017 97.5304 619.49 97.9088 620.625C98.2213 620.625 98.2213 620.625 98.5338 620.625C98.3776 620.938 98.3776 620.937 98.2213 621.25C98.5338 621.25 98.5338 621.25 98.8463 621.25C98.8463 621.719 98.8463 621.719 98.8463 622.188C99.1588 622.188 99.1588 622.188 99.4713 622.188C99.4713 623.142 99.4054 622.615 99.7838 623.75C100.096 623.75 100.096 623.75 100.409 623.75C100.409 624.219 100.409 624.219 100.409 624.688C100.721 624.688 100.721 624.688 101.034 624.688C101.32 625.545 101.685 626.33 101.971 627.188C102.284 627.188 102.284 627.188 102.596 627.188C102.596 627.656 102.596 627.656 102.596 628.125C102.909 628.125 102.909 628.125 103.221 628.125C103.221 628.594 103.221 628.594 103.221 629.062C103.534 629.062 103.534 629.062 103.846 629.062C103.846 629.919 103.854 630.312 104.784 630.312C104.784 630.781 104.784 630.781 104.784 631.25C105.096 631.25 105.096 631.25 105.409 631.25C105.409 631.719 105.409 631.719 105.409 632.188C105.721 632.188 105.721 632.188 106.034 632.188C106.034 633.044 106.041 633.437 106.971 633.438C106.971 634.764 107.488 634.362 107.909 635.625C108.221 635.625 108.221 635.625 108.534 635.625C108.534 638.804 115.146 643.998 117.284 646.562C124.227 654.894 136.263 669.972 146.659 673.438C146.659 673.75 146.659 673.75 146.659 674.062C147.515 674.062 147.909 674.07 147.909 675C148.765 675 149.159 675.007 149.159 675.938C150.015 675.938 150.409 675.945 150.409 676.875C150.878 676.875 150.878 676.875 151.346 676.875C151.346 677.188 151.346 677.187 151.346 677.5C152.203 677.5 152.596 677.507 152.596 678.438C153.065 678.438 153.065 678.438 153.534 678.438C153.534 678.75 153.534 678.75 153.534 679.062C154.003 679.062 154.003 679.062 154.471 679.062C154.471 681.369 160.096 681.419 160.096 683.438C160.565 683.438 160.565 683.438 161.034 683.438C161.034 683.75 161.034 683.75 161.034 684.062C161.891 684.348 162.677 684.714 163.534 685C163.534 685.313 163.534 685.312 163.534 685.625C163.846 685.625 163.846 685.625 164.159 685.625C146.793 708.779 126.18 732.667 105.721 753.125C98.6975 760.149 87.3387 770.204 82.9088 779.062C85.9907 779.062 103.837 764.07 107.596 761.25C129.558 744.779 151.507 728.144 173.846 712.188C262.669 648.742 349.958 582.683 437.284 517.188C435 516.046 415.049 521.073 411.034 521.875C388.519 526.378 365.688 532.152 342.909 535C358.18 519.729 376.813 506.805 393.534 493.125C429.849 463.413 465.969 433.462 502.284 403.75C515.228 393.159 528.09 382.466 541.034 371.875C543.31 370.013 554.159 363.253 554.159 360.625C546.152 360.625 537.993 362.697 530.096 363.75C505.614 367.014 481.097 369.947 456.659 373.438C469.642 360.455 486.064 349.913 500.409 338.438C532.599 312.685 565.094 287.315 597.284 261.562C609.326 251.929 621.491 242.446 633.534 232.812C637.445 229.683 646.023 225.335 648.221 220.938ZM402.284 299.375C402.284 302.083 394.362 308.547 392.284 310.625C382.92 319.988 375.106 330.928 365.721 340.312C338.6 367.433 315.988 399.109 288.846 426.25C277.94 437.157 269.322 452.612 256.971 461.875C261.251 464.015 274.562 459.505 279.471 458.75C299.735 455.633 320.308 453.082 340.409 449.062C330.255 464.293 308.155 479.754 294.784 493.125C256.138 531.771 213.415 567.381 176.659 607.812C192.216 607.812 209.141 602.475 224.471 599.688C229.84 598.711 237.441 598.671 242.284 596.25C239.833 601.151 234.546 605.863 230.721 609.688C222.149 618.26 215.253 628.594 206.659 637.188C204.059 639.787 199.571 648.491 196.034 649.375C192.688 650.211 166.992 633.142 163.846 630.625C131.835 605.016 104.861 573.58 101.659 528.75C98.7231 487.65 112.675 449.542 137.596 417.5C198.997 338.556 304.442 299.375 402.284 299.375ZM570.721 316.25C562.633 324.339 552.736 329.236 544.784 337.188C545.253 337.188 545.253 337.188 545.721 337.188C545.721 337.5 545.721 337.5 545.721 337.812C546.19 337.812 546.19 337.812 546.659 337.812C546.659 338.889 547.267 338.75 548.221 338.75C548.221 339.063 548.221 339.062 548.221 339.375C548.69 339.375 548.69 339.375 549.159 339.375C549.159 339.688 549.159 339.687 549.159 340C550.486 340 550.084 340.517 551.346 340.938C551.346 341.25 551.346 341.25 551.346 341.562C551.815 341.562 551.815 341.562 552.284 341.562C552.284 341.875 552.284 341.875 552.284 342.188C552.753 342.188 552.753 342.188 553.221 342.188C553.221 343.266 554.484 343.442 555.409 343.75C555.409 344.68 555.803 344.688 556.659 344.688C556.659 345.618 557.053 345.625 557.909 345.625C557.909 345.82 574.491 359.707 576.659 361.875C578.804 364.02 593.003 381.562 593.221 381.562C593.221 382.031 593.221 382.031 593.221 382.5C593.534 382.5 593.534 382.5 593.846 382.5C594.343 384.486 595.635 385.052 596.346 387.188C596.659 387.188 596.659 387.188 596.971 387.188C596.971 387.656 596.971 387.656 596.971 388.125C597.284 388.125 597.284 388.125 597.596 388.125C597.975 389.26 597.909 388.733 597.909 389.688C598.221 389.688 598.221 389.688 598.534 389.688C598.913 390.823 598.846 390.296 598.846 391.25C599.159 391.25 599.159 391.25 599.471 391.25C599.85 392.385 599.784 391.858 599.784 392.812C600.895 392.812 601.346 394.615 601.346 395.625C601.659 395.625 601.659 395.625 601.971 395.625C601.815 395.938 601.815 395.937 601.659 396.25C603.289 396.25 606.041 404.496 606.659 405.938C609.164 411.783 618.59 435.2 616.034 440.312C617.448 441.726 617.284 448.081 617.284 450C617.284 464.645 616.034 476.56 613.534 490.312C605.88 532.412 568.115 582.154 532.909 605.625C523.439 611.938 514.723 618.165 505.409 624.375C501.457 627.01 494.666 628.556 491.034 632.188C488.635 634.586 480.807 638.983 477.284 639.688C470.354 641.073 464.991 646.834 458.534 648.125C452.44 649.344 442.704 652.81 436.971 656.25C432.634 658.852 426.169 659.336 421.659 660.625C406.901 664.841 390.215 668.064 374.471 671.562C352.889 676.359 327.851 675.414 306.346 675C303.606 674.947 273.156 671.164 271.971 671.875C258.578 679.911 245.679 691.282 233.221 700.625C229.254 703.6 224.391 709.298 219.471 710.938C219.471 712.417 226.472 713.755 227.909 714.062C237.462 716.109 247.791 718.85 257.284 721.562C302.572 734.503 354.1 730.166 400.096 722.5C488.583 707.752 578.418 662.342 632.909 589.688C680.119 526.741 692.91 441.017 641.346 376.562C621.095 351.248 598.258 334.608 570.721 316.25Z" fill="#ffffff" fill-rule="nonzero" opacity="1" stroke="none"/>
</g>
</svg>
