<?xml version="1.0" encoding="UTF-8" standalone="no"?>
<!DOCTYPE svg PUBLIC "-//W3C//DTD SVG 1.1//EN" "http://www.w3.org/Graphics/SVG/1.1/DTD/svg11.dtd">
<!-- Created with Vectornator (http://vectornator.io/) -->
<svg height="100%" stroke-miterlimit="10" style="fill-rule:nonzero;clip-rule:evenodd;stroke-linecap:round;stroke-linejoin:round;" version="1.1" viewBox="0 0 750 1000" width="100%" xml:space="preserve" xmlns="http://www.w3.org/2000/svg" xmlns:vectornator="http://vectornator.io" xmlns:xlink="http://www.w3.org/1999/xlink">
<defs/>
<g id="Layer-1" vectornator:layerName="Layer 1">
<path d="M375.011 200.056C370.609 200.147 368.083 206.925 366.167 210.119C360.919 218.865 356.448 227.806 352.104 236.494C350.415 239.872 349.88 245.468 347.136 248.212C342.328 245.808 335.736 240.588 330.136 240.587C324.579 240.587 322.966 261.629 322.511 265.494C322.211 268.038 322.098 270.225 321.948 272.837C321.758 276.164 322.476 287.498 321.042 288.931C317.035 286.928 302.656 278.323 298.792 279.869C293.961 281.801 293.114 303.955 292.917 308.275C292.793 311.008 292.766 313.76 292.636 316.494C292.389 321.67 291.089 329.495 293.511 334.337C292.141 335.707 287.127 333.633 285.323 333.181C278.684 331.521 271.911 330.863 265.104 330.244C263.92 330.136 262.363 329.604 261.292 330.556C256.271 335.02 261.24 343.307 263.042 348.712C268.469 364.995 276.898 378.425 284.448 393.525C281.504 396.469 271.529 392.404 270.073 399.681C269.784 401.126 275.223 409.982 276.229 411.994C281.034 421.603 285.183 431.394 289.136 441.275C290.341 444.288 294.535 451.11 293.511 454.181C289.184 449.854 284.006 446.251 279.448 442.15C269.838 433.501 260.652 424.46 251.917 414.931C246.343 408.85 241.069 402.513 235.792 396.181C233.231 393.108 231.907 390.025 227.604 390.025C224.768 390.025 216.987 399.029 215.573 401.15C211.238 397.296 207.393 392.939 203.292 388.837C197.139 382.685 190.026 377.365 183.073 372.15C181.018 370.608 177.382 367.106 174.573 369.212C169.687 372.877 167.25 383.003 165.792 388.837C165.406 390.381 165.06 395.436 162.854 394.994C159.242 394.271 155.294 391.451 151.729 390.025C145.053 387.354 138.352 384.961 131.511 382.681C128.762 381.765 121.958 378.526 119.479 380.65C115.728 383.866 117.878 389.088 118.917 393.244C120.845 400.955 122.844 408.556 125.354 416.087C125.981 417.966 129.159 422.76 128.854 424.587C128.553 426.397 125.093 426.225 123.604 426.65C120.905 427.421 107.42 430.513 106.604 433.369C105.378 437.66 108.421 440.291 110.417 443.619C115.045 451.332 120.615 459.084 126.823 465.587C130.209 469.134 133.655 472.635 137.073 476.15C133.548 480.851 124.761 482.916 124.761 489.619C124.761 492.251 135.695 501.039 137.948 503.087C149.623 513.7 162.822 522.091 174.854 532.119C170.552 536.421 165.98 540.399 161.667 544.712C161.154 545.225 159.099 547.172 158.761 548.525C157.314 554.314 165.038 558.139 169.011 561.119C175.9 566.286 183.031 570.768 190.386 575.181C194.216 577.479 200.159 578.486 203.292 581.619C200.021 585.298 196.315 588.468 193.042 592.15C190.693 594.792 189.511 595.937 189.511 599.494C189.511 601.375 193.984 603.76 195.667 604.181C202.86 605.979 209.693 609.97 217.042 611.806C219.561 612.436 223.099 612.582 224.948 614.431C222.556 616.824 215.708 618.058 212.354 619.4C203.993 622.745 193.381 626.395 186.292 631.712C182.417 634.619 176.323 634.845 176.323 640.806C176.323 643.513 183.293 647.195 185.417 648.712C192.58 653.829 200.16 657.958 207.667 662.462C210.622 664.236 214.498 664.606 217.042 667.15C209.271 674.921 200.867 682.009 193.323 690.025C188.62 695.022 184.245 700.288 179.854 705.556C177.231 708.704 174.743 711.981 172.229 715.212C169.286 718.997 164.498 723.96 164.917 728.994C165.33 733.951 174.666 731.618 176.917 731.337C188.775 729.855 200.64 727.806 212.354 725.462C215.442 724.845 220.697 722.396 223.792 722.837C225.022 723.013 222.368 728.179 222.042 728.994C220.823 732.041 212.902 746.989 219.979 747.431C231.968 748.18 244.758 744.749 256.604 743.056C258.856 742.735 266.271 740.129 267.729 741.587C264.196 748.655 261.593 755.648 258.667 762.962C257.877 764.938 256.174 768.423 257.761 770.275C261.747 774.926 278.702 769.574 284.448 767.931C308.25 761.131 332.19 755.06 354.448 743.931C355.596 745.079 356.454 754.799 357.104 757.4C360.31 770.221 366.171 781.145 374.073 791.681C377.256 795.925 379.665 800.6 385.511 799.869C386.802 799.707 395.128 791.001 396.636 789.619C399.437 787.051 405.599 783.672 406.604 779.65C407.58 775.746 404.497 773.99 402.198 771.181C397.631 765.599 393.717 759.603 391.073 752.994C390.064 750.47 387.634 744.433 389.604 742.462C413.037 754.179 439.862 760.211 464.917 767.369C470.741 769.033 488.217 774.846 492.136 770.275C494.473 767.548 487.101 751.111 485.417 747.744C484.574 746.059 481.551 742.809 482.761 740.994C485.942 742.584 491.236 742.464 494.792 743.056C503.34 744.481 511.956 745.649 520.573 746.556C524.106 746.928 531.041 749.417 532.886 744.806C535.314 738.735 524.315 727.144 525.854 722.525C540.129 726.094 554.657 728.194 569.198 730.431C572.369 730.919 580.231 733.693 582.979 731.337C587.55 727.42 582.875 723.191 580.323 719.619C574.217 711.069 567.655 702.879 560.698 694.994C558.369 692.354 556.871 690.67 554.261 687.962C550.378 683.936 546.497 679.918 542.542 675.962C539.572 672.992 536.108 669.506 532.573 667.15C535.059 664.664 539.559 664.489 542.261 662.462C548.81 657.551 556.742 653.902 563.636 649.306C567.528 646.711 573.605 643.901 573.604 638.744C573.604 635.237 564.805 632.157 562.167 630.837C553.634 626.571 544.883 622.474 535.792 618.837C532.71 617.604 527.601 616.771 525.261 614.431C526.528 612.531 531.224 612.548 533.448 611.806C540.795 609.357 547.985 607.022 554.854 603.587C556.533 602.748 560.166 602.003 560.417 599.494C560.799 595.672 557.905 593.632 555.417 590.994C552.48 587.879 549.644 584.641 546.354 581.9C548.874 579.381 553.461 579.077 556.323 576.931C564.238 570.995 573.471 566.555 581.511 560.525C585.449 557.571 591.479 554.493 591.479 549.087C591.479 547.991 588.71 545.452 588.542 545.275C585.545 542.121 582.525 538.976 579.448 535.9C578.067 534.519 576.391 533.205 574.761 532.119C578.919 527.96 584.901 524.701 589.698 521.275C598.444 515.028 606.753 507.772 614.604 500.462C618.057 497.248 625.167 493.556 625.167 488.15C625.167 484.751 615.723 478.531 612.573 476.431C615.391 472.675 619.19 469.814 622.511 466.494C629.224 459.78 634.563 451.461 639.792 443.619C641.655 440.824 644.138 437.71 643.604 434.244C643.07 430.769 629.384 427.806 626.323 426.931C625.311 426.642 621.029 426.521 620.761 425.181C620.304 422.895 624.08 416.942 624.854 414.619C627.668 406.178 632.761 393.129 632.761 384.462C632.761 377.973 624.574 380.516 621.042 381.525C609.157 384.921 597.104 389.822 586.198 395.275C585.09 394.166 584.859 391.072 584.448 389.431C583.306 384.861 578.134 366.295 571.542 368.931C569.408 369.785 567.207 371.89 565.386 373.306C562.815 375.305 560.263 377.377 557.761 379.462C554.672 382.036 551.695 384.687 548.698 387.369C543.803 391.749 539.003 396.237 534.636 401.15C529.452 397.694 527.176 390.025 520.261 390.025C517.889 390.025 515.983 393.705 514.698 395.275C510.57 400.32 506.418 405.355 502.104 410.244C491.646 422.097 480.599 433.518 468.698 443.931C465.078 447.099 461.026 451.424 456.698 453.587C456.405 453.294 456.397 453.287 456.104 452.994C458.254 448.695 459.568 443.475 461.386 438.931C465.004 429.887 469.044 421.271 473.386 412.587C475.293 408.773 480.734 402.317 478.979 397.931C476.954 392.866 468.194 396.521 465.198 393.525C468.347 390.376 469.963 385.583 472.229 381.806C478.478 371.393 484.489 358.206 487.448 346.369C488.508 342.129 493.172 334.781 489.511 331.119C487.599 329.207 483.112 330.068 481.011 330.244C474.738 330.766 468.363 331.937 462.261 333.462C460.501 333.902 458.152 335.228 456.417 334.65C456.417 327.646 457.573 320.605 457.573 313.556C457.573 308.785 456.891 303.926 456.417 299.181C456.116 296.171 455.727 293.103 455.229 290.119C454.875 287.992 454.598 285.779 454.073 283.681C451.032 271.514 432.235 290.997 428.292 288.369C429.297 286.358 428.616 283.866 428.573 281.619C428.515 278.59 428.424 275.551 428.292 272.525C427.933 264.257 426.533 255.905 424.761 247.931C424.293 245.826 423.994 241.865 421.261 241.181C415.399 239.716 407.824 245.697 402.792 248.212C400.239 245.659 398.638 238.86 397.229 235.337C393.817 226.806 388.755 218.88 384.042 211.025C382.51 208.471 379.793 201.601 377.011 200.462C376.301 200.172 375.64 200.043 375.011 200.056ZM375.542 203.681C377.88 204.85 380.328 211.648 381.698 213.931C386.726 222.312 391.823 230.884 395.479 240.025C396.977 243.769 398.304 250.475 401.042 253.212C403.842 251.812 417.154 243.27 419.792 244.4C421.392 245.085 421.526 249.666 421.823 251.15C423.389 258.979 424.341 266.892 424.761 274.869C424.892 277.359 424.492 294.375 425.354 294.806C426.494 295.376 429.95 292.449 430.917 291.869C435.402 289.178 440.203 286.748 444.979 284.837C445.84 284.493 448.819 282.579 449.667 283.087C450.994 283.884 450.895 285.577 451.136 286.9C451.56 289.232 451.957 291.586 452.292 293.931C452.789 297.411 453.21 300.958 453.479 304.462C453.809 308.747 454.073 313.846 454.073 317.931C454.073 318.525 453.796 319.119 453.761 319.712C453.519 323.811 453.554 327.903 453.198 331.994C453.079 333.364 451.672 338.097 452.292 339.337C452.909 340.572 458.062 338.184 459.323 337.869C465.705 336.273 472.086 334.683 478.667 334.056C480.481 333.884 484.737 332.774 486.573 333.462C488.672 334.25 483.621 347.156 482.761 349.306C478.781 359.254 475.437 369.617 469.886 378.869C466.448 384.597 462.618 390.499 459.636 396.462C461.165 397.992 475.488 397.709 475.729 399.4C476.253 403.066 468.85 411.98 467.823 416.087C465.864 423.924 460.392 431.774 457.292 439.525C454.338 446.911 452.563 455.702 449.073 462.681C449.366 462.974 449.374 462.951 449.667 463.244C454.345 460.904 458.818 456.609 462.854 453.306C476.757 441.931 489.388 429.364 501.511 416.087C506.035 411.132 510.403 406.023 514.698 400.869C516.401 398.826 518.479 394.713 520.854 393.525C522.625 392.64 529.951 401.362 531.104 402.9C531.467 403.382 533.487 407.212 534.323 406.431C544.593 396.846 553.997 386.633 565.104 377.994C567.454 376.166 570.086 373.472 572.729 372.15C574.135 371.447 576.027 376.464 576.511 377.431C579.564 383.539 583.261 392.877 583.261 399.681C585.952 400.579 591.754 396.327 594.386 395.275C602.353 392.088 610.258 388.932 618.417 386.212C620.919 385.378 625.75 382.803 628.386 383.556C629.801 383.961 627.48 391.974 627.198 393.244C625.244 402.039 622.637 410.662 619.292 419.025C618.626 420.691 615.13 426.15 615.792 427.806C616.43 429.401 620.913 429.293 622.229 429.556C625.393 430.189 638.441 432.936 640.104 435.431C640.631 436.22 633.08 447.384 632.198 448.619C628.221 454.186 624.146 459.859 619.292 464.712C616.606 467.399 613.862 470.006 611.104 472.619C609.75 473.902 608.014 474.879 606.979 476.431C606.437 477.246 609.434 478.453 609.917 478.775C611.996 480.161 622.694 487.815 621.354 489.337C610.949 501.162 597.411 510.756 585.011 520.4C580.092 524.226 573.078 527.269 569.198 532.119C575.15 537.079 580.296 542.029 585.886 547.619C585.851 547.689 585.885 547.795 585.854 547.869C588.045 550.002 588.479 550.025 586.198 552.306C586.152 552.259 586.15 552.169 586.104 552.119C575.96 560.964 564.465 566.341 554.261 573.994C552.014 575.678 540.688 579.201 539.917 580.744C539.482 581.614 543.127 583.754 543.698 584.244C547.856 587.807 548.86 589.105 553.667 594.212C554.859 595.478 557.85 596.859 556.886 598.306C555.373 600.576 551.106 601.749 548.698 602.712C540.363 606.046 531.908 608.722 523.198 610.9C520.211 611.647 513.213 611.542 511.198 613.556C514.231 616.589 521.509 617.224 525.542 618.837C537.263 623.526 548.496 628.252 559.542 633.775C561.906 634.957 569.137 637.123 570.073 639.931C570.376 640.838 564.238 644.519 563.354 645.181C554.991 651.455 545.388 656.074 536.667 661.306C534.436 662.645 527.53 663.768 526.417 665.994C526.33 666.168 526.292 666.437 526.417 666.587C530.489 671.474 536.827 675.248 541.354 679.775C551.777 690.196 562.081 701.045 570.948 712.869C573.249 715.937 580.66 723.81 581.511 727.212C582.128 729.68 576.796 728.15 576.229 728.087C570.846 727.489 565.423 726.711 560.104 725.744C550.007 723.908 539.907 722.39 529.948 719.9C526.777 719.107 522.583 718.999 519.698 717.556C518.84 718.415 526.4 735.053 527.604 737.462C528.241 738.736 530.675 743.48 528.479 744.212C526.566 744.851 521.601 743.317 519.386 743.056C509.196 741.858 499.013 740.486 488.917 738.65C486.123 738.142 476.903 734.851 474.854 736.9C478.777 744.745 483.766 751.604 486.573 760.025C487.124 761.676 489.976 767.113 488.917 768.525C487.89 769.894 484.016 768.21 482.479 767.931C476.214 766.791 469.837 765.301 463.729 763.556C445.468 758.339 426.917 753.631 409.229 746.556C404.912 744.829 391.164 737.811 387.261 738.369C383.649 738.885 385.496 746.382 385.792 748.306C387.099 756.799 392.551 765.153 397.823 771.744C399.384 773.695 401.857 775.772 403.073 777.9C403.671 778.947 395.627 785.77 394.011 787.275C392.443 788.734 390.889 790.22 389.323 791.681C387.349 793.524 385.868 796.962 383.167 796.962C381.955 796.963 375.741 788.488 374.386 786.681C367.484 777.478 362.784 767.024 360.011 755.931C359.145 752.468 358.461 740.287 357.104 738.931C334.759 750.104 309.291 758.973 284.729 764.431C278.989 765.707 273.243 767.278 267.448 768.244C266.157 768.459 260.997 770.273 260.417 768.244C260.017 766.845 261.918 763.133 262.448 761.806C264.786 755.961 267.56 750.386 269.792 744.806C270.781 742.335 274.479 739.163 274.479 736.587C271.564 735.615 266.416 737.858 263.354 738.369C254.093 739.912 244.832 741.501 235.511 742.744C231.702 743.252 224.441 742.575 221.167 744.212C219.352 742.398 221.143 740.024 222.042 737.775C224.695 731.144 227.41 724.413 230.542 718.15C229.067 716.674 220.987 719.64 218.823 720.181C207.06 723.122 195.053 725.088 183.073 726.931C180.828 727.277 168.938 729.678 168.136 727.806C167.285 725.82 172.519 720.228 173.698 718.712C180.96 709.375 188.156 699.88 196.542 691.494C200.693 687.343 204.912 683.257 209.136 679.181C212.954 675.496 220.429 671.203 223.198 666.587C224.022 665.213 214.278 661.83 213.229 661.306C204.197 656.79 195.395 651.933 187.167 646.056C185.92 645.165 178.794 640.46 179.542 639.337C181.324 636.664 188.088 634.346 190.979 632.9C201.778 627.5 212.576 623.011 223.792 618.525C227.575 617.011 235.407 616.284 238.136 613.556C235.798 611.218 229.596 611.413 226.417 610.619C217.862 608.48 209.416 605.987 201.229 602.712C199.335 601.955 193.598 600.645 192.729 598.619C191.768 596.374 204.109 585.865 205.636 584.556C206.073 584.182 210.042 581.733 209.448 580.744C208.535 579.222 197.911 575.091 195.948 574.306C186.959 570.711 178.043 563.782 170.479 557.9C167.705 555.742 164.023 553.417 161.979 550.556C161.082 549.3 163.513 547.836 164.604 546.744C168.585 542.764 172.632 538.963 176.917 535.337C177.182 535.112 181.376 532.334 180.729 531.525C177.559 527.562 168.374 523.079 164.011 519.806C151.569 510.474 138.674 500.629 128.292 489.025C127.232 487.84 130.323 486.581 131.511 485.525C132.417 484.719 143.247 477.067 142.636 476.15C141.637 474.652 139.815 473.892 138.542 472.619C135.563 469.64 132.664 466.609 129.761 463.556C123.572 457.051 117.977 449.573 113.354 441.869C112.51 440.461 109.292 436.713 109.823 435.119C110.312 433.651 125.988 429.637 127.979 429.275C128.801 429.125 133.92 428.887 134.136 427.806C134.607 425.453 130.364 418.971 129.448 416.681C126.336 408.9 123.783 400.606 122.136 392.369C121.647 389.926 120.397 386.631 120.948 384.15C121.262 382.74 130.693 386.023 132.104 386.494C143.676 390.351 155.361 394.919 166.073 400.275C167.414 398.935 167.424 396.508 167.823 394.712C169.065 389.127 170.818 383.129 173.386 377.994C174.047 376.672 174.721 372.791 176.323 372.15C178.216 371.393 183.377 376.588 184.823 377.712C186.904 379.331 188.955 380.994 190.979 382.681C194.467 385.588 198.021 388.567 201.229 391.775C206.112 396.658 210.812 401.747 215.886 406.431C218.559 403.089 220.792 399.951 224.073 397.056C224.169 396.972 228.229 393.06 228.761 393.525C237.001 400.735 243.585 411.253 251.042 419.306C266.092 435.56 282.351 449.764 299.948 462.962C301.448 461.462 297.85 453.858 297.042 451.837C293.632 443.312 290.87 434.212 286.792 426.056C285.382 423.236 282.891 419.829 282.104 416.681C281.4 413.861 272.18 400.112 275.354 398.525C278.105 397.15 289.96 397.842 290.292 396.181C290.4 395.643 284.115 385.886 283.261 384.462C276.152 372.615 271.333 359.923 266.261 347.244C265.483 345.299 261.801 335.848 262.448 334.337C263.162 332.672 266.919 333.954 268.042 334.056C275.396 334.725 282.62 335.846 289.698 337.869C290.652 338.141 297.414 340.672 297.604 339.337C298.256 334.776 295.854 328.539 295.854 323.806C295.855 314.74 296.321 305.54 297.604 296.556C297.838 294.924 299.099 283.475 300.261 283.087C301.49 282.678 305.467 285.22 306.698 285.712C313.033 288.247 318.431 291.735 324.573 294.806C324.769 294.611 325.155 294.488 325.167 294.212C325.451 287.48 325.28 280.731 325.448 273.994C325.565 269.337 326.958 247.577 330.417 244.119C335.09 246.455 339.944 247.835 344.479 250.556C345.165 250.967 348.2 253.311 348.886 252.9C350.726 251.796 351.621 246.984 352.417 244.994C354.904 238.778 357.686 233.269 360.604 227.431C363.811 221.019 367.484 214.82 371.167 208.681C371.828 207.579 373.77 202.795 375.542 203.681ZM586.104 552.119C586.138 552.089 586.165 552.054 586.198 552.025C585.485 550.955 585.339 549.138 585.854 547.869C585.728 547.745 585.744 547.758 585.604 547.619C584.29 548.933 585.033 550.941 586.104 552.119ZM375.854 263.744C375.659 263.939 375.266 264.061 375.261 264.337C375.069 274.883 375.069 285.417 375.261 295.962C375.263 296.11 375.282 298.881 375.261 300.087C375.184 304.482 375.071 308.85 374.948 313.244C374.875 315.881 374.938 318.557 374.667 321.181C374.639 321.456 374.269 321.548 374.073 321.744C365.887 313.558 359.845 304.243 352.979 295.087C352.687 295.38 352.71 295.388 352.417 295.681C356.543 303.934 362.107 311.747 367.636 319.119C369.122 321.1 374.166 325.306 374.386 327.619C375.421 338.488 373.693 350.436 372.917 361.306C372.651 365.03 373.293 379.366 371.448 381.212C366.778 376.542 361.215 372.761 356.511 368.056C352.159 363.705 348.742 358.573 345.073 353.681C344.78 353.974 344.772 353.982 344.479 354.275C349.002 363.32 356.169 371.526 363.229 378.587C368.505 383.863 371.782 383.096 371.729 391.181C371.643 404.365 371.737 417.562 371.448 430.744C371.442 431.02 371.05 431.142 370.854 431.337C350.592 421.206 334.631 401.853 321.354 384.15C321.062 384.443 321.054 384.451 320.761 384.744C328.072 399.366 341.391 413.211 353.292 423.712C357.846 427.731 362.702 431.313 367.636 434.837C368.222 435.257 371.372 436.812 371.448 437.462C372.19 443.767 371.378 450.185 371.729 456.525C371.744 456.792 372.372 457.657 372.604 457.681C385.993 459.091 373.978 446.602 378.479 442.744C388.613 434.058 398.933 425.931 408.073 416.087C409.501 414.549 411.806 412.435 412.761 410.525C412.745 410.509 412.745 410.509 412.729 410.494C413.367 409.902 413.476 409.938 413.917 409.056C413.901 409.04 413.901 409.04 413.886 409.025C418.349 404.494 422.788 398.345 425.636 392.65C426.407 391.108 429.136 388.244 427.698 386.806C421.799 392.705 417.476 401.199 411.886 407.587C411.901 407.603 411.902 407.604 411.917 407.619C411.49 408.042 411.56 407.907 410.698 409.056C400.443 419.289 390.039 428.511 378.479 437.181C375.868 435.44 377.654 430.944 377.604 427.806C377.553 424.582 377.334 421.372 377.292 418.15C377.104 403.796 376.789 389.435 377.292 375.087C377.395 372.158 377.498 369.204 377.604 366.275C377.698 363.712 376.728 360.495 378.354 358.587C382.565 356.451 386.283 353.354 390.198 350.744C390.156 350.693 390.115 350.697 390.073 350.65C390.879 350.25 390.976 350.096 391.917 349.275C391.932 349.29 391.933 349.291 391.948 349.306C396.88 345.607 401.274 341.236 405.729 336.994C405.29 336.701 405.294 336.693 404.854 336.4C400.545 340.709 390.573 347.602 390.479 347.525C389.451 348.553 391.112 347.329 388.261 349.087C385.409 350.845 378.042 354.931 378.042 354.931C378.042 354.931 378.182 351.587 377.917 349.587C378.01 349.194 378.189 348.801 378.198 348.4C378.485 335.708 378.27 323.033 378.198 310.337C378.173 305.844 378.396 301.047 378.511 296.556C378.559 294.676 377.739 288.255 377.604 284.244C377.52 281.704 377.383 279.189 377.292 276.65C377.156 272.843 378.328 266.217 375.854 263.744ZM155.542 421.65C155.249 421.943 155.241 421.951 154.948 422.244C168.144 438.738 183.664 454.064 198.886 468.525C193.278 470.445 190.737 469.376 185.979 469.087C181.222 468.798 178.902 466.599 178.729 466.494C178.699 466.524 167.91 463.74 164.604 462.087C164.312 462.38 164.304 462.388 164.011 462.681C165.632 464.303 177.1 469.776 178.979 469.4C179.01 469.394 179.013 469.318 179.042 469.306C179.72 469.775 180.488 469.906 181.011 469.712C183.876 472.578 193.838 472.414 197.417 472.619C199.369 472.73 201.592 471.964 203.292 472.931C208.636 475.967 211.959 481.639 216.167 486.119C219.535 489.704 221.636 494.15 225.854 489.931C224.487 488.466 223.003 487.072 221.729 485.525C220.486 484.015 221.611 481.598 221.448 479.65C221.197 476.632 220.53 473.501 219.698 470.587C217.478 462.816 213.572 456.376 208.542 450.087C208.249 450.38 208.272 450.357 207.979 450.65C211.757 456.316 214.525 462.6 215.886 469.4C216.485 472.397 216.126 477.506 217.354 479.962C217.062 480.255 217.054 480.263 216.761 480.556C210.059 473.854 203.258 467.29 196.261 460.9C194.626 459.407 192.064 458.588 191.261 456.525C190.908 455.619 191.573 449.939 191.573 449.181C191.573 444.524 190.601 434.459 186.886 430.744C184.638 432.991 191.515 448.926 187.448 452.994C176.137 443.298 165.426 432.769 155.542 421.65ZM591.761 422.244C585.95 428.054 580.583 434.391 574.167 439.525C568.097 445.591 562.016 451.562 555.729 457.4C555.29 457.107 555.294 457.099 554.854 456.806C555.48 455.555 554.93 454.875 554.854 453.306C554.696 449.988 554.818 446.647 554.542 443.337C554.531 443.203 556.455 431.171 555.417 431.337C554.293 431.518 552.925 435.04 551.979 442.431C551.034 449.822 553.123 457.654 551.636 460.9C550.028 464.408 542.122 469.886 539.604 472.337C533.915 477.878 528.269 483.458 522.604 489.025C523.043 489.463 526.28 491.977 527.011 491.369C529.239 489.512 531.142 487.318 533.167 485.244C535.048 483.315 536.779 481.229 538.729 479.369C540.64 477.549 544.002 479.257 546.636 479.087C550.709 478.825 556.933 477.4 562.167 476.056C567.401 474.712 567.705 473.781 567.729 473.775C569.567 473.285 574.516 470.831 575.948 469.4C575.644 469.096 575.062 469.015 574.354 469.087C572.231 469.304 568.888 470.59 565.198 471.994C563.696 472.249 565.323 472.033 559.948 472.775C554.573 473.517 547.604 475.106 543.698 474.962C543.422 474.952 543.331 474.594 543.136 474.4C554.226 463.31 574.579 443.7 576.104 440.869C578.41 439.941 581.159 435.621 582.667 433.962C585.925 430.379 589.137 426.738 592.354 423.119C592.062 422.679 592.054 422.683 591.761 422.244ZM375.886 477.337C373.229 477.356 370.824 477.547 369.104 477.619C364.85 477.796 358.89 481.512 358.854 486.4C358.759 499.486 358.542 512.564 358.542 525.65C358.542 536.794 378.712 534.462 383.448 534.462C388.552 534.462 393.62 529.582 393.698 524.494C393.886 512.385 394.011 500.26 394.011 488.15C394.011 478.604 383.857 477.281 375.886 477.337ZM373.198 486.994C374.684 486.892 383.761 485.955 383.761 490.494C383.761 500.846 383.544 511.205 383.448 521.556C383.437 522.749 381.88 524.734 380.542 524.775C377.516 524.866 374.47 524.953 371.448 524.775C370.516 524.72 368.511 522.631 368.511 521.556C368.511 511.106 368.727 500.662 368.823 490.212C368.845 487.809 371.417 487.116 373.198 486.994ZM412.761 479.65C411.951 479.731 411.729 484.077 411.573 484.931C410.617 490.188 409.905 495.481 408.948 500.744C407.267 509.992 405.944 519.329 404.261 528.587C403.955 530.271 402.796 533.081 403.073 534.744C403.23 535.681 411.814 536.6 412.761 536.494C414.138 536.341 414.344 529.753 414.511 528.587C415.037 524.906 416.628 509.47 418.604 507.494C420.119 509.008 420.278 511.639 420.948 513.65C422.943 519.633 425.114 525.553 427.104 531.525C427.728 533.396 428.601 538.84 430.636 539.712C440.918 544.119 438.849 534.648 440.292 527.431C442.271 517.537 443.456 507.45 445.261 497.525C445.898 494.019 445.729 489.306 447.323 486.119C445.158 483.953 440.47 484.865 437.667 483.462C436.624 484.506 436.688 487.289 436.479 488.744C435.886 492.901 434.071 510.497 431.792 512.775C430.3 511.282 429.863 507.518 429.167 505.431C427.089 499.196 424.532 492.992 422.729 486.681C422.33 485.282 421.567 481.116 420.073 480.556C418.515 479.972 414.347 479.491 412.761 479.65ZM329.823 480.931C327.039 481.199 324.214 481.938 321.636 482.306C318.188 482.799 310.388 482.741 307.886 485.244C309.306 488.084 309.047 493.41 309.636 496.65C311.458 506.675 312.782 516.814 314.604 526.837C314.988 528.949 315.922 539.612 317.542 540.306C318.583 540.752 320.931 539.869 321.948 539.712C323.179 539.523 326.477 539.685 327.198 538.244C329.035 534.569 319.377 519.36 329.261 521.556C330.545 521.842 332.025 525.214 332.761 526.244C333.765 527.65 339.164 536.141 340.104 536.494C341.594 537.052 343.889 536.13 345.386 535.9C346.914 535.665 348.62 535.885 349.761 534.744C346.115 529.883 342.6 524.862 339.229 519.806C341.373 517.663 344.856 516.303 345.667 513.056C347.361 506.278 344.637 486.432 337.761 482.306C335.361 480.867 332.607 480.663 329.823 480.931ZM328.979 490.494C335.844 492.684 338.219 507.042 333.667 511.025C332.497 512.048 323.036 513.807 322.229 512.462C318.997 507.075 321.759 498.334 319.011 492.837C321.153 490.694 326.136 491.062 328.979 490.494ZM461.979 489.337C460.298 489.818 458.688 497.723 459.323 498.994C460.891 498.21 470.747 501.523 470.479 503.4C469.633 509.325 466.255 515.185 464.604 520.962C462.295 529.047 459.873 538.643 456.104 546.181C456.967 547.044 464.25 549.81 465.479 549.4C467.36 548.773 468.547 541.012 469.292 539.15C473.399 528.883 476.355 517.992 479.854 507.494C481.399 502.859 489.506 510.094 492.729 509.556C493.528 509.423 494.462 505.099 494.792 504.275C495.041 503.652 496.082 501.411 495.948 500.744C495.872 500.362 487.62 497.542 486.573 497.244C480.55 495.523 474.74 493.095 468.698 491.369C467.123 490.919 463.564 488.884 461.979 489.337ZM280.042 492.275C273.522 492.666 261.107 496.171 259.229 503.681C257.211 511.754 264.73 527.181 267.448 535.337C268.43 538.281 269.086 542.792 270.948 545.275C274.373 549.841 276.718 551.15 282.386 551.15C287.322 551.15 303.07 544.448 304.073 539.431C305.647 531.565 300.395 521.679 297.917 514.244C294.279 503.33 293.861 491.445 280.042 492.275ZM278.573 502.525C284.88 501.9 285.404 508.923 287.073 513.931C289.215 520.357 294.08 528.783 293.511 535.619C293.312 537.997 286.87 540.423 284.729 540.587C277.176 541.168 273.905 523.114 271.823 516.869C270.92 514.16 268.663 510.036 269.792 507.212C270.997 504.2 275.76 502.804 278.573 502.525ZM244.011 506.025C242.909 505.364 237.793 508.993 236.667 509.556C231.055 512.362 224.842 515.75 219.104 518.619C217.09 519.626 213.49 520.973 212.073 522.744C211.497 523.464 215.906 530.072 216.479 530.931C220.307 529.018 223.749 527.015 227.604 525.087C230.24 527.723 230.709 532.123 232.886 535.025C237.348 540.975 240.411 548.981 243.698 555.556C245.086 558.331 246.815 564.23 249.292 566.087C249.705 566.397 257.162 562.083 258.073 561.4C251.157 547.568 243.905 534.25 236.979 520.4C240.148 517.232 245.277 517.352 248.386 514.244C247.425 512.322 245.832 507.118 244.011 506.025ZM511.792 509.556C503.347 510.162 500.71 520.844 497.417 527.431C493.65 534.966 486.292 543.543 486.292 552.306C486.292 558.906 503.879 568.431 510.011 568.431C518.926 568.431 521.832 555.864 525.542 549.681C529.724 542.711 536.104 533.237 536.104 525.087C536.104 517.292 518.344 509.086 511.792 509.556ZM515.792 520.056C517.356 520.31 518.641 521.34 520.261 522.15C522.036 523.038 525.261 524.515 525.261 526.837C525.261 532.658 518.776 540.963 516.167 546.181C514.971 548.572 511.844 557.316 508.854 557.587C506.031 557.845 503.692 556.599 501.511 554.962C500.165 553.953 498.812 553.83 497.729 552.025C495.879 548.941 504.52 535.756 506.198 532.4C507.962 528.872 509.991 520.943 514.136 520.087C514.74 519.963 515.271 519.972 515.792 520.056ZM334.886 562.306C333.869 562.38 332.862 562.555 331.886 562.869C329.27 563.71 329.596 570.062 328.979 572.837C327.387 580.003 325.476 587.1 323.698 594.212C322.528 598.895 321.214 603.562 320.167 608.275C320.038 608.854 318.605 612.01 319.886 612.087C322.908 612.271 325.964 612.354 328.979 612.087C331.475 611.867 329.528 602.899 332.198 602.712C336.095 602.441 340.015 602.527 343.917 602.712C345.635 602.794 344.644 611.956 346.823 612.087C349.845 612.271 352.895 612.27 355.917 612.087C357.384 611.998 355.76 607.741 355.636 607.119C354.592 601.901 352.978 596.782 351.823 591.587C350.15 584.059 348.373 576.418 346.261 569.025C346.033 568.226 345.584 562.932 344.198 562.869C341.125 562.729 337.935 562.086 334.886 562.306ZM338.042 573.712C338.797 573.333 342.975 592.565 342.729 593.056C341.417 595.682 336.878 593.814 333.948 593.619C332.742 593.539 334.079 590.127 334.229 589.525C335.007 586.414 335.765 574.855 338.042 573.712ZM271.261 562.869C270.985 562.889 270.67 563.186 270.667 563.462C270.474 579.477 270.474 595.479 270.667 611.494C270.67 611.77 270.985 612.07 271.261 612.087C274.283 612.271 277.301 612.27 280.323 612.087C280.599 612.071 280.909 611.77 280.917 611.494C281.106 605.344 280.728 599.206 280.917 593.056C280.925 592.78 281.315 592.658 281.511 592.462C285.447 596.399 285.058 604.479 289.136 608.556C293.136 604.556 292.621 596.852 296.729 592.744C296.925 592.939 297.314 593.061 297.323 593.337C297.512 599.291 297.045 605.262 297.323 611.212C297.343 611.626 297.786 612.05 298.198 612.087C301.116 612.353 304.055 612.271 306.979 612.087C307.255 612.07 307.57 611.77 307.573 611.494C307.766 595.479 307.766 579.477 307.573 563.462C307.57 563.186 307.255 562.89 306.979 562.869C304.643 562.689 302.278 562.61 299.948 562.869C298.735 563.003 297.432 567.737 297.042 568.712C295.078 573.624 292.84 582.601 289.136 586.306C285.943 583.114 283.461 572.674 281.198 568.15C280.82 567.394 279.569 562.942 278.573 562.869C276.139 562.688 273.695 562.688 271.261 562.869ZM369.104 562.869C368.828 562.872 368.514 563.186 368.511 563.462C368.318 579.477 368.318 595.479 368.511 611.494C368.514 611.77 368.829 612.07 369.104 612.087C372.028 612.27 374.968 612.353 377.886 612.087C378.298 612.05 378.548 611.568 378.761 611.212C380.971 607.528 378.556 602.598 378.761 598.306C378.774 598.03 379.078 597.756 379.354 597.744C384.635 597.504 398.997 599.858 399.292 589.806C399.476 583.558 399.573 577.307 399.573 571.056C399.573 567.32 395.284 563.24 391.667 563.15C384.149 562.964 376.624 562.773 369.104 562.869ZM382.573 571.744C383.847 571.723 385.128 571.789 386.386 571.962C386.644 571.998 386.667 572.243 386.792 572.4C388.486 571.39 390.426 573.779 389.886 575.556C390.01 575.771 390.141 575.963 390.198 576.337C390.817 580.359 391.142 588.451 387.854 588.65C384.833 588.833 381.783 588.833 378.761 588.65C378.485 588.633 378.208 588.332 378.198 588.056C378.01 582.883 378.01 577.697 378.198 572.525C378.208 572.249 378.485 571.982 378.761 571.962C380.027 571.872 381.3 571.764 382.573 571.744ZM413.917 562.869C413.641 562.885 413.358 563.186 413.354 563.462C413.162 579.477 413.161 595.479 413.354 611.494C413.358 611.77 413.641 612.082 413.917 612.087C422.802 612.278 431.688 612.279 440.573 612.087C440.849 612.081 441.149 611.77 441.167 611.494C441.349 608.668 441.35 605.82 441.167 602.994C441.153 602.774 440.269 602.123 440.011 602.119C434.738 602.025 429.437 602.307 424.167 602.119C423.891 602.109 423.608 601.801 423.604 601.525C423.412 588.831 423.797 576.156 423.604 563.462C423.6 563.186 423.287 562.886 423.011 562.869C419.989 562.686 416.939 562.686 413.917 562.869ZM453.479 562.869C453.203 562.874 452.889 563.186 452.886 563.462C452.693 579.477 452.693 595.479 452.886 611.494C452.889 611.77 453.204 612.082 453.479 612.087C462.657 612.279 471.833 612.279 481.011 612.087C481.287 612.082 481.586 611.77 481.604 611.494C481.787 608.668 481.787 605.82 481.604 602.994C481.59 602.775 480.676 602.124 480.417 602.119C474.754 602.024 469.109 602.307 463.448 602.119C463.172 602.109 462.874 601.801 462.854 601.525C462.674 598.992 462.854 596.47 462.854 593.931C462.854 593.541 462.68 593.093 462.854 592.744C462.978 592.497 463.172 592.164 463.448 592.15C467.252 591.964 471.05 592.336 474.854 592.15C475.13 592.136 475.43 591.863 475.448 591.587C475.631 588.761 475.631 585.914 475.448 583.087C475.43 582.812 475.13 582.507 474.854 582.494C471.05 582.308 467.252 582.679 463.448 582.494C463.172 582.48 462.872 582.175 462.854 581.9C462.672 578.976 462.672 576.043 462.854 573.119C462.872 572.843 463.172 572.534 463.448 572.525C469.305 572.336 475.154 572.714 481.011 572.525C482.912 572.464 482.868 562.907 481.011 562.869C471.833 562.677 462.657 562.677 453.479 562.869ZM389.886 575.556C389.331 574.599 388.267 574.861 387.573 573.994C387.252 573.593 387.167 572.871 386.792 572.4C386.659 572.479 386.512 572.398 386.386 572.525C387.138 574.029 388.294 575.289 389.604 576.337C389.82 576.122 389.804 575.826 389.886 575.556ZM465.261 625.837C462.077 625.951 458.736 626.359 455.542 626.744C446.913 627.783 447.917 636.126 447.917 644.025C447.917 652.997 467.237 653.255 471.042 658.962C472.019 660.427 471.354 662.483 471.354 664.244C471.354 666.969 463.901 665.994 459.917 665.994C457.032 665.994 459.245 661.126 457.573 661.025C454.551 660.842 451.533 660.842 448.511 661.025C448.235 661.042 447.941 661.312 447.917 661.587C446.416 678.853 459.721 675.65 473.386 675.65C481.949 675.65 483.681 659.195 480.729 654.275C476.738 647.623 457.526 645.201 458.167 638.15C458.478 634.728 465.871 636.297 469.604 636.4C472.363 636.477 470.38 640.993 471.948 641.087C474.97 641.271 477.989 641.27 481.011 641.087C481.286 641.071 481.576 640.768 481.604 640.494C482.951 627.699 474.812 625.495 465.261 625.837ZM370.511 626.181C369.444 626.253 368.385 626.441 367.354 626.744C364.928 627.457 365.163 634.385 364.417 636.994C361.775 646.241 359.435 655.558 356.792 664.806C356.33 666.424 353.342 675.594 354.448 675.962C357.414 676.951 360.712 675.961 363.823 675.65C365.571 675.475 364.822 666.665 366.761 666.587C371.444 666.4 376.139 666.4 380.823 666.587C381.905 666.631 382.36 674.012 383.167 675.087C385.113 677.683 390.072 675.581 392.261 675.65C392.569 675.66 392.833 676.023 393.136 675.962C394.623 675.665 392.746 671.498 392.542 670.681C391.365 665.972 389.906 661.328 388.729 656.619C386.82 648.981 384.736 641.346 382.573 633.775C382.327 632.913 381.286 626.789 380.229 626.744C377.01 626.604 373.71 625.967 370.511 626.181ZM373.792 637.275C377.832 638.101 377.198 648.523 378.198 652.525C378.425 653.431 379.775 656.059 379.354 656.9C379.231 657.147 379.037 657.478 378.761 657.494C375.543 657.678 372.322 657.678 369.104 657.494C367.726 657.415 369.196 654.065 369.386 653.4C370.318 650.138 371.125 636.729 373.792 637.275ZM434.729 626.431C424.963 626.396 415.179 626.457 405.417 626.744C405.141 626.752 404.858 627.03 404.854 627.306C404.662 643.223 404.661 659.17 404.854 675.087C404.858 675.364 405.141 675.633 405.417 675.65C408.341 675.833 411.306 675.833 414.229 675.65C414.505 675.633 414.784 675.363 414.792 675.087C414.981 668.938 414.603 662.768 414.792 656.619C414.8 656.343 415.11 656.036 415.386 656.025C419.972 655.838 424.585 656.3 429.167 656.025C429.581 656 430.002 655.563 430.042 655.15C430.305 652.428 430.305 649.684 430.042 646.962C430.002 646.55 429.581 646.081 429.167 646.056C424.585 645.781 419.972 646.243 415.386 646.056C415.11 646.045 414.81 645.77 414.792 645.494C414.61 642.668 414.609 639.82 414.792 636.994C414.81 636.718 415.11 636.407 415.386 636.4C422.024 636.21 428.685 636.589 435.323 636.4C435.599 636.392 435.868 636.082 435.886 635.806C436.068 632.98 436.068 630.132 435.886 627.306C435.861 626.924 435.028 626.433 434.729 626.431ZM271.261 626.744C270.985 626.76 270.67 627.03 270.667 627.306C270.474 643.223 270.474 659.17 270.667 675.087C270.67 675.364 270.985 675.644 271.261 675.65C280.634 675.841 290.013 675.841 299.386 675.65C299.662 675.644 299.93 675.363 299.948 675.087C300.131 672.261 300.131 669.414 299.948 666.587C299.597 661.149 280.997 670.678 280.917 665.4C280.725 652.706 281.109 640 280.917 627.306C280.913 627.03 280.599 626.761 280.323 626.744C277.301 626.561 274.283 626.561 271.261 626.744ZM312.573 626.744C312.297 626.749 311.983 627.03 311.979 627.306C311.787 643.223 311.786 659.17 311.979 675.087C311.983 675.364 312.297 675.644 312.573 675.65C322.435 675.841 332.274 675.841 342.136 675.65C343.99 675.614 344.027 666.049 342.136 665.994C335.596 665.804 329.051 666.183 322.511 665.994C321.5 665.964 321.491 663.022 321.948 656.619C322.266 652.168 336.6 659.867 336.886 655.431C337.068 652.605 337.15 649.782 336.886 646.962C336.847 646.55 336.424 646.082 336.011 646.056C331.527 645.782 326.999 646.243 322.511 646.056C322.235 646.045 321.966 645.769 321.948 645.494C321.766 642.668 321.766 639.82 321.948 636.994C321.966 636.718 322.235 636.407 322.511 636.4C329.051 636.21 335.595 636.59 342.136 636.4C344.027 636.345 343.99 626.779 342.136 626.744C332.274 626.552 322.435 626.553 312.573 626.744ZM382.886 698.806C376.021 698.806 366.828 702.642 362.948 708.462C354.841 703.058 342.384 698.73 332.761 700.869C327.259 702.091 320.83 707.663 315.479 707.306C310.671 706.986 306.005 706.431 301.136 706.431C295.534 706.431 271.992 709.481 267.448 714.025C269.105 715.681 275.762 713.08 277.979 712.587C287.69 710.43 297.659 709.931 307.573 709.931C309.549 709.931 310.221 709.954 311.386 711.119C308.287 714.218 300.792 719.095 296.448 720.181C294.925 720.562 292.109 721.613 290.886 722.837C292.562 724.514 297.624 721.656 299.386 720.775C308.529 716.203 317.823 711.462 327.511 707.587C336.328 704.061 348.356 704.643 356.198 710.525C357.249 711.313 360.005 711.952 360.604 713.15C361.668 715.277 358.303 718.191 360.604 720.494C364.004 717.094 364.464 712.009 369.386 709.056C384.227 700.151 405.009 706.645 420.667 711.119C422.802 711.729 424.837 714.302 426.823 715.494C431.919 718.551 437.016 721.527 442.636 723.4C444.398 723.987 448.574 726.243 449.948 724.869C448.222 723.142 444.367 722.219 442.042 721.056C437.899 718.985 434.196 716.326 430.323 713.744C431.691 712.376 435.12 713.639 436.792 713.744C438.938 713.878 441.082 713.914 443.229 714.025C448.68 714.304 474.214 714.416 479.854 708.775C477.882 706.803 468.076 709.739 465.479 709.931C458.075 710.48 450.654 710.525 443.229 710.525C437.201 710.525 430.514 708.637 424.761 706.994C411.078 703.084 397.235 698.806 382.886 698.806Z" fill="#ffffff" fill-rule="nonzero" opacity="1" stroke="none"/>
</g>
</svg>
