<?xml version="1.0" encoding="UTF-8" standalone="no"?>
<!DOCTYPE svg PUBLIC "-//W3C//DTD SVG 1.1//EN" "http://www.w3.org/Graphics/SVG/1.1/DTD/svg11.dtd">
<!-- Created with Vectornator (http://vectornator.io/) -->
<svg height="100%" stroke-miterlimit="10" style="fill-rule:nonzero;clip-rule:evenodd;stroke-linecap:round;stroke-linejoin:round;" version="1.1" viewBox="0 0 1500 1090" width="100%" xml:space="preserve" xmlns="http://www.w3.org/2000/svg" xmlns:vectornator="http://vectornator.io" xmlns:xlink="http://www.w3.org/1999/xlink">
<defs/>
<g id="Layer-1" vectornator:layerName="Layer 1">
<path d="M449.451 152.766C317.213 152.766 210.011 259.967 210.011 392.206L210.011 697.794C210.011 830.033 317.213 937.234 449.451 937.234L1050.55 937.234C1182.79 937.235 1289.99 830.033 1289.99 697.794L1289.99 392.206C1289.99 259.967 1182.79 152.766 1050.55 152.766L449.451 152.766ZM452.354 170.765L1047.65 170.765C1171.54 170.765 1271.99 271.212 1271.99 395.108L1271.99 505.513C1271.99 505.513 1127.32 529.294 948.513 561.267C769.71 593.241 760.953 591.025 749.01 590.652C737.067 590.278 728.468 579.087 728.468 579.087L514.902 406.898L485.113 486.816L663.174 624.783C663.174 624.783 684.267 641.012 696.159 642.333C708.05 643.654 740.145 633.536 740.145 633.536L1271.99 546.822L1271.99 694.892C1271.99 818.788 1171.54 919.235 1047.65 919.235L452.354 919.235C328.458 919.235 228.011 818.788 228.011 694.892L228.011 395.108C228.011 271.212 328.458 170.765 452.354 170.765ZM458.248 231.514C366.971 231.514 292.967 305.518 292.967 396.796L292.967 694.802C292.967 786.08 366.971 860.061 458.248 860.061L1044.07 860.061C1135.35 860.061 1209.35 786.08 1209.35 694.802L1209.35 613.646L1127.23 635.628L1127.23 685.172C1127.23 735.351 1086.55 776.048 1036.37 776.048L461.623 776.048C411.444 776.048 370.77 735.352 370.77 685.172L370.77 406.38C370.77 356.201 411.444 315.505 461.623 315.505L1036.37 315.505C1086.55 315.505 1127.23 356.201 1127.23 406.38L1127.23 465.127L1209.35 446.655L1209.35 396.796C1209.35 305.518 1135.35 231.514 1044.07 231.514L458.248 231.514Z" fill="#ffffff" fill-rule="nonzero" opacity="1" stroke="none" vectornator:layerName="Curve 1"/>
</g>
</svg>
