<?xml version="1.0" encoding="UTF-8" standalone="no"?>
<!DOCTYPE svg PUBLIC "-//W3C//DTD SVG 1.1//EN" "http://www.w3.org/Graphics/SVG/1.1/DTD/svg11.dtd">
<!-- Created with Vectornator (http://vectornator.io/) -->
<svg height="100%" stroke-miterlimit="10" style="fill-rule:nonzero;clip-rule:evenodd;stroke-linecap:round;stroke-linejoin:round;" version="1.1" viewBox="0 0 750 1000" width="100%" xml:space="preserve" xmlns="http://www.w3.org/2000/svg" xmlns:vectornator="http://vectornator.io" xmlns:xlink="http://www.w3.org/1999/xlink">
<defs/>
<g id="Layer-1" vectornator:layerName="Layer 1">
<path d="M369.025 210.949C360.702 210.965 349.698 212.876 341.213 214.761C338.46 215.373 340.032 221.351 340.025 221.793C339.907 229.717 339.755 235.577 339.432 243.168C338.435 266.586 337.011 290.737 332.4 313.793C331.589 317.848 329.715 332.283 326.244 334.886C322.69 337.552 317.488 339.396 313.369 341.043C304.568 344.563 296.116 348.925 287.307 352.449C283.143 354.114 276.856 358.011 272.338 358.011C270.887 358.011 259.707 349.403 257.713 348.074C244.483 339.254 231.378 330.206 218.15 321.386C216.145 320.049 205.147 311.731 203.807 311.73C201.844 311.73 203.836 316.414 204.088 317.293C205.624 322.671 207.239 328.04 208.775 333.418C211.373 342.511 214.084 351.575 216.682 360.668C217.95 365.106 218.709 370.285 220.775 374.418C216.88 378.313 210.017 380.948 205.275 383.793C195.362 389.741 185.857 396.797 176.838 404.011C164.918 413.548 153.631 423.994 143.15 435.074C120.421 459.102 99.2563 488.839 86.9003 519.73C83.7659 527.566 80.2054 535.124 77.5253 543.168C76.9671 544.842 75.292 547.825 75.1816 549.324C74.5788 557.461 77.3062 566.243 79.5878 574.23C84.1264 590.115 90.4639 604.718 96.5566 619.949C101.829 633.13 110.12 645.685 117.963 657.449C155.326 713.493 209.061 749.711 271.463 770.511C321.461 787.177 375.476 789.563 427.338 788.98C434.135 788.904 443.758 788.538 450.775 786.918C452.294 786.567 457.091 786.202 458.682 786.043C461.71 785.74 464.769 785.348 467.775 784.886C478.761 783.196 489.733 781.424 500.588 779.011C540.497 770.143 580.843 756.758 615.994 735.668C624.699 730.445 633.474 725.471 641.775 719.543C644.381 717.682 648.695 715.63 650.588 713.105C650.87 712.729 644.231 698.667 643.557 696.98C636.727 679.906 627.824 663.677 620.994 646.605C616.549 635.491 610.783 624.905 606.338 613.793C604.674 609.633 602.746 602.576 599.588 599.418C551.793 623.315 496.844 635.662 443.744 638.98C426.217 640.076 408.72 639.969 391.307 637.793C349.552 632.573 304.213 613.04 284.369 573.355C285.758 571.966 287.574 573.011 289.65 573.074C294.825 573.228 299.974 573.27 305.15 573.355C326.018 573.7 350.919 575.755 371.682 569.824C381.486 567.023 391.324 560.002 400.369 555.48C421.704 544.813 444.495 533.714 466.588 522.668C474.791 518.566 483.01 514.457 491.213 510.355C493.992 508.966 498.324 505.668 501.463 505.668C503.525 505.668 506.189 507.161 508.182 507.73C516.246 510.034 524.424 512.521 532.213 515.636C562.15 527.611 590.213 540.388 613.963 563.105C628.43 548.638 641.37 532.398 654.963 517.105C662.175 508.992 674.875 495.646 674.9 483.418C674.91 478.959 674.893 474.501 674.9 470.043C671.953 453.625 659.101 442.547 649.213 434.855C644.154 430.92 640.916 429.011 639.525 427.918C639.286 427.158 638.919 426.145 638.213 424.73C635.812 419.928 632.862 415.666 630.119 412.011C616.929 394.424 600.417 384.782 585.119 375.605C583.753 374.786 580.381 371.586 573.713 369.918C572.197 369.539 567.798 366.656 560.557 363.761C552.422 360.507 544.228 357.141 535.932 353.824C522.933 348.624 509.36 344.67 497.182 339.855C484.955 335.02 474.515 329.435 467.119 322.043C467.119 322.043 466.253 320.365 464.807 316.074C463.422 311.965 462.249 307.372 461.307 304.074C457.937 292.278 454.238 280.928 451.057 269.793C448.136 259.573 445.816 248.441 439.869 237.699C433.753 226.65 423.403 217.204 407.744 212.73C404.862 211.907 401.977 211.352 399.15 210.949C389.109 210.961 379.067 210.93 369.025 210.949ZM375.182 224.136C384.02 224.136 394.887 223.624 403.9 226.199C428.385 233.195 431.452 252.16 437.588 273.636C440.864 285.103 444.562 296.452 447.838 307.918C449.546 313.895 452.907 327.643 457.213 331.949C476.208 350.944 506.534 357.14 530.744 366.824C538.962 370.11 547.154 373.475 555.369 376.761C560.299 378.733 565.218 382.239 570.307 383.511C572.688 384.107 575.804 386.328 577.932 387.605C593.374 396.87 607.707 405.452 618.932 420.418C621.377 423.678 623.873 427.364 625.682 430.98C626.342 432.302 626.855 435.249 627.713 436.23C631.054 440.049 636.613 442.802 640.619 445.918C653.734 456.119 664.65 466.546 660.838 483.699C659.97 487.602 658.756 491.883 656.432 495.136C652.778 500.251 648.028 504.797 643.838 509.48C633.893 520.595 624.59 533.349 613.369 543.168C589.177 522.431 559.748 512.582 530.744 500.98C523.675 498.153 516.116 496.046 508.775 493.949C506.167 493.204 502.694 491.324 499.994 491.324C497.056 491.324 492.638 494.705 490.025 496.011C482.018 500.015 474.002 504.007 465.994 508.011C443.728 519.144 421.478 530.285 399.213 541.418C392.182 544.933 385.15 548.465 378.119 551.98C374.499 553.789 370.644 556.35 366.682 557.23C343.557 562.369 318.564 560.315 295.213 559.886C287.304 559.742 279.362 559.406 271.463 559.011C270.276 558.952 265.957 557.767 264.432 559.293C266.394 563.217 268.376 568.851 269.432 573.074C271.418 581.021 280.793 593.083 285.838 599.136C332.461 655.084 412.024 657.824 478.588 648.949C509.037 644.889 538.597 636.946 567.65 627.261C574.181 625.085 580.611 622.502 586.994 619.949C588.496 619.348 592.523 616.539 593.744 618.168C597.864 623.661 601.629 635.302 604.275 641.918C610.31 657.002 618.178 671.362 624.213 686.449C626.435 692.004 629.302 697.298 631.525 702.855C631.861 703.696 634.603 707.962 634.182 708.699C632.754 711.197 627.281 713.652 624.807 715.136C614.927 721.065 605.204 726.984 594.9 732.136C549.358 754.908 499.146 768.659 448.432 773.73C327.268 785.846 190.815 753.077 124.119 641.918C112.407 622.398 102.625 602.654 95.4003 580.98C92.7122 572.916 88.3691 562.541 88.3691 554.011C88.3688 546.25 95.66 534.159 98.6191 526.761C110.144 497.949 129.373 470.48 149.9 447.386C170.381 424.346 196.55 401.624 224.588 387.605C225.43 388.447 225.385 390.714 226.369 391.136C229.405 392.437 235.522 390.634 237.775 392.886C234.268 396.393 226.796 398.343 222.244 401.074C213.213 406.492 204.358 412.043 195.9 418.386C185.299 426.338 175.424 435.107 166.307 444.73C144.183 468.083 122.437 496.825 110.338 527.074C107.693 533.687 104.486 540.079 101.838 546.699C101.098 548.548 99.2128 551.432 99.2128 553.418C99.2127 561.746 103.316 571.351 105.932 579.199C113.288 601.268 123.49 622.239 136.4 641.605C216.425 761.644 370.735 782.85 502.619 753.543C522.929 749.029 543.118 742.506 562.4 734.793C570.197 731.673 579.716 725.604 587.588 723.636C591.386 722.687 595.628 720.112 599.025 718.074C605.992 713.895 614.883 710.998 620.682 705.199C611.699 687.233 603.236 668.164 595.775 649.511C593.909 644.847 591.515 640.424 589.65 635.761C589.227 634.705 588.603 631.668 587.307 631.668C584.946 631.668 581.037 634.276 578.807 635.168C571.384 638.136 563.63 640.874 555.932 643.074C535.21 648.994 514.555 654.46 493.244 658.011C475.017 661.05 456.067 663.574 437.588 663.574C374.291 663.574 314.215 654.067 274.119 600.605C266.16 589.993 260.541 578.551 255.65 566.324C249.985 552.16 248.792 537.6 249.807 522.386C250.236 515.949 250.336 506.358 253.307 500.418C252.267 499.379 241.635 504.261 239.525 505.105C228.379 509.564 217.295 514.116 206.15 518.574C202.656 519.971 195.791 521.308 193.244 523.855C195.978 526.785 198.728 529.707 201.463 532.636C199.065 535.034 192.98 536.029 189.744 537.324C180.585 540.987 170.942 544.662 162.182 549.043C160.855 547.052 165.241 541.798 166.307 539.668C171.093 530.095 177.052 521.115 181.838 511.543C178.452 508.157 170.135 512.465 166.869 509.199C179.231 498.897 192.4 489.261 205.275 479.605C211.371 475.034 220.346 470.146 224.9 464.074C220.353 459.526 210.022 461.227 205.557 456.761C207.107 455.211 211.046 455.407 213.182 454.98C219.582 453.7 226.051 452.835 232.494 451.761C234.696 451.395 239.799 451.519 241.307 450.011C238.59 444.58 237.233 438.365 234.557 433.011C235.661 432.275 252.661 440.866 254.494 442.699C257.651 439.542 258.829 431.15 260.057 426.855C263.171 415.954 267.562 405.334 270.307 394.355C270.359 394.143 270.433 393.916 270.588 393.761C275.422 388.927 280.377 384.218 285.244 379.418C287.506 377.187 289.843 375.005 291.994 372.668C292.471 372.149 285.916 368.058 285.244 367.386C288.486 364.145 295.337 362.931 299.588 361.23C307.59 358.029 316.185 352.776 324.494 350.699C327.511 349.944 332.504 347.657 334.744 345.418C338.682 341.48 340.584 336.024 342.088 330.761C351.718 297.054 350.449 261.623 353.213 227.074C353.296 226.033 356.718 225.927 357.025 225.886C362.981 225.093 369.171 224.136 375.182 224.136ZM214.338 328.418C219.479 330.989 224.313 335.043 228.994 338.386C240.457 346.574 252.148 354.604 263.869 362.418C266.772 364.353 280.894 372.837 281.713 375.293C281.805 375.571 275.438 383.972 274.682 384.98C273.174 386.99 270.024 393.252 267.65 394.043C266.422 394.452 261.948 392.625 260.619 392.293C253.88 390.608 247.169 389.008 240.432 387.324C238.695 386.89 233.853 386.657 232.807 385.261C230.194 381.778 229.74 375.564 228.119 371.511C222.666 357.88 220.261 342.045 213.744 329.011C214.037 328.718 214.045 328.711 214.338 328.418ZM258.588 395.824C259.339 398.075 257.269 401.781 256.525 404.011C254.522 410.022 252.422 416.075 250.682 422.168C249.947 424.744 249.299 429.143 247.463 430.98C240.485 427.491 233.623 423.276 226.932 419.261C224.869 418.024 222.048 416.865 220.15 415.386C221.409 416.816 222.183 419.093 222.838 420.73C225.401 427.139 229.124 433.303 232.213 439.48C232.987 441.031 236.732 446.299 234.557 447.386C232.519 448.404 229.17 448.448 226.932 448.855C218.814 450.332 210.71 451.924 202.619 453.543C200.029 454.061 193.553 454.109 191.775 455.886C197.223 461.334 212.137 461.28 217.557 466.699C203.188 479.014 187.015 489.621 171.869 500.98C166.425 505.063 159.957 508.767 155.15 513.574C156.764 515.187 165.385 513.886 168.338 513.886C169.302 516.778 164.226 523.859 162.775 526.761C158.909 534.493 155.503 542.169 153.119 550.511C151.712 555.439 150.381 561.519 148.119 566.043C150.256 568.181 157.202 567.681 160.15 568.074C168.143 569.139 176.173 570.069 184.182 571.011C187.613 571.414 192.035 571.233 195.307 572.168C196.5 572.508 193.859 580.333 193.557 581.543C191.527 589.662 189.387 597.839 187.088 605.886C186.441 608.149 186.355 611.164 185.338 613.199C185.631 613.492 185.639 613.5 185.932 613.793C191.707 610.904 197.715 608.463 203.494 605.574C204.535 605.053 208.611 602.429 209.65 602.949C211.316 603.782 212.088 609.981 212.588 611.73C215.179 620.798 217.622 629.913 220.213 638.98C221.085 642.032 222.317 645.229 222.838 648.355C222.892 648.683 222.587 649.81 223.432 649.824C229.388 649.92 235.349 649.575 241.307 649.511C243.037 649.492 249.149 647.311 251.244 650.105C251.376 650.279 251.549 650.481 251.557 650.699C251.898 660.557 251.209 670.449 251.838 680.293C251.894 681.156 257.166 683.378 257.994 683.793C264.851 687.221 271.629 690.89 278.807 693.761C313.13 707.491 350.771 718.386 388.088 718.386C403.823 718.387 419.336 718.093 434.963 716.605C453.858 714.806 472.683 711.942 491.213 707.824C494.17 707.167 504.07 705.795 508.557 704.168C509.483 703.831 538.963 697.941 538.963 695.824C538.963 693.706 509.491 702.691 508.588 702.73C505.625 702.86 500.476 704.553 498.807 704.886C487.192 707.209 475.408 708.784 463.65 710.168C424.632 714.759 384.087 714.036 345.588 705.48C332.987 702.681 320.102 699.442 308.088 694.636C301.838 692.138 294.941 688.068 288.463 686.449C281.863 684.798 272.949 679.532 267.65 675.293C266.004 673.977 266.044 670.768 265.619 668.855C264.166 662.315 262.527 655.799 261.213 649.23C260.996 648.149 260.133 641.162 259.182 641.043C254.569 640.465 248.301 642.493 243.65 643.074C242.233 643.251 237.265 644.671 236.307 643.074C234.042 639.3 232.976 634.295 231.338 630.199C228.294 622.59 225.288 614.933 222.244 607.324C220.873 603.895 219.789 597.838 217.275 595.324C215.033 596.446 198.506 601.148 197.65 600.293C201.342 592.909 202.694 583.359 204.963 575.418C205.409 573.858 208.034 568.317 206.15 567.48C203.86 566.462 200.41 566.493 197.932 566.043C189.526 564.514 181.149 562.883 172.744 561.355C170.161 560.886 162.649 560.712 161.307 558.699C167.882 554.315 177.155 546.291 184.182 543.48C190.832 540.82 197.719 538.796 204.369 536.136C205.358 535.741 208.398 535.326 209.057 534.668C210.534 533.189 206.714 526.763 205.838 525.011C209.144 521.706 222.297 519.036 227.244 517.386C228.416 516.996 229.572 516.621 230.744 516.23C231.865 515.857 240.004 512.622 240.119 513.886C240.55 518.624 238.963 524.045 238.963 528.824C238.962 537.578 239.695 546.089 241.588 554.605C252.592 604.125 291.949 641.387 337.963 659.793C390.939 680.984 452.183 675.608 507.025 665.636C525.61 662.257 544.176 657.545 562.088 651.574C566.982 649.942 571.857 648.234 576.744 646.605C577.859 646.234 581.266 644.196 582.307 644.543C583.494 644.938 587.823 656.168 588.744 658.011C595.747 672.019 600.844 687.148 607.807 701.074C578.249 720.779 539.128 733.845 504.963 742.386C483.607 747.725 461.887 751.633 439.932 753.543C348.682 761.478 239.908 742.3 174.213 672.074C150 646.192 131.887 617.979 118.838 585.355C115.851 577.888 110.057 564.124 110.057 556.355C110.057 546.503 120.294 535.312 122.65 525.886C124.607 518.062 130.821 509.665 134.963 502.761C149.122 479.162 165.977 458.071 186.525 439.48C193.491 433.178 200.856 427.342 208.494 421.886C211.885 419.464 216.409 417.502 219.338 414.574C219.409 414.621 219.457 414.709 219.525 414.761C228.186 409.002 237.329 404.015 246.869 400.199C250.305 398.825 254.846 395.824 258.588 395.824ZM393.338 264.261C392.426 265.173 392.025 270.159 393.244 271.699C393.377 271.468 393.453 271.208 393.65 271.011C393.726 271.062 393.767 271.17 393.838 271.23C395.215 269.548 394.619 265.542 393.338 264.261ZM393.838 271.23C393.662 271.444 393.585 271.763 393.338 271.886C393.297 271.846 393.281 271.746 393.244 271.699C392.251 273.424 392.815 275.96 392.775 278.043C392.717 281.071 392.567 284.109 392.463 287.136C391.981 301.111 392.675 316.755 389.244 330.48C387.102 339.047 374.162 343.682 367.557 348.636C369.056 350.136 373.56 347.711 375.463 347.168C382.112 345.268 389.088 343.393 395.994 342.793C403.603 342.131 411.356 343.777 418.838 345.136C420.595 345.456 425.533 347.223 426.744 346.011C421.723 340.991 405.576 338.433 403.588 330.48C399.918 315.802 398.046 300.724 396.275 285.668C395.884 282.339 396.51 273.492 393.838 271.23ZM330.369 372.386C320.072 377.535 309.811 383.721 299.9 389.668C292.051 394.377 283.492 398.055 275.869 403.136C279.855 411.108 283.064 419.981 286.4 428.324C287.492 431.052 288.442 435.334 290.525 437.418C295.78 433.477 299.716 423.744 303.119 418.074C312.159 403.007 321.5 387.878 331.244 373.261C330.805 372.822 330.809 372.826 330.369 372.386ZM319.525 385.855C313.331 394.114 307.057 402.361 301.057 410.761C297.394 415.889 293.794 421.837 289.338 426.293C287.653 424.608 287.506 420.378 286.994 418.074C286.542 416.039 283.686 406.252 284.369 404.886C285.581 402.462 301.594 395.133 304.869 393.168C307.139 391.805 318.169 384.951 319.525 385.855ZM529.182 396.105C522.677 396.043 517.557 398.015 517.557 406.355C517.557 420.24 540.152 429.803 551.557 433.605C565.887 438.382 580.623 439.699 595.494 441.824C609.61 443.84 624.733 451.186 636.213 459.386C640.441 462.407 644.37 466.033 647.057 470.511C648.248 472.497 648.454 475.721 649.994 477.261C650.005 477.251 650.044 477.241 650.057 477.23C650.301 476.706 650.524 476.138 650.869 475.793C651.025 475.9 651.061 476.214 651.182 476.386C651.528 476.174 651.943 475.999 652.025 475.793C653.024 473.295 649.215 467.821 647.65 466.136C641.909 459.953 636.121 455.263 629.494 450.293C626.884 448.335 622.565 443.741 619.525 442.98C614.853 441.812 609.408 442.033 604.588 441.23C591.481 439.046 578.271 436.49 565.9 431.543C559.451 428.963 548.07 424.099 546.275 416.918C544.209 408.651 551.65 409.123 558.275 410.449C569.661 412.726 579.566 419.187 588.369 426.511C588.244 426.388 588.336 426.447 588.182 426.293C588.541 425.933 588.711 425.763 588.9 425.574C589.686 421.963 580.274 415.484 577.338 413.386C565.476 404.914 550.52 398.631 536.025 396.699C533.69 396.388 531.35 396.126 529.182 396.105ZM588.9 425.574C588.823 425.928 588.755 426.282 588.463 426.574C589.863 427.952 589.57 427.55 590.807 429.199C591.246 428.759 591.242 428.763 591.682 428.324C591.014 426.99 590.409 426.176 589.338 425.105C589.111 425.332 589.019 425.455 588.9 425.574ZM651.182 476.386C650.709 476.676 650.308 477.005 650.057 477.23C648.892 479.73 648.819 483.711 650.275 485.168C651.81 483.633 652.504 478.287 651.182 476.386ZM310.15 433.605C309.012 432.955 303.091 437.316 301.932 438.011C293.867 442.85 284.551 446.43 277.025 452.074C279.443 454.491 287.927 453.954 291.4 454.418C303.705 456.058 315.999 457.745 328.307 459.386C330.69 459.704 341.297 461.927 342.369 460.855C335.611 454.097 327.744 448.224 320.4 442.105C317.148 439.395 313.824 435.704 310.15 433.605ZM305.463 440.636C307.513 440.636 311.034 443.685 312.775 444.73C318.251 448.016 325.861 450.784 330.369 455.293C328.659 457.003 323.247 454.981 320.994 454.699C312.892 453.686 304.79 452.715 296.682 451.761C293.878 451.432 290.145 452.256 288.182 450.293C290.091 448.86 303.878 440.636 305.463 440.636ZM272.057 444.73C266.266 450.52 257.637 454.339 250.963 459.105C233.066 471.889 214.47 483.819 196.182 496.011C197.89 497.72 211.047 494.691 214.057 494.261C226.93 492.422 239.921 490.712 252.713 488.386C256.776 487.648 262.468 488.019 266.213 486.355C267.428 485.815 269.345 468.401 269.713 465.824C270.089 463.189 273.023 445.697 272.057 444.73ZM265.619 454.105C267.64 455.453 264.582 465.294 264.15 467.886C263.749 470.293 262.913 480.193 261.807 481.668C260.187 483.827 253.761 483.554 251.244 484.011C243.184 485.477 235.03 486.547 226.932 487.793C223.659 488.296 218.065 488.148 215.213 489.574C214.92 489.281 214.943 489.273 214.65 488.98C225.844 480.584 237.85 473.024 249.494 465.261C254.655 461.821 261.238 458.487 265.619 454.105ZM401.588 448.386C399.811 448.573 397.981 449.019 396.869 449.136C389.066 449.958 381.361 451.531 373.713 453.23C335.694 461.679 300.634 486.303 275.275 515.043C268.276 522.975 262.103 531.474 256.244 540.261C255.054 542.047 251.184 546.577 252.432 548.449C259.308 543.292 265.317 536.401 272.057 530.886C284.644 520.587 297.99 511.388 311.9 503.043C322.072 496.94 332.881 492.488 343.838 488.105C349.688 485.765 357.088 485.574 362.588 482.824C367.376 480.43 372.104 475.297 376.369 471.98C386.204 464.331 396.203 456.919 405.932 449.136C405.068 448.273 403.364 448.2 401.588 448.386ZM567.65 453.23C552.252 453.23 536.72 462.615 522.838 468.168C516.81 470.579 502.868 475.856 498.525 480.199C500.078 482.269 505.767 482.639 508.494 483.418C516.959 485.836 525.322 488.537 533.682 491.324C546.524 495.605 558.662 501.253 571.182 506.261C575.792 508.106 581.843 510.297 585.838 513.293C590.836 517.041 597.127 519.709 602.525 522.949C605.713 524.862 608.603 527.769 611.9 529.418C612.763 529.849 620.114 521.216 620.994 520.043C617.102 514.854 608.888 511.898 603.4 508.605C587.739 499.208 570.231 492.531 553.307 485.761C547.717 483.526 541.897 481.841 536.307 479.605C534.669 478.95 532.29 478.776 531.057 477.543C533.638 474.962 544.403 472.397 548.338 470.824C557.146 467.3 566.878 463.199 576.463 463.199C582.31 463.199 592.038 467.904 596.682 471.386C600.559 474.294 605.659 476.223 609.838 478.73C620.136 484.909 630.301 491.404 640.307 498.074C642.674 495.707 644.915 493.3 647.057 490.73C645.646 488.614 642.691 487.241 640.619 485.761C634.455 481.359 628.046 477.062 621.557 473.168C604.471 462.916 588.324 453.23 567.65 453.23ZM570.369 466.636C566.597 466.897 563.134 468.028 560.932 470.23C563.979 473.278 574.151 476.387 578.494 476.386C581.095 476.386 585.336 473.013 587.307 471.699C583.798 468.19 576.656 466.201 570.369 466.636ZM555.65 471.98C552.808 471.98 544.746 475.291 542.775 477.261C543.361 477.847 543.346 477.832 543.932 478.418C545.397 477.685 548.812 479.68 550.369 480.199C557.305 482.511 563.771 487.131 570.307 482.23C571.052 481.671 572.816 481.337 573.244 480.48C574.498 477.972 566.5 476.101 565.025 475.511C562.465 474.487 558.412 471.98 555.65 471.98ZM590.525 472.855C588.082 472.855 583.478 476.724 581.713 478.136C583.511 481.732 594.276 486.043 598.119 486.043C600.17 486.043 603.956 482.485 605.463 481.355C604.697 480.206 591.906 472.855 590.525 472.855ZM577.932 481.074C574.664 482.163 571.123 484.436 568.244 486.355C569.096 487.633 583.997 494.542 585.838 494.543C587.276 494.543 592.558 490.612 593.15 489.574C594.46 487.282 581.991 482.037 577.932 481.074ZM608.088 482.824C605.715 483.417 602.969 486.358 601.057 487.793C602.665 491.01 612.128 496.37 615.713 496.011C617.92 495.791 620.239 492.827 621.869 491.605C621.108 490.464 608.942 482.61 608.088 482.824ZM596.963 491.043C594.345 491.915 591.797 494.294 589.65 496.011C590.302 496.989 604.53 503.917 606.057 503.918C607.475 503.918 612.744 499.481 612.182 498.355C610.637 495.266 602.639 492.562 596.963 491.043ZM624.494 493.074C623.117 493.762 618.628 497.163 618.932 498.074C618.95 498.128 619.431 498.43 619.494 498.511C620.327 498.752 630.827 505.693 631.9 506.793C633.722 505.145 635.351 503.311 637.088 501.574C634.962 498.385 628.535 495.094 624.494 493.074ZM631.9 506.793C631.878 506.812 631.86 506.835 631.838 506.855C631.693 506.986 631.434 506.903 631.244 506.855C629.781 506.49 620.73 500.12 619.494 498.511C619.476 498.506 619.221 498.354 619.213 498.355C618.15 498.568 617.687 499.828 617.025 500.73C617.076 500.728 617.131 500.699 617.182 500.699C618.851 500.699 628.14 507.845 629.494 509.199C629.401 509.339 629.249 509.492 629.15 509.636C629.346 509.789 629.586 509.916 629.775 510.074C630.757 509.201 632.888 508.357 632.4 507.136C632.391 507.113 631.943 506.837 631.9 506.793ZM629.15 509.636C625.276 506.602 620.283 504.394 616.869 500.98C616.929 500.91 616.969 500.807 617.025 500.73C614.1 500.847 611.03 504.258 608.963 505.98C612.541 509.558 618.485 512.772 623.025 515.043C623.221 515.14 623.428 515.461 623.619 515.355C625.806 514.14 627.735 511.703 629.15 509.636Z" fill="#ffffff" fill-rule="nonzero" opacity="1" stroke="none"/>
</g>
</svg>
