<?xml version="1.0" encoding="UTF-8" standalone="no"?>
<!DOCTYPE svg PUBLIC "-//W3C//DTD SVG 1.1//EN" "http://www.w3.org/Graphics/SVG/1.1/DTD/svg11.dtd">
<!-- Created with Vectornator (http://vectornator.io/) -->
<svg height="100%" stroke-miterlimit="10" style="fill-rule:nonzero;clip-rule:evenodd;stroke-linecap:round;stroke-linejoin:round;" version="1.1" viewBox="0 0 750 1000" width="100%" xml:space="preserve" xmlns="http://www.w3.org/2000/svg" xmlns:vectornator="http://vectornator.io" xmlns:xlink="http://www.w3.org/1999/xlink">
<defs/>
<g id="Layer-1" vectornator:layerName="Layer 1">
<path d="M374.692 200.406L369.754 204.656C369.632 204.761 350.729 221.038 339.723 232.594C280.38 232.405 221.004 232.402 161.66 232.594C158.479 232.604 156.549 234.154 155.442 235.344C154.295 236.576 153.133 238.37 153.129 241.188C152.943 367.68 152.475 494.224 153.098 620.781C153.099 620.812 153.096 620.844 153.098 620.875C153.435 628.225 153.737 635.564 153.785 642.844C153.794 644.225 155.769 644.783 156.723 645.781C157.917 647.03 159.076 648.329 160.254 649.594C161.713 651.161 163.159 652.724 164.629 654.281C172.88 663.017 181.32 671.567 189.817 680.062C205.185 695.431 222.241 709.49 239.629 722.531C262.836 739.936 287.575 753.707 312.285 768.531C319.974 773.145 328.394 776.882 336.317 780.844C338.511 781.941 340.404 783.475 342.754 784.062C350.933 786.107 360.404 793.122 368.535 796.375C370.37 797.109 373.356 799.594 375.285 799.594C377.708 799.594 386.969 794.174 389.629 792.844C400.703 787.307 414.283 782.993 424.192 775.562C430.798 770.607 439.647 767.828 446.754 763.562C460.09 755.561 473.249 747.259 486.598 739.25C522.194 717.892 554.747 686.733 583.004 657.219C584.485 655.672 585.917 654.096 587.379 652.531C588.652 651.167 589.928 649.779 591.192 648.406C593.064 646.371 596.736 645.046 596.754 642.281C597.627 506.054 597.046 369.792 596.754 233.562C596.753 233.148 596.294 232.689 595.879 232.688C533.868 232.396 471.857 233.267 409.848 232.688C409.019 232.68 408.697 231.51 408.098 230.938C406.45 229.362 404.758 227.813 403.098 226.25C396.457 220 389.832 213.75 383.192 207.5C381.531 205.937 379.898 204.359 378.223 202.812C377.359 202.015 376.742 200.48 375.567 200.469C375.284 200.466 374.975 200.411 374.692 200.406ZM374.973 210.719L402.16 235.906C402.083 235.825 402.022 235.7 401.942 235.625C404.393 237.931 407.223 240.594 407.223 240.594C407.223 240.594 404.693 244.886 403.598 247.688C402.502 250.49 401.567 255.406 401.567 255.406C401.567 255.406 422.878 262.04 448.098 279.938C473.318 297.835 482.654 315.375 492.692 332.25C502.729 349.126 508.817 379.156 508.817 379.156L397.285 433.969L376.285 501.312L374.973 210.719ZM341.598 240.594C341.873 240.595 342.647 241.06 343.067 240.594C342.647 241.06 343.497 241.618 343.629 241.781C345.434 244.037 348.317 251.468 347.442 254.094C340.905 247.558 336.283 251.469 329.285 254.969C315.854 261.684 302.973 269.573 291.192 279C287.246 282.156 283.53 285.544 279.817 288.969C279.802 288.954 279.801 288.953 279.785 288.938C279.703 289.019 279.617 289.105 279.535 289.188C279.514 289.207 279.495 289.23 279.473 289.25C269.409 299.331 258.993 310.616 252.535 323.531C252.545 323.541 252.557 323.552 252.567 323.562C248.412 327.968 245.921 336.196 243.723 341.688C235.86 361.345 230.903 382.805 230.848 404.094C230.658 476.164 230.566 548.211 230.567 620.281C230.567 622.364 231.385 621.213 230.254 622.344C266.287 658.377 307.436 688.169 352.723 710.812C353.016 710.52 353.024 710.543 353.317 710.25C351.329 706.274 350.591 701.265 348.91 697.062C343.273 682.97 339.611 668.093 333.973 654C317.863 613.726 307.301 571.211 291.192 530.938C286.521 519.261 283.555 506.877 278.879 495.188C271.738 477.336 265.93 458.652 259.848 440.406C258.711 436.997 252.839 423.623 253.692 421.062C276.324 432.379 299.049 442.288 321.66 453.594C328.138 456.833 334.805 459.728 341.285 462.969C342.825 463.739 345.519 464.511 346.567 465.906C347.857 467.627 344.504 477.226 344.504 479.969C344.504 483.803 347.256 488.851 348.317 492.562C356.359 520.711 367.31 548.259 374.41 576.656C375.419 580.69 378.713 589.992 378.713 589.992C378.713 589.992 381.681 583.038 382.004 581.906C383.913 575.226 386.252 568.682 388.16 562C393.802 542.253 400.706 522.841 406.348 503.094C408.762 494.645 412.533 486.236 414.254 477.625C414.49 476.443 413.268 475.764 412.473 474.969C409.494 471.99 406.438 469.118 403.41 466.188C404.902 463.95 408.691 463.266 411.035 462.094C417.655 458.784 424.355 455.185 431.223 452.438C439.034 449.313 446.395 444.977 453.785 441.281C470.975 432.687 489.033 424.969 506.223 416.375C506.972 417.124 501.901 431.65 500.973 433.969C494.06 451.25 488.392 469.338 482.504 487C472.781 516.168 463.452 546.052 452.035 574.594C444.633 593.099 439.812 612.622 432.41 631.125C426.572 645.72 421.85 661.054 416.879 675.969C415 681.607 413.562 690.476 410.129 695.281C406.75 700.012 401.142 703.825 398.379 709C398.631 709.252 398.849 709.47 399.317 709.938C399.227 710.027 440.454 690.689 476.79 664.022C497.415 648.886 513.309 628.758 527.035 615.031C527.19 614.877 527.317 614.656 527.317 614.438C527.414 546.762 527.409 479.081 527.317 411.406C527.244 358.392 509.051 316.36 471.973 279.281C463.097 270.406 452.401 263.889 442.067 257C443.554 255.513 445.64 256.438 447.629 256.438C489.133 256.438 530.657 256.243 572.16 256.438C572.437 256.439 572.754 256.724 572.754 257C572.949 382.488 572.949 507.981 572.754 633.469C572.751 635.334 570.207 636.223 568.942 637.594C567.676 638.965 566.412 640.333 565.129 641.688C562.896 644.044 560.637 646.387 558.379 648.719C549.367 658.027 540.245 667.054 530.567 675.656C507.018 696.588 481.393 715.699 454.379 731.906C442.081 739.285 429.166 745.628 416.879 753C407.427 758.671 397.661 762.485 387.879 767.375C384.204 769.213 378.554 773.219 374.41 773.219C370.951 773.219 365.942 768.957 362.692 767.656C352.322 763.508 342.012 758.143 332.504 752.438C319.615 744.704 306.156 737.898 293.254 730.156C266.71 714.23 241.598 695.134 218.535 674.5C207.711 664.815 197.476 654.597 187.192 644.312C185.677 642.798 184.245 641.192 182.785 639.625C182.514 639.334 177.224 633.646 177.223 633.469C176.543 507.982 177.028 382.487 177.223 257C177.223 256.724 177.541 256.439 177.817 256.438C219.613 256.243 261.425 256.438 303.223 256.438C305.491 256.438 307.872 255.684 309.942 256.719C315.027 251.634 328.629 246.85 335.442 244.125C337.47 243.314 340.62 242.727 342.16 241.188C341.965 240.992 341.873 240.595 341.598 240.594ZM353.598 300.969C353.793 301.164 354.185 301.255 354.192 301.531C354.387 310.319 354.192 319.117 354.192 327.906C354.191 362.965 354.386 398.036 354.192 433.094C354.183 434.679 344.162 429.235 343.067 428.688C335.943 425.126 328.68 421.947 321.66 418.438C307.647 411.431 293.391 405.178 279.473 398.219C274.364 395.664 266.209 393.736 262.192 389.719C263.22 388.69 266.132 390.37 267.473 390.906C272.524 392.926 277.641 394.73 282.692 396.75C297.038 402.488 311.722 407.418 326.067 413.156C332.401 415.69 339.31 417.45 345.41 420.5C347.692 418.219 347.517 398.281 347.754 394.125C349.07 371.09 349.444 347.528 351.848 324.688C352.207 321.278 352.13 302.436 353.598 300.969ZM234.348 450.969C248.368 491.859 263.336 532.308 276.848 572.844C280.049 582.451 283.614 591.924 286.817 601.531C288.076 605.308 291.048 609.612 287.973 612.688C285.765 610.48 284.728 606.215 283.567 603.312C280.414 595.434 276.781 587.755 273.629 579.875C269.845 570.413 265.382 561.212 261.598 551.75C253.731 532.084 247.202 511.469 240.504 491.375C237.254 481.625 235.906 471.618 234.067 461.5C233.56 458.711 230.825 452.143 234.348 450.969ZM514.723 454.188C515.407 454.871 516.322 455.37 516.785 456.219C517.228 457.029 515.771 461.337 515.598 462.375C514.444 469.3 511.833 477.057 511.817 484.062C511.72 525.566 512.298 567.061 511.817 608.562C511.807 609.325 510.852 609.772 510.348 610.344C506.181 615.067 501.737 619.497 497.16 623.812C487.738 632.696 478.329 641.509 468.442 649.875C462.762 654.681 456.131 658.998 450.879 664.25C445.346 669.783 441.763 677.148 436.223 682.688C435.93 682.395 435.922 682.418 435.629 682.125C442.609 668.165 445.36 651.781 451.16 637.281C467.108 597.412 477.4 555.276 493.348 515.406C498.989 501.304 503.483 486.47 508.285 472.062C509.603 468.109 512.194 456.716 514.723 454.188ZM407.223 240.594L402.16 235.906C403.79 237.618 404.915 240.586 407.223 240.594Z" fill="#ffffff" fill-rule="nonzero" opacity="1" stroke="none"/>
</g>
</svg>
