<?xml version="1.0" encoding="UTF-8" standalone="no"?>
<!DOCTYPE svg PUBLIC "-//W3C//DTD SVG 1.1//EN" "http://www.w3.org/Graphics/SVG/1.1/DTD/svg11.dtd">
<!-- Created with Vectornator (http://vectornator.io/) -->
<svg height="100%" stroke-miterlimit="10" style="fill-rule:nonzero;clip-rule:evenodd;stroke-linecap:round;stroke-linejoin:round;" version="1.1" viewBox="0 0 900 900" width="100%" xml:space="preserve" xmlns="http://www.w3.org/2000/svg" xmlns:vectornator="http://vectornator.io" xmlns:xlink="http://www.w3.org/1999/xlink">
<defs/>
<g id="Layer-1" vectornator:layerName="Layer 1">
<path d="M450 150.414C284.543 150.414 150.414 284.543 150.414 450C150.414 615.457 284.543 749.586 450 749.586C615.457 749.586 749.586 615.457 749.586 450C749.586 284.543 615.457 150.414 450 150.414ZM442.677 172.071C484.297 173.784 510.596 177.547 536.298 186.114C542.183 188.076 547.586 189.976 553.274 192.252C554.533 192.755 557.697 193.191 558.246 194.291C558.79 195.378 556.222 198.58 555.625 199.575C553.038 203.887 549.971 208.221 547.719 212.723C538.381 231.399 525.479 248.424 516.117 267.148C510.217 278.948 501.068 289.855 496.228 301.954C494.445 306.411 490.589 310.329 488.905 314.541C486.34 320.952 480.948 326.255 478.377 332.683C475.009 341.103 467.956 348.053 464.626 356.379C460.232 367.364 451.022 376.491 446.775 387.108C445.358 390.651 442.32 393.689 440.638 397.052C436.621 405.085 430.958 412.606 426.886 420.749C418.476 437.57 407.018 452.579 398.509 469.598C391.689 483.238 383.765 498.228 372.17 508.815C360.443 519.522 343.684 513.659 329.749 510.562C308.442 505.827 287.155 501.812 265.983 496.519C253.801 493.473 239.668 488.322 227.058 488.322C223.819 488.322 214.2 488.905 211.558 491.547C203.053 500.052 197.314 512.13 192.252 522.254C190.809 525.14 188.714 532.623 185.823 534.55C182.708 531.435 180.805 518.932 179.665 514.369C173.854 491.125 171.111 466.641 172.654 442.989C173.351 432.296 173.515 421.962 174.984 411.678C183.953 348.895 211.908 293.46 258.077 249.298C271.2 236.746 289.587 220.374 306.053 212.141C312.732 208.801 319.701 204.308 326.254 201.031C331.091 198.613 337.332 196.536 342.045 193.708C349.984 188.944 360.314 187.23 368.966 184.346C392.6 176.468 417.733 173.069 442.677 172.071ZM578.843 203.445C581.335 203.486 584.831 207.083 586.915 208.334C593.403 212.226 599.834 216.08 606.222 220.338C626.737 234.015 644.921 251.104 660.938 269.79C668.427 278.528 677.483 288.525 682.596 298.75C684.428 302.416 687.546 305.448 689.315 308.986C692.817 315.989 696.72 323.54 700.446 329.749C704.637 336.734 706.783 345.01 709.808 352.572C714.679 364.75 718.591 378.095 721.5 391.185C745.525 499.296 701.269 608.241 613.836 673.816C558.186 715.554 486.56 733.658 416.65 725.89C365.034 720.155 316.294 698.552 276.219 666.493C269.871 661.415 263.546 656.171 257.786 650.411C252.569 645.194 247.498 639.807 242.578 634.308C227.464 617.416 213.876 598.602 203.944 578.739C202.976 576.803 195.057 562.228 195.476 561.18C195.579 560.924 195.783 560.598 196.059 560.597C228.534 560.5 261.012 560.76 293.487 560.889C317.77 560.985 342.058 562.09 366.324 561.18C367.029 561.153 368.891 557.108 369.257 556.499C372.14 551.694 374.568 545.917 378.037 541.582C381.406 537.371 385.385 530.513 387.399 525.479C388.71 522.2 391.686 519.287 392.954 516.117C395.443 509.894 400.508 504.795 403.481 498.849C407.897 490.018 413.345 481.536 418.398 473.114C424.189 463.461 432.718 452.085 436.831 441.803C439.392 435.399 444.813 430.315 447.358 423.953C451.18 414.397 459.666 406.247 463.461 396.761C464.307 394.645 466.277 392.876 467.268 390.894C473.395 378.64 483.23 367.363 488.322 354.632C490.282 349.731 494.475 345.55 496.81 340.88C505.599 323.303 518.309 307.266 527.248 289.388C536.459 270.965 549.557 254.381 558.829 235.837C562.411 228.673 567.607 222.11 571.124 215.074C572.927 211.469 574.231 205.491 577.844 203.653C578.152 203.496 578.487 203.439 578.843 203.445ZM326.545 229.7C313.702 229.635 301.535 233.679 290.262 238.188C286.587 239.658 281.641 241.27 278.549 243.743C276.311 245.534 273.211 246.629 270.956 248.133C264.466 252.459 257.998 258.157 252.523 263.632C241.103 275.052 233.432 289.005 227.661 303.432C221.959 317.686 220.766 335.726 222.086 350.242C227.355 408.201 275.047 452.351 333.848 452.351C366.708 452.351 399.443 436.116 419.584 410.222C423.921 404.645 429.265 397.98 431.858 391.497C440.403 370.135 443.912 355.513 443.571 330.644C443.465 322.901 441.144 310.602 437.413 303.14C432.65 293.613 428.905 284.609 422.496 275.637C398.654 242.257 365.979 229.899 326.545 229.7ZM383.821 253.022C384.249 252.989 384.667 253.01 385.048 253.105C386.391 253.441 386.862 257.384 387.108 258.369C388.929 265.656 386.301 270.509 383.3 276.51C377.163 288.785 367.572 299.864 362.517 312.502C360.879 316.596 357.347 320.027 355.797 323.903C353.551 329.518 348.653 334.149 346.435 339.694C346.096 340.541 344.687 341.336 344.687 342.336C344.687 362.754 346.896 382.787 347.891 403.19C348.518 416.046 350.239 428.054 340.88 437.413C337.682 432.616 336.601 426.017 335.013 420.457C332.051 410.091 328.901 400.014 325.963 389.729C325.016 386.416 322.959 375.637 320.97 373.647C319.458 375.159 318.655 377.817 317.475 379.784C314.517 384.714 310.774 389.795 308.695 394.993C307.706 397.465 303.432 401.165 303.432 403.772C303.432 408.729 309.278 414.06 309.278 418.98C309.278 422.797 306.636 432.753 303.723 435.666C300.239 430.44 297.539 423.867 295.235 418.107C294.596 416.51 293.005 410.943 291.427 410.513C287.389 409.412 276.878 411.837 272.121 411.969C269.472 412.043 265.684 413.3 264.215 411.095C266.47 408.465 273.31 399.334 276.219 399.091C280.934 398.698 287.046 398.618 291.719 397.344C293.006 396.993 295.041 391.896 295.817 390.603C300.481 382.829 306.177 375.437 310.151 367.489C309.373 366.71 297.685 369.699 295.526 370.131C282.7 372.696 269.93 375.791 257.204 378.619C253.575 379.426 248.109 379.058 244.908 380.658C243.279 375.771 254.888 364.718 258.951 363.702C264.727 362.259 272.621 357.664 277.675 354.632C287.461 348.76 298.248 346.041 307.821 340.297C312.507 337.486 322.321 335.43 325.651 332.1C330.945 326.806 334.149 317.937 337.946 311.608C346.053 298.097 354.408 284.76 362.517 271.247C367.083 263.636 371.103 256.543 380.076 253.979C381.126 253.679 382.536 253.121 383.821 253.022ZM632.956 386.629C630.051 386.766 627.175 387.171 624.363 387.981C606.746 393.061 599.99 412.428 592.179 428.051C587.481 437.446 580.194 445.613 575.514 454.972C572.566 460.869 564.177 472.46 569.377 478.96C574.301 485.115 585 484.643 591.887 485.118C608.65 486.274 624.681 485.118 641.34 485.118C642.608 485.118 659.811 484.212 659.19 489.799C658.67 494.478 654.484 499.655 652.158 503.53C651.847 504.049 650.049 507.321 649.537 507.338C637.353 507.718 625.153 507.275 612.963 507.338C595.018 507.43 577.064 507.744 559.12 507.92C545.466 508.054 531.794 507.515 518.177 508.523C517.408 508.58 512.982 517.414 512.31 518.759C506.863 529.653 499.933 540.038 494.48 550.944C493.593 552.718 488.81 558.084 489.196 560.015C489.468 561.377 490.5 560.892 491.547 560.889C517.293 560.793 543.028 560.757 568.774 560.597C591.887 560.454 615.003 560.27 638.115 560.015C639.209 560.003 640.951 559.217 641.923 558.829C650.024 555.588 656.537 545.412 660.355 537.775C668.339 521.808 679.138 507.241 686.985 491.547C689.383 486.752 692.851 482.26 694.87 477.212C698.029 469.316 693.404 462.737 685.508 462.587C675.855 462.403 666.202 462.431 656.548 462.296C652.257 462.236 647.962 462.059 643.67 462.004C632.651 461.864 621.63 461.895 610.612 461.713C605.269 461.625 598.3 460.743 600.958 454.099C601.763 452.086 608.678 440.131 610.029 440.055C624.927 439.223 639.88 440.141 654.801 440.055C656.948 440.043 659.108 440.103 661.229 439.764C661.614 439.703 666.973 430.995 667.679 429.82C673.655 419.859 679.572 410.15 685.508 400.256C686.172 399.149 692.106 389.444 691.958 389.147C691.834 388.9 691.651 388.57 691.375 388.564C683.185 388.374 674.975 388.639 666.784 388.564C664.344 388.542 661.921 388.306 659.482 388.273C650.705 388.152 641.669 386.218 632.956 386.629ZM485.409 388.273C482.039 388.273 477.831 394.467 476.047 396.761C470.527 403.858 461.835 414.713 458.488 423.079C454.336 433.46 444.92 441.936 440.638 452.642C438.087 459.02 433.184 465.274 429.528 471.366C419.266 488.469 408.479 504.955 399.674 522.566C395.152 531.61 381.342 545.142 387.981 556.208C388.566 557.182 390.69 560.585 391.789 560.597C409.439 560.789 427.089 560.979 444.736 560.597C445.242 560.586 451.862 549.327 452.933 547.719C461.289 535.186 467.984 521.055 476.339 508.523C461.726 507.987 446.697 508.935 434.209 507.338C437.946 501.733 440.71 495.539 444.154 489.799C444.976 488.43 445.386 486.203 446.775 485.409C447.029 485.264 447.377 485.412 447.67 485.409C457.227 485.315 466.782 485.282 476.339 485.118C480.633 485.045 484.944 485.122 489.196 484.515C490.35 484.35 491.485 480.831 491.838 480.125C493.548 476.706 503.023 463.956 502.074 461.11C489.884 461.11 477.689 461.198 465.499 461.11C464.008 461.099 462.165 461.291 461.11 460.236C465.283 453.976 468.911 446.91 473.696 440.929C477.535 442.849 482.283 441.138 486.575 441.22C492.798 441.34 499.077 441.86 505.299 442.094C510.284 442.282 516.688 439.752 520.216 443.28C516.061 451.589 509.094 459.091 505.59 467.85C502.927 474.507 497.2 480.068 494.48 486.866C493.012 490.536 489.824 493.638 488.322 497.393C485.272 505.018 479.451 513.052 475.153 520.216C468.874 530.68 462.909 541.212 456.72 551.526C455.978 552.763 451.137 560.368 452.351 560.889C455.31 562.157 458.785 560.597 462.004 560.597C467.369 560.597 472.725 561.073 478.086 560.889C479.165 560.851 481.079 556.497 481.602 555.625C484.669 550.513 488.06 545.331 490.673 540.105C494.092 533.266 498.948 526.881 502.948 520.216C512.707 503.949 521.906 488.715 531.616 472.531C536.333 464.67 541.015 456.867 545.66 449.126C546.26 448.125 549.022 441.87 550.049 441.803C558.225 441.27 567.099 443.198 575.223 442.386C576.784 442.229 579.147 436.345 579.904 435.083C584.38 427.624 588.403 420.433 592.782 413.134C596.049 407.689 599.35 402.349 602.144 396.761C602.444 396.161 608.259 388.579 605.931 388.564C565.752 388.303 525.588 388.273 485.409 388.273ZM270.664 569.772C266.372 569.784 262.076 569.864 257.786 569.959C257.51 569.966 257.399 570.347 257.204 570.542C262.404 580.942 274.772 594.011 282.648 602.144C287.013 606.653 291.38 611.146 295.817 615.584C296.659 616.426 297.686 618.176 298.75 617.644C300.266 616.886 299.852 600.148 302.246 597.754C303.841 599.35 303.992 609.694 304.305 612.671C304.597 615.444 304.091 621.775 305.762 624.072C310.297 630.309 319.254 635.016 325.651 639.28C326.94 640.14 330.771 643.736 332.392 643.088C332.648 642.985 332.964 642.781 332.974 642.505C333.162 637.145 332.902 631.786 332.974 626.423C332.999 624.568 333.003 622.705 333.265 620.868C334.838 609.861 333.775 598.617 333.848 587.498C333.874 583.596 333.995 579.705 334.139 575.805C334.197 574.243 335.41 571.177 333.848 571.124C328.292 570.936 322.73 570.761 317.183 571.124C316.633 571.161 316.045 571.74 315.998 572.289C315.643 576.37 316.184 580.493 315.998 584.585C315.896 586.815 316.857 591.922 314.541 594.238C312.15 592.644 307.558 575.179 306.053 571.416C305.232 569.363 299.659 569.307 298.75 571.124C296.417 575.792 297.037 584.842 293.196 588.684C289.998 585.486 287.837 578.278 285.872 574.349C285.552 573.707 284.746 570 283.522 569.959C279.233 569.818 274.956 569.761 270.664 569.772ZM410.076 570.521C406.133 570.443 402.164 570.945 398.217 571.124C397.964 571.136 397.06 571.77 397.052 571.998C396.864 577.846 397.105 583.706 397.052 589.557C397.008 594.434 397.042 599.314 396.761 604.183C396.745 604.458 396.374 604.57 396.178 604.765C392.276 600.863 389.605 584.649 388.273 579.321C387.993 578.202 387.243 570.877 385.922 570.833C380.269 570.645 374.615 570.555 368.966 570.833C368.553 570.853 368.106 571.293 368.092 571.707C367.809 580.382 368.139 589.075 368.092 597.754C368.042 607.117 367.887 616.479 367.78 625.841C367.692 633.545 367.613 641.251 367.489 648.954C367.418 653.343 367.104 657.714 367.198 662.103C367.211 662.745 376.694 664.936 377.746 665.036C379.302 665.185 380.87 665.186 382.427 665.328C383.017 665.381 383.586 665.693 384.174 665.619C386.803 665.29 385.019 660.362 385.048 657.713C385.121 651.179 385.158 644.647 385.339 638.115C385.439 634.525 383.85 625.291 386.816 622.325C387.812 623.32 388.831 633.578 389.147 635.785C390.512 645.344 391.089 656.821 394.119 665.91C394.881 668.197 409.507 671.041 411.095 670.883C413.346 670.657 411.925 666.424 411.969 664.163C412.128 655.972 411.884 647.776 412.26 639.592C412.279 639.179 413.12 639.111 413.134 638.698C413.755 620.064 413.781 601.781 414.299 583.108C414.408 579.207 414.683 575.317 414.591 571.416C414.584 571.14 414.281 570.872 414.008 570.833C412.704 570.647 411.39 570.547 410.076 570.521ZM462.192 570.667C460.465 570.864 458.641 571.358 457.032 571.416C454.594 571.503 452.134 571.438 449.709 571.707C449.435 571.737 449.138 572.014 449.126 572.289C448.626 583.787 449.289 595.326 448.835 606.825C448.824 607.101 448.447 607.213 448.252 607.408C446.764 605.92 446.338 602.85 445.61 600.667C443.447 594.178 441.688 587.777 440.347 581.069C439.792 578.296 439.748 574.584 438.599 571.998C438.431 571.62 438.118 571.145 437.704 571.124C432.055 570.847 426.402 570.936 420.749 571.124C420.473 571.134 420.185 571.432 420.166 571.707C419.985 574.334 420.212 576.98 420.166 579.613C420.114 582.637 419.907 585.659 419.875 588.684C419.712 604.189 419.873 619.699 419.584 635.203C419.579 635.478 418.985 635.509 418.98 635.785C418.788 647.681 419.076 659.568 418.98 671.465C418.979 671.683 418.787 671.853 418.689 672.048C421.065 674.424 428.426 675.07 431.567 675.272C433.71 675.411 437.932 677.128 437.996 674.981C438.377 662.211 438.067 649.432 438.308 636.659C438.385 632.553 436.278 627.267 439.182 624.363C440.673 625.855 441.38 637.714 441.803 640.466C443.569 651.944 444.603 664.837 447.358 675.855C448.074 678.718 453.187 677.136 456.137 677.041C464.468 676.772 466.368 677.262 466.394 668.552C466.491 636.468 466.297 604.374 466.394 572.289C466.395 572.071 466.588 571.902 466.685 571.707C465.547 570.569 463.918 570.47 462.192 570.667ZM349.347 571.228C345.933 571.217 342.522 571.276 339.111 571.416C338.698 571.433 338.243 571.876 338.238 572.289C337.949 596.571 337.574 620.873 338.238 645.147C338.313 647.919 350.985 654.556 354.34 655.674C355.106 655.93 360.178 657.855 360.187 656.548C360.38 628.365 360.38 600.181 360.187 571.998C360.185 571.722 359.88 571.423 359.604 571.416C356.192 571.321 352.762 571.24 349.347 571.228ZM485.118 571.998C480.925 572.096 476.717 572.01 472.531 572.289C471.807 572.338 471.95 573.071 471.949 573.455C471.852 606.904 471.658 640.366 471.658 673.816C471.658 674.124 471.851 674.397 471.949 674.69C473.479 674.69 492.677 672.905 492.712 670.009C493.098 637.634 492.906 605.249 492.712 572.872C492.71 572.501 491.804 572.123 485.118 571.998ZM499.161 572.581C498.885 572.578 498.561 572.887 498.558 573.163C498.365 588.863 498.462 604.564 498.558 620.265C498.559 620.483 498.796 620.657 498.849 620.868C499.189 622.227 498.558 620.653 498.558 622.033C498.558 637.832 498.56 653.63 498.849 669.426C498.875 670.857 503.244 669.559 503.842 669.426C505.269 669.109 517.748 665.651 517.885 663.289C518.35 655.306 517.965 647.277 517.885 639.28C517.867 637.425 517.485 635.579 517.573 633.726C517.61 632.965 522.323 630.346 522.858 629.918C526.7 626.844 531.205 622.586 533.385 618.226C534.414 616.169 534.768 612.562 534.841 610.32C535.014 605.056 535.132 599.797 535.132 594.53C535.132 570.956 518.265 572.782 499.161 572.581ZM617.789 572.747C610.621 572.775 603.445 572.84 596.277 572.872C588.963 572.905 581.654 572.789 574.349 573.163C573.936 573.184 573.478 573.645 573.455 574.058C572.264 594.698 573.37 615.405 573.746 636.076C573.751 636.352 574.154 636.464 574.349 636.659C587.549 627.859 600.59 619.781 612.089 608.281C612.703 607.667 622.421 596.759 622.325 596.277C622.256 595.932 622.093 595.417 621.742 595.403C614.336 595.119 606.911 595.213 599.502 595.403C597.877 595.445 599.161 600.969 598.628 602.435C598.136 603.79 594.898 604.436 593.656 605.057C590.825 602.226 593.15 597.076 593.073 593.073C593.045 591.607 591.899 588.709 593.365 588.684C604.285 588.492 615.21 588.779 626.132 588.684C629.316 588.656 637.286 576.993 639.884 573.746C639.689 573.453 639.632 572.879 639.28 572.872C632.114 572.728 624.957 572.719 617.789 572.747ZM553.274 572.997C548.885 573.008 544.492 573.068 540.105 573.163C539.829 573.169 539.526 573.47 539.522 573.746C539.33 589.738 539.33 605.75 539.522 621.742C539.526 622.018 540.097 622.049 540.105 622.325C540.294 629.051 540.046 635.776 540.105 642.505C540.144 646.992 540.116 651.487 540.396 655.966C540.413 656.241 540.732 656.425 540.979 656.548C542.171 657.145 545.581 654.705 546.554 654.218C552.226 651.382 557.443 649.949 562.345 645.438C564.325 643.617 567.421 642.461 568.191 639.884C569.53 635.398 568.378 630.518 568.191 625.841C568.045 622.196 556.382 628.313 556.208 624.655C556.022 620.758 555.936 616.854 556.208 612.963C556.236 612.55 556.67 612.13 557.081 612.089C567.076 611.089 569.709 615.82 569.377 604.183C569.317 602.096 569.838 601.101 568.482 600.084C564.897 597.396 556.081 602.049 555.916 598.919C555.732 595.413 555.732 591.898 555.916 588.392C555.981 587.159 564.165 588.183 566.443 587.206C568.691 586.243 566.969 582.349 567.026 579.904C567.078 577.653 568.694 573.236 566.443 573.163C562.057 573.022 557.663 572.985 553.274 572.997ZM515.243 587.789C516.49 587.622 518.477 588.983 519.342 589.849C522.807 593.314 526.139 597.039 523.44 602.435C521.326 606.664 514.793 614.029 514.661 604.765C514.583 599.305 514.473 593.85 514.661 588.392C514.67 588.117 514.97 587.826 515.243 587.789Z" fill="#ffffff" fill-rule="nonzero" opacity="1" stroke="none" vectornator:layerName="Curve 1"/>
</g>
</svg>
