<?xml version="1.0" encoding="UTF-8" standalone="no"?>
<!DOCTYPE svg PUBLIC "-//W3C//DTD SVG 1.1//EN" "http://www.w3.org/Graphics/SVG/1.1/DTD/svg11.dtd">
<!-- Created with Vectornator (http://vectornator.io/) -->
<svg height="100%" stroke-miterlimit="10" style="fill-rule:nonzero;clip-rule:evenodd;stroke-linecap:round;stroke-linejoin:round;" version="1.1" viewBox="0 0 750 1000" width="100%" xml:space="preserve" xmlns="http://www.w3.org/2000/svg" xmlns:vectornator="http://vectornator.io" xmlns:xlink="http://www.w3.org/1999/xlink">
<defs/>
<g id="Layer-1" vectornator:layerName="Layer 1">
<path d="M374.984 200.141C209.379 200.141 75.1406 334.411 75.1406 500.016C75.142 665.62 209.38 799.859 374.984 799.859C540.587 799.859 674.859 665.62 674.859 500.016C674.861 334.411 540.589 200.141 374.984 200.141ZM377.328 219.734C404.782 220.193 430.776 224.769 457.453 232.391C545.511 257.55 617.908 333.5 642.922 421.047C684.663 567.141 601.45 725.266 454.234 767.328C432.433 773.557 409.366 778.766 386.578 778.766C355.504 778.765 325.555 776.161 295.734 767.641C278.653 762.76 262.956 754.748 246.828 748.297C241.243 746.063 235.844 742.288 230.703 739.203C213.632 728.96 196.787 717.006 182.672 702.891C122.367 642.585 90.8072 569.662 95.3594 483.172C96.5425 460.689 100.917 438.798 107.078 417.234C109.674 408.148 113.241 399.312 116.734 390.578C118.321 386.616 120.995 382.662 122.016 378.578C123.347 373.248 127.711 367.127 130.516 362.453C139.481 347.511 148.788 333.052 160.109 319.672C211.962 258.39 285.64 221.909 365.484 219.797C369.472 219.691 373.406 219.669 377.328 219.734ZM374.266 227.391C369.554 227.281 369.04 239.283 367.234 243.797C362.588 255.413 357.226 266.775 352.578 278.391C351.831 280.259 345.913 294.893 345.266 295.078C341.115 296.264 336.116 296.277 331.797 297.141C322.697 298.961 313.188 301.278 304.547 304.734C261.701 321.873 222.855 349.087 198.484 389.703C176.893 425.689 166.829 464.486 166.828 506.891C166.828 564.173 197.974 622.003 241.266 658.078C251.688 666.764 262.814 673.683 274.359 680.609C277.43 682.452 281.418 685.328 284.922 686.203C295.072 688.741 304.802 694.674 315.078 697.609C335.392 703.413 356.307 706.391 377.484 706.391C465.909 706.391 547.678 642.058 571.734 557.859C580.431 527.421 582.516 495.425 577.297 464.109C571.824 431.274 557.533 399.796 537.141 373.578C511.709 340.881 478.223 316.835 439.297 303.859C431.029 301.103 422.662 298.851 414.109 297.141C410.481 296.415 405.437 296.557 402.109 295.078C400.938 294.558 395.971 280.311 395.078 278.078C390.391 266.361 385.704 254.64 381.016 242.922C379.184 238.342 379.2 227.505 374.266 227.391ZM374.266 290.609C375.03 290.609 375.805 290.899 376.391 291.484C378.357 293.452 378.996 296.101 379.453 298.391C379.925 300.735 380.146 303.076 380.422 304.453C382.486 314.777 384.842 325.109 387.141 335.453C390.994 352.788 395.348 370.241 399.203 387.797C401.783 386.179 404.709 384.428 405.609 383.828C411.803 379.698 417.974 375.347 424.359 371.516C427.745 369.485 432.136 367.27 434.922 364.484C436.258 366.492 433.149 379.533 432.578 382.672C429.441 399.914 426.647 417.228 423.766 434.516C423.24 437.665 419.516 455.141 420.859 456.484C434.683 443.648 448.191 429.434 461.266 416.359C463.143 418.236 462.046 421.614 462.141 424.266C462.427 432.275 462.734 440.283 462.734 448.297C465.472 449.21 471.733 445.572 474.453 444.484C485.926 439.897 497.61 435.203 509.328 431.297C511.058 430.72 522.331 425.954 523.078 426.328C524.261 426.92 519.432 438.851 518.703 440.672C514.391 451.449 511.295 462.707 506.984 473.484C506.555 474.559 505.192 477.742 503.984 480.797C504.004 483.157 504.002 485.541 504.016 487.859C508.905 488.07 513.81 488.094 518.703 488.141C523.681 488.189 528.664 487.953 533.641 488.141C533.917 488.151 534.039 488.508 534.234 488.703C524.273 497.419 514.414 506.417 504.172 514.828C504.159 527.192 504.109 539.469 504.109 552.891C504.11 554.181 503.303 555.326 502.078 555.734C500.12 556.387 498.26 555.939 496.859 555.328C495.426 554.703 494.205 553.82 493.078 553.016C491.952 552.211 490.928 551.453 490.078 550.953C489.194 550.434 488.617 550.328 488.516 550.328C479.752 550.328 470.812 551.055 461.828 551.859C458.229 555.031 454.624 558.202 451.016 561.359C449.123 563.017 444.821 565.593 443.703 567.828C443.133 568.968 445.778 571.235 446.328 571.922C449.573 575.982 452.623 580.561 456.297 584.234C453.976 586.555 447.798 586.323 444.578 586.859C443.253 587.081 435.263 588.444 431.047 589.016C434.962 594.536 438.9 600.045 442.672 605.703C442.954 606.124 444.403 607.739 445.703 609.328C446.368 610.142 447.025 611 447.578 611.891C448.098 612.725 448.72 613.732 448.734 615.266C448.829 625.557 448.734 635.812 448.734 646.047C448.735 647.338 447.928 648.482 446.703 648.891C445.523 649.283 444.699 649.093 444.047 648.953C443.351 648.806 442.67 648.566 441.953 648.297C440.525 647.761 438.958 647.023 437.359 646.234C434.19 644.669 430.928 642.878 429.766 642.297C421.587 638.207 413.341 634.223 405.109 630.109C405.137 630.123 405.082 630.096 404.859 629.984C403.694 629.404 402.005 628.812 400.234 628.109C398.471 627.41 396.551 626.587 394.891 625.203C392.933 623.573 392.189 621.552 391.672 619.984C391.461 620.336 391.259 620.862 391.047 621.234C389.915 625.937 388.374 631.385 388.047 632.859C384.609 648.325 381.467 663.917 378.359 679.453C377.635 683.066 376.452 695.111 374.266 697.297C372.664 695.691 372.695 691.603 372.203 689.391C370.428 681.411 368.838 673.407 367.234 665.391C366.796 663.198 364.782 658.264 365.766 656.297C364.162 654.692 363.006 644.396 362.547 641.641C361.56 635.719 359.847 629.603 358.609 623.609C358.419 623.147 358.202 622.732 358.016 622.266C357.979 622.173 357.931 622.07 357.922 622.047C357.751 621.607 357.609 621.159 357.453 620.703C356.991 622.173 356.327 623.774 354.672 625.016C350.42 628.203 344.541 630.418 340.234 632.141C328.409 636.87 316.972 643.49 305.297 649.328C304.142 649.906 302.741 649.679 301.828 648.766C301.829 648.766 301.826 648.795 301.828 648.797C301.602 648.636 300.375 647.806 300.359 646.078C300.262 635.668 300.48 625.302 300.672 614.953C300.7 613.493 301.355 612.634 301.516 612.359C301.748 611.964 301.547 612.641 301.547 612.641C301.548 611.35 302.353 610.205 303.578 609.797C303.603 609.79 304.137 609.51 304.797 608.766C305.436 608.045 306.148 606.997 306.859 605.859C307.419 604.964 307.895 604.18 308.422 603.266C310.308 598.201 312.146 593.005 314.484 588.328C310.243 586.917 295.384 586.509 293.109 584.234C296.66 578.906 303.516 573.942 306.016 568.109C306.642 566.649 303.681 565.937 302.484 564.891C297.597 560.614 292.598 556.409 287.828 551.984C283.87 551.717 279.865 551.458 275.922 551.203C273.351 551.038 270.606 550.531 267.984 550.234C265.357 549.937 262.916 549.861 261.234 550.234C260.211 550.461 258.621 551.475 256.734 552.766C254.909 554.014 252.773 555.564 250.047 556.109C249.544 556.208 248.94 556.323 248.016 556.141C247.562 556.05 246.941 555.865 246.266 555.297C245.546 554.689 245.009 553.674 244.984 552.672C244.694 540.809 244.703 528.958 244.703 517.141C244.703 516.276 244.765 515.562 244.828 514.734C234.818 506.275 224.398 497.929 215.172 488.703C215.369 488.507 215.49 488.156 215.766 488.141C221.419 487.826 227.102 487.828 232.766 487.828C236.838 487.828 240.913 487.914 244.984 487.828C244.986 487.637 244.982 487.423 244.984 487.234C245.006 485.382 244.992 483.472 244.984 481.609C240.022 469.8 236.899 456.895 232.172 445.078C230.144 440.008 225.734 432.047 225.734 426.609C228.605 425.651 235.21 429.568 238.047 430.703C249.381 435.236 260.965 439.077 272.297 443.609C273.863 444.237 286.392 449.51 286.672 448.297C288.059 442.275 287.319 435.098 287.547 428.953C287.614 427.149 287.2 417.581 288.422 416.359C308.637 436.574 308.645 436.582 328.859 456.797C330.037 453.258 326.628 441.096 325.922 436.859C323.137 420.152 320.206 403.471 317.422 386.766C316.91 383.7 313.26 365.709 314.484 364.484C324.362 369.423 333.725 376.822 342.922 382.953C344.884 384.261 348.405 385.927 350.891 387.891C351.853 383.909 352.47 379.406 353.453 374.984C356.651 360.582 359.613 346.109 362.828 331.641C364.939 322.131 366.851 312.52 368.984 302.922C369.174 302.067 369.381 299.952 369.703 297.859C369.866 296.798 370.06 295.697 370.391 294.641C370.715 293.612 371.143 292.482 372.141 291.484C372.727 290.899 373.498 290.609 374.266 290.609ZM374.266 293.609C372.547 295.328 372.474 301.092 371.922 303.578C369.799 313.132 367.889 322.742 365.766 332.297C362.558 346.731 359.598 361.206 356.391 375.641C355.202 380.99 354.791 387.26 352.891 392.328C350.302 399.231 348.693 408.782 347.609 416.359C345.897 428.344 345.44 440.643 344.391 452.703C344.081 456.264 344.461 461.07 343.203 464.422C342.508 466.275 337.187 467.43 335.578 468.234C328.504 471.771 321.262 475.548 313.922 478.484C301.436 483.479 289.225 490.083 277.297 496.047C275.726 496.832 266.198 501.745 265.266 501.047C263.504 499.725 262.057 492.977 261.172 490.766C258.458 483.981 255.386 477.362 252.672 470.578C251.56 467.798 250.701 463.89 248.578 461.766C248.383 461.961 247.991 462.083 247.984 462.359C247.794 470.658 248.079 478.965 247.984 487.266C247.896 495.025 247.984 505.153 247.984 511.859C247.984 513.638 247.703 515.594 247.703 517.141C247.703 528.957 247.697 540.795 247.984 552.609C248.002 553.34 249.121 553.239 249.453 553.172C253.175 552.428 256.87 548.152 260.578 547.328C265.132 546.316 271.461 547.903 276.109 548.203C290.785 549.15 305.556 550.27 320.359 551.141C326.246 551.487 332.705 551.208 338.516 552.297C338.787 552.348 339.096 552.615 339.109 552.891C339.295 556.597 339.294 560.31 339.109 564.016C339.072 564.767 336.951 566.846 336.484 567.547C328.983 578.798 321.188 589.918 313.328 600.922C311.254 603.825 307.904 611.522 304.547 612.641C304.547 613.542 303.687 614.177 303.672 614.984C303.48 625.335 303.263 635.695 303.359 646.047C303.362 646.323 303.758 646.445 303.953 646.641C315.516 640.859 327.012 634.198 339.109 629.359C343.429 627.631 349.161 625.407 352.891 622.609C355.447 620.692 354.888 615.612 357.266 613.234C358.975 614.943 359.868 618.816 360.797 621.141C363.847 628.766 367.685 636.077 370.734 643.703C371.647 645.986 372.515 649.296 374.266 651.047C376.564 649.514 378.153 643.467 379.234 640.766C381.929 634.028 387.2 619.05 392.141 614.109C394.567 616.536 394.056 620.612 396.828 622.922C399.244 624.935 403.346 625.868 406.203 627.297C414.493 631.442 422.822 635.465 431.109 639.609C433.696 640.903 443.818 646.686 445.734 646.047C445.734 635.793 445.83 625.55 445.734 615.297C445.716 613.373 441.291 609.068 440.172 607.391C435.155 599.866 429.89 592.457 424.641 585.109C420.854 579.808 417.129 574.436 413.516 569.016C412.729 567.836 410.054 565.22 410.016 563.734C409.923 560.122 409.83 556.499 410.016 552.891C410.03 552.615 410.304 552.333 410.578 552.297C421.947 550.781 433.976 551.031 445.453 550.266C459.725 549.314 474.221 547.328 488.516 547.328C492.422 547.328 497.222 554.187 501.109 552.891C501.109 520.96 501.366 494.545 500.828 461.766C500.824 461.489 500.43 461.398 500.234 461.203C498.443 462.995 497.923 466.246 497.016 468.516C494.005 476.041 490.933 483.552 487.922 491.078C487.156 492.994 485.443 500.57 483.547 501.328C482.55 501.727 473.956 497.127 472.422 496.359C462.099 491.198 451.748 485.671 441.047 481.391C432.223 477.861 424.087 472.638 415.266 469.109C413.352 468.344 406.51 466.125 405.891 464.109C404.792 460.537 405.376 455.3 405.016 451.516C403.907 439.878 403.718 427.891 401.797 416.359C397.315 389.466 390.153 362.707 384.234 336.078C381.938 325.746 379.56 315.425 377.484 305.047C376.835 301.798 376.617 295.962 374.266 293.609ZM373.984 317.047C375.088 318.151 374.547 319.686 374.547 321.141C374.547 426.219 374.742 531.313 374.547 636.391C374.546 636.667 374.18 636.789 373.984 636.984C371.422 634.422 370.048 628.908 368.703 625.547C365.491 617.518 361.353 609.858 358.141 601.828C357.029 599.052 355.773 593.867 353.766 591.859C352.128 593.497 355.234 599.734 355.234 602.109C355.235 603.627 350.305 616.537 349.359 617.641C346.736 620.7 341.255 622.271 337.641 624.078C328.307 628.745 318.846 633.194 309.516 637.859C309.321 637.664 308.93 637.542 308.922 637.266C308.733 630.432 308.735 623.599 308.922 616.766C308.94 616.062 309.719 615.57 310.109 614.984C318.358 602.612 327.33 590.763 335.578 578.391C336.814 576.537 344.651 566.791 344.672 565.484C344.766 559.626 344.861 553.778 344.672 547.922C344.664 547.646 344.343 547.407 344.078 547.328C339.388 545.921 333.406 546.465 328.547 546.141C309.407 544.865 290.278 543.648 271.141 542.328C267.232 542.059 263.331 541.445 259.422 542.047C258.792 542.143 253.566 545.567 253.547 543.797C253.353 525.732 253.354 507.675 253.547 489.609C253.549 489.333 253.945 489.211 254.141 489.016C256.865 491.739 261.107 508.239 263.516 508.641C265.299 508.938 276.738 502.083 279.328 501.047C293.728 495.287 307.952 487.766 321.828 480.828C326.476 478.504 331.244 476.402 335.891 474.078C336.848 473.599 339.851 471.511 340.859 472.016C343.757 473.465 343.132 489.226 345.859 491.953C347.683 490.13 347.085 483.658 347.297 481.109C348.144 470.95 349.07 460.797 349.953 450.641C350.91 439.63 351.52 428.513 352.891 417.547C353.829 410.033 355.935 402.378 357.578 394.984C361.017 379.505 363.795 363.87 367.234 348.391C368.921 340.805 370.398 333.167 371.922 325.547C372.362 323.345 372.49 318.541 373.984 317.047Z" fill="#ffffff" fill-rule="nonzero" opacity="1" stroke="none"/>
</g>
</svg>
