<?xml version="1.0" encoding="UTF-8" standalone="no"?>
<!DOCTYPE svg PUBLIC "-//W3C//DTD SVG 1.1//EN" "http://www.w3.org/Graphics/SVG/1.1/DTD/svg11.dtd">
<!-- Created with Vectornator (http://vectornator.io/) -->
<svg height="100%" stroke-miterlimit="10" style="fill-rule:nonzero;clip-rule:evenodd;stroke-linecap:round;stroke-linejoin:round;" version="1.1" viewBox="0 0 750 1000" width="100%" xml:space="preserve" xmlns="http://www.w3.org/2000/svg" xmlns:vectornator="http://vectornator.io" xmlns:xlink="http://www.w3.org/1999/xlink">
<defs/>
<g id="Layer-1" vectornator:layerName="Layer 1">
<path d="M496.196 307.418C495.345 307.431 495.692 308.246 495.603 308.605C494.89 311.454 493.167 314.366 492.071 317.105C487.714 327.998 482.96 338.711 478.603 349.605C466.312 380.333 452.8 410.597 440.509 441.324C437.094 449.862 433.392 458.257 429.978 466.793C428.387 470.769 427.085 476.955 424.415 480.293C424.156 480.616 423.955 481.164 423.54 481.168C391.022 481.458 358.497 481.073 325.978 481.168C304.624 481.23 285.167 493.461 270.29 507.512C267.966 505.188 268.574 498.681 266.196 495.512C260.155 487.456 252.448 481.514 241.884 481.449C210.927 481.258 179.966 481.168 149.009 481.168C124.443 481.168 95.2314 497.506 81.9151 517.48C79.8251 520.615 75.6349 526.97 75.4776 530.668C75.011 541.632 76.2305 555.006 88.6651 559.98C91.92 561.282 95.9011 562.836 99.5088 562.887C112.984 563.072 126.469 563.199 139.946 563.199C151.08 563.199 160.231 554.932 169.509 550.293C177.451 558.235 183.749 563.199 195.603 563.199C210.446 563.199 225.291 563.006 240.134 563.199C240.41 563.203 240.604 563.514 240.728 563.762C241.4 565.106 238.056 570.535 237.478 571.98C234.73 578.85 231.757 585.61 229.009 592.48C228.189 594.529 225.646 598.266 226.353 600.387C235.337 600.387 244.337 600.387 253.321 600.387C257.15 600.387 261.876 602.724 264.446 599.512C265.74 597.895 266.281 594.77 267.071 592.793C269.9 585.722 273.056 578.77 275.884 571.699C276.319 570.611 278.544 563.206 279.665 563.199C316.188 563.005 352.736 563.004 389.259 563.199C390.492 563.206 389.445 564.857 389.259 565.23C387.128 569.491 385.414 574.393 384.259 579.012C381.705 589.227 380.809 600.313 383.103 610.637C385.664 622.163 393.236 631.171 399.196 641.105C409.592 658.432 420.234 675.85 431.446 692.668C435.641 688.473 438.53 682.557 441.978 677.73C446.946 670.775 451.893 663.748 456.634 656.637C457.399 655.488 464.983 644.358 465.134 644.355C483.196 643.971 501.264 644.922 519.321 644.355C519.999 644.334 526.269 636.152 527.228 634.98C531.931 629.232 536.587 623.416 541.29 617.668C543.819 614.577 547.416 611.291 549.196 607.73C548.692 607.226 547.938 606.855 547.165 606.855C524.802 606.855 502.43 606.657 480.071 607.137C478.924 607.161 475.793 612.136 475.103 612.98C469.845 619.406 463.864 625.729 459.259 632.637C447.863 625.039 437.569 614.722 427.04 605.949C425.017 604.263 418.012 600.275 417.384 597.762C414.966 588.092 426.968 567.035 430.853 557.324C432.251 553.828 433.471 547.986 436.134 545.324C438.222 547.412 439.016 550.585 441.103 552.949C446.61 559.19 453.989 562.841 462.478 562.887C498.024 563.077 533.587 563.102 569.134 563.199C586.126 563.245 603.111 563.291 620.103 563.199C645.25 563.062 665.274 538.081 649.978 515.137C652.467 512.647 657.031 514.827 660.54 514.543C661.816 514.439 663.86 507.305 664.353 506.074C667.583 497.999 670.714 489.507 674.603 481.73C674.407 481.535 674.285 481.17 674.009 481.168C648.033 480.974 622.047 481.073 596.071 481.168C591.172 481.186 581.646 483.28 577.915 487.012C577.622 486.719 577.614 486.711 577.321 486.418C587.039 466.983 594.468 445.661 602.54 425.48C603.937 421.988 611.574 406.643 610.728 404.105C598.716 404.105 586.708 404.105 574.696 404.105C574.306 404.105 573.875 403.904 573.54 404.105C572.076 404.984 571.261 408.897 570.603 410.543C568.326 416.233 565.848 421.851 563.571 427.543C557.248 443.352 550.27 458.89 543.946 474.699C541.949 479.691 538.623 491.429 535.134 494.918C523.888 483.672 519.38 481.168 502.634 481.168C489.45 481.168 476.254 481.36 463.071 481.168C462.795 481.164 462.673 480.769 462.478 480.574C468.6 468.329 473.236 454.913 478.321 442.199C489.588 414.032 501.897 386.275 513.165 358.105C517.994 346.034 523.273 334.147 528.103 322.074C529.749 317.958 533.977 311.822 533.978 307.418C521.38 307.418 508.792 307.225 496.196 307.418ZM502.634 316.23C508.389 315.951 514.156 316.041 519.915 316.23C521.248 316.275 519.287 319.989 519.04 320.605C517.164 325.295 514.763 329.875 513.165 334.668C508.846 347.625 502.427 360.077 497.353 372.762C482.003 411.135 465.232 448.953 449.884 487.324C439.996 512.042 429.302 536.418 419.415 561.137C416.667 568.006 413.663 574.766 410.915 581.637C409.773 584.493 407.696 587.852 407.696 591.012C407.696 605.555 415.143 608.005 425.884 616.793C432.483 622.192 438.959 627.741 445.509 633.199C448.464 635.662 453.698 638.515 455.446 642.012C455.525 642.169 450.481 649.362 449.884 650.199C443.953 658.502 438.938 668.77 431.728 675.98C423.142 663.102 415.096 649.688 407.134 636.418C401.353 626.783 393.495 617.897 391.603 606.543C388.68 589.007 395.381 575.065 401.54 559.668C408.652 541.889 415.259 523.199 423.821 506.074C418.561 500.814 407.988 510.147 402.728 504.887C403.549 503.244 408.534 490.256 409.165 490.23C415.995 489.949 422.835 490.511 429.665 490.23C430.319 490.204 433.856 481.533 434.353 480.293C438.71 469.399 443.495 458.655 447.853 447.762C461.202 414.389 475.817 381.507 489.165 348.137C492.419 340.002 495.849 331.958 499.103 323.824C499.532 322.749 501.561 316.282 502.634 316.23ZM579.665 413.199C585.42 412.92 591.219 413.01 596.978 413.199C598.022 413.234 597.371 414.388 597.259 414.668C595.293 419.583 593.069 424.377 591.103 429.293C586.745 440.187 581.991 450.93 577.634 461.824C569.505 482.146 560.575 502.159 552.446 522.48C549.698 529.351 546.694 536.111 543.946 542.98C543.162 544.94 540.376 554.018 538.946 554.105C534.48 554.378 522.739 554.105 521.665 554.105C520.861 551.696 523.942 547.085 524.884 544.73C528.575 535.504 532.631 526.425 536.321 517.199C546.841 490.9 558.333 464.967 568.853 438.668C571.41 432.274 573.68 425.512 576.759 419.355C577.242 418.388 578.49 413.256 579.665 413.199ZM397.79 489.699C399.466 489.569 401.027 489.717 402.134 490.824C401.331 492.431 396.349 505.449 395.696 505.48C389.941 505.759 384.174 505.669 378.415 505.48C378.139 505.471 378.017 505.082 377.821 504.887C378.652 503.226 383.606 490.296 384.259 490.23C387.077 489.949 389.927 490.23 392.759 490.23C394.324 490.23 396.115 489.829 397.79 489.699ZM613.228 489.793C628.899 489.613 644.586 490.085 660.259 490.23C661.51 490.242 658.757 495.688 658.478 496.387C658.029 497.509 654.951 505.469 654.384 505.48C634.27 505.865 614.157 505.569 594.04 505.762C592.12 505.78 590.524 507.361 589.353 508.699C587.821 510.45 587.729 514.497 590.821 514.543C603.711 514.734 616.588 514.674 629.478 514.855C641.268 515.021 648.467 524.493 645.603 535.949C642.579 548.042 630.842 554.058 618.946 554.105C595.509 554.198 572.071 554.299 548.634 554.105C548.358 554.103 548.094 553.782 548.04 553.512C547.833 552.474 554.349 538.942 554.79 538.887C559.962 538.24 561.471 538.857 567.665 538.887C585.341 538.971 603.021 538.887 620.696 538.887C623.668 538.887 625.657 537.593 627.446 535.355C628.434 534.12 628.915 529.827 626.54 529.793C613.064 529.6 599.609 529.696 586.134 529.512C582.351 529.46 577.685 527.812 574.978 525.105C572.803 522.93 570.29 519.271 570.29 516.012C570.29 499.923 582.721 490.911 597.54 490.23C602.759 489.99 608.004 489.853 613.228 489.793ZM150.196 490.23C179.538 490.86 175.095 502.495 174.196 504.293C174.068 504.549 173.697 505.469 173.321 505.48C163.95 505.768 154.57 505.583 145.196 505.762C134.805 505.96 120.504 511.141 112.978 518.668C110.344 521.301 103.622 527.611 103.321 532.418C102.804 540.696 107.822 538.574 114.446 538.574C118.061 538.574 121.676 538.841 125.29 538.887C129.587 538.941 133.901 539.419 138.165 538.887C141.194 538.508 144.096 537.544 146.978 536.824C148.554 536.43 150.551 533.887 151.946 533.887C153.478 533.887 166.24 539.671 166.884 540.637C159.105 546.47 148.115 554.105 137.884 554.105C125.774 554.105 113.648 554.007 101.54 553.824C93.7396 553.706 85.84 548.542 84.2588 540.637C82.5063 531.875 89.2145 521.337 95.1026 515.449C109.933 500.619 129.352 491.967 150.196 490.23ZM190.321 490.23C207.118 490.038 223.931 490.356 240.728 490.543C248.261 490.626 254.199 494.65 258.571 500.48C264.709 508.664 253.104 533.447 248.634 542.387C247.944 543.768 244.296 554.06 243.353 554.105C237.598 554.384 231.826 554.388 226.071 554.105C224.697 554.038 226.173 551.84 226.353 551.48C226.06 551.187 226.052 551.179 225.759 550.887C223.707 552.938 218.868 554.105 216.103 554.105C208.68 554.105 201.273 553.999 193.853 553.824C186.281 553.646 175.103 548.335 175.103 539.449C175.103 535.464 175.623 532.272 176.54 528.605C179.192 517.995 194.942 512.86 204.384 512.793C216.883 512.703 229.385 512.985 241.884 512.793C243.418 512.77 242.63 508.756 242.165 508.105C241.121 506.643 239.037 505.49 237.196 505.48C219.618 505.385 202.055 505.673 184.478 505.48C184.202 505.477 184.079 505.082 183.884 504.887C184.689 503.277 189.815 490.236 190.321 490.23ZM326.853 490.23C342.575 490.14 358.286 490.23 374.009 490.23C374.828 492.687 368.543 504.974 367.29 508.105C361.301 523.08 353.503 553.999 333.884 554.105C316.696 554.198 299.508 554.298 282.321 554.105C282.045 554.102 281.923 553.707 281.728 553.512C283.119 550.728 286.004 540.578 287.884 539.168C289.765 537.757 292.563 538.574 294.915 538.574C298.53 538.574 302.144 538.856 305.759 538.887C315.04 538.966 324.953 541.427 333.571 537.98C340.849 535.069 346.125 513.216 349.696 506.074C349.501 505.878 349.379 505.484 349.103 505.48C341.876 505.385 334.672 505.589 327.446 505.762C320.533 505.926 314.832 508.556 308.384 510.168C286.031 515.756 275.944 546.893 268.259 566.105C265.706 572.487 262.905 578.788 260.353 585.168C260.033 585.968 258.712 590.979 257.696 591.012C251.84 591.201 245.993 591.012 240.134 591.012C239.365 588.707 242.182 584.734 243.071 582.512C246.486 573.974 250.189 565.578 253.603 557.043C257.729 546.727 261.36 535.781 267.071 526.262C278.752 506.794 303.322 490.365 326.853 490.23ZM453.415 490.23C472.263 490.134 491.099 490.355 509.946 490.543C514.11 490.585 519.597 492.313 522.853 494.918C537.519 506.651 524.444 525.939 519.04 539.449C518.396 541.059 513.301 554.071 512.603 554.105C506.848 554.384 501.052 554.105 495.29 554.105C494.838 552.749 496.023 551.901 495.009 550.887C492.957 552.938 488.118 554.105 485.353 554.105C477.832 554.105 470.308 554.001 462.79 553.824C455.466 553.651 444.321 548.339 444.321 539.762C444.321 535.018 445.024 531.921 446.071 527.73C448.416 518.35 464.895 512.853 473.321 512.793C485.919 512.703 498.538 512.985 511.134 512.793C512.601 512.77 511.939 508.839 511.415 508.105C510.372 506.645 508.287 505.489 506.446 505.48C486.818 505.385 467.168 505.674 447.54 505.48C447.264 505.477 447.173 505.082 446.978 504.887C449.151 500.54 450.406 495.686 452.54 491.418C452.665 491.169 453.044 490.232 453.415 490.23ZM374.884 512.793C380.642 512.604 386.406 512.604 392.165 512.793C392.441 512.802 392.564 513.191 392.759 513.387C386.322 526.259 382.748 540.721 376.353 553.512C376.229 553.758 376.035 554.096 375.759 554.105C369.902 554.295 364.053 554.294 358.196 554.105C357.92 554.096 357.798 553.707 357.603 553.512C362.287 544.143 366.025 533.957 369.915 524.23C371.217 520.976 372.262 516.133 374.321 513.387C374.487 513.166 374.608 512.802 374.884 512.793ZM507.009 616.012C514.529 616.035 522.052 616.134 529.571 616.23C529.847 616.234 529.97 616.597 530.165 616.793C527.005 621.534 522.931 625.881 519.321 630.293C518.732 631.013 515.908 635.225 514.946 635.262C500.015 635.825 485.043 635.454 470.103 635.262C469.827 635.258 469.704 634.863 469.509 634.668C472.874 629.62 477.155 625.063 480.946 620.324C481.459 619.683 483.581 616.253 484.478 616.23C491.995 616.04 499.488 615.988 507.009 616.012ZM245.415 394.137C243.785 395.766 241.058 408.982 239.54 409.074C235.056 409.349 230.563 409.168 226.071 409.074C225.853 409.069 225.673 408.89 225.478 408.793C225.038 409.232 225.042 409.228 224.603 409.668C228.192 413.257 232.838 415.985 236.915 419.043C234.725 423.423 234.444 428.985 232.228 433.418C233.723 434.913 242.229 426.064 244.821 425.199C245.754 424.888 255.957 432.821 257.696 433.98C258.136 433.541 258.132 433.545 258.571 433.105C257.718 432.252 253.668 419.083 254.196 418.449C255.186 417.262 266.534 410.345 266.196 409.668C266.073 409.421 265.879 409.084 265.603 409.074C260.723 408.886 255.857 409.262 250.978 409.074C249.984 409.036 246.949 395.67 245.415 394.137ZM330.071 394.137C328.526 395.682 325.888 409.021 324.509 409.074C319.63 409.262 314.732 408.886 309.853 409.074C309.577 409.085 309.454 409.472 309.259 409.668C312.811 413.22 318.357 415.186 321.571 419.043C322.588 420.262 315.82 431.729 318.071 433.98C319.346 432.706 329.035 424.87 330.353 425.199C334.555 426.249 338.668 431.982 342.665 433.98C343.717 432.928 339.589 421.077 338.571 419.043C341.411 416.203 349.805 412.389 351.165 409.668C350.97 409.472 350.847 409.084 350.571 409.074C345.594 408.886 340.611 409.262 335.634 409.074C334.866 409.045 331.572 395.637 330.071 394.137ZM415.04 394.137C413.494 395.682 410.654 408.99 409.165 409.074C404.29 409.35 399.388 408.886 394.509 409.074C394.233 409.085 394.142 409.472 393.946 409.668C397.447 413.168 402.422 415.954 406.54 419.043C404.347 423.429 404.068 428.987 401.853 433.418C403.226 434.791 412 426.248 414.446 425.199C415.258 424.851 425.942 433.111 427.321 434.293C427.761 433.853 427.788 433.857 428.228 433.418C427.488 431.938 423.376 418.985 423.821 418.449C426.703 414.99 433.934 413.442 435.821 409.668C435.626 409.472 435.535 409.084 435.259 409.074C430.38 408.886 425.477 409.35 420.603 409.074C419.611 409.018 416.612 395.708 415.04 394.137ZM202.759 449.762C201.621 449.772 200.3 450.091 199.415 450.387C197.514 451.02 190.611 461.405 189.165 463.574C187.287 461.696 190.3 450.617 188.571 450.387C182.699 449.604 184.153 452.156 183.884 457.137C183.662 461.237 183.112 465.346 183.29 469.449C183.367 471.216 186.824 470.288 188.571 470.012C189.357 469.887 197.922 457.836 199.103 456.262C201.593 458.752 198.523 466.166 198.821 469.449C198.976 471.146 203.834 470.799 205.259 469.137C209.803 463.835 215.928 457.205 219.04 450.98C214.965 446.905 206.915 460.574 204.665 463.574C202.107 461.016 205.434 454.18 204.978 450.98C204.846 450.057 203.896 449.751 202.759 449.762ZM389.884 449.793C388.074 449.568 386.233 449.648 385.134 449.824C372.93 451.775 362.444 470.606 382.228 470.605C389.498 470.605 400.978 458.043 394.509 451.574C393.473 450.538 391.694 450.017 389.884 449.793ZM386.946 454.418C390.728 454.418 390.616 458.186 389.103 460.418C387.59 462.649 384.009 465.594 380.415 465.48C376.822 465.367 376.585 462.171 378.665 458.762C379.832 456.849 383.164 454.418 386.946 454.418ZM253.884 449.824C250.287 450.543 239.564 456.021 245.103 460.637C246.96 462.184 255.4 461.399 254.79 464.449C254.07 468.05 243.286 468.425 245.415 464.168C244.37 463.123 242.474 463.379 241.009 463.574C239.717 463.746 240.016 466.089 240.134 467.387C240.552 471.983 252.82 470.919 255.946 468.574C257.108 467.703 258.139 466.663 259.165 465.637C260.264 464.538 260.483 462.255 260.353 460.949C259.917 456.589 248.689 460.045 249.509 455.949C250.052 453.232 254.98 452.685 256.821 453.605C258.094 454.241 256.606 456.356 258.009 456.543C259.267 456.711 260.563 456.711 261.821 456.543C262.612 456.437 262.337 455.811 262.384 455.387C262.782 451.801 261.151 450.908 253.884 449.824ZM339.446 449.824C331.084 449.824 325.103 458.685 325.103 466.23C325.103 470.841 334.829 470.605 336.821 470.605C345.184 470.605 345.225 466.079 348.228 460.074C345.807 457.653 341.394 459.26 337.978 459.48C337.03 459.541 336.795 461.847 336.509 462.418C338.116 464.025 340.464 461.967 342.071 463.574C339.704 468.309 329.76 468.926 330.353 461.824C330.823 456.181 338.247 452.352 343.259 453.605C345.505 454.167 343.783 456.383 345.29 457.137C350.508 459.745 350.943 453.602 347.946 450.98C346.47 449.689 340.214 449.824 339.446 449.824ZM286.509 449.949C285.872 450.006 285.221 450.201 284.665 450.387C282.31 451.171 283.061 457.754 280.571 458.012C278.046 458.273 275.484 457.924 272.946 458.012C272.203 458.037 271.926 458.852 271.478 457.73C271.043 456.644 274.798 450.612 273.228 450.387C272.067 450.221 270.888 450.221 269.728 450.387C268.657 450.539 268.05 454.022 267.665 454.793C266.456 457.21 261.441 468.026 262.103 470.012C270.426 470.012 266.596 462.144 270.009 461.824C272.829 461.56 275.683 461.642 278.509 461.824C278.784 461.842 278.908 462.222 279.103 462.418C277.985 464.652 277.315 467.149 276.165 469.449C281.276 474.56 285.414 458.875 286.696 455.668C287.121 454.605 289.181 451.402 288.165 450.387C287.751 449.972 287.145 449.892 286.509 449.949ZM422.978 450.137C422.273 450.102 421.462 450.253 420.884 450.387C419.672 450.666 416.246 461.775 414.446 463.574C413.011 462.139 410.691 450.502 409.478 450.387C407.63 450.211 405.722 450.136 403.884 450.387C402.644 450.556 401.901 454.172 401.54 455.074C399.638 459.829 397.987 464.868 395.696 469.449C400.777 474.53 403.432 458.777 405.665 456.543C407.203 458.081 409.818 469.907 410.915 470.012C412.762 470.187 414.662 470.188 416.509 470.012C417.193 469.946 418.249 466.052 418.54 465.324C419.434 463.09 424.747 452.638 424.415 450.98C424.299 450.398 423.683 450.171 422.978 450.137ZM228.696 450.387C223.876 455.206 214.035 463.646 211.134 469.449C214.691 473.006 217.103 466.097 219.321 465.918C222.728 465.642 226.158 465.734 229.571 465.918C231.13 466.002 229.256 469.802 231.04 470.012C232.495 470.183 233.991 470.183 235.446 470.012C236.824 469.849 235.277 458.843 235.134 457.418C234.903 455.111 235.377 452.087 228.696 450.387ZM229.603 455.355L229.759 462.168L222.728 461.855L229.603 455.355ZM294.634 450.387C290.449 454.572 289.128 464.023 286.415 469.449C291.432 474.466 295.657 458.687 296.978 455.387C297.535 453.992 299.328 451.565 294.634 450.387ZM304.884 450.387C303.613 450.56 303.174 453.628 302.821 454.512C301.882 456.86 296.317 467.711 296.665 469.449C296.898 470.614 299.039 470.279 300.196 470.012C301.668 469.672 304.796 458.099 306.634 456.262C308.108 457.736 310.733 469.893 311.915 470.012C313.664 470.186 315.425 470.26 317.165 470.012C318.555 469.813 319.119 466.3 319.509 465.324C320.602 462.592 325.827 452.559 325.103 450.387C317.492 450.387 319.92 459.069 315.415 463.574C313.997 462.155 311.673 450.503 310.446 450.387C308.599 450.211 306.722 450.136 304.884 450.387ZM355.571 450.387C354.412 450.44 354.134 452.918 353.79 453.605C355.557 455.372 360.064 452.408 360.54 454.793C361.219 458.189 353.752 466.334 354.978 470.012C356.247 470.012 357.532 470.18 358.79 470.012C359.72 469.888 363.972 456.467 365.228 454.793C366.84 452.643 375.658 456.176 373.728 450.387C367.673 450.387 361.62 450.108 355.571 450.387ZM236.915 525.387C224.302 526.678 211.91 527.47 199.415 527.73C195.002 527.822 192.384 533.08 192.384 536.824C192.384 537.791 194.045 539.44 195.009 539.449C205.165 539.545 215.322 539.543 225.478 539.449C229.916 539.408 240.46 525.024 236.915 525.387ZM505.259 525.699C493.68 528.911 479.428 527.503 468.634 527.73C465.019 527.806 461.321 532.462 461.321 535.949C461.321 537.084 462.966 539.437 464.259 539.449C474.415 539.545 484.572 539.543 494.728 539.449C499.003 539.409 503.016 534.962 504.384 531.543C504.885 530.29 507.473 525.085 505.259 525.699Z" fill="#ffffff" fill-rule="nonzero" opacity="1" stroke="none"/>
</g>
</svg>
