<?xml version="1.0" encoding="UTF-8" standalone="no"?>
<!DOCTYPE svg PUBLIC "-//W3C//DTD SVG 1.1//EN" "http://www.w3.org/Graphics/SVG/1.1/DTD/svg11.dtd">
<!-- Created with Vectornator (http://vectornator.io/) -->
<svg height="100%" stroke-miterlimit="10" style="fill-rule:nonzero;clip-rule:evenodd;stroke-linecap:round;stroke-linejoin:round;" version="1.1" viewBox="0 0 750 1000" width="100%" xml:space="preserve" xmlns="http://www.w3.org/2000/svg" xmlns:vectornator="http://vectornator.io" xmlns:xlink="http://www.w3.org/1999/xlink">
<defs/>
<g id="Layer-1" vectornator:layerName="Layer 1">
<path d="" fill="none" opacity="1" stroke="#ffffff" stroke-linecap="butt" stroke-linejoin="miter" stroke-width="5" vectornator:layerName="path"/>
<path d="" fill="none" opacity="1" stroke="#ffffff" stroke-linecap="butt" stroke-linejoin="miter" stroke-width="5" vectornator:layerName="path"/>
<path d="M402.664 242.281L75.0002 756.688C75.0002 756.688 245.784 757.086 331.179 756.988C331.455 756.988 331.583 756.609 331.779 756.413C327.611 752.245 326.343 743.643 323.275 738.529C318.742 730.974 316.453 722.173 311.844 714.492C309.463 710.523 305.968 704.444 304.815 699.835C303.734 695.51 299.327 687.195 296.886 683.127C296.379 682.282 295.136 680.461 295.136 679.325C295.136 676.961 299.721 671.757 300.988 669.645C306.083 661.153 311.15 652.625 316.246 644.132C329.005 622.868 341.58 601.517 354.34 580.25C360.812 569.464 366.694 558.18 373.675 547.709C374.796 548.83 374.703 551.421 375.151 552.986C376.352 557.192 381.055 570.036 380.428 573.797C380.249 574.87 378.382 576.891 377.777 577.899C374.504 583.354 371.462 589.041 368.122 594.607C357.179 612.845 347.896 632.4 336.156 650.01C330.838 657.987 326.66 666.82 321.799 674.922C320.696 676.76 316.849 681.208 318.872 682.826C320.257 683.934 325.349 678.509 326.501 677.549C333.911 671.374 341.355 665.262 348.762 659.09C355.959 653.092 363.223 647.137 370.473 641.206C383.021 630.939 395.086 618.828 408.567 609.84C409.007 610.28 409.003 610.276 409.443 610.715C410.276 610.299 409.878 610.581 410.618 609.84C418.676 616.554 425.007 626.686 431.729 634.752C446.643 652.65 460.938 671.175 476.276 688.704C477.855 687.126 474.632 679.669 473.925 677.549C470.516 667.321 467.505 656.842 464.545 646.483C459.864 630.097 455.286 613.427 449.888 597.234C448.751 593.823 444.108 582.387 444.61 579.375C444.938 577.406 448.215 574.15 449.313 572.321C453.425 565.467 457.393 558.212 462.194 551.811C464.369 553.986 466.94 572.564 467.772 576.723C472.809 601.907 477.947 627.427 484.18 652.361C485.944 659.417 487.584 666.603 488.882 673.747C489.125 675.081 490.814 679.193 490.058 680.2C477.444 697.019 465.438 714.369 452.814 731.201C447.74 737.966 442.798 744.828 437.882 751.711C437.502 752.242 432.874 757.579 435.531 757.589C515.355 757.881 675.001 757.589 675 757.589L559.418 242.281L402.664 242.281ZM484.93 251.536C507.256 251.595 529.564 251.75 551.889 251.961C552.994 251.971 555.608 265.472 555.991 267.194C559.924 284.893 563.787 302.54 567.722 320.245C584.492 395.709 601.365 471.313 618.147 546.833C628.002 591.181 637.886 635.57 647.737 679.9C651.059 694.848 654.398 709.811 657.717 724.747C658.956 730.326 660.133 735.914 661.519 741.456C661.65 741.983 663.221 747.029 661.819 747.033C593.621 747.228 525.414 747.326 457.217 747.033C455.753 747.027 460.543 740.647 461.044 739.98C464.313 735.621 467.531 731.232 470.698 726.798C478.295 716.164 486.019 705.588 493.86 695.133C495.551 692.878 502.88 684.529 503.24 682.551C504.065 678.014 500.709 670.602 499.713 666.118C496.911 653.511 494.362 640.837 491.234 628.324C480.814 586.646 473.511 544.227 463.095 502.561C459.652 488.793 456.796 474.804 453.715 460.94C453.367 459.377 451.17 448.079 450.488 448.059C440.722 447.775 430.937 447.68 421.174 448.059C421.09 448.062 415.879 456.742 415.296 457.714C409.14 467.974 402.991 478.247 396.836 488.504C370.162 532.961 343.494 577.416 316.821 621.871C308.614 635.551 300.416 649.214 292.209 662.891C289.571 667.289 286.917 671.702 284.28 676.098C283.917 676.703 282.298 678.477 282.229 679.024C281.823 682.271 289.532 695.406 291.309 698.959C298.935 714.212 306.4 730.843 314.195 746.433C314 746.629 313.871 747.033 313.595 747.033C245.69 747.228 177.798 747.228 109.893 747.033C109.617 747.033 109.488 746.629 109.293 746.433C111.438 744.288 123.395 736.758 126.476 736.328C126.417 736.171 126.381 735.997 126.301 735.878C140.162 725.483 156.289 716.955 171.149 708.039C192.257 695.374 212.772 681.735 233.88 669.07C243.736 663.156 253.312 656.8 263.17 650.885C266.514 648.879 272.729 646.522 275.201 643.557C277.459 640.847 271.749 631.452 270.498 628.324C264.596 613.568 258.29 598.355 252.339 583.477C251.646 581.745 245.291 567.122 245.586 566.768C247.537 564.427 251.499 562.745 254.09 561.191C259.436 557.983 264.579 554.442 269.923 551.236C287.166 540.89 303.68 529.34 320.923 518.994C328.842 514.243 339.621 509.376 346.136 502.861C338.425 487.44 327.654 472.614 321.224 456.538C320.563 454.887 313.583 443.406 313.895 442.781C314.756 441.058 330.808 434.19 333.53 433.102C342.473 429.524 350.675 424.073 359.618 420.495C368.957 416.76 379.168 412.167 387.757 407.013C392.955 403.894 399.025 401.83 404.465 399.11C406.096 398.294 409.923 397.669 410.618 395.583C410.665 395.443 403.488 383.091 402.714 381.801C394.728 368.49 386.194 354.938 379.253 341.055C382.706 337.602 390.259 335.537 394.785 333.727C408.412 328.276 421.329 321.018 434.955 315.568C439.584 313.716 444.252 311.645 448.712 309.415C449.584 308.979 452.814 308.512 452.814 307.063C452.814 305.638 446.361 297.058 445.211 295.333C437.962 284.459 431.048 273.388 423.8 262.516C423.816 262.5 423.835 262.485 423.85 262.466C423.119 261.932 421.517 258.929 421.174 258.414C420.78 257.823 416.176 251.673 417.947 251.661C440.272 251.506 462.604 251.476 484.93 251.536ZM406.216 253.137C414.224 263.814 421.053 275.403 428.802 286.253C432.525 291.464 437.074 296.944 439.933 302.661C436.847 305.747 431.143 306.606 427.327 308.514C413.733 315.311 399.3 321.896 385.106 327.574C380.197 329.537 375.202 331.662 370.473 334.027C369.385 334.571 365.71 335.456 365.471 336.653C365.362 337.195 370.694 345.842 371.349 346.933C377.62 357.385 383.091 368.338 389.233 378.574C390.099 380.018 396.474 391.054 396.261 391.481C395.196 393.611 379.492 399.853 376.326 401.436C357.969 410.614 337.777 418.062 320.048 428.699C314.95 431.758 308.822 434.037 303.64 436.628C302.575 437.161 299.853 437.376 299.538 438.954C299.198 440.651 303.297 445.929 304.215 447.459C309.681 456.568 314.282 466.187 319.748 475.298C323.144 480.959 326.03 486.943 329.428 492.606C330.864 495 331.855 498.26 333.83 500.235C325.33 507.035 315.022 512.495 305.691 518.094C290.258 527.354 275.401 537.574 259.968 546.833C252.11 551.548 239.58 557.516 233.28 563.817C245.338 587.933 252.564 614.416 264.645 638.579C256.311 645.247 246.233 650.672 237.082 656.163C218.373 667.388 200.411 679.806 181.704 691.03C159.835 704.152 138.789 718.656 116.921 731.776C109.372 736.306 102.163 742.244 94.3349 746.158C93.1132 744.326 96.5052 740.865 97.5615 739.105C101.837 731.979 106.436 724.931 111.044 718.019C130.32 689.105 146.86 658.037 167.047 629.775C175.69 617.674 183.432 604.434 191.084 591.681C202.628 572.44 215.584 554.041 227.127 534.802C261.718 477.149 300.697 422.156 335.281 364.517C350.215 339.627 366.968 315.823 381.904 290.93C387.145 282.196 393.07 273.879 398.312 265.143C400.662 261.226 402.979 256.373 406.216 253.137ZM443.185 457.314L460.818 542.431L377.227 542.131L427.827 457.389L443.185 457.314ZM386.881 551.811C407.399 551.617 427.92 551.617 448.437 551.811C450.207 551.828 446.171 557.323 445.786 557.964C442.717 563.079 439.475 568.081 436.406 573.197C435.399 574.875 432.947 577.209 433.48 579.075C437.99 594.859 443.05 610.481 447.562 626.273C448.273 628.762 452.664 640.781 451.364 642.081C441.302 630.342 431.54 618.305 421.749 606.338C419.111 603.114 416.512 599.858 413.845 596.658C413.049 595.703 412.337 593.542 411.194 594.032C406.353 596.107 398.82 604.176 394.485 607.789C381.211 618.851 368.16 630.566 354.34 640.93C354.047 640.637 354.058 640.623 353.765 640.33C363.702 625.424 371.525 609.371 380.728 594.032C384.077 588.45 386.885 582.088 390.683 577.023C392.636 574.42 388.173 561.221 387.157 557.664C386.938 556.899 385.303 551.826 386.881 551.811Z" fill="#FFFFFF" fill-rule="nonzero" opacity="1" stroke="none" vectornator:layerName="path"/>
</g>
</svg>
