<?xml version="1.0" encoding="UTF-8" standalone="no"?>
<!DOCTYPE svg PUBLIC "-//W3C//DTD SVG 1.1//EN" "http://www.w3.org/Graphics/SVG/1.1/DTD/svg11.dtd">
<!-- Created with Vectornator (http://vectornator.io/) -->
<svg height="100%" stroke-miterlimit="10" style="fill-rule:nonzero;clip-rule:evenodd;stroke-linecap:round;stroke-linejoin:round;" version="1.1" viewBox="0 0 750 1000" width="100%" xml:space="preserve" xmlns="http://www.w3.org/2000/svg" xmlns:vectornator="http://vectornator.io" xmlns:xlink="http://www.w3.org/1999/xlink">
<defs/>
<g id="Layer-1" vectornator:layerName="Layer 1">
<path d="M160.358 390.307C156.988 390.078 153.619 390.109 150.328 390.383C127.518 392.284 109.633 410.55 102.772 431.134C100.984 436.498 98.086 452.329 103.075 455.655C111.043 460.967 119.307 451.672 126.109 448.271C126.404 448.566 126.393 448.581 126.689 448.876C118.938 456.626 117.063 467.892 111.643 476.925C108.512 482.144 106.505 489.314 104.536 495.222C100.565 507.135 95.7517 518.254 91.2551 529.496C89.3495 534.26 85.6908 540.414 82.107 544.264C79.7334 546.813 75.0001 548.442 75.0001 551.925C75.0001 561.156 77.0918 570.849 77.0918 580.277C77.0918 586.853 78.6354 592.701 86.5424 592.701C90.983 592.701 95.9313 586.277 98.3368 583.528C102.731 578.506 107.399 571.645 109.854 565.509C110.879 562.946 112.166 559.096 113.911 556.537C114.124 556.061 118.14 547.062 122.656 534.208C126.843 522.293 131.243 507.09 134.803 497.288C142.308 476.63 143.775 474.229 143.775 474.229C143.775 474.229 143.479 474.953 144.052 479.899C144.626 484.845 148.508 489.952 154.183 492.626C159.859 495.3 165.902 492.878 165.902 492.878C165.902 492.878 169.196 500.975 169.884 505.378C170.572 509.781 170.156 515.109 168.826 521.759C167.495 528.409 163.102 536.107 158.745 541.29C154.388 546.473 149.237 548.351 146.573 549.531C143.908 550.71 135.617 550.356 133.039 549.657C130.462 548.958 126.082 546.933 123.286 546.759C120.49 546.584 117.487 549.29 116.482 553.135C115.815 555.686 116.526 557.744 117.162 559.133C117.649 560.141 118.197 561.151 119.027 561.98C122.412 565.365 126.685 567.276 130.242 569.944C133.448 572.348 140.885 573.634 144.708 573.8C168.26 574.824 178.958 566.413 191.961 546.91C193.937 548.887 194.877 553.117 198.463 553.714C205.376 554.867 212.361 548.703 217.061 544.264C227.577 534.333 236.241 523.244 243.649 510.897C246.441 506.244 248.547 498.102 253.099 495.826C254.544 497.271 251.696 502.412 251.335 504.395C250.183 510.731 248.223 517.867 250.428 524.481C252.195 529.782 256.758 535.205 262.248 536.577C279.421 540.871 290.827 531.992 302.999 520.927C311.012 526.269 313.327 531.61 324.874 528.311C328.703 527.217 331.869 523.897 335.483 522.994C336.94 522.629 339.008 525.261 340.524 525.64C346.125 527.04 351.705 528.204 357.358 525.942C378.657 517.423 393.269 483.852 407.56 465.988C407.855 466.283 407.844 466.297 408.139 466.593C402.376 478.12 395.74 486.227 395.74 499.959C395.74 515.916 420.554 517.066 429.989 509.99C438.262 503.785 446.166 496.83 451.562 487.837C452.732 485.888 461.128 469.32 461.894 468.936C463.005 468.381 464.51 468.384 465.725 467.777C466.901 468.953 463.81 475.608 463.658 477.505C463.517 479.274 463.381 481.048 463.381 482.822C463.381 492.118 472.492 499.648 480.796 501.724C488.376 503.619 496.353 502.526 503.25 499.077C504.977 498.214 506.72 496.288 508.568 495.826C510.277 495.399 514.202 498.275 515.952 498.775C521.948 500.488 528.363 501.214 534.55 500.262C558.397 496.593 568.799 476.611 568.799 454.471C568.799 446.051 563.207 438.759 562.6 430.252C561.752 418.388 564.716 419.227 568.22 410.469C568.977 408.575 569.166 403.932 567.338 401.9C561.417 395.322 551.616 398.347 545.765 403.689C536.277 412.352 530.536 423.235 525.1 434.108C523.839 436.63 520.506 446.284 518.295 447.389C517.118 447.978 511.001 447.598 511.516 445.02C511.771 443.748 513.792 443.948 514.767 443.558C516.649 442.805 518.454 440.833 519.48 439.123C524.222 431.22 519.886 417.872 510.332 415.484C499.483 412.772 490.537 417.032 484.047 426.119C479.945 431.861 477.708 438.473 470.16 441.492C468.737 442.061 468.437 438.218 468.094 437.359C466.955 434.512 464.614 431.812 462.474 429.672C453.213 420.411 440.686 429.816 435.03 437.359C420.663 422.993 407.488 432.39 395.74 444.138C386.588 453.29 379.636 465.88 373.008 476.925C369.099 483.441 364.206 489.221 360.004 495.524C358.11 493.629 363.192 485.186 364.138 482.822C369.262 470.01 373.851 457.498 380.09 445.02C378.758 443.688 376.115 444.666 374.47 444.743C371.224 444.894 367.973 444.661 364.742 445.02C364.106 445.091 362.404 446.744 361.769 446.809C359.223 447.073 356.665 446.721 354.107 446.809C352.763 446.856 353.508 447.374 352.318 447.969C352.299 447.978 338.336 445.322 337.852 445.322C325.645 445.322 314.673 454.688 308.316 464.224C300.334 476.197 298.121 489.838 289.415 502.026C287.43 504.805 282.237 513.015 277.621 511.477C277.621 502.849 279.406 494.895 281.754 486.678C283.058 482.112 286.164 477.251 286.164 472.49C286.164 469.248 283.4 464.608 279.964 463.921C273.206 462.57 265.481 471.005 260.181 469.239C260.181 450.54 235.805 443.334 225.932 459.788C222.409 465.66 222.552 473.326 225.05 479.571C225.962 481.852 230.204 485.052 229.763 487.258C229.009 491.029 225.549 495.465 223.563 498.775C215.46 512.28 207.146 524.373 196.976 536.577C195.724 535.326 197.503 531.572 197.858 529.798C199.08 523.686 199.484 517.354 199.042 511.174C198.585 504.768 196.454 495.391 192.565 490.206C190.411 487.334 188.358 484.084 186.341 481.058C186.222 480.88 185.827 480.158 186.063 479.874C188.742 476.66 192.177 474.191 194.909 471.003C201.578 463.222 206.504 452.657 207.031 442.374C207.226 438.578 206.346 432.39 206.729 428.185C206.84 426.964 212.036 426.501 212.928 426.119C220.261 422.976 220.995 415.562 215.6 410.166C211.59 406.157 203.282 410.79 198.463 409.284C194.742 408.121 192.2 402.326 188.71 399.834C180.579 394.026 170.466 390.996 160.358 390.307ZM155.469 398.322C164.857 398.093 174.336 400.428 182.208 405.151C185.462 407.104 187.967 409.706 190.499 412.535C191.16 413.274 193.538 417.67 194.632 417.853C198.276 418.46 208.935 414.66 210.862 417.55C208.776 419.636 200.383 422.288 197.278 422.288C196.339 425.104 199.345 430.653 199.345 433.805C199.345 445.759 196.504 458.798 187.827 467.475C183.499 471.803 178.149 474.784 173.941 478.992C187.034 492.903 194.712 506.808 190.196 527.127C188.963 532.676 187.433 538.898 184.576 543.659C175.49 558.803 162.512 567.734 144.708 565.509C137.034 564.549 129.465 561.452 124.345 555.478C126.609 554.724 131.024 557.468 133.493 557.847C138.731 558.653 144.354 557.815 149.446 556.36C176.567 548.612 181.829 511.827 173.059 489.904C172.033 487.337 169.155 484.548 167.162 483.125C166.693 482.79 163.198 485.578 162.424 485.771C157.358 487.038 150.907 483.571 150.907 477.807C150.907 470.196 157.607 467.965 163.911 469.541C165.443 469.924 166.88 472.187 168.347 472.187C169.836 472.187 172.059 470.541 173.059 469.541C179.458 463.143 185.459 451.91 185.459 442.651C185.459 439.284 185.393 428.945 183.115 428.185C181.753 427.731 177.59 430.494 176.31 431.134C169.275 434.652 161.538 438.523 155.922 444.138C151.784 448.276 148.079 452.423 144.708 457.142C135.036 470.683 130.468 486.302 125.227 502.026C119.905 517.991 114.514 533.671 108.392 548.976C104.329 559.135 95.6441 579.405 85.6352 584.41C84.3745 583.149 85.0555 580.9 85.0555 579.117C85.0555 573.15 84.7383 567.029 84.1735 561.098C83.9766 559.031 82.7974 556.827 83.5686 554.899C84.7564 551.929 88.6782 549.126 90.6755 546.33C95.2014 539.994 98.7509 533.034 101.588 525.942C111.74 500.562 119.161 465.829 139.088 445.902C146.101 438.888 154.112 432.064 163.029 427.606C166.738 425.751 177.422 422.941 179.561 420.801C169.937 407.968 146.706 403.178 134.677 415.207C127.635 422.249 127.168 429.963 126.411 439.425C126.389 439.703 126.029 439.838 125.806 440.005C123.509 441.728 119.341 442.226 116.658 443.836C115.169 444.729 109.707 450.001 108.669 448.271C107.142 445.725 108.634 441.122 109.274 438.241C112.115 425.458 118.621 414.995 129.36 406.94C136.799 401.361 146.08 398.55 155.469 398.322ZM557.711 406.26C558.47 406.156 559.229 406.175 559.954 406.336C561.693 406.722 557.182 412.823 556.703 414.022C554.421 419.725 554.257 424.876 554.636 431.134C555.07 438.298 558.569 444.293 560.231 450.942C562.683 460.752 560.01 474.197 552.57 481.638C544.277 489.931 535.107 493.235 523.336 491.996C519.502 491.592 515.411 490.431 512.096 488.442C511.415 488.034 508.978 485.717 508.265 486.073C504.618 487.897 502.111 491.317 498.21 492.878C490.553 495.94 471.345 494.89 471.345 482.545C471.345 478.171 472.135 475.203 473.109 471.305C475.287 462.593 485.788 459.394 490.246 452.706C488.714 450.955 487.181 447 485.533 445.902C479.961 450.678 473.228 456.147 466.33 458.906C464.098 459.799 456.693 461.074 455.695 462.737C453.874 465.771 452.282 469.783 450.957 473.095C447.127 482.67 438.772 492.04 431.476 498.775C425.653 504.15 414.837 509.448 407.257 504.395C402.883 501.479 403.425 497.02 404.611 492.273C407.037 482.572 413.619 474.945 417.313 465.71C418.564 462.582 420.363 451.824 414.339 451.824C407.617 451.824 403.303 458.375 399.571 463.039C388.864 476.423 381.065 494.826 369.153 506.739C365.341 510.55 357.679 519.163 350.856 519.163C347.174 519.163 343.828 518.51 340.801 516.492C339.785 515.814 336.073 512.176 335.786 512.359C329.326 516.47 319.709 526.397 311.567 518.256C309.887 516.576 307.783 514.378 306.854 512.056C306.182 510.375 305.991 507.664 304.788 506.461C297.624 515.416 278.289 537.225 263.432 528.311C252.241 521.596 259.038 504.178 262.853 494.642C264.042 491.667 264.43 487.932 265.801 485.191C264.603 483.993 258.792 487.25 256.93 487.56C254.387 487.984 247.827 485.795 246.295 487.837C243.143 492.04 241.633 498.371 238.911 502.908C231.695 514.934 224.049 527.113 213.533 536.577C210.211 539.567 205.482 544.268 201.109 545.725C199.753 543.692 207.481 536.814 209.4 534.511C218.695 523.357 227.115 510.548 233.593 497.59C234.174 496.43 239.925 485.184 239.516 484.612C237.789 482.195 234.607 480.463 233.014 477.807C229.13 471.334 231.963 458.326 241.28 458.326C245.677 458.326 252.217 461.927 252.217 466.87C252.217 469.308 249.577 477.361 249.848 478.992C249.894 479.266 250.151 479.55 250.428 479.571C256.589 480.045 263.918 477.724 269.632 475.438C271.248 474.792 277.606 470.763 277.898 473.095C278.234 475.786 275.497 479.995 274.647 482.545C272.307 489.565 269.632 498.145 269.632 505.579C269.632 513.788 269.622 521.194 279.385 520.045C286.621 519.194 291.922 512.065 295.917 506.739C308.81 489.548 315.767 444.454 346.723 454.773C350.711 456.102 352.415 458.121 355.569 461.275C357.352 459.492 356.865 456.337 358.82 454.773C360.176 453.688 367.034 452.7 367.389 454.471C367.883 456.944 363.638 463.304 362.676 465.71C359.194 474.415 354.319 482.963 351.738 491.996C351.001 494.576 349.662 506.739 355.292 506.739C362.977 506.739 366.725 499.962 370.942 494.339C381.44 480.342 388.965 464.227 400.478 450.942C403.634 447.301 411.411 438.518 417.59 438.518C419.12 438.518 424.795 438.255 426.763 440.005C436.463 448.626 420.935 470.419 417.59 480.453C416.442 483.899 413.964 494.339 420.539 494.339C432.252 494.339 440.588 480.274 445.362 470.726C446.284 468.882 450.163 464.285 449.798 462.459C449.743 462.186 449.442 461.979 449.193 461.855C446.412 460.464 444.945 460.125 442.691 457.419C437.731 451.467 441.303 440.544 446.547 436.174C451.477 432.066 459.182 435.395 461.012 440.887C461.86 443.429 461.35 446.317 460.71 448.876C460.552 449.509 458.967 453.046 460.407 453.286C467.891 454.533 482.645 443.071 486.693 438.518C487.809 437.262 487.843 434.727 488.759 433.2C490.933 429.578 493.968 426.875 497.328 424.355C504.777 418.767 519.21 428.178 512.096 435.292C510.223 433.419 511.701 430.616 509.147 428.488C503.381 423.682 493.86 432.865 493.195 438.518C492.744 442.353 492.73 446.867 496.748 448.876C498.966 449.985 506.7 448.112 505.014 450.64C503.609 452.747 499.404 453.691 497.328 455.075C491.144 459.198 484.672 464.795 482.56 472.187C477.959 488.29 495.68 492.175 504.712 481.638C496.332 469.067 505.19 448.939 522.151 457.419C531.3 445.221 535.132 429.509 544.303 416.668C546.536 413.543 552.395 406.987 557.711 406.26ZM153.906 416.618C154.872 416.691 155.699 416.835 156.452 416.895C159.463 417.134 163.684 418.609 163.684 418.609C163.684 418.609 153.403 423.573 146.951 428.639C140.498 433.705 134.476 439.828 134.476 439.829C134.476 439.829 132.409 426.298 140.726 420.801C146.963 416.679 151.009 416.398 153.906 416.618ZM503.527 436.174C504.868 437.515 504.693 439.683 506.199 441.189C505.756 441.632 505.76 441.628 505.317 442.071C503.958 441.392 502.474 442.588 501.184 442.071C498.467 440.985 502.626 436.625 503.527 436.174ZM178.2 439.299C178.2 439.299 177.734 446.175 176.109 450.716C174.484 455.256 168.599 463.291 168.599 463.291C168.599 463.291 164.686 460.708 159.955 460.947C155.223 461.186 153.782 461.854 152.419 462.535C151.057 463.216 148.286 465.358 148.286 465.358C148.286 465.358 156.751 453.536 161.769 449.808C166.788 446.08 168.937 443.838 171.9 442.5C174.863 441.162 178.2 439.299 178.2 439.299ZM435.534 459.788C435.533 459.788 436.599 461.816 437.575 462.989C438.551 464.162 439.692 465.232 439.692 465.232C439.692 465.232 436.382 470.267 432.988 475.64C429.594 481.013 424.898 484.788 424.898 484.788C424.898 484.788 427.063 477.841 429.939 472.187C432.815 466.534 435.534 459.788 435.534 459.788ZM493.497 468.357C495.298 470.158 493.607 475.936 494.984 478.689C488.24 485.434 488.487 470.862 493.497 468.357ZM117.162 559.133C116.454 557.664 115.892 556.174 114.894 555.176C114.534 555.537 114.234 556.063 113.911 556.537C113.906 556.55 113.76 556.865 113.76 556.865L117.868 560.695C117.868 560.695 117.485 559.836 117.162 559.133ZM603.124 424.002C602.318 423.851 601.517 423.861 600.705 424.052C592.806 425.91 590.217 438.862 588.305 446.507C587.721 448.846 588.912 452.646 587.423 454.773C584.164 459.429 579.413 462.542 578.25 468.357C576.905 475.08 578.554 482.391 574.722 488.14C571.368 493.171 571.636 500.557 571.471 506.159C571.462 506.453 570.815 507.287 570.589 507.343C564.288 508.919 556.993 509.063 550.503 509.99C536.721 511.958 522.945 514.072 509.147 515.912C459.27 522.562 409.513 530.343 359.702 537.459C342.789 539.876 324.888 541.003 308.316 545.146C302.342 546.639 293.659 551.859 292.086 558.15C287.076 578.191 295.557 592.399 317.187 592.399C322.753 592.399 328.822 590.876 334.324 590.03C344.452 588.472 354.614 587.152 364.742 585.594C396.022 580.782 427.291 576.212 458.643 571.733C483.075 568.243 507.444 564.287 531.879 560.796C539.17 559.754 546.475 558.665 553.754 557.545C556.018 557.197 558.475 555.888 560.836 556.36C561.997 556.593 560.836 561.302 560.836 568.482C560.836 570.798 562.297 572.941 562.297 575.262C562.297 576.702 561.103 578.529 560.836 580C559.71 586.189 559.171 594.707 563.205 600.085C568.841 607.6 575.594 610.927 585.332 609.536C588.009 609.153 590.598 607.469 593.32 607.469C599.026 607.469 604.694 608.689 610.458 608.049C615.49 607.49 620.837 604.495 625.805 604.495C629.248 604.495 630.985 604.904 634.071 604.218C637.804 603.389 641.453 601.712 644.706 600.085C645.794 599.541 647.259 597.823 648.537 597.716C659.039 596.841 672.004 595.958 674.545 583.251C675.852 576.715 674.183 572.522 671.571 567.298C670.744 565.644 670.939 560.98 670.689 558.729C670.041 552.893 664.789 547.686 661.844 542.777C661.429 542.085 659.303 537.591 659.777 536.88C660.781 535.374 662.367 534.342 663.608 533.024C667.797 528.573 668.32 521.93 668.32 516.189C668.32 514.582 667.222 511.28 666.254 509.99C662.574 505.083 658.188 500.062 651.788 499.077C648.148 498.517 645.376 498.481 641.455 497.893C641.18 497.852 640.91 497.564 640.876 497.288C639.639 487.395 637.921 485.861 632.887 477.807C631.582 475.719 632.738 472.881 632.585 470.423C632.4 467.472 632.021 464.55 631.123 461.855C628.911 455.218 624.942 451.438 620.79 445.625C619.298 443.536 619.159 440.401 617.539 438.241C614.128 433.692 608.762 425.06 603.124 424.002ZM602.166 432.041C610.093 436.005 612.168 442.402 616.052 448.876C620.956 457.049 626.332 460.234 626.99 470.423C627.193 473.568 626.728 476.773 627.292 479.874C627.718 482.214 633.225 487.366 634.374 490.811C635.487 494.152 634.429 498.598 636.138 501.446C638.643 505.622 642.175 503.754 647.075 504.092C653.246 504.518 659.471 508.191 661.844 514.123C663.762 518.919 662.642 526.026 658.87 529.798C658.698 529.969 652.181 535.148 652.393 535.998C654.214 543.28 660.464 550.76 664.187 556.965C666.15 560.237 665.382 565.121 665.674 568.482C665.796 569.885 667.769 571.818 668.32 573.195C670.736 579.233 669.281 585.025 664.187 588.845C659.597 592.288 652.113 591.607 647.075 591.794C645.864 591.839 643.873 593.767 642.942 594.465C640.056 596.63 635.464 598.209 632.005 598.901C629.069 599.488 626.517 598.296 623.739 598.296C620.05 598.296 615.149 601.263 611.34 601.849C605.368 602.768 599.506 601.547 593.623 601.547C586.753 601.547 578.125 607.621 571.471 600.967C565.848 595.344 564.596 589.135 566.43 580.882C566.771 579.347 568.522 577.051 568.522 575.564C568.522 573.159 566.804 570.305 566.43 567.878C565.631 562.68 566.628 554.806 569.102 549.858C568.806 549.563 568.817 549.574 568.522 549.279C563.612 551.734 555.364 551.386 549.898 552.227C533.966 554.679 518.023 557.029 502.066 559.309C447.584 567.092 393.216 575.745 338.734 583.528C328.136 585.042 316.776 587.949 306.25 585.317C296.143 582.791 292.316 564.397 299.168 557.545C307.019 549.694 316.3 549.614 326.94 548.094C342 545.943 357.09 543.906 372.126 541.592C420.478 534.154 468.984 527.543 517.413 520.625C530.408 518.768 543.39 516.765 556.4 515.03C561.066 514.408 571.809 514.256 575.604 512.359C577.775 511.273 577.485 497.425 578.552 493.155C579.066 491.101 582.257 489.381 582.383 487.56C582.566 484.907 582.57 482.229 582.685 479.571C582.922 474.129 583.066 468.66 586.516 464.224C588.371 461.838 591.205 459.937 592.716 457.419C593.895 455.454 593.652 450.988 593.9 448.876C594.6 442.93 597.933 436.275 602.166 432.041ZM546.37 427.606C538.045 435.931 534.181 448.005 528.351 457.722C523.999 464.974 517.194 472.652 513.583 479.874C518.089 484.38 528.299 482.638 533.946 480.756C551.231 474.994 555.692 456.137 551.083 440.005C550.254 437.105 548.652 429.127 546.37 427.606ZM544.152 446.709C544.152 446.709 544.827 452.538 544.757 455.378C544.687 458.218 544.379 460.192 541.153 465.837C537.928 471.481 529.082 472.969 529.082 472.969L544.152 446.709ZM451.562 439.702C446.17 441.5 445.099 448.915 448.89 452.706C450.103 453.919 452.204 453.481 453.628 454.193C456.391 451.43 458.987 439.998 451.562 439.702ZM603.653 441.492C602.38 442.765 601.73 443.905 601.788 445.096C601.718 444.993 601.665 444.821 601.587 444.743C599.199 447.131 598.413 455.409 599.696 459.461C599.572 459.291 599.522 459.312 599.218 458.906C597.107 461.017 595.372 463.75 593.32 465.988C587.462 471.846 589.266 478.293 588.885 486.678C588.697 490.825 584.893 492.224 584.172 495.826C583.846 497.46 584.031 499.31 583.265 500.841C583.53 501.107 583.538 501.254 583.693 501.472C582.809 503.616 583.075 512.16 581.501 515.307C581.513 515.32 581.514 515.32 581.526 515.332C579.95 516.983 580.03 517.646 581.652 519.566C581.136 518.947 580.692 518.329 580.039 517.676C577.914 519.802 573.444 517.769 571.168 520.045C571.224 520.1 571.312 520.095 571.37 520.146C564.432 519.059 551.221 522.257 546.068 522.994C543.873 523.307 540.455 523.117 538.658 524.607C536.931 524.062 532.162 524.606 529.384 525.161C529.2 525.159 529.131 525.078 528.931 525.085C526.91 525.16 523.158 525.88 521.395 526.446C521.461 526.512 521.597 526.558 521.672 526.623C518.568 526.325 515.122 527.454 511.516 528.009C497.768 530.124 483.949 532.093 470.16 533.931C430.534 539.215 391.014 545.389 351.436 551.043C341.21 552.504 330.968 554.014 320.715 555.478C316.622 556.063 310.609 555.948 307.132 558.729C299.332 564.969 301.01 578.793 311.87 580C318.04 580.685 324.35 579.026 330.468 578.21C344.57 576.33 358.623 574.022 372.706 572.011C390.732 569.436 408.736 566.622 426.763 564.047C447.944 561.021 469.066 557.622 490.246 554.596C493.884 554.077 508.433 553.222 510.811 551.093C513.717 551.682 519.943 550.303 520.664 549.581C520.644 549.561 520.634 549.526 520.614 549.506C523.717 550.732 529.477 548.813 532.182 548.397C542.117 546.868 552.083 545.49 562.02 543.961C562.71 543.855 566.98 543.169 568.85 542.122C570.627 543.634 575.741 542.571 577.418 541.29C577.61 542.481 577.495 543.777 577.922 545.02C577.682 544.815 577.693 544.866 577.368 544.541C576.265 545.644 576.055 548.28 575.604 549.858C573.568 556.983 569.52 567.445 575.352 573.75C575.328 573.773 575.327 573.775 575.301 573.8C576.209 575.614 574.013 577.838 573.235 579.395C570.811 584.243 571.059 591.71 574.999 595.65C580.305 600.956 587.26 595.045 593.018 595.045C594.984 595.045 597.261 596.343 599.218 595.952C599.443 595.907 599.546 595.83 599.722 595.776C601.158 597.031 603.401 597.043 604.863 595.826C607.896 597.047 615.904 594.506 617.842 593.86C619.779 593.215 621.553 591.893 623.436 591.517C626.275 590.949 629.25 593.049 632.585 592.096C637.096 590.807 640.832 586.485 645.286 585.594C652.486 584.154 657.494 586.694 662.726 581.461C662.574 581.31 662.536 581.272 662.423 581.159C666.268 578.033 659.578 573.359 659.475 570.549C659.004 557.846 657.406 558.843 651.486 548.976C650.17 546.784 649.974 543.695 648.209 541.643C648.233 541.619 648.235 541.618 648.26 541.592C646.656 538.386 643.615 536.185 642.035 533.024C643.099 531.96 644.776 531.827 646.193 531.26C652.21 528.853 656.526 524.28 656.526 517.676C656.526 516.927 655.505 515.748 655.644 515.61C651.916 511.881 646.588 509.204 641.077 509.637C639.241 509.781 637.384 510.261 635.558 511.174C635.358 511.274 635.27 511.475 635.13 511.628C634.536 509.773 633.095 507.947 631.677 506.184C631.691 506.171 631.689 506.172 631.702 506.159C628.857 501.891 630.065 499.006 628.754 493.76C627.696 489.529 620.79 484.22 620.79 481.361C620.79 465.596 620.562 464.771 611.617 453.589C608.377 449.539 608.671 444 603.653 441.492ZM604.535 445.902C606.057 447.424 605.899 450.08 607.207 451.824C611.363 457.367 616.547 461.995 617.539 468.936C618.217 473.683 616.926 478.933 618.724 483.427C620.173 487.05 630.075 495.934 625.704 501.093C625.568 500.93 625.678 501.051 625.503 500.841C622.706 501.401 619.512 502.328 616.657 502.328C616.531 502.328 616.334 502.196 616.178 502.127C616.448 501.983 616.785 501.91 616.934 501.724C618.555 499.697 617.19 481.615 612.801 482.545C611.132 482.899 614.868 495.821 614.868 498.195C614.868 499.154 613.857 500.592 614.011 501.572C612.412 502.223 614.561 502.33 612.801 503.21C609.018 505.102 599.435 505.125 594.782 506.159C594.048 506.322 588.964 507.294 586.818 508.352C586.206 506.963 586.06 505.598 585.71 504.244C587.134 502.612 586.036 499.748 586.516 497.59C587.194 494.539 590.558 492.977 590.952 489.627C591.623 483.917 590.265 477.343 592.438 471.91C593.089 470.284 594.606 469.338 595.387 467.777C595.374 467.766 595.375 467.763 595.362 467.752C597.636 465.498 599.605 463.776 601.007 460.973C600.781 460.747 600.805 460.718 600.679 460.595C602.466 458.632 603.33 450.829 602.443 446.809C602.646 447.099 602.768 447.385 603.073 447.691C604.012 446.753 603.482 447.306 604.535 445.902ZM626.687 502.908C628.385 505.418 629.119 506.31 629.636 507.343C626.359 508.982 622.299 509.062 618.724 509.712C610.026 511.294 601.228 512.295 592.716 514.728C591.015 515.213 583.598 515.24 584.752 511.779C585.37 509.924 593.125 508.896 594.782 508.528C605.31 506.188 616.229 505.523 626.687 502.908ZM629.51 508.956L626.461 511.829L620.437 518.331L612.927 512.182L629.51 508.956ZM630.82 509.99L633.945 513.644C633.945 513.644 630.084 522.03 626.99 525.64C617.81 536.35 606.983 543.874 593.32 546.91C591.272 547.365 578.89 549.78 578.552 548.094C578.422 547.441 579.616 542.158 580.316 541.895C584.251 540.419 589.434 540.875 593.623 539.828C597.26 538.919 600.686 537.162 604.233 536.275C615.355 533.494 630.82 509.99 630.82 509.99ZM608.013 512.812C612.728 513.167 618.147 518.587 621.067 521.507C619.689 522.786 618.439 524.234 616.934 525.363C616.758 525.495 616.538 525.182 616.355 525.06C612.467 522.468 605.712 518.544 603.653 514.425C604.945 513.134 606.441 512.694 608.013 512.812ZM646.773 513.241C649.417 513.241 651.844 515.383 653.275 517.374C656.465 523.753 642.251 531.418 639.591 529.546C637.535 525.362 635.611 519.469 636.138 514.728C636.321 513.083 642.878 513.241 646.773 513.241ZM584.172 515.307C593.676 514.151 591.973 532.327 586.818 538.341C585.748 539.59 580.349 541.693 580.039 539.526C579.551 536.105 583.87 531.777 583.87 528.009C583.87 522.811 578.655 515.978 584.172 515.307ZM600.705 515.358L612.927 525.942L610.18 528.538L593.699 523.246L592.64 516.97L600.705 515.358ZM633.189 520.625C636.902 523.747 633.15 527.068 630.82 523.573C631.581 522.559 632.292 521.522 633.189 520.625ZM577.065 520.927C586.233 520.472 581.79 536.302 576.486 539.249C574.228 540.503 575.218 532.74 574.999 531.865C573.97 527.751 571.88 523.005 574.923 521.456C574.734 521.313 574.45 521.235 574.243 521.104C574.874 521.14 575.497 521.116 576.133 521.104C576.446 521.044 576.686 520.946 577.065 520.927ZM569.404 522.112C573.5 521.784 574.132 535.683 573.537 539.249C573.311 540.609 569.471 540.552 568.522 540.71C564.791 541.332 567.028 535.715 566.43 533.326C564.87 527.086 562.074 522.698 569.404 522.112ZM560.533 523.296C562.617 523.006 563.966 524.789 563.91 527.001C563.963 526.948 564.001 526.91 564.087 526.824C564.137 526.849 564.188 526.875 564.238 526.9C564.125 526.981 564.002 527.152 563.885 527.253C563.859 527.604 563.888 527.947 563.784 528.311C563.252 530.175 560.813 532.381 559.651 533.931C559.597 534.003 559.529 534.085 559.475 534.158C559.507 534.201 559.592 534.312 559.626 534.36C559.467 534.38 559.306 534.525 559.147 534.586C554.986 540.24 550.008 548.043 542.817 541.315C539.868 538.557 535.748 536.495 534.248 532.747C533.449 530.748 533.171 528.236 534.399 527.127C534.287 527.03 534.18 526.991 534.072 526.9C534.175 526.929 534.555 526.976 534.601 527.001C535.268 526.528 536.265 526.363 537.801 526.824C539.881 527.448 546.356 535.136 548.789 536.653C549.251 536.684 549.696 536.599 550.125 536.401C554.113 533.026 554.993 524.066 560.533 523.296ZM554.334 524.178C554.631 524.377 554.696 524.801 554.661 525.312C554.745 525.337 554.83 525.335 554.913 525.363C554.766 525.658 554.784 525.647 554.636 525.942C554.651 525.957 554.647 525.954 554.661 525.967C554.624 526.007 554.597 526.054 554.56 526.093C553.828 528.875 550.649 533.543 549.319 534.208C547.694 535.021 543.169 529.565 541.355 527.48C541.091 527.177 540.882 526.956 540.75 526.824C543.249 524.325 550.852 524.676 554.334 524.178ZM593.32 525.942C594.811 525.777 606.812 527.978 609.273 531.26C604.442 534.481 602.238 534.59 596.874 532.444C595.701 531.975 593.65 531.96 592.716 531.26C591.848 530.609 591.767 526.115 593.32 525.942ZM630.694 525.993C631.264 525.924 631.868 525.941 632.534 526.043C633.422 526.179 634.429 526.448 635.558 526.824C636.384 527.099 637.214 529.992 637.902 530.68C635.614 532.968 628.085 532.132 626.108 529.496C627.618 527.23 628.984 526.198 630.694 525.993ZM529.535 527.706C531.205 527.518 531.987 528.741 532.408 530.327C532.538 530.164 532.602 530.514 532.484 530.831C532.808 532.374 532.898 534.154 533.064 535.393C533.341 537.47 533.598 539.196 533.719 540.736C533.783 541.169 534.019 541.158 533.744 541.718C533.74 544.407 532.752 546.167 528.351 546.607C525.318 546.911 526.327 538.855 526.284 538.341C525.951 534.341 524.413 531.381 525.427 529.571C525.413 529.54 525.418 529.528 525.402 529.496C525.542 529.356 525.601 529.297 525.68 529.218C525.812 529.062 525.946 528.9 526.133 528.765C526.142 528.756 526.151 528.747 526.158 528.74C526.181 528.742 526.265 528.764 526.284 528.765C526.949 528.476 528.362 527.838 529.535 527.706ZM520.488 528.815C521.055 528.644 521.613 528.648 522.151 528.891C528.903 531.933 520.398 540.763 517.111 545.146C515.758 546.95 512.551 550.973 509.727 549.279C508.011 548.249 508.84 544.989 509.727 543.659C512.012 540.232 516.516 530.016 520.488 528.815ZM517.489 529.823C517.047 530.707 515.976 531.772 514.843 532.847C514.855 532.869 514.868 532.895 514.893 532.923C513.4 534.456 512.168 536.237 510.937 538.014C510.494 539.2 510.108 540.354 509.147 541.315C507.347 539.515 507.607 534.352 506.778 531.865C508.709 530.417 514.678 529.907 517.489 529.823ZM624.999 531.386L626.914 533.099L623.462 532.999L624.999 531.386ZM503.527 531.562C506.395 531.26 506.095 535.224 506.501 537.459C507.271 541.694 508.495 545.619 507.056 548.044C506.965 548.775 506.933 549.476 506.199 549.581C505.984 549.612 505.535 549.592 505.191 549.632C504.377 550.02 503.413 550.341 502.066 550.463C499.203 550.724 500.212 545.68 499.999 543.659C499.275 536.781 495.407 532.417 503.527 531.562ZM564.238 531.839C565.724 532.557 565.497 538.383 564.666 540.257C564.671 540.264 564.661 540.275 564.666 540.282C564.568 540.498 564.477 540.928 564.364 541.013C563.541 541.63 555.401 543.01 556.4 541.013C557.937 537.939 560.377 533.31 563.482 531.865C563.767 531.732 564.026 531.737 564.238 531.839ZM637.6 533.2C638.272 533.129 638.812 533.143 639.087 533.326C640.264 534.111 641.449 536.348 642.338 537.459C640.336 539.46 634.573 539.828 632.005 539.828C629.05 539.828 626.085 539.673 623.134 539.526C621.378 539.438 618.004 539.668 616.934 538.064C619.004 536.512 620.116 534.813 622.554 534.813C625.509 534.813 628.474 534.666 631.425 534.511C632.37 534.461 635.581 533.414 637.6 533.2ZM493.648 533.276C494.432 533.189 495.111 533.175 495.564 533.326C496.507 533.641 496.014 534.608 496.622 535.216C496.825 535.014 497.742 548.319 498.663 550.211C495.843 551.794 490.159 551.473 486.995 551.925C478.422 553.15 469.887 554.556 461.315 555.781C426.147 560.805 390.974 566.031 355.871 571.431C353.509 571.794 349.67 572.912 347.303 572.615C346.931 572.569 346.712 572.1 346.496 571.582C348.7 569.078 348.067 559.771 345.539 557.243C345.524 557.257 345.503 557.278 345.488 557.293C345.456 556.697 345.272 556.093 344.657 555.478C346.014 554.121 351.192 554.304 353.225 553.992C360.693 552.843 368.174 551.834 375.655 550.766C404.991 546.575 434.284 541.981 463.658 538.064C471.245 537.053 478.835 535.896 486.415 534.813C487.946 534.594 491.297 533.538 493.648 533.276ZM591.884 533.83L598.714 536.073L589.792 537.737L591.884 533.83ZM535.433 537.157C538.2 539.213 540.397 541.265 542.514 543.382C541.717 544.976 535.512 546.552 535.13 544.264C534.887 542.807 535.13 541.305 535.13 539.828C535.13 538.629 534.405 538.184 535.433 537.157ZM523.915 539.249C525.352 539.347 526.103 546.458 524.218 547.212C516.207 550.417 518.459 546.132 521.269 542.197C522.065 541.083 522.511 539.152 523.915 539.249ZM641.959 540.408C643.408 540.442 644.802 541.157 646.471 543.382C646.857 542.995 647.052 542.801 647.252 542.6C644.765 548.042 655.834 556.707 656.224 562.56C656.4 565.214 656.355 567.895 656.526 570.549C656.601 571.716 657.351 572.303 657.988 573.195C659.424 575.206 659.68 577.411 660.659 579.395C656.403 583.651 650.941 581.163 645.009 582.646C640.367 583.806 636.468 587.786 631.702 589.148C628.01 590.203 625.063 587.934 623.739 588.266C621.581 588.805 619.388 590.194 617.237 590.912C612.975 592.332 608.516 592.21 604.233 593.281C603.963 593.348 603.699 593.586 603.653 593.86C603.62 594.062 603.743 594.168 603.754 594.339C602.699 593.439 602.017 593.444 600.881 594.39C600.855 594.045 600.853 593.726 600.705 593.281C597.721 593.281 594.624 591.794 591.834 591.794C587.314 591.794 577.302 599.216 575.301 591.214C574.556 588.233 574.449 585.048 575.301 582.066C576.422 578.145 579.555 576.29 577.267 572.414C577.312 572.369 577.317 572.364 577.368 572.313C574.57 566.717 574.345 557.745 577.67 551.925C578.522 550.435 580.635 551.734 581.098 550.589C584.289 551.822 595.611 548.959 598.638 548.094C602.383 547.024 607.288 545.457 610.458 543.079C611.472 542.319 612.715 541.028 613.986 540.71C616.092 540.184 620.363 541.792 622.554 541.895C625.899 542.05 629.236 542.197 632.585 542.197C636.966 542.197 639.547 540.351 641.959 540.408ZM340.801 554.899C342.318 556.416 343.38 558.229 344.153 560.116C345.507 563.42 345.724 566.915 344.858 569.743C344.899 569.826 344.917 569.94 344.959 570.02C344.893 570.016 344.837 569.992 344.783 569.969C343.705 573.22 341.252 575.457 337.273 574.959C336.232 574.829 337.852 569.277 337.852 568.76C337.852 564.016 336.609 560.376 334.601 556.36C335.922 555.04 339.001 555.156 340.801 554.899ZM331.073 556.36C334.268 556.103 335.688 561.678 335.962 566.693C336.065 566.933 336.116 567.19 336.239 567.424C336.192 567.381 336.133 567.343 336.088 567.298C335.998 567.388 336.056 567.357 335.987 567.424C336.07 570.228 335.902 572.826 335.206 573.8C333.411 576.313 319.109 577.933 315.7 577.933C305.93 577.933 299.345 568.053 308.039 561.098C313.53 556.706 324.314 556.905 331.073 556.36ZM607.761 459.082C607.543 458.985 607.257 459.022 606.904 459.208C602.425 461.577 606.865 479.469 612.801 476.925C615.477 475.778 608.521 470.649 608.089 468.054C607.842 466.576 609.287 459.764 607.761 459.082ZM511.516 460.393C502.716 462.593 504.873 472.62 509.147 477.505C509.972 476.68 518.902 465.717 518.598 464.803C518.199 463.607 517.12 462.746 516.229 461.855C515.601 461.227 514.46 460.688 511.516 460.393ZM336.668 461.275C323.935 461.919 316.851 481.949 315.7 493.457C314.963 500.825 316.122 510.897 325.756 510.897C330.826 510.897 334.984 505.316 337.55 501.724C344.941 491.376 356.913 460.251 336.668 461.275ZM338.331 469.919C340.19 470.043 340.362 474.631 338.256 481.487C336.149 488.342 332.724 494.349 330.493 497.364C328.263 500.378 326.862 502.542 325.252 502.253C323.641 501.964 323.728 498.11 324.017 495.096C324.306 492.081 325.003 487.712 327.646 482.344C330.289 476.975 332.418 473.637 333.946 472.439C335.474 471.242 336.473 469.795 338.331 469.919ZM241.28 463.342C232.663 463.448 234.119 476.679 242.162 478.689C243.777 479.093 245.035 473.322 245.413 472.187C247.117 467.075 246.114 463.282 241.28 463.342ZM598.764 484.435C598.347 484.519 597.989 484.675 597.756 484.889C595.54 486.92 594.522 488.107 593.32 490.509C593.358 490.547 593.361 490.549 593.396 490.584C589.067 491.578 594.614 507.041 597.756 502.328C597.957 502.026 597.612 501.342 597.454 501.144C595.93 499.239 595.085 497.221 595.085 494.642C595.085 493.702 595.343 492.966 595.589 492.323C597.074 490.797 599.728 487.636 600.705 486.073C601.633 484.588 600.016 484.183 598.764 484.435ZM635.861 543.079C635.025 543.702 635.11 545.859 635.558 546.607C636.526 548.22 638.059 549.436 639.389 550.766C639.933 551.309 640.577 551.719 641.153 552.227C643.579 554.368 644.34 556.297 646.193 558.15C645.674 559.188 645.945 559.979 646.445 560.746C645.61 562.3 645.234 564.159 646.773 564.929C649.209 566.147 649.448 558.208 648.537 558.427C648.761 553.742 641.418 548.939 638.507 546.028C637.548 545.069 638.661 543.9 637.02 543.079C636.522 542.83 636.139 542.872 635.861 543.079ZM614.868 547.212C613.44 548.641 614.934 553.448 616.33 554.874C615.58 555.979 615.343 557.025 615.825 558.2C615.801 558.176 615.801 558.175 615.775 558.15C611.88 562.045 616.88 571.336 619.303 567.298C619.562 566.866 616.172 563.555 617.842 560.216C617.653 560.027 617.596 559.971 617.464 559.838C618.74 558.188 619.331 554.6 617.842 553.109C617.327 553.624 616.913 554.116 616.556 554.596C618.68 552.262 618.52 549.73 614.868 547.212ZM591.254 551.043C590.183 552.114 590.733 553.343 591.607 554.47C590.184 554.429 590.175 557.779 588.305 559.309C586.907 560.453 583.732 562.216 583.567 564.349C583.446 565.935 584.009 569.642 585.332 568.76C587.62 567.234 585.566 566.526 586.516 564.627C588.123 561.414 594.491 558.727 593.825 556.285C595.351 554.33 593.589 552.576 591.254 551.043ZM649.419 567.6C649.372 567.585 647.128 570.53 647.075 570.549C645.083 571.274 642.935 569.862 640.876 570.549C638.196 571.442 636.287 574.305 633.769 575.564C632.804 576.047 626.107 574.408 626.108 576.749C626.108 579.233 632.927 578.815 633.189 578.815C635.622 578.815 638.068 575.217 639.969 574.077C642.305 572.675 646.01 573.382 648.26 573.195C650.696 572.992 652.037 568.426 649.419 567.6ZM585.936 577.328C581.464 580.012 591.703 587.821 597.378 582.873C597.413 582.907 597.415 582.91 597.454 582.948C601.918 580.716 605.58 583.308 609.55 580C607.86 577.745 599.058 578.47 596.042 580.932C595.916 580.805 595.866 580.756 595.689 580.579C593.983 581.432 591.469 582.673 589.767 581.184C589.436 580.894 586.503 576.989 585.936 577.328Z" fill="#FFFFFF" fill-rule="nonzero" opacity="1" stroke="none" vectornator:layerName="path"/>
</g>
</svg>
