<?xml version="1.0" encoding="UTF-8" standalone="no"?>
<!DOCTYPE svg PUBLIC "-//W3C//DTD SVG 1.1//EN" "http://www.w3.org/Graphics/SVG/1.1/DTD/svg11.dtd">
<!-- Created with Vectornator (http://vectornator.io/) -->
<svg height="100%" stroke-miterlimit="10" style="fill-rule:nonzero;clip-rule:evenodd;stroke-linecap:round;stroke-linejoin:round;" version="1.1" viewBox="0 0 750 1000" width="100%" xml:space="preserve" xmlns="http://www.w3.org/2000/svg" xmlns:vectornator="http://vectornator.io" xmlns:xlink="http://www.w3.org/1999/xlink">
<defs/>
<g id="Layer-1" vectornator:layerName="Layer 1">
<path d="M253.627 215.617C230.652 218.489 211.571 227.494 195.061 244.005C190.495 248.57 187.121 254.217 183.832 259.7C182.183 262.447 181.482 266.505 179.088 268.557C169 277.203 158.143 284.782 148.631 294.295C127.829 315.097 112.752 344.877 111.967 374.714C111.444 394.576 113.166 411.986 117.897 430.908C119.356 436.746 121.603 442.355 123.499 448.042C123.85 449.096 125.984 452.698 125.568 453.669C124.859 455.322 121.102 457.601 119.966 458.69C114.294 464.131 109.156 468.831 104.296 474.663C87.7121 494.564 76.3548 518.74 75.3028 545.039C75.1649 548.488 75 551.934 75 555.385C75 559.591 75.278 570.45 78.5579 573.73C81.9788 572.019 88.8263 572.317 92.7643 571.66C92.9905 571.623 96.5278 570.509 96.5998 571.66C98.109 595.808 100.239 620.223 109.317 642.92C124.55 681.001 147.597 714.024 181.763 738.428C189.518 743.967 197.581 748.641 205.709 753.518C208.537 755.214 211.985 757.743 215.172 758.539C218.541 759.381 222.263 761.86 225.82 763.283C232.477 765.946 239.113 768.681 245.931 770.954C266.808 777.913 288.741 782.104 310.68 783.671C373.841 788.183 439.359 771.449 486.052 727.502C499.221 715.108 510.552 700.656 518.578 684.605C519.606 682.55 521.53 680.444 522.111 678.12C524.485 668.622 529.944 658.876 532.456 648.824C539.273 621.56 544.049 591.39 559.961 567.522C572.705 548.406 591.108 536.998 612.598 530.858C622.893 527.917 641.754 523.419 644.846 511.05C648.849 495.039 641.75 483.967 628.571 474.083C610.238 460.333 586.326 453.112 563.822 450.111C555.865 449.05 547.878 448.176 539.85 447.764C531.398 447.331 527.003 447.159 517.089 447.159C510.244 447.159 501.894 451.774 500.536 443.626C500.38 442.687 499.065 440.185 499.35 439.185C499.581 438.376 513.344 435.239 515.323 434.744C529.972 431.082 544.771 426.164 558.775 420.563C600.845 403.735 649.374 380.116 670.559 337.747C674.819 329.227 675 317.466 675 308.476C675 281.1 650.069 253.53 622.943 250.818C601.4 248.663 578.797 251.597 557.589 255.839C527.867 261.784 498.328 268.236 468.591 274.184C457.06 276.49 445.345 278.121 433.693 279.786C428.275 280.56 421.715 282.612 416.257 282.157C413.891 281.96 413.153 278.549 411.513 276.833C408.19 273.356 404.871 269.889 401.47 266.488C393.609 258.626 381.869 249.715 371.316 245.493C356.194 239.445 340.688 233.133 323.7 230.707C315.619 229.552 307.616 229.614 299.451 229.243C298.949 229.22 298.402 229.184 297.962 228.94C294.828 227.199 292.265 224.118 288.803 222.733C280.726 219.502 272.715 216.916 253.627 215.617ZM255.091 222.733C265.457 222.733 273.109 225.383 282.595 227.754C287.876 229.074 291.683 234.893 296.802 236.031C302.253 237.242 308.121 236.871 313.658 237.217C324.678 237.906 336.266 240.228 346.764 243.727C365.886 250.101 383.272 259.545 398.518 272.998C403.007 276.959 411.144 289.711 417.443 288.971C472.922 282.444 526.636 267.283 581.838 259.397C609.374 255.463 636.085 254.72 655.469 275.95C659.327 280.175 661.983 285.676 663.771 291.04C671.673 314.747 668.494 334.615 652.82 353.139C626.083 384.737 583.288 405.293 544.594 418.191C531.409 422.586 518.174 426.928 504.674 430.303C503.176 430.677 491.722 433.521 491.654 433.861C491 437.129 494.455 447.587 495.515 451.297C495.701 451.948 496.199 455.976 496.978 456.041C502.319 456.486 508.143 454.855 513.531 454.855C522.996 454.855 532.475 454.806 541.919 455.435C569.053 457.244 598.191 462.594 621.177 477.918C627.078 481.852 639.219 491.587 639.219 500.401C639.219 509.444 635.007 516.383 626.199 519.907C604.965 528.4 583.433 531.937 566.471 548.9C559.485 555.886 555.074 563.978 549.312 571.66C545.732 576.435 543.826 583.357 541.641 588.819C534.494 606.687 530.632 625.463 525.971 644.106C520.021 667.909 510.549 689.159 494.909 708.274C444.163 770.297 357.476 786.483 282.015 773.906C258.858 770.047 238.083 761.203 216.66 752.634C193.739 743.466 172.3 724.346 155.747 707.088C130.777 681.056 116.729 649.527 108.131 615.138C105.257 603.639 104.174 591.436 103.388 579.634C103.315 578.548 103.131 577.468 103.11 576.379C103.032 572.24 103.298 568.1 103.11 563.964C103.097 563.686 102.702 563.581 102.504 563.384C96.9655 566.153 88.9493 563.954 83.5794 566.639C80.0072 563.067 82.08 546.463 82.3934 542.39C84.2643 518.068 96.5262 492.501 113.759 475.269C117.159 471.868 120.627 468.523 124.104 465.201C126.325 463.079 132.276 459.829 133.567 456.924C134.121 455.678 130.833 450.254 130.312 448.95C127.104 440.931 124.676 432.671 122.313 424.398C115.826 401.696 115.119 374.746 122.615 352.256C128.854 333.54 137.237 316.337 151.609 301.966C158.8 294.775 166.414 287.638 174.369 281.274C177.335 278.902 183.649 276.246 185.598 272.998C189.37 266.711 191.022 260.391 195.944 254.376C209.134 238.254 227.039 230.25 246.511 225.382C249.431 224.652 251.888 222.733 255.091 222.733ZM253.627 258.514C250.603 258.514 246.978 259.735 244.165 260.86C235.932 264.154 226.345 270.247 221.682 278.019C218.25 283.738 218.477 289.804 213.405 294.875C204.466 303.815 192.83 310.423 183.529 319.124C161.636 339.605 151.292 366.233 154.864 396.591C156.628 411.59 161.813 425.134 166.395 438.882C166.85 440.246 171.618 451.161 172.3 451.297C176.478 452.133 182.065 449.98 186.204 449.228C196.678 447.323 206.763 444.161 216.938 441.254C219.843 440.424 229.828 435.777 232.028 436.51C229.645 438.893 225.742 439.833 222.868 441.557C216.778 445.211 210.301 447.664 204.246 451.297C198.221 454.912 191.657 458.83 185.32 461.365C182.86 462.349 178.91 463.877 176.741 465.503C165.352 474.045 153.892 481.237 143.61 491.519C136.074 499.055 130.442 508.114 125.871 517.257C124.95 519.099 122.174 523.604 122.615 525.811C123.003 527.747 126.574 526.218 128.545 526.114C130.91 525.99 133.272 525.943 135.636 525.811C137.951 525.683 142.246 525.913 144.215 524.928C144.511 525.224 144.5 525.238 144.796 525.534C142.135 530.855 141.631 537.731 140.657 543.576C137.671 561.495 138.28 580.741 141.843 598.559C145.838 618.532 151.967 635.965 160.768 653.568C166.31 664.652 175.419 675.405 183.832 684.328C228.801 732.022 299.573 748.983 363.039 739.917C393.876 735.512 423.526 723.673 447.899 704.716C454.252 699.775 460.351 694.206 465.638 688.163C466.863 686.764 469.791 684.639 468.591 682.839C461.898 686.185 455.205 692.544 447.899 694.37C438.412 696.742 429.423 702.576 419.815 705.322C399.9 711.012 380.682 713.598 359.784 713.598C350.918 713.598 341.491 712.501 332.86 710.343C320.178 707.173 301.3 703.024 290.569 694.976C286.06 691.594 280.732 689.11 276.085 685.791C267.797 679.871 260.573 673.232 253.325 665.983C227.701 640.359 217.256 590.969 239.724 561.012C251.08 545.871 266.262 539.437 284.967 539.437C296.653 539.437 308.594 544.273 320.143 545.922C333.33 547.806 345.568 548.294 359.179 548.294C367.016 548.294 379.208 545.542 385.8 540.598C390.997 536.7 398.061 532.429 400.587 526.114C401.082 524.876 404.687 516.822 405.028 516.652C406.381 515.975 411.553 517.763 413.002 517.838C419.738 518.183 425.968 518.105 432.507 516.652C443.623 514.181 453.626 507.902 464.755 505.12C483.337 500.475 501.617 498.029 520.925 498.029C529.108 498.029 537.38 498.942 545.477 500.098C547.683 500.414 552.47 500.279 554.056 501.865C550.117 505.804 542.849 508.529 538.084 511.933C528.994 518.425 520.269 525.61 512.371 533.507C497.076 548.802 484.618 566.856 468.591 581.426C436.88 610.254 387.193 621.417 345.881 614.532C330.954 612.044 315.116 607.64 302.403 599.165C298.194 596.358 294.158 593.291 290.569 589.702C288.944 588.077 286.981 585.392 286.431 583.192C285.725 580.371 284.967 579.186 284.967 575.799C284.967 574.093 286.268 572.233 287.339 571.055C289.274 568.926 291.989 566.208 295.01 565.453C299.935 564.222 309.15 563.268 312.169 558.362C314.333 554.846 307.338 554.804 304.195 554.804C274.072 554.804 246.631 572.113 255.091 605.953C257.508 615.621 262.212 624.794 267.228 633.154C269.217 636.469 273.357 639.44 276.968 635.829C272.261 626.415 269.575 614.612 269.575 604.186C269.575 601.509 270.837 597.549 273.133 595.91C273.745 595.473 277.527 599.402 277.574 599.442C279.755 601.312 282.023 603.096 284.362 604.767C292.376 610.491 301.027 615.344 310.1 618.973C337.48 629.925 367.851 633.438 397.029 628.133C435.21 621.191 465.519 601.353 492.84 574.032C499.239 567.633 504.29 560.015 509.999 553.038C515.883 545.846 522.352 539.196 528.924 532.624C538.65 522.898 550.627 515.399 562.333 508.375C565.932 506.216 570.959 502.888 575.05 501.865C577.365 501.286 581.009 500.07 582.747 498.332C579.74 495.326 560.649 493.395 555.823 492.705C535.118 489.747 514.03 488.261 493.143 489.753C487.111 490.184 481.036 490.938 475.101 492.125C472.906 492.564 468.694 494.556 466.522 494.194C464.41 493.842 465.485 487.917 465.336 486.195C464.564 477.32 463.947 468.397 462.686 459.574C461.196 449.141 458.901 438.894 454.99 429.117C453.22 424.692 448.92 418.332 450.549 413.447C451.976 409.165 458.255 408.078 461.803 406.659C471.913 402.615 483.241 400.772 493.723 397.777C535.902 385.726 579.703 371.405 614.364 343.677C627.415 333.236 646.012 309.027 626.199 294.875C619.658 290.203 609.339 290.434 601.949 290.434C589.197 290.434 575.99 293.567 563.519 296.061C522.681 304.229 482.279 313.67 441.086 320.008C430.259 321.673 419.346 322.791 408.56 324.751C406.336 325.156 400.94 327.704 398.82 327.098C398.179 326.915 392.745 317.279 392.007 316.172C386.241 307.523 378.588 300.032 370.433 293.689C356.349 282.735 338.422 276.103 320.748 273.578C309.829 272.018 298.675 272.713 287.92 270.323C283.425 269.324 278.926 267.684 275.202 265.024C273.187 263.585 270.956 260.916 268.414 260.28C263.235 258.985 259.623 258.514 253.627 258.514ZM253.123 273.654C258.496 273.563 263.891 275.565 268.111 279.786C265.965 281.931 261.778 282.516 258.952 283.646C250.489 287.031 240.841 289.447 232.911 293.412C231.569 292.07 236.6 281.723 238.235 280.088C242.387 275.937 247.749 273.745 253.123 273.654ZM320.748 288.971C329.945 288.971 334.058 296.195 339.068 302.874C340.857 305.26 341.161 309.863 343.509 311.428C344.585 309.993 345.187 308.287 346.461 307.012C354.564 311.064 343.883 311.789 345.275 317.358C349.301 333.463 350.147 370.172 323.398 363.485C308.567 359.777 304.078 334.238 304.775 322.38C305.002 318.526 307.425 314.208 307.425 310.545C307.425 308.844 306.542 307.197 306.542 305.524C306.542 297.778 312.144 288.971 320.748 288.971ZM613.481 310.242C621.114 316.101 606.963 326.777 604.321 328.89C586.923 342.808 566.541 349.861 546.966 359.649C541.618 362.323 535.48 364.243 529.807 366.134C528.023 366.729 525.478 368.964 524.18 367.017C528.618 362.579 536.038 359.272 541.339 355.486C555.033 345.704 569.212 336.052 583.63 327.401C592.778 321.912 603.051 312.85 613.481 310.242ZM355.898 311.756C356.188 311.575 355.125 312.554 355.924 314.683C356.202 315.425 357.993 315.623 357.993 316.752C357.993 325.716 346.68 317.568 355.04 312.337C355.555 312.015 355.802 311.817 355.898 311.756ZM576.236 312.034C578.011 312.625 578.313 313.209 578.608 313.8C577.231 315.178 577.255 313.864 575.631 314.406C571.682 315.722 567.525 319.275 563.822 321.496C551.923 328.635 540.171 336.254 528.621 343.954C481.842 375.14 441.061 403.21 383.125 407.845C366.423 409.181 350.47 407.986 334.046 406.054C329.324 405.498 305.047 404.063 306.542 396.591C307.141 393.595 316.166 387.874 319.259 385.665C332.303 376.348 346.202 368.194 360.365 361.113C377.859 352.366 396.247 345.555 415.373 341.305C430.051 338.043 445.185 336.963 460.011 334.492C480.274 331.115 500.507 327.594 520.647 323.566C532.87 321.121 545.089 318.617 557.311 316.172C563.104 315.014 570.956 314.674 576.236 312.034ZM363.62 317.055C365.308 318.321 366.629 320.367 368.338 322.077C369.67 323.408 371.23 324.6 372.199 326.215C372.753 327.137 373.385 329.038 373.385 330.076C373.385 343.62 356.589 337.684 365.386 330.353C365.83 330.797 365.826 330.818 366.269 331.262C365.456 332.075 365.643 333.144 365.109 334.214C367.278 336.383 371.18 333.139 369.524 330.656C367.861 328.162 365.159 326.568 363.039 324.449C360.899 326.589 361.829 331.125 361.551 333.911C360.899 340.422 359.351 344.388 354.738 349.001C351.59 347.427 356.482 342.256 357.11 341.002C359.637 335.946 357.062 322.73 359.784 320.008C360.907 318.885 362.475 318.2 363.62 317.055ZM411.235 414.33C419.123 414.894 426.668 422.608 431.043 428.234C445.995 447.457 447.847 469.776 441.969 493.285C441.426 495.46 439.329 498.904 437.831 500.401C435.176 503.057 429.998 508.375 425.416 508.375C413.56 508.375 402.14 502.902 396.448 491.519C396.744 491.223 396.733 491.234 397.029 490.939C402.986 496.896 412.692 492.752 415.071 485.614C418.506 475.309 409.662 452.18 396.726 452.18C391.604 452.18 389.739 452.649 386.38 456.344C385.31 457.521 386.004 458.727 384.311 459.574C384.114 459.376 383.736 459.272 383.731 458.993C383.557 449.941 384.411 444.95 385.194 437.116C386.556 423.496 397.158 413.325 411.235 414.33ZM340.43 439.488C350.968 438.635 362.934 449.449 368.061 456.041C379.547 470.809 386.578 493.174 381.964 511.63C380.959 515.65 379.543 520.258 377.221 523.742C364.084 543.446 344.488 529.78 333.743 516.349C335.441 515.217 339.614 519.024 342.045 519.024C347.455 519.024 350.274 518.406 353.577 514.002C362.566 502.017 347.397 474.663 332.86 474.663C325.787 474.663 324.957 479.034 320.748 483.243C318.58 481.074 319.7 473.079 319.865 470.525C320.652 458.322 323.596 449.54 333.466 442.137C335.644 440.504 337.998 439.685 340.43 439.488ZM320.748 296.061C315.267 296.688 311.941 303.478 315.121 308.779C318.788 314.89 323.653 318.544 330.791 318.544C341.513 318.544 328.746 300.829 325.467 297.55C324.181 296.265 322.406 295.871 320.748 296.061ZM314.818 320.008C312.688 322.138 313.052 328.64 313.052 331.262C313.052 340.247 318.098 348.722 324.281 354.905C331.09 361.715 337.81 352.698 338.79 346.326C339.37 342.554 339.37 336.208 339.37 333.608C339.37 330.308 338.524 322.416 336.115 320.008C329.115 323.508 321.796 323.496 314.818 320.008Z" fill="#FFFFFF" fill-rule="nonzero" opacity="1" stroke="none" vectornator:layerName="path"/>
</g>
</svg>
