<?xml version="1.0" encoding="UTF-8" standalone="no"?>
<!DOCTYPE svg PUBLIC "-//W3C//DTD SVG 1.1//EN" "http://www.w3.org/Graphics/SVG/1.1/DTD/svg11.dtd">
<!-- Created with Vectornator (http://vectornator.io/) -->
<svg height="100%" stroke-miterlimit="10" style="fill-rule:nonzero;clip-rule:evenodd;stroke-linecap:round;stroke-linejoin:round;" version="1.1" viewBox="0 0 750 1000" width="100%" xml:space="preserve" xmlns="http://www.w3.org/2000/svg" xmlns:vectornator="http://vectornator.io" xmlns:xlink="http://www.w3.org/1999/xlink">
<defs/>
<g id="Layer-1" vectornator:layerName="Layer 1">
<path d="M377.606 206.94C371.745 207.308 365.737 208.611 359.912 209.296C350.509 210.403 341.117 211.63 331.717 212.805C322.415 213.968 313.114 215.1 303.823 216.339C296.568 217.306 288.952 217.405 282.094 220.148C276.435 222.412 268.942 228.422 267.408 234.559C266.864 236.734 266.358 239.591 265.353 241.601C264.802 242.704 258.552 242.381 256.531 243.055C250.288 245.136 244.489 248.499 240.667 254.233C237.324 259.247 235.818 265.295 233.925 270.974C230.74 280.53 226.835 289.889 223.65 299.444C222.516 302.846 221.665 307.238 219.815 310.321C218.776 312.054 213.928 313.843 212.196 315.309C208.119 318.759 204.425 322.414 201.319 326.762C187.981 345.436 181.04 368.479 173.701 390.495C159.29 433.729 148.785 478.847 128.489 519.439C121.162 534.093 109.585 545.776 99.4173 558.485C83.4393 578.458 71.5493 605.458 75.9091 631.616C79.3992 652.557 96.5114 673.405 116.159 681.264C125.099 684.84 134.199 688.81 143.752 691.54C154.417 694.587 165.384 696.134 176.057 699.184C190.375 703.274 203.777 710.826 216.883 717.379C249.637 733.756 278.998 757.095 311.743 773.467C326.094 780.643 341.428 789.298 358.158 791.687C382.417 795.153 405.806 792.017 429.509 787.277C435.223 786.134 444.403 785.592 449.208 781.988C460.854 773.254 460.788 758.925 458.305 745.273C453.57 719.229 436.394 693.216 418.356 674.497C413.586 669.547 405.854 660.281 398.984 655.701C399.277 655.407 399.266 655.418 399.56 655.125C401.923 656.306 405.421 655.99 408.081 656.302C414.762 657.088 421.413 658.213 428.055 659.235C448.052 662.311 468.178 667.221 487.377 673.62C491.865 675.116 507.147 678.402 509.708 680.963C511.519 680.058 517.029 682.256 519.106 682.718C527.073 684.488 535.085 686.048 543.19 687.129C568.581 690.514 594.627 691.292 619.83 686.252C635.109 683.196 663.635 674.236 672.109 660.112C676.841 652.226 674.814 641.507 672.711 633.095C666.48 608.17 650.519 586.242 632.461 568.184C603.217 538.94 570.735 536.637 531.436 530.591C509.172 527.166 489.894 522.833 473.568 506.507C452.698 485.637 453.628 441.3 451.539 415.181C450.819 406.184 450.301 397.135 449.484 388.139C447.6 367.416 446.422 345.656 440.687 325.584C438.671 318.529 436.955 309.84 432.466 303.855C428.893 299.09 425.579 294.337 421.289 290.046C419.91 288.668 415.068 285.989 414.246 284.182C412.897 281.213 413.018 271.996 412.492 268.317C410.274 252.789 411.653 214.726 391.039 209.572C388.63 208.97 385.716 207.111 383.42 206.94C381.513 206.799 379.559 206.818 377.606 206.94ZM375.525 217.868C382.871 217.505 389.528 218.91 394.873 226.038C398.812 231.29 398.169 240.179 398.984 246.288C400.913 260.757 402.953 275.262 404.272 289.77C404.371 290.863 407.576 292.399 408.382 293.003C412.46 296.062 416.038 299.56 419.234 303.555C427.709 314.149 431.321 328.603 433.344 341.749C438.115 372.761 440.123 404.137 442.441 435.431C444.396 461.819 447.124 490.593 464.471 511.795C489.508 542.397 533.199 539.711 568.428 546.756C589.244 550.92 608.075 558.76 623.364 574.049C631.811 582.496 640.631 591.608 646.847 601.968C655.888 617.036 667.627 635.788 663.012 654.247C661.589 659.938 653.086 661.961 648.902 665.099C636.549 674.364 610.624 678.146 595.745 679.209C567.988 681.192 539.604 677.73 512.64 670.989C495.128 666.611 478.196 660.085 460.661 655.701C442.417 651.14 423.529 647.802 404.848 645.726C397.535 644.914 389.713 645.171 382.518 643.972C381.229 643.757 379.511 641.75 378.408 641.015C376.06 639.45 372.18 637.284 370.789 634.849C368.356 630.592 368.342 615.492 368.132 610.765C367.98 607.34 367.922 603.916 367.831 600.489C367.726 596.476 367.556 592.475 367.556 588.46C367.556 584.249 368.047 580.034 367.831 575.828C367.79 575.022 355.488 572.153 353.747 571.718C342.362 568.872 330.827 565.432 319.687 561.718C316.636 560.701 309.891 557.086 306.755 557.608C305.662 557.79 305.168 561.568 305.001 562.32C304.227 565.803 303.193 580.844 302.344 581.693C288.651 565.26 297.028 540.677 302.344 522.07C308.283 501.286 317.879 480.752 325.552 461.571C327.848 455.831 331.44 450.178 334.649 444.829C343.84 429.511 352.267 413.429 356.679 395.783C358.893 386.926 359.065 377.988 357.28 369.067C356.703 366.182 353.747 362.149 353.747 359.368C353.747 355.388 357.251 349.265 358.734 345.559C362.433 336.31 365.032 326.617 368.734 317.364C370.242 313.594 373.12 307.914 373.12 303.855C373.12 287.644 368.959 270.998 367.255 254.809C366.736 249.881 367.431 233.219 360.789 233.957C357.228 234.353 359.431 241.07 359.611 242.779C360.529 251.502 361.685 260.228 362.844 268.919C363.119 270.977 364.773 276.388 363.145 278.016C360.752 276.82 358.923 274.924 356.378 273.906C355.427 273.526 353.385 273.286 352.869 272.428C351.79 270.629 351.916 266.336 351.692 264.207C350.803 255.762 350.512 246.281 348.459 238.068C347.634 234.77 342.077 235.183 341.115 238.068C339.713 242.275 342.234 250.659 342.87 255.11C343.506 259.563 344.649 264.417 344.649 268.919C343.077 269.443 341.998 268.528 340.539 268.042C339.063 267.55 335.27 266.876 334.649 265.385C332.396 259.978 333.094 251.828 332.319 246.012C332.036 243.896 332.289 237.767 328.484 237.767C320.446 237.767 325.013 250.258 325.552 255.11C325.649 255.988 327.093 262.445 325.552 262.754C324.7 262.924 322.544 261.596 321.742 261.275C313.662 258.043 315.149 258.322 314.098 248.343C313.909 246.544 314.406 239.847 311.166 239.847C304.86 239.847 308.042 247.901 308.51 251.877C308.682 253.338 309.686 256.046 308.234 256.288C307.44 256.42 296.57 252.209 296.48 251.877C295.835 249.513 296.628 245.407 295.603 243.356C294.694 241.538 292.383 241.19 291.192 242.779C290.075 244.268 291.493 247.912 291.493 249.822C290.404 250.184 290.878 249.966 290.014 250.398C288.207 248.591 276.11 245.62 275.929 244.534C275.556 242.296 276.89 240.638 277.383 238.669C279.883 228.668 293.03 228.198 300.891 227.216C321.159 224.682 341.423 222.271 361.666 219.572C366.452 218.934 371.118 218.085 375.525 217.868ZM261.819 252.177C275.007 251.376 289.789 259.907 302.044 264.809C313.711 269.476 325.909 272.771 337.582 277.44C347.047 281.226 355.194 282.018 361.666 290.648C366.283 296.803 362.298 304.941 360.213 311.198C356.491 322.362 352.828 333.757 348.459 344.681C346.914 348.543 343.17 355.258 343.17 359.368C343.17 360.437 347.619 368.089 348.158 370.245C350.069 377.89 349.152 386.727 346.98 394.329C340.961 415.395 328.833 433.28 319.086 452.774C309.8 471.346 302.1 491.702 295.302 512.096C289.229 530.314 283.54 549.619 286.781 569.062C290.213 589.655 308.631 599.82 324.374 611.066C340.535 622.609 355.862 635.078 371.365 647.481C396.55 667.628 422.245 688.766 436.852 717.98C442.066 728.408 448.907 740.717 448.907 752.917C448.907 760.405 449.685 767.702 443.92 772.891C441.441 775.122 434.478 775.415 431.288 776.124C420.229 778.582 409.075 780.736 397.806 781.988C383.334 783.596 368.547 783.395 354.323 780.234C338.675 776.757 322.512 768.48 308.81 760.26C283.931 745.332 259.088 730.256 234.201 715.324C217.54 705.327 199.831 695.947 181.345 689.785C168.502 685.504 155.004 683.803 141.998 680.086C116.945 672.929 88.8588 655.769 85.8838 627.506C83.4614 604.494 94.4734 581.626 108.515 564.074C114.566 556.51 121.369 549.642 127.011 541.744C143.238 519.025 152.818 491.966 161.671 465.405C170.226 439.74 177.209 413.504 185.756 387.863C190.617 373.279 195.241 357.16 203.074 344.105C207.332 337.008 211.15 330.352 217.459 324.707C218.665 323.628 228.215 318.444 228.336 318.241C230.209 315.12 230.994 310.542 232.146 307.088C235.834 296.023 239.57 284.732 243.9 273.906C247.819 264.107 249.542 252.923 261.819 252.177ZM378.708 230.724C374.319 231.667 377.043 240.003 377.53 243.656C379.304 256.96 380.745 270.31 382.518 283.605C382.9 286.47 382.273 298.266 387.53 297.389C392.427 296.573 389.038 285.841 388.708 282.703C387.294 269.266 385.188 255.908 383.696 242.478C383.275 238.695 383.922 229.605 378.708 230.724ZM264.175 265.385C259.808 266.242 259.584 274.656 258.01 278.593C253.272 290.436 249.819 302.879 245.078 314.732C243.787 317.958 238.133 329.685 245.078 328.817C246.911 328.588 250.22 317.475 250.942 315.309C255.199 302.538 259.753 289.636 264.751 277.139C266.004 274.008 270.227 264.198 264.175 265.385ZM280.039 271.25C275.525 272.071 275.205 280.402 273.573 284.482C268.609 296.893 263.439 310.09 259.764 322.953C258.883 326.037 254.46 337.26 262.12 334.707C265.506 333.578 267.234 324.352 268.285 321.198C272.467 308.653 276.889 295.868 281.794 283.605C283.42 279.539 287.094 269.966 280.039 271.25ZM298.159 277.039C297.402 276.861 296.536 276.887 295.603 277.139C290.695 278.465 290.315 287.377 288.535 291.826C284.967 300.746 281.898 310.034 278.861 319.143C277.191 324.153 274.14 329.499 273.272 334.707C272.708 338.094 275.193 342.261 279.137 340.571C283.314 338.781 284.36 329.745 285.904 325.885C289.472 316.964 292.568 307.672 295.603 298.567C297.289 293.507 300.216 288.229 301.166 283.004C301.735 279.879 300.431 277.573 298.159 277.039ZM312.043 283.004C307.282 283.586 306.616 292.776 305.001 296.813C299.973 309.383 295.473 322.44 291.192 335.283C289.784 339.506 286.612 346.736 294.124 346.736C298.682 346.736 300.203 336.388 301.467 333.228C306.452 320.767 311.031 307.793 315.276 295.059C316.901 290.186 319.838 282.05 312.043 283.004ZM331.141 288.868C330.519 288.73 329.738 288.734 328.785 288.893C324.519 289.605 324.123 298.041 322.62 301.8C317.876 313.66 312.897 326.231 309.387 338.516C308.314 342.269 302.34 353.273 310.865 352.325C313.44 352.039 316.789 340.47 317.632 337.94C321.726 325.659 326.028 313.253 330.84 301.224C332.379 297.375 335.495 289.839 331.141 288.868ZM347.606 294.607C347.088 294.453 346.401 294.487 345.526 294.758C341.085 296.133 341.141 304.055 339.637 308.567C336.441 318.155 332.559 327.444 329.361 337.037C327.473 342.702 324.636 348.32 323.196 354.08C322.722 355.974 324.687 360.134 327.306 357.889C330.338 355.29 331.334 349.063 332.594 345.283C336.594 333.283 340.842 321.154 345.526 309.444C346.895 306.021 351.234 295.685 347.606 294.607ZM128.214 569.237C126.547 569.259 124.875 569.57 123.201 570.239C103.298 578.203 95.1945 613.741 103.527 634.574C108.788 647.724 122.369 656.255 134.955 661.29C139.664 663.173 151.796 668.605 156.383 668.031C158.493 667.768 157.919 660.382 158.138 658.633C159.295 649.373 160.885 640.099 163.15 631.04C165.258 622.607 167.908 613.982 171.07 606.078C171.987 603.783 175.266 599.004 174.879 596.68C174.799 596.2 163.941 589.431 162.548 588.735C151.372 583.147 139.882 569.081 128.214 569.237ZM614.843 589.913C611.944 589.486 609.792 592.798 607.199 593.447C599.689 595.324 592.416 600.247 585.169 603.146C580.046 605.195 573.357 607.146 569.606 611.366C567.302 613.958 571.497 621.971 572.538 624.574C576.46 634.38 579.499 644.156 583.415 653.947C584.973 657.843 586.111 662.824 591.059 663.345C605.521 664.867 624.569 660.236 637.749 653.646C639.166 652.938 648.59 648.271 648.902 647.18C649.992 643.364 647.471 637.874 646.27 634.273C642.125 621.837 634.763 610.396 626.597 600.189C622.943 595.621 620.432 590.736 614.843 589.913ZM406.903 704.747C397.906 705.851 389.685 708.269 380.463 708.582C373.958 708.802 367.556 706.774 363.145 711.815C359.663 715.794 363.21 730.758 363.721 735.874C364.34 742.065 364.344 764.339 371.064 767.026C375.068 768.628 379.684 767.603 383.996 767.603C384.678 767.603 392.003 767.13 393.094 767.026C398.283 766.532 403.512 765.829 408.657 764.971C415.047 763.906 421.488 762.703 427.755 761.137C428.837 760.866 433.686 760.645 433.92 759.082C435.835 746.312 424.797 725.848 417.78 715.324C414.936 711.057 412.469 704.065 406.903 704.747Z" fill="#FFFFFF" fill-rule="nonzero" opacity="1" stroke="none" vectornator:layerName="path"/>
</g>
</svg>
