<?xml version="1.0" encoding="UTF-8" standalone="no"?>
<!DOCTYPE svg PUBLIC "-//W3C//DTD SVG 1.1//EN" "http://www.w3.org/Graphics/SVG/1.1/DTD/svg11.dtd">
<!-- Created with Vectornator (http://vectornator.io/) -->
<svg height="100%" stroke-miterlimit="10" style="fill-rule:nonzero;clip-rule:evenodd;stroke-linecap:round;stroke-linejoin:round;" version="1.1" viewBox="0 0 750 1000" width="100%" xml:space="preserve" xmlns="http://www.w3.org/2000/svg" xmlns:vectornator="http://vectornator.io" xmlns:xlink="http://www.w3.org/1999/xlink">
<defs/>
<g id="Layer-1" vectornator:layerName="Layer 1">
<path d="M375.012 200C210.621 200 77.346 334.313 77.346 500C77.3459 665.687 210.621 800 375.012 800C539.404 800 672.654 665.687 672.654 500C672.654 334.313 539.404 200 375.012 200ZM378.364 219.737C393.9 219.986 409.459 221.581 424.69 224.628C494.932 238.676 559.716 277.366 600.558 338.63C612.508 356.554 623.19 375 631.045 394.638C642.922 424.331 650.385 457.52 650.385 489.598C650.385 520.937 646.528 552.46 636.606 582.224C632.101 595.74 625.515 608.946 620.494 621.5C618.181 627.283 614.304 632.884 611.11 638.208C600.703 655.553 588.52 672.515 574.168 686.867C523.792 737.244 459.732 769.918 387.748 772.741C349.837 774.228 313.925 767.87 278.413 756.033C265.403 751.696 254.448 744.754 242.366 739.921C237.332 737.907 232.65 734.185 228.016 731.405C212.13 721.873 196.556 710.223 183.453 697.12C124.68 638.347 92.7427 564.821 97.8524 480.511C99.4138 454.749 103.749 427.539 113.394 403.426C126.758 370.014 142.999 339.947 167.341 312.562C188.58 288.669 215.567 266.59 244.426 252.16C282.076 233.335 320.038 221.674 362.847 219.935C368.006 219.726 373.185 219.654 378.364 219.737ZM370.742 292.031C311.831 292.387 257.019 318.721 218.334 363.853C209.385 374.294 202.196 385.561 195.171 397.269C193.131 400.669 189.984 405.109 189.014 408.987C187.095 416.663 182.47 424.226 179.928 431.852C174.462 448.25 170.797 465.831 169.973 483.143C167.078 543.933 186.293 594.909 227.42 638.779C237.656 649.696 249.082 658.322 261.134 666.931C264.636 669.433 268.843 672.651 272.852 674.255C284.233 678.808 294.599 685.41 306.864 689.499C332.117 697.916 357.47 700.645 384.248 700.645C408.915 700.645 436.393 693.18 458.404 682.175C472.712 675.021 487.597 666.73 500.906 656.082C554.062 613.558 577.991 555.473 577.991 488.431C577.991 470.888 574.457 452.033 568.905 435.377C555.897 396.352 532.367 360.97 499.143 335.129C485.2 324.285 469.898 316.249 454.878 308.739C429.662 296.131 398.506 291.863 370.742 292.031ZM372.505 316.683C388.701 316.646 405.297 318.895 422.058 323.684C440.451 328.939 458.15 336.374 473.647 347.443C490.218 359.279 506.488 372.846 517.887 389.945C507.331 400.2 496.784 410.444 486.234 420.705C481.925 424.896 477.63 429.097 473.349 433.317C470.79 435.839 468.36 438.494 465.727 440.938C465.584 441.071 465.282 441.064 465.131 440.938C461.443 437.865 458.856 431.759 455.747 428.029C448.835 419.734 440.395 412.638 431.417 406.653C393.063 381.084 337.184 385.391 303.339 416.013C282.993 434.421 269.727 459.332 266.993 486.668C261.676 539.845 300.204 591.691 352.867 601.266C380.906 606.364 410.146 600.113 433.478 584.558C441.574 579.161 448.561 572.291 454.878 564.921C457.389 561.992 459.92 558.843 461.904 555.536C462.089 555.229 462.964 553.531 463.667 554.071C469.93 558.89 475.514 565.076 481.268 570.482C493.195 581.685 505.448 592.625 517.018 604.196C514.9 608.431 510.637 612.911 507.336 616.212C491.434 632.113 474.207 646.567 454.58 656.38C437.837 664.752 419.764 670.773 400.658 673.957C308.557 689.307 221.093 626.355 198.994 537.959C195.275 523.082 194.064 507.513 194.6 492.229C195.235 474.125 197.967 456.335 203.687 439.176C206.508 430.712 210.776 422.456 213.94 414.548C219.849 399.776 232.277 384.22 243.26 373.237C278.868 337.629 323.917 316.794 372.505 316.683ZM312.276 448.535C317.504 448.596 322.741 448.714 327.967 448.858C328.243 448.866 328.534 449.153 328.538 449.429C328.828 471.411 328.643 493.409 328.836 515.392C328.841 516.038 329.28 517.277 329.729 517.726C332.422 520.419 341.422 521.462 341.447 515.69C341.544 493.609 341.254 471.509 341.447 449.429C341.45 449.153 341.742 448.866 342.018 448.858C352.469 448.57 362.944 448.56 373.399 448.56C373.647 448.56 374.564 449.215 374.565 449.429C374.662 471.901 374.444 494.385 374.268 516.857C374.152 531.521 370.316 544.116 353.463 544.116C340.273 544.116 327.079 544.001 313.89 543.818C301.932 543.652 295.761 531.552 295.717 520.655C295.622 496.913 295.428 473.169 295.717 449.429C295.722 449.014 296.172 448.568 296.586 448.56C301.813 448.465 307.049 448.474 312.276 448.535ZM386.283 448.858C444.031 450.812 455.876 448.389 461.432 459.359C464.345 465.11 464.312 472.817 463.965 476.117C462.712 488.017 463.783 488.886 455.747 496.922C463.131 502.829 464.744 510.437 463.965 519.786C463.504 525.311 463.628 533.306 459.272 537.661C454.351 542.583 447.746 544.082 440.802 544.116C422.629 544.206 404.455 544.31 386.283 544.116C386.007 544.113 385.714 543.797 385.712 543.52C385.518 512.158 385.518 480.792 385.712 449.429C385.714 449.153 386.088 449.053 386.283 448.858ZM493.557 448.858C507.53 448.858 521.518 448.97 535.489 449.156C538.448 449.195 541.482 450.195 544.277 450.894C550.742 452.51 555.731 463.048 554.829 469.364C554.717 470.144 555.119 477.744 554.704 477.756C544.254 478.041 531.269 478.643 520.817 478.451C518.555 478.409 521.348 473.124 519.65 471.425C517.416 469.192 507.634 467.665 507.634 472.294C507.634 474.641 507.77 477.003 507.932 479.345C507.998 480.31 508.182 481.747 508.801 482.572C509.38 483.344 510.78 484.017 511.73 484.037C520.913 484.224 530.105 484.12 539.287 484.31C546.233 484.453 554.531 492.172 554.531 499.255C554.531 508.831 554.42 518.43 554.233 528.004C554.118 533.835 550.398 537.62 546.04 540.889C542.444 543.586 535.784 544.041 531.666 544.116C522.385 544.285 513.117 544.273 503.836 544.414C493.667 544.568 481.973 546.349 477.445 535.03C476.349 532.288 475.385 528.894 475.385 525.943C475.385 522.522 475.605 519.11 475.683 515.69C475.707 514.598 475.186 512.483 476.278 512.463C486.731 512.271 497.181 512.271 507.634 512.463C507.91 512.468 508.034 512.838 508.23 513.034C504.19 521.113 516.973 527.884 521.71 521.251C523.248 519.099 522.281 515.977 522.281 513.332C522.281 512.035 522.145 509.099 521.115 508.069C520.654 507.608 519.487 506.618 518.781 506.604C509.305 506.414 499.831 506.492 490.355 506.306C473.93 505.984 475.162 487.228 475.683 475.521C475.94 469.72 475.623 460.04 480.375 455.288C483.734 451.929 488.586 448.858 493.557 448.858ZM419.997 470.829C419.721 470.839 419.414 471.149 419.402 471.425C419.215 475.622 419.215 479.84 419.402 484.037C419.449 485.099 429.608 484.949 431.715 483.143C432.399 482.557 433.446 481.983 433.478 481.082C433.569 478.544 433.946 475.958 433.478 473.461C433.325 472.646 432.379 472.22 431.715 471.723C430.61 470.894 428.999 471.204 427.619 471.127C425.081 470.986 422.538 470.738 419.997 470.829ZM419.402 509.235C419.125 509.243 418.843 509.555 418.831 509.831C418.644 514.028 418.644 518.221 418.831 522.418C418.843 522.694 419.126 522.993 419.402 523.014C421.838 523.194 424.309 523.093 426.75 523.014C435.517 522.731 434.961 509.684 429.382 509.533C426.06 509.443 422.724 509.143 419.402 509.235Z" fill="#FFFFFF" fill-rule="nonzero" opacity="1" stroke="none" vectornator:layerName="path"/>
</g>
</svg>
