<?xml version="1.0" encoding="UTF-8" standalone="no"?>
<!DOCTYPE svg PUBLIC "-//W3C//DTD SVG 1.1//EN" "http://www.w3.org/Graphics/SVG/1.1/DTD/svg11.dtd">
<!-- Created with Vectornator (http://vectornator.io/) -->
<svg height="100%" stroke-miterlimit="10" style="fill-rule:nonzero;clip-rule:evenodd;stroke-linecap:round;stroke-linejoin:round;" version="1.1" viewBox="0 0 750 1000" width="100%" xml:space="preserve" xmlns="http://www.w3.org/2000/svg" xmlns:vectornator="http://vectornator.io" xmlns:xlink="http://www.w3.org/1999/xlink">
<defs/>
<g id="Layer-1" vectornator:layerName="Layer 1">
<path d="M324.317 200.011C313.846 200.147 303.378 201.507 292.969 204.481C272.849 210.23 255.286 222.12 240.209 236.512C232.558 243.815 225.008 251.087 218.855 259.701C185.467 306.443 181.725 372.971 222.212 416.458C242.103 437.822 269.614 450.609 296.326 461.294C304.389 464.519 312.038 468.746 320.1 471.97C323.236 473.225 327.783 474.461 330.172 476.85C328.185 478.837 317.563 487.43 315.221 487.82C311.965 488.363 307.218 486.643 303.939 486.297C296.255 485.489 288.477 485.297 280.769 485.692C257.266 486.898 234.68 495.466 214.893 507.339C207.847 511.566 201.007 516.621 195.061 522.291C190.691 526.458 186.252 530.567 182.257 535.095C169.962 549.029 148.756 582.639 169.14 597.927C176.613 603.532 189.522 601.623 196.896 596.092C219.811 578.906 249.461 570.102 278.017 572.006C286.608 572.578 295.607 573.963 303.646 577.178C304.694 577.597 310.595 579.44 310.653 580.848C310.949 587.958 311.611 595.131 310.653 602.182C310.593 602.624 303.942 608.581 303.021 609.502C299.858 612.665 299.683 618.701 299.683 622.619C299.683 631.483 310.895 636.439 317.368 640.322C335.678 651.309 356.486 662.024 373.485 674.774C367.528 680.73 361.667 683.731 361.578 693.082C361.383 713.719 359.963 734.402 361.286 754.997C361.424 757.149 364.308 758.06 365.853 759.564C368.171 761.822 370.542 764.042 372.88 766.279C377.349 770.553 381.816 774.814 386.29 779.083C396.338 788.675 403.178 797.373 417.403 797.373C425.947 797.373 432.29 789.002 436.922 783.046C447.756 769.116 458.26 754.813 469.558 741.256C472.789 743.41 475.469 749.493 477.483 752.85C483.529 762.928 490.643 772.363 496.689 782.441C500.118 788.155 502.841 796.71 510.411 798.603C513.852 799.463 517.505 800.41 521.088 799.813C527.679 798.714 532.981 793.943 538.167 790.053C546.213 784.019 554.177 777.82 561.961 771.452C567.225 767.144 576.061 762.075 577.83 754.997C578.035 754.177 578.427 752.768 578.435 751.932C578.634 732.109 578.627 712.282 578.728 692.458C578.781 682.103 568.813 672.985 558.311 675.086C548.439 677.06 540.236 687.331 532.077 692.77C528.641 689.333 526.529 684.291 523.84 680.258C523.34 679.508 520.977 676.538 521.401 675.691C523.324 671.844 527.535 668.106 530.243 664.721C538.16 654.824 547.008 645.067 554.036 634.525C558.244 637.681 562.633 640.989 568.071 641.533C578.459 642.571 588.677 634.942 588.8 623.848C588.996 606.16 589.698 588.456 589.112 570.776C589.079 569.77 587.667 569.37 586.965 568.648C584.108 565.71 581.283 562.754 578.435 559.806C575.488 556.756 572.542 553.701 569.593 550.652C565.547 546.468 559.322 537.389 552.807 534.783C537.19 528.536 529.059 540.231 520.483 551.257C513.069 560.789 505.166 569.956 497.919 579.618C497.716 579.415 497.317 579.301 497.314 579.013C497.113 559.292 497.113 539.572 497.314 519.851C497.33 518.249 502.701 514.459 504.009 512.824C507.437 508.539 508.511 503.989 509.806 498.809C511.403 492.423 505.524 484.653 500.652 481.73C499.227 480.875 494.53 480.099 493.957 478.666C493.352 477.154 494.857 473.811 495.167 472.263C496.369 466.253 497.054 460.093 497.314 453.974C498.131 434.786 494.936 416.666 485.115 400.296C472.713 379.627 453.244 369.396 433.565 357.589C408.806 342.733 382.544 329.346 356.699 316.423C342.244 309.196 325.999 303.7 314.323 292.024C312.184 289.885 311.883 286.238 311.883 283.475C311.883 281.236 314.555 279.885 316.138 278.302C319.377 275.063 326.148 274.633 330.172 274.633C345.078 274.633 369.437 278.677 379.575 291.712C383.628 296.922 380.984 303.741 381.41 309.708C381.422 309.88 391.538 316.809 392.692 317.633C403.758 325.538 415.622 335.354 427.768 341.427C434.825 334.369 440.553 325.513 446.682 317.633C458.152 302.886 469.462 288.011 481.133 273.423C485.476 267.993 489.688 262.437 493.957 256.948C494.474 256.284 497.807 252.891 497.314 252.069C495.362 248.816 484.431 243.181 480.84 240.787C467.607 231.964 454.441 223.07 441.197 214.241C437.072 218.251 434.091 224.181 428.685 226.147C425.025 227.478 417.174 222.936 413.733 221.56C401.426 216.637 388.993 211.489 376.218 207.838C359.191 202.974 341.767 199.785 324.317 200.011ZM325.839 209.712C357.446 209.532 387.144 221.855 416.173 233.467C429.477 238.788 431.767 236.336 441.802 227.358C442.326 226.888 449.921 232.122 450.956 232.862C458.21 238.043 465.779 242.841 473.208 247.794C475.721 249.47 480.798 251.589 482.362 254.196C482.944 255.166 480.14 257.79 479.61 258.471C476.364 262.645 473.097 266.809 469.851 270.983C459.401 284.418 448.895 297.795 438.444 311.231C435.815 314.612 428.789 325.909 425.328 327.393C424.776 327.629 422.058 325.225 421.678 324.953C417.693 322.106 413.553 319.432 409.478 316.716C407.445 315.36 391.969 305.263 391.774 304.224C390.97 299.931 391.67 295.216 390.564 290.794C388.49 282.498 378.968 277.743 372.255 273.715C359.249 265.912 333.802 262.508 320.413 265.185C306.477 267.973 298.929 278.368 302.416 292.317C303.803 297.866 309.903 302.353 314.01 305.434C326.843 315.058 342.223 319.246 355.801 327.393C383.039 343.736 412.404 356.483 439.655 372.833C456.314 382.829 473.37 395.344 480.84 414.018C486.145 427.281 487.309 440.189 486.93 454.579C486.65 465.219 484.774 478.429 479.923 488.132C480.227 488.437 480.223 488.432 480.528 488.737C484.535 486.734 499.442 489.141 499.442 496.369C499.442 500.666 497.896 504.818 494.874 507.944C492.174 510.737 486.946 512.609 486.93 516.493C486.829 540.384 486.53 564.28 486.93 588.167C486.951 589.445 489.996 590.071 490.892 590.295C493.83 591.029 496.248 593.568 498.836 594.863C509.492 582.431 519.585 569.374 529.638 556.449C532.362 552.946 537.198 543.625 542.442 543.625C547.541 543.625 549.192 544.37 552.514 547.9C558.033 553.763 563.689 559.496 569.281 565.291C572.027 568.137 574.765 570.982 577.518 573.821C578.018 574.337 579.022 574.625 579.04 575.343C579.434 591.198 578.925 607.073 578.728 622.931C578.705 624.826 577.905 627.553 576.6 629.021C568.983 637.59 558.708 624.933 552.514 620.803C542.14 632.907 532.398 645.716 522.611 658.299C518.459 663.638 511.89 669.376 508.889 675.379C508.374 676.407 510.46 678.79 511.036 679.653C514.091 684.237 517.044 688.964 519.878 693.688C521.369 696.173 527.039 707.018 529.032 708.015C530.392 708.694 535.738 703.444 536.957 702.53C542.36 698.477 547.716 694.383 553.119 690.33C554.708 689.138 557.553 685.763 559.834 685.763C564.201 685.763 565.045 686.108 567.758 689.725C568.281 690.422 568.676 691.987 568.676 692.77C568.676 712.086 568.463 731.407 568.363 750.722C568.362 751.027 568.423 751.341 568.363 751.64C567.429 756.313 560.2 760.407 556.769 763.214C548.592 769.904 540.216 776.395 531.765 782.734C525.947 787.097 521.853 791.704 514.081 789.76C510.461 788.855 504.053 775.987 501.881 772.369C494.988 760.879 487.355 749.672 479.923 738.523C477.157 734.375 474.302 726.936 470.163 724.176C457.175 741.493 443.497 758.327 430.207 775.414C424.448 782.818 418.33 792.034 407.936 785.798C398.8 780.316 391.196 770.54 383.537 763.214C381.199 760.978 378.847 758.778 376.53 756.519C374.78 754.813 371.526 753.764 371.338 751.327C369.849 732.069 371.452 712.69 371.65 693.375C371.668 691.61 372.563 688.928 373.778 687.578C381.445 679.059 390.173 689.42 396.049 694.605C399.336 697.505 398.423 696.715 401.846 699.777C404.363 702.03 406.825 704.74 409.478 706.804C410.331 707.468 411.226 705.487 411.918 704.657C415.109 700.828 418.209 696.94 421.365 693.082C425.94 687.491 430.512 681.887 435.087 676.296C435.758 675.476 439.321 672.209 439.05 671.124C438.619 669.402 436.173 664.973 434.482 664.409C433.706 664.15 429.473 668.071 428.685 668.684C423.934 672.379 419.109 675.958 414.358 679.653C412.691 680.95 410.235 683.578 408.248 684.24C407.229 684.58 403.311 681.399 402.451 680.883C396.426 677.268 390.48 673.509 384.455 669.894C368.219 660.152 352.206 650.064 335.969 640.322C327.915 635.49 316.633 630.839 310.341 623.848C304.209 617.035 320.297 610.558 320.413 607.374C320.804 596.605 320.712 585.823 320.413 575.051C320.387 574.128 314.687 571.583 313.698 571.088C305.191 566.835 296.603 564.595 287.172 563.144C283.098 562.517 278.778 561.934 274.66 561.934C261.4 561.934 248.389 562.561 235.622 566.209C227.722 568.466 220.228 573.107 212.453 575.051C203.19 577.366 195.638 586.164 186.824 589.69C181.025 592.01 170.662 591.981 170.662 583.288C170.662 565.993 180.726 550.347 192.621 538.452C215.202 515.872 244.22 499.303 276.495 496.369C285.925 495.512 295.443 495.616 304.856 496.662C308.607 497.079 313.667 499.338 317.368 498.809C319.559 498.496 322.908 494.951 324.687 493.617C330.511 489.25 336.549 485.18 342.372 480.813C344.365 479.318 347.099 478.007 348.481 475.933C337.653 467.27 323.133 461.823 310.341 456.707C274.305 442.292 236.093 425.675 215.185 390.83C210.34 382.755 206.885 374.197 204.821 364.908C202.555 354.714 202.655 344.531 202.986 334.107C204.143 297.65 221.669 267.625 247.528 242.914C265.681 225.568 287.083 213.727 312.176 210.591C316.772 210.016 321.324 209.738 325.839 209.712ZM325 215.021C320.559 215.096 316.079 215.431 311.571 216.076C301.025 217.582 286.28 220.414 277.412 227.065C273.582 229.938 269.158 232.171 265.213 234.989C254.446 242.68 244.672 252.374 235.934 262.14C226.222 272.995 220.206 286.665 214.893 299.949C211.017 309.638 208.771 320.352 208.49 330.75C208.127 344.194 207.853 356.899 211.535 369.788C222.365 407.693 258.787 429.312 292.969 442.985C303.311 447.121 313.117 452.57 323.458 456.707C329.31 459.047 336.411 461.473 341.454 465.256C344.767 467.74 354.461 471.394 354.883 475.621C355.281 479.592 350.465 481.473 347.564 483.545C340.101 488.876 332.755 494.377 325.292 499.707C323.102 501.272 319.875 504.939 317.055 504.587C306.915 503.319 298.763 500.937 287.777 500.937C251.97 500.937 220.043 518.662 195.374 543.332C186.09 552.616 175.854 567.326 175.854 581.141C175.854 588.13 182.376 585.971 186.531 583.893C197.874 578.221 208.041 570.901 219.772 566.209C248.237 554.823 282.094 552.22 310.965 563.769C313.094 564.62 325.888 571.505 325.898 572.611C325.998 584.708 325.997 596.799 325.898 608.897C325.871 612.131 313.703 618.354 314.928 620.803C316.491 623.93 331.068 631.092 334.74 633.296C351.993 643.648 369.038 654.37 386.29 664.721C392.316 668.337 398.262 672.076 404.286 675.691C405.176 676.225 406.871 677.819 407.936 677.819C409.822 677.819 414.02 673.202 415.568 672.041C422.386 666.927 428.915 661.211 436.005 656.484C437.488 657.597 445.909 671.419 445.452 672.334C443.186 676.866 437.739 681.47 434.482 685.451C426.904 694.713 419.684 706.545 410.688 714.417C410.01 715.01 407.502 711.893 405.204 709.849C404.396 709.131 403.571 708.44 402.764 707.722C400.826 706 398.904 704.252 396.966 702.53C394.998 700.78 376.996 680.525 376.842 694.605C376.645 712.7 374.72 730.882 376.53 748.887C376.832 751.892 380.772 753.18 382.932 755.29C387.356 759.611 391.888 763.824 396.361 768.094C402.145 773.615 407.691 782.441 416.486 782.441C419.14 782.441 429.072 768.294 431.125 765.654C444.134 748.928 458.726 732.665 470.475 715.041C475.268 718.636 478.429 726.504 481.757 731.496C489.921 743.741 498.268 756.092 505.844 768.719C508.219 772.678 513.287 785.173 518.356 785.173C521.884 785.173 526.454 780.1 529.032 778.166C537.599 771.741 546.04 765.117 554.329 758.335C556.154 756.841 563.185 751.285 563.191 750.117C563.291 730.903 563.291 711.672 563.191 692.458C563.188 691.993 562.097 691.003 561.961 690.935C560.126 690.018 554.9 695.631 553.431 696.733C545.291 702.838 536.884 711.418 527.803 715.959C525.038 713.194 523.094 708.918 521.088 705.575C517.085 698.903 512.91 692.234 508.596 685.763C507.187 683.649 501.991 677.562 502.487 675.086C502.773 673.656 505.26 671.619 506.156 670.499C509.725 666.038 513.325 661.6 516.833 657.089C528.291 642.358 540.4 628.101 551.597 613.171C555.179 614.962 567.837 628.204 571.408 626.581C573.087 625.818 573.534 623.032 573.555 621.408C573.751 606.77 575.049 592.081 573.848 577.491C573.683 575.485 571 574.655 569.593 573.216C566.527 570.08 563.488 566.921 560.439 563.769C557.49 560.72 554.53 557.678 551.597 554.614C548.299 551.17 547.818 548.817 543.672 548.817C541.262 548.817 533.781 559.744 532.077 561.934C521.382 575.686 509.893 588.871 499.442 602.807C496.254 600.416 493.919 596.546 489.682 595.487C488.56 595.207 481.766 593.557 481.757 592.423C481.556 566.195 481.357 539.967 481.757 513.741C481.766 513.166 482.567 512.944 482.967 512.531C485.922 509.487 488.905 506.468 491.81 503.377C495.933 498.988 493.895 494.407 488.16 493.929C486.232 493.769 484.297 493.617 482.362 493.617C481.341 493.617 480.334 493.833 479.317 493.929C477.242 494.127 473.875 493.888 471.998 494.827C471.693 494.522 471.678 494.527 471.373 494.222C476.48 484.009 479.981 473.415 481.133 461.899C482.615 447.079 482.962 427.132 474.73 413.413C469.806 405.207 464.244 398.027 457.358 391.142C448.098 381.882 434.576 376.438 423.493 369.788C400.853 356.204 376.288 345.853 353.654 332.273C339.489 323.773 323.499 319.192 310.048 309.103C303.741 304.373 296.871 297.429 296.326 288.979C294.641 262.859 319.016 257.458 340.244 259.388C358.842 261.079 383.73 268.635 393.921 285.622C396.869 290.534 395.888 296.141 397.279 301.471C397.73 303.199 401.97 305.059 403.369 306.058C408.175 309.492 418.876 318.763 424.117 320.073C425.773 320.487 429.868 313.719 430.813 312.461C436.372 305.047 442.202 297.817 447.892 290.502C454.696 281.753 461.524 273.016 468.328 264.268C469.408 262.879 475.072 257.426 474.73 255.719C474.432 254.227 464.084 248.195 462.238 246.877C459.57 244.971 445.213 234.072 443.012 234.072C440.363 234.072 437.062 239.99 433.877 240.787C427.116 242.477 420.38 240.881 414.046 238.347C385.544 226.946 356.083 214.502 325 215.021ZM323.77 221.268C357.884 221.268 388.268 234.196 419.238 246.584C428.661 250.353 435.651 246.121 443.012 241.704C443.879 241.184 447.422 244.227 448.204 244.749C453.872 248.528 461.957 252.249 466.201 257.554C455.762 271.472 445.163 285.299 434.482 299.032C433.043 300.881 424.341 312.746 423.2 312.461C418.586 311.307 412.831 305.958 408.854 303.306C407.694 302.533 404.423 301.297 403.974 299.949C401.158 291.503 402.489 284.742 395.737 277.99C376.794 259.047 351.692 252.977 325.292 253.903C310.083 254.437 292.254 264.177 289.299 280.43C288.073 287.173 289.917 300.255 295.409 305.746C308.258 318.595 327.448 326.03 343.601 334.107C368.466 346.54 393.707 358.752 417.696 373.145C434.564 383.267 451.524 391.215 463.448 407.909C476.085 425.6 478.038 447.781 473.813 468.906C471.837 478.786 468.762 489.171 463.156 497.579C468.775 503.199 481.823 497.645 484.802 500.624C484.113 502.004 475.972 509.979 475.96 510.384C475.073 539.547 475.758 568.751 475.96 597.927C475.969 599.221 480.724 598.965 481.757 599.137C485.897 599.827 495.084 602.371 496.084 607.374C496.472 609.313 490.227 610.762 488.452 611.649C480.848 615.451 471.89 621.809 465.888 627.811C468.211 632.456 471.699 638.794 475.355 642.45C490.461 624.322 505.391 605.876 519.878 587.25C527.484 577.47 535.174 565.42 544.57 557.366C550.489 562.628 556.387 567.918 562.273 573.216C563.338 574.174 569.548 578.441 569.593 579.93C569.987 593.039 569.793 606.148 569.593 619.261C569.589 619.549 569.172 619.683 568.968 619.886C562.514 615.583 556.893 609.907 550.679 605.247C539.297 622.32 524.777 638.015 511.953 654.044C507.975 659.017 504.024 664.005 500.047 668.976C498.765 670.578 496.129 672.826 495.479 674.774C495.414 674.97 501.51 684.624 502.194 685.763C507.673 694.895 513.366 704.034 519.273 712.894C521.326 715.974 523.202 721.227 526.28 723.278C536.154 715.873 545.997 708.413 555.871 701.007C556.075 701.21 556.473 701.325 556.476 701.612C556.677 717.267 557.161 732.934 556.476 748.575C556.466 748.812 549.105 754.581 548.239 755.29C538.516 763.245 528.802 772.119 518.356 779.083C506.001 762.611 495.401 743.675 484.802 726.011C480.83 719.391 476.827 710.423 471.373 704.97C458.945 720.505 446.597 736.106 434.17 751.64C427.775 759.633 421.815 769.379 414.046 776.038C405.188 770.134 397.492 760.985 389.647 753.767C388.323 752.55 386.981 751.364 385.684 750.117C384.337 748.822 381.865 747.999 381.722 746.135C380.506 730.323 381.521 714.425 381.722 698.567C381.726 698.28 382.124 698.166 382.327 697.962C392.001 706.024 400.815 715.083 410.376 723.278C419.423 711.216 429.209 699.56 438.757 687.89C441.728 684.258 449.377 676.886 450.956 672.939C451.473 671.647 448.855 668.851 448.204 667.766C446.001 664.094 439.778 651.671 436.61 649.77C435.494 649.1 430.237 653.973 429.29 654.649C423.549 658.75 417.952 663.06 412.211 667.161C411.004 668.023 407.576 671.609 406.121 671.124C401.052 669.434 395.771 664.73 391.169 661.969C379.046 654.695 367.009 647.285 354.883 640.01C347.843 635.786 340.884 631.431 333.842 627.206C330.631 625.279 326.083 623.429 323.458 620.803C326.717 618.196 330.744 616.144 330.777 611.337C330.875 597.206 330.878 583.072 330.777 568.941C330.767 567.488 326.237 565.128 324.98 564.374C317.029 559.603 308.514 556.334 299.371 554.302C291.188 552.483 282.444 550.945 274.055 550.945C258.413 550.945 244.624 552.221 229.825 556.449C222.747 558.471 216.065 562.631 209.095 564.374C206.553 565.009 203.695 567.309 201.464 568.648C195.163 572.429 188.826 576.646 182.257 579.93C180.741 578.415 182.995 573.341 183.779 571.381C187.257 562.686 192.277 554.354 199.024 547.607C201.921 544.709 204.891 541.876 207.866 539.058C231.705 516.473 265.636 506.595 297.849 507.651C307.6 507.971 321.165 508.945 330.172 513.448C333.328 510.292 327.869 505.953 329.567 503.689C332.436 499.863 338.54 496.803 342.372 493.929C347.653 489.968 352.872 485.858 358.241 482.023C359.518 481.111 363.621 479.146 363.12 477.143C361.512 470.709 354.99 465.996 349.691 462.816C335.904 454.544 321.024 447.75 306.086 441.774C264.177 425.011 220.3 401.571 213.663 351.792C212.552 343.457 212.55 335.136 213.663 326.788C215.335 314.246 220.362 292.644 229.825 283.182C230.946 284.304 229.704 286.806 229.532 288.355C228.993 293.205 229.348 298.118 229.532 302.994C230.052 316.785 232.357 331.254 240.502 342.657C261.363 371.863 293.704 384.435 323.165 402.112C333.21 408.139 346.209 413.269 354.571 421.631C361.172 428.232 368.898 438.384 368.898 448.47C368.898 451.623 368.739 454.786 368.605 457.936C368.521 459.912 366.48 473.808 367.688 475.015C376.56 468.362 384.891 461.8 393.004 454.267C403.886 462.972 415.563 471.802 428.08 478.06C429.076 477.064 429.29 475.159 429.29 473.786C429.29 470.531 429.164 467.277 428.997 464.026C428.092 446.379 412.518 432.801 398.489 424.383C382.933 415.049 366.158 407.792 350.609 398.462C344.123 394.57 336.52 391.999 330.485 387.472C325.282 383.57 317.312 380.634 311.571 378.338C300.02 373.717 288.219 365.611 278.33 358.194C257.817 342.809 242.024 323.217 242.024 296.592C242.024 253.168 281.864 221.268 323.77 221.268ZM393.004 499.102C389.231 502.875 384.154 505.662 379.887 508.862C379.368 509.251 375.361 511.608 375.32 512.219C374.934 518.001 375.123 523.819 375.32 529.61C375.33 529.898 375.668 530.087 375.925 530.215C377.801 531.153 382.943 527.9 384.767 527.17C393.767 523.57 401.789 516.151 409.478 510.384C406.23 506.053 398.138 502.118 393.004 499.102ZM436.317 526.253C427.591 534.979 417.14 540.734 406.726 546.982C403.84 548.714 399.931 551.355 396.654 552.174C392.158 553.298 387.732 555.871 383.245 557.366C381.029 558.105 377.888 558.316 375.925 559.494C375.678 559.642 375.324 559.812 375.32 560.099C375.119 575.55 374.924 591.009 375.32 606.457C375.356 607.876 381.743 610.935 382.932 611.649C390.804 616.372 398.515 621.87 406.726 625.976C409.843 622.859 413.563 620.092 417.091 617.446C414.055 612.893 408.829 601.173 404.891 598.22C404.374 597.832 403.097 599.227 402.764 599.449C398.799 602.093 394.822 604.731 390.857 607.374C390.816 607.402 389.083 608.973 389.042 607.374C388.742 595.687 388.842 583.988 389.042 572.298C389.046 572.067 399.957 564.374 401.241 563.456C405.511 560.406 409.776 557.352 414.046 554.302C414.727 553.815 416.785 551.719 417.696 552.174C419.975 553.314 422.195 558.854 423.493 561.016C427.609 567.877 431.882 574.801 436.317 581.453C436.622 581.25 437.208 581.214 437.215 580.848C437.516 564.076 437.31 547.302 437.215 530.528C437.207 529.072 437.346 527.282 436.317 526.253Z" fill="#FFFFFF" fill-rule="nonzero" opacity="1" stroke="none" vectornator:layerName="path"/>
</g>
</svg>
