<?xml version="1.0" encoding="UTF-8" standalone="no"?>
<!DOCTYPE svg PUBLIC "-//W3C//DTD SVG 1.1//EN" "http://www.w3.org/Graphics/SVG/1.1/DTD/svg11.dtd">
<!-- Created with Vectornator (http://vectornator.io/) -->
<svg height="100%" stroke-miterlimit="10" style="fill-rule:nonzero;clip-rule:evenodd;stroke-linecap:round;stroke-linejoin:round;" version="1.1" viewBox="0 0 750 1000" width="100%" xml:space="preserve" xmlns="http://www.w3.org/2000/svg" xmlns:vectornator="http://vectornator.io" xmlns:xlink="http://www.w3.org/1999/xlink">
<defs/>
<g id="Layer-1" vectornator:layerName="Layer 1">
<path d="M399.972 295.072C357.433 295.634 315.414 304.779 279.357 324.971C196.535 371.351 187.05 393.761 158.018 424.035C119.054 464.665 105.493 476.103 95.3059 482.686C85.1189 489.268 74.9998 491.755 74.9998 491.755C74.9998 491.755 94.0598 507.553 103.329 515.375C113.48 523.942 126.753 535.663 165.717 576.293C194.748 606.567 233.389 662.147 319.122 691.677C395.103 717.848 532.072 707.747 603.856 639.629C675.639 571.51 674.392 500.226 674.392 500.226L674.691 500.226C674.691 500.226 683.164 437.09 611.38 368.972C564.272 324.269 481.184 294 399.972 295.072ZM404.108 312.613C417.397 312.779 430.353 313.692 442.977 315.353C455.6 317.014 468.141 319.423 480.599 322.579C493.057 325.735 505.265 329.638 517.225 334.289C529.184 338.94 540.728 344.338 551.857 350.484C562.986 356.63 573.035 363.108 582.005 369.918C590.975 376.729 597.536 382.127 601.688 386.113C605.841 390.1 609.993 394.502 614.146 399.319C618.299 404.136 622.119 409.036 625.607 414.019C629.095 419.002 632.002 423.653 634.328 427.971C635.49 430.131 636.653 432.29 637.816 434.45C623.946 434.45 610.076 434.45 596.207 434.45C568.468 434.45 553.601 433.038 551.608 430.214C549.615 427.39 547.123 424.483 544.133 421.493C541.144 418.504 537.738 415.514 533.918 412.524C530.098 409.534 526.194 406.793 522.208 404.302C518.221 401.81 511.328 398.322 501.528 393.837C491.728 389.352 481.263 385.615 470.134 382.625C459.006 379.635 449.621 377.642 441.98 376.646C434.339 375.649 425.951 375.068 416.815 374.901C407.68 374.735 399.208 374.985 391.402 375.649C383.595 376.313 376.535 377.227 370.223 378.39C363.911 379.552 355.44 381.878 344.81 385.366C334.179 388.854 325.542 392.342 318.897 395.83C312.253 399.319 305.36 403.72 298.218 409.036C291.075 414.351 284.514 420.248 278.534 426.726C272.555 433.204 267.322 440.18 262.838 447.655C258.353 455.129 255.363 460.777 253.868 464.597C252.373 468.418 251.21 472.072 250.38 475.56C249.549 479.048 249.134 484.779 249.134 492.752C249.134 500.725 250.048 508.449 251.875 515.923C253.702 523.398 256.193 530.291 259.349 536.603C262.505 542.915 265.827 548.396 269.316 553.047C272.804 557.698 276.541 562.017 280.528 566.003C284.514 569.99 289.414 574.142 295.228 578.461C301.041 582.78 307.519 586.849 314.662 590.67C321.804 594.49 328.947 597.729 336.089 600.387C343.232 603.044 350.955 605.37 359.261 607.363C367.566 609.356 374.21 610.685 379.193 611.349C384.176 612.014 390.405 612.512 397.88 612.844C405.354 613.177 412.247 613.177 418.559 612.844C424.871 612.512 432.263 611.682 440.734 610.353C449.205 609.024 456.597 607.529 462.909 605.868C469.221 604.207 476.529 601.799 484.835 598.643C493.14 595.487 500.448 592.331 506.76 589.175C513.072 586.019 520.381 581.866 528.686 576.717C536.991 571.568 543.054 567.498 546.874 564.508C550.695 561.519 566.391 560.024 593.964 560.024C607.751 560.024 621.538 560.024 635.324 560.024C634.244 561.851 633.165 563.678 632.085 565.505C629.926 569.159 626.604 573.893 622.119 579.707C617.634 585.52 613.315 590.67 609.163 595.154C605.01 599.639 599.861 604.622 593.715 610.104C587.569 615.585 579.43 621.814 569.298 628.79C559.166 635.767 550.611 641.082 543.635 644.736C536.659 648.391 530.264 651.463 524.45 653.955C518.637 656.447 511.743 659.021 503.77 661.679C495.797 664.336 488.821 666.413 482.841 667.908C476.862 669.403 469.47 670.898 460.667 672.392C451.863 673.887 443.309 674.967 435.004 675.631C426.698 676.296 416.234 676.545 403.61 676.379C390.986 676.213 380.023 675.631 370.722 674.635C361.42 673.638 351.454 671.977 340.823 669.652C330.192 667.326 321.057 664.835 313.416 662.177C305.775 659.519 298.467 656.53 291.49 653.208C284.514 649.885 278.783 646.896 274.299 644.238C269.814 641.58 262.671 636.597 252.871 629.289C243.071 621.98 232.856 613.26 222.225 603.127C211.595 592.995 201.462 582.78 191.828 572.481C182.194 562.183 173.474 552.466 165.667 543.33C157.86 534.195 151.299 526.969 145.984 521.654C140.669 516.338 133.609 510.11 124.806 502.967C120.404 499.396 116.002 495.825 111.601 492.253C114.009 490.426 116.418 488.599 118.826 486.772C123.643 483.118 129.706 477.719 137.014 470.577C144.323 463.435 155.369 451.392 170.152 434.45C184.935 417.507 195.566 405.797 202.044 399.319C208.522 392.841 215.083 386.778 221.727 381.13C228.371 375.483 235.264 370.084 242.407 364.935C249.549 359.786 257.19 354.803 265.329 349.986C273.468 345.169 283.351 340.186 294.979 335.037C306.606 329.888 318.233 325.652 329.86 322.33C341.487 319.008 353.447 316.516 365.739 314.855C378.03 313.194 390.82 312.447 404.108 312.613ZM278.534 458.368C288.916 458.368 299.297 458.368 309.679 458.368C330.442 458.368 343.813 460.86 349.793 465.843C355.772 470.826 358.762 476.474 358.762 482.786C358.762 489.097 356.52 493.998 352.035 497.486C347.55 500.974 345.308 503.216 345.308 503.216C345.308 503.216 346.803 507.286 349.793 514.428C352.782 521.571 356.022 525.225 359.51 525.391C362.998 525.557 364.742 528.215 364.742 533.364C364.742 535.939 364.742 538.513 364.742 541.088C360.839 541.088 356.935 541.088 353.032 541.088C345.225 541.088 338.996 535.523 334.345 524.394C329.694 513.266 324.379 507.701 318.399 507.701C315.409 507.701 312.419 507.701 309.43 507.701C309.43 510.691 309.43 513.681 309.43 516.671C309.43 519.66 309.43 522.65 309.43 525.64C311.506 525.64 313.582 525.64 315.658 525.64C317.735 525.64 319.811 525.64 321.887 525.64C321.887 528.132 321.887 530.623 321.887 533.115C321.887 535.606 321.887 538.098 321.887 540.589C314.662 540.589 307.436 540.589 300.211 540.589C292.985 540.589 285.76 540.589 278.534 540.589C278.534 538.098 278.534 535.606 278.534 533.115C278.534 530.623 278.534 528.132 278.534 525.64C280.611 525.64 282.687 525.64 284.763 525.64C286.84 525.64 288.916 525.64 290.992 525.64C290.992 517.003 290.992 508.365 290.992 499.728C290.992 491.091 290.992 482.453 290.992 473.816C288.916 473.816 286.84 473.816 284.763 473.816C282.687 473.816 280.611 473.816 278.534 473.816C278.534 471.241 278.534 468.667 278.534 466.092C278.534 463.518 278.534 460.943 278.534 458.368ZM384.674 458.368C397.547 458.368 410.42 458.368 423.293 458.368C436.166 458.368 449.039 458.368 461.912 458.368C461.912 462.438 461.912 466.507 461.912 470.577C461.912 474.646 461.912 478.716 461.912 482.786C458.756 482.786 455.6 482.786 452.444 482.786C449.288 482.786 446.133 482.786 442.977 482.786C442.977 481.291 442.977 479.796 442.977 478.301C442.977 476.806 442.977 475.311 442.977 473.816C438.409 473.816 433.841 473.816 429.273 473.816C424.705 473.816 420.137 473.816 415.57 473.816C415.57 476.806 415.57 479.796 415.57 482.786C415.57 485.775 415.57 488.765 415.57 491.755C419.39 491.755 423.21 491.755 427.031 491.755C430.851 491.755 434.671 491.755 438.492 491.755C438.492 494.33 438.492 496.904 438.492 499.479C438.492 504.628 434.671 507.286 427.031 507.452C422.908 507.542 415.439 507.345 415.439 507.345C415.439 507.345 415.57 513.918 415.57 516.671C415.57 519.66 415.57 522.65 415.57 525.64C420.137 525.64 424.705 525.64 429.273 525.64C433.841 525.64 438.409 525.64 442.977 525.64C442.977 524.145 442.977 522.65 442.977 521.155C442.977 519.66 442.977 518.166 442.977 516.671C446.133 516.671 449.288 516.671 452.444 516.671C455.6 516.671 458.756 516.671 461.912 516.671C461.912 520.657 461.912 524.644 461.912 528.63C461.912 532.617 461.912 536.603 461.912 540.589C449.039 540.589 436.166 540.589 423.293 540.589C410.42 540.589 397.547 540.589 384.674 540.589C384.674 538.098 384.674 535.606 384.674 533.115C384.674 530.262 384.681 525.481 384.681 525.481C384.681 525.481 389.128 525.462 390.903 525.391C392.388 525.332 396.955 525.354 396.955 525.354C396.955 525.354 397.132 510.47 397.132 499.479C397.132 490.925 397.132 482.37 397.132 473.816C395.056 473.816 392.979 473.816 390.903 473.816C388.827 473.816 386.751 473.816 384.674 473.816C384.674 471.241 384.674 468.667 384.674 466.092C384.674 463.518 384.674 460.943 384.674 458.368ZM481.346 458.368C491.147 458.368 500.947 458.368 510.747 458.368C530.347 458.368 543.054 460.777 548.867 465.594C554.681 470.411 557.671 481.706 557.837 499.479C558.003 517.252 555.179 528.547 549.366 533.364C543.552 538.181 530.762 540.589 510.996 540.589C501.113 540.589 491.23 540.589 481.346 540.589C481.346 538.098 481.346 535.606 481.346 533.115C481.346 530.623 481.346 528.132 481.346 525.64C483.423 525.64 485.499 525.64 487.575 525.64C489.652 525.64 491.728 525.64 493.804 525.64C493.804 517.003 493.804 508.365 493.804 499.728C493.804 491.091 493.804 482.453 493.804 473.816C491.728 473.816 489.652 473.816 487.575 473.816C485.499 473.816 483.423 473.816 481.346 473.816C481.346 471.241 481.346 468.667 481.346 466.092C481.346 463.518 481.346 460.943 481.346 458.368ZM607.917 458.368C615.89 458.368 620.624 458.95 622.119 460.112C622.866 460.694 623.614 461.275 624.361 461.857C624.361 461.275 624.361 460.694 624.361 460.112C624.361 459.531 624.361 458.95 624.361 458.368C627.434 458.368 630.507 458.368 633.58 458.368C636.653 458.368 639.726 458.368 642.799 458.368C642.716 462.438 642.633 466.507 642.55 470.577C642.384 478.716 639.311 482.786 633.331 482.786C630.341 482.786 627.351 482.786 624.361 482.786C624.361 481.955 624.361 481.125 624.361 480.294C624.361 478.633 623.614 477.138 622.119 475.809C620.624 474.48 616.721 473.816 610.409 473.816C604.097 473.816 600.193 474.48 598.698 475.809C597.203 477.138 596.456 479.547 596.456 483.035C596.456 486.523 598.477 488.64 599.805 489.802C601.134 490.965 604.346 491.755 612.153 491.755C619.96 491.755 628.85 491.3 635.162 496.615C641.474 501.931 642.799 510.608 642.799 516.421C642.799 522.235 640.397 530.119 634.251 535.434C628.106 540.749 620.375 541.088 612.402 541.088C604.429 541.088 599.695 540.423 598.2 539.095C597.453 538.43 596.705 537.766 595.958 537.101C595.958 537.766 595.958 538.43 595.958 539.095C595.958 539.759 595.958 540.423 595.958 541.088C592.885 541.088 589.812 541.088 586.739 541.088C583.666 541.088 580.593 541.088 577.52 541.088C577.52 537.018 577.52 532.949 577.52 528.879C577.52 524.81 577.52 520.74 577.52 516.671C580.593 516.671 583.666 516.671 586.739 516.671C589.812 516.671 592.885 516.671 595.958 516.671C595.958 517.584 595.958 518.498 595.958 519.411C595.958 521.238 596.705 522.733 598.2 523.896C599.695 525.059 603.681 525.64 610.16 525.64C616.638 525.64 620.624 524.976 622.119 523.647C623.614 522.318 624.361 519.993 624.361 516.671C624.361 513.349 623.614 511.023 622.119 509.694C620.624 508.365 615.89 507.701 607.917 507.701C599.944 507.701 591.163 507.078 585.018 501.762C578.872 496.447 577.52 488.765 577.52 482.786C577.52 476.806 577.04 468.704 583.186 463.555C589.332 458.405 599.944 458.368 607.917 458.368ZM512.242 473.816C512.242 482.453 512.242 491.091 512.242 499.728C512.242 508.365 512.242 517.003 512.242 525.64C516.145 525.64 520.048 525.64 523.952 525.64C531.759 525.64 535.746 523.27 537.241 521.941C538.736 520.612 540.147 514.345 540.147 499.728C540.147 485.111 537.646 478.275 536.151 476.947C534.656 475.618 531.759 473.816 523.952 473.816C520.048 473.816 516.145 473.816 512.242 473.816ZM309.43 474.314C309.43 477.304 309.43 480.294 309.43 483.284C309.43 486.239 309.747 492.01 309.747 492.01C309.747 492.01 318.183 492.419 322.635 492.503C331.438 492.669 336.587 492.087 338.082 490.759C339.577 489.43 340.325 487.021 340.325 483.533C340.325 480.045 339.577 477.636 338.082 476.308C336.587 474.979 331.438 474.314 322.635 474.314C318.233 474.314 313.831 474.314 309.43 474.314Z" fill="#FFFFFF" fill-rule="nonzero" opacity="1" stroke="none" vectornator:layerName="path"/>
</g>
</svg>
