<?xml version="1.0" encoding="UTF-8" standalone="no"?>
<!DOCTYPE svg PUBLIC "-//W3C//DTD SVG 1.1//EN" "http://www.w3.org/Graphics/SVG/1.1/DTD/svg11.dtd">
<!-- Created with Vectornator (http://vectornator.io/) -->
<svg height="100%" stroke-miterlimit="10" style="fill-rule:nonzero;clip-rule:evenodd;stroke-linecap:round;stroke-linejoin:round;" version="1.1" viewBox="0 0 750 1000" width="100%" xml:space="preserve" xmlns="http://www.w3.org/2000/svg" xmlns:vectornator="http://vectornator.io" xmlns:xlink="http://www.w3.org/1999/xlink">
<defs/>
<g id="Layer-1" vectornator:layerName="Layer 1">
<path d="M269.738 247.311C261.304 247.542 249.383 251.187 241.757 252.712C239.979 253.068 231.554 254.502 231.204 255.638C229.986 259.596 231.941 266.443 232.955 269.991C236.64 282.89 240.528 291.216 248.783 302.224C247.212 303.795 240.061 299.825 237.656 299.023C225.943 295.119 214.476 290.321 202.773 286.42C182.75 279.746 165.198 272.603 145.059 265.89C138.752 263.788 132.615 261.267 126.305 259.164C123.658 258.281 120.005 255.938 117.228 255.938C110.056 255.938 102.519 259.309 95.823 260.339C89.181 261.361 81.7848 261.109 75.3183 263.265C75.2206 267.758 74.9246 272.249 75.0182 276.743C75.0639 278.936 76.6482 282.483 77.3688 284.645C81.522 297.104 84.4076 305.676 93.7725 316.602C98.701 322.352 104.069 327.168 110.176 331.53C110.775 331.958 115.652 334.533 115.753 335.356C116.19 338.944 115.669 342.571 115.753 346.184C115.995 356.614 121.275 366.807 126.305 375.19C130.515 382.207 137.524 388.423 143.884 393.37C144.472 393.827 152.081 398.892 152.086 398.946C152.554 403.777 152.025 408.229 152.661 412.999C154.168 424.303 159.9 436.041 168.215 444.356C171.392 447.534 174.937 450.621 178.742 453.158C179.68 453.783 181.7 454.491 182.268 455.484C182.602 456.069 182.249 464.406 182.568 466.636C183.809 475.324 189 483.979 194.571 490.942C199.339 496.902 204.881 502.482 211 507.071C212.528 508.217 216.718 510.067 217.726 511.747C218.719 513.402 218.585 516.116 219.477 517.898C223.242 525.43 224.718 534.634 227.678 542.529C231.701 553.256 235.069 564.494 239.406 575.336C241.192 579.8 241.595 584.652 243.507 589.115C245.8 594.466 248.397 600.654 249.959 606.118C251.942 613.059 253.628 620.458 256.71 626.623C258.824 630.851 259.017 635.915 260.811 640.101C262.618 644.317 264.336 648.927 265.787 653.279C266.816 656.365 267.17 661.291 269.888 663.557C273.955 666.946 280.538 668.136 285.117 670.883C293.474 675.898 302.606 679.766 311.198 684.061C313.756 685.341 321.755 690.513 324.401 690.513C327.721 690.513 341.453 686.163 344.605 684.361C346.195 683.453 349.337 681.913 351.357 682.586C349.882 684.061 348.174 698.425 347.531 701.64C346.199 708.298 342.651 717.138 343.155 724.196C343.211 724.98 354.144 729.99 355.458 730.647C363.185 734.51 372.384 738.507 379.788 742.95C381.872 744.2 384.167 745.889 386.515 746.476C390.19 747.394 394.085 752.076 397.943 752.627C402.852 753.329 409.879 748.872 414.071 746.776C417.727 744.948 422.362 744.422 425.774 742.375C427.202 741.518 429.867 739.749 431.65 739.749C435.098 739.749 439.72 742.411 443.078 743.25C450.244 745.042 457.7 746.785 465.058 747.651C485.095 750.008 504.987 749.782 524.822 746.476C567.216 739.41 606.218 714.62 634.122 681.136C644.432 668.764 651.495 655.165 658.152 641.852C662.107 633.942 663.766 625.985 667.254 617.846C667.746 616.699 668.103 617.877 668.405 616.371C669.305 611.868 669.592 606.983 671.055 602.593C671.47 601.347 672.026 602.775 672.231 601.142C672.623 598.006 672.479 594.901 673.106 591.765C673.573 589.43 674.822 585.111 674.856 582.963C675.048 570.95 675.048 558.943 674.856 546.93C674.735 539.356 671.652 530.835 670.18 523.474C665.182 498.482 654.659 477.15 639.398 455.784C635.518 450.352 631.116 445.087 626.52 440.255C623.521 437.102 619.008 434.929 617.418 430.878C615.741 426.605 617.347 421.69 617.418 417.1C617.609 404.7 623.101 383.061 613.917 372.565C608.696 366.598 602.018 364.973 594.863 362.587C582.078 358.326 569.871 353.382 557.054 349.109C538.653 342.976 520.501 336.379 502.567 329.205C496.749 326.878 490.056 326.163 484.387 323.328C477.81 320.04 469.838 317.804 462.707 315.427C446.44 310.004 429.228 304.15 413.471 297.848C389.186 288.134 364.386 279.419 339.629 271.166C332.55 268.807 324.069 267.062 317.074 263.565C307.678 258.867 296.328 255.849 286.017 252.412C282.099 251.106 277.003 247.894 273.114 247.436C272.074 247.314 270.943 247.278 269.738 247.311ZM273.989 255.188C278.79 255.332 283.575 258.817 287.767 260.614C298.61 265.261 310.171 268.974 321.175 272.642C336.51 277.754 351.405 282.518 366.285 288.47C371.626 290.607 377.948 294.207 383.889 295.197C389.032 296.054 393.335 299.605 398.543 300.473C403.89 301.364 410.259 303.981 414.946 306.325C418.631 308.167 422.982 308.92 426.674 310.15C438.721 314.166 451.053 318.634 462.707 323.629C469.205 326.413 476.362 328.777 482.937 330.655C484.177 331.009 490.803 332.542 487.613 334.456C485.662 335.627 481.601 335.606 479.411 336.231C476.518 337.058 472.899 339.457 469.734 339.457C466.246 339.457 463.097 337.245 460.057 336.231C453.468 334.035 446.605 331.631 440.152 329.48C438.457 328.915 436.775 327.471 434.876 327.154C429.551 326.267 423.698 323.4 418.747 321.278C408.624 316.94 398.353 314.088 388.265 310.726C385.235 309.715 382.208 307.478 378.888 306.925C370.094 305.459 359.436 300.041 351.057 297.247C349.332 296.672 347.545 295.191 345.781 294.897C339.204 293.801 333.636 289.272 327.026 288.17C320.322 287.053 308.717 282.379 302.696 279.368C299.613 277.827 296.047 277.464 292.743 276.143C284.377 272.796 275.587 270.058 267.262 266.49C264.445 265.283 252.459 262.452 251.434 260.914C250.564 259.61 254.501 259.282 254.935 259.164C258.499 258.192 269.066 255.885 271.939 255.338C272.624 255.207 273.303 255.167 273.989 255.188ZM118.928 265.265C119.777 265.144 120.599 265.133 121.329 265.315C130.281 267.553 139.328 272.006 148.285 274.992C150.246 275.646 152.063 276.972 154.137 277.318C159.462 278.205 164.375 282.263 169.965 283.194C174.96 284.027 179.448 287.609 184.619 288.47C191.458 289.61 198.505 293.089 204.823 295.797C212.094 298.913 219.816 300.87 227.403 303.399C239.208 307.334 252.051 311.997 263.437 316.877C275.719 322.141 288.992 325.232 300.945 330.355C313.186 335.601 326.314 338.63 338.454 343.833C341.34 345.07 352.01 347.313 353.407 349.409C351.282 351.535 347.443 351.249 344.605 352.06C340.781 353.153 335.862 355.861 332.002 355.861C329.325 355.861 327.278 354.278 324.976 353.51C319.727 351.761 314.294 349.95 309.147 348.234C306.029 347.195 302.854 345.105 299.495 344.433C293.222 343.179 287.169 339.733 281.016 337.682C268.465 333.498 256.128 328.411 243.507 324.204C224.953 318.019 205.22 311.703 187.244 303.999C174.953 298.731 161.697 295.647 149.735 290.521C142.31 287.339 134.517 285.34 127.18 282.894C121.412 280.971 115.766 277.17 109.601 276.143C107.215 275.745 95.7408 271.877 94.9478 270.291C96.5867 268.652 108.457 267.848 111.352 267.366C113.489 267.009 116.384 265.628 118.928 265.265ZM242.682 267.016C245.53 266.863 252.583 270.775 254.935 271.166C259.014 271.846 263.825 273.976 267.538 275.567C274.693 278.634 282.313 280.793 289.518 283.194C292.026 284.03 298.566 284.738 300.07 286.995C301.648 289.361 301.208 297.704 301.82 301.073C303.26 308.988 306.417 316.417 310.022 323.629C306.416 325.431 294.103 318.241 289.518 317.477C275.55 315.149 264.593 306.019 255.235 294.322C252.233 290.57 248.147 286.004 246.433 281.719C245.21 278.663 243.523 275.308 242.632 272.042C242.122 270.172 242.778 268.898 241.757 267.366C241.966 267.156 242.275 267.037 242.682 267.016ZM84.6954 275.567C97.074 281.464 109.464 283.413 120.729 289.046C124.469 290.916 129.237 291.335 132.757 293.447C134.991 294.787 148.175 298.185 148.56 299.598C149.826 304.238 149.298 308.706 150.336 313.376C151.258 317.527 153.15 321.56 153.836 325.679C154.951 332.366 160.373 339.686 164.389 345.309C165.405 346.731 169.196 349.506 166.439 350.885C164.78 349.225 162.331 348.915 160.288 348.234C154.781 346.398 149.671 343.592 144.459 341.508C126.335 334.258 106.578 319.826 94.6477 303.124C89.5686 296.013 86.7833 289.876 84.9705 281.719C84.6046 280.072 83.0941 277.169 84.6954 275.567ZM309.147 290.521C314.749 293.322 321.086 294.692 327.026 296.672C334.568 299.186 342.225 302.422 349.581 304.874C373.267 312.77 395.918 322.545 419.347 330.355C424.603 332.107 430.006 333.916 435.151 335.631C436.847 336.196 438.528 337.665 440.427 337.982C443.386 338.475 447.853 339.976 450.405 341.508C453.627 343.441 459.023 343.047 461.532 346.184C456.098 351.618 451.951 359.432 447.179 366.113C445.9 367.904 444.505 370.951 442.478 371.965C441.194 372.607 436.35 369.939 435.151 369.339C428.495 366.011 420.643 364.657 413.771 361.712C405.037 357.969 395.885 355.658 386.815 352.635C367.662 346.251 348.855 338.798 329.677 332.406C318.093 328.544 312.493 311.531 310.022 301.648C309.442 299.326 307.207 292.461 309.147 290.521ZM158.538 302.824C161.4 302.267 164.295 304.652 167.039 305.749C176.155 309.396 185.354 312.354 194.571 315.427C220.94 324.216 247.685 335.065 273.989 343.833C285.294 347.601 297.137 351.217 307.972 355.861C312.688 357.882 318.198 359.786 322.925 361.137C323.251 361.23 325.993 360.989 324.976 362.587C318.551 372.684 310.079 381.523 303.296 391.019C301.8 393.114 299.042 399.657 296.269 400.696C294.483 401.366 289.887 398.543 288.342 397.771C284.164 395.681 279.449 395.062 275.464 393.069C273.585 392.13 271.088 390.559 269.013 390.144C261.831 388.707 253.227 384.589 246.733 381.342C234.905 375.428 221.033 371.832 208.924 366.988C201.295 363.937 194.464 358.595 187.244 354.986C174.374 348.551 163.171 330.209 159.988 317.477C159.186 314.271 154.937 303.524 158.538 302.824ZM504.892 337.982C508.603 338.724 512.425 341.176 516.045 342.383C522.165 344.423 529.134 346.277 534.799 349.109C537.204 350.312 539.931 350.637 542.401 351.46C549.674 353.884 556.677 357.286 563.806 359.662C569.219 361.466 574.997 362.932 580.209 365.538C586.888 368.877 595.147 370.323 602.189 373.14C604.058 373.887 607.86 376.586 607.166 379.016C606.943 379.796 593.295 383.738 591.637 384.568C591.624 384.555 591.624 384.554 591.612 384.543C589.25 386.692 587.888 385.754 586.236 383.592C579.171 377.388 570.364 376.078 562.33 372.865C550.424 368.102 537.962 362.875 525.697 358.787C519.658 356.774 513.141 354.859 507.543 352.06C501.835 349.206 495.364 347.751 489.664 345.309C487.377 344.329 485.953 344.823 484.087 342.958C484.976 342.07 503.314 337.666 504.892 337.982ZM124.83 340.632C137.427 348.542 151.167 351.904 162.638 358.787C164.254 359.756 175.701 363.854 175.816 364.663C176.798 371.534 176.866 378.001 178.742 384.568C181.095 392.801 186.854 398.715 190.77 406.548C189.181 408.136 175.755 401.842 172.891 400.696C154.802 393.461 135.004 377.532 128.656 358.487C127.558 355.192 122.371 343.091 124.83 340.632ZM473.96 347.884C483.144 348.274 492.303 356.632 501.391 359.662C523.109 366.901 545.074 375.029 566.731 383.692C573.847 386.539 579.415 388.65 581.685 396.595C582.278 398.671 584.44 403.119 581.685 404.497C581.321 404.679 571.227 398.738 569.657 398.346C565.921 397.412 561.374 395.079 557.954 393.37C550.455 389.62 540.374 387.388 532.148 385.743C521.908 383.695 511.752 381.513 501.391 381.342C491.136 381.172 480.866 381.162 470.609 381.067C468.282 381.045 471.057 381.28 469.159 380.467C466.876 379.488 452.459 375.951 452.155 375.19C451.58 373.753 455.329 369.462 456.256 368.164C460.801 361.8 462.335 350.044 470.034 348.234C471.348 347.925 472.648 347.828 473.96 347.884ZM368.336 354.386C373.039 354.024 376.659 357.356 380.939 358.211C385.113 359.046 388.991 361.262 392.966 362.587C403.081 365.959 413.175 369.715 423.448 373.14C427.772 374.581 432.315 377.648 436.926 378.416C440.915 379.081 445.138 381.192 448.929 382.817C457.558 386.515 466.757 388.473 475.31 391.894C476.857 392.513 485.202 397.363 484.087 399.221C483.05 400.949 479.956 400.883 478.236 401.571C474.463 403.081 466.76 407.148 463.007 407.148C461.822 407.148 459.466 403.606 458.606 402.747C456.165 400.305 450.574 397.337 447.479 396.895C439.352 395.734 432.681 390.015 424.599 388.668C419.527 387.823 415.288 384.258 410.245 383.417C404.906 382.527 399.35 379.655 394.417 377.541C387.407 374.537 379.746 372.342 372.462 369.914C367.652 368.311 363.076 366.327 358.083 364.663C355.403 363.769 352.956 361.712 349.881 361.712C349.519 360.626 349.738 361.124 349.306 360.262C350.689 358.88 353.115 359.368 354.858 358.787C358.903 357.438 364.205 354.703 368.336 354.386ZM334.053 367.589C335.769 367.343 338.046 368.811 339.629 369.339C346.29 371.559 354.4 375.91 360.734 376.966C366.664 377.954 375.269 381.595 380.664 384.292C385.213 386.567 390.025 387.092 394.717 388.969C404.626 392.932 414.234 396.733 424.324 400.096C431.35 402.438 445.525 405.769 450.405 410.649C452.697 412.941 454.54 415.509 454.506 418.575C454.41 426.977 454.464 435.397 453.905 443.781C453.601 448.35 453.445 457.649 453.63 457.834C452.421 458.56 451.684 458.839 450.73 458.084C450.709 458.105 450.701 458.113 450.68 458.134C444.051 454.82 436.717 452.944 429.875 450.208C411.261 442.762 392.498 435.842 374.212 428.528C368.52 426.251 362.775 423.548 356.633 421.501C355.542 421.137 351.796 418.708 350.757 419.451C349.078 420.65 347.711 423.544 346.656 425.302C343.728 430.181 339.468 434.751 337.004 439.68C332.889 447.91 325.912 454.641 321.175 462.535C314.505 473.651 306.513 485.278 298.895 495.943C294.111 502.64 289.896 509.756 285.117 516.448C283.984 518.033 281.113 520.739 280.741 522.599C280.529 523.659 281.8 525.488 282.191 526.4C283.868 530.312 284.692 534.453 286.017 538.428C286.638 540.291 288.014 542.011 288.342 543.979C289.704 552.151 293.928 561.105 297.144 568.61C301.845 579.579 304.44 591.61 309.147 602.593C311.873 608.954 313.231 615.422 315.899 621.647C316.373 622.755 317.093 628.245 318.249 628.374C324.246 629.04 335.29 624.86 341.104 623.697C351.706 621.577 373.197 620.909 377.713 609.619C379.742 604.545 380.189 597.664 380.939 592.04C381.602 587.065 384.892 580.35 383.889 575.336C383.567 573.724 378.51 570.45 377.438 569.485C372.002 564.593 364.835 559.824 360.434 553.956C359.889 553.23 361.676 549.912 361.909 548.98C363.211 543.774 364.475 538.555 366.285 533.727C366.917 532.042 366.659 529.552 367.761 528.176C368.65 527.063 382.784 533.535 384.764 534.327C397.767 539.528 409.962 544.856 423.148 550.131C427.277 551.782 433.02 552.965 436.926 555.407C439.909 557.271 436.581 563.646 436.051 566.559C434.096 577.313 431.168 587.648 429 598.492C422.232 632.332 414.136 667.075 405.569 701.34C403.535 709.476 401.516 717.294 399.993 725.671C399.265 729.676 399.206 736.41 396.467 739.149C390.728 736.28 384.2 733.002 378.313 730.647C376.933 730.095 375.65 728.656 374.212 728.297C371.756 727.683 367.793 725.758 365.71 724.196C364.528 723.31 355.347 719.865 355.158 718.919C354.645 716.358 357.598 707.445 358.083 704.291C359.19 697.097 361.041 689.692 361.909 682.311C362.377 678.333 362.586 672.867 363.66 669.108C364.045 667.76 366.762 656.266 366.285 655.63C365.268 654.274 357.569 660.138 356.033 660.906C348.846 664.499 342.17 669.325 334.953 672.934C332.024 674.399 328.073 678.643 324.976 679.085C321.905 679.524 313.977 673.861 310.923 672.334C300.534 667.139 289.711 661.728 279.265 656.505C276.053 654.899 276.756 651.187 275.464 648.603C272.514 642.702 271.228 635.262 268.713 628.974C257.857 601.834 251.162 574.132 240.281 546.93C237.127 539.044 235.281 531.178 232.079 523.174C231.27 521.151 228.01 515.51 229.154 513.222C231.014 509.501 234.36 506.059 236.78 502.67C242.232 495.038 247.733 487.447 253.184 479.814C271.367 454.359 289.789 429.078 307.972 403.622C314.4 394.622 320.898 385.665 327.326 376.666C328.101 375.581 333.508 367.667 334.053 367.589ZM186.069 367.864C189.061 369.858 192.711 370.356 196.046 371.69C201.649 373.931 207.557 376.493 213.325 378.416C230.319 384.081 246.669 392.956 263.737 398.646C270.8 401 277.47 404.49 284.541 406.848C286.864 407.622 289.386 407.891 291.268 409.773C285.145 415.896 280.294 424.513 274.864 431.753C273.565 433.485 271.922 437.301 269.888 438.205C267.928 439.076 257.774 433.402 254.935 432.929C250.872 432.251 246.766 430.171 242.932 428.528C238.203 426.501 233.45 425.69 228.854 423.852C225.857 422.653 223.048 420.639 220.077 419.451C217.956 418.602 216.294 416.726 214.5 415.65C201.807 408.034 191.194 394.467 187.844 381.067C187.121 378.174 183.502 370.431 186.069 367.864ZM488.488 391.319C503.244 392.836 506.263 391.699 508.993 391.894C513.865 392.242 519.27 393.34 524.247 394.245C538.468 396.831 552.051 402.551 564.981 407.723C574.56 411.554 583.569 418.15 591.937 424.127C633.814 454.039 654.49 494.547 663.153 540.753C663.82 544.31 663.094 547.054 663.429 550.731C664.313 560.461 664.487 571.398 664.029 581.488C663.852 585.366 662.129 590.634 661.678 594.691C657.745 630.089 636.628 664.276 610.691 690.213C602.577 698.327 591.425 708.198 581.085 713.368C564.514 721.653 548.247 730.728 529.523 734.473C521.268 736.124 512.957 736.594 504.317 737.674C487.496 739.776 470.206 737.733 453.905 734.473C449.102 733.512 442.507 733.165 438.102 730.647C436.071 729.487 437.709 721.456 438.677 719.519C441.347 714.178 441.365 707.062 443.078 701.065C444.454 696.249 447.024 690.238 447.479 685.237C448.53 673.678 453.441 662.726 455.681 651.529C460.613 626.867 467.51 602.788 472.96 578.262C474.983 569.158 477.436 560.133 479.711 551.031C480.643 547.305 483.359 541.801 482.637 537.828C482.393 536.487 477.622 536.148 476.761 535.502C471.425 531.501 461.198 529.257 454.806 526.7C441.633 521.431 428.533 516.076 415.522 510.872C411.059 509.087 406.638 507.313 402.344 505.595C401.527 505.269 400.414 504.145 399.418 504.145C397.406 504.145 394.782 505.952 392.966 506.471C388.304 507.803 383.426 508.927 378.888 510.872C375.655 512.257 360.776 514.994 359.559 517.023C357.89 519.804 357.935 523.73 357.208 527C355.631 534.097 353.529 540.892 351.932 548.08C351.591 549.613 348.522 555.353 349.881 556.882C354.909 562.538 361.269 567.583 366.885 572.711C368.143 573.859 372.63 577.341 373.037 578.562C373.563 580.14 372.816 581.877 372.737 583.538C372.707 584.155 372.238 584.701 372.162 585.314C371.377 591.592 370.965 598.29 369.236 604.343C368.342 607.473 362.155 610.925 359.859 608.169C358.69 606.766 358.67 603.777 358.083 602.017C355.9 595.468 353.238 588.973 351.357 582.388C349.035 574.263 345.494 566.546 343.155 558.357C342.262 555.231 339.728 551.87 339.329 548.68C338.766 544.175 336.714 537.573 334.653 533.452C332.671 529.489 331.922 525.023 330.252 520.849C329.495 518.957 327.901 516.652 327.901 514.397C327.901 511.665 331.416 509.143 332.603 506.771C336.383 499.21 341.891 491.881 346.956 484.791C354.609 474.076 361 463.249 368.636 452.558C370.75 449.599 373.205 441.772 376.838 439.955C377.838 439.455 381.023 441.516 381.839 442.006C384.694 443.719 393.734 447.49 397.067 448.157C401.531 449.05 405.783 451.758 409.97 453.433C419.967 457.432 430.59 462.082 440.727 465.461C444.976 466.877 453.814 472.911 458.306 471.913C467.633 469.84 475.919 464.558 484.687 461.635C485.882 461.237 493.017 459.772 493.189 458.134C494.048 449.977 494.234 440.608 494.64 432.629C494.923 427.067 494.774 421.491 494.94 415.925C494.99 414.253 495.515 412.621 495.515 410.949C495.515 400.783 494.584 398.565 487.913 391.894C488.206 391.601 488.195 391.612 488.488 391.319ZM163.189 405.097C165.85 404.986 168.476 408.61 171.415 409.198C174.926 409.9 178.587 412.046 181.693 413.599C185.924 415.715 190.347 416.481 194.296 418.85C195.686 419.685 202.608 421.19 202.773 422.676C203.435 428.633 203.907 434.456 204.823 439.955C205.619 444.732 209.591 451.481 212.45 455.484C213.39 456.801 219.468 462.424 217.151 462.811C215.101 463.152 208.285 459.229 206.298 458.434C191.624 452.565 173.044 440.489 166.739 424.727C165.307 421.145 157.838 407.442 162.038 405.372C162.421 405.184 162.808 405.113 163.189 405.097ZM211 424.127C214.267 424.036 217.238 426.817 220.077 427.952C226.075 430.352 232.088 434.107 238.231 436.154C241.668 437.3 245.715 438.714 248.783 440.555C251.766 442.345 262.001 444.59 263.437 446.982C263.98 447.888 259.644 452.672 259.036 453.433C255.391 457.989 252.359 463.11 248.508 467.512C247.277 468.919 245.883 472.506 243.507 471.913C240.93 471.268 237.806 468.484 235.605 466.911C225.27 459.529 216.526 448.534 213.325 437.33C212.576 434.709 208.254 424.202 211 424.127ZM193.396 460.66C196.341 460.971 200.698 464.849 203.073 466.036C208.363 468.681 214.498 471.803 220.077 473.663C222.754 474.555 226.315 475.491 228.579 477.189C230.366 478.529 238.776 480.29 239.406 481.865C240.11 483.624 235.351 487.302 235.005 487.716C232.476 490.751 225.843 501.837 222.427 503.545C221.508 504.005 212.307 497.644 211.275 496.818C206.798 493.237 199.253 485.343 196.921 479.514C195.767 476.627 195.099 473.243 193.696 470.437C192.867 468.779 190.205 461.449 192.245 460.76C192.599 460.641 192.975 460.616 193.396 460.66ZM397.943 513.222C403.507 513.515 410.344 517.66 413.771 519.374C425.969 525.473 438.647 529.274 451.28 534.327C456.191 536.291 462.677 541.053 467.984 541.053C468.834 543.605 465.952 543.537 464.183 543.979C459.822 545.069 449.601 549.139 445.428 548.38C441.417 547.651 436.154 544.343 432.525 542.529C423.161 537.847 413.351 534.979 404.394 530.501C398.873 527.74 389.849 523.436 384.164 522.299C383.455 522.157 378.643 520.283 379.188 519.374C379.735 518.462 395.694 513.784 397.943 513.222ZM318.899 518.273C319.967 518.165 320.697 519.02 320.425 520.124C320.473 520.075 320.494 520.03 320.575 519.949C321.707 521.081 321.558 522.874 322.05 524.35C323.784 529.552 325.523 534.769 327.326 540.178C332.692 556.275 338.398 572.542 343.73 588.539C345.495 593.835 347.236 599.032 349.006 604.343C349.444 605.657 352.044 609.419 351.357 610.795C350.589 612.329 347.297 611.999 346.081 612.27C340.817 613.44 331.33 615.107 326.451 617.546C323.044 614.139 321.005 603.492 319.124 598.792C312.503 582.239 306.016 565.619 300.37 548.68C298.704 543.681 296.631 537.377 294.219 532.552C293.771 531.656 291.647 528.317 292.168 527.275C293.09 525.432 296.14 525.857 297.719 525.225C301.462 523.728 314.814 521.058 317.074 518.798C317.201 518.874 317.322 518.949 317.449 519.023C317.922 518.585 318.442 518.319 318.899 518.273ZM382.314 464.111C378.599 464.789 377.078 476.619 379.838 480.515C379.809 480.602 379.833 480.577 379.788 480.69C378.095 484.922 370.887 487.602 369.511 492.417C368.793 494.931 371.223 494.77 373.037 494.468C373.309 494.422 373.439 494.083 373.612 493.868C376.817 489.862 378.798 486.042 382.714 481.865C382.609 481.76 382.625 481.734 382.539 481.64C383.279 481.508 384.073 481.163 385.04 480.39C382.942 476.195 382.579 469.532 384.764 465.161C383.874 464.27 383.049 463.977 382.314 464.111ZM394.717 464.586C392.36 466.943 393.36 476.8 395.017 480.114C393.014 482.117 390.868 483.963 388.865 485.966C386.108 488.723 378.678 497.105 387.39 495.943C387.664 495.907 387.888 495.6 387.99 495.343C389.151 492.44 391.234 489.755 393.266 487.141C394.122 486.041 400.585 481.311 400.593 481.29C401.153 479.889 398.65 476.561 398.543 475.113C398.39 473.051 400.87 464.879 394.717 464.586ZM411.096 465.586C410.009 465.536 409.118 465.753 409.07 466.636C408.886 470.05 408.982 473.471 409.07 476.889C409.113 478.571 410.43 480.244 411.421 481.565C408.869 485.392 396.875 490.991 398.818 496.818C399.676 496.818 400.062 497.221 400.868 496.818C403.386 499.336 410.873 488.263 412.296 486.841C413.878 485.258 416.452 484.76 417.872 483.34C414.752 480.22 415.309 470.266 414.946 466.636C414.919 466.361 414.621 466.067 414.346 466.036C413.467 465.939 412.182 465.636 411.096 465.586ZM369.511 466.036C362.753 466.787 366.585 477.069 366.585 481.865C366.585 483.072 364.175 484.575 363.36 485.391C362.754 485.996 355.337 495.485 358.083 495.943C359.047 496.104 360.071 496.104 361.034 495.943C361.339 495.892 361.837 495.056 361.909 494.768C363.219 489.529 368.135 485.702 371.286 481.29C371.753 480.637 367.509 470.689 371.286 466.911C370.847 466.472 370.83 466.476 369.511 466.036ZM426.949 468.387C424.865 470.471 425.079 480.082 426.674 482.74C427.039 483.347 428.498 485.095 428.124 485.966C426.323 490.17 418.466 493.261 416.697 498.569C415.943 500.83 420.959 501.379 421.973 500.619C424.917 498.411 426.982 492.959 429.875 490.067C431.384 488.558 433.628 488.664 435.151 487.141C431.427 481.555 432.66 476.423 431.65 469.862C431.414 468.326 428.865 469.025 426.949 468.387ZM443.653 472.788C441.072 474.78 443.807 486.273 445.703 490.067C446.249 491.158 429.944 501.954 434.876 504.42C439.485 506.724 442.929 498.717 445.703 495.943C446.786 494.86 451.515 494.183 451.855 492.992C452.589 490.424 449.154 484.02 448.929 480.99C448.763 478.747 448.971 476.461 448.629 474.238C448.422 472.89 444.121 472.427 443.653 472.788ZM460.957 477.189C459.204 478.942 461.727 493.107 463.283 496.218C460.03 499.471 456.078 501.672 452.73 505.02C449.884 507.866 452.213 512.228 455.381 511.172C456.595 510.767 457.251 508.446 457.731 507.646C459.26 505.098 461.782 503.295 463.883 501.194C465.001 500.076 468.368 500.041 468.859 498.569C469.347 497.105 467.207 493.814 466.808 492.417C465.56 488.047 465.74 483.421 465.333 478.939C465.237 477.879 462.991 478.051 460.957 477.189ZM629.446 482.44C624.534 482.956 629.398 490.649 632.972 491.542C633.77 491.742 634.808 491.502 635.597 491.817C635.924 491.948 636.444 492.066 636.472 492.417C636.749 495.825 636.387 499.252 636.472 502.67C636.511 504.205 637.464 508.741 638.823 509.421C644.326 512.173 639.444 497.503 639.398 496.818C639.216 494.089 639.661 491.339 639.398 488.616C639.27 487.294 635.737 487.576 634.722 487.141C632.728 486.287 631.523 482.222 629.446 482.44ZM478.811 482.74C477.208 484.343 477.191 499.274 480.286 502.37C477.541 505.115 474.265 507.216 471.484 509.996C469.212 512.269 466.795 515.325 470.909 516.148C472.031 516.372 472.361 517.465 473.835 517.023C474.86 516.715 476.736 513.309 477.361 512.622C478.802 511.037 480.202 509.414 481.762 507.946C482.703 507.06 486.516 506.625 487.038 505.32C487.553 504.033 484.482 499.375 484.087 497.994C482.936 493.963 483.182 489.147 482.637 484.791C482.492 483.627 479.4 483.329 478.811 482.74ZM495.39 488.967C494.926 488.978 494.553 489.053 494.365 489.192C490.676 491.902 496.069 504.205 497.565 507.946C498.131 509.361 484.976 518.2 486.438 521.124C489.641 527.531 496.97 516.468 498.741 514.697C499.579 513.859 503.656 512.468 504.017 511.747C504.644 510.493 501.857 506.485 501.391 505.32C499.536 500.681 499.51 495.829 499.041 490.667C498.933 489.487 496.781 488.932 495.39 488.967ZM620.269 491.992C620.093 491.963 619.928 491.991 619.768 492.117C613.023 497.44 627.738 500.515 628.27 503.845C629.166 509.443 626.928 514.944 627.395 520.549C627.423 520.886 628.311 521.744 628.846 521.424C629.038 521.309 631.794 519.109 631.796 519.073C632.169 512.637 631.986 506.188 631.796 499.744C631.762 498.563 625.683 497.729 624.47 496.818C623.094 495.786 621.497 492.199 620.269 491.992ZM510.768 494.468C507.896 497.34 513.416 511.292 515.745 514.397C513.343 516.799 510.521 518.72 508.118 521.124C505.343 523.898 501.431 530.934 509.593 529.051C509.597 529.05 516.632 519.764 517.495 519.073C518.587 518.2 522.088 517.373 522.496 516.148C522.594 515.855 522.355 515.537 522.196 515.273C520.33 512.162 518.716 509.463 517.22 506.471C515.097 502.224 519.348 494.761 510.768 494.468ZM609.216 499.144C608.326 500.034 607.297 500.74 606.29 501.494C608.627 506.169 613.041 509.546 617.143 512.622C615.398 516.113 613.321 526.679 615.968 529.326C616.631 528.994 619.717 528.529 619.768 527.575C619.953 524.162 619.685 520.741 619.768 517.323C619.822 515.149 622.192 511.714 621.519 509.696C620.996 508.129 616.011 506.927 614.792 505.895C612.881 504.278 611.096 500.397 609.216 499.144ZM529.523 499.744C527.677 500.052 529.711 503.915 529.823 504.42C531.001 509.723 532.107 513.415 534.499 518.198C532.252 520.543 529.957 522.845 527.747 525.225C524.393 528.837 521.594 534.039 529.223 533.452C530.059 533.387 532.711 526.603 533.624 525.525C536.282 522.383 538.757 521.866 541.25 519.374C539.249 515.37 536.376 512.154 535.374 507.646C534.961 505.787 536.088 501.249 534.199 500.619C533.2 500.286 530.469 499.586 529.523 499.744ZM547.352 502.795C546.851 502.762 546.444 502.811 546.227 502.97C542.856 505.44 551.273 517.535 552.378 520.849C552.694 521.797 543.697 530.892 544.176 535.202C544.371 536.96 547.694 535.973 549.452 535.777C550.481 535.663 549.812 535.033 550.027 534.602C552.429 529.799 555.466 526.365 559.105 521.999C559.634 521.364 555.804 517.749 555.304 516.748C553.233 512.606 552.969 509.12 551.503 504.72C551.174 503.734 548.855 502.892 547.352 502.795ZM596.613 502.97C595.348 504.234 593.209 503.652 592.237 505.595C593.042 506.4 593.179 508.104 593.688 509.121C595.042 511.829 598.032 514.342 600.439 516.148C601.555 516.985 603.991 517.493 603.365 519.374C602.802 521.061 598.63 533.93 601.014 534.327C601.237 534.364 604.595 535.006 604.84 533.452C605.55 528.955 605.136 524.308 607.166 520.249C607.6 519.38 609.647 516.65 609.216 515.573C608.698 514.278 607.008 515.308 605.99 514.697C603.977 513.489 602.364 512.221 600.439 510.296C598.286 508.144 599.059 504.804 596.613 502.97ZM564.106 505.595C557.855 508.721 571.951 520.361 571.132 521.999C570.71 522.843 569.364 523.535 568.782 524.35C566.649 527.336 565.389 530.285 563.806 533.452C563.405 534.252 562.154 537.369 563.806 537.553C565.482 537.739 568.451 538.306 568.782 536.652C569.969 530.717 572.521 527.208 576.984 522.299C574.866 519.653 571.803 517.79 570.257 514.697C568.987 512.158 568.45 507.888 564.106 505.595ZM581.96 505.595C570.189 506.436 583.363 518.025 587.236 521.124C584.375 524.461 578.135 536.652 585.786 536.652C586.18 536.652 587.19 536.825 587.536 536.652C588.684 536.078 588.344 530.995 589.011 529.326C589.926 527.039 594.288 522.802 594.288 520.249C594.288 518.995 588.61 517.222 587.536 516.148C584.596 513.207 585.018 508.361 581.96 505.595ZM636.472 636.3C633.751 639.022 631.995 642.528 629.146 645.377C627.527 646.996 625.047 647.816 623.869 649.778C623.224 650.854 625.791 652.484 625.92 653.579C626.185 655.829 625.855 660.435 624.745 662.656C628.887 666.799 629.746 656.561 629.746 655.055C629.746 653.489 629.359 651.917 629.446 650.354C629.509 649.219 642.826 638.845 636.472 636.3ZM623.744 636.7C623.312 636.676 622.771 636.731 622.119 636.876C619.936 639.059 619.724 642.498 617.718 645.077C616.226 646.995 612.984 648.791 611.867 650.654C611.487 651.287 614.62 656.821 614.792 657.68C615.3 660.218 613.411 662.315 614.217 664.732C619.243 664.732 618.476 657.678 618.318 653.579C618.293 652.934 616.275 651.758 616.543 650.954C617.705 647.466 622.729 646.052 624.17 642.452C624.841 640.773 626.77 636.873 623.744 636.7ZM607.166 637.751C605.471 639.445 605.9 642.083 604.84 644.202C603.099 647.684 600.551 650.222 598.089 653.579C597.201 654.79 601.4 657.444 601.889 659.156C602.251 660.421 602.109 666.905 602.49 667.057C607.82 669.19 604.89 656.459 602.49 653.579C604.089 651.659 615.112 638.044 607.166 637.751ZM591.062 641.577C588.186 641.916 590.168 646.865 589.011 649.178C588.65 649.901 584.31 657.811 584.31 657.98C584.31 659.701 587.704 661.788 588.411 663.557C589.078 665.224 589.346 672.106 591.937 671.458C599.173 669.65 588.711 660.108 588.711 657.98C588.711 654.321 599.373 640.595 591.062 641.577ZM576.258 646.478C573.051 646.889 573.538 655.283 573.183 656.23C572.561 657.889 572.702 660.423 571.707 662.081C571.396 662.6 569.371 665.405 569.657 665.882C571.446 668.864 576.163 669.541 577.859 672.934C578.521 674.257 577.436 676.012 578.459 677.035C579.814 676.357 581.103 676.416 582.26 675.259C581.502 674.122 581.384 672.608 580.81 671.458C579.388 668.615 576.473 666.585 574.633 664.132C574.457 663.897 574.585 663.546 574.633 663.257C575.12 660.334 581.745 648.796 577.859 646.853C577.237 646.542 576.717 646.419 576.258 646.478ZM562.93 653.879C562.336 653.642 557.792 655.632 557.654 656.505C556.921 661.15 558.511 669.726 554.729 673.509C555.804 675.122 558.952 675.572 560.58 676.735C564.333 679.416 563.976 682.182 565.856 684.061C566.8 683.432 568.192 683.491 568.782 682.311C569.788 680.298 563.908 674.511 563.205 673.809C562.287 672.891 560.482 672.795 559.705 671.759C559.272 671.181 566.317 655.234 562.93 653.879ZM548.652 661.131C548.406 661.046 548.135 661.091 547.977 661.206C546.799 662.06 545.057 662.156 544.176 663.257C542.622 665.2 543.035 673.183 542.701 675.859C542.513 677.366 540.595 679.415 540.95 680.836C541.365 682.496 548.878 686.137 550.328 687.587C551.064 688.324 550.929 692.78 553.253 690.788C558.118 686.618 546.702 681.237 545.626 679.085C545.114 678.06 547.357 674.47 547.677 673.509C548.897 669.85 549.461 665.644 549.152 661.781C549.123 661.419 548.898 661.216 548.652 661.131ZM531.873 669.708C525.939 671.686 528.556 674.866 528.347 681.136C528.304 682.442 525.906 687.38 526.297 688.162C526.914 689.396 529.129 689.631 530.098 690.213C532.892 691.889 535.587 694.875 538.025 696.964C538.457 697.335 538.905 697.839 539.475 697.84C545.241 697.84 542.486 692.771 539.475 690.513C537.099 688.731 534.127 688.091 532.148 686.112C534.04 682.329 532.923 674.221 531.873 669.708ZM514.919 677.21C512.238 678.115 513.694 686.375 513.694 687.287C513.694 687.95 512.134 693.289 512.519 694.314C513.058 695.751 516.553 696.467 517.795 696.964C521.489 698.442 524.3 702.294 526.872 704.866C527.872 704.366 528.594 703.734 529.523 703.116C527.825 699.721 524.514 696.648 521.596 694.314C521.076 693.898 517.835 692.599 517.795 691.963C517.578 688.486 520.695 678.951 516.32 677.31C515.751 677.097 515.302 677.08 514.919 677.21ZM501.966 682.886C501.21 682.964 499.204 684.338 499.041 684.937C498.113 688.338 500.538 691.805 499.916 694.914C499.817 695.406 497.299 701.949 498.466 702.241C504.905 703.85 507.385 706.739 512.519 711.018C512.906 711.34 516.413 709.586 516.62 708.967C517.899 705.129 503.097 699.781 502.842 699.015C502.223 697.159 506.642 682.406 501.966 682.886ZM489.664 689.638C484.548 691.191 487.313 694.967 487.313 700.165C487.313 702.115 485.297 705.22 485.863 706.917C486.265 708.123 492.604 710.441 494.065 711.318C495.127 711.955 499.898 717.526 500.791 717.169C508.65 714.025 491.736 706.384 490.839 704.291C490.414 703.3 492.621 688.739 489.664 689.638ZM474.71 694.914C473.585 696.039 474.355 695.322 472.385 696.964C475.68 701.083 473.228 707.217 473.56 712.193C473.602 712.825 476.967 714.007 477.361 714.243C479.853 715.738 487.921 725.63 490.539 720.395C490.882 719.707 490.202 719.696 489.964 719.219C488.176 715.645 478.22 711.294 477.936 710.442C476.51 706.164 479.634 698.666 474.71 694.914ZM462.707 698.715C461.921 699.501 460.938 700.06 460.057 700.765C462.395 705.442 460.666 709.924 461.532 715.118C461.532 715.12 473.571 724.101 474.135 724.496C474.846 724.994 476.969 723.843 477.361 723.32C478.524 721.769 475.025 720.189 473.56 718.919C473.046 718.474 465.336 713.964 465.333 713.943C465.009 711.355 465.912 700.747 462.707 698.715ZM450.98 701.64C450.193 701.123 446.948 703.504 447.479 704.566C447.76 705.129 448.892 705.919 448.929 706.617C449.108 709.933 449.014 713.274 448.929 716.594C448.902 717.644 448.113 718.086 449.229 718.644C453.285 720.672 458.136 726.063 461.532 727.421C462.219 727.696 465.696 726.948 465.058 725.671C462.515 720.584 457.853 720.387 454.205 717.469C453.93 717.249 453.363 717.219 453.33 716.869C452.993 713.273 454.78 704.137 450.98 701.64Z" fill="#FFFFFF" fill-rule="nonzero" opacity="1" stroke="none" vectornator:layerName="path"/>
</g>
</svg>
