<?xml version="1.0" encoding="UTF-8" standalone="no"?>
<!DOCTYPE svg PUBLIC "-//W3C//DTD SVG 1.1//EN" "http://www.w3.org/Graphics/SVG/1.1/DTD/svg11.dtd">
<!-- Created with Vectornator (http://vectornator.io/) -->
<svg height="100%" stroke-miterlimit="10" style="fill-rule:nonzero;clip-rule:evenodd;stroke-linecap:round;stroke-linejoin:round;" version="1.1" viewBox="0 0 750 1000" width="100%" xml:space="preserve" xmlns="http://www.w3.org/2000/svg" xmlns:vectornator="http://vectornator.io" xmlns:xlink="http://www.w3.org/1999/xlink">
<defs/>
<g id="Layer-1" vectornator:layerName="Layer 1">
<path d="M303.427 200.473C297.262 200.893 291.379 201.524 285.775 202.364C280.171 203.205 274.708 204.255 269.384 205.516C264.061 206.777 258.667 208.318 253.203 210.139C247.74 211.96 243.327 213.571 239.965 214.972C236.602 216.373 231.419 218.965 224.414 222.748C217.41 226.53 211.526 230.102 206.763 233.465C201.999 236.827 197.376 240.469 192.893 244.392C188.41 248.315 184.278 252.307 180.495 256.37C176.713 260.433 173.07 264.705 169.568 269.188C166.066 273.671 162.773 278.294 159.691 283.058C156.609 287.821 153.667 292.864 150.866 298.188C148.064 303.511 145.472 309.045 143.09 314.789C140.709 320.532 138.607 326.276 136.786 332.02C134.965 337.764 133.354 343.718 131.953 349.882C130.552 356.046 129.361 362.63 128.381 369.635C127.4 376.64 126.7 384.485 126.279 393.17C125.859 401.856 125.789 409.491 126.069 416.076C126.349 422.66 126.98 429.595 127.96 436.879C128.941 444.164 130.202 451.169 131.743 457.893C133.284 464.618 135.245 471.552 137.627 478.697C140.008 485.842 142.95 493.197 146.453 500.762C149.955 508.327 152.897 514.141 155.278 518.203C157.66 522.266 160.882 527.099 164.945 532.703C169.008 538.307 173.771 543.98 179.234 549.724C184.698 555.468 188.761 559.461 191.422 561.702C194.084 563.944 198.427 567.096 204.451 571.158C210.475 575.221 216.289 578.653 221.893 581.455C227.496 584.257 233.24 586.709 239.124 588.81C245.008 590.911 250.822 592.663 256.566 594.064C262.309 595.464 268.964 596.655 276.529 597.636C284.094 598.617 291.168 599.177 297.753 599.317C304.337 599.457 307.629 621.242 307.629 664.67C307.629 708.099 307.279 732.615 306.579 738.219C305.878 743.823 304.687 748.656 303.006 752.719C301.325 756.781 299.224 760.004 296.702 762.385C294.18 764.767 290.678 766.728 286.195 768.269C281.712 769.81 275.828 770.791 268.543 771.211C261.259 771.631 257.616 776.534 257.616 785.921C257.616 790.614 257.616 795.307 257.616 800C288.086 800 318.557 800 349.027 800C379.497 800 409.967 800 440.437 800C440.437 795.307 440.437 790.614 440.437 785.921C440.437 776.534 436.935 771.701 429.93 771.421C422.926 771.141 417.462 770.51 413.54 769.53C409.617 768.549 406.535 767.428 404.293 766.168C402.052 764.907 400.301 763.646 399.04 762.385C397.779 761.124 396.308 758.953 394.627 755.871C392.946 752.789 391.755 749.847 391.055 747.045C390.354 744.243 389.794 740.951 389.374 737.168C388.953 733.386 388.743 716.365 388.743 686.105C388.743 670.975 388.743 655.844 388.743 640.714C393.016 640.714 397.289 640.714 401.562 640.714C410.107 640.714 414.52 640.855 414.8 641.135C415.081 641.415 426.008 659.767 447.582 696.191C469.156 732.615 485.127 759.023 495.494 775.414C505.861 791.805 529.887 800 567.572 800C586.414 800 605.257 800 624.099 800C624.099 795.307 624.099 790.614 624.099 785.921C624.099 781.228 624.099 776.534 624.099 771.841C622.558 771.911 621.017 771.981 619.476 772.051C616.394 772.192 612.401 771.701 607.498 770.581C602.595 769.46 598.462 768.059 595.1 766.378C591.738 764.697 588.515 762.595 585.433 760.074C582.351 757.552 578.639 752.929 574.296 746.204C569.953 739.48 563.579 727.852 555.173 711.321C546.768 694.79 539.693 681.481 533.949 671.395C528.205 661.308 523.162 653.253 518.819 647.229C514.476 641.205 510.694 636.652 507.472 633.57C504.25 630.488 501.238 628.316 498.436 627.055C497.035 626.425 495.634 625.795 494.233 625.164C494.443 624.954 494.653 624.744 494.863 624.534C495.284 624.113 498.366 622.853 504.11 620.751C509.853 618.65 515.107 616.408 519.87 614.027C524.633 611.645 529.256 608.983 533.739 606.042C538.222 603.1 542.005 600.298 545.087 597.636C548.169 594.974 551.041 592.172 553.702 589.23C556.364 586.288 558.886 583.066 561.267 579.564C563.649 576.062 565.61 572.769 567.151 569.687C568.692 566.605 570.163 563.033 571.564 558.97C572.965 554.908 574.156 550.144 575.137 544.681C576.117 539.217 576.678 533.684 576.818 528.08C576.958 522.476 576.748 517.153 576.187 512.109C575.627 507.066 574.856 502.513 573.876 498.45C572.895 494.388 571.774 490.675 570.514 487.313C569.253 483.951 567.291 479.888 564.63 475.125C561.968 470.362 559.236 466.229 556.434 462.727C553.632 459.224 550.41 455.792 546.768 452.43C543.125 449.068 538.783 445.705 533.739 442.343C528.696 438.981 524.353 436.389 520.711 434.568C517.068 432.747 512.515 430.785 507.051 428.684C501.588 426.583 494.233 424.411 484.987 422.17C475.741 419.928 466.425 418.247 457.038 417.126C447.652 416.006 436.795 415.375 424.467 415.235C412.139 415.095 400.581 415.235 389.794 415.655C379.007 416.076 354.56 417.617 316.455 420.278C278.35 422.94 259.017 424.341 258.457 424.481C257.896 424.621 257.616 429.384 257.616 438.771C257.616 448.157 260.768 452.99 267.072 453.27C273.377 453.55 278.7 454.251 283.043 455.372C287.386 456.492 291.098 458.174 294.18 460.415C297.262 462.657 299.714 465.458 301.535 468.821C303.357 472.183 304.617 475.335 305.318 478.277C306.018 481.219 306.579 484.861 306.999 489.204C307.419 493.547 307.629 506.786 307.629 528.92C307.629 539.988 307.629 551.055 307.629 562.122C304.687 561.212 301.745 560.301 298.804 559.391C292.92 557.569 287.946 555.608 283.884 553.507C279.821 551.405 275.758 548.884 271.696 545.942C267.633 543 263.92 539.918 260.558 536.696C257.196 533.473 254.394 530.531 252.153 527.87C249.911 525.208 246.479 520.235 241.856 512.95C237.233 505.665 233.59 499.011 230.929 492.987C228.267 486.963 226.165 481.639 224.624 477.016C223.083 472.393 221.122 464.478 218.74 453.27C216.359 442.063 214.748 431.276 213.907 420.909C213.067 410.542 212.716 400.946 212.857 392.12C212.997 383.294 213.417 375.379 214.117 368.374C214.818 361.369 216.149 353.104 218.11 343.578C220.071 334.051 222.593 324.945 225.675 316.26C228.757 307.574 231.349 301.129 233.45 296.927C235.552 292.724 238.073 288.311 241.015 283.688C243.957 279.065 247.109 274.722 250.471 270.659C253.834 266.597 257.266 262.954 260.768 259.732C264.271 256.51 267.843 253.638 271.485 251.116C275.128 248.595 278.28 246.633 280.942 245.232C283.603 243.832 287.036 242.361 291.239 240.82C295.441 239.279 299.504 238.088 303.427 237.247C307.349 236.407 310.852 235.846 313.934 235.566C317.016 235.286 320.798 235.216 325.281 235.356C329.764 235.496 334.457 236.056 339.36 237.037C344.264 238.018 348.607 239.208 352.389 240.609C356.172 242.01 359.954 243.761 363.737 245.863C367.519 247.964 371.302 250.486 375.084 253.428C378.867 256.37 382.439 259.592 385.801 263.094C389.163 266.597 392.315 270.379 395.257 274.442C398.199 278.505 401.001 282.987 403.663 287.891C406.325 292.794 408.566 297.487 410.387 301.97C412.209 306.453 413.82 311.006 415.221 315.629C416.622 320.252 417.812 325.015 418.793 329.919C419.774 334.822 424.046 337.273 431.612 337.273C435.394 337.273 439.177 337.273 442.959 337.273C442.259 316.049 441.558 294.825 440.858 273.601C439.457 231.153 435.744 209.929 429.72 209.929C423.696 209.929 420.334 210.77 419.634 212.451C418.933 214.132 418.163 215.393 417.322 216.233C416.481 217.074 414.94 217.634 412.699 217.914C410.457 218.195 403.873 216.583 392.946 213.081C382.019 209.579 373.263 207.057 366.678 205.516C360.094 203.975 352.879 202.714 345.034 201.734C337.189 200.753 329.834 200.193 322.97 200.053C316.105 199.912 309.591 200.053 303.427 200.473ZM244.377 238.718C244.588 238.788 244.798 238.858 245.008 238.928C243.397 240.749 241.786 242.571 240.175 244.392C236.953 248.034 233.24 253.148 229.037 259.732C224.835 266.316 221.122 272.901 217.9 279.485C214.678 286.07 212.016 292.094 209.915 297.557C207.813 303.021 205.992 308.274 204.451 313.318C202.91 318.361 201.299 324.595 199.618 332.02C197.937 339.445 196.536 347.22 195.415 355.345C194.294 363.471 193.524 371.246 193.103 378.671C192.683 386.096 192.543 393.871 192.683 401.996C192.823 410.122 193.174 417.266 193.734 423.431C194.294 429.595 195.275 436.879 196.676 445.285C198.077 453.691 199.618 461.256 201.299 467.98C202.98 474.704 204.871 481.289 206.973 487.733C209.074 494.177 211.596 500.972 214.538 508.117C217.48 515.261 220.772 522.336 224.414 529.341C228.057 536.345 231.839 542.72 235.762 548.463C237.723 551.335 239.684 554.207 241.646 557.079C241.436 557.149 241.225 557.219 241.015 557.289C240.595 557.429 236.882 555.958 229.878 552.876C222.873 549.794 215.939 545.872 209.074 541.108C202.21 536.345 196.045 531.232 190.582 525.768C185.118 520.305 180.145 514.421 175.662 508.117C171.179 501.812 166.976 494.528 163.054 486.262C159.131 477.997 156.119 470.292 154.018 463.147C151.916 456.002 150.165 447.877 148.764 438.771C147.363 429.665 146.523 420.419 146.242 411.032C145.962 401.646 146.242 392.33 147.083 383.084C147.924 373.838 149.114 365.642 150.655 358.498C152.196 351.353 154.438 343.648 157.38 335.382C160.322 327.117 163.474 319.762 166.836 313.318C170.198 306.873 174.331 300.219 179.234 293.354C184.138 286.49 189.811 279.765 196.256 273.181C202.7 266.597 209.284 260.783 216.009 255.739C222.733 250.696 229.037 246.563 234.921 243.341C240.805 240.119 243.957 238.578 244.377 238.718ZM388.743 443.604C394.837 443.744 400.931 443.884 407.025 444.024C419.213 444.304 427.269 444.865 431.191 445.705C435.114 446.546 439.247 447.877 443.589 449.698C447.932 451.519 451.715 453.55 454.937 455.792C458.159 458.033 461.381 460.905 464.603 464.408C467.825 467.91 470.697 471.903 473.219 476.386C475.741 480.869 477.562 484.721 478.683 487.943C479.803 491.165 480.924 495.859 482.045 502.023C483.166 508.187 483.796 514.351 483.936 520.515C484.076 526.679 483.726 533.754 482.885 541.739C482.045 549.724 480.924 556.168 479.523 561.072C478.122 565.975 476.091 570.948 473.429 575.992C470.767 581.035 468.036 585.098 465.234 588.18C462.432 591.262 459.21 594.064 455.567 596.585C451.925 599.107 447.932 601.278 443.589 603.1C439.247 604.921 433.223 606.602 425.517 608.143C417.812 609.684 409.757 610.595 401.351 610.875C397.149 611.015 392.946 611.155 388.743 611.295C388.743 607.933 388.743 604.571 388.743 601.208C388.743 597.846 388.743 594.484 388.743 591.122C391.475 591.122 394.207 591.122 396.939 591.122C402.402 591.122 407.586 591.612 412.489 592.593C417.392 593.573 420.404 594.344 421.525 594.904C422.646 595.464 423.416 595.675 423.836 595.535C424.257 595.394 426.358 589.441 430.141 577.673C433.923 565.905 437.425 554.067 440.647 542.159C443.87 530.251 446.531 519.394 448.633 509.588C450.734 499.781 452.345 490.745 453.466 482.48C454.026 478.347 454.587 474.214 455.147 470.081C451.295 470.151 447.442 470.222 443.589 470.292C435.884 470.432 430.841 473.584 428.459 479.748C426.078 485.912 422.996 492.566 419.213 499.711C415.431 506.856 411.508 513.3 407.445 519.044C403.383 524.788 399.25 529.761 395.047 533.964C392.946 536.065 390.844 538.167 388.743 540.268C388.743 524.157 388.743 508.047 388.743 491.936C388.743 475.825 388.743 459.715 388.743 443.604ZM366.258 445.285C367.169 445.285 368.079 445.285 368.99 445.285C368.99 499.711 368.99 554.137 368.99 608.563C368.99 662.989 368.99 717.415 368.99 771.841C362.055 771.841 355.121 771.841 348.186 771.841C341.252 771.841 334.317 771.841 327.382 771.841C327.382 717.836 327.382 663.83 327.382 609.824C327.382 501.812 333.406 447.386 345.454 446.546C357.502 445.705 364.437 445.285 366.258 445.285ZM476.581 447.807C479.733 448.507 482.885 449.208 486.038 449.908C492.342 451.309 498.576 453.34 504.74 456.002C510.904 458.664 516.228 461.536 520.711 464.618C525.194 467.7 528.836 470.642 531.638 473.444C534.44 476.246 537.031 479.328 539.413 482.69C541.795 486.052 544.036 490.185 546.137 495.088C548.239 499.991 549.78 504.965 550.76 510.008C551.741 515.051 552.301 519.744 552.442 524.087C552.582 528.43 552.231 533.263 551.391 538.587C550.55 543.91 549.219 548.814 547.398 553.297C545.577 557.78 543.265 562.052 540.464 566.115C537.662 570.178 534.79 573.68 531.848 576.622C528.906 579.564 525.684 582.366 522.182 585.028C518.679 587.689 514.126 590.561 508.522 593.643C502.919 596.725 497.805 599.177 493.182 600.998C488.559 602.819 484.426 604.22 480.784 605.201C478.963 605.691 477.142 606.182 475.32 606.672C477.072 604.851 478.823 603.03 480.574 601.208C484.076 597.566 487.298 593.083 490.24 587.759C493.182 582.436 495.564 576.902 497.385 571.158C499.206 565.415 500.677 558.41 501.798 550.144C502.919 541.879 503.339 532.633 503.059 522.406C502.779 512.179 501.798 502.933 500.117 494.668C498.436 486.402 496.755 480.098 495.074 475.755C493.392 471.412 491.851 467.98 490.45 465.458C489.05 462.937 487.438 460.415 485.617 457.893C483.796 455.372 481.835 453.06 479.733 450.959C478.683 449.908 477.632 448.857 476.581 447.807ZM476.371 631.678C477.352 631.819 479.103 632.799 481.625 634.62C484.146 636.442 487.579 639.594 491.921 644.077C496.264 648.56 500.397 653.393 504.32 658.576C508.242 663.76 513.566 671.885 520.29 682.952C527.015 694.02 532.338 703.826 536.261 712.372C540.183 720.918 543.966 728.623 547.608 735.487C551.251 742.352 554.683 748.236 557.905 753.139C561.127 758.042 564.419 762.455 567.782 766.378C569.463 768.339 571.144 770.3 572.825 772.262C562.949 772.192 553.072 772.122 543.195 772.051C523.442 771.911 513.426 771.701 513.146 771.421C512.865 771.141 505.791 758.813 491.921 734.437C478.052 710.06 466.845 690.938 458.299 677.069C449.754 663.199 443.8 653.883 440.437 649.12C437.075 644.357 435.394 641.835 435.394 641.555C435.394 641.275 439.597 640.364 448.002 638.823C456.408 637.282 462.992 635.671 467.755 633.99C472.519 632.309 475.391 631.538 476.371 631.678Z" fill="#FFFFFF" fill-rule="nonzero" opacity="1" stroke="none" vectornator:layerName="path"/>
</g>
</svg>
