<?xml version="1.0" encoding="UTF-8" standalone="no"?>
<!DOCTYPE svg PUBLIC "-//W3C//DTD SVG 1.1//EN" "http://www.w3.org/Graphics/SVG/1.1/DTD/svg11.dtd">
<!-- Created with Vectornator (http://vectornator.io/) -->
<svg height="100%" stroke-miterlimit="10" style="fill-rule:nonzero;clip-rule:evenodd;stroke-linecap:round;stroke-linejoin:round;" version="1.1" viewBox="0 0 750 1000" width="100%" xml:space="preserve" xmlns="http://www.w3.org/2000/svg" xmlns:vectornator="http://vectornator.io" xmlns:xlink="http://www.w3.org/1999/xlink">
<defs/>
<g id="Layer-1" vectornator:layerName="Layer 1">
<path d="M169.361 200C170.825 203.696 172.273 207.393 173.737 211.089C176.666 218.48 179.468 224.407 182.118 228.87C184.768 233.333 188.121 238.001 192.166 242.882C196.211 247.764 202.137 253.976 209.947 261.507C217.757 269.039 223.893 274.412 228.356 277.62C232.819 280.828 237.83 283.896 243.409 286.825C248.988 289.753 260.078 294.289 276.675 300.425C284.973 303.494 293.262 306.561 301.56 309.63C300.584 310.676 299.612 311.724 298.636 312.77C296.683 314.862 292.301 318.901 285.467 324.899C278.633 330.896 272.707 336.745 267.686 342.464C262.665 348.182 259.445 352.584 258.05 355.652C256.655 358.721 255.131 363.885 253.457 371.137C251.784 378.389 250.24 383.191 248.845 385.562C247.451 387.933 245.983 389.743 244.449 390.998C242.915 392.254 241.105 393.378 239.013 394.354C236.921 395.331 232.462 396.512 225.628 397.907C218.794 399.301 214.545 400.273 212.871 400.831C211.198 401.389 209.025 402.437 206.375 403.971C203.725 405.505 201.286 407.182 199.055 408.995C196.823 410.808 194.041 413.457 190.694 416.944C187.347 420.43 184.412 423.784 181.902 426.992C179.391 430.2 177.658 432.905 176.681 435.137C175.705 437.368 175.133 439.331 174.993 441.005C174.854 442.678 174.93 443.993 175.209 444.969C175.488 445.945 176.194 447.07 177.309 448.325C178.425 449.58 179.606 450.343 180.862 450.621C182.117 450.9 184.689 450.481 188.594 449.365C192.499 448.25 198.578 445.887 206.807 442.261C215.036 438.635 220.466 436.539 223.116 435.981C225.766 435.423 230.015 435.004 235.873 434.725C238.802 434.585 241.736 434.452 244.665 434.312C244.735 438.636 244.811 442.962 244.881 447.285C245.02 455.932 240.961 461.363 232.733 463.594C224.504 465.826 218.578 467.845 214.952 469.659C211.325 471.472 207.781 473.568 204.295 475.939C200.808 478.31 197.531 480.882 194.462 483.671C191.394 486.461 188.745 489.319 186.514 492.248C184.282 495.177 182.472 498.055 181.077 500.844C179.683 503.633 178.558 506.548 177.721 509.617C176.885 512.685 176.465 514.705 176.465 515.681C176.465 516.657 176.808 517.649 177.506 518.625C178.203 519.601 179.194 520.363 180.449 520.921C181.705 521.479 183.229 521.745 185.042 521.745C186.855 521.745 192.515 519.383 201.999 514.641C211.482 509.899 217.961 507.174 221.448 506.477C224.934 505.779 229.736 505.227 235.873 504.808C238.941 504.599 242.009 504.389 245.077 504.18C245.147 517.081 245.223 529.982 245.293 542.882C245.433 568.684 245.299 584.862 244.881 591.417C244.463 597.972 243.757 603.003 242.781 606.49C241.805 609.976 240.414 613.52 238.601 617.146C236.788 620.773 232.595 626.432 226.04 634.103C219.485 641.774 216.074 646.442 215.795 648.116C215.517 649.789 215.593 651.39 216.011 652.924C216.43 654.458 219.421 654.878 225 654.18C230.579 653.483 234.618 652.568 237.129 651.452C239.639 650.336 243.698 647.841 249.277 643.936C254.856 640.031 260.42 635.419 265.998 630.119C271.577 624.819 275.693 620.36 278.343 616.734C280.993 613.108 283.089 609.831 284.623 606.902C286.157 603.973 288.387 597.761 291.316 588.277C294.244 578.793 301.142 574.201 312.021 574.48C317.46 574.619 322.91 574.753 328.349 574.892C328.21 578.658 328.077 582.431 327.937 586.197C327.658 593.728 327.03 599.864 326.053 604.606C325.077 609.347 322.848 614.854 319.361 621.13C315.874 627.406 312.863 632.075 310.353 635.143C307.842 638.212 305.06 640.441 301.992 641.836C298.924 643.23 294.465 644.202 288.607 644.76C282.75 645.318 278.348 645.947 275.419 646.644C272.49 647.341 268.374 648.599 263.074 650.412C257.774 652.225 252.896 654.112 248.433 656.064C243.97 658.017 239.225 660.532 234.205 663.601C229.184 666.669 225.277 669.318 222.488 671.549C219.699 673.781 216.288 676.905 212.243 680.95C208.199 684.994 204.712 688.901 201.783 692.666C198.854 696.432 196.415 699.863 194.462 702.931C192.51 705.999 190.28 710.039 187.77 715.06C185.259 720.08 183.24 724.463 181.705 728.228C180.171 731.994 178.494 736.948 176.681 743.085C174.868 749.222 173.324 756.349 172.069 764.438C170.814 772.527 170.185 778.377 170.185 782.003C170.185 785.629 170.604 789.536 171.441 793.72C171.86 795.812 172.279 797.908 172.697 800C175.208 794.979 177.723 789.948 180.234 784.927C185.254 774.886 189.58 767.149 193.206 761.71C196.832 756.271 201.082 750.554 205.963 744.557C210.844 738.56 214.884 734.101 218.092 731.172C221.299 728.243 225.206 725.099 229.808 721.752C234.411 718.405 240.071 715.127 246.765 711.919C253.459 708.712 260.148 706.273 266.842 704.599C273.537 702.925 280.225 701.668 286.919 700.831C293.614 699.994 300.951 699.708 308.9 699.987C316.85 700.266 325.062 701.104 333.57 702.499C342.078 703.894 350.253 705.704 358.063 707.935C365.873 710.167 373.743 713.045 381.692 716.531C389.642 720.018 396.407 723.486 401.985 726.972C407.564 730.459 414.958 735.566 424.163 742.261C433.368 748.955 441.942 747.125 449.892 736.805C457.842 726.484 464.264 719.034 469.145 714.432C474.026 709.829 480.162 704.875 487.554 699.575C494.946 694.275 502.473 689.53 510.143 685.346C517.814 681.162 523.873 678.171 528.336 676.357C532.799 674.544 542.632 671.61 557.834 667.565C565.435 665.543 573.038 663.523 580.639 661.501C577.989 657.875 575.341 654.254 572.691 650.628C567.391 643.376 563.561 637.24 561.19 632.219C558.819 627.198 557.275 622.796 556.578 619.03C555.881 615.265 555.405 607.605 555.126 596.029C554.847 584.453 554.637 549.639 554.498 491.62C554.358 433.601 554.435 396.367 554.713 379.91C554.992 363.452 555.468 353.83 556.166 351.04C556.863 348.251 557.702 345.812 558.678 343.72C559.654 341.628 562.798 337.379 568.098 330.963C570.748 327.755 573.397 324.554 576.047 321.346C573.466 320.021 570.875 318.687 568.295 317.362C563.134 314.712 558.542 312.14 554.498 309.63C550.453 307.119 546.261 304.108 541.937 300.621C537.614 297.135 532.869 292.886 527.708 287.865C522.548 282.844 517.251 276.918 511.811 270.084C506.372 263.25 500.522 254.751 494.246 244.57C487.97 234.389 476.88 232.559 460.981 239.114C445.081 245.669 434.144 249.938 428.147 251.891C422.15 253.843 416.07 255.577 409.934 257.111C403.797 258.645 396.956 260.036 389.425 261.291C381.894 262.547 375.205 263.461 369.348 264.019C363.49 264.577 355.125 264.92 344.246 265.06C333.368 265.199 325.632 265.142 321.029 264.863C316.427 264.584 311.396 264.089 305.956 263.391C300.517 262.694 294.381 261.569 287.547 260.035C280.713 258.501 272.005 255.929 261.406 252.303C250.806 248.677 242.288 245.266 235.873 242.058C229.457 238.85 223.741 235.706 218.72 232.638C213.699 229.569 205.41 223.51 193.834 214.445C182.258 205.379 175.284 200.691 172.913 200.412C171.728 200.273 170.546 200.139 169.361 200ZM457.33 303.977C458.167 303.768 458.881 303.768 459.509 303.977C460.764 304.396 465.299 308.093 473.109 315.066C480.92 322.039 485.798 327.337 487.75 330.963C489.703 334.589 490.827 338.209 491.106 341.836C491.385 345.462 491.176 349.787 490.478 354.808C489.781 359.829 489.438 369.376 489.438 383.462C489.438 397.548 487.418 405.228 483.374 406.483C479.329 407.738 474.641 408.863 469.341 409.839C464.041 410.815 459.163 411.501 454.7 411.919C450.237 412.338 444.597 412.547 437.763 412.547C430.929 412.547 423.745 412.128 416.214 411.291C408.683 410.455 400.737 409.064 392.369 407.111C384.001 405.159 379.808 400.147 379.808 392.058C379.808 383.969 380.304 375.527 381.28 366.741C382.257 357.954 383.571 350.827 385.245 345.388C386.918 339.949 389.224 334.728 392.153 329.707C395.082 324.686 397.388 321.409 399.061 319.874C400.735 318.34 402.202 317.292 403.457 316.734C404.713 316.176 411.324 314.919 423.319 312.966C435.313 311.014 442.993 309.546 446.34 308.57C449.687 307.594 452.412 306.489 454.504 305.234C455.55 304.606 456.493 304.187 457.33 303.977ZM342.421 316.401C344.26 316.313 346.265 316.344 348.427 316.518C357.074 317.216 363.419 317.578 367.464 317.578C371.508 317.578 374.157 317.635 375.412 317.774C376.667 317.914 377.296 318.124 377.296 318.402C377.296 318.681 373.333 322.588 365.383 330.119C357.434 337.65 352.136 343.367 349.486 347.272C346.837 351.177 344.588 354.112 342.774 356.064C340.961 358.017 337.055 358.093 331.058 356.28C325.061 354.467 319.707 353.343 314.965 352.924C310.223 352.506 307.841 351.82 307.841 350.844C307.841 349.868 309.384 347.066 312.453 342.464C315.521 337.861 318.379 333.955 321.029 330.747C323.679 327.539 326.747 324.205 330.234 320.718C332.849 318.103 336.903 316.662 342.421 316.401ZM310.353 371.961C315.373 371.961 319.356 372.247 322.285 372.805C325.214 373.363 327.653 374.049 329.606 374.886C331.558 375.722 331.977 378.524 330.862 383.266C329.746 388.008 329.117 417.372 328.977 471.346C328.838 525.321 327.447 552.569 324.797 553.127C322.147 553.685 316.85 553.971 308.9 553.971C300.951 553.971 296.835 553.761 296.556 553.343C296.277 552.925 296.2 524.971 296.34 469.462C296.479 413.954 297.032 383.961 298.008 379.498C298.984 375.035 300.032 372.672 301.148 372.393C302.264 372.114 305.332 371.961 310.353 371.961ZM379.808 428.444C382.528 429.281 385.253 430.12 387.973 430.956C393.412 432.63 400.443 433.964 409.09 434.94C417.737 435.917 427.932 436.26 439.647 435.981C451.363 435.702 460.433 435.073 466.849 434.097C473.264 433.12 477.723 432.225 480.234 431.388C482.744 430.551 484.84 430.132 486.514 430.132C487.351 430.132 488.169 430.132 489.006 430.132C489.076 441.638 489.152 453.128 489.222 464.634C489.292 476.14 489.368 487.65 489.438 499.156C488.532 499.156 487.617 499.156 486.71 499.156C484.897 499.156 482.382 498.604 479.174 497.488C475.966 496.372 472.079 495.457 467.477 494.76C462.874 494.062 455.747 493.51 446.124 493.092C436.501 492.673 427.849 492.807 420.179 493.504C412.508 494.201 403.876 495.612 394.253 497.704C389.441 498.75 384.62 499.798 379.808 500.844C379.808 488.78 379.808 476.698 379.808 464.634C379.808 452.57 379.808 440.508 379.808 428.444ZM425.988 517.212C430.416 517.107 435.032 517.16 439.844 517.369C449.467 517.787 457.852 518.549 464.965 519.665C472.078 520.781 477.927 521.886 482.53 523.001C487.132 524.117 489.781 533.607 490.478 551.459C491.176 569.311 491.518 583.05 491.518 592.673C491.518 602.296 491.099 610.871 490.262 618.402C489.426 625.934 488.187 630.183 486.514 631.159C484.84 632.136 482.248 632.841 478.762 633.259C475.275 633.678 471.026 635.145 466.005 637.655C460.984 640.166 454.848 643.786 447.596 648.528C440.343 653.27 435.179 657.386 432.111 660.873C429.043 664.359 426.89 666.379 425.635 666.937C424.379 667.495 421.368 667.285 416.626 666.309C411.884 665.333 405.825 663.027 398.433 659.401C391.041 655.775 384.753 653.069 379.592 651.256C374.432 649.443 368.792 647.899 362.655 646.644C356.519 645.389 349.678 644.284 342.146 643.308C338.381 642.819 334.627 642.324 330.862 641.836C332.744 640.232 334.631 638.631 336.514 637.027C340.279 633.82 344.738 629.418 349.899 623.839C355.059 618.26 358.889 613.668 361.399 610.042C363.91 606.416 366.425 602.09 368.936 597.069C371.446 592.048 373.752 585.779 375.844 578.248C377.936 570.717 379.041 560.046 379.18 546.238C379.32 532.431 383.017 524.465 390.269 522.373C397.521 520.281 405.201 518.834 413.29 517.997C417.335 517.578 421.56 517.316 425.988 517.212Z" fill="#FFFFFF" fill-rule="nonzero" opacity="1" stroke="none" vectornator:layerName="path"/>
</g>
</svg>
