<?xml version="1.0" encoding="UTF-8" standalone="no"?>
<!DOCTYPE svg PUBLIC "-//W3C//DTD SVG 1.1//EN" "http://www.w3.org/Graphics/SVG/1.1/DTD/svg11.dtd">
<!-- Created with Vectornator (http://vectornator.io/) -->
<svg height="100%" stroke-miterlimit="10" style="fill-rule:nonzero;clip-rule:evenodd;stroke-linecap:round;stroke-linejoin:round;" version="1.1" viewBox="0 0 750 1000" width="100%" xml:space="preserve" xmlns="http://www.w3.org/2000/svg" xmlns:vectornator="http://vectornator.io" xmlns:xlink="http://www.w3.org/1999/xlink">
<defs/>
<g id="Layer-1" vectornator:layerName="Layer 1">
<path d="" fill="none" opacity="1" stroke="#f5c81a" stroke-linecap="butt" stroke-linejoin="round" stroke-width="1" vectornator:layerName="path"/>
<path d="M367.801 199.073C358.593 241.317 343.057 280.99 329.958 320.287C327.107 328.843 324.171 337.449 321.696 346.112C321.687 346.146 321.649 346.357 321.638 346.401C320.359 346.364 320.548 346.382 319.154 346.343C319.072 346.342 319.004 346.343 318.923 346.343C279.933 346.526 240.913 346.682 201.927 346.863C201.394 346.865 200.165 346.867 199.096 346.863C198.086 346.862 197.016 346.863 197.016 346.863C196.491 346.869 195.912 346.98 195.398 347.094C193.694 347.472 192.375 348.17 191.181 349.29C190.034 350.364 188.585 352.248 188.465 355.125C188.097 363.954 188.465 372.508 188.465 380.72C188.465 381.086 188.465 381.452 188.465 381.818C188.465 390.496 187.916 399.619 188.465 409.146C188.48 409.397 188.549 409.602 188.581 409.839C151.67 410.098 114.737 409.841 77.8248 409.839C76.8256 412.797 75.9935 415.835 75.1094 418.852C116.029 449.519 157.659 479.493 199.269 509.213C209.194 516.303 218.985 523.501 228.908 530.59C229.317 530.882 230.532 531.649 231.335 532.15C231.331 534.513 231.277 537.106 231.277 539.43C231.277 566.511 231.547 593.464 231.277 620.373C229.471 620.884 227.843 621.251 226.135 621.933C217.815 625.261 208.968 628.176 200.136 631.12C199.77 631.241 197.927 631.843 196.034 632.622C195.054 633.025 193.983 633.489 192.798 634.239C192.198 634.62 191.55 635.076 190.718 635.973C189.981 636.766 188.524 638.473 188.465 641.404C188.105 659.256 188.105 677.108 188.465 694.962C188.523 697.801 189.829 699.584 190.95 700.739C192.103 701.924 193.715 703.129 196.265 703.397C199.495 703.737 202.884 703.758 206.202 703.975C204.782 707.576 203.035 711.336 202.505 712.93C197.997 726.452 193.832 740.042 189.332 753.546C188.117 757.187 187.494 761.661 185.345 764.812C187.729 766.706 190.122 768.43 192.567 770.243C216.808 750.102 243.878 732.347 269.524 714.028C271.253 712.792 277.004 708.313 282.582 704.09C284.919 704.063 287.528 703.975 289.804 703.975C309.898 703.975 328.215 704.135 351.566 703.455C354.57 703.368 356.4 701.919 357.517 700.739C358.667 699.525 359.871 697.756 359.943 695.019C360.308 681.395 359.945 667.978 359.943 654.75C359.943 652.918 359.897 650.502 359.943 648.394C366.399 643.737 373.455 638.696 374.965 637.186C376.501 637.953 383.623 643.37 390.218 648.279C389.434 664.131 390.1 679.78 390.507 695.019C390.581 697.765 391.794 699.534 392.933 700.739C394.061 701.935 395.899 703.395 398.942 703.455C417.487 703.819 435.835 703.279 453.944 703.455C456.076 703.475 457.897 703.442 460.011 703.455C462.819 703.473 465.638 703.432 468.446 703.455C485.795 715.106 502.49 729.219 518.826 741.471C530.516 750.238 546.579 758.242 556.496 769.261C559.048 767.369 561.459 765.362 563.949 763.426C561.97 760.039 561.214 755.509 560.02 751.928C555.398 738.064 550.903 724.058 546.27 710.157C545.741 708.574 545.237 706.344 544.71 704.148C546.263 704.305 547.546 704.509 549.794 704.495C551.558 704.483 553.745 704.386 556.323 703.166C557.63 702.546 559.105 701.509 560.251 699.873C561.403 698.225 561.989 696.261 562.042 694.499C562.579 676.965 562.579 659.4 562.042 641.866C561.907 637.464 558.891 635.187 557.536 634.297C555.915 633.234 554.469 632.682 553.203 632.275C550.849 631.519 548.696 631.12 548.696 631.12C540.373 628.344 531.902 624.829 522.871 621.818C521.856 621.479 520.474 621.11 519.173 620.72C518.892 593.154 519.173 565.552 519.173 537.812C519.173 536.105 519.175 534.376 519.173 532.67C528.434 526.025 537.568 519.132 546.847 512.506C579.564 489.137 612.446 465.793 644.604 441.673C651.836 436.249 659.326 431.15 666.559 425.727C667.576 424.963 673.029 419.85 675.109 419.141C674.054 415.989 672.729 412.952 671.585 409.839C634.997 410.169 598.459 410.134 561.869 409.839C561.908 409.537 562.031 409.299 562.042 408.972C562.582 391.336 562.22 373.792 562.042 356.454C562.02 354.31 561.185 352.829 560.714 352.063C560.22 351.264 559.963 350.965 559.963 350.965C559.962 350.965 560.153 351.142 559.443 350.214C558.87 349.466 556.724 346.898 552.914 346.863C512.556 346.499 472.33 346.863 432.105 346.863C430.929 346.863 429.646 346.871 428.465 346.863C425.625 338.42 422.422 329.957 419.972 321.384C410.848 289.449 398.359 258.334 389.236 226.401C387.87 221.62 381.28 206.179 381.378 199.478C376.856 199.391 372.228 199.001 367.801 199.073ZM318.98 353.796C351.745 354.711 352.421 354.954 352.432 355.472C352.791 373.224 352.97 390.994 352.432 408.741C352.381 410.464 346.92 411.605 345.846 412.034C337.38 415.421 328.484 417.951 320.02 421.336C318.353 422.004 309.672 423.697 309.621 425.727C309.086 446.77 309.262 467.887 309.621 488.934C309.63 489.451 310.201 489.97 310.718 489.974C353.731 490.338 396.776 490.338 439.789 489.974C440.307 489.97 440.82 489.451 440.829 488.934C441.19 467.887 441.365 446.77 440.829 425.727C440.781 423.801 434.558 422.48 433.145 421.914C424.477 418.447 415.498 416.01 406.857 412.554C405.304 411.931 398.086 410.973 398.017 408.741C397.485 390.994 397.659 373.224 398.017 355.472C398.029 354.954 398.597 354.393 399.115 354.374C410.092 354.01 421.121 354.374 432.105 354.374C472.374 354.374 512.647 354.012 552.914 354.374C553.432 354.38 553.643 355.058 553.954 355.472C554.2 355.799 554.528 356.103 554.532 356.512C554.711 373.9 555.064 391.36 554.532 408.741C554.474 410.614 548.321 412.062 546.847 412.554C538.171 415.446 529.696 419.022 521.022 421.914C519.528 422.413 511.746 423.841 511.72 425.727C511.178 463.064 511.72 500.471 511.72 537.812C511.72 566.916 511.354 596.009 511.72 625.111C511.74 626.804 519.203 628.51 520.444 628.924C529.122 631.817 537.591 635.333 546.27 638.226C547.732 638.712 554.46 639.705 554.532 642.097C555.064 659.478 555.064 676.886 554.532 694.268C554.402 698.539 546.151 696.464 541.879 696.464C514.605 696.464 487.342 696.121 460.068 695.944C457.844 695.929 455.999 695.962 454.002 695.944C435.699 695.766 417.417 696.302 399.115 695.944C398.597 695.935 398.032 695.306 398.017 694.788C397.544 677.04 396.544 659.212 398.017 641.519C398.128 640.197 403.511 638.59 404.604 638.226C413.408 635.29 422.321 632.376 430.95 628.924C432.261 628.399 440.803 626.616 440.829 625.111C441.19 603.881 440.472 582.614 440.829 561.384C440.663 561.15 440.574 560.866 440.309 560.864C406.265 560.502 372.208 560.864 338.162 560.864C337.796 560.864 337.43 560.864 337.064 560.864C328.279 560.864 319.497 560.513 310.718 560.864C310.201 560.885 309.637 561.387 309.621 561.904C309.255 574.345 309.621 586.839 309.621 599.285C309.621 608.359 306.217 618.348 310.141 626.497C310.287 626.453 310.615 626.151 310.718 626.151C317.539 626.151 335.524 634.894 342.553 637.706C344.146 638.344 352.273 639.6 352.432 641.519C352.798 645.897 352.432 650.357 352.432 654.75C352.432 668.113 352.789 681.431 352.432 694.788C352.42 695.306 351.852 695.929 351.335 695.944C328.138 696.619 309.945 696.464 289.804 696.464C260.341 696.464 226.133 699.009 197.016 695.944C196.502 695.89 195.987 695.306 195.976 694.788C195.617 677.036 195.617 659.27 195.976 641.519C196.002 640.262 201.484 638.564 202.505 638.226C211.314 635.288 220.293 632.37 228.908 628.924C230.315 628.36 238.769 626.551 238.788 625.111C239.15 596.558 238.788 567.985 238.788 539.43C238.788 502.607 239.416 459.873 238.788 425.727C238.753 423.793 231.153 421.911 229.428 421.336C221.145 418.576 212.779 415.786 204.7 412.554C203.092 411.911 196.107 411.013 195.976 408.741C195.46 399.787 195.976 390.786 195.976 381.818C195.976 381.452 195.976 381.086 195.976 380.72C195.976 372.299 195.627 363.886 195.976 355.472C195.998 354.956 196.511 354.487 197.016 354.374C197.105 354.356 200.783 354.38 201.985 354.374C240.973 354.193 279.992 353.979 318.98 353.796Z" fill="#002d62" fill-rule="nonzero" opacity="1" stroke="none"/>
</g>
</svg>
