<?xml version="1.0" encoding="UTF-8" standalone="no"?>
<!DOCTYPE svg PUBLIC "-//W3C//DTD SVG 1.1//EN" "http://www.w3.org/Graphics/SVG/1.1/DTD/svg11.dtd">
<!-- Created with Vectornator (http://vectornator.io/) -->
<svg height="100%" stroke-miterlimit="10" style="fill-rule:nonzero;clip-rule:evenodd;stroke-linecap:round;stroke-linejoin:round;" version="1.1" viewBox="0 0 750 1000" width="100%" xml:space="preserve" xmlns="http://www.w3.org/2000/svg" xmlns:vectornator="http://vectornator.io" xmlns:xlink="http://www.w3.org/1999/xlink">
<defs/>
<g id="Layer-1" vectornator:layerName="Layer 1">
<path d="M373.258 200.021C279.547 201.13 196.989 241.312 138.305 316.762C122.828 336.662 108.716 359.574 99.704 382.103C90.3072 405.595 83.1187 429.699 79.1995 455.174C64.72 549.291 95.5623 640.811 159.976 708.528C176.956 726.379 198.194 745.747 220.577 756.938C225.899 759.599 230.699 763.891 236.316 766.138C242.014 768.417 247.156 771.969 252.664 774.173C266.459 779.691 281.181 785.59 296.309 789.912C326.127 798.432 358.825 800 389.885 800C400.116 800 411.734 798.935 421.668 796.452C426.406 795.267 431.678 795.145 436.521 794.069C453.909 790.205 472.701 785.61 488.479 777.721C497.048 773.437 506.002 770.151 514.027 766.138C532.785 756.759 551.604 743.049 568.089 729.311C661.459 651.503 697.741 520.671 658.978 404.382C638.94 344.268 597.741 290.811 545.506 253.5C524.246 238.314 502.213 227.976 478.391 218.447C445.885 205.445 408.429 199.604 373.258 200.021ZM382.585 213.935C414.832 214.606 447.483 220.804 477.2 232.691C559.21 265.495 625.762 335.217 650.361 421.313C661.209 459.281 664.409 500.133 658.395 539.22C656.337 552.599 654.348 566.444 650.057 579.317C646.317 590.535 643.42 602.727 638.195 613.178C635.03 619.508 631.546 626.049 628.969 632.491C626.524 638.605 622.258 644.378 618.882 650.005C610.188 664.494 599.864 678.114 588.594 690.71C538.559 746.631 460.569 786.339 384.537 786.339C353.054 786.339 323.039 782.744 293.04 774.173C285.247 771.946 276.194 769.742 268.987 766.138C263.754 763.522 257.77 761.569 252.664 759.016C247.343 756.356 241.713 752.679 236.012 750.399C231.015 748.4 226.375 744.546 221.768 741.781C207.041 732.946 192.293 721.836 180.176 709.719C111.356 640.899 75.0933 551.881 93.1649 452.488C97.0054 431.365 101.674 408.147 111.287 388.921C122.535 366.424 133.827 344.342 150.192 323.301C204.244 253.806 282.54 216.427 368.797 213.986C373.377 213.857 377.979 213.84 382.585 213.935ZM376.35 225.341C371.284 225.282 366.191 225.351 361.067 225.569C345.07 226.25 329.511 228.628 313.848 232.108C277.61 240.161 244.576 255.87 214.646 277.249C187.116 296.913 161.481 322.305 143.957 351.511C114.086 401.296 100.287 449.366 100.287 509.236C100.287 583.37 137.771 656.137 192.063 705.258C205.306 717.24 219.862 727.58 235.125 736.738C239.106 739.126 243.298 742.131 247.62 743.86C260.464 748.997 272.152 755.619 285.917 760.208C319.909 771.538 355.993 776.7 391.963 774.756C465.29 770.792 534.971 735.365 582.942 680.014C594.501 666.676 605.972 651.772 613.838 636.04C615.701 632.313 619.337 628.618 620.377 624.457C621.443 620.191 624.542 616.123 626.308 611.708C630.172 602.048 634.022 592.442 637.308 582.586C647.466 552.11 649.778 519.774 649.778 487.845C649.778 460.025 642.105 432.486 633.43 406.46C630.917 398.921 628.033 390.14 623.925 383.294C619.733 376.307 616.277 368.24 611.76 360.711C603.545 347.021 594.24 333.952 583.829 321.806C541.827 272.804 484.699 239.952 421.668 229.447C406.55 226.927 391.549 225.517 376.35 225.341ZM372.042 241.714C378.327 241.418 384.766 242.355 391.076 242.5C392.913 242.542 392.652 257.519 391.076 257.656C389.005 257.837 386.904 257.914 384.841 257.656C382.8 257.401 383.777 252.741 381.85 252.613C377.701 252.336 373.529 252.336 369.38 252.613C369.233 252.623 368.2 253.66 368.189 254.083C368.095 257.844 368.095 261.6 368.189 265.362C368.2 265.783 369.233 266.849 369.38 266.857C374.422 267.137 379.488 266.762 384.537 266.857C384.758 266.861 384.96 267.008 385.12 267.161C387.009 268.971 391.901 271.855 391.963 275.474C392.059 281.018 391.963 286.557 391.963 292.101C391.963 292.51 391.886 293.932 391.659 294.179C389.435 296.605 387.828 300.985 384.537 301.023C376.023 301.119 367.501 301.216 358.989 301.023C358.709 301.016 358.417 300.694 358.406 300.414C358.216 295.765 358.216 291.124 358.406 286.474C358.503 284.092 363.152 285.668 365.528 285.866C367.187 286.004 366.842 291.153 368.189 291.214C372.343 291.403 376.549 291.654 380.684 291.214C381.381 291.14 382.075 290.414 382.154 289.719C382.59 285.882 382.59 281.972 382.154 278.136C382.075 277.44 381.382 276.728 380.684 276.666C375.655 276.217 370.337 278.205 365.528 276.666C362.327 275.641 359.272 272.79 358.406 269.544C356.722 263.23 358.31 256.46 358.406 249.926C358.447 247.096 362.608 243.2 365.832 242.5C367.888 242.054 369.946 241.813 372.042 241.714ZM317.701 248.456C318.602 248.757 320.63 254.922 320.083 255.578C319.187 256.654 318.108 257.554 317.118 258.544C321.268 266.845 322.795 277.045 325.735 285.866C326.885 289.315 329.588 294.433 329.588 298.057C329.588 299.025 328.508 300.47 328.092 301.301C324.659 308.168 323.103 308.086 315.622 310.223C312.819 311.024 308.439 313.53 305.535 312.884C303.568 312.447 298.322 309.612 297.222 308.145C295.743 306.174 295.212 302.203 294.535 299.831C292.655 293.252 290.465 286.709 288.3 280.214C287.249 277.06 286.919 272.316 285.335 269.544C284.073 267.335 282.502 269.269 280.874 268.048C279.844 267.276 277.991 262.177 278.491 260.926C279.056 259.514 282.588 259.265 283.839 258.848C286.03 258.118 292.708 254.726 294.839 255.578C295.606 255.885 297.767 262.045 297.222 262.7C296.325 263.776 295.221 264.676 294.231 265.666C298.282 273.767 300.357 284.268 302.848 292.988C303.343 294.721 304.53 301.741 306.422 302.214C308.413 302.712 315.923 300.29 317.701 299.223C320.154 297.751 317.225 291.864 316.51 289.719C313.665 281.185 311.783 269.594 307.892 261.813C307.265 260.559 305.701 261.301 304.648 261.205C303.048 261.059 300.756 255.024 301.378 253.779C301.673 253.188 316.808 248.159 317.701 248.456ZM434.113 248.938C436.311 249.128 440.219 250.77 441.26 251.117C448.154 253.415 455.158 255.361 462.044 257.656C463.645 258.19 469.831 258.968 470.382 260.622C470.615 261.32 466.737 272.164 466.226 273.7C466.064 274.184 466.016 275.638 465.313 275.779C464.61 275.919 458.558 274.124 458.495 273.396C458.315 271.325 458.675 269.232 458.495 267.161C458.419 266.281 454.348 265.052 453.73 265.362C451.633 266.41 450.62 274.44 449.878 276.666C447.876 282.67 446.223 288.797 444.226 294.788C443.526 296.887 441.868 299.998 441.868 302.214C441.868 303.357 444.435 304.183 444.834 305.179C445.501 306.848 443.034 310.175 443.034 311.997C441.154 312.624 429.109 308.799 426.712 307.841C426.452 307.737 426.15 307.534 426.104 307.258C425.872 305.866 427.627 300.911 428.79 300.136C429.988 299.337 431.768 300.11 432.643 298.944C434.086 297.019 434.273 293.776 435.025 291.518C437.182 285.047 439.378 278.488 441.26 271.901C441.684 270.417 444.668 263.902 443.947 262.7C443.051 261.208 440.882 261.32 439.486 260.622C435.841 264.996 436.771 266.769 430.869 265.083C429.989 264.831 428.58 265.011 428.207 263.891C428.203 263.879 432.237 250.155 432.643 249.343C432.823 248.983 433.38 248.874 434.113 248.938ZM238.42 282.52C241.042 282.552 244.802 283.656 245.821 284.675C252.516 291.37 257.244 301.322 262.752 309.032C265.145 312.382 270.071 317.249 271.065 321.223C271.408 322.597 270.404 329.717 269.595 330.728C268.412 332.207 254.833 341.993 253.247 342.311C252.358 342.488 244.636 341.1 244.047 340.511C237.105 333.569 232.205 323.547 226.508 315.571C224.235 312.39 219.44 307.753 218.498 303.988C218.146 302.579 219.229 295.631 219.994 294.484C223.344 289.458 231.012 285.909 236.316 282.901C236.791 282.631 237.546 282.51 238.42 282.52ZM511.949 282.901C514.346 282.603 528.719 292.004 530.071 294.484C531.054 296.285 532.061 302.01 531.566 303.988C530.625 307.754 525.785 312.416 523.532 315.571C519.069 321.82 514.948 328.323 510.479 334.58C509.36 336.146 507.982 339.237 506.322 340.232C504.474 341.341 501.286 341.377 499.175 341.702C498.289 341.839 497.346 342.339 496.513 342.006C494.176 341.072 481.608 332.624 480.47 330.728C479.304 328.785 478.264 323.077 478.696 320.919C479.193 318.434 482.63 315.309 484.043 313.189C488.493 306.514 493.036 299.829 497.705 293.292C499.26 291.115 501.802 285.456 504.244 284.371C506.486 283.374 509.506 283.204 511.949 282.901ZM370.572 316.458C396.184 316.011 424.99 319.918 448.382 331.615C460.19 337.519 472.545 343.648 483.435 351.815C515.51 375.871 538.251 408.392 550.575 445.365C555.023 458.708 558.585 474.378 558.585 488.427C558.585 501.304 558.628 514.028 556.81 526.75C551.686 562.619 535.728 599.207 509.871 625.065C499.752 635.184 489.379 644.123 477.808 652.388C464.293 662.042 449.907 667.705 434.721 673.779C418.902 680.107 399.932 683.867 382.763 683.867C361.231 683.867 340.895 681.413 320.387 675.553C310.557 672.745 301.282 667.926 292.152 664.275C274.306 657.136 256.083 641.648 243.438 628.031C204.317 585.9 184.581 531.93 193.558 473.575C195.955 457.996 199.519 440.846 206.611 426.66C214.538 410.807 223.25 395.07 235.125 381.216C269.682 340.899 317.952 317.377 370.572 316.458ZM565.124 325.38C566.147 326.549 574.628 336.416 574.628 337.241C574.628 339.341 570.495 344.341 569.28 346.163C564.783 352.909 560.132 360.304 556.506 367.555C556.803 367.852 556.792 367.841 557.089 368.138C561.606 364.524 566.21 360.993 570.776 357.442C571.428 356.935 575.113 354.776 575.211 353.893C575.347 352.67 574.1 350.665 574.628 349.433C575.164 348.182 579.312 345.595 580.559 344.972C583.552 348.713 586.54 352.47 589.481 356.251C589.784 356.641 591.393 358.118 590.951 358.633C590.28 359.416 585.761 363.746 584.716 363.398C581.039 362.172 581.934 360.842 577.898 363.981C569.382 370.605 560.774 377.137 552.35 383.877C549.625 386.057 546.525 389.476 543.428 391.025C543.039 391.219 536.729 383.978 536.306 382.99C535.585 381.308 539.26 376.758 540.158 375.26C544.755 367.599 550.13 360.081 554.124 352.094C553.827 351.797 553.838 351.808 553.541 351.511C547.432 356.093 540.511 360.663 535.115 366.059C537.268 370.366 533.879 372.773 530.071 374.677C526.381 370.249 522.837 365.631 519.375 361.016C520.64 360.067 523.712 356.555 525.027 356.555C526.498 356.555 528.048 358.53 529.488 358.05C532.211 357.143 535.264 353.552 537.497 351.815C543.12 347.442 548.801 343.113 554.428 338.737C555.834 337.644 559.318 335.712 560.08 333.997C560.522 333.004 558.713 331.256 559.168 330.119C559.682 328.832 563.727 326.078 565.124 325.38ZM184.333 325.963C186.012 327.082 189.354 328.859 190.289 330.728C190.762 331.674 189.022 333.732 189.681 334.884C190.486 336.293 193.462 337.736 194.75 338.737C201.485 343.975 208.183 349.233 214.925 354.476C216.722 355.875 218.447 357.633 220.273 358.937C220.782 359.301 223.099 357.312 223.846 357.163C225.572 356.818 229.188 360.348 230.081 361.598C230.196 361.76 230.17 362.03 230.081 362.207C228.942 364.485 221.411 374.392 219.385 375.26C218.896 375.47 213.896 371.44 213.759 370.824C213.504 369.676 215.022 367.801 214.342 366.668C213.314 364.955 210.291 363.452 208.69 362.207C207.953 361.634 203.301 357.339 202.759 357.746C200.219 359.651 195.854 365.625 194.445 368.442C196.227 369.867 204.244 377.091 205.724 377.338C207.005 377.551 208.139 376.1 209.298 375.868C211.305 375.467 214.51 379.001 215.837 380.329C213.631 384.74 208.684 390.912 204.837 393.99C201.497 391.485 197.813 389.941 200.098 385.373C189.866 377.699 179.481 369.91 169.784 361.598C168.118 360.17 166.452 363.563 165.045 363.094C163.049 362.429 160.666 359.536 159.393 358.05C160.398 356.542 169.424 344.668 170.088 344.668C170.95 344.668 175.57 348.275 175.74 349.128C175.868 349.766 174.624 352.607 175.132 353.285C177.894 356.968 183.137 359.237 186.411 362.511C189.434 358.985 192.244 355.223 195.028 351.511C193.343 350.163 184.581 342.589 183.167 342.589C182.101 342.589 180.618 344.594 179.593 344.389C177.69 344.008 175.001 340.962 173.662 339.624C176.725 335.03 180.433 329.862 184.333 325.963ZM526.497 630.717C530.457 634.083 533.924 637.344 537.193 640.805C537.329 640.949 537.333 641.248 537.193 641.388C535.507 643.074 533.753 644.722 531.845 646.153C530.851 646.898 527.902 643.019 526.497 644.378C525.116 645.715 515.811 652.432 517.905 655.049C520.354 658.11 523.192 660.895 526.218 663.388C526.677 663.765 527.49 663.705 527.993 663.388C532.308 660.662 534.747 654.711 539.271 652.388C540.771 651.618 542.655 652.637 544.34 652.692C545.927 652.743 547.946 651.86 549.08 652.971C553.682 657.477 558.235 662.055 562.741 666.657C562.896 666.815 563.039 667.019 563.045 667.24C563.138 670.308 563.138 673.373 563.045 676.441C563.007 677.7 561.257 678.243 560.359 679.127C554.969 684.43 549.783 689.923 544.34 695.171C544.198 695.308 543.88 695.302 543.732 695.171C540.068 691.914 537.048 688.004 533.645 684.475C535.427 682.891 537.052 681.096 538.993 679.71C540.117 678.907 543.118 682.668 544.34 681.484C547.258 678.661 550.385 676.054 552.933 672.892C554.866 670.492 544.45 661.201 542.845 662.475C539.829 664.87 537.292 667.824 534.532 670.51C533.629 671.388 533.076 672.901 531.845 673.171C528.751 673.85 525.057 674.801 522.341 673.171C516.578 669.713 512.751 663.775 508.096 658.927C507.822 658.641 508.096 658.132 508.096 657.736C508.096 654.864 506.48 651.491 508.096 649.118C512.984 641.944 520.359 636.856 526.497 630.717ZM228.89 635.761C232.192 638.686 235.276 641.842 238.395 644.961C239.883 646.45 242.964 647.662 242.551 649.726C241.878 653.093 237.045 657.517 235.125 660.397C230.556 667.251 225.45 673.744 220.881 680.597C218.861 683.626 216.925 687.239 214.342 689.823C214.762 690.663 216.232 693.519 215.533 694.258C213.995 695.887 212.442 697.535 210.768 699.023C210.62 699.155 210.333 699.155 210.185 699.023C206.042 695.359 201.973 691.574 198.298 687.441C197.928 687.025 200.119 683.693 203.063 681.788C203.606 681.437 206.601 682.67 207.22 682.98C210.018 678.782 211.469 678.97 207.22 674.971C204.823 672.715 202.474 670.404 200.098 668.127C198.465 669.216 197.025 670.312 195.637 671.701C197.177 674.782 197.476 675.049 194.75 677.936C194.317 678.394 192.96 680.967 191.48 680.597C191.265 680.543 191.028 680.475 190.872 680.318C186.961 676.407 183.15 672.392 179.289 668.431C180.972 666.748 182.439 664.83 184.333 663.388C185.26 662.681 187.868 665.013 189.098 664.275C196.621 659.761 203.744 653.803 210.768 648.535C215.183 645.224 219.657 641.936 224.15 638.726C224.806 638.258 228.141 635.098 228.89 635.761ZM475.477 673.729C477.971 674.068 481.253 675.404 482.548 676.441C484.882 678.308 485.97 682.373 487.313 685.058C490.692 691.816 496.545 700.061 498.288 707.033C499.028 709.994 503.053 712.95 503.053 716.258C503.053 717.957 501.291 723.767 500.366 725.155C499.439 726.545 484.111 734.347 482.548 734.659C481.661 734.837 479.227 733.468 478.391 733.189C477.148 732.775 474.23 732.576 473.348 731.694C468.303 726.649 467.324 717.528 463.235 712.076C461.836 710.212 453.147 694.981 453.147 692.484C453.147 690.833 454.695 684.094 455.809 682.98C459.92 678.869 467.894 675.335 473.348 673.779C473.898 673.622 474.645 673.615 475.477 673.729ZM276.413 674.058C282.759 674.54 288.11 679.628 293.648 682.397C295.404 683.275 298.428 683.907 299.883 685.362C300.653 686.132 295.189 698.099 293.648 699.023C293.023 699.398 287.512 696.445 287.413 695.754C287.174 694.085 288.343 692.276 287.717 690.71C287.428 689.988 277.129 684.475 276.134 684.475C274.987 684.475 269.291 694.337 269.291 695.754C269.291 698.377 280.906 702.431 282.952 704.067C284.594 705.381 286.885 712.024 286.526 714.18C286.076 716.88 279.013 730.338 277.021 731.998C275.539 733.233 269.363 735.121 267.517 734.659C265.648 734.192 245.843 724.287 244.934 722.772C244.832 722.602 244.886 722.381 244.934 722.189C245.234 720.988 250.911 709.944 251.473 709.719C252.094 709.471 257.951 712.191 258.012 712.989C258.142 714.679 257.036 716.378 257.404 718.033C257.827 719.936 269.646 724.901 271.065 722.772C271.901 721.518 272.468 719.965 273.143 718.616C273.863 717.176 276.134 714.259 276.134 712.685C276.134 709.526 263.092 706.62 261.56 704.067C257.231 696.852 260.217 689.308 264.526 683.563C265.841 681.809 266.049 677.77 268.1 676.745C270.565 675.512 273.653 673.848 276.413 674.058ZM325.431 694.258C335.119 694.983 344.71 696.985 354.249 698.719C355.349 698.919 363.592 699.362 363.754 700.493C364.296 704.292 362.437 711.258 361.675 715.067C361.619 715.347 361.05 716.222 360.763 716.258C352.875 717.244 354.514 713.93 353.058 708.832C352.764 707.804 348.279 706.895 347.71 708.224C346.32 711.466 346.488 715.758 345.91 719.224C344.596 727.11 342.67 735.321 342.058 743.277C341.67 748.323 347.749 748.546 344.44 755.164C343.721 756.602 327.12 753.658 326.901 752.781C326.779 752.292 327.129 751.785 327.205 751.286C327.415 749.923 327.428 747.593 327.814 746.242C328.289 744.579 331.471 745.61 332.249 743.86C333.433 741.196 333.332 737.242 333.744 734.355C334.666 727.904 335.72 721.502 336.71 715.067C337.071 712.717 338.579 708.821 337.901 706.45C337.684 705.689 333.987 704.846 333.162 705.258C330.712 706.483 331.928 712.042 328.092 711.189C326.689 710.877 324.507 711.183 323.353 710.606C322.519 710.189 323.866 694.141 325.431 694.258ZM413.329 695.298C414.343 695.208 415.26 695.234 416.016 695.45C417.884 695.984 423.539 699.945 424.329 701.685C424.879 702.894 427.557 720.342 427.295 720.998C426.562 722.83 422.555 725.705 422.555 727.537C422.555 729.047 427.585 739.592 428.79 741.198C431.016 744.166 433.631 741.376 434.442 746.242C434.459 746.34 434.933 749.529 434.721 750.095C434.254 751.341 418.359 753.911 417.511 752.781C416.766 751.787 415.933 747.249 416.32 746.242C416.639 745.413 418.514 744.795 418.981 743.86C419.17 743.482 413.189 731.25 412.442 730.503C411.303 731.072 405.264 731.039 405.016 732.277C404.775 733.484 406.597 744.165 407.094 745.659C407.644 747.309 409.638 746.614 410.668 747.129C412.242 747.916 412.857 753.41 412.442 754.86C412.075 756.146 397.85 756.808 395.816 757.825C394.874 756.884 393.165 751.567 394.041 750.399C394.877 749.285 397.311 749.189 397.311 747.433C397.311 742.386 395.69 737.028 395.233 731.998C394.58 724.814 393.079 716.513 391.659 709.415C391.398 708.108 388.607 708.52 387.806 707.92C386.549 706.977 385.81 702.173 386.007 700.798C386.176 699.616 401.962 697.583 404.129 697.249C406.453 696.892 410.289 695.566 413.329 695.298ZM510.479 292.709C507.809 293.215 506.264 297.371 504.827 299.527C500.694 305.726 496.379 311.896 492.053 317.953C491.098 319.29 488.87 321.432 488.479 322.997C487.731 325.989 497.463 332.569 500.062 332.198C502.624 331.832 506.345 324.137 507.792 322.11C509.976 319.053 522.106 303.155 521.758 300.719C521.431 298.434 517.006 296.258 515.218 295.066C513.63 294.008 512.405 292.345 510.479 292.709ZM238.116 292.988C235.54 293.806 228.832 297.791 228.307 300.414C227.76 303.152 231.557 306.641 233.047 308.728C237.092 314.391 240.881 320.289 244.934 325.963C246.495 328.148 248.374 332.886 251.473 332.198C252.695 331.926 254.57 329.938 255.63 329.232C257.402 328.051 259.895 326.693 261.282 325.076C262.586 323.554 259.674 320.891 258.899 319.728C255.432 314.526 251.676 309.501 248.203 304.292C245.949 300.91 242.03 291.745 238.116 292.988ZM371.459 328.928C318.117 331.595 268.346 355.2 236.62 399.617C229.382 409.75 222.737 420.652 218.194 432.008C216.997 435.001 213.011 441.094 214.038 444.174C234.097 444.174 254.175 444.315 274.233 444.174C274.216 444.046 274.165 443.955 274.157 443.819C273.86 438.666 274.157 433.737 274.157 429.043C274.157 428.845 274.157 428.633 274.157 428.435C274.157 423.993 273.958 419.371 274.157 414.596C274.222 413.04 275.007 412.034 275.627 411.453C276.273 410.847 276.986 410.441 277.908 410.237C278.186 410.175 278.486 410.138 278.77 410.135C278.77 410.135 279.365 410.134 279.911 410.135C280.489 410.137 281.143 410.136 281.431 410.135C302.518 410.037 323.63 409.93 344.719 409.831C344.763 409.831 344.802 409.83 344.846 409.831C345.6 409.852 345.497 409.862 346.189 409.882C346.195 409.858 346.209 409.748 346.214 409.73C347.553 405.044 349.133 400.392 350.675 395.764C357.891 374.116 366.519 352.252 371.459 328.928ZM378.885 328.928C377.03 330.783 381.892 341.923 382.763 344.972C387.698 362.244 394.454 379.074 399.389 396.347C400.714 400.984 402.441 405.568 403.977 410.135C404.616 410.139 405.293 410.135 405.929 410.135C427.686 410.135 449.466 409.938 471.295 410.135C473.356 410.154 474.508 411.53 474.818 411.935C475.202 412.437 475.096 412.34 475.096 412.34C475.096 412.34 475.235 412.491 475.502 412.923C475.757 413.337 476.2 414.146 476.212 415.306C476.308 424.684 476.504 434.179 476.212 443.718C476.206 443.895 476.131 444.011 476.11 444.174C496.078 444.335 516.035 444.358 536.002 444.174C536.282 444.172 536.412 443.789 536.61 443.591C534.164 438.7 532.233 432.649 530.071 427.243C526.267 417.732 519.642 408.294 513.444 399.617C483.498 357.691 435.737 332.351 378.885 328.928ZM344.744 413.886C323.656 413.985 302.545 414.092 281.457 414.19C280.807 414.193 278.843 414.18 278.795 414.19C278.522 414.251 278.224 414.494 278.212 414.773C278.023 419.324 278.212 423.88 278.212 428.435C278.212 428.633 278.212 428.845 278.212 429.043C278.212 433.894 277.933 438.748 278.212 443.591C278.283 444.82 282.082 445.322 282.952 445.67C287.322 447.418 291.829 448.916 296.309 450.409C297.242 450.72 301.359 451.746 301.378 452.792C301.718 471.261 301.378 494.363 301.378 514.28C301.378 529.725 301.574 545.168 301.378 560.612C301.368 561.391 296.791 562.385 296.03 562.69C291.37 564.554 286.526 566.145 281.761 567.734C281.209 567.917 278.226 568.828 278.212 569.508C278.018 579.109 278.018 588.724 278.212 598.326C278.218 598.606 278.517 598.905 278.795 598.934C294.544 600.592 313.044 599.213 328.98 599.213C339.874 599.213 349.711 599.299 362.258 598.934C362.538 598.926 362.834 598.606 362.841 598.326C363.034 591.101 362.841 583.883 362.841 576.655C362.841 574.279 363.039 571.876 362.841 569.508C362.755 568.47 358.355 567.774 357.493 567.429C353.691 565.908 343.973 561.194 340.284 561.194C340.228 561.194 340.033 561.348 339.954 561.372C337.832 556.964 339.675 551.554 339.675 546.646C339.675 539.914 339.477 533.175 339.675 526.446C339.684 526.166 340.004 525.874 340.284 525.863C345.032 525.673 349.776 525.863 354.528 525.863C354.726 525.863 354.938 525.863 355.136 525.863C373.551 525.863 391.95 525.667 410.364 525.863C410.507 525.864 410.578 526.04 410.668 526.167C410.475 537.65 410.863 549.129 410.668 560.612C410.654 561.426 406.029 562.406 405.32 562.69C400.653 564.557 395.838 566.146 391.076 567.734C390.485 567.931 387.562 568.793 387.502 569.508C386.705 579.078 387.246 588.726 387.502 598.326C387.51 598.606 387.805 598.929 388.085 598.934C397.984 599.128 407.89 598.838 417.79 598.934C418.87 598.944 419.857 598.926 421.06 598.934C435.812 599.03 450.561 599.213 465.313 599.213C467.624 599.213 472.086 600.332 472.156 598.022C472.444 588.62 472.444 579.213 472.156 569.812C472.117 568.518 468.487 567.997 467.696 567.734C463.002 566.169 458.424 564.255 453.73 562.69C453.059 562.466 449.002 561.528 448.991 560.612C448.793 544.871 448.991 529.135 448.991 513.393C448.991 493.196 448.698 472.987 448.991 452.792C449.005 451.772 453.226 450.983 454.034 450.713C458.726 449.149 463.307 447.234 468 445.67C468.797 445.404 472.125 444.604 472.156 443.591C472.444 434.19 472.253 424.761 472.156 415.356C472.154 415.135 471.985 414.95 471.852 414.773C471.684 414.549 471.549 414.193 471.269 414.19C449.489 413.994 427.71 414.19 405.929 414.19C399.988 414.19 394.022 413.993 388.085 414.19C387.805 414.2 387.508 414.493 387.502 414.773C387.308 424.375 387.214 433.992 387.502 443.591C387.539 444.798 391.427 445.333 392.267 445.67C396.941 447.539 401.823 448.838 406.511 450.713C407.275 451.019 410.642 451.75 410.668 452.792C410.958 464.174 410.863 475.573 410.668 486.957C410.663 487.237 410.365 487.538 410.085 487.54C386.82 487.737 363.549 487.737 340.284 487.54C340.004 487.538 339.68 487.237 339.675 486.957C339.481 475.573 339.386 464.174 339.675 452.792C339.703 451.694 344.425 450.77 345.327 450.409C349.905 448.578 354.714 447.197 359.293 445.365C359.874 445.133 362.813 444.523 362.841 443.591C363.132 433.992 363.035 424.375 362.841 414.773C362.835 414.493 362.466 414.381 344.744 413.886ZM212.263 448.635C210.303 450.596 209.971 455.448 209.298 458.14C206.477 469.423 204.583 480.91 204.254 492.584C204.112 497.632 203.95 502.69 203.95 507.741C203.95 558.601 233.205 605.954 271.952 636.952C273.621 635.284 273.884 632.372 274.639 630.109C277.073 622.805 279.323 615.448 281.761 608.134C282.048 607.272 282.995 605.241 283.763 603.293C281.968 603.176 280.112 603.148 278.365 602.964C276.986 602.819 276.124 602.186 275.5 601.545C274.894 600.92 274.188 599.938 274.157 598.402C273.962 588.745 273.962 579.088 274.157 569.432C274.189 567.847 274.975 566.921 275.374 566.492C275.824 566.007 276.189 565.76 276.514 565.554C277.155 565.148 277.708 564.91 278.238 564.692C279.262 564.271 280.27 563.947 280.468 563.881C285.245 562.289 290.035 560.713 294.535 558.913C295.459 558.544 296.346 558.353 297.323 558.077C297.469 543.522 297.323 528.928 297.323 514.28C297.323 513.023 297.346 511.629 297.348 510.351C296.914 510.08 296.251 509.673 296.03 509.515C290.663 505.681 285.355 501.767 279.987 497.932C257.281 481.714 234.586 465.377 212.263 448.635ZM537.801 448.939C537.012 448.781 533.359 452.341 532.758 452.792C528.846 455.725 524.782 458.475 520.87 461.409C503.476 474.455 485.696 487.092 468 499.732C462.981 503.316 458.055 507.036 453.046 510.63C453.047 511.553 453.046 512.47 453.046 513.393C453.046 528.397 452.894 543.344 453.046 558.254C453.75 558.465 454.474 558.654 455.023 558.837C459.908 560.466 464.486 562.38 468.988 563.881C468.988 563.881 470.174 564.106 471.447 564.515C472.132 564.735 472.901 565.004 473.778 565.579C474.511 566.06 476.139 567.304 476.212 569.685C476.502 579.169 476.502 588.664 476.212 598.148C476.183 599.101 475.872 600.172 475.249 601.063C474.629 601.948 473.827 602.502 473.12 602.837C471.726 603.497 470.55 603.541 469.596 603.547C468.38 603.555 467.699 603.454 466.859 603.369C467.144 604.557 467.41 605.783 467.696 606.639C470.202 614.158 472.622 621.723 475.122 629.222C475.919 631.613 476.292 634.853 478.087 636.648C488.103 631.64 499.47 618.435 506.322 610.213C533.985 577.018 546.419 537.062 546.419 493.471C546.419 481.538 543.949 469.349 541.071 457.835C540.657 456.18 539.801 449.339 537.801 448.939ZM375.032 567.151C374.215 567.968 370.388 570.689 366.896 573.208C366.871 574.348 366.896 575.664 366.896 576.655C366.897 583.81 367.093 591.058 366.896 598.427C366.857 599.907 366.226 600.862 365.604 601.519C365 602.157 364.01 602.942 362.385 602.989C349.755 603.357 339.849 603.268 328.98 603.268C327.749 603.268 326.315 603.329 325.051 603.344C322.034 605.628 318.94 608.049 318.005 608.717C304.049 618.686 289.306 628.333 276.134 639.309C278.08 641.905 281.385 643.611 284.143 645.266C295.83 652.278 307.157 657.888 320.083 662.196C371.418 679.308 430.951 672.076 474.235 639.614C469.005 633.077 459.542 628.594 452.843 623.57C444.007 616.943 434.981 609.317 425.597 603.015C424.078 603.003 422.553 602.999 421.034 602.989C419.891 602.982 418.893 603 417.74 602.989C407.945 602.894 398.04 603.186 388.009 602.989C386.363 602.957 385.35 602.166 384.74 601.519C384.124 600.867 383.487 599.912 383.447 598.427C383.227 590.184 382.846 581.732 383.27 573.158C379.703 570.503 375.863 567.566 375.032 567.151ZM227.42 647.648C226.209 647.648 223.469 650.702 222.351 651.501C217.45 655.001 212.62 658.583 207.803 662.196C211.961 666.355 211.958 666.351 216.116 670.51C221.641 666.366 226.23 657.278 230.081 651.501C231.122 649.94 229.016 647.648 227.42 647.648ZM474.792 683.715C474.436 683.684 474.048 683.729 473.626 683.867C471.301 684.629 463.564 687.472 463.235 690.102C462.618 695.039 473.359 711.515 475.73 716.258C476.729 718.255 478.493 723.92 480.774 724.572C482.766 725.141 490.042 720.997 491.47 719.807C494.033 717.671 491.881 713.326 490.278 711.189C486.101 705.619 482.982 697.205 479.583 690.406C478.334 687.908 477.289 683.929 474.792 683.715ZM412.442 705.258C410.843 705.34 400.972 707.022 400.859 707.641C400.282 710.816 401.055 722.92 405.32 722.493C408.573 722.168 415.159 722.091 417.207 719.224C418.687 717.152 416.006 705.076 412.442 705.258Z" fill="#FFFFFF" fill-rule="nonzero" opacity="1" stroke="none" vectornator:layerName="path"/>
</g>
</svg>
