<?xml version="1.0" encoding="UTF-8" standalone="no"?>
<!DOCTYPE svg PUBLIC "-//W3C//DTD SVG 1.1//EN" "http://www.w3.org/Graphics/SVG/1.1/DTD/svg11.dtd">
<!-- Created with Vectornator (http://vectornator.io/) -->
<svg height="100%" stroke-miterlimit="10" style="fill-rule:nonzero;clip-rule:evenodd;stroke-linecap:round;stroke-linejoin:round;" version="1.1" viewBox="0 0 750 1000" width="100%" xml:space="preserve" xmlns="http://www.w3.org/2000/svg" xmlns:vectornator="http://vectornator.io" xmlns:xlink="http://www.w3.org/1999/xlink">
<defs/>
<g id="Layer-1" vectornator:layerName="Layer 1">
<path d="M540.794 200.001C526.248 200.126 511.587 211.483 511.587 231.208C511.587 234.525 513.25 239.666 515.312 242.415C519.81 248.413 524.413 251.563 530.243 255.449C522.832 262.859 527.579 274.542 520.932 282.518C515.965 288.479 510.798 294.364 504.105 298.38C487.344 308.437 463.569 302.485 452.312 286.725C445.734 277.516 449.273 264.1 441.588 256.415C443.725 253.209 448.584 251.246 451.381 248.449C454.672 245.158 456.698 240.667 457.932 236.346C459.451 231.031 460.005 225.182 457.932 220.001C451.123 202.976 439.465 199.968 422.45 200.863C420.964 200.941 417.7 203.149 416.381 204.139C405.019 212.661 396.928 229.339 407.07 242.863C411.019 248.129 415.502 251.635 420.588 255.449C412.937 263.099 417.933 274.199 411.277 282.518C390.869 308.029 366.315 310.383 343.139 287.208C334.708 278.776 340.873 262.674 331.484 256.415C334.958 252.941 339.459 250.75 343.139 247.07C346.356 243.853 346.291 238.78 349.208 235.863C347.891 233.228 349.657 227.015 349.657 224.656C349.657 216.98 341.444 207.129 335.657 203.656C328.61 199.428 321.796 200.402 312.795 200.863C300.57 201.49 292.726 219.158 292.726 229.794C292.726 241.569 302.518 249.139 310.933 255.449C303.648 262.734 307.684 272.106 302.553 280.656C285.645 308.837 255.718 309.441 233.933 287.656C225.028 278.751 230.214 264.799 221.829 256.415C226.01 250.144 235.121 247.007 237.209 238.656C238.452 233.681 239.638 227.873 238.622 222.794C230.828 183.824 168.797 200.557 184.036 238.656C187.105 246.327 194.821 249.924 199.898 255.001C197.343 257.921 195.709 258.866 195.691 262.449C195.539 294.179 195.209 325.925 195.209 357.656C195.209 359.612 195.698 365.119 195.691 366.518C195.383 433.4 195.364 500.29 195.209 567.173C195.113 608.702 195.054 650.23 195.209 691.759C195.212 692.612 195.959 694.746 196.622 695.483C206.856 706.854 224.706 712.416 237.691 720.207C268.144 738.478 298.704 756.566 329.139 774.828C343.416 783.394 360.371 800 377.657 800C382.183 800 387.665 793.747 391.208 791.621C402.026 785.13 413.041 778.976 423.863 772.483C453.692 754.585 484.1 737.658 513.932 719.759C527.409 711.673 542.203 706.867 553.587 695.483C555.512 693.558 554.036 693.029 554.036 689.897C554.036 649.456 554.366 608.993 554.518 568.552C554.677 526.556 554.967 484.583 554.967 442.587C554.967 418.011 554.672 393.438 554.518 368.863C554.503 366.349 554.022 360.709 554.036 360.001C554.341 343.516 554.366 327.005 554.518 310.518C554.671 294.032 554.674 277.556 554.518 261.07C554.504 259.521 552.053 257.225 551.243 256.415C555.423 250.144 564.569 247.007 566.656 238.656C568.041 233.116 569.182 226.995 567.587 221.415C563.358 206.613 552.108 199.904 540.794 200.001ZM322.726 207.277C331.478 207.629 338.458 212.544 341.726 222.346C344.948 232.012 337.468 250.346 325.415 250.346C296.739 250.346 289.354 210.427 318.864 207.415C320.18 207.28 321.475 207.227 322.726 207.277ZM541.587 207.277C550.416 207.683 557.735 212.811 560.587 222.794C563.304 232.301 556.107 250.346 544.243 250.346C515.215 250.346 508.243 210.426 537.725 207.415C539.04 207.281 540.326 207.219 541.587 207.277ZM212.622 207.346C221.364 207.899 227.906 213.093 231.14 222.794C234.29 232.247 226.342 250.346 214.829 250.346C185.454 250.346 178.888 209.894 208.76 207.415C210.096 207.304 211.374 207.267 212.622 207.346ZM432.45 207.346C441.334 207.872 448.093 212.932 451.381 222.794C454.6 232.452 446.224 250.346 434.588 250.346C406.725 250.346 399.741 209.739 428.519 207.415C429.871 207.306 431.18 207.271 432.45 207.346ZM210.864 260.173C213.194 260.138 215.438 260.64 217.14 262.001C220.675 264.829 221.124 282.241 226.002 289.07C236.839 304.243 252.118 311.42 270.346 310.07C287.046 308.833 304.29 296.142 310.484 280.656C312.588 275.398 311.44 266.606 313.277 262.932C315.127 259.233 324.759 260.994 327.277 262.001C327.686 262.164 327.944 262.58 328.208 262.932C328.418 263.211 332.015 280.987 332.864 284.38C335.565 295.186 357.863 310.518 370.208 310.518C389.226 310.518 411.395 302.534 419.208 283.001C421.763 276.615 420.929 267.941 422.932 262.932C424.518 258.969 435.162 261.116 436.932 262.001C438.699 262.884 440.541 277.882 441.588 282.07C444.999 295.716 465.411 310.518 479.863 310.518C500.247 310.518 513.686 303.674 526.036 287.208C529.667 282.366 533.898 262.063 534.001 262.001C537.205 260.079 541.441 261.356 545.174 261.518C545.832 261.547 547.515 263.125 547.518 263.38C547.978 294.641 547.978 325.913 547.518 357.173C547.497 358.638 544.444 359.07 543.794 359.07C431.027 359.07 318.251 358.742 205.485 358.587C204.862 358.586 204.213 358.784 203.622 358.587C203.205 358.448 202.7 358.096 202.691 357.656C202.231 333.862 202.209 310.075 202.209 286.277C202.209 281.608 202.598 276.945 202.691 272.277C202.764 268.67 200.686 262.768 204.071 261.518C206.115 260.763 208.534 260.208 210.864 260.173ZM375.105 365.759C431.955 365.707 488.807 365.76 545.656 366.07C546.536 366.075 547.513 367.052 547.518 367.932C548.137 475.72 549.054 583.497 547.518 691.276C547.489 693.327 540.802 696.845 538.656 698.276C529.393 704.451 518.777 708.418 509.243 714.138C475.225 734.549 440.604 753.935 406.588 774.345C399.538 778.575 391.831 782.151 385.139 786.931C383.067 788.411 378.627 793 375.795 793C374.014 793 371.89 792.041 370.208 791.621C360.389 789.166 346.359 776.642 337.07 771.069C305.856 752.34 274.511 733.844 243.278 715.104C233.289 709.111 222.916 703.492 212.485 698.276C210.581 697.324 202.735 693.465 202.691 691.276C201.621 637.469 202.209 583.645 202.209 529.828C202.209 525.936 202.68 522.065 202.691 518.173C202.836 467.934 202.382 417.688 202.691 367.449C202.695 366.858 204.109 366.07 204.553 366.07C261.404 365.971 318.255 365.812 375.105 365.759ZM323.381 417.897C320.861 417.96 318.797 418.555 318.415 420.656C314.677 441.214 335.474 421.356 334.277 439.311C333.915 444.75 328.112 450.679 325.415 455.173C317.104 469.026 307.307 481.871 298.346 495.311C296.926 497.442 287.915 511.656 286.209 511.656C285.648 511.656 284.81 511.251 284.795 510.69C284.337 493.742 284.672 476.782 284.795 459.828C284.89 446.663 283.669 444.16 291.795 436.035C296.72 431.11 308.025 431.017 307.208 422.035C306.952 419.216 304.063 419.242 302.071 419.242C279.206 419.242 256.348 419.089 233.484 419.242C228.702 419.274 230.933 428.829 233.002 430.897C239.051 424.848 254.902 435.716 257.278 441.656C262.133 453.794 258.607 467.755 258.691 480.828C258.927 517.535 259.14 554.258 259.14 590.966C259.14 603.733 242.587 604.905 233.933 606.828C230.143 607.67 229.808 615.133 231.622 617.552C233.921 620.617 235.646 617.575 238.14 617.552C254.937 617.399 271.755 617.441 288.553 617.552C295.399 617.597 302.225 618.035 309.071 618.035C310.593 618.035 313.056 616.42 313.277 614.759C314.961 602.134 296.347 607.936 289.484 600.311C279.705 589.444 284.346 567.031 284.346 555.035C284.346 548.399 282.873 539.541 284.346 532.173C286.056 523.626 301.968 522.38 307.657 522.38C323.302 522.38 337.503 547.009 344.553 558.759C346.426 561.88 346.509 566.079 348.726 569.035C358.337 581.85 360.644 598.731 370.208 611.483C377.901 621.74 383.204 633.881 391.208 644.173C410.883 669.469 434.913 683.828 467.243 683.828C473.658 683.828 480.883 682.013 486.863 679.621C510.552 670.145 515.835 654.791 517.174 632.035C517.565 625.378 510.87 619.897 503.656 619.897C496.704 619.897 494.312 629.005 494.312 634.345C494.312 638.229 501.372 640.957 503.656 643.242C508.909 648.495 489.056 666.32 487.312 667.483C481.486 671.366 473.02 671.95 466.312 672.621C422.95 676.957 408.328 622.173 406.588 589.104C406.07 579.27 405.633 570.976 406.139 561.104C407.91 526.569 426.19 480.684 470.07 495.311C476.152 497.338 481.842 501.049 486.381 505.587C495.33 514.536 498.957 527.523 500.381 539.621C500.652 541.926 500.942 548.993 504.587 549.449C506.376 549.672 513.392 550.296 513.45 547.552C513.906 525.937 512.993 504.34 513.45 482.725C513.496 480.529 516.878 477.502 513.45 474.759C510.653 472.522 506.279 473.867 502.725 474.311C499.921 474.662 499.216 484.869 496.174 486.897C493.97 488.366 490.891 487.38 488.243 487.38C482.752 487.38 477.339 484.78 471.932 484.104C462.787 482.961 453.087 482.725 443.932 482.725C414.685 482.725 388.682 521.544 382.795 548.035C381.184 555.282 383.146 573.373 379.07 577.449C367.69 566.068 362.806 548.901 353.415 536.38C348.174 529.391 341.756 522.859 335.657 516.759C331.791 512.893 321.578 507.897 316.071 507.897C312.582 507.897 310.673 509.051 308.14 506.518C325.957 482.761 338.53 457.438 359.933 436.035C366.809 429.159 390.451 432.608 385.139 420.656C383.732 417.489 377.795 419.269 376.277 419.242C361.189 418.975 346.092 418.437 331.002 418.311C328.866 418.293 325.901 417.835 323.381 417.897Z" fill="#FFFFFF" fill-rule="nonzero" opacity="1" stroke="none" vectornator:layerName="path"/>
</g>
</svg>
