<?xml version="1.0" encoding="UTF-8" standalone="no"?>
<!DOCTYPE svg PUBLIC "-//W3C//DTD SVG 1.1//EN" "http://www.w3.org/Graphics/SVG/1.1/DTD/svg11.dtd">
<!-- Created with Vectornator (http://vectornator.io/) -->
<svg height="100%" stroke-miterlimit="10" style="fill-rule:nonzero;clip-rule:evenodd;stroke-linecap:round;stroke-linejoin:round;" version="1.1" viewBox="0 0 750 1000" width="100%" xml:space="preserve" xmlns="http://www.w3.org/2000/svg" xmlns:vectornator="http://vectornator.io" xmlns:xlink="http://www.w3.org/1999/xlink">
<defs/>
<g id="Layer-1" vectornator:layerName="Layer 1">
<path d="M369.053 200.027C367.058 200.095 365.082 200.326 363.124 200.745C361.978 200.991 357.9 217.064 357.051 219.611C352.745 232.529 349.787 245.93 345.48 258.851C343.724 264.119 343.364 272.195 340.306 276.782C338.897 278.895 331.942 278.793 329.346 279.226C319.403 280.883 309.716 283.625 300.167 286.808C267.209 297.794 226.617 325.472 242.672 365.611C245.805 373.444 253.116 380.655 258.771 386.309C264.006 391.544 278.189 401.423 285.865 403.342C290.102 404.401 298.615 406.965 301.676 410.026C300.391 411.312 300.085 414.858 299.556 416.71C297.758 423.004 295.857 429.28 294.058 435.575C287.481 458.595 281.919 484.033 273.073 506.15C268.613 517.3 258.492 525.679 248.458 531.699C244.28 534.206 237.57 534.681 234.156 538.095C245.968 550.563 251.8 561.321 251.8 578.845C251.8 583.165 249.631 587.818 248.458 591.925C246.166 599.947 243.743 607.943 241.451 615.965C232.332 647.88 223.931 680.345 213.458 711.765C201.437 747.829 199.665 773.38 167.534 799.085C167.737 799.288 167.858 799.695 168.145 799.696C224.116 799.898 280.094 799.596 336.065 799.696C337.642 799.699 336.389 800.559 337.575 799.373C335.506 796.615 332.527 794.734 330.28 792.078C322.271 782.613 320.542 770.389 320.542 758.336C320.542 755.434 321.583 752.266 322.374 749.496C322.834 747.887 326.238 734.596 327.226 734.584C343.245 734.383 359.285 734.584 375.305 734.584C391.124 734.584 406.923 734.281 422.739 734.584C423.866 734.605 423.673 735.856 423.673 736.416C423.673 741.115 427.148 747.652 428.236 752.551C431.827 768.709 427.087 789.287 412.39 799.085C413.104 800.157 412.641 799.989 413.611 799.984C432.269 799.883 450.939 799.797 469.597 799.696C469.8 799.695 470.005 799.696 470.208 799.696C507.421 799.696 544.642 799.898 581.855 799.696C582.142 799.695 582.263 799.288 582.466 799.085C574.333 790.952 565.512 784.147 559.037 774.435C548.958 759.316 545.108 740.939 540.171 723.66C530.533 689.923 521.751 655.605 510.67 622.361C505.795 607.738 495.583 580.615 498.811 566.088C501.288 554.944 508.104 546.53 515.844 538.383C514.062 535.71 506.557 534.189 503.375 532.598C496.19 529.005 489.818 523.353 484.186 517.721C476.666 510.201 474.515 498.586 471.717 488.794C466.644 471.038 461.271 453.347 456.193 435.575C454.307 428.973 452.33 422.414 450.444 415.811C449.999 414.256 448.345 411.298 448.611 409.703C448.64 409.527 463.448 403.668 465.321 402.731C480.11 395.337 495.579 385.564 504.273 371.073C531.055 326.437 477.112 294.479 440.706 284.077C433.191 281.93 425.544 280.433 417.887 278.902C415.513 278.427 412.497 278.635 410.269 277.68C410.044 277.584 406.115 264.116 405.706 262.48C401.98 247.578 397.495 232.386 392.626 217.778C392.032 215.998 388.247 201.064 387.164 201.033C381.158 200.859 375.036 199.822 369.053 200.027ZM374.299 212.208C375.739 212.213 377.325 212.498 378.647 212.604C379.452 212.668 383.591 228.11 384.109 229.924C387.873 243.097 391.348 256.491 395.68 269.487C396.947 273.288 397.306 280.363 399.633 283.466C401.158 285.5 406.201 285.019 408.437 285.298C417.696 286.456 426.794 288.504 435.819 290.76C461.296 297.13 482.449 308.616 498.488 330.001C501.348 333.814 503.375 340.651 503.375 345.237C503.375 369.998 481.765 387.975 460.146 396.623C454.297 398.963 448.523 401.348 442.538 403.342C441.375 403.73 435.473 404.422 435.208 405.75C434.801 407.784 437.388 412.535 437.975 414.59C439.976 421.594 442.046 428.571 444.048 435.575C448.922 452.637 454.086 469.612 458.96 486.674C462.336 498.488 464.808 510.938 472.04 521.063C476.351 527.098 481.821 532.243 487.851 536.55C489.792 537.936 495.591 540.206 496.655 542.336C496.692 542.41 490.885 553.042 490.295 554.517C486.317 564.462 485.508 575.309 487.851 585.852C490.519 597.859 494.822 609.604 498.2 621.427C506.469 650.368 515.157 679.196 523.426 708.136C531.227 735.438 536.854 764.453 554.15 787.515C553.947 787.717 553.826 788.124 553.539 788.125C514.501 788.327 475.468 788.125 436.429 788.125C435.901 786.541 440.641 772.69 440.993 769.871C442.365 758.897 439.117 748.05 436.142 737.638C434.867 733.175 433.308 728.747 432.189 724.27C432.097 723.904 432.46 723.053 431.578 723.049C393.859 722.847 356.141 722.847 318.422 723.049C317.519 723.053 314.292 735.506 313.858 737.027C309.081 753.747 306.008 771.24 314.145 787.515C313.943 787.717 313.821 788.124 313.535 788.125C274.497 788.327 235.462 788.428 196.425 788.125C196.06 788.123 196.017 787.531 195.814 787.227C212.657 764.769 218.326 737.469 225.927 710.867C237.563 670.142 249.902 629.596 261.538 588.87C264.506 578.483 263.526 567.799 260.604 557.572C259.447 553.523 257.608 549.633 255.429 546.001C255.085 545.428 252.949 542.816 253.309 542.336C255.579 539.309 262.109 536.809 265.167 534.43C271.89 529.201 279.826 520.493 283.134 512.223C293.206 487.044 299.395 459.552 306.851 433.455C309.33 424.776 310.76 413.743 314.756 405.75C312.05 403.043 301.037 401.074 296.825 399.39C285.4 394.819 273.968 389.37 264.556 381.135C259.187 376.437 255.367 370.859 251.189 365.288C242.866 354.192 246.513 337.338 253.632 326.659C266.354 307.576 292.795 295.891 314.469 290.473C322.701 288.415 330.982 286.502 339.407 285.298C341.86 284.948 347.893 285.474 349.756 284.077C352.951 281.681 353.819 272.031 354.895 268.266C358.757 254.749 362.931 241.306 366.789 227.804C367.609 224.933 369.246 215.372 370.742 213.502C371.571 212.466 372.86 212.204 374.299 212.208ZM374.982 266.146C374.183 266.945 373.76 268.024 373.76 269.164C373.76 269.224 373.76 269.284 373.76 269.344C372.619 270.742 372.456 273.839 371.964 275.56C370.192 281.761 368.237 287.938 366.466 294.138C366.097 295.427 364.029 299.957 364.346 301.433C364.194 301.269 364.061 301.175 363.447 301.433C361.573 302.221 355.314 302.139 353.098 302.331C347.398 302.827 341.719 303.582 336.065 304.451C316.74 307.425 297.609 313.056 281.302 323.928C273.777 328.944 266.478 336.144 265.491 345.524C262.878 370.345 298.623 381.818 317.487 387.208C320.451 388.055 337.876 392.099 338.796 390.873C338.827 390.833 338.97 390.242 339.012 390.154C338.88 391.419 338.75 392.911 338.473 393.604C338.205 394.275 337.352 394.309 336.964 394.826C336.247 395.781 336.153 398.443 335.742 399.677C333.811 405.47 332.245 411.448 330.567 417.321C324.928 437.057 319.738 457.175 313.247 476.648C309.923 486.62 307.295 496.94 304.407 507.048C302.683 513.084 300.682 520.772 296.825 525.914C290.621 534.186 284.745 541.726 276.738 548.732C287.532 570.32 279.85 593.486 273.684 615.066C264.163 648.388 254.02 681.517 244.505 714.82C239.388 732.73 235.502 752.266 227.149 768.973C227.453 769.277 227.617 769.864 228.047 769.871C248.933 770.171 269.829 769.971 290.716 769.871C291.151 769.869 291.714 769.197 291.938 768.973C291.684 768.592 291.619 768.494 291.435 768.218C291.604 768.14 291.769 768.201 291.938 768.074C289.908 764.013 291.253 757.12 291.651 752.551C292.728 740.156 297.379 727.937 300.778 716.042C301.724 712.729 304.12 708.213 304.12 704.794C351.167 705.197 398.222 704.492 445.269 704.794C445.978 704.799 448.993 716.325 449.51 717.874C453.621 730.208 457.712 743.441 458.349 756.503C458.428 758.116 459.382 766.26 458.026 768.973C458.25 769.197 458.813 769.868 459.248 769.871C480.136 769.971 501.031 770.171 521.917 769.871C522.347 769.865 522.511 769.277 522.815 768.973C522.511 768.516 522.508 768.53 522.204 768.074C522.103 768.125 521.958 768.056 521.845 768.074C521.829 765.652 518.283 757.496 517.641 755.569C513.237 742.358 509.608 728.819 505.782 715.431C495.467 679.326 486.037 642.468 474.16 606.838C467.938 588.17 464.058 567.14 473.262 548.732C465.598 541.068 458.383 534.523 452.851 525.303C448.718 518.414 447.175 510.645 444.658 503.096C440.42 490.379 437.653 477.191 433.411 464.466C425.455 440.599 418.946 416.005 412.066 391.771C416.409 392.337 427.693 388.78 432.189 387.495C449.796 382.465 465.494 376.398 478.724 363.168C484.959 356.933 487.22 344.262 481.778 337.008C479.593 334.094 477.365 331.085 474.771 328.491C456.467 310.187 416.84 303.779 392.949 302.331C390.47 302.181 387.985 302.237 385.511 302.152C385.66 302.019 385.799 301.864 385.942 301.72C382.021 293.878 380.468 283.174 378.036 274.662C377.29 272.048 376.958 268.121 374.982 266.146ZM361.615 321.233C360.59 322.108 358.331 329.525 357.482 331.222C357.615 331.356 357.8 331.375 357.949 331.474C356.87 332.296 354.066 342.692 353.529 344.302C350.392 353.714 347.74 363.289 345.121 372.87C341.192 371.452 336.077 371.539 331.933 370.786C319.833 368.586 305.798 365.531 295.747 357.993C291.014 354.443 286.564 346.802 291.794 341.571C307.028 326.337 337.085 322.067 361.615 321.233ZM390.326 321.233C414.855 322.068 444.912 326.337 460.146 341.571C465.377 346.802 460.927 354.443 456.193 357.993C446.143 365.531 432.108 368.586 420.008 370.786C415.864 371.539 410.748 371.452 406.82 372.87C404.201 363.289 401.548 353.714 398.411 344.302C397.874 342.692 395.07 332.296 393.991 331.474C394.14 331.374 394.325 331.356 394.458 331.222C393.61 329.525 391.35 322.108 390.326 321.233ZM374.982 461.448C376.96 463.426 377.29 467.352 378.036 469.964C380.416 478.294 382.951 486.572 385.331 494.903C393.6 523.843 402.324 552.635 410.593 581.576C414.758 596.153 418.556 610.999 423.349 625.38C425.313 631.271 426.818 637.375 428.524 643.347C428.711 644.002 430.736 648.8 429.135 648.809C392.936 649.01 356.74 649.01 320.542 648.809C320.255 648.807 320.134 648.401 319.931 648.198C322.257 643.545 322.857 637.912 324.495 632.998C328.024 622.409 330.839 611.51 333.909 600.765C342.327 571.303 351.369 541.992 359.782 512.546C363.26 500.374 366.936 488.224 370.418 476.037C371.507 472.229 372.267 464.163 374.982 461.448ZM374.982 526.525C372.142 525.936 370.789 540.123 369.808 543.557C365.136 559.908 360.173 576.2 355.506 592.536C353.042 601.158 350.101 609.699 347.924 618.408C347.169 621.428 344.078 626.919 344.582 629.943C344.629 630.226 344.906 630.551 345.193 630.554C365.066 630.755 384.934 630.755 404.807 630.554C405.094 630.551 405.312 630.21 405.418 629.943C406.007 628.472 404.073 624.72 403.586 623.259C401.739 617.718 400.118 611.905 398.699 606.227C393.976 587.336 387.636 568.71 382.277 549.954C380.865 545.013 379.307 527.421 374.982 526.525Z" fill="#FFFFFF" fill-rule="nonzero" opacity="1" stroke="none" vectornator:layerName="path"/>
</g>
</svg>
