<?xml version="1.0" encoding="UTF-8" standalone="no"?>
<!DOCTYPE svg PUBLIC "-//W3C//DTD SVG 1.1//EN" "http://www.w3.org/Graphics/SVG/1.1/DTD/svg11.dtd">
<!-- Created with Vectornator (http://vectornator.io/) -->
<svg height="100%" stroke-miterlimit="10" style="fill-rule:nonzero;clip-rule:evenodd;stroke-linecap:round;stroke-linejoin:round;" version="1.1" viewBox="0 0 750 1000" width="100%" xml:space="preserve" xmlns="http://www.w3.org/2000/svg" xmlns:vectornator="http://vectornator.io" xmlns:xlink="http://www.w3.org/1999/xlink">
<defs/>
<g id="Layer-1" vectornator:layerName="Layer 1">
<path d="M468.218 200.016C463.956 199.939 459.644 200.15 455.311 200.531C451.492 200.867 448.321 203.727 444.958 205.567C434.409 211.341 420.315 223.202 416.872 235.41C406.368 272.651 420.127 302.237 459.458 310.955C465.542 312.304 476.233 313.693 482.835 312.173C495.106 309.348 505.782 298.653 513.569 289.545C534.017 265.624 524.82 232.01 503.496 212.524C493.242 203.154 481.007 200.246 468.218 200.016ZM465.267 208.003C482.053 207.422 501.686 218.101 509.399 231.288C493.38 245.082 482.667 257.934 483.117 280.198C483.259 287.281 486.778 293.976 487.216 301.046C487.476 305.256 475.158 305.762 473.419 305.684C452.04 304.736 439.938 299.026 427.811 282.705C453.063 260.746 458.62 244.379 449.971 212.665C454.39 209.647 459.672 208.197 465.267 208.003ZM443.178 215.617C447.631 214.671 447.711 223.125 447.792 226.977C448.047 239.033 447.314 254.385 438.165 263.497C433.888 267.755 430.489 275.028 424.461 275.326C421.343 275.48 420.435 263.01 420.432 262.724C420.247 245.322 423.249 219.849 443.178 215.617ZM508.954 237.191C509.934 237.132 510.951 237.308 512.046 237.776C530.503 245.677 513.366 288.219 495.93 296.338C492.856 297.769 490.718 292.229 490.167 290.622C488.214 284.924 488.993 278.324 489.816 272.609C490.431 268.337 492.041 261.548 494.15 257.289C497.879 249.758 502.094 237.601 508.954 237.191ZM408.532 278.09C407.888 278.038 407.128 278.085 406.237 278.278C398.084 280.041 400.432 286.786 396.188 294.839C386.605 313.018 375.689 330.479 365.993 348.598C361.94 356.174 368.759 361.754 373.489 353.541C385.689 332.36 397.512 310.975 409.095 289.451C411.836 284.357 413.047 278.454 408.532 278.09ZM506.26 305.591C505.928 305.552 505.59 305.608 505.253 305.778C493.711 311.602 498.51 332.09 496.726 342.391C494.26 356.636 490.424 370.622 487.919 384.86C486.104 395.17 494.412 398.21 497.382 383.337C502.028 360.072 506.515 336.777 510.219 313.344C510.631 310.735 508.585 305.859 506.26 305.591ZM424.555 310.205C417.792 310.713 419.364 318.529 416.872 324.682C412.267 336.05 407.244 347.26 402.091 358.39C398.883 365.317 394.765 372.209 393.962 379.8C393.276 386.286 400.692 383.575 402.442 379.823C411.633 360.118 419.862 339.973 428.115 319.856C430.639 313.705 430.066 309.791 424.555 310.205ZM446.738 321.449C436.598 351.686 424.881 381.431 416.309 412.149C414.981 416.911 416.967 422.021 417.293 426.954C428.4 395.511 441.64 364.743 450.603 332.623C451.663 328.824 448.031 325.176 446.738 321.449ZM474.918 323.487C474.44 323.513 473.9 323.619 473.325 323.815C464.5 326.825 467.078 344.72 465.244 352.44C461.606 367.749 457.747 383.006 454.07 398.306C451.714 408.109 458.485 418.599 461.449 406.059C467.336 381.154 472.936 356.18 478.361 331.17C479.257 327.04 478.265 323.309 474.918 323.487ZM591.924 347.216C591.184 347.216 590.568 347.319 590.097 347.521C589.155 347.924 588.281 348.517 587.473 349.325C586.666 350.132 585.739 351.828 584.663 354.384C583.586 356.94 582.841 359.283 582.437 361.435C582.034 363.588 581.957 367.703 582.226 373.756C582.495 379.81 581.157 387.477 578.197 396.759C575.238 406.042 572.021 414.583 568.523 422.386C565.025 430.189 562.583 435.155 561.238 437.308C559.893 439.46 558.683 441.08 557.607 442.156C556.531 443.233 555.474 443.773 554.398 443.773C553.322 443.773 552.5 443.491 551.962 442.953C551.424 442.415 551.013 440.818 550.744 438.127C550.475 435.437 550.756 432.402 551.563 429.039C552.371 425.675 553.709 422.124 555.592 418.357C557.476 414.59 559.02 411.015 560.231 407.652C561.441 404.289 562.058 400.919 562.058 397.556C562.058 394.193 561.723 392.185 561.05 391.512C560.378 390.84 559.298 390.3 557.818 389.896C556.338 389.492 552.915 389.416 547.534 389.685C542.153 389.954 539.042 389.696 538.235 388.889C537.428 388.082 536.835 386.256 536.431 383.431C536.028 380.606 535.411 378.986 534.604 378.582C533.797 378.178 532.664 377.996 531.184 377.996C529.704 377.996 528.419 378.331 527.342 379.004C526.266 379.676 525.186 381.22 524.11 383.642C523.034 386.063 522.364 389.28 522.095 393.316C521.826 397.352 521.955 400.258 522.493 402.007C523.032 403.755 523.313 405.352 523.313 406.832C523.313 408.312 522.568 412.427 521.088 419.153C519.608 425.88 518.193 431.386 516.848 435.691C515.503 439.996 513.366 445.244 510.406 451.433C507.447 457.621 505.157 461.865 503.543 464.152C501.929 466.439 499.897 468.652 497.476 470.805C495.054 472.957 492.918 474.319 491.034 474.857C489.151 475.395 487.531 475.654 486.185 475.654C484.84 475.654 483.425 475.114 481.945 474.037C480.466 472.961 479.591 472.034 479.322 471.227C479.053 470.419 480.726 468.183 484.358 464.55C487.99 460.918 491.102 457.572 493.658 454.478C496.214 451.384 498.427 448.402 500.31 445.576C502.194 442.751 503.867 439.793 505.347 436.699C506.826 433.604 507.83 430.798 508.368 428.242C508.906 425.686 509.112 423.602 508.977 421.988C508.843 420.374 508.455 418.806 507.783 417.326C507.11 415.847 505.695 414.303 503.543 412.688C501.39 411.074 499.154 410.199 496.867 410.065C494.58 409.93 491.956 410.47 488.996 411.681C486.037 412.892 483.078 414.77 480.118 417.326C477.159 419.882 474.74 422.454 472.857 425.01C470.973 427.566 469.376 430.19 468.031 432.88C466.686 435.571 465.529 438.4 464.588 441.36C463.646 444.32 462.848 447.818 462.175 451.854C461.502 455.89 461.091 460.598 460.957 465.979C460.822 471.36 460.024 474.783 458.544 476.263C457.064 477.743 454.775 480.572 451.681 484.743C448.587 488.913 446.89 490.997 446.621 490.997C446.486 490.997 446.357 490.997 446.223 490.997C446.223 490.324 446.223 489.655 446.223 488.982C446.223 487.637 447.637 477.605 450.463 458.905C453.288 440.206 454.573 430.789 454.304 430.655C454.035 430.52 452.491 431.19 449.666 432.669C446.841 434.149 444.27 435.1 441.983 435.504C439.696 435.907 438.281 437.322 437.743 439.744C437.474 440.954 437.216 442.164 436.947 443.375C435.803 442.769 434.647 442.153 433.503 441.547C431.216 440.337 429.079 439.744 427.061 439.744C425.043 439.744 423.088 440.002 421.205 440.54C419.322 441.078 417.314 442.029 415.162 443.375C413.009 444.72 411.054 446.264 409.305 448.013C407.557 449.762 405.32 452.72 402.629 456.891C399.939 461.061 397.726 466.027 395.977 471.812C394.228 477.597 392.89 485.598 391.948 495.822C391.006 506.047 389.85 512.71 388.504 515.804C387.159 518.898 385.95 520.929 384.873 521.871C383.797 522.812 382.664 523.276 381.453 523.276C380.243 523.276 379.497 523.071 379.228 522.667C378.959 522.263 378.83 520.05 378.83 516.014C378.83 511.979 379.088 507.605 379.626 502.897C380.164 498.188 381.708 488.026 384.264 472.421C386.82 456.816 389.315 443.772 391.737 433.279C394.158 422.785 395.368 416.122 395.368 413.297C395.368 411.885 395.368 410.47 395.368 409.057C392.879 409.865 390.407 410.686 387.919 411.494C382.941 413.108 380.241 414.112 379.837 414.515C379.434 414.919 377.426 424.875 373.794 444.382C370.161 463.888 368.054 473.768 367.516 474.037C366.978 474.307 366.256 474.101 365.314 473.428C364.372 472.756 363.087 472.216 361.472 471.812C359.858 471.409 357.979 471.279 355.827 471.414C353.674 471.548 351.59 472.012 349.573 472.819C347.555 473.627 345.523 474.783 343.506 476.263C341.488 477.743 338.864 480.496 335.635 484.532C332.406 488.568 329.935 493.687 328.186 499.875C326.437 506.063 325.228 509.562 324.555 510.369C323.882 511.176 322.52 512.18 320.503 513.391C319.494 513.996 318.49 514.589 317.481 515.195C317.077 514.051 316.666 512.918 316.263 511.775C315.455 509.488 314.452 507.404 313.241 505.52C312.03 503.637 310.821 502.146 309.61 501.07C308.399 499.993 306.855 499.119 304.972 498.446C303.089 497.773 300.206 497.439 296.305 497.439C292.404 497.439 288.958 498.261 285.998 499.875C283.038 501.489 280.361 503.497 277.94 505.918C275.518 508.34 273.153 511.375 270.866 515.007C268.579 518.639 266.7 522.678 265.22 527.118C263.74 531.557 262.66 536.189 261.988 541.032C261.315 545.875 260.98 550.712 260.98 555.555C260.98 560.398 261.597 564.513 262.808 567.877C264.018 571.24 265.562 574.122 267.446 576.544C269.329 578.965 270.797 580.586 271.873 581.393C272.949 582.2 274.493 582.998 276.511 583.805C278.529 584.613 280.818 585.023 283.374 585.024C285.93 585.024 288.014 584.765 289.629 584.227C291.243 583.689 293.145 582.738 295.298 581.393C297.45 580.047 299.663 578.169 301.95 575.747C304.237 573.326 306.527 570.085 308.814 566.05C311.101 562.014 312.645 558.85 313.452 556.563C314.259 554.276 315.057 551.317 315.864 547.685C316.672 544.052 317.288 539.831 317.692 534.988C318.095 530.145 319.175 526.905 320.924 525.291C322.673 523.676 323.73 523.083 324.133 523.487C324.537 523.891 324.819 526.18 324.953 530.35C325.088 534.521 325.346 537.48 325.75 539.228C326.153 540.977 327.104 543.319 328.584 546.279C330.064 549.239 331.866 551.604 334.019 553.353C336.171 555.102 337.92 556.159 339.266 556.563C340.611 556.966 342.231 557.172 344.115 557.172C345.998 557.172 347.618 556.913 348.963 556.375C350.309 555.837 352.187 554.499 354.609 552.346C357.03 550.194 359.396 546.953 361.683 542.648C362.827 540.496 363.96 538.336 365.103 536.183C366.179 537.125 367.259 538.076 368.336 539.017C370.488 540.901 371.956 541.981 372.763 542.25C373.57 542.519 375.267 542.519 377.823 542.25C380.379 541.981 382.386 541.365 383.866 540.423C385.346 539.481 386.761 538.219 388.106 536.605C389.451 534.99 390.737 532.29 391.948 528.523C393.158 524.756 394.033 522.467 394.571 521.66C394.84 521.256 395.099 520.845 395.368 520.442C396.309 521.383 397.26 522.335 398.202 523.276C400.086 525.16 401.706 526.369 403.051 526.907C404.396 527.445 405.735 527.727 407.08 527.727C408.425 527.727 409.764 527.521 411.109 527.118C412.454 526.714 414.075 525.892 415.958 524.682C417.841 523.471 419.925 521.669 422.212 519.247C424.499 516.826 425.632 515.282 425.632 514.609C425.632 513.936 425.838 513.32 426.241 512.782C426.645 512.244 427.056 512.038 427.46 512.173C427.863 512.307 428.069 512.642 428.069 513.18C428.069 513.718 427.734 515.004 427.061 517.022C426.389 519.04 424.434 522.075 421.205 526.111C417.976 530.146 413.268 536.991 407.08 546.677C400.892 556.363 396.724 561.688 394.571 562.63C392.419 563.571 389.049 564.651 384.475 565.862C379.901 567.073 372.904 569.697 363.487 573.733C354.07 577.769 345.939 581.449 339.078 584.813C332.217 588.176 326.224 591.34 321.112 594.3C315.999 597.259 311.162 600.294 306.588 603.388C302.014 606.483 297.641 609.723 293.47 613.086C289.3 616.45 285.39 619.925 281.758 623.557C278.126 627.189 275.038 630.841 272.482 634.473C271.204 636.289 269.918 638.092 268.64 639.908C270.456 639.706 272.282 639.5 274.098 639.299C277.73 638.895 282.362 638.713 288.012 638.713C293.663 638.713 298.036 639.1 301.13 639.908C304.224 640.715 306.514 641.126 307.994 641.126C309.474 641.126 311.017 639.84 312.632 637.284C314.246 634.728 315.943 632.438 317.692 630.421C319.44 628.403 322.528 625.52 326.968 621.753C331.407 617.987 337.736 613.537 345.942 608.425C354.148 603.313 360.324 600.096 364.494 598.75C368.664 597.405 372.445 595.914 375.808 594.3C377.49 593.493 379.163 592.694 380.844 591.887C380.979 592.156 381.108 592.414 381.243 592.683C381.512 593.222 381.177 594.583 380.235 596.736C379.294 598.888 378.419 602.105 377.612 606.41C376.805 610.715 376.417 614.496 376.417 617.724C376.417 620.953 376.752 623.965 377.424 626.79C378.097 629.615 378.972 631.904 380.048 633.653C381.124 635.402 382.592 636.893 384.475 638.104C386.359 639.315 388.648 640.037 391.339 640.306C394.029 640.575 396.395 640.446 398.413 639.908C400.431 639.369 402.515 638.442 404.667 637.097C406.82 635.751 408.493 634.466 409.704 633.255C410.914 632.044 412.382 630.219 414.131 627.797C415.88 625.375 417.576 622.622 419.191 619.528C420.805 616.434 423.018 610.851 425.843 602.779C428.668 594.708 430.547 588.121 431.489 583.009C432.43 577.897 433.381 574.398 434.323 572.515C435.265 570.631 451.937 563.17 484.358 550.121C516.779 537.072 535.894 529.123 541.678 526.298C547.463 523.473 551.837 521.671 554.796 520.863C557.756 520.056 560.638 519.029 563.463 517.818C566.288 516.607 574.624 512.31 588.481 504.911C602.337 497.512 611.084 492.599 614.716 490.177C618.349 487.756 621.924 485.132 625.421 482.306C628.919 479.481 632.547 476.135 636.314 472.234C640.081 468.332 643.115 464.499 645.403 460.732C647.69 456.965 649.363 453.185 650.439 449.418C651.515 445.651 652.055 441.407 652.055 436.699C652.055 431.99 651.592 428.644 650.65 426.626C649.708 424.608 648.552 422.911 647.206 421.566C645.861 420.221 644.188 419.012 642.17 417.935C640.152 416.859 637.939 416.061 635.517 415.523C633.096 414.985 630.73 414.703 628.443 414.703C626.156 414.703 624.483 414.855 623.407 415.124C622.331 415.393 621.045 415.986 619.565 416.928C618.085 417.87 617.134 418.281 616.731 418.146C616.327 418.012 616.145 416.597 616.145 413.906C616.145 411.216 615.605 408.181 614.529 404.818C613.453 401.454 611.422 397.903 608.462 394.136C605.502 390.369 602.285 386.665 598.788 383.033C595.29 379.4 593.541 376.312 593.54 373.756C593.54 371.2 594.468 368.089 596.351 364.457C598.235 360.825 599.391 357.866 599.795 355.579C600.198 353.292 599.917 351.49 598.975 350.144C598.033 348.799 596.566 347.924 594.548 347.521C593.539 347.319 592.664 347.216 591.924 347.216ZM589.488 390.903C590.093 391.441 590.71 391.981 591.315 392.52C592.526 393.596 593.993 395.756 595.742 398.985C597.491 402.213 598.724 405.02 599.397 407.441C600.069 409.863 600.404 412.434 600.404 415.124C600.404 417.815 599.993 420.234 599.186 422.386C598.379 424.539 597.222 426.341 595.742 427.821C594.263 429.3 593.13 430.122 592.322 430.257C591.515 430.391 590.23 430.11 588.481 429.437C586.732 428.764 585.317 428.43 584.241 428.43C583.165 428.43 582.237 428.764 581.43 429.437C580.623 430.11 579.877 431.19 579.205 432.669C578.532 434.149 578.197 435.488 578.197 436.699C578.197 437.909 578.403 439.066 578.806 440.142C579.21 441.218 580.085 442.504 581.43 443.984C582.775 445.463 583.779 446.338 584.452 446.607C585.124 446.876 586.463 447.058 588.481 447.193C590.499 447.327 592.324 447.274 593.939 447.005C595.553 446.736 597.713 445.915 600.404 444.569C603.094 443.224 606.053 441.011 609.282 437.917C612.511 434.822 615.469 432.328 618.16 430.444C620.85 428.561 622.934 427.352 624.414 426.813C625.894 426.275 627.773 426.07 630.06 426.204C632.346 426.339 633.891 426.621 634.698 427.024C635.505 427.428 636.509 428.302 637.719 429.648C638.93 430.993 639.676 433.153 639.945 436.113C640.214 439.073 639.955 442.031 639.148 444.991C638.341 447.95 636.721 451.297 634.299 455.063C631.878 458.83 628.919 462.329 625.421 465.558C621.924 468.786 618.296 471.692 614.529 474.248C610.762 476.804 606.236 479.558 600.99 482.517C595.743 485.477 589.902 488.512 583.444 491.606C576.987 494.7 569.526 497.993 561.05 501.491C552.575 504.989 540.329 509.621 524.321 515.405C508.312 521.19 497.404 525.305 491.62 527.727C485.835 530.148 478.039 533.031 468.218 536.394C458.398 539.757 451.682 542.305 448.05 544.054C444.418 545.803 441.717 546.754 439.968 546.888C439.094 546.955 438.219 547.032 437.345 547.099C438.219 541.247 439.094 535.383 439.968 529.531C441.717 517.827 444.47 509.027 448.237 503.107C452.004 497.188 455.503 492.328 458.731 488.561C460.346 486.677 461.966 484.799 463.58 482.915C465.06 484.53 466.551 486.15 468.031 487.764C470.991 490.993 473.128 492.872 474.473 493.41C475.818 493.948 477.697 494.229 480.118 494.23C482.54 494.23 485.035 493.871 487.591 493.199C490.147 492.526 492.178 491.804 493.658 490.997C495.137 490.19 498.149 487.489 502.723 482.915C507.297 478.341 510.385 474.79 511.999 472.234C513.614 469.678 515.645 465.692 518.066 460.311C520.488 454.929 523.112 447.597 525.937 438.315C528.762 429.032 530.717 421.7 531.793 416.319C532.869 410.938 533.539 408.132 533.808 407.863C534.077 407.594 534.875 407.441 536.22 407.441C537.566 407.441 538.927 407.647 540.273 408.05C541.618 408.454 542.211 409.199 542.076 410.276C541.942 411.352 540.862 414.645 538.844 420.161C536.826 425.676 535.487 430.126 534.815 433.489C534.142 436.853 533.808 439.993 533.808 442.953C533.808 445.913 534.142 449.153 534.815 452.651C535.487 456.148 536.286 458.491 537.228 459.702C538.169 460.912 539.326 461.94 540.671 462.747C542.016 463.554 543.355 464.147 544.7 464.55C546.045 464.954 547.871 465.16 550.158 465.16C552.445 465.16 554.194 464.901 555.405 464.363C556.616 463.825 558.289 462.463 560.441 460.311C562.594 458.158 564.678 455.61 566.696 452.651C568.714 449.691 570.539 446.603 572.154 443.375C573.768 440.146 575.7 435.285 577.986 428.828C580.273 422.371 582.305 415.449 584.053 408.05C585.802 400.651 587.141 395.943 588.083 393.925C588.553 392.916 589.017 391.912 589.488 390.903ZM492.44 424.19C493.112 424.324 493.911 425.07 494.852 426.415C495.794 427.76 496.076 429.791 495.672 432.482C495.269 435.173 493.854 438.519 491.432 442.555C489.011 446.591 486.798 449.831 484.78 452.253C482.762 454.674 481.142 456.347 479.931 457.289C479.325 457.76 478.709 458.223 478.104 458.694C478.104 457.685 478.104 456.681 478.104 455.673C478.104 453.655 478.849 449.897 480.329 444.382C481.809 438.866 483.147 434.904 484.358 432.482C485.569 430.061 487.06 428.03 488.809 426.415C490.558 424.801 491.767 424.055 492.44 424.19ZM427.061 453.658C428.81 453.793 430.072 454.256 430.88 455.063C431.687 455.871 432.303 456.898 432.707 458.109C433.11 459.319 433.316 461.585 433.316 464.949C433.316 468.312 432.981 472.016 432.308 476.052C431.636 480.088 430.632 484.127 429.287 488.163C427.941 492.198 426.45 495.621 424.836 498.446C423.222 501.271 421.549 503.378 419.8 504.724C418.051 506.069 416.507 506.738 415.162 506.738C413.816 506.738 412.531 506.251 411.32 505.309C410.109 504.368 409.105 502.771 408.298 500.484C407.491 498.197 407.08 494.957 407.08 490.786C407.08 486.616 407.338 482.859 407.877 479.495C408.415 476.132 409.031 473.303 409.704 471.016C410.376 468.729 411.38 466.31 412.725 463.754C414.071 461.198 415.615 459.114 417.364 457.5C419.112 455.885 420.733 454.805 422.212 454.267C423.692 453.729 425.312 453.524 427.061 453.658ZM355.522 484.321C356.33 484.254 357.178 484.254 358.052 484.321C359.801 484.455 361.063 484.737 361.87 485.141C362.678 485.544 363.347 486.137 363.885 486.944C364.423 487.752 364.781 489.448 364.916 492.004C365.05 494.56 364.768 498.447 364.096 503.693C363.423 508.94 362.549 513.8 361.472 518.24C360.396 522.679 359.316 525.896 358.24 527.914C357.163 529.932 355.749 531.682 354 533.161C352.251 534.641 350.654 535.463 349.174 535.597C347.694 535.732 346.28 535.45 344.934 534.778C343.589 534.105 342.433 532.896 341.491 531.147C340.549 529.398 340.009 526.363 339.875 522.058C339.74 517.753 339.817 514.331 340.086 511.775C340.355 509.219 340.818 506.336 341.491 503.107C342.164 499.879 343.038 496.973 344.115 494.417C345.191 491.861 346.606 489.724 348.354 487.975C350.103 486.226 351.723 485.146 353.203 484.743C353.943 484.541 354.715 484.388 355.522 484.321ZM292.861 507.746C293.669 507.611 294.954 507.74 296.703 508.144C298.452 508.547 299.92 509.346 301.13 510.557C302.341 511.767 303.368 513.182 304.176 514.796C304.983 516.411 305.241 517.826 304.972 519.036C304.703 520.247 303.159 520.863 300.334 520.863C297.509 520.863 295.296 520.582 293.681 520.044C292.067 519.505 290.91 518.912 290.238 518.24C289.565 517.567 289.154 516.282 289.02 514.398C288.885 512.515 288.962 511.229 289.231 510.557C289.5 509.884 289.963 509.291 290.636 508.753C291.309 508.215 292.054 507.88 292.861 507.746ZM280.868 525.15C281.406 525.184 282.102 525.3 282.976 525.501C284.725 525.905 286.885 527.114 289.441 529.132C291.997 531.15 295.162 532.078 298.928 531.943C302.695 531.809 304.832 532.296 305.37 533.372C305.908 534.448 305.985 536.403 305.581 539.228C305.177 542.053 304.097 545.4 302.348 549.301C300.6 553.202 298.516 556.648 296.094 559.608C293.672 562.567 291.794 564.37 290.449 565.042C289.103 565.715 287.559 565.997 285.811 565.862C284.062 565.728 282.7 565.241 281.758 564.433C280.816 563.626 279.889 562.364 278.947 560.615C278.005 558.866 277.336 557.17 276.933 555.555C276.529 553.941 276.529 549.233 276.933 541.43C277.336 533.628 277.8 529.072 278.338 527.727C278.876 526.382 279.34 525.56 279.744 525.291C279.945 525.156 280.33 525.116 280.868 525.15ZM423.829 540.025C424.232 540.159 424.438 540.958 424.438 542.437C424.438 543.917 424.232 545.332 423.829 546.677C423.425 548.023 422.68 549.643 421.603 551.526C420.527 553.41 419.447 554.566 418.371 554.97C417.295 555.373 416.496 555.297 415.958 554.759C415.42 554.221 416.5 551.597 419.191 546.888C421.881 542.18 423.425 539.89 423.829 540.025ZM417.364 576.356C418.305 576.491 418.792 576.955 418.792 577.762C418.792 578.569 417.971 582.068 416.356 588.256C414.742 594.444 413.198 599.282 411.718 602.779C410.238 606.277 408.413 609.107 406.26 611.259C404.108 613.412 402.64 614.621 401.833 614.89C401.026 615.159 399.817 615.235 398.202 615.101C396.588 614.966 395.431 614.092 394.759 612.477C394.086 610.863 393.828 608.961 393.962 606.808C394.097 604.656 394.637 601.515 395.579 597.345C396.52 593.175 397.395 590.14 398.202 588.256C399.009 586.373 400.424 584.547 402.442 582.798C404.46 581.049 407.213 579.505 410.711 578.16C414.209 576.815 416.422 576.222 417.364 576.356ZM355.382 369.915C346.574 371.305 348.487 380.278 344.185 388.514C341.369 393.903 337.314 398.574 334.346 403.881C328.69 413.995 323.922 424.583 318.324 434.731C310.892 448.203 302.554 461.162 295.274 474.717C292.166 480.504 300.061 485.445 303.59 479.308C321.357 448.407 338.526 417.151 355.78 385.961C358.841 380.427 365.026 368.392 355.382 369.915ZM196.211 456.282C190.157 456.013 183.905 456.476 177.448 457.687C170.991 458.898 166.001 460.107 162.503 461.318C159.005 462.529 155.301 464.096 151.4 465.979C147.499 467.863 142.738 470.669 137.087 474.436C131.437 478.202 126.113 482.447 121.135 487.155C116.158 491.864 112.119 496.443 109.025 500.882C105.93 505.322 103.306 510.623 101.154 516.811C99.0017 522.999 97.9449 530.331 97.9449 538.807C97.9449 547.282 98.5379 552.812 99.7486 555.368C100.959 557.924 102.374 560.008 103.988 561.622C105.603 563.237 107.763 564.781 110.453 566.26C113.144 567.74 115.563 568.691 117.715 569.095C119.868 569.498 121.822 569.628 123.571 569.493C125.32 569.358 126.993 569.024 128.608 568.486C130.222 567.948 131.842 567.126 133.457 566.05C135.071 564.973 136.539 563.711 137.884 562.231C139.229 560.752 140.644 558.667 142.124 555.977C143.603 553.286 144.76 550.844 145.567 548.692C146.374 546.539 146.838 544.737 146.973 543.257C147.107 541.778 147.031 540.979 146.762 540.845C146.493 540.71 145.025 541.638 142.334 543.656C139.644 545.674 137.149 547.012 134.862 547.685C132.575 548.357 130.415 548.692 128.397 548.692C126.379 548.692 124.706 548.51 123.36 548.106C122.015 547.703 120.471 546.828 118.722 545.483C116.974 544.137 115.559 542.312 114.483 540.025C113.406 537.738 112.79 534.908 112.655 531.545C112.521 528.182 112.856 524.888 113.663 521.66C114.47 518.431 115.885 514.88 117.903 510.978C119.92 507.077 121.952 503.836 123.97 501.28C125.987 498.724 128.33 496.177 131.02 493.62C133.711 491.064 136.411 488.775 139.102 486.757C141.792 484.739 145.162 482.579 149.198 480.292C153.234 478.005 158.482 475.715 164.939 473.428C171.397 471.141 176.234 469.727 179.463 469.189C182.691 468.65 186.243 468.392 190.144 468.392C194.046 468.392 197.415 468.803 200.24 469.61C203.065 470.417 205.613 471.421 207.9 472.632C210.187 473.843 212.424 475.257 214.576 476.872C216.729 478.486 219.018 480.776 221.44 483.735C223.861 486.695 225.869 490.041 227.483 493.808C229.097 497.575 230.436 502.952 231.512 509.947C232.588 516.943 233.128 524.351 233.128 532.154C233.128 539.957 232.741 546.49 231.934 551.737C231.127 556.984 229.97 562.079 228.49 567.057C227.011 572.034 225.467 576.355 223.852 579.987C222.238 583.619 220.565 586.837 218.816 589.662C217.067 592.487 214.701 595.522 211.742 598.75C208.782 601.979 206.569 604.139 205.089 605.216C203.609 606.292 201.784 607.349 199.631 608.425C197.479 609.501 194.596 610.528 190.964 611.47C187.332 612.412 182.882 613.005 177.635 613.274C172.389 613.543 169.377 613.49 168.57 613.086C167.763 612.683 168.227 610.188 169.976 605.614C171.724 601.04 173.01 597.077 173.817 593.714C174.624 590.351 175.423 585.825 176.23 580.175C177.037 574.524 177.988 565.648 179.064 553.541C180.141 541.433 181.608 530.009 183.492 519.247C185.375 508.485 186.995 500.871 188.341 496.431C189.686 491.992 190.948 488.699 192.159 486.546C193.369 484.394 194.655 482.515 196 480.901C197.346 479.287 198.015 478.206 198.015 477.668C198.015 477.399 198.015 477.141 198.015 476.872C197.88 476.872 197.751 476.872 197.617 476.872C197.348 476.872 196.138 477.594 193.986 479.074C191.833 480.554 189.62 482.25 187.333 484.133C185.046 486.017 182.346 488.641 179.252 492.004C176.158 495.367 173.61 498.79 171.592 502.288C169.574 505.785 167.825 509.49 166.345 513.391C164.865 517.292 163.579 521.255 162.503 525.291C161.427 529.326 160.294 534.909 159.083 542.039C157.872 549.169 156.921 555.909 156.249 562.231C155.576 568.554 155.036 575.886 154.632 584.227C154.229 592.568 153.56 599.025 152.618 603.599C151.676 608.173 151.007 610.85 150.603 611.657C150.2 612.465 149.66 613.081 148.987 613.485C148.314 613.888 146.154 614.428 142.522 615.101C138.89 615.773 135.467 616.777 132.238 618.123C129.01 619.468 125.975 621.088 123.15 622.972C120.325 624.855 118.111 626.528 116.497 628.008C114.883 629.488 113.21 631.572 111.461 634.262C109.712 636.953 108.297 640.322 107.221 644.358C106.145 648.394 105.734 651.224 106.003 652.838C106.272 654.452 107.017 655.714 108.228 656.656C109.439 657.598 111.112 658.138 113.264 658.272C115.417 658.407 117.448 658.202 119.331 657.663C121.215 657.125 124.714 655.452 129.826 652.627C134.938 649.802 139.904 646.227 144.747 641.922C149.59 637.617 153.347 633.526 156.038 629.624C158.728 625.723 161.429 623.692 164.119 623.557C166.81 623.423 169.845 623.628 173.208 624.166C176.571 624.704 180.123 624.986 183.89 624.986C187.657 624.986 191.643 624.651 195.813 623.979C199.983 623.306 203.74 622.279 207.104 620.934C210.467 619.588 214.429 617.246 219.003 613.883C223.577 610.52 227.205 607.561 229.896 605.005C232.586 602.449 235.363 599.155 238.188 595.12C241.013 591.084 243.432 586.839 245.45 582.4C247.468 577.961 249.217 573.176 250.697 568.064C252.177 562.952 253.257 558.602 253.93 554.97C254.602 551.337 255.195 547.017 255.733 542.039C256.271 537.062 256.606 531.89 256.741 526.509C256.875 521.128 256.464 515.545 255.522 509.76C254.581 503.975 253.037 498.445 250.884 493.199C248.732 487.952 246.853 484.119 245.239 481.697C243.625 479.276 241.541 476.804 238.985 474.248C236.429 471.692 233.728 469.403 230.903 467.385C228.078 465.367 225.477 463.747 223.056 462.536C220.634 461.325 217.059 460.04 212.351 458.694C207.642 457.349 202.265 456.551 196.211 456.282ZM142.334 624.588C143.68 624.588 144.402 624.846 144.536 625.384C144.671 625.922 143.203 627.801 140.109 631.03C137.015 634.258 133.98 636.959 131.02 639.111C128.061 641.264 125.977 642.396 124.766 642.531C123.555 642.666 122.757 642.537 122.353 642.133C121.95 641.729 121.82 640.931 121.955 639.72C122.09 638.509 122.759 637.095 123.97 635.48C125.18 633.866 127.135 632.04 129.826 630.022C132.516 628.004 134.935 626.59 137.087 625.782C139.24 624.975 140.989 624.588 142.334 624.588ZM458.24 579.285C457.423 579.148 456.458 579.224 455.311 579.495C448.075 581.208 451.494 590.083 450.275 596.923C446.901 615.867 442.44 634.612 438.984 653.541C437.669 660.747 445.323 665.108 447.207 656.188C452.132 632.864 456.56 609.449 460.887 586.007C461.636 581.944 460.688 579.693 458.24 579.285ZM358.216 614.89C357.671 614.872 357.019 614.988 356.272 615.265C347.031 618.692 347.603 633.933 346.387 641.828C345.805 645.602 348.252 648.123 352.149 646.888C353.059 646.6 366.402 615.166 358.216 614.89ZM210.852 632.412C204.411 631.845 206.056 637.148 202.887 642.929C195.037 657.251 186.079 670.924 178.338 685.305C174.224 692.947 181.062 699.763 186.654 690.247C195.943 674.441 204.775 658.358 213.311 642.133C216.44 636.185 216.497 632.908 210.852 632.412ZM277.214 650.941C276.728 650.898 276.177 650.927 275.574 651.034C269.374 652.141 271.724 656.229 269.085 662.559C263.944 674.896 257.944 686.871 252.829 699.219C251.303 702.903 255.642 709.648 259.411 705.59C262.64 702.114 262.25 698.944 264.354 693.878C269.201 682.205 274.499 670.726 279.439 659.092C281.19 654.969 280.615 651.237 277.214 650.941ZM401.81 651.409C401.358 651.406 400.854 651.474 400.31 651.62C393.206 653.524 395.662 664.319 394.29 670.453C391.777 681.695 389.039 692.894 386.537 704.138C384.825 711.828 393.553 712.901 395.157 705.684C398.633 690.043 401.673 674.302 405.089 658.647C405.915 654.862 404.97 651.428 401.81 651.409ZM344.208 660.076C343.622 660.049 342.91 660.164 342.077 660.474C333.765 663.575 335.324 676.764 333.222 683.829C322.638 719.408 310.911 754.654 300.217 790.2C297.493 799.255 304.797 803.942 307.338 795.799C314.404 773.155 320.612 750.254 327.6 727.586C333.357 708.913 339.726 690.435 345.567 671.789C346.772 667.943 348.311 660.27 344.208 660.076Z" fill="#FFFFFF" fill-rule="nonzero" opacity="1" stroke="none" vectornator:layerName="path"/>
</g>
</svg>
