<?xml version="1.0" encoding="UTF-8" standalone="no"?>
<!DOCTYPE svg PUBLIC "-//W3C//DTD SVG 1.1//EN" "http://www.w3.org/Graphics/SVG/1.1/DTD/svg11.dtd">
<!-- Created with Vectornator (http://vectornator.io/) -->
<svg height="100%" stroke-miterlimit="10" style="fill-rule:nonzero;clip-rule:evenodd;stroke-linecap:round;stroke-linejoin:round;" version="1.1" viewBox="0 0 750 1000" width="100%" xml:space="preserve" xmlns="http://www.w3.org/2000/svg" xmlns:vectornator="http://vectornator.io" xmlns:xlink="http://www.w3.org/1999/xlink">
<defs/>
<g id="Layer-1" vectornator:layerName="Layer 1">
<path d="M367.916 200C365.799 207.994 362.608 215.775 361.567 223.979C358.394 248.998 362.32 276.416 350.811 298.856C347.712 304.898 344.485 311.266 339.319 315.673C315.602 335.91 288.868 352.407 264.81 372.237C257.428 378.322 251.037 385.597 245.264 393.226C238.822 401.74 236.844 413.973 228.342 420.432C219.528 427.129 206.935 426.234 196.597 430.192C183.841 435.076 171.655 441.331 159.185 446.904C189.151 445.042 189.168 445.041 219.134 443.179C216.435 455.767 212.451 468.163 211.027 480.958C206.841 518.558 215.42 546.257 229.261 580.313C226.147 570.332 222.083 560.581 219.921 550.352C212.056 513.138 217.975 478.534 226.899 442.366C234.384 442.524 241.893 443.047 249.41 443.651C237.122 467.301 234.13 514.717 243.716 538.178C247.984 527.838 243.478 515.802 243.874 504.623C244.36 490.899 247.802 476.736 251.85 463.669C254.176 456.157 260.542 448.744 257.07 444.254C274.658 445.696 292.239 446.971 309.516 444.097C322.123 442 330.462 429.341 341.707 423.266C352.159 417.619 363.501 413.783 374.397 409.046C352.166 408.357 329.908 405.694 307.705 407C298.533 407.539 289.425 408.766 280.342 410.174C286.102 408.103 289.11 403.936 296.896 396.768C304.571 389.702 318.76 380.221 327.356 375.228C354.602 359.403 383.826 353.581 414.354 346.946C411.64 345.544 412.211 345.446 408.398 345.923C395.548 347.529 382.64 348.791 369.91 351.17C328.162 358.973 294.778 380.132 267.381 411.827C268.514 411.826 269.404 411.76 270.398 411.722C259.768 413.532 249.152 415.499 238.496 417.048C248.524 401.471 255.347 388.034 270.293 376.252C289.991 360.723 311.971 348.231 331.79 332.858C339.19 327.118 346.73 320.995 351.729 313.076C370.01 284.116 367.624 246.292 371.616 212.278C384.916 229.202 399.621 245.108 411.52 263.044C424.011 281.873 428.998 305.842 444.551 322.232C452.757 330.88 466.619 332.357 478.474 333.618C492.567 335.119 506.85 332.438 520.871 330.365C555.463 325.25 589.797 318.556 624.161 312.079C627.219 311.502 630.357 310.92 633.474 310.321C591.515 324.85 549.63 339.653 508.461 356.286C497.43 360.743 487.179 373.521 487.866 385.618C518.995 389.792 548.963 377.92 578.222 390.917C551.474 393.889 523.602 391.564 497.993 399.837C486.601 403.518 483.52 420.543 472.439 425.076C455.451 432.026 435.92 429.116 417.895 432.58C360.498 443.609 310.603 480.158 287.688 533.561C288.283 533.584 289.032 533.927 289.629 533.954C286.082 544.708 284.196 555.971 283.988 566.775C288.437 561.247 290.254 542.435 293.643 534.348C299.126 521.265 317.371 509.83 316.311 494.575C332.887 477.651 354.842 463.709 375.63 455.142C391.705 448.518 408.007 442.118 424.927 438.115C441.076 434.294 459.073 438.386 474.302 431.793C486.14 426.667 489.674 408.611 501.981 404.743C531.002 395.622 562.445 397.999 592.678 394.617C562.067 374.381 531.823 378.992 496.13 380.764C499.429 374.499 502.338 364.523 510.245 361.481C558.04 343.089 606.757 327.15 654.568 308.799C657.408 307.709 659.433 305.123 661.861 303.29C659.502 303.806 657.113 304.204 654.725 304.628C659.106 302.919 663.299 300.845 667.082 298.069C617.152 306.857 567.395 316.795 517.276 324.436C504.814 326.336 492.08 327.781 479.523 326.666C470.845 325.896 462.848 321.6 454.573 318.874C452.828 318.299 450.466 318.301 449.483 316.749C436.003 295.464 426.209 271.92 411.782 251.265C398.906 232.829 382.531 217.091 367.916 200ZM382.084 248.877C381.864 249.316 381.404 249.698 381.402 250.189C381.328 263.012 382.178 276.126 379.198 288.598C375.565 303.798 369.153 316.438 360.859 329.421C376.398 327.752 391.159 320.046 407.139 318.166C412.691 317.512 419.091 320.006 423.877 317.116C414.877 292.364 397.422 270.017 382.084 248.877ZM482.199 363.737C478.363 363.457 474.415 367.884 471.049 370.401C468.043 372.648 464.92 375.174 462.47 378.088C459.841 381.214 453.541 388.61 457.564 389.317C461.171 389.951 474.555 389.917 475.535 387.848C477.536 383.623 477.571 378.678 479.234 374.31C480.557 370.838 487.195 365.722 483.826 364.157C483.285 363.906 482.747 363.777 482.199 363.737ZM492.457 450.866C490.573 453.881 492.534 457.091 491.828 460.389C490.862 464.901 487.482 467.929 484.455 471.146C486.324 472.937 490.228 475.78 491.224 478.833C492.119 481.575 490.09 487.494 492.746 488.672C507.184 495.073 495.041 470.366 495.265 469.834C496.965 465.781 503.181 455.491 492.457 450.866ZM475.483 451.154C469.891 451.743 475.313 461.235 471.233 467.158C469.523 469.64 465.308 471.6 466.012 474.53C466.719 477.479 471.883 477.643 473.384 480.381C474.828 483.015 473.992 486.256 475.089 488.986C476.301 492.002 482.146 490.776 482.671 487.832C483.638 482.417 476.475 473.208 476.768 472.091C478.261 466.408 485.947 453.242 478.605 451.469C477.296 451.153 476.282 451.07 475.483 451.154ZM509.038 451.784C507.042 461.144 509.619 463.117 501.666 469.939C506.256 477.633 504.159 489.893 514.653 489.013C515.124 484.994 515.52 480.567 513.971 476.682C513.28 474.95 511.104 473.318 511.741 471.566C515.054 462.446 522.161 453.658 509.038 451.784ZM526.774 454.198C525.883 454.275 524.791 454.575 523.494 455.169C515.519 458.82 520.186 463.017 517.67 470.857C516.997 472.955 519.27 474.956 519.769 477.102C520.079 478.436 519.369 489.438 519.664 489.642C521.523 490.928 524.779 493.563 526.118 491.741C530.428 485.873 524.239 477.191 526.564 472.091C529.934 464.694 533.01 453.66 526.774 454.198ZM459.846 454.854C450.922 456.748 456.89 460.172 455.203 467.552C454.351 471.274 451.882 474.294 449.719 477.311C452.143 479.873 455.581 481.653 457.301 484.762C458.792 487.457 457.755 491.344 459.794 493.63C461.977 496.078 467.444 493.414 467.323 490.298C467.137 485.485 461.637 479.813 459.846 476.393C458.393 473.617 465.812 463.423 459.846 454.854ZM442.95 459.471C434.824 462.652 438.345 473.792 433.427 482.847C436.283 485.245 440.197 486.803 442.032 490.219C443.292 492.564 441.957 497.744 444.472 498.825C447.204 499.998 451.508 497.033 451.057 493.971C450.179 488.005 446.535 486.02 443.554 480.696C442.046 478.004 447.803 467.216 442.95 459.471ZM537.95 461.937C536.562 469.107 536.947 470.582 531.837 474.53C531.376 474.887 530.917 475.444 530.945 476.026C531.234 481.983 531.933 488.193 530.263 493.919C533.03 495.763 533.032 495.747 535.799 497.592C541.117 492.61 537.584 485.884 539.498 478.833C542.216 468.82 550.575 467.391 537.95 461.937ZM425.74 465.322C416.376 470.501 421.594 478.744 417.738 488.383C423.045 492.243 426.972 497.957 430.043 503.757C441.68 499.676 429.559 495.235 427.262 485.602C425.688 479.004 429.491 470.973 425.74 465.322ZM406.693 471.33C401.605 471.637 404.229 484.4 404.2 485.602C404.132 488.45 400.716 491.471 401.76 494.207C402.674 496.601 405.909 497.212 407.9 498.825C410.47 500.908 409.47 506.482 412.517 507.745C426.687 513.617 411.641 494.578 410.654 491.453C409.997 489.37 413.612 474.13 409.369 472.012C408.296 471.477 407.42 471.286 406.693 471.33ZM551.488 473.927C549.954 477.607 545.967 479.691 543.171 482.532C540.765 484.977 544.37 490.422 543.171 493.604C542.282 495.963 539.588 497.86 539.787 500.373C539.958 502.545 542.654 503.639 544.089 505.279C546.912 501.868 547.731 497.513 550.543 494.207C557.263 503.992 542.456 503.804 550.255 514.199C555.297 508.685 552.928 511.561 557.312 505.594C559.086 513.153 548.951 516.881 554.242 524.352C559.672 519.831 556.94 522.644 561.929 515.432C565.451 523.611 551.634 525.154 556.394 533.876C560.714 531.095 558.415 532.777 563.163 528.655C566.543 534.271 556.639 538.446 557.312 544.632C565.758 542.75 572.099 527.601 570.535 519.735C569.269 522.223 568.527 527.189 564.999 526.189C569.041 518.854 573.918 513.357 569.013 505.908C566.066 511.081 568.96 513 562.848 515.117C563.865 507.955 570.187 500.786 564.684 494.207C563.21 496.304 564.027 499.554 562.244 501.291C560.468 503.022 558.02 502.89 557.732 500.241C557.386 497.072 561.773 495.17 562.061 491.426C562.338 487.817 560.827 486.812 558.86 483.765C555.323 490.506 559.371 489.074 550.858 494.207C549.97 485.193 557.669 480.816 551.488 473.927ZM389.22 478.676C387.628 478.744 385.834 479.497 385.835 480.801C385.839 484.993 386.962 489.111 387.305 493.289C387.487 495.511 384.739 498.336 385.757 500.373C387.193 503.247 391.39 503.718 392.867 506.722C394.388 509.817 394.469 516.067 397.904 515.747C398.594 515.682 404.022 515.281 403.728 512.572C403.052 506.343 394.815 502.339 394.362 497.592C393.902 492.776 396.796 480.8 390.689 478.833C390.275 478.7 389.75 478.653 389.22 478.676ZM373.452 486.232C360.86 493.508 375.309 514.004 381.454 522.804C395.171 518.29 381.284 512.947 378.07 504.36C375.643 497.879 378.626 491.788 373.452 486.232ZM356.556 493.289C348.947 493.674 352.329 496.511 353.487 504.36C354.855 513.642 352.266 512.19 359.101 518.974C359.521 519.391 359.998 519.805 360.256 520.338C361.616 523.158 361.345 527.405 364.086 528.917C371.353 532.927 370.445 522.875 368.677 519.656C367.231 517.022 362.5 513.432 361.751 510.919C360.364 506.269 363.081 492.959 356.556 493.289ZM342.1 500.058C328.885 502.069 339.234 519.01 343.648 525.874C345.573 528.867 345.186 534.277 348.581 535.345C351.498 536.263 355.687 533.687 354.72 530.36C353.233 525.246 347.103 522.122 346.114 517.19C345.245 512.847 345.028 508.406 344.252 504.046C343.674 500.801 344.248 499.731 342.1 500.058ZM327.356 506.197C313.112 506.168 324.833 524.463 328.117 533.089C329.336 536.291 328.837 542.57 332.262 542.481C335.756 542.39 339.51 540.963 338.768 537.129C337.588 531.018 330.204 527.076 329.796 520.968C329.448 515.762 332.784 506.208 327.356 506.197ZM311.352 523.119C309.356 562.549 317.211 597.682 347.872 625.622C357.572 634.461 371.745 641.741 385.258 638.451C388.793 637.591 392.267 636.015 395.097 633.729C413.98 618.474 431.213 601.233 450.139 586.032C457.77 579.904 466.034 574.499 474.643 569.845C487.148 563.085 499.634 564.364 512.475 564.073C489.62 568.89 463.81 598.005 451.608 611.874C442.376 622.369 433.36 633.061 424.743 644.066C420.931 648.934 419.185 652.681 420.204 658.39C422.941 658.414 422.924 658.42 425.661 658.443C426.86 649.378 425.566 650.654 432.404 642.465C442.406 630.486 452.718 618.739 463.231 607.204C474.878 594.426 488.032 582.891 502.191 572.967C508.479 568.56 516.335 567.761 522.891 563.706C522.126 563.573 521.333 563.606 520.556 563.548C521.841 563.414 523.118 563.289 524.412 563.076C471.621 538.504 429.939 597.207 395.149 625.989C375.688 642.09 351.915 624.413 339.346 608.516C335.596 603.774 331.944 598.866 329.297 593.431C325.055 584.72 321.198 575.717 318.803 566.329C315.191 552.168 313.835 537.521 311.352 523.119ZM566.862 538.493C560.259 544.26 556.621 550.751 553.009 558.773C558.94 554.312 568.758 547.649 566.862 538.493ZM561.011 556.333C556.143 558.738 549.695 563.517 549.363 569.346C556.944 570.634 559.671 561.896 561.011 556.333ZM555.475 569.845C552.66 568.179 537.511 581.891 542.515 583.278C547.236 584.586 560.382 572.748 555.475 569.845ZM545.847 584.589C541.08 584.34 534.743 592.057 532.729 594.743C536.258 600.036 546.322 588.152 547.788 585.219C547.19 584.82 546.528 584.625 545.847 584.589ZM530.709 598.573C527.092 598.944 524.103 603.881 521.028 606.444C524.158 611.138 532.255 601.53 534.566 599.99C533.191 598.844 531.915 598.449 530.709 598.573ZM292.358 601.249C285.558 601.304 278.527 603.83 271.946 605.683C257.832 609.656 242.934 624.619 234.35 634.936C223.039 648.53 212.928 663.081 202.212 677.149C192.696 655.396 191.406 630.913 186.523 607.677C172.205 607.764 172.217 607.747 157.899 607.834C156.267 635.444 145.344 661.758 137.042 688.142C130.061 710.328 123.659 733.265 111.515 753.101C130.208 749.658 144.826 742.781 151.288 723.271C158.847 700.451 165.556 677.357 172.696 654.403C183.132 678.044 179.03 705.816 189.618 729.41C217.904 691.748 217.897 691.75 246.183 654.088C233.116 697.592 233.118 697.607 220.052 741.112C234.374 741.334 234.379 741.335 248.701 741.558C248.978 731.704 248.129 731.731 250.538 723.953C260.095 693.095 269.178 662.065 279.554 631.473C283.804 618.943 290.779 612.421 299.048 602.141C296.861 601.497 294.624 601.231 292.358 601.249ZM149.95 603.977C144.134 607.532 147.416 620.721 145.516 627.065C135.129 661.749 124.472 696.363 113.377 730.827C108.991 744.453 93.6372 754.969 82.9179 762.94C91.3866 763.057 99.8927 763.889 108.34 763.281C115.793 762.744 147.185 753.814 145.962 742.03C131.839 753.148 116.456 759.642 97.9772 758.007C107.7 748.291 115.361 742.033 119.438 729.096C130.298 694.63 141.13 660.176 151.445 625.543C152.379 622.409 154.118 612.544 153.544 608.411C153.283 606.526 151.574 602.985 149.95 603.977ZM257.175 605.735C254.259 605.802 251.215 607.893 249.016 609.618C244.612 613.074 240.271 616.59 236.029 620.244C226.356 628.577 198.466 652.674 204.363 666.707C223.245 644.935 236.701 624.012 260.009 606.444C259.096 605.929 258.148 605.713 257.175 605.735ZM519.428 610.143C515.347 610.02 504.574 618.195 501.981 620.27C502.596 620.885 502.599 620.888 503.214 621.503C509.226 618.497 515.493 614.943 520.739 610.746C520.474 610.348 520.01 610.16 519.428 610.143ZM316.284 625.202C300.227 626.804 303.147 648.552 319.957 648.552C326.82 648.552 329.192 639.816 329.192 634.726C329.192 628.091 321.342 624.698 316.284 625.202ZM629.565 625.202C613.728 626.771 616.17 648.552 633.264 648.552C640.042 648.552 642.473 639.686 642.473 634.726C642.473 628.091 634.623 624.701 629.565 625.202ZM302.747 628.272C289.064 643.966 305.381 664.546 323.342 652.855C320.125 651.93 317.264 653.534 314.133 652.855C301.819 650.183 301.197 638.426 302.747 628.272ZM616.054 628.272C599.636 637.894 619.037 666.948 634.497 654.088C631.243 651.874 627.27 653.032 623.715 651.622C612.598 647.211 616.468 636.948 616.054 628.272ZM608.367 660.227C601.669 661.623 598.189 672.193 596.718 677.385C592.972 690.609 590.731 702.387 584.072 714.351C603.117 701.975 594.594 673.328 611.436 660.253C610.344 660.036 609.324 660.027 608.367 660.227ZM383.028 661.303C378.399 661.672 372.532 663.394 369.7 664.949C358.291 671.215 346.887 681.645 341.917 694.018C335.932 708.916 341.325 713.148 324.522 719.415C315.294 722.857 303.258 721.734 306.315 708.606C309.884 693.28 315.225 678.417 319.669 663.323C313.506 663.342 306.913 661.133 301.173 663.375C297.675 664.742 296.434 669.374 295.138 672.899C291.154 683.735 288.174 694.918 285.458 706.139C281.106 724.117 290.725 737.121 310.198 738.199C323.392 738.93 329.347 733.356 340.867 727.259C360.493 746.904 371.379 742.468 394.073 728.492C410.856 744.117 418.746 741.656 439.251 733.424C439.559 734.808 439.573 734.796 439.881 736.179C450.027 736.179 450.015 736.179 460.161 736.179C465.51 720.528 469.864 704.489 476.217 689.217C477.506 686.119 480.081 683.55 482.855 681.661C489.371 677.226 504.945 675.646 502.296 689.139C499.152 705.148 493.267 720.499 488.758 736.179C499.188 736.118 499.186 736.109 509.615 736.048C514.488 720.924 518.243 705.406 524.229 690.687C526.759 684.463 546.058 669.974 550.569 682.842C556.708 700.352 530.105 723.975 557.417 737.202C568.744 742.688 581.443 739.698 592.153 734.658C595.092 733.274 597.171 728.819 600.365 729.41C606.067 730.467 609.336 737.435 614.952 738.882C623.346 741.044 632.289 739.55 640.951 739.878C643.565 731.731 643.559 731.734 646.172 723.586C632.898 723.087 613.648 725.907 619.386 706.585C623.315 693.355 628.519 680.522 632.425 667.284C632.858 665.818 632.378 664.222 632.346 662.693C626.424 662.693 617.399 659.988 612.302 665.343C603.942 674.125 604.633 688.339 600.575 699.764C595.904 712.915 587.141 722.743 572.371 722.956C567.732 723.024 565.746 717.284 566.232 713.748C568.873 694.53 585.622 665.622 553.14 661.853C550.452 661.541 547.545 661.568 545.06 662.641C537.71 665.811 531.107 670.48 524.124 674.394C509.913 658.118 502.12 658.991 482.619 668.229C482.465 665.462 482.458 665.46 482.304 662.693C476.726 662.826 470.895 661.458 465.566 663.113C462.601 664.033 460.366 667.009 459.19 669.882C455.149 679.76 453.696 690.54 450.218 700.63C447.775 707.716 442.977 716.973 435.946 720.884C431.828 723.174 420.799 727.214 416.662 720.595C414.636 717.354 413.35 713.205 414.039 709.445C416.955 693.521 422.855 678.27 427.262 662.693C422.035 662.693 416.704 661.572 411.599 662.693C408.885 663.289 407.631 667.769 404.856 667.625C398.594 667.301 393.231 662.726 387.095 661.434C385.987 661.2 384.571 661.179 383.028 661.303ZM386.334 677.385C393.368 677.364 399.817 683.144 397.878 691.395C394.241 706.869 389.741 718.341 373.636 723.875C363.363 727.405 355.829 716.238 357.265 707.32C359.538 693.197 369.707 681.127 383.29 677.752C384.296 677.502 385.329 677.388 386.334 677.385ZM294.456 662.09C282.016 669.588 279.602 688.828 276.039 700.735C264.156 740.45 302.237 758.689 333.18 738.331C324.799 740.573 322.729 741.503 314.133 742.318C261.365 747.322 284.237 687.184 294.456 662.09ZM457.406 662.09C441.121 676.175 443.504 698.994 432.194 716.817C448.227 712.43 453.279 675.303 457.406 662.09ZM354.72 668.229C342.108 679.579 327.64 693.551 327.225 712.174C336.091 708.988 333.357 700.167 337.483 692.838C342.511 683.908 348.633 676.366 354.72 668.229ZM172.093 672.243C169.054 676.028 168.79 680.985 169.679 685.649C171.639 695.923 174.141 706.088 176.186 716.345C177.379 722.33 177.638 737.217 182.85 744.785C189.172 739.817 186.102 735.89 184.371 727.259C181.981 715.335 179.12 703.519 176.684 691.605C175.465 685.64 175.435 677.884 172.093 672.243ZM234.193 677.752C221.124 693.02 218.401 712.703 212.68 731.562C210.685 738.137 207.308 744.413 206.514 751.239C220.554 751.546 234.606 751.969 248.649 752.157C252.019 752.202 253.664 748.868 255.391 746.621C238.546 744.704 215.38 745.299 215.38 745.299C215.38 745.299 216.75 736.384 218.189 731.877C223.47 715.339 228.618 698.756 233.537 682.107C233.951 680.705 233.975 679.199 234.193 677.752ZM493.848 682.291C492.695 682.071 491.21 682.509 489.361 683.918C491.402 687.591 490.722 692.566 489.676 696.826C487.53 705.565 484.593 714.104 481.911 722.694C479.952 728.964 477.656 735.116 475.745 741.4C475.238 743.068 474.107 746.588 475.85 746.621C486.199 746.82 496.54 746.626 506.887 746.332C508.711 746.281 509.837 744.173 511.19 742.948C508.972 740.341 504.642 740.549 501.22 740.534C495.118 740.508 489.009 740.712 482.907 740.797C482.415 736.624 484.417 732.497 485.688 728.492C489.409 716.779 492.97 705.009 496.655 693.284C497.848 689.489 497.307 682.95 493.848 682.291ZM385.389 682.606C384.441 682.69 383.387 682.898 382.241 683.236C379.138 684.149 376.089 686.91 373.767 688.535C376.6 687.924 378.745 687.605 380.562 687.433C380.399 689.708 382.306 703.05 383.212 704.539C382.908 706.495 382.775 708.514 383.054 710.626C392.179 706.934 399.609 681.342 385.389 682.606ZM543.46 682.895C541.345 682.85 538.184 683.887 533.647 686.384C535.207 687.023 537.027 686.499 538.685 686.804C544.136 687.805 535.588 708.137 534.959 713.223C532.882 730.022 541.881 745.159 559.122 748.274C566.078 749.531 574.679 748.62 581.291 746.621C586.483 745.051 590.953 740.447 596.377 740.482C600.169 740.506 602.437 745.095 605.822 746.805C615.939 751.916 628.384 749.877 639.718 749.717C642.094 749.683 644.526 745.385 645.254 744.47C637.587 744.47 622.9 745.247 613.876 743.394C608.687 742.329 605.347 735.581 600.05 735.576C595.648 735.572 592.204 739.626 588.06 741.112C575.365 745.661 561.536 747.314 550.779 738.199C543.079 731.674 538.525 721.065 540.679 710.94C542.287 703.377 552.62 683.09 543.46 682.895ZM339.634 733.713C337.175 735.25 337.188 735.245 334.728 736.783C348.786 751.599 367.195 752.165 383.92 741.4C366.651 745.96 353.641 746.226 339.634 733.713ZM393.129 734.946C391.22 736.415 391.07 736.542 389.325 737.885C389.26 737.826 389.206 737.786 389.141 737.727C386.403 740.465 391.874 755.861 393.05 759.818C396.865 772.65 406.366 801.24 424.323 799.958C416.785 782.237 414.606 767.972 412.281 748.694C410.746 748.432 409.453 748.096 408.083 747.775C413.328 748.12 418.943 746.818 428.18 746.621C438.016 746.412 447.869 746.831 457.695 746.332C460.46 746.192 462.094 742.967 464.149 741.112C453.901 741.009 443.676 740.786 433.427 740.797C431.129 740.799 424.323 743.236 424.192 743.263C410.426 746.15 404.354 742.379 393.129 734.946Z" fill="#FFFFFF" fill-rule="nonzero" opacity="1" stroke="none" vectornator:layerName="path"/>
</g>
</svg>
