<?xml version="1.0" encoding="UTF-8" standalone="no"?>
<!DOCTYPE svg PUBLIC "-//W3C//DTD SVG 1.1//EN" "http://www.w3.org/Graphics/SVG/1.1/DTD/svg11.dtd">
<!-- Created with Vectornator (http://vectornator.io/) -->
<svg height="100%" stroke-miterlimit="10" style="fill-rule:nonzero;clip-rule:evenodd;stroke-linecap:round;stroke-linejoin:round;" version="1.1" viewBox="0 0 750 1000" width="100%" xml:space="preserve" xmlns="http://www.w3.org/2000/svg" xmlns:vectornator="http://vectornator.io" xmlns:xlink="http://www.w3.org/1999/xlink">
<defs/>
<g id="Layer-1" vectornator:layerName="Layer 1">
<path d="M320.838 200C287.217 202.586 263.282 221.198 236.676 240.2C206.216 261.959 176.53 285.651 148.635 310.61C125.586 331.23 106.58 352.983 101.852 383.723C96.9863 415.345 108.269 441.415 117.838 470.119C126.527 496.184 137.368 521.205 147.518 546.582C166.295 593.526 178.694 645.069 204.762 688.517C251.438 766.312 336.338 810.096 426.981 798.011C525.309 784.9 577.889 691.83 611.351 608.175C627.031 568.977 643.547 530.96 647.614 488.279C648.084 483.337 648.685 478.375 648.73 473.41C649.078 434.534 649.318 395.683 649.318 356.805C649.318 335.873 644.234 312.609 634.978 294.095C620.889 265.918 578.172 231.212 544.174 229.151C533.734 228.519 524.996 228.581 515.023 230.797C512.997 231.246 507.037 234.313 505.149 233.559C502.236 232.393 499.008 227.865 496.333 225.86C487.716 219.396 476.297 211.374 466.065 208.816C429.374 199.642 408.672 202.602 377.554 218.161C365.355 205.964 346.837 201.589 320.838 200ZM316.43 224.743C332.8 224.743 345.885 226.078 359.334 234.147C363.822 236.84 368.515 246.986 373.087 247.9C375.186 248.321 381.698 242.958 383.549 241.846C393.646 235.788 403.394 230.376 414.874 227.506C436.181 222.177 468.656 229.511 484.814 245.666C490.048 250.9 493.47 257.613 498.566 262.71C509.089 257.448 523.047 252.249 534.829 252.249C570.785 252.249 613.485 289.939 621.813 323.246C624.931 335.725 626.162 348.904 626.162 361.742C626.162 392.183 625.928 422.633 625.633 453.075C625.49 467.987 624.71 482.377 622.87 497.095C619.884 520.98 613.483 543.928 604.71 565.859C602.332 571.806 599.169 585.188 594.307 588.428C590.666 584.789 591.632 572.392 590.428 566.976C586.527 549.427 580.497 533.362 573.913 516.902C568.436 503.21 556.84 487.192 546.407 476.76C542.097 472.449 537.635 468.231 533.183 464.065C533.005 463.9 526.102 458.103 526.072 457.424C525.203 436.535 526.42 415.678 526.601 394.772C526.815 369.875 527.827 335.428 526.601 307.848C525.96 293.407 503.539 298.732 503.503 301.794C502.96 347.821 503.866 393.822 503.503 439.851C503.498 440.37 502.754 440.601 502.387 440.967C483.92 428.656 462.068 421.354 439.676 417.282C432.872 416.045 425.642 415.279 418.753 415.108C413.956 414.987 404.554 418.262 404.472 413.462C403.748 371.473 404.064 329.45 403.884 287.454C403.871 284.672 401.06 278.9 397.83 278.696C395.446 278.548 379.739 280.153 379.67 285.808C379.126 329.817 380.034 373.859 379.67 417.87C379.651 420.268 372.873 420.231 371.5 420.573C362.019 422.943 352.668 425.186 343.407 428.273C319.71 436.172 298.679 452.179 280.109 469.061C279.742 468.694 279.057 468.463 279.051 467.944C278.506 413.114 278.826 358.27 278.463 303.44C278.452 301.969 277.24 299.612 276.289 298.503C269.432 290.504 258.103 295.044 250.958 300.148C236.442 310.517 211.404 325.878 211.404 346.344C211.404 361.852 218.382 375.777 223.981 389.777C231.359 408.219 239.643 427.17 247.137 445.904C250.5 454.311 253.099 463.673 257.599 471.177C263.489 480.992 265.003 494.079 270.764 503.678C273.143 507.642 273.048 513.659 276.289 516.902C294.404 492.749 313.491 479.48 336.237 462.419C349.55 452.433 375.399 445.375 391.307 445.375C433.254 445.375 479.8 455.231 510.674 486.105C525.462 500.893 534.888 515.708 546.936 531.771C556.515 544.543 560.785 566.398 563.98 582.374C575.908 642.014 547.012 706.6 500.212 743C476.97 761.077 452.738 771.877 423.749 777.675C395.17 783.391 356.666 780.11 328.537 768.86C311.06 761.869 294.823 753.736 279.051 742.471C224.946 703.826 208.807 645.939 186.014 588.957C173.981 558.873 163.021 529.267 150.809 498.741C136.926 464.03 110.071 408.017 127.712 372.733C134.693 358.768 144.318 346.51 156.334 335.353C188.692 305.307 223.837 277.388 259.774 251.72C275.737 240.317 295.539 224.743 316.43 224.743ZM411.113 508.909C405.593 508.593 399.912 508.713 394.01 509.202C303.179 516.735 269.741 633.76 347.227 689.105C365.856 702.411 388.904 705.62 411.583 705.62C424.255 705.62 433.926 698.507 445.201 695.688C456.201 692.938 469.804 678.786 477.114 671.473C500.501 648.087 507.037 603.639 495.216 574.087C478.786 533.012 449.749 511.118 411.113 508.909ZM404.942 533.887C410.612 534.133 416.397 535.077 422.103 536.708C429.433 538.801 443.104 541.857 446.847 549.344C447.326 550.303 440.592 558.808 439.676 560.335C433.63 570.411 429.177 582.365 427.569 594.423C423.131 627.713 433.845 641.649 446.847 667.653C421.636 686.562 381.222 690.599 357.689 667.066C376.951 638.172 384.694 606.367 370.912 571.913C367.779 564.078 364.019 555.146 357.689 548.815C371.456 538.49 387.931 533.148 404.942 533.887ZM345.053 560.335C365.665 585.07 368.37 631.112 345.053 654.429C322.834 629.038 320.639 584.748 345.053 560.335ZM460.599 561.98C481.481 588.354 485.873 631.33 461.128 656.075C442.455 631.176 437.07 585.51 460.599 561.98Z" fill="#12284b" fill-rule="nonzero" opacity="1" stroke="none"/>
</g>
</svg>
