<?xml version="1.0" encoding="UTF-8" standalone="no"?>
<!DOCTYPE svg PUBLIC "-//W3C//DTD SVG 1.1//EN" "http://www.w3.org/Graphics/SVG/1.1/DTD/svg11.dtd">
<!-- Created with Vectornator (http://vectornator.io/) -->
<svg height="100%" stroke-miterlimit="10" style="fill-rule:nonzero;clip-rule:evenodd;stroke-linecap:round;stroke-linejoin:round;" version="1.1" viewBox="0 0 750 1000" width="100%" xml:space="preserve" xmlns="http://www.w3.org/2000/svg" xmlns:vectornator="http://vectornator.io" xmlns:xlink="http://www.w3.org/1999/xlink">
<defs/>
<g id="Layer-1" vectornator:layerName="Layer 1">
<path d="M371.851 200.224C365.883 200.274 359.884 200.485 353.828 200.848C351.639 200.98 348.524 201.491 346.215 201.722C340.548 202.289 334.861 202.832 329.24 203.769C309.746 207.018 291.186 212.169 272.501 218.397C214.935 237.586 163.277 281.142 128.269 330.153C106.418 360.745 92.3581 395.466 83.2374 431.949C76.016 460.834 73.1688 493.26 76.198 522.038C79.0887 549.499 82.8486 576.981 93.1723 602.79C100.079 620.056 108.386 635.813 116.587 652.216C124.526 668.094 137.506 683.367 149.038 696.673C181.414 734.03 225.258 766.147 272.202 781.795C293.856 789.013 315.305 794.566 338.027 797.596C343.112 798.274 349.064 799.578 353.828 799.643C367.966 799.835 382.102 799.835 396.239 799.643C429.29 799.193 463.06 787.887 493.642 775.654C515.401 766.95 536.874 753.711 555.648 739.109C598.082 706.105 625.305 669.715 648.383 623.559C657.918 604.487 663.667 582.576 668.278 561.827C687.427 475.657 664.942 383.247 610.066 314.651C562.766 255.527 498.622 217.993 425.195 204.643C407.352 201.399 389.756 200.075 371.851 200.224ZM376.12 214.053C404.098 214.142 430.825 218.836 457.946 226.584C548.143 252.355 618.978 327.634 648.383 415.848C679.284 508.552 652.81 626.446 582.857 696.399C567.796 711.46 552.12 724.722 534.879 737.037C526.185 743.247 515.845 747.376 507.396 753.712C500.074 759.204 490.009 761.232 482.234 765.12C455.562 778.456 415.101 786.188 386.005 786.188C349.368 786.188 310.329 782.373 275.996 768.64C264.265 763.947 252.914 757.704 241.498 753.138C236.423 751.108 231.548 747.457 226.87 744.651C209.805 734.412 192.991 722.179 178.893 708.081C113.874 643.062 77.3277 556.232 91.7245 462.652C94.709 443.253 98.9819 424.804 105.179 406.213C106.522 402.184 107.677 397.373 109.548 393.632C113.896 384.935 118.517 375.752 122.129 366.722C128.036 351.955 139.596 337.75 149.038 325.16C200.819 256.119 279.928 218.041 364.063 214.303C368.115 214.123 372.123 214.041 376.12 214.053ZM366.11 227.458C240.725 231.406 135.452 321.023 108.399 442.757C86.4966 541.32 120.322 631.089 188.828 699.594C202.027 712.793 219.177 726.339 235.932 734.716C242.671 738.085 249.235 744.257 256.7 746.124C260.666 747.115 264.794 750.11 268.682 751.665C274.58 754.024 281.156 756.315 287.129 758.705C316.039 770.269 353.686 773.033 383.958 773.033C485.953 773.033 588.961 700.283 626.441 606.585C642.67 566.012 650.813 520.701 646.935 476.107C644.846 452.086 639.006 429.204 631.433 406.487C625.963 390.077 617.342 374.148 608.318 359.109C598.741 343.146 587.323 327.752 574.37 314.352C535.508 274.15 487.224 244.152 433.083 233.324C411.102 228.928 388.527 226.752 366.11 227.458ZM379.115 234.373C393.8 234.678 408.254 236.212 422.849 238.866C427.723 239.752 433.42 240.259 438.076 241.811C448.902 245.42 460.695 248.063 471.4 252.346C501.972 264.574 533.319 282.936 557.72 307.337C570.471 320.089 582.07 333.375 592.517 348.001C595.822 352.628 599.924 357.547 602.452 362.604C612.087 381.873 621.602 399.01 628.488 419.667C677.037 565.316 583.103 726.021 436.029 758.705C419.587 762.358 402.64 766.018 385.405 766.018C359.462 766.019 334.214 763.693 309.071 758.105C294.011 754.759 277.141 748.443 263.715 741.73C258.638 739.192 253.107 735.92 247.913 733.842C241.112 731.122 235.158 725.88 228.917 722.135C204.118 707.255 182.696 685.324 165.139 662.75C155.246 650.031 145.651 636.031 138.529 621.787C134.844 614.417 132.054 605.462 127.995 598.697C122.903 590.211 120.723 578.252 118.035 568.842C117.284 566.213 117.087 562.851 115.988 560.654C112.891 554.46 112.245 541.553 111.32 534.619C108.093 510.413 108.482 485.606 112.194 461.479C131.475 336.154 236.873 239.06 364.337 234.498C369.299 234.32 374.22 234.271 379.115 234.373ZM378.092 257.138C375.945 257.149 373.794 257.22 371.651 257.313C371.355 257.326 367.665 265.036 367.283 265.8C362.966 274.433 364.573 284.169 363.763 294.157C363.658 295.451 361.824 294.037 361.716 295.33C361.538 297.468 361.538 299.633 361.716 301.771C361.739 302.046 362.015 302.328 362.29 302.345C365.308 302.528 368.359 302.528 371.377 302.345C371.652 302.328 371.937 302.046 371.951 301.771C372.136 298.168 371.766 294.54 371.951 290.937C371.965 290.662 372.275 290.38 372.55 290.363C375.567 290.18 378.594 290.18 381.611 290.363C381.886 290.38 382.171 290.662 382.185 290.937C382.37 294.54 382.001 298.168 382.185 301.771C382.199 302.046 382.509 302.327 382.784 302.345C385.606 302.527 388.444 302.345 391.272 302.345C394.53 302.345 392.938 297.151 392.719 295.33C392.67 294.92 392.138 294.749 391.846 294.457C391.553 294.603 391.564 294.61 391.272 294.756C388.704 292.189 390.66 286.224 390.972 282.475C391.246 279.192 391.272 274.023 391.272 271.067C391.272 270.252 386.185 259.162 385.405 258.187C385.147 257.864 384.945 257.339 384.532 257.313C382.391 257.176 380.238 257.127 378.092 257.138ZM376.02 263.953C376.937 263.788 378.031 264.152 378.965 264.327C380.072 264.535 382.728 271.203 382.784 272.215C382.968 275.527 382.967 278.86 383.059 282.175C383.069 282.55 383.193 283.313 382.485 283.349C378.784 283.534 375.077 283.534 371.377 283.349C371.101 283.335 370.792 283.025 370.778 282.75C370.463 276.767 369.898 268.489 375.171 264.327C375.42 264.131 375.714 264.008 376.02 263.953ZM320.753 262.28C319.391 261.599 313.214 264.553 312.266 265.501C313.542 268.053 315.729 285.865 314.912 288.316C311.776 285.18 307.518 272.912 304.378 271.342C303.434 270.87 298.153 272.683 297.938 273.688C297.177 277.238 300.485 291.311 298.811 292.984C295.125 289.298 292.412 282.506 290.05 277.782C289.46 276.602 288.665 272.935 287.404 272.515C286.785 272.309 284.562 273.471 283.909 273.688C279.2 275.258 277.201 278.388 281.563 282.75C282.456 282.303 282.976 282.438 283.909 282.75C283.909 284.984 287.652 289.495 288.876 291.536C293.351 298.993 297.058 306.751 300.858 314.352C301.775 316.185 308.281 314.24 308.771 312.604C309.373 310.598 307.501 302.649 307.299 300.023C307.102 297.462 307.271 291.781 306.125 289.489C306.418 289.197 306.432 289.183 306.724 288.89C310.579 292.744 313.555 299.402 316.385 304.117C317.013 305.165 318.03 309.269 319.006 309.659C320.064 310.082 325.579 308.44 326.02 307.337C326.697 305.647 324.518 295.914 324.273 293.583C323.499 286.234 320.622 277.194 321.352 269.894C321.45 268.915 323.359 269.144 323.1 267.847C322.833 266.515 322.14 262.974 320.753 262.28ZM434.856 263.753C433.751 264.858 432.284 269.193 432.509 270.768C432.579 271.254 433.921 271.605 434.257 271.941C431.84 276.775 431.027 283.101 429.289 288.316C427.445 293.848 425.88 298.482 426.668 304.392C426.838 305.663 426.603 308.779 428.116 309.384C430.65 310.398 433.886 310.93 436.603 311.706C438.126 312.141 442.438 314.369 443.917 313.753C451.671 310.522 454.564 293.193 457.072 285.67C457.659 283.911 457.891 281.717 458.844 280.128C459.205 279.528 459.388 279.443 459.993 279.529C462.256 279.853 465.237 274.194 462.938 272.815C461.697 272.07 455.554 269.613 454.151 269.894C453.11 270.102 451.856 276.342 451.53 277.482C449.705 283.871 447.485 290.219 445.39 296.504C444.849 298.127 444.65 301.003 443.617 302.345C442.22 304.161 436.377 306.447 434.856 302.644C432.775 297.442 439.589 281.621 441.271 275.735C441.877 273.614 444.546 268.553 443.043 266.674C442.034 265.413 437.615 264.84 434.856 263.753ZM501.255 292.11C500.448 292.379 497.256 297.177 497.736 297.976C498.125 298.625 499.101 298.741 498.609 299.724C494.807 307.327 486.903 316.722 481.66 323.713C480.962 323.364 480.519 322.477 479.613 322.839C478.932 323.111 475.867 328.002 476.093 328.68C476.843 330.93 482.511 333.786 484.58 334.821C488.819 330.582 491.775 324.029 495.115 319.02C495.793 319.359 497.008 320.257 497.436 320.792C497.824 321.277 496.646 326.729 496.562 327.232C495.869 331.392 495.827 337.49 493.941 341.261C494.454 341.774 498.758 345.418 499.483 345.055C502.725 343.434 505.386 339.912 502.129 337.741C504.403 333.192 501.843 324.289 505.923 320.792C508.615 318.484 515.333 313.573 518.804 312.879C519.871 312.666 520.692 314.119 521.425 313.753C522.016 313.457 525.144 309.108 524.944 308.511C524.419 306.936 520.082 304.241 518.504 304.691C515.664 305.503 492.255 324.033 503.003 307.911C503.859 306.627 504.793 305.401 505.649 304.117C507.014 302.07 508.377 300.024 509.742 297.976C508.768 297.003 502.766 291.607 501.255 292.11ZM235.932 301.197C235.482 300.927 226.253 307.345 225.098 308.211C226.105 309.554 227.068 310.933 228.068 312.28C229.148 311.236 230.435 311.202 231.538 312.305C231.289 312.518 231.196 312.594 231.039 312.729C232.489 313.813 233.797 315.979 234.459 316.973C239.097 323.931 243.874 330.783 248.513 337.741C245.671 340.583 248.564 341.995 250.859 345.055C258.134 341.418 265.377 335.321 271.902 330.427C270.097 327.72 268.142 325.037 266.061 322.539C264.271 323.434 261.198 325.4 259.92 326.933C259.301 327.675 261.069 328.038 260.794 328.68C260.014 330.5 256.935 332.519 255.227 333.373C249.735 327.881 241.799 315.552 238.278 308.511C239.156 307.633 239.148 307.616 240.025 306.738C239.396 305.48 237.14 301.921 235.932 301.197ZM231.039 312.729C230.145 312.061 229.196 311.726 228.318 312.604C228.236 312.495 228.15 312.389 228.068 312.28C228.053 312.295 228.034 312.289 228.019 312.305C228.948 313.235 228.448 312.661 229.491 314.052C230.266 313.388 230.55 313.149 231.039 312.729ZM194.095 337.167C193.114 338.148 185.958 346.462 186.481 347.102C187.967 348.918 190.706 351.744 191.474 351.196C191.873 350.911 192.767 349.161 193.795 349.748C201.145 353.948 208.856 363.539 215.737 369.044C215.371 369.775 214.196 370.981 214.863 371.69C216.281 373.196 217.706 374.715 219.257 376.083C219.403 376.212 219.679 376.205 219.831 376.083C225.582 371.482 231.844 366.426 223.051 362.03C220.32 364.761 217.974 360.483 215.737 358.51C210.091 353.528 204.456 348.567 198.788 343.607C199.373 342.876 199.351 342.866 199.936 342.135C198.107 340.305 196.137 338.756 194.095 337.167ZM555.947 337.167C554.64 337.821 551.888 340.051 550.98 341.261C550.387 342.052 552.51 342.689 551.854 343.607C548.165 348.771 540.672 352.759 535.778 356.763C533.517 358.612 529.289 364.303 526.991 360.856C525.334 362.417 523.587 363.894 522.024 365.549C521.89 365.691 521.937 365.949 522.024 366.123C523.354 368.784 526.304 371.345 528.165 373.737C530.996 377.377 533.75 382.103 537.226 385.145C537.373 385.273 537.666 385.258 537.825 385.145C539.004 384.302 539.913 383.13 541.045 382.224C542.343 381.185 544.396 380.189 545.139 378.704C543.354 376.919 541.76 375.074 540.146 373.138C539.465 373.592 538.826 373.948 538.099 374.311C537.467 373.679 534.513 370.894 533.731 369.643C533.233 368.846 541.454 362.808 542.493 362.03C550.163 368.604 546.837 372.653 555.373 365.824C553.68 362.437 550.173 359.933 548.059 356.763C550.301 354.521 553.99 351.738 556.821 350.322C556.996 350.235 557.266 350.203 557.42 350.322C558.456 351.128 561.073 354.181 561.814 355.015C560.936 355.893 560.919 355.885 560.041 356.763C561.666 358.929 563.317 361.088 565.009 363.203C567.25 360.962 569.718 358.913 572.048 356.763C567.456 349.874 561.398 343.397 555.947 337.167ZM335.107 347.402C317.23 348.777 304.496 358.665 290.349 368.769C274.153 380.338 258.377 392.942 243.545 406.213C231.29 417.177 221.172 428.759 218.658 445.104C216.071 461.918 222.057 475.772 227.145 491.034C231.765 504.893 237.549 518.205 242.946 531.698C252.93 556.659 259.514 584.057 273.375 607.159C298.193 648.523 343.35 671.797 391.546 665.371C443.828 658.4 471.756 608.928 489.548 564.448C497.885 543.606 506.682 523.389 508.844 500.695C509.094 498.067 509.419 495.422 509.443 492.782C509.628 472.111 509.742 451.448 509.742 430.776C509.742 419.646 507.051 407.27 502.129 397.426C494.638 382.444 471.929 363.999 453.852 362.903C448.301 362.567 443.653 362.599 438.35 363.777C437.273 364.016 434.087 365.651 433.083 365.25C431.534 364.63 429.837 362.222 428.415 361.156C423.833 357.719 417.755 353.455 412.315 352.095C392.806 347.217 381.782 348.789 365.236 357.062C358.75 350.577 348.931 348.247 335.107 347.402ZM332.76 360.557C341.464 360.557 348.425 361.259 355.576 365.549C357.962 366.981 360.459 372.377 362.89 372.863C364.006 373.087 367.447 370.234 368.431 369.643C373.8 366.422 379.002 363.556 385.106 362.03C396.435 359.197 413.684 363.1 422.275 371.69C425.058 374.473 426.879 378.041 429.589 380.751C435.184 377.953 442.619 375.185 448.884 375.185C468.002 375.185 490.687 395.218 495.115 412.928C496.773 419.563 497.436 426.571 497.436 433.397C497.436 449.583 497.318 465.787 497.161 481.973C497.085 489.902 496.667 497.537 495.689 505.363C494.101 518.063 490.693 530.271 486.028 541.932C484.764 545.094 483.072 552.216 480.487 553.939C478.551 552.004 479.08 545.412 478.44 542.532C476.366 533.201 473.154 524.649 469.653 515.897C466.741 508.617 460.572 500.101 455.025 494.554C452.733 492.262 450.378 490.029 448.011 487.814C447.916 487.726 444.232 484.656 444.216 484.295C443.754 473.188 444.395 462.086 444.491 450.97C444.605 437.732 445.143 419.405 444.491 404.74C444.15 397.062 432.229 399.892 432.21 401.52C431.921 425.993 432.403 450.46 432.21 474.934C432.207 475.21 431.831 475.338 431.636 475.533C421.817 468.987 410.192 465.117 398.286 462.952C394.668 462.294 390.816 461.87 387.153 461.779C384.602 461.715 379.608 463.457 379.564 460.905C379.179 438.579 379.361 416.236 379.265 393.906C379.258 392.427 377.762 389.346 376.045 389.238C374.777 389.159 366.421 390.026 366.384 393.033C366.095 416.433 366.578 439.85 366.384 463.251C366.374 464.526 362.746 464.517 362.016 464.699C356.975 465.959 352.012 467.152 347.088 468.793C334.488 472.993 323.313 481.484 313.439 490.46C313.244 490.265 312.868 490.137 312.865 489.861C312.575 460.707 312.759 431.548 312.566 402.394C312.56 401.612 311.898 400.362 311.392 399.772C307.746 395.519 301.737 397.932 297.938 400.646C290.22 406.159 276.895 414.327 276.895 425.209C276.895 433.455 280.632 440.88 283.609 448.324C287.532 458.13 291.906 468.193 295.891 478.154C297.679 482.624 299.064 487.619 301.457 491.609C304.589 496.828 305.409 503.778 308.472 508.882C309.737 510.99 309.669 514.173 311.392 515.897C321.024 503.055 331.2 496.012 343.294 486.941C350.373 481.631 364.092 477.879 372.55 477.879C394.854 477.879 419.613 483.106 436.029 499.522C443.892 507.385 448.919 515.269 455.325 523.81C460.418 530.601 462.687 542.224 464.386 550.719C470.728 582.43 455.346 616.786 430.462 636.14C418.104 645.752 405.213 651.479 389.799 654.562C374.603 657.601 354.156 655.851 339.2 649.869C329.907 646.152 321.251 641.83 312.865 635.84C284.097 615.292 275.534 584.512 263.415 554.214C257.017 538.218 251.186 522.467 244.693 506.236C237.311 487.78 223.032 458.024 232.412 439.263C236.124 431.838 241.25 425.3 247.639 419.368C264.844 403.392 283.523 388.558 302.631 374.91C311.119 368.847 321.652 360.557 332.76 360.557ZM160.745 383.098C159.641 383.466 157.067 390.486 157.251 391.585C157.447 392.764 162.652 396.581 163.391 397.426C166.804 401.326 170.213 405.233 173.626 409.133C173.431 409.328 173.302 409.7 173.027 409.707C166.009 409.897 159.004 409.802 151.984 409.707C151.116 409.696 149.924 408.357 149.038 408.534C148.095 408.723 145.287 416.253 145.543 417.021C146.056 418.559 150.405 419.302 151.684 419.942C152.417 419.209 152.124 418.927 152.857 418.195C159.776 421.654 166.947 424.64 173.925 428.13C176.051 429.192 178.541 429.55 180.341 431.35C180.086 431.859 179.156 432.501 179.467 433.122C179.792 433.773 184.763 435.857 185.333 435.743C186.65 435.48 190.28 428.075 190.001 426.682C189.844 425.898 185.81 424.724 185.034 424.335C180.917 422.277 174.7 421.016 171.579 417.895C174.409 415.065 179.563 417.516 183.561 417.321C184.177 417.291 184.767 415.718 185.034 415.274C187.548 411.084 185.114 410.527 181.813 406.787C179.928 404.65 179.795 404.465 178.019 402.394C178.312 402.101 178.301 402.112 178.593 401.819C184.673 404.859 191.171 407.235 197.315 410.307C198.44 409.182 202.19 402.666 201.708 401.22C200.806 398.514 195.052 398.371 193.795 400.047C186.689 396.494 179.847 393.369 172.453 390.412C170.576 389.661 168.045 388.925 166.611 387.491C167.631 385.453 162.737 382.434 160.745 383.098ZM593.99 392.758C592.923 392.118 587.735 394.894 586.951 395.679C587.205 396.188 588.16 396.805 587.849 397.426C587.05 399.025 583.417 399.187 581.983 400.047C577.55 402.707 571.091 405.859 566.182 407.086C564.201 407.582 562.073 409.81 560.041 409.133C560.041 407.395 560.397 408.016 559.467 407.086C557.319 408.16 554.745 408.589 553.027 410.307C555.695 415.643 557.792 421.359 560.041 426.981C560.595 428.365 561.565 432.424 562.962 433.122C564.267 433.775 570.458 430.294 571.449 429.303C570.144 426.693 570.179 421.763 566.781 423.462C559.292 415.973 568.218 415.417 573.795 412.628C576.174 415.006 577.091 419.93 579.063 422.888C581.221 421.808 583.494 421.377 585.203 419.667C583.632 416.524 582.422 412.931 580.81 409.707C583.067 407.45 588.132 406.496 591.044 405.04C592.39 406.385 594.278 409.716 593.69 411.48C592.399 411.48 593.027 411.269 591.943 412.353C592.653 413.773 594.031 418.365 595.438 419.068C596.641 419.67 603.308 416.807 603.925 415.574C604.654 414.115 601.019 408.321 600.405 406.787C599.356 404.163 595.98 393.952 593.99 392.758ZM383.109 511.653C380.174 511.485 377.136 511.543 373.998 511.803C325.702 515.808 307.935 578.03 349.135 607.458C359.04 614.533 371.3 616.245 383.359 616.245C390.097 616.245 395.212 612.477 401.207 610.978C407.056 609.516 414.294 601.985 418.181 598.097C430.616 585.662 434.101 562.039 427.816 546.326C419.08 524.486 403.652 512.828 383.109 511.653ZM379.814 524.933C382.829 525.064 385.891 525.564 388.925 526.431C392.822 527.544 400.09 529.19 402.08 533.171C402.335 533.681 398.773 538.2 398.286 539.012C395.071 544.37 392.701 550.723 391.846 557.134C389.486 574.835 395.167 582.224 402.08 596.051C388.675 606.105 367.215 608.264 354.702 595.751C364.944 580.388 369.044 563.473 361.716 545.153C360.05 540.987 358.068 536.237 354.702 532.871C362.022 527.381 370.769 524.54 379.814 524.933ZM347.962 539.012C358.922 552.164 360.36 576.638 347.962 589.036C336.148 575.535 334.981 551.993 347.962 539.012ZM409.394 539.886C420.497 553.909 422.851 576.753 409.694 589.91C399.765 576.671 396.883 552.397 409.394 539.886ZM209.022 612.426C207.369 614.079 205.286 615.355 203.456 616.819C206.357 619.721 200.682 622.079 198.488 623.834C196.379 625.521 182.543 637.014 181.214 637.014C180.573 637.014 179.666 635.506 179.467 635.241C177.966 635.992 174.946 637.974 173.925 639.335C173.426 640.001 176.966 643.744 177.42 644.328C179.539 647.052 186.624 657.978 189.127 659.23C193.748 661.541 202.585 653.361 205.203 650.743C206.328 649.618 206.188 647.096 207.55 646.075C208.847 645.102 211.814 645.588 213.416 644.902C216.205 643.706 225.936 635.212 224.524 631.447C223.117 627.696 217.7 623.002 215.163 619.74C213.206 617.224 211.277 614.681 209.022 612.426ZM209.896 624.133C211.913 626.438 214.759 629.118 216.336 631.747C217.308 633.367 208.308 639.118 206.676 639.934C204.662 637.584 201.808 634.941 200.236 632.321C200.135 632.153 200.119 631.903 200.236 631.747C202.496 628.732 207.177 626.852 209.896 624.133ZM195.268 635.241C196.898 636.871 201.262 640.624 201.708 642.855C202.134 644.982 193.814 651.916 191.174 650.743C189.218 649.873 186.935 644.924 185.608 643.154C188.74 640.47 192.353 638.157 195.268 635.241ZM539.872 613.299C537.785 613.717 534.154 620.387 532.832 622.086C531.67 623.58 527.778 627.168 528.165 629.101C528.622 631.39 531.102 635.141 532.832 636.714C534.269 638.02 538.717 642.555 540.745 642.555C546.439 642.555 555.991 634.495 561.215 635.241C567.32 636.114 566.052 644.632 561.514 646.649C559.193 647.681 558.336 644.486 556.547 645.201C554.869 645.872 553.452 649.543 552.453 651.042C554.605 653.502 559.841 657.088 563.561 655.735C565.84 654.907 568.532 649.711 570.001 647.822C571.107 646.4 576.274 641.463 575.543 639.635C573.918 635.574 567.708 627.57 562.962 626.779C560.446 626.36 554.634 629.447 552.153 630.274C551.068 630.636 542.43 633.912 542.193 633.793C541.055 633.224 536.926 629.994 536.926 628.826C536.926 628 539.145 625.841 539.572 625.306C542.31 621.884 542.646 621.589 546.013 623.834C547.98 622.147 549.827 620.471 551.28 618.292C548.895 615.908 543.549 612.564 539.872 613.299ZM249.96 656.309C248.94 656.054 243.537 660.988 247.04 663.324C242.979 671.446 236.276 679.601 230.964 687.038C228.821 690.039 230.097 686.55 228.318 687.313C227.417 687.699 223.254 692.06 223.925 693.179C225.249 695.386 229.717 697.307 231.838 698.72C236.05 695.21 238.543 689.501 242.072 685.266C249.324 690.704 239.796 698.871 241.773 705.46C242.178 706.812 246.111 709.239 247.339 709.853C248.069 709.124 251.974 705.492 251.733 704.287C251.395 702.599 250.693 704.189 249.96 702.539C249.145 700.706 251.065 693.547 252.307 692.305C253.668 692.986 256.559 690.448 257.873 689.659C263.772 686.12 270.367 677.683 268.982 670.064C268.79 669.008 265.719 667.467 264.888 666.843C261.614 664.388 253.596 657.218 249.96 656.309ZM253.78 667.143C255.293 666.714 261.178 671.165 261.368 672.685C261.753 675.761 256.579 684.072 253.48 684.691C251.824 685.023 250.037 682.92 248.812 682.045C247.643 681.211 245.886 680.211 245.292 678.825C244.977 678.089 248.854 673.73 249.386 672.984C250.806 670.996 251.419 667.812 253.78 667.143ZM498.909 656.909C497.389 657.212 480.713 669.171 479.613 670.638C479.157 671.246 483.488 675.912 483.981 676.504C487.133 674.403 488.736 679.112 490.422 681.471C494.76 687.545 499.123 693.622 503.602 699.594C502.724 700.472 502.707 700.489 501.829 701.366C502.903 702.977 504.4 705.689 505.923 706.908C506.388 707.28 513.641 702.556 514.41 701.94C513.278 699.675 511.489 697.561 510.017 695.5C509.121 694.245 508.292 692.96 507.396 691.706C506.781 690.845 505.751 689.79 505.349 688.785C504.907 687.68 508.367 685.435 509.443 685.865C511.833 686.821 523.046 694.946 524.645 694.626C526.348 694.286 529.214 691.314 530.511 690.233C529.451 688.819 527.881 685.57 526.417 684.691C525.331 684.04 525.001 685.811 523.771 685.565C521.28 685.067 517.472 681.457 515.284 679.999C517.644 676.459 513.869 669.456 511.789 666.544C510.106 664.188 502.51 656.188 498.909 656.909ZM499.483 665.096C500.834 664.331 502.683 668.539 503.602 669.764C508.077 675.732 509.481 674.865 503.003 679.724C502.595 680.03 500.791 682.045 500.082 682.045C499.881 682.045 493.323 672.95 492.469 671.811C492.331 671.627 491.978 670.926 492.194 670.638C493.869 668.404 496.99 666.507 499.483 665.096ZM450.707 685.266C449.25 685.605 447.011 686.789 446.263 687.038C442.313 688.355 430.659 691.209 428.116 693.753C429.156 695.833 428.993 698.424 430.762 700.193C433.403 698.872 434.123 704.802 434.856 706.633C437.619 713.543 439.115 721.317 442.444 727.976C441.862 728.558 441.07 728.402 440.697 729.149C440.228 730.087 442.297 735.249 443.318 735.59C444.338 735.929 448.072 733.913 449.184 733.543C451.948 732.621 465.669 728.575 466.732 726.803C467.082 726.221 466.074 724.42 465.859 723.882C465.296 722.476 465.144 719.315 463.512 718.615C461.159 717.607 454.929 719.87 456.498 723.009C455.679 723.828 454.422 723.855 453.278 724.182C452.528 724.396 451.124 725.183 450.357 725.055C449.974 724.992 446.902 716.398 446.263 715.12C448.896 712.488 454.274 713.525 457.072 710.727C456.287 709.157 456.507 704.866 454.751 703.987C454.219 703.722 445.248 707.291 444.216 707.807C442.994 706.584 440.392 698.8 440.697 696.973C440.866 695.957 445.618 695.386 446.538 694.926C447.468 695.856 446.968 695.283 448.011 696.673C453.219 694.069 455.629 696.267 453.577 689.085C453.225 687.85 453.001 685.983 451.805 685.266C451.579 685.13 451.192 685.152 450.707 685.266ZM301.757 686.738C300.746 686.991 299.255 691.944 299.411 692.879C299.54 693.655 301.29 693.885 301.757 694.352C297.687 702.491 296.383 712.429 292.97 720.962C292.03 723.313 290.52 721.328 289.176 723.009C288.104 724.348 288.23 727.197 287.404 728.85C289.821 731.267 303.006 734.142 307.024 735.29C308.543 735.724 311.542 737.596 312.566 735.889C312.982 735.194 313.263 733.249 313.439 732.369C313.7 731.064 315.129 728.981 314.912 727.676C314.822 727.138 308.853 725.403 308.172 725.63C306.757 726.101 301.232 728.175 299.985 725.055C299.432 723.673 301.318 719.932 301.757 718.615C302.289 717.02 302.27 715.456 303.504 714.222C306.62 715.78 310.551 715.848 313.739 717.442C314.985 716.196 315.256 714.958 315.486 713.348C316.256 707.958 308.843 710.2 305.551 706.908C307.046 703.918 307.179 699.439 309.645 696.973C311.175 697.738 313.435 697.338 314.912 698.446C316.255 699.453 314.832 699.354 315.212 700.493C315.499 701.356 321.219 703.581 322.226 703.413C323.662 703.174 325.34 695.986 326.02 694.626C323.545 692.151 312.396 690.093 308.472 688.785C306.993 688.293 303.3 686.353 301.757 686.738ZM389.799 699.594C388.037 699.708 389.317 703.098 389.225 704.861C389.088 707.457 386.862 720.379 385.405 721.835C381.462 717.892 383.222 708.859 380.438 703.987C379.166 701.762 375.319 702.966 373.698 703.114C373.424 703.139 373.211 703.451 373.124 703.713C371.683 708.034 371.755 719.41 368.731 722.434C367.458 721.161 364.943 707.459 364.637 704.861C364.449 703.264 365.064 700.353 363.464 700.193C360.844 699.931 358.195 699.931 355.576 700.193C353.229 700.428 354.498 704.858 354.702 707.207C354.826 708.629 357.087 707.042 357.622 708.381C358.672 711.004 358.852 714.892 359.37 717.742C360.705 725.084 362.3 732.365 363.763 739.683C364.065 741.193 363.279 745.122 364.936 745.25C367.27 745.429 369.618 745.429 371.951 745.25C373.395 745.139 372.524 740.737 372.824 739.384C373.55 736.12 375.008 724.344 376.918 722.434C376.772 722.142 376.79 722.128 376.644 721.835C376.936 721.543 376.925 721.554 377.218 721.261C377.51 721.554 377.499 721.543 377.792 721.835C377.184 723.052 380.421 733.822 381.012 735.889C381.827 738.742 381.684 741.069 382.185 744.077C382.231 744.349 382.509 744.63 382.784 744.651C385.215 744.831 387.667 744.831 390.098 744.651C391.921 744.516 390.652 739.97 390.972 738.211C392.052 732.268 393.005 726.323 394.192 720.387C394.949 716.604 395.48 712.749 396.239 708.955C396.55 707.398 398.791 707.456 398.86 706.633C399.055 704.293 400.629 699.745 398.286 699.594C395.464 699.412 392.621 699.412 389.799 699.594Z" fill="#FFFFFF" fill-rule="nonzero" opacity="1" stroke="none" vectornator:layerName="path"/>
</g>
</svg>
