<?xml version="1.0" encoding="UTF-8" standalone="no"?>
<!DOCTYPE svg PUBLIC "-//W3C//DTD SVG 1.1//EN" "http://www.w3.org/Graphics/SVG/1.1/DTD/svg11.dtd">
<!-- Created with Vectornator (http://vectornator.io/) -->
<svg height="100%" stroke-miterlimit="10" style="fill-rule:nonzero;clip-rule:evenodd;stroke-linecap:round;stroke-linejoin:round;" version="1.1" viewBox="0 0 750 1000" width="100%" xml:space="preserve" xmlns="http://www.w3.org/2000/svg" xmlns:vectornator="http://vectornator.io" xmlns:xlink="http://www.w3.org/1999/xlink">
<defs/>
<g id="Layer-1" vectornator:layerName="Layer 1">
<path d="M384.29 200C379.542 202.374 372.385 200.588 367.229 200.588C355.025 200.588 342.556 201.682 330.387 202.696C291.738 205.917 252.756 211.545 215.105 220.958C203.73 223.802 192.408 226.538 181.277 230.248C177.85 231.391 171.479 232.578 169.291 235.641C167.283 238.451 167.462 245.214 166.913 248.51C165.105 259.356 163.37 270.247 161.814 281.136C159.869 294.754 157.311 308.291 155.221 321.876C154.746 324.963 152.237 332.35 154.338 334.451C158.666 332.287 162.416 328.869 166.594 326.362C176.108 320.654 185.842 315.299 195.347 309.595C205.3 303.624 218.227 300.208 229.199 295.819C254.075 285.869 280.211 276.879 306.732 272.459C319.762 270.287 332.792 268.165 345.977 267.066C347.998 266.898 359.382 265.469 359.434 266.772C360.375 290.309 359.528 313.887 359.753 337.441C359.772 339.491 359.843 341.566 359.875 343.619C359.188 343.552 358.447 343.699 358.233 343.741C342.048 346.894 325.745 349.049 309.747 353.62C265.789 366.179 225.765 389.076 191.45 419.779C175.781 433.798 160.76 448.602 146.249 463.803C128.497 482.401 111.122 501.308 92.9343 519.496C91.7854 520.645 88.6094 521.851 89.6496 523.099C105.062 541.593 124.165 557.186 140.562 574.894C156.444 592.046 172.41 609.125 189.955 624.605C240.784 669.455 293.378 693.767 359.802 701.452C355.202 702.566 359.466 713.899 358.552 718.929C355.873 733.661 353.68 748.494 349.555 762.929C346.827 772.478 343.594 781.883 340.878 791.388C340.551 792.534 337.884 799.763 339.677 799.771C380.1 799.97 420.519 800.167 460.94 799.771C463.731 799.744 460.159 791.741 459.739 790.481C456.648 781.206 453.481 771.904 451.356 762.341C448.258 748.4 444.351 734.417 443.291 720.106C442.958 715.612 444.022 707.591 441.575 703.021C441.987 703.066 442.396 703.098 442.973 703.045C471.976 700.408 502.698 694.137 529.82 683.288C570.204 667.135 607.842 643.927 635.224 608.721C644.237 597.133 650.879 584.255 656.182 570.996C656.808 569.431 662.645 558.436 659.761 558.127C642.347 556.262 621.749 558.127 604.976 558.127C594.394 558.127 583.814 557.515 573.232 557.515C571.334 557.515 569.875 561.516 569.04 562.907C565.661 568.539 561.238 574.033 556.759 578.791C545.478 590.778 532.761 600.309 518.741 608.721C514.545 611.238 509.498 615.309 504.67 616.516C497.832 618.226 491.21 622.018 484.301 623.992C471.305 627.705 458.137 630.445 444.786 632.67C443.493 632.885 442.185 633.015 440.889 633.209C441.087 559.012 441.087 484.808 440.889 410.611C442.942 411.614 446.431 410.986 448.684 411.396C457.045 412.916 465.227 414.947 473.515 416.788C492.74 421.061 511.174 430.226 527.418 441.056C539.964 449.42 553.144 459.587 562.152 471.598C563.183 472.972 572.161 487.717 572.938 487.752C596.07 488.804 619.251 487.668 642.406 487.458C646.388 487.422 656.134 488.83 658.878 487.458C661.768 486.013 656.309 474.476 655.275 471.892C648.364 454.615 637.341 439.422 625.027 425.466C590.203 385.999 545.426 364.317 495.38 351.806C484.462 349.076 473.315 346.633 462.141 345.236C455.251 344.375 447.462 344.401 440.717 342.565C440.7 317.01 440.782 291.397 441.183 265.571C441.208 263.963 450.984 265.399 452.876 265.571C463.489 266.536 474.08 267.716 484.595 269.468C517.609 274.971 548.662 285.261 579.532 297.609C588.273 301.105 597.737 304.708 605.883 309.595C614.557 314.8 623.954 319.84 632.822 325.161C634.499 326.167 647.113 336.259 647.505 332.343C648.116 326.229 645.582 318.596 644.49 312.586C641.441 295.82 638.835 278.863 636.425 261.992C635.59 256.15 634.983 239.936 631.915 235.641C629.502 232.263 622.441 231.184 618.752 229.954C606.356 225.823 593.295 223.64 580.733 220.051C536.596 207.441 486.108 203.246 440.595 201.495C422.491 200.799 404.48 201.592 384.29 200ZM360.047 412.156C359.851 485.261 360.341 558.387 360.341 631.493C360.341 632.298 359.967 633.07 360.047 633.871C360.072 634.126 360.416 634.305 360.807 634.459C316.683 628.387 269.067 609.145 242.657 575.188C236.755 567.6 232.714 559.415 229.199 550.627C207.378 496.074 251.448 451.772 296.265 429.363C308.79 423.101 324.422 418.633 338.182 415.881C344.298 414.658 354.589 415.781 360.047 412.156Z" fill="#FFFFFF" fill-rule="nonzero" opacity="1" stroke="none" vectornator:layerName="path"/>
</g>
</svg>
