<?xml version="1.0" encoding="UTF-8" standalone="no"?>
<!DOCTYPE svg PUBLIC "-//W3C//DTD SVG 1.1//EN" "http://www.w3.org/Graphics/SVG/1.1/DTD/svg11.dtd">
<!-- Created with Vectornator (http://vectornator.io/) -->
<svg height="100%" stroke-miterlimit="10" style="fill-rule:nonzero;clip-rule:evenodd;stroke-linecap:round;stroke-linejoin:round;" version="1.1" viewBox="0 0 500 500" width="100%" xml:space="preserve" xmlns="http://www.w3.org/2000/svg" xmlns:vectornator="http://vectornator.io" xmlns:xlink="http://www.w3.org/1999/xlink">
<defs/>
<clipPath id="ArtboardFrame">
<rect height="500" width="500" x="0" y="0"/>
</clipPath>
<g clip-path="url(#ArtboardFrame)" id="Layer-1" vectornator:layerName="Layer 1">
<path d="M100.983 156.483C87.786 156.483 77.0971 167.172 77.0971 180.369L77.0971 319.631C77.0971 332.828 87.786 343.517 100.983 343.517L399.017 343.517C412.214 343.517 422.903 332.828 422.903 319.631L422.903 180.369C422.903 167.172 412.214 156.483 399.017 156.483L100.983 156.483ZM194.543 166.39C228.464 166.39 285.861 166.39 285.861 166.39C285.861 166.39 306.81 193.027 315.473 204.276C330.423 223.689 344.148 242.292 344.148 242.292C344.148 242.292 343.652 245.975 343.473 246.669C342.699 249.669 342.23 251.265 342.036 251.459C341.843 251.652 341.117 251.306 339.859 250.435C338.601 249.565 336.949 248.694 334.916 247.823C332.884 246.952 330.562 246.226 327.949 245.645C325.336 245.065 318.748 244.741 308.2 244.644C297.652 244.547 292.047 244 291.37 243.033C290.692 242.065 290.257 240.613 290.063 238.678C289.87 236.742 289.87 235.001 290.063 233.452C290.257 231.904 290.927 231.144 292.088 231.144C292.669 231.144 293.249 231.144 293.83 231.144C293.83 228.677 293.83 226.209 293.83 223.741C293.83 218.806 293.305 214.306 292.24 210.242C291.176 206.177 289.814 202.839 288.169 200.226C286.524 197.613 285.072 195.726 283.814 194.565C282.556 193.404 281.105 192.276 279.459 191.212C277.814 190.147 274.967 188.807 270.902 187.162C266.838 185.517 263.5 184.445 260.887 183.961C258.274 183.477 255.315 183.243 252.025 183.243C248.735 183.243 246.088 183.422 244.056 183.809C242.024 184.196 240.081 184.743 238.242 185.42C236.404 186.097 234.751 186.857 233.3 187.728C231.848 188.599 230.072 190.106 227.944 192.235C225.815 194.364 224.307 196.162 223.436 197.613C222.565 199.065 221.784 200.695 221.107 202.534C220.429 204.373 219.849 207.131 219.365 210.808C218.881 214.485 215.363 218.605 208.783 223.153C205.493 225.427 202.188 227.694 198.898 229.968C202.914 230.017 206.944 230.072 210.96 230.121C218.992 230.218 223.057 230.363 223.153 230.556C223.25 230.75 223.395 231.476 223.589 232.734C223.782 233.992 222.856 236.66 220.824 240.725C218.791 244.789 217.686 247.436 217.492 248.694C217.395 249.323 217.284 249.959 217.187 250.588C218.639 250.588 220.091 250.588 221.542 250.588C224.445 250.588 226.008 250.677 226.202 250.871C226.395 251.064 226.775 251.991 227.356 253.636C227.936 255.281 228.227 257.224 228.227 259.45C228.227 261.675 226.685 263.596 223.589 265.241C220.492 266.887 217.879 268.885 215.75 271.207C213.621 273.53 211.88 275.886 210.525 278.305C209.17 280.725 207.953 283.393 206.889 286.296C205.824 289.199 204.953 292.103 204.276 295.006C203.598 297.909 202.962 302.264 202.381 308.07C201.801 313.876 201.511 317.561 201.511 319.109C201.511 319.883 201.511 320.643 201.511 321.417C203.881 321.417 206.26 321.417 208.63 321.417C213.372 321.417 216.912 323.449 219.234 327.513C220.395 329.546 221.557 331.578 222.718 333.61C202.783 333.61 182.841 333.61 162.906 333.61C123.037 333.61 102.279 333.431 100.634 333.044C98.9891 332.657 97.3924 332.021 95.8441 331.15C94.2957 330.279 92.8998 329.207 91.6418 327.949C90.3838 326.691 89.312 325.239 88.4411 323.594C87.5702 321.949 86.9895 320.498 86.6992 319.24C86.4089 317.981 86.2638 294.902 86.2638 250C86.2638 205.098 86.6992 181.404 87.5702 178.888C88.4411 176.372 89.5467 174.34 90.9015 172.791C92.2563 171.243 93.674 170.026 95.1256 169.155C96.5771 168.284 98.2077 167.614 100.046 167.13C101.885 166.646 133.384 166.39 194.543 166.39ZM314.166 166.39C327.956 166.39 341.746 166.39 355.536 166.39C383.116 166.39 397.721 166.591 399.366 166.978C401.011 167.365 402.407 167.856 403.568 168.437C404.729 169.017 405.857 169.743 406.921 170.614C407.986 171.485 408.946 172.501 409.817 173.662C410.688 174.824 411.414 176.019 411.994 177.277C412.575 178.535 413.01 179.897 413.301 181.348C413.591 182.8 413.736 205.679 413.736 250C413.736 294.321 413.535 317.311 413.148 318.956C412.761 320.602 412.292 321.997 411.711 323.159C411.131 324.32 409.858 325.883 407.923 327.818C405.987 329.754 404.1 331.094 402.262 331.868C400.423 332.642 398.737 333.133 397.188 333.327C395.64 333.521 388.873 333.576 376.874 333.479C370.874 333.431 364.867 333.375 358.867 333.327C358.867 331.295 358.867 329.263 358.867 327.23C358.867 325.198 358.867 323.166 358.867 321.134C363.851 321.134 368.842 321.134 373.826 321.134C383.793 321.134 389.052 321.044 389.633 320.851C390.214 320.657 391.486 319.786 393.422 318.238C395.357 316.69 396.898 315.127 398.059 313.578C399.221 312.03 400.382 310.199 401.543 308.07C402.704 305.941 403.575 303.853 404.156 301.821C404.737 299.789 404.792 298.337 404.308 297.466C403.825 296.595 402.663 295.11 400.825 292.981C398.986 290.852 397.334 288.128 395.882 284.837C394.43 281.547 392.398 279.191 389.785 277.739C387.173 276.288 384.761 274.691 382.535 272.949C380.309 271.207 379.182 269.064 379.182 266.548C379.182 264.032 378.712 262.256 377.745 261.192C376.777 260.127 375.761 259.491 374.696 259.297C373.632 259.104 373.085 258.434 373.085 257.272C373.085 256.111 372.65 254.95 371.779 253.789C370.908 252.627 369.947 251.935 368.883 251.742C367.818 251.548 367.293 250.878 367.293 249.717C367.294 248.556 366.948 247.484 366.27 246.516C365.593 245.549 365.157 244.968 364.964 244.774C364.77 244.581 361.778 244.131 360.326 244.034C358.894 242.153 352.633 231.234 337.246 205.299C329.553 192.332 321.86 179.357 314.166 166.39ZM125.891 281.223C124.053 281.126 122.255 281.417 120.513 282.094C118.771 282.771 117.32 283.676 116.159 284.837C114.997 285.999 114.127 287.271 113.546 288.626C112.965 289.981 112.641 291.522 112.544 293.264C112.448 295.006 112.682 296.692 113.263 298.337C113.843 299.982 114.659 301.4 115.723 302.561C116.788 303.722 118.205 304.683 119.947 305.457C121.689 306.231 123.465 306.611 125.304 306.611C127.142 306.611 128.85 306.287 130.399 305.609C131.947 304.932 133.253 304.061 134.318 302.997C135.382 301.932 136.253 300.626 136.931 299.077C137.608 297.529 137.932 295.821 137.932 293.982C137.932 292.144 137.642 290.513 137.061 289.062C136.481 287.61 135.721 286.337 134.753 285.273C133.786 284.209 132.513 283.304 130.965 282.53C129.416 281.755 127.73 281.32 125.891 281.223Z" fill="#FFFFFF" fill-rule="nonzero" opacity="1" stroke="none" vectornator:layerName="Curve 2"/>
<path d="M166.062 573.412C104.903 573.412 73.4041 573.668 71.5655 574.152C69.7268 574.636 68.0963 575.306 66.6447 576.177C65.1931 577.048 63.7754 578.265 62.4206 579.813C61.0659 581.362 59.9602 583.394 59.0893 585.91C58.2184 588.426 57.7829 612.12 57.7829 657.022C57.7829 701.924 57.9281 725.003 58.2184 726.261C58.5087 727.519 59.0893 728.971 59.9602 730.616C60.8312 732.261 61.9029 733.713 63.1609 734.971C64.419 736.229 65.8149 737.301 67.3632 738.172C68.9115 739.042 70.5083 739.679 72.1534 740.066C73.7985 740.453 94.5558 740.632 134.425 740.632C154.36 740.632 174.302 740.632 194.237 740.632C193.076 738.6 191.915 736.568 190.753 734.535C188.431 730.471 184.891 728.439 180.15 728.439C177.779 728.439 175.401 728.439 173.03 728.439C173.03 727.665 173.03 726.905 173.03 726.131C173.03 724.583 173.32 720.898 173.901 715.092C174.481 709.285 175.118 704.931 175.795 702.028C176.472 699.125 177.343 696.221 178.408 693.318C179.472 690.415 180.689 687.747 182.044 685.327C183.399 682.908 185.141 680.552 187.27 678.229C189.398 675.907 192.011 673.908 195.108 672.263C198.205 670.618 199.746 668.697 199.746 666.472C199.746 664.246 199.455 662.303 198.875 660.658C198.294 659.013 197.914 658.086 197.721 657.893C197.527 657.699 195.964 657.61 193.061 657.61C191.61 657.61 190.158 657.61 188.707 657.61C188.803 656.981 188.915 656.345 189.011 655.716C189.205 654.458 190.311 651.811 192.343 647.746C194.375 643.682 195.302 641.014 195.108 639.756C194.914 638.498 194.769 637.772 194.672 637.578C194.576 637.385 190.511 637.24 182.479 637.143C178.463 637.094 174.433 637.039 170.417 636.99C173.707 634.716 177.012 632.449 180.302 630.175C186.882 625.627 190.4 621.507 190.884 617.83C191.368 614.152 191.948 611.394 192.626 609.556C193.303 607.717 194.085 606.087 194.956 604.635C195.826 603.183 197.334 601.386 199.463 599.257C201.592 597.128 203.367 595.621 204.819 594.75C206.27 593.879 207.923 593.119 209.761 592.442C211.6 591.765 213.543 591.218 215.575 590.831C217.607 590.444 220.254 590.265 223.544 590.265C226.834 590.265 229.793 590.499 232.406 590.983C235.019 591.467 238.357 592.539 242.422 594.184C246.486 595.829 249.333 597.169 250.979 598.234C252.624 599.298 254.075 600.426 255.333 601.587C256.591 602.748 258.043 604.635 259.688 607.248C261.333 609.861 262.695 613.199 263.76 617.264C264.824 621.328 265.349 625.828 265.349 630.763C265.349 633.231 265.349 635.698 265.349 638.166C264.768 638.166 264.188 638.166 263.607 638.166C262.446 638.166 261.776 638.926 261.582 640.474C261.389 642.022 261.389 643.764 261.582 645.7C261.776 647.635 262.211 649.087 262.889 650.054C263.566 651.022 269.171 651.569 279.72 651.666C290.268 651.762 296.855 652.087 299.468 652.667C302.081 653.248 304.403 653.974 306.436 654.845C308.468 655.716 310.12 656.586 311.378 657.457C312.636 658.328 313.362 658.674 313.555 658.481C313.749 658.287 314.218 656.69 314.992 653.691C315.172 652.997 315.668 649.314 315.667 649.314C315.667 649.314 301.943 630.711 286.992 611.298C278.329 600.049 257.38 573.412 257.38 573.412C257.38 573.412 199.983 573.412 166.062 573.412ZM285.685 573.412C293.379 586.379 301.072 599.354 308.765 612.321C324.152 638.256 330.413 649.175 331.845 651.056C333.297 651.153 336.289 651.603 336.483 651.796C336.676 651.99 337.112 652.571 337.789 653.538C338.467 654.506 338.813 655.578 338.813 656.739C338.813 657.9 339.338 658.57 340.402 658.764C341.467 658.957 342.427 659.649 343.298 660.811C344.169 661.972 344.604 663.133 344.604 664.294C344.604 665.456 345.151 666.126 346.216 666.319C347.28 666.513 348.296 667.149 349.264 668.213C350.232 669.278 350.701 671.054 350.701 673.57C350.701 676.086 351.828 678.229 354.054 679.971C356.28 681.713 358.692 683.31 361.305 684.761C363.917 686.213 365.95 688.569 367.401 691.859C368.853 695.15 370.505 697.874 372.344 700.003C374.182 702.132 375.344 703.617 375.827 704.488C376.311 705.359 376.256 706.811 375.675 708.843C375.094 710.875 374.223 712.963 373.062 715.092C371.901 717.221 370.74 719.052 369.578 720.6C368.417 722.149 366.876 723.711 364.941 725.26C363.005 726.808 361.733 727.679 361.152 727.873C360.572 728.066 355.312 728.156 345.345 728.156C340.361 728.156 335.37 728.156 330.386 728.156C330.386 730.188 330.386 732.22 330.386 734.252C330.386 736.285 330.386 738.317 330.386 740.349C336.386 740.397 342.393 740.453 348.393 740.501C360.393 740.598 367.159 740.542 368.708 740.349C370.256 740.155 371.942 739.664 373.781 738.89C375.619 738.116 377.507 736.776 379.442 734.84C381.377 732.905 382.65 731.342 383.23 730.181C383.811 729.019 384.28 727.623 384.667 725.978C385.055 724.333 385.255 701.343 385.255 657.022C385.255 612.701 385.11 589.822 384.82 588.37C384.53 586.919 384.094 585.557 383.513 584.299C382.933 583.041 382.207 581.846 381.336 580.684C380.465 579.523 379.505 578.507 378.44 577.636C377.376 576.765 376.248 576.039 375.087 575.459C373.926 574.878 372.53 574.387 370.885 574C369.24 573.613 354.635 573.412 327.055 573.412C313.265 573.412 299.475 573.412 285.685 573.412ZM97.4106 688.245C99.2492 688.342 100.935 688.777 102.484 689.551C104.032 690.326 105.305 691.23 106.272 692.295C107.24 693.359 108 694.632 108.58 696.083C109.161 697.535 109.451 699.166 109.451 701.004C109.451 702.843 109.127 704.551 108.45 706.099C107.772 707.648 106.901 708.954 105.837 710.018C104.772 711.083 103.466 711.954 101.918 712.631C100.369 713.309 98.6613 713.633 96.8227 713.633C94.984 713.633 93.2083 713.253 91.4664 712.479C89.7245 711.705 88.3068 710.744 87.2424 709.583C86.1779 708.422 85.3626 707.004 84.782 705.359C84.2013 703.714 83.9667 702.028 84.0634 700.286C84.1602 698.544 84.4844 697.003 85.065 695.648C85.6456 694.293 86.5166 693.021 87.6778 691.859C88.8391 690.698 90.2906 689.793 92.0325 689.116C93.7744 688.439 95.5719 688.148 97.4106 688.245Z" fill="#000000" fill-rule="nonzero" opacity="1" stroke="none" vectornator:layerName="Curve 3"/>
</g>
</svg>
