<?xml version="1.0" encoding="UTF-8" standalone="no"?>
<!DOCTYPE svg PUBLIC "-//W3C//DTD SVG 1.1//EN" "http://www.w3.org/Graphics/SVG/1.1/DTD/svg11.dtd">
<!-- Created with Vectornator (http://vectornator.io/) -->
<svg height="100%" stroke-miterlimit="10" style="fill-rule:nonzero;clip-rule:evenodd;stroke-linecap:round;stroke-linejoin:round;" version="1.1" viewBox="0 0 750 1000" width="100%" xml:space="preserve" xmlns="http://www.w3.org/2000/svg" xmlns:vectornator="http://vectornator.io" xmlns:xlink="http://www.w3.org/1999/xlink">
<defs/>
<g id="Layer-1" vectornator:layerName="Layer 1">
<path d="" fill="none" opacity="1" stroke="#f5c81a" stroke-linecap="butt" stroke-linejoin="round" stroke-width="1" vectornator:layerName="path"/>
<path d="M375 200C209.313 200 75.0002 334.312 75.0002 500C75.0002 665.688 209.313 800 375 800C540.688 800 675 665.688 675 500C675 334.312 540.688 200 375 200ZM371.349 221.386C388.69 221.143 405.844 222.683 422.924 225.787C476.25 235.483 527.714 259.942 566.546 298.774C581.36 313.589 594.816 329.449 606.416 346.849C617.472 363.433 627.731 380.853 633.98 399.599C638.363 412.748 642.621 425.735 645.986 439.195C656.029 479.368 654.032 522.736 645.111 562.881C618.916 680.755 505.363 777.739 383.055 777.739C353.167 777.739 321.915 775.226 293.36 765.707C278.271 760.678 263.857 754.091 249.688 748.424C243.007 745.751 237.585 741.048 231.229 737.869C214.675 729.592 197.674 716.02 184.63 702.976C119.431 637.777 82.5409 550.673 99.6125 456.779C103.84 433.529 108.995 408.7 119.548 387.594C130.941 364.808 143.628 341.995 160.593 321.635C213.577 258.055 289.613 222.528 371.349 221.386ZM373.8 236.969C368.042 236.969 362.242 237.154 356.391 237.518C322.141 239.66 287.921 249.331 257.617 264.483C251.031 267.776 243.64 274.065 241.784 281.49C241.095 284.245 239.712 288.745 238.257 291.171C237.44 292.533 232 293.37 230.653 292.921C233.772 286.683 235.498 281.007 240.033 275.337C238.531 273.836 233.419 278.303 231.829 279.44C228.268 281.983 223.781 283.935 220.673 287.043C216.939 290.779 215.224 298.423 210.418 300.825C210.125 300.533 210.136 300.543 209.843 300.25C210.778 298.38 210.939 297.789 210.243 296.899C211.319 297.019 211.977 295.56 212.769 294.373C212.33 293.933 212.334 293.937 211.894 293.497C210.366 295.026 210.673 294.714 209.268 295.873C209.257 295.863 209.253 295.858 209.243 295.848C179.159 319.914 154.918 351.197 138.032 384.967C137.591 385.849 135.489 389.562 135.681 390.521C136.041 392.322 138.419 390.462 138.032 393.171C137.529 396.692 135.083 399.815 134.805 403.426C134.558 406.642 135.658 409.933 135.081 413.106C134.566 415.935 129.871 419.44 128.652 422.486C127.832 424.538 127.141 428.099 125.426 429.815C124.242 428.63 123.477 427.591 122.474 426.589C119.621 429.442 119.005 438.911 118.097 442.997C113.524 463.574 111.644 484.599 111.644 505.728C111.644 508.075 111.824 510.413 111.944 512.756C112.052 514.861 112.31 526.289 113.545 528.615C113.997 527.133 116.274 524.245 117.497 524.188C119.555 524.09 123.611 525.673 123.65 523.611C123.842 513.452 123.458 503.281 123.65 493.122C123.675 491.808 126.005 493.139 126.601 491.945C127.777 489.596 127.414 486.279 127.752 483.741C128.792 475.938 129.663 468.084 130.703 460.281C130.91 458.729 130.84 449.688 132.454 449.149C135.335 448.19 135.225 452.582 135.381 453.827C136.124 459.771 136.688 465.759 137.432 471.711C138.097 477.034 137.92 487.288 139.783 491.945C140.178 492.933 141.804 492.072 141.834 493.397C142.12 506.096 141.641 518.816 141.834 531.515C141.87 533.869 146.518 532.287 148.862 532.091C149.138 532.068 149.459 531.793 149.463 531.515C149.655 518.523 149.174 505.512 149.463 492.522C149.488 491.37 153.486 491.072 153.565 489.594C153.934 482.668 153.103 475.707 153.565 468.784C153.675 467.135 157.868 467.342 157.942 465.558C158.316 456.478 157.474 447.368 157.942 438.295C158.007 437.041 169.329 431.536 169.373 430.091C169.849 414.366 169.579 398.647 169.673 382.916C169.682 381.421 169.414 381.497 169.973 380.565C170.65 379.437 172.159 378.022 173.5 377.639C173.992 377.498 176.641 377.62 176.701 376.738C176.883 374.106 176.52 371.466 176.701 368.834C176.786 367.601 181.175 367.486 181.979 367.084C183.788 366.18 182.209 363.228 184.03 362.682C188.671 361.289 185.866 365.95 188.132 367.084C189.143 367.589 193.568 367.76 193.71 369.135C193.971 371.661 193.529 374.204 193.71 376.738C193.854 378.752 200.677 377.519 200.738 381.14C200.93 392.473 200.93 403.825 200.738 415.158C200.734 415.433 200.358 415.538 200.163 415.733C199.331 415.178 195.727 412.385 194.885 412.807C192.812 413.844 190.825 425.938 190.783 427.738C190.689 431.786 189.671 436.908 192.534 439.769C187.424 443.176 181.634 445.56 177.602 450.325C176.753 451.327 174.456 453.714 175.251 455.303C175.918 456.637 178.854 458.031 179.928 459.104C182.903 454.642 185.976 450.894 190.483 447.673C192.619 446.149 195.784 445.024 197.512 443.296C196.958 442.743 196.061 442.182 196.061 441.245C196.061 438.019 196.182 434.786 196.361 431.565C196.527 428.582 198.077 419.295 200.163 417.209C200.198 417.26 201.056 418.654 201.339 418.659C210.521 418.851 219.695 418.851 228.877 418.659C229.154 418.654 229.474 418.361 229.478 418.084C229.671 401.964 228.645 385.81 229.478 369.709C229.542 368.467 231.979 368.32 232.104 367.084C232.89 359.307 231.913 351.435 232.104 343.622C232.124 342.817 233.691 343.301 234.455 343.046C235.693 342.634 235.927 340.195 236.206 339.219C238.043 332.791 241.434 324.675 241.209 318.135C241.164 316.844 239.841 310.445 242.659 308.755C243.737 308.108 244.71 310.69 244.71 311.38C244.71 314.019 244.193 316.723 244.71 319.31C246.229 326.902 249.021 334.267 250.288 341.87C250.634 343.949 253.723 342.082 253.79 343.921C254.072 351.733 253.082 359.575 253.79 367.358C253.909 368.668 256.433 368.995 256.441 370.31C256.538 384.868 256.248 399.425 256.441 413.981C256.445 414.259 256.74 414.55 257.017 414.558C265.222 414.748 273.449 414.748 281.654 414.558C281.93 414.55 282.226 414.259 282.229 413.981C282.422 396.397 282.036 378.791 282.229 361.205C282.251 359.188 289.823 359.159 289.858 357.404C290.049 347.733 289.666 338.06 289.858 328.389C289.863 328.113 290.157 327.793 290.433 327.788C302.352 327.596 314.283 327.596 326.201 327.788C326.477 327.793 326.771 328.113 326.776 328.389C326.968 338.158 326.585 347.935 326.776 357.704C326.782 357.981 327.1 358.272 327.377 358.279C335.093 358.469 342.822 358.469 350.538 358.279C350.814 358.272 351.109 357.981 351.114 357.704C351.306 345.003 350.732 332.281 351.114 319.584C351.161 318.002 356.643 317.103 356.691 315.483C356.881 309.135 356.318 302.764 356.691 296.423C356.833 294.022 365.416 292.228 365.471 289.695C365.662 280.805 365.101 271.914 365.471 263.031C365.543 261.305 367.903 260.543 368.997 259.204C370.511 257.356 368.703 244.75 372.524 246.024C373.867 246.47 373.657 251.398 373.675 251.601C374.088 256.349 374.019 259.094 377.202 262.731C377.384 262.94 377.771 263.031 377.777 263.307C377.968 272.099 377.223 280.918 377.777 289.695C377.94 292.269 386.119 293.663 386.281 296.423C386.648 302.666 385.739 308.952 386.281 315.183C386.445 317.065 392.121 317.647 392.159 319.584C392.446 334.238 391.966 348.902 392.159 363.557C392.163 363.834 392.458 364.146 392.734 364.158C397.029 364.344 401.346 364.344 405.641 364.158C405.917 364.146 406.212 363.834 406.216 363.557C406.408 351.149 406.024 338.745 406.216 326.339C406.264 323.228 416.038 328.32 416.196 325.163C416.381 321.454 416.011 317.74 416.196 314.033C416.21 313.757 416.495 313.438 416.771 313.432C425.758 313.24 434.748 313.24 443.735 313.432C444.011 313.438 444.321 313.757 444.335 314.033C444.521 317.74 444.15 321.454 444.335 325.163C444.518 328.827 456.246 322.716 456.341 326.339C456.531 333.565 456.151 340.796 456.341 348.024C456.482 353.36 475.298 343.889 475.401 349.5C475.688 365.228 475.208 380.943 475.401 396.673C475.404 396.95 475.7 397.265 475.976 397.274C482.715 397.464 489.472 397.464 496.211 397.274C496.487 397.265 496.776 396.95 496.786 396.673C496.975 391.498 496.031 386.264 496.786 381.14C497.079 379.158 500.876 379.019 501.189 377.038C501.676 373.95 500.922 370.774 501.189 367.659C501.422 364.935 510.094 365.065 510.268 362.682C510.539 358.978 510.083 355.259 510.268 351.55C510.282 351.274 510.592 350.962 510.868 350.95C515.652 350.762 520.442 350.762 525.226 350.95C525.502 350.962 525.787 351.274 525.801 351.55C525.986 355.259 525.53 358.978 525.801 362.682C526.001 365.421 534.684 365 534.905 367.659C535.173 370.872 534.549 374.135 534.905 377.339C535.036 378.517 538.988 379.418 539.008 380.841C539.393 408.39 538.813 435.954 539.008 463.507C539.01 463.784 539.307 464.099 539.583 464.108C546.615 464.298 560.693 464.108 560.693 464.108C560.693 464.108 543.828 393.091 562.169 392.572C572.229 392.286 582.297 392.38 592.359 392.572C592.635 392.577 592.933 392.896 592.934 393.171C593.129 439.776 592.74 486.387 592.934 532.991C592.936 533.268 593.234 533.551 593.51 533.567C596.533 533.75 599.591 533.75 602.614 533.567C602.89 533.551 603.179 533.268 603.19 532.991C603.377 528.207 603.002 523.394 603.19 518.61C603.2 518.333 603.514 518.047 603.79 518.034C607.987 517.847 612.199 517.847 616.396 518.034C616.672 518.047 616.965 518.333 616.971 518.61C617.162 527.01 616.781 535.422 616.971 543.822C616.978 544.098 617.271 544.409 617.547 544.423C621.157 544.607 624.804 544.072 628.402 544.423C629.683 544.548 631.353 549.302 631.554 550.375C633.494 547.751 633.561 540.236 633.98 537.093C635.925 522.504 636.906 507.87 636.906 493.122C636.906 489.307 636.524 485.5 636.306 481.69C636.145 478.863 635.743 465.57 633.98 463.807C633.934 463.841 633.9 463.897 633.855 463.932C633.656 463.277 632.311 462.094 631.979 461.505C633.199 457.243 634.682 451.928 631.329 448.575C629.169 450.735 627.974 454.214 626.051 456.779C623.208 454.884 627.137 450.087 628.102 447.673C630.129 442.606 630.471 431.284 626.351 427.163C622.98 429.411 623.767 435.151 622.124 439.07C620.979 437.921 621.572 438.488 619.598 436.844C619.308 437.134 619.19 437.505 619.073 437.868C618.727 435.385 620.144 432.923 620.773 430.091C622.387 422.829 625.103 411.558 618.722 405.178C614.3 409.599 617.214 419.293 612.269 424.238C607.649 419.616 612.164 415.918 612.569 411.055C612.74 409.009 612.604 406.914 612.869 404.877C613.208 402.281 615.796 399.798 615.796 396.673C615.796 394.055 612.169 387.495 610.218 385.543C608.894 386.866 610.322 388.522 609.643 390.221C607.404 395.817 606.97 401.433 603.49 406.654C602.335 405.498 601.139 401.925 601.139 400.2C601.139 398.865 602.983 397.111 603.49 396.099C605.649 391.779 606.416 384.678 606.416 379.964C606.416 372.096 592.877 354.01 587.957 347.449C535.707 277.781 460.171 236.975 373.8 236.969ZM340.208 252.202C341.024 252.094 341.776 252.214 342.334 253.052C338.915 257.61 335.264 261.974 331.479 266.233C335.874 271.361 337.045 279.502 336.156 286.168C335.983 287.462 327.176 287.695 327.077 286.469C326.697 281.789 327.02 277.077 326.501 272.411C326.365 271.182 326.019 268.127 325.026 267.134C324.898 267.005 322.672 265.791 323.275 265.082C327.589 260.007 330.952 253.642 337.632 252.751C338.5 252.636 339.392 252.309 340.208 252.202ZM359.918 253.052C361.407 252.679 366.962 253.689 367.522 254.528C363.412 258.396 358.277 261.721 354.34 265.658C355.81 267.127 357.497 267.433 359.018 269.459C361.702 273.038 362.103 278.755 362.544 282.942C362.581 283.291 363.64 287.57 362.244 287.644C359.9 287.767 357.507 287.853 355.216 287.344C354.223 287.123 353.957 278.127 353.465 275.913C352.938 273.543 352.051 270.096 350.238 268.284C348.895 266.94 346.86 266.317 345.836 264.783C349.287 261.906 353.505 259.764 356.691 256.579C357.816 255.453 358.375 253.438 359.918 253.052ZM311.944 253.351C313.262 253.303 314.599 253.351 315.646 253.351C316.776 256.741 312.13 264.197 309.793 266.534C311.804 270.555 312.655 284.151 308.317 287.043C306.502 288.253 302.803 287.644 300.688 287.644C299.744 284.812 303.64 279.214 303.64 275.913C303.64 273.466 303.31 271.469 302.739 269.185C302.596 268.611 301.499 266.567 301.864 265.957C303.42 263.365 305.116 261.779 306.266 258.904C306.828 257.502 306.799 254.512 308.317 253.927C309.327 253.538 310.626 253.401 311.944 253.351ZM395.386 256.279C396.55 256.342 402.581 256.471 403.865 257.753C399.292 261.565 394.311 265.257 390.108 269.459C394.082 273.764 396.003 276.832 396.836 282.666C397.322 286.062 399.326 291.279 394.785 290.271C393.161 289.909 389.922 289.786 388.632 288.82C387.671 288.099 387.906 281.433 387.757 280.015C387.151 274.264 385.219 271.625 381.304 267.709C384.342 265.279 387.856 263.366 390.683 260.68C392.237 259.204 393.246 256.159 395.386 256.279ZM292.184 256.428C293.147 256.392 293.92 256.514 294.26 256.853C291.61 259.503 290.275 264.719 287.807 268.01C290.072 270.274 284.548 286.854 281.654 287.644C280.04 288.084 278.346 288.127 276.676 288.219C273.638 288.387 274.379 288.873 273.15 287.644C275.351 283.24 279.772 277.865 280.178 272.986C280.259 272.012 280.398 271.012 280.178 270.06C280.106 269.748 278.857 269.252 279.303 268.584C281.562 265.195 283.496 263.726 284.28 259.805C284.616 258.125 289.295 256.536 292.184 256.428ZM271.399 261.255C274.258 264.226 266.923 269.267 266.121 271.236C265.493 272.776 265.972 274.557 265.821 276.214C265.339 281.519 261.189 288.63 255.841 289.394C254.296 289.615 252.713 290.368 251.464 289.12C252.98 286.087 255.101 283.048 256.741 280.315C258.346 277.642 257.15 274.717 258.192 272.111C258.732 270.762 260.173 269.988 261.119 268.885C262.566 267.195 263.477 263.522 265.221 262.432C266.567 261.589 269.803 261.483 271.399 261.255ZM418.822 261.255C420.551 261.255 426.409 261.93 427.327 263.307C423.106 266.473 418.143 269.563 414.42 273.286C419.55 277.135 421.232 282.373 422.349 288.519C422.78 290.889 424.962 296.236 421.174 295.548C419.747 295.288 416.958 295.61 415.896 294.973C413.651 293.625 414.809 289.375 414.42 287.043C413.531 281.707 410.057 274.476 406.216 270.635C407.135 268.798 416.282 263.303 418.247 261.555C418.41 261.411 418.604 261.255 418.822 261.255ZM444.335 268.01C446.204 267.822 451.512 268.457 452.814 269.76C449.934 272.281 445.552 274.788 443.435 277.964C447.91 283.079 448.586 288.3 449.613 294.973C449.973 297.312 451.4 301.089 449.613 302.877C448.23 302.185 441.64 301.62 441.384 299.95C439.786 289.567 439.468 284.938 434.955 275.913C438.135 273.37 441.151 271.815 443.735 268.584C443.907 268.368 444.06 268.036 444.335 268.01ZM468.647 276.514C470.164 276.079 476.149 278.137 477.152 279.139C473.884 281.753 470.158 284.382 467.197 287.344C472.158 291.065 472.678 298.348 473.35 304.053C473.485 305.204 473.262 308.303 473.925 309.63C473.485 309.923 473.489 309.911 473.05 310.205C472.036 309.192 465.277 307.798 465.146 306.704C464.476 301.12 464.095 296.647 462.794 291.445C462.397 289.854 458.413 285.541 459.268 284.118C459.975 282.938 462.837 281.945 463.97 281.19C465.694 280.041 466.828 277.034 468.647 276.514ZM494.46 286.168C495.947 285.743 501.926 288.286 502.664 289.394C499.827 291.949 496.223 294.06 493.56 296.724C497.825 301.7 499.62 307.147 500.313 313.731C500.46 315.125 500.156 318.995 500.888 320.461C500.595 320.753 500.606 320.767 500.313 321.06C498.363 320.086 493.886 319.031 492.409 317.259C489.942 314.298 490.866 306.526 489.458 302.301C489.116 301.276 485.067 292.942 485.081 292.921C486.674 290.531 490.365 290.563 492.409 288.519C493.144 287.784 493.462 286.454 494.46 286.168ZM515.846 296.724C517.069 296.113 522.789 298.688 523.75 299.649C521.069 301.885 518.007 303.942 515.546 306.404C520.905 312.433 523.564 321.872 522.874 330.14C522.699 332.25 513.613 326.361 513.495 325.738C512.543 320.743 513.192 315.454 510.868 310.805C510.347 309.764 506.248 304.041 506.766 303.176C507.97 301.17 512.037 300.356 513.795 298.774C514.514 298.127 514.981 297.156 515.846 296.724ZM536.656 308.755C537.828 308.168 542.785 311.918 543.41 312.856C541.632 314.498 539.843 316.123 538.132 317.834C543.102 323.632 543.709 331.158 544.285 338.644C544.38 339.873 544.145 344.241 544.86 345.673C543.293 346.717 537.294 342.082 536.356 340.396C536.206 340.125 536.656 339.829 536.656 339.519C536.656 335.002 536.047 330.063 534.605 325.738C533.432 322.217 530.573 318.406 529.928 315.183C529.87 314.896 529.758 314.546 529.928 314.308C531.045 312.743 533.079 312.906 534.305 311.68C534.474 311.512 536.025 309.07 536.656 308.755ZM558.942 322.812C561.434 325.45 561.428 325.452 563.92 328.089C562.772 329.62 560.079 330.807 559.518 332.491C559.505 332.531 563.882 347.077 563.92 348.899C564.005 353.002 564.106 357.106 563.92 361.205C563.907 361.481 563.515 361.611 563.32 361.805C561.779 360.651 556.093 357.813 555.716 355.928C554.742 351.057 555.901 345.226 555.116 340.12C554.619 336.892 551.889 332.332 551.889 329.264C551.889 328.212 554.949 326.885 555.716 326.339C557.103 325.348 557.753 324 558.942 322.812ZM578.277 339.519C580.105 341.5 582.2 343.271 583.855 345.397C584.739 346.534 580.495 349.741 580.328 350.075C579.703 351.327 580.953 352.8 581.204 354.178C581.598 356.348 581.804 354.837 581.804 358.279C581.804 363.067 581.588 367.849 581.504 372.637C581.456 375.365 582.18 374.553 580.628 375.587C578.714 373.5 575.957 371.974 574.75 369.409C574.668 369.235 575.351 365.36 575.351 365.033C575.351 363.05 571.931 346.56 572.424 345.673C573.466 343.798 576.789 341.007 578.277 339.519ZM593.81 359.454C594.816 360.964 598.787 365.628 598.787 367.358C598.787 369.38 597.495 370.019 597.337 371.76C597.032 375.116 597.102 377.935 596.461 381.14C596.01 383.397 595.466 388.041 593.51 389.344C591.984 387.565 589.301 385.279 588.257 383.192C587.959 382.594 590.057 379.094 590.308 378.214C591.202 375.086 591.897 361.368 593.81 359.454ZM146.236 392.296C148.537 392.872 151.324 392.952 151.789 394.348C152.166 395.479 150.391 398.966 150.038 400.2C148.459 405.728 146.536 413.408 149.163 418.659C145.948 421.473 142.301 425.029 140.358 428.914C139.712 430.207 138.89 434.639 138.032 435.067C137.245 435.461 133.882 433.199 133.63 432.442C133.514 432.094 134.4 429.937 134.505 429.514C135.736 424.592 141.428 420.546 144.185 417.209C144.457 416.88 142.709 409.945 142.709 409.279C142.709 405.123 142.711 395.822 146.236 392.296ZM159.993 396.099C160.227 395.981 166.079 397.894 166.171 398.724C167.082 406.925 159.698 415.142 164.395 424.538C160.693 427.313 157.753 428.8 154.74 433.017C153.048 435.385 151.978 439.005 150.038 440.945C148.86 440.356 146.168 439.604 145.361 438.594C142.042 434.445 156.839 424.079 157.667 422.187C158.27 420.807 157.067 419.897 157.067 418.659C157.067 411.682 157.094 408.942 157.942 403.426C158.173 401.928 158.483 396.853 159.993 396.099ZM178.052 403.526C177.38 403.437 176.872 403.5 176.701 403.726C173.975 407.363 174.028 428.293 176.701 430.966C174.288 434.183 159.794 441.438 161.469 445.348C162.423 447.574 164.923 448.866 166.746 450.325C169.463 447.608 171.237 444.084 174.075 441.245C176.992 438.329 181.708 437.414 184.33 434.793C179.795 429.123 181.367 418 182.579 411.33C182.815 410.036 183.97 407.647 183.755 406.353C183.572 405.259 180.069 403.798 178.052 403.526ZM213.645 425.413C212.378 426.046 211.463 430.531 211.019 431.865C208.832 438.425 204.476 446.995 208.942 452.952C205.803 457.661 176.192 459.541 193.135 470.836C196.127 467.844 198.705 465.111 202.514 463.207C205.805 461.562 211.605 461.445 214.22 458.829C210.397 453.094 216.563 436.861 219.798 430.39C218.923 429.514 214.8 424.836 213.645 425.413ZM315.196 430.115C308.402 430.139 301.615 430.308 294.835 430.69C293.687 430.755 291.381 434.997 290.733 435.967C287.48 440.848 284.821 445.717 282.229 450.901C271.614 472.13 261.792 494.365 252.914 516.558C247.033 531.26 239.432 547.357 229.778 560.231C228 562.601 220.902 573.313 215.996 570.51C212.848 568.712 215.079 562.404 215.996 559.654C219.424 549.371 226.428 541.994 231.229 532.391C230.935 532.098 230.946 532.11 230.653 531.816C223.968 535.159 215.559 537.322 208.367 539.72C206.162 540.455 202.214 541.145 200.463 542.646C192.393 549.563 186.833 562.25 184.33 572.261C182.544 579.408 180.608 588.994 184.63 595.697C192.494 608.804 212.9 613.466 225.651 603.902C232.057 599.097 237.979 594.826 243.835 588.97C255.009 577.795 260.786 563.543 269.048 551.15C269.341 551.443 269.33 551.457 269.623 551.75C267.92 555.155 267.76 560.034 266.696 563.756C263.976 573.278 261.906 585.34 256.741 593.947C256.039 595.117 250.5 605.201 250.588 605.378C250.982 606.165 251.307 605.96 252.039 605.952C263.177 605.857 274.336 606.327 285.456 605.678C286.636 605.609 293.114 595.091 294.26 593.371C302.606 580.852 309.642 567.486 317.997 554.952C319.413 556.369 316.198 564.841 315.946 566.984C314.862 576.197 314.575 589.221 321.499 596.874C330.096 606.376 345.142 610.288 356.391 601.851C359.157 599.777 362.241 596.764 365.196 595.122C365.387 595.016 365.611 595.274 365.771 595.423C367.813 597.328 369.51 599.528 371.924 600.976C376.202 603.543 381.698 604.314 386.581 604.803C403.928 606.538 419.102 600.448 431.729 588.97C434.263 591.504 435.558 595.125 438.182 597.749C445.527 605.093 458.917 606.114 468.072 602.452C471.814 600.955 478.86 595.062 481.554 594.523C482.661 594.301 485.316 596.924 486.231 597.473C489.926 599.691 494.23 601.784 498.562 602.452C520.858 605.881 538.364 596.409 548.387 576.364C553.057 567.024 551.788 553.573 549.838 543.822C548.218 535.721 544.86 528.894 544.86 520.385C544.86 517.485 548.222 513.736 549.838 511.58C546.557 507.479 540.012 506.197 535.781 503.377C538.615 500.543 547.728 503.392 552.489 502.202C553.78 501.878 554.222 497.654 554.84 496.623C556.182 494.387 563.901 476.382 563.32 474.637C547.208 474.637 531.077 474.784 514.97 475.238C514.752 475.243 514.566 475.44 514.37 475.538C514.077 475.245 514.088 475.231 513.795 474.938C516.811 468.904 521.273 462.007 522.874 455.603C523.158 454.469 528.666 445.654 526.701 445.623C514.392 445.43 502.063 445.245 489.758 445.623C488.501 445.661 486.165 451.978 485.656 453.252C482.799 460.392 479.427 468.527 475.401 475.238C473.789 477.923 469.153 475.779 466.021 475.812C460.061 475.878 454.086 475.741 448.137 476.113C447.115 476.176 445.174 481.74 444.61 482.866C441.132 489.824 437.945 496.498 434.355 503.676C436.574 505.896 442.141 504.334 444.035 504.252C446.896 504.127 459.981 502.613 461.319 503.952C450.047 526.495 443.431 550.995 421.749 567.859C414.417 573.562 396.89 582.049 391.559 571.385C392.968 569.976 396.39 570.294 398.312 569.909C403.316 568.909 408.474 567.716 413.245 565.808C434.093 557.468 454.791 534.067 434.355 513.631C432.891 512.168 430.507 510.957 428.802 510.106C405.683 498.546 375.643 521.008 364.595 539.419C360.337 546.516 356.923 555.138 356.091 563.457C356.013 564.237 356.622 580.104 351.989 574.312C350.418 572.348 351.18 566.553 351.414 564.332C352.148 557.361 354.373 550.005 356.966 543.521C367.873 516.255 379.961 491.979 392.734 466.433C396.745 458.411 401.413 450.853 405.341 442.997C407.213 439.252 409.611 435.906 411.494 432.142C411.623 431.882 412.42 430.714 411.194 430.69C396.541 430.401 381.888 430.038 367.247 430.69C364.83 430.798 363.857 434.166 362.244 435.967C358.658 439.976 355.509 444.281 352.289 448.575C337.839 467.841 326.9 489.272 313.595 509.229C312.52 508.154 315.953 496.269 316.521 493.997C320.249 479.084 323.393 464.026 328.252 449.45C329.671 445.193 331.22 440.863 333.23 436.844C333.648 436.007 337.103 430.432 335.581 430.39C328.793 430.204 321.989 430.091 315.196 430.115ZM378.052 435.717C385.955 435.538 393.9 436.243 401.814 436.243C402.68 438.842 399.427 441.943 398.312 444.173C393.689 453.418 388.257 462.505 383.655 471.711C378.403 482.214 373.446 494.219 367.247 504.553C363.76 510.365 362.159 517.616 358.742 523.312C354.858 529.785 353.56 538.13 350.813 544.997C347.013 554.5 344.143 566.091 346.711 576.364C348.454 583.332 358.996 581.409 361.669 576.063C362.373 574.654 361.094 572.962 361.094 571.385C361.094 565.242 362.364 556.514 365.196 550.851C375.325 530.591 396.473 508.877 421.749 513.932C444.815 518.545 437.581 541.442 424.975 552.902C417.833 559.394 407.945 562.259 398.612 564.332C394.123 565.33 389.596 565.21 385.106 565.808C384.832 565.845 384.565 566.109 384.53 566.384C383.888 571.519 386.894 577.134 390.683 580.165C399.313 587.069 418.466 577.639 426.151 571.66C450.229 552.933 457.856 522.933 470.423 497.798C469.325 496.7 464.092 497.769 463.37 497.798C460.147 497.93 456.938 497.971 453.715 498.099C453.017 498.127 444.06 499.426 443.735 497.798C443.586 497.055 451.334 482.229 451.664 481.966C451.834 481.829 452.021 481.697 452.239 481.69C460.933 481.474 469.824 483.212 478.327 481.39C479.276 481.188 483.336 471.074 484.18 469.385C486.354 465.036 488.452 460.541 490.633 456.178C491.131 455.183 491.912 451.656 493.285 451.5C497.169 451.06 501.081 451.248 504.99 451.2C509.289 451.149 513.602 451.014 517.897 451.2C518.173 451.212 518.277 451.58 518.472 451.776C514.699 459.322 511.662 466.921 507.942 474.363C507.456 475.334 504.406 479.348 504.99 480.515C505.114 480.762 505.315 481.084 505.591 481.091C509.988 481.185 514.375 480.889 518.772 480.815C526.002 480.693 533.228 480.637 540.458 480.515C544.758 480.442 549.065 480.305 553.365 480.216C553.836 480.205 554.944 479.959 555.116 480.815C555.262 481.55 548.999 496.467 548.687 496.623C548.327 496.803 547.914 496.911 547.512 496.923C541.456 497.106 535.386 497.142 529.328 497.224C518.483 497.372 507.575 496.408 496.786 497.524C495.407 497.666 494.923 501.577 494.46 502.502C492.599 506.223 490.807 510.384 488.882 514.232C481.14 529.716 474.2 545.948 466.321 561.706C464.724 564.9 462.036 576.51 468.647 575.188C471.606 574.596 479.626 563.36 482.129 560.231C492.63 547.104 502.853 533.726 513.795 520.961C516.783 517.475 523.932 507.358 528.152 506.303C529.013 506.087 541.002 512.399 541.934 513.332C536.687 523.826 541.367 533.347 543.985 543.822C547.126 556.388 546.6 571.683 538.407 582.216C527.326 596.463 512.338 600.024 495.036 595.697C490.089 594.462 486.031 590 481.854 587.494C481.018 586.991 476.761 591.5 475.401 592.471C470.516 595.961 464.255 598.924 458.092 598.924C449.371 598.924 443.394 595.918 438.182 588.97C436.645 586.919 436.475 582.037 434.355 580.765C433.573 580.297 430.806 582.328 430.253 582.817C423.641 588.65 417.164 594.107 408.867 596.874C398.874 600.205 384.552 601.939 375.151 596.298C371.065 593.847 368.979 589.441 365.196 586.918C351.969 602.79 323.605 608.428 321.224 581.04C320.058 567.641 323.488 553.951 329.428 542.072C331.86 537.207 334.757 533.287 336.756 528.289C337.454 526.544 339.015 522.528 335.881 522.136C332.494 521.712 330.556 525.87 328.827 528.289C323.637 535.556 318.488 542.919 313.895 550.576C306.513 562.878 298.69 574.891 291.309 587.193C290.457 588.612 283.373 599.779 282.829 599.799C275.507 600.082 268.171 599.799 260.843 599.799C260.201 597.871 265.304 588.004 266.121 585.143C270.056 571.371 274.131 557.865 277.252 543.822C277.997 540.47 281.299 525.982 278.127 524.763C274.59 523.402 266.571 541.122 265.821 544.122C264.833 548.072 261.63 551.928 259.668 555.852C252.778 569.633 243.119 581.808 231.829 592.471C227.36 596.692 218.671 602.751 212.169 602.751C206.904 602.751 197.957 602.596 193.71 598.35C190.742 595.381 188.132 591.309 188.132 586.918C188.132 575.957 194.537 554.419 203.965 547.348C207.287 544.857 212.919 544.773 216.571 542.947C217.63 544.535 214.135 548.875 213.345 550.851C210.612 557.682 204.969 569.562 212.469 575.188C216.37 578.114 223.678 575.409 226.826 572.261C235.534 563.553 242.169 552.131 247.637 541.196C255.91 524.649 264.11 507.065 271.099 489.594C274.834 480.255 278.494 470.139 283.705 461.455C287.538 455.067 289.773 448.599 293.66 442.122C294.364 440.947 296.637 436.325 298.062 436.243C307.621 435.692 317.201 436.243 326.776 436.243C327.496 438.402 321.538 452.101 320.623 455.303C315.723 472.454 311.774 489.851 307.442 507.178C306.679 510.228 301.458 528.163 302.739 529.764C306.176 534.061 309.586 526.951 311.244 524.188C317.648 513.514 324.199 502.92 330.603 492.247C339.36 477.651 348.515 463.087 358.742 449.45C360.967 446.483 363.213 443.33 365.771 440.646C367.2 439.144 368.116 436.495 370.173 436.243C372.792 435.923 375.418 435.777 378.052 435.717ZM518.472 501.401C520.621 501.2 522.632 501.358 524.05 502.776C517.169 507.363 511.688 515.455 506.466 521.836C494.846 536.038 484.262 552.269 471.299 565.232C471.006 564.793 470.991 564.771 470.698 564.332C474.121 560.909 475.533 553.837 477.752 549.399C483.227 538.448 489.203 527.324 493.86 515.683C495.397 511.839 497.09 506.507 499.438 503.377C501.969 500.002 507.825 502.255 512.044 502.202C514.049 502.175 516.324 501.603 518.472 501.401ZM229.478 438.295C226.546 441.226 223.434 456.784 223.025 460.88C222.726 463.865 222.328 466.312 224.5 468.485C223.039 469.945 219.738 470.339 217.747 471.135C212.707 473.151 205.541 476.788 203.09 481.69C204.79 483.392 206.047 485.618 207.492 487.543C210.866 484.411 216.242 479.346 220.973 478.164C223.537 477.524 228.837 476.454 230.653 474.637C226.498 469.442 230.668 457.611 232.704 451.5C233.024 450.541 235.9 444.562 235.331 443.872C233.614 441.793 231.432 440.151 229.478 438.295ZM251.164 462.057C246.638 466.582 237.265 484.058 240.033 489.594C236.726 492.902 225.299 491.848 220.098 495.748C219.16 496.452 215.924 497.587 216.271 498.974C216.783 501.021 219.938 504.125 221.274 505.728C225.853 501.149 232.566 499.358 238.857 498.099C241.301 497.611 245.007 497.803 246.761 496.048C240.068 489.356 253.639 475.498 256.141 469.659C256.666 468.435 252.044 463.156 251.164 462.057ZM245.161 513.731C244.052 513.663 242.039 514.649 241.484 514.808C237.728 515.88 231.798 517.164 228.877 520.086C229.838 522.006 229.971 524.38 231.529 525.938C234.299 524.091 237.416 522.934 240.608 522.136C241.614 521.885 244.957 521.721 245.311 520.66C245.783 519.242 246.255 515.707 245.886 514.232C245.804 513.905 245.53 513.755 245.161 513.731ZM412.244 525.237C411.211 525.177 410.158 525.211 409.143 525.362C400.78 526.611 393.924 535.212 389.808 542.072C388.815 543.726 385.174 552.633 386.881 553.202C388.645 553.789 390.575 553.501 392.434 553.501C401.42 553.501 411.325 547.241 417.372 541.196C421.379 537.188 422.898 527.183 415.296 525.663C414.289 525.462 413.277 525.298 412.244 525.237ZM410.318 530.915C413.424 530.582 417.369 532.97 413.845 536.494C411.912 538.426 398.667 548.99 394.785 547.048C392.863 546.087 398.07 539.962 398.887 539.144C402.044 535.987 405.689 531.413 410.318 530.915ZM520.823 528.59C513.24 536.173 500.031 550.831 495.911 561.13C495.342 562.553 498.027 563.716 498.837 564.933C493.958 569.812 491.814 583.529 501.189 584.867C524.245 588.162 525.338 561.712 523.475 545.872C523.058 542.327 523.016 530.782 520.823 528.59ZM516.721 542.371C518.459 541.485 518.011 548.992 518.197 550.851C519.315 562.032 518.378 580.148 502.939 579.289C502.012 579.239 501.343 578.083 500.888 577.538C497.225 573.143 503.931 567.778 506.166 564.933C507.491 563.246 502.536 562.342 503.24 560.231C505.211 554.317 511.363 545.106 516.721 542.371ZM312.119 593.646C310.179 595.587 308.597 601.514 309.493 604.202C309.899 605.42 311.593 605.876 311.844 607.129C311.897 607.391 311.936 607.534 311.969 607.754C311.144 607.101 310.693 607.168 308.917 607.129C305.4 607.048 301.881 606.854 298.362 606.854C294.349 606.854 292.911 609.803 290.733 612.707C290.929 613 290.957 613.563 291.309 613.582C296.675 613.865 302.068 613.508 307.442 613.582C309.308 613.607 311.35 613.347 313.02 614.183C314.448 612.754 315.078 611.162 314.145 609.929C315.001 608.634 314.686 606.687 314.77 605.077C315.079 599.212 317.095 598.622 312.119 593.646ZM592.359 598.074C589.616 598.074 586.86 598.17 584.13 598.35C583.295 598.404 573.974 606.408 572.124 607.729C562.193 614.822 551.511 619.797 541.359 625.888C531.601 631.742 519.026 635.976 507.942 639.669C480.498 648.818 452.646 657.174 423.8 660.78C412.05 662.25 400.207 664.188 388.332 664.308C380.614 664.385 372.912 664.497 365.196 664.308C365 664.303 364.89 664.064 364.77 663.881C364.99 663.823 365.379 663.795 365.471 663.707C367.568 661.702 369.613 659.645 371.624 657.553C372.419 656.726 375.884 653.021 375.151 651.701C374.8 651.069 371.407 646.97 370.748 647.298C369.381 647.982 366.849 652.58 365.771 653.751C364.227 655.431 362.706 657.116 361.094 658.73C360.717 659.106 360.5 659.294 360.218 659.605C359.673 659.965 358.998 660.306 358.267 660.63C358.052 660.54 357.833 660.447 357.567 660.181C355.938 661.402 356.8 660.826 354.915 661.956C355.05 662.226 355.149 662.658 355.291 663.057C352.797 663.889 350.19 663.068 347.587 662.832C337.373 661.903 327.231 660.86 317.122 659.304C276.472 653.051 235.737 643.087 198.987 624.712C190.657 620.548 182.533 615.771 174.95 610.356C173.671 609.442 165.552 602.761 165.271 602.751C160.096 602.563 154.898 602.314 149.738 602.751C149.164 602.799 140.05 610.529 138.132 612.356C137.614 613.49 137.858 614.769 139.383 616.359C139.317 616.41 139.248 616.456 139.183 616.509C139.525 617.193 139.911 617.914 140.258 618.61C139.933 617.734 139.483 616.509 139.483 616.509L150.338 608.029L150.913 636.443C150.913 636.443 149.211 634.278 147.337 631.74C148.466 633.571 149.646 635.354 150.913 637.043C152.106 641.816 159.783 650.913 163.045 654.977C163 655.059 163.078 654.936 162.944 655.202C166.954 659.212 170.07 664.362 173.775 668.684C174.679 669.739 175.052 671.715 176.426 671.91C179.437 674.942 182.307 678.16 185.206 681.29C186.093 682.249 186.537 684.177 187.832 684.217C187.74 684.125 187.649 684.034 187.557 683.942C187.752 683.746 187.856 683.342 188.132 683.341C257.796 683.146 327.473 683.146 397.137 683.341C397.413 683.342 397.516 683.746 397.712 683.942C397.698 683.97 397.676 683.99 397.662 684.018C394.584 685.654 391.919 689.654 389.508 692.496C387.246 694.192 384.985 695.86 383.18 697.823C382.354 698.365 381.513 698.886 380.728 699.475C381.493 701.005 383.228 701.934 384.53 702.976C381.8 705.707 373.6 705.529 370.173 705.628C364.605 705.789 359.028 705.645 353.465 705.928C353.189 705.942 353.06 706.308 352.864 706.504C354.77 708.409 356.068 711.746 358.742 712.082C362.382 712.537 385.727 711.46 389.508 707.678C388.756 706.176 386.817 704.865 385.706 703.876C386.043 703.371 386.474 702.907 386.956 702.476C388.479 701.797 390.438 700.186 392.484 698.324C396.884 694.585 401.844 690.635 404.465 685.393C403.782 684.71 403.118 684.33 402.464 683.991C402.446 683.982 402.433 683.952 402.414 683.942C403.105 683.25 403.942 682.875 404.865 682.716C407.636 682.244 411.213 683.635 414.145 683.641C454.204 683.731 494.246 683.641 534.305 683.641C534.501 683.641 534.71 683.641 534.905 683.641C543.21 683.641 551.518 683.356 559.818 683.641C560.17 683.654 560.198 684.225 560.393 684.518C564.316 680.595 568.486 676.662 571.824 672.212L568.322 671.035L568.322 615.933C568.322 615.933 572.924 612.293 576.376 609.755C579.829 607.216 585.306 603.027 585.306 603.027L586.481 653.751C586.481 653.751 584.854 656.328 583.055 659.054C585.088 656.418 586.778 654.087 586.781 653.452C586.781 653.436 586.781 653.418 586.781 653.402C589.477 650.548 597.794 639.202 598.387 635.442C598.44 635.48 598.471 635.527 598.512 635.567C600.075 634.005 601.372 632.006 602.589 629.914C600.46 633.109 598.512 634.992 598.512 634.992L598.512 603.626L609.643 613.282C609.643 613.282 608.281 617.918 606.016 623.287C606.722 621.784 607.483 620.226 608.167 618.86C608.749 617.694 611.034 614.571 610.518 613.282C611.603 612.593 612.808 609.895 612.569 609.179C612.562 609.158 612.529 609.15 612.519 609.13C612.429 609.231 612.363 609.386 612.269 609.48C611.934 609.256 602.495 598.477 600.563 598.35C597.834 598.168 595.103 598.073 592.359 598.074ZM164.12 607.428L181.704 620.035L181.704 670.461L176.126 671.611C176.126 671.611 173.784 668.697 169.873 663.557C165.962 658.418 163.22 655.202 163.22 655.202L164.12 607.428ZM563.045 618.284C563.369 618.148 563.914 618.508 563.92 618.86C564.21 636.443 564.113 654.024 563.92 671.611C563.917 671.888 563.596 672.202 563.32 672.212C558.047 672.399 552.784 672.399 547.512 672.212C547.236 672.202 546.915 671.888 546.911 671.611C546.719 656.859 546.622 642.115 546.911 627.364C546.924 626.74 550.231 625.693 550.738 625.312C554.195 622.721 558.982 619.986 563.045 618.284ZM186.681 622.386C191.052 623.59 194.92 626.806 198.987 628.84C199.626 629.159 203.078 630.376 203.09 631.165C203.282 644.549 203.282 657.952 203.09 671.336C203.086 671.611 202.79 671.902 202.514 671.91C197.242 672.1 191.954 672.1 186.681 671.91C186.405 671.902 186.084 671.611 186.081 671.336C185.888 655.216 185.888 639.082 186.081 622.962C186.084 622.686 186.415 622.312 186.681 622.386ZM542.234 629.414C542.501 629.341 542.806 629.713 542.809 629.99C543.002 643.862 543.002 657.739 542.809 671.611C542.806 671.888 542.51 672.202 542.234 672.212C536.961 672.399 531.674 672.399 526.401 672.212C526.125 672.202 525.806 671.888 525.801 671.611C525.609 660.181 525.423 648.744 525.801 637.318C525.839 636.178 529.046 635.346 529.928 634.992C534.128 633.312 537.943 630.591 542.234 629.414ZM207.792 633.216C212.029 634.375 216.475 636.533 220.398 638.495C220.962 638.777 224.185 639.466 224.2 640.27C224.392 650.625 224.392 660.981 224.2 671.336C224.195 671.611 223.876 671.902 223.6 671.91C218.327 672.1 213.065 672.1 207.792 671.91C207.516 671.9 207.196 671.611 207.192 671.336C206.999 658.831 206.999 646.322 207.192 633.817C207.196 633.54 207.525 633.144 207.792 633.216ZM521.374 638.745C521.701 638.809 521.992 638.972 521.999 639.37C522.191 650.115 522.191 660.865 521.999 671.611C521.994 671.888 521.7 672.202 521.424 672.212C516.151 672.399 510.864 672.399 505.591 672.212C505.315 672.202 504.996 671.888 504.99 671.611C504.799 662.721 504.799 653.837 504.99 644.947C504.996 644.672 505.354 644.514 505.591 644.372C510.014 641.718 515.824 641 520.548 638.794C520.697 638.725 521.046 638.679 521.374 638.745ZM228.602 641.721C233.53 643.891 240.71 644.173 243.535 646.999C241.827 648.707 243.809 648.471 243.835 650.226C243.928 656.477 243.468 662.742 243.835 668.985C243.893 669.98 245.406 671.875 244.41 671.91C239.138 672.1 233.875 672.1 228.602 671.91C228.326 671.902 228.007 671.611 228.002 671.336C227.811 661.664 227.81 651.992 228.002 642.322C228.007 642.044 228.407 641.917 228.602 641.721ZM500.563 646.399C500.886 646.457 501.179 646.625 501.189 646.999C501.379 654.812 501.379 662.646 501.189 670.461C501.182 670.736 500.809 670.841 500.613 671.035C500.027 670.596 500.024 670.6 499.438 670.16C496.676 672.922 484.218 672.216 484.18 671.336C483.9 664.795 483.99 658.245 484.18 651.701C484.188 651.424 484.559 651.266 484.78 651.101C487.729 648.889 495.975 646.957 499.713 646.423C499.88 646.399 500.241 646.34 500.563 646.399ZM249.413 648.475C253.463 649.572 257.384 650.823 261.419 651.976C261.938 652.125 265.798 652.74 265.821 653.452C266.01 659.409 266.01 665.379 265.821 671.336C265.812 671.611 265.497 671.902 265.221 671.91C259.948 672.1 254.685 672.1 249.413 671.91C249.137 671.9 248.819 671.611 248.812 671.336C248.622 663.913 248.622 656.472 248.812 649.049C248.819 648.774 249.146 648.402 249.413 648.475ZM479.503 652.577C480.382 659.221 480.657 665.284 480.378 671.336C480.292 673.201 476.667 671.947 474.8 671.91C471.185 671.84 467.205 670.593 463.97 672.212C462.973 670.883 463.095 671.534 463.095 670.461C463.095 666.259 463.001 662.054 463.095 657.854C463.13 656.249 477.339 653.01 479.503 652.577ZM270.223 654.327C272.011 654.471 273.762 655.067 275.501 655.503C276.821 655.832 286.608 657.885 286.631 658.429C286.818 662.725 286.818 667.04 286.631 671.336C286.619 671.611 286.332 671.902 286.056 671.91C280.783 672.1 275.496 672.1 270.223 671.91C269.947 671.9 269.632 671.611 269.623 671.336C269.434 665.867 269.434 660.395 269.623 654.928C269.632 654.652 269.948 654.306 270.223 654.327ZM458.392 657.854C458.742 657.809 459.245 658.077 459.268 658.429C459.547 662.72 459.454 667.04 459.268 671.336C459.256 671.611 458.969 671.902 458.692 671.91C453.42 672.1 448.132 672.1 442.859 671.91C442.583 671.902 442.3 671.611 442.284 671.336C442.1 668.215 442.101 665.077 442.284 661.956C442.349 660.852 456.462 658.098 458.392 657.854ZM291.309 658.73C296.088 660.832 302.238 659.673 306.866 661.655C307.247 661.819 307.704 662.119 307.742 662.532C308.007 665.451 307.925 668.41 307.742 671.336C307.725 671.611 307.418 671.902 307.142 671.91C301.869 672.1 296.581 672.1 291.309 671.91C291.032 671.902 290.746 671.611 290.733 671.336C290.547 667.335 290.547 663.307 290.733 659.304C290.746 659.029 291.056 658.619 291.309 658.73ZM437.482 662.157C437.963 662.193 438.427 662.365 438.457 662.832C438.64 665.659 438.64 668.509 438.457 671.336C438.439 671.611 438.158 671.909 437.882 671.91C395.967 672.106 354.034 672.106 312.119 671.91C311.843 671.909 311.563 671.611 311.544 671.336C311.362 668.703 311.362 666.038 311.544 663.407C311.563 663.131 311.844 662.855 312.119 662.832C315.331 662.563 319.239 663.885 322.399 664.308C329.502 665.255 336.651 666.038 343.785 666.634C366.647 668.538 389.606 668.604 412.369 665.758C420.084 664.793 428.972 664.644 436.406 662.231C436.502 662.201 437 662.119 437.482 662.157ZM341.634 611.755C340.445 611.852 339.229 612.131 338.507 612.131C337.428 612.131 336.339 611.62 335.281 611.831C333.824 612.122 327.75 620.88 326.501 622.962C325.197 625.135 322.873 628.438 325.026 630.591C324.732 630.884 324.743 630.872 324.45 631.165C320.691 629.287 316.046 630.821 311.844 630.89C308.977 630.938 299.695 630.433 297.487 632.641C298.44 634.548 299.778 637.284 301.289 638.794C302.05 639.556 301.703 638.814 302.464 638.794C305.98 638.702 309.503 638.846 313.02 638.794C317.808 638.723 327.024 636.992 331.779 639.37C332.072 639.077 332.061 639.087 332.354 638.794C331.854 637.794 330.613 637.255 330.303 636.168C327.414 626.058 340.976 619.774 344.66 612.407C343.982 611.729 342.823 611.659 341.634 611.755ZM355.516 626.489C347.709 634.294 342.724 641.376 339.383 651.4C334.706 651.4 329.72 650.386 325.026 650.226C320.046 650.053 314.983 649.405 310.068 650.226C308.858 650.427 314.03 657.949 315.071 658.429C315.689 658.715 320.042 658.141 320.348 658.13C327.77 657.827 335.181 657.553 342.609 657.553C344.663 657.553 347.31 658.707 348.762 657.254C347.976 656.467 346.023 654.763 345.836 653.452C345.151 648.658 358.025 636.769 360.193 633.516C360.793 632.617 356.24 627.212 355.516 626.489ZM372.524 688.62C372.033 688.198 366.316 689.159 365.771 689.22C358.937 689.979 351.827 690.37 344.96 690.37C343.378 690.37 340.905 689.148 339.683 690.37C340.347 691.698 343.912 695.399 344.66 695.947C347.183 697.798 350.912 696.249 354.04 696.249C357.781 696.249 373.035 695.712 376.026 692.721C374.774 691.47 373.854 689.76 372.524 688.62ZM414.72 695.072C408.463 701.331 403.473 708.423 396.261 713.832C396.729 714.299 397.214 714.605 397.662 714.982C399.854 716.764 400.15 715.97 401.239 717.058C400.11 718.188 399.24 717.287 397.387 718.085C391.222 720.438 377.202 720.83 373.4 721.16C371.866 721.293 369.156 720.428 368.122 721.461C374.107 730.438 387.89 725.708 396.536 723.787C399.319 723.168 403.898 722.878 405.916 720.861C404.571 719.515 403.062 718.5 401.539 717.359C406.578 712.319 412.779 708.41 417.072 702.402C417.4 701.942 418.822 700.293 418.822 699.75C418.822 698.383 415.603 695.956 414.72 695.072ZM428.202 707.678C422.093 713.788 417.667 718.812 410.618 723.511C411.285 724.513 411.978 724.903 412.969 725.562C409.132 730.681 401.096 732.432 395.086 733.766C392.704 734.297 389.226 733.749 387.457 735.518C394.214 742.275 403.778 738.049 411.194 734.342C414.36 732.759 420.11 729.598 415.896 726.438C420.161 722.173 425.863 719.398 430.253 715.008C431.193 714.067 433.288 712.92 432.604 711.78C431.449 709.856 429.929 708.975 428.202 707.678ZM441.109 717.634C439.552 718.412 437.473 722.145 436.406 723.212C432.917 726.702 428.406 728.446 424.4 731.115C425.06 732.105 425.469 732.236 426.451 732.891C423.56 738.674 414.534 740.928 408.867 742.547C407.03 743.072 405.261 742.927 403.865 744.322C408.448 748.905 420.241 744.947 424.975 741.395C426.546 740.217 432.293 736.683 429.953 734.342C433.427 729.131 442.221 727.99 445.786 720.861C445.171 720.245 442.338 717.019 441.109 717.634ZM453.715 724.962C450.693 726.775 448.878 730.1 446.386 732.591C443.682 735.295 439.477 735.398 437.007 737.869C438.231 739.093 437.553 738.491 439.058 739.62C435.894 742.784 432.884 745.045 429.078 746.948C426.307 748.333 422.605 748.138 419.998 749.875C424.338 755.299 434.802 749.898 439.333 746.374C441.76 744.485 445.421 742.481 442.559 739.62C447.268 734.912 453.34 733.879 457.517 727.614C457.196 727.186 454.52 724.48 453.715 724.962ZM464.845 730.841C462.172 733.514 460.056 736.519 456.941 738.745C455.063 740.087 452.289 740.745 450.763 742.271C453.961 745.468 457.596 743.159 460.443 740.495C463.219 737.899 466.008 735.326 468.647 732.591C469.477 731.731 467.198 731.284 464.845 730.841ZM455.766 745.798C454.625 747.014 453.592 748.284 452.239 749.299C452.532 749.74 452.521 749.736 452.814 750.176C454.667 749.249 456.987 749.436 458.617 747.874C457.551 747.487 456.623 746.663 455.766 745.798Z" fill="#FFFFFF" fill-rule="nonzero" opacity="1" stroke="none" vectornator:layerName="path"/>
</g>
</svg>
