<?xml version="1.0" encoding="UTF-8" standalone="no"?>
<!DOCTYPE svg PUBLIC "-//W3C//DTD SVG 1.1//EN" "http://www.w3.org/Graphics/SVG/1.1/DTD/svg11.dtd">
<!-- Created with Vectornator (http://vectornator.io/) -->
<svg height="100%" stroke-miterlimit="10" style="fill-rule:nonzero;clip-rule:evenodd;stroke-linecap:round;stroke-linejoin:round;" version="1.1" viewBox="0 0 750 1000" width="100%" xml:space="preserve" xmlns="http://www.w3.org/2000/svg" xmlns:vectornator="http://vectornator.io" xmlns:xlink="http://www.w3.org/1999/xlink">
<defs/>
<g id="Layer-1" vectornator:layerName="Layer 1">
<path d="" fill="none" opacity="1" stroke="#f5c81a" stroke-linecap="butt" stroke-linejoin="round" stroke-width="1" vectornator:layerName="path"/>
<path d="M370.101 200C328.407 201.895 288.19 211.516 251.754 229.734C230.656 240.283 210.622 254.78 193.171 270.645C132.469 325.828 103.99 398.114 103.99 479.65C103.99 505.083 109.188 531.749 117.233 555.883C132.945 603.02 161.456 646.272 199.94 678.342C211.428 687.916 223.647 696.583 236.444 704.261C242.349 707.804 248.985 710.441 254.707 714.255C250.572 722.525 244.574 736.745 238.215 743.104C237.357 743.963 234.951 744.254 233.809 744.581C228.538 746.086 224.846 747.033 221.724 752.236C207.757 775.513 234.011 792.863 253.526 798.439C266.373 802.11 273.605 799.28 282.67 790.216C284.641 788.244 286.476 784.125 286.781 781.38C287.444 775.415 283.556 771.632 283.556 766.069C283.556 763.881 285.394 761.291 286.191 759.3C288.833 752.693 292.483 746.737 295.617 740.469C296.756 738.191 298.182 733.353 300.32 731.928C300.574 731.758 314.898 735.366 316.22 735.744C331.571 740.13 349.271 741.567 365.081 741.923C410.353 742.94 445.616 734.696 486.382 718.39C509.449 709.163 531.453 693.368 550.258 677.456C624.331 614.779 660.044 514.349 640.915 418.704C628.153 354.894 592.07 296.894 540.536 256.811C496.491 222.554 442.467 202.929 370.101 200ZM370.783 212.402C384.614 212.204 398.556 213.167 412.489 215.31C433.086 218.479 456.368 222.962 475.183 232.369C482.531 236.043 490.823 239.055 497.853 243.273C526.811 260.647 552.015 279.777 574.086 306.263C607.682 346.578 628.637 397.201 632.67 449.62C633.874 465.276 634.295 481.497 631.193 497.005C627.735 514.294 613.69 531.353 602.64 544.412C598.206 549.652 593.254 554.101 588.511 559.131C586.672 561.081 586.355 564.831 584.104 567.082C576.603 574.583 563.286 575.362 554.369 570.012C549.965 567.369 549.03 563.219 545.828 560.017C534.374 567.654 518.563 572.582 504.918 570.307C500.368 569.549 497.173 567.651 494.31 563.833C493.603 562.891 492.849 558.662 491.675 559.131C488.053 560.58 484.844 563.864 481.362 565.605C469.715 571.429 450.946 578.848 438.68 571.489C434.797 569.159 434.739 565.481 432.206 562.948C422.343 570.345 410.904 580.944 397.474 578.258C386.935 576.15 397.954 552.422 385.116 557.36C383.052 558.153 380.355 564.584 379.21 566.491C373.816 575.483 368.135 584.285 362.742 593.273C342.06 627.742 321.576 662.339 303.568 698.355C306.78 701.567 314.878 702.301 319.173 703.375C332.889 706.804 347.64 709.849 361.856 709.849C431.12 709.848 492.324 691.045 542.353 643.36C541.89 642.897 541.568 642.575 541.126 642.134C540.823 642.249 540.507 642.429 540.24 642.429C539.171 642.429 537.81 640.748 538.764 639.794C541.714 636.844 546.281 635.473 548.781 632.139C547.821 631.37 544.326 627.709 543.193 627.709C539.832 627.709 532.38 636.4 528.769 637.432C527.445 637.81 525.042 636.139 526.407 634.774C528.403 632.778 531.42 631.341 533.767 629.777C535.988 628.295 538.35 626.965 540.24 625.074C538.535 623.796 536.69 622.682 535.243 621.236C530.467 623.624 525.363 626.59 521.114 629.777C519.817 630.749 515.833 630.888 517.275 628.005C519.097 624.362 530.21 622.016 532.881 618.01C532.256 617.433 530.533 615.428 529.042 613.717C525.19 617.136 518.917 618.654 514.345 620.94C513.021 621.602 509.928 623.631 509.029 621.236C507.962 618.388 523.53 612.804 526.111 611.513C526.876 612.039 527.337 612.168 527.792 612.308C525.055 609.182 522.245 606.082 521.114 605.63C518.923 604.753 500.344 614.469 501.374 608.288C501.881 605.249 515.869 604.808 517.866 601.814C517.056 600.842 513.778 595.666 512.573 595.635C508.942 595.542 505.301 595.88 501.67 595.93C498.236 595.978 494.795 596.29 491.379 595.93C489.366 595.719 490.48 592.511 491.97 592.387C494.878 592.144 507.443 592.792 509.029 591.206C507.64 589.121 503.523 581.73 501.079 580.916C497.804 579.824 487.027 586.077 484.315 582.687C481.252 578.859 497.144 578.376 497.853 577.667C499.997 575.524 492.717 571.687 494.605 569.422C497.049 566.489 498.315 570.41 499.625 572.375C500.368 573.489 501.016 574.674 501.965 575.623C503.142 574.445 504.288 573.212 505.508 572.079C506.687 570.985 508.807 572.378 508.439 573.851C507.915 575.945 503.653 576.951 504.032 578.848C504.539 581.384 509.658 587.218 511.687 588.571C513.279 586.448 512.254 587.748 514.935 584.732C515.72 583.849 516.497 582.986 517.275 582.097C518.231 581.005 521.802 575.428 523.454 579.144C524.728 582.01 513.534 589.736 514.049 591.796C514.704 594.413 519.019 597.947 520.819 599.747C522.897 597.149 521.091 599.368 523.749 596.226C525.231 594.475 530.161 586.078 532.585 590.32C533.657 592.196 522.767 601.917 523.158 602.7C524.381 605.145 527.145 607.254 529.064 609.174C530.329 607.593 531.599 606.015 532.881 604.449C533.603 603.565 542.049 593.032 540.831 600.337C540.186 604.209 533.687 608.201 531.699 611.513C531.598 611.682 531.564 611.961 531.699 612.104C533.37 613.868 535.226 615.456 536.992 617.124C538.439 615.315 539.78 613.398 541.126 611.513C541.772 610.609 550.832 597.775 549.667 605.925C548.943 610.997 541.153 614.631 539.945 619.464C539.581 620.922 541.865 621.728 542.898 622.417C543.998 621.159 545.066 619.894 546.124 618.601C547.486 616.935 549.871 612.399 552.302 612.399C553.332 612.399 554.139 614.157 553.779 615.057C552.314 618.718 548.027 621.777 545.828 625.074C547.851 626.693 549.85 628.338 552.007 629.777C553.909 627.24 554.817 622.229 557.322 620.35C561.203 617.439 559.555 624.296 557.913 625.938C558.207 626.232 558.187 626.234 558.481 626.528C571.236 611.648 582.144 595.127 590.873 577.667C593.942 571.53 596.576 565.193 599.119 558.836C599.884 556.922 600.344 552.886 601.754 551.476C610.628 542.602 618.875 532.902 627.672 524.104C628.959 525.391 626.894 530.243 626.491 532.055C624.739 539.941 622.274 547.636 619.722 555.292C608.159 589.981 588.281 623.828 562.32 649.789C549.92 662.188 536.805 673.466 522.568 683.635C487.226 708.879 444.007 724.914 400.699 728.68C387.675 729.812 375.6 729.524 362.151 729.27C345.698 728.96 328.919 725.892 312.995 721.911C311.122 721.443 294.945 716.4 294.436 716.618C292.969 717.246 288.92 726.469 287.962 728.384C282.284 739.741 273.054 754.619 270.312 766.955C269.156 772.16 276.643 777.942 272.652 782.266C271.541 783.469 269.054 786.377 266.769 786.377C254.685 786.377 230.372 778.8 232.332 763.116C233.129 756.738 238.796 759 243.213 757.233C245.133 756.465 246.464 754.397 247.642 752.826C251.794 747.29 254.68 740.771 258.228 734.858C263.279 726.439 268.578 717.701 272.947 708.963C271.119 707.134 267.744 705.737 265.292 705.124C258.482 703.421 250.65 697.82 244.689 694.243C229.171 684.932 214.443 674.148 201.121 661.851C160.274 624.146 132.784 574.805 121.935 520.561C118.708 504.426 116.47 487.221 117.528 470.814C118.768 451.598 126.999 435.682 136.655 419.59C140.24 413.614 143.753 407.222 148.739 402.236C157.02 393.955 166.409 384.685 178.451 382.496C197.589 379.016 211.976 393.941 209.071 412.821C204.84 440.323 184.716 463.599 172.568 487.896C168.128 496.776 157.984 519.675 176.111 519.675C188.862 519.675 202.489 512.741 211.434 503.796C215.184 500.046 216.958 493.317 219.68 488.782C225.3 479.415 229.665 469.299 235.285 459.933C239.305 453.232 242.967 446.022 246.461 439.035C246.974 438.009 249.366 432.065 250.573 431.97C257.398 431.431 264.591 431.38 271.471 431.38C272.333 433.967 268.571 438.656 267.359 441.079C262.826 450.146 258.15 459.465 252.935 468.156C231.815 503.356 216.206 542.228 194.942 577.667C190.655 584.812 186.902 592.59 183.176 600.042C182.364 601.666 179.004 605.517 179.632 607.402C180.362 609.592 182.982 612.042 184.357 613.876C190.158 621.61 196.415 629.358 203.483 635.955C205.667 637.994 210.898 638.788 213.501 640.089C213.677 640.177 213.927 640.225 214.069 640.089C215.931 638.32 217.618 636.343 219.384 634.479C217.178 632.273 204.96 631.095 204.96 628.3C204.96 624.975 212.16 628.212 213.501 628.595C221.436 630.863 220.81 633.166 227.335 626.233C224.707 623.605 211.561 622.628 210.843 619.759C210.321 617.669 212.904 617.777 214.069 618.01C218.967 618.99 225.357 620.849 229.674 623.007C230.244 623.292 236.585 615.211 237.92 613.876C234.243 610.199 225.922 613.912 221.724 611.513C220.515 610.822 219.901 607.992 222.019 607.992C226.835 607.992 236.011 608.219 240.283 610.355C242.136 607.575 244.102 604.468 246.461 602.109C243.16 598.808 234.897 601.768 230.856 599.747C230.564 599.601 230.03 598.929 229.97 598.565C229.307 594.592 236.453 596.904 238.215 597.112C240.25 597.351 246.884 599.366 248.528 598.27C250.594 596.893 251.854 592.679 253.23 590.615C250.983 588.368 237.677 590.794 239.397 586.208C240.147 584.207 244.025 585.56 244.689 585.618C247.624 585.873 252.78 587.558 255.593 586.504C256.035 586.338 257.598 583.736 257.932 583.551C259.81 582.507 260.626 585.251 260 586.504C264.295 590.186 268.695 593.942 272.357 598.27C273.263 599.341 271.457 600.862 270.312 600.633C268.674 600.305 267.71 598.508 266.473 597.384C265.394 596.403 264.321 595.442 263.248 594.454C261.562 592.903 259.848 591.372 258.228 589.752C257.266 591.034 251.754 599.386 251.754 600.337C251.754 603.545 262.953 611.64 262.953 614.762C262.953 618.842 259.155 615.267 258.228 614.171C257.105 612.844 256.089 611.418 255.002 610.059C253.269 607.893 251.649 605.548 249.687 603.586C248.657 604.959 242.622 612.716 242.622 613.58C242.622 616.724 251.195 623.173 251.754 626.528C251.96 627.766 250.401 629.878 249.119 628.595C245.621 625.098 243.782 620.033 240.283 616.533C238.036 619.904 235.052 622.705 232.627 625.938C233.314 626.723 233.986 627.535 234.695 628.3C236.439 630.184 238.207 632.037 239.987 633.888C241.436 635.395 243.345 636.576 241.168 638.318C238.755 640.248 231.358 627.58 229.97 628.891C228.304 630.464 226.795 632.181 225.268 633.888C225.121 634.051 224.859 634.29 224.972 634.479C226.941 637.759 230.446 640.425 232.923 643.315C234.068 644.651 232.058 646.926 230.56 645.973C228.8 644.853 227.829 642.812 226.449 641.248C223.556 637.969 225.292 639.819 222.315 636.841C220.156 639 217.904 641.065 215.841 643.315C214.481 644.798 224.782 655.57 225.268 655.967C237.023 665.585 249.939 674.788 263.543 681.591C268.305 683.971 273.109 687.007 277.968 688.95C278.929 689.335 281.669 691.3 282.67 690.699C284.512 689.594 286.402 684.12 287.372 682.181C290.956 675.012 294.74 667.569 298.866 660.692C315.463 633.03 328.281 602.451 342.729 573.556C342.435 573.261 342.433 573.259 342.139 572.965C337.913 575.078 326.709 583.173 322.104 579.144C320.978 578.159 319.173 576.209 319.173 574.442C319.173 565.389 325.105 556.698 330.349 549.704C331.242 548.514 332.787 543.821 330.054 543.821C319.199 543.821 310.427 560.057 305.34 568.536C304.529 569.887 300.164 578.77 299.161 578.848C294.563 579.209 289.935 579.037 285.327 578.848C283.226 578.763 288.696 570.462 289.144 569.717C291.544 565.717 301.34 550.847 299.752 546.479C299.012 544.444 295.229 547.435 294.732 547.933C289.084 553.58 283.905 559.667 278.263 565.31C272.502 571.071 264.195 580.502 255.593 582.96C247.245 585.345 242.508 577.623 246.166 570.307C245.724 570.013 245.721 570.011 245.28 569.717C242.233 572.459 239.196 574.962 235.558 576.781C228.456 580.332 214.069 581.92 214.069 570.307C214.069 554.397 239.648 527.603 255.888 534.099C258.033 534.957 259.316 536.959 260.885 538.528C261.214 538.036 262.284 535.911 262.953 535.871C267.556 535.595 272.178 535.683 276.786 535.871C277.064 535.882 277.181 536.265 277.377 536.461C272.945 545.324 268.292 554.041 263.838 562.948C262.549 565.527 258.499 569.988 261.181 572.67C268.068 569.226 272.588 563.33 278.263 557.655C276.577 555.969 273.228 555.632 271.766 552.953C270.786 551.156 273.086 550.104 274.424 550.59C277.597 551.744 277.94 554.992 279.421 556.474C284.777 549.78 291.273 543.894 297.98 538.528C301.311 535.864 309.121 529.93 313.29 534.099C314.757 535.566 316.291 537.335 316.811 539.414C317.22 541.051 316.483 542.902 317.697 544.116C323.238 539.683 332.075 532.35 339.776 532.35C342.794 532.35 350.089 532.206 350.089 537.347C350.089 544.444 345.359 551.205 341.843 557.064C340.5 559.303 337.609 562.841 338.3 565.605C338.977 568.313 346.058 564.141 347.136 563.243C350.689 560.282 356.071 545.143 358.017 540.278C364.146 524.955 371.437 509.897 377.37 494.619C377.313 494.691 377.215 494.911 377.166 494.96C360.313 486.533 335.641 481.988 322.104 468.451C316.876 463.224 313.678 458.209 309.451 452.573C306.358 448.449 304.04 441.496 303.863 436.377C303.62 429.338 304.87 423.557 306.521 416.955C307.133 414.507 309.519 411.004 311.223 409.3C322.635 397.888 336.094 394.186 351.838 392.218C353.579 392 358.326 391.364 362.833 391.105C367.339 390.846 371.604 390.963 372.441 392.218C367.85 396.809 352.562 392.971 347.431 398.101C348.663 399.333 360.894 399.531 363.628 399.873C377.12 401.56 390.294 404.682 403.357 408.414C430.074 416.048 454.963 429.562 476.955 446.667C482.672 451.114 488.423 455.569 493.719 460.524C497.319 463.892 502.771 470.921 507.28 473.176C507.575 472.882 507.576 472.88 507.871 472.585C505.288 467.421 503.219 462.657 499.625 457.866C499.17 457.258 495.164 452.812 495.786 451.982C497.112 450.215 501.322 455.156 501.67 455.503C506.475 460.309 509.238 465.579 513.164 470.814C523.311 484.343 525.28 513.57 520.614 528.125C526.973 525.203 539.989 521.786 544.647 526.444C547.901 529.697 547.632 535.839 544.352 539.119C533.894 549.577 525.249 549.823 511.687 552.953C508.351 553.723 511.739 559.716 513.164 560.903C514.464 561.987 517.186 562.652 518.752 562.652C522.952 562.652 542.915 558.421 545.533 553.839C546.527 552.099 546.107 549.426 547.6 547.933C549.024 546.509 550.396 545.029 552.007 543.821C555.464 541.228 558.902 543.138 562.32 543.821C563.393 544.036 571.952 535.659 572.337 534.985C573.157 533.551 572.879 531.299 573.201 529.692C574.269 524.352 577.252 519.998 581.446 516.449C583.278 514.899 586.366 511.611 589.101 511.429C598.989 510.77 594.523 521.908 590.283 526.149C588.418 528.013 584.695 529.123 584.695 531.759C584.695 533.379 589.399 546.715 589.692 546.774C591.113 547.058 598.148 538.656 600.005 535.871C602.072 532.77 604.192 529.65 605.593 526.149C612.304 509.371 615.226 489.92 614.429 471.995C612.384 425.985 602.933 386.097 579.402 346.878C573.054 336.297 565.587 326.289 557.618 316.871C554.007 312.604 550.749 307.862 545.533 306.558C543.797 306.124 529.992 300.966 529.632 301.265C527.842 302.757 526.39 305.324 524.93 307.149C526.402 308.62 528.688 309.164 530.518 310.079C531.837 310.738 533.425 311.237 534.652 311.851C535.476 312.262 540.902 316.576 536.72 316.576C534.293 316.575 523.217 309.683 522.295 310.374C521.292 311.127 520.407 312.891 519.637 313.918C523.323 316.375 527.098 319.334 530.223 322.459C547.9 340.136 561.631 359.346 568.498 383.382C569.752 387.77 573.701 400.53 572.337 404.28C571.82 405.703 559.932 411.61 557.913 412.821C544.455 420.896 530.724 429.357 516.684 436.377C515.326 435.019 515.569 433.185 515.208 431.38C515.012 430.4 513.788 427.583 514.345 426.655C515.619 424.532 524.484 420.085 526.997 418.409C535.736 412.583 544.745 407.175 553.484 401.35C555.051 400.304 562.32 396.883 562.32 394.876C562.32 391.068 561.164 383.455 559.367 379.861C558.438 378.002 554.432 381.863 553.484 382.496C547.04 386.792 540.81 391.46 534.357 395.762C528.207 399.862 522.109 404.118 516.094 408.414C514.949 409.232 510.781 412.99 509.62 412.526C508.347 412.016 507.682 408.829 507.28 407.824C504.917 401.917 499.73 397.448 496.967 391.923C507.573 382.201 518.572 372.888 529.36 363.369C534.301 359.009 540.699 354.8 544.647 349.536C538.23 339.91 531.206 332.028 522.295 324.231C512.307 335.883 503.307 348.431 493.719 360.416C489.565 365.61 485.824 371.691 480.771 376.022C474.218 371.107 467.208 366.422 459.578 363.369C458.1 362.778 452.384 361.528 451.923 360.144C451.704 359.489 455.864 350.115 456.352 348.65C460.314 336.764 465.236 324.964 469.891 313.327C470.47 311.878 474.896 301.282 474.593 300.675C473.42 298.329 455.535 296.245 453.399 296.245C450.037 296.245 438.984 295.024 438.384 297.722C435.273 311.724 433.679 326.247 431.32 340.404C430.663 344.345 430.833 353.566 428.094 356.305C427.898 356.207 427.723 356.01 427.504 356.01C421.703 356.01 415.886 356.176 410.126 356.895C408.735 357.069 405.191 358.403 403.948 357.781C402.581 357.098 403.617 355.316 403.652 354.238C403.816 349.235 403.841 344.227 403.948 339.223C404.037 335.003 404.153 330.79 404.243 326.57C404.399 319.212 404.538 311.851 404.538 304.491C402.722 303.886 388.156 311.371 388.047 312.737C387.874 314.891 388.287 317.05 388.342 319.211C388.704 333.32 389.56 347.777 388.933 361.893C388.922 362.135 378.9 366.761 377.461 367.481C374.859 363.577 375.718 349.85 375.394 344.834C374.73 334.542 372.687 322.99 373.918 312.737C373.989 312.141 383.775 306.678 385.116 305.672C397.076 296.702 418.963 291.509 433.387 290.067C452.197 288.185 472.787 290.934 490.494 298.017C499.755 301.722 507.197 307.107 516.094 311.555C517.057 312.037 518.98 308.758 519.342 308.035C515.319 304.011 511.256 300.02 507.28 295.95C506.105 294.746 508.037 291.872 509.325 293.02C513.624 296.852 517.583 301.058 521.705 305.081C522.601 304.006 527.029 300.06 526.407 298.608C525.238 295.88 514.573 285.239 518.456 283.297C519.996 282.527 527.474 294.441 529.36 295.95C529.925 295.196 533.182 292.289 532.585 291.543C529.245 287.368 523.299 283.97 519.047 280.662C505.872 270.415 490.453 260.38 474.888 254.153C463.388 249.553 452.347 244.253 440.156 241.206C404.146 232.203 367.587 229.787 330.645 236.503C282.964 245.173 239.252 268.721 205.187 302.924C205.668 303.391 206.089 303.948 206.709 304.196C207.392 304.469 218.803 300.08 220.27 299.493C221.824 298.872 223.97 297.476 225.608 297.972C226.154 298.137 226.649 298.515 227.039 299.198C227.912 300.726 225.097 301.747 224.086 302.151C220.243 303.689 213.392 304.6 210.548 307.444C213.094 309.141 215.161 311.466 217.317 313.623C221.845 311.359 228.534 308.274 233.513 307.444C234.988 307.198 236.56 308.43 235.853 310.079C234.734 312.69 223.101 314.335 220.566 316.871C221.449 317.754 222.116 318.886 223.2 319.506C225.218 320.659 238.553 312.939 241.168 314.508C245.64 317.191 235.923 319.661 234.399 320.096C232.076 320.76 228.047 321.452 226.449 323.049C227.896 324.642 228.786 327.16 230.856 327.752C236.301 329.307 247.311 322.861 252.64 324.799C254.583 325.505 254.043 327.563 252.64 328.342C250.248 329.671 234.748 330.121 234.399 331.863C234.356 332.078 234.563 332.278 234.695 332.454C235.338 333.311 237.368 336.54 238.511 336.883C240.873 337.592 251.701 334.983 254.707 334.521C255.633 334.378 261.945 332.94 261.181 335.997C260.04 340.56 243.692 337.652 241.464 340.995C242.154 341.915 249.169 351.876 249.414 351.898C255.359 352.439 262.28 350.604 268.245 350.126C269.152 350.054 275.015 348.632 275.015 351.898C275.015 354.551 259.783 354.892 256.774 355.124C255.16 355.248 252.049 354.687 252.049 356.305C252.049 356.644 259.112 367.736 259.409 367.776C264.954 368.532 270.6 367.3 276.196 367.208C279.727 367.15 285.317 366.615 283.851 369.548C281.581 374.088 263.492 368.739 261.181 372.206C263.572 374.597 263.927 381.518 267.064 383.086C272.396 385.753 284.035 382.009 289.144 384.563C290.558 385.27 290.342 388.107 288.553 388.107C286.19 388.106 283.848 387.651 281.488 387.516C277.381 387.281 273.247 386.925 269.131 386.925C268.797 387.929 274.084 401.804 274.719 401.94C279.197 402.9 284.288 402.741 288.848 403.121C291.828 403.37 297.286 402.541 299.161 405.166C300.312 406.778 296.93 407.353 296.208 407.233C291.953 406.524 287.552 406.442 283.26 406.052C283.098 406.037 276.2 404.851 275.9 406.347C275.623 407.734 277.274 410.542 277.672 411.935C278.36 414.341 278.685 419.533 280.603 421.067C284.425 424.125 300.765 424.003 302.682 427.836C305.015 432.503 287.422 426.5 285.895 426.064C285.259 425.882 281.464 424.416 281.193 425.769C280.917 427.15 282.383 430.536 282.67 431.97C283.214 434.692 283.094 440.014 284.441 442.26C286.897 446.352 302.199 446.58 305.34 450.506C306.897 452.453 304.122 453.188 302.682 452.868C297.33 451.679 290.43 449.377 285.6 446.962C284.779 449.426 285.957 453.228 286.191 455.799C286.544 459.689 286.212 464.086 286.781 467.883C286.969 469.136 291.614 470.384 292.687 470.814C295.442 471.916 308.511 476.588 309.451 478.469C310.778 481.122 306.404 480.773 305.34 480.241C299.691 477.416 293.261 475.383 287.667 472.585C287.471 472.782 287.092 472.899 287.076 473.176C286.715 479.446 285.69 485.822 286.781 492.007C287.003 493.267 290.272 493.9 291.211 494.37C293.711 495.62 307.349 500.076 307.679 501.729C308.135 504.009 306 503.81 304.454 503.501C298.889 502.388 291.821 498.956 286.781 496.437C286.178 497.04 283.881 514.645 284.441 515.699C290.034 518.492 296.715 521.727 302.682 523.218C304.131 523.581 307.314 526.383 304.158 527.33C300.182 528.523 288.338 519.403 283.578 519.379C282.693 521.284 280.446 530.195 280.898 530.873C282.399 533.125 291.702 538.409 291.211 540.868C290.183 546.007 278.173 533.753 277.082 532.35C276.315 531.364 279.126 522.554 279.126 520.561C275.039 519.198 265.59 527.768 261.476 526.739C257.922 525.851 261.252 523.013 262.953 522.332C268.025 520.303 274.702 518.69 279.421 515.858C281.14 514.827 282.83 497.46 282.374 497.005C278.84 499.36 271.266 505.99 267.655 507.022C266.711 507.292 264.997 506.816 264.997 505.546C264.997 502.601 279.948 495.804 282.374 492.893C283.934 491.021 283.536 484.805 283.556 483.761C283.615 480.524 283.832 477.288 283.556 474.062C283.417 472.444 280.394 475.092 279.126 476.106C276.082 478.541 271.001 484.493 267.359 485.533C265.974 485.929 264.39 485.023 264.702 483.466C264.876 482.596 266.839 481.543 267.359 481.126C269.98 479.03 282.467 470.536 283.26 468.156C284.178 465.404 282.667 460.344 282.374 457.275C282.154 454.967 282.556 448.62 280.898 446.962C276.482 451.378 272.117 455.86 267.655 460.228C266.48 461.378 263.7 459.219 264.702 458.161C269.757 452.819 275.155 447.804 280.307 442.556C280.461 442.399 280.603 442.184 280.603 441.965C280.603 438.406 276.592 428.815 277.968 426.064C277.526 425.77 277.523 425.768 277.082 425.474C275.512 427.043 274.091 428.811 272.357 430.198C270.994 431.289 269.847 428.859 270.017 427.836C270.508 424.892 274.343 423.702 276.196 421.362C276.485 420.996 272.378 407.542 271.471 406.938C266.761 411.648 262.279 416.595 257.342 421.067C256.093 422.198 253.851 419.582 255.002 418.409C260.155 413.161 265.603 408.216 270.608 402.826C270.819 402.599 270.411 402.235 270.312 401.94C268.965 397.897 267.385 391.085 264.406 388.107C262.836 389.578 261.259 391.026 259.704 392.513C256.545 395.535 254.188 399.69 250.277 401.645C248.948 402.31 247.513 399.707 248.528 398.692C254.547 392.673 257.507 390.602 262.953 383.972C263.092 383.803 262.755 383.578 262.657 383.382C261.045 380.157 259.985 375.44 257.342 372.796C254.721 375.854 251.93 378.75 249.119 381.633C247.472 383.322 245.932 385.146 244.099 386.63C242.742 387.729 241.589 385.286 241.759 384.268C241.795 384.051 241.908 383.841 242.054 383.677C246.373 378.851 251.561 374.588 255.593 369.548C256.079 368.94 249.21 358.167 248.233 357.191C247.252 358.27 246.264 359.339 245.28 360.416C242.308 363.671 239.448 367.206 236.148 370.139C234.816 371.323 232.611 369.279 233.513 367.776C236.586 362.654 242.325 358.777 246.166 354.238C246.678 353.632 240.785 345.927 239.987 345.129C238.42 347.218 237.006 349.43 235.558 351.603C234.576 353.075 233.609 354.538 232.627 356.01C231.878 357.134 227.893 363.557 226.744 358.963C226.058 356.216 238.189 343.278 237.625 341.585C236.896 339.397 233.905 336.684 232.332 335.111C230.784 337.175 229.647 339.572 228.493 341.881C227.11 344.647 225.721 348.304 223.791 350.717C222.595 352.212 219.779 351.991 220.27 349.536C221.49 343.436 228.188 338.408 229.379 332.454C229.738 330.657 226.83 328.407 225.563 327.456C222.784 330.235 220.625 337.805 219.68 341.585C219.442 342.536 218.074 345.013 216.727 344.243C213.666 342.494 221.925 327.926 222.61 324.503C223.155 321.778 218.987 320.29 217.022 318.325C214.876 320.471 210.55 336.425 207.595 335.111C204.548 333.757 213.172 318.991 213.774 315.985C214.218 313.764 209.488 311.404 207.89 309.806C205.693 312.004 202.937 328.624 199.645 327.161C197.442 326.182 199.316 322.838 199.94 321.278C200.456 319.987 204.441 306.953 204.369 306.853C203.943 306.256 203.269 305.883 202.688 305.422C194.381 314.011 186.649 323.22 179.632 333.044C170.236 346.198 161.231 360.681 155.213 375.727C153.06 381.111 150.576 386.413 148.739 391.923C148.093 393.861 147.701 397.474 146.377 398.987C138.69 407.772 130.499 417.312 121.64 424.906C120.742 422.212 122.561 417.957 123.116 415.183C124.987 405.827 128.169 396.92 130.771 387.811C143.161 344.447 173.617 303.627 207.3 274.756C253.009 235.577 310.849 213.261 370.783 212.402ZM417.486 358.667C450.571 358.373 476.155 368.973 496.672 396.33C502.892 404.623 507.661 414.064 510.506 424.02C511.176 426.366 513.849 432.021 512.868 434.31C512.819 434.424 512.76 434.426 512.709 434.514C515.126 437.167 512.396 438.893 510.506 438.808C510.498 438.88 510.541 438.965 510.506 439.035C509.991 440.064 496.632 447.746 494.9 448.439C493.759 448.895 489.319 443.153 489.312 443.146C476.883 430.717 461.597 415.228 444.563 408.414C430.652 402.85 417.206 396.674 402.471 393.399C396.612 392.097 390.774 391.19 384.821 390.446C383.039 390.224 378.973 391.299 378.347 389.265C377.064 385.093 375.982 375.465 377.166 371.32C377.622 369.724 383.564 367.239 385.116 366.618C395.843 362.327 405.784 358.772 417.486 358.667ZM285.6 559.722C287.626 559.072 294.333 564.456 289.734 565.605C287.517 566.16 281.543 561.024 285.6 559.722ZM489.903 566.196C492.293 566.116 493.516 567.936 491.379 569.717C490.244 570.663 487.064 570.491 485.496 570.603C483.059 570.777 480.439 569.237 483.134 567.082C484.334 566.121 488.494 566.243 489.903 566.196ZM274.719 572.965C275.684 573.071 276.18 574.288 277.672 575.623C278.759 576.595 279.837 577.552 280.898 578.553C281.732 579.341 285.523 584.026 280.898 583.255C279.518 583.025 275.557 578.773 275.015 578.258C272.51 575.878 270.653 574.741 273.538 573.26C274.022 573.012 274.398 572.93 274.719 572.965ZM202.688 305.422C203.509 304.574 204.355 303.759 205.187 302.924C205.017 302.758 204.877 302.552 204.665 302.446C203.24 303.871 204.041 302.995 202.302 305.081C202.423 305.202 202.553 305.315 202.688 305.422ZM527.792 612.308C528.313 612.903 528.554 613.157 529.042 613.717C529.221 613.557 529.464 613.453 529.632 613.285C528.998 612.651 528.457 612.513 527.792 612.308ZM541.126 642.134C542.841 641.481 544.989 639.37 546.124 638.613C546.418 638.907 546.42 638.909 546.714 639.203C545.28 640.638 543.807 641.975 542.353 643.36C542.447 643.455 542.478 643.486 542.603 643.61C546.135 640.225 546.135 640.226 549.667 636.841C549.226 636.547 549.223 636.545 548.781 636.25C546.553 638.479 543.45 640.093 540.831 641.838C540.978 641.986 541.02 642.027 541.126 642.134ZM535.357 294.11C533.858 294.277 532.751 296.615 531.699 298.017C532.479 299.187 544.246 303.143 544.943 302.446C541.772 299.276 540.707 298.152 536.992 294.791C536.393 294.249 535.856 294.054 535.357 294.11ZM428.094 367.776C426.711 369.16 425.169 374.622 423.369 375.136C421.225 375.749 416.046 373.586 414.828 376.022C414.053 377.572 420.144 380.854 420.144 382.791C420.144 385.533 417.475 388.936 418.372 391.627C420.562 391.627 424.27 387.463 426.618 388.402C427.705 388.837 433.893 393.862 434.273 392.218C434.941 389.324 433.431 387.57 433.977 384.563C434.382 382.335 438.892 379.721 440.451 378.384C438.821 376.754 434.689 377.116 432.501 376.022C429.933 374.738 430.618 369.459 428.094 367.776ZM392.181 370.434C390.629 371.986 391.372 374.797 389.228 376.022C387.69 376.901 385.994 376.326 384.526 377.794C385.559 378.827 388.324 380.119 388.933 381.337C389.988 383.448 387.476 385.469 389.228 387.221C390.671 386.499 392.372 383.663 394.225 383.972C395.386 384.166 398.87 386.495 399.541 385.154C400.276 383.682 397.602 381.247 398.064 379.861C398.487 378.593 400.702 376.83 401.585 375.727C399.966 374.107 397.632 375.806 395.702 374.841C394.522 374.251 392.967 371.377 392.181 370.434ZM459.578 385.154C458.047 386.685 459.321 393.477 460.168 395.171C459.285 396.054 458.444 396.952 457.533 397.806C456.873 398.425 456.153 398.989 455.466 399.578C447.151 406.705 460.874 401.261 462.826 405.166C464.197 407.907 464.357 412.012 466.642 414.298C469.108 412.448 469.924 407.057 472.526 405.756C475.321 404.359 480.128 406.99 482.543 404.575C481.459 402.407 476.069 399.148 476.069 396.625C476.069 394.271 479.198 387.987 477.546 386.335C475.04 387.588 470.946 390.151 468.119 390.151C465.999 390.151 461.624 386.176 459.578 385.154ZM176.997 391.332C169.442 391.332 161.325 400.212 156.962 404.575C147.284 414.253 141.672 429.278 138.426 442.26C135.189 455.209 135.583 468.787 136.064 482.012C137.359 517.623 147.256 558.542 167.275 588.571C171.272 585.906 175.679 573.155 178.451 568.536C188.262 552.184 197.033 534.96 205.551 517.926C205.256 517.631 205.254 517.629 204.96 517.335C193.589 527.082 178.553 532.824 163.459 528.511C157.534 526.818 150.004 521.805 148.444 515.563C147.345 511.166 146.967 507.457 146.967 502.615C146.967 493.39 153.47 479.111 159.029 471.7C162.764 466.719 165.242 460.27 168.456 454.913C175.138 443.776 181.885 432.211 186.697 420.181C191.532 408.093 195.579 391.332 176.997 391.332ZM354.541 404.439C351.756 404.381 348.993 404.427 346.25 404.575C332.946 405.294 315.233 408.655 310.928 423.724C304.307 446.898 324.14 466.753 343.888 474.653C352.894 478.255 363.66 480.619 371.851 485.533C373.422 486.476 378.488 487.16 379.392 489.168C380.01 487.462 380.706 485.77 381.278 484.057C382.111 481.556 382.806 479.104 383.526 476.629C382.239 476.428 373.636 469.351 372.736 468.451C368.127 463.842 362.258 458.506 360.084 451.982C355.689 438.797 372.301 431.296 382.163 431.38C408.142 431.599 436.535 444.228 455.171 462.863C460.475 468.167 465.982 474.941 467.823 482.308C470.284 492.149 463.656 501.729 453.399 501.729C450.65 501.729 447.899 501.579 445.153 501.434C443.254 501.334 426.845 498.545 425.096 496.868C424.835 497.194 424.491 497.576 424.255 497.89C421.393 501.707 418.278 505.843 415.237 509.975C415.929 508.951 416.571 507.937 417.486 507.022C430.225 513.391 448.544 520.406 458.942 530.578C467.027 526.717 475.847 524.696 484.02 526.739C485.869 527.201 487.622 529.264 488.426 530.873C492.748 539.516 482.563 545.986 476.364 549.704C468.604 554.361 459.544 554.086 451.037 555.588C449.079 555.933 449.959 560.535 451.037 561.766C459.207 571.104 484.163 559.654 492.265 552.362C494.924 549.969 495.735 545.94 498.444 543.231C502.593 539.082 507.649 536.093 511.687 532.055C511.776 532.099 511.996 532 512.119 532.009C512.416 529.67 515.414 521.11 515.799 519.379C517.942 509.733 517.588 496.747 512.278 487.896C507.824 480.473 501.082 474.653 494.9 468.747C476.066 450.749 452.845 438.093 431.32 425.178C425.525 421.701 418.444 419.751 412.193 417.251C394.338 410.109 374.038 404.847 354.541 404.439ZM494.605 422.543C493.395 423.754 493.796 427.401 491.97 428.131C491.382 428.366 485.688 428.882 486.655 430.494C487.401 431.738 490.966 432.205 491.379 433.719C491.893 435.604 490.037 438.85 491.379 440.193C492.75 439.279 494.756 437.292 496.377 436.968C498.354 436.572 500.997 439.707 502.555 438.149C500.043 433.123 502.488 432.104 504.623 427.836C503.228 426.441 500.68 427.598 498.739 427.245C497.738 427.063 495.279 423.217 494.605 422.543ZM404.016 458.638C402.986 458.558 402.048 458.6 401.29 458.752C399.782 459.053 398.215 466.401 397.474 467.883C392.617 477.596 389.153 488.391 385.116 498.481C384.449 500.149 383.705 501.772 383.027 503.433C382.636 502.985 381.911 502.239 381.346 502.343C381.514 501.863 381.681 501.217 381.868 500.843C381.834 500.81 381.829 500.804 381.8 500.775C384.64 497.57 385.255 491.116 387.161 487.305C387.127 487.271 387.123 487.267 387.093 487.237C388.856 485.155 390.229 480.243 389.41 477.765C389.592 477.947 389.763 478.118 390.114 478.469C390.901 477.682 391.031 477.238 390.841 476.788C391.45 476.07 391.449 475.527 391.886 474.653C391.852 474.619 391.848 474.615 391.817 474.584C393.098 472.981 393.494 470.059 392.181 468.747C390.957 469.97 390.917 471.865 390.114 473.471C390.272 473.63 390.327 473.684 390.432 473.789C389.835 474.458 389.615 475.011 389.773 475.584C389.167 476.226 389.334 476.485 388.933 477.288C388.967 477.321 388.971 477.325 389.001 477.356C387.258 479.491 386.98 483.873 385.707 486.419C385.753 486.465 385.759 486.471 385.798 486.51C384.457 488.351 381.396 497.696 381.437 500.412C381.323 500.299 381.209 500.184 380.982 499.958C379.969 500.971 377.483 506.486 377.529 508.794C376.907 509.89 376.048 511.302 375.985 511.429C376.075 511.519 376.106 511.55 376.167 511.611C374.769 513.16 372.836 517.945 373.282 520.038C369.263 529.183 365.775 538.618 361.265 547.637C360.696 548.777 355.882 558.655 355.972 558.836C356.026 558.943 356.115 559.029 356.177 559.131C355.998 558.997 355.935 558.91 355.382 558.541C353.534 560.388 352.938 563.406 351.838 565.605C349.108 571.066 346.66 577.389 343.297 582.097C342.227 583.595 344.782 585.314 343.297 586.799C343.695 587.33 343.765 587.43 344.092 587.866C339.344 597.414 334.549 606.953 329.759 616.533C329.849 616.624 329.869 616.644 329.941 616.715C328.076 618.786 319.597 635.704 320.355 636.841C324.942 632.254 328.689 623.398 331.531 617.715C331.511 617.699 331.504 617.707 331.485 617.692C334.477 614.508 336.363 609.35 338.595 605.63C344.5 595.788 350.068 585.736 355.972 575.895C370.839 551.118 384.97 525.916 399.836 501.139C406.308 490.352 411.71 478.22 419.258 468.156C422.629 470.684 418.106 475.176 416.305 477.878C410.458 486.648 405.257 495.919 399.836 504.955C379.633 538.627 360.854 573.158 340.662 606.811C336.03 614.532 332.05 622.649 327.419 630.367C326.247 632.32 323.95 634.975 324.398 637.068C324.314 636.984 324.284 636.954 324.171 636.841C322.533 638.479 320.839 640.958 321.468 642.974C321.324 642.83 321.213 642.697 320.945 642.429C320.303 643.071 319.976 643.735 319.469 644.496C319.548 644.575 319.564 644.591 319.628 644.655C318.086 646.274 315.048 650.952 315.493 653.332C315.429 653.231 315.416 653.146 315.334 653.037C314.369 654.003 314.129 654.29 313.585 655.377C313.677 655.468 313.7 655.491 313.767 655.559C312.343 657.066 311.255 659.448 310.337 661.283C310.417 661.363 310.44 661.385 310.496 661.442C308.75 663.302 303.878 671.3 305.044 673.05C307.741 670.353 310.377 665.274 311.518 661.851C313.246 660.495 314.866 657.613 313.994 655.786C314.203 655.995 314.361 656.175 314.744 656.558C315.642 655.659 316.072 654.983 315.88 654.15C315.897 654.17 315.906 654.199 315.925 654.218C318.198 651.945 319.461 648.642 321.241 645.973C321.15 645.882 321.13 645.862 321.059 645.791C321.6 645.2 321.934 644.602 322.399 643.906C322.256 643.763 322.224 643.708 322.126 643.61C323.636 642.384 324.802 640.009 325.647 638.318C325.5 638.17 325.452 638.122 325.352 638.022C328.343 635.528 330.138 630.425 332.121 627.119C337.507 618.142 342.637 609.017 348.022 600.042C366.04 570.013 383.562 539.718 401.585 509.68C407.503 499.817 413.469 489.81 419.848 480.241C420.437 479.357 425.801 470.725 425.732 470.518C423.902 465.03 411.225 459.196 404.016 458.638ZM376.462 511.906C376.564 512.008 376.667 512.111 376.871 512.315C376.774 512.508 376.694 512.711 376.598 512.905C376.604 512.529 376.56 512.193 376.462 511.906ZM394.43 463.704C392.405 463.166 392.177 468.888 393.067 470.223C394.523 468.767 394.479 466.195 395.407 464.34C395.043 463.976 394.719 463.78 394.43 463.704ZM427.208 473.471C421.25 479.429 416.84 489.185 412.489 496.437C401.612 514.564 390.819 533.473 379.21 550.886C379.29 550.965 379.303 550.978 379.369 551.045C376.649 553.869 375.248 558.269 373.327 561.471C364.386 576.373 356.209 592.315 346.546 606.811C346.636 606.902 346.66 606.926 346.727 606.993C346.053 607.717 345.514 608.579 345.069 609.469C345.148 609.548 345.167 609.567 345.228 609.628C344.383 610.478 344.021 610.973 344.229 611.604C344.206 611.574 344.207 611.543 344.183 611.513C343.024 612.673 342.283 614.177 341.548 615.648C341.627 615.727 341.646 615.746 341.707 615.807C341.071 616.434 340.796 616.839 340.889 617.192C339.898 618.217 339.381 619.467 338.595 620.645C338.674 620.724 338.693 620.743 338.754 620.804C337.769 621.809 337.043 622.783 337.414 623.825C337.315 623.746 337.264 623.714 337.119 623.598C336.415 624.302 336.106 625.054 335.665 625.938C335.688 625.96 335.689 625.962 335.71 625.983C334.779 626.969 333.928 628.113 334.143 629.231C333.124 630.247 332.284 631.005 332.576 631.957C332.514 631.908 332.492 631.904 332.417 631.844C331.427 632.833 331.084 633.471 331.326 634.274C331.287 634.235 331.281 634.229 331.235 634.183C329.411 636.008 328.277 638.647 327.124 640.953C327.146 640.975 327.148 640.977 327.169 640.998C325.639 642.69 324.588 645.138 323.58 647.154C323.603 647.177 323.604 647.178 323.626 647.199C321.344 649.692 320.157 653.459 318.287 656.263C318.363 656.357 318.388 656.371 318.446 656.444C317.661 657.248 317.137 657.947 317.333 658.716C316.219 659.864 315.623 661.123 314.744 662.441C314.825 662.542 314.841 662.569 314.903 662.646C314.319 663.298 313.988 663.999 313.585 664.804C313.608 664.827 313.61 664.828 313.631 664.849C312.7 665.839 311.854 666.979 312.086 668.098C311.067 669.115 310.23 669.868 310.519 670.823C306.222 675.202 303.062 682.874 300.32 688.36C300.354 688.394 300.357 688.398 300.388 688.428C299.055 689.949 295.161 696.189 296.503 697.196C297.546 697.978 300.946 690.815 301.796 689.541C301.715 689.44 301.699 689.413 301.637 689.337C303.811 686.991 311.435 673.478 310.678 671.051C310.799 671.311 310.923 671.568 311.223 671.868C312.358 671.112 313.027 670.148 312.768 669.142C314.166 668.184 314.88 667.072 314.562 665.826C314.627 665.89 314.658 665.899 314.744 665.985C315.386 665.343 315.713 664.679 316.22 663.918C316.14 663.817 316.123 663.79 316.061 663.713C317.132 662.55 317.707 661.119 318.583 659.806C318.447 659.671 318.398 659.622 318.31 659.534C318.949 659.023 319.209 658.572 319.764 657.739C319.693 657.651 319.683 657.627 319.628 657.558C321.54 655.564 324.712 650.611 324.307 647.881C324.425 647.999 324.538 648.089 324.761 648.312C326.389 646.684 328.402 643.871 327.896 641.725C328.008 641.836 328.101 641.93 328.305 642.134C330.092 640.346 331.29 637.618 332.417 635.365C332.383 635.331 332.379 635.327 332.348 635.296C332.951 634.605 333.48 633.85 333.893 633.025C333.736 632.899 333.679 632.859 333.575 632.775C334.421 632.113 334.865 631.377 335.37 630.367C335.234 630.231 335.185 630.182 335.097 630.095C336.312 629.196 337.03 628.172 336.778 627.073C336.799 627.095 336.8 627.096 336.823 627.119C337.581 626.362 338.119 625.732 338.595 624.779C338.445 624.659 338.401 624.61 338.3 624.529C339.422 623.702 340.122 622.753 339.799 621.803C341.481 620.672 342.099 619.387 341.389 617.919C341.564 618.146 341.544 618.227 341.843 618.601C342.714 617.73 343.066 617.268 342.843 616.738C344.553 615.544 345.3 613.822 344.501 612.195C344.657 612.435 344.806 612.661 345.069 612.99C345.88 612.179 346.215 611.588 346.841 610.65C346.683 610.524 346.627 610.484 346.523 610.4C347.335 609.758 347.823 608.98 348.317 607.992C348.148 607.857 348.086 607.807 347.977 607.72C352.096 604.391 354.725 596.889 357.426 592.387C365.352 579.178 372.73 565.479 381.278 552.657C381.198 552.578 381.185 552.565 381.119 552.498C386.139 547.384 390.758 537.44 394.521 531.169C402.285 518.228 411.491 506.132 419.258 493.188C421.812 488.932 432.866 477.715 427.208 473.471ZM414.556 510.861C410.12 516.934 405.885 523.16 402.766 529.397C405.006 530.143 410.052 527.227 412.489 526.739C415.707 526.095 417.855 526.47 421.62 526.739C428.583 527.236 430.552 535.361 427.799 540.868C424.894 546.678 418.264 551.683 412.193 554.111C410.189 554.913 407.154 555.334 405.719 556.769C409.174 560.224 406.641 565.743 410.421 568.263C414.692 571.11 424.061 563.46 426.618 560.903C428.335 559.185 429.973 557.379 431.615 555.588C434.844 552.065 436.397 547.58 439.861 544.116C442.977 541 446.768 537.917 450.9 535.167C443.616 529.686 437.134 523.518 429.253 518.789C425.401 516.477 417.35 513.655 414.556 510.861ZM529.928 530.283C521.094 532.049 515.424 539.867 511.687 547.342C515.901 551.556 530.864 540.88 533.176 537.643C534.713 535.491 535.296 530.577 529.928 530.283ZM469.981 533.145C469.501 533.094 468.972 533.113 468.414 533.213C462.887 534.208 458.188 539.109 454.876 543.526C453.08 545.92 449.268 551.837 454.876 550.59C461.358 549.15 467.091 544.849 471.662 540.278C474.671 537.269 473.348 533.502 469.981 533.145ZM405.129 535.871C402.537 536.173 398.768 536.598 396.588 538.233C395.748 538.863 388.047 550.485 388.047 551.181C388.047 551.535 388.286 552.023 388.637 552.067C390.779 552.335 392.954 552.15 395.111 552.067C402.11 551.798 409.174 547.727 413.965 542.935C416.36 540.54 414.446 536.428 411.307 536.166C409.252 535.995 407.178 535.632 405.129 535.871ZM252.435 539.642C251.802 539.568 251.075 539.595 250.277 539.71C241.34 540.996 233.789 550.6 229.379 557.95C225.916 563.722 226.599 570.012 234.399 570.012C241.723 570.012 251.89 555.93 255.002 549.704C257.36 544.989 256.871 540.159 252.435 539.642ZM572.337 541.163C568.462 542.549 563.91 546.506 563.501 550.59C562.857 557.036 554.203 555.317 553.484 557.655C551.256 564.896 561.984 567.798 566.727 565.901C573.38 563.239 574.086 554.192 574.086 548.228C574.086 546.374 574.172 540.508 572.337 541.163ZM287.145 713.983C285.116 714.321 282.36 721.01 283.556 722.206C285.543 720.218 286.701 716.778 287.962 714.255C287.717 714.01 287.434 713.935 287.145 713.983ZM280.898 726.045C277.485 729.457 273.688 739.556 271.471 743.99C271.55 744.069 271.569 744.088 271.63 744.149C270.49 745.373 269.559 747.512 269.881 749.169C267.747 751.011 264.309 757.982 265.179 760.368C263.356 760.99 262.999 766.116 263.838 766.955C265.804 764.99 265.905 763.39 267.064 761.072C266.954 760.962 266.873 760.954 266.769 760.868C269.231 759.236 272.542 750.851 271.198 749.101C272.196 748.251 272.155 747.346 273.243 745.171C273.041 745.01 272.955 744.95 272.834 744.853C274.354 743.271 281.711 726.858 280.898 726.045ZM270.017 731.928C265.753 736.192 262.828 743.781 259.704 748.987C256.943 753.589 253.612 758.896 249.982 762.526C249.451 763.057 248.36 763.004 247.938 763.707C246.591 765.952 253.555 766.512 251.459 770.181C249.429 773.732 240.903 764.962 239.397 768.727C238.904 769.959 252.126 778.023 253.526 777.245C256.414 775.641 256.752 767.691 257.637 764.593C260.83 753.418 265.508 742.719 270.608 732.519C270.313 732.224 270.311 732.222 270.017 731.928ZM253.821 750.464C252.339 751.946 251.052 753.573 249.687 755.166C249.757 755.26 249.743 755.224 249.8 755.302C248.147 756.853 245.069 758.204 243.803 759.891C242.569 761.537 246.896 761.682 247.052 761.663C249.168 761.398 250.595 758.676 251.754 756.938C251.656 756.807 251.691 756.834 251.618 756.733C253.047 755.245 255.385 752.028 253.821 750.464ZM263.248 768.137C261.894 769.49 260.798 770.98 262.362 772.543C263.944 771.488 263.677 770.463 264.111 768.727C263.67 768.433 263.689 768.431 263.248 768.137Z" fill="#FFFFFF" fill-rule="nonzero" opacity="1" stroke="none" vectornator:layerName="path"/>
</g>
</svg>
