<?xml version="1.0" encoding="UTF-8" standalone="no"?>
<!DOCTYPE svg PUBLIC "-//W3C//DTD SVG 1.1//EN" "http://www.w3.org/Graphics/SVG/1.1/DTD/svg11.dtd">
<!-- Created with Vectornator (http://vectornator.io/) -->
<svg height="100%" stroke-miterlimit="10" style="fill-rule:nonzero;clip-rule:evenodd;stroke-linecap:round;stroke-linejoin:round;" version="1.1" viewBox="0 0 750 1000" width="100%" xml:space="preserve" xmlns="http://www.w3.org/2000/svg" xmlns:vectornator="http://vectornator.io" xmlns:xlink="http://www.w3.org/1999/xlink">
<defs/>
<g id="Layer-1" vectornator:layerName="Layer 1">
<path d="" fill="none" opacity="1" stroke="#f5c81a" stroke-linecap="butt" stroke-linejoin="round" stroke-width="1" vectornator:layerName="path"/>
<path d="" fill="none" opacity="1" stroke="#f5c81a" stroke-linecap="butt" stroke-linejoin="round" stroke-width="1" vectornator:layerName="path"/>
<path d="M326.114 200C295.093 200.093 264.623 213.647 241.764 236.505C228.706 249.564 218.618 298.33 230.036 309.748C238.225 301.561 244.478 283.439 256.366 280.466C291.473 271.69 292.627 301.183 277.648 323.651C275.06 327.533 250.779 324.524 242.463 326.602C209.288 334.896 190.71 364.05 196.327 397.748C197.252 403.3 198.893 412.663 202.929 416.699C211.658 409.216 231.204 380.475 244.638 400.622C247.774 405.329 243.39 415.549 241.764 420.427C235.864 438.129 231.512 456.156 225.609 473.864C208.626 524.816 196.471 577.584 179.473 628.583C174.338 643.987 169.949 659.819 165.492 675.418C163.78 681.41 162.843 690.007 159.667 695.301C158.066 697.968 136.71 706.384 131.784 709.903C108.99 726.183 94.0006 744.392 91.4729 772.194C90.8565 778.952 89.4591 794.336 95.1234 800C102.458 796.334 108.381 788.971 115.628 784.621C137.331 771.6 164.747 764.893 190.424 764.893C217.809 764.893 240.972 783.315 269.57 775.146C290.589 769.138 302.754 751.415 304.754 730.408C305.172 726.031 307.309 720.78 304.754 717.204C294.139 702.341 267.327 700.36 254.89 687.922C253.792 688.656 253.814 688.665 252.716 689.398C251.982 688.665 251.973 688.656 251.24 687.922C259.066 672.269 261.852 650.665 266.696 633.709C267.437 631.114 269.592 616.932 273.22 616.855C307.415 616.139 341.705 616.139 375.9 616.855C379.275 616.927 381.562 635.81 382.424 638.835C389.14 662.337 391.266 694.298 403.706 715.029C414.098 732.35 423.183 749.112 441.143 761.942C451.559 769.383 462.931 773.134 475.473 775.922C541.235 790.534 580.925 735.094 593.531 678.369C594.679 673.207 600.076 640.736 596.482 640.311C576.581 637.969 575.181 658.014 559.045 664.466C525.356 677.942 524.922 647.893 518.812 623.456C496.299 533.402 476.063 442.99 453.57 353.01C439.907 298.365 434.294 247.186 381.026 215.224C363.543 204.735 344.724 199.946 326.114 200ZM321.997 218.952C361.324 218.214 400.779 240.837 416.91 281.165C430.888 316.113 435.574 356.056 444.715 392.622C461.559 460.002 478.714 527.663 493.803 595.573C500.956 627.759 505.699 695.686 553.919 684.971C561.122 683.37 566.487 679.463 573.026 676.194C577.326 680.494 561.947 715.165 557.647 722.33C535.328 759.527 498.084 767.911 459.473 752.466C420.178 736.751 410.825 681.668 402.929 646.136C400.409 634.797 396.75 623.763 394.23 612.427C393.832 610.633 392.974 599.261 389.725 599.223C346.242 598.741 302.8 598.741 259.317 599.223C257.456 599.246 251.311 622.547 250.541 625.631C244.772 648.708 237.297 671.564 230.735 694.524C229.433 699.085 222.699 712.899 224.133 717.204C225.699 721.899 239.298 723.107 243.24 723.107C247.075 723.107 256.002 722.772 259.317 719.456C260.908 717.866 261.654 715.168 263.745 714.33C266.715 713.142 285.983 724.611 287.201 727.456C288.108 729.574 285.447 739.214 284.249 742.214C270.938 775.494 217.805 749.912 193.376 747.34C164.925 744.345 135.149 755.133 111.279 767.068C106.882 762.671 117.868 745.1 121.531 741.437C130.215 732.75 139.867 724.268 150.89 718.757C157.708 715.347 169.721 713.281 174.347 707.728C177.595 703.829 178.541 694.285 180.172 689.398C197.542 637.283 212.003 583.89 227.084 531.107C237.998 492.908 251.866 455.206 261.492 416.699C268.626 388.174 242.157 367.414 215.356 380.816C208.526 373.986 221.573 358.352 226.308 354.408C241.998 341.332 268.821 337.139 287.201 346.33C295.813 337.718 308.032 291.804 304.055 281.864C301.421 275.281 294.375 270.818 288.599 266.486C281.287 261.001 269.881 260.373 261.492 261.36C259.027 261.648 251.272 265.415 249.065 264.311C244.437 261.997 254.42 248.706 256.366 246.758C274.818 228.308 298.4 219.397 321.997 218.952ZM493.803 325.826C478.361 328.915 460.325 352.337 474.075 367.612C476.344 370.135 492.335 378.502 492.405 378.641C496.061 385.956 479.361 390.131 476.249 393.243C479.411 399.569 482.314 409.583 488.677 413.826C494.905 417.976 520.664 395.741 523.162 393.243C542.208 374.197 535.464 332.106 493.803 325.826ZM501.181 339.573C510.367 339.588 519.511 345.214 519.511 355.962C519.511 373.842 517.132 382.387 502.657 393.243C501.926 392.145 501.915 392.169 501.181 391.068C506.992 385.257 513.68 364.038 500.482 363.262C496.824 363.046 493.094 363.668 489.453 363.262C482.158 362.452 483.154 349.475 486.502 345.709C490.155 341.601 495.669 339.566 501.181 339.573ZM589.104 341.826C556.778 344.395 532.638 366.068 532.638 405.748C532.638 430.349 553.196 445.878 574.424 451.185C580.774 452.773 596.976 455.265 600.133 462.214C604.614 472.068 589.409 472.466 584.676 472.466C570.683 472.466 560.793 459.625 550.346 452.66C541.329 461.677 537.064 476.844 530.463 487.845C529.611 489.264 524.121 497.052 525.337 498.874C529.793 505.562 540.017 508.702 546.618 512C579.038 528.21 619.254 525.886 645.57 499.573C668.403 476.737 662.505 420.389 627.24 411.573C622.11 410.291 590.579 401.29 590.579 396.194C590.579 393.985 593.675 391.476 595.706 391.068C612.196 387.77 617.229 397.793 630.191 404.272C640.834 393.627 647.019 372.09 653.647 358.835C646.161 351.351 633.685 348.595 623.589 345.709C611.562 342.272 599.88 340.968 589.104 341.826ZM600.366 354.408C613.437 354.403 625.875 357.449 633.142 363.262C637.564 366.799 627.991 382.076 624.288 384.544C609.099 369.355 572.97 376.184 578.152 402.097C580.431 413.498 601.216 418.136 610.385 420.427C631.839 425.791 646.105 439.788 644.094 462.913C643.356 471.396 642.529 479.263 638.269 486.369C624.81 508.798 593.917 510.649 571.55 506.175C567.931 505.452 542.89 497.43 542.89 492.971C542.89 488.219 552.207 475.616 555.473 473.165C574.911 487.745 616.25 494.665 614.036 459.262C613.079 443.937 583.756 440.594 573.725 436.583C545.751 425.394 542.689 412.213 550.346 381.593C555.004 362.952 578.578 354.416 600.366 354.408ZM332.638 350.059C323.906 349.668 324.806 373.545 322.308 382.292C313.38 413.534 305.529 445.369 295.279 476.117C288.956 495.088 283.849 514.724 278.347 533.981C277.74 536.108 272.458 550.793 275.473 550.835C309.426 551.317 343.344 551.317 377.298 550.835C377.989 550.828 378.555 550.091 378.774 549.437C380.944 542.925 370.554 510.657 368.521 502.525C359.005 464.455 350.709 425.743 342.191 387.418C340.096 377.983 342.179 350.484 332.638 350.059ZM330.385 421.204C337.131 422.101 335.425 437.32 337.065 443.884C342.155 464.242 346.327 484.856 350.89 505.398C352.011 510.439 359.025 526.641 356.793 531.107C356.482 531.726 356.008 532.565 355.317 532.583C336.513 533.057 317.734 533.057 298.929 532.583C298.238 532.565 297.59 531.786 297.453 531.107C296.248 525.08 303.749 510.234 305.531 504C306.722 499.835 307.817 495.596 309.182 491.495C315.231 473.349 319.225 454.692 325.259 436.583C326.889 431.694 325.223 420.516 330.385 421.204Z" fill="#003831" fill-rule="nonzero" opacity="1" stroke="none"/>
</g>
</svg>
