<?xml version="1.0" encoding="UTF-8" standalone="no"?>
<!DOCTYPE svg PUBLIC "-//W3C//DTD SVG 1.1//EN" "http://www.w3.org/Graphics/SVG/1.1/DTD/svg11.dtd">
<!-- Created with Vectornator (http://vectornator.io/) -->
<svg height="100%" stroke-miterlimit="10" style="fill-rule:nonzero;clip-rule:evenodd;stroke-linecap:round;stroke-linejoin:round;" version="1.1" viewBox="0 0 750 1000" width="100%" xml:space="preserve" xmlns="http://www.w3.org/2000/svg" xmlns:vectornator="http://vectornator.io" xmlns:xlink="http://www.w3.org/1999/xlink">
<defs/>
<g id="Layer-1" vectornator:layerName="Layer 1">
<path d="" fill="none" opacity="1" stroke="#f5c81a" stroke-linecap="butt" stroke-linejoin="round" stroke-width="1" vectornator:layerName="path"/>
<path d="M368.924 200.13C353.558 200.378 338.34 201.811 323.228 204.559C291.18 210.385 261.923 221.636 233.572 235.811C203.848 250.673 178.145 273.247 154.838 296.554C95.8583 355.533 66.8098 453.231 77.0086 534.821C80.0297 558.99 85.3462 583.256 94.3962 605.881C96.6303 611.467 98.1624 617.644 101.191 622.69C106.777 632 111.892 642.91 116.817 652.76C119.796 658.718 124.426 664.726 128.316 670.172C140.767 687.603 154.36 703.312 169.583 718.535C225.439 774.391 305.335 799.912 383.09 799.912C419.908 799.912 461.634 791.452 494.839 774.85C519.886 762.326 543.624 750.018 566.2 730.916C637.131 670.898 678.792 582.584 674.728 489.1C673.581 462.719 669.831 435.835 661.442 410.668C653.743 387.571 644.557 366.606 632.253 346.1C621.182 327.648 607.95 310.014 593.024 294.491C545.105 244.654 485.946 213.803 418.167 203.376C401.921 200.877 385.336 199.865 368.924 200.13ZM365.979 211.931C385.472 211.488 404.572 212.857 423.779 216.058C491.875 227.407 552.905 263.731 597.453 317.188C610.061 332.317 621.967 349.433 630.768 367.035C634.664 374.826 637.612 384.036 642.268 391.796C646.681 399.151 648.434 409.086 651.125 417.16C658.904 440.496 663.229 466.936 663.229 491.466C663.229 529.176 658.405 568.117 644.356 603.239C639.944 614.27 633.691 624.997 629.309 635.951C627.002 641.719 622.758 647.171 619.571 652.483C610.238 668.037 598.766 683.605 585.953 696.417C530.101 752.27 459.8 788.413 379.24 788.413C342.749 788.413 304.68 782.539 270.738 768.962C261.586 765.301 252.779 760.415 243.889 756.859C240.226 755.393 237.094 752.656 233.572 751.247C223.032 747.031 212.97 738.343 203.805 731.796C175.998 711.934 152.788 685.818 133.902 657.49C117.156 632.371 105.418 605.934 97.0634 576.692C89.5179 550.283 86.2388 522.475 87.0235 495.014C87.8075 467.572 92.2293 441.565 99.7055 415.398C101.862 407.854 104.154 399.104 107.657 392.097C112.467 382.478 117.914 372.079 121.824 362.305C123.976 356.926 127.986 351.935 130.958 346.98C140.253 331.489 151.813 316.111 164.576 303.348C220.604 247.32 286.075 213.75 365.979 211.931ZM373.352 220.185C352.692 219.851 332.436 222.782 312.307 227.255C239.16 243.51 173.295 292.649 134.506 357.297C121.443 379.069 112.073 402.472 105.015 427.175C99.017 448.167 96.1302 470.569 95.5788 492.346C93.462 575.96 125.312 645.629 183.75 704.067C198.646 718.963 216.498 731.038 234.453 741.811C240.408 745.384 248 751.029 254.81 752.732C258.959 753.769 263.086 756.702 267.19 758.343C274.991 761.463 283.575 764.375 291.975 767.175C320.925 776.825 352.406 779.857 382.788 779.857C459.734 779.857 527.837 742.43 580.946 689.321C595.297 674.971 609.039 656.159 618.111 638.014C619.543 635.151 621.9 632.531 623.119 629.484C627.367 618.864 633.018 608.536 637.26 597.93C649.456 567.442 652.958 534.094 654.673 501.506C656.114 474.133 650.649 446.268 643.174 420.104C640.891 412.114 638.63 401.929 634.316 394.74C629.324 386.419 626.052 376.752 621.634 367.916C614.586 353.819 604.833 340.337 595.087 327.806C553.181 273.927 496.219 240.532 431.151 226.073C412.115 221.843 392.792 220.499 373.352 220.185ZM367.263 246.555C368.472 246.462 369.455 246.627 369.527 247.612C369.807 251.437 369.679 255.279 369.804 259.112C370.205 271.343 369.361 284.109 370.71 296.252C370.741 296.528 371.011 296.844 371.289 296.856C375.511 297.044 379.749 296.668 383.971 296.856C384.81 296.893 386.02 308.425 384.55 308.657C377.751 309.731 370.799 309.143 363.916 309.236C361.647 309.267 358.016 310.743 357.122 308.657C354.875 303.414 356.69 297.249 356.543 291.547C356.367 284.666 356.119 277.795 355.965 270.913C355.867 266.588 355.786 262.253 355.663 257.929C355.472 251.254 354.485 247.469 355.965 247.31C358.508 247.038 361.057 247.064 363.614 247.008C364.602 246.987 366.053 246.649 367.263 246.555ZM319.101 252.318C319.502 252.238 320.215 252.306 320.284 252.922C321.007 259.427 318.035 269.954 317.314 276.801C317.141 278.453 316.108 281.661 316.736 283.293C317.646 285.659 320.987 288.4 322.624 290.364C328.206 297.062 333.758 303.799 339.433 310.419C338.466 311.385 326.794 315.376 325.87 314.847C324.347 313.977 322.839 310.948 321.743 309.538C316.925 303.343 312.262 296.483 306.721 290.943C305.819 293.649 311.69 309.701 312.911 313.363C313.375 314.755 314.529 316.847 314.094 318.37C313.251 321.319 301.541 320.304 301.11 320.736C298.364 317.99 297.905 311.724 296.681 308.053C293.38 298.15 290.417 288.029 287.547 277.984C286.804 275.384 282.753 265.54 283.42 263.54C283.811 262.368 294.431 260.249 296.102 259.414C300.198 263.509 300.011 279.717 304.054 282.413C307.31 279.156 304.618 261.654 306.721 256.746C307.264 255.479 317.36 252.666 319.101 252.318ZM429.088 252.922C431.625 253.895 442.922 256.064 442.953 256.746C443.238 263.031 443.111 269.328 443.23 275.619C443.307 279.747 443.504 283.869 443.531 287.999C443.602 298.516 443.724 309.037 443.531 319.553C443.526 319.831 443.225 320.102 442.953 320.157C439.904 320.767 433.611 317.677 430.547 316.911C430.16 316.814 429.439 317.173 429.39 316.307C429.205 313.069 429.575 309.832 429.39 306.594C429.316 305.296 418.384 303.746 416.985 303.046C416.112 304.21 412.247 312.085 411.675 312.18C409.744 312.502 406.515 310.896 404.605 310.419C402.999 310.017 399.268 310.009 398.716 308.355C398.596 307.993 405.894 295.737 406.668 294.189C411.547 284.431 417.402 275.086 422.294 265.302C424.186 261.517 426.117 255.893 429.088 252.922ZM491.593 274.738C493.594 275.238 501.485 279.871 502.211 281.809C502.676 283.047 501.536 285.684 501.331 287.118C500.476 293.103 499.671 299.11 498.965 305.109C498.654 307.756 496.165 315.268 498.085 317.188C502.1 311.164 505.856 304.831 509.584 298.617C511.37 295.641 513.063 291.954 515.774 289.785C518.386 291.526 525.299 294.064 526.695 296.856C527.11 297.686 518.602 310.58 517.535 312.18C511.909 320.62 506.553 329.419 501.331 338.123C499.785 340.698 496.964 347.692 494.26 349.044C493.85 349.248 483.588 343.162 483.339 342.25C482.897 340.627 483.705 338.908 483.943 337.242C484.489 333.419 485.158 329.566 485.704 325.743C486.4 320.877 486.377 309.929 488.347 305.99C488.052 305.695 488.063 305.706 487.768 305.411C483.965 309.214 481.241 316.8 478.03 321.616C476.486 323.931 472.08 332.995 470.078 333.996C469.24 334.416 458.252 327.163 458.579 326.347C460.481 321.592 464.496 317.18 467.134 312.784C472.005 304.666 476.901 296.486 482.156 288.603C483.317 286.862 490.444 274.451 491.593 274.738ZM238.001 286.816C239.713 286.816 242.44 290.219 243.612 291.245C250.112 296.932 256.564 302.668 263.063 308.355C270.744 315.076 278.844 321.469 286.062 328.687C284.676 329.727 274.49 337.135 273.682 336.664C270.924 335.055 268.55 332.111 266.309 329.87C262.757 331.646 258.2 334.431 255.389 337.242C255.886 338.236 259.154 346.676 258.937 346.98C257.923 348.4 247.858 355.22 247.135 353.774C241.956 343.416 239.675 331.225 235.359 320.434C232.377 312.979 227.818 303.873 226.502 295.975C226.34 295.006 236.627 286.816 238.001 286.816ZM556.186 323.378C562.215 330.63 572.089 338.441 572.089 348.465C572.089 367.189 551.191 388.23 531.702 382.661C522.194 379.945 514.6 370.583 509.282 362.607C520.294 354.347 530.562 344.874 541.138 336.06C545.734 332.23 550.896 326.022 556.186 323.378ZM371.868 328.687C393.094 328.309 412.625 332.065 432.611 338.727C481.741 355.104 521.878 398.28 538.194 447.229C567.611 535.478 519.281 626.763 435.857 660.132C420.581 666.243 402.75 671.355 386.034 671.355C351.426 671.355 317.719 665.629 288.428 648.054C269.097 636.456 252.491 621.37 238.605 603.516C227.084 588.703 217.209 571.419 212.058 553.392C204.669 527.529 201.368 502.248 205.566 474.959C218.337 391.946 288.088 330.179 371.868 328.687ZM190.821 331.354C207.149 329.896 225.102 341.599 230.628 358.178C234.615 370.137 229.107 378.48 220.01 385.304C218.376 386.529 215.341 387.971 213.241 387.971C196.479 387.971 183.224 378.137 174.616 363.789C166.375 350.054 177.286 332.563 190.821 331.354ZM540.258 599.691C542.295 599.012 549.339 604.646 550.876 606.183C548.037 609.022 540.836 609.581 540.836 615.317C540.836 617.563 541.884 621.809 544.963 621.809C552.034 621.809 556.964 618.267 563.558 616.802C572.374 614.843 578.866 619.539 583.89 626.238C588.357 632.193 586.061 643.241 580.946 648.356C579.792 649.51 575.007 654.898 572.391 654.244C571.106 653.923 569.655 652.303 568.566 651.577C566.874 650.449 564.691 649.451 563.558 647.752C566.946 645.212 577.627 638.243 572.089 632.705C571.081 631.697 569.288 630.063 567.685 630.063C562.7 630.063 557.733 633.565 553.216 635.07C543.866 638.187 534.857 633.827 529.941 625.634C524.906 617.243 531.029 602.767 540.258 599.691ZM215.002 606.762C217.483 610.069 222.246 614.628 223.558 618.563C223.633 618.79 215.751 628.267 215.002 629.182C208.149 637.558 201.298 645.929 194.369 654.244C190.66 658.694 187.269 663.734 182.869 667.505C181.966 666.376 174.357 656.143 174.616 655.729C175.684 654.02 181.527 648.486 181.083 647.45C180.725 646.616 173.939 637.481 173.71 637.436C170.877 636.869 167.149 641.26 164.274 641.26C163.825 641.26 156.818 631.561 156.02 630.365C159.603 626.782 167.951 625.411 172.552 623.571C186.507 617.989 201.569 613.479 215.002 606.762ZM514.893 632.126C517.601 634.021 520.373 638.287 522.568 640.682C519.057 643.315 514.695 646.194 513.409 650.696C508.995 666.144 525.893 679.274 539.956 675.759C543.378 674.903 545.334 671.286 547.63 668.99C550.014 671.97 552.957 674.558 555.28 677.545C555.677 678.055 554.419 679.589 554.122 679.885C549.844 684.164 544.548 688.575 538.471 689.925C525.784 692.745 515.06 686.713 506.942 677.822C498.881 668.993 496.857 655.214 502.211 644.506C504.202 640.525 506.674 638.227 510.163 635.07C510.459 634.802 514.45 631.816 514.893 632.126ZM237.12 635.07C244.617 639.012 250.141 646.065 256.571 651.577C257.435 652.317 264.101 657.018 263.365 658.069C262.401 659.446 256.3 666.829 255.389 666.322C252.687 664.822 250.854 661.823 248.318 660.132C248.154 660.023 247.886 660.002 247.739 660.132C239.377 667.566 232.188 678.075 225.017 686.679C222.868 689.258 218.61 696.498 215.304 697.6C215.208 697.632 205.93 689.976 205.264 689.045C204.934 688.582 210.61 682.081 211.454 681.068C219.637 671.249 230.054 661.899 237.12 651.3C237.508 650.719 230.573 645.305 229.748 644.204C229.313 643.625 235.874 634.415 237.12 635.07ZM474.507 666.046C477.941 669.48 479.665 674.853 482.156 679.005C487.135 687.303 491.345 696.072 496.323 704.369C498.898 708.661 503.685 714.642 504.879 719.416C505.103 720.314 495.617 725.167 494.26 726.185C494.074 726.324 493.368 726.705 493.077 726.487C490.384 724.467 486.797 715.03 484.824 711.741C477.207 699.047 471.192 685.128 462.982 672.815C466.554 670.433 471.567 668.986 474.507 666.046ZM276.626 666.624C276.661 666.615 288.408 671.606 288.428 671.632C289.078 672.499 282 688.035 281.055 689.925C280.715 690.604 278.827 692.817 279.293 693.75C279.998 695.16 288.849 698.087 290.793 699.059C292.854 696.999 298.204 685.04 299.046 681.672C299.262 680.809 299.71 678.721 300.506 678.124C301.289 677.537 312.761 682.152 313.188 683.433C313.359 683.948 307.673 695.947 306.998 697.298C302.32 706.653 298.959 717.583 293.435 726.789C291.349 730.265 290.898 735.201 288.428 738.288C287.427 739.539 275.62 734.438 275.443 733.558C275.16 732.143 277.737 728.192 278.413 727.066C281.458 721.99 283.074 715.679 285.785 710.257C284.954 709.425 274.905 704.715 274.261 704.973C273.523 705.268 267.647 718.463 266.913 720.297C266.458 721.436 264.366 727.805 263.365 727.972C262.311 728.147 251.803 723.178 250.985 722.36C257.677 708.976 262.133 693.942 269.857 681.068C270.909 679.316 275.494 666.948 276.626 666.624ZM446.199 678.728C447.905 679.581 449.346 687.167 449.722 689.045C450.375 692.313 440.43 691.243 439.984 693.473C439.737 694.704 441.357 698.123 441.77 699.361C445.05 709.2 448.054 719.154 450.904 729.129C451.654 731.753 455.006 738.087 454.15 740.654C453.929 741.316 442.234 745.087 441.468 744.78C440.335 744.327 437.823 734.666 437.341 732.979C434.857 724.283 431.87 715.716 429.39 707.036C428.612 704.314 428.129 699.283 426.144 697.298C413.899 703.42 417.133 697.268 413.16 689.321C416.968 685.513 432.507 682.973 438.222 681.068C439.625 680.6 444.942 678.099 446.199 678.728ZM335.256 687.585C338.183 687.833 341.2 689.354 344.163 689.623C344.562 689.659 345.281 689.447 345.346 690.227C345.68 694.234 343.995 699.269 343.283 703.186C341.188 714.708 339.326 726.405 337.671 737.986C337.362 740.153 343.559 740.115 344.742 740.352C350.666 741.537 351.525 740.399 350.353 746.844C350.215 747.606 350.195 752.19 349.473 752.732C348.359 753.567 332.223 750.205 329.72 749.788C328.851 749.643 322.174 749.33 322.045 748.303C321.489 743.856 323.95 737.404 324.687 732.979C326.408 722.657 328 712.325 329.72 702.003C330.292 698.568 329.113 688.864 332.362 687.862C333.314 687.568 334.28 687.502 335.256 687.585ZM394.866 691.108C400.433 693.726 397.518 699.305 399.018 702.305C396.675 704.648 388.408 703.298 386.034 703.488C385.757 703.51 385.485 703.794 385.43 704.067C384.964 706.4 385.663 712.9 386.034 715.868C386.134 716.667 396.57 715.767 397.534 715.868C397.81 715.897 398.071 716.197 398.112 716.472C398.449 718.713 399.348 724.541 398.716 727.066C398.165 729.27 388.396 728.124 387.217 728.248C386.941 728.277 386.659 728.578 386.613 728.852C386.545 729.263 387.175 740.596 387.494 741.232C388.103 742.451 390.709 741.293 391.646 741.232C394.002 741.08 396.357 741.009 398.716 740.93C402.736 740.796 401.553 744.854 401.66 748.303C401.7 749.58 401.829 750.886 401.66 752.153C401.498 753.369 396.752 753.305 396.653 753.311C389.79 753.692 381.345 755.189 374.535 754.216C371.891 753.839 373.791 748.907 373.654 746.24C373.296 739.261 372.829 732.281 372.472 725.304C372.058 717.244 371.749 709.183 371.289 701.123C371.256 700.546 369.989 692.509 371.591 692.291C379.176 691.256 387.23 691.426 394.866 691.108ZM429.969 273.857C426.295 277.531 423.353 288.573 420.835 293.61C421.869 294.645 430.447 296.78 430.547 295.673C431.001 290.68 430.593 285.633 430.849 280.626C430.952 278.626 432.399 275.697 429.969 273.857ZM241.247 304.229C240.952 304.524 240.963 304.513 240.668 304.807C243.179 309.828 245.228 314.833 247.739 319.855C249.012 322.401 249.464 326.008 251.564 328.108C254.137 326.393 256.764 324.655 259.239 322.799C255.382 315.086 246.916 310.707 241.247 304.229ZM370.71 336.664C306.076 338.063 254.653 375.628 225.923 433.088C218.673 447.587 214.821 465.149 212.939 481.149C206.352 537.137 226.498 582.3 265.127 620.929C274.146 629.948 287.515 640.266 299.625 645.11C307.621 648.309 315.77 652.547 324.41 655.427C343.671 661.847 363.707 663.378 383.971 663.378C402.094 663.378 423.203 658.219 439.405 650.118C450.343 644.649 461.521 639.286 471.84 631.547C507.26 604.982 529.255 567.999 536.408 525.083C538.429 512.954 538.194 500.404 538.194 488.22C538.194 476.218 534.925 462.762 531.123 451.356C520.153 418.444 499.614 388.298 470.657 367.614C460.129 360.094 448.861 354.652 437.643 349.044C417.77 339.107 392.277 336.197 370.71 336.664ZM366.307 373.603C373.795 373.581 381.366 375.497 388.4 379.717C409.832 392.577 412.092 413.165 417.589 435.151C426.639 471.354 434.775 507.722 443.833 543.955C446.291 553.787 446.483 565.884 460.038 560.462C466.53 557.866 467.079 549.807 475.086 550.749C476.532 550.92 474.365 563.997 473.903 566.074C468.831 588.897 452.88 611.182 426.421 605.303C421.375 604.181 416.772 602.685 412.581 599.691C405.355 594.529 401.715 587.788 397.534 580.819C392.529 572.478 391.68 559.602 388.978 550.146C388.631 548.929 387.694 541.342 386.336 541.313C372.578 541.025 358.802 541.025 345.044 541.313C343.584 541.344 342.7 547.038 342.402 548.082C340.453 554.904 339.336 563.6 336.187 569.898C336.482 570.193 336.496 570.207 336.791 570.502C337.233 570.207 337.229 570.193 337.671 569.898C342.675 574.902 353.455 575.72 357.726 581.7C358.754 583.139 357.894 585.248 357.726 587.009C356.921 595.461 352.016 602.584 343.559 605.001C332.053 608.288 322.746 600.874 311.728 600.874C301.397 600.874 290.366 603.586 281.634 608.825C278.718 610.575 276.331 613.54 273.38 615.015C271.101 612.736 271.673 606.537 271.921 603.818C272.938 592.632 278.955 585.306 288.126 578.756C290.108 577.34 298.704 573.941 299.348 572.868C300.626 570.738 300.999 567.302 301.688 564.891C303.481 558.615 305.234 552.217 307.3 546.019C314.139 525.5 319.037 504.291 325.87 483.791C328.245 476.666 329.988 469.399 332.362 462.277C333.016 460.314 334.807 456.219 333.545 454.325C328.14 446.219 320.248 457.781 316.736 460.792C315.112 459.168 314.466 455.377 314.094 453.143C311.834 439.585 319.316 427.869 332.664 424.532C336.01 423.696 345.764 424.912 346.805 423.35C352.832 414.31 352.375 402.431 338.25 405.962C333.467 407.158 330.951 414.444 327.656 417.738C323.062 413.144 327.108 393.527 332.362 388.273C341.559 379.076 353.826 373.64 366.307 373.603ZM433.793 424.23C450.555 426.757 453.258 443.693 445.595 451.356C444.59 452.361 434.236 461.305 431.73 459.635C429.17 457.928 427.995 453.901 426.723 451.356C427.975 450.104 434.686 448.411 433.215 445.468C433.187 445.412 426.755 442.054 425.842 441.039C420.31 434.893 427.58 425.473 433.793 424.23ZM472.116 430.647C476.452 430.302 481.167 430.824 486.006 432.207C490.068 433.368 495.073 434.505 498.085 437.516C495.418 442.849 492.931 451.502 488.649 455.785C483.434 453.178 481.419 449.148 474.784 450.475C473.967 450.639 472.72 451.65 472.72 452.539C472.72 454.589 485.402 458.213 487.466 458.729C501.655 462.276 504.026 484.945 494.839 494.133C484.251 504.72 468.075 505.662 455.031 499.14C452.375 497.813 448.269 496.522 446.476 493.831C445.987 493.098 448.196 489.973 448.539 489.402C451.195 484.976 452.888 478.889 456.516 475.261C460.719 478.063 464.725 483.212 470.355 483.212C472.259 483.212 478.373 483.051 476.57 479.086C475.3 476.29 468.783 475.296 466.228 474.657C457.687 472.522 449.42 466.287 449.42 456.389C449.42 440.424 459.11 431.681 472.116 430.647ZM557.62 340.438C557.224 340.235 556.759 340.233 556.186 340.488C550.981 342.807 547.579 348.038 543.202 351.686C540.253 354.143 537.29 356.604 534.344 359.059C531.815 361.167 528.583 363.389 526.393 365.853C525.577 366.77 528.642 368.635 529.337 369.099C532.398 371.139 536.876 371.107 540.258 369.979C546.867 367.776 553.749 362.105 557.343 356.115C559.091 353.202 560.394 341.861 557.62 340.438ZM193.614 343.734C192.33 343.669 190.995 343.762 189.638 344.036C179.033 346.178 186.205 356.869 191.123 362.607C196.629 369.031 205.278 375.289 214.122 375.289C222.524 375.289 218.88 363.71 215.883 359.964C209.816 352.381 202.601 344.192 193.614 343.734ZM364.646 381.227C355.152 381.406 345.674 384.976 338.25 392.399C337.467 393.183 333.444 398.539 335.306 399.47C336.194 399.914 339.321 398.404 340.313 398.288C343.688 397.891 348.292 398.144 351.234 400.351C353.558 402.094 356.364 403.892 357.424 406.541C359.024 410.54 354.12 429.019 350.655 432.484C343.26 428.786 332.485 430.469 326.172 435.73C324.267 437.317 318.995 443.601 321.743 446.349C332.526 440.957 343.183 449.315 340.313 460.792C336.44 476.285 330.865 491.446 326.474 506.815C320.406 528.052 314.591 549.534 307.602 570.502C306.946 572.468 306.543 576.306 305.236 577.875C303.375 580.109 298.543 580.932 295.8 582.304C291.365 584.521 287.493 587.943 283.999 591.438C282.525 592.912 278.103 599.986 279.872 601.755C289.476 596.953 301.464 592.598 312.911 593.803C322.74 594.838 344.117 605.13 349.473 591.74C349.955 590.533 351.02 586.678 350.655 585.826C350.165 584.681 342.414 580.039 341.219 580.517C340.378 580.854 340.073 581.94 339.433 582.58C338.099 583.914 334.509 584.065 332.966 584.065C331.38 584.065 325.921 583.589 325.291 581.7C324.714 579.968 327.409 574.401 327.933 572.566C330.573 563.328 333.589 554.121 335.91 544.836C336.22 543.595 338.684 534.226 339.433 534.217C356.928 534.023 374.427 534.023 391.922 534.217C393.229 534.232 393.549 538.805 393.709 539.527C394.723 544.088 396.218 548.528 397.232 553.09C400.409 567.386 404.144 589.543 419.954 595.866C435.489 602.08 450.48 598.729 459.46 583.763C461.19 580.88 467.38 566.923 465.65 565.193C463.019 566.508 460.873 568.072 457.975 568.716C438.574 573.027 436.671 545.708 433.793 532.758C427.722 505.435 420.818 478.189 414.041 451.079C410.363 436.367 408.467 420.3 402.843 406.239C396.353 390.013 380.469 380.93 364.646 381.227ZM368.924 433.969C372.763 434.14 371.93 445.22 372.773 449.016C376.2 464.436 379.538 479.999 383.367 495.316C384.185 498.588 388.367 511.568 387.494 514.188C387.406 514.451 387.193 514.763 386.915 514.766C373.254 514.96 359.586 514.96 345.925 514.766C344.712 514.749 346.863 508.829 347.107 507.973C349.321 500.225 351.357 492.33 353.901 484.697C358.025 472.326 361.205 459.523 364.797 446.953C365.802 443.434 365.411 433.812 368.924 433.969ZM436.763 429.741C434.545 429.738 432.319 430.554 430.849 432.207C429.502 433.722 429.097 438.952 432.032 439.278C433.497 439.441 434.989 439.191 436.461 439.278C441.771 439.59 439.101 448.137 436.763 450.475C437.058 450.918 437.047 450.914 437.341 451.356C443.165 446.988 444.11 443.528 444.11 436.334C444.11 432.01 440.459 429.747 436.763 429.741ZM476.646 435.705C467.88 435.708 458.39 439.151 456.516 446.651C453.435 458.971 454.697 464.267 465.952 468.769C469.988 470.383 481.771 471.737 482.156 477.903C483.047 492.147 466.4 489.38 458.579 483.514C457.265 484.5 453.546 489.554 453.546 491.466C453.546 493.26 463.615 496.484 465.071 496.775C474.07 498.575 486.48 497.848 491.895 488.824C493.609 485.965 493.963 482.8 494.26 479.387C495.069 470.083 489.329 464.435 480.697 462.277C477.008 461.355 468.63 459.491 467.713 454.904C465.628 444.478 480.172 441.722 486.283 447.833C487.773 446.84 491.61 440.701 489.831 439.278C486.907 436.939 481.905 435.703 476.646 435.705ZM368.043 462.579C365.966 462.302 366.635 466.802 365.979 468.769C363.551 476.055 361.921 483.586 359.487 490.887C358.938 492.537 358.507 494.218 358.028 495.894C357.311 498.402 354.297 504.39 354.782 506.815C354.837 507.088 355.083 507.387 355.361 507.394C362.927 507.585 370.492 507.585 378.058 507.394C378.336 507.387 378.537 507.064 378.662 506.815C379.56 505.018 376.747 498.501 376.296 496.473C374.46 488.208 372.758 479.904 370.71 471.713C370.05 469.072 370.757 462.94 368.043 462.579ZM205.164 622.111C203.148 621.998 198.666 625.259 197.313 625.936C194.881 627.152 183.876 630.993 182.869 633.007C182.287 634.172 185.838 637.484 186.392 638.316C187.873 637.576 188.056 639.295 189.336 638.014C189.778 638.309 189.8 638.323 190.242 638.618C195.725 634.506 201.307 627.119 205.868 622.388C205.697 622.217 205.451 622.128 205.164 622.111Z" fill="#FFFFFF" fill-rule="nonzero" opacity="1" stroke="none" vectornator:layerName="path"/>
</g>
</svg>
