<?xml version="1.0" encoding="UTF-8" standalone="no"?>
<!DOCTYPE svg PUBLIC "-//W3C//DTD SVG 1.1//EN" "http://www.w3.org/Graphics/SVG/1.1/DTD/svg11.dtd">
<!-- Created with Vectornator (http://vectornator.io/) -->
<svg height="100%" stroke-miterlimit="10" style="fill-rule:nonzero;clip-rule:evenodd;stroke-linecap:round;stroke-linejoin:round;" version="1.1" viewBox="0 0 750 1000" width="100%" xml:space="preserve" xmlns="http://www.w3.org/2000/svg" xmlns:vectornator="http://vectornator.io" xmlns:xlink="http://www.w3.org/1999/xlink">
<defs/>
<g id="Layer-1" vectornator:layerName="Layer 1">
<path d="" fill="none" opacity="1" stroke="#f5c81a" stroke-linecap="butt" stroke-linejoin="round" stroke-width="1" vectornator:layerName="path"/>
<path d="M401.22 232.979C388.816 232.967 376.433 232.991 364.031 233.135C363.101 233.146 352.938 241.141 351.124 242.23C345.524 245.59 340.738 245.761 333.842 245.761C303.371 245.761 272.871 245.448 242.4 245.448C237.898 245.448 232.532 243.622 228.93 246.323C223.958 250.053 219.224 255.996 214.899 260.105C206.633 267.958 206.398 266.099 206.398 278.544C206.398 291.826 206.583 305.138 206.679 318.421C206.732 325.648 206.875 332.854 206.679 340.078C206.672 340.354 206.281 340.477 206.086 340.672C202.117 338.688 196.747 344.573 196.71 348.297C196.614 357.868 197.023 367.446 197.023 377.017C197.023 384.05 196.995 391.085 196.71 398.112C196.699 398.388 196.343 398.479 196.148 398.675C188.516 393.587 176.22 392.342 167.396 391.362C135.013 387.764 110.278 397.54 87.7357 420.082C81.8001 426.018 75.4191 439.421 75.1414 447.614C74.9528 453.178 74.9528 458.739 75.1414 464.303C75.2034 466.134 77.5353 469.223 78.6415 470.772C85.3383 480.147 98.6907 486.428 110.018 481.897C115.021 479.896 119.861 475.618 122.582 471.084C123.735 469.163 124.651 465.764 126.113 464.303C126.308 464.498 126.705 464.652 126.707 464.928C126.901 491.589 126.804 518.239 126.707 544.9C126.704 545.674 119.994 553.313 118.769 555.151C114.574 561.443 112.05 569.233 112.05 576.839C112.05 583.375 117.433 593.061 124.05 594.715C127.833 595.661 131.824 595.568 135.77 595.872C138.465 596.079 141.978 596.283 144.551 594.997C151.74 591.402 157.259 586.977 163.302 580.933C169.059 575.177 168.765 563.931 168.896 556.901C169.15 543.327 169.771 529.192 169.771 515.587C169.771 512.65 169.031 509.737 169.178 506.805C169.197 506.425 170.102 506.061 170.365 505.93C174.797 503.714 179.842 502.364 184.397 500.086C194.029 495.27 203.087 489.542 211.086 482.21C211.805 482.929 211.652 482.507 211.648 483.366C211.551 507.391 211.367 531.438 211.367 555.463C211.367 567.839 208.167 585.332 220.461 593.528C224.026 595.905 228.184 596.465 232.462 596.465C235.293 596.465 238.617 594.447 240.65 592.653C248.397 585.817 248.318 579.995 248.588 569.495C248.708 564.808 248.793 560.152 248.869 555.463C248.989 548.041 248.989 540.602 249.15 533.181C249.171 532.221 248.94 523.988 251.525 523.212C257.626 521.382 256.182 532.52 256.182 534.65C256.182 546.004 254.991 559.649 256.776 571.245C257.752 577.591 264.761 584.544 268.776 588.559C269.138 588.921 270.028 588.961 269.651 589.715C268.635 591.747 266.487 593.573 265.276 595.59C249.808 621.37 223.387 640.465 217.242 671.188C216.116 676.821 214.516 688.822 216.055 693.439C218.369 700.383 229.011 697.533 233.649 697.533C244.198 697.533 254.728 697.802 265.276 697.845C302.583 697.998 339.88 698.127 377.188 698.127C378.195 698.127 378.513 697.901 379.25 697.533C379.543 697.826 379.551 697.833 379.844 698.127C370.754 707.216 368.406 713.059 368.406 726.253C368.406 728.359 370.053 732.157 371.344 733.878C373.218 736.378 383.045 747.335 383.063 747.941C383.249 754.189 383.063 760.442 383.063 766.692C394.099 766.79 405.153 767.101 416.189 767.005C418.467 766.985 419.443 762.736 419.69 761.13C420.373 756.685 418.885 751.903 420.283 747.629C421.014 745.397 423.629 744.357 425.252 742.66C427.316 740.502 429.004 737.896 430.534 735.347C438.495 722.078 432.864 708.81 423.502 698.408C423.698 698.115 423.713 697.535 424.065 697.533C475.923 697.241 527.807 697.436 579.666 697.533C582.901 697.539 583.844 696.574 586.385 694.033C590.476 689.942 587.787 678.661 586.979 673.813C583.826 654.894 571.401 637.586 558.853 623.717C555.142 619.616 551.35 615.584 547.727 611.404C542.868 605.797 538.896 599.54 535.101 593.215C534.178 591.677 532.087 588.564 533.07 587.09C538.514 592.534 546.234 594.221 553.602 594.997C567.777 596.489 580.054 594.526 591.979 587.371C595.718 585.128 598.642 581.856 602.23 579.465C605.866 583.101 612.255 592.003 618.356 593.528C625.111 595.217 630.108 596.465 637.669 596.465C652.624 596.465 667.867 584.066 673.108 570.964C673.527 569.918 674.832 565.981 674.858 565.089C675.048 558.744 675.048 552.433 674.858 546.088C674.812 544.551 672.624 540.932 671.639 539.619C669.957 537.376 669.115 534.348 667.545 531.994C664.481 527.397 661.048 523.166 657.295 519.087C653.147 514.578 654.075 515.478 649.67 511.493C647.306 509.355 644.845 507.326 642.357 505.336C636.697 500.809 631.954 496.374 626.543 491.273C625.783 490.555 624.18 489.163 623.012 488.929C617.777 487.882 600.58 499.685 599.605 503.586C598.058 509.773 599.292 516.104 599.292 522.337C599.292 530.002 594.707 538.618 590.229 544.588C588.844 546.435 577.288 559.734 572.353 558.089C577.717 552.724 586.391 546.689 588.448 538.463C590.612 529.807 593.374 522.068 591.667 512.68C587.666 490.677 562.182 485.153 543.914 492.46C533.89 496.47 525.997 504.022 519.319 512.368C518.137 511.186 518.74 509.07 518.726 507.399C518.64 497.339 518.603 487.268 518.413 477.21C518.387 475.841 517.247 474.294 516.351 473.397C520.886 467.35 517.709 457.345 516.351 450.552C511.689 427.244 496.366 401.855 474.755 391.049C466.014 386.679 458.689 384.643 448.41 384.643C448.191 384.643 448.011 384.826 447.816 384.924C445.464 382.572 447.027 378.275 447.222 374.955C447.249 374.495 451.411 373.313 452.191 372.923C454.912 371.563 457.51 368.792 459.535 366.767C459.972 366.33 460.641 363.57 461.285 363.548C476.325 363.041 492.145 363.235 507.288 363.235C515.272 363.235 513.406 367.844 515.788 373.798C519.806 383.844 521.763 400.274 529.257 407.769C529.708 408.219 530.954 408.667 531.601 408.675C548.106 408.867 564.599 408.829 581.104 408.925C587.662 408.963 594.163 409.437 600.73 409.238C603.933 409.141 605.67 405.16 605.73 402.487C605.91 394.48 606.011 386.464 606.011 378.455C606.011 368.297 605.91 358.172 605.73 348.016C605.681 345.226 604.608 342.299 601.917 340.953C599.293 340.981 596.124 341.334 596.073 340.391C595.541 330.54 596.237 320.659 596.354 310.795C596.473 300.834 596.636 290.881 596.636 280.919C596.636 278.085 596.489 275.249 596.354 272.419C595.982 264.589 591.739 263.115 586.385 257.762C583.11 254.487 580.719 251.14 577.01 248.667C575.901 247.928 573.965 246.647 572.603 246.636C548.579 246.442 524.594 246.42 500.569 246.323C500.166 246.322 499.784 246.045 499.381 246.042C486.099 245.946 472.816 246.235 459.535 246.042C459.141 246.037 457.097 244.311 456.598 244.011C454.221 242.585 439.723 233.145 438.441 233.135C426.038 233.039 413.624 232.991 401.22 232.979ZM401.22 238.042C412.95 238.102 424.678 238.285 436.378 238.417C438.038 238.435 451.453 247.175 453.941 248.667C455.132 249.381 455.821 251.106 457.191 251.324C460.858 251.907 464.604 251.586 468.317 251.605C502.597 251.781 536.886 251.723 571.166 251.918C572.277 251.924 573.775 252.999 574.666 253.668C579.338 257.171 586.592 264.059 590.479 268.918C592.009 270.831 591.024 273.783 591.104 276.231C591.229 280.039 591.354 283.859 591.354 287.669C591.354 307.023 590.404 326.297 590.792 345.672C590.81 346.589 598.686 345.551 599.292 345.672C601.811 346.176 600.466 350.728 600.48 353.297C600.566 369.9 600.673 386.479 600.48 403.081C600.476 403.357 600.076 403.509 599.855 403.675C597.12 405.726 593.022 403.69 589.604 403.675C570.755 403.591 551.919 403.772 533.07 403.675C529.816 403.658 528.798 395.514 528.101 393.424C525.269 384.928 522.433 376.42 519.601 367.923C518.964 366.014 517.921 359.357 516.101 358.548C512.271 356.845 506.826 357.802 502.881 357.954C498.489 358.123 494.089 358.266 489.693 358.266C487.152 358.266 484.609 357.954 482.068 357.954C474.352 357.954 466.657 358.173 458.942 358.266C457.432 358.285 453.17 365.446 451.629 366.767C449.865 368.279 441.947 370.517 441.941 370.548C440.856 375.61 441.843 380.905 441.941 386.08C441.967 387.461 441.154 390.132 442.535 390.174C448.32 390.35 454.083 389.525 459.817 390.799C483.818 396.133 499.572 419.419 508.163 440.895C510.789 447.462 511.698 454.709 512.569 461.678C512.817 463.661 513.723 466.467 513.163 468.428C513.011 468.959 512.527 469.549 511.975 469.584C506.323 469.949 500.638 469.679 494.975 469.584C494.503 469.576 493.618 468.569 493.506 468.428C488.834 462.588 491.679 452.226 486.193 446.739C482.3 450.632 482.076 458.366 480.63 463.428C480.124 465.198 478.963 469.525 476.536 469.584C472.728 469.677 468.903 469.77 465.098 469.584C463.326 469.498 463.087 459.432 463.067 459.053C462.956 457.002 462.886 454.945 462.754 452.896C462.002 441.235 456.799 431.434 446.628 425.332C433.836 417.657 419.253 424.925 411.471 435.301C409.792 437.54 409.352 445.162 406.814 446.177C402.76 447.799 401.76 438.847 400.345 436.489C396.56 430.181 388.227 423.02 380.125 423.02C367.21 423.02 354.733 427.128 350.249 440.583C349.262 443.544 348.541 446.84 348.499 449.958C348.414 456.208 348.778 462.465 348.499 468.709C348.48 469.123 348.006 469.567 347.592 469.584C340.957 469.865 334.326 469.679 327.685 469.584C325.894 469.559 325.072 465.157 324.748 464.022C323.287 458.909 322.434 450.27 318.591 446.427C315.264 451.418 314.199 457.618 312.747 463.428C312.501 464.411 312.001 469.493 310.403 469.584C303.968 469.952 297.494 469.952 291.058 469.584C290.507 469.553 289.971 468.976 289.902 468.428C289.337 463.911 290.764 458.806 291.652 454.365C296.473 430.263 308.733 408.902 330.623 395.768C334.276 393.577 339.031 390.246 343.498 390.174C349.065 390.085 354.623 390.363 360.187 390.174C360.463 390.165 360.745 389.88 360.812 389.612C361.05 388.659 361.037 387.654 361.093 386.674C361.232 384.234 361.374 381.805 361.374 379.361C361.374 377.893 361.142 376.422 361.093 374.955C360.73 364.073 355.936 372.173 350.811 367.048C348.901 365.138 346.841 358.603 343.811 358.266C335.366 357.328 326.805 358.141 318.31 358.266C312.059 358.359 305.81 358.548 299.559 358.548C296.872 358.548 288.848 356.102 286.683 358.266C283.93 361.019 283.945 365.05 282.558 368.517C279.499 376.163 276.918 384.021 274.651 391.956C273.752 395.103 273.602 399.492 271.276 402.019C271.466 402.297 271.586 402.57 271.432 402.8C270.117 404.773 253.437 404.282 251.619 403.456C251.497 403.551 251.378 403.672 251.213 403.675C235.198 403.963 219.16 404.056 203.148 403.675C201.462 403.635 202.249 400.36 202.273 398.675C202.512 381.683 202.224 364.693 202.585 347.703C202.666 343.928 211.831 347.093 211.961 345.36C212.239 341.657 212.242 337.947 212.242 334.234C212.242 316.166 211.961 298.112 211.961 280.044C211.961 277.015 212.158 273.978 212.242 270.95C212.313 268.38 216.695 265.818 218.399 264.199C221.153 261.583 223.902 258.949 226.618 256.293C228.395 254.554 229.42 251.219 231.899 251.042C269.1 248.395 306.081 252.131 343.217 250.73C349.631 250.488 354.827 246.23 359.937 242.823C361.346 241.884 364.556 238.465 366.062 238.417C377.759 238.046 389.49 237.982 401.22 238.042ZM342.061 361.86C342.061 361.86 344.824 367.923 348.655 370.173C352.486 372.423 355.999 373.173 355.999 373.173L355.749 383.986C355.749 383.986 343.284 383.804 336.717 386.237C330.149 388.669 309.795 398.203 296.184 423.738C284.396 445.852 283.683 467.147 283.683 467.147C283.683 467.147 284.388 469.904 284.871 470.428C285.353 470.953 286.214 471.647 286.214 471.647C286.214 471.647 284.924 472.783 284.714 474.21C284.505 475.636 284.121 499.179 284.121 499.179C284.121 499.179 278.492 492.089 271.651 489.273C264.811 486.456 258.53 486.09 255.494 486.273C252.458 486.455 248.588 488.46 248.588 488.46L247.775 434.426C247.775 434.426 247.912 427.037 239.712 422.957C231.512 418.877 231.073 418.538 226.399 419.488C221.725 420.439 220.836 421.332 220.836 421.332L209.367 407.644C209.367 407.644 246.449 408.139 250.806 408.05C255.164 407.961 267.434 408.366 270.057 408.144C272.681 407.921 273.386 406.854 274.651 404.956C275.917 403.058 277.488 398.416 278.12 396.518C278.753 394.62 289.09 361.954 289.09 361.954C289.09 361.954 293.065 362.517 297.871 362.36C302.677 362.204 342.061 361.86 342.061 361.86ZM153.364 395.456C170.028 395.584 191.747 397.524 204.648 410.425C211.307 417.085 218.37 423.547 220.461 432.958C221.711 438.58 220.746 444.883 220.149 450.552C219.349 458.148 216.775 468.895 211.086 474.585C202.382 483.288 192.651 489.927 181.772 495.367C177.806 497.35 167.054 500.138 164.771 502.992C164.361 503.505 163.896 504.742 163.896 505.336C163.896 508.17 164.209 511.002 164.209 513.836C164.209 518.135 163.968 522.414 163.896 526.712C163.639 542.03 165.305 558.578 161.552 573.589C161.256 574.774 159.752 576.889 158.927 577.715C149.395 587.247 145.174 591.038 131.676 590.309C112.543 589.275 116.44 568.316 124.05 556.901C125.134 555.276 131.954 548.033 131.957 546.963C132.054 508.288 132.249 469.6 131.957 430.926C131.945 429.334 127.938 432.158 127.582 432.395C123.576 435.066 119.168 438.617 117.331 443.208C116.277 445.844 115.728 449.568 118.206 451.427C119.266 452.222 123.488 452.007 123.488 454.052C123.488 458.764 119.817 465.853 117.019 469.584C106.812 483.193 90.7047 477.835 81.8917 466.084C77.3565 460.037 80.8948 448.788 82.4542 441.77C84.6636 431.828 89.7865 425.343 97.3924 418.301C113.217 403.649 131.977 395.291 153.364 395.456ZM431.409 426.77C446.879 426.77 457.773 439.144 459.285 454.271C460.811 469.522 458.309 484.471 454.098 499.211C452.419 505.085 449.235 511.034 447.629 517.462C447.143 519.406 445.658 522.028 443.847 524.556C442.039 527.079 439.968 529.508 438.409 531.275C437.736 532.038 436.429 532.919 435.128 534.025C433.89 535.077 432.315 536.643 432.315 539.025C432.315 544.553 432.77 549.136 434.472 553.276C436.179 557.43 439.133 560.951 443.691 564.37C449.686 568.866 456.468 567.884 462.035 564.901C467.612 561.914 472.321 556.895 475.036 552.37C476.315 550.238 476.397 547.92 476.286 545.869C476.174 543.791 475.851 541.843 475.88 540.244C476.009 533.147 474.828 524.196 476.005 517.555C476.594 514.233 477.707 511.676 479.568 510.055C481.404 508.455 484.24 507.451 488.943 507.899C490.018 508.001 492.206 508.94 493.974 510.274C494.85 510.934 495.608 511.664 496.1 512.336C496.603 513.025 496.783 513.578 496.787 513.868C496.98 528.989 497.003 544.131 497.1 559.276C497.107 560.498 497.644 561.451 498.225 562.276C498.825 563.129 499.579 563.929 500.412 564.651C501.246 565.374 502.169 566 503.1 566.495C504.014 566.981 504.974 567.402 506.1 567.402C507.668 567.402 510.742 567.263 513.632 566.401C516.324 565.599 519.851 563.816 519.851 559.839C519.851 557.848 519.406 556.041 519.038 554.401C518.668 552.752 518.351 551.251 518.351 549.869C518.351 543.441 518.438 536.445 519.788 530.368C524.548 508.952 546.377 493.266 568.134 497.617C578.424 499.675 583.65 507.889 584.698 517.68C585.748 527.498 582.387 538.461 575.916 544.932C571.015 549.833 565.447 553.674 559.728 557.964C558.789 558.667 557.483 559.078 555.915 559.589C554.389 560.086 552.553 560.701 551.009 562.245C550.227 563.026 550.227 564.277 551.009 565.058C554.038 568.087 558.089 568.846 561.915 568.683C565.768 568.518 569.586 567.459 572.666 566.433C589.956 560.669 601.641 545.193 605.917 528.087C606.908 524.126 606.555 520.245 606.261 516.618C605.976 513.091 605.788 509.8 606.48 506.742C606.546 506.675 606.572 506.645 606.667 506.555C607.053 506.191 607.643 505.676 608.355 505.086C609.782 503.904 611.704 502.393 613.668 500.961C615.631 499.529 617.638 498.166 619.199 497.242C619.966 496.788 620.621 496.447 621.043 496.273C621.05 496.277 621.068 496.269 621.074 496.273C622.629 497.17 624.303 498.719 626.043 500.586C627.931 502.61 629.849 504.886 632.012 506.617C644.331 516.472 653.355 525.959 662.733 538.463C663.685 539.733 665.036 541.803 666.108 543.9C667.193 546.023 667.889 548.164 667.889 549.307C667.889 556.885 667.328 562.741 665.608 569.62C665.044 571.877 662.446 575.282 660.576 577.152C655.058 582.67 649.329 586.109 643.107 587.715C636.882 589.321 630.068 589.12 622.324 587.184C621.148 586.89 618.618 585.363 617.699 584.465C613.82 580.674 609.857 577.139 606.417 573.246C606.462 573.1 606.497 572.95 606.636 572.683C607.016 571.953 607.616 571.117 607.949 570.652C610.711 566.785 613.741 561.423 616.855 558.526C619.017 560.545 621.135 562.677 623.418 564.808C630.238 571.173 641.939 570.484 647.013 562.026C647.956 560.455 647.989 558.683 647.919 557.245C647.849 555.783 647.621 554.454 647.576 553.838C646.582 540.426 637.158 530.535 625.95 524.931C625.18 524.546 624.277 524.697 623.668 525.306C621.927 527.047 621.134 529.358 620.606 531.494C620.072 533.652 619.787 535.797 619.356 537.306C617.729 542.999 615.254 549.08 612.23 554.12C604.551 566.918 596.246 576.443 586.229 582.09C576.234 587.724 564.393 589.623 549.258 586.871C543.891 585.895 539.979 583.471 535.539 579.715C534.668 578.978 533.642 577.83 532.539 576.683C531.441 575.542 530.249 574.335 528.695 573.558C527.851 573.136 526.815 573.353 526.226 574.089C521.682 579.769 515.78 584.872 509.381 587.434C503.013 589.983 496.176 590.117 489.256 585.965C485.721 583.844 482.674 579.57 479.13 576.027C478.521 575.418 477.587 575.267 476.817 575.652C472.782 577.669 469.571 581.099 466.317 583.84C463.023 586.614 459.852 588.59 456.004 588.59C450.456 588.59 444.93 588.513 439.691 587.465C437.965 587.12 435.927 586.688 434.065 586.059C432.192 585.425 430.578 584.603 429.596 583.621C427.759 581.784 425.976 579.75 424.002 577.777C423.105 576.88 422.173 575.85 421.283 575.058C420.835 574.659 420.398 574.323 419.877 574.027C419.617 573.879 419.309 573.702 418.846 573.621C418.392 573.541 417.62 573.57 416.971 574.089C412.447 577.709 408.489 581.943 404.126 585.215C400.191 588.166 393.838 589.272 387.219 588.84C380.633 588.41 373.979 586.459 369.718 583.902C366.392 581.906 363.585 577.99 360.124 574.777C359.292 574.004 357.957 574.102 357.218 574.964C351.467 581.674 347.143 585.508 342.342 587.246C337.555 588.98 331.904 588.801 323.185 586.621C322.731 586.508 321.708 585.967 320.591 585.152C319.479 584.341 318.259 583.303 317.122 582.277C315.984 581.25 314.946 580.228 314.122 579.465C313.707 579.08 313.347 578.757 313.028 578.496C312.866 578.362 312.705 578.252 312.497 578.121C312.432 578.08 312.184 577.965 312.184 577.965C311.987 577.884 311.747 577.808 311.747 577.808C311.464 577.763 311.028 577.777 311.028 577.777C310.943 577.787 310.862 577.787 310.778 577.808C307.892 578.53 306.049 580.803 304.497 582.621C302.863 584.535 301.449 586.09 299.965 586.684C286.05 592.25 269.083 584.855 264.245 570.339C262.911 566.337 262.711 561.993 262.87 557.432C263.028 552.879 263.538 548.159 263.463 543.4C263.373 537.651 263.329 531.881 263.151 526.087C263.038 522.413 261.262 518.287 257.244 516.68C254.793 515.7 252.501 515.401 250.463 515.837C248.417 516.273 246.738 517.406 245.494 518.868C243.026 521.766 242.06 525.944 241.9 529.868C241.743 533.702 241.654 537.524 241.587 541.338C241.458 548.78 241.435 556.218 241.306 563.62C241.2 569.734 241.338 577.362 239.462 582.558C238.528 585.147 237.199 586.995 235.274 588.028C233.35 589.06 230.528 589.45 226.212 588.371C222.268 587.385 220.404 584.118 219.524 579.621C218.654 575.179 218.93 570.053 218.93 566.589C218.93 535.244 219.055 503.868 219.242 472.522C219.258 469.975 220.021 467.572 221.055 464.99C222.084 462.421 223.37 459.729 224.149 456.615C225.801 450.008 225.343 443.181 224.493 436.801C224.207 434.66 223.604 432.837 223.493 431.457C223.386 430.14 223.541 429.309 224.68 428.332C226.672 426.626 230.673 426.468 234.524 427.989C238.402 429.52 241.115 432.337 241.337 434.895C243.039 454.47 241.534 474.922 241.9 494.836C241.915 495.674 242.308 496.254 242.681 496.617C243.06 496.986 243.574 497.297 244.275 497.367C247.435 497.683 250.087 496.411 252.338 495.429C254.664 494.415 256.611 493.663 258.651 493.867C264.199 494.421 268.25 495.706 271.776 497.929C275.309 500.157 278.393 503.397 281.839 507.992C284.918 512.098 284.683 517.68 284.683 523.493C284.683 532.023 284.964 540.565 284.964 548.994C284.964 552.614 284.713 556.452 285.277 560.401C285.868 564.539 289.451 566.38 292.59 566.995C295.811 567.626 299.229 567.265 301.465 566.37C305.111 564.912 306.908 561.798 307.747 558.714C308.589 555.615 308.591 552.352 308.591 549.869C308.591 539.826 307.997 529.876 307.997 519.993C307.997 517.528 308.662 514.2 310.059 511.68C311.464 509.146 313.369 507.617 315.966 507.617C320.974 507.617 324.056 508.813 326.06 510.586C328.071 512.366 329.244 514.972 329.842 518.337C331.037 525.072 329.746 534.311 329.81 542.869C329.852 548.408 329.352 554.132 329.81 559.995C329.898 561.122 330.533 561.821 330.935 562.214C331.364 562.633 331.729 562.914 331.842 563.026C336.645 567.83 345.241 569.612 350.593 563.495C351.336 562.645 351.723 561.629 352.03 560.651C352.339 559.665 352.55 558.704 352.561 557.807C352.751 542.645 352.623 527.51 352.811 512.399C352.811 512.399 352.798 512.463 352.874 512.211C352.945 511.976 353.115 511.553 353.124 510.93C353.313 497.043 353.308 483.157 353.436 469.303C353.503 462.173 353.551 455.067 353.718 447.958C353.91 439.768 358.279 435.38 365.218 430.176C367.357 428.572 371.183 427.051 373.687 427.051C382.547 427.051 388.773 430.052 393.126 434.989C397.504 439.954 400.071 447.087 401.001 455.459C402.61 469.935 400.085 484.572 396.064 498.648C394.354 504.633 391.256 510.63 389.626 517.149C389.077 519.342 387.539 521.885 385.688 524.368C383.84 526.846 381.713 529.235 380.031 531.337C379.551 531.938 378.195 533.1 376.938 534.244C376.301 534.823 375.687 535.393 375.156 536.056C374.66 536.677 374.072 537.502 374.031 538.681C373.879 543.098 374.098 548.776 375.719 553.932C377.332 559.065 380.472 563.913 386.251 565.839C389.898 567.055 393.257 566.682 396.532 566.214C400.298 565.676 403.257 564.165 405.439 561.995C407.613 559.833 408.957 557.094 409.814 554.213C411.527 548.462 411.404 541.901 411.439 536.713C411.604 512.677 411.564 488.662 411.721 464.647C411.759 458.698 411.853 452.735 412.033 446.802C412.211 440.937 417.029 435.072 421.627 430.957C424.277 428.586 428.072 426.77 431.409 426.77ZM126.394 439.427C126.687 439.622 127.238 439.638 127.269 439.989C127.562 443.31 129.168 448.109 126.394 449.958C125.951 449.603 121.461 447.266 121.425 447.052C120.955 444.23 124.92 440.901 126.394 439.427ZM319.154 460.303C319.54 461.044 319.865 461.885 320.154 462.803C320.727 464.628 321.123 466.709 321.685 468.678C321.685 468.678 321.87 469.876 322.122 470.959C322.256 471.533 322.402 472.136 322.654 472.709C322.78 472.998 322.925 473.304 323.216 473.647C323.481 473.959 324.052 474.488 324.966 474.522C328.939 474.672 332.754 474.475 336.467 474.491C335.262 475.373 334.547 475.884 333.123 476.96C331.727 478.014 330.376 479.048 329.31 479.96C328.775 480.418 328.319 480.837 327.935 481.241C327.742 481.445 327.543 481.661 327.373 481.897C327.21 482.123 327.023 482.402 326.904 482.96C326.15 486.478 327.713 489.5 328.904 491.96C329.778 493.766 330.3 495.268 330.529 496.679C329.353 495.935 328.055 494.895 326.529 493.492C324.502 491.627 321.973 489.273 318.591 489.273C316.933 489.273 315.477 490.057 314.06 490.929C312.611 491.82 311.139 492.942 309.778 494.023C309.056 494.596 308.533 495.017 307.903 495.523C308.153 494.581 308.363 493.732 308.684 492.648C309.22 490.84 309.776 488.953 310.216 487.335C310.654 485.72 311.049 484.434 310.934 483.179C310.925 483.073 310.898 482.969 310.872 482.866C310.872 482.866 310.699 482.352 310.653 482.272C310.553 482.099 310.456 482.001 310.372 481.897C310.206 481.693 310.052 481.508 309.872 481.335C309.515 480.993 309.077 480.635 308.559 480.21C307.529 479.362 306.186 478.331 304.809 477.272C302.987 475.871 301.939 474.97 300.746 473.991C301.735 473.721 302.857 473.636 304.278 473.741C306.778 473.925 309.75 474.596 312.716 474.21C313.98 474.044 314.571 473.142 314.903 472.616C315.286 472.008 315.582 471.372 315.841 470.647C316.356 469.205 316.792 467.442 317.278 465.678C317.764 463.92 318.285 462.16 318.841 460.834C318.993 460.472 319.009 460.563 319.154 460.303ZM486.287 461.209C486.294 461.227 486.311 461.222 486.318 461.24C486.856 462.626 487.371 464.315 487.849 465.959C488.329 467.607 488.774 469.227 489.287 470.584C489.544 471.266 489.813 471.885 490.162 472.459C490.489 472.999 490.93 473.658 491.818 474.053C493.128 474.635 494.432 474.544 495.506 474.46C496.591 474.374 497.606 474.217 497.943 474.21C500.043 474.163 502.234 473.617 503.975 473.491C504.783 473.432 505.278 473.496 505.694 473.584C504.481 474.722 503.058 475.784 501.412 476.897C499.247 478.363 496.87 479.993 495.1 482.522C494.396 483.527 494.536 484.505 494.631 485.148C494.738 485.877 494.962 486.597 495.225 487.398C495.747 488.99 496.489 490.819 497.162 492.585C497.833 494.345 498.422 496.052 498.631 497.179C498.641 497.234 498.623 497.222 498.631 497.273C498.406 497.205 498.441 497.282 497.881 496.929C496.901 496.312 495.699 495.292 494.475 494.179C493.247 493.063 492.007 491.864 490.818 490.898C490.221 490.413 489.627 489.998 489.006 489.648C488.403 489.308 487.699 488.96 486.787 488.96C483.45 488.96 480.737 491.005 478.474 492.898C477.281 493.895 476.17 494.91 475.13 495.773C475.413 494.622 475.79 493.33 476.317 491.929C476.95 490.247 477.62 488.549 478.099 487.085C478.34 486.349 478.535 485.678 478.63 484.991C478.709 484.421 478.866 483.415 478.099 482.429C476.308 480.126 473.957 478.439 471.692 476.835C470.243 475.808 468.887 474.814 467.661 473.803C468.687 473.551 469.865 473.517 471.411 473.741C473.94 474.106 477.102 475.015 480.286 474.147C481.341 473.859 481.863 473.152 482.224 472.616C482.617 472.033 482.932 471.387 483.224 470.678C483.805 469.268 484.327 467.566 484.849 465.834C485.343 464.197 485.806 462.573 486.287 461.209ZM346.436 473.991C349.574 476.344 348.499 480.394 348.499 484.241C348.499 494.399 348.269 504.554 348.186 514.711C348.074 528.482 348.091 542.256 347.905 556.026C347.859 559.428 346.44 562.181 342.936 563.058C335.283 564.971 333.974 555.892 333.842 550.463C333.677 543.726 333.669 536.982 333.56 530.243C333.474 524.872 333.424 519.487 333.248 514.118C333.118 510.158 328.217 503.305 323.873 503.305C319.56 503.305 315.885 503.739 311.872 504.742C305.917 506.231 304.139 514.376 303.934 519.399C303.779 523.206 303.758 527.028 303.684 530.837C303.563 537.087 303.52 543.339 303.372 549.588C303.264 554.088 303.822 563.058 296.934 563.058C296.176 563.058 293.259 562.814 292.809 562.464C291.111 561.144 289.308 558.67 289.308 556.338C289.308 544.814 289.465 533.267 289.59 521.743C289.719 509.729 290.051 497.724 290.183 485.71C290.194 484.729 288.342 474.584 291.34 474.585C292.752 474.585 305.679 484.123 305.715 484.554C306.058 488.67 303.46 493.319 302.184 497.148C301.638 498.786 297.353 506.999 299.278 507.961C300.47 508.557 302.982 505.882 303.684 505.336C305.751 503.729 315.392 494.804 317.716 494.804C322.85 494.804 334.878 504.622 338.217 507.961C338.51 507.668 338.518 507.692 338.811 507.399C337.391 504.56 331.328 486.295 332.373 484.554C335.402 479.505 342.396 478.031 346.436 473.991ZM511.1 476.616C512.272 476.909 512.833 477.077 512.85 477.491C513.568 494.539 513.406 511.701 514.038 528.775C514.136 531.412 514.216 534.076 514.319 536.713C514.484 540.923 515.158 559.152 509.131 562.245C503.676 565.045 501.444 559.515 501.444 553.682C501.444 543.816 501.053 533.951 500.85 524.087C500.496 506.95 498.351 501.023 479.755 504.742C474.614 505.77 472.715 511.789 472.13 516.18C471.836 518.38 471.536 521.873 471.536 523.806C471.536 536.379 475.078 548.846 465.098 557.776C462.855 559.783 460.253 562.464 456.91 562.464C453.555 562.464 449.357 562.238 446.347 560.432C439.14 556.108 435.815 548.31 436.972 540.213C437.363 537.473 442.51 533.265 444.316 530.556C450.253 521.65 456.245 513.131 459.223 502.711C460.669 497.651 462.123 492.65 463.067 487.46C463.355 485.877 463.343 479.37 464.223 479.272C466.035 479.071 467.788 480.087 469.192 481.022C470.635 481.984 473.317 483.349 473.317 485.116C473.317 490.098 469.262 496.617 468.036 501.523C467.711 502.821 466.216 506.134 466.848 507.399C467.651 509.005 470.973 505.658 471.817 505.055C474.737 502.969 483.115 495.317 486.193 494.804C491.453 493.928 501.456 505.764 505.85 507.961C506.403 506.302 501.949 493.413 501.131 490.96C500.697 489.659 498.791 486.423 499.662 485.116C501.974 481.648 507.325 478.504 511.1 476.616ZM405.189 489.304C407.29 489.543 407.377 494.731 407.377 496.554C407.377 501.146 407.175 505.746 407.064 510.336C406.979 513.853 406.814 517.351 406.814 520.868C406.814 531.53 410.699 552.784 399.751 560.995C397.981 562.323 395.293 562.487 393.313 562.183C383.083 560.609 378.375 555.827 378.375 544.9C378.375 538.184 382.842 535.171 386.563 529.962C392.121 522.18 397.038 512.945 400.064 503.867C401.542 499.433 399.832 491.67 404.158 489.523C404.545 489.33 404.889 489.27 405.189 489.304ZM418.846 580.308C421.548 580.671 423.455 584.027 425.565 585.902C429.834 589.697 435.832 591.65 441.347 592.653C448.557 593.964 461.397 592.711 468.317 588.559C470.973 586.965 473.679 582.566 476.536 582.09C479.016 581.676 481.708 585.379 482.974 586.496C486.115 589.267 491.421 592.965 495.85 592.965C502.09 592.965 507.823 592.378 513.725 590.903C515.401 590.484 524.101 584.358 524.601 584.715C527.43 586.736 527.415 590.614 528.976 593.215C532.186 598.564 535.179 604.038 538.945 609.06C552.607 627.276 569.642 641.581 578.197 662.969C580.848 669.596 582.604 676.907 582.604 684.063C582.604 684.538 583.316 692.558 579.947 692.564C525.061 692.661 470.17 692.369 415.283 692.564C413.611 692.57 414.327 695.901 414.689 697.533C414.901 698.486 416.374 698.624 417.065 699.314C418.481 700.731 419.811 702.206 421.158 703.689C427.038 710.157 429.109 715.568 428.471 724.503C427.861 733.047 420.747 739.28 415.283 745.004C414.982 745.32 414.707 745.755 414.689 746.191C414.502 750.779 414.498 755.352 414.408 759.942C414.324 764.228 408.251 762.036 405.626 762.005C400.06 761.937 394.502 762.193 388.938 762.005C388.662 761.995 388.325 761.687 388.313 761.411C388.104 756.59 389.853 750.217 388.313 745.598C388.115 745.004 387.58 744.589 387.157 744.129C383.356 739.997 373.687 731.929 373.687 724.784C373.687 720.018 374.186 711.378 378.063 707.502C380.261 705.304 382.538 703.183 384.813 701.064C385.912 700.041 388.063 699.037 388.063 697.252C388.063 689.823 386.354 681.163 382.469 674.688C380.792 671.892 378.118 669.498 376.906 666.469C372.615 655.74 371.465 643.608 368.687 632.498C367.592 628.118 360.119 623.036 359.624 619.904C359.365 618.261 359.332 616.598 359.312 614.935C359.235 608.685 359.501 602.432 359.312 596.184C359.303 595.908 359.024 595.616 358.749 595.59C350.398 594.831 354.589 604.774 354.655 610.216C354.728 616.173 354.561 622.135 354.655 628.092C354.716 631.914 362.857 638.128 364.593 642.468C368.082 651.19 368.485 661.261 371.062 670.281C372.92 676.783 377.403 680.867 379.844 686.97C380.338 688.204 381.959 692.164 379.563 692.564C377.056 692.982 374.478 692.876 371.937 692.876C345.763 692.876 319.576 692.681 293.402 692.564C276.213 692.486 259.026 692.251 241.837 692.251C236.953 692.251 232.065 692.564 227.18 692.564C226.881 692.564 222.268 692.931 221.336 691.689C219.855 689.713 221.592 678.117 222.211 674.094C226 649.469 244.944 631.899 260.026 613.466C263.432 609.303 271.841 592.489 275.808 590.903C276.906 590.463 280.761 592.434 281.964 592.653C286.383 593.456 291.062 592.86 295.465 592.059C297.933 591.61 301.251 591.41 303.372 589.996C306.256 588.073 308.896 583.983 312.747 584.465C318.733 585.213 322.617 593.215 330.31 593.215C337.426 593.215 343.647 592.163 349.655 588.559C351.368 587.531 359.182 580.933 359.312 580.933C360.863 580.933 363.707 583.859 364.906 584.715C369.555 588.036 373.816 591.503 379.563 592.653C383.393 593.419 387.379 592.806 391.282 592.653C398.028 592.388 407.206 591.042 412.346 585.902C414.094 584.154 415.128 580.837 417.627 580.34C418.049 580.256 418.46 580.257 418.846 580.308ZM165.084 423.02C164.772 423.018 164.214 423.754 164.209 424.176C164.113 431.891 164.263 439.587 164.209 447.302C164.146 456.289 163.315 465.321 163.615 474.303C163.707 477.058 175.947 472.902 177.678 472.209C186.352 468.74 194.218 460.328 195.273 450.833C196.393 440.752 194.13 434.752 187.053 427.676C186.096 426.719 184.007 425.391 182.647 425.051C176.83 423.597 171.167 423.051 165.084 423.02ZM168.615 428.27C168.615 428.27 171.004 428.17 174.084 428.457C177.164 428.745 178.5 428.311 183.428 432.582C188.357 436.854 188.373 439.835 188.866 445.708C189.359 451.581 186.964 455.293 182.241 461.084C177.518 466.875 168.146 468.084 168.146 468.084L168.615 428.27ZM379.25 446.427C375.825 449.852 375.511 449.552 375.438 454.646C375.358 460.116 375.225 465.615 375.156 471.084C375.03 481.143 375.017 491.184 374.844 501.242C374.779 504.984 373.968 505.336 376.313 507.68C385.552 498.441 385.13 478.16 385.407 466.678C385.534 461.405 385.688 456.108 385.688 450.833C385.688 448.242 382.272 447.336 379.25 446.427ZM380.719 450.427C381.616 450.628 382.469 451.737 382.469 452.896C382.469 455.925 382.27 458.931 382.188 461.959C382.074 466.158 382.022 470.385 381.907 474.585C381.821 477.71 383.328 481.358 381.594 483.96C380.305 485.893 378.375 485.424 378.375 483.085C378.375 479.47 378.606 475.823 378.688 472.209C378.801 467.229 378.938 462.284 378.938 457.302C378.938 454.125 377.3 452.129 379.844 450.552C380.12 450.381 380.42 450.36 380.719 450.427ZM438.159 446.739C436.6 446.894 433.46 448.732 433.44 450.552C433.345 459.341 433.488 468.139 433.44 476.928C433.391 486.011 432.97 495.099 433.159 504.18C433.222 507.205 437.377 503.493 437.847 502.711C439.974 499.165 440.853 494.43 441.659 490.398C444.148 477.953 444.316 465.266 444.316 452.583C444.316 448.738 441.665 446.393 438.159 446.739ZM439.222 450.271C439.934 450.559 441.066 451.852 441.066 452.583C441.066 458.642 440.674 464.717 440.472 470.772C440.338 474.779 440.933 479.213 439.909 482.772C439.691 483.532 437 484.339 436.972 482.772C436.878 477.498 437.15 472.233 437.253 466.959C437.353 461.847 436.739 454.992 438.691 450.396C438.77 450.209 438.984 450.175 439.222 450.271ZM559.759 517.024C558.544 516.895 557.366 516.886 556.509 517.055C547.869 518.763 541.926 526.165 540.383 534.65C539.722 538.287 539.367 542.104 539.508 545.775C539.543 546.698 541.413 546.354 541.571 546.338C549.356 545.559 559.024 539.487 563.228 533.181C565.559 529.684 569.764 519.283 563.228 517.649C562.218 517.397 560.974 517.153 559.759 517.024Z" fill="#FFFFFF" fill-rule="nonzero" opacity="1" stroke="none" vectornator:layerName="path"/>
</g>
</svg>
