<?xml version="1.0" encoding="UTF-8" standalone="no"?>
<!DOCTYPE svg PUBLIC "-//W3C//DTD SVG 1.1//EN" "http://www.w3.org/Graphics/SVG/1.1/DTD/svg11.dtd">
<!-- Created with Vectornator (http://vectornator.io/) -->
<svg height="100%" stroke-miterlimit="10" style="fill-rule:nonzero;clip-rule:evenodd;stroke-linecap:round;stroke-linejoin:round;" version="1.1" viewBox="0 0 750 1000" width="100%" xml:space="preserve" xmlns="http://www.w3.org/2000/svg" xmlns:vectornator="http://vectornator.io" xmlns:xlink="http://www.w3.org/1999/xlink">
<defs/>
<g id="Layer-1" vectornator:layerName="Layer 1">
<path d="" fill="none" opacity="1" stroke="#f5c81a" stroke-linecap="butt" stroke-linejoin="round" stroke-width="1" vectornator:layerName="path"/>
<path d="M482.979 200C480.618 200 477.119 202.495 473.732 205.347C470.345 208.2 467.071 211.411 465.16 212.844C461.345 215.705 455.883 218.118 450.168 219.957C444.453 221.795 438.487 223.061 433.663 223.628C409.702 226.447 385.489 226.589 361.236 225.955C336.983 225.321 312.69 223.912 288.57 223.628C274.892 223.467 261.212 223.415 247.532 223.429C233.852 223.443 220.172 223.524 206.493 223.628C204.071 223.647 201.411 223.124 198.872 222.96C196.333 222.796 193.916 222.991 191.978 224.444C190.427 225.608 187.269 231.417 184.678 237.295C182.088 243.173 180.066 249.12 180.786 250.56C177.983 251.961 174.433 262.162 170.975 272.923C167.518 283.685 164.154 295.007 161.724 298.652C162.177 298.878 162.543 299.087 162.924 299.24C163.304 299.392 163.7 299.487 164.211 299.487L164.007 299.896L163.803 300.304C164.403 300.604 164.53 300.71 164.7 300.742C164.871 300.774 165.086 300.731 165.863 300.731L165.659 301.139L165.455 301.547C166.054 301.847 166.186 301.954 166.362 301.986C166.538 302.018 166.757 301.975 167.534 301.975C167.43 302.182 167.375 302.282 167.32 302.383C167.265 302.483 167.21 302.583 167.106 302.791C167.675 302.98 168.221 303.196 168.768 303.413C169.314 303.629 169.86 303.845 170.429 304.034L170.225 304.452L170.021 304.87C170.621 305.17 170.748 305.272 170.918 305.299C171.089 305.326 171.304 305.278 172.081 305.278L171.877 305.696L171.673 306.113C172.425 306.364 172.629 306.466 172.802 306.506C172.975 306.545 173.119 306.522 173.752 306.522L173.538 306.939L173.324 307.357C173.777 307.584 174.143 307.792 174.524 307.945C174.905 308.097 175.3 308.193 175.811 308.193L175.607 308.601L175.403 309.009C176.635 309.419 178.5 310.825 180.057 312.412C181.615 313.999 182.865 315.766 182.865 316.898L183.283 316.898L183.7 316.898L183.7 317.52L183.7 318.141L184.108 318.141L184.517 318.141L184.934 319.385L185.352 320.629C187.224 320.629 188.431 323.736 189.189 327.156C189.946 330.575 190.253 334.306 190.326 335.552C190.938 345.941 191.248 356.442 191.407 366.969C191.565 377.497 191.57 388.051 191.57 398.547C191.57 442.568 191.672 486.69 191.774 530.806C191.876 574.922 191.978 619.031 191.978 663.025C191.978 670.256 192.322 679.652 191.25 688.656C190.178 697.66 187.691 706.272 182.029 711.933C180.363 713.599 175.599 716.801 171.146 720.111C166.693 723.421 162.551 726.838 162.132 728.935C161.97 729.746 163.065 732.753 164.328 735.557C165.591 738.361 167.023 740.963 167.534 740.963C167.181 742.021 167.492 742.723 167.891 743.432C168.29 744.14 168.777 744.855 168.777 745.937L169.185 745.937L169.593 745.937C169.33 746.726 169.96 749.008 170.861 751.196C171.761 753.384 172.932 755.476 173.752 755.886C173.547 756.501 173.362 757.016 173.423 757.377C173.483 757.738 173.79 757.946 174.568 757.946C174.312 758.713 175.217 761.72 176.355 764.535C177.493 767.35 178.864 769.974 179.542 769.974C179.231 770.908 180.287 774.39 181.671 777.762C183.054 781.135 184.764 784.399 185.76 784.897C185.555 785.512 185.375 786.032 185.441 786.398C185.506 786.764 185.818 786.976 186.596 786.976C184.004 794.75 190.499 797.961 200.301 799.228C210.103 800.496 223.213 799.82 233.852 799.82C240.692 799.82 247.533 799.82 254.374 799.77C261.214 799.719 268.054 799.617 274.891 799.412C275.428 799.396 276.603 796.52 277.729 793.479C278.855 790.437 279.933 787.23 280.273 786.548C283.678 779.738 286.723 772.602 289.624 765.4C292.525 758.199 295.282 750.931 298.111 743.858C298.792 742.155 300.493 739.201 301.951 736.234C303.408 733.266 304.622 730.285 304.329 728.527C304.042 726.806 301.578 724.937 298.863 723.239C296.148 721.542 293.182 720.018 291.893 718.986C288.188 716.023 284.6 712.401 281.711 708.273C278.823 704.145 276.633 699.511 275.726 694.523C274.608 688.372 274.19 681.7 274.052 675.032C273.914 668.364 274.055 661.699 274.055 655.563C274.055 637.966 274.18 620.333 274.451 602.702C274.722 585.072 275.14 567.444 275.726 549.858C302.274 549.587 328.81 549.796 355.338 550.072C381.866 550.349 408.387 550.693 434.906 550.693L434.906 551.101L434.906 551.509C436.917 551.844 438.907 552.573 440.901 553.218C442.894 553.863 444.891 554.424 446.915 554.424C446.915 555.321 448.598 556.356 450.527 557.166C452.457 557.977 454.633 558.563 455.62 558.563C455.62 559.334 456.209 559.853 456.97 560.18C457.731 560.508 458.664 560.642 459.351 560.642L459.351 561.05L459.351 561.458C460.1 561.708 461.241 561.986 462.196 562.427C463.15 562.868 463.917 563.472 463.917 564.373C464.485 564.562 465.032 564.778 465.578 564.995C466.125 565.211 466.671 565.427 467.24 565.616C467.136 565.824 467.081 565.924 467.026 566.024C466.971 566.125 466.916 566.225 466.812 566.432C467.97 566.819 468.666 567.44 469.347 567.966C470.027 568.491 470.691 568.92 471.787 568.92L471.582 569.337L471.378 569.755C471.978 570.055 472.11 570.157 472.286 570.184C472.461 570.211 472.681 570.163 473.458 570.163L473.244 570.581L473.03 570.999C473.783 571.25 473.986 571.352 474.16 571.391C474.333 571.43 474.476 571.407 475.109 571.407L474.905 571.825L474.701 572.242C475.27 572.432 475.811 572.648 476.353 572.864C476.894 573.08 477.436 573.296 478.004 573.486L477.8 573.904L477.596 574.322C478.165 574.511 478.711 574.727 479.258 574.943C479.804 575.159 480.351 575.376 480.919 575.565C480.815 575.772 480.76 575.873 480.705 575.973C480.65 576.074 480.595 576.174 480.492 576.381C481.471 576.626 481.758 576.668 481.967 576.732C482.177 576.796 482.31 576.882 482.979 577.217L483.397 576.799L483.814 576.381C483.509 575.771 483.481 575.588 483.336 575.494C483.192 575.4 482.931 575.394 482.163 575.138C493.186 553.092 508.414 535.926 526.537 522.389C544.66 508.851 565.677 498.942 588.276 491.409C578.273 471.402 570.702 452.159 566.359 432.1C562.017 412.04 560.903 391.163 563.812 367.885C564.906 359.133 566.922 350.933 569.471 342.905C572.02 334.877 575.102 327.021 578.327 318.957C578.932 317.445 580.953 313.927 582.64 310.423C584.327 306.919 585.681 303.43 584.953 301.975C584.83 301.728 577.282 298.573 569.291 295.243C561.299 291.913 552.864 288.408 550.968 287.46C538.33 281.14 528.045 271.633 519.172 260.791C510.299 249.949 502.837 237.773 495.842 226.115C493.973 223 490.757 218.312 488.009 213.483C485.26 208.653 482.979 203.682 482.979 200ZM390.253 293.347C401.764 293.319 413.257 293.494 424.712 293.992C436.167 294.49 447.584 295.311 458.943 296.573L458.943 296.991L458.943 297.408C460.133 297.408 463.553 298.06 466.675 299.059C469.798 300.057 472.622 301.403 472.622 302.791L473.244 302.791L473.866 302.791L473.866 303.209L473.866 303.626C474.499 303.626 474.642 303.603 474.815 303.642C474.989 303.681 475.192 303.783 475.945 304.034L475.731 304.452L475.517 304.87C477.187 304.87 479.5 307.075 481.483 309.628C483.466 312.18 485.119 315.08 485.466 316.47L485.884 316.47L486.302 316.47C486.302 319.06 487.647 321.584 488.993 324.117C490.338 326.651 491.684 329.194 491.684 331.821C491.684 348.436 492.062 365.042 492.095 381.627C492.129 398.212 491.818 414.777 490.44 431.308C490.091 435.501 489.63 443.165 488.347 450.508C487.065 457.851 484.961 464.873 481.327 467.781C474.036 473.613 463.526 475.848 452.787 476.646C442.049 477.444 431.082 476.806 422.878 476.894C412.723 477.002 402.567 477.109 392.411 477.189C382.255 477.269 372.099 477.321 361.942 477.321C347.446 477.321 332.931 476.994 318.416 476.622C303.901 476.249 289.386 475.831 274.891 475.65C274.891 445.735 274.926 415.821 274.995 385.907C275.063 355.993 275.165 326.08 275.299 296.165C294.308 295.992 313.455 295.311 332.645 294.662C351.836 294.012 371.07 293.394 390.253 293.347Z" fill="#FFFFFF" fill-rule="nonzero" opacity="1" stroke="none" vectornator:layerName="path"/>
</g>
</svg>
