<?xml version="1.0" encoding="UTF-8" standalone="no"?>
<!DOCTYPE svg PUBLIC "-//W3C//DTD SVG 1.1//EN" "http://www.w3.org/Graphics/SVG/1.1/DTD/svg11.dtd">
<!-- Created with Vectornator (http://vectornator.io/) -->
<svg height="100%" stroke-miterlimit="10" style="fill-rule:nonzero;clip-rule:evenodd;stroke-linecap:round;stroke-linejoin:round;" version="1.1" viewBox="0 0 750 1000" width="100%" xml:space="preserve" xmlns="http://www.w3.org/2000/svg" xmlns:vectornator="http://vectornator.io" xmlns:xlink="http://www.w3.org/1999/xlink">
<defs/>
<g id="Layer-1" vectornator:layerName="Layer 1">
<path d="" fill="none" opacity="1" stroke="#f5c81a" stroke-linecap="butt" stroke-linejoin="round" stroke-width="1" vectornator:layerName="path"/>
<path d="M351.364 200.025C316.829 199.863 283.907 200.519 249.725 201.246C231.479 201.635 206.399 198.967 190.309 208.621C174.123 218.332 157.68 233.011 153.016 251.666C151.544 257.556 151.649 283.479 150.551 284.028C152.346 289.413 150.225 309.251 149.729 312.725C145.895 339.568 150.973 373.17 150.973 401.238C151.383 401.238 151.363 401.238 151.773 401.238C150.918 406.364 152.248 411.18 151.773 416.408C152.182 416.408 152.185 416.408 152.594 416.408C152.957 420.03 154.238 422.981 154.238 426.248C154.648 426.248 154.65 426.248 155.06 426.248C155.982 431.781 161.06 435.923 162.434 441.418C162.844 441.418 162.846 441.418 163.256 441.418C163.256 442.033 163.256 442.025 163.256 442.64C163.871 442.845 163.863 442.835 164.477 443.039C164.477 448.375 182.344 462.987 187.844 464.362C187.844 464.772 187.844 464.774 187.844 465.184C189.446 465.718 191.097 466.828 192.775 466.828C192.775 467.238 192.775 467.218 192.775 467.627C193.799 467.627 193.794 467.627 194.818 467.627C194.818 468.037 194.818 468.039 194.818 468.449C211.651 471.255 227.988 471.737 246.038 471.737C299.272 471.737 352.667 472.136 405.871 472.136C405.871 474.922 417.754 479.601 417.754 485.263C420.883 485.263 420.737 508.511 421.041 512.317C422.61 531.924 421.441 552.416 421.441 572.154C421.441 616.851 427.376 635.113 376.374 633.613C367.87 633.363 359.481 632.791 350.964 632.791C349.865 586.643 349.72 540.442 349.72 494.281C331.731 496.851 304.653 495.303 287.44 495.503C287.121 541.453 287.018 587.277 287.018 633.213C275.493 633.737 270.693 634.035 257.099 634.035C251.594 634.035 240.774 633.686 234.155 633.213C204.9 631.124 208.198 595.745 214.475 573.776C216.419 566.972 221.45 558.71 221.45 551.653C199.52 549.966 177.453 551.505 155.46 551.653C157.063 562.878 156.079 582.502 154.66 593.855C153.262 605.037 157.001 616.686 155.882 627.883C156.292 627.883 156.294 627.883 156.704 627.883C157.277 632.47 159.169 638.314 159.169 642.631C159.579 642.631 159.559 642.631 159.969 642.631C160.377 643.857 160.79 645.014 160.79 646.318C161.2 646.318 161.202 646.318 161.612 646.318C162.979 650.418 170.23 655.755 170.23 659.445C171.408 659.837 173.095 661.521 173.095 662.71C180.99 665.341 185.741 676.986 196.04 678.702C196.04 679.112 196.04 679.114 196.04 679.524C226.822 685.68 252.318 684.855 287.018 684.855C287.604 708.316 287.018 731.949 287.018 754.932C287.018 761.316 278.088 776.41 280.465 781.163C278.599 782.096 274.071 797.607 274.735 799.599C321.455 799.735 368.168 799.998 414.888 799.998C436.473 799.998 458.051 799.775 479.635 799.599C495.41 799.47 518.029 801.342 534.963 797.955C603.703 784.207 600.615 711.305 601.353 658.201C601.99 612.305 601.615 566.413 601.353 520.513C601.243 501.227 600.825 468.114 600.531 447.548C599.943 406.382 598.04 364.822 560.373 342.222C533.348 326.007 502.309 329.315 471.039 329.517C405.331 329.941 339.621 329.98 273.913 330.339C275.577 334.5 278.422 339.801 278.422 344.288C278.832 344.288 278.834 344.288 279.244 344.288C280.422 347.824 285.685 360.057 284.152 363.123C284.562 363.123 284.564 363.123 284.974 363.123C286.603 368.011 286.618 374.046 286.618 379.115C287.028 379.115 287.03 379.115 287.44 379.115C284.021 389.371 287.018 410.438 287.018 420.517C282.51 420.654 278.001 420.917 273.491 420.917C264.474 420.917 255.475 420.715 246.46 420.517C213.462 419.792 215.531 409.959 214.475 378.293C214.263 371.915 213.676 352.608 213.676 347.553C213.676 332.935 213.872 318.324 214.075 303.708C214.309 286.906 211.069 267.345 225.559 255.753C234.575 248.54 256.88 252.639 265.717 252.488C314.38 251.656 365.411 254.931 412.423 254.931C412.218 255.341 412.228 255.343 412.023 255.753C415.296 257.39 419.397 263.243 419.397 266.814C419.807 266.814 419.809 266.814 420.219 266.814C419.716 268.829 419.401 268.062 420.619 269.28C420.414 269.69 420.424 269.692 420.219 270.102C421.605 271.488 420.564 273.102 421.041 275.01C420.631 275.215 420.629 275.228 420.219 275.432C420.424 276.457 420.414 276.451 420.619 277.476C418.179 278.696 414.067 294.881 414.067 297.555C446.238 297.76 446.242 297.772 478.413 297.977C478.413 241.762 467.432 203.214 405.471 201.246C387.452 200.674 369.391 200.11 351.364 200.025ZM495.271 379.648C504.047 379.682 513.15 380.503 519.393 383.624C519.188 384.034 519.198 384.036 518.993 384.446C520.554 384.836 521.581 385.59 523.08 386.09C523.08 386.499 523.08 386.502 523.08 386.911C530.649 389.434 537.828 403.376 537.828 411.499C537.828 422.839 537.429 434.166 537.429 445.505C537.429 483.346 537.828 521.188 537.828 559.027C537.828 587.823 538.25 616.688 538.25 645.496C538.25 660.66 538.065 675.823 537.828 690.985C537.511 711.27 538.939 748.26 509.553 748.379C477.04 748.511 444.536 748.779 412.023 748.779C391.393 748.779 370.757 748.75 350.142 747.957C350.142 716.196 350.142 716.194 350.142 684.433C372.819 684.296 395.5 684.285 418.176 684.033C431.906 683.88 445.385 679.507 456.29 671.328C471.166 660.172 482.397 641.105 482.522 622.152C482.784 582.673 482.922 543.179 482.922 503.699C482.922 470.16 473.169 431.356 435.39 422.96C420.609 419.676 402.759 420.517 388.257 420.517C375.552 420.517 362.847 420.78 350.142 420.917C350.142 407.665 350.395 394.41 350.542 381.159C391.385 380.549 432.236 380.167 473.082 380.337C478.047 380.357 486.496 379.614 495.271 379.648Z" fill="#FFFFFF" fill-rule="nonzero" opacity="1" stroke="none" vectornator:layerName="path"/>
</g>
</svg>
