<?xml version="1.0" encoding="UTF-8" standalone="no"?>
<!DOCTYPE svg PUBLIC "-//W3C//DTD SVG 1.1//EN" "http://www.w3.org/Graphics/SVG/1.1/DTD/svg11.dtd">
<!-- Created with Vectornator (http://vectornator.io/) -->
<svg height="100%" stroke-miterlimit="10" style="fill-rule:nonzero;clip-rule:evenodd;stroke-linecap:round;stroke-linejoin:round;" version="1.1" viewBox="0 0 750 1000" width="100%" xml:space="preserve" xmlns="http://www.w3.org/2000/svg" xmlns:vectornator="http://vectornator.io" xmlns:xlink="http://www.w3.org/1999/xlink">
<defs/>
<g id="Layer-1" vectornator:layerName="Layer 1">
<path d="" fill="none" opacity="1" stroke="#f5c81a" stroke-linecap="butt" stroke-linejoin="round" stroke-width="1" vectornator:layerName="path"/>
<path d="M375 200.149C209.315 200.149 75 334.396 75 500C75 665.604 209.315 799.851 375 799.851C540.685 799.851 675 665.604 675 500C675 334.396 540.685 200.149 375 200.149ZM362.425 218.875C366.112 218.782 369.797 218.787 373.525 218.899C392.532 219.471 411.052 220.731 429.775 224.475C494.931 237.506 551.225 272.486 594.15 324.95C604.355 337.423 614.529 351.683 621.675 365.974C625.21 373.045 628.299 380.805 632.225 387.349C635.685 393.118 637.053 400.733 639.55 406.974C649.757 432.493 655.675 463.303 655.675 491.075C655.675 571.639 628.347 646.447 569.525 701.999C549.987 720.452 527.437 737.843 503.625 749.749C474.594 764.265 440.814 775.331 406.65 779.351C391.064 781.183 375.871 780.817 360.05 780.524C298.861 779.391 227.041 749.165 183.4 705.524C168.513 690.639 155.147 675.39 142.975 658.351C135.73 648.207 130.287 637.328 123.925 626.726C118.639 617.915 115.554 607.521 111.625 597.7C91.3825 547.093 89.5118 489.084 101.375 435.7C115.932 370.192 156.618 310.784 211.825 271.351C225.472 261.603 240.507 254.245 254 246.149C261.094 241.893 269.974 239.913 277.45 236.174C280.419 234.69 284.056 234.264 287.1 233.25C311.735 225.038 336.616 219.525 362.425 218.875ZM381.35 234.1C377.185 233.984 373.017 233.978 368.85 234.125C327.101 235.589 283.732 245.12 247.85 266.649C222.491 281.865 200.825 298.45 179.6 319.675C159.776 339.5 145.193 364.738 133 389.125C121.551 412.024 115.496 438.366 111.625 463.524C97.8044 553.359 131.97 632.696 193.95 694.674C205.83 706.555 220.264 717.078 234.675 725.726C239.661 728.716 244.787 732.659 250.2 734.825C261.257 739.247 271.678 745.601 283.3 749.476C315.042 760.055 346.684 765.874 380.575 765.875C448.772 765.875 511.719 735.564 560.45 689.7C576.638 674.463 590.623 656.594 602.05 637.549C605.351 632.048 609.376 626.422 611.725 620.549C619.453 601.228 628.17 582.018 633.4 561.101C645.402 513.091 642.238 461.365 626.65 414.601C621.51 399.182 615.065 384.649 607.025 371.25C596.88 354.341 586.3 338.31 573.05 323.5C532.193 277.836 478.706 247.959 418.65 237.95C406.31 235.893 393.845 234.446 381.35 234.1ZM376.2 242.299C403.41 242.489 429.31 248.958 455.575 255.524C459.351 256.469 463.473 258.688 467 260.2C470.414 261.663 474.476 262.63 478.125 263.726C479.329 264.087 480.963 265.719 482.225 266.351C487.038 268.757 491.874 270.854 496.575 273.675C509.941 281.695 523.188 289.401 536.125 299.75C561.341 319.923 582.435 345.885 598.525 372.7C603.987 381.803 607.819 391.262 612.6 400.825C614.202 404.029 615.403 408.726 616.125 411.976C616.925 415.574 619.422 419.625 620.5 423.399C622.669 430.99 624.464 438.606 626.375 446.25C629.334 458.086 631.268 470.942 631.65 483.149C631.782 487.389 633.675 496.661 631.35 500.149C633.633 502.433 631.787 507.675 631.65 510.7C630.991 525.198 629.591 539.986 626.075 554.049C623.081 566.027 618.714 578.448 616.125 590.101C615.728 591.884 613.919 594.39 613.175 596.249C610.199 603.691 607.125 611.124 603.225 617.625C600.704 621.826 597.239 627.903 595.6 632.274C595.062 633.708 593.486 634.883 592.675 636.101C589.878 640.295 587.306 644.891 584.175 649.274C570.842 667.94 554.982 684.989 537 699.375C513.003 718.572 488.548 732.497 459.675 743.325C358.4 781.303 238.2 743.075 173.45 659.825C147.248 626.136 127.038 585.818 120.7 541.451C119.697 534.427 118.6 527.466 118.075 520.375C118.022 519.657 118.182 512.628 117.775 511C117.722 510.788 117.481 510.618 117.475 510.399C117.377 506.88 115.585 502.339 118.075 499.851C117.88 499.654 117.491 499.55 117.475 499.274C117.28 495.861 116.946 492.342 117.775 489.024C118.367 486.658 118.209 481.327 118.35 479.351C118.936 471.144 119.962 462.815 121.575 454.75C130.919 408.029 149.41 366.902 180.475 331.399C228.22 276.834 292.063 247.149 364.45 242.625C368.396 242.379 372.313 242.273 376.2 242.299ZM388.775 263.976C388.361 264.041 387.9 264.3 387.6 264.3C383.107 264.3 378.618 264.024 374.125 264.024C370.608 264.026 367.081 264.024 363.575 264.3C361.822 264.438 361.828 272.39 363.575 272.524C366.114 272.721 371.109 270.555 371.2 273.101C371.388 278.37 371.294 283.652 371.2 288.925C371.001 300.058 370.502 311.19 370.6 322.325C370.602 322.57 371.526 323.175 371.775 323.2C374.035 323.425 381.419 323.502 381.45 322.601C381.639 317.036 381.417 311.466 381.45 305.899C381.515 294.962 381.462 284.034 381.75 273.101C381.814 270.651 386.634 272.721 389.075 272.524C389.35 272.502 389.629 272.2 389.65 271.925C389.83 269.589 389.909 267.229 389.65 264.899C389.555 264.046 389.189 263.909 388.775 263.976ZM450 276.024C449.08 276.209 446.947 282.454 447.075 283.351C447.43 285.834 455.168 283.942 453.525 288.05C447.55 302.986 442.852 318.745 435.65 333.149C437.835 335.334 442.126 335.8 445.025 337.25C447.084 335.19 447.961 330.209 449.125 327.3C452.505 318.849 455.929 310.139 459.375 301.524C460.686 298.248 461.709 292.741 464.075 290.375C465.608 291.142 469.95 293.289 471.375 292.149C472.069 291.596 472.068 289.428 472.55 288.625C472.799 288.209 473.931 286.317 473.725 285.7C473.324 284.495 469.077 283.45 467.875 283.05C464.545 281.94 452.524 275.521 450 276.024ZM296.575 276.575C292.458 277.118 282.67 281.897 282.125 283.351C281.82 284.164 284.922 293.877 285.35 295.375C288.37 305.943 291.177 316.608 293.85 327.3C294.207 328.729 296.505 338.132 297.275 338.825C297.721 338.235 298.848 338.183 299.625 339.25C300.139 339.245 300.654 339.233 301.175 339.024C302.396 338.536 306.221 337.697 306.75 336.375C307.992 333.269 301.726 326.454 304.7 324.075C305.495 323.44 307.217 323.293 308.2 322.899C314.756 320.277 313.378 328.777 317.575 332.274C318.237 332.827 324.698 329.885 325.5 329.351C327.364 328.108 320.859 317.932 319.625 315.875C316.524 310.707 313.81 305.12 311.125 299.75C309.027 295.555 305.861 291.853 304.1 287.45C302.722 284.005 301.558 277.986 297.95 276.625C297.637 276.507 297.163 276.498 296.575 276.575ZM295.025 290.375C299.353 294.704 302.008 302.591 304.7 307.976C305.224 309.024 308.061 313.253 307.625 314.125C306.696 315.983 303.109 316.233 301.475 317.05C298.628 314.202 296.591 301.555 295.325 297.125C294.758 295.142 292.648 291.563 295.025 290.375ZM299.625 339.25C298.879 339.259 298.141 339.178 297.375 339.024C297.354 339.021 297.299 338.846 297.275 338.825C296.989 339.204 296.917 339.741 297.65 340.476C298.378 340.111 299.018 339.755 299.7 339.3C299.68 339.271 299.646 339.279 299.625 339.25ZM220.675 321C219.555 321.51 218.383 323.668 217.375 324.649C214.851 327.108 212.33 329.55 209.775 331.976C208.421 333.26 204.706 334.709 205.95 336.101C218.853 350.521 233.023 363.954 246.375 377.974C251.59 373.132 256.733 368.192 261.925 363.325C260.75 360.974 258.454 359.385 256.65 357.474C254.001 359.904 251.499 362.515 248.725 364.8C248.574 364.925 248.295 364.932 248.15 364.8C246.106 362.942 244.204 360.926 242.275 358.95C240.2 356.825 238.146 354.676 236.125 352.5C235.606 351.942 235.163 351.31 234.675 350.726C237.212 347.993 239.842 345.363 242.575 342.825C234.399 334.649 238.826 335.866 229.4 344.3C229.237 344.445 229.001 344.661 228.8 344.575C224.683 342.81 221.842 337.692 218.85 334.325C221.438 331.736 224.074 329.223 226.75 326.726C225.336 325.029 223.187 322.373 221.775 321.149C221.421 320.842 221.048 320.83 220.675 321ZM529.1 321.149C518.031 332.219 507.953 344.392 497.45 356C496.476 357.077 495.493 358.144 494.525 359.224C494.002 359.81 489.524 364.106 490.125 364.8C494.064 369.346 500.156 375.868 505.375 378.849C506.377 379.423 511.104 373.543 510.95 373.3C509.036 370.293 505.673 367.993 503.025 365.675C514.834 353.865 525.726 340.745 536.725 328.175C534.341 325.526 532.002 323.223 529.1 321.149ZM375 326.125C374.292 326.832 374.425 326.938 374.425 327.875C374.425 384.515 374.62 441.159 374.425 497.8C374.424 498.077 374.02 498.204 373.825 498.399C364.839 489.413 356.165 480.139 347.175 471.149C344.739 468.714 346.45 471.087 345.125 469.101C342.754 471.471 335.573 470.704 332.225 471.149C321.115 472.632 309.959 473.94 298.825 475.25C296.333 475.543 289.86 477.536 287.125 476.476C288.522 474.406 288.855 471.038 289.75 468.8C291.645 464.062 293.578 459.695 296.2 455.325C297.162 453.721 300.3 450.416 300.3 448.601C300.3 444.546 294.665 434.651 292.975 430.425C287.485 416.7 282.859 401.693 276.275 388.524C276.437 388.363 276.729 388.344 277 388.3C279.787 393.312 285.437 398.057 289.15 402.3C297.764 412.144 306.335 422.055 314.95 431.899C318.78 429.346 322.102 426.058 326.075 423.675C328.46 422.243 332.435 420.784 334.5 418.976C334.524 418.979 334.551 418.995 334.575 419C336.057 419.296 339.986 416.3 341.3 415.774C343.599 414.856 356.014 412.05 356.55 410.8C357.895 407.663 357.844 403.053 358.6 399.649C360.838 389.579 362.54 379.24 365.05 369.2C365.7 366.601 369.739 349.298 365.325 348.399C324.338 350.962 285.153 370.555 258.7 402.3C250.99 411.553 239.852 425.168 237 436.575C236.076 440.272 233.582 443.928 232.325 447.7C229.517 456.123 227.164 464.459 225.575 473.2C225.201 475.257 223.402 481.406 224 483.825C220.793 486.757 205.588 487.308 200.975 487.851C180.643 490.243 160.273 492.938 140.05 496.05C136.168 496.647 120.767 497.433 118.35 499.851C120.671 502.171 125.013 500.149 128.025 500.149C209.666 500.149 291.31 499.955 372.95 500.149C373.226 500.151 373.33 500.529 373.525 500.726C364.703 510.808 353.539 520.736 344.525 529.75C346.629 533.958 346.553 540.381 347.2 545.576C348.141 545.88 348.558 547.194 347.55 548.351C349.351 557.355 351.203 566.616 353.025 575.726C353.392 577.562 355.954 587.359 355.075 588.524C351.815 587.122 342.467 584.466 340.425 583.649C339.392 583.236 334.731 580.346 333.975 580.726C328.376 583.524 322.691 587.125 317.275 590.375C304.425 598.085 290.754 605.423 277.45 612.075C277.252 611.876 277.17 611.547 277.075 611.249C287.7 600.567 297.517 588.947 307.625 577.774C308.734 576.549 316.012 569.1 315.525 568.125C313.764 564.604 309.809 562.708 307.025 559.924C304.496 557.395 302.488 554.288 300.275 551.476C300.287 551.462 300.288 551.438 300.3 551.424C295.742 544.587 292.046 537.538 289.45 529.75C288.901 528.101 288.333 522.727 286.525 522.125C284.027 521.293 280.032 521.619 277.45 521.25C268.389 519.956 259.28 518.936 250.2 517.726C243.568 516.841 236.936 515.841 230.275 515.101C229.602 515.025 223.694 513.615 223.525 514.799C223.161 517.346 224.351 520.681 224.7 523.299C225.96 532.75 228.739 541.793 231.75 550.826C244.367 588.674 275.05 619.5 310.55 637.249C323.777 643.863 338.781 647.677 353.625 650.149C354.357 650.271 360.657 651.165 365.1 651.299C365.084 651.314 365.066 651.309 365.05 651.325C366.414 652.688 367.962 651.312 369.425 652.774C369.148 653.33 373.527 672.702 374.425 673.601C374.864 673.16 374.861 673.139 375.3 672.7C375.202 672.505 375 672.343 375 672.125C374.903 615.386 374.805 558.638 375 501.899C375.001 501.623 375.38 501.521 375.575 501.325C385.188 510.938 394.193 521.23 404.3 530.326C406.714 528.716 412.757 529.199 415.725 528.851C426.77 527.551 437.784 526.048 448.825 524.75C450.5 524.553 460.07 523.037 462.025 523.549C461.145 525.437 460.629 528.615 460.25 529.75C458.531 534.905 456.249 539.861 453.525 544.399C452.557 546.013 450.45 548.152 450 549.951C449.209 553.115 453.495 560.136 454.7 563.149C459.297 574.644 463.727 586.457 467.575 597.999C468.706 601.394 473.117 608.765 472.1 612.375C460.457 596.903 447.646 581.946 435.05 567.25C429.371 572.928 422.372 576.347 415.95 580.601C415.885 580.537 415.788 580.488 415.725 580.424C411.348 582.613 406.955 584.431 402.25 585.999C399.818 586.811 395.786 586.797 393.75 588.325C391.499 590.014 391.723 596.482 391.125 599.174C388.982 608.818 386.715 618.469 384.95 628.174C383.847 634.242 382.489 640.325 381.15 646.351C381.001 647.019 379.363 651.422 380.575 651.625C389.75 653.154 401.745 649.776 410.75 647.524C443.584 639.316 473.181 620.466 494.525 593.024C501.349 584.251 511.488 570.271 514.15 559.625C515.048 556.032 517.225 552.662 518.25 549.076C520.477 541.283 522.667 533.668 524.125 525.649C524.615 522.953 526.146 518.001 525.575 515.226C528.384 513.197 545.473 512.465 549.6 511.875C567.645 509.298 585.76 507.127 603.8 504.55C607.713 503.99 622.691 503.233 624.9 501.024C624.469 500.163 624.687 500.661 624.325 499.575C541.903 499.575 459.472 499.478 377.05 499.575C375.531 499.577 376.718 500.418 375.575 499.274C382.832 492.019 389.758 484.216 396.975 477C399.075 474.899 401.236 472.856 403.425 470.851C403.72 470.579 404.792 470.392 404.875 469.976C405.598 466.363 402.106 457.829 401.725 453.125C401.525 452.45 401.338 451.752 401.075 451.226C401.368 450.933 401.357 450.942 401.65 450.649C401.745 450.721 401.809 450.803 401.9 450.875C401.924 450.812 401.921 450.707 401.95 450.649C400.426 449.127 400.307 443.786 399.9 441.55C398.558 434.168 396.053 426.188 395.5 419C395.356 417.125 393.805 413.548 394.275 411.601C394.299 411.616 394.301 411.659 394.325 411.675C395.477 412.443 398.193 412.449 399.6 412.851C401.865 413.498 414.088 419.034 415.425 418.7C420.793 417.358 427.346 412.192 432.125 409.325C445.198 401.481 458.84 394.205 472.55 387.349C472.645 387.445 472.658 387.68 472.7 387.849C463.566 397.038 455.14 407.022 446.475 416.649C442.504 421.062 436.243 426.014 433.6 431.3C439.169 436.87 444.305 442.252 449.225 448.375C449.189 448.449 449.161 448.527 449.125 448.601C454.183 453.659 456.781 461.74 459.375 468.226C460.246 470.401 460.849 475.986 462.6 477.3C464.428 478.671 475.457 479 478.425 479.351C488.991 480.594 499.474 482.274 510.05 483.45C514.316 483.923 521.212 483.606 525 485.5C527.226 483.274 524.496 474.17 523.825 471.149C520.725 457.2 516.452 444.104 510.05 431.3C490.11 391.421 456.685 367.611 416.6 354.25C408.406 351.519 399.687 350.283 391.125 349.274C388.703 348.99 386.26 348.425 383.825 348.399C382.722 347.923 381.462 348.709 380.575 347.524C377.007 342.767 378.673 331.635 375 326.125ZM401.9 450.875C401.686 451.428 401.652 452.217 401.725 453.125C402.153 454.567 402.701 455.748 404.6 453.851C403.807 452.659 402.993 451.743 401.9 450.875ZM347.55 548.351C347.52 548.202 347.48 548.048 347.45 547.899C347.315 547.227 347.292 546.317 347.2 545.576C347.066 545.532 346.953 545.447 346.8 545.451C346.377 545.461 345.883 545.668 345.4 546.149C346.425 547.322 346.425 547.328 347.45 548.5C347.499 548.451 347.506 548.399 347.55 548.351ZM583 387.95C570.669 392.06 558.614 400.005 546.975 405.825C542.11 408.257 534.401 410.474 530.575 414.3C533.589 420.329 536.517 427.339 540.525 433.351C542.751 431.865 545.653 431.447 547.55 429.55C547.04 428.531 542.623 420.38 542.875 419.875C543.245 419.135 559.557 411.269 559.875 411.375C564.4 412.884 562.55 422.2 568.35 419.3C569.834 418.558 571.467 418.233 572.75 416.95C572.119 415.688 567.841 407.743 568.075 407.274C569.15 405.125 578.192 403.007 580.375 400.825C583.019 403.469 583.957 407.51 585.95 410.5C588.385 409.283 590.892 408.783 592.975 406.7C589.827 400.404 587.054 394.031 583 387.95ZM167.125 391.675C166.553 391.707 166.113 391.834 165.825 392.05C162.513 394.534 161.344 397.94 159.95 401.425C158.596 404.81 154.09 411.899 157.025 415.2C160.637 419.264 175.783 426.38 180.75 423.399C184.247 421.301 192.165 413.354 195.125 413.726C196.577 413.906 206.879 418.921 207.425 419.875C207.86 420.635 205.845 425.805 205.075 426.024C202.053 426.889 194.945 422.423 192.2 421.05C189.855 423.396 189.877 427.748 187.5 430.125C189.733 432.358 204.997 438.332 207.425 436.875C210.976 434.745 219.617 416.894 216.8 413.726C213.482 409.993 195.136 401.029 190.425 402.599C185.037 404.397 183.107 412.932 177.55 413.726C175.578 414.007 166.968 410.719 166.125 408.75C165.542 407.389 168.038 403.312 169.05 402.3C171.916 403.733 175.236 404.955 178.125 406.399C178.3 406.488 178.533 406.5 178.7 406.399C180.735 405.178 181.996 399.533 183.1 397.325C181.096 395.32 171.128 391.45 167.125 391.675ZM318.75 432.476C317.725 433.5 317.725 433.5 316.7 434.524C317.571 436.267 316.402 437.264 316.05 438.226C315.666 437.286 314.939 436.3 314.075 436.875C312.581 437.87 311.52 439.406 310.25 440.675C310.543 440.967 310.557 440.983 310.85 441.274C311.834 440.784 315.793 440.697 316.3 439.325C316.55 439.654 316.784 439.979 317.575 440.375C319.576 438.373 320.883 434.608 318.75 432.476ZM324.875 436.05C324.579 435.99 324.193 436.041 323.725 436.274C322.43 436.923 322.644 440.281 321.375 441.55C320.313 441.019 312.293 442.437 313.175 444.2C315.247 448.344 320.917 441.942 323.45 444.476C325.116 443.226 326.95 436.469 324.875 436.05ZM434.775 436.274C433.266 436.205 434.35 438.224 434.775 439.5C436.666 445.173 438.99 440.625 438.275 439.8C437.19 438.548 436.431 436.351 434.775 436.274ZM428 436.726C426.133 436.502 424.234 436.865 423.35 437.75C425.028 439.428 427.451 439.226 429.2 440.976C427.644 442.531 430.278 449.279 433 445.649C433.89 444.464 431.158 441.849 431.55 440.675C431.736 440.118 432.817 440.009 432.425 439.226C431.695 437.765 429.867 436.947 428 436.726ZM419.6 440.05C418.749 440.149 417.937 440.538 417.2 441.274C418.844 442.92 420.896 443.385 422.75 444.774C421.71 446.856 421.641 449.515 423.35 451.226C427.004 449.399 423.938 446.538 426.575 443.899C424.977 441.902 422.152 439.753 419.6 440.05ZM330.175 440.101C329.074 440.32 329.194 444.882 328.425 445.649C326.314 444.594 321.47 446.755 319.925 448.3C320.08 448.455 321.058 449.673 321.675 449.75C324.631 450.12 326.799 447.7 329.6 447.7C330.57 447.7 329.812 448.548 331.05 448.3C331.321 448.245 331.526 447.947 331.65 447.7C332.451 446.098 333.871 439.361 330.175 440.101ZM413.45 443.101C412.589 443.14 411.754 443.471 411.025 444.2C412.709 445.885 414.707 446.738 416.6 448C415.108 449.491 413.939 453.505 416.3 454.45C420.165 455.997 418.097 448.961 420.4 447.425C418.915 445.445 416.033 442.978 413.45 443.101ZM337.8 443.899C336.5 445.2 337.771 449.257 336.025 449.476C333.648 449.772 330.177 450.048 328.125 452.101C330.961 455.644 333.526 452.375 336.925 451.524C337.928 451.274 338.474 452.332 339.55 451.524C341.68 449.928 340.553 444.983 337.8 443.899ZM407.025 445.8C406.185 445.772 405.367 446.058 404.6 446.825C406.048 448.635 407.791 449.498 409.575 450.925C407.86 452.64 408.581 454.688 407.525 456.8C411.236 460.51 411.212 452.988 411.925 451.8C412.401 451.007 413.028 451.298 413.675 450.649C412.189 448.868 409.546 445.882 407.025 445.8ZM344.525 446.524C343.197 447.853 343.638 451.26 345.075 453.175C342.251 451.385 339.315 453.882 336.625 455.899C338.324 458.449 343.614 455.974 345.725 454.05C346.375 454.538 347.149 454.75 348.05 454.45C348.05 452.373 348.824 447.111 344.525 446.524ZM341.05 542.299C340.737 542.288 340.338 542.381 339.85 542.625C337.674 543.712 339.085 547.736 336.625 549.375C338.933 552.014 342.358 556.217 345.7 552.875C344.186 551.361 342.215 550.269 340.425 549.076C341.459 548.042 343.24 542.389 341.05 542.299ZM411.35 542.701C409.17 542.549 406.859 544.359 404.95 545.701C404.711 545.433 404.43 545.27 404 545.549C398.102 549.379 407.293 557.456 405.75 548.201C405.689 547.835 405.569 547.422 405.475 547C408.163 548.396 411.029 545.918 413.675 543.799C412.948 543.073 412.157 542.755 411.35 542.701ZM332.5 545.424C330.22 545.859 331.128 551.072 329.6 552.601C332.211 555.211 335.774 558.726 338.975 555.524C337.489 554.038 335.393 553.269 333.7 552C334.798 550.352 335.935 546.294 333.7 545.549C333.228 545.393 332.826 545.364 332.5 545.424ZM419.125 546.299C416.521 546.328 414.215 549.495 411.025 547.899C409.489 549.436 408.209 556.958 412.5 556.101C414.731 555.654 411.473 551.176 413.975 550.549C416.727 549.862 419.62 549.856 421.875 547.601C420.893 546.617 419.993 546.29 419.125 546.299ZM326.025 548.826C325.698 548.879 325.317 549.062 324.9 549.375C322.767 550.976 325.513 554.038 323.45 556.101C325.462 558.784 330.009 561.567 332.825 558.75C331.199 557.125 328.855 556.495 326.95 555.226C328.426 553.75 328.312 548.451 326.025 548.826ZM427.725 549.951C425.76 549.951 423.406 551.389 421.575 552C420.476 552.366 419.023 550.953 418.35 552.299C417.574 553.851 416.924 562.802 420.4 559.326C421.625 558.101 420.352 555.874 421.875 554.351C423.827 555.327 428.666 553.134 430.075 551.726C429.535 551.186 428.748 549.949 427.725 549.951ZM319.05 552.875C314.731 555.034 319.417 556.423 318.45 559.326C318.264 559.883 317.183 560.016 317.575 560.799C319.006 563.662 324.854 563.596 326.65 562.25C324.938 560.538 322.51 560.735 320.8 559.024C322.317 557.509 320.226 554.051 319.05 552.875ZM548.95 553.826C547.372 553.693 546.105 553.832 545.5 554.351C542.064 557.295 541.248 561.779 539.65 565.774C538.404 568.889 535.41 574.87 537.9 577.774C541.205 581.631 557.152 588.064 561.625 586.274C566.984 584.131 569.963 577.766 574.5 574.851C575.361 574.297 587.996 579.267 588.575 580.424C589.011 581.297 587.268 586.577 586.225 586.875C582.199 588.025 578.127 582.049 574.5 582.774C572.806 583.113 571.158 590.634 570.4 592.149C572.448 594.197 587.419 599.23 589.45 597.424C594.392 593.033 598.622 581.543 598.25 574.851C598.142 572.904 593.919 570.63 592.1 570.174C586.056 568.664 576.536 560.597 570.4 565.201C568.031 566.976 561.404 575.268 559.575 575.726C557.189 576.322 548.067 573.37 546.675 571.049C546.145 570.167 548.093 565.99 548.725 565.201C551.048 562.297 556.153 568.631 558.975 567.826C560.776 567.311 562.251 560.398 563.075 558.75C561.316 556.99 553.684 554.22 548.95 553.826ZM435.05 554.351C433.845 554.048 425.185 556.548 425.1 556.976C424.976 557.596 422.682 565.521 426.275 563.726C427.824 562.951 427.291 559.784 428.625 558.451C430.651 559.463 435.596 557.604 437.1 556.101C436.749 555.75 435.852 554.551 435.05 554.351ZM205.075 557.576C193.482 563.371 181.238 568.468 169.625 574.274C164.402 576.886 156.265 578.561 152.05 582.774C153.72 584.444 153.902 589.552 156.15 590.674C157.317 591.258 161.328 588.236 162.3 587.749C167.11 585.345 172.261 583.069 176.95 580.726C179.184 579.607 182.535 578.939 184.275 577.201C184.568 577.492 184.582 577.482 184.875 577.774C177.276 585.373 167.243 590.698 159.075 597.7C159.723 598.995 160.377 601.726 161.725 602.399C162.996 603.035 166.808 601.266 168.175 600.924C174.547 599.332 180.91 597.747 187.2 595.95C189.039 595.424 194.326 593.101 195.7 594.476C191.455 598.72 179.109 602.345 173.15 605.325C170.406 606.697 166.852 607.223 164.65 609.424C165.71 611.544 166.505 616.004 168.75 617.351C169.023 617.514 179.141 612.609 180.475 612.075C190.827 607.934 201.061 602.644 210.95 597.7C213.068 596.64 220.611 594.885 221.475 592.726C222.111 591.134 219.251 587.401 218.55 585.999C217.812 584.524 217.513 581.678 215.925 580.726C215.257 580.324 199.271 584.405 197.175 584.825C195.368 585.187 190.51 587.259 189.25 585.999C195.63 579.62 204.417 575.181 210.35 568.399C210.728 567.967 205.884 558.385 205.075 557.576ZM313.175 557.576C309.457 559.433 313.618 562.418 315.225 564.024C316.708 562.543 315.013 558.827 313.175 557.576ZM436.4 559.024C433.911 559.072 430.815 560.245 431.275 562C431.263 561.991 431.263 561.984 431.25 561.976C430.291 562.934 430.402 564.521 429.775 565.774C430.507 566.508 430.518 566.518 431.25 567.25C432.748 565.751 433.418 564.726 432.9 563.649C434.737 562.294 437.645 562.086 438.875 559.625C438.442 559.192 437.482 559.005 436.4 559.024ZM317.775 565.049C317.369 565.052 316.999 565.176 316.7 565.476C317.698 566.472 318.751 567.342 319.925 568.125C320.511 567.539 320.514 567.535 321.1 566.951C320.505 566.157 318.993 565.045 317.775 565.049ZM518.375 609.524C514.869 609.936 511.47 613.235 505.95 619.674C503.874 622.096 501.715 624.447 499.8 626.999C507.39 636.109 518.342 643.603 527.35 651.325C532.542 655.775 537.805 661.978 543.75 665.375C544.348 665.716 550.009 659.307 550.775 657.774C545.482 652.481 537.335 648.163 532.9 642.249C532.181 641.29 536.229 636.247 538.775 636.976C539.832 637.277 543.03 640.707 543.45 641.075C547.61 644.716 551.734 648.447 556.05 651.899C558.151 649.798 561.637 647.014 562.8 644.299C563.219 643.322 557.807 639.534 557.225 639.024C553.395 635.673 548.867 630.101 544.05 628.174C542.36 627.499 540.277 627.9 538.475 627.299C538.475 622.294 535.257 620.049 531.45 616.749C525.505 611.597 521.881 609.114 518.375 609.524ZM517.375 618.799C523.877 621.611 537.288 631.355 525.575 636.375C524.552 636.813 523.791 635.054 522.95 634.325C519.253 631.12 515.287 628.092 512.1 624.375C513.634 622.331 515.568 620.607 517.375 618.799ZM245.225 621.726C244.75 621.265 242.388 623.682 242.275 623.774C239.483 626.059 236.651 628.307 233.8 630.524C222.007 639.697 210.291 649.017 198.625 658.351C201.994 661.865 202.006 661.86 205.375 665.375C208.818 663.653 212.084 660.246 215.05 657.774C218.126 660.705 218.124 660.696 221.2 663.625C218.429 666.396 215.752 670.035 213.575 673.299C216.944 676.815 216.956 676.809 220.325 680.325C228.952 672.776 235.528 661.561 242.575 652.499C247.198 646.555 253.549 640.503 256.925 633.749C252.97 629.794 249.245 625.614 245.225 621.726ZM242 635.499C243.172 638.284 240.274 640.784 239.075 642.249C235.01 647.218 231.187 653.466 226.175 657.476C224.612 655.912 222.943 654.427 221.475 652.774C221.345 652.63 221.353 652.352 221.475 652.2C224.745 648.112 230.85 644.63 234.95 641.351C237.153 639.587 239.529 636.736 242 635.499ZM475.5 647.524C469.395 650.577 463.045 654.536 457.325 658.351C461.786 667.273 468.858 675.496 472.55 684.726C475.709 692.622 481.728 701.679 486.625 709.024C492.724 705.976 499.759 702.452 505.075 698.2C504.302 696.654 502.557 692.128 500.975 691.45C498.995 690.601 493.745 697.797 491.6 696.726C491.385 696.617 481.65 680.226 481.65 680.024C481.65 679.2 489.83 674.771 491.025 673.875C489.864 671.553 488.481 669.226 486.925 667.149C483.85 668.688 480.685 670.518 477.825 672.424C476.743 671.342 470.164 660.659 470.5 660.101C474.312 653.746 484.173 658.366 475.5 647.524ZM288.575 656.601C285.894 659.28 284.388 664.854 283 668.325C279.308 677.554 274.64 687.12 270.125 696.149C269.253 697.894 263.787 708.194 263.975 709.325C264.165 710.462 272.802 714.423 273.05 714.299C274.271 713.689 274.387 711.112 275.1 709.924C278.136 704.865 279.45 696.774 283.6 692.625C285.426 693.538 288.916 694.165 290.05 696.149C290.773 697.414 288.292 701.116 287.7 702.299C285.133 707.433 283.203 712.468 280.675 717.524C281.841 718.691 288.192 722.444 289.75 721.926C291.196 721.443 292.326 716.774 292.975 715.476C295.78 709.865 301.96 700.67 298.825 694.399C300.461 692.764 301.965 693.223 304.1 690.875C306.612 688.111 313.383 671.811 311.425 669.2C306.206 662.241 295.423 661.165 288.575 656.601ZM294.425 667.726C296.384 667.943 301.02 669.634 301.75 671.825C302.135 672.98 295.334 687.101 294.425 687.351C293.306 687.655 287.063 685.317 286.825 684.125C286.658 683.292 293.274 667.596 294.425 667.726ZM421.975 671.95C419.414 671.65 414.83 672.614 414.55 673.875C413.034 680.696 421.032 693.128 418.95 699.375C415.524 695.948 409.978 685.019 408.1 680.325C407.598 679.072 406.432 676.188 405.175 675.351C404.228 674.718 396.92 676.311 396.375 677.399C395.73 678.689 398.9 690.499 399.325 692.625C401.203 702.016 403 711.374 404.875 720.749C405.736 725.057 405.982 730.11 407.525 734.226C408.052 735.63 414.832 733.797 416.025 733.351C417.58 732.767 415.974 727.745 415.725 726.625C414.792 722.428 410.74 709.655 411.925 706.101C413.257 707.432 413.771 709.542 414.55 711.101C417.867 717.735 421.497 725.328 425.975 731.301C427.35 730.612 434.015 730.86 434.475 729.249C435.363 726.141 433.044 720.62 432.425 717.524C430.433 707.566 428.391 697.636 426.575 687.649C425.73 683.004 425.369 677.059 423.625 672.7C423.458 672.283 422.829 672.049 421.975 671.95ZM351.475 676.2C350.468 676.111 349.648 676.111 349.225 676.226C347.714 676.633 348.202 682.186 348.05 683.549C347.409 689.322 346.608 695.053 346 700.825C345.391 706.606 344.528 712.341 343.95 718.125C343.741 720.218 341.541 734.514 342.475 734.825C343.969 735.323 346.882 735.254 348.35 735.399C350.179 735.582 351.084 736.193 352.45 735.101C352.606 734.975 354.031 720.607 354.2 718.999C355.25 709.021 356.727 699.101 357.725 689.125C358.071 685.665 359.554 681.384 359.175 677.976C359.117 677.449 354.496 676.466 351.475 676.2Z" fill="#FFFFFF" fill-rule="nonzero" opacity="1" stroke="none" vectornator:layerName="path"/>
</g>
</svg>
