<?xml version="1.0" encoding="UTF-8" standalone="no"?>
<!DOCTYPE svg PUBLIC "-//W3C//DTD SVG 1.1//EN" "http://www.w3.org/Graphics/SVG/1.1/DTD/svg11.dtd">
<!-- Created with Vectornator (http://vectornator.io/) -->
<svg height="100%" stroke-miterlimit="10" style="fill-rule:nonzero;clip-rule:evenodd;stroke-linecap:round;stroke-linejoin:round;" version="1.1" viewBox="0 0 750 1000" width="100%" xml:space="preserve" xmlns="http://www.w3.org/2000/svg" xmlns:vectornator="http://vectornator.io" xmlns:xlink="http://www.w3.org/1999/xlink">
<defs/>
<g id="Layer-1" vectornator:layerName="Layer 1">
<path d="" fill="none" opacity="1" stroke="#f5c81a" stroke-linecap="butt" stroke-linejoin="round" stroke-width="1" vectornator:layerName="path"/>
<path d="M370.802 340.78C364.221 340.764 357.497 341.126 350.651 341.887C308.797 346.537 268.529 370.535 243.354 404.101C236.393 413.383 230.713 423.497 225.669 433.586C223.907 437.109 223.385 442.603 220.939 445.661C217.904 449.454 218.412 442.908 215.933 443.321C207.792 444.678 199.483 446.899 191.454 448.906C190.591 449.122 185.013 449.83 184.687 450.969C183.566 454.894 185.277 459.471 184.083 463.649C183.333 466.275 182.472 468.841 180.838 471.02C180.706 471.196 180.492 471.415 180.561 471.624C181.704 475.051 190.655 476.903 192.058 482.517C196.846 501.667 201.945 520.981 207.379 540.002C208.86 545.187 211.068 551.812 209.744 557.109C208.912 560.437 206.784 562.425 205.316 565.36C205.228 565.536 205.215 565.795 205.316 565.964C206.817 568.466 213.071 572.234 214.75 573.914C217.307 576.47 217.068 580.335 218.574 583.348C219.414 585.027 221.006 583.162 222.121 583.348C223.104 583.512 223.61 586.321 224.184 586.895C225.818 586.078 233.402 583.662 235.103 584.228C236.771 584.784 247.168 600.452 248.939 602.518C257.754 612.801 267.423 622.082 278.424 629.939C311.865 653.826 355.129 663.658 396.06 657.361C426.439 652.687 456.004 638.104 478.325 616.958C486.08 609.611 493.33 602.069 499.532 593.386C500.578 591.922 505.807 582.955 506.904 582.467C510.625 580.813 520.664 587.076 524.589 586.291C525.445 586.12 526.504 579.896 527.256 578.643C529.897 574.241 535.03 571.817 537.872 568.027C538.201 567.588 535.439 564.533 535.206 563.599C534.159 559.414 533.143 556.218 533.143 551.524C533.143 548.182 535.014 544.365 535.81 541.184C539.263 527.368 542.419 513.276 545.52 499.322C546.438 495.191 548.3 481.523 550.829 478.995C559.071 483.116 559.997 494.05 565.571 499.624C569.716 497.551 584.816 495.305 587.106 492.253C587.838 491.276 584.289 484.28 583.558 482.819C582.31 480.321 581.78 476.983 580.615 474.265C580.276 473.475 579.394 473.622 578.854 473.083C576.554 470.783 576.172 464.181 575.307 461.007C574.767 459.028 573.324 455.84 574.426 453.636C571.734 450.944 563.42 450.919 559.684 450.089C550.559 448.061 541.433 446.036 532.262 444.202C528.182 443.386 522.807 443.225 519.004 441.535C517.556 440.891 513.794 429.205 512.212 427.095C504.042 416.202 498.602 403.903 488.916 393.786C456.363 359.787 416.865 340.893 370.802 340.78ZM368.638 346.038C370.345 345.232 372.888 348.63 370.424 349.862C367.15 351.499 366.481 347.056 368.638 346.038ZM377.192 346.038C377.535 345.847 378.013 345.883 378.374 346.038C383.945 348.425 373.2 352.01 375.708 347.497C376.045 346.889 376.584 346.375 377.192 346.038ZM360.94 346.088C361.349 346.111 361.768 346.211 362.148 346.314C366.416 347.478 358.002 353.508 359.204 347.497C359.421 346.412 358.535 347.038 359.808 346.314C360.15 346.12 360.531 346.065 360.94 346.088ZM386.047 346.616C389.26 346.992 387.032 350.769 385.443 349.862C383.2 348.58 384.197 346.4 386.047 346.616ZM351.556 346.918C351.955 346.593 356.092 347.071 354.5 348.981C352.487 351.396 349.033 348.981 351.556 346.918ZM373.267 349.534C373.55 349.537 373.87 349.641 374.248 349.862C376.591 351.228 375.433 353.234 377.192 353.987C379.418 354.942 379.727 350.335 381.62 349.862C384.4 349.166 383.652 353.54 385.142 353.987C389.089 355.171 387.605 348.565 391.355 350.44C395.969 352.747 385.735 355.143 389.293 357.811C391.978 359.825 391.542 354.222 393.418 353.987C397.785 353.442 395.705 359.313 399.305 358.113C401.073 357.524 400.313 352.73 403.431 354.289C409.65 357.399 396.527 360.13 401.947 361.937C405.552 363.139 403.373 358.412 406.374 357.811C409.377 357.211 408.526 361.542 410.5 361.937C413.546 362.546 413.256 356.997 415.809 358.415C421.316 361.475 413.711 362.653 413.444 363.723C412.775 366.397 416.479 367.276 416.991 365.484C417.472 363.799 415.973 363.678 418.475 362.541C421.989 360.944 420.896 365.726 422.601 366.365C425.367 367.402 425.184 367.095 426.123 369.912C426.211 370.176 426.454 370.436 426.727 370.491C427.984 370.742 429.792 370.148 430.249 371.975C430.715 373.841 429.395 373.755 431.431 374.918C433.957 376.362 433.076 369.653 437.041 371.094C442.277 372.998 433.456 375.718 434.375 377.862C435.957 381.554 438.977 373.725 441.469 375.22C442.91 376.085 442.051 378.749 443.23 379.044C446.105 379.763 446.059 379.716 446.777 382.591C447.106 383.908 448.877 382.768 449.721 383.472C451.611 385.047 450.124 384.856 450.903 386.415C451.866 388.341 454.258 386.482 455.331 389.057C455.595 389.692 455.182 390.473 455.331 391.145C455.6 392.357 458.124 391.463 459.155 392.906C459.694 393.661 458.901 395.264 460.035 395.547C462.574 396.182 461.301 394.393 463.281 397.032C463.846 397.786 463.01 399.385 464.161 399.673C466.695 400.307 465.206 398.98 466.828 400.277C469.561 402.463 466.046 402.188 470.35 404.101C474.084 405.761 470.217 410.513 467.406 409.107C467.112 409.402 467.123 409.416 466.828 409.711C468.612 411.941 469.87 411.873 471.834 413.837C472.815 412.856 472.922 412.56 473.897 413.535C473.455 413.977 473.459 413.973 473.017 414.416C474.827 415.864 477.372 416.876 475.658 419.447C477.029 420.818 479.104 420.068 480.086 421.787C480.522 422.551 479.872 424.456 480.966 424.73C483.058 425.253 483.051 423.591 484.514 426.516C485.941 429.372 477.142 431.33 481.268 432.705C483.705 433.517 484.776 425.964 488.036 430.038C490.782 433.472 483.499 433.148 484.514 436.529C484.987 438.107 486.807 437.15 487.759 437.409C489.289 437.827 488.47 439.808 488.639 440.655C488.74 441.16 492.423 442.865 492.765 443.321C495.336 446.75 484.743 444.734 490.702 450.693C490.137 451.824 488.726 452.56 487.759 453.334C485.805 451.38 483.592 450.935 486.576 454.517C484.689 456.089 482.573 458.43 480.388 459.523C479.644 458.779 479.022 458.444 478.023 458.944C473.363 454.284 472.964 444.809 471.834 438.592C471.528 436.907 468.764 438.582 468.287 436.831C468.08 436.072 468.441 435.237 468.287 434.466C468.032 433.192 462.908 433.308 462.677 433.284C458.564 432.851 450.432 433.652 446.777 431.825C444.312 430.592 449.314 419.053 450.299 417.082C449.659 416.442 448.468 416.884 447.658 416.478C444.418 414.859 442.272 408.753 439.683 406.164C441.185 403.16 437.517 400.682 435.28 402.919C435.992 403.986 435.708 403.496 436.161 404.403C434.589 405.582 435.277 404.893 434.098 406.466C436.605 409.599 438.666 413.075 441.167 416.202C442.143 417.421 444.206 416.439 444.714 417.963C445.165 419.314 440.78 427.688 439.985 428.881C441.017 429.913 441.016 429.912 442.048 430.944C440.784 432.207 438.504 430.503 436.74 430.944C435.558 431.239 434.977 434.446 434.677 435.347C433.449 439.029 431.952 443.161 430.249 446.567C429.837 447.391 427.909 449.456 427.909 450.391C427.909 450.61 428.043 450.802 428.186 450.969C430.742 453.951 433.214 456.413 434.677 459.825C436.534 464.159 434.668 471.933 434.375 476.328C434.23 478.502 434.91 482.585 433.494 484.001C430.566 481.073 429.489 474.048 428.186 470.139C425.043 460.712 421.867 451.071 418.173 441.837C415.915 436.191 413.422 431.268 418.173 426.516C417.6 425.943 416.52 426.301 415.809 425.913C415.345 425.659 409.041 415.771 409.041 415.296C409.041 414.561 409.627 412.899 409.318 412.076C408.697 410.421 405.891 410.496 404.915 411.472C405.112 411.865 405.297 412.261 405.494 412.655C404.653 413.215 403.845 413.7 403.129 414.416C405.581 417.685 406.868 421.765 409.318 425.032C410.265 426.294 411.935 425.259 412.563 426.516C412.931 427.252 411.14 429.122 410.802 429.46C407.744 426.402 403.087 430.058 399.884 428.579C398.085 427.749 393.418 419.45 393.418 417.359C393.418 416.231 394.39 415.318 393.997 414.139C393.449 412.495 389.492 411.992 390.173 414.717C385.79 417.639 392.417 423.392 393.418 427.397C393.512 427.773 393.41 428.546 392.815 428.579C389.479 428.765 386.132 428.849 382.802 428.579C381.406 428.466 381.134 425.243 380.739 424.453C379.963 422.9 377.77 420.106 377.77 418.265C377.77 417.146 379.259 416.656 378.676 415.296C378.095 413.94 375.982 413.837 374.827 413.837C374.463 414.93 374.393 414.428 374.827 415.296C374.015 415.945 372.933 416.481 372.764 417.661C372.529 419.31 375.898 426.818 376.89 427.975C377.57 428.769 379.125 429.002 379.255 430.038C379.756 434.046 373.616 444.56 371.305 448.026C378.282 455.584 377.982 456.705 377.192 467.774C376.659 475.239 376.222 482.728 375.708 490.19C375.186 497.751 374.752 505.323 374.248 512.882C374.111 514.943 374.075 517.009 373.947 519.071C373.52 525.891 373.804 533.376 368.638 538.542C367.259 539.922 366.161 542.366 364.211 542.366C362.543 542.366 361.787 540.099 360.689 538.844C356.361 533.899 354.187 528.195 352.135 522.039C346.997 506.625 340.702 491.263 335.632 476.051C332.835 467.663 328.864 460.379 333.267 451.573C329.249 448.894 327.6 444.723 324.411 441.535C325.485 440.462 326.423 441.512 327.38 440.076C328.103 438.991 327.472 437.422 328.261 436.529C331.183 433.217 333.403 431.085 336.512 427.975C334.004 426.095 330.211 416.815 331.204 413.837C331.685 412.394 332.934 412.81 332.386 410.894C331.959 409.396 329.062 409.212 328.261 410.013C329.517 412.527 326.232 410.972 325.896 412.655C325.87 412.781 328.769 424.646 328.839 424.73C330.013 426.139 330.335 425.622 331.506 426.793C330.72 427.677 329.93 428.578 329.141 429.46C328.26 430.445 327.382 431.442 326.474 432.403C325.711 433.211 324.961 434.024 324.135 434.768C321.949 436.735 322.002 433.821 320.588 433.586C319.377 433.384 318.901 434.557 317.946 433.284C317.39 432.542 317.505 430.638 316.462 430.34C314.009 429.639 315.732 431.095 314.399 429.762C316.353 427.985 318.255 426.125 320.009 424.151C317.302 422.347 314.67 412.747 315.581 410.013C315.922 408.989 317.04 408.504 317.04 407.346C317.04 402.647 310.927 407.875 310.273 408.529C312.993 413.968 310.875 418.142 314.977 423.271C312.038 425.623 309.619 428.577 306.726 430.944C304.786 432.532 300.822 431.84 298.474 432.101C291.4 432.887 283.951 432.723 276.965 433.887C275.456 434.139 275.419 439.983 274.902 441.535C273.355 446.174 270.233 449.388 268.109 453.636C267.38 455.094 271.053 458.3 271.053 460.127C271.053 463.634 270.404 466.963 270.172 470.441C268.8 491.019 265.887 511.723 262.499 532.052C261.399 538.654 260.182 550.077 253.367 553.863C252.479 554.357 250.439 551.361 249.845 550.618C245.633 545.353 244.585 539.352 242.75 532.932C239.285 520.802 236.507 508.514 233.04 496.379C230.955 489.082 228.577 481.933 229.191 474.265C229.528 470.053 232.749 467.148 234.499 463.649C233.489 462.975 232.113 462.445 231.253 461.586C227.137 457.469 221.182 452.219 225.945 446.265C227.058 444.874 228.386 446.113 229.191 444.504C229.917 443.05 227.093 442.813 227.731 441.535C229.825 437.348 231.277 431.5 234.499 428.277C237.562 429.809 237.209 426.862 235.681 425.334C240.376 415.943 247.337 405.728 254.851 398.214C257.155 400.518 258.997 398.536 256.612 396.151C257.398 395.463 258.081 394.626 258.977 394.088C259.425 393.819 262.222 397.044 262.222 393.786C262.222 393.019 261.281 392.568 260.738 392.025C262.507 390.257 262.516 390.247 264.285 388.478C268.291 392.484 263.975 400.269 268.411 404.705C265.928 406.36 263.673 408.424 261.342 410.29C260.944 410.608 258.156 412.054 258.096 412.353C257.57 414.984 259.626 414.994 257.493 417.661C258.549 418.717 258.62 419.071 261.04 418.265C263.329 417.502 262.133 415.826 263.103 414.717C266.002 411.404 270.293 409.288 273.417 406.164C269.931 402.678 268.043 393.204 271.933 389.963C275.169 393.198 274.771 387.641 269.87 386.415C268.223 386.003 266.584 391.013 265.166 388.176C264.597 387.039 270.779 382.69 271.656 381.988C273.514 383.845 275.896 382.322 274.298 379.925C277.551 377.033 287.596 368.575 291.707 367.547C294.129 366.942 291.53 371.774 294.952 370.491C297.607 369.495 294.565 367.462 293.77 366.667C294.659 366 295.496 365.516 296.411 364.906C298.045 367.356 300.972 366.052 299.657 363.421C301.91 361.168 305.833 360.17 308.789 358.692C309.194 359.502 309.144 360.487 309.393 361.358C309.676 362.35 315.339 363.18 310.575 358.415C311.656 357.334 315.55 355.003 317.04 355.748C322.536 350.252 320.957 357.115 322.952 358.113C326.078 359.676 324.455 354.61 323.531 353.685C325.478 351.739 326.217 354.57 328.839 353.987C329.856 353.761 329.302 352.419 329.443 351.924C329.808 350.646 332.107 350.869 332.965 350.44C333.587 351.062 333.754 352.019 334.147 352.805C336.153 356.815 338.177 349.51 340.638 349.862C343.409 350.257 341.784 354.182 344.764 353.685C346.964 353.319 345.329 349.56 348.588 349.56C351.183 349.56 350.546 354.303 353.016 353.685C354.899 353.215 353.893 350.801 355.959 349.862C359.736 348.145 358.541 354.367 361.267 353.685C363.351 353.165 362.206 350.773 364.211 349.862C367.686 348.282 366.897 353.277 368.94 353.685C371.337 354.165 371.289 349.52 373.267 349.534ZM406.777 350.39C407.391 350.271 407.813 350.832 408.437 351.924C409.834 354.368 401.771 353.95 406.073 350.742C406.332 350.549 406.572 350.429 406.777 350.39ZM419.658 354.113C419.897 354.104 420.182 354.163 420.538 354.289C425.813 356.165 416.326 358.754 417.871 356.05C418.599 354.777 418.938 354.142 419.658 354.113ZM410.802 354.566C412.984 354.203 413.869 357.793 411.381 358.415C409.001 359.01 408.512 354.947 410.802 354.566ZM427.305 362.843C429.635 362.319 430.588 365.332 428.186 366.667C426.17 367.787 425.174 363.322 427.305 362.843ZM431.733 366.667C433.296 366.594 436.058 370.47 432.312 371.094C429.01 371.645 428.922 366.798 431.733 366.667ZM447.96 375.497C450.165 374.85 451.57 378.362 448.84 379.044C446.173 379.711 446.665 375.877 447.96 375.497ZM452.74 379.296C453.369 379.182 453.879 379.712 454.425 380.805C455.833 383.621 447.698 382.965 452.086 379.623C452.328 379.438 452.53 379.334 452.74 379.296ZM456.488 383.774C459.317 383.284 459.693 387.598 456.79 387.598C454.064 387.598 454.815 384.063 456.488 383.774ZM460.916 387.9C463.307 387.469 463.336 390.816 461.52 391.724C459.407 392.78 457.957 388.432 460.916 387.9ZM464.765 392.302C465.702 392.007 466.02 393.824 466.526 394.667C467.822 396.828 459.178 394.059 464.765 392.302ZM468.589 396.428C471.057 398.896 470.351 401.737 467.406 398.793C467.986 397.634 467.524 397.493 468.589 396.428ZM485.696 413.535C488.106 415.356 486.49 416.995 484.514 415.019C484.995 414.057 484.656 414.575 485.696 413.535ZM481.268 416.78C483.262 416.048 485.594 419.76 482.727 420.906C478.612 422.552 479.63 417.383 481.268 416.78ZM485.394 421.208C491.823 420.544 485.05 427.767 484.212 423.573C483.982 422.425 484.347 421.316 485.394 421.208ZM490.098 425.636C491.69 425.414 492.646 427.909 490.702 428.881C488.671 429.897 487.887 425.944 490.098 425.636ZM395.179 432.051C399.21 432.112 403.229 432.242 407.255 432.403C408.32 432.446 409.068 436.382 409.318 437.133C410.898 441.872 412.77 446.532 414.349 451.271C419.038 465.338 424.438 478.871 429.092 492.831C430.369 496.663 432.844 507.804 435.28 510.24C437.547 507.973 436.501 500.957 436.74 497.863C437.68 485.633 440.096 471.996 438.224 459.825C437.768 456.865 432.035 450.237 432.035 450.089C432.035 447.988 435.317 444.551 436.161 442.441C436.581 441.391 438.266 434.852 439.104 434.768C444.511 434.227 451.362 435.958 456.79 436.529C458.785 436.739 462.815 436.309 464.463 437.133C466.316 438.059 466.532 443.961 467.105 445.963C467.379 446.924 470.593 453.297 470.048 453.938C465.963 458.744 462.066 461.714 461.218 468.076C458.927 485.255 458.905 502.968 457.671 520.253C457.141 527.67 456.203 535.331 457.671 542.668C458.038 544.508 459.93 545.777 460.614 547.373C460.674 547.512 455.282 555.697 454.727 556.807C454.194 557.873 452.403 563.955 451.18 564.178C448.305 564.701 435.325 563.019 432.312 562.115C431.311 561.815 426.771 548.16 426.123 546.215C420.881 530.49 415.594 514.131 409.318 498.441C407.778 494.591 405.728 483.052 403.431 480.756C400.928 483.259 401.897 493.393 401.67 496.68C400.576 512.544 395.129 530.813 405.796 543.851C406.454 544.655 400.508 551.433 399.884 552.681C399.36 553.729 397.856 559.588 396.639 559.775C395.662 559.925 394.682 559.516 393.695 559.473C387.607 559.209 381.509 559.606 375.431 559.172C374.505 559.105 373.071 551.847 372.764 550.618C372.103 547.973 369.795 545.862 368.638 543.549C368.55 543.373 368.513 543.122 368.638 542.97C372.658 538.089 376.663 534.844 377.192 528.228C378.4 513.125 379.245 497.946 380.135 482.819C380.424 477.902 380.699 472.991 381.016 468.076C381.079 467.091 381.318 466.121 381.318 465.133C381.318 462.38 381.188 459.629 381.016 456.881C380.743 452.519 378.387 450.663 375.708 447.447C375.177 446.81 379.302 440.818 379.859 440.076C380.649 439.022 382.293 432.123 383.079 432.101C387.107 431.989 391.149 431.99 395.179 432.051ZM489.822 433.586C492.094 433.048 493.56 437.14 490.702 437.711C487.85 438.282 487.54 434.125 489.822 433.586ZM312.638 434.164C316.126 436.178 316.362 439.159 317.946 441.535C319.853 444.396 322.296 446.489 324.713 448.906C320.138 458.057 327.033 469.727 330.022 478.693C333.764 489.92 337.713 501.279 342.122 512.303C344.517 518.291 345.803 524.998 348.588 530.567C349.518 532.427 350.847 535.191 352.437 536.781C354.452 538.797 357.625 540 358.626 542.668C358.768 543.048 358.452 543.466 358.324 543.851C357.389 546.654 355.901 549.222 355.078 552.102C354.525 554.039 354.709 557.243 353.896 558.87C352.74 561.182 348.829 559.909 346.248 560.052C341.195 560.333 334.289 562.169 329.443 560.958C328.644 560.758 327.625 557.42 327.38 556.807C325.84 552.956 322.602 549.689 320.286 546.215C320.177 546.052 320.16 545.763 320.286 545.612C321.579 544.06 324.713 541.738 324.713 539.121C324.713 537.887 321.876 522.198 320.286 522.039C313.135 521.324 304.178 524.14 297.015 524.983C296.665 525.024 290.056 525.216 289.921 526.165C289.656 528.016 289.644 529.88 289.644 531.75C289.644 534.601 289.743 537.457 289.921 540.303C290.185 544.538 294.673 545.203 296.109 548.555C296.651 549.818 293.529 555.657 293.166 557.109C292.738 558.819 293.169 564.719 291.405 565.36C287.763 566.685 282.595 566.663 278.726 567.146C275.918 567.497 268.517 570.143 266.046 568.907C265.673 568.721 265.426 568.352 265.166 568.027C263.578 566.042 263.349 562.157 261.92 559.775C260.852 557.995 258.184 555.534 257.795 553.587C257.751 553.371 257.959 553.154 258.096 552.983C260.193 550.362 262.36 548.168 263.405 545.033C266.159 536.771 267.029 528.011 268.109 519.372C269.606 507.395 270.738 495.374 272.235 483.397C272.943 477.733 274.6 471.395 274.6 465.712C274.6 462.807 274.544 459.926 273.996 457.183C273.779 456.098 272.235 454.976 272.235 453.938C272.235 452.761 277.374 445.916 278.147 443.598C278.624 442.168 278.654 438.036 279.908 437.409C281.714 436.506 285.339 436.66 286.977 436.529C295.538 435.844 304.073 434.823 312.638 434.164ZM494.929 437.963C496.768 438.415 495.551 442.452 493.948 441.535C491.885 440.356 492.276 438.468 493.948 438.013C494.343 437.906 494.666 437.898 494.929 437.963ZM502.501 442.139C503.543 441.965 504.689 442.79 505.721 443.02C511.311 444.262 516.948 445.327 522.526 446.567C533.804 449.073 545.175 451.133 556.439 453.636C560.22 454.476 565.691 454.478 569.118 456.001C571.295 456.969 570.799 461.161 571.181 463.07C572.772 471.023 576.219 477.549 579.734 484.58C578.362 485.952 576.548 486.338 574.728 486.944C572.322 487.747 567.469 490.595 564.992 489.888C563.954 489.591 562.522 484.862 561.747 483.699C560.239 481.437 548.567 469.741 544.363 470.441C543.261 470.625 542.812 475.387 542.577 476.328C541.011 482.592 539.711 488.947 538.149 495.196C534.078 511.479 529.942 527.979 526.652 544.429C525.81 548.64 526.195 553.321 527.558 557.41C527.813 558.177 530.112 562.129 529.621 562.719C528.815 563.686 527.542 564.194 526.652 565.084C522.781 568.954 521.695 571.753 519.583 575.977C519.397 576.35 519.103 576.743 518.702 576.857C516.92 577.366 504.214 573.386 501.595 572.731C500.866 572.549 496.729 572.25 496.589 571.272C496.2 568.546 496.87 565.33 496.287 562.417C496.096 561.463 492.901 554.719 493.344 554.165C495.719 551.196 499.216 548.785 501.595 545.612C505.505 540.399 505.677 531.976 507.206 525.863C510.378 513.172 513.222 500.324 516.061 487.548C517.481 481.16 517.887 472.073 520.765 466.315C518.979 464.529 515.665 465.505 513.394 465.712C507.852 466.215 502.824 467.289 498.073 470.139C496.026 471.368 494.242 473.527 492.161 474.567C491.965 474.665 491.745 474.414 491.583 474.265C487.277 470.319 484.871 467.856 480.966 463.951C486.545 459.302 491.823 454.769 496.589 449.208C497.558 448.078 500.877 442.41 502.501 442.139ZM212.989 448.328C215.924 450.084 216.708 452.976 218.297 455.095C220.262 457.715 222.611 459.707 224.763 462.19C225.126 462.609 221.567 467.978 221.241 468.957C220.036 472.571 220.634 477.122 221.543 480.756C226.835 501.926 233.087 522.809 238.348 543.851C239.23 547.38 242.576 550.806 245.115 552.983C245.642 553.434 248.088 554.833 248.361 555.649C248.843 557.097 245.739 562.13 245.417 563.901C244.876 566.878 245.949 569.805 245.417 572.731C245.176 574.058 241.533 574.276 240.688 574.518C237.697 575.372 224.392 579.677 222.121 578.92C220.916 578.518 219.952 574.195 219.178 573.033C216.987 569.747 213.654 567.811 210.926 565.084C215.688 555.56 213.119 546.459 210.624 536.479C206.063 518.232 200.727 500.11 196.184 481.938C195.439 478.957 192.737 476.095 190.574 474.265C189.7 473.526 186.481 472.19 186.146 471.02C185.823 469.89 187.644 466.866 187.932 465.712C188.903 461.829 188.545 458.51 189.09 454.517C189.275 453.157 193.702 452.675 194.7 452.454C200.796 451.099 206.926 449.844 212.989 448.328ZM473.897 462.466C476.256 464.677 476.243 464.683 478.601 466.894C478.1 467.395 476.945 468.153 477.419 468.68C482.443 474.263 488.826 478.52 493.646 484.303C492.862 485.087 493.057 487.826 494.526 486.944C495.929 486.103 494.992 484.416 496.891 482.517C498.132 483.758 499.448 482.48 500.715 484.001C504.466 488.502 495.333 486.986 496.891 490.492C497.939 492.849 500.2 490.38 501.017 492.831C502.571 497.495 498.011 495.041 496.891 497.561C495.45 500.803 500.741 499.176 501.017 501.385C501.528 505.473 495.455 503.946 496.891 507.297C497.702 509.189 499.893 507.916 501.017 509.938C502.884 513.3 495.503 511.847 496.891 515.548C497.546 517.294 498.045 515.824 499.256 516.429C501.413 517.508 501.513 520.796 498.954 521.435C496.344 522.088 494.966 513.482 493.067 517.913C491.49 521.593 496.083 519.818 496.891 522.039C498.498 526.457 491.129 524.629 493.067 528.505C493.633 529.636 498.047 529.162 496.891 532.052C495.86 534.63 493.64 532.749 492.765 534.718C492.443 535.442 492.871 536.379 492.463 537.058C492.249 537.416 491.956 537.752 491.583 537.939C490.569 538.445 489.16 537.733 488.639 539.121C487.304 542.683 494.099 540.536 492.463 545.033C491.719 547.08 490.411 545.977 489.218 546.215C487.836 546.492 488.705 548.701 488.337 549.436C487.114 551.882 485.366 549.262 484.514 552.102C483.603 555.136 490.603 554.289 488.036 557.712C483.974 563.128 483.066 549.69 480.086 555.649C478.594 558.634 485.06 557.954 484.514 561.234C484.121 563.589 480.912 562.504 480.388 563.901C480.016 564.892 480.543 566.645 479.205 567.146C477.891 567.639 476.687 566.607 475.96 568.606C475.877 568.833 476.466 571.05 475.356 571.272C473.888 571.566 472.289 571.975 471.23 573.033C473.065 575.326 472.314 574.049 474.199 575.096C478.601 577.542 471.794 582.39 470.048 576.279C469.554 574.548 469.596 574.391 470.954 573.033C470.133 572.212 464.705 571.372 464.161 572.731C463.65 574.008 466.086 575.048 465.344 575.977C462.736 579.237 458.024 581.234 455.029 584.228C457.637 585.967 459.423 594.316 455.029 591.021C453.602 592.448 452.275 591.195 451.18 593.386C449.569 596.608 456.9 595.241 455.331 598.694C452.584 604.738 450.328 596.018 447.658 596.908C444.115 598.089 455.166 603.371 449.721 604.581C445.492 605.52 447.467 601.034 443.532 601.034C442.38 604.49 449.798 605.891 445.293 608.707C441.77 610.908 443.277 603.685 439.683 604.883C434.481 606.617 445.65 609.395 441.469 612.53C437.771 615.304 438.834 607.78 435.557 609.008C434.002 609.592 434.685 611.275 434.098 612.254C433.066 613.974 433.076 612.558 431.155 613.134C428.624 613.893 431.931 616.104 426.727 617.26C425.519 617.528 426.403 620.206 424.941 621.084C420.616 623.678 422.274 616.296 418.475 617.562C413.627 619.178 423.38 621.085 421.419 624.027C418.34 628.646 417.536 621.742 416.11 621.386C412.226 620.415 415.382 625.21 409.318 625.21C408.802 626.758 409.64 629.042 407.557 629.638C403.704 630.738 405.469 625.512 402.852 625.512C399.049 625.512 402.784 631.023 397.242 629.638C394.625 628.983 397.569 624.776 393.418 625.814C392.285 626.097 392.25 628.913 393.418 629.059C395.718 629.346 398.546 631.01 395.481 633.461C392.032 636.221 392.498 629.964 391.355 629.638C387.58 628.559 389.373 633.557 386.324 634.065C382.931 634.631 384.599 629.638 381.62 629.638C378.783 629.638 381.301 636.018 376.613 634.065C376.57 634.047 372.847 626.965 371.884 630.82C371.103 633.941 379.276 633.993 375.129 637.311C371.535 640.185 371.822 634.376 370.424 634.065C369.753 633.916 369.008 633.916 368.336 634.065C368.065 634.126 367.825 634.374 367.758 634.644C366.773 638.581 362.751 639.114 362.751 634.342C357.372 632.549 360.916 638.597 355.959 637.889C353.544 637.544 355.496 634.385 353.896 634.065C348.939 633.074 352.685 637.889 348.588 637.889C344.899 637.889 347.388 633.152 343.28 634.065C341.787 634.397 343.406 637.889 340.638 637.889C337.101 637.889 339.22 634.42 336.814 633.763C335.862 633.504 334.042 634.461 333.569 632.883C333.215 631.702 333.845 628.977 331.204 629.638C328.948 630.202 331.07 633.173 328.839 634.065C324.594 635.763 326.353 628.863 323.254 629.638C320.483 630.33 322.302 634.343 318.827 633.763C316.636 633.398 317.113 631.612 316.764 630.216C316.378 628.672 313.949 630.309 312.915 628.757C312.39 627.971 312.986 626.172 311.732 625.814C308.559 624.907 309.114 632.137 305.267 629.059C300.956 625.61 312.965 623.219 307.606 621.688C304.347 620.757 306.123 624.611 303.782 625.512C298.977 627.36 301.735 622.402 299.355 621.688C294.845 620.335 298.323 626.666 293.468 625.21C288.719 623.785 296.584 620.143 295.833 618.141C294.345 614.175 291.816 623.236 289.04 621.386C287.088 620.084 288.272 618.537 286.675 617.26C285.704 616.483 286.176 617.545 284.612 616.958C282.865 616.303 284.232 613.41 282.851 613.134C282.08 612.98 281.245 613.341 280.487 613.134C278.95 612.715 279.879 611.101 279.606 610.191C279.307 609.193 276.662 608.333 276.084 607.524C275.466 606.659 277.153 605.69 277.845 604.883C275.397 602.129 272.988 599.299 270.474 596.606C269.493 595.555 265.554 594.698 265.468 594.266C264.942 591.638 267.782 584.279 269.593 582.467C267.814 581.281 265.134 580.012 266.65 577.738C265.609 577.391 262.499 577.381 262.499 579.222C262.499 580.468 263.405 581.554 263.405 582.769C263.405 585.702 261.552 593.452 259.556 595.449C260.752 596.645 262.08 595.004 263.681 596.606C262.27 599.428 264.119 601.501 266.348 599.272C267.085 600.01 267.07 600.02 267.807 600.757C266.902 602.567 267.626 605.674 263.983 604.581C261.898 603.955 264.331 600.788 262.499 600.455C261.629 600.297 260.716 600.669 259.857 600.455C257.863 599.956 259.19 596.639 257.795 596.329C257.123 596.18 256.378 596.564 255.732 596.329C253.875 595.654 254.662 594.329 254.247 593.084C253.672 591.358 251.458 593.503 250.423 591.021C249.996 589.995 251.173 588.566 249.543 588.077C248.884 587.88 248.106 588.362 247.48 588.077C244.238 586.604 246.698 582.418 241.87 584.832C241.008 583.539 241.508 584.232 240.411 582.769C245.574 577.606 246.272 583.417 249.241 583.046C250.456 582.894 249.541 580.421 249.543 580.404C249.704 578.954 253.641 578.948 254.549 578.04C252.114 573.169 253.008 563.078 257.216 558.87C259.881 562.867 261.422 566.75 262.222 571.549C262.271 571.842 262.826 572.676 263.103 572.731C263.874 572.886 264.697 572.577 265.468 572.731C267.016 573.041 265.983 576.071 267.229 576.279C268.843 576.548 279.52 573.158 279.908 575.096C280.278 576.946 277.315 585.362 276.084 586.593C277.204 587.713 278.456 586.626 279.606 587.776C281.412 589.581 286.603 594.54 287.279 596.908C287.549 597.853 287.058 598.894 287.279 599.851C287.712 601.728 290.928 601.209 291.984 600.153C291.564 599.315 291.848 599.716 291.103 598.971C292.135 597.939 292.134 597.94 293.166 596.908C291.106 593.818 288.606 590.814 286.097 588.077C284.886 586.757 281.733 586.032 281.669 585.713C281.399 584.363 285.652 573.719 286.675 573.335C287.795 572.915 289.037 572.889 290.223 572.731C291.662 572.539 294.077 571.58 295.229 572.731C294.04 575.11 293.833 578.253 291.984 580.103C292.278 580.397 292.293 580.411 292.587 580.706C296.287 578.856 300.603 588.722 302.902 591.021C301.362 594.101 305.567 596.609 307.33 593.964C305.918 592.553 307.59 591.948 308.512 590.719C306.387 587.531 303.842 582.807 300.839 580.404C299.864 579.624 298.909 580.235 297.896 579.222C299.705 575.604 300.025 571.117 302.6 568.027C298.095 565.024 302.575 554.794 304.663 550.618C302.219 548.785 297.292 545.957 297.292 542.366C297.292 540.167 296.974 532.501 298.172 532.052C301.482 530.811 305.89 530.957 309.393 530.567C311.517 530.331 317.024 528.509 318.827 529.41C319.78 529.887 320.04 531.493 320.286 532.354C322.289 539.367 319.769 540.135 315.581 545.612C315.448 545.786 315.755 546.037 315.883 546.215C317.435 548.388 319.208 550.382 320.588 552.681C322.84 556.435 324.484 562.464 327.38 565.36C326.47 567.18 326.001 569.079 324.411 570.668C324.985 571.241 326.076 570.864 326.776 571.272C327.439 571.659 333.569 581.197 333.569 581.889C333.569 582.891 332.449 583.973 332.965 584.832C333.897 586.385 335.54 586.291 337.091 586.291C337.784 584.212 337.955 584.27 339.456 582.769C337.263 579.48 334.884 571.272 330.6 571.272C328.692 565.548 341.317 567.222 342.701 568.606C344.5 570.405 349.192 576.927 349.192 579.826C349.192 581.118 348.009 581.227 348.588 582.769C349.252 584.54 352.021 584.644 353.016 583.65C352.819 583.257 352.633 582.86 352.437 582.467C353.755 581.149 353.052 581.285 354.198 581.285C355.098 578.586 350.646 572.144 349.468 569.788C348.946 568.744 345.818 569.14 346.525 567.725C348.018 564.739 358.517 566.494 360.689 569.209C361.941 570.775 364.814 576.925 364.814 578.92C364.814 579.864 363.376 580.774 363.934 581.889C364.307 582.635 366.298 583.65 367.179 583.65C367.191 583.65 369.105 580.844 370.123 579.826C368.457 576.494 367.7 571.916 365.695 568.907C364.766 567.514 361.641 567.832 361.267 565.964C360.36 561.428 363.644 550.908 367.179 547.373C371.148 551.342 369.979 557.354 371.884 562.115C372.428 563.475 373.958 562.139 374.827 563.297C375.663 564.412 375.275 565.902 375.431 567.146C375.621 568.671 377.738 571.746 378.374 573.335C378.907 574.668 380.135 576.937 380.135 578.341C380.135 580.426 378.352 583.952 382.5 583.952C384.287 583.952 383.038 582.272 383.381 581.587C383.869 580.611 385.056 580.792 385.745 580.103C383.818 576.248 383.477 570.463 380.437 567.423C381.759 566.101 384.183 567.008 386.047 567.146C387.628 567.263 389.559 566.682 390.752 567.725C393.341 569.991 395.758 576.314 395.758 579.826C395.758 581.188 394.261 582.212 394.878 583.65C396.41 587.225 400.056 582.899 401.368 581.587C398.815 579.034 399.372 573.192 397.821 570.09C397.408 569.264 394.652 568.779 395.179 567.725C396.652 564.78 402.031 569.38 403.733 566.543C404.834 564.707 404.851 561.942 405.796 560.052C407.839 555.965 410.69 551.032 414.047 547.675C404.742 541.471 406.801 530.079 407.557 520.253C407.801 517.08 406.6 510.015 408.739 507.875C411.083 510.219 413.711 521.029 414.928 524.681C417.994 533.878 421.603 542.918 424.664 552.102C426.153 556.57 427.286 561.8 429.368 565.964C425.978 569.502 425.991 569.495 422.601 573.033C426.304 575.502 426.625 581.979 427.029 586.015C427.147 587.2 424.944 589.038 425.544 589.838C426.171 590.674 426.939 591.513 427.909 591.901C429.638 592.593 429.419 589.26 431.733 589.26C432.48 587.018 431.229 578.071 429.972 575.977C429.493 575.178 428.2 574.803 427.607 573.914C429.288 572.353 430.437 569.935 432.614 569.209C432.931 569.104 445.522 570.898 445.897 571.272C443.524 573.429 441.068 575.472 438.802 577.738C441.528 580.918 444.206 588.205 442.652 592.48C441.891 594.572 440.154 596.294 439.104 598.392C439.548 598.836 444.972 596.665 444.991 596.606C445.186 596.02 444.589 595.096 445.595 594.845C448.324 594.163 446.632 595.594 447.96 594.266C445.366 589.08 448.107 583.521 443.809 579.222C446.079 577.276 448.39 575.346 450.601 573.335C452.889 571.256 454.72 573.533 456.79 572.153C458.715 570.87 463.598 558.836 465.344 555.926C465.758 555.236 468.802 551.417 468.589 550.92C467.424 548.202 464.784 546.967 464.161 543.851C463.257 539.328 464.471 534.249 464.765 529.687C465.57 517.211 466.43 504.736 467.105 492.253C467.67 481.791 466.074 470.29 473.897 462.466ZM502.199 478.995C502.62 478.869 503.044 479.292 503.382 479.573C507.276 482.819 501.357 484.39 501.017 482.517C500.629 480.386 500.531 479.492 502.199 478.995ZM507.382 483.976C507.514 484.138 507.641 484.515 508.086 485.183C509.734 487.656 504.074 487.582 505.444 485.183C505.72 484.701 506.091 484.148 506.627 484.001C507.127 483.864 507.249 483.814 507.382 483.976ZM502.199 496.077C504.589 495.468 506.212 499.798 503.382 500.202C500.15 500.664 499.43 496.781 502.199 496.077ZM506.904 500.504C508.558 501.569 508.11 501.71 508.69 502.869C506.326 505.233 503.883 502.014 506.904 500.504ZM502.199 504.63C504.538 504.111 505.857 507.924 503.08 508.479C500.613 508.972 500.11 505.094 502.199 504.63ZM502.199 513.184C503.926 512.528 505.927 515.156 503.382 516.429C500.736 517.752 500.704 513.752 502.199 513.184ZM502.803 521.133C503.305 521.043 503.528 521.624 503.96 522.92C504.886 525.696 498.608 524.019 502.199 521.435C502.447 521.257 502.636 521.164 502.803 521.133ZM499.231 525.511C500.575 525.98 501.344 527.814 499.532 529.108C497.053 530.879 495.629 526.485 497.771 525.561C498.271 525.346 498.782 525.354 499.231 525.511ZM498.073 534.115C499.292 533.474 501.709 536.514 499.532 537.058C496.544 537.805 496.164 535.118 498.073 534.115ZM493.646 537.662C501.387 537.192 490.915 545.614 492.463 539.423C492.635 538.735 492.938 537.705 493.646 537.662ZM486.124 562.895C486.651 562.749 486.71 563.359 487.457 564.48C489.008 566.806 481.081 566.332 485.394 563.297C485.715 563.071 485.948 562.943 486.124 562.895ZM481.268 567.146C486.002 566.504 482.099 573.513 480.086 569.486C479.548 568.411 480.217 567.289 481.268 567.146ZM477.646 571.146C479.505 571.377 480.873 574.732 478.325 575.096C475.209 575.541 474.709 572.136 476.84 571.272C477.117 571.16 477.38 571.114 477.646 571.146ZM468.589 578.92C477.184 578.41 465.103 589.031 466.828 580.404C466.978 579.652 467.823 578.966 468.589 578.92ZM252.184 596.329C254.941 597.906 254.9 598.106 253.065 599.574C251.332 597.553 250.704 597.809 252.184 596.329ZM257.493 600.153C258.192 602.251 259.187 602.159 256.914 603.977C254.975 601.262 254.153 600.153 257.493 600.153ZM270.172 603.7C272.016 604.181 272.668 610.642 268.411 608.707C264.356 606.863 267.887 603.104 270.172 603.7ZM260.159 604.581C263.25 605.831 262.735 606.71 261.04 608.405C259.75 606.598 258.614 606.126 260.159 604.581ZM453.243 604.757C453.499 604.961 453.772 605.381 454.148 606.04C455.392 608.217 448.085 608.321 452.362 604.883C452.731 604.586 452.987 604.553 453.243 604.757ZM273.568 608.631C274.021 608.705 274.48 608.868 274.902 609.008C278.097 610.074 272.134 616.176 271.053 610.769C270.864 609.826 271.449 608.967 272.235 608.707C272.657 608.567 273.116 608.558 273.568 608.631ZM265.065 609.361C266.56 609.028 267.295 611.466 265.166 612.53C264.281 611.646 264.289 611.654 263.405 610.769C263.994 609.885 264.567 609.471 265.065 609.361ZM276.965 612.832C278.714 612.003 281.18 615.184 278.726 616.656C275.913 618.344 274.735 613.89 276.965 612.832ZM435.985 612.908C436.345 612.927 436.712 613.035 437.041 613.134C440.926 614.3 434.675 619.512 434.098 615.474C433.862 613.819 433.728 613.885 434.978 613.134C435.273 612.957 435.625 612.888 435.985 612.908ZM444.111 613.411C447.826 612.801 444.092 618.058 443.23 615.474C442.831 614.277 443.079 613.58 444.111 613.411ZM431.431 617.26C433.425 616.758 434.685 620.387 432.312 620.782C429.643 621.227 429.173 617.828 431.431 617.26ZM427.733 621.26C428.261 621.115 428.345 621.725 429.092 622.845C430.698 625.254 422.752 624.689 427.029 621.688C427.35 621.462 427.557 621.309 427.733 621.26ZM285.216 621.688C287.861 621.083 288.513 624.908 285.795 624.908C283.741 624.908 284.106 621.942 285.216 621.688ZM415.079 625.159C415.809 625.024 416.482 625.549 416.991 626.694C418.596 630.305 409.656 629.105 414.349 625.512C414.604 625.317 414.836 625.205 415.079 625.159ZM297.594 625.512C299.479 624.804 302.321 627.946 299.078 629.336C296.784 630.319 295.992 626.113 297.594 625.512ZM424.01 625.864C424.349 626.019 424.65 626.415 424.941 626.996C426.123 629.361 419.243 628.832 422.878 626.09C423.296 625.775 423.671 625.709 424.01 625.864ZM289.644 626.09C291.435 625.516 292.731 627.798 290.524 629.059C288.517 630.206 288.447 626.475 289.644 626.09ZM311.028 629.285C311.758 629.15 312.406 629.675 312.915 630.82C314.558 634.517 305.62 633.191 310.273 629.638C310.527 629.443 310.784 629.33 311.028 629.285ZM302.6 629.638C304.479 629.547 305.359 631.953 303.204 633.185C301.157 634.355 300.322 629.747 302.6 629.638ZM401.947 629.638C407.308 628.968 403.219 635.923 400.79 632.279C399.99 631.08 400.864 629.773 401.947 629.638ZM410.5 629.939C415.267 629.356 410.355 635.848 409.318 631.7C409.089 630.784 409.559 630.055 410.5 629.939ZM295.355 630.04C296.1 630.544 294.547 632.771 293.166 633.461C292.871 633.167 292.882 633.178 292.587 632.883C293.439 632.031 292.618 630.677 293.77 630.216C294.623 629.875 295.106 629.872 295.355 630.04ZM331.506 633.461C333.883 632.989 335.471 636.652 332.688 637.889C329.926 639.117 327.797 634.199 331.506 633.461ZM381.016 633.461C383.174 632.492 385.662 635.865 383.079 637.587C379.936 639.682 378.526 634.58 381.016 633.461ZM322.952 633.763C325.194 633.226 326.654 637.023 323.833 637.587C321.159 638.122 320.647 634.316 322.952 633.763ZM389.569 633.763C391.369 633.033 393.855 636.537 391.054 637.587C388.013 638.728 387.83 634.469 389.569 633.763ZM315.732 634.015C317.673 634.42 316.405 638.163 314.701 637.311C312.571 636.246 313.183 634.435 314.701 634.065C315.117 633.964 315.455 633.957 315.732 634.015ZM398.123 634.065C398.379 633.919 398.758 633.902 399.003 634.065C403.23 636.883 395.265 638.598 396.94 635.248C397.189 634.75 397.64 634.341 398.123 634.065ZM306.449 634.342C307.784 633.834 308.978 636.349 307.33 637.009C305.175 637.87 305.288 634.784 306.449 634.342ZM406.374 634.342C408.572 635.655 408.267 636.214 406.676 637.009C405.276 635.608 405.029 635.687 406.374 634.342ZM352.437 637.889C354.578 637.491 355.513 640.835 353.317 641.713C350.648 642.781 349.582 638.421 352.437 637.889ZM360.387 637.889C362.163 637.158 364.764 640.749 361.871 641.713C358.24 642.923 358.629 638.612 360.387 637.889ZM335.632 638.191C342.366 637.82 332.025 644.223 334.449 639.373C334.698 638.876 335.077 638.222 335.632 638.191ZM368.638 638.191C370.847 637.492 372.323 640.283 369.821 641.713C367.675 642.939 367.191 638.649 368.638 638.191ZM377.192 638.191C378.385 637.592 380.62 640.301 378.676 641.134C375.933 642.31 375.49 639.045 377.192 638.191ZM327.078 638.493C327.342 638.361 327.719 638.322 327.959 638.493C332.22 641.537 324.819 641.671 326.198 639.373C326.412 639.016 326.705 638.679 327.078 638.493ZM385.443 638.493C390.265 638.287 384.563 643.671 384.563 639.65C384.563 639.231 385.14 638.506 385.443 638.493ZM364.814 642.619C367.289 645.004 364.92 646.353 363.632 643.776C364.222 643.186 364.225 643.208 364.814 642.619ZM281.971 392.302C281.161 393.112 281.836 394.143 280.788 394.667C280.035 395.043 278.949 394.497 278.424 395.547C277.192 398.011 279.049 408.852 281.367 411.17C279.399 413.466 276.915 415.789 274.298 417.359C273.059 418.102 272.511 417.385 271.354 418.541C272.859 421.55 271.808 422.213 270.172 423.85C272.035 425.713 271.938 425.583 275.178 425.334C277.295 425.171 276.942 422.337 277.845 421.208C279.983 418.535 283.897 416.123 286.675 414.139C287.631 413.456 288.445 414.13 289.342 413.233C284.57 408.461 285.887 409.843 285.216 401.459C285.129 400.364 284.079 399.175 284.612 398.214C287.494 393.028 287.129 394.881 281.971 392.302ZM450.903 395.271C450.522 395.233 449.887 395.985 449.721 396.151C450.179 396.838 450.537 397.482 450.903 398.214C449.671 399.446 450.353 398.841 448.84 399.975C451.619 403.449 454.251 407.449 457.394 410.592C458.413 411.611 459.352 410.789 460.337 411.774C458.669 415.11 459.289 420.138 455.909 422.39C455.937 422.422 459.155 425.384 459.155 425.913C459.155 426.531 457.214 427.83 458.853 428.277C464.837 429.909 463.281 424.393 463.281 421.208C463.281 418.637 465.757 411.939 467.406 410.29C465.775 408.114 463.742 409.486 461.218 406.768C459.768 405.206 456.688 402.301 455.909 400.277C454.225 395.899 458.263 396.007 450.903 395.271ZM297.04 398.239C296.231 399.049 296.905 400.08 295.858 400.604C295.105 400.981 294.018 400.434 293.493 401.485C292.261 403.948 294.119 414.79 296.436 417.107C294.469 419.403 291.984 421.726 289.367 423.296C288.129 424.039 287.58 423.322 286.424 424.479C287.928 427.487 286.878 428.15 285.241 429.787C287.105 431.65 287.007 431.52 290.248 431.271C292.364 431.108 292.011 428.274 292.914 427.145C295.053 424.472 298.966 422.035 301.745 420.051C302.701 419.368 303.515 420.067 304.411 419.17C299.64 414.399 300.956 415.78 300.286 407.397C300.198 406.301 299.148 405.112 299.682 404.151C302.563 398.965 302.198 400.818 297.04 398.239ZM421.947 406.541C420.929 406.519 419.936 406.766 419.356 407.346C420.581 409.184 419.414 409.737 417.871 410.894C421.101 414.123 422.343 419.471 425.846 422.39C426.324 422.788 427.272 422.634 427.909 423.271C426.175 426.739 425.867 430.834 422.601 433.284C424.303 435.198 426.38 436.297 424.362 438.315C425.641 440.234 428.517 439.442 429.67 437.711C430.37 436.662 429.67 434.354 429.67 433.284C429.67 430.786 433.501 423.459 435.557 422.089C434.129 419.946 431.655 421.95 429.972 419.145C428.53 416.742 425.623 413.899 424.941 411.17C424.539 409.565 426.357 408.616 424.664 407.346C424.007 406.854 422.964 406.563 421.947 406.541ZM359.582 412.956C359.106 413.016 358.663 413.196 358.324 413.535C359.312 415.512 357.344 415.698 356.261 416.78C358.555 421.369 358.443 427.568 363.053 430.642C360.639 433.861 358.342 436.813 355.682 439.472C356.778 441.663 358.558 442.771 355.959 444.504C357.133 445.677 359.032 446.765 360.689 445.384C362.763 443.656 361.286 441.907 362.751 440.076C365.249 436.955 367.818 433.551 370.424 430.944C369.502 429.561 368.214 430.452 367.179 429.158C365.503 427.063 364.947 423.439 363.934 420.906C363.221 419.125 364.342 415.606 363.632 414.717C362.812 413.693 361.009 412.777 359.582 412.956ZM343.003 413.837C337.894 412.986 344.759 427.909 346.827 429.46C345.641 431.831 342.543 434.926 340.638 436.831C339.963 437.506 339.395 436.676 338.877 437.711C337.872 439.721 342.435 440.648 338.877 443.02C343.228 447.371 344.217 441.693 345.644 439.196C347.43 436.07 351.387 431.87 354.198 429.762C353.174 428.737 352.196 429.219 351.254 428.277C348.044 429.883 347.48 414.583 343.003 413.837ZM298.776 459.825C296.607 459.524 296.425 476.897 295.833 480.454C294.805 486.62 293.992 492.849 293.166 499.045C292.884 501.163 291.642 504.365 291.984 506.416C292.216 507.812 298.932 506.433 299.078 506.416C300.921 506.212 314.983 505.234 315.279 503.75C315.765 501.322 312.095 494.909 311.154 492.555C308.136 485.01 305.166 477.259 302.6 469.561C301.678 466.796 301.643 460.222 298.776 459.825ZM303.48 484.882C304.64 484.616 309.652 499.77 309.393 500.202C308.347 501.945 300.935 502.251 300.839 501.385C300.516 498.475 301.856 494.55 302.298 491.674C302.579 489.848 301.631 485.306 303.48 484.882ZM615.71 464.529C613.834 465.065 613.24 467.578 611.861 468.957C609.907 470.91 606.93 471.993 604.489 472.806C600.594 474.104 596.646 473.956 592.691 474.869C592.42 474.931 592.172 475.176 592.112 475.448C591.378 478.751 592.682 482.34 592.112 485.762C591.272 490.801 588.734 496.039 586.502 500.504C582.171 509.166 579.342 517.584 573.822 525.863C574.973 527.013 576.028 527.912 577.37 528.806C574.598 532.272 581.754 535.514 584.439 537.662C590.996 542.907 597.561 548.131 604.187 553.285C606.523 555.101 611.561 557.582 613.043 560.052C613.914 561.503 610.606 566.76 610.099 568.027C608.913 570.993 608.073 578.617 605.093 580.404C599.397 583.822 592.978 584.578 596.54 575.675C597.437 573.43 598.416 571.203 599.181 568.907C600.197 565.861 601.289 562.654 602.728 559.775C601.959 559.006 599.803 558.671 599.483 557.712C598.99 556.232 601.374 555.754 599.785 554.165C599.143 553.523 596.323 553.067 595.357 552.681C589.292 550.255 583.134 548.038 577.068 545.612C575.612 545.029 571.806 542.669 570.3 542.97C569.225 543.185 567.525 549.198 567.357 550.039C565.845 557.601 560.205 565.012 555.256 570.668C558.323 574.349 563.722 578.268 564.992 583.348C565.987 587.328 566.148 590.605 566.753 594.845C566.871 595.669 568.855 595.884 569.118 596.606C569.532 597.744 568.469 599.534 569.697 600.455C570.997 601.43 573.988 601.87 575.609 602.518C582.275 605.184 589.129 607.745 595.936 610.468C597.861 611.238 612.006 617.285 612.741 616.958C614.751 616.065 616.022 613.168 618.049 611.952C623.921 608.429 630.443 608.564 636.917 606.946C638.91 606.447 637.274 599.791 637.798 596.908C638.689 592.004 640.979 587.094 642.829 582.467C645.65 575.416 648.028 567.893 651.358 561.234C651.908 560.135 655.426 555.776 654.905 555.046C654.136 553.97 652.808 553.42 651.961 552.404C651.278 551.584 653.485 551.198 652.842 550.341C647.835 543.665 635.792 536.178 628.968 530.869C625.568 528.225 619.963 525.226 617.471 521.737C616.749 520.727 619.368 516.785 619.835 515.85C621.718 512.086 622.727 503.185 626.301 500.504C627.389 499.689 629.96 499.201 631.332 498.743C632.091 498.49 633.81 497.407 634.578 497.561C637.454 498.136 636.053 502.867 635.458 504.353C634.133 507.667 627.897 521.301 628.364 524.102C628.577 525.379 630.849 524.655 631.332 525.863C632.06 527.681 629.575 527.653 631.609 529.687C632.368 530.446 635.771 531.015 636.917 531.473C641.893 533.463 655.928 537.201 659.333 540.605C661.716 539.017 662.368 533.292 663.458 530.567C665.223 526.157 666.172 520.29 669.069 516.429C670.924 513.955 673.243 511.626 674.955 509.058C675.4 508.391 672.426 505.759 672.012 504.932C673.226 503.718 664.572 492.974 663.458 490.19C662.463 487.7 661.237 481.64 659.031 479.875C657.844 478.926 654.955 478.617 653.446 478.114C645.558 475.485 637.551 472.642 629.848 469.561C627.948 468.801 616.981 464.166 615.71 464.529ZM617.471 469.561C618.192 469.167 621.948 470.989 622.779 471.322C627.664 473.276 632.26 474.977 637.219 476.63C641.715 478.128 652.348 480.542 655.785 483.121C657.273 484.236 660.009 492.307 661.396 494.617C662.057 495.719 667.594 504.024 667.584 504.052C666.637 506.894 663.154 508.749 661.974 511.699C660.223 516.077 657.787 527.408 654.905 530.291C649.588 527.632 643.625 525.708 638.1 523.498C637.133 523.111 634.597 522.869 633.974 522.039C633.082 520.85 634.956 517.381 635.458 516.127C636.592 513.293 641.53 502.361 641.043 499.926C640.883 499.125 633.707 488.435 633.672 488.429C632.298 488.2 620.867 492.529 620.112 493.435C619.006 494.762 619.064 497.016 618.351 498.441C614.853 505.438 612.688 513.314 609.219 520.253C617.915 527.862 627.214 534.992 636.339 542.09C639.422 544.487 645.222 547.569 647.232 550.92C647.715 551.726 644.766 555.852 644.288 556.807C641.045 563.293 639.484 570.869 636.339 577.159C633.991 581.854 632.464 587.651 631.609 592.782C631.324 594.492 632.522 598.156 630.729 598.694C626.244 600.039 621.142 599.776 616.867 601.914C614.268 603.214 612.043 605.807 609.496 607.222C608.416 607.822 602.197 604.469 600.967 603.977C593.554 601.011 586.323 598.325 579.131 595.449C577.634 594.85 571.32 593.446 570.879 591.901C569.898 588.467 570.167 584.54 568.539 581.285C567.377 578.961 566.184 576.433 564.388 574.518C563.149 573.196 560.193 572.074 560.866 570.392C562.86 565.408 567.349 561.405 569.42 556.228C570.071 554.6 570.738 550.217 572.061 549.159C573.527 547.987 587.437 554.001 590.049 555.046C590.858 555.369 594.937 556.282 595.055 557.109C595.638 561.189 589.303 570.365 588.565 574.794C588.09 577.644 593.222 586.521 595.357 588.656C599.277 586.696 605.221 585.893 608.615 583.348C610.702 581.783 614.34 569.444 615.408 566.241C615.814 565.022 619.335 556.768 618.93 556.228C616.674 553.22 611.593 550.661 608.615 548.278C599.042 540.62 588.096 533.646 579.433 524.983C588.403 513.022 594.284 493.934 596.54 479.271C596.655 478.521 604.964 477.265 606.552 476.63C610.607 475.008 613.576 471.685 617.471 469.561ZM131.605 465.435C127.41 466.274 123.29 468.483 119.227 469.837C111.377 472.454 103.345 475.038 95.6544 478.114C94.4629 478.591 85.3533 481.507 85.3147 482.24C84.8337 491.379 83.581 499.211 75.0002 504.932C81.6574 512.421 84.3437 520.316 87.9814 529.41C94.4283 545.528 100.321 562.039 108.032 577.461C110.596 582.588 112.923 589.597 113.341 595.449C113.525 598.027 112.102 602.189 114.523 603.096C118.168 604.463 123.344 602.599 127.479 603.977C131.995 605.482 134.815 608.737 138.699 611.65C139.39 612.168 140.298 610.616 141.039 611.071C142.276 611.832 142.688 614.032 144.284 613.713C156.024 611.365 167.569 604.19 178.775 600.455C180.07 600.023 189.363 595.984 189.391 595.725C189.858 591.526 190.246 588.56 191.178 584.832C192.28 580.423 196.944 575.995 199.706 572.731C199.849 572.563 200.222 571.825 200.008 571.549C197.841 568.762 195.362 566.372 193.517 563.297C187.804 553.775 185.743 541.283 180.838 531.473C179.155 528.106 178.286 520.51 173.467 522.92C172.544 521.997 172.148 520.79 171.404 519.674C162.225 522.734 153 526.09 144.007 529.687C141.996 530.492 135.557 531.568 134.573 533.536C134.017 534.649 136.456 538.582 136.913 539.725C139.29 545.667 140.995 552.81 144.284 558.291C145.218 559.847 146.388 558.128 147.529 558.291C148.694 558.457 149.244 560.259 149.894 561.234C150.734 560.815 153.449 559.526 154.322 559.775C155.015 559.973 159.48 571.821 159.328 573.033C159.129 574.626 155.124 581.765 153.718 582.467C153.229 582.712 150.161 581.569 149.592 581.285C148.411 580.694 143.75 567.095 142.825 564.782C136.098 547.964 129.169 531.107 122.473 514.366C120.828 510.254 118.137 498.859 122.775 496.077C126.099 494.082 128.073 499.604 128.963 501.385C130.526 504.51 135.665 520.673 137.794 521.737C138.616 522.149 140.031 521.222 140.762 520.857C141.816 521.911 141.714 522.991 142.825 524.102C149.569 520.73 157.578 518.95 164.637 516.127C166.32 515.454 170.526 514.94 171.404 513.184C171.799 512.394 165.741 498.688 164.938 496.68C162.282 490.038 161.694 485.063 161.089 477.812C160.992 476.64 157.551 476.744 157.265 476.63C155.964 476.109 156.895 474.846 155.781 474.567C152.754 473.81 149.696 473.52 146.649 472.504C144.598 471.82 131.954 465.365 131.605 465.435ZM131.605 470.139C134.791 471.201 137.435 473.616 140.762 474.567C144 475.492 150.329 476.185 152.536 478.391C150.369 482.724 156.186 496.585 158.448 501.108C159.32 502.853 161.783 507.799 160.209 509.058C158.462 510.455 155.229 510.864 153.14 511.699C151.556 512.333 140.982 516.841 140.158 516.429C136.551 514.625 133.346 497.09 130.422 493.435C129.049 491.718 116.139 488.055 115.102 489.611C113.226 492.425 109.793 500.685 109.793 504.052C109.793 507.777 114.722 516.349 116.284 520.253C121.727 533.86 126.304 548.267 132.787 561.234C135.387 566.434 137.11 572.042 139.278 577.461C139.859 578.913 140.148 581.279 141.039 582.467C143.493 585.739 152.145 585.957 155.781 587.776C158.475 584.409 162.315 578.201 163.454 574.216C163.85 572.831 159.075 561.634 158.146 559.775C157.494 558.471 156.197 551.541 154.599 551.222C152.459 550.794 148.37 555.277 146.649 552.983C143.266 548.473 142.673 541.508 140.158 536.479C144.018 532.62 156.515 529.806 161.97 527.624C163.308 527.089 167.866 524.583 169.064 524.983C170.602 525.495 171.741 530.328 172.31 531.75C174.673 537.659 177.005 543.502 179.379 549.436C181.197 553.981 182.474 558.871 184.964 563.021C185.739 564.313 190.432 569.435 189.995 570.09C184.79 577.898 181.906 581.306 180.561 590.719C180.337 592.288 172.537 594.375 171.127 594.845C162.785 597.626 154.836 600.823 146.951 603.977C145.031 604.745 142.963 606.329 140.762 606.644C139.729 606.791 131.941 601.045 129.265 600.153C125.522 598.905 122.245 599.181 118.347 598.694C118.071 598.659 117.819 598.363 117.768 598.09C117.224 595.186 117.586 592.155 116.863 589.26C113.707 576.638 106.432 564.026 101.542 551.8C99.0364 545.538 97.1268 538.665 93.8682 533.234C88.5252 524.329 88.4026 512.724 80.9122 505.234C84.3696 501.344 87.4124 497.326 88.8619 492.253C89.3577 490.518 89.3888 485.043 90.6229 484.303C93.0293 482.859 96.504 482.225 99.1765 481.334C106.635 478.848 114.29 476.305 121.592 473.385C123.681 472.549 129.43 469.414 131.605 470.139ZM416.689 555.624C416.493 555.523 416.302 555.53 416.11 555.649C413.341 557.38 415.432 557.975 414.047 560.052C411.55 563.798 407.034 566.486 404.312 569.209C405.621 570.519 408.001 570.275 408.437 572.455C408.958 575.058 411.432 580.829 410.802 583.348C410.65 583.958 409.723 584.211 409.62 584.832C409.345 586.484 409.918 586.495 411.381 587.776C414.176 590.221 414.343 586.585 415.507 585.713C416.318 585.104 416.811 585.616 417.595 584.832C415.136 579.916 416.787 573.692 411.985 570.09C414.324 567.75 417.373 565.298 419.054 562.417C419.431 561.771 418.063 556.333 416.689 555.624ZM314.399 557.989C311.861 559.258 312.915 561.589 312.915 563.901C312.915 566.652 308.892 573.232 307.028 575.096C308.188 576.256 309.682 575.002 310.852 575.977C313.054 577.812 316.933 583.171 317.644 586.015C317.884 586.973 317.166 587.986 317.342 588.958C317.738 591.135 322.47 590.622 323.254 589.838C322.199 587.728 322.78 587.58 324.713 586.291C323.215 583.294 319.669 576.897 317.04 574.794C316.476 574.343 315.42 574.633 314.701 573.914C315.169 572.977 318.909 563.734 318.827 563.599C317.669 561.718 316.007 559.597 314.399 557.989Z" fill="#FFFFFF" fill-rule="nonzero" opacity="1" stroke="none" vectornator:layerName="path"/>
</g>
</svg>
