<?xml version="1.0" encoding="UTF-8" standalone="no"?>
<!DOCTYPE svg PUBLIC "-//W3C//DTD SVG 1.1//EN" "http://www.w3.org/Graphics/SVG/1.1/DTD/svg11.dtd">
<!-- Created with Vectornator (http://vectornator.io/) -->
<svg height="100%" stroke-miterlimit="10" style="fill-rule:nonzero;clip-rule:evenodd;stroke-linecap:round;stroke-linejoin:round;" version="1.1" viewBox="0 0 750 1000" width="100%" xml:space="preserve" xmlns="http://www.w3.org/2000/svg" xmlns:vectornator="http://vectornator.io" xmlns:xlink="http://www.w3.org/1999/xlink">
<defs/>
<g id="Layer-1" vectornator:layerName="Layer 1">
<path d="" fill="none" opacity="1" stroke="#f5c81a" stroke-linecap="butt" stroke-linejoin="round" stroke-width="1" vectornator:layerName="path"/>
<path d="M374.395 213.924C370.52 217.799 367.165 222.119 362.823 225.496C359.768 227.872 355.946 229.534 353.023 231.726C348.28 235.282 341.284 236.963 335.829 239.145C323.831 243.944 311.941 247.793 301.694 255.478C294.167 261.123 284.318 269.391 280.625 278.623C279.29 281.962 276.93 287.159 274.978 289.892C272.316 293.618 266.18 298.082 263.406 300.857C259.44 304.823 247.442 323.419 248.288 329.344C248.49 330.758 253.795 333.149 255.1 333.801C258.788 335.645 262.257 337.611 266.09 339.144C268.826 340.239 272.48 340.495 274.7 342.715C270.166 351.782 267.628 362.672 266.09 372.672C259.183 417.569 290.046 450.919 324.256 475.355C337.109 484.535 351.211 490.269 364.013 498.804C362.057 502.714 360.169 506.494 358.973 510.68C358.466 512.456 358.708 515.865 357.479 517.188C349.286 526.012 341.026 535.347 332.258 543.599C330.724 545.043 326.73 544.966 324.839 546.587C323.436 547.789 320.986 552.178 319.495 552.817C313.835 555.243 303.922 555.653 297.541 557.248C277.774 562.19 257.818 567.086 238.184 572.695C228.97 575.328 217.672 576.418 209.114 580.697C202.923 574.506 194.461 571.193 186.248 568.846C155.087 559.943 132.4 572.105 112.356 595.232C75.3309 637.954 54.0407 727.026 105.848 765.881C123.218 778.908 145.229 783.472 166.673 781.607C180.071 780.442 194.736 773.729 208.228 775.656C216.192 776.794 220.687 783.692 227.802 786.064C228.783 786.391 235.226 780.2 237.906 779.53C245.862 777.541 254.184 777.745 262.216 779.53C268.269 780.876 274.267 782.338 280.321 783.683C281.945 784.044 285.612 785.813 286.855 784.57C284.104 781.819 282.376 777.307 280.321 773.883C274.564 764.289 268.941 754.783 259.557 748.08C252.719 743.195 243.314 740.204 234.918 739.774C231.251 739.586 226.55 741.459 223.953 738.862C227.324 735.491 231.716 733.176 235.222 729.67C238.812 726.08 240.767 721.352 243.528 717.211C244.719 718.402 244.67 724.197 245.3 726.403C246.821 731.727 252.047 737.114 257.176 739.166C265.57 742.524 274.808 741.991 283.284 739.166C286.157 738.208 289.703 734.709 292.502 734.709C294.891 734.709 297.647 738.528 300.2 739.166C304.911 740.344 309.049 741.546 314.152 741.546C317.325 741.546 326.4 737.635 328.105 737.976C329.177 738.19 330.227 739.766 331.372 740.052C336.07 741.227 340.509 742.473 345.603 741.546C349.178 740.896 352.732 739.159 355.707 737.672C356.481 737.285 357.348 735.9 358.366 735.899C359.539 735.899 360.939 737.919 361.936 738.584C364.363 740.202 367.702 740.995 370.546 741.243C372.133 741.381 378.222 740.155 379.738 740.66C380.121 740.788 380.613 741.85 381.232 741.85C393.597 741.85 405.968 741.838 418.33 741.546C418.609 741.54 418.808 741.198 418.912 740.939C420.548 736.849 420.151 729.039 423.369 725.821C424.755 727.207 424.474 728.659 425.445 730.278C427.04 732.936 429.58 735.578 431.675 737.672C433.297 739.295 436.616 740.117 438.79 740.66C451.804 743.914 461.042 737.979 471.735 732.633C479.755 740.653 490.702 742.61 501.692 739.47C503.422 738.976 506.066 738.362 507.339 737.09C517.406 744.64 528.421 741.335 537.903 735.013C546.996 742.591 558.191 742.81 568.468 737.672C572.627 735.592 575.992 731.726 579.762 729.088C579.924 728.974 580.183 728.973 580.344 729.088C591.567 737.104 595.809 742.129 610.908 742.129C617.645 742.129 623.893 738.584 630.483 738.584C634.588 738.584 644.46 750.903 648.892 753.119C650.469 751.542 649.83 737.556 650.969 734.709C654.558 725.736 667.247 719.999 675 714.831C672.187 711.08 659.19 706.081 654.539 704.753C653.233 704.379 646.967 703.861 646.816 702.955C645.053 692.375 640.162 681.896 639.092 671.2C638.551 665.789 642.978 657.895 639.396 653.12C635.083 647.368 626.083 640.357 618.328 640.357C616.081 640.357 612.868 643.186 611.212 644.51C610.767 644.213 610.771 644.199 610.326 643.902C612.208 640.139 611.668 634.821 613.567 631.444C614.653 629.514 617.144 628.302 618.024 626.1C620.032 621.082 620.987 615.894 620.987 610.071C620.987 596.662 607.864 584.493 599.032 576.544C579.154 558.654 559.308 539.496 537.903 523.443C539.59 521.756 544.412 521.256 546.817 520.454C554.467 517.904 563.596 513.339 571.734 513.339C573.609 513.339 575.366 515.761 576.773 516.605C578.877 517.867 582.405 517.796 584.497 517.796C584.905 517.796 585.3 517.621 585.687 517.492C602.682 511.827 592.634 475.875 578.571 474.469C573.592 473.971 566.734 475.149 565.201 481.28C564.591 483.721 564.617 485.757 562.542 487.535C559.426 490.206 552.453 490.418 548.589 491.384C540.356 493.442 532.121 495.861 523.95 498.196C522.659 498.565 512.617 501.693 512.099 501.462C506.757 499.088 503.381 492.605 499.615 488.421C498.209 486.858 495.653 485.755 495.462 483.661C494.946 477.977 492.885 473.162 490.423 468.239C488.145 463.683 483.863 459.577 480.345 456.059C479.18 454.894 478.66 447.304 476.774 444.79C473.681 440.665 470.745 436.988 466.975 433.218C464.46 430.703 462.578 425.589 461.049 422.532C459.29 419.013 456.568 415.569 454.516 412.15C445.095 396.449 434.494 381.129 422.761 367.05C415.64 358.504 408.069 350.264 399.616 343.019C395.41 339.413 388.479 336.397 385.081 332.029C383.679 330.226 384.705 327.466 384.499 325.192C384.04 320.151 383.217 315.017 382.118 310.074C380.544 302.989 378.813 294.166 375.003 287.815C373.915 286.002 372.282 283.989 371.432 281.865C371.048 280.904 373.948 277.664 374.395 276.547C375.87 272.859 377.507 264.825 380.346 261.986C379.136 259.566 384.732 249.786 383.005 248.059C382.161 248.481 382.564 248.195 381.814 248.945C379.764 247.578 383.005 239.788 383.005 237.373C383.005 235.551 379.698 234.753 379.434 233.498C378.268 227.96 379.011 218.54 374.395 213.924ZM372.622 222.534C376.975 225.436 375.515 237.209 373.509 241.222C373.954 241.518 373.95 241.507 374.395 241.804C376.175 240.024 376.185 240.039 377.965 238.259C379.049 239.343 377.712 242.187 377.358 243.602C376.042 248.865 374.828 256.236 370.85 260.214C371.147 260.51 371.135 260.499 371.432 260.796C372.874 259.835 374.445 259.1 375.889 258.137C377.083 261.719 370.855 272.799 369.356 276.547C368.738 278.091 366.089 280.205 366.089 281.865C366.089 283.091 368.581 285.592 369.356 286.625C371.745 289.811 373.125 294.692 374.395 298.502C378.227 309.996 378.035 321.949 380.928 333.523C382.044 337.988 391.761 342.315 395.16 345.095C404.537 352.767 412.668 361.916 420.406 371.203C431.721 384.781 441.885 399.666 450.971 414.808C454.052 419.944 457.082 425.121 460.163 430.255C461.292 432.137 462.155 434.932 463.708 436.485C466.791 439.568 469.7 442.49 472.318 445.981C475.085 449.67 474.136 453.995 475.584 457.857C476.855 461.245 482.355 464.061 484.498 467.631C486.735 471.36 489.216 474.977 490.423 479.204C491.02 481.291 490.558 484.591 491.31 486.345C491.614 487.055 492.561 487.267 493.107 487.814C495.866 490.573 497.557 494.364 500.223 497.031C501.171 497.979 510.282 506.153 510.909 506.223C515.241 506.704 521.838 503.267 526.027 502.07C534.402 499.677 542.904 497.346 551.274 494.955C555.415 493.771 562.185 493.099 565.505 490.194C569.339 486.839 567.306 480.19 572.924 478.318C583.501 474.792 590.422 493.574 590.422 501.462C590.422 505.766 589.44 513.643 583.307 513.643C577.83 513.643 575.79 508.603 572.342 508.603C562.14 508.604 550.16 514.605 540.587 517.796C537.532 518.814 531.208 519.452 529.015 521.645C549.394 537.948 568.779 555.734 588.346 572.999C597.271 580.874 610.452 589.988 614.479 602.069C616.828 609.116 617.862 617.677 613.871 624.328C612.936 625.887 609.797 627.38 609.414 628.785C608.222 633.155 608.506 638.022 606.452 642.13C604.604 645.825 598.851 654.511 593.689 651.93C592.705 652.914 592.543 654.489 592.22 655.779C591.404 659.046 587.852 661.65 585.383 663.502C583.299 665.065 575.483 665.864 575.305 666.161C572.473 670.88 572.356 679.735 571.152 685.153C570.576 687.742 567.1 699.814 568.468 701.182C579.599 686.34 591.385 671.641 603.793 657.855C604.443 657.133 616.417 643.485 620.404 644.814C624.439 646.159 636.13 652.774 636.13 656.969C636.13 663.023 633.877 667.511 634.94 673.884C636.288 681.976 640.007 689.372 641.777 697.333C642.515 700.655 642.266 703.736 642.663 707.108C642.846 708.662 648.276 708.067 649.779 708.298C653.88 708.929 663.849 711.74 666.112 715.135C659.239 720.633 652.913 724.394 647.398 731.747C644.871 735.117 647.762 741.911 644.739 743.927C641.587 741.562 635.655 734.127 631.091 734.127C620.504 734.127 613.651 738.728 601.995 736.786C596.76 735.913 591.514 733.049 587.46 729.67C585.658 728.169 580.549 722.502 580.04 722.858C572.318 728.264 567.32 734.878 557.782 736.786C553.157 737.71 547.854 736.527 543.854 734.127C542.277 733.181 539.656 728.182 538.207 729.088C533.626 731.951 529.219 737.09 523.368 737.09C520.287 737.09 516.931 737.581 514.176 736.203C512.253 735.242 510.725 733.083 508.833 732.05C508.615 731.931 496.905 736.507 495.184 736.507C483.627 736.507 480.573 734.234 472.318 727.011C472.169 726.881 471.919 726.938 471.735 727.011C468.006 728.503 465.153 731.999 461.353 733.519C453.22 736.773 445.724 737.772 437.018 735.596C436.099 735.366 434.695 734.463 434.055 733.823C422.773 722.541 429.003 706.392 432.865 692.876C433.447 690.839 438.371 678.485 436.132 678.037C433.764 677.564 429.184 688.253 428.408 690.192C424.194 700.727 422.015 712.278 418.912 723.137C417.847 726.864 417.571 732.995 415.646 736.203C415.43 736.563 415.179 737.077 414.759 737.09C405.367 737.377 395.97 737.283 386.575 737.09C385.168 737.061 386.35 734.882 386.575 734.431C383.679 733.466 378.543 737.09 375.281 737.09C366.908 737.09 365.007 735.002 358.973 729.974C350.779 735.437 344.597 738.56 334.335 736.507C332.02 736.044 330.325 733.307 328.105 732.937C326.603 732.686 318.064 737.09 315.039 737.09C305.028 737.09 300.821 734.663 293.388 729.088C293.056 728.838 285.245 733.586 283.892 734.127C276.458 737.1 267.79 738.656 260.139 735.596C238.306 726.862 254.172 689.718 261.937 674.188C261.739 673.99 261.608 673.601 261.329 673.58C258.863 673.398 256.376 673.398 253.91 673.58C253.631 673.601 253.453 673.938 253.327 674.188C251.137 678.57 250.226 684.563 248.871 689.306C243.21 709.117 232.812 740.904 206.43 736.507C201.559 735.695 195.284 734.553 191.591 730.86C183.13 735.091 181.737 738.293 170.244 736.203C168.344 735.858 164.728 734.84 163.407 733.519C159.885 736.336 154.207 741.993 148.872 740.052C146.879 739.328 145.17 733.388 143.528 731.747C140.032 728.25 135.032 726.82 131.652 723.441C137.47 719.562 145.398 718.304 150.644 713.058C148.151 708.072 148.902 701.086 149.454 695.839C151.242 678.852 165.765 650.739 185.083 650.739C188.094 650.739 193.194 650.782 196.048 652.208C196.642 651.614 197.29 648.073 198.124 648.055C207.222 647.862 216.324 647.862 225.422 648.055C226.5 648.078 225.816 649.279 225.726 649.549C224.35 653.676 223.816 658.101 222.763 662.312C219.814 674.107 217.677 686.152 214.736 697.915C214.1 700.46 211.095 709.114 212.963 710.982C223.221 697.305 227.865 678.45 232.563 662.008C233.838 657.543 235.457 652.61 236.108 648.055C236.179 647.558 235.694 645.747 236.994 645.7C244.902 645.414 252.834 645.7 260.747 645.7C261.445 647.795 259.15 649.875 261.937 649.853C274.301 649.756 286.674 649.561 299.035 649.853C300.438 649.886 298.379 653.275 298.123 653.702C295.914 657.385 293.811 661.137 291.894 664.971C286.576 675.607 280.901 687.458 278.245 699.41C277.619 702.225 275.941 712.77 278.245 713.058C281.398 713.452 285.269 709.426 286.551 707.411C287.58 705.794 287.142 701.331 287.462 699.41C288.706 691.947 290.888 683.037 294.274 676.265C299.468 665.877 305.658 656.611 315.95 650.436C320.207 647.881 326.322 648.367 330.764 648.663C331.829 648.734 334.286 650.195 334.942 648.663C338.205 641.051 339.062 630.962 340.868 622.834C341.121 621.694 341.205 618.709 341.754 617.795C343.007 615.706 358.277 610.514 361.354 609.489C362.888 608.978 373.242 604.443 373.813 604.728C374.942 605.293 370.443 620.562 369.938 622.834C365.205 644.133 359.816 665.448 354.517 686.647C353.118 692.243 352.077 697.907 350.946 703.562C350.703 704.781 349.275 709.123 350.946 709.792C353.927 710.984 358.377 699.521 359.252 697.333C365.213 682.431 370.055 665.087 372.319 649.245C372.355 648.99 372.942 648.061 373.205 648.055C382.402 647.862 391.609 647.862 400.806 648.055C402.033 648.081 400.356 652.05 400.224 652.512C398.681 657.913 397.133 663.38 395.767 668.845C393.558 677.682 390.868 686.389 388.652 695.257C387.614 699.407 387.242 705.192 385.385 708.906C388.292 711.813 393.985 701.777 394.577 699.41C396.967 689.852 401.592 680.06 404.377 670.314C406.343 663.434 406.813 655.17 409.416 648.663C409.52 648.403 409.719 648.061 409.999 648.055C419.097 647.862 428.223 647.862 437.322 648.055C438.549 648.081 437.454 650.04 437.322 650.436C439.224 651.07 442.704 648.761 444.716 648.359C448.46 647.61 456.261 647.749 459.555 651.043C462.003 653.491 464.149 655.303 465.202 658.463C468.173 667.375 461.963 685.247 459.276 694.649C458.345 697.908 453.938 710.683 456.01 712.755C458.765 711.377 461.562 710.827 463.429 707.715C463.942 706.861 464.233 702.451 464.316 701.79C464.934 696.845 465.909 691.743 467.278 686.951C473.124 666.492 488.638 643.013 513.568 649.245C514.057 648.512 514.588 647.473 515.645 647.473C522.372 647.473 529.1 647.698 535.827 647.777C537.716 647.799 541.239 646.484 541.474 648.359C541.924 651.965 539.38 657.644 538.511 661.122C535.903 671.555 533.977 682.144 531.37 692.572C530.733 695.12 529.719 704.909 528.407 706.221C528.704 706.518 528.718 706.532 529.015 706.829C541.887 698.248 546.103 677.15 548.893 663.198C549.603 659.65 552.538 652.724 551.274 649.245C549.778 645.132 544.641 640.709 542.056 637.091C536.074 628.716 530.236 620.244 524.254 611.869C512.735 595.742 502.541 578.705 491.031 562.591C485.758 555.209 481.697 545.559 475.306 539.168C463.429 545.106 449.036 548.304 436.41 552.513C416.566 559.128 397.202 567.271 377.358 573.885C367.241 577.257 357.519 581.781 347.401 585.154C341.147 587.238 333.638 589.558 328.105 592.877C323.311 595.754 317.04 596.615 312.38 599.41C304.288 604.266 293.736 605.314 285.386 609.489C276.741 613.811 266.858 616.241 257.784 619.871C242.752 625.884 227.13 631.085 211.773 636.204C193.517 642.29 175.426 648.809 157.177 654.892C148.749 657.702 139.672 662.766 130.766 660.539C127.906 659.824 124.463 655.878 122.764 654.31C121.392 655.682 120.917 658.673 120.384 660.539C117.79 669.615 115.796 678.473 114.458 687.837C113.348 695.606 113.263 703.515 114.458 711.286C115.381 717.282 117.578 723.298 120.687 728.48C147.569 773.283 202.488 736.602 242.059 745.395C259.872 749.354 268.21 763.857 277.662 778.036C276.582 779.117 273.206 777.482 271.712 777.15C266.113 775.906 260.519 774.646 254.796 773.883C247.544 772.916 241.57 774.297 234.918 775.96C232.897 776.465 229.397 781.039 227.802 780.721C226.1 780.38 223.967 778.055 222.459 777.15C217.979 774.462 212.316 770.921 206.734 770.921C196.584 770.921 186.907 773.686 177.056 775.656C166.36 777.795 155.237 778.199 144.415 776.846C115.228 773.198 89.3237 751.77 82.0958 722.858C79.2977 711.666 79.2782 700.21 80.0193 688.723C81.0182 673.24 84.6311 656.86 90.4016 642.434C104.845 606.326 131.483 565.202 176.473 571.201C185.067 572.347 193.411 575.372 200.808 579.811C203.219 581.257 205.275 584.285 207.62 585.458C209.522 586.409 216.846 583.086 218.914 582.495C229.433 579.489 240.111 576.894 250.643 573.885C268.409 568.809 286.471 564.713 304.378 560.236C309.974 558.837 317.253 558.897 322.458 556.666C323.363 556.278 327.128 550.72 328.688 549.55C330.275 548.36 333.726 548.69 334.942 547.474C344.038 538.378 352.796 528.653 361.632 519.264C363.157 517.644 362.69 513.483 363.43 511.262C365.188 505.99 367.771 501.973 370.242 497.031C365.885 492.674 354.641 488.921 348.87 485.459C332.198 475.456 315.269 465.202 301.39 451.324C279.79 429.724 266.293 405.464 270.243 373.862C271.114 366.895 273.073 360.028 275.282 353.401C276.278 350.413 279.252 346.229 279.435 343.297C279.515 342.014 279.605 340.723 279.435 339.448C279.279 338.274 275.28 337.666 274.396 337.372C269.44 335.72 264.492 332.3 259.861 331.142C258.249 330.74 253.902 328.883 253.631 326.989C252.963 322.313 264.528 305.989 267.559 302.958C271.103 299.414 275.156 296.252 278.549 292.551C280.769 290.128 282.982 284.316 284.196 281.282C288.33 270.946 299.958 260.347 309.696 255.478C330.781 244.936 355.467 239.689 372.622 222.534ZM473.558 544.334L541.904 643.421L511.365 643.497L511.593 644.535C511.593 644.535 500.898 644.814 495.032 645.675C489.166 646.536 483.18 652.238 479.205 655.677C475.23 659.116 469.532 668.541 469.532 668.541C469.532 668.541 469.474 665.731 469.608 661.578C469.742 657.424 468.99 655.809 463.05 648.663C457.109 641.517 442.969 644.89 442.969 644.89L443.019 643.877L403.06 643.877C403.06 643.877 410.809 638.399 412.733 631.064C414.658 623.728 414.215 614.479 399.794 607.995C385.373 601.51 375.838 617.795 375.838 617.795L381.004 597.334L338.614 613.92L331.195 644.763C331.195 644.763 322.374 644.253 313.773 647.245C305.171 650.237 300.782 657.425 300.782 657.425L307.138 646.232L265.634 645.472L266.748 641.775L233.424 641.649L227.929 661.248C228.045 661.365 228.178 661.472 228.41 661.704C227.79 662.944 228.003 663.884 226.916 664.971C226.907 664.962 226.899 664.954 226.891 664.945L224.105 674.923L226.612 664.414C226.019 663.26 226.569 661.81 227.448 660.894L231.499 643.953L202.682 644.333L473.558 544.334ZM392.197 610.375C399.391 609.843 407.084 614.073 408.834 621.948C410.485 629.377 405.556 641.547 396.35 641.547C389.217 641.547 378.244 637.994 378.244 628.785C378.244 624.958 378.468 619.368 381.511 616.326C385.113 612.723 387.393 610.731 392.197 610.375ZM163.305 657.425C163.305 657.425 157.497 663.245 153.202 671.757C148.906 680.269 146.382 685.193 145.428 693.307C144.473 701.421 145.883 711.058 145.883 711.058L127.677 720.984L127.525 725.441C127.525 725.441 130.876 728.754 134.311 730.607C137.746 732.459 141.764 736.866 142.845 738.989C143.925 741.111 145.706 743.876 145.706 743.876C145.706 743.876 149.368 744.39 153.227 743.927C157.086 743.464 159.004 742.269 160.393 741.42C161.783 740.571 164.268 738.482 164.268 738.482C164.268 738.482 168.568 741.749 177.739 740.584C186.91 739.42 191.439 736.153 191.439 736.153C191.439 736.153 192.504 737.221 198.327 739.065C204.149 740.909 210.735 741.344 210.735 741.344C210.735 741.344 182.246 746.936 172.7 747.016C163.154 747.096 154.408 748.746 141.68 742.939C128.952 737.132 117.819 722.186 117.978 706.196C118.137 690.206 118.916 682.082 120.586 674.923C122.257 667.763 124.182 661.324 124.182 661.324C124.182 661.324 126.168 665.224 133.247 665.224C140.327 665.224 146.446 662.763 151.378 661.172C156.311 659.581 163.305 657.425 163.305 657.425ZM369.356 232.308C367.272 233.35 365.402 235.894 363.43 237.373C359.841 240.065 355.751 241.934 351.858 243.881C345.65 246.985 338.406 249.057 331.676 251.3C318.198 255.793 306.367 263.846 296.047 274.166C294.497 275.716 283.856 290.704 284.778 292.855C286.212 296.2 298.266 296.425 300.2 296.425C304.152 296.425 307.472 293.741 311.772 293.741C315.849 293.741 319.52 298.791 323.648 299.97C326.043 300.655 328.931 299.327 330.764 301.16C319.971 311.953 317.48 323.589 315.646 338.258C315.529 339.201 310.924 339.184 309.999 339.448C307.288 340.223 304.494 341.771 301.998 343.019C293.647 347.194 280.766 359.848 277.055 369.126C274.476 375.574 274.7 385.282 274.7 391.664C274.7 420.542 305.398 449.423 325.725 464.669C331.874 469.28 338.438 473.482 345.021 477.431C350.85 480.929 356.933 485.057 363.126 487.535C367.448 489.264 374.138 491.431 377.358 494.651C374.421 500.525 364.741 509.851 366.672 517.188C367.947 522.035 376.453 516.615 378.852 515.415C382.983 513.35 400.314 503.69 400.806 499.994C401.424 495.361 399.121 493.963 397.236 490.194C399.206 488.224 402.692 492.328 403.769 493.764C406.66 497.618 405.884 501.133 403.187 504.729C405.963 508.199 412.991 509.603 417.14 511.262C425.576 514.637 435.315 517.248 443.551 521.366C446.64 522.911 451.725 524.952 455.124 525.519C457.644 525.939 468.753 530.856 470.241 529.368C465.562 522.35 461.961 512.478 456.01 506.527C454.615 505.132 446.851 503.035 444.437 502.07C438.947 499.874 433.316 497.56 428.104 494.955C424.581 493.193 420.252 492.547 416.836 490.498C409.803 486.278 401.092 484.653 393.995 480.394C387.763 476.655 380.669 474.966 374.395 471.202C360.156 462.659 345.299 455.584 332.866 443.904C317.433 429.407 306.274 412.054 310.303 389.891C311.913 381.038 315.535 373.654 320.686 366.442C321.666 365.069 325.674 358.592 327.523 362.289C328.265 363.775 323.463 368.034 322.458 369.709C318.448 376.392 314.284 384.741 313.874 393.158C313.635 398.045 312.839 405.523 315.039 410.655C316.597 414.292 318.292 418.606 320.103 422.228C324.305 430.632 332.774 438.645 339.678 444.487C360.341 461.971 386.701 473.82 410.606 483.382C419.498 486.939 428.095 491.203 436.714 494.651C440.928 496.336 444.983 498.852 449.173 499.69C453.551 500.566 458.372 503.365 462.543 505.033C470.537 508.23 478.611 510.988 486.574 513.643C488.513 514.289 497.807 517.956 498.729 517.188C502.227 514.273 499.241 507.946 497.843 504.451C495.727 499.162 491.702 492.202 486.878 489.308C482.765 486.84 476.654 486.085 472.039 484.547C435.116 472.239 396.334 459.956 365.507 435.294C362.671 433.026 354.645 433.239 350.668 430.255C341.197 423.153 328.835 409.591 330.182 396.12C330.3 394.937 331.361 394.351 331.954 395.538C334.226 400.081 334.141 406.168 337.297 410.377C344.021 419.342 355.976 435.593 370.242 430.838C380.352 427.468 374.233 425.271 369.66 421.063C364.843 416.632 361.452 412.551 357.783 407.414C356.621 405.786 352.397 399.469 354.517 398.197C354.686 398.095 354.938 398.082 355.099 398.197C359.365 401.244 362.192 408.256 365.785 412.15C375.38 422.544 383.863 427.292 398.148 427.292C400.29 427.292 405.624 425.133 404.656 422.228C404.244 420.993 400.915 420.067 399.92 419.569C394.652 416.935 389.127 411.738 385.081 407.693C384.504 407.116 379.269 401.561 380.042 400.273C381.906 397.167 386.29 404.022 388.93 406.503C394.255 411.504 400.972 417.371 407.922 420.151C420.044 425 431.931 421.294 419.216 408.579C418.712 408.075 418.012 407.81 417.418 407.414C419.031 405.801 421.436 408.43 422.761 409.491C428.636 414.191 425.568 416.129 426.636 422.532C426.811 423.585 431.12 424.787 431.979 425.216C437.815 428.134 444.11 430.413 450.363 432.914C451.503 433.37 456.839 435.991 457.479 434.712C457.896 433.878 454.699 430.038 454.212 429.065C450.955 422.552 446.385 416.62 442.639 410.377C430.771 390.596 416.225 372.061 399.92 355.756C395.363 351.198 390.009 347.338 384.777 343.601C384.153 343.155 381.599 341.122 380.928 341.525C378.376 343.056 381.72 346.659 379.738 348.64C375.036 345.114 375.558 334.189 375.281 329.344C374.654 318.374 370.733 294.082 361.354 286.043C361.054 285.786 360.359 286.224 360.164 286.321C357.468 287.669 354.911 288.504 352.136 289.892C351.84 289.595 351.851 289.581 351.554 289.284C358.279 282.559 362.784 276.295 366.672 268.52C366.375 268.223 366.386 268.234 366.089 267.937C360.617 270.673 355.209 272.909 349.756 275.635C349.459 275.338 349.47 275.35 349.174 275.053C352.632 271.594 356.675 268.742 360.164 265.253C364.849 260.568 367.41 254.889 370.242 249.224C369.945 248.927 369.956 248.938 369.66 248.641C365.731 252.57 360.517 255.732 355.707 258.137C353.668 259.157 350.799 259.475 349.174 261.1C348.728 260.803 348.732 260.814 348.287 260.518C354.565 254.24 365.53 250.245 367.862 240.918C368.411 238.722 371.172 234.124 369.356 232.308ZM280.043 299.388C278.459 300.971 276.36 302.003 274.7 303.541C272.595 305.49 270.499 307.438 268.47 309.466C267.467 310.47 258.292 323.547 258.974 324.913C264.061 319.826 286.847 317.466 291.311 323.419C291.015 323.716 291 323.73 290.704 324.027C285.533 321.442 270.976 325.517 263.355 325.723C262.876 326.086 262.417 326.479 262.52 326.989C262.784 328.313 267.448 329.432 268.749 329.952C275.063 332.478 281.423 334.991 288.349 334.991C294.221 334.991 296.654 325.333 296.654 321.039C296.654 317.084 294.1 312.112 290.704 310.074C289.336 309.253 285.565 309.567 285.386 308.58C284.664 304.608 284.91 301.525 280.043 299.388ZM308.151 299.945C307.679 299.988 307.198 300.088 306.733 300.274C294.619 305.12 306.263 322.117 314.456 313.923C314.16 313.626 314.171 313.637 313.874 313.341C302.666 318.944 304.264 299.802 309.417 303.237C307.678 304.976 308.021 307.209 309.696 308.884C310.705 307.875 311.071 306.622 312.076 305.617C313.393 304.3 315.323 305.333 316.533 304.123C314.647 302.028 314.495 301.107 312.38 300.578C310.999 300.233 309.567 299.816 308.151 299.945ZM408.834 423.418C407.03 425.222 406.804 427.143 404.377 428.761C407.118 431.502 411.01 432.989 414.455 434.712C427.514 441.241 439.765 447.285 453.629 451.906C458.778 453.622 463.914 455.258 469.051 456.971C469.524 457.128 470.341 457.685 470.545 456.667C471.635 451.216 466.151 445.157 462.822 441.828C459.68 438.686 454.842 438.724 450.971 436.788C445.66 434.133 439.322 432.808 434.055 429.647C431.361 428.031 427.299 424.863 423.951 424.026C423.032 423.796 419.727 425.12 418.912 425.216C415.312 425.64 412.065 425.034 408.834 423.418ZM380.346 427.875C377.349 430.871 373.037 432.221 370.85 434.408C377.315 441.951 387.932 445.925 396.35 450.133C415.557 459.737 435.928 468.357 456.01 475.051C463.571 477.571 471.113 480.536 478.851 482.47C480.375 482.852 485.209 485.172 485.688 482.774C486.82 477.112 477.301 465.526 473.812 463.2C471.202 461.46 467.345 460.335 464.316 459.326C448.24 453.967 429.756 448.8 415.646 440.334C413.223 438.88 400.627 430.3 399.034 430.255C392.993 430.087 386.055 430.729 380.346 427.875ZM574.925 481.888C569.805 482.435 573.178 486.682 570.544 490.194C568.54 492.866 565.775 494.365 562.846 495.537C559.256 496.973 554.797 497.649 550.97 498.5C542.973 500.277 535.064 503.095 527.217 505.337C523.657 506.354 517.066 506.878 514.454 509.49C516.856 512.492 521.808 517.531 525.444 518.986C526.459 519.391 535.92 515.671 537.599 515.111C545.589 512.448 553.68 510.072 561.656 507.413C564.647 506.416 568.571 505.778 571.152 503.843C572.995 502.461 575.298 501.103 576.495 499.107C577.354 497.675 576.498 496.116 577.66 494.955C580.703 497.997 578.524 509.175 580.926 510.376C586.205 513.015 587.156 503.297 587.156 501.184C587.156 497.878 581.862 482.211 577.66 481.888C576.539 481.802 575.656 481.81 574.925 481.888ZM504.072 506.527C501.477 509.122 509.696 520.343 503.186 521.645C496.126 523.057 480.315 515.601 473.204 512.756C471.265 511.981 463.948 508.364 462.543 509.768C470.069 524.819 481.736 538.339 490.423 552.817C509.031 583.829 530.741 613.503 552.438 642.434C554.695 640.929 555.167 621.917 556.313 618.099C556.631 617.038 560.145 616.318 561.048 615.414C558.136 609.59 552.051 604.002 548.007 598.803C536.929 584.56 525.836 570.326 514.758 556.083C509.88 549.811 502.879 543.264 499.337 536.18C502.541 532.976 504.817 536.761 506.453 538.864C510.998 544.709 515.556 550.518 520.101 556.362C530.83 570.156 541.521 583.965 552.438 597.613C556.452 602.629 560.438 610.005 565.505 613.946C566.345 614.599 568.754 612.752 569.354 612.452C573.342 610.458 579.937 610.2 583.307 606.83C581.804 603.824 578.811 601.845 576.495 599.41C570.564 593.175 564.616 586.916 558.668 580.697C543.967 565.328 529.139 550.095 514.454 534.711C518.359 530.807 523.918 539.037 528.407 543.599C531.498 546.74 534.531 549.931 537.599 553.095C554.449 570.471 571.285 587.895 588.067 605.336C593.493 610.974 599.202 617.079 604.679 622.555C605.598 623.475 607.317 622.398 607.946 621.644C619.319 607.996 600.342 590.616 592.22 582.495C577.383 567.658 560.754 554.187 544.74 540.637C531.335 529.293 518.366 516.737 504.072 506.527ZM400.427 508.502C399.698 508.359 399.081 508.382 398.73 508.603C394.144 511.493 387.836 514.772 383.005 517.188C380.942 518.219 378.803 520.175 376.471 520.758C374.502 521.251 370.259 522.361 368.748 523.721C364.03 527.967 359.454 532.444 354.821 536.788C353.882 537.667 344.918 545.142 345.603 546.284C346.565 547.887 357.176 548.585 359.556 548.056C363.932 547.084 370.527 546.528 374.395 544.207C376.193 543.129 377.173 539.181 379.434 537.674C380.926 536.679 383.441 537.202 384.777 536.18C388.167 533.588 390.766 530.095 393.691 526.988C395.28 525.3 407.19 513.343 406.453 511.87C405.873 510.709 402.613 508.933 400.427 508.502ZM414.759 514.833C409.134 520.458 402.383 525.402 397.236 531.444C395.141 533.904 400.88 533.774 403.187 534.103C404.184 534.246 405.051 535.421 405.846 535.597C407.778 536.027 409.951 534.869 411.796 534.407C419.436 532.497 427.052 530.345 434.638 528.178C436.761 527.571 440.835 527.324 442.361 525.798C441.224 524.092 437.261 523.515 435.22 522.835C428.459 520.581 421.134 518.02 414.759 514.833ZM448.286 527.292C446.446 527.292 443.894 528.605 442.057 529.064C435.908 530.601 429.801 532.565 423.647 534.103C419.851 535.052 411.906 535.766 409.112 538.56C412.416 545.168 414.843 550.437 410.302 557.248C411.303 558.249 423.27 553.687 425.445 552.817C436.59 548.359 448.172 544.735 459.555 540.94C463.614 539.587 470.481 538.624 473.508 535.597C471.561 533.002 466.26 532.922 463.125 532.027C458.878 530.813 452.599 527.292 448.286 527.292ZM400.503 540.637C391.451 540.637 380.774 545.562 372.015 547.752C368.529 548.624 361.795 549.084 359.252 551.627C366.366 558.741 365.517 568.511 359.556 575.962C359.853 576.258 359.867 576.247 360.164 576.544C370.962 571.145 383.603 568.293 394.881 563.781C397.536 562.719 405.992 561.438 407.34 558.742C409.905 553.611 408.638 540.637 400.503 540.637ZM227.448 660.894L226.612 664.414C226.703 664.591 226.737 664.787 226.891 664.945L227.929 661.248C227.822 661.142 227.711 661.031 227.498 660.818C227.478 660.838 227.468 660.873 227.448 660.894ZM345.401 554.944C338.451 555.377 330.291 558.381 325.446 559.35C297.644 564.911 269.853 572.036 242.641 579.811C234.663 582.09 226.559 584.073 218.61 586.344C215.886 587.122 212.372 587.239 210.304 589.307C214.363 595.395 217.171 602.903 215.926 610.375C214.342 619.877 203.269 629.724 193.085 624.632C187.282 621.73 183.589 616.505 183.589 609.793C183.589 608.06 187.296 600.247 186.552 599.689C182.019 596.289 174.765 598.614 169.94 599.993C159.18 603.067 148.207 605.65 137.603 609.185C131.841 611.106 125.934 611.358 121.574 615.718C111.388 625.904 120.537 657.273 136.691 657.273C141.248 657.273 144.504 649.841 144.719 645.979C144.9 642.718 145.023 639.47 145.023 636.204C145.023 634.473 142.862 630.919 144.111 629.671C147.462 633.022 147.378 644.246 147.378 648.055C147.378 650.254 145.268 653.273 145.909 655.196C149.499 655.196 154.991 651.966 158.671 650.739C170.551 646.78 182.4 642.517 194.275 638.559C234.038 625.305 273.973 610.899 312.38 595.536C322.35 591.548 332.042 587.388 342.058 583.381C345.966 581.818 353.656 580.723 356.289 577.43C358.205 575.036 358.087 568.132 358.087 565.858C358.087 556.627 352.35 554.51 345.401 554.944ZM170.168 575.126C165.675 574.899 161.177 575.179 156.874 575.962C142.182 578.633 131.163 589.213 120.687 599.689C99.2595 621.117 90.136 652.662 85.3624 681.304C83.5766 692.019 83.5035 703.364 85.0585 714.249C90.1242 749.708 123.408 774.466 158.671 772.997C175.469 772.297 191.932 766.464 209.114 766.464C212.836 766.464 219.391 769.202 222.459 771.503C223.672 772.412 225.997 774.469 227.498 774.77C228.219 774.914 229.946 773.321 230.486 772.997C233.164 771.39 236.629 770.285 239.679 769.73C245.606 768.653 251.832 768.511 257.784 769.427C260.419 769.832 265.011 771.77 267.559 770.921C267.559 768.697 263.372 764.491 261.937 762.919C260.474 761.317 259.014 759.692 257.48 758.158C248.11 748.787 232.091 748.427 220.079 748.662C209.8 748.864 198.428 752.275 188.046 754.005C161.647 758.405 135.193 757.646 118.611 734.431C109.876 722.202 107.63 705.576 109.697 691.104C110.829 683.18 110.675 674.425 113.546 666.769C115.027 662.82 119.497 651.992 119.497 648.055C119.497 646.303 117.353 643.435 116.813 641.547C114.667 634.036 112.992 622.704 118.003 616.022C124.022 607.998 133.397 607.37 142.642 604.728C144.492 604.2 147.25 604.037 148.872 602.956C152.151 600.769 155.051 597.14 158.95 595.84C170.139 592.11 183.34 592.104 193.389 598.803C190.467 604.646 188.046 605.702 188.046 613.059C188.046 615.352 191.857 618.643 192.781 619.567C197.613 624.399 206.172 620.262 209.418 615.718C214.865 608.092 211.464 597.119 205.847 590.801C197.166 581.034 183.647 575.807 170.168 575.126ZM587.156 610.983C584.783 610.377 585.612 616.891 585.079 619.289C584.171 623.375 581.153 630.298 581.838 634.406C582.115 636.069 586.568 639.915 587.764 641.243C589.462 643.131 591.361 645.979 594.297 645.979C600.591 645.979 605.135 634.003 603.489 629.063C602.357 625.668 598.046 622.335 595.765 619.871C592.961 616.843 591.155 612.004 587.156 610.983ZM581.534 612.452C580.655 612.012 577.357 614.183 576.495 614.528C574.713 615.241 560.487 619.924 560.162 621.061C559.277 624.157 559.492 628.323 558.972 631.444C556.101 648.666 553.692 665.395 548.893 682.19C547.551 686.889 545.797 692.919 542.942 696.725C538.691 702.393 535.497 711.064 527.521 713.058C519.733 715.005 524.587 702.629 525.444 697.915C527.463 686.813 530.13 675.629 532.864 664.692C533.65 661.549 535.921 656.308 535.523 653.12C535.488 652.842 535.22 652.522 534.94 652.512C529.503 652.321 524.041 652.231 518.607 652.512C517.545 652.567 517.189 656.311 516.531 656.969C509.642 650.08 500.146 653.146 492.5 656.969C478.577 663.93 472.37 681.696 469.963 696.143C469.264 700.333 469.454 705.568 467.886 709.488C465.732 714.873 459.344 717.211 454.212 717.211C447.968 717.211 452.049 702.793 453.047 698.802C456.146 686.408 461.049 674.426 461.049 661.426C461.049 656.731 455.607 653.547 451.553 653.12C443.198 652.24 436.9 656.187 430.788 661.426C430.492 661.129 430.477 661.115 430.181 660.818C430.588 660.003 432.258 652.895 431.067 652.816C425.343 652.434 419.607 652.625 413.873 652.816C413.593 652.825 413.369 653.139 413.265 653.398C411.725 657.248 411.328 662.361 410.302 666.465C407.247 678.688 403.774 691.12 398.148 702.372C394.758 709.151 391.446 714.527 382.701 714.527C377.296 714.527 383.48 695.858 384.499 692.294C387.197 682.848 389.5 673.246 392.197 663.806C392.867 661.458 395.63 655.751 395.16 653.398C394.99 652.549 393.934 652.816 393.387 652.816C387.947 652.816 382.516 652.625 377.079 652.816C376.8 652.826 376.639 653.175 376.471 653.398C374.133 656.516 373.902 664.333 372.926 668.237C369.673 681.25 366.042 695.351 360.164 707.108C358.658 710.12 352.813 717.626 348.591 714.249C341.976 708.956 347.768 695.448 349.174 688.419C352.482 671.877 356.971 655.483 361.05 639.167C363.072 631.079 363.86 620.507 367.583 613.059C365.312 611.545 359.043 615.746 356.897 616.604C354.671 617.495 347.137 618.601 345.907 621.061C344.333 624.209 344.39 629.18 343.527 632.634C342.199 637.943 340.87 643.295 339.678 648.663C339.13 651.125 339.145 654.817 337.297 656.665C330.626 649.994 318.927 652.788 312.38 658.463C301.821 667.614 296.064 682.125 293.084 695.535C292.144 699.766 292.619 705.261 291.311 709.184C290.045 712.985 279.681 720.573 275.282 716.907C271.297 713.586 272.01 706.528 272.902 702.068C274.515 694.005 276.879 684.062 281.208 676.847C282.71 674.343 284.687 670.451 285.386 667.655C286.226 664.296 292.139 658.286 291.008 654.892C278.94 654.892 266.862 655.087 254.796 654.892C252.664 654.858 256.508 650.517 254.518 650.436C249.872 650.246 245.21 650.246 240.565 650.436C240.285 650.447 240.108 650.793 239.982 651.043C237.778 655.452 237.711 661.961 236.108 666.769C232.149 678.646 228.796 691.166 223.345 702.068C220.526 707.707 217.743 716.907 210 716.907C204.972 716.907 208.888 702.944 209.418 700.296C211.669 689.04 214.014 677.656 216.812 666.465C217.687 662.966 220.308 656.952 219.8 653.398C219.761 653.121 219.472 652.825 219.193 652.816C213.36 652.625 207.528 652.625 201.695 652.816C200.791 652.845 200.187 658.173 199.314 659.045C176.588 643.894 156.143 676.248 154.215 695.535C153.73 700.381 153.557 704.985 154.518 709.792C154.718 710.792 156.122 713.88 155.683 714.831C153.412 719.752 145.351 720.428 142.034 723.745C144.158 726.292 146.882 728.207 148.872 730.86C149.54 731.751 150.529 734.512 151.53 735.013C153.452 735.974 156.599 733.1 157.76 732.05C159.368 730.595 160.938 729.077 162.52 727.594C169.035 731.937 177.18 733.621 184.475 729.974C186.874 728.775 188.613 726.133 191.008 724.935C192.201 724.339 195.694 728.47 197.238 729.088C203.401 731.553 210.52 733.414 217.42 731.443C232.849 727.034 241.073 699.858 245.022 686.039C246.454 681.026 247.168 674.262 249.757 669.731C249.965 669.367 250.224 668.865 250.643 668.845C256.572 668.563 262.538 668.654 268.47 668.845C268.75 668.854 268.855 669.23 269.053 669.428C261.673 684.188 253.327 703.628 253.327 720.782C253.327 727.422 260.574 731.131 266.09 732.05C276.655 733.811 285.776 728.583 293.692 722.251C295.76 723.801 297.197 726.06 299.035 727.897C303.887 732.75 313.342 732.981 319.495 731.443C323.035 730.558 325.461 727.514 328.688 726.707C330.124 726.348 332.575 730.291 334.031 731.164C336.587 732.698 340.618 732.633 343.527 732.633C350.275 732.633 355.308 725.273 360.746 722.554C363.502 725.31 362.972 728.58 367.279 731.164C375.96 736.372 387.115 728.069 393.691 723.137C393.988 723.434 393.976 723.448 394.273 723.745C393.839 724.612 391.843 732.324 392.805 732.354C398.934 732.546 405.059 732.546 411.189 732.354C411.468 732.346 411.629 731.97 411.796 731.747C414.021 728.781 414.294 721.764 415.342 718.098C418.358 707.541 420.74 696.588 424.838 686.343C427.221 680.384 431.027 673.302 438.208 673.302C445.079 673.302 439.734 688.429 438.208 691.99C434.66 700.268 429.814 719.942 434.055 727.011C437.093 732.074 442.658 732.354 447.983 732.354C457.336 732.354 466.185 725.492 472.621 719.592C479.386 726.356 482.502 732.05 492.804 732.05C496.953 732.05 501.756 729.929 505.262 728.176C506.087 727.764 508.922 725.657 509.719 726.1C512.261 727.512 513.37 731.418 516.531 732.05C526.437 734.032 532.645 727.72 539.397 721.364C541.026 722.45 541.589 725.083 542.942 726.707C547.355 732.002 553.102 733.373 559.858 731.443C567.739 729.191 574.56 720.834 580.344 715.717C580.492 715.586 580.749 715.629 580.926 715.717C581.973 716.241 583.213 718.53 583.914 719.288C587.094 722.722 589.868 725.933 593.689 728.48C606.438 736.979 618.088 729.366 631.091 729.366C633.525 729.366 640.513 734.506 640.89 734.431C642.283 734.152 642.438 730.443 643.245 729.366C647.157 724.151 651.604 719.894 656.616 715.717C653.708 712.81 647.448 712.451 643.549 712.451C642.462 712.451 637.759 713.776 636.737 712.755C642.362 704.318 630.709 682.215 629.9 672.112C629.46 666.608 631.394 662.951 631.394 657.855C631.394 656.157 621.559 649.853 619.518 649.853C616.193 649.853 608.014 660.188 605.565 662.894C596.165 673.284 587.449 684.48 578.85 695.535C575.056 700.414 571.327 705.424 567.277 710.096C565.857 711.735 561.659 714.902 561.352 712.755C560.16 704.408 564.281 694.167 566.087 686.039C569.796 669.349 574.263 652.481 577.077 635.596C578.064 629.676 579.616 623.694 580.926 617.795C581.147 616.803 582.691 613.03 581.534 612.452ZM330.764 667.3C332.637 667.279 334.628 668.238 335.221 670.314C336.09 673.356 334.945 677.365 334.335 680.418C332.918 687.502 331.043 694.495 329.295 701.486C328.613 704.215 328.649 707.991 327.219 710.374C326.046 712.329 323.449 714.104 321.268 714.831C309.463 718.766 309.181 707.663 309.696 699.688C310.543 686.556 316.667 672.621 328.991 667.655C329.535 667.436 330.14 667.307 330.764 667.3ZM616.834 667.959C617.245 667.808 617.718 682.131 618.328 684.874C620.192 693.262 627.412 707.079 620.708 714.527C615.763 720.022 605.906 720.819 600.526 715.439C598.3 713.212 596.135 710.909 593.993 708.602C593.262 707.814 591.03 705.481 591.03 704.145C591.03 696.752 604.086 682.645 608.832 676.543C611.006 673.748 613.509 669.177 616.834 667.959ZM191.591 668.237C192.575 668.095 197.797 668.402 198.124 670.035C198.694 672.886 197.098 677.539 196.655 680.418C195.134 690.309 192.158 699.776 188.628 708.602C187.499 711.424 183.332 716.021 180.018 716.021C171.011 716.021 172.254 706.064 172.599 699.688C173.198 688.597 178.973 670.057 191.591 668.237ZM507.643 668.541C508.846 668.412 514.069 668.881 514.454 670.618C515.115 673.59 513.234 678.851 512.682 681.886C511.101 690.584 505.778 717.733 493.107 716.325C486.939 715.64 487.521 705.605 487.764 702.068C488.607 689.851 493.16 670.101 507.643 668.541ZM394.881 614.857C393.629 614.802 392.315 614.977 391.007 615.414C377.378 619.969 381.253 636.787 395.767 636.787C402.523 636.787 405.801 627.027 403.769 621.948C401.945 617.387 398.635 615.022 394.881 614.857ZM580.648 641.243C578.298 641.354 577.726 653.163 577.077 656.082C576.871 657.009 575.652 659.828 577.077 660.235C582.393 661.754 587.763 654.542 587.764 650.132C587.764 647.689 582.787 641.143 580.648 641.243ZM329.776 672.568C329.499 672.499 329.127 672.539 328.688 672.694C319.308 676 315.04 690.951 314.456 700.296C314.196 704.455 312.699 712.741 319.799 710.374C321.324 709.866 322.395 709.247 323.37 707.715C323.979 706.759 323.964 703.54 324.256 702.372C326.048 695.207 328.144 687.97 329.599 680.696C330.054 678.421 331.72 673.047 329.776 672.568ZM191.743 673.125C191.397 673.066 190.97 673.121 190.426 673.302C180.74 676.525 178.517 691.337 177.36 700.6C177.179 702.048 175.407 712.603 180.018 711.286C186.444 709.45 190.612 687.573 191.591 682.19C192.125 679.25 194.162 673.538 191.743 673.125ZM507.668 673.504C507.264 673.425 506.765 673.447 506.149 673.58C496.555 675.655 493.922 691.299 492.804 699.688C492.755 700.051 490.969 711.564 494.576 711.564C497.279 711.564 499.704 707.539 500.806 705.335C504.364 698.219 506.385 690.304 507.947 682.494C508.577 679.342 510.495 674.058 507.668 673.504ZM612.402 680.418C608.146 680.564 601.642 694.368 598.754 698.219C597.617 699.735 595.573 701.866 596.373 703.866C601.059 715.581 618.632 719.952 618.632 703.562C618.632 699.62 616.309 695.462 615.365 691.686C614.693 688.996 614.825 680.334 612.402 680.418Z" fill="#FFFFFF" fill-rule="nonzero" opacity="1" stroke="none" vectornator:layerName="path"/>
</g>
</svg>
