<?xml version="1.0" encoding="UTF-8" standalone="no"?>
<!DOCTYPE svg PUBLIC "-//W3C//DTD SVG 1.1//EN" "http://www.w3.org/Graphics/SVG/1.1/DTD/svg11.dtd">
<!-- Created with Vectornator (http://vectornator.io/) -->
<svg height="100%" stroke-miterlimit="10" style="fill-rule:nonzero;clip-rule:evenodd;stroke-linecap:round;stroke-linejoin:round;" version="1.1" viewBox="0 0 750 1000" width="100%" xml:space="preserve" xmlns="http://www.w3.org/2000/svg" xmlns:vectornator="http://vectornator.io" xmlns:xlink="http://www.w3.org/1999/xlink">
<defs/>
<g id="Layer-1" vectornator:layerName="Layer 1">
<path d="" fill="none" opacity="1" stroke="#f5c81a" stroke-linecap="butt" stroke-linejoin="round" stroke-width="1" vectornator:layerName="path"/>
<path d="M76.3046 350.586C76.0237 350.587 75.7235 350.869 75.7108 351.149C75.5213 355.317 75.5213 359.513 75.7108 363.68C75.7389 364.299 77.442 364.483 77.8046 364.555C82.8544 365.565 87.9423 366.264 92.9921 367.274C94.2804 367.531 95.5785 367.891 96.8671 368.149C98.0201 368.379 107.27 369.647 107.273 370.524C107.471 431.413 107.471 492.291 107.273 553.18C107.27 553.864 105.172 554.036 104.898 554.086C100.342 554.914 95.7344 555.634 91.1796 556.461C89.5304 556.761 75.7622 558.925 75.7108 560.055C75.5213 564.222 75.5213 568.388 75.7108 572.555C75.7235 572.836 76.0237 573.148 76.3046 573.149C114.943 573.347 153.572 573.347 192.211 573.149C192.492 573.148 192.792 572.836 192.805 572.555C192.994 568.388 192.993 564.222 192.805 560.055C192.753 558.911 189.469 558.951 188.93 558.868C183.951 558.102 178.924 557.161 174.023 556.18C172.341 555.844 160.341 554.285 160.336 553.18C160.138 500.833 160.336 448.527 160.336 396.18C160.336 396.077 160.244 395.865 160.211 395.711C160.364 395.951 160.43 396.243 160.648 396.461C161.095 396.014 161.076 396.002 161.523 395.555C163.208 397.24 164.845 398.985 166.523 400.68C166.425 400.759 166.274 400.81 166.273 400.93C166.076 419.106 166.076 437.285 166.273 455.461C166.276 455.742 166.673 455.886 166.898 456.055C168.489 457.248 170.867 456.649 172.836 456.368C176.292 455.874 172.316 452.253 171.648 451.586C172.197 451.037 173.444 450.893 173.461 450.118C173.754 436.016 174.785 421.847 173.461 407.805C173.456 407.757 173.404 407.696 173.398 407.649C183.003 417.469 192.553 427.359 202.055 437.274C196.039 443.289 180.806 443.615 174.617 449.805C176.356 453.283 192.644 450.485 196.68 450.118C197.121 450.078 202.681 450.157 202.961 448.899C204.586 441.585 204.751 434.879 208.023 428.336C209.811 424.76 215.47 421.084 216.336 417.618C216.716 416.1 214.597 414.726 214.273 413.43C213.343 409.707 207.423 400.655 205.023 397.055C203.339 398.739 205.193 402.092 205.617 404.211C206.369 407.972 207.776 420.652 210.086 422.961C209.788 423.259 209.821 423.288 209.523 423.586C196.92 417.284 185.294 407.929 173.242 400.336C179.462 397.557 167.526 378.41 174.336 377.68C182.075 376.851 188.534 378.977 195.492 380.368C197.861 380.842 203.498 385.768 205.023 384.243C194.332 373.552 190.617 373.378 167.492 370.243C167.194 370.541 166.601 370.697 166.586 371.118C166.299 379.258 166.682 387.41 166.586 395.555C166.585 395.593 166.67 395.697 166.68 395.743C164.506 394.104 162.112 392.388 160.242 391.836C160.263 391.781 160.334 391.742 160.336 391.68C160.621 383.043 160.142 374.383 160.336 365.743C160.36 364.708 163.305 365.039 166.898 364.868C169.38 364.75 171.85 364.555 174.336 364.555C183.969 364.555 194.01 367.411 201.742 373.211C211.067 380.205 216.22 390.806 217.836 402.118C218.301 405.373 218.16 414.152 219.461 416.461C219.283 416.628 219.085 416.784 219.055 417.024C218.784 419.193 218.873 421.408 219.055 423.586C219.078 423.866 219.418 423.981 219.617 424.18C222.418 422.312 225.263 419.998 228.273 418.493C229.719 419.938 225.495 428.549 224.398 430.743C225.723 432.068 229.087 432.117 230.961 432.493C235.565 433.414 254.311 436.186 256.898 438.774C255.671 440.001 248.75 439.772 247.055 439.961C241.918 440.531 236.693 441.203 231.555 441.774C230.89 441.848 225.539 441.524 224.68 443.243C224.558 443.487 231.04 453.673 231.836 454.868C231.538 455.166 231.54 455.163 231.242 455.461C228.039 452.258 223.836 449.837 220.211 447.118C218.046 448.561 218.494 453.014 218.117 455.461C217.009 462.665 215.659 469.728 214.555 476.899C214.208 479.156 214.434 482.425 212.773 484.086C211.28 482.593 211.831 480.911 211.586 478.711C211.049 473.876 210.107 454.262 207.43 451.586C206.366 452.649 203.101 455.48 202.023 456.43C200.54 457.178 195.423 459.691 187.305 461.93C182.306 463.309 167.398 462.618 167.398 462.618L167.086 471.18L183.68 476.555L211.086 527.055C211.319 528.241 211.758 531.352 211.867 531.461C211.973 531.39 212.075 530.824 212.18 530.618C212.186 530.691 212.172 530.765 212.18 530.836C212.439 533.166 216.555 537.359 217.836 539.493C222.96 548.034 228.537 556.262 234.523 564.243C242.188 574.463 250.819 583.788 259.867 592.836C293.282 626.252 337.018 637.524 383.242 637.524C398.627 637.524 414.692 633.672 429.43 629.461C452.257 622.94 473.608 613.592 493.773 601.493C500.043 597.73 507.647 593.509 512.555 588.055C513.363 587.158 507.631 581.691 507.211 581.211C470.018 599.807 427.653 614.784 385.336 609.805C366.888 607.635 350.035 600.736 334.367 591.336C320.181 582.824 307.847 571.38 296.211 559.743C294.947 558.48 290.23 554.576 290.555 552.305C291.4 546.391 295.475 539.426 297.711 533.836C297.969 533.191 298.398 529.381 299.492 529.368C316.774 529.172 334.054 529.172 351.336 529.368C352.624 529.383 353.047 533.978 353.43 534.743C354.944 537.771 362.199 557.247 361.461 559.461C357.366 559.461 344.223 561.814 340.617 563.618C337.761 565.045 339.444 569.971 339.742 573.149C339.781 573.569 340.195 574.053 340.617 574.055C400.115 574.351 459.619 574.253 519.117 574.055C519.398 574.054 519.693 573.742 519.711 573.461C519.897 570.487 519.98 567.492 519.711 564.524C519.673 564.104 519.23 563.766 518.836 563.618C512.612 561.284 503.424 561.322 496.742 560.368C496.19 560.289 490.817 559.938 490.805 558.868C490.609 541.089 490.706 523.304 490.805 505.524C490.812 504.365 492.914 502.301 493.492 501.336C496.883 495.685 500.225 490.022 503.617 484.368C514.8 465.731 525.809 446.974 536.992 428.336C537.529 427.441 539.057 424.258 539.992 423.868C541.22 423.357 555.589 422.214 555.773 422.399C549.045 429.127 545.31 436.457 543.273 445.618C535.113 482.342 563.228 498.517 590.93 512.368C605.25 519.528 627.576 525.035 624.617 545.743C621.464 567.814 584.257 567.022 570.961 554.993C563.382 548.136 559.468 540.764 556.367 531.461C555.4 528.558 556.182 523.85 554.273 521.305C552.825 519.374 550.723 520.711 548.023 520.711C547.222 520.711 544.825 520.065 544.742 521.305C543.885 534.164 544.18 551.821 545.617 564.524C545.827 566.375 550.53 567.418 551.867 568.086C558.711 571.508 566.778 573.468 574.242 574.961C601.501 580.412 631.668 578.91 652.023 558.555C657.99 552.589 660.811 543.955 662.148 535.93C668.117 500.115 643.485 482.997 614.18 471.274C598.714 465.088 575.492 456.427 578.398 436.086C581.201 416.464 615.04 416.997 626.992 425.961C634.594 431.662 638.578 439.176 641.867 447.399C643.029 450.305 642.6 455.705 644.555 458.149C646.117 460.102 649.531 459.232 652.023 459.024C652.303 459.001 652.577 458.708 652.617 458.43C653.029 455.545 652.454 454.847 652.336 452.18C652.178 448.606 652.161 445.036 652.023 441.461C651.962 439.87 651.781 438.271 651.711 436.68C651.436 430.359 652.981 420.829 650.836 414.93C650.325 413.526 636.603 410.198 634.461 409.586C625.621 407.06 616.311 405.693 607.023 405.618C597.735 405.544 588.425 406.749 579.586 409.274C579.099 409.414 578.623 409.582 578.117 409.586C549.61 409.781 521.093 409.572 492.586 409.868C492.306 409.871 492.014 410.18 491.992 410.461C491.809 412.738 491.657 415.077 491.992 417.336C491.094 419.547 493.73 420.132 496.43 420.524C496.433 420.526 496.46 420.586 496.461 420.586C501.148 422.595 509.333 420.645 513.148 424.461C507.566 432.834 502.449 442.328 497.961 451.305C495.346 456.535 490.905 461.29 488.711 466.774C486.4 472.553 482.267 479.695 478.305 484.649C474.109 480.453 471.62 472.217 469.055 467.086C464.4 457.776 459.294 448.753 454.742 439.649C452.354 434.872 448.007 429.956 446.711 424.774C446.232 422.858 463.086 420.936 465.18 419.68C467.747 418.14 467.006 409.886 465.18 409.868C435.481 409.573 405.753 409.573 376.055 409.868C374.377 409.884 374.044 415.909 375.586 418.086C375.473 418.199 375.385 418.288 375.18 418.493C376.363 420.071 375.946 419.33 377.273 419.993C377.311 419.955 377.303 419.963 377.336 419.93C380.542 422.312 392.734 421.422 396.648 423.868C400.069 426.007 405.082 437.34 407.367 441.149C416.352 456.123 425.227 471.176 434.211 486.149C437.558 491.728 441.168 497.438 444.023 503.149C444.293 503.689 445.516 504.569 445.523 505.243C445.719 523.121 445.72 540.99 445.523 558.868C445.51 560.099 437.524 560.767 436.555 560.961C428.967 562.478 424.192 563.674 416.898 561.243C415.521 560.784 412.947 560.67 411.836 559.743C409.111 557.473 408.355 552.275 407.055 549.024C404.148 541.756 402.076 532.527 397.836 525.461C394.015 519.092 392.705 510.482 389.18 503.43C378.54 482.151 373.405 458.131 362.68 436.68C359.525 430.371 357.035 422.808 354.898 416.399C354.579 415.44 353.079 409.892 351.93 409.868C342.397 409.673 332.87 409.673 323.336 409.868C322.268 409.89 320.788 415.659 320.367 416.711C317.431 424.052 315.04 432.515 311.117 439.055C306.949 446.001 304.195 455.795 300.992 463.805C295.012 478.754 289.021 492.186 283.086 507.024C280.771 512.813 278.276 518.518 275.961 524.305C275.068 526.537 274.397 529.744 272.68 531.461C267.788 528.199 263.96 520.635 260.43 515.93C252.536 505.404 245.755 494.154 238.117 483.461C234.797 478.812 230.825 473.971 228.273 468.868C229.481 467.66 234.53 465.563 235.742 466.774C235.78 466.748 235.773 466.765 235.805 466.743C236.57 467.344 237.384 467.985 238.117 468.555C238.515 468.864 239.056 469.428 239.586 469.93C238.887 470.467 238.387 470.659 237.492 471.555C240.014 476.599 244.345 481.525 247.648 486.149C255.428 497.041 263.481 508.086 270.898 519.211C271.494 518.764 271.49 518.783 272.086 518.336C262.104 505.859 253.511 491.693 244.648 478.399C245.586 477.461 246.88 476.864 247.93 476.024C246.634 474.729 246.365 474.483 246.148 474.149C249.337 477.206 253.145 479.834 256.586 482.586C256.599 482.573 256.605 482.568 256.617 482.555C257.23 483.171 256.918 482.926 258.648 484.368C259.095 484.07 259.108 484.072 259.555 483.774C258.661 482.432 258.736 482.639 257.711 481.43C257.734 481.406 257.748 481.393 257.773 481.368C256.383 478.587 254.37 476.007 252.367 473.461C254.661 472.252 257.004 470.21 258.961 468.555C261.139 466.712 264.385 463.725 266.117 461.993C268.416 459.694 277.64 447.853 277.711 443.461C283.184 442.892 288.657 442.352 294.148 441.774C296.039 441.575 308.306 441.554 309.305 440.555C306.835 436.85 299.065 438.508 295.023 436.993C291.579 435.701 286.242 435.632 282.211 434.899C281.77 434.819 281.339 434.758 280.898 434.68C282.562 433.419 283.927 419.615 283.992 418.211C284.712 402.746 282.146 387.659 272.086 375.586C270.548 373.74 268.819 370.983 266.711 369.93C266.413 370.228 266.415 370.226 266.117 370.524C267.892 374.074 270.395 377.268 272.086 380.649C276.839 390.156 277.356 402.65 277.148 412.836C277.052 417.551 276.069 422.613 274.773 427.149C274.297 428.814 272.813 431.538 272.961 433.399C270.707 433.046 268.431 432.655 266.18 432.305C269.541 428.287 270.011 419.223 270.586 414.336C273.846 386.629 262.367 367.293 236.93 357.118C225.342 352.482 209.799 350.927 197.273 350.868C156.945 350.678 116.632 350.488 76.3046 350.586ZM266.742 444.586C264.437 446.544 262.486 450.681 260.742 452.774C256.478 457.891 251.787 461.755 246.773 465.93C245.535 464.201 244.298 462.468 243.055 460.743C249.013 457.711 256.255 451.226 259.211 445.368C261.72 445.117 264.235 444.841 266.742 444.586ZM326.898 452.461C329.711 455.274 329.683 461.204 331.086 464.711C335.63 476.07 339.095 488.365 343.023 500.149C343.592 501.857 347.968 514.666 347.773 515.055C347.647 515.306 347.461 515.642 347.18 515.649C336.158 515.942 325.111 515.855 314.086 515.93C310.398 515.955 305.1 518.123 303.055 515.055C305.681 512.428 306.505 506.476 307.836 503.149C312.437 491.648 315.447 479.24 320.93 468.274C323.158 463.817 323.478 455.88 326.898 452.461ZM76.3046 370.243C74.4731 372.074 75.5121 375.411 75.7108 377.993C75.7323 378.274 76.0534 378.461 76.3046 378.586C81.7343 381.301 97.2133 379.838 101.023 383.649C102.925 381.747 101.903 378.26 101.617 375.586C101.572 375.167 101.103 374.928 100.742 374.711C99.6411 374.051 96.3779 374.092 95.0858 373.805C89.5573 372.577 83.9782 371.658 76.3046 370.243ZM472.023 408.055C467.789 412.289 475.729 422.817 470.836 424.774C468.901 425.548 454.958 426.914 455.367 428.961C455.95 431.877 458.676 434.17 459.805 436.993C463.211 445.507 468.474 453.425 472.617 461.711C473.135 462.747 477.69 472.284 478.586 471.836C479.192 471.533 482.734 466.224 482.461 465.586C477.856 454.842 470.569 443.023 465.18 432.243C466.847 430.576 479.092 429.56 479.18 427.743C479.463 421.889 479.372 416.007 479.18 410.149C479.13 408.638 474.088 411.152 472.023 408.055ZM359.992 409.586C359.713 409.615 359.597 409.951 359.398 410.149C360.358 412.069 361.18 415.86 361.18 417.899C361.18 420.225 363.706 424.17 364.742 426.243C367.251 431.26 368.244 437.404 370.711 442.336C373.448 447.812 377.23 455.838 378.461 461.993C379.99 469.638 385.305 476.525 387.117 483.774C388.518 489.378 391.13 495.708 393.648 500.743C394.333 502.115 397.189 505.317 396.648 506.399C397.774 507.526 399.067 515.142 400.211 517.43C403.101 523.209 404.5 529.882 407.367 535.618C409.449 539.782 412.137 545.473 413.023 549.899C413.712 553.347 420.254 559.106 423.461 555.899C420.934 553.373 420.034 547.939 418.68 544.555C414.873 535.037 411.491 525.773 407.68 516.243C395.682 486.248 382.182 456.222 371.898 425.368C371.295 425.368 369.032 425.535 368.93 424.461C368.29 417.745 369.205 408.616 359.992 409.586ZM657.68 414.055C654.521 415.906 657.615 421.317 657.68 423.586C657.981 434.111 657.548 444.659 657.961 455.18C658.011 456.464 659.605 464.657 657.961 464.711C652.103 464.903 646.256 464.525 640.398 464.711C639.954 464.725 639.432 464.888 639.211 465.274C638.713 466.145 639.973 472.414 641.273 472.461C649.215 472.748 657.204 472.655 665.148 472.461C665.429 472.455 665.693 472.116 665.711 471.836C665.969 467.962 665.609 460.069 665.43 456.055C664.86 443.23 666.009 429.302 663.648 416.711C663.425 415.519 658.632 413.497 657.68 414.055ZM604.398 424.993C600.155 425.033 596.103 425.895 593.023 427.743C587.359 431.141 583.773 434.687 583.773 441.774C583.773 444.763 588.907 454.601 592.117 452.461C586.843 441.913 595.378 434.542 604.93 432.805C616.602 430.683 624.502 433.058 631.461 442.336C633.81 439.986 625.228 432.288 623.711 431.024C619.078 427.163 611.468 424.927 604.398 424.993ZM494.398 426.055C492.897 426.048 491.777 426.146 491.68 426.243C492.47 427.822 491.283 428.888 491.68 430.743C492.087 432.643 498.859 432.505 500.648 433.399C506.841 427.206 498.902 426.077 494.398 426.055ZM376.055 426.243C374.922 427.375 375.214 429.447 375.492 431.024C375.648 431.907 388.294 433.946 390.086 434.305C391.643 434.616 394.937 436.017 396.055 434.899C395.281 433.352 394.003 430.754 392.773 429.524C391.929 428.681 379.629 426.958 376.055 426.243ZM535.492 442.055C532.674 444.872 530.662 449.622 528.93 453.086C522.447 466.052 513.955 478.336 506.586 490.618C504.978 493.298 497.071 504.531 497.055 507.024C496.957 522.519 496.763 538 497.055 553.493C497.074 554.506 502.747 555.08 503.617 554.993C503.897 554.965 504.208 554.68 504.211 554.399C504.407 539.6 504.113 524.793 504.211 509.993C504.217 509.114 509.39 501.776 510.18 500.461C516.366 490.151 522.46 479.774 528.648 469.461C530.245 466.8 533.19 459.114 536.086 458.149C536.086 453.89 537.98 445.538 535.492 442.055ZM326.305 472.743C324.248 473.113 324.039 478.386 323.336 480.493C321.277 486.672 318.836 493.133 316.492 498.993C315.516 501.433 312.431 506.192 312.898 508.524C313.409 511.082 320.344 509.884 321.555 509.399C323.29 508.705 323.675 501.99 324.523 499.868C326.396 495.187 330.461 488.083 330.461 482.868C330.461 481.112 329 478.424 328.398 476.618C327.877 475.054 328 472.438 326.305 472.743ZM167.211 477.524C166.934 477.475 166.588 477.806 166.586 478.086C166.389 501.329 166.389 524.593 166.586 547.836C166.597 549.185 173.453 549.551 173.461 548.743C173.657 528.282 173.461 507.798 173.461 487.336C173.461 481.093 181.491 489.715 182.086 486.743C183.05 481.922 170.351 478.072 167.211 477.524ZM662.43 496.868C661.992 496.365 667.539 513.58 667.805 516.243C669.27 530.891 668.289 542.116 662.148 554.399C648.868 580.959 608.77 585.031 583.773 582.399C574.999 581.476 566.227 579.529 557.867 576.743C556.514 576.292 546.954 572.131 546.523 572.274C545.118 572.743 545.523 574.611 545.617 575.555C545.852 577.904 553.897 580.148 555.773 580.899C569.015 586.196 582.772 589.972 597.18 590.43C632.576 591.553 669.006 581.514 674.367 541.305C675.349 533.939 675.205 526.996 673.773 519.836C671.961 510.777 668.412 503.736 662.43 496.868ZM561.711 503.743C561.413 504.041 561.446 504.007 561.148 504.305C565.249 509.774 573.359 513.895 579.305 516.868C591.028 522.729 603.004 528.545 614.773 534.43C617.145 532.058 606.62 526.551 604.336 525.18C597.461 521.055 588.904 517.777 581.398 514.774C574.351 511.955 568.447 507.111 561.711 503.743ZM563.305 520.586C558.318 520.765 560.606 524.211 562.023 528.461C564.764 536.686 566.805 544.422 574.523 550.211C574.97 549.913 574.983 549.916 575.43 549.618C572.291 543.341 569.842 537.898 568.273 530.836C567.949 529.38 566.675 520.797 565.898 520.711C564.864 520.596 564.018 520.56 563.305 520.586ZM325.117 534.805C317.965 534.805 310.83 534.878 303.68 535.024C302.193 535.054 300.58 542.413 300.086 543.649C299.651 544.737 296.59 550.861 297.43 551.993C299.438 554.7 302.171 556.796 304.555 559.18C305.002 558.882 305.014 558.853 305.461 558.555C303.554 556.648 308.307 542.217 309.93 542.18C322.84 541.889 335.737 542.376 348.648 542.18C350.12 542.158 347.939 536.527 347.461 535.93C347.198 535.601 346.976 535.032 346.555 535.024C339.405 534.878 332.27 534.805 325.117 534.805ZM199.367 559.18C199.069 559.478 199.071 559.445 198.773 559.743C199.543 561.282 198.799 559.422 198.773 560.961C198.677 566.82 198.965 572.666 198.773 578.524C198.764 578.805 198.461 579.117 198.18 579.118C157.554 579.316 116.93 578.92 76.3046 579.118C73.9125 579.13 75.5121 583.89 75.7108 586.274C75.7341 586.554 76.0237 586.897 76.3046 586.899C119.115 587.096 161.931 587.096 204.742 586.899C205.186 586.897 205.909 586.718 205.93 586.274C206.318 577.84 206.124 569.401 205.93 560.961C205.9 559.645 202.145 559.914 199.367 559.18ZM526.555 563.336C526.356 563.535 525.972 563.649 525.961 563.93C525.77 568.793 526.152 573.66 525.961 578.524C525.868 580.886 517.889 577.064 515.242 579.711C517.138 582.081 519.582 584.343 521.18 586.899C521.285 587.067 521.31 587.311 521.18 587.461C515.757 593.658 502.379 603.926 494.398 607.118C485.095 610.839 474.145 617.541 465.18 622.024C443.241 632.993 411.296 640.871 386.523 642.024C373.134 642.647 359.783 642.84 346.555 640.805C331.797 638.534 316.709 634.507 303.68 627.993C300.48 626.392 296.301 625.505 293.242 623.211C288.455 619.621 282.445 616.264 277.148 613.086C276.009 612.402 271.397 608.056 270.273 608.618C270.255 608.627 270.137 608.85 270.023 608.961C270.357 609.769 270.356 610.316 269.43 609.868C271.319 614.161 279.816 618.552 283.711 621.149C298.758 631.181 314.519 638.509 331.961 643.493C393.437 661.057 479.822 638.376 527.43 593.149C525.76 591.146 524.095 589.129 522.398 587.149C524.72 584.827 528.933 586.784 532.211 586.586C533.061 586.534 532.805 585.266 532.805 584.805C532.805 578.249 532.998 571.671 532.805 565.118C532.768 563.837 527.515 563.816 526.555 563.336ZM269.43 609.868C269.423 609.852 269.405 609.821 269.398 609.805C269.312 609.605 269.73 609.244 270.023 608.961C269.646 608.047 268.842 606.855 267.617 606.243C267.605 606.255 267.598 606.262 267.586 606.274C267.684 606.37 267.801 606.458 267.898 606.555C267.245 607.077 267.098 607.176 266.586 607.586C267.881 608.854 268.838 609.582 269.43 609.868ZM266.586 607.586C266.503 607.504 266.517 607.517 266.43 607.43C267.013 606.847 267.027 606.833 267.586 606.274C264.389 603.138 260.672 600.38 257.18 597.586C256.882 597.884 256.884 597.913 256.586 598.211C258.389 601.817 263.349 605.102 266.43 607.743C266.522 607.67 266.514 607.643 266.586 607.586ZM340.023 579.711C338.303 581.431 338.362 586.268 341.211 586.274C386.506 586.373 431.792 586.586 477.086 586.586C481.886 586.586 490.693 584.041 494.398 580.336C494.1 580.038 494.084 580.009 340.023 579.711Z" fill="#FFFFFF" fill-rule="nonzero" opacity="1" stroke="none"/>
</g>
</svg>
