<?xml version="1.0" encoding="UTF-8" standalone="no"?>
<!DOCTYPE svg PUBLIC "-//W3C//DTD SVG 1.1//EN" "http://www.w3.org/Graphics/SVG/1.1/DTD/svg11.dtd">
<!-- Created with Vectornator (http://vectornator.io/) -->
<svg height="100%" stroke-miterlimit="10" style="fill-rule:nonzero;clip-rule:evenodd;stroke-linecap:round;stroke-linejoin:round;" version="1.1" viewBox="0 0 750 1000" width="100%" xml:space="preserve" xmlns="http://www.w3.org/2000/svg" xmlns:vectornator="http://vectornator.io" xmlns:xlink="http://www.w3.org/1999/xlink">
<defs/>
<g id="Layer-1" vectornator:layerName="Layer 1">
<path d="" fill="none" opacity="1" stroke="#f5c81a" stroke-linecap="butt" stroke-linejoin="round" stroke-width="1" vectornator:layerName="path"/>
<path d="M376.439 200.02C371.153 199.967 365.845 200.016 360.53 200.197C346.257 200.682 332.493 202.395 318.274 205.239C279.858 212.922 246.254 227.752 213.392 247.47C183.472 265.421 156.728 291.321 135.99 318.971C110.341 353.171 94.9172 389.156 83.3972 429.476C74.8144 459.516 74.0952 497.903 76.8925 527.274C77.7346 536.116 77.6632 545.434 79.8423 554.151C82.6882 565.534 84.5993 578.271 89.0196 589.322C90.3004 592.524 90.4219 596.261 91.9694 599.356C94.7792 604.976 95.6871 611.771 99.054 617.383C104.458 626.389 108.063 636.005 112.644 645.167C124.603 669.085 143.488 690.961 161.707 710.164C221.349 773.03 309.789 804.893 396.003 799.39C400.119 799.127 405.694 797.844 409.87 797.322C483.164 788.16 540.426 758.362 593.062 705.726C605.637 693.151 616.305 678.526 626.14 663.773C629.474 658.773 633.964 653.127 636.2 647.537C638.146 642.671 641.537 637.744 643.89 633.04C648.813 623.193 652.865 612.935 656.874 602.911C671.402 566.591 676.359 522.454 674.018 483.834C672.443 457.838 669.495 430.612 659.824 406.432C655.876 396.563 653.89 385.315 648.302 376.001C644.56 369.765 641.546 362.464 638.267 355.907C629.585 338.543 616.77 321.856 604.281 306.87C557.553 250.796 494.036 215.767 423.762 204.054C408.035 201.433 392.297 200.18 376.439 200.02ZM348.428 232.695C353.841 232.505 359.251 232.505 364.665 232.695C366.134 232.747 365.426 237.611 365.85 238.318C368.02 241.935 370.939 248.4 374.422 250.722C378.53 244.56 385.492 240.666 381.809 233.3C382.006 233.103 382.11 232.706 382.389 232.695C387.408 232.506 392.447 232.506 397.466 232.695C397.744 232.706 397.946 233.051 398.071 233.3C398.542 234.243 394.353 238.155 394.213 238.318C391.728 241.217 381.859 252.589 381.229 255.739C380.956 257.103 384.452 257.93 384.179 259.294C383.874 260.82 381.76 261.371 382.112 263.126C382.654 265.838 391.198 277.747 393.331 279.968C395.453 282.179 397.669 284.306 399.836 286.473C399.639 286.67 399.509 287.069 399.231 287.078C393.522 287.268 387.82 287.268 382.112 287.078C380.74 287.032 381.167 282.601 380.927 281.758C379.857 278.013 374.508 271.179 371.775 268.446C369.915 270.925 361.869 279.477 361.412 281.758C361.273 282.457 363.622 287.006 361.715 287.078C356.696 287.267 351.657 287.267 346.638 287.078C346.36 287.067 346.255 286.67 346.058 286.473C353.804 279.695 358.13 270.568 365.27 263.429C364.186 262.346 363.007 261.346 362.017 260.177C361.333 259.368 364.085 256.671 363.782 255.462C363.448 254.126 361.646 252.245 360.832 251.025C358.362 247.319 356.121 243.373 353.445 239.805C351.819 237.636 348.983 235.62 347.823 233.3C348.02 233.103 348.15 232.705 348.428 232.695ZM272.186 251.604C274.59 254.008 276.154 258.658 277.809 261.967C275.48 264.295 270.929 262.677 268.354 262.849C267.012 262.938 257.026 268.555 255.95 269.631C257.691 273.113 259.692 279.176 262.732 281.456C267.454 278.307 270.989 276.395 275.439 272.581C276.471 274.129 280.957 280.391 280.179 282.338C280.122 282.478 268.236 285.221 266.287 287.658C265.583 288.537 271.82 301.158 272.791 302.13C274.85 304.188 286.174 296.196 287.843 293.86C288.252 293.288 290.808 289.056 291.701 289.725C293.92 291.39 295.473 296.992 296.718 299.482C286.532 306.273 274.948 311.388 263.917 316.904C262.301 315.289 263.232 312.398 263.034 310.122C262.86 308.118 260.373 304.22 259.479 302.432C258.672 300.818 257.285 296.561 255.647 295.625C254.586 295.019 249.711 294.889 249.445 293.557C249.015 291.406 252.295 289.125 251.512 286.775C250.501 283.741 247.109 275.867 244.73 273.489C243.054 271.812 240.532 271.08 238.805 269.354C241.248 266.911 246.771 265.056 250.025 263.429C257.489 259.697 264.852 255.272 272.186 251.604ZM485.809 256.647C486.625 256.089 492.77 259.331 493.196 259.899C494.141 261.159 492.7 270.696 492.617 272.581C492.57 273.622 491.597 280.682 492.011 282.338C492.546 284.475 496.751 286.628 496.751 288.54C496.751 290.031 492.36 292.32 491.432 293.557C489.307 296.39 488.641 313.693 490.247 316.904C488.693 317.422 474.442 310.882 472.8 309.239C476.541 305.914 478.93 302.852 477.842 297.415C477.783 297.119 464.304 290.412 462.765 290.028C462.574 289.98 462.331 289.896 462.185 290.028C460.223 291.803 458.031 293.423 456.563 295.625C456.157 296.234 456.979 301.29 455.681 301.55C454.837 301.718 443.831 296.205 442.974 295.348C447.777 291.745 452.298 288.492 456.866 284.405C458.475 282.965 461.112 282.077 461.58 279.968C462.029 277.949 461.401 275.826 461.58 273.766C461.751 271.809 468.621 272.798 469.85 271.699C475.038 267.056 480.122 260.538 485.809 256.647ZM364.967 303.012C377.762 303.012 389.921 303.405 402.483 305.079C451.502 311.615 495.385 336.927 526.88 375.421C536.796 387.541 546.784 402.113 552.294 415.887C553.194 418.139 558.446 428.341 557.008 429.779C556.565 429.336 556.569 429.34 556.126 428.896C553.256 431.766 567.546 442.445 560.866 446.898C558.193 442.889 556.382 440.078 552.571 436.561C552.426 436.706 551.472 438.072 551.689 438.351C553.66 440.885 557.367 446.374 559.681 448.688C560.124 448.245 560.12 448.249 560.563 447.806C567.499 452.429 568.628 472.383 569.136 480.002C569.339 483.054 569.555 486.098 569.715 489.154C569.789 490.544 568.928 493.279 570.32 493.288C599.668 493.484 629.014 493.093 658.361 493.288C658.64 493.29 658.922 493.616 658.941 493.894C659.013 494.938 660.056 502.723 658.059 502.743C628.81 503.035 599.57 502.547 570.32 502.743C570.042 502.745 569.859 503.109 569.715 503.348C568.485 505.399 568.972 512.386 568.833 514.265C568.064 524.647 566.338 535.211 563.816 545.301C557.359 571.128 546.278 595.932 529.83 617.08C512.485 639.38 483.865 665.983 456.866 676.783C438.179 684.257 420.278 690.747 400.138 693.624C352.397 700.445 299.074 687.336 260.967 658.756C242.357 644.799 224.028 627.79 211.929 607.626C207.581 600.378 203.221 593.765 199.525 586.372C197.778 582.878 196.484 577.129 193.903 574.547C194.346 574.104 194.342 574.108 194.785 573.665C200.374 578.136 206.928 581.073 213.392 584.304C217.178 580.518 210.95 577.739 208.677 576.035C206.59 574.47 203.995 574.732 201.592 574.547C200.133 574.435 199.483 572.512 198.34 571.597C196.201 569.886 192.574 568.742 190.953 566.58C189.248 564.307 188.59 560.071 187.7 557.403C183.671 545.316 181.191 532.489 179.708 519.887C179.278 516.231 178.934 512.34 178.826 508.668C178.767 506.689 180.225 502.756 178.246 502.743C148.602 502.547 118.94 503.036 89.2969 502.743C88.8791 502.739 88.4575 502.276 88.4145 501.861C88.151 499.314 88.232 496.725 88.4145 494.171C88.4343 493.893 88.741 493.593 89.0196 493.591C118.762 493.395 148.504 493.787 178.246 493.591C179.369 493.584 179.048 491.459 179.128 490.339C179.545 484.504 179.933 478.72 180.616 472.917C182.089 460.397 185.191 447.897 189.163 435.981C201.802 398.062 226.438 365.404 259.202 340.83C260.006 341.634 260.466 341.211 261.27 342.015C263.183 341.059 264.982 345.148 266.287 346.453C273.556 342.818 281.792 347.789 287.843 341.738C282.305 336.2 269.992 346.779 265.102 336.998C265.919 336.345 275.2 329.891 275.741 330.216C279.544 332.497 285.47 332.759 289.911 333.746C291.203 334.033 293.113 335.536 294.348 335.536C295.649 335.536 297.758 333.008 298.483 332.283C294.192 327.993 285.781 331.104 281.641 326.964C286.036 324.034 290.448 321.808 295.835 322.526C300 323.082 308.687 328.559 312.072 325.174C308.567 322.545 305.86 322.466 301.735 321.341C300.643 321.043 301.264 320.246 300.273 320.156C297.041 319.863 298.33 320.886 297.02 319.576C299.279 317.318 303.252 316.902 306.172 315.442C308.492 317.761 323.19 321.745 325.661 319.274C322.018 315.63 315.595 317.174 312.072 313.652C320.068 305.655 333.823 318.222 338.671 313.374C336.005 310.708 331.099 311.702 328.636 309.239C332.391 305.485 339.494 306.703 343.688 307.752C345.739 308.265 348.512 311.802 350.495 309.819C348.693 308.467 346.52 307.477 345.176 305.685C349.354 301.506 358.64 308.18 359.647 307.172C358.326 306.181 357.28 305.385 356.093 304.197C357.542 302.747 362.677 303.012 364.967 303.012ZM185.91 311.584C186.571 311.254 194.448 317.777 195.365 318.694C193.261 320.798 189.324 320.6 187.398 322.526C185.55 324.374 183.949 326.638 182.381 328.728C183.93 329.968 190.902 336.803 192.138 336.998C194.183 337.321 196.331 336.193 198.34 336.696C200.562 337.251 199.074 342.055 200.105 343.2C203.547 347.025 208.299 350.491 212.207 353.84C214.136 355.494 217.447 353.735 219.316 355.605C215.548 360.315 211.757 365.232 207.492 369.497C205.897 367.902 205.921 364.976 204.542 363.597C202.496 361.551 199.957 359.826 197.735 357.975C196.776 357.176 193.104 352.957 191.835 352.957C191.524 352.957 186.789 353.5 185.91 353.26C183.638 352.64 185.316 347.731 184.448 346.755C182.04 344.046 177.779 340.338 174.691 338.486C173.768 337.932 171.62 341.514 171.161 342.015C165.459 348.236 171.115 356.864 161.101 348.52C160.089 347.676 158.468 346.506 157.849 345.268C157.751 345.071 158.03 344.871 158.152 344.688C161.142 340.202 165.277 336.081 168.791 331.981C172.884 327.206 176.867 322.34 180.893 317.509C182.201 315.94 184.08 312.499 185.91 311.584ZM565.883 320.257C574.874 319.072 583.567 331.256 585.977 338.486C587.104 341.865 588.478 346.599 585.675 349.402C584.847 348.988 581.1 348.328 580.935 347.335C580.132 342.519 582.077 331.098 573.27 331.098C562.741 331.098 566.509 340.342 569.413 346.15C568.279 347.284 566.186 348.102 566.186 349.705C566.186 356.873 565.316 369.799 554.639 369.799C551.145 369.799 546.865 369.618 543.722 367.732C534.573 362.243 524.443 344.15 533.662 334.931C535.493 335.846 537.254 336.153 538.704 337.603C537.767 339.478 535.729 341.511 535.729 343.805C535.729 351.859 541.279 363.213 551.411 359.16C559.408 355.961 553.437 344.735 551.411 339.671C550.742 337.996 553.796 336.992 554.639 335.813C555.562 334.521 555.058 332.676 555.244 331.098C555.763 326.685 558.359 323.844 562.026 321.644C563.306 320.876 564.599 320.427 565.883 320.257ZM142.495 403.483C145.626 406.614 146.671 415.457 148.092 419.719C148.385 420.597 148.935 424.712 150.185 424.762C157.27 425.045 164.35 424.57 171.438 424.762C171.717 424.769 171.847 425.145 172.044 425.342C167.874 428.468 163.575 431.466 159.337 434.494C158.493 435.096 154.495 437.3 154.319 438.351C153.962 440.498 159.562 456.551 160.799 459.025C159.365 459.981 144.597 449 142.495 446.898C136.134 450.079 130.684 455.663 124.771 459.605C123.844 458.678 128.508 445.731 129.183 443.368C129.444 442.455 131.284 439.169 130.67 438.351C127.059 433.536 117.545 429.94 112.946 425.342C113.143 425.145 113.248 424.769 113.526 424.762C120.614 424.57 127.717 424.953 134.805 424.762C135.841 424.734 136.652 420.683 136.873 420.022C138.099 416.342 140.149 405.829 142.495 403.483ZM603.701 403.785C606.796 406.88 608.091 415.492 609.299 419.719C609.496 420.41 610.513 424.746 611.089 424.762C618.275 424.953 625.458 424.57 632.645 424.762C632.923 424.769 633.053 425.145 633.25 425.342C628.972 428.55 624.594 431.687 620.241 434.796C619.399 435.398 615.677 437.293 615.526 438.351C614.975 442.207 623.572 457.761 621.426 459.907C615.518 455.477 609.544 450.995 603.399 446.898C597.536 451.295 591.539 455.51 585.675 459.907C585.379 459.612 585.39 459.623 585.095 459.328C587.557 454.403 588.642 448.611 590.389 443.368C590.661 442.553 592.441 439.103 591.877 438.351C588.293 433.573 578.578 429.767 574.153 425.342C574.35 425.145 574.454 424.769 574.733 424.762C581.821 424.57 588.923 424.953 596.012 424.762C597.166 424.73 597.831 420.465 598.079 419.719C599.473 415.536 600.724 406.763 603.701 403.785ZM166.119 543.814C169.586 547.281 175.573 567.053 175.573 571.9C175.573 574.952 175.119 578.129 174.388 581.052C171.387 593.058 157.683 588.553 151.344 583.119C146.308 588.407 141.146 593.619 136.293 599.079C134.59 600.994 133.677 603.459 131.855 605.281C130.761 604.187 126.293 592.285 126.838 591.086C129.918 584.31 141.049 578.722 143.957 572.177C144.148 571.749 143.377 570.384 143.377 569.807C142.509 569.518 128.163 574.105 127.418 574.85C125.842 576.426 124.369 578.084 122.703 579.565C118.914 575.775 118.577 567.48 116.199 562.723C117.178 561.743 122.413 562.281 123.586 562.143C128.111 561.61 132.756 558.508 137.175 557.403C139.458 556.832 139.829 551.799 141.31 550.318C142.835 551.081 145.809 552.991 147.512 552.991C148.459 552.991 160.885 548.705 161.404 548.251C163.03 546.829 164.187 544.78 166.119 543.814ZM586.557 552.083C587.879 551.66 589.909 556.424 589.23 558.008C589.075 558.37 586.777 559.553 586.557 559.773C582.054 564.276 579.289 572.055 585.675 576.312C588.425 578.146 592.93 574.382 594.247 572.48C595.263 571.012 594.686 568.349 595.432 566.858C596.437 564.848 599.176 566.253 600.752 565.975C601.101 565.913 601.08 565.344 601.331 565.093C603.756 562.668 608.801 557.126 613.156 557.126C637.961 557.126 633.386 597.186 614.921 600.264C612.824 600.613 610.913 595.62 611.366 594.036C611.656 593.021 616.455 592.375 617.593 591.692C622.41 588.802 626.6 578.562 622.005 573.967C615.871 567.833 610.887 571.446 606.349 577.8C605.588 578.864 605.398 584.729 604.004 584.884C602.438 585.058 600.837 584.797 599.264 584.884C597.934 584.958 595.492 587.783 594.247 588.717C591.291 590.934 587.755 590.277 584.49 589.624C581.085 588.943 578.426 584.883 577.103 582.237C573.608 575.249 575.232 562.526 581.237 556.521C583.147 554.611 584.298 552.807 586.557 552.083ZM551.109 630.392C560.441 630.392 567.748 640.228 563.211 649.301C565.272 651.362 580.688 654.735 584.187 655.201C586.367 655.492 590.931 654.513 592.179 656.386C591.037 657.757 583.461 667.236 582.725 667.328C577.278 668.009 557.924 658.412 555.244 663.773C559.287 667.311 563.309 670.881 567.345 674.413C569.223 676.056 572.659 674.986 574.455 676.783C570.905 681.516 566.816 686.525 562.328 690.372C560.796 688.839 560.785 686.156 559.378 684.75C557.039 682.41 554.213 680.381 551.689 678.245C550.252 677.03 549.373 674.892 547.554 674.413C546.198 674.056 539.841 676.314 539.284 673.808C538.835 671.786 539.823 669.498 538.982 667.605C538.4 666.297 529.92 659.393 528.367 658.151C526.989 657.048 522.588 657.534 521.863 656.084C521.544 655.446 528.224 647.801 529.25 646.629C534.283 640.877 542.048 630.392 551.109 630.392ZM211.904 635.863C212.395 635.79 212.828 635.799 213.114 635.989C215.107 637.318 216.705 640.185 218.434 641.914C216.013 646.756 213.828 651.983 211.627 656.386C210.999 657.642 209.088 659.821 208.979 661.126C208.837 662.834 210.634 667.246 209.862 668.79C208.894 670.725 205.532 670.084 204.24 671.16C201.953 673.066 200.441 676.894 198.92 679.43C197.602 681.626 196.083 683.771 194.785 685.935C193.448 688.163 194.551 692.478 192.415 693.902C188.451 688.616 183.796 683.517 179.128 678.85C180.753 677.226 183.684 677.824 185.028 676.48C187.625 673.884 189.343 670.174 187.095 667.605C185.808 666.134 184.556 664.659 183.263 663.193C181.65 661.365 180.337 659.128 178.246 657.874C177.09 657.18 170.762 660.689 170.254 661.706C170.014 662.185 168.83 666.758 167.606 665.841C164.158 663.255 160.471 657.814 157.849 654.319C159.056 653.111 172.056 650.381 175.296 649.301C176.676 648.841 181.786 647.818 182.381 646.629C183.012 645.366 183.526 641.81 185.028 641.309C186.531 640.808 189.861 643.099 191.533 643.099C196.174 643.099 203.005 638.973 207.492 637.477C208.347 637.192 210.432 636.082 211.904 635.863ZM264.219 681.497C264.651 680.634 277.662 686.225 278.111 687.422C280.826 694.662 281.275 703.982 282.549 711.626C282.94 713.974 283.013 719.78 284.616 721.383C285.514 720.485 294.071 704.493 294.071 703.079C294.071 702.347 292.954 696.911 293.465 696.272C294.544 694.924 307.643 701.28 308.24 702.474C308.724 703.443 305.068 705.451 304.408 706.029C302.551 707.654 301.641 710.351 300.55 712.534C299.691 714.252 297.02 717.739 297.02 719.618C297.02 721.52 299.014 724.236 298.205 726.123C297.332 728.162 293.387 727.923 292.003 729.653C289.916 732.262 288.593 736.725 286.961 739.99C286.156 741.598 282.739 749.719 281.641 749.444C280.082 749.055 276.134 747.002 275.439 745.612C274.55 743.834 274.589 740.234 274.254 738.225C272.939 730.334 271.25 722.518 270.119 714.601C269.77 712.155 269.764 706.556 268.052 704.844C264.562 708.334 261.706 717.534 259.479 721.988C258.67 723.608 255.95 726.457 255.95 728.468C255.95 730.609 257.069 733.699 256.53 735.855C256.443 736.199 255.995 736.39 255.647 736.46C255.388 736.512 241.934 729.454 241.478 728.77C243.253 727.35 246.325 725.859 247.378 723.753C248.882 720.744 249.792 716.996 251.815 714.298C252.333 713.607 253.882 711.77 253.882 710.744C253.882 708.601 251.714 705.399 252.395 703.356C253.053 701.381 257.759 701.927 258.9 700.407C259.923 699.042 264.483 690.189 264.522 689.187C264.62 686.627 263.073 683.789 264.219 681.497ZM483.742 684.447C486.665 686.396 487.287 692.445 488.759 695.389C487.738 696.411 487.624 695.513 486.389 695.389C483.084 695.059 481.664 694.899 478.725 695.389C477.655 695.568 466.96 700.409 466.9 700.709C466.664 701.89 468.404 704.6 468.968 705.726C469.618 707.027 470.514 711.386 471.64 712.231C474.179 714.135 484.699 705.382 485.507 704.844C488.107 707.444 488.65 712.592 490.247 715.786C487.74 718.292 478.479 716.315 475.775 719.921C475.036 720.906 480.266 731.986 480.792 734.09C480.865 734.38 481.367 735.224 481.674 735.275C482.04 735.336 493.14 730.894 493.499 730.535C495.817 728.217 497.683 725.493 500.004 723.173C501.291 724.46 505.499 731.836 504.718 733.787C504.028 735.513 498.436 736.971 496.751 737.645C490.317 740.219 483.413 742.826 477.237 745.915C475.219 746.924 472.532 748.864 470.152 748.864C469.42 746.667 470.191 743.862 469.85 741.477C469.281 737.495 466.308 731.444 464.53 727.888C463.587 726.001 458.156 726.676 457.748 724.635C457.382 722.805 460.093 721.115 460.093 719.316C460.093 717.435 455.748 705.793 454.496 704.541C452.726 702.772 450.382 701.838 448.873 699.827C450.322 698.378 452.206 698.299 453.891 697.457C460.812 693.996 467.929 690.898 475.17 688.002C476.461 687.486 482.64 683.712 483.742 684.447ZM380.321 711.349C380.966 711.349 398.303 712.538 398.651 716.366C398.746 717.411 399.405 725.032 397.768 726.123C392.267 719.247 383.603 717.484 375.304 720.803C371.437 722.35 366.732 729.482 366.732 733.787C366.732 735.073 370.509 738.169 371.169 738.83C369.594 740.406 367.672 741.678 366.455 743.545C363.816 747.591 374.842 758.746 378.254 759.504C379.056 759.682 387.67 760.224 387.709 758.319C387.803 753.69 387.526 749.056 387.431 744.427C387.396 742.69 385.595 740.503 384.759 738.83C384.956 738.633 385.085 738.234 385.364 738.225C391.467 738.034 397.569 737.939 403.668 738.225C405.196 738.297 402.004 742.704 401.601 743.242C399.97 745.416 400.732 750.963 400.718 751.814C400.659 755.556 400.991 759.326 400.718 763.059C400.583 764.913 390.064 767.471 388.894 767.471C373.716 767.471 364.526 765.421 355.21 752.999C353.07 750.146 353.386 746.388 351.68 743.545C350.56 741.678 348.791 740.16 347.823 738.225C353.075 732.973 352.482 730.051 356.093 724.635C360.263 718.379 367.969 713.559 375.304 711.929C376.572 711.647 379.34 711.349 380.321 711.349ZM480.187 272.304C476.147 276.344 471.959 280.205 467.783 284.103C470.5 286.821 475.435 287.778 478.725 289.423C479.53 288.617 480.876 273.337 480.187 272.304ZM252.092 352.655C247.6 357.147 247.435 355.082 250.933 358.58C251.774 359.421 252.001 360.697 253 361.53C253.404 361.866 261.392 359.797 261.849 359.739C271.637 358.516 272.044 361.829 277.809 354.142C275.501 351.835 271.315 353.26 268.052 353.26C264.701 353.26 260.511 353.778 257.412 355.327C257.211 355.428 256.1 356.015 255.95 355.907C254.703 355.017 253.767 353.738 252.092 352.655ZM263.917 367.429C258.029 367.665 248.85 366.84 244.125 371.564C242.957 370.395 242.119 368.8 240.873 367.732C240.064 367.039 237.592 371.243 237.343 371.867C236.926 372.909 238.665 373.674 239.411 374.514C240.132 375.326 240.2 377.181 241.175 377.766C241.987 378.253 247.151 375.488 248.26 375.119C254.221 373.132 259.942 375.489 263.917 370.379C265.046 368.927 265.768 368.876 263.917 367.429ZM230.233 381.901C225.859 386.275 229.383 390.533 232.301 394.91C238.679 391.721 241.823 391.353 249.445 390.473C250.64 390.335 253.062 385.003 253.58 383.968C250.324 380.712 238.492 385.288 234.973 388.103C233.234 386.364 231.589 383.935 230.233 381.901ZM471.337 383.691C471.14 383.888 470.734 383.992 470.732 384.271C470.537 411.255 470.928 438.243 470.732 465.227C470.73 465.506 470.431 465.801 470.152 465.807C461.685 466 453.206 465.615 444.739 465.807C444.46 465.813 444.356 466.215 444.159 466.412C447.803 470.664 452.18 474.419 456.261 478.237C457.33 479.237 458.057 481.036 459.513 481.187C467.938 482.055 476.459 481.379 484.927 481.187C485.205 481.18 485.505 480.86 485.507 480.581C485.702 452.711 487.083 424.805 485.507 396.978C485.373 394.614 482.193 393.605 480.489 391.961C478.051 389.606 474.1 385.072 471.337 383.691ZM271.304 388.103C271.124 388.103 269.544 388.382 269.539 389.011C269.344 412.843 269.344 436.68 269.539 460.513C269.541 460.791 269.841 461.085 270.119 461.092C277.404 461.284 284.718 461.284 292.003 461.092C292.282 461.085 292.507 460.78 292.583 460.513C293.524 457.221 292.428 452.351 292.886 448.688C293.708 442.111 296.202 435.593 300.273 430.359C311.265 416.226 331.856 414.544 348.428 415.005C348.706 415.012 349.005 415.306 349.008 415.584C349.203 435.182 349.102 454.781 349.008 474.379C348.971 482.139 342.936 487.806 336.906 491.826C341.687 497.803 348.653 500.011 348.731 508.945C348.919 530.513 349.008 552.096 349.008 573.665C349.008 575.319 348.623 576.609 348.125 578.102C344.892 587.802 329.449 585.125 323.014 585.489C322.736 585.505 322.44 585.791 322.434 586.069C322.241 595.325 322.241 604.598 322.434 613.853C322.44 614.132 322.736 614.431 323.014 614.433C353.938 614.629 384.871 614.629 415.795 614.433C416.074 614.431 416.369 614.132 416.375 613.853C416.568 604.598 416.568 595.325 416.375 586.069C416.369 585.791 416.073 585.5 415.795 585.489C410.874 585.3 405.944 585.579 401.021 585.489C397.453 585.425 391.607 582.676 390.684 578.985C390.5 578.252 390.085 577.028 390.079 576.312C389.886 553.464 389.776 530.634 389.776 507.785C389.776 499.989 398.136 495.792 403.668 492.103C399.887 486.431 390.159 484.251 390.079 475.867C389.887 455.875 389.679 435.879 389.776 415.887C389.777 415.608 390.103 415.321 390.381 415.307C407.667 414.421 426.255 417.498 438.839 430.081C444.497 435.74 446.816 443.423 447.991 451.058C448.437 453.955 447.374 461.029 449.176 461.092C454.589 461.282 459.999 461.282 465.413 461.092C465.691 461.083 466.015 460.791 466.018 460.513C466.213 436.68 466.213 412.843 466.018 389.011C466.011 388.141 464.494 388.406 464.253 388.406C399.942 388.308 335.615 388.103 271.304 388.103ZM221.661 397.28C220.922 398.02 218.774 402.282 219.014 403.483C219.165 404.237 220.235 404.401 220.779 404.945C222.027 406.193 222.156 409.938 223.729 410.567C224.167 410.742 234.105 406.87 235.856 406.735C237.822 406.584 239.812 406.77 241.755 406.432C242.861 406.24 246.14 399.882 244.73 399.625C238.756 398.539 231.75 400.537 227.283 404.365C225.194 402.275 223.629 399.529 221.661 397.28ZM213.694 416.467C212.952 415.873 210.806 421.669 211.047 422.392C211.208 422.874 212.864 423.906 213.114 424.157C214.513 425.555 214.921 428.745 216.644 429.779C217.616 430.362 220.284 428.11 221.081 427.712C223.814 426.345 230.942 425.103 233.183 426.224C234.985 424.422 235.311 422.272 236.436 420.022C234.036 417.622 222.243 420.651 219.316 423.577C217.262 421.522 215.932 418.257 213.694 416.467ZM338.368 419.719C324.62 420.443 308.322 423.438 301.458 437.166C298.137 443.808 297.42 451.335 297.02 458.723C296.892 461.101 298.52 465.762 296.138 465.807C285.897 466 275.645 465.614 265.404 465.807C265.126 465.812 264.996 466.215 264.799 466.412C267.394 469.872 271.095 472.616 274.254 475.564C275.935 477.133 277.017 480.003 279.296 480.304C289.45 481.647 299.764 480.497 310.005 480.304C310.912 480.287 310.595 478.539 310.61 477.632C310.697 472.116 310.737 466.606 310.912 461.092C311.124 454.421 312.37 445.746 315.93 439.813C320.326 432.486 326.817 428.532 334.839 426.527C337.489 425.864 340.983 426.118 343.411 425.039C345.346 424.179 344.992 421.025 338.368 419.719ZM395.121 420.022C394.843 420.032 394.519 420.348 394.516 420.627C394.321 439.043 394.418 457.45 394.516 475.867C394.519 476.397 394.924 476.862 395.121 477.354C396.04 479.651 399.38 482.799 400.718 484.136C402.43 485.848 414.674 492.972 416.4 491.246C414.154 489.001 410.211 485.523 410.173 481.792C409.98 463.277 409.798 444.739 409.895 426.224C409.897 425.945 410.198 425.672 410.475 425.644C412.899 425.402 417.497 427.226 420.762 427.283C424.482 429.029 431.924 431.742 432.637 431.266C431.359 429.988 427.126 426.878 423.586 425.568C419.088 421.712 408.037 420.653 402.786 420.324C400.228 420.165 397.682 419.93 395.121 420.022ZM205.425 434.216C201.18 438.461 207.213 444.273 209.862 447.806C215.946 444.764 221.006 444.302 228.166 443.368C229.3 443.22 230.237 437.705 229.956 436.864C223.452 436.864 216.707 437.068 211.627 441.301C209.39 439.065 207.669 436.461 205.425 434.216ZM548.436 443.948C548.126 444.258 546.03 446.177 546.671 446.898C548.854 449.353 551.238 450.979 552.874 453.705C553.985 455.557 554.318 458.099 555.823 459.605C556.414 459.014 556.418 459.036 557.008 458.445C558.942 460.137 561.351 462.529 562.026 465.227C562.562 467.372 562.834 471.052 564.396 472.614C568.209 468.801 565.105 462.435 562.631 458.723C561.694 457.318 559.557 453.249 557.614 455.193C555.345 453.68 550.505 446.017 548.436 443.948ZM543.117 452.52C542.632 453.005 540.28 455.092 540.772 456.075C541.613 457.758 543.576 458.577 544.907 459.907C547.471 462.472 548.535 466.106 550.504 469.06C551.346 468.217 550.943 468.715 551.689 467.597C555.41 470.787 557.141 475.267 558.193 480.002C558.614 481.896 558.288 483.046 559.681 484.439C563.379 480.741 560.54 472.315 557.891 468.782C556.575 467.028 555.508 463.33 552.874 464.647C549.061 460.835 548.383 455.68 543.117 452.52ZM200.105 452.823C195.615 457.312 201.714 464.918 204.819 469.06C208.213 466.797 211.635 464.832 215.459 463.74C217.841 463.059 221.967 464.944 223.149 462.58C228.699 451.48 211.082 458.688 207.189 462.58C204.436 459.826 202.268 456.067 200.105 452.823ZM536.309 462.252C534.801 462.013 532.859 465.148 532.78 465.227C534.228 467.4 537.904 470.049 539.284 471.429C541.483 473.628 542.61 476.582 544.302 479.119C545.04 478.381 545.05 478.37 545.789 477.632C549.847 480.675 551.156 487.91 551.689 492.709C551.844 494.11 551.574 495.846 552.571 496.843C557.257 492.158 555.83 485.611 553.176 480.304C551.911 477.774 549.775 471.881 546.671 474.984C543.003 471.316 540.719 466.384 536.914 462.58C536.723 462.389 536.525 462.286 536.309 462.252ZM526.3 472.035C525.109 472.886 524.172 474.047 523.048 474.984C527.829 479.766 532.599 484.072 536.637 489.456C537.68 488.761 538.278 487.775 539.158 487.086C539.226 489.328 540.99 497.063 541.074 498.331C541.245 500.888 540.773 503.53 541.377 506.021C541.607 506.968 542.755 507.399 543.444 508.088C544.145 507.563 545.205 506.94 545.512 506.021C546.33 503.565 544.753 484.865 542.259 482.372C541.736 482.895 539.88 484.727 539.259 485.649C536.431 481.522 533.693 478.242 529.855 474.404C529.458 474.008 526.993 471.539 526.3 472.035ZM194.482 473.497C193.861 474.118 192.979 479.639 193.297 480.304C194.597 483.022 199.626 487.646 201.87 490.339C205.154 487.055 207.859 485.679 212.509 485.321C214.608 485.16 218.106 486.153 218.711 484.136C221.948 473.348 207.645 479.379 203.357 482.951C199.998 480.712 197.191 476.476 194.482 473.497ZM515.358 482.649C513.927 482.958 513.085 484.536 512.106 485.624C510.894 486.97 514.601 488.235 515.938 489.456C517.533 490.913 519.15 492.366 520.678 493.894C522.341 495.557 523.309 499.044 525.115 500.398C526.399 501.361 528.677 498.389 528.367 496.843C527.972 494.869 524.942 491.755 523.628 490.339C521.067 487.581 519.036 481.855 515.358 482.649ZM417.862 492.406C411.622 492.406 396.591 500.013 395.096 505.995C394.997 506.389 394.822 506.774 394.818 507.18C394.623 530.127 394.516 553.088 394.516 576.035C394.516 581.071 406.866 581.264 408.988 581.052C409.403 581.01 409.851 580.587 409.87 580.17C410.152 574.07 409.679 567.943 409.87 561.84C409.879 561.562 410.278 561.457 410.475 561.26C412.154 562.939 420.454 569.888 422.88 567.463C425.41 569.993 422.225 578.229 424.367 582.514C424.072 582.81 424.058 582.824 423.762 583.119C422.728 582.085 422.729 582.086 421.695 581.052C421.399 581.249 420.821 581.277 420.812 581.632C420.522 593.939 421.006 606.259 420.812 618.568C420.808 618.846 420.486 619.171 420.207 619.173C386.427 619.369 352.66 619.075 318.879 619.173C318.568 619.174 318.292 619.352 317.997 619.45C322.601 624.408 327.451 629.104 332.469 633.645C333.039 634.161 333.476 634.972 334.234 635.107C336.367 635.488 338.67 634.461 340.738 635.107C342.412 635.63 343.305 637.575 344.873 638.359C345.956 637.276 346.594 635.163 348.125 635.107C376.569 634.064 405.058 635.303 433.519 635.107C433.798 635.105 434.095 634.806 434.099 634.527C434.293 620.544 434.574 606.551 434.099 592.574C434.011 589.998 430.391 589.008 428.502 587.254C429.801 585.955 431.439 585.779 432.637 584.582C428.534 580.479 429.384 569.267 429.384 564.79C429.384 563.256 430.236 564.482 429.082 563.328C425.568 565.67 419.189 560.578 416.677 558.285C414.774 556.547 412.878 554.813 411.055 552.991C410.609 552.545 409.889 552.134 409.87 551.503C409.491 538.903 409.775 526.291 409.87 513.685C409.885 511.772 411.367 509.395 412.543 508.063C414.79 505.515 416.538 503.533 419.325 501.861C421.59 500.502 425.246 500.1 427.014 498.331C426.556 497.72 418.463 492.406 417.862 492.406ZM505.021 492.709C502.507 495.222 503.704 494.17 501.466 495.961C505.404 501.211 511.006 505.336 515.055 510.735C515.794 510.144 515.804 510.141 516.543 509.55C519.998 513.006 515.845 526.365 517.425 531.107C518.214 530.449 521.379 528.545 521.863 527.577C523.845 523.612 522.14 518.698 522.14 514.265C522.14 511.461 522.245 506.1 520.073 503.928C519.83 504.171 518.264 505.948 517.728 505.718C513.293 503.817 510.361 495.378 505.021 492.709ZM531.595 494.171C526.039 499.726 529.83 504.107 529.83 512.198C529.83 515.349 527.601 519.424 529.83 521.652C531.307 520.273 533.641 519.439 534.267 517.517C535.244 514.521 534.336 511.214 534.267 508.063C534.193 504.653 534.26 496.836 531.595 494.171ZM191.23 495.961C190.215 496.976 190.123 501.262 190.348 501.861C190.903 503.341 197.34 510.697 198.92 512.803C205.667 506.056 205.332 508.477 215.182 506.6C216.799 506.292 216.032 502.202 216.644 500.978C213.22 497.554 202.214 502.1 199.802 505.718C196.51 503.249 194.178 498.908 191.23 495.961ZM492.617 502.768C491.576 503.288 490.33 504.691 489.364 505.415C490.832 507.617 493.115 509.167 494.986 511.038C497.477 513.528 499.235 516.902 501.491 519.61C502.416 518.685 503.423 518.048 504.391 517.341C504.39 518.254 504.696 519.279 504.718 520.19C504.788 523.047 504.921 525.906 505.021 528.762C505.118 531.52 505.323 534.272 505.323 537.032C505.323 540.294 504.303 538.96 505.626 540.284C506.637 539.475 509.078 538.124 509.761 537.032C510.962 535.109 509.919 532.489 510.038 530.224C510.245 526.29 510.284 522.357 510.038 518.425C509.912 516.4 510.272 514.539 508.576 513.408C507.661 514.323 506.136 514.842 505.172 515.727C503.124 512.321 494.273 501.94 492.617 502.768ZM477.237 514.87C476.805 514.486 472.483 517.746 471.917 518.122C475.397 521.892 478.974 526.083 483.439 528.762C484.425 529.354 489.199 530.695 489.364 531.107C491.151 535.574 484.675 549.764 488.179 553.268C489.019 552.428 493.665 550.489 493.776 549.436C494.536 542.217 491.535 531.479 494.961 524.627C494.666 524.332 494.677 524.318 494.381 524.022C488.686 529.717 481.245 518.433 477.237 514.87ZM189.768 515.45C184.503 520.715 195.679 527.697 198.037 530.527C201.196 527.369 203.426 527.093 208.374 527.854C208.839 527.926 214.46 529.266 214.577 528.157C214.787 526.159 215.399 522.315 213.392 522.257C210.143 522.164 206.909 522.176 203.66 522.257C201.305 522.316 200.816 522.731 199.222 524.325C196.427 521.529 193.208 517.743 189.768 515.45ZM457.748 524.905C455.296 526.131 452.878 527.546 450.638 529.039C455.335 533.736 460.482 538.056 466.018 541.746C466.649 542.167 470.933 544.015 471.035 544.696C471.872 550.275 468.94 559.443 473.707 564.21C475.783 563.173 478.428 563.02 480.187 561.26C477.239 555.364 476.935 549.265 476.935 542.351C476.935 539.381 477.925 540.644 476.657 539.376C470.534 542.438 460.978 528.595 457.748 524.905ZM190.07 536.149C185.707 540.512 195.23 545.711 198.617 547.066C199.377 547.37 200.264 546.546 200.987 546.486C203.051 546.314 205.119 546.184 207.189 546.184C208.862 546.184 212.52 547.657 213.694 548.831C215.917 547.349 215.95 542.455 213.114 541.746C209.525 540.849 206.399 539.679 202.475 539.679C201.674 539.679 199.603 541.156 198.92 540.864C196.3 539.741 193.788 537.713 190.07 536.149ZM433.217 539.981C432.326 539.599 427.631 542.315 427.014 542.931C433.744 550.179 438.476 553.643 447.109 556.521C447.109 559.378 446.806 562.235 446.806 565.093C446.806 570.244 446.948 577.274 453.008 574.85C453.851 574.513 455.514 574.251 455.958 573.362C456.353 572.572 455.328 572.102 455.076 571.597C453.643 568.733 453.528 564.654 453.008 561.538C452.464 558.27 454.928 554.306 452.428 551.806C445.682 555.179 437.377 541.764 433.217 539.981ZM191.633 553.117C191.076 553.354 190.848 554.11 191.23 555.638C191.504 556.733 191.551 558.216 192.138 559.193C192.804 560.303 198.739 563.265 199.802 564.21C202.767 561.987 207.204 565.263 209.862 566.858C210.33 567.138 214.079 570.199 214.274 568.345C214.47 566.482 215.167 564.186 213.997 562.723C212.077 560.323 201.968 554.96 199.525 557.403C198.12 556.279 193.306 552.405 191.633 553.117ZM164.934 560.655C163.232 559.971 150.419 565.271 150.185 565.975C148.094 572.247 157.296 575.646 161.404 575.43C167.966 575.084 170.328 562.825 164.934 560.655ZM308.24 627.442C306.976 628.706 306.265 629.813 305.29 631.275C309.533 636.933 321.546 633.205 325.661 636.292C326.373 636.825 326.699 638.946 327.149 639.847C328.784 643.118 332 647.557 335.419 648.696C336.907 649.192 340.142 645.739 339.553 644.562C338.866 643.187 334.232 640.123 333.654 639.544C331.845 637.736 330.175 631.83 328.031 630.972C326.167 630.226 322.72 631.291 320.644 630.972C316.863 630.39 313.047 628.946 308.24 627.442ZM299.97 639.544C299.004 639.682 297.714 643.148 297.298 643.982C301.742 648.426 313.02 645.571 318.274 646.049C319.155 646.129 320.163 649.16 320.644 649.881C324.764 656.061 327.208 659.876 332.469 653.739C330.843 651.571 327.775 649.625 325.964 647.814C323.732 645.582 323.217 641.815 321.249 639.847C320.01 641.086 319.412 640.92 317.392 641.032C312.507 641.303 310.494 641.65 306.475 641.032C304.682 640.756 301.771 639.287 299.97 639.544ZM544.604 641.914C529.936 646.804 542.22 653.632 548.739 659.336C555.697 653.537 555.583 646.37 544.604 641.914ZM200.987 649.604C200.071 648.688 187.584 652.948 186.213 654.319C188.396 657.047 190.783 659.601 193.02 662.286C196.58 659.912 198.6 653.185 200.987 649.604ZM294.071 652.251C285.039 661.283 308.016 659.225 310.912 659.638C311.868 659.775 313.287 662.808 313.862 663.471C314.455 664.154 320.071 670.685 322.434 669.673C323.688 669.135 324.368 666.911 325.082 665.841C322.597 663.356 318.677 662.386 315.93 659.638C315.048 658.757 314.354 654.865 313.257 654.621C306.823 653.191 300.552 655.492 294.071 652.251ZM289.911 663.193C288.2 663.388 288.01 666.89 289.331 668.211C290.193 669.073 294.667 669.902 295.835 669.975C298.589 670.148 301.346 670.278 304.105 670.278C304.542 670.278 306.4 669.532 306.752 669.673C309.048 670.591 312.905 675.712 316.207 677.363C317.907 678.213 321.612 675.498 319.762 674.11C317.393 672.334 314.023 672.506 311.492 669.975C310.27 668.753 309.236 665.768 307.357 665.841C305.092 665.928 302.817 666.143 300.55 666.143C296.99 666.143 293.399 662.797 289.911 663.193Z" fill="#FFFFFF" fill-rule="nonzero" opacity="1" stroke="none" vectornator:layerName="path"/>
</g>
</svg>
