<?xml version="1.0" encoding="UTF-8" standalone="no"?>
<!DOCTYPE svg PUBLIC "-//W3C//DTD SVG 1.1//EN" "http://www.w3.org/Graphics/SVG/1.1/DTD/svg11.dtd">
<!-- Created with Vectornator (http://vectornator.io/) -->
<svg height="100%" stroke-miterlimit="10" style="fill-rule:nonzero;clip-rule:evenodd;stroke-linecap:round;stroke-linejoin:round;" version="1.1" viewBox="0 0 750 1000" width="100%" xml:space="preserve" xmlns="http://www.w3.org/2000/svg" xmlns:vectornator="http://vectornator.io" xmlns:xlink="http://www.w3.org/1999/xlink">
<defs/>
<g id="Layer-1" vectornator:layerName="Layer 1">
<path d="" fill="none" opacity="1" stroke="#f5c81a" stroke-linecap="butt" stroke-linejoin="round" stroke-width="1" vectornator:layerName="path"/>
<path d="M556.712 268.872C553.599 271.984 548.671 276.005 541.926 280.934C535.182 285.863 527.399 290.532 518.58 294.942C509.76 299.351 500.422 303.372 490.564 307.004C480.707 310.636 466.18 314.786 446.984 319.455C427.789 324.125 398.346 329.313 358.658 335.019C318.969 340.726 295.104 344.747 287.062 347.082C279.021 349.416 271.757 352.27 265.272 355.642C258.787 359.014 252.173 363.813 245.428 370.039C238.684 376.265 234.274 380.804 232.198 383.658C230.123 386.511 229.086 389.494 229.086 392.607C229.086 395.72 229.475 398.573 230.253 401.167C231.031 403.761 232.977 407.004 236.089 410.895C239.202 414.786 242.575 417.38 246.206 418.677C248.022 419.326 249.838 419.974 251.654 420.623C251.783 418.029 251.913 415.435 252.043 412.84C252.302 407.652 253.08 403.891 254.377 401.556C255.674 399.222 257.361 397.147 259.436 395.331C261.511 393.515 265.791 391.18 272.276 388.327C278.761 385.473 284.728 383.658 290.175 382.879C295.623 382.101 301.329 381.712 307.296 381.712C313.262 381.712 321.304 382.361 331.42 383.658C341.537 384.955 350.227 386.511 357.49 388.327C361.122 389.235 364.754 390.143 368.385 391.051C368.126 391.31 367.866 391.569 367.607 391.829C367.088 392.348 361.381 392.607 350.486 392.607C339.591 392.607 334.014 392.866 333.755 393.385C333.625 393.645 333.495 393.904 333.366 394.163C333.885 394.423 334.403 394.682 334.922 394.942C335.96 395.46 343.872 398.184 358.658 403.113C373.444 408.042 388.23 411.933 403.016 414.786C417.802 417.639 426.621 419.066 429.475 419.066C430.901 419.066 432.328 419.066 433.755 419.066C433.755 418.029 433.755 416.991 433.755 415.953C433.755 414.916 433.755 413.878 433.755 412.84C439.981 413.619 446.206 414.397 452.432 415.175C464.883 416.732 471.887 415.435 473.444 411.284C475 407.134 476.556 403.891 478.113 401.556C478.891 400.389 479.669 399.222 480.447 398.054C484.987 402.335 489.527 406.615 494.066 410.895C498.606 415.175 503.145 419.455 507.685 423.735C506.907 414.397 506.128 405.058 505.35 395.72C504.572 386.381 503.794 377.043 503.016 367.704C507.166 369.261 511.316 370.817 515.467 372.374C523.768 375.486 531.809 370.558 539.591 357.588C547.374 344.617 552.043 337.484 553.599 336.187C554.377 335.538 555.156 334.89 555.934 334.241C558.139 338.132 560.344 342.023 562.549 345.914C566.958 353.696 570.201 359.144 572.276 362.257C574.351 365.37 575.908 367.185 576.946 367.704C577.464 367.964 577.983 368.223 578.502 368.482C580.188 361.868 581.874 355.253 583.56 348.638C586.933 335.409 589.916 326.589 592.51 322.179C595.104 317.769 596.271 315.175 596.012 314.397C595.752 313.619 594.196 313.489 591.342 314.008C588.489 314.527 583.949 316.472 577.724 319.844C571.498 323.217 568.126 324.773 567.607 324.514C567.088 324.254 568.515 320.493 571.887 313.23C575.259 305.966 580.188 297.925 586.673 289.105C589.916 284.695 593.158 280.285 596.401 275.875C593.158 276.524 589.916 277.173 586.673 277.821C580.188 279.118 573.962 281.064 567.996 283.658C565.013 284.955 562.03 286.252 559.047 287.549C559.695 284.306 560.344 281.064 560.992 277.821C562.289 271.336 562.938 267.445 562.938 266.148C562.938 265.499 562.938 264.851 562.938 264.202C562.678 264.202 562.419 264.202 562.16 264.202C561.641 264.202 559.825 265.759 556.712 268.872ZM543.093 369.261C535.571 381.193 528.567 386.122 522.082 384.047C518.839 383.009 515.597 381.971 512.354 380.934C513.132 388.067 513.911 395.201 514.689 402.335C516.245 416.602 517.023 425.681 517.023 429.572C517.023 433.463 516.634 435.927 515.856 436.965C515.078 438.003 513.651 438.392 511.576 438.132C509.501 437.873 504.313 433.722 496.012 425.681C487.711 417.639 483.301 413.619 482.782 413.619C482.263 413.619 481.096 415.953 479.28 420.623C477.464 425.292 471.109 426.848 460.214 425.292C454.767 424.514 449.319 423.735 443.872 422.957C444.261 428.923 444.65 434.89 445.039 440.856C445.817 452.789 444.261 459.663 440.37 461.479C438.424 462.387 436.479 463.294 434.533 464.202C446.077 474.06 457.62 483.917 469.163 493.774C492.25 513.489 503.794 523.735 503.794 524.514C503.794 525.292 502.237 527.626 499.125 531.518C497.568 533.463 496.012 535.409 494.455 537.354C502.756 536.706 511.057 536.057 519.358 535.409C535.96 534.112 545.169 533.463 546.984 533.463C548.8 533.463 550.486 534.76 552.043 537.354C552.821 538.651 553.599 539.948 554.377 541.245C555.285 539.948 556.193 538.651 557.101 537.354C558.917 534.76 569.163 534.112 587.84 535.409C597.179 536.057 606.518 536.706 615.856 537.354C614.429 535.668 613.003 533.982 611.576 532.296C608.722 528.923 607.166 526.589 606.907 525.292C606.647 523.995 617.931 513.489 640.759 493.774C652.173 483.917 663.586 474.06 675 464.202C674.611 463.813 674.222 463.424 673.833 463.035C673.054 462.257 671.239 461.479 668.385 460.7C665.532 459.922 664.494 453.567 665.272 441.634C665.661 435.668 666.051 429.702 666.44 423.735C660.863 424.384 655.285 425.032 649.708 425.681C638.554 426.978 632.588 426.329 631.809 423.735C631.031 421.141 630.123 418.807 629.086 416.732C628.048 414.656 627.27 413.619 626.751 413.619C626.232 413.619 622.211 417.38 614.689 424.903C607.166 432.425 602.108 436.576 599.514 437.354C596.92 438.132 595.104 437.873 594.066 436.576C593.029 435.279 592.51 433.722 592.51 431.907C592.51 430.091 593.288 421.141 594.844 405.058C595.623 397.017 596.401 388.975 597.179 380.934C593.936 381.971 590.694 383.009 587.451 384.047C580.966 386.122 574.481 381.712 567.996 370.817C561.511 359.922 557.62 353.956 556.323 352.918C555.674 352.399 555.026 351.881 554.377 351.362C550.616 357.328 546.855 363.294 543.093 369.261ZM211.187 397.276C207.036 399.87 203.275 403.502 199.903 408.171C196.53 412.84 187.84 416.342 173.833 418.677C159.825 421.012 145.298 424.125 130.253 428.016C115.208 431.907 104.053 435.279 96.7899 438.132C89.5266 440.986 84.5979 443.191 82.0039 444.747C79.4099 446.304 77.594 447.99 76.5564 449.805C76.0376 450.713 75.5188 451.621 75 452.529C81.7445 452.27 88.489 452.01 95.2335 451.751C108.722 451.232 134.274 451.232 171.887 451.751C209.501 452.27 229.864 451.362 232.977 449.027C236.089 446.693 240.629 445.266 246.595 444.747C252.562 444.228 257.62 444.617 261.77 445.914C265.921 447.211 271.757 450.713 279.28 456.42C286.803 462.127 293.029 465.37 297.957 466.148C302.886 466.926 307.815 466.537 312.743 464.981C317.672 463.424 322.471 460.7 327.14 456.809C331.809 452.918 336.219 449.935 340.37 447.86C344.52 445.785 361.511 444.488 391.342 443.969C406.258 443.709 421.174 443.45 436.089 443.191C435.96 441.245 435.83 439.3 435.7 437.354C435.441 433.463 420.266 431.258 390.175 430.739C360.084 430.22 342.964 428.794 338.813 426.459C334.663 424.125 330.253 421.012 325.584 417.121C320.914 413.23 316.505 410.636 312.354 409.339C308.204 408.042 304.442 407.523 301.07 407.782C297.698 408.042 294.455 408.82 291.342 410.117C288.23 411.414 282.912 414.916 275.389 420.623C267.866 426.329 261.641 429.442 256.712 429.961C251.783 430.48 247.244 429.961 243.093 428.405C238.943 426.848 235.311 424.643 232.198 421.79C229.086 418.936 226.751 416.213 225.195 413.619C223.638 411.025 222.341 407.523 221.304 403.113C220.266 398.703 219.358 395.979 218.58 394.942C217.802 393.904 215.337 394.682 211.187 397.276ZM292.899 418.288C293.029 420.882 293.158 423.476 293.288 426.07C293.418 428.664 293.547 431.258 293.677 433.852C292.38 433.852 291.083 433.852 289.786 433.852C288.489 433.852 287.192 433.852 285.895 433.852C286.025 432.685 286.154 431.518 286.284 430.35C286.543 428.016 287.711 425.422 289.786 422.568C290.824 421.141 291.861 419.715 292.899 418.288ZM75.3891 457.198C75.1297 457.717 76.1673 458.885 78.5019 460.7C80.8366 462.516 87.8405 465.888 99.5136 470.817C111.187 475.746 122.082 479.767 132.198 482.879C142.315 485.992 155.285 489.235 171.109 492.607C186.933 495.979 199.125 498.962 207.685 501.556C216.245 504.15 223.638 507.134 229.864 510.506C236.089 513.878 242.575 518.029 249.319 522.957C256.064 527.886 264.754 535.927 275.389 547.082C286.025 558.236 296.66 571.336 307.296 586.381C317.931 601.427 328.696 618.936 339.591 638.911C350.486 658.885 360.473 680.026 369.553 702.335C374.092 713.489 378.632 724.643 383.171 735.798C388.748 726.2 394.326 716.602 399.903 707.004C411.057 687.808 423.119 669.001 436.089 650.584C449.06 632.166 460.992 616.472 471.887 603.502C482.782 590.532 495.104 577.562 508.852 564.591C515.726 558.106 522.601 551.621 529.475 545.136C529.086 544.877 528.696 544.617 528.307 544.358C527.529 543.839 518.58 544.358 501.459 545.914C484.339 547.471 475.649 547.86 475.389 547.082C475.13 546.304 477.075 543.58 481.226 538.911C485.376 534.241 488.1 530.739 489.397 528.405C490.694 526.07 487.581 521.53 480.058 514.786C472.536 508.042 468.385 504.669 467.607 504.669C466.829 504.669 463.457 509.468 457.49 519.066C451.524 528.664 446.206 538.132 441.537 547.471C436.868 556.809 434.792 562.127 435.311 563.424C435.83 564.721 440.11 565.24 448.152 564.981C456.193 564.721 460.344 564.851 460.603 565.37C460.863 565.888 454.507 573.93 441.537 589.494C428.567 605.058 418.45 618.158 411.187 628.794C407.555 634.112 403.923 639.429 400.292 644.747C398.087 640.078 395.882 635.409 393.677 630.739C389.267 621.401 384.857 613.359 380.447 606.615C376.038 599.87 371.109 593.126 365.661 586.381C360.214 579.637 353.729 572.503 346.206 564.981C338.684 557.458 328.437 549.027 315.467 539.689C302.497 530.35 292.38 523.735 285.117 519.844C277.853 515.953 270.331 512.451 262.549 509.339C254.767 506.226 247.503 502.724 240.759 498.833C234.014 494.942 229.086 491.31 225.973 487.938C222.86 484.565 220.525 480.415 218.969 475.486C217.412 470.558 204.702 466.667 180.837 463.813C156.971 460.96 133.495 459.014 110.409 457.977C87.3217 456.939 75.6485 456.68 75.3891 457.198Z" fill="#FFFFFF" fill-rule="nonzero" opacity="1" stroke="none" vectornator:layerName="path"/>
</g>
</svg>
