<?xml version="1.0" encoding="UTF-8" standalone="no"?>
<!DOCTYPE svg PUBLIC "-//W3C//DTD SVG 1.1//EN" "http://www.w3.org/Graphics/SVG/1.1/DTD/svg11.dtd">
<!-- Created with Vectornator (http://vectornator.io/) -->
<svg height="100%" stroke-miterlimit="10" style="fill-rule:nonzero;clip-rule:evenodd;stroke-linecap:round;stroke-linejoin:round;" version="1.1" viewBox="0 0 750 1000" width="100%" xml:space="preserve" xmlns="http://www.w3.org/2000/svg" xmlns:vectornator="http://vectornator.io" xmlns:xlink="http://www.w3.org/1999/xlink">
<defs/>
<g id="Layer-1" vectornator:layerName="Layer 1">
<path d="" fill="none" opacity="1" stroke="#f5c81a" stroke-linecap="butt" stroke-linejoin="round" stroke-width="1" vectornator:layerName="path"/>
<path d="M571.029 200.309C548.247 202.766 528.441 219.333 517.984 240.245C515.567 245.082 511.487 254.096 512.308 259.841C512.393 260.431 513.039 260.97 513.592 261.192C521.256 264.258 531.516 264.311 538.256 269.369C552.058 279.72 567.278 288.836 576.84 304.777C598.734 341.264 600.896 383.468 600.896 425.596C600.896 460.561 592.916 497.644 581.908 530.672C568.035 572.29 544.292 617.01 509.132 645.14C500.935 651.698 476.184 668.303 465.481 664.736C478.874 651.342 489.453 629.564 497.78 612.907C531.197 546.074 563.193 468.429 554.068 390.864C549.138 348.963 526.245 293.698 479.401 285.181C424.8 275.253 381.128 324.281 359.257 368.025C330.126 426.284 314.708 494.877 319.997 561.012C321.656 581.733 325.258 618.859 336.485 637.571C345.551 652.682 353.527 668.607 363.649 683.791C339.859 707.581 307.004 727.321 271.953 717.307C262.519 714.61 253.048 708.728 247.897 700.144C230.843 671.722 233.158 632.077 238.369 600.812C258.433 480.422 312.249 372.381 378.853 272.477C377.179 270.803 354.011 270.585 349.053 270.585C329.888 270.585 310.508 271.907 291.549 274.437C196.441 287.116 75.7898 333.098 75.7898 447.152C75.7898 478.588 101.448 522.113 135.254 524.928C171.098 527.916 197.421 493.575 180.189 459.112C173.676 446.084 160.89 440.489 151.741 431.34C168.413 406.333 190.5 394.139 217.557 385.12C222.662 383.419 239.69 376.375 243.437 380.12C230.85 392.705 224.911 418.427 215.665 433.84C208.015 446.591 202.842 461.711 197.285 475.6C177.651 524.691 160.929 577.821 159.309 631.22C158.505 657.76 158.399 684.914 166.878 710.347C171.959 725.596 178.444 738.392 187.757 751.431C195.09 761.696 204.077 770.676 214.313 777.987C286.28 829.392 359.215 781.367 412.977 729.943C470.531 758.719 529.312 733.819 571.164 691.967C630.137 632.994 659.255 528.113 669.888 448.368C673.957 417.852 675.506 384.919 672.996 354.78C668.489 300.705 654.079 222.791 594.544 202.945C586.509 200.268 578.623 199.492 571.029 200.309ZM573.664 213.081C645.925 223.042 660.36 324.478 660.36 375.66C660.36 399.528 659.203 422.842 656.576 446.476C645.537 545.826 606.39 662.859 516.768 716.631C497.154 728.401 468.435 730.886 447.168 726.159C437.54 724.018 427.237 720.923 418.653 716.631C417.697 716.153 413.813 712.141 412.369 713.455C398.852 725.781 386.553 739.152 371.893 750.147C358.35 760.304 343.467 767.688 329.457 776.095C322.112 780.502 311.689 782.52 303.509 784.339C247.706 796.738 194.264 759.647 178.905 705.887C163.069 650.456 172.822 586.227 190.933 531.888C210.293 473.813 233.136 415.169 267.493 363.632C264.353 360.49 237.458 366.528 231.477 368.025C188.483 378.774 159.778 393.484 135.929 433.232C135.263 434.343 133.408 438.931 134.037 440.192C135.41 442.936 140.318 441.957 142.889 442.692C148.963 444.429 154.753 447.664 159.309 452.22C171.434 464.344 176.045 479.981 169.445 496.48C167.134 502.258 160.964 507.072 155.525 509.792C129.569 522.77 108.128 496.59 96.6697 477.492C82.3724 453.665 87.4696 419.33 99.1699 395.932C130.152 333.969 198.621 303.367 263.709 291.532C287.099 287.279 310.562 284.266 333.917 283.897C340.676 283.788 351.166 279.133 354.189 285.181C355.367 287.538 345.177 300.285 343.445 302.885C332.019 320.021 320.774 339.236 311.753 357.28C271.434 437.916 234.763 523.246 223.841 616.083C219.026 657.02 224.303 732.443 282.697 732.443C323.057 732.443 353.861 714.722 380.745 685.007C381.514 684.158 379.573 681.961 379.461 681.831C371.931 673.046 365.192 664.562 359.257 654.667C347.837 635.637 341.03 613.465 336.485 590.744C331.866 567.646 331.922 543.952 332.701 520.536C333.265 503.65 335.288 486.541 338.309 469.924C350.522 402.758 391.439 291.378 475.008 297.141C509.917 299.55 534.835 349.543 539.54 380.12C547.716 433.274 533.724 511.22 508.524 561.62C501.611 575.446 494.336 589.863 488.928 603.38C481.803 621.195 468.799 640.372 457.237 656.559C455.766 658.618 444.926 673.695 445.209 674.263C450.392 684.629 481.429 674.72 490.82 672.371C511.384 667.229 533.769 641.138 545.216 626.827C588.534 572.681 614.14 497.694 614.14 428.164C614.14 392.445 612.673 359.164 601.504 325.657C594.291 304.016 581.013 285.514 563.596 270.585C558.543 266.254 530.017 252.105 528.729 249.097C527.446 246.102 534.799 237.026 536.364 235.177C546.672 222.994 558.189 215.66 573.664 213.081ZM453.52 367.416C399.921 369.682 379.329 464.576 378.177 507.224C377.801 521.139 377.569 535.065 377.569 548.984C377.569 561.806 380.741 575.048 383.245 587.568C386.229 602.49 397.27 637.683 409.801 647.707C411.641 649.18 421.804 631.507 423.113 629.328C435.583 608.541 445.772 587.21 454.737 564.796C470.219 526.09 485.594 483.35 487.036 440.8C487.901 415.285 489.751 391.687 471.224 373.16C466.288 368.223 459.867 367.148 453.52 367.416ZM447.777 380.661C467.123 389.883 475.008 396.681 475.008 411.744C475.008 421.236 474.763 430.706 474.4 440.192C472.599 487.013 454.484 538.883 433.924 580C428.732 590.385 419.067 617.856 410.477 623.584C397.879 610.988 394.664 581.476 392.097 564.796C389.999 551.167 389.461 537.501 390.205 523.712C390.715 514.269 390.923 504.6 392.097 495.196C396.333 461.312 410.394 393.122 447.777 380.661Z" fill="#14264b" fill-rule="nonzero" opacity="1" stroke="none"/>
</g>
</svg>
