<?xml version="1.0" encoding="UTF-8" standalone="no"?>
<!DOCTYPE svg PUBLIC "-//W3C//DTD SVG 1.1//EN" "http://www.w3.org/Graphics/SVG/1.1/DTD/svg11.dtd">
<!-- Created with Vectornator (http://vectornator.io/) -->
<svg height="100%" stroke-miterlimit="10" style="fill-rule:nonzero;clip-rule:evenodd;stroke-linecap:round;stroke-linejoin:round;" version="1.1" viewBox="0 0 750 1000" width="100%" xml:space="preserve" xmlns="http://www.w3.org/2000/svg" xmlns:vectornator="http://vectornator.io" xmlns:xlink="http://www.w3.org/1999/xlink">
<defs/>
<g id="Layer-1" vectornator:layerName="Layer 1">
<path d="" fill="none" opacity="1" stroke="#f5c81a" stroke-linecap="butt" stroke-linejoin="round" stroke-width="1" vectornator:layerName="path"/>
<path d="M380.043 200.047C363.802 200.471 341.304 202.246 341.221 202.493C336.662 202.493 331.65 203.611 327.465 204.541C320.883 206.003 313.924 206.557 307.267 208.036C289.683 211.943 271.508 217.577 255.487 225.587C233.212 236.724 210.849 247.916 190.825 263.935C148.734 297.608 115.518 341.015 96.0287 389.739C91.3555 401.422 88.1681 413.594 84.6191 426.015C81.1599 438.122 79.1619 450.699 77.6037 463.165C77.0826 467.333 75.6032 472.766 75.5564 476.621C75.3638 492.517 75.3638 508.411 75.5564 524.307C75.6205 529.591 77.1304 536.92 78.1779 542.157C80.8153 555.344 82.0135 569.118 86.3917 582.253C90.7007 595.18 94.1027 607.936 100.123 619.977C101.278 622.286 101.724 625.05 103.069 627.292C112.621 643.211 120.054 660.107 131.431 675.277C157.611 710.184 189.059 738.71 226.227 761.01C248.836 774.576 274.687 784.379 300.551 790.845C309.287 793.029 318.747 795.79 327.465 796.412C336.428 797.053 345.292 799.786 354.078 799.908C385.001 800.334 412.725 799.494 442.433 792.892C514.06 776.975 575.672 732.69 620.042 673.529C636.616 651.431 647.464 626.92 657.492 601.851C664.972 583.152 668.762 562.048 671.822 542.157C672.694 536.491 674.378 529.405 674.444 524.032C674.636 508.234 674.636 492.419 674.444 476.621C674.38 471.375 672.974 464.612 672.122 459.07C670.043 445.561 667.965 431.695 663.633 418.7C661.522 412.366 660.482 405.081 657.492 399.102C653.438 390.994 651.608 381.39 646.956 373.636C644.405 369.385 642.133 364.04 639.915 359.605C636.831 353.436 632.458 347.561 629.405 341.455C623.1 328.845 612.102 316.732 603.065 306.053C578.507 277.029 550.422 256.147 518.505 236.997C495.646 223.281 465.055 212.265 438.639 207.462C430.625 206.005 423.343 204.41 415.52 203.367C412.728 202.995 398.605 199.562 380.043 200.047ZM371.055 217.124C391.849 216.7 412.713 218.741 433.071 223.265C500.2 238.183 561.777 274.863 603.065 332.667C610.23 342.697 618.109 353.416 623.538 364.274C626.72 370.639 629.851 378.092 633.499 384.172C638.079 391.805 639.502 401.47 643.436 409.338C646.956 416.379 648.285 425.462 650.177 433.031C656.831 459.649 659.076 486.86 657.766 514.37C656.409 542.882 651.13 573.265 640.515 599.804C635.889 611.37 629.573 622.626 625.011 634.033C622.701 639.806 618.563 645.054 615.349 650.41C605.718 666.463 593.759 682.261 580.546 695.474C527.597 748.424 457.704 783.829 381.591 783.829C352.06 783.829 322.959 780.199 294.684 772.12C285.484 769.492 275.175 766.598 266.897 762.458C262.723 760.372 257.61 757.434 253.14 756.317C246.706 754.708 237.591 748.385 231.794 744.907C213.374 733.855 195.27 721.265 180.015 706.01C122.783 648.778 89.5935 575.8 91.9342 493.873C92.5052 473.889 94.3224 452.672 99.8485 433.33C107.875 405.237 117.087 379.517 132.03 354.612C183.729 268.446 272.914 219.123 371.055 217.124ZM377.122 230.555C376.772 230.494 376.403 230.496 376.024 230.58C373.815 231.071 375.305 235.039 375.15 237.296C374.875 241.285 374.608 245.324 374.276 249.305C373.435 259.391 370.909 270.8 371.63 280.887C371.723 282.198 377.116 282.336 380.418 282.06C383.297 281.82 381.998 274.626 382.165 272.698C382.416 269.814 382.706 255.48 384.213 253.974C391.716 261.477 397.991 270.628 404.71 278.84C406.246 280.718 408.962 286.091 412.025 285.581C412.749 285.46 413.113 274.296 413.173 273.572C414.09 262.567 415.085 251.541 415.82 240.517C415.962 238.374 417.639 234.429 415.52 234.076C414.192 233.854 408.535 233.324 406.757 233.501C405.252 233.652 406.005 239.632 405.858 241.391C405.308 247.99 405.915 255.576 403.811 261.888C396.139 254.216 389.544 244.897 382.764 236.422C381.316 234.612 379.57 230.985 377.122 230.555ZM339.174 234.076C337.8 234.304 331.537 234.322 331.259 235.848C330.505 239.997 332.402 245.483 333.032 249.58C334.276 257.664 335.286 265.807 336.527 273.872C337.028 277.126 336.427 283.134 338.874 285.581C340.516 284.76 347.836 285.632 348.536 283.533C349.439 280.824 347.519 275.135 347.063 272.399C345.578 263.487 344.388 254.443 343.268 245.485C342.894 242.49 343.096 236.242 339.174 234.076ZM297.031 242.564C295.581 242.274 292.392 244.609 291.189 245.21C289.99 245.81 288.864 245.166 287.968 246.658C287.385 247.631 289.666 251.477 290.015 252.526C290.918 255.234 297.172 268.312 296.731 270.077C296.149 272.406 288.262 274.109 285.921 275.045C284.403 275.652 280.504 277.986 278.905 277.666C278.027 277.491 276.924 272.739 276.559 271.824C275.685 269.641 269.841 253.698 268.944 253.399C267.752 253.002 261.564 255.881 260.455 256.62C259.043 257.562 263.305 267.837 264.275 269.777C268.086 277.399 270.463 286.132 273.638 294.069C274.639 296.572 275.612 302.569 278.007 304.006C279.227 304.738 286.53 301.05 287.369 300.211C285.34 296.153 284.467 291.46 282.401 287.328C286.239 283.49 295.237 282.52 300.251 280.013C302.581 282.343 303.726 291.987 306.094 293.17C307.277 293.762 315.795 290.157 315.456 288.801C312.459 276.813 306.325 264.602 301.724 253.1C300.978 251.233 299.048 242.968 297.031 242.564ZM464.728 248.156C449.108 247.575 438.339 261.031 438.339 277.092C438.339 292.095 463.237 307.126 476.387 299.612C478.911 298.169 482.18 284.781 483.977 281.187C482.914 280.124 464.269 272.821 463.205 272.998C462.674 273.086 459.546 280.667 459.71 281.486C460.075 283.311 471.762 284.76 471.12 287.328C469.384 294.272 459.051 290.487 455.016 287.029C453.464 285.698 450.25 283.121 449.749 280.612C448.352 273.63 449.798 261.201 458.836 258.942C461.697 258.227 464.038 258.068 467.3 258.068C474.394 258.068 476.424 265.72 480.182 269.478C482.091 268.523 487.782 267.456 488.671 265.383C489.369 263.753 486.226 259.562 485.151 258.368C481.039 253.8 477.423 250.942 471.694 249.305C469.281 248.616 466.96 248.24 464.728 248.156ZM518.206 272.399C516.611 271.402 511.826 279.38 512.064 279.714C514.481 283.097 519.592 285.422 522.899 287.902C516.891 299.919 505.214 308.968 499.206 320.983C501.562 323.338 504.495 325.044 507.096 327.124C510.213 324.631 512.316 320.656 514.71 317.462C520.428 309.839 525.587 301.664 531.687 294.344C533.253 295.126 542.457 302.578 543.097 302.258C544.254 301.679 545.256 299.454 546.018 298.438C546.48 297.822 548.759 295.433 548.365 294.643C547.186 292.286 542.293 290.032 540.151 288.502C532.826 283.27 525.835 277.167 518.206 272.399ZM225.353 279.714C210.513 281.198 204.493 295.704 215.417 306.627C220.862 312.073 230.666 307.9 237.062 307.226C239.208 307 244.559 306.226 244.952 310.147C245.583 316.46 238.625 318.935 233.542 318.935C232.586 318.935 230.257 317.115 229.448 317.462C227.258 318.401 225.787 323.935 224.779 325.951C226.402 327.574 230.161 328.38 232.369 328.572C244.26 329.606 255.487 321.197 255.487 308.699C255.487 306.737 253.709 304.301 252.566 302.832C246.719 295.315 240.079 295.899 230.921 297.564C227.024 298.273 223.052 300.081 220.085 296.691C215.397 291.332 226.447 289.349 229.148 290.249C229.529 290.376 229.935 290.659 230.321 290.549C231.243 290.286 234.054 283.123 233.842 282.06C233.518 280.44 228.02 280.107 225.353 279.714ZM371.305 296.541C367.636 296.585 363.932 296.746 360.22 296.99C327.281 299.157 303.095 308.875 274.786 323.03C260.581 330.132 246.97 341.139 235.589 351.991C190.133 395.332 167.699 453.84 171.526 516.992C173.344 546.993 183.959 574.064 196.967 600.079C203.453 613.051 213.671 625.674 223.306 636.38C266.52 684.395 327.292 707.874 391.827 703.963C446.292 700.662 497.653 671.194 532.561 629.938C546.017 614.036 554.573 596.426 563.569 578.433C575.102 555.368 577.028 526.504 578.773 501.188C580.144 481.316 575.714 460.82 570.285 441.819C568.546 435.731 566.867 427.991 563.569 422.495C560.322 417.084 557.932 410.347 555.081 404.644C549.468 393.419 541.576 382.564 533.735 372.762C501.428 332.379 454.917 305.996 404.111 298.738C393.152 297.172 382.311 296.408 371.305 296.541ZM368.134 308.4C432.62 307.59 486.191 330.923 526.694 382.998C533.938 392.312 540.803 402.403 546.018 412.833C548.578 417.953 550.617 424.526 553.608 429.51C555.927 433.375 556.883 438.712 558.301 442.967C565.618 464.917 567.98 488.626 566.49 511.724C562.927 566.951 537.476 617.255 493.339 651.584C479.999 661.96 466.053 669.184 451.521 676.45C432.339 686.041 407.649 692.005 386.559 692.553C325.381 694.142 270.205 672.081 229.747 625.844C218.093 612.525 209.909 597.075 201.361 582.827C191.762 566.829 187.291 544.91 184.683 526.653C176.2 467.269 197.485 404.043 241.157 363.1C252.922 352.071 266.371 340.257 280.953 332.966C309.576 318.655 334.597 308.821 368.134 308.4ZM365.788 320.383C354.36 320.735 343.238 322.575 332.133 325.352C292.446 335.273 257.253 358.455 231.794 391.187C223.032 402.453 216.598 414.541 210.423 426.889C203.186 441.364 199.414 458.669 196.967 474.574C187.802 534.144 207.896 584.36 246.999 627.017C258.417 639.474 272.155 648.822 286.495 657.426C290.375 659.754 295.525 663.36 299.952 664.466C310.303 667.054 320.44 672.872 331.259 675.277C349.776 679.392 367.31 680.545 386.559 680.545C403.847 680.545 425.696 675.744 441.26 667.962C447.089 665.047 453.43 662.913 459.111 660.072C470.562 654.347 482.049 645.964 491.891 637.528C546.416 590.792 569.675 513.988 546.592 444.74C527.939 388.781 481.092 343.434 424.008 327.124C404.985 321.689 385.568 319.775 365.788 320.383ZM454.667 364.823C458.179 364.445 461.836 364.783 465.552 366.021C493.085 375.199 499.744 411.243 501.828 436.251C502.989 450.189 502.262 465.429 500.38 479.542C495.463 516.421 482.015 564.916 454.742 592.189C435.387 611.544 408.208 623.049 381.591 609.741C356.728 633.523 322.998 655.758 289.716 631.985C284.982 628.604 280.823 624.449 277.432 619.702C273.125 613.672 270.121 607.73 267.771 600.678C263.85 588.916 263.903 576.377 264.275 564.103C265.024 539.408 272.746 514.828 281.826 492.125C284.396 485.702 286.777 478.724 290.315 472.827C294.591 465.699 297.352 453.78 303.173 447.96C301.44 446.228 293.55 449.495 291.189 450.282C278.676 454.453 268.465 460.088 260.755 471.653C264.986 475.884 270.9 478.486 273.912 484.511C281.881 500.449 269.717 516.326 253.14 514.944C237.506 513.642 225.653 493.506 225.653 478.968C225.653 426.222 281.433 404.966 325.417 399.102C334.185 397.932 343.168 397.329 352.031 397.329C354.324 397.329 365.014 397.429 365.788 398.203C334.986 444.405 310.105 494.371 300.826 550.047C298.416 564.506 297.333 582.84 305.22 595.984C307.602 599.954 311.992 602.652 316.355 603.899C332.565 608.53 347.77 599.397 358.772 588.395C354.091 581.373 350.382 574.012 346.189 567.024C340.997 558.37 339.341 541.205 338.574 531.622C336.128 501.037 343.253 469.336 356.725 442.393C366.84 422.163 387.048 399.479 412.299 404.07C433.963 408.009 444.548 433.551 446.828 452.929C451.048 488.8 436.242 524.706 420.788 555.614C416.937 563.317 412.052 573.413 405.858 579.607C410.808 581.257 422.265 573.577 426.056 570.544C442.316 557.535 453.294 536.838 459.71 517.591C464.801 502.317 468.473 485.177 468.473 469.007C468.473 449.524 467.488 430.007 457.363 413.133C452.941 405.761 445.895 401.542 439.512 396.755C436.395 394.416 431.647 394.378 428.103 392.96C427.847 392.857 427.568 392.634 427.529 392.361C427.149 389.704 429.032 385.535 430.15 383.298C434.986 373.627 444.131 365.959 454.667 364.823ZM566.415 322.356C564.957 322.279 563.442 322.307 561.821 322.431C552.581 323.138 545.336 329.361 541.05 337.935C531.86 356.314 549.092 374.81 567.089 374.81C583.168 374.81 597.82 352.917 589.01 338.234C583.073 328.34 576.619 322.895 566.415 322.356ZM565.791 332.117C572.842 332.058 578.477 335.873 581.12 343.802C583.849 351.988 575.924 364.873 566.79 364.873C554.178 364.873 546.408 355.921 549.513 343.502C551.059 337.32 557.254 333.24 562.695 332.392C563.756 332.227 564.784 332.126 565.791 332.117ZM167.432 328.572C164.277 331.727 169.999 337.338 171.526 341.155C174.71 349.115 180.26 356.149 183.51 364.274C185.464 369.159 188.404 375.384 191.699 379.778C193.874 377.603 197.048 374.672 198.44 371.889C199.275 370.218 193.075 365.478 194.345 363.7C197.131 359.799 201.668 353.083 205.455 350.243C207.278 348.876 212.36 353.62 213.944 352.565C216.666 350.75 219.003 346.984 220.959 344.376C218.394 341.811 210.288 341.027 206.629 339.982C197.563 337.392 188.344 335.069 179.415 332.093C175.552 330.805 171.082 330.397 167.432 328.572ZM183.51 342.928C186.022 343.892 196.907 346.171 196.093 347.596C195.844 348.031 193.198 351.086 193.172 351.117C191.922 352.616 190.76 354.128 189.377 355.511C188.065 354.199 182.716 343.722 183.51 342.928ZM141.092 364.873C139.946 366.02 136.448 373.225 136.998 374.51C137.746 376.256 141.492 378.588 142.84 379.778C147.754 384.114 152.624 389.33 158.069 392.96C157.874 393.155 157.746 393.529 157.47 393.534C148.11 393.725 138.745 393.439 129.383 393.534C128.378 393.544 125.467 394.788 127.062 396.455C129.064 398.548 131.178 400.526 133.203 402.597C135.47 404.915 137.681 407.267 139.919 409.612C142.492 412.308 145.08 415.022 147.534 417.826C146.405 418.955 139.736 417.886 139.045 417.826C135.291 417.5 122.318 417.489 119.447 416.054C118.174 417.327 114.685 423.878 115.053 425.715C115.246 426.682 119.227 426.556 119.746 426.589C121.987 426.734 124.221 426.753 126.462 426.889C137.096 427.533 147.708 428.345 158.344 428.936C159.59 429.005 168.468 430.658 169.179 429.236C170.732 426.13 161.303 418.851 158.943 416.353C155.059 412.241 151.144 408.157 147.234 404.07C147.429 403.777 147.482 403.206 147.833 403.196C158.46 402.909 169.089 403.481 179.715 403.196C181.936 403.137 180.233 400.124 178.841 398.802C174.74 394.906 170.463 391.176 166.258 387.392C157.972 379.935 150.007 371.559 141.092 364.873ZM455.89 370.715C448.733 371.908 443.406 375.317 438.639 380.951C437.915 381.806 434.525 386.007 435.118 387.392C435.714 388.783 448.885 395.326 451.222 397.329C459.277 404.233 465.437 412.786 468.773 422.794C473.938 438.29 474.615 453.661 474.615 470.18C474.615 502.335 462.766 537.014 442.733 562.055C437.439 568.673 427.077 580.749 417.567 583.127C413.224 584.213 398.893 588.795 396.496 584.001C396.365 583.738 401.383 576.764 402.063 575.812C407.41 568.326 413.398 559.459 416.693 551.22C419.194 544.969 422.559 538.315 425.756 531.921C437.41 508.613 443.893 472.542 440.112 447.96C437.936 433.819 426.396 410.726 410.252 409.612C371.604 406.947 352.711 458.442 347.063 489.504C345.666 497.189 344.702 505.088 344.441 512.897C344.081 523.726 344.053 534.696 346.189 545.378C348.291 555.886 351.444 566.137 356.725 574.938C359.47 579.514 362.605 583.433 366.087 587.496C366.139 587.556 367.017 588.576 366.661 588.969C354.228 602.711 339.988 610.914 321.323 610.914C294.318 610.914 291.883 576.019 294.11 557.087C299.161 514.153 316.134 474.716 334.78 437.425C338.952 429.08 344.126 420.184 349.41 412.259C350.211 411.057 354.923 405.16 354.378 404.07C352.98 401.273 348.142 403.421 345.016 403.471C334.215 403.642 323.352 405.024 312.535 406.991C282.434 412.464 250.791 426.619 236.463 455.275C231.052 466.096 228.678 481.98 235.29 492.999C240.589 501.831 250.499 513.931 262.503 507.929C265.018 506.671 267.875 504.459 268.944 501.787C271.996 494.157 269.882 486.922 264.275 481.315C262.168 479.208 259.47 477.724 256.661 476.921C255.472 476.581 253.201 477.017 252.566 475.748C252.275 475.165 253.132 473.041 253.44 472.527C264.469 454.145 277.747 447.364 297.63 442.393C300.396 441.701 312.855 438.893 314.307 440.346C298.418 464.18 287.858 491.307 278.905 518.165C270.529 543.295 266.014 572.996 273.338 598.631C280.441 623.493 305.153 640.641 330.96 634.907C334.743 634.066 339.571 633.15 342.968 631.112C349.447 627.224 356.304 623.8 362.567 619.103C369.347 614.018 375.04 607.826 381.291 602.126C381.959 601.518 383.771 603.378 384.213 603.599C388.183 605.584 392.942 607.003 397.395 607.993C407.23 610.179 420.505 609.042 429.576 603.599C471.023 578.731 489.133 524.615 494.238 478.669C495.453 467.739 495.986 456.951 495.986 445.913C495.986 422.243 489.308 375.322 455.89 370.715ZM400.316 442.093C403.251 441.969 406.222 442.457 408.505 444.74C417.073 453.308 416.22 464.247 415.82 476.047C415.153 495.725 408.05 515.494 400.89 533.394C396.744 543.76 392.027 553.616 386.26 563.229C385.655 564.237 380.969 572.398 380.118 571.717C374.323 567.081 369.215 550.806 367.835 543.905C366.677 538.115 365.213 532.009 365.213 526.079C365.213 519.642 365.314 513.19 365.488 506.755C366.021 487.032 375.528 443.141 400.316 442.093ZM617.696 382.699C617.176 382.387 607.139 386.816 605.987 387.392C598.059 391.356 588.772 393.353 580.821 397.329C578.847 398.316 571.479 399.189 570.585 401.423C569.843 403.277 573.087 409.219 574.379 410.511C580.491 407.455 587.588 405.462 594.003 402.896C595.55 402.278 599.169 399.899 600.419 401.149C597.514 405.506 596.112 410.961 593.703 415.779C590.904 421.378 588.139 427.219 585.814 433.031C585.109 434.792 582.962 437.034 584.341 438.873C585.71 440.697 593.461 436.315 595.451 435.652C604.586 432.607 614.773 428.925 623.538 424.542C625.208 423.707 631.402 422.62 632.026 420.747C632.678 418.792 629.565 413.018 628.231 411.684C620.071 415.765 610.937 417.835 602.766 421.921C601.484 420.639 604.97 415.524 605.687 413.732C608.681 406.247 612.689 399.459 615.648 392.061C616.464 390.023 620.508 384.386 617.696 382.699ZM397.669 448.235C380.381 453.998 373.888 485.518 371.929 501.188C371.386 505.537 371.291 510.003 371.055 514.37C370.711 520.747 370.959 527.091 371.929 533.394C373.116 541.108 374.592 554.757 380.418 560.582C384.391 557.933 388.852 545.213 391.253 540.41C400.761 521.395 409.145 497.401 409.978 475.748C410.146 471.361 410.252 466.98 410.252 462.59C410.252 455.624 406.616 452.5 397.669 448.235ZM133.203 503.834C131.511 505.527 128.421 519.568 127.062 519.638C121.705 519.915 116.319 519.45 110.958 519.638C110.683 519.648 110.579 520.017 110.384 520.212C114.202 524.03 120.519 526.296 123.841 530.448C124.915 531.792 118.015 544.82 119.746 546.551C121.421 545.714 132.651 536.693 133.478 537.189C138.063 539.94 141.823 544.432 146.66 546.851C146.953 546.558 146.942 546.544 147.234 546.252C146.604 544.991 142.102 530.941 142.266 530.448C142.809 528.818 153.79 521.903 155.723 520.212C154.441 518.93 152.742 519.638 151.029 519.638C147.031 519.638 143.034 519.91 139.045 519.638C137.982 519.565 134.874 505.505 133.203 503.834ZM616.822 504.134C615.229 505.727 612.512 519.557 610.955 519.638C605.598 519.915 600.237 519.45 594.877 519.638C594.601 519.648 594.472 520.017 594.277 520.212C598.087 524.021 604.424 526.31 607.734 530.448C608.044 530.835 603.455 544.873 602.766 546.252C603.058 546.544 603.072 546.558 603.365 546.851C604.834 545.872 616.702 536.773 617.396 537.189C619.083 538.202 629.747 547.795 630.853 545.952C632.051 543.955 625.384 532.849 626.184 530.448C627.061 527.818 634.189 524.532 636.42 522.859L639.866 519.938C639.866 519.938 636.086 519.434 634.673 519.638C630.795 519.207 626.855 519.909 622.963 519.638C621.707 519.55 619.168 505.698 616.822 504.134ZM180.888 601.252C175.256 604.068 169.795 608.565 164.511 612.087C155.956 617.791 146.506 622.636 138.471 629.064C140.073 631.467 141.485 635.097 143.714 636.954C144.163 637.328 149.101 633.678 149.881 633.159C155.576 629.362 161.437 625.821 167.132 622.024C167.425 622.317 167.414 622.331 167.706 622.623C166.66 624.716 166.482 628.156 165.959 630.512C164.239 638.253 162.111 645.892 160.391 653.631C159.654 656.948 157.424 660.875 160.117 663.568C171.596 657.828 182.746 649.072 193.471 641.922C194.78 641.049 202.961 636.275 202.534 635.206C201.804 633.38 199.12 629.135 197.566 627.891C196.795 627.274 193.99 629.867 193.471 630.213C189.595 632.797 185.64 635.243 181.762 637.828C180.544 638.64 174.427 643.344 173.573 641.922C172.688 640.446 175.234 634.299 175.621 632.56C177.339 624.829 179.611 617.204 181.163 609.441C181.834 606.086 183.504 603.867 180.888 601.252ZM574.18 606.67C573.248 606.646 572.334 606.819 572.332 606.82C557.639 608.918 552.7 624.337 562.97 634.607C569.892 641.529 579.916 634.628 586.089 630.512C588.984 628.582 594.013 625.183 596.924 629.064C599.983 633.144 594.262 639.656 590.782 641.048C589.081 641.729 585.433 639.843 584.64 642.222C584.293 643.266 583.704 651.49 584.64 651.584C596.002 652.72 606.283 643.736 607.46 632.56C607.718 630.101 607.942 627.205 606.586 624.945C599.923 613.841 590.405 615.879 581.12 621.45C578.489 623.029 572.26 629.052 568.837 626.118C560.873 619.292 576.114 616.271 576.152 615.882C576.415 613.164 576.415 610.411 576.152 607.693C576.076 606.91 575.111 606.693 574.18 606.67ZM526.569 657.95C526.32 657.816 526.07 657.812 525.82 658.025C523.301 660.172 521.145 662.7 518.805 665.041C518.902 665.236 518.951 665.46 519.104 665.615C530.662 677.268 542.158 688.982 553.907 700.443C554.117 700.647 554.57 700.645 554.781 700.443C561.652 693.858 568.249 686.974 574.979 680.245C574.931 680.174 574.934 680.095 574.904 680.02C574.776 680.122 574.83 680.124 574.679 680.245C573.929 678.746 573.439 678.564 574.679 677.324C573.27 675.541 571.661 673.919 570.01 672.356C569.869 672.222 569.553 672.221 569.411 672.356C565.709 675.868 562.255 679.629 558.601 683.191C557.898 683.877 555.206 687.071 554.506 686.387C545.828 677.902 537.278 669.274 528.741 660.647C528.049 659.947 527.316 658.353 526.569 657.95ZM574.904 680.02C576.269 678.938 576.264 678.646 574.979 677.624C575.258 677.99 574.529 679.111 574.904 680.02ZM231.195 662.993C230.678 662.624 220.52 668.434 218.912 668.835C216.113 669.535 213.096 671.593 210.423 672.93C204.25 676.017 197.778 678.841 191.424 682.018C188.009 683.725 183.595 684.579 180.888 687.285C182.353 689.116 186.913 694.434 189.077 694.001C190.794 693.658 195.51 689.554 196.967 690.481C200.635 692.816 207.35 698.346 209.849 701.916C211.267 703.941 206.561 708.419 207.502 710.679C208.488 713.045 213.15 715.944 215.117 717.42C217.434 715.875 217.839 709.84 218.912 707.158C222.96 697.037 226.154 686.055 229.148 675.576C230.016 672.537 234.075 665.05 231.195 662.993ZM217.164 679.371C217.603 679.664 217.599 679.678 218.038 679.97C216.862 683.5 215.929 690.268 213.369 692.828C210.271 691.279 207.719 688.029 205.455 685.513C208.734 682.234 213.951 682.584 217.164 679.371ZM256.361 684.339C254.833 685.867 254.337 687.539 253.44 689.333C253.177 689.859 251.457 691.547 251.692 692.254C252.79 695.548 261.224 697.117 263.676 699.569C258.015 710.892 251.898 721.377 246.125 732.923C246.163 732.961 246.168 732.967 246.2 732.998C245.03 734.53 245.509 736.437 246.999 736.419C248.742 738.162 251.54 739.139 253.74 740.239C260.481 733.497 262.359 721.814 268.07 714.199C269.958 711.682 270.72 706.107 273.338 704.537C273.777 704.274 284.022 710.029 285.322 710.679C286.405 709.596 290.343 704.427 290.015 702.789C289.558 700.502 283.123 698.659 281.227 697.522C273.365 692.804 264.898 688.608 256.361 684.339ZM485.151 687.285C481.825 688.948 484.455 696.894 484.876 699.843C486.489 711.132 487.739 722.503 489.245 733.797C489.575 736.272 489.224 741.94 491.018 743.734C497.22 740.633 502.747 738.282 498.607 730.002C500.025 728.585 512.478 720.64 514.111 720.64C516.601 720.64 518.816 725.883 521.426 725.883C522.101 725.883 529.394 721.18 530.514 720.341C528.239 716.928 522.732 714.247 519.379 711.852C511.336 706.107 503.188 700.368 495.387 694.301C494.232 693.403 485.653 687.034 485.151 687.285ZM495.686 706.01C499.343 708.753 503.286 711.238 506.522 714.474C503.566 716.444 500.334 718.454 497.159 720.041C495.601 718.483 494.097 707.599 495.686 706.01ZM447.876 706.984C445.188 706.767 440.68 708.059 439.812 709.505C439.147 710.613 440.959 714.741 441.26 715.947C442.844 722.283 443.619 730.326 446.528 736.144C446.235 736.437 446.246 736.426 445.954 736.718C443.771 734.536 440.407 733.036 437.765 731.45C431.64 727.775 425.738 723.715 419.614 720.041C417.957 719.046 412.247 714.291 410.552 715.647C408.163 717.558 411.708 725.27 412.299 727.93C414.323 737.035 417.067 746.052 419.34 755.143C420.039 757.938 420.235 762.009 421.662 764.506C422.495 765.965 430.854 764.682 431.623 762.758C432.273 761.133 430.267 756.809 429.851 755.143C428.368 749.213 427.61 741.599 424.882 736.144C425.175 735.852 425.189 735.837 425.482 735.545C432.078 742.141 444.501 747.259 452.395 752.522C454.349 753.824 458.943 757.978 461.158 756.317C463.13 754.838 459.608 746.571 459.111 744.333C457.164 735.571 454.565 726.974 452.395 718.293C451.642 715.283 451.378 710.366 449.749 707.758C449.462 707.299 448.772 707.056 447.876 706.984ZM309.614 708.631C307.356 710.889 306.737 717.129 305.819 720.341C303.414 728.758 300.911 737.08 298.504 745.506C297.809 747.939 294.625 754.313 295.283 756.616C295.719 758.143 303.019 759.024 304.646 759.837C306.66 757.822 307.066 752.974 307.866 750.175C310.46 741.098 313.17 732.012 315.755 722.962C316.615 719.955 319.42 714.662 318.976 711.552C318.825 710.497 311.651 709.214 309.614 708.631ZM362.267 717.42C336.997 718.792 327.809 752.314 350.583 765.979C355.227 768.765 361.372 769.499 366.661 769.499C382.53 769.499 395.325 748.132 388.307 734.097C382.655 722.793 374.519 716.754 362.267 717.42ZM365.014 726.632C371.051 726.801 374.89 730.344 378.37 736.144C383.462 744.63 376.361 760.137 366.087 760.137C343.785 760.137 341.237 729.336 362.267 726.782C363.224 726.666 364.151 726.608 365.014 726.632Z" fill="#FFFFFF" fill-rule="nonzero" opacity="1" stroke="none" vectornator:layerName="path"/>
</g>
</svg>
