<?xml version="1.0" encoding="UTF-8" standalone="no"?>
<!DOCTYPE svg PUBLIC "-//W3C//DTD SVG 1.1//EN" "http://www.w3.org/Graphics/SVG/1.1/DTD/svg11.dtd">
<!-- Created with Vectornator (http://vectornator.io/) -->
<svg height="100%" stroke-miterlimit="10" style="fill-rule:nonzero;clip-rule:evenodd;stroke-linecap:round;stroke-linejoin:round;" version="1.1" viewBox="0 0 100 100" width="100%" xml:space="preserve" xmlns="http://www.w3.org/2000/svg" xmlns:vectornator="http://vectornator.io" xmlns:xlink="http://www.w3.org/1999/xlink">
<defs/>
<g id="Layer-1" vectornator:layerName="Layer 1">
<path d="M38.9034 16C40.2098 16 41.5329 16.5019 42.5284 17.5L42.966 17.9375C44.9622 19.9337 44.9622 23.1651 42.966 25.1562L23.216 44.9062L89.966 44.9062C92.7841 44.9062 95.0597 47.1818 95.0597 50C95.0597 52.8182 92.7841 55.0937 89.966 55.0938L23.216 55.0938L42.966 74.8438C44.9622 76.84 44.9622 80.0714 42.966 82.0625L42.5284 82.5C40.5322 84.4962 37.3008 84.4962 35.3097 82.5L6.43465 53.625C4.43845 51.6288 4.43845 48.3661 6.43465 46.375L35.3097 17.5C36.3078 16.5019 37.5971 16 38.9034 16Z" fill="#ffffff" fill-rule="nonzero" opacity="1" stroke="none" vectornator:layerName="Curve 1"/>
</g>
</svg>
