<?xml version="1.0" encoding="UTF-8" standalone="no"?>
<!DOCTYPE svg PUBLIC "-//W3C//DTD SVG 1.1//EN" "http://www.w3.org/Graphics/SVG/1.1/DTD/svg11.dtd">
<!-- Created with Vectornator (http://vectornator.io/) -->
<svg height="100%" stroke-miterlimit="10" style="fill-rule:nonzero;clip-rule:evenodd;stroke-linecap:round;stroke-linejoin:round;" version="1.1" viewBox="0 0 100 100" width="100%" xml:space="preserve" xmlns="http://www.w3.org/2000/svg" xmlns:vectornator="http://vectornator.io" xmlns:xlink="http://www.w3.org/1999/xlink">
<defs/>
<g id="Layer-1" vectornator:layerName="Layer 1">
<path d="M61.0938 16C59.7874 16 58.4643 16.5019 57.4688 17.5L57.0312 17.9375C55.035 19.9337 55.035 23.1651 57.0312 25.1562L76.7812 44.9062L10.0312 44.9062C7.21303 44.9062 4.9375 47.1818 4.9375 50C4.9375 52.8182 7.21303 55.0937 10.0312 55.0938L76.7812 55.0938L57.0312 74.8438C55.035 76.84 55.035 80.0714 57.0312 82.0625L57.4688 82.5C59.465 84.4962 62.6964 84.4962 64.6875 82.5L93.5625 53.625C95.5587 51.6288 95.5587 48.3661 93.5625 46.375L64.6875 17.5C63.6894 16.5019 62.4001 16 61.0938 16Z" fill="#ffffff" fill-rule="nonzero" opacity="1" stroke="none" vectornator:layerName="Curve 1"/>
</g>
</svg>
