<?xml version="1.0" encoding="UTF-8"?>
<!--Generator: Apple Native CoreSVG 175.5-->
<!DOCTYPE svg
PUBLIC "-//W3C//DTD SVG 1.1//EN"
       "http://www.w3.org/Graphics/SVG/1.1/DTD/svg11.dtd">
<svg version="1.1" xmlns="http://www.w3.org/2000/svg" xmlns:xlink="http://www.w3.org/1999/xlink" width="49.3762" height="25.0364">
 <g>
  <rect height="25.0364" opacity="0" width="49.3762" x="0" y="0"/>
  <path d="M1.83398 25.0364L47.5164 25.0364C48.5525 25.0364 49.3762 24.2179 49.3762 23.1766C49.3762 22.1405 48.5525 21.3167 47.5164 21.3167L1.83398 21.3167C0.823808 21.3167 0 22.1405 0 23.1766C0 24.2179 0.823808 25.0364 1.83398 25.0364ZM1.83398 14.4095L47.5164 14.4095C48.5525 14.4095 49.3762 13.5857 49.3762 12.5496C49.3762 11.5136 48.5525 10.6898 47.5164 10.6898L1.83398 10.6898C0.823808 10.6898 0 11.5136 0 12.5496C0 13.5857 0.823808 14.4095 1.83398 14.4095ZM1.83398 3.75662L47.5164 3.75662C48.5525 3.75662 49.3762 2.93286 49.3762 1.92268C49.3762 0.886592 48.5525 0.0627823 47.5164 0.0627823L1.83398 0.0627823C0.823808 0.0627823 0 0.886592 0 1.92268C0 2.93286 0.823808 3.75662 1.83398 3.75662Z" fill="#ffffff" fill-opacity="0.85"/>
 </g>
</svg>
