<?xml version="1.0" encoding="UTF-8" standalone="no"?>
<!DOCTYPE svg PUBLIC "-//W3C//DTD SVG 1.1//EN" "http://www.w3.org/Graphics/SVG/1.1/DTD/svg11.dtd">
<!-- Created with Vectornator (http://vectornator.io/) -->
<svg height="100%" stroke-miterlimit="10" style="fill-rule:nonzero;clip-rule:evenodd;stroke-linecap:round;stroke-linejoin:round;" version="1.1" viewBox="0 0 750 1000" width="100%" xml:space="preserve" xmlns="http://www.w3.org/2000/svg" xmlns:vectornator="http://vectornator.io" xmlns:xlink="http://www.w3.org/1999/xlink">
<defs/>
<g id="Layer-1" vectornator:layerName="Layer 1">
<path d="M365.216 200.05C361.902 200.131 358.599 200.321 355.3 200.674C353.06 200.914 350.832 201.168 348.581 201.249C342.844 201.454 336.991 202.585 331.296 203.297C316.754 205.115 303.038 209.793 289.157 213.263C284.073 214.534 278.982 215.635 273.921 217.66C215.845 240.89 167.956 274.045 129.621 327.714C115.946 346.858 105.612 366.492 97.1237 387.712C87.883 410.814 81.8973 434.104 78.0902 458.851C77.0268 465.763 75.5413 473.861 75.4674 480.507C75.2745 497.874 74.9931 515.25 75.4674 532.612C75.4863 533.301 76.6326 533.468 76.9411 534.085C78.3743 536.952 78.3537 546.357 78.9894 550.172C80.8888 561.568 84.6763 572.811 86.8825 583.842C90.0189 599.524 97.1407 615.199 104.143 629.203C120.934 662.786 142.408 692.072 169.711 719.375C187.175 736.84 208.12 750.379 229.134 762.987C255.411 778.753 288.12 789.067 318.707 795.184C328.667 797.176 340.153 799.744 350.03 799.855C367.104 800.048 384.186 800.048 401.26 799.855C424.71 799.59 451.609 791.557 474.147 784.044C482.271 781.336 491.472 778.754 498.726 774.402C505.248 770.489 513.072 767.23 519.808 763.861C537.82 754.855 555.196 741.508 570.439 728.442C595.618 706.86 614.804 682.264 632.81 655.256C640.625 643.533 645.848 629.754 652.118 617.213C655.86 609.729 657.312 600.905 660.611 593.209C666.095 580.413 668.984 564.86 671.152 550.771C672.387 542.743 674.56 533.691 674.648 525.893C674.841 508.916 674.841 491.913 674.648 474.937C674.582 469.105 673.341 462.021 672.325 455.928C668.396 432.35 662.408 410.352 653.592 388.312C633.671 338.511 599.41 294.357 556.101 260.672C539.459 247.729 521.462 238.095 502.822 228.775C491.538 223.133 479.222 218.768 467.128 214.737C464.088 213.724 460.402 211.868 457.462 211.215C441.041 207.566 424.579 203.957 407.705 202.423C403.698 202.059 398.627 200.725 395.116 200.674C385.164 200.53 375.159 199.806 365.216 200.05ZM372.285 207.418C410.983 207.34 448.513 213.85 484.388 228.2C562.479 259.437 627.184 328.147 654.166 409.094C669.545 455.231 673.068 506.595 663.533 554.268C660.069 571.586 656.476 591.213 648.596 606.972C643.34 617.485 640.32 628.768 634.258 638.87C622.32 658.767 610.299 677.87 594.743 695.371C542.058 754.641 463.191 794.01 383.101 794.01C354.129 794.01 326.654 790.733 298.799 783.769C289.178 781.364 277.795 778.825 268.95 774.402C262.418 771.136 255.652 769.065 249.342 765.91C244.056 763.267 238.68 759.707 232.956 757.417C226.992 755.031 221.079 750.482 215.671 746.876C201.518 737.441 187.351 727.348 175.281 715.279C121.402 661.4 87.2907 597.766 82.4863 520.897C81.0723 498.272 82.5718 475.617 86.0083 453.28C89.6181 429.816 95.8952 403.932 106.491 382.742C117.409 360.905 129.098 339.452 144.832 319.222C199.975 248.324 283.664 207.597 372.285 207.418ZM375.782 214.437C371.872 214.453 367.984 214.569 364.092 214.737C290.196 217.92 229.667 245.122 176.155 295.817C162.533 308.722 149.986 323.193 139.562 338.83C136.683 343.148 132.426 347.764 130.495 352.593C126.933 361.497 120.58 370.399 116.457 378.645C110.226 391.106 105.799 404.999 101.22 418.735C94.6368 438.485 91.6937 459.85 90.1047 480.507C83.3207 568.7 116.935 646.691 178.203 707.96C192.842 722.599 211.429 737.574 230.034 746.876C237.668 750.694 245.254 757.644 253.738 759.765C257.238 760.64 260.997 763.013 264.554 764.436C273.338 767.95 281.877 771.523 290.906 774.103C322.686 783.183 353.836 786.692 387.197 786.692C407.11 786.692 428.411 783.084 447.52 777.625C458.385 774.52 469.944 771.808 479.992 766.784C488.673 762.443 498.25 759.128 506.919 754.794C526.983 744.762 546.417 730.731 563.42 715.853C648.811 641.136 683.489 520.168 647.147 411.142C629.645 358.634 596.02 311.061 551.705 275.609C529.513 257.856 506.49 247.444 482.04 235.219C474.314 231.356 465.108 229.467 456.887 226.727C430.856 218.05 403.153 214.33 375.782 214.437ZM369.138 231.023C370.863 231.102 372.718 231.45 374.334 231.398C378.724 231.69 381.935 231.514 385.149 231.697C385.425 231.713 385.71 232.024 385.749 232.297C385.996 234.028 384.229 235.838 384.575 237.567C386.317 246.281 390.037 254.694 392.193 263.32C393.678 269.261 395.526 275.366 397.464 281.18C397.718 281.944 399.593 286.516 398.338 286.725C396.8 286.981 385.949 285.377 385.749 284.976C385.162 283.804 384.708 277.441 383.101 277.358C377.742 277.081 372.378 277.17 367.015 277.358C364.822 277.435 365.766 284.811 363.793 285.551C362.86 285.9 351.952 287.038 351.803 285.85C351.435 282.903 353.912 278.458 354.726 275.609C357.249 266.777 360.096 258.088 362.619 249.257C364.211 243.684 367.462 237.887 364.667 232.297C365.81 231.154 367.413 230.944 369.138 231.023ZM432.283 237.567C433.876 237.169 441.982 238.946 443.399 239.89C445.803 241.493 445.531 246.103 446.046 248.683C446.825 252.577 448.835 270.505 450.717 272.387C451.918 271.187 451.968 269.285 452.491 267.716C454.204 262.578 456.517 248.179 459.81 244.886C461.769 245.866 469.642 247.132 470.35 249.257C470.623 250.075 467.267 259.437 466.828 260.972C464.094 270.542 461.071 280.098 458.336 289.672C457.504 292.585 456.883 298.144 454.839 300.188C452.56 299.049 445.366 297.953 444.298 295.817C441.535 290.29 441.189 278.522 439.902 272.087C439.499 270.073 439.546 265.587 438.153 264.194C436.761 265.586 436.716 267.933 436.105 269.764C433.893 276.401 433.032 284.927 429.935 291.121C429.213 292.565 421.043 289.604 419.42 289.372C418.998 289.312 418.347 289.581 418.246 288.773C417.867 285.746 420.432 281.478 421.168 278.532C423.584 268.868 426.92 259.447 429.661 249.857C430.24 247.831 431.709 244.922 431.709 242.838C431.709 242.534 431.172 239.152 431.409 238.442C431.54 238.049 431.882 237.668 432.283 237.567ZM296.176 243.712C298.408 244.828 299.052 251.692 299.698 253.953C301.706 260.981 304.073 267.954 305.843 275.035C306.409 277.299 306.902 282.239 308.466 283.802C314.948 280.561 323.576 281.368 329.847 278.232C330.042 278.427 330.412 278.556 330.422 278.832C330.542 282.441 330.768 286.119 330.122 289.672C329.895 290.919 325.736 291.199 324.851 291.421C319.971 292.641 315.004 293.92 310.214 295.517C308.518 296.082 301.816 299.511 300.273 298.739C298.464 297.835 297.311 290.158 296.751 288.198C293.911 278.258 291.131 268.316 288.283 258.349C287.91 257.042 285.045 248.091 285.336 247.509C285.705 246.77 295.603 243.425 296.176 243.712ZM253.738 260.672C254.859 261.793 255.558 262.856 256.361 264.194C256.863 265.031 260.356 269.747 259.883 270.339C258.15 272.505 249.162 275.109 248.767 277.083C248.439 278.725 253.104 284.336 254.013 285.85C259.349 294.745 265.485 303.5 270.124 312.777C268.153 314.255 265.94 315.743 263.679 316.874C263.657 316.851 263.628 316.844 263.604 316.824C261.466 318.33 260.594 319.426 258.709 316.599C258.746 316.562 258.752 316.555 258.784 316.524C253.692 308.85 249.108 300.763 244.371 292.869C242.514 289.774 240.834 285.409 237.927 283.228C234.735 285.355 229.943 290.313 226.811 287.599C226.267 287.127 219.666 282.113 220.367 281.18C221.665 279.449 224.734 278.353 226.512 277.083C232.689 272.671 239.327 268.964 245.82 265.068C248.275 263.595 251.712 262.698 253.738 260.672ZM497.552 260.672C505.166 265.748 513.833 269.921 521.856 274.735C524.2 276.142 529.998 278.731 531.223 281.18C531.649 282.033 527.393 285.041 527.126 285.276C525.618 286.607 524.428 289.467 522.455 289.073C519.497 288.481 516.131 284.612 513.363 283.228C507.395 290.688 503.1 299.858 498.151 308.106C496.517 310.83 494.163 316.994 491.407 318.647C490.783 319.021 481.807 313.526 481.466 312.502C481.358 312.179 486.474 304.073 487.036 303.135C492.252 294.442 498.29 285.848 502.822 276.783C500.183 274.144 493.622 273.53 491.707 270.339C491.428 269.874 496.609 261.615 497.552 260.672ZM370.812 301.087C400.643 300.821 431.972 306.04 458.935 319.521C510.244 345.176 551.392 390.787 567.242 446.262C588.761 521.579 563.971 595.091 509.566 647.362C492.921 663.355 473.965 673.343 453.94 683.356C432.36 694.146 405.082 699.742 381.053 699.742C357.273 699.742 333.859 696.716 311.388 689.226C300.051 685.447 290.334 679.68 279.79 675.463C276.241 674.043 272.83 671.287 269.549 669.318C255.346 660.796 242.533 649.677 231.183 637.696C182.232 586.026 162.195 509.849 185.247 440.691C197.048 405.288 216.407 374.538 246.12 349.071C253.244 342.964 260.889 336.947 268.95 332.11C273.349 329.471 278.627 327.257 282.713 324.192C286.922 321.036 292.728 319.634 297.65 317.173C319.722 306.137 346.166 301.307 370.812 301.087ZM188.445 307.806C191.494 307.806 199.355 313.549 202.507 315.125C210.569 319.156 218.287 323.602 226.512 327.714C230.139 329.528 235.759 331.116 238.801 334.159C237.511 336.739 231.676 341.38 229.134 342.651C227.801 343.318 222.923 337.75 221.816 338.83C217.813 342.73 213.001 346.052 210.126 350.844C208.974 352.764 214.951 356.68 213.923 358.737C212.37 361.842 208.504 365.33 206.029 367.804C203.174 364.949 200.464 359.211 198.985 355.515C195.884 347.762 190.054 340.875 186.396 333.559C184.959 330.685 183.494 325.986 181.126 323.618C179.76 322.252 177.531 322.072 176.155 320.695C177.584 317.838 188.05 307.806 188.445 307.806ZM562.845 307.806C563.004 307.806 574.388 318.602 575.434 320.695C574.203 321.516 572.061 321.995 571.038 323.018C568.688 325.369 567.471 329.546 565.768 332.385C560.439 341.266 556.324 349.782 551.13 358.438C549.301 361.487 547.972 365.392 545.56 367.804C543.241 365.153 539.347 361.762 537.667 358.737C536.406 356.467 542.424 352.765 541.464 350.844C538.964 345.845 533.829 342.676 529.774 338.83C528.586 337.703 523.484 343.316 522.156 342.651C519.462 341.304 514.17 336.921 512.789 334.159C515.446 331.501 521.532 329.132 525.078 327.714C533.42 324.377 540.784 318.444 549.082 315.125C552.266 313.852 560.099 307.806 562.845 307.806ZM578.632 363.109C578.842 363.023 579.051 363.017 579.231 363.134C585.959 367.487 589.199 378.098 592.694 385.09C609.783 419.267 621.669 455.778 621.669 494.844C621.669 507.516 620.893 520.341 619.321 532.911C616.677 554.069 610.684 575.013 602.936 594.383C601.996 596.732 597.195 609.106 595.617 609.895C594.673 610.367 593.354 608.751 592.694 608.421C591.531 607.839 589.847 607.947 589.173 606.373C588.81 605.527 593.164 598.325 593.569 596.706C594.498 592.99 596.753 589.07 598.265 585.291C601.156 578.062 603.448 570.535 605.583 563.06C614.661 531.287 615.853 496.616 610.854 464.121C607.792 444.217 602.618 422.222 593.569 404.123C590.68 398.346 587.406 392.664 585.076 386.838C583.572 383.078 575.135 372.961 575.135 370.152C575.135 368.685 577.157 363.709 578.632 363.109ZM170.885 363.134C172.414 364.663 175.564 368.697 174.981 371.027C173.962 375.104 169.313 380.507 167.088 384.215C156.618 401.665 149.699 421.197 143.958 441.291C128.597 495.054 136.98 557.298 161.518 606.373C160.773 607.118 155.89 610.55 154.799 609.895C153.149 608.905 147.997 596.726 147.48 594.658C145.95 588.54 142.52 582.1 140.461 575.924C136.247 563.281 133.558 550.144 131.369 537.008C130.072 529.227 129.046 520.882 129.046 513.004C129.046 486.166 130.078 457.453 138.688 431.624C140.896 424.998 142.398 417.21 145.432 411.142C147.574 406.858 150.703 401.497 151.876 396.804C153.761 389.264 159.642 382.422 162.992 375.723C165.022 371.662 167.569 366.449 170.885 363.134ZM194.015 616.039C196.868 618.893 199.833 623.28 201.633 626.88C193.924 633.047 185.996 638.953 178.203 645.014C175.236 647.323 171.592 649.468 169.136 652.333C166.918 654.92 175.324 663.525 177.929 662.874C179.901 662.381 182.721 659.169 184.348 657.903C190.387 653.206 196.468 648.537 202.507 643.84C204.871 642.002 207.292 639.516 209.826 637.995C209.993 637.895 210.255 637.866 210.401 637.995C213.188 640.473 215.377 643.846 218.019 646.488C210.769 652.832 202.794 658.433 195.189 664.348C191.151 667.488 186.617 672.359 181.725 673.989C172.426 677.089 167.183 671.135 162.117 664.622C160.294 662.278 158.087 660.023 157.421 657.029C156.73 653.917 157.551 650.639 158.296 647.662C159.423 643.152 165.375 640.088 168.837 637.396C177.688 630.511 186.156 623.898 194.015 616.039ZM561.971 619.911C564.509 620.125 567.083 621.187 569.564 623.358C571.956 625.451 566.698 633.026 564.019 634.174C563.52 634.388 560.944 631.937 559.623 632.126C558.619 632.269 557.821 634.072 557.275 634.773C556.26 636.079 550.981 641.068 552.879 642.966C557.62 647.707 564.188 651.523 569.564 655.555C571.275 656.838 574.263 660.27 576.309 660.526C578.482 660.798 586.225 651.996 584.502 649.985C583.363 648.657 581.655 647.738 580.405 646.488C582.032 643.233 584.551 639.395 587.124 636.821C600.385 643.452 597.274 655.088 590.072 664.348C587.731 667.357 584.897 670.962 580.98 671.941C570.11 674.659 561.348 664.38 553.478 658.478C549.238 655.298 540.59 650.678 540.59 644.44C540.59 634.052 550.975 618.984 561.971 619.911ZM520.682 659.352C521.086 659.15 528.396 664.273 529.174 664.922C529.215 664.956 530.508 665.859 530.049 666.396C526.868 670.107 522.16 673.276 518.334 676.337C517.495 677.008 513.027 679.665 513.363 681.008C513.65 682.157 514.99 683.304 515.711 684.23C516.309 684.999 517.386 686.979 518.334 687.453C519.637 688.105 530.179 677.116 532.097 676.637C532.523 676.53 539.707 684.76 539.141 685.704C538.267 687.161 535.529 688.647 534.145 689.801C531.343 692.136 528.231 694.241 525.653 696.82C528.994 700.996 532.277 705.232 535.619 709.409C535.988 709.87 539.229 713.339 538.841 713.805C536.801 716.253 532.343 719.115 529.474 720.549C518.318 706.604 507.782 692.113 495.229 679.559C500.562 675.293 506.317 671.604 511.615 667.27C514.412 664.981 517.565 660.91 520.682 659.352ZM232.656 660.826C233.833 661.561 240.629 666.305 240.849 667.845C241.494 672.36 238.216 683.163 237.327 688.052C236.866 690.589 234.305 698.469 236.178 700.341C238.725 696.521 241.614 692.903 244.371 689.226C246.849 685.922 249.994 679.383 253.738 677.511C253.933 677.414 254.125 677.699 254.313 677.811C255.427 678.479 263.478 683.298 263.105 684.23C261.867 687.325 258.416 690.68 256.361 693.323C250.84 700.421 245.794 707.882 240.275 714.979C237.822 718.132 234.967 724.403 231.482 726.394C230.206 727.123 224.311 722.592 223.289 721.698C220.653 719.391 225.162 701.045 225.912 696.545C226.25 694.516 228.044 689.584 226.512 688.052C224.036 691.766 221.271 695.298 218.593 698.868C217.059 700.914 211.296 710.174 209.526 710.882C208.429 711.321 200.029 703.967 200.459 702.964C201.878 699.654 205.312 696.486 207.478 693.597C212.497 686.905 217.553 680.222 222.415 673.415C223.391 672.048 231.803 660.292 232.656 660.826ZM282.713 694.197C283.833 694.943 292.85 698.645 292.954 699.167C293.247 700.632 288.695 708.504 287.983 710.283C284.608 718.722 280.213 726.524 276.868 734.887C275.322 738.751 273.477 744.972 270.698 747.75C268.753 746.778 261.138 744.821 260.457 742.78C260.235 742.112 264.884 732.571 265.428 731.664C270.229 723.662 274.006 713.603 277.442 705.012C278.817 701.577 280.176 696.733 282.713 694.197ZM309.065 704.738C318.427 710.979 335.036 709.789 345.359 713.23C346.289 713.54 343.783 723.574 342.711 724.645C341.99 724.285 331.267 722.324 330.721 722.597C329.085 723.415 329.076 727.706 328.673 729.316C326.826 736.705 325.054 744.143 323.403 751.572C323.093 752.965 320.995 763.198 320.48 763.262C318.186 763.549 312.33 762.121 310.214 761.214C308.167 760.336 310.996 753.338 311.388 751.572C313.622 741.521 316.979 731.292 318.432 721.123C319.052 716.782 307.076 718.908 306.118 715.553C305.65 713.918 307.482 709.871 307.891 708.235C308.344 706.421 307.789 706.014 309.065 704.738ZM440.776 705.312C457.82 709.53 458.544 723.737 461.558 734.287C463.046 739.496 464.857 745.7 461.858 750.698C457.594 757.804 450.402 758.56 443.124 760.639C440.103 761.502 433.926 764.145 430.835 763.262C429.832 762.976 427.466 752.856 427.013 751.272C423.322 738.353 420.705 724.295 414.724 712.331C416.153 710.902 418.979 711.002 420.868 710.583C427.54 709.1 434.278 707.478 440.776 705.312ZM391.594 714.679C394.87 714.456 397.945 725.266 396.564 726.094C394.592 727.277 387.642 726.926 385.449 726.968C382.132 727.032 378.814 726.7 375.508 726.968C373.882 727.1 374.797 734.327 374.908 735.161C374.945 735.435 375.232 735.755 375.508 735.761C380.681 735.876 385.857 735.53 391.019 735.161C391.311 735.14 392.723 734.914 392.768 735.761C392.952 739.269 392.952 742.794 392.768 746.302C392.719 747.226 391.066 747.088 390.145 747.176C385.287 747.639 380.38 747.219 375.508 747.476C374.077 747.551 375.181 750.034 375.208 750.698C375.294 752.843 375.03 754.978 375.208 757.117C375.231 757.392 375.507 757.706 375.782 757.717C382.746 757.985 390.264 755.98 397.164 756.843C397.438 756.877 397.693 757.145 397.738 757.417C398.015 759.078 395.712 767.797 394.241 768.532C391.295 770.006 383.708 769.432 380.478 769.432C375.936 769.432 368.887 769.704 364.092 768.832C363.868 768.791 363.227 767.938 363.218 767.658C362.672 750.731 361.11 732.782 362.319 715.853C362.339 715.578 362.643 715.284 362.918 715.279C372.727 715.09 381.812 715.344 391.594 714.679ZM375.208 246.035C374.6 246.642 369.17 264.704 369.363 265.668C369.417 265.939 369.662 266.228 369.937 266.242C373.445 266.427 376.971 266.427 380.478 266.242C380.754 266.228 380.858 265.863 381.053 265.668C378.372 260.306 379.562 250.389 375.208 246.035ZM258.784 316.524C258.86 316.639 258.932 316.759 259.008 316.874C259.301 316.581 259.29 316.592 259.583 316.299C260.982 316.999 262.67 316.02 263.604 316.824C263.755 316.718 263.814 316.709 263.979 316.599C262.314 314.934 261.46 316.951 259.583 315.7C259.181 316.102 259.123 316.184 258.784 316.524ZM369.363 308.406C349.683 308.664 326.1 311.728 308.166 320.695C303.009 323.274 296.512 324.165 291.78 327.714C288.298 330.326 283.121 331.254 279.491 334.159C275.52 337.335 270.8 339.353 266.602 342.352C256.539 349.539 246.999 357.283 238.226 366.056C212.167 392.116 195.464 424.502 187.57 460.025C170.556 536.589 203.12 613.544 266.027 658.478C282.479 670.229 299.444 676.56 318.132 683.356C338.541 690.778 364.144 694.465 386.323 692.448C418.224 689.548 447.733 681.116 474.722 664.922C510.208 643.63 538.203 609.866 553.179 572.427C555.579 566.427 558.66 559.843 560.198 553.693C576.632 487.954 563.244 422.934 518.634 373.075C507.854 361.027 495.007 348.488 480.866 340.004C445.517 318.794 412.254 307.844 369.363 308.406ZM328.673 321.57C328.92 321.693 329.242 321.868 329.248 322.144C329.439 331.802 329.056 341.461 329.248 351.119C329.253 351.395 329.571 351.717 329.847 351.718C359.801 351.912 389.74 351.912 419.694 351.718C419.97 351.717 420.288 351.395 420.294 351.119C420.485 341.754 420.389 332.385 420.294 323.018C420.292 322.8 420.092 322.639 419.994 322.444C421.911 320.527 435.872 325.768 439.302 327.14C455.532 333.631 470.495 340.849 484.988 351.718C488.759 354.547 496.469 358.646 498.151 363.134C498.462 363.961 498.45 364.873 498.451 365.756C498.547 437.959 498.256 510.166 498.451 582.369C498.452 582.72 499.721 584.48 499.9 585.016C502.951 594.171 506.107 603.337 509.267 612.817C510.232 615.713 511.093 621.362 513.088 623.358C511.933 625.668 509.012 628.009 507.218 629.803C503.888 626.472 502.848 618.414 501.374 613.991C496.286 598.728 490.942 583.57 485.862 568.331C470.405 521.959 454.163 476.182 438.728 429.876C435.835 421.197 432.831 412.511 429.935 403.823C428.493 399.495 426.011 394.837 425.264 390.36C424.909 388.228 427.832 384.651 428.786 382.742C431.579 377.157 434.406 371.453 437.254 365.756C438.136 363.993 438.764 361.349 440.202 359.911C440.006 359.716 439.878 359.339 439.602 359.337C417.872 359.137 396.091 359.337 374.334 359.337C353.161 359.337 331.987 359.337 310.814 359.337C310.039 361.662 312.475 364.133 313.436 366.056C315.486 370.155 325.371 387.36 324.577 390.934C323.436 396.069 321.253 401.58 319.306 406.446C314.364 418.803 310.621 431.903 306.417 444.513C292.977 484.834 279.187 525.032 265.728 565.408C260.321 581.628 254.749 597.769 249.342 613.991C248.663 616.028 244.328 629.636 243.497 629.803C242.174 630.067 238.66 624.666 237.927 623.933C242.472 614.842 244.622 603.521 247.868 593.784C248.583 591.64 250.816 588.614 250.816 586.19C250.816 512.231 249.935 438.265 250.516 364.308C250.523 363.408 251.887 363.126 252.564 362.534C256.761 358.862 261.035 355.435 265.428 352.018C279.143 341.351 295.414 332.265 311.688 326.84C314.071 326.046 327.261 320.864 328.673 321.57ZM374.908 468.517C378.224 470.728 381.033 485.69 382.826 490.174C387.407 501.625 389.974 514.71 395.415 525.593C397.644 530.051 398.163 535.784 400.386 540.23C403.333 546.125 403.629 553.16 406.531 558.964C406.336 559.159 406.207 559.536 405.931 559.538C385.735 559.732 365.555 559.732 345.359 559.538C344.164 559.527 346.505 552.551 346.807 551.645C349.451 543.715 352.565 535.248 355.3 527.042C359.968 513.038 364.663 499.002 369.363 484.903C370.502 481.486 372.861 470.565 374.908 468.517ZM375.657 631.601C394.05 631.613 412.443 631.706 430.835 631.851C432.53 631.864 433.3 638.6 433.757 639.744C437.833 649.935 439.539 661.55 444.298 671.067C444.89 672.25 441.719 673.157 441.076 673.415C436.21 675.361 431.177 676.946 426.139 678.385C425.454 678.581 420.59 680.432 420.569 678.96C420.376 665.984 420.761 653.019 420.569 640.044C420.564 639.768 420.27 639.446 419.994 639.444C389.943 639.25 359.899 639.25 329.847 639.444C329.571 639.446 329.252 639.768 329.248 640.044C329.055 653.019 329.248 665.983 329.248 678.96C327.034 679.698 307.91 673.434 305.843 671.367C307.802 669.408 307.784 665.328 308.765 662.874C311.401 656.285 313.245 648.67 316.384 642.392C317.219 640.722 319.228 631.864 320.48 631.851C338.871 631.658 357.265 631.589 375.657 631.601ZM557.575 322.744C551.555 325.754 545.25 328.995 539.715 332.685C542.378 335.488 545.04 338.288 547.609 341.178C549.509 339.277 558.433 324.031 557.575 322.744ZM193.44 323.318C196.387 329.211 199.873 336.042 203.981 341.178C206.602 338.557 210.266 335.902 211.874 332.685C210.054 330.865 194.154 322.604 193.44 323.318ZM375.208 490.473C372.024 490.201 372.173 498.704 371.111 501.888C368.094 510.939 363.287 520.736 361.744 529.989C360.754 535.935 357.803 541.838 355.9 547.549C355.718 548.094 353.633 552.5 355 552.52C368.659 552.712 382.331 552.712 395.99 552.52C397.426 552.499 395.761 548.126 395.415 547.549C392.625 542.898 391.323 536.197 389.545 530.863C386.226 520.906 383.055 510.966 379.304 501.589C377.963 498.236 378.988 490.797 375.208 490.473ZM440.776 716.727C437.734 718.248 432.65 717.835 430.235 720.249C433.422 726.623 434.398 735.544 436.38 742.48C436.827 744.045 437.374 749.437 439.028 750.098C440.438 750.662 451.943 747.114 452.191 745.128C452.666 741.327 446.291 719.315 440.776 716.727Z" fill="#FFFFFF" fill-rule="nonzero" opacity="1" stroke="none"/>
</g>
</svg>
