<?xml version="1.0" encoding="UTF-8" standalone="no"?>
<!DOCTYPE svg PUBLIC "-//W3C//DTD SVG 1.1//EN" "http://www.w3.org/Graphics/SVG/1.1/DTD/svg11.dtd">
<!-- Created with Vectornator (http://vectornator.io/) -->
<svg height="100%" stroke-miterlimit="10" style="fill-rule:nonzero;clip-rule:evenodd;stroke-linecap:round;stroke-linejoin:round;" version="1.1" viewBox="0 0 750 1000" width="100%" xml:space="preserve" xmlns="http://www.w3.org/2000/svg" xmlns:vectornator="http://vectornator.io" xmlns:xlink="http://www.w3.org/1999/xlink">
<defs/>
<g id="Layer-1" vectornator:layerName="Layer 1">
<path d="M144.812 200C144.812 328.711 144.617 457.414 144.812 586.125C144.823 593.257 146.692 601.914 148.031 609.281C153.414 638.887 164.613 665.719 179.969 691.312C192.267 711.81 209.374 730.528 227.438 745.812C269.782 781.642 327.489 801.803 382.719 799.719C458.384 796.863 532.257 755.279 571.688 689.562C584.454 668.285 594.407 645.046 599.812 620.719C601.643 612.48 604.769 602.14 604.781 594.031C604.976 462.684 604.781 331.348 604.781 200C374.801 200 374.793 200 144.812 200ZM155.062 209.656C301.742 209.461 448.445 209.461 595.125 209.656C595.401 209.657 595.687 209.974 595.688 210.25C595.785 332.906 595.599 455.563 595.406 578.219C595.334 624.118 575.399 672.946 546.188 708C504.694 757.793 443.071 789.469 377.719 789.469C342.583 789.469 301.864 781.837 271.094 763.375C257.139 755.002 243.651 746.591 231.25 735.844C184.603 695.417 154.549 634.544 154.5 572.375C154.405 451.672 154.305 330.953 154.5 210.25C154.5 209.974 154.786 209.657 155.062 209.656ZM171.469 225.781C171.166 225.782 170.594 226.552 170.594 226.969C170.496 341.227 170.499 455.461 170.594 569.719C170.614 594.478 175.458 619.693 184.656 642.688C195.883 670.755 212.976 695.32 234.469 716.812C285.758 768.102 365.727 784.149 434.281 764.562C474.314 753.125 511.54 726.15 536.812 693.656C562.119 661.12 579.213 618.011 579.281 576.469C579.473 459.77 579.691 343.074 579.594 226.375C579.594 226.099 579.276 225.782 579 225.781C443.16 225.586 307.308 225.568 171.469 225.781ZM181.438 236.031C245.988 235.837 310.543 236.031 375.094 236.031C375.289 236.031 375.492 236.031 375.688 236.031C440.141 236.031 504.578 235.837 569.031 236.031C569.307 236.032 569.622 236.349 569.625 236.625C569.818 255.765 569.625 274.891 569.625 294.031C569.625 294.227 569.625 294.43 569.625 294.625C569.625 313.18 569.818 331.728 569.625 350.281C569.622 350.557 569.307 350.871 569.031 350.875C504.107 351.735 439.149 350.875 374.219 350.875C310.005 350.875 245.649 351.919 181.438 350.875C181.161 350.87 180.847 350.557 180.844 350.281C180.65 331.337 180.844 312.414 180.844 293.469C180.844 293.273 180.844 293.07 180.844 292.875C180.844 274.125 180.65 255.374 180.844 236.625C180.847 236.349 181.161 236.032 181.438 236.031ZM181.438 360.25C246.086 360.055 310.727 360.25 375.375 360.25C439.828 360.25 504.298 359.958 568.75 360.25C569.164 360.252 569.62 360.711 569.625 361.125C570.546 431.726 570.616 502.651 569.344 573.25C568.828 601.865 561.733 634.737 546.781 659.656C543.435 665.233 540.437 670.938 536.812 676.375C536.218 677.266 534.014 681.637 533 681.656C490.824 682.437 423.85 673.266 405.281 626.844C401.695 617.879 398.866 608.992 397.656 599.312C396.237 587.962 397.008 577.343 399.719 566.5C403.121 552.889 422.143 552.905 432.219 553.625C449.665 554.871 467.145 564.791 482.312 572.375C491.211 576.824 501.603 582.312 511.906 582.312C522.353 582.313 533.275 580.3 542.688 575.594C544.013 574.931 549.954 573.416 550.281 571.781C550.43 571.037 544.67 558.826 543.844 558C529.005 565.419 517.739 569.895 500.5 563C497.519 561.808 493.713 560.62 491.406 558.312C500.654 551.377 509.794 544.828 514.25 533.688C515.99 529.338 517.822 524.635 518.344 519.938C518.374 519.661 518.622 518.19 517.781 518.156C513.097 517.969 508.398 517.881 503.719 518.156C502.558 518.225 502.169 521.473 501.938 522.281C500.472 527.412 498.365 532.474 494.906 536.625C483.754 550.008 469.564 546.834 454.781 541.906C451.851 540.93 444.546 540.353 443.062 538.375C449.272 530.096 453.58 520.915 456.844 511.125C457.683 508.606 460.185 503.796 459.75 501.188C459.705 500.915 459.408 500.759 459.188 500.594C458.375 499.985 445.793 495.541 445.688 495.594C443.863 496.506 443.101 502.509 442.469 504.406C440.191 511.238 437.799 519.92 432.531 525.188C426.047 531.672 417.488 534.448 408.781 536.625C404.532 537.687 399.983 541.863 396.781 544.531C395.228 542.978 395.658 535.311 395.594 534.281C395.329 530.046 393.638 512.076 390.344 508.781C383.594 515.531 380.969 531.686 380.969 540.438C380.969 574.031 381.072 607.625 381.25 641.219C381.406 670.786 385.379 700.285 391.781 729.094C394.028 739.203 396.248 751.496 400.875 760.75C398.834 762.791 393.856 762.297 391.219 762.5C381.732 763.23 372.282 763.059 362.781 762.5C361.689 762.436 349.81 761.831 349.594 760.75C349.195 758.754 351.868 753.958 352.531 751.969C355.083 744.312 357.217 736.416 358.969 728.531C364.763 702.458 369.315 674.617 369.531 648.25C369.823 612.704 369.619 577.14 369.812 541.594C369.877 529.68 372.829 512.66 379.188 502.062C381.828 497.661 384.314 493.155 388 489.469C415.615 461.854 447.624 485.295 478.219 492.094C503.106 497.624 524.805 495.608 536.531 472.156C534.669 470.294 525.489 466.997 522.75 466.312C522.56 466.265 522.309 466.19 522.156 466.312C517.649 469.918 514.525 474.621 508.969 476.844C498.651 480.971 485.1 478.867 474.719 475.406C472.08 474.527 467.892 474.142 465.906 472.156C467.71 468.549 468.432 464.016 469.719 460.156C472.78 450.972 477.367 443.314 484.656 436.719C487.494 434.151 491.973 431.33 495.812 430.562C496.368 430.451 497.176 430.94 497.25 429.688C497.525 425.008 497.437 420.309 497.25 415.625C497.239 415.349 496.96 415.077 496.688 415.031C492.981 414.413 488.146 418.284 484.656 419.156C471.51 422.443 461.683 437.526 456.844 449.625C455.986 451.77 450.823 467.142 450.688 467.188C449.402 467.616 444.752 464.965 443.344 464.562C436.524 462.614 429.415 460.438 422.25 460.438C418.478 460.438 414.546 460.802 410.844 461.625C409.846 461.847 407.703 462.972 406.75 462.781C405.427 462.517 407.361 459.348 407.625 458.688C409.56 453.851 410.865 448.592 411.719 443.469C413.237 434.356 414.065 425.479 419.906 417.969C422.051 415.211 425.109 412.466 428.125 410.656C428.913 410.183 432.787 409.528 432.812 408.875C433 404.094 433 399.313 432.812 394.531C432.758 393.129 424.86 396.304 423.719 396.875C417.542 399.963 413.765 404.675 408.5 409.188C406.025 406.712 405.093 401.467 403.219 398.344C399.871 392.765 396.126 387.72 391.5 383.094C390.608 384.431 383.192 396.071 383.312 396.281C385.256 399.682 388.522 403.071 390.906 406.25C395.817 412.798 397.656 423.726 397.656 431.438C397.656 435.191 397.142 439.173 396.469 442.875C393.616 458.566 383.239 469.809 374.219 482.438C370.656 487.426 367.873 493.106 364.25 497.938C355.386 509.756 355.936 530.697 354.281 543.938C354.086 545.502 345.03 538.437 343.156 537.5C336.427 534.136 327.696 533.732 321.781 529C314.68 523.319 310.804 513.973 308 505.562C307.603 504.37 305.06 495.649 304.781 495.594C303.307 495.299 300.019 497.38 298.625 497.938C297.365 498.441 291.008 499.74 290.719 501.188C290.249 503.537 292.88 508.796 293.656 511.125C295.844 517.688 298.265 524.504 301.844 530.469C303.493 533.217 306.02 535.914 307.406 538.688C305.256 540.837 298.38 541.102 295.125 542.188C283.71 545.993 269.192 550.536 259.375 540.719C254.981 536.325 251.682 531.471 249.406 525.781C248.638 523.86 248.516 520.271 247.375 518.75C247.209 518.529 247.057 518.167 246.781 518.156C242 517.969 237.188 517.969 232.406 518.156C232.13 518.167 232.039 518.555 231.844 518.75C233.036 521.134 233.135 524.377 233.875 526.969C235.628 533.105 238.068 539.218 242.094 544.25C245.238 548.181 249.122 551.573 253.219 554.5C254.979 555.757 257.581 556.513 258.781 558.312C245.732 568.1 228.091 568.748 213.656 561.531C211.448 560.427 208.473 559.848 206.625 558C205.564 559.061 199.901 571.064 200.188 571.781C200.827 573.38 206.005 574.983 207.531 575.594C215.76 578.885 223.869 582.312 233 582.312C262.552 582.312 285.44 559.076 313.875 553.906C326.682 551.578 345.082 552.565 350.781 566.812C354.791 576.836 353.704 587.886 352.531 598.438C346.702 650.897 303.873 673.629 256.156 679.594C243.558 681.169 230.093 682.804 217.469 681.656C217.028 681.616 209.585 669.965 208.688 668.469C200.171 654.274 193.327 639.534 188.781 623.625C176.308 579.967 180.844 534.105 180.844 489.156C180.844 468.844 180.844 448.531 180.844 428.219C180.844 405.758 180.65 383.304 180.844 360.844C180.846 360.568 181.161 360.251 181.438 360.25ZM352.844 646.188C354.166 647.069 353.845 648.718 352.844 649.719C352.787 649.69 352.797 649.679 352.75 649.656C354.339 653.138 351.995 660.371 351.375 663.781C348.647 678.787 344.003 694.307 336.125 707.438C331.117 715.784 326.086 724.477 319.125 731.438C315.218 735.345 311.343 739.306 307.125 742.875C305.975 743.848 302.296 747.844 300.688 747.844C296.025 747.844 287.105 741.49 282.812 739.344C271.616 733.746 259.558 726.339 250.594 717.375C251.691 716.278 263.466 715.834 266.406 715.344C277.347 713.52 289.123 709.608 298.625 703.906C313.788 694.809 326.664 683.084 337.594 669.031C342.198 663.111 346.42 653.727 351.406 648.562C351.384 648.54 351.399 648.555 351.375 648.531C351.814 647.652 352.143 646.888 352.844 646.188ZM397.375 646.188C404.363 655.504 409.695 666.11 417.562 675.188C429.026 688.415 442.425 698.024 457.125 706.844C465.352 711.78 476.776 714.571 486.125 715.906C488.672 716.27 498.851 716.574 499.594 717.688C489.973 724.903 480.601 731.733 470.312 737.906C467.708 739.469 464.366 741.885 461.531 742.594C458.305 743.4 453.048 748.858 449.5 747.844C443.837 746.226 436.377 736.721 433.094 733.219C417.046 716.101 406.25 695.187 400.594 672.562C399.099 666.582 397.717 660.258 397.375 654.094C397.262 652.067 395.933 647.63 397.375 646.188ZM461.281 258.219C460.433 258.268 459.758 258.488 459.75 259.188C459.557 276.862 459.75 294.543 459.75 312.219C459.75 317.297 459.555 322.363 459.75 327.438C459.761 327.714 460.068 328.018 460.344 328.031C464.148 328.217 467.977 328.217 471.781 328.031C472.057 328.018 472.373 327.714 472.375 327.438C472.569 304.684 472.569 281.941 472.375 259.188C472.367 258.238 469.053 258.436 463.875 258.312C463.176 258.296 462.13 258.17 461.281 258.219ZM497.562 258.219C495.799 258.219 494.04 258.312 492.281 258.312C492.063 258.312 491.862 258.463 491.688 258.594C491.467 258.759 491.127 258.911 491.125 259.188C490.931 281.941 490.931 304.684 491.125 327.438C491.127 327.714 491.412 328.016 491.688 328.031C495.1 328.216 498.524 328.206 501.938 328.031C502.374 328.009 503.113 327.874 503.125 327.438C503.51 312.892 502.932 298.331 503.125 283.781C503.129 283.505 503.523 283.414 503.719 283.219C510.759 290.259 516.352 299.354 522.469 307.219C523.672 308.766 527.914 312.721 528.031 314.562C528.299 318.753 527.758 322.966 528.031 327.156C528.058 327.57 528.493 327.999 528.906 328.031C532.314 328.3 535.743 328.206 539.156 328.031C540.648 327.955 540.344 327.197 540.344 326.281C540.344 303.918 540.537 281.55 540.344 259.188C540.341 258.911 540.026 258.609 539.75 258.594C536.337 258.409 532.918 258.594 529.5 258.594C529.129 258.594 528.051 258.493 528.031 259.188C527.744 269.437 528.223 279.685 528.031 289.938C528.026 290.214 527.633 290.336 527.438 290.531C520.405 283.498 514.659 274.181 508.688 266.219C507.827 265.072 504.246 258.833 502.844 258.594C501.11 258.298 499.326 258.218 497.562 258.219ZM420.5 258.281C413.859 258.172 407.232 258.121 400.594 258.312C395.551 258.458 397.817 264.066 397.656 268.562C397.643 268.935 396.829 270.174 397.938 270.312C403.364 270.991 408.881 270.052 414.344 270.312C414.62 270.326 414.935 270.63 414.938 270.906C415.131 289.753 414.649 308.592 414.938 327.438C414.944 327.852 415.399 328.292 415.812 328.312C419.52 328.493 423.236 328.309 426.938 328.031C427.213 328.011 427.528 327.714 427.531 327.438C427.725 308.591 427.338 289.753 427.531 270.906C427.534 270.63 427.849 270.326 428.125 270.312C432.027 270.127 435.938 270.313 439.844 270.312C441.083 270.312 444.25 270.312 444.25 270.312C444.524 270.276 444.798 269.995 444.812 269.719C444.997 266.208 444.997 262.698 444.812 259.188C444.733 257.675 441.551 258.602 440.438 258.594C433.797 258.546 427.141 258.39 420.5 258.281ZM307.719 258.312C307.306 258.344 306.85 258.773 306.844 259.188C306.555 277.545 306.94 295.891 306.844 314.25C306.84 315.007 305.878 316.299 305.062 316.312C299.399 316.407 293.746 316.677 288.094 316.312C287.333 316.263 286.629 315.325 286.625 314.562C286.528 296.106 286.818 277.644 286.625 259.188C286.622 258.911 286.307 258.607 286.031 258.594C282.227 258.408 278.398 258.408 274.594 258.594C274.318 258.607 274.034 258.911 274.031 259.188C273.838 278.815 273.936 298.434 274.031 318.062C274.054 322.702 279.226 327.644 283.688 327.75C291.498 327.936 299.312 327.936 307.125 328.031C313.464 328.109 319.059 323.475 319.125 316.906C319.312 298.255 319.341 279.59 319.438 260.938C319.442 260.047 319.672 258.35 318.25 258.312C314.736 258.22 311.224 258.043 307.719 258.312ZM360.719 258.469C356.713 258.355 352.715 258.342 348.719 258.594C342.854 258.963 338.683 263.725 338.469 269.719C338.301 274.404 338.188 279.093 338.188 283.781C338.188 298.311 362.04 294.952 369.812 300.781C370.036 300.949 370.679 301.588 370.688 301.969C370.781 306.265 370.781 310.548 370.688 314.844C370.676 315.37 369.777 316.304 369.25 316.312C363.587 316.407 357.913 316.407 352.25 316.312C348.657 316.253 352.903 308.226 350.188 308.094C346.383 307.908 342.585 307.908 338.781 308.094C338.505 308.107 338.22 308.413 338.188 308.688C337.379 315.559 338.295 327.54 347.844 327.75C356.338 327.937 364.848 327.936 373.344 328.031C373.539 328.033 373.746 328.07 373.938 328.031C377.884 327.242 382.886 323.57 383 319.25C383.188 312.123 383.313 304.973 383.312 297.844C383.312 292.143 375.041 289.557 370.688 288.469C367.158 287.586 353.19 285.045 351.375 282.625C349.555 280.198 350.781 276.565 350.781 273.531C350.781 272.73 351.168 270.336 352.531 270.312C357.999 270.218 363.47 270.218 368.938 270.312C372.558 270.375 368.373 278.671 371.281 278.812C375.085 278.998 378.915 278.998 382.719 278.812C382.995 278.799 383.295 278.494 383.312 278.219C383.787 270.622 383.001 259.108 372.75 258.875C368.747 258.784 364.725 258.582 360.719 258.469ZM232.844 258.531C228.79 258.43 224.736 258.393 220.688 258.594C216.354 258.809 210.537 262.385 210.438 267.375C210.248 276.846 210.252 286.34 210.156 295.812C210.154 296.008 210.156 296.18 210.156 296.375C210.156 306.727 209.965 317.088 210.156 327.438C210.161 327.714 210.474 328.017 210.75 328.031C214.456 328.217 218.169 328.217 221.875 328.031C222.151 328.017 222.461 327.714 222.469 327.438C222.659 320.311 222.279 313.189 222.469 306.062C222.476 305.786 222.755 305.477 223.031 305.469C229.376 305.279 235.749 305.279 242.094 305.469C242.37 305.477 242.68 305.786 242.688 306.062C242.878 313.189 242.497 320.311 242.688 327.438C242.695 327.714 242.974 328.017 243.25 328.031C246.761 328.216 250.297 328.031 253.812 328.031C254.008 328.031 254.225 328.104 254.406 328.031C254.733 327.9 255.276 327.79 255.281 327.438C255.571 307.713 255.377 287.976 255.281 268.25C255.275 267.057 254.268 264.835 253.5 263.875C251.27 261.087 248.724 258.958 245.031 258.875C240.979 258.784 236.898 258.632 232.844 258.531ZM232.562 269.5C235.349 269.556 238.123 269.672 240.906 269.719C241.776 269.734 243.226 271.194 243.25 272.062C243.44 278.799 243.468 285.543 243.562 292.281C243.568 292.646 243.686 293.449 242.969 293.469C236.135 293.659 229.302 293.659 222.469 293.469C222.193 293.461 221.879 293.151 221.875 292.875C221.78 286.137 222.063 279.395 222.156 272.656C222.176 271.212 222.717 269.865 224.219 269.719C226.989 269.448 229.776 269.444 232.562 269.5ZM358.688 382.531C353.815 387.403 349.897 392.754 346.375 398.625C344.589 401.601 343.812 406.188 341.406 408.594C336.472 403.659 332.665 399.379 326.469 396.281C325.256 395.675 316.844 392.239 316.781 393.938C316.593 399.012 316.505 404.117 316.781 409.188C316.826 410.013 321.055 410.715 322.062 411.219C325.139 412.757 327.947 415.554 329.969 418.25C336.954 427.564 336.609 438.686 339.344 449.625C340.065 452.511 343.763 459.242 342.875 461.906C333.377 457.157 319.588 460.283 309.75 463.094C307.512 463.733 301.96 467.023 299.812 466.594C299.542 466.54 299.321 466.288 299.219 466.031C297.497 461.727 296.895 456.675 295.125 452.25C291.198 442.431 285.994 434.056 278.406 426.469C274.415 422.478 259.081 413.736 253.219 414.469C252.945 414.503 252.635 414.755 252.625 415.031C252.437 420.106 252.437 425.207 252.625 430.281C252.659 431.208 258.167 432.35 259.094 432.906C262.567 434.99 266.122 437.34 269.031 440.25C277.997 449.216 278.348 461.196 283.688 471.875C280.729 474.834 272.497 475.757 268.469 476.562C264.557 477.345 260.737 477.746 256.75 478.031C248.728 478.604 240.37 477.37 234.188 471.875C232.974 470.796 230.039 467.013 228.312 465.719C228.156 465.602 227.908 465.671 227.719 465.719C225.889 466.176 213.975 470.676 213.375 471.875C212.408 473.809 217.604 480.092 218.656 481.25C225.213 488.462 232.061 492.86 241.781 494.156C258.041 496.324 276.253 493.261 291.594 487.125C301.384 483.209 311.542 478.94 322.062 477.438C329.775 476.336 338.101 475.665 345.5 478.625C349.782 480.338 352.917 483.334 356.938 485.344C357.112 485.431 357.364 485.444 357.531 485.344C360.876 483.337 364.063 476.858 366.594 473.938C367.094 473.361 368.972 472.264 368.656 471C368.082 468.703 362.405 462.633 360.75 459.875C356.781 453.26 354.088 445.065 353.719 437.312C353.524 433.216 353.21 429.07 353.719 425C354.772 416.576 358.028 408.599 363.094 401.844C364.539 399.917 366.722 398.119 367.781 396C364 392.218 362.505 386.348 358.688 382.531ZM375.094 413.281C363.744 414.437 364.921 443.081 374.812 450.5C377.038 452.169 380.939 440.025 381.25 438.781C383.479 429.863 384.345 412.339 375.094 413.281ZM301.562 415.906C297.969 415.366 300.375 423.116 300.375 426.75C300.375 433.516 305.608 440.483 310.062 444.938C310.808 445.683 316.077 450.43 317.688 449.625C319.019 448.959 318.524 446.857 318.562 445.812C318.635 443.858 318.844 441.893 318.844 439.938C318.844 429.717 310.907 417.31 301.562 415.906ZM448.625 415.906C437.047 416.597 432.797 429.993 431.625 441.125C431.412 443.147 430.595 448.294 432.812 449.625C433.486 450.029 436.03 447.959 436.625 447.562C439.227 445.828 441.447 443.616 443.656 441.406C448.39 436.672 454.71 415.543 448.625 415.906ZM233.594 437C230.977 436.858 233.986 443.802 234.75 446.094C237.619 454.7 245.659 462.063 254.406 464.25C255.032 464.406 257.556 465.305 258.188 465.125C260.172 464.558 257.424 457.155 256.75 455.469C255.966 453.509 254.972 451.926 253.812 450.188C251.817 447.195 249.408 444.381 246.469 442.281C242.281 439.29 238.488 437.266 233.594 437ZM516.312 437C507.077 437.21 496.392 445.431 494.031 454.875C493.553 456.789 490.207 464.088 492.281 465.125C493.588 465.778 497.681 463.915 499.031 463.375C505.981 460.595 513.277 454.078 515.125 446.688C515.723 444.295 519.11 436.936 516.312 437ZM422.844 487.688C411.084 488.428 408.035 501.98 406.75 512.906C406.507 514.971 405.847 520.565 408.188 521.969C408.733 522.296 411.254 520.27 411.719 519.938C414.215 518.154 415.545 516.673 418.156 514.062C423.049 509.17 428.959 487.302 422.844 487.688ZM327.344 488C325.88 488.186 326.28 492.142 326.156 493.562C325.26 503.874 329.319 511.35 336.438 518.469C337.117 519.148 341.057 522.581 342.281 521.969C343.707 521.256 343.379 518.208 343.469 517C343.613 515.05 343.75 513.081 343.75 511.125C343.75 503.767 334.468 487.096 327.344 488ZM260.531 503.219C257.896 503.12 260.451 509.955 261.125 512.312C263.012 518.918 267.786 524.951 273.438 528.719C274.982 529.748 282.588 534.008 283.969 531.938C285.069 530.287 283.172 525.079 282.531 523.156C281.804 520.973 281.028 518.793 279.594 517C277.275 514.101 275.796 512.046 272.844 509.094C269.263 505.513 265.204 503.394 260.531 503.219ZM489.656 503.219C479.487 505.761 471.274 513.241 467.969 523.156C467.148 525.618 465.303 531.021 467.094 532.812C469.502 531.608 472.68 531.615 475 529.875C485.059 522.331 489.362 516.13 489.656 503.219ZM203.125 524.625C200.38 524.484 204.043 532.866 205.188 535.156C208.795 542.372 218.953 552.602 228.312 551.562C230.676 551.3 226.49 540.737 225.375 539.25C218.54 530.137 213.705 525.167 203.125 524.625ZM546.469 524.625C537.622 525.745 529.748 531.212 525.094 538.969C523.467 541.681 519.001 551.983 523.625 551.562C532.17 550.786 540.33 543.47 544.438 536.625C545.619 534.656 549.236 524.275 546.469 524.625ZM283.688 590.531C279.571 591.56 278.523 595.102 276.062 597.562C276.16 597.758 276.375 597.938 276.375 598.156C276.375 611.535 275.966 624.902 276.062 638.281C276.064 638.557 276.38 638.86 276.656 638.875C280.069 639.059 283.493 639.06 286.906 638.875C287.182 638.86 287.488 638.557 287.5 638.281C287.687 633.891 287.313 629.484 287.5 625.094C287.512 624.818 287.818 624.507 288.094 624.5C295.709 624.31 303.323 624.69 310.938 624.5C311.214 624.493 311.516 624.213 311.531 623.938C311.716 620.525 311.716 617.101 311.531 613.688C311.516 613.412 311.214 613.101 310.938 613.094C303.323 612.903 295.709 613.284 288.094 613.094C287.818 613.087 287.515 612.776 287.5 612.5C287.315 608.989 287.23 605.474 287.5 601.969C287.532 601.556 287.961 601.078 288.375 601.062C295.889 600.781 303.42 601.253 310.938 601.062C311.214 601.056 311.515 600.776 311.531 600.5C311.715 597.38 311.715 594.245 311.531 591.125C311.515 590.849 311.129 590.727 283.688 590.531ZM446.594 590.531C443.277 591.36 439.282 594.148 439.25 597.844C439.155 608.977 438.969 620.117 438.969 631.25C438.969 633.864 442.291 637.721 444.531 638.281C454.007 640.65 464.045 638.976 473.812 638.875C474.089 638.872 474.39 638.557 474.406 638.281C474.59 635.162 474.59 632.026 474.406 628.906C474.39 628.631 474.089 628.319 473.812 628.312C466.198 628.122 458.584 628.503 450.969 628.312C450.693 628.306 450.57 627.945 450.375 627.75C450.473 627.555 450.687 627.375 450.688 627.156C450.688 618.66 450.28 610.152 450.375 601.656C450.378 601.38 450.693 601.069 450.969 601.062C458.584 600.872 466.198 601.253 473.812 601.062C474.089 601.056 474.39 600.776 474.406 600.5C474.59 597.38 474.59 594.245 474.406 591.125C474.39 590.849 474.035 590.727 446.594 590.531ZM351.406 648.562C352.289 649.453 352.024 649.3 352.75 649.656C352.489 649.084 352.158 648.584 351.656 648.25C351.569 648.337 351.493 648.473 351.406 648.562Z" fill="#FFFFFF" fill-rule="nonzero" opacity="1" stroke="none"/>
</g>
</svg>
