<?xml version="1.0" encoding="UTF-8" standalone="no"?>
<!DOCTYPE svg PUBLIC "-//W3C//DTD SVG 1.1//EN" "http://www.w3.org/Graphics/SVG/1.1/DTD/svg11.dtd">
<!-- Created with Vectornator (http://vectornator.io/) -->
<svg height="100%" stroke-miterlimit="10" style="fill-rule:nonzero;clip-rule:evenodd;stroke-linecap:round;stroke-linejoin:round;" version="1.1" viewBox="0 0 750 1000" width="100%" xml:space="preserve" xmlns="http://www.w3.org/2000/svg" xmlns:vectornator="http://vectornator.io" xmlns:xlink="http://www.w3.org/1999/xlink">
<defs/>
<clipPath id="ArtboardFrame">
<rect height="1000" width="750" x="0" y="0"/>
</clipPath>
<g clip-path="url(#ArtboardFrame)" id="Layer-1" vectornator:layerName="Layer 1">
<path d="M368.875 124.156C362.472 124.244 355.89 124.511 349 125C346.023 125.211 341.898 125.779 338.75 126.094C331.656 126.803 324.536 127.484 317.5 128.656C294.318 132.52 269.909 137.599 248.281 146.25C174.986 175.568 114.828 218.16 66.2812 286.125C40.1757 322.673 22.3829 362.469 11.3438 406.625C7.50721 421.971 4.5267 437.411 2.5625 453.125C2.36335 454.718 2.56179 456.439 1.84375 457.875C1.45773 458.647 0.0192622 458.856 0 459.719C-0.596579 486.445-0.596579 513.179 0 539.906C0.0192623 540.769 1.48657 540.964 1.84375 541.75C3.60227 545.619 2.92817 552.757 3.65625 557.125C5.18242 566.282 7.58025 575.439 9.53125 584.219C27.3374 664.347 71.8231 736.73 136.969 790.031C160.322 809.138 186.124 825.234 212.406 838.375C222.113 843.229 232.89 845.882 242.812 850.844C265.639 862.257 297.813 867.746 323 871.344C331.489 872.556 341.228 874.509 349.375 874.625C366.341 874.866 383.315 874.866 400.281 874.625C402.978 874.587 405.618 874.002 408.312 873.906C450.539 872.398 491.496 857.245 529.531 842.031C551.853 833.103 574.342 818.041 595.094 803.219C675.637 745.688 728.892 658.146 744.875 562.25C749.795 532.729 750.052 504.686 749.625 474.375C749.316 452.412 744.074 428.639 738.656 406.969C736.504 398.358 734.832 386.47 730.219 378.781C728.152 375.337 727.762 370.18 725.844 366.344C722.428 359.513 719.872 352.196 717.031 345.094C707.259 320.664 690.445 294.764 673.469 272.938C610.907 192.501 524.686 141.208 425.156 127.938C405.668 125.339 388.084 123.893 368.875 124.156ZM365.469 151.375C405.893 150.539 445.141 156.182 483.406 168.938C490.271 171.226 498.211 173.074 504.625 176.281C532.46 190.199 559.981 202.402 585.219 222.031C643.162 267.098 684.455 326.429 707.156 394.531C730.59 464.833 727.49 543.342 704.219 613.156C698.785 629.456 692.033 644.465 684.438 659.656C681.544 665.442 676.951 671.655 674.562 677.625C672.317 683.239 667.449 689.178 663.938 694.094C652.265 710.435 640.507 726.68 626.219 740.969C562.213 804.974 475.918 848.281 383.781 848.281C345.312 848.281 305.738 843.975 269.156 831.781C257.817 828.002 245.397 824.292 234.75 818.969C227.541 815.364 220.3 811.351 212.781 808.344C207.427 806.202 202.81 802.093 197.75 799.562C178.029 789.702 159.209 774.413 142.812 759.656C76.4046 699.889 35.1852 618.051 27.4688 529.312C22.7803 475.395 32.7394 425.938 49.4375 375.844C62.4377 336.843 86.8763 299.201 114.625 268.188C144.474 234.827 181.051 207.131 220.812 187.25C265.474 164.919 314.924 152.42 365.469 151.375ZM374.906 185.094C321.473 184.987 270.925 199.756 224.125 223.156C203.371 233.533 185.038 249.007 167 263.438C169.842 269.122 175 274.324 178.719 279.531C188.868 293.74 199.785 307.505 209.469 322.031C203.243 328.257 203.257 328.243 197.031 334.469C191.258 328.695 183.15 324.219 176.5 319.469C163.86 310.44 151.208 301.32 138.781 292C133.463 296.255 129.42 302.388 125.25 307.75C111.4 325.557 99.6296 345.803 90.0938 364.875C87.7498 369.563 86.6573 375.238 83.875 379.875C79.9697 386.384 78.1792 394.744 75.8125 401.844C69.3927 421.103 65.3199 440.976 62.625 461.188C53.8898 526.701 68.1626 590.919 96.3125 647.219C107.283 669.16 123.163 688.563 138.438 707.656C157.659 693.24 177.045 678.48 197.031 665.156C203.257 671.382 203.243 671.399 209.469 677.625C200.346 686.747 193.17 699.7 185.656 710.219C179.641 718.64 171.629 726.961 167 736.219C180.294 749.513 197.033 760.595 213.125 770.25C218.463 773.453 225.532 775.797 230.344 779.406C234.275 782.354 238.926 783.118 243.156 785.656C255.223 792.896 269.336 796.195 282.719 800.656C340.598 819.949 405.458 818.744 463.625 802.125C508.375 789.339 546.494 766.354 582.656 736.219C568.247 717.006 553.476 697.605 540.156 677.625C546.382 671.399 546.399 671.382 552.625 665.156C560.623 673.154 571.964 679.443 581.188 686.031C590.907 692.974 600.538 702.316 611.219 707.656C643.309 675.566 661.951 633.021 675.656 591.906C681.927 573.094 686.938 551.352 687.75 531.875C688.727 508.431 690.811 484.428 687 461.562C683.987 443.482 681.856 425.567 676.031 408.094C674.861 404.584 674.369 400.395 672.719 397.094C665.559 382.775 660.242 366.266 653.312 352.406C642.41 330.602 626.787 310.682 611.219 292C604.025 295.597 597.158 302.147 590.688 307C578.225 316.347 565.587 325.827 552.625 334.469C546.399 328.243 546.382 328.257 540.156 322.031C545.93 316.258 550.437 308.15 555.188 301.5C564.216 288.859 573.336 276.208 582.656 263.781C577.439 257.52 570.109 252.574 563.594 247.688C550.182 237.629 535.557 227.997 520.75 220.594C513.672 217.055 505.868 214.714 499.156 210.688C493 206.994 484.912 205.94 478.281 202.625C460.034 193.501 432.471 190.309 412.344 187.625C399.718 185.942 387.237 185.118 374.906 185.094ZM377.938 277.344C383.073 277.34 388.217 277.496 393.312 278.062C457.315 285.174 513.668 314.912 553.344 367.812C566.557 385.431 573.851 403.328 583.375 422.375C591.016 437.656 592.728 456.718 595.094 473.281C595.718 477.65 596.938 482.754 596.938 487.562C596.937 495.864 596.653 504.136 596.562 512.438C596.397 527.66 593.14 544.04 588.875 558.969C588.114 561.631 587.832 565.774 586.656 568.125C581.27 578.897 576.347 591.741 572.031 602.531C565.52 618.81 551.552 636.948 539.438 649.062C508.163 680.337 474.355 702.742 432.875 714.594C422.971 717.423 412.82 718.099 402.844 720.094C398.093 721.044 392.34 721.938 387.094 721.938C375.985 721.938 364.824 722.448 353.75 721.562C322.783 719.085 288.793 707.476 262.219 691.531C197.05 652.43 162.842 592.733 153.812 520.5C152.231 507.845 152.019 493.151 153.812 480.594C157.488 454.869 161.59 429.133 173.219 405.875C186.519 379.275 204.407 355.909 226.688 334.469C238.836 322.779 253.416 315.789 266.594 305.906C275.055 299.56 286.52 296.042 296.625 292C317.44 283.674 339.891 278.533 362.562 277.719C367.686 277.535 372.802 277.348 377.938 277.344ZM279.781 347.656L224.875 400.125C224.875 400.125 228.892 450.362 222.656 471.812C219.042 484.245 204.162 489.948 195.188 499.281C194.934 499.545 194.934 500.111 195.188 500.375C204.162 509.708 219.042 515.411 222.656 527.844C228.892 549.295 226.344 601 226.344 601L269.344 648.406L476.438 650.594L525.344 600.906C525.344 600.906 527.21 558.721 526.969 540.656C526.964 540.311 526.595 539.911 526.25 539.906C507.331 539.665 488.388 539.665 469.469 539.906C469.124 539.911 468.757 540.311 468.75 540.656C468.511 552.861 472.368 565.623 468.75 577.281C466.447 584.701 460.014 593.006 452.281 593.75C400.883 598.692 348.774 598.692 297.375 593.75C289.642 593.006 281.619 585.014 280.875 577.281C275.933 525.883 275.933 473.774 280.875 422.375C281.619 414.642 289.642 406.619 297.375 405.875C348.774 400.933 400.883 400.933 452.281 405.875C460.014 406.619 466.447 414.956 468.75 422.375C472.368 434.033 468.511 446.795 468.75 459C468.757 459.345 469.124 459.714 469.469 459.719C488.388 459.96 507.331 459.96 526.25 459.719C526.595 459.714 526.964 459.345 526.969 459C527.21 440.935 525.344 396.281 525.344 396.281L474.531 348.469L279.781 347.656ZM374.625 419.812C372.454 421.984 372.149 429.748 371.344 432.969C369.11 441.902 366.984 450.784 364.75 459.719C363.622 464.231 363.261 469.746 361.438 474C360.52 476.141 350.561 471.991 348.625 471.438C335.883 467.797 320.577 465.273 308.719 459.344C308.353 459.71 308.335 459.728 307.969 460.094C321.091 473.216 334.162 486.376 347.156 499.625C334.087 512.923 321.022 526.248 307.969 539.562C308.335 539.929 308.353 539.915 308.719 540.281C311.985 538.648 316.458 537.901 320.062 537C330.045 534.504 339.808 531.019 349.719 528.188C351.306 527.734 360.89 523.981 361.438 525.625C365.73 538.501 367.657 553.035 370.969 566.281C371.856 569.83 372.074 577.293 374.625 579.844C376.744 578.431 376.902 572.236 377.562 569.594C380.305 558.622 382.533 547.448 385.625 536.625C386.274 534.352 386.741 525.989 388.906 524.906C390.715 524.002 396.505 526.917 398.438 527.469C408.457 530.331 418.46 533.39 428.469 536.25C430.973 536.966 439.531 540.937 441.281 539.188C428.281 526.187 415.367 513.103 402.469 500C415.419 486.827 428.355 473.634 441.281 460.438C440.915 459.888 440.929 459.893 440.562 459.344C436.093 461.578 430.648 462.17 425.906 463.75C417.543 466.538 408.846 469.296 400.281 471.438C398.557 471.869 388.758 475.712 388.188 474C383.901 461.141 381.982 446.649 378.656 433.344C377.779 429.836 377.572 421.777 374.625 419.812Z" fill="#FFFFFF" fill-rule="nonzero" opacity="1" stroke="none"/>
</g>
</svg>
