<?xml version="1.0" encoding="UTF-8" standalone="no"?>
<!DOCTYPE svg PUBLIC "-//W3C//DTD SVG 1.1//EN" "http://www.w3.org/Graphics/SVG/1.1/DTD/svg11.dtd">
<!-- Created with Vectornator (http://vectornator.io/) -->
<svg height="100%" stroke-miterlimit="10" style="fill-rule:nonzero;clip-rule:evenodd;stroke-linecap:round;stroke-linejoin:round;" version="1.1" viewBox="0 0 750 1000" width="100%" xml:space="preserve" xmlns="http://www.w3.org/2000/svg" xmlns:vectornator="http://vectornator.io" xmlns:xlink="http://www.w3.org/1999/xlink">
<defs/>
<g id="Layer-1" vectornator:layerName="Layer 1">
<path d="M345.438 188.344C336.446 188.489 327.472 188.849 318.5 189.5C314.531 189.788 304.253 191.607 300.281 191.938C288.73 192.9 277.235 194.208 265.719 195.562C232.624 199.456 199.503 205.671 167.188 213.75C158.153 216.009 149.125 218.165 140.188 220.719C137.804 221.4 133.644 221.591 131.688 223.156C128.685 225.558 127.803 233.092 126.562 236.812C123.399 246.302 119.87 255.866 117.438 265.594C112.174 286.647 106.063 307.561 100.781 328.688C89.3767 374.306 82.2882 421.33 78.0312 468.156C76.931 480.259 75.2159 493.282 75 505.156C74.8016 516.07 74.8016 526.992 75 537.906C75.0341 539.783 79.1199 544.367 80.1562 546.094C83.813 552.188 87.9544 558.059 91.6875 564.281C109.322 593.672 133.741 620.882 157.188 645.562C166.888 655.773 176.681 665.843 186.875 675.562C218.859 706.059 253.508 733.037 289.375 758.656C302.938 768.344 317.322 778.849 332.125 786.25C342.784 791.58 352.84 798.857 363.375 804.125C366.81 805.843 372.598 811.012 376.719 810.188C380.967 809.338 384.715 804.321 389.125 803.219C392.726 802.318 396.76 799.138 400.062 797.156C409.514 791.485 418.923 785.783 428.25 780.188C480.501 748.837 528.631 708.734 572.281 666.469C586.794 652.417 600.587 637.76 613.812 622.5C631.03 602.633 646.568 581.585 661.125 559.75C665.347 553.417 669.623 546.722 672.969 540.031C673.247 539.476 674.456 538.598 674.469 537.906C675.914 458.443 662.385 371.395 640.219 293.812C635.206 276.267 631.1 257.999 624.438 241.344C622.715 237.036 621.202 225.893 617.781 223.156C616.531 222.156 613.293 222.106 611.719 221.656C605.825 219.972 599.783 218.586 593.812 217.094C574.493 212.264 554.943 207.621 535.281 204.344C523.201 202.33 510.75 199.822 498.906 198C481.093 195.259 462.833 194.679 444.938 192.531C439.633 191.895 432.932 192.079 427.344 191.031C426.764 190.923 427.027 189.505 426.438 189.5C399.452 189.273 372.411 187.907 345.438 188.344ZM359.719 201.938C425.913 201.121 492.163 206.665 556.812 221.031C569.805 223.919 582.856 226.477 595.625 230.125C598.039 230.815 608.448 232.534 609.594 234.062C612.961 238.552 613.89 246.982 615.656 252.281C621.163 268.802 625.963 285.697 630.188 302.594C649.128 378.357 663.886 455.549 662.656 534.25C662.627 536.137 656.396 544.688 655.062 546.688C648.035 557.229 640.902 567.619 633.531 577.938C598.054 627.605 553.28 670.689 506.188 709.219C475.325 734.47 442.392 757.265 408.25 777.75C400.127 782.624 391.607 787.061 383.375 792C381.64 793.041 377.377 796.562 375.5 796.562C371.625 796.563 367.856 792.741 364.562 791.094C355.965 786.795 347.531 781.594 339.094 776.531C306.649 757.064 276.202 734.904 246.312 711.656C232.969 701.278 220.341 689.929 207.812 678.594C203.631 674.811 199.364 671.051 195.375 667.062C186.834 658.522 178.36 649.94 169.906 641.312C145.522 616.426 124.584 588.905 104.406 560.656C99.8725 554.309 95.6989 547.623 91.6875 540.938C90.764 539.398 87.4375 536.005 87.4375 534.25C87.4375 460.407 97.6804 380.9 118.062 309.562C123.412 290.84 127.976 271.917 134.125 253.469C136.192 247.267 137.606 239.85 140.5 234.062C141.577 231.909 149.22 231.375 151.406 230.75C163.059 227.421 174.988 224.627 186.875 222.25C244.702 210.685 300.341 202.67 359.719 201.938ZM379.906 227.75C369.337 227.642 358.771 227.707 348.219 228C299.689 229.348 250.046 234.75 202.656 245.281C192.256 247.592 181.669 249.358 171.438 252.281C168.895 253.008 161.935 253.202 160.5 255.594C159.245 257.686 158.897 261.372 158.094 263.781C154.957 273.192 152.727 282.881 149.594 292.281C139.644 322.13 134.23 353.946 128.062 384.781C123.142 409.383 119.929 434.418 117.156 459.375C116.348 466.647 115.665 473.897 115.031 481.188C114.907 482.62 113.949 484.668 115.031 485.75C126.648 479.941 137.802 472.75 149 466.031C164.587 456.679 180.462 448.385 196 439.062C242.546 411.135 290.428 386.037 337 358.094C383.563 330.156 431.339 305.103 477.969 277.125C497.383 265.476 518.286 255.715 537.125 243.156C535.848 241.241 530.938 241.483 528.625 241.062C521.969 239.852 515.268 238.831 508.594 237.719C476.595 232.386 443.965 230.065 411.562 228.625C401.019 228.156 390.476 227.858 379.906 227.75ZM258.844 277.156C270.733 277.358 282.724 285.195 279.969 298.969C279.831 299.656 264.519 308.053 262.688 308.969C262.485 308.767 262.103 308.661 262.094 308.375C261.899 302.617 262.386 296.848 262.094 291.094C262.075 290.73 261.552 290.469 261.188 290.469C260.498 290.469 255.131 293.659 255.125 294.125C254.925 310.296 254.826 326.456 255.125 342.625C255.132 342.989 255.674 343.147 256.031 343.219C256.695 343.351 262.034 340.168 262.094 339.594C262.364 336.98 261.814 334.332 262.094 331.719C262.146 331.229 265.905 329.501 266.344 329.281C270.794 327.056 274.929 324.223 279.375 322C279.577 322.202 279.964 322.339 279.969 322.625C280.067 329.195 279.87 335.744 279.688 342.312C279.648 343.75 279.002 345.854 278.469 347.188C277.407 349.843 274.753 351.479 272.688 353.25C262.287 362.165 246.185 357.101 238.75 347.188C237.937 346.104 237.219 343.909 237.219 342.625C237.219 325.543 237.335 308.456 237.531 291.375C237.595 285.864 243.286 281.685 247.531 279.562C250.914 277.871 254.881 277.089 258.844 277.156ZM194.469 278.344C227.722 278.546 228.112 278.652 228.125 278.938C228.318 283.077 228.318 287.235 228.125 291.375C227.892 296.379 211.567 287.003 211.438 293.5C211.343 298.25 211.153 303.008 211.438 307.75C211.66 311.465 221.912 305.899 222.062 309.281C222.255 313.623 222.345 317.976 222.062 322.312C221.818 326.056 211.538 320.423 211.438 324.125C211.143 334.936 211.735 345.752 211.438 356.562C211.42 357.211 208.419 358.324 207.812 358.688C203.447 361.307 198.701 363.46 194.469 366.281C194.267 366.079 193.877 365.973 193.875 365.688C193.674 336.781 193.674 307.844 193.875 278.938C193.877 278.652 194.267 278.546 194.469 278.344ZM588.344 252.562C586.942 253.263 572.909 261.506 572.906 261.656C572.507 286.922 572.706 312.201 572.906 337.469C572.909 337.755 573.298 337.892 573.5 338.094C577.795 335.946 581.912 333.509 585.938 331.094C586.495 330.759 589.554 329.221 589.562 328.688C589.962 303.523 589.763 278.354 589.562 253.188C589.56 252.902 589.152 252.765 588.344 252.562ZM558.344 269.562C551.14 276.766 538.767 279.612 530.75 285.625C529.851 286.299 521.364 290.778 521.344 291.094C521.054 295.734 521.15 300.386 521.344 305.031C521.356 305.317 521.735 305.423 521.938 305.625C524.952 303.615 528.319 301.856 531.656 300.188C531.858 300.39 532.247 300.495 532.25 300.781C532.45 320.995 532.05 341.224 532.25 361.438C532.256 362.057 533.102 362.123 533.469 362.031C534.571 361.756 548.029 353.022 548.031 352.938C548.527 332.223 547.831 311.5 548.031 290.781C548.04 289.874 559.109 285.844 559.25 284.406C559.714 279.678 559.54 274.898 559.25 270.156C559.228 269.793 558.647 269.765 558.344 269.562ZM506.188 300.188C505.125 299.55 499.71 303.567 498.594 304.125C494.945 305.949 489.029 308.221 486.156 311.094C485.587 311.663 484.002 328.825 483.75 331.094C482.739 340.191 481.617 349.325 480.406 358.406C479.249 367.087 478.301 375.797 477.062 384.469C476.8 386.304 475.106 392.513 476.469 393.875C478.285 392.967 491.197 385.779 491.625 384.781C493.225 381.048 491.52 375.409 492.844 371.438C493.47 369.557 499.086 367.37 500.719 366.281C503.466 369.028 500.395 375.333 503.156 378.094C505.341 377.002 517.498 371.254 518.312 369.625C519.55 367.151 516.954 359.601 516.5 356.875C514.628 345.642 512.756 334.423 510.719 323.219C510.127 319.963 507.903 301.217 506.188 300.188ZM497.375 328.688C498.259 329.572 501.086 351.305 500.406 352.938C499.835 354.308 495.152 356.691 494.062 357.781C492.201 356.85 493.807 352.475 494.062 350.812C494.715 346.574 494.996 331.067 497.375 328.688ZM461.906 324.75C457.623 326.892 453.215 329.94 449.188 332.625C448.884 332.827 448.29 332.854 448.281 333.219C447.983 345.344 448.48 357.498 448.281 369.625C448.277 369.911 447.858 370.017 447.656 370.219C446.41 368.973 446.218 366.185 445.531 364.469C443.106 358.406 440.679 344.148 436.438 339.906C431.784 342.233 427.29 344.482 422.781 347.188C422.469 347.375 421.879 347.417 421.875 347.781C421.574 373.351 421.674 398.929 421.875 424.5C421.877 424.786 422.298 424.892 422.5 425.094C424.119 424.284 425.412 423.184 427.031 422.375C427.976 421.903 437.059 416.741 437.062 416.625C437.36 405.612 436.864 394.578 437.062 383.562C437.068 383.277 437.454 383.171 437.656 382.969C438.99 384.303 439.072 386.634 439.781 388.406C441.867 393.621 444.414 407.008 447.969 410.562C452.559 408.267 457.322 405.504 461.594 402.656C461.897 402.454 462.527 402.427 462.531 402.062C462.832 376.493 462.732 350.915 462.531 325.344C462.529 325.058 462.108 324.952 461.906 324.75ZM614.125 349C602.397 354.864 590.85 362.227 579.562 369C558.19 381.824 536.45 394.963 514.375 406C489.721 418.327 466.721 435.124 441.906 447.531C428.703 454.133 415.721 462.392 403.094 469.969C398.494 472.729 393.501 476.481 388.531 478.469C378.674 482.412 368.576 489.673 359.438 495.156C340.165 506.72 320.442 516.966 301.219 528.5C279.905 541.289 258.07 554.465 236 565.5C225.898 570.551 216.647 578.835 206 583.094C201.034 585.08 195.855 588.725 191.125 591.562C184.347 595.629 177.083 599.018 170.5 603.406C183.639 619.174 198.858 633.858 213.281 648.281C247.673 682.673 287.243 711.725 327.594 738.625C339.118 746.308 350.876 753.657 362.75 760.781C366.327 762.928 370.329 766.433 374.281 767.75C375.924 768.298 379.398 764.71 380.938 764.094C387.868 761.322 394.74 755.893 401.281 751.969C430.253 734.585 458.249 714.876 484.656 693.75C529.979 657.492 572.567 617.192 607.469 570.656C615.141 560.426 622.167 549.803 629.594 539.406C630.694 537.866 636.809 529.428 636.875 528.188C637.811 510.718 636.09 492.864 634.75 475.438C631.471 432.814 623.681 391.626 614.125 349ZM405.219 357.188C403.751 358.655 391.601 365.204 391.562 365.969C390.982 377.578 391.761 389.222 391.562 400.844C391.558 401.13 391.171 401.235 390.969 401.438C389.58 400.049 389.176 396.717 388.531 394.781C386.783 389.536 383.512 375.231 380.031 371.75C378.641 372.445 366.098 379.959 366.094 380.219C365.694 405.686 365.893 431.155 366.094 456.625C366.096 456.911 366.432 457.122 366.688 457.25C366.834 457.323 378.309 450.462 379.438 449.656C379.849 449.363 380.638 449.255 380.656 448.75C381.049 437.841 380.458 426.914 380.656 416C380.661 415.714 381.048 415.608 381.25 415.406C382.465 416.621 382.794 419.725 383.375 421.469C385.02 426.405 388.289 439.727 391.562 443C392.93 442.316 406.122 434.406 406.125 434.188C406.524 408.72 406.426 383.25 406.125 357.781C406.121 357.417 405.522 357.39 405.219 357.188ZM349.406 389.625C347.373 390.251 333.66 398.364 333.656 399.344C333.556 424.41 333.456 449.466 333.656 474.531C333.671 476.359 339.887 472.413 340.312 472.094C341.556 471.161 350.023 467.622 350.031 466.938C350.332 441.469 350.231 416.001 350.031 390.531C350.028 390.167 349.755 389.518 349.406 389.625ZM310.188 412.281C297.923 413.155 281.943 430.524 281.812 440.875C281.614 456.642 281.5 472.42 281.5 488.188C281.5 491.753 286.281 496.508 289.375 497.281C297.895 499.411 314.451 489.67 317.594 481.812C320.47 474.623 320.165 466.076 320 458.469C319.97 457.104 314.103 461.044 313.344 461.5C312.296 462.129 304.006 466.727 303.938 467.25C303.489 470.657 304.297 474.145 303.938 477.562C303.819 478.692 297.898 481.742 297.875 480.594C297.576 465.334 297.676 450.073 297.875 434.812C297.895 433.304 303.446 431.245 304.25 431.781C302.261 435.76 303.736 440.681 303.938 445.125C303.95 445.411 304.329 445.517 304.531 445.719C309.137 442.648 315.777 440.536 319.688 436.625C319.847 436.465 319.996 436.257 320 436.031C320.097 430.776 320.091 425.505 320 420.25C319.949 417.321 317.902 414.067 315.156 412.969C313.613 412.352 311.94 412.156 310.188 412.281ZM266.031 437.219C264.773 437.848 252.386 445.444 252.375 445.719C251.887 457.534 252.574 469.363 252.375 481.188C252.37 481.473 251.983 481.61 251.781 481.812C249.038 479.069 245.412 463.892 243.906 459.375C243.326 457.633 242.67 452.679 240.875 451.781C240.501 451.594 228.615 458.444 227.219 459.375C226.798 459.655 226.008 459.776 226 460.281C225.601 485.749 225.799 511.218 226 536.688C226.002 536.973 226.423 537.079 226.625 537.281C228.061 536.563 240.546 529.289 240.562 528.812C240.956 517.701 240.364 506.554 240.562 495.438C240.568 495.152 240.954 495.046 241.156 494.844C242.211 495.899 242.508 498.212 243 499.688C244.666 504.684 248.839 519.777 252.094 523.031C256.631 520.763 261.466 517.992 265.719 515.156C266.022 514.954 266.621 514.927 266.625 514.562C266.926 488.993 266.826 463.415 266.625 437.844C266.623 437.558 266.233 437.421 266.031 437.219ZM209.312 469.688C205.469 471.609 201.734 474.383 197.812 476.344C197.206 476.647 193.885 478.139 193.875 478.781C193.476 504.249 193.674 529.718 193.875 555.188C193.877 555.473 194.267 555.579 194.469 555.781C195.903 555.064 210.243 547.162 210.25 546.688C210.649 521.22 210.222 495.765 209.312 469.688ZM169.75 492.719C156.927 494.138 141.871 509.621 141.719 521.531C141.522 536.894 141.406 552.261 141.406 567.625C141.406 570.393 144.257 573.476 145.969 575.188C154.277 583.496 172.92 569.582 177.188 562.469C178.885 559.64 179.514 555.692 179.625 552.469C179.785 547.821 180.003 543.15 179.906 538.5C179.9 538.214 179.515 538.108 179.312 537.906C177.733 538.959 164.221 546.388 164.156 547C163.786 550.518 164.435 554.098 164.156 557.625C164.106 558.26 159.219 561.25 158.688 561.25C158.323 561.25 157.788 561.021 157.781 560.656C157.482 545.397 157.582 530.105 157.781 514.844C157.795 513.778 162.611 511.679 163.531 511.219C167.19 514.878 161.091 521.81 164.75 525.469C166.24 524.724 179.873 516.857 179.906 516.375C180.289 510.829 179.997 505.246 179.906 499.688C179.863 497.049 177.649 493.678 175.062 493.031C173.372 492.609 171.582 492.516 169.75 492.719Z" fill="#FFFFFF" fill-rule="nonzero" opacity="1" stroke="none"/>
</g>
</svg>
