<?xml version="1.0" encoding="UTF-8" standalone="no"?>
<!DOCTYPE svg PUBLIC "-//W3C//DTD SVG 1.1//EN" "http://www.w3.org/Graphics/SVG/1.1/DTD/svg11.dtd">
<!-- Created with Vectornator (http://vectornator.io/) -->
<svg height="100%" stroke-miterlimit="10" style="fill-rule:nonzero;clip-rule:evenodd;stroke-linecap:round;stroke-linejoin:round;" version="1.1" viewBox="0 0 750 1000" width="100%" xml:space="preserve" xmlns="http://www.w3.org/2000/svg" xmlns:vectornator="http://vectornator.io" xmlns:xlink="http://www.w3.org/1999/xlink">
<defs/>
<g id="Layer-1" vectornator:layerName="Layer 1">
<path d="" fill="none" opacity="1" stroke="#002f87" stroke-linecap="butt" stroke-linejoin="miter" stroke-width="1"/>
<path d="M339.14 200L331.768 204.529L331.643 249.979L339.14 254.071L354.883 254.227L362.411 249.854L362.474 204.373L354.571 200.312L354.727 246.543L339.421 246.324L339.14 200ZM466.493 200.062L459.059 204.779L459.184 249.448L466.056 254.227L481.924 254.009L489.64 249.386L489.234 204.686L481.549 200.219L481.612 246.2L466.493 246.512L466.493 200.062ZM268.076 200.843L259.923 205.685L260.173 249.885L267.951 254.352L284.069 253.978L291.035 249.448L291.379 205.498L283.444 201L268.076 200.843ZM283.507 208.59L283.444 246.606L268.076 246.231L268.045 208.871L283.507 208.59ZM298.907 200.875L298.688 254.227L322.772 254.384L326.989 246.262L306.341 245.856L306.591 200.875L298.907 200.875ZM520.283 200.906L504.883 201.125L497.324 205.685L497.324 222.241L520.283 235.673L520.314 246.293L505.04 246.387L505.04 238.515L497.105 243.201L497.418 250.073L505.04 254.165L520.752 254.009L528.155 249.604L527.936 230.862L505.102 217.461L504.602 208.778L520.127 208.84L520.596 216.087L528.092 212.151L528.155 204.904L520.283 200.906ZM377.686 201L369.752 201.281L370.127 254.352L377.593 253.946L377.968 209.933L387.526 215.712L387.401 253.946L394.992 253.978L395.304 215.556L405.081 209.996L404.925 253.946L412.859 253.946L413.172 201.156L404.956 201L391.15 209.152L377.686 201ZM420.387 201.125L420.012 254.102L443.534 254.227L451.406 249.479L451.093 228.457L444.94 225.333L451.031 221.835L451.468 205.373L443.534 201.218L420.387 201.125ZM443.378 208.559L443.065 217.305L427.822 226.27L427.572 208.715L443.378 208.559ZM437.318 229.519L443.222 232.768L443.69 246.418L427.822 246.043L427.884 235.142L437.318 229.519ZM229.311 201.187L221.595 205.498L221.814 249.885L229.342 253.915L245.085 254.134L252.738 249.729L252.582 242.857L245.21 238.953L244.96 246.324L229.404 246.012L229.186 208.965L244.992 208.965L245.335 216.587L252.801 212.245L252.832 205.56L245.179 201.249L229.311 201.187ZM207.414 271.501L208.944 285.87C220.706 397.26 244.225 620.045 255.987 731.435L258.111 751.395L275.448 741.306C300.355 726.81 347.284 699.466 375.062 683.299C402.853 699.419 449.823 726.665 474.74 741.118L492.076 751.177L494.169 731.247C505.894 619.915 529.363 397.234 541.087 285.902L542.586 271.564L528.155 271.564C451.584 271.552 298.448 271.514 221.876 271.501L207.414 271.501ZM221.876 284.496L528.155 284.559L481.268 729.873L375.062 668.274L268.919 730.06L221.876 284.496ZM445.377 307.986L304.842 308.142L252.426 338.536L288.13 690.983L472.959 585.402L481.299 504.623L428.384 475.76L421.293 541.327L333.955 590.962L310.933 372.209L439.192 372.053L431.695 437.776L491.701 402.353L498.261 338.786L445.377 307.986ZM423.136 634.163L417.607 637.568L417.42 655.779L427.541 661.401L435.162 656.716L435.037 668.836L423.542 668.773L423.386 662.838L417.482 666.274L417.264 671.429L423.23 674.646L435.537 674.74L441.285 671.241L441.129 637.568L435.256 634.163L423.136 634.163ZM434.975 640.067L434.975 649.563L427.603 654.217L423.355 651.905L423.605 640.254L434.975 640.067ZM452.78 634.163L447.032 637.661L447.189 671.335L453.061 674.74L465.181 674.74L470.741 671.335L470.773 653.499L460.714 648.001L453.061 652.593L453.28 640.067L464.775 640.129L464.931 646.064L470.866 642.628L470.866 637.63L465.119 634.257L452.78 634.163ZM460.777 655.123L464.994 656.997L464.744 668.68L453.374 668.836L453.374 659.34L460.777 655.123ZM443.753 745.491L443.628 790.723L434.35 785.256L434.6 749.896L426.291 750.208L426.728 785.506L417.076 791.316L417.045 745.741L409.517 750.239L409.517 799.781L417.482 799.719L430.414 792.035L443.565 799.5L451.624 799.438L451.718 750.052L443.753 745.491ZM336.703 746.522L336.828 799.781L344.606 799.656L344.794 782.539L353.978 777.416L360.069 780.945L360.069 799.719L368.003 799.719L367.534 776.072L361.474 772.886L367.378 768.95L367.94 750.802L360.1 746.616L336.703 746.522ZM344.731 754.394L360.287 754.581L360.006 764.983L344.888 773.855L344.731 754.394ZM305.529 746.616L297.97 751.302L298.313 795.721L305.81 799.656L321.835 800L329.05 795.377L329.55 788.505L321.491 784.444L321.616 792.003L306.06 791.597L305.998 754.456L321.616 754.3L321.554 762.078L329.332 757.768L329.269 750.677L321.429 746.616L305.529 746.616ZM399.365 746.928L375.187 746.96L375.437 799.875L403.582 799.531L403.551 791.941L383.122 791.941L382.965 776.978L399.052 777.135L394.679 769.45L382.747 769.388L382.934 754.55L403.519 754.488L399.365 746.928Z" fill="#FFFFFF" fill-rule="nonzero" opacity="1" stroke="none"/>
</g>
</svg>
