<?xml version="1.0" encoding="UTF-8" standalone="no"?>
<!DOCTYPE svg PUBLIC "-//W3C//DTD SVG 1.1//EN" "http://www.w3.org/Graphics/SVG/1.1/DTD/svg11.dtd">
<!-- Created with Vectornator (http://vectornator.io/) -->
<svg height="100%" stroke-miterlimit="10" style="fill-rule:nonzero;clip-rule:evenodd;stroke-linecap:round;stroke-linejoin:round;" version="1.1" viewBox="0 0 750 1000" width="100%" xml:space="preserve" xmlns="http://www.w3.org/2000/svg" xmlns:vectornator="http://vectornator.io" xmlns:xlink="http://www.w3.org/1999/xlink">
<defs/>
<g id="Layer-1" vectornator:layerName="Layer 1">
<path d="M374.844 200C209.239 200 75 334.239 75 499.844C75 665.448 209.239 799.719 374.844 799.719C540.448 799.719 674.719 665.448 674.719 499.844C674.719 334.239 540.448 200 374.844 200ZM371.188 223.719C388.087 223.415 404.924 225.065 421.594 227.844C481.504 237.829 533.764 267.605 575.969 311.344C590.43 326.331 602.522 343.349 613.188 361.125C621.891 375.63 629.691 391.324 635.156 407.719C643.563 432.94 650.688 459.982 650.688 486.812C650.687 506.951 650.174 526.485 646.875 546.281C635.491 614.586 597.59 677.581 541.406 719.719C524.548 732.363 506.58 742.116 488.688 751.062C465.115 762.848 438.586 769.617 412.5 773.344C405.165 774.392 397.375 775.688 389.938 775.688C359.135 775.687 329.323 773.896 299.719 765.438C282.833 760.613 267.025 752.947 251.375 746.688C243.586 743.572 236.249 738.387 229.094 734.094C213.652 724.828 198.474 713.411 185.75 700.688C114.799 629.737 83.6513 538.757 106.062 437.906C110.425 418.276 117.015 398.376 125.969 380.469C173.748 284.91 265.07 225.628 371.188 223.719ZM382.562 240.062C380.53 240.086 377.312 240.271 372.375 240.125C371.264 241.236 373.25 252.235 373.25 253.625C373.25 261.386 372.947 269.343 372.375 277.062C372.042 281.564 372.316 287.934 368.844 291.406C370.407 293.491 376.183 291.641 378.531 291.688C381.072 291.738 383.586 291.9 386.125 292C389.546 292.134 392.963 292.878 396.375 292.594C396.65 292.571 396.803 292.221 396.969 292C398.635 289.778 400.364 285.153 401.375 282.625C402.404 280.053 384.241 284.781 382.625 284.656C380.377 284.483 381.976 280.191 382.031 277.938C382.257 268.68 382.272 259.026 383.5 249.812C383.81 247.486 385.89 243.324 385.562 241.031C385.444 240.204 384.595 240.039 382.562 240.062ZM331.812 244.719C325.198 244.42 317.341 245.969 313.188 247.156C310.817 247.834 312.89 251.303 313.469 252.75C315.877 258.771 316.608 265.444 317.875 271.781C319.542 280.115 320.081 287.793 320.5 296.375C320.53 296.989 320.898 298.262 321.688 298.438C322.937 298.715 326.017 297.59 327.25 297.281C328.838 296.884 332.842 296.63 333.688 294.938C333.841 294.631 329.833 281.597 329.594 280.281C329.313 278.735 328.132 276.181 329.312 275C330.68 276.367 332.019 277.747 333.406 279.094C335.438 281.067 337.498 283.03 339.562 284.969C341.182 286.49 346.685 292.297 349.5 292.594C351.443 292.798 356.842 291.405 358.594 292.281C359.033 291.842 359.029 291.846 359.469 291.406C353.942 285.419 347.949 279.887 342.188 274.125C341.648 273.586 341.089 273.042 340.719 272.375C339.969 271.025 344.378 267.762 345.406 266.219C347.17 263.574 346.875 259.445 346.875 256.531C346.875 253.058 343.455 249.892 341.312 247.75C339.298 245.736 335.781 244.898 331.812 244.719ZM327.344 250.844C333.832 251.18 340.586 256.052 337.219 264.469C336.632 265.937 329.356 272.801 328.125 272.062C325.739 270.631 325.586 263.247 325.188 260.656C324.829 258.323 322.131 251.361 324.625 250.969C325.511 250.829 326.417 250.796 327.344 250.844ZM436.812 248.938C421.778 249.779 412.781 262.525 412.781 277.344C412.781 280.778 413.849 285.559 416.031 288.469C423.445 298.354 431.779 302.25 444.156 302.25C461.534 302.25 471.922 280.117 466.125 265.625C461.145 253.174 448.743 248.27 436.812 248.938ZM438 255.656C447.294 255.019 457.312 262.635 457.312 273.25C457.312 280.881 453.368 295.219 443.25 295.219C439.203 295.219 435.837 294.516 432.438 293.156C430.522 292.39 428.64 289.89 427.438 288.469C418.514 277.923 423.455 256.654 438 255.656ZM270.719 262.406C263.968 264.657 263.999 264.628 264.25 272.656C264.393 277.245 264.469 281.848 264.562 286.438C264.566 286.633 264.563 286.805 264.562 287C264.562 296.766 264.655 306.547 264.562 316.312C264.552 317.464 262.694 322.425 263.969 323.062C264.584 323.37 275.508 316.959 276.281 316.031C276.921 315.264 274.04 308.785 274.219 307.531C274.365 306.509 278.746 304.971 279.5 304.594C281.403 303.642 293.813 297.808 295.031 298.156C298.153 299.048 297.945 303.786 300.281 305.188C301.021 305.631 312.195 301.18 313.188 300.188C310.243 296.262 303.94 292.93 300.281 289.656C290.5 280.905 281.072 271.779 270.719 262.406ZM273.938 277.625C275.402 278.895 276.895 280.115 278.312 281.438C281.291 284.218 284.202 287.098 287.125 289.938C287.225 290.034 288.988 291.15 288.562 292C287.732 293.661 276.91 297.514 274.5 298.719C272.956 297.175 273.376 294.465 273.344 292.281C273.274 287.594 273.156 282.903 273.344 278.219C273.355 277.943 273.742 277.82 273.938 277.625ZM486.625 265.031C484.092 267.377 481.658 269.842 479.312 272.375C478.834 272.892 479.971 273.627 480.469 274.125C484.19 272.264 491.402 276.133 494.531 278.219C486.977 289.551 482.042 306.085 471.094 314.844C471.822 315.572 482.433 321.67 482.812 321.594C484.457 321.265 485.566 313.984 486.625 312.219C490.88 305.127 494.852 297.215 499.219 289.938C500.359 288.037 501.534 284.553 503.312 283.219C504.605 282.25 512.22 290.866 513.281 292.281C515.603 290.54 519.777 287.86 521.5 285.562C521.617 285.406 521.587 285.143 521.5 284.969C520.561 283.091 515.547 281.399 513.875 280.562C504.852 276.051 496.707 268.826 487.219 265.031C487.037 264.959 486.768 264.899 486.625 265.031ZM225 287C221.94 290.06 217.909 292.263 215.031 295.5C214.395 296.216 219.644 299.559 220.031 299.906C223.428 302.945 227.856 306.805 229.969 311.031C225.44 315.56 220.381 320.058 215.031 323.625C209.522 318.116 206.376 311.97 202.438 306.062C199.352 308.634 194.954 311.143 192.469 314.25C191.753 315.144 194.923 316.801 195.406 317.188C199.009 320.07 202.124 323.334 205.094 326.844C210.146 332.815 215.335 338.769 220.031 345.031C222.25 347.99 223.146 351.959 225.594 354.406C228.277 351.723 230.765 348.87 233.781 346.5C236.564 344.314 233.346 343.84 231.156 341.812C228.977 339.795 226.819 337.756 224.719 335.656C223.122 334.059 221.669 332.183 220.312 330.375C222.033 328.368 223.864 326.795 225.875 325.094C228.455 322.911 231.842 318.719 234.969 317.469C236.093 317.019 239.314 321.746 239.656 322.156C242.765 325.887 244.431 331.649 247.562 334.781C247.995 335.214 249.804 333.385 249.906 333.312C252.745 331.285 255.504 329.091 258.406 327.156C255.399 323.547 251.299 321.005 248.156 317.469C239.505 307.736 231.943 297.414 225 287ZM534.375 294.625C532.413 293.644 525.736 299.113 524.125 300.188C525.979 302.042 528.9 301.771 531.156 303.125C533.647 304.62 536.358 306.468 538.781 308.406C530.322 319.685 519.855 331.023 508.594 339.469C511.703 342.818 514.862 345.794 518.25 348.844C520.698 346.396 521.941 342.762 524.125 340.031C531.022 331.411 538.671 323.291 546.094 315.125C550.096 317.793 551.083 323.743 554 325.688C554.767 326.199 563.262 321.707 563.969 321C558.775 314.075 549.958 308.337 543.469 302.531C540.798 300.142 537.571 296.223 534.375 294.625ZM367.969 307.812C345.629 307.744 324.315 313.393 303.812 321.594C297.663 324.054 290.527 326.207 285.344 330.094C281.608 332.895 277.076 334.717 273.062 337.125C265.215 341.834 257.725 347.579 250.781 353.531C220.685 379.328 200.351 411.379 189.844 448.156C171.207 513.385 189.613 583.494 235.562 631.531C246.424 642.886 257.759 652.485 270.719 661.125C273.152 662.747 275.909 665.039 278.625 666.125C287.575 669.705 295.444 675.134 304.406 678.719C326.795 687.674 352.405 692.187 376.469 692.188C431.884 692.188 485.221 666.18 521.188 624.219C534.178 609.063 543.261 592.072 551.656 575.281C561.834 554.927 565.467 528.981 566.594 506.438C567.73 483.703 564.435 450.84 553.719 429.406C546.841 415.651 541.236 401.334 531.156 388.375C522.057 376.677 512.564 365.647 501.562 355.562C464.306 321.41 418.17 307.966 367.969 307.812ZM373.438 313.719C384.164 313.731 394.853 314.543 405.469 316.312C454.44 324.474 499.938 352.391 528.219 394.812C536.521 407.266 543.191 419.4 548.719 433.219C555.311 449.699 560.75 469.674 560.75 487.406C560.75 501.822 560.76 515.75 558.406 529.875C550.821 575.385 527.311 615.265 491.312 644.719C480.147 653.854 467.394 661.381 454.969 667.594C434.787 677.685 409.669 685.75 386.719 685.75C364.604 685.75 343.915 684.426 322.844 678.406C309.719 674.656 297.564 667.951 285.656 663.188C269.649 656.784 251.031 639.086 239.938 627.438C198.03 583.435 179.638 521.443 193.062 461.031C196.032 447.667 199.882 433.674 205.969 421.5C223.506 386.425 252.12 353.143 288.281 335.062C299.238 329.584 311.131 325.008 323.156 321C335.875 316.761 349.378 314.594 362.688 313.969C366.267 313.801 369.862 313.715 373.438 313.719ZM179 331.25C176.685 331.25 165.759 342.653 164.656 347.062C161.266 360.622 160.883 368.508 171.094 378.719C182.47 390.095 198.212 385.881 208.312 375.781C209.63 374.464 216.602 363.392 215.625 361.438C214.377 358.941 210.691 356.804 208.594 354.969C207.364 356.198 207.648 359.888 207.125 361.719C205.865 366.13 202.04 372.315 197.75 374.031C184.016 379.525 167.352 366.716 171.094 351.75C172.375 346.625 176.986 342.646 181.344 340.031C182.906 339.094 184.605 339.114 186.031 337.688C185.011 336.54 180.779 331.25 179 331.25ZM371.188 331.844C322.476 332.519 276.986 354.686 245.5 392.469C234.672 405.462 227.284 419.588 220.031 434.094C213.743 446.671 210.566 462.476 208.594 476.281C200.207 534.989 220.912 583.194 261.344 623.625C270.829 633.111 284.617 644.022 297.375 649.125C302.39 651.131 307.411 654.083 312.594 656.156C333.878 664.67 357.366 667.875 380.281 667.875C400.451 667.875 423.127 663.14 441.219 654.094C453.938 647.734 465.937 641.737 477.531 632.719C521.607 598.438 542.875 549.197 542.875 494.156C542.875 478.399 539.623 462.181 534.656 447.281C516.086 391.569 470.867 352.569 415.719 336.812C401.34 332.704 386.006 331.638 371.188 331.844ZM326.094 401.312C326.827 401.406 327.555 401.681 328.125 402.156C331.324 404.822 331.67 410.004 333.094 413.562C334.434 416.912 336.29 420.716 338.375 423.844C340.333 426.78 346.794 432.299 347.156 434.656C347.851 439.173 342.407 448.496 341.906 454C341.657 456.742 344.904 460.486 346.281 462.781C351.784 471.952 358.604 482.139 369.156 485.656C384.059 490.624 395.45 475.708 401.969 464.844C403.254 462.702 407.812 457.597 407.812 455.188C407.812 448.295 401.62 441.033 402.531 434.656C402.804 432.747 410.874 423.867 413.094 420.906C416.877 415.862 417.499 400.303 425.688 401.562C426.666 401.713 428.579 404.034 428.625 405.094C428.897 411.353 428.59 418.349 429.5 424.719C430.162 429.357 436.018 437.424 434.188 442C432.775 445.531 423.625 452.362 423.625 456.344C423.625 467.681 426.232 485.709 435.656 493.562C442.418 499.197 453.734 495.649 460.844 492.094C462.91 491.06 468.015 489.98 468.75 487.406C470.609 480.901 467.76 473.324 468.156 466.594C468.229 465.359 479.495 457.911 480.75 456.656C483.259 454.148 494.807 435.526 499.219 439.938C502.786 443.504 496.596 455.151 495.125 459.562C488.952 478.081 482.238 496.411 476.062 514.938C471.747 527.883 466.904 540.695 462.594 553.625C461.733 556.207 459.488 565.512 457.906 567.094C453.821 571.179 446.029 571.586 440.625 572.938C422.561 577.454 402.985 580.281 384.375 580.281C373.51 580.281 362.92 579.991 352.156 579.094C337.614 577.882 322.574 576.084 308.5 572.062C304.488 570.916 296.119 570.444 292.969 567.688C288.512 563.788 285.302 549.343 283.312 543.375C277.002 524.442 269.997 505.74 263.688 486.812C259.581 474.494 255.166 462.215 251.062 449.906C250.176 447.246 246.435 439.062 252.25 439.062C257.544 439.062 260.548 447.504 263.688 451.062C266.595 454.358 269.816 457.511 273.344 460.156C275.187 461.539 281.531 463.926 281.531 466.594C281.531 469.824 280.656 473.085 280.656 476.281C280.656 480.192 278.484 485.234 281.25 488C287.343 494.093 307.956 499.951 314.344 493.562C322.397 485.509 326.062 470.905 326.062 459.875C326.063 455.055 324.075 452.082 321.094 448.438C319.692 446.724 315.25 443.602 315.25 441.125C315.25 436.456 318.513 432.075 319.625 427.625C320.451 424.32 320.966 420.77 321.094 417.375C321.252 413.178 321.282 408.981 321.375 404.781C321.41 403.203 322.712 402.14 324.031 401.562C324.63 401.3 325.36 401.219 326.094 401.312ZM298.25 582.031C311.717 581.395 324.889 587.858 338.375 589.656C357.755 592.24 377.489 591.958 396.969 590.812C410.906 589.993 424.97 587.989 438.562 584.969C440.742 584.484 451.347 581.395 452.062 583.781C452.52 585.307 450.772 588.465 450.281 589.938C449.759 591.505 449.213 594.575 448.25 595.812C443.578 601.819 429.678 603.528 422.75 604.594C400.344 608.041 378.168 608.791 355.375 607.219C345.564 606.542 335.705 605.335 326.062 603.406C317.18 601.63 302.828 600.452 299.719 591.125C298.885 588.624 295.104 582.18 298.25 582.031ZM572.875 332.625C572.113 332.967 571.368 334.386 570.719 335.062C569.14 336.707 567.643 338.419 566.031 340.031C563.614 342.449 560.508 344.404 557.812 346.5C552.144 350.909 546.417 355.675 540.25 359.375C538.558 360.39 533.552 361.333 532.625 363.188C532.44 363.557 538.875 372.114 539.656 373.156C543.302 378.017 546.854 382.92 550.5 387.781C551.061 388.529 552.342 390.921 553.125 391.312C554.948 392.224 563.333 389.605 564.562 388.375C561.627 384.46 555.977 381.289 552.531 377.844C551.896 377.208 544.992 369.004 545.5 368.156C547.307 365.145 553.304 361.48 556.344 359.656C556.531 359.544 556.742 359.277 556.938 359.375C560.546 361.179 563.432 367.709 565.125 371.094C565.459 371.762 565.518 374.512 566.594 374.625C570.382 375.024 570.354 374.911 572.75 374.312C574.311 373.922 575.381 374.338 576.562 373.156C573.192 366.416 566.47 361.441 563.094 354.688C563.996 353.785 574.268 345.797 574.812 345.906C576.099 346.164 577.33 348.737 578.031 349.719C579.42 351.662 584.773 364.653 584.781 364.656C586.092 365.148 588.817 364.128 590.031 363.781C591.695 363.306 593.178 363.26 594.438 362C590.762 354.65 584.556 347.903 579.781 341.219C578.114 338.884 575.917 334.437 573.625 332.719C573.375 332.531 573.129 332.511 572.875 332.625ZM146.5 424.125C141.228 424.777 134.706 435.426 135.656 441.125C135.846 442.264 140.298 442.893 141.219 443.156C144.583 444.118 154.43 448.256 157.312 447.844C159.819 447.486 161.125 435.408 161.125 433.781C161.125 426.121 152.024 423.442 146.5 424.125ZM147.062 429.688C149.821 429.341 156.156 430.17 156.156 434.656C156.156 435.115 156.181 440.908 154.688 441.406C153.838 441.689 151.55 440.463 150.594 440.25C148.319 439.744 144.699 439.193 142.688 438.188C139.342 436.515 145.398 429.897 147.062 429.688ZM596.781 425C590.825 425.964 591.536 434.656 597.938 434.656C603.862 434.656 602.77 424.031 596.781 425ZM608.719 443.531C607.616 443.719 606.459 444.322 605.281 445.5C607.447 449.832 604.887 449.835 610.562 450.781C612.213 451.056 613.02 457.085 607.906 456.062C603.354 455.152 599.919 447.263 595.312 446.688C594.647 446.604 591.737 446.38 591.5 447.562C590.975 450.189 593.949 463.793 595.594 465.438C596.734 464.867 599.143 465.695 599.719 463.969C600.453 461.765 597.541 457.927 599.125 456.344C601.739 457.651 603.797 460.887 606.75 461.625C608.448 462.05 610.091 462.219 612 462.219C621.431 462.219 616.435 442.217 608.719 443.531ZM136.781 450.906C136.187 450.688 135.364 450.71 134.188 451.062C133.017 451.414 130.429 465.88 130.656 467.469C130.832 468.7 134.696 468.82 135.344 468.938C138.153 469.448 151.741 472.546 153.531 471.875C154.509 471.508 157.167 455.352 156.156 454.594C149.786 449.816 151.418 463.113 149.406 465.125C148.528 464.686 147.447 465.102 146.5 464.844C144.407 464.273 146.377 455.966 147.062 454.594C146.233 453.764 145.346 453.957 144.156 453.719C138.826 452.653 143.37 462.481 139.75 463.688C132.825 465.996 140.944 452.435 136.781 450.906ZM610.625 472.594C609.312 472.54 607.848 472.715 606.156 473.062C591.984 475.969 594.35 497.375 609.094 497.375C617.77 497.375 621.375 490.771 621.375 483C621.375 481.728 621.04 480.002 620.219 478.906C617.121 474.776 614.564 472.756 610.625 472.594ZM610.25 478.781C612.636 478.909 615.041 479.909 616.125 482.438C617.598 485.875 615.038 491.013 611.125 491.219C600.859 491.759 597.709 480.634 607.906 478.906C608.649 478.78 609.455 478.739 610.25 478.781ZM131.531 476.562C127.654 477.532 128.817 489.926 128.625 494.156C128.586 495.007 127.664 496.4 129.188 496.781C136.265 498.551 131.886 492.645 134.781 489.75C136.843 490.781 142.014 490.198 144.719 490.344C147.159 490.476 149.621 490.715 152.062 490.625C152.98 490.591 152.951 485.804 152.938 485.656C152.789 484.026 137.569 484.684 135.344 483.875C132.478 482.833 135.844 478.532 131.531 476.562ZM149.344 503.438C147.755 503.532 146.154 503.797 145.906 503.812C140.16 504.183 127.362 501.166 128.625 509.375C129.256 513.477 139.962 508.431 142.094 510.562C137.588 515.068 128.341 517.286 129.5 524.625C129.838 526.767 133.77 525.552 135.938 525.5C138.185 525.446 140.444 525.328 142.688 525.188C147.274 524.901 156.46 526.595 153.219 519.031C152.236 516.739 142.372 520.497 140.344 518.469C144.747 514.066 154.065 511.295 152.625 504.094C152.487 503.406 150.932 503.343 149.344 503.438ZM598.531 506.75C595.747 507.678 596.654 517.966 596.5 520.5C596.399 522.169 595.428 525.15 597.062 525.5C604.267 527.044 599.276 520.349 602.344 517.281C605.041 519.979 607.177 525.273 611.125 526.062C620.942 528.026 625.349 512.077 616.406 508.5C612.077 506.768 609.901 509.237 611.719 513.781C612.541 515.837 614.841 513.398 615.531 515.812C616.186 518.104 615.283 520.219 612.906 520.219C608.685 520.219 604.372 508.645 598.531 506.75ZM152.938 532.219C146.271 532.815 139.22 533.812 132.719 535.438C131.02 535.862 130.809 540.835 132.719 541.312C135.358 541.972 151.966 539.455 154.688 538.094C157.265 536.805 155.567 531.984 152.938 532.219ZM595.031 535.438C594.317 536.152 590.818 551.227 591.219 553.031C591.542 554.488 594.446 554.534 595.312 554.188C597.462 553.328 596.486 548.639 598.25 546.875C600.946 549.571 602.016 555.496 606.156 556.531C618.574 559.636 619.702 540.299 611.719 538.969C608.318 538.402 606.246 540.585 608.219 544.531C608.701 545.497 615.191 548.788 609.969 550.688C609.326 550.921 608.586 550.763 607.906 550.688C604.66 550.327 600.782 537.257 595.031 535.438ZM436.594 537.062C435.414 536.964 434.202 537.098 433 537.5C420.02 541.839 422.883 558.313 436.812 558.312C443.434 558.312 447.162 549.265 445.031 543.938C443.379 539.806 440.132 537.358 436.594 537.062ZM316.031 537.281C314.845 537.151 313.591 537.222 312.312 537.5C299.114 540.371 303.132 558.312 316.125 558.312C322.423 558.312 326.393 549.451 324.312 544.25C322.588 539.94 319.59 537.673 316.031 537.281ZM353.312 542.188C339.243 544.003 342.367 563 356.844 563C363.129 563 365.031 555.103 365.031 550.406C365.031 544.593 357.607 541.633 353.312 542.188ZM393.156 542.188C379.625 544.338 382.628 563 396.969 563C402.756 563 406.437 554.809 405.188 549.812C403.745 544.042 398.11 541.4 393.156 542.188ZM156.156 546C154.177 545.258 141.241 549.513 138.562 550.406C137.704 550.692 134.463 551.055 134.188 552.156C133.886 553.362 134.606 555.985 135.062 557.125C135.883 559.176 149.527 558.121 152.062 560.656C148.702 564.017 141.115 567.081 138.875 571.188C138.204 572.418 140.542 576.073 141.219 576.75C147.541 573.589 156.085 574.647 162.312 571.188C163.797 570.363 163.534 566.07 161.719 565.344C160.162 564.721 154.977 566.652 153.531 567.375C153.238 567.082 153.23 567.105 152.938 566.812C154.142 565.608 155.684 564.61 157.031 563.562C168.689 554.495 152.38 556.568 149.719 553.906C151.45 552.175 157.137 553.211 158.219 550.688C158.578 549.85 157.234 546.404 156.156 546ZM596.5 566.219C592.978 566.006 589.279 574.732 595.312 575.594C603.129 576.71 603.645 566.649 596.5 566.219ZM191.906 614.25C185.856 620.3 178.463 625.672 171.094 630.094C168.289 631.777 164.322 632.74 162 635.062C164.113 637.175 165.394 640.329 167.281 642.688C168.551 641.516 169.806 640.308 171.094 639.156C171.695 638.619 177.758 632.78 179 633.312C184.488 635.664 178.15 642.001 187.781 640.625C189.158 640.428 188.883 640.43 189.844 639.469C189.213 638.208 183.737 630.308 184 629.781C184.662 628.458 187.777 627.076 188.969 626.281C189.883 625.672 191.815 623.72 193.062 624.219C195.795 625.312 194.775 632.602 198.062 632.438C199.723 632.354 201.389 632.384 203.031 632.125C205.129 631.794 201.699 627.741 201.281 627.156C198.235 622.892 195.617 617.961 191.906 614.25ZM561.781 618.438C554.48 616.788 546.335 629.949 543.156 634.188C544.67 636.206 547.737 637.261 549.906 638.562C553.48 640.707 556.437 644.046 560.156 645.906C560.173 645.889 560.201 645.891 560.219 645.875C560.111 645.771 559.981 645.7 559.875 645.594C562.371 643.098 570.965 652.59 572.469 654.094C572.762 653.947 572.77 653.959 573.062 653.812C573.428 654.3 573.518 654.43 573.781 654.781C578.956 649.559 583.594 642.74 583.594 635.344C583.594 628.783 574.53 625.813 569.531 628.312C567.212 625.993 567.925 622.949 564.844 620.125C563.852 619.216 562.824 618.673 561.781 618.438ZM556.656 625.094C557.305 624.941 560.651 624.995 561.625 625.969C563.527 627.87 563.647 635.841 560.438 637.125C559.079 637.668 556.496 634.921 555.469 634.188C553.533 632.805 549.595 631.196 551.969 628.625C553.823 626.616 554.383 625.629 556.656 625.094ZM572.375 633.5C574.301 633.751 576.168 634.914 577.75 636.812C578.875 638.163 577.848 640.339 577.75 642.094C577.651 643.868 576.402 645.192 575.094 646.5C574.839 646.245 574.62 646.106 574.406 646.031C575.334 647.503 574.108 648.098 572.812 646.781C572.694 646.897 572.597 646.934 572.469 647.062C570.043 645.243 564.45 642.463 563.094 639.75C562.288 638.139 565.28 636.888 566.594 635.656C568.438 633.927 570.449 633.249 572.375 633.5ZM573.781 654.781C573.725 654.838 573.681 654.912 573.625 654.969C573.332 654.676 573.355 654.699 573.062 654.406C571.083 655.396 562.66 643.722 560.219 645.875C564.128 649.668 568.824 652.307 572.156 656.75C573.441 655.893 572.847 656.422 573.938 654.969C573.864 654.87 573.834 654.852 573.781 654.781ZM572.812 646.781C573.351 646.253 573.827 645.828 574.375 646C574.225 645.77 574.209 645.578 573.938 645.312C573.103 646.147 573.578 645.761 572.469 646.5C572.581 646.65 572.696 646.663 572.812 646.781ZM207.188 643C206.073 643.076 204.904 643.277 203.625 643.562C177.481 649.401 187.281 684.93 211.219 681.938C222.686 680.504 232.434 664.694 224.719 654.406C219.128 646.952 214.987 642.467 207.188 643ZM210.438 648.875C214.631 649.39 217.9 652.181 219.719 657.031C222.148 663.51 216.842 674.779 209.781 676.062C191.646 679.36 190.436 652.516 205.969 649.125C207.55 648.78 209.04 648.703 210.438 648.875ZM536.125 644.156C534.823 643.375 528.661 650.341 528.812 650.594C529.482 651.71 532.457 653.24 533.5 654.094C537.564 657.419 546.179 662.937 547.562 668.469C548.766 673.283 545.261 682.2 538.469 678.125C534.441 675.708 531.54 671.79 528.219 668.469C525.218 665.468 523.338 661.244 520.594 658.5C518.303 660.79 515.792 662.429 513.562 664.938C513.041 665.524 519.887 670.42 520.594 671.094C526.187 676.427 533.75 687.651 543.469 686.031C550.441 684.869 550.048 677.39 553.719 673.719C557.16 677.16 557.964 673.035 561.344 670.219C560.051 668.495 558.2 667.886 556.656 666.406C552.319 662.249 547.998 658.061 543.75 653.812C542.256 652.318 537.818 645.172 536.125 644.156ZM242 674.906C216.622 677.712 222.361 713.281 247.844 713.281C261.051 713.281 267.297 697.133 263.094 686.625C259.485 677.603 250.304 673.988 242 674.906ZM247.906 680.062C252.367 680.852 255.829 684.287 257.219 689.844C258.95 696.77 253.529 708 245.5 708C229.047 708 228.818 683.132 243.156 680.188C244.827 679.844 246.419 679.799 247.906 680.062ZM498.938 675.781C497.467 675.487 492.531 680.149 491.312 681.062C493.399 685.235 498.679 689.339 501.562 693.375C504.303 697.211 508.302 701.568 510.062 705.969C510.68 707.512 511.089 709.901 512.406 711.219C515.47 708.921 526.046 702.935 527.625 700.094C528.421 698.66 526.676 692.988 525.594 691.906C522.308 694.535 519.303 698.604 516.5 701.562C510.858 697.049 506.167 688.435 502.438 682.219C501.747 681.067 500.042 676.002 498.938 675.781ZM481.344 687.5C475.129 689.572 466.757 692.763 464.062 699.5C459.296 711.416 465.107 727.344 479.875 727.344C486.861 727.344 503.698 719.823 495.406 711.531C492.455 713.499 491.399 717.709 487.781 719.156C481.868 721.522 472.445 720.467 470.5 712.688C469.189 707.444 468.06 697.649 475.781 695.719C477.716 695.235 484.806 694.639 485.438 693.375C486.005 692.241 483.344 688.328 481.344 687.5ZM277.438 692.469C275.513 693.752 273.855 696.214 272.469 698.062C274.951 700.545 280.606 698.293 283.594 701.281C280.02 708.429 277.777 715.821 274.219 722.938C273.632 724.112 269.939 728.16 270.406 729.094C271.342 730.966 277.028 731.967 278.906 732.906C280.261 731.551 280.87 726.902 281.25 725C281.957 721.467 288.07 706.461 290.625 703.906C293.317 705.252 295.507 707.061 297.938 709.188C299.956 707.505 301.887 705.694 303.812 703.906C300.548 700.642 288.398 696.734 283.594 694.812C282.495 694.373 278.271 691.913 277.438 692.469ZM312 705.969C311.68 705.899 309.093 720.282 308.5 722.656C307.45 726.857 306.344 731.125 304.969 735.25C304.478 736.723 301.825 739.568 302.344 741.125C302.46 741.475 313.691 744.848 314.938 744.938C317.472 745.119 320.022 745.219 322.562 745.219C323.493 745.219 325.298 744.324 326.062 743.75C329.574 741.116 331.981 737.108 330.188 732.625C329.743 731.513 326.818 728.489 327.25 727.625C328.204 725.717 332.932 725.006 333.094 721.781C333.728 709.104 321.262 708 312 705.969ZM320.688 711.5C325.192 712.306 329.196 718.738 324.625 722.656C324.243 722.983 323.03 723.511 322.562 723.531C320.203 723.634 315.865 724.995 315.531 722.656C315.235 720.586 316.755 711.962 318.75 711.531C319.391 711.393 320.044 711.385 320.688 711.5ZM315.875 726.094C317.083 726.307 318.254 727.284 319.344 727.938C321.021 728.944 321.341 729.278 322.844 731.156C329.815 739.87 312.281 743.654 310.844 739.344C310.435 738.117 312.22 734.214 312.594 732.906C313.146 730.972 312.849 726.788 314.656 726.188C315.065 726.052 315.472 726.023 315.875 726.094ZM421.594 709.781C419.591 710.115 414.777 710.373 413.375 712.125C413.037 712.547 413.515 713.218 413.688 713.562C415.749 717.686 416.787 722.275 417.781 726.75C419.305 733.607 419.804 740.402 421 747.281C421.071 747.689 421.582 747.863 421.875 748.156C426.23 745.253 439.412 747.316 440.031 741.125C440.155 739.892 441.882 735.597 440.625 734.969C439.903 734.608 434.52 738.365 431 739.688C431.084 739.771 431.123 739.811 431.25 739.938C429.652 741.536 427.135 740.664 427.781 738.906C425.365 732.416 424.472 723.862 423.344 717.094C423.004 715.058 423.635 711.237 421.594 709.781ZM427.781 738.906C427.87 739.145 427.938 739.424 428.031 739.656C428.354 740.463 429.544 740.235 431 739.688C430.696 739.384 430.553 739.24 430.094 738.781C429.801 738.928 429.793 738.916 429.5 739.062C428.914 738.477 428.898 738.492 428.312 737.906C427.93 738.289 427.902 738.579 427.781 738.906ZM358.281 714.031C357.192 713.916 356.095 713.893 355.656 714.156C353.961 715.173 352.429 720.642 351.562 722.375C346.983 731.533 340.327 739.878 335.75 749.031C336.336 749.617 336.32 749.602 336.906 750.188C338.831 749.225 343.458 751.437 345.125 750.188C346.424 749.213 346.24 745.388 347.469 743.75C348.229 742.736 360.88 743.236 363 744.031C364.533 744.606 364.27 750.426 364.469 751.062C365.21 753.433 371.435 752.304 373.25 752.531C374.758 752.72 373.587 753.382 375 751.969C370.082 747.05 366.773 731.32 364.469 724.406C364.032 723.096 361.662 714.614 360.938 714.469C360.459 714.373 359.37 714.146 358.281 714.031ZM357.438 725C360.949 727.341 360.107 734.496 361.812 737.906C361.52 738.199 361.512 738.176 361.219 738.469C358.232 736.976 354.646 738.475 351.562 737.594C349.756 737.078 356.187 726.25 357.438 725ZM391.125 714.156C390.283 714.226 384.087 714.158 383.5 715.625C383.028 716.804 384.478 719.657 384.656 720.906C385.478 726.659 385.954 732.391 386.438 738.188C386.785 742.357 385.879 747.154 386.438 751.062C386.477 751.336 386.725 751.627 387 751.656C389.349 751.904 405.183 751.041 405.75 749.625C406.173 748.566 406.269 746.975 406.656 745.812C407.1 744.481 407.684 743.396 407.219 742C403.362 742 399.107 746.148 395.219 745.5C394.134 745.319 394.033 738.806 394.031 738.781C393.47 731.762 392.594 724.741 392.594 717.688C392.594 716.335 393.79 715.356 391.125 714.156Z" fill="#FFFFFF" fill-rule="nonzero" opacity="1" stroke="none"/>
</g>
</svg>
