<?xml version="1.0" encoding="UTF-8" standalone="no"?>
<!DOCTYPE svg PUBLIC "-//W3C//DTD SVG 1.1//EN" "http://www.w3.org/Graphics/SVG/1.1/DTD/svg11.dtd">
<!-- Created with Vectornator (http://vectornator.io/) -->
<svg height="100%" stroke-miterlimit="10" style="fill-rule:nonzero;clip-rule:evenodd;stroke-linecap:round;stroke-linejoin:round;" version="1.1" viewBox="0 0 750 1000" width="100%" xml:space="preserve" xmlns="http://www.w3.org/2000/svg" xmlns:vectornator="http://vectornator.io" xmlns:xlink="http://www.w3.org/1999/xlink">
<defs/>
<g id="Layer-1" vectornator:layerName="Layer 1">
<path d="" fill="none" opacity="1" stroke="#002f87" stroke-linecap="butt" stroke-linejoin="miter" stroke-width="1"/>
<path d="M374.382 198.125L366.684 204.621C366.681 204.624 329.92 235.602 312.102 250.679C295.04 265.115 278.004 279.557 260.957 293.957C248.61 304.387 236.273 314.811 223.875 325.143C212.048 334.999 200.306 344.919 188.595 354.828C188.09 355.255 184.916 357.693 182.023 360.16C180.524 361.439 179.031 362.75 177.555 364.347C176.804 365.16 176.026 366.031 175.17 367.37C174.436 368.519 172.774 370.725 172.898 375.2L172.917 375.65C176.297 492.796 228.89 612.274 295.429 705.429C311.7 728.208 329.027 750.161 347.927 771.05C352.407 776.003 356.91 780.697 361.314 785.339C363.517 787.661 366.647 790.367 366.777 790.483L375.414 798.125L383.394 789.789C383.447 789.733 398.683 773.875 405.981 765.718C421.567 748.298 436.1 729.954 449.635 711.005C500.37 639.976 540.214 559.88 561.539 474.58C567.318 451.465 571.087 428.39 573.837 405.016C574.978 395.321 576.498 383.946 575.64 372.496L575.565 371.388L575.414 370.919C575.414 370.919 574.79 368.858 574.231 367.671C574.231 367.671 573.686 366.766 573.574 366.6C573.107 365.908 572.821 365.582 572.579 365.305C572.118 364.775 571.841 364.484 571.546 364.197C570.982 363.648 570.442 363.171 569.819 362.62C568.591 361.533 567.076 360.251 565.538 358.959C562.494 356.399 559.277 353.754 558.741 353.307C547.004 343.526 535.318 333.64 523.612 323.735L519.331 320.13C489.567 294.968 459.712 269.949 430.014 244.82C420.023 236.366 410.013 227.986 400.086 219.586C394.173 214.583 382.131 204.577 382.117 204.565L374.382 198.125ZM374.438 213.803C374.438 213.803 386.501 223.834 392.331 228.767C402.291 237.195 412.3 245.575 422.26 254.002C453.411 280.36 484.689 306.559 515.839 332.917C527.546 342.823 539.261 352.727 551.043 362.545C552.312 363.602 563.62 372.853 563.661 373.397C564.392 383.146 563.043 393.858 561.896 403.608C559.188 426.627 555.5 449.187 549.879 471.67C528.98 555.268 489.84 634.039 439.853 704.021C426.551 722.644 412.291 740.658 397.025 757.719C390.02 765.549 374.72 781.471 374.72 781.471C374.72 781.471 371.502 778.633 370.026 777.077C365.59 772.402 361.149 767.773 356.826 762.995C338.285 742.502 321.24 720.911 305.193 698.444C239.569 606.571 188.081 488.841 184.915 374.862C184.855 372.706 194.218 365.813 196.349 364.009C208.058 354.102 219.772 344.199 231.554 334.381C261.138 309.728 290.477 284.735 319.875 259.86C337.677 244.797 374.438 213.803 374.438 213.803ZM374.438 240.784C370.671 242.667 367.334 246.531 363.867 249.007C353.835 256.173 344.404 264.196 334.539 271.595C302.589 295.558 271.008 320.128 239.477 344.651C228.968 352.826 218.455 361.014 207.803 369.004C206.744 369.798 196.788 377.001 196.65 377.509C195.98 379.964 196.781 382.593 196.95 385.132C197.415 392.106 198.074 399.032 198.997 405.955C202.107 429.28 206.927 452.034 213.379 474.618C242.056 574.988 302.354 675.624 374.438 750.378C400.583 724.233 422.003 694.936 443.383 665.004C456.265 646.969 466.929 627.607 478.287 608.677C482.747 601.244 486.239 590.664 491.205 584.043C497.108 576.173 501.331 564.718 504.986 555.579C514.813 531.011 525.835 507.261 533.15 481.659C540.275 456.723 546.35 431.782 549.579 405.955C550.694 397.03 553.212 386.382 552.226 377.509C552.179 377.083 541.323 368.97 540.191 368.121C529.148 359.839 518.228 351.36 507.333 342.887C480.361 321.908 453.044 301.379 426.071 280.401C409.367 267.408 392.92 253.105 374.438 240.784ZM374.438 249.59C389.62 259.711 403.44 272.424 417.848 283.63C430.278 293.298 444.497 302.464 455.681 313.559C455.69 313.55 455.69 313.549 455.7 313.54C457.506 314.744 458.533 315.51 460.093 317.07C458.395 318.202 456.49 316.089 455.136 314.704C455.127 314.713 455.127 314.713 455.118 314.723C448.173 311.25 441.478 305.737 435.159 301.223C422.112 291.904 408.6 283.135 395.26 274.242C390.059 270.775 385.067 266.883 379.714 263.671C378.231 262.782 376.379 260.575 374.72 260.16C373.298 259.805 370.785 262.346 369.744 263.089C365.354 266.225 360.741 269.179 356.244 272.177C337.957 284.369 319.962 296.959 301.682 309.146C301.625 309.09 301.448 308.911 301.306 308.771C300.707 310.768 295.61 313.388 294.059 314.422C293.619 313.982 293.616 313.98 293.176 313.54C295.704 311.518 298.512 309.669 300.799 307.381C300.865 307.426 300.857 307.486 300.912 307.532C304.199 302.761 312.141 298.669 316.646 295.065C328.981 285.197 341.426 275.436 353.897 265.737C360.604 260.52 368.436 255.592 374.438 249.59ZM374.138 275.125C377.371 273.888 392.927 286.956 396.725 289.488C415.394 301.934 434.135 315.228 453.353 326.758C474.963 339.724 496.192 354.329 517.303 368.403C522.35 371.767 527.672 375.128 532.568 378.392C534.081 379.4 538.514 381.235 539.008 383.086C540.229 387.666 537.741 399.455 537.262 404.49C535.333 424.746 532.028 449.801 524.926 468.741C523.065 473.705 522.785 479.127 520.833 484.006C513.342 502.733 507.655 522.678 498.828 540.333C467.553 602.882 426.96 665.034 374.72 714.009C374.577 714.143 374.278 714.145 374.138 714.009C371.01 710.976 368.069 707.763 365.05 704.621C356.272 695.485 347.761 686.078 339.515 676.458C319.177 652.73 298.992 627.282 282.906 600.472C278.921 593.831 275.254 586.206 270.871 579.631C265.682 571.847 261.728 563.391 257.671 555.279C256.465 552.867 253.96 549.803 253.278 547.074C251.608 540.394 246.27 531.011 243.007 524.486C239.799 518.07 238.568 510.335 235.084 504.528C231.79 499.038 230.633 491.493 228.625 485.47C222.324 466.566 218.74 447.743 214.844 428.26C212.803 418.055 212.212 407.814 210.732 397.449C210.279 394.278 208.29 386.464 209.849 383.086C211.117 380.338 218.524 376.931 221.002 375.444C231.603 369.083 241.503 361.558 252.095 355.203C275.452 341.189 296.893 324.569 320.157 310.611C327.566 306.166 334.6 300.029 342.162 296.247C353.483 290.587 362.367 279.627 374.138 275.125ZM328.381 683.198C344.518 696.108 357.592 713.335 374.138 725.744C374.995 726.387 378.354 722.429 381.761 719.285C391.921 709.907 402.456 700.637 412.271 690.821C412.277 690.828 412.284 690.833 412.29 690.84C415.01 688.305 417.865 685.828 420.495 683.198C420.788 683.638 420.784 683.641 421.077 684.081C418.702 687.05 416.959 690.357 414.036 692.793C412.183 695.633 407.352 700.598 404.949 703.439C394.821 715.407 385.522 728.742 374.438 739.826C362.514 725.915 350.964 711.657 339.233 697.581C337.373 695.349 327.183 684.396 328.381 683.198ZM374.438 283.33C372.6 283.33 359.599 293.116 357.127 294.764C341.854 304.946 326.338 314.815 311.07 324.993C288.596 339.976 266.154 355.698 243.007 369.586C236.9 373.25 231.043 377.368 225.114 381.321C223.839 382.171 219.391 384.018 218.955 385.433C217.742 389.376 219.429 395.418 219.819 399.514C220.671 408.454 220.192 421.064 224.231 429.143C225.377 431.435 225.55 435.1 226.278 437.648C228.502 445.431 230.815 453.038 233.037 460.817C239.439 483.222 249.033 505.144 259.436 525.951C264.218 535.514 268.982 546.515 275.621 554.941C289.754 540.365 303.754 525.643 318.111 511.287C320.241 512.991 325.636 519.984 327.78 517.727C331.257 514.067 334.832 510.494 338.351 506.875C350.353 494.529 362.263 482.099 374.438 469.924C390.047 486.451 405.885 502.835 421.96 518.91C425.164 517.308 428.234 513.819 430.765 511.287C438.003 519.007 445.408 526.555 452.771 534.156C455.898 537.384 459.029 540.618 462.159 543.844C465.385 547.17 468.596 550.494 471.828 553.814C472.137 554.131 472.322 554.518 472.41 554.941C472.506 555.056 472.615 555.164 472.711 555.279C478.448 550.976 481.356 540.576 485.028 534.456C495.162 517.565 501.729 498.317 509.098 479.894C511.2 474.638 512.889 469.104 514.675 463.746C515.48 461.331 515.799 457.346 517.604 455.541C516.914 454.162 518.643 450.871 519.068 449.383C520.9 442.972 522.892 436.409 524.926 430.307C528.17 420.574 528.184 405.645 529.038 395.403C529.292 392.359 530.503 388.343 529.92 385.433C529.561 383.636 522.925 380.562 521.415 379.556C512.676 373.729 503.773 368.082 495.016 362.244C465.636 342.657 435.792 323.738 406.413 304.152C398.534 298.899 390.521 293.858 382.643 288.606C380.872 287.425 376.554 283.33 374.438 283.33ZM375.583 353.645C377.157 353.818 378.829 354.268 380.296 354.321C385.076 354.495 398.49 353.609 398.49 362.545C398.49 370.173 398.378 377.807 398.189 385.433C398.13 387.837 395.062 391.591 392.913 391.591C392.013 394.292 397.035 408.068 398.189 411.531C398.772 413.279 401.424 416.802 400.536 417.689C397.771 416.307 394.333 417.448 391.449 416.807C389.71 416.421 388.401 408.46 387.938 406.837C387.191 404.225 384.722 391.413 382.061 392.173C381.795 392.249 381.486 392.479 381.479 392.755C381.289 399.891 381.022 407.054 381.479 414.178C381.523 414.868 382.454 415.154 382.943 415.643C381.657 416.929 373.171 417.304 371.509 415.643C373.101 413.732 372.973 414.646 372.973 413.296C372.973 394.227 373.45 375.149 372.973 356.086C372.956 355.395 371.998 355.11 371.509 354.621C372.547 353.584 374.009 353.472 375.583 353.645ZM355.08 354.321C358.823 354.264 365.933 355.509 365.933 361.08C365.933 377.118 365.729 393.146 365.632 409.184C365.59 416.153 355.328 417.408 350.668 417.408C345.733 417.408 337.769 416.762 337.769 409.766C337.769 394.51 337.862 379.264 338.05 364.009C338.161 355.067 348.789 354.416 355.08 354.321ZM416.346 357.475C417.523 357.517 418.653 357.676 419.613 357.851C426.077 359.026 433.648 360.938 433.694 369.285C433.789 386.301 433.314 403.325 433.694 420.337C433.708 420.963 434.486 421.312 434.877 421.801C433.493 423.186 424.85 420.955 423.724 419.454C424.116 419.063 424.857 418.843 424.889 418.29C425.257 411.749 425.078 405.181 424.889 398.632C424.865 397.822 416.723 396.059 416.684 397.449C416.494 404.096 416.32 410.768 416.684 417.408C416.718 418.033 417.456 418.383 417.848 418.872C416.68 420.04 407.741 418.648 406.714 417.107C407.105 416.716 407.862 416.496 407.878 415.943C408.356 398.543 408.082 381.116 408.178 363.709C408.18 363.318 408.114 362.931 408.178 362.545C408.896 358.238 412.812 357.352 416.346 357.475ZM320.645 358.752C321.644 358.772 322.433 358.944 322.804 359.315C322.524 359.875 321.632 360.154 321.622 360.78C321.333 377.989 321.428 395.203 321.622 412.413C321.643 414.3 330.496 411.18 331.61 410.066C333.091 411.547 332.285 412.446 332.192 414.76C332.138 416.128 332.362 417.514 332.192 418.872C332.102 419.594 320.966 421.519 319.275 421.801C317.926 422.026 312.336 423.752 311.652 422.383C311.193 421.465 312.821 421.321 312.834 420.637C313.218 401.278 313.216 381.904 312.834 362.545C312.822 361.919 312.043 361.569 311.652 361.08C312.761 359.971 317.648 358.692 320.645 358.752ZM441.036 361.362C448.516 365.102 469.782 364.908 469.782 376.908C469.782 392.555 469.672 408.202 469.481 423.848C469.472 424.594 469.145 425.949 468.599 426.495C463.245 431.849 453.342 427.481 446.894 425.331C444.795 424.632 441.692 424.87 440.435 422.984C440.826 422.593 441.607 422.354 441.618 421.801C442.001 402.443 442.001 383.068 441.618 363.709C441.581 361.845 439.392 363.006 441.036 361.362ZM299.635 363.897C302.533 364.206 305.794 365.829 305.794 369.285C305.794 385.128 305.684 400.966 305.493 416.807C305.445 420.836 300.975 425.133 297.57 426.495C292.789 428.408 277.63 433.593 277.63 424.148C277.63 408.501 277.721 392.854 277.911 377.209C278.023 368.031 290.292 365.525 296.988 364.009C297.738 363.839 298.669 363.794 299.635 363.897ZM480.052 374.561C488.544 374.501 503.803 381.573 503.803 391.873C503.803 407.031 503.712 422.191 503.522 437.348C503.494 439.555 501.513 442.624 499.109 442.624C489.971 442.624 475.358 434.483 475.358 424.449C475.358 409.877 475.454 395.309 475.64 380.739C475.68 377.535 476.829 374.584 480.052 374.561ZM263.623 375.632C264.736 375.517 265.79 375.551 266.759 375.744C273.35 377.063 269.12 386.31 272.053 389.244C269.357 391.94 264.777 392.572 261.483 394.22C261.189 393.78 261.194 393.777 260.901 393.337C261.292 392.946 261.974 392.719 262.065 392.173C263.731 382.177 255.948 384.474 254.16 388.944C254.045 389.231 253.862 389.517 253.86 389.826C253.764 403.908 253.479 417.995 253.86 432.072C253.875 432.625 254.506 433.042 255.024 433.236C258.702 434.615 262.92 428.663 262.365 425.613C262.241 424.932 261.284 424.724 260.901 424.148C263.639 421.41 268.143 420.809 271.453 419.154C271.746 419.447 271.76 419.461 272.053 419.755C269.951 423.96 271.478 430 267.641 433.837C264.44 437.037 245.054 449.989 245.054 437.348C245.054 421.994 245.165 406.643 245.354 391.291C245.441 384.229 255.835 376.432 263.623 375.632ZM307.69 436.259C310.476 436.164 313.22 436.33 315.764 437.348C319.063 438.667 320.706 444.14 318.111 446.736C316.846 448 315.474 448.49 314.299 449.665C315.661 451.708 316.939 453.487 318.693 455.241C318.301 455.437 317.964 455.8 317.528 455.842C315.874 455.999 314.187 456.016 312.534 455.842C311.18 455.699 311.005 448.717 305.794 449.665C303.421 450.096 307.265 455.618 304.911 455.842C302.858 456.037 300.211 456.7 298.753 455.241C298.948 455.045 299.325 454.935 299.335 454.659C299.523 449.48 299.523 444.292 299.335 439.113C299.325 438.836 298.948 438.726 298.753 438.531C299.144 437.748 299.144 438.13 298.753 437.348C298.948 437.152 299.058 436.771 299.335 436.766C302.074 436.715 304.904 436.354 307.69 436.259ZM387.844 436.503C388.944 436.538 390.117 436.766 391.148 436.766C391.528 437.906 391.433 437.287 391.449 438.23C391.543 443.902 391.844 449.569 391.749 455.241C391.745 455.518 391.424 455.816 391.148 455.842C389.095 456.037 386.449 456.7 384.99 455.241C385.186 455.045 385.581 454.935 385.591 454.659C385.78 449.088 385.78 443.501 385.591 437.93C385.581 437.653 385.186 437.543 384.99 437.348C385.719 436.618 386.744 436.467 387.844 436.503ZM442.669 436.54C446.062 436.744 449.019 437.607 449.823 438.812C448.758 439.877 448.664 441.736 447.476 442.924C445.031 440.479 437.908 438.61 436.041 442.342C438.037 444.338 450.424 442.685 450.424 447.918C450.424 456.708 442.545 456.554 435.459 455.541C434.131 455.352 430.285 455.062 429.583 454.359C430.425 452.673 431.003 449.727 432.23 448.501C434.618 452.083 442.636 453.805 444.847 449.383C441.801 446.337 430.183 449.866 430.183 442.624C430.183 437.707 437.015 436.201 442.669 436.54ZM409.192 436.747C411.491 436.831 413.805 436.974 416.101 437.066C417.296 437.114 419.017 437.634 419.913 438.531C424.91 443.528 424.692 455.654 415.501 455.842C411.199 455.93 406.904 455.842 402.602 455.842C400.777 450.369 404.625 443.161 401.137 437.93C401.528 437.539 401.749 436.798 402.301 436.766C404.596 436.631 406.893 436.663 409.192 436.747ZM333.657 436.766C336.487 436.583 339.326 436.766 342.162 436.766C343.607 441.101 346.261 452.299 349.203 455.241C347.445 456.12 345.311 455.842 343.345 455.842C343.122 455.173 342.916 451.803 341.862 451.73C339.228 451.548 336.585 451.467 333.957 451.73C332.989 451.827 332.519 454.005 332.192 454.659C332.486 454.952 332.481 454.948 332.774 455.241C330.785 456.236 328.06 456.986 326.316 455.241C329.666 451.891 330.106 445.332 332.192 441.159C332.558 440.427 333.402 436.782 333.657 436.766ZM358.009 436.766C362.703 436.672 367.397 436.972 372.091 437.066C372.684 437.078 373.385 437.229 373.856 437.648C377.684 441.051 378.028 447.687 372.091 449.383C369.366 450.162 367.448 449.391 364.168 449.665C362.293 449.821 362.945 454.019 364.168 455.241C362.709 456.7 360.072 455.842 358.009 455.842C357.911 455.548 357.719 455.268 357.709 454.959C357.522 449.094 357.332 443.215 357.427 437.348C357.432 437.071 357.733 436.771 358.009 436.766ZM383.15 361.531C382.295 361.557 381.66 361.632 381.479 361.662C381.206 361.708 380.904 361.968 380.897 362.244C380.706 369.478 380.615 376.718 380.897 383.949C380.993 386.41 385.759 384.934 388.219 384.832C388.782 384.808 389.968 383.387 389.984 383.367C390.124 383.199 390.281 383.004 390.285 382.785C390.38 376.625 390.38 370.47 390.285 364.31C390.245 361.736 385.715 361.452 383.15 361.531ZM351.663 361.963C349.436 362.069 345.989 362.626 345.974 364.892C345.877 379.169 345.877 393.442 345.974 407.719C346.002 411.858 357.158 410.995 357.709 407.137C359.659 393.487 358.009 379.563 358.009 365.774C358.009 362.501 355.983 362.128 353.315 361.963C353.015 361.944 352.405 361.927 351.663 361.963ZM418.448 364.892C417.551 364.794 416.116 365.85 416.101 366.938C416.006 374.272 415.911 381.612 416.101 388.944C416.124 389.829 425.469 390.886 425.489 390.127C425.68 383.186 425.582 376.228 425.489 369.285C425.436 365.267 421.205 365.193 418.448 364.892ZM450.424 371.351C450.162 371.262 449.826 371.656 449.823 371.933C449.63 387.48 449.63 403.024 449.823 418.572C449.826 418.848 450.167 419.051 450.424 419.154C452.418 419.952 460.928 422.605 461.558 419.454C461.615 419.167 461.556 418.865 461.558 418.572C461.653 405.272 461.762 391.973 461.858 378.673C461.903 372.516 454.674 372.784 450.424 371.351ZM294.34 372.214C292.067 372.563 286.156 373.868 286.135 376.908C286.039 391.186 285.835 405.477 285.835 419.755C285.835 423.808 297.514 420.286 297.57 416.225C297.761 402.34 297.87 388.448 297.87 374.561C297.87 372.577 295.729 372.001 294.34 372.214ZM485.328 383.367C484.703 383.287 483.581 384.159 483.563 384.832C483.182 399.104 483.467 413.401 483.563 427.678C483.581 430.372 495.569 436.405 495.598 432.072C495.695 417.99 495.694 403.908 495.598 389.826C495.573 386.1 488.281 383.744 485.328 383.367ZM337.769 439.695C336.325 441.139 333.923 447.232 334.539 449.083C336.593 449.083 338.652 449.26 340.698 449.083C342.462 448.929 338.592 440.518 337.769 439.695ZM365.031 440.352C364.511 440.415 364.031 440.576 363.586 440.878C358.328 444.431 367.151 447.539 370.326 445.271C371.524 444.416 372.379 440.976 370.026 440.878C368.413 440.81 366.593 440.161 365.031 440.352ZM409.905 440.446C409.404 440.498 408.911 440.633 408.46 440.878C405.445 442.51 407.593 447.731 407.878 451.148C408.01 452.734 410.982 452.091 412.572 452.012C419.653 451.658 419.935 441.109 414.618 440.878C413.079 440.811 411.411 440.287 409.905 440.446ZM308.835 440.464C307.597 440.431 306.368 440.542 305.193 440.878C303.863 441.257 304.415 443.602 304.611 444.971C304.958 447.399 309.501 445.669 311.952 445.571C314.111 445.485 315.245 441.329 312.534 440.878C311.328 440.677 310.074 440.498 308.835 440.464ZM374.438 473.735C364.479 485.117 354.858 496.796 345.091 508.339C340.168 514.157 335.543 520.586 329.845 525.65C325.885 521.837 325.883 521.841 321.922 518.027C313.106 528.103 304.024 538.27 295.805 548.838C293.003 552.44 285.581 563.038 281.723 564.967C281.642 564.845 281.578 564.713 281.498 564.591C281.48 564.617 281.458 564.641 281.441 564.666C281.277 564.913 285.101 570.194 285.534 570.844C289.924 577.428 294.479 583.959 299.335 590.202C315.275 610.696 332.447 630.051 352.132 647.111C357.929 652.135 363.98 656.791 370.026 661.493C371.146 662.365 372.68 664.058 374.138 664.422C375.84 664.848 380.961 659.596 382.361 658.546C392.274 651.111 401.59 642.783 410.525 634.212C413.57 631.292 416.63 628.389 419.613 625.406C433.689 611.33 446.974 595.358 458.047 578.748C458.95 577.393 467.549 565.288 467.134 564.666C467.054 564.749 466.926 564.894 466.853 564.967C458.324 554.732 449.565 544.691 441.036 534.456C436.624 529.162 432.158 522.156 426.654 518.027C422.693 521.988 422.691 521.99 418.73 525.951C411.061 516.364 402.838 507.219 394.979 497.787C388.286 489.756 381.831 481.128 374.438 473.735ZM378.55 514.873C381.781 514.911 384.873 515.236 386.886 516.131C386.947 516.133 386.989 516.1 387.055 516.112C387.927 516.275 389.672 517.006 390.66 517.783C394.132 520.068 398.204 521.093 401.719 523.604C409.911 529.455 417.372 538.959 420.195 548.838C428.907 579.333 405.008 612.782 372.373 610.742C350.029 609.346 326.616 590.167 326.616 566.431C326.616 557.38 328.951 550.914 331.009 542.68C332.986 534.775 342.26 527.062 348.321 523.022C350.14 521.809 352.351 519.91 354.442 519.454C356.13 517.859 360.217 517.109 362.403 516.563C362.621 516.74 363.696 516.155 364.055 516.169C364.981 515.618 366.402 515.465 367.679 515.38C370.004 515.225 374.369 514.824 378.55 514.873ZM364.506 621.05C371.677 621.531 375.917 631.849 368.862 637.141C364.86 640.142 359.868 636.362 356.545 638.024C356.251 637.73 356.237 637.716 355.944 637.423C356.356 636.597 356.86 635.344 357.483 634.456C357.557 634.556 357.638 634.723 357.709 634.794C358.652 633.851 362.358 635.677 364.168 635.677C366.072 635.677 369.364 632.95 367.679 631.264C363.344 633.431 359.466 632.869 356.545 629.218C356.433 629.33 356.437 629.561 356.376 629.725C355.548 627.203 356.779 623.914 359.173 622.477C361.039 621.358 362.851 620.939 364.506 621.05ZM384.783 621.82C385.98 621.731 387.157 621.765 388.219 621.876C389.273 621.987 392.712 622.053 392.913 623.059C393.955 628.267 384.324 623.896 381.479 627.453C381.772 627.746 381.768 627.742 382.061 628.035C386.135 625.998 397.312 629.641 392.031 635.677C385.646 642.973 374.078 637.077 376.485 627.453C377.475 623.49 381.195 622.087 384.783 621.82ZM368.242 516.995C361.509 516.27 347.413 526.558 344.509 529.462C342.775 531.197 341.182 533.289 339.815 535.339C327.862 553.268 332.993 574.874 347.438 589.319C352.831 594.712 360.003 596.633 367.097 598.407C393.486 605.004 415.801 580.885 415.801 555.879C415.801 543.669 407.81 531.058 398.189 524.186C394.765 521.74 388.925 520.78 386.173 518.027C384.881 518.673 383.954 517.65 382.756 518.215C381.218 517.953 379.602 517.82 378.55 517.445C375.969 516.525 373.062 517.575 370.326 517.727C370.274 517.73 370.246 517.743 370.195 517.746C369.645 517.348 369.011 517.078 368.242 516.995ZM362.365 520.994C362.845 522.6 365.465 524.689 368.862 527.115C370.062 527.972 372.885 530.945 374.438 530.945C376.146 530.945 379.781 526.949 381.178 525.951C382.42 525.064 385.796 523.519 386.736 521.783C386.867 521.973 387.029 522.174 387.337 522.421C390.392 524.865 394.296 526.432 397.326 529.462C399.35 531.487 402.153 535.348 402.883 538.268C403.318 540.007 403.615 542.181 404.949 543.525C404.944 543.528 404.953 543.541 404.949 543.544C404.106 547.32 403.358 551.202 403.484 551.768C403.582 552.206 404.167 552.714 404.949 553.232C403.858 555.105 404.388 558.896 403.484 561.155C401.505 566.103 398.286 570.146 394.378 574.054C382.191 586.241 359.182 582.329 349.504 568.778C347.079 565.384 345.647 561.906 344.509 557.926C343.975 556.057 344.669 554.394 344.153 552.95C344.691 552.552 345.171 552.153 345.392 551.768C346.66 549.549 343.138 545.986 344.209 543.844C344.084 543.719 344.019 543.556 343.927 543.412C345.1 541.872 345.537 539.229 346.274 537.385C347.763 533.663 351.478 529.552 354.198 526.833C356.328 524.703 359.332 524.062 361.52 522.421C362.071 522.008 362.207 521.489 362.365 520.994ZM374.438 547.956C370.631 548.499 364.036 554.242 361.821 557.344C361.55 557.722 362.02 558.805 362.121 559.109C362.558 560.418 366.251 572.287 366.815 572.308C371.799 572.496 376.781 572.585 381.761 572.308C382.175 572.285 382.384 571.75 382.643 571.426C382.979 571.005 387.092 557.443 387.055 557.344C386.493 555.846 376.556 547.654 374.438 547.956ZM362.985 624.824C357.933 625.557 360.873 630.18 365.05 629.8C370.543 629.3 366.148 624.365 362.985 624.824ZM385.534 630.363C384.952 630.295 384.427 630.307 384.107 630.382C378.974 631.589 382.504 635.376 386.454 635.376C387.356 635.376 388.117 634.418 388.52 633.611C389.578 631.495 387.282 630.567 385.534 630.363Z" fill="#FFFFFF" fill-rule="nonzero" opacity="1" stroke="none"/>
</g>
</svg>
