<?xml version="1.0" encoding="UTF-8" standalone="no"?>
<!DOCTYPE svg PUBLIC "-//W3C//DTD SVG 1.1//EN" "http://www.w3.org/Graphics/SVG/1.1/DTD/svg11.dtd">
<!-- Created with Vectornator (http://vectornator.io/) -->
<svg height="100%" stroke-miterlimit="10" style="fill-rule:nonzero;clip-rule:evenodd;stroke-linecap:round;stroke-linejoin:round;" version="1.1" viewBox="0 0 750 1000" width="100%" xml:space="preserve" xmlns="http://www.w3.org/2000/svg" xmlns:vectornator="http://vectornator.io" xmlns:xlink="http://www.w3.org/1999/xlink">
<defs/>
<g id="Layer-1" vectornator:layerName="Layer 1">
<path d="" fill="none" opacity="1" stroke="#002f87" stroke-linecap="butt" stroke-linejoin="miter" stroke-width="1"/>
<path d="M331.719 200C331.443 200.002 331.401 200.583 331.125 200.594C326.344 200.781 321.566 200.503 316.781 200.594C302.641 200.861 288.13 202.247 274 203.531C226.691 207.832 179.449 214.263 133.375 225.781C119.461 229.26 105.85 233.561 92.0625 237.5C90.3458 237.99 78.9516 241.708 78.5938 242.781C77.6646 245.569 78.2379 250.057 78 253.031C77.4417 260.009 76.3058 267.817 76.25 274.406C76.0563 297.257 76.0564 320.118 76.25 342.969C76.3393 353.501 78.094 365.722 79.1875 376.656C82.5004 409.785 87.8729 443.039 97.0312 475.094C121.52 560.806 163.417 635.511 227.125 699.219C242.893 714.986 260.271 728.638 277.812 742.281C299.276 758.975 323.807 773.794 347.531 785.656C354.24 789.011 360.926 791.668 367.469 795.594C369.28 796.68 373.054 799.125 375.375 799.125C377.367 799.125 380.627 796.484 382.406 795.594C388.183 792.706 393.697 790.386 399.094 787.688C402.045 786.212 404.881 783.916 407.875 782.719C416.714 779.183 425.41 772.917 433.969 767.781C457.702 753.541 480.031 736.871 501.062 718.844C608.585 626.682 661.538 498.507 671.844 359.375C674.115 328.712 674.96 298.754 672.719 267.375C672.214 260.31 673.944 249.517 671.25 242.781C670.791 241.633 659.101 238.138 657.188 237.5C643.984 233.099 630.545 229.433 617.062 226.062C571.623 214.703 525.151 208.537 478.5 204.094C458.902 202.227 438.388 200.129 419.031 200C389.93 199.806 360.82 199.806 331.719 200ZM359.531 206.438C380.14 206.011 400.779 206.784 421.375 207.625C484.895 210.218 549.191 216.509 610.906 231.938C623.891 235.184 636.933 238.248 649.594 242.469C652.281 243.364 663.281 245.875 664.531 247.75C665.774 249.614 665.264 255.16 665.406 257.438C665.906 265.439 666.281 273.425 666.562 281.438C667.778 316.085 666.094 350.719 662.469 385.156C648.524 517.632 587.994 642.973 481.406 725.875C464.177 739.275 446.53 752.144 427.812 763.375C419.198 768.544 410.753 772.686 402.312 777.75C396.345 781.331 389.811 784.157 383.875 787.125C381.856 788.135 377.998 791.219 375.656 791.219C372.426 791.219 370.126 788.43 367.156 787.688C359.649 785.811 352.227 779.942 344.906 776.281C312.851 760.254 281.905 738.066 254.375 714.469C151.293 626.113 97.7487 504.173 85.625 370.812C83.1997 344.134 82.9113 317.635 83.2812 290.812C83.4121 281.323 83.8806 271.874 84.4375 262.406C84.6338 259.07 83.8102 250.755 85.3125 247.75C86.1859 246.003 98.1463 242.993 100.562 242.188C115.32 237.268 130.587 233.963 145.688 230.188C215.18 212.814 288.11 207.917 359.531 206.438ZM379.125 216.219C326.639 215.803 274.029 219.313 222.438 227.25C188.845 232.418 155.463 238.734 122.812 248.062C115.725 250.088 108.813 252.473 101.719 254.5C100.427 254.869 95.5194 256.008 95.2812 257.438C94.9602 259.364 95.2926 261.328 95.2812 263.281C95.1949 278.125 95 292.968 95 307.812C95 334.817 97.2125 362.169 100.562 388.969C101.615 397.385 102.668 405.791 104.062 414.156C104.609 417.437 104.619 421.656 105.844 424.719C105.905 424.871 106.337 424.92 106.562 425.031C105.068 427.327 107.686 434.803 108.188 437.312C110.411 448.43 113.033 459.415 115.781 470.406C124.712 506.129 138.106 542.76 157.094 574.406C161.778 582.213 166.466 590.027 171.156 597.844C172.282 599.719 173.814 603.282 175.562 604.594C176.318 605.161 181.632 598.356 182.312 597.562C189.659 588.992 197.413 580.868 205.156 572.656C205.963 571.801 206.669 570.863 207.5 570.031C230.782 546.749 256.356 528.404 282.438 508.844C287.046 509.734 298.437 508.312 301.25 511.125C298.506 513.869 295.564 516.218 292.75 519.031C290.347 521.435 279.483 536.325 280.75 540.125C286.726 540.125 293.791 537.662 299.5 536.031C319.754 530.244 341.254 523.871 356.625 508.5C364.476 500.649 367.069 486.696 360.125 477.438C358.551 475.339 357.304 472.512 354.844 471.281C353.452 472.673 355.156 478.285 355.156 479.781C355.156 482.166 353.174 484.669 351.625 486.219C350.506 487.338 343.025 486.268 341.969 486.219C339.431 486.101 336.881 486.078 334.344 485.938C323.998 485.363 313.631 484.747 303.281 484.188C287.067 483.311 270.428 483.644 254.375 480.969C236.264 477.95 220.814 471.074 205.75 461.031C190.989 451.19 177.591 438.311 162.094 430.562C152.571 425.801 140.998 423.709 130.438 423.25C127.606 423.127 124.771 422.938 121.938 422.938C121.85 422.938 115.761 424.074 114.625 422.938C116.604 420.958 123.294 420.816 126.062 420.312C137.368 418.257 149.154 418.117 160.312 420.906C176.034 424.837 188.706 432.255 202.5 440.531C209.682 444.841 218.285 451.938 226.531 454C230.946 455.104 235.767 457.766 240.312 459.281C250.147 462.559 260.447 463.562 270.781 463.688C291.177 463.935 314.427 465.508 335.219 464.562C336.547 464.502 340.678 459.629 342.25 458.406C346.345 455.221 358.309 446.936 363.656 446.688C383.654 445.757 403.701 446.449 423.719 446.688C427.447 446.732 440.407 456.667 443.906 459C444.966 459.707 447.676 462.467 448.906 462.5C469.38 463.046 492.129 463.849 511.594 456.062C520.888 452.345 529.207 446.975 537.969 442.594C541.498 440.829 545.185 437.626 548.812 436.719C555.156 435.133 561.461 431.534 567.844 429.406C577.86 426.067 588.693 424.593 599.188 423.844C607.932 423.219 616.556 423.281 625.281 423.844C626.964 423.952 629.058 423.527 630.25 424.719C628.986 425.983 618.489 425.48 616.781 425.594C609.011 426.112 601.212 427.408 593.625 429.094C576.395 432.923 561.272 441.136 547.344 451.969C536.001 460.791 525.178 471.549 511 475.094C499.472 477.976 486.773 477.931 474.969 478.625C472.627 478.763 470.279 478.772 467.938 478.906C464.565 479.099 465.442 478.465 464.125 479.781C464.613 480.757 469.8 488.775 469.125 489.75C467.572 491.994 465.279 493.515 463.844 495.906C458.764 504.372 460.591 513.465 466.469 520.812C466.664 520.617 466.709 520.355 466.812 520.125C468.052 523.363 471.362 526.108 474.094 529C477.698 532.817 481.333 536.621 484.938 540.438C489.246 545 494.477 549.393 498.125 554.5C498.132 554.509 498.091 554.786 498.094 554.812C495.24 556.244 492.713 558.04 490.781 560.938C490.372 561.551 489.44 564.382 488.75 564.469C483.129 565.171 477.205 565.684 471.75 564.156C469.555 563.542 468.636 560.794 466.781 559.469C463.248 556.945 459.313 556.084 455.062 555.375C450.833 554.67 439.084 566.928 442.75 570.594C447.434 567.081 451.575 563.919 456.812 569.156C457.411 569.754 458.386 571.182 458.562 572.062C459.47 576.6 451.22 583.393 448.594 584.969C446.796 586.047 444.572 587 442.469 587C441.16 587 434.764 583.106 432.781 582.312C426.283 579.713 419.396 577.344 412.281 577.344C400.078 577.344 390.319 587.189 377.406 583.5C360.388 578.638 356.312 560.568 356.312 545.406C356.312 541.992 359.306 537.103 358.094 534.094C357.645 533.766 357.515 533.702 356.625 532.812C344.665 544.887 336.778 560.274 343.719 577.625C345.983 583.286 349.762 588.016 353.406 592.875C347.59 600.146 336.633 607.867 330.25 614.25C310.566 633.934 296.227 659.59 286 685.156C283.494 691.422 281.42 697.772 279.281 704.188C278.846 705.493 277.616 708.093 277.812 709.469C277.888 709.999 286.663 716.014 287.781 716.812C297.117 723.481 306.64 729.947 316.469 735.844C330.271 744.125 344.275 751.583 358.094 759.875C360.797 761.497 372.245 768.656 374.781 768.656C376.007 768.656 377.7 767.181 378.875 766.594C384.389 763.837 389.618 760.078 395.281 757.812C401.787 755.21 408.487 750.651 414.625 746.969C429.076 738.298 443.221 729.333 457.281 719.969C457.318 719.977 457.37 720.024 457.406 720.031C457.528 720.056 469.978 710.946 471.156 710.062C485.983 698.942 500.419 687.325 513.938 674.625C562.99 628.546 601.147 571.809 622.344 508.219C629.163 487.76 635.386 467.008 639.625 445.812C640.28 442.538 644.07 428.459 642.438 425.812C642.664 425.758 643.701 425.63 643.719 425.594C644.63 423.771 644.534 420.016 644.906 417.969C646.353 410.01 647.337 401.956 648.406 393.938C652.189 365.571 654.264 336.705 654.562 308.094C654.717 293.25 654.844 278.407 654.844 263.562C654.844 261.509 654.965 259.451 654.562 257.438C654.201 255.628 647.345 254.532 645.781 253.906C635.82 249.922 624.862 247.419 614.438 244.812C568.002 233.204 521.005 225.645 473.219 221.094C442.061 218.126 410.616 216.468 379.125 216.219ZM372.719 246.469C376.924 246.557 381.114 246.78 385.312 246.875C385.589 246.881 385.827 247.204 385.906 247.469C387.235 251.897 386.89 257.517 387.375 262.125C389.357 280.957 391.142 299.803 392.938 318.656C394.073 330.575 395.334 342.489 396.469 354.406C396.62 355.997 398.141 366.342 396.75 366.406C390.995 366.674 385.195 367.043 379.469 366.406C378.124 366.257 378.501 361.633 378.281 358.781C377.993 355.038 378.417 350.038 377.406 346.5C377.33 346.234 377.119 345.923 376.844 345.906C373.822 345.723 370.772 345.723 367.75 345.906C366.354 345.991 366.978 348.606 366.875 350C366.685 352.571 366.676 365.089 365.688 366.406C364.109 368.511 361.284 367 358.656 367C355.043 367 351.421 367.195 347.812 367C346.896 366.95 348.262 358.196 348.406 356.75C349.705 343.765 350.981 330.773 352.219 317.781C353.837 300.787 355.489 283.8 357.188 266.812C357.527 263.422 357.559 247.152 360.125 246.875C364.3 246.425 368.513 246.38 372.719 246.469ZM412 247.469C416.496 247.487 420.978 247.843 425.469 248.062C427.441 248.159 431.301 246.963 431.312 248.938C431.507 282.433 431.118 315.911 431.312 349.406C431.314 349.682 431.631 349.976 431.906 350C435.021 350.275 438.156 350.207 441.281 350.281C442.469 350.31 444.772 349.688 444.812 350.875C445.001 356.341 445.001 361.816 444.812 367.281C444.803 367.557 444.495 367.868 444.219 367.875C435.362 368.114 426.419 367.206 417.562 367C415.503 366.952 411.416 368.466 411.406 366.406C411.212 326.954 411.212 287.515 411.406 248.062C411.408 247.786 411.724 247.468 412 247.469ZM312.094 248.344C329.624 248.007 334.656 250.629 334.656 269.156C334.656 296.5 334.53 323.844 334.344 351.188C334.324 354.092 334.168 360.145 331.719 362.594C323.957 370.356 309.352 368.187 299.5 368.75C297.656 368.855 286.882 370.164 286.875 368.75C286.681 329.493 286.681 290.226 286.875 250.969C286.88 249.879 291.154 249.866 291.875 249.812C298.579 249.316 305.372 248.473 312.094 248.344ZM459.156 250.094C463.639 250.443 468.138 250.949 472.625 251.281C475.519 251.496 478.494 251.181 478.5 252.156C478.694 285.359 478.306 318.547 478.5 351.75C478.507 353.02 489.397 353.07 490.781 353.531C491.043 353.619 491.356 353.818 491.375 354.094C491.747 359.551 492.638 365.114 491.688 370.5C491.414 372.051 488.569 371.23 487 371.094C479.966 370.482 472.934 369.955 465.906 369.344C462.646 369.06 458.568 369.594 458.562 368.469C458.368 329.211 458.368 289.945 458.562 250.688C458.564 250.411 458.881 250.072 459.156 250.094ZM520 256.031C524.02 256.307 528.067 257.809 532.094 258.312C534.689 258.637 538.777 258.384 541.188 259.188C542.485 259.62 543.581 275.199 543.812 277.625C545.673 297.161 547.633 316.702 549.688 336.219C550.807 346.858 551.842 357.51 552.906 368.156C553.014 369.231 554.523 377.262 552.906 377.531C548.197 378.316 541.078 375.942 536.219 375.5C535.758 375.458 535.188 375.69 535.031 374.906C534.013 369.816 534.074 363.953 533.875 358.781C533.811 357.111 534.818 354.471 533.281 353.812C531.041 352.853 528.086 353.158 525.656 352.938C521.504 352.56 522.954 369.824 522.438 373.438C522.23 374.891 519.492 373.865 518.031 373.719C514.153 373.331 508.206 373.777 504.562 372.562C502.849 371.991 504.424 367.512 504.562 366.125C505.168 360.073 505.707 353.989 506.312 347.938C508.53 325.766 510.845 303.608 513.062 281.438C513.45 277.56 513.447 256.741 516 256.25C517.328 255.995 518.66 255.939 520 256.031ZM215.125 257.438C233.088 259.357 233.454 268.907 233.562 277.344C233.633 282.812 233.84 288.288 233.562 293.75C233.498 295.015 230.493 294.918 230.344 294.938C225.526 295.58 218.55 294.803 214.219 296.969C209.186 291.936 219.162 277.963 208.969 278.812C208.221 278.875 206.909 280.358 206.906 281.156C206.809 306.156 206.809 331.156 206.906 356.156C206.907 356.375 207.048 356.582 207.188 356.75C208.461 358.278 213.306 358.609 213.344 355.562C213.439 347.848 213.062 340.147 213.344 332.438C213.394 331.068 227.224 330.163 228.875 330.094C230.448 330.028 233.544 329.082 233.562 330.656C233.658 338.762 233.439 346.864 233.281 354.969C232.912 374.005 224.398 374.81 207.781 376.656C202.821 377.207 197.673 377.18 192.844 376.375C186.225 375.272 186.688 362.052 186.688 358.5C186.688 333.5 186.825 308.5 187 283.5C187.036 278.381 187.213 273.462 188.438 268.562C190.808 259.079 207.923 258.038 215.125 257.438ZM172.344 265.031C173.125 265.227 173.492 265.349 173.5 265.625C173.689 271.774 173.689 277.944 173.5 284.094C173.449 285.75 156.584 287.398 156.531 288.781C156.25 296.198 156.531 303.609 156.531 311.031C160.228 312.263 170.128 307.002 172.938 308.406C173.185 308.53 173.491 308.724 173.5 309C173.689 315.052 173.689 321.105 173.5 327.156C173.491 327.432 173.185 327.626 172.938 327.75C168.326 330.056 161.899 329.054 157.094 330.656C156.832 330.744 156.534 330.974 156.531 331.25C156.338 348.534 156.819 365.811 156.531 383.094C156.508 384.477 152.888 384.393 152.125 384.562C148.358 385.4 140.945 388.292 137.188 387.219C136.922 387.143 136.595 386.901 136.594 386.625C136.399 349.028 136.399 311.441 136.594 273.844C136.602 272.311 143.172 271.762 144.219 271.5C153.446 269.193 162.914 266.603 172.344 265.031ZM574.875 265.031C589.999 264.536 612.961 267.363 613.25 287.312C613.336 293.269 613.439 299.233 613.25 305.188C613.21 306.452 610.777 305.259 610.312 305.188C605.224 304.405 599.074 304.581 594.219 303.125C590.287 301.946 593.876 292.44 593.031 289.062C592.422 286.627 586.594 283.77 586.594 287.906C586.594 293.571 586.692 299.213 586.875 304.875C586.914 306.076 587.462 307.805 588.344 308.688C596.791 317.135 613.25 324.263 613.25 338.281C613.25 349.707 613.152 361.138 612.969 372.562C612.898 377.01 611.072 384 605.344 384C594.267 384 576.19 383.992 568.719 374.031C565.965 370.359 566.421 362.203 566.375 358.5C566.306 352.934 566.097 347.372 566.375 341.812C566.466 339.986 569.383 341.399 570.188 341.5C572.754 341.821 584.551 342.163 586 343.25C586.221 343.416 586.585 343.568 586.594 343.844C586.783 349.7 586.499 355.579 586.594 361.438C586.641 364.362 593.344 365.478 593.344 362.312C593.344 354.595 594.622 346.643 592.75 339.156C591.401 333.759 578.811 326.967 574.594 322.75C564.095 312.251 566.355 299.452 566.688 284.969C566.854 277.733 565.413 265.341 574.875 265.031ZM335.219 400.406C365.911 401.24 370.969 402.974 370.969 408.312C370.969 412.831 372.523 418.423 369.5 421.781C365.921 425.758 360.948 426.141 355.75 426.188C346.375 426.272 336.998 426.379 327.625 426.188C327.349 426.182 327.062 425.868 327.031 425.594C326.824 423.727 326.029 420.104 327.906 420.031C337.665 419.652 347.422 419.814 357.188 419.719C359.363 419.697 360.52 416.895 358.969 415.344C357.427 416.115 355.733 416.812 353.969 416.812C348.109 416.812 342.264 416.677 336.406 416.5C334.841 416.453 331.3 416.214 329.969 415.031C323.368 409.164 327.875 401.324 335.219 400.406ZM390.312 400.406C406.695 400.406 421.5 400.406 421.5 400.406L421.375 406.25C421.375 406.25 402.409 406.34 392.938 406.531C390.711 406.576 390.594 408.61 390.594 410.344C392.116 410.851 392.888 409.781 394.406 409.781C401.438 409.781 408.47 409.882 415.5 410.062C423.749 410.274 426.669 422.538 418.438 425.281C416.535 425.915 413.934 426.188 412 426.188C404.75 426.188 396.019 426.457 388.25 425.594C384.658 425.195 379.188 423.44 379.188 418.844C379.187 407.219 378.181 401.619 390.312 400.406ZM377.125 645.312C379.015 647.203 378.69 660.228 378.875 663.188C379.08 666.467 378.624 671.071 379.75 671.094C389.416 671.285 399.084 670.902 408.75 671.094C409.026 671.099 409.148 671.492 409.344 671.688C402.727 676.65 394.756 680.303 387.656 684.562C385.879 685.629 381.196 687.26 380.344 689.25C380.222 689.534 380.593 689.818 380.625 690.125C381.198 695.566 381.393 701.076 381.812 706.531C381.986 708.792 383.551 714.56 381.531 715.906C375.122 711.1 369.415 704.063 362.469 700.094C361.086 699.304 356.658 702.893 355.438 703.625C348.373 707.864 341.073 712.557 333.75 716.219C332.701 714.646 334.887 712.198 335.812 710.656C338.804 705.67 341.994 700.607 344.594 695.406C344.989 694.615 348.621 689.52 348.125 688.969C342.348 682.549 334.615 677.802 328.5 671.688C328.695 671.492 328.786 671.099 329.062 671.094C339.022 670.902 349.012 671.381 358.969 671.094C359.695 671.073 362.269 666.248 362.781 665.531C367.426 659.029 371.481 650.957 377.125 645.312ZM358.094 534.094C358.262 534.217 358.246 534.255 358.656 534.562C359.69 533.529 360.041 531.824 360.719 530.469C360.426 530.176 360.418 530.168 360.125 529.875C358.997 530.439 357.88 531.705 356.938 532.562C357.541 532.975 357.86 533.515 358.094 534.094ZM307.406 270.312C307.113 270.605 306.536 270.773 306.531 271.188C306.242 297.651 306.337 324.13 306.531 350.594C306.533 350.87 306.898 350.992 307.094 351.188C309.802 349.833 314.982 352.344 315 347.656C315.096 323.242 315.313 298.821 315.312 274.406C315.312 272.1 314.801 271.848 307.406 270.312ZM372.156 281.75C371.345 281.311 370.624 297.703 370.375 300.188C369.936 304.577 369.637 308.984 369.219 313.375C368.807 317.699 367.273 323.143 367.75 327.438C367.897 328.758 376.629 328.336 376.844 327.156C377.506 323.514 376.284 319.075 375.938 315.438C375.212 307.824 374.599 300.209 373.906 292.594C373.63 289.558 374.88 283.224 372.156 281.75ZM528.594 293.469C525.878 293.822 526.899 307.662 526.531 311.344C526.131 315.346 525.739 319.337 525.375 323.344C525.095 326.423 523.7 331.261 524.188 334.188C524.445 335.73 532.931 335.939 533.281 335.062C534.237 332.673 532.635 326.854 532.406 324.219C531.769 316.892 531.01 309.576 530.344 302.25C530.144 300.056 531.114 293.141 528.594 293.469ZM349 405.438C346.165 405.383 343.32 405.391 340.5 405.656C338.158 405.877 335.758 410.445 339.625 411.219C345.189 412.332 351.302 412.393 356.906 411.531C360.297 411.01 361.567 405.724 357.5 405.656C354.668 405.609 351.835 405.492 349 405.438ZM401.281 414.688C398.496 414.57 395.712 414.525 392.938 414.75C389.605 415.02 389.066 418.373 391.781 420.312C391.94 420.426 392.148 420.309 392.344 420.312C398.106 420.407 403.894 420.594 409.656 420.594C413.14 420.594 413.254 415.091 409.656 415.031C406.873 414.985 404.067 414.805 401.281 414.688ZM422.25 453.125C418.385 455.057 415.458 460.589 418.438 464.562C419.632 466.156 422.229 467.415 422.531 469.531C423.279 474.763 416.871 473.338 414.906 470.719C405.143 480.482 427.801 487.106 432.781 491.5C435.917 494.267 436.748 497.529 439.219 500C440.511 499.138 441.107 494.606 441.875 492.688C443.18 489.426 444.995 486.606 445.375 483C446.929 468.238 432.25 466.063 424 457.812C422.603 456.416 423.588 454.463 422.25 453.125ZM396.156 493.844C392.18 494.506 383.867 504.636 381.531 507.906C381.038 508.597 378.792 511.522 379.188 512.312C379.311 512.56 379.474 512.895 379.75 512.906C384.531 513.094 389.341 512.826 394.125 512.906C402.182 513.041 426.897 516.365 433.375 522.844C433.814 522.551 433.811 522.574 434.25 522.281C427.732 509.245 417.918 501.68 404.969 496.5C403.014 495.718 398.204 493.502 396.156 493.844Z" fill="#FFFFFF" fill-rule="nonzero" opacity="1" stroke="none"/>
</g>
</svg>
