<?xml version="1.0" encoding="UTF-8" standalone="no"?>
<!DOCTYPE svg PUBLIC "-//W3C//DTD SVG 1.1//EN" "http://www.w3.org/Graphics/SVG/1.1/DTD/svg11.dtd">
<!-- Created with Vectornator (http://vectornator.io/) -->
<svg height="100%" stroke-miterlimit="10" style="fill-rule:nonzero;clip-rule:evenodd;stroke-linecap:round;stroke-linejoin:round;" version="1.1" viewBox="0 0 750 1000" width="100%" xml:space="preserve" xmlns="http://www.w3.org/2000/svg" xmlns:vectornator="http://vectornator.io" xmlns:xlink="http://www.w3.org/1999/xlink">
<defs/>
<g id="Layer-1" vectornator:layerName="Layer 1">
<path d="" fill="none" opacity="1" stroke="#002f87" stroke-linecap="butt" stroke-linejoin="miter" stroke-width="1"/>
<path d="M375.562 106.5C253.021 106.283 115.768 115.214 84.9062 132.562C84.4248 140.798 86.785 210.258 85.7188 241.281C85.5917 244.979 69.6189 233.578 66.3125 231.594C52.5966 223.364 40.9097 211.007 33.75 196.688C30.9391 191.066 28.1456 177.896 24.4375 174.188C20.8659 177.045 17.3502 183.099 16.2812 187.375C15.105 192.08 11.8494 196.955 10.0938 201.344C5.04877 213.956 2.82284 230.731 2.3125 244C2.10164 249.482 2.35185 255.559 2.71875 261.062C3.25612 269.123 5.1666 276.989 7.375 284.719C9.93817 293.69 14.2538 302.027 19 309.938C21.1518 313.524 26.0263 317.643 25.5938 321.969C24.8826 329.08 22.2958 336.172 21.3438 343.312C18.3611 365.682 18.2064 388.597 24.4375 410.406C27.9597 422.734 33.3872 433.989 39.9375 444.906C41.6288 447.725 50.0312 457.712 50.0312 460.062C50.0312 471.821 47.6706 483.692 48.5 495.719C51.3415 536.921 70.9455 571.727 99.6875 600.469C107.112 607.893 116.703 614.078 125.688 619.469C129.832 621.956 135.475 623.444 138.875 626.844C141.118 629.086 142.656 636.123 143.906 639.25C147.729 648.807 152.569 657.733 157.094 666.781C158.478 669.549 159.298 673.366 161.344 676.094C164.784 680.681 166.177 687.195 169.5 691.625C175.687 699.875 180.36 710.12 185.781 719.156C199.133 741.409 216.159 762.018 233.125 781.594C243.292 793.325 253.934 804.746 264.906 815.719C287.848 838.661 314.066 861.746 342.094 878.562C351.536 884.228 362.814 893.776 373.906 895.625C379.102 896.491 396.996 883.815 401.844 880.906C430.333 863.813 456.847 841.476 480.594 818.438C488.73 810.544 496.923 802.725 504.625 794.406C515.84 782.294 526.676 769.813 536.812 756.781C550.064 739.744 561.835 722.077 572.906 703.625C578.855 693.71 583.225 683.312 589.188 673.375C595.825 662.312 601.425 648.593 606.25 636.531C607.321 633.854 608.249 629.407 610.125 627.219C612.283 624.701 615.545 623.93 618.281 622.562C627.754 617.826 637.365 610.393 645.438 603.562C666.583 585.67 680.749 564.347 690.812 539.188C698.84 519.118 700.906 496.929 700.906 475.562C700.906 470.233 699.344 464.951 699.344 459.656C699.344 457.434 711.963 441.042 714.094 436.781C722.439 420.091 727.966 401.666 729.219 382.875C730.181 368.439 729.854 354.473 727.656 340.188C727.067 336.36 722.663 322.6 723.406 319.625C724.233 316.32 729.599 311.22 731.531 308C735.925 300.677 739.279 292.554 741.625 284.344C751.316 250.425 748.269 203.351 724.938 174.188C722.292 176.171 721.626 182.451 720.281 185.812C717.496 192.775 714.325 199.059 710.219 205.219C697.34 224.538 681.926 231.959 663.281 241.281C663.023 241.023 662.505 240.866 662.5 240.5C662.245 221.108 662.429 201.706 662.5 182.312C662.559 166.28 662.875 150.252 662.875 134.219C662.875 133.624 662.333 132.527 661.719 132.281C656.874 130.343 650.198 130.221 645.031 129.188C634.002 126.982 622.86 124.865 611.688 123.375C570.728 117.914 530.018 112.446 488.719 109.781C455.629 107.646 416.41 106.572 375.562 106.5ZM343.656 116C401.141 116 458.975 116.603 516.281 121.812C551.43 125.008 586.131 129.644 621 134.625C628.898 135.753 636.822 137.308 644.656 138.875C645.798 139.103 652.015 139.592 652.031 141.219C652.415 179.358 652.031 217.484 652.031 255.625C655.867 256.904 662.681 253.634 666.375 252.156C680.206 246.624 693.539 240.086 704.375 229.25C708.186 225.439 711.834 221.425 715.25 217.25C719.23 212.386 721.954 204.702 726.094 200.562C730.917 205.386 732.274 218.023 733.469 224.594C738.129 250.226 733.767 272.958 724.562 295.969C722.302 301.621 718.237 307.238 714.875 312.281C714.076 313.479 711.15 316.42 710.969 317.688C710.422 321.514 715.644 334.081 716.406 338.656C718.896 353.594 718.857 368.527 717.969 383.625C716.975 400.524 710.808 419.487 702.062 434.062C698.78 439.533 695.693 445.13 691.969 450.344C690.966 451.748 686.938 455.75 686.938 457.344C686.937 465.267 689.25 473.316 689.25 481.375C689.25 498.862 686.501 517.716 679.938 534.125C669.899 559.22 655.162 580.632 633.781 598.125C627.218 603.495 619.662 609.856 612.062 613.656C609.077 615.149 602.449 617.161 600.438 619.844C597.475 623.794 596.056 630.375 594.219 634.969C589.114 647.731 583.445 661.591 576.375 673.375C558.348 703.42 541.884 732.418 518.969 759.5C509.817 770.316 500.682 781.256 490.656 791.281C483.351 798.587 475.969 805.828 468.562 813.031C446.623 834.369 421.928 854.656 395.625 870.438C392.714 872.184 375.556 883.35 373.531 882.844C364.093 880.484 354.243 871.477 346 866.531C321.601 851.892 298.464 831.807 278.5 811.844C267.047 800.391 255.883 788.666 245.125 776.562C227.036 756.212 208.772 734.828 194.719 711.406C189.733 703.097 183.9 694.801 179.594 686.188C177.719 682.437 175.969 677.99 173.375 674.531C170.602 670.834 167.502 664.197 166.406 659.812C164.304 651.405 157.676 642.471 154.375 634.219C152.958 630.676 151.506 622.819 148.938 620.25C145.474 616.786 139.611 615.042 135.375 612.5C126.563 607.213 118.19 601.143 110.531 594.25C83.6801 570.084 60.125 530.812 60.125 493.406C60.125 486.811 60.2839 480.217 60.5 473.625C60.6729 468.352 62.9375 462.188 62.0625 456.938C61.4852 453.474 55.9299 447.942 53.9062 444.906C48.4945 436.789 43.5204 428.27 39.9375 419.312C26.804 386.479 30.0022 352.491 38.4062 318.875C38.8503 317.099 35.8265 314.037 34.9062 312.656C31.211 307.113 26.5284 300.977 24.0625 294.812C14.8974 271.9 11.6527 250.896 15.9062 225.375C16.6312 221.025 19.7602 202.91 23.2812 200.562C24.057 201.338 24.0367 201.349 24.8125 202.125C23.4331 204.884 35.5375 219.788 37.25 221.5C40.4183 224.668 43.6747 227.742 46.9375 230.812C57.397 240.657 70.262 247.274 83.4062 252.531C86.1705 253.637 94.2592 257.761 96.9688 256.406C97.2958 256.243 97.7475 255.991 97.75 255.625C98.0068 218.002 98.0068 180.373 97.75 142.75C97.7394 141.201 95.4618 141.838 98.125 140.062C102.756 136.975 118.545 136.191 124.5 135C146.379 130.624 168.714 128.454 190.844 125.688C241.232 119.389 292.878 116 343.656 116ZM397.562 139.25C393.385 139.097 389.778 139.712 389.812 142.75C389.939 153.999 390.345 165.252 390.219 176.5C390.215 176.866 389.696 177.023 389.438 177.281C384.164 172.008 379.92 155.935 376.25 148.594C375.49 147.074 373.427 140.225 371.594 140.062C366.314 139.593 360.976 139.702 355.688 140.062C355.14 140.1 354.537 140.67 354.531 141.219C354.147 177.807 354.274 214.38 354.531 250.969C354.534 251.334 354.916 251.734 355.281 251.75C361.094 251.997 366.937 251.997 372.75 251.75C373.115 251.734 373.527 251.334 373.531 250.969C373.787 226.922 373.275 202.891 373.531 178.844C373.535 178.478 374.054 178.321 374.312 178.062C377.63 181.38 385.162 197.117 386.312 201.719C386.939 204.226 390.569 206.739 390.594 209.469C390.721 223.302 390.34 237.137 390.594 250.969C390.6 251.334 391.01 251.734 391.375 251.75C397.188 251.997 403 251.997 408.812 251.75C409.178 251.734 409.591 251.334 409.594 250.969C409.851 214.38 409.85 177.808 409.594 141.219C409.591 140.853 409.178 140.453 408.812 140.438C406.482 140.34 401.74 139.403 397.562 139.25ZM324.375 140.031C321.236 140.045 318.445 140.518 318.438 142.375C318.309 173.664 318.191 204.961 318.062 236.25C318.04 241.815 313.497 242.063 308.75 242.062C306.048 242.062 304.509 239.338 304.5 237.031C304.373 205.484 304.478 173.92 304.094 142.375C304.089 142.009 303.676 141.63 303.312 141.594C298.149 141.077 291.037 141.343 285.875 142.375C285.516 142.447 285.097 142.791 285.094 143.156C284.837 174.961 284.967 206.757 285.094 238.562C285.115 243.861 290.587 250.506 295.562 251.75C307.746 254.796 337.308 255.974 337.469 235.844C337.721 204.297 337.972 172.766 337.844 141.219C337.836 139.39 334.234 140.403 332.406 140.438C331.005 140.464 327.514 140.017 324.375 140.031ZM429 140.812C428.055 140.826 427.844 142.509 427.844 143.531C427.844 179.604 427.834 215.679 428.219 251.75C428.223 252.116 428.639 252.471 429 252.531C434.12 253.385 440.515 253.682 445.688 253.312C446.264 253.271 447.211 253.109 447.219 252.531C447.732 215.816 447.476 179.093 447.219 142.375C447.216 142.009 446.8 141.639 446.438 141.594C440.732 140.881 434.802 140.731 429 140.812ZM459.25 142.375C457.242 142.468 452.374 153.484 454.219 154.406C455.913 155.253 473.198 153.269 473.219 155.938C473.475 188.648 472.962 221.384 473.219 254.094C473.222 254.459 473.636 254.835 474 254.875C478.077 255.328 487.606 256.67 491.438 256.031C491.798 255.971 492.216 255.616 492.219 255.25C492.475 222.54 491.962 189.835 492.219 157.125C492.233 155.35 508.341 157.796 508.906 154.781C508.941 154.597 510.656 147.014 510.438 146.25C510.083 145.009 496.986 144.781 495.312 144.719C483.299 144.274 471.26 141.819 459.25 142.375ZM230 145.094C218.473 145.094 206.094 153.358 205.969 165.656C205.721 190.092 205.562 214.532 205.562 238.969C205.562 242.115 206.087 247.069 208.281 249.812C210.468 252.546 213.446 256.619 217.219 257.562C227.011 260.011 248.918 259.955 254.062 247.094C254.641 245.648 255.585 243.277 255.625 241.688C255.87 231.993 256.126 222.291 256 212.594C255.995 212.228 255.477 212.071 255.219 211.812C253.133 212.855 237.085 218.302 237 219.938C236.633 227.039 237.123 234.171 237 241.281C236.917 246.09 231.577 246.719 228.062 246.719C225.909 246.719 224.984 243.685 224.969 242.062C224.715 215.3 224.594 188.545 224.594 161.781C224.594 160.471 225.989 158.64 226.906 157.906C229.55 155.791 235.605 155.887 236.594 159.844C238.538 167.622 236.613 175.867 237 183.875C237.018 184.24 237.523 184.398 237.781 184.656C240.081 183.506 255.509 177.738 255.625 176.5C256.455 167.645 257.415 156.603 250.562 149.75C245.893 145.08 235.643 145.094 230 145.094ZM519.375 146.25C518.038 147.587 518.214 146.868 518.219 148.188C518.347 184.519 518.209 220.858 518.594 257.188C518.598 257.553 519.02 257.88 519.375 257.969C529.418 260.48 541.215 259.845 551.562 261.062C553.922 261.34 557.202 262.641 559.312 262.219C559.671 262.147 560.071 261.834 560.094 261.469C560.336 257.598 560.445 253.675 560.094 249.812C559.908 247.764 537.628 247.644 537.594 245.938C537.34 233.269 537.34 220.606 537.594 207.938C537.636 205.829 547.574 208.043 548.469 207.938C551.819 207.543 554.834 198.27 556.219 195.5C554.074 193.355 537.652 194.393 537.594 192.031C537.342 181.82 537.342 171.586 537.594 161.375C537.664 158.549 557.22 163.623 557.375 161.375C557.615 157.892 557.722 154.38 557.375 150.906C557.155 148.703 551.648 149.538 550 149.344C540.602 148.238 531.14 147.364 519.375 146.25ZM570.969 151.688C569.866 151.502 569.781 153.574 569.781 154.781C569.781 190.854 569.802 226.929 570.188 263C570.198 263.966 582.138 265.075 583.75 265.344C594.981 267.216 610.037 272.432 619.062 263.406C620.765 261.704 621.76 258.303 621.781 256.031C622.034 229.139 622.156 202.237 622.156 175.344C622.156 170.929 620.966 167.074 618.281 163.719C610.494 153.985 592.615 154.847 581.438 153.25C578.347 152.808 574.039 152.204 570.969 151.688ZM588.406 165.25C592.595 165.364 603.501 164.847 603.531 171.469C603.658 198.879 603.659 226.278 603.531 253.688C603.509 258.515 587.636 254.53 587.625 253.312C587.369 224.223 587.369 195.121 587.625 166.031C587.628 165.666 588.041 165.24 588.406 165.25ZM157.875 153.625C149.454 153.626 140.951 155.617 132.656 157.125C131.598 157.317 126.45 157.323 126.438 159.062C126.181 194.746 126.564 230.409 126.438 266.094C126.431 267.836 125.182 268.2 127.219 269.219C130.366 270.792 139.16 267.704 142.75 267.281C155.454 265.787 178.254 265.234 178.438 247.094C178.687 222.4 178.812 197.727 178.812 173.031C178.812 158.646 170.835 153.624 157.875 153.625ZM155.156 164.5C157.087 164.489 160.175 165.17 160.188 167.969C160.315 195.637 160.316 223.3 160.188 250.969C160.166 255.588 145.228 257.143 144.281 255.25C143.607 253.902 145.057 254.938 145.062 253.688C145.191 225.502 144.944 197.31 144.688 169.125C144.644 164.294 151.104 164.524 155.156 164.5ZM30.25 232.75C28.9434 234.057 29.1654 237.732 29.0938 239.344C28.8927 243.866 28.6875 248.379 28.6875 252.906C28.6875 264.555 33.6303 277.136 38.7812 287.438C51.9599 313.795 74.1106 335.535 99.3125 350.656C117.627 361.645 137.409 370.43 154.375 383.625C167.274 393.658 176.768 406.085 178.812 422.438C179.287 426.23 181.401 432.661 178.438 435.625C174.434 431.622 172.093 425.306 168.344 420.875C160.997 412.193 152.573 404.674 143.125 398.375C116.69 380.752 86.2196 370.938 63.2188 347.938C58.129 342.848 55.3308 337.262 51.5938 331.656C49.1576 333.28 49.0004 341.06 48.5 344.062C46.1939 357.899 46.1963 372.146 48.5 385.969C53.5756 416.423 70.4876 441.973 95.8125 460.062C118.203 476.055 142.943 486.004 165.25 501.938C168.635 504.355 172.281 506.852 175.312 509.688C178.852 512.998 182.354 516.354 185.781 519.781C189.652 523.652 204.096 546.467 198.969 551.594C189.111 541.736 179.782 528.388 166 522.875C158.871 520.023 151.733 513.386 144.688 511.625C140.294 510.527 136.658 506.532 132.281 505.438C128.652 504.53 124.575 501.751 121.031 499.625C106.248 490.755 89.6809 481.887 79.125 467.812C76.0948 469.833 76.9759 477.325 76.8125 480.594C76.2247 492.35 77.0567 503.727 79.9062 515.125C89.2804 552.622 114.896 581.894 147.781 601.625C155.425 606.211 165.694 611.238 174.531 612.5C177.664 612.947 172.775 612.097 176.094 612.094C308.231 611.965 440.363 611.965 572.5 612.094C573.756 612.095 574.424 612.697 576 612.5C585.81 611.274 596.798 604.29 605.094 599.312C636.24 580.625 661.88 550.036 669.094 513.969C671.349 502.694 672.594 491.838 672.594 480.219C672.594 478.675 672.424 468.696 670.656 467.812C669.044 467.006 663.516 474.922 662.875 475.562C657.236 481.201 650.494 485.9 643.875 490.312C614.624 509.813 570.459 520.905 550 551.594C544.447 546.041 559.286 524.309 563.188 520.156C566.506 516.624 569.854 513.114 573.281 509.688C574.452 508.517 575.849 507.61 577.156 506.594C580.802 503.758 584.564 500.999 588.406 498.438C617.843 478.813 649.347 466.215 674.906 440.656C691.062 424.5 698.685 400.284 701.281 378.219C702.233 370.125 702.063 361.931 702.062 353.781C702.062 349.107 701.412 335.287 697.781 331.656C694.565 333.8 692.357 340.12 689.656 343.312C684.078 349.906 677.919 355.584 671.031 360.75C648.429 377.701 621.541 386.093 599.281 403.406C591.453 409.495 584.038 416.126 577.938 423.969C575.226 427.455 573.453 433.11 570.562 436C567.99 433.428 569.576 423.864 570.188 420.5C572.885 405.664 582.471 392.762 594.219 383.625C607.294 373.455 622.531 365.219 636.906 358.031C655.768 348.6 673.27 334.449 688.094 319.625C695.85 311.868 707.435 298.197 710.219 287.062C711.621 281.452 715.187 276.063 716.812 270.375C719.852 259.737 720.281 249.368 720.281 238.188C720.281 236.441 720.017 234.017 718.75 232.75C713.498 238.002 709.754 244.059 703.625 248.656C686.678 261.366 666.403 266.866 646.594 273.469C623.251 281.25 598.747 286.524 574.844 292.5C550.903 298.485 511.238 308.462 495.312 328.938C485.568 341.466 489.115 358.376 493.781 372.375C505.538 407.644 541.518 464.507 493.781 488.375C487.758 491.386 479.513 493.319 472.812 493.781C461.358 494.571 449.999 494.764 438.688 492.25C427.155 489.687 414.264 483.364 409.594 471.688C404.95 460.079 405.315 438.421 421.25 434.438C427.3 432.925 435.26 431.381 441.031 434.844C443.626 436.401 446.244 438.526 448.375 440.656C449.508 441.789 449.368 444.637 450.719 445.312C450.95 445.428 451.249 445.375 451.5 445.312C456.376 444.093 462.266 435.905 463.5 430.969C467.565 414.708 467.942 399.358 449.938 392.156C442.661 389.246 432.513 389.234 425.125 390.219C422.525 390.565 419.115 392.247 416.594 391.406C418.008 388.578 416.743 385.549 415.406 382.875C409.464 370.99 394.416 369.687 382.844 369.688C380.374 369.688 377.929 370.214 375.469 370.438C371.959 370.757 368.515 371.305 365 371.625C360.615 372.024 356.208 372.109 351.812 372.375C345.959 372.73 340.196 372.509 334.344 372C332.13 371.808 308.895 367.605 308.375 368.125C317.234 376.984 320.198 395.704 311.844 405.344C307.484 410.374 303.441 411.998 298.281 415.438C302.093 419.249 308.793 420.887 313.031 425.125C319.275 431.369 321.562 442.374 321.562 450.75C321.562 486.446 272.034 508.571 245.125 485.25C214.138 458.394 241.953 404.774 254.438 373.562C260.263 358.999 263.86 340.337 252.5 327.781C237.883 311.626 218.451 307.637 198.969 299.844C185.098 294.296 169.649 291.467 155.156 287.844C127.672 280.973 99.973 274.295 73.6875 263.781C56.879 257.058 41.2582 247.428 30.25 232.75ZM325.438 380.156C337.368 386.121 354.083 384.759 366.156 383.25C376.074 382.01 387.155 379.012 396.812 382.875C401.759 384.853 407.281 392.344 407.281 398C407.281 400.202 406.099 403.037 407.656 404.594C418.723 399.061 437.346 397.42 448 403.812C455.843 408.518 459.966 424.794 451.875 430.188C431.348 411.371 393.688 425.268 393.688 454.625C393.687 461.783 394.72 470.221 397.969 476.719C399.801 480.384 402.225 483.165 404.562 486.438C404.713 486.648 404.678 486.956 404.562 487.188C403.553 489.207 398.467 485.426 396.812 484.875C390.938 482.917 382.792 480.262 377.031 483.719C372.07 486.695 370.438 493.907 370.438 499.219C370.437 503.096 373.562 508.922 369.656 510.875C366.984 508.202 366.589 503.326 364.594 500C360.955 493.936 354.428 489.409 347.938 486.812C342.265 484.543 336.042 484.853 330.094 485.25C327.221 485.442 321.042 487.854 318.844 485.656C332.423 469.814 341.619 446.574 329.688 426.688C326.926 422.085 322.578 419.172 318.844 415.438C328.779 407.986 333.786 391.192 324.281 381.688C324.833 380.585 324.457 381.136 325.438 380.156ZM262.594 536.469C266.472 540.347 267.877 549.85 269.188 555.094C269.272 555.433 269.954 556.611 270.344 556.625C277.192 556.874 284.058 556.376 290.906 556.625C291.272 556.638 291.429 557.148 291.688 557.406C289.35 559.159 275.053 568.508 274.625 570.219C274.236 571.775 279.791 588.333 280.812 590.375C280.425 590.763 280.45 590.768 280.062 591.156C277.451 589.415 264.612 578.75 262.594 578.75C259.531 578.75 249.04 589.402 245.531 591.156C243.14 588.765 252.673 573.202 250.969 570.219C247.998 565.019 238.232 561.732 233.906 557.406C234.165 557.148 234.291 556.638 234.656 556.625C241.504 556.376 248.371 556.874 255.219 556.625C256.878 556.565 260.75 538.313 262.594 536.469ZM373.531 536.469C375.733 538.67 380.06 556.558 381.281 556.625C387.994 556.991 394.75 556.376 401.469 556.625C401.834 556.639 401.96 557.148 402.219 557.406C400.333 558.977 385.345 569.276 385.156 570.219C384.352 574.239 393.625 588.125 390.594 591.156C384.905 587.364 379.722 582.239 373.906 578.75C373.209 578.331 357.887 589.738 356.469 591.156C354.15 588.838 363.304 572.124 361.875 570.219C357.956 564.994 349.528 562.122 344.812 557.406C345.071 557.148 345.228 556.639 345.594 556.625C352.312 556.376 359.068 556.991 365.781 556.625C367.947 556.507 371.349 538.651 373.531 536.469ZM482.531 536.844C485.29 538.913 489.277 556.55 490.656 556.625C497.369 556.991 504.125 556.376 510.844 556.625C511.209 556.639 511.366 557.148 511.625 557.406C509.673 559.033 494.736 569.196 494.531 570.219C493.726 574.246 502.916 588.209 499.969 591.156C498.18 589.814 482.874 578.578 482.531 578.75C476.485 581.773 471.899 587.722 465.844 590.75C463.791 588.697 472.499 571.843 471.281 570.219C467.384 565.022 458.918 562.106 454.219 557.406C454.477 557.148 454.603 556.639 454.969 556.625C461.687 556.376 468.443 556.991 475.156 556.625C477.411 556.502 480.499 538.876 482.531 536.844ZM266.469 241.688C257.427 243.07 261.728 257.192 270.344 255.625C278.3 254.178 276.594 240.14 266.469 241.688ZM189.688 247.875C180.317 249.509 182.614 262.219 192 262.219C200.494 262.219 197.793 246.462 189.688 247.875ZM364.406 273.688C327.293 273.759 290.171 275.174 253.281 278.125C236.989 279.428 220.651 280.195 204.406 282C200.22 282.465 190.391 281.672 187.344 284.719C190.013 287.388 205.507 290.148 210.219 291.719C232.978 299.305 266.417 310.328 272.281 336.719C279.315 368.372 255.251 399.779 247.844 429.406C244.978 440.871 240.756 458.102 248.625 468.594C263.079 487.865 289.003 488.714 302.938 467.812C307.464 461.023 308.375 452.013 308.375 444.156C308.375 433.931 297.001 425.094 289.344 420.5C286.2 418.614 281.875 418.031 279.281 415.438C281.389 413.329 285.106 412.541 287.812 411.188C292.99 408.599 298.947 403.649 302.156 399.156C312.132 385.19 295.979 362.819 287.031 352.594C287.419 352.206 287.425 352.232 287.812 351.844C321.358 368.616 362.644 359.188 398.344 359.188C407.315 359.188 415.968 364.812 422 370.844C423.51 372.354 426.379 381.462 427.844 381.688C437.953 383.243 448.95 379.101 458.469 384.812C479.605 397.494 481.676 422.548 468.562 442.219C465.996 446.068 450.518 461.673 443.344 459.281C443.344 437.393 418.531 439.752 418.531 458.5C418.531 469.812 428.79 476.669 438.312 479.844C455.286 485.501 479.208 486.738 493.781 474.406C505.87 464.178 504.663 446.276 501.125 432.125C493.946 403.409 470.217 367.885 475.156 338.25C479.812 310.313 515.982 299.308 538.75 291.719C543.637 290.09 557.883 287.71 560.875 284.719C558.345 282.189 539.156 282.048 534.5 281.625C514.872 279.841 495.205 278.655 475.531 277.344C438.621 274.883 401.52 273.616 364.406 273.688ZM392.719 401.281C387.118 401.036 367.094 401.531 367.094 401.531C367.094 401.531 373.009 408.237 375.094 410.281C377.179 412.325 379.198 414.575 383.531 414.125C387.865 413.675 391.826 411.748 394.688 410.562C397.549 409.377 405.656 405.75 405.656 405.75C405.656 405.75 398.32 401.527 392.719 401.281ZM577.156 629.156C543.69 639.57 509.977 650.684 477.469 663.688C468.341 667.338 451.458 676.981 449.156 686.188C444.261 705.77 456.066 724.004 467 739.312C473.705 748.699 481.128 758.162 489.5 766.094C490.586 767.122 496.876 759.135 497.25 758.719C501.484 754.014 505.636 749.237 509.688 744.375C527.527 722.967 541.974 699.835 556.219 676.094C563.166 664.515 567.705 652.777 573.688 640.812C574.553 639.082 579.418 628.453 577.156 629.156ZM170.656 629.938C176.618 641.861 181.781 654.905 187.719 666.781C193.573 678.491 201.146 689.639 207.906 700.906C222.348 724.975 241.642 745.445 259.5 766.875C264.672 762.442 268.894 757.078 273.062 751.719C284.125 737.495 295.87 721.13 299.844 703.25C301.31 696.653 303.072 688.575 298.656 682.688C285.522 665.176 259.82 658.556 239.719 652.812C222.412 647.868 204.468 642.075 187.719 635.375C185.081 634.32 171.894 628.699 170.656 629.938ZM309.531 675.312C309.166 675.315 309.009 675.835 308.75 676.094C312.744 684.083 313.238 695.634 312.25 704.031C312.098 705.322 309.376 717.213 310.312 717.219C353.108 717.476 395.892 717.476 438.688 717.219C439.053 717.217 439.409 716.798 439.469 716.438C440.043 712.992 437.05 706.854 436.75 703.25C435.957 693.74 435.918 684.757 440.25 676.094C439.991 675.835 439.835 675.315 439.469 675.312C396.156 675.055 352.844 675.055 309.531 675.312ZM274.875 780.719C274.875 780.719 303.242 808.292 323.594 826.688C343.946 845.083 374.281 863.281 374.281 863.281C374.281 863.281 404.034 842.951 422.625 827.688C441.216 812.423 475.469 781.312 475.469 781.312L274.875 780.719Z" fill="#FFFFFF" fill-rule="nonzero" opacity="1" stroke="none"/>
</g>
</svg>
