<?xml version="1.0" encoding="UTF-8" standalone="no"?>
<!DOCTYPE svg PUBLIC "-//W3C//DTD SVG 1.1//EN" "http://www.w3.org/Graphics/SVG/1.1/DTD/svg11.dtd">
<!-- Created with Vectornator (http://vectornator.io/) -->
<svg height="100%" stroke-miterlimit="10" style="fill-rule:nonzero;clip-rule:evenodd;stroke-linecap:round;stroke-linejoin:round;" version="1.1" viewBox="0 0 750 1000" width="100%" xml:space="preserve" xmlns="http://www.w3.org/2000/svg" xmlns:vectornator="http://vectornator.io" xmlns:xlink="http://www.w3.org/1999/xlink">
<defs/>
<g id="Layer-1" vectornator:layerName="Layer 1">
<path d="" fill="none" opacity="1" stroke="#002f87" stroke-linecap="butt" stroke-linejoin="miter" stroke-width="1"/>
<path d="M375.062 241L368.688 245C368.688 245 357.677 251.969 352.781 254.906C339.128 263.098 325.885 271.544 312.625 279.5C271.93 303.917 232.211 329.461 191.938 353.625C184.526 358.072 176.95 362.582 169.344 367.188C162.827 371.133 156.273 375.151 149.844 379.438C148.877 380.082 137.187 387.469 137.188 387.469L131.625 391L131.625 397.625C131.625 468.743 131.625 610.976 131.625 682.094L131.625 688.625L137.094 692.156C137.209 692.231 147.806 699.115 149.75 700.281L150.188 700.562C162.862 708.162 175.544 715.571 187.344 723.438C204.979 735.194 223.282 745.694 240.875 756.25C268.471 772.808 295.741 790.394 323.781 807.219C335.051 813.981 346.295 820.509 356.688 827.438C359.54 829.339 369.011 834.54 369.219 834.656L375.344 838.094L381.344 834.406C381.344 834.406 393.462 826.973 397.062 824.812C409.112 817.583 420.796 810.147 432.5 803.125C475.266 777.465 517.037 750.59 559.375 725.188C573.347 716.804 586.831 708.127 600.375 700C602.026 699.01 613.149 691.981 613.219 691.938L618.812 688.406L618.812 681.781C618.739 610.736 618.573 468.639 618.5 397.594L618.5 391.125L613.094 387.594C612.957 387.504 602.153 380.361 600.094 379.125L599.406 378.719C586.658 371.054 573.915 362.955 560.812 355.094C517.493 329.102 474.769 301.649 431.031 275.406C419.046 268.215 407.091 260.579 394.719 253.156C391.219 251.057 381.437 244.969 381.438 244.969L375.062 241ZM375.094 255.156C375.094 255.156 384.837 261.221 388.531 263.438C400.709 270.744 412.695 278.411 424.875 285.719C468.403 311.835 511.127 339.289 554.656 365.406C567.81 373.299 580.753 381.514 593.906 389.406C595.263 390.22 606.5 397.625 606.5 397.625L606.812 681.812C606.813 681.813 595.494 688.954 594.219 689.719C580.46 697.974 566.945 706.652 553.188 714.906C510.634 740.438 468.895 767.313 426.344 792.844C414.466 799.97 402.75 807.375 390.875 814.5C387.134 816.744 375.062 824.188 375.062 824.188C375.063 824.188 365.055 818.578 363.344 817.438C352.521 810.222 341.094 803.632 329.938 796.938C302.12 780.247 274.85 762.66 247.031 745.969C229.313 735.338 211.194 724.9 194 713.438C181.651 705.205 168.668 697.638 155.938 690C154.583 689.187 143.625 682.094 143.625 682.094L143.625 397.625C143.625 397.625 155.153 390.304 156.5 389.406C169.985 380.416 184.229 372.275 198.125 363.938C238.61 339.646 278.329 314.102 318.812 289.812C332.27 281.738 345.482 273.261 358.938 265.188C364.089 262.097 375.094 255.156 375.094 255.156ZM376.156 266C375.572 265.91 374.991 265.921 374.469 266.062C368.933 267.564 364.495 272.46 359.531 275.438C347.54 282.632 335.774 290.242 323.781 297.438C283.786 321.434 244.559 346.658 204.562 370.656C191.293 378.618 178.271 387.006 165 394.969C163.631 395.79 152.129 402.485 152.125 403.188C151.542 494.299 151.639 585.419 152.125 676.531C152.129 677.225 163.275 683.852 164.719 684.719C177.2 692.207 189.427 700.106 201.906 707.594C244.459 733.126 286.23 759.969 328.781 785.5C340.17 792.333 351.363 799.48 362.75 806.312C364.887 807.595 372.843 813.625 374.781 813.625C376.954 813.625 380.815 810.061 382.688 808.938C389.264 804.991 395.734 800.884 402.312 796.938C426.18 782.617 449.631 767.603 473.5 753.281C505.338 734.179 536.598 714.072 568.438 694.969C575.991 690.437 583.416 685.75 590.969 681.219C591.971 680.617 597.987 677.604 598 676.531C598.582 627.414 598 578.277 598 529.156C598 487.164 599.06 445.166 598 403.188C597.981 402.45 586.862 395.842 585.406 394.969C572.437 387.187 559.717 379.03 546.75 371.25C505.776 346.666 465.534 320.833 424.562 296.25C412.569 289.054 400.835 281.476 388.844 274.281C385.602 272.336 380.245 266.633 376.156 266ZM306.5 353.094C310.797 357.195 315.114 361.3 319.406 365.406C319.621 365.612 320.28 366.152 320.281 366.562C320.378 395.566 322.843 424.672 320.281 453.562C319.921 457.621 314.593 459.426 311.781 462.375C310.589 463.625 309.453 464.918 308.281 466.188C311.797 469.801 315.291 473.393 318.812 477C319.295 477.494 320.245 477.779 320.281 478.469C320.743 487.343 320.565 496.243 320.281 505.125C320.219 507.078 312.921 506.113 311.781 506.031C311.506 506.012 311.194 505.714 311.188 505.438C310.997 497.725 311.283 489.996 311.188 482.281C311.147 478.967 306.522 477.571 304.156 475.25C301.199 472.348 298.209 469.491 295.375 466.469C295.241 466.326 295.239 466.016 295.375 465.875C300.454 460.604 305.825 455.613 310.906 450.344C311.121 450.121 311.186 449.778 311.188 449.469C311.284 423.199 311.284 396.926 311.188 370.656C311.187 370.438 311.056 370.252 310.906 370.094C307.391 366.383 302.63 363.51 300.344 358.938C302.346 356.935 303.967 354.36 306.5 353.094ZM340.781 353.094L346.656 358.938L336.688 370.094C336.688 370.094 336.494 425.149 336.688 452.688C336.689 452.964 337.005 453.28 337.281 453.281C369.312 453.475 401.344 453.475 433.375 453.281C433.651 453.28 433.931 452.964 433.938 452.688C434.128 444.096 433.747 435.498 433.938 426.906C433.978 425.072 443.262 425.187 443.312 427.219C443.598 438.641 443.598 450.078 443.312 461.5C443.309 461.626 442.289 462.656 441.875 462.656C404.082 462.656 366.262 462.472 328.469 462.375C328.273 462.374 328.081 462.462 327.906 462.375C327.659 462.251 327.321 462.057 327.312 461.781C327.026 452.41 327.06 443.032 327.031 433.656C326.962 411.293 326.934 388.926 327.031 366.562C327.038 365.043 340.781 353.094 340.781 353.094ZM429.562 353.094C434.055 357.488 438.588 361.838 443.031 366.281C443.186 366.436 443.309 366.625 443.312 366.844C443.407 373.191 443.592 379.565 443.312 385.906C443.223 387.945 435.249 386.831 434.531 386.781C434.256 386.762 433.947 386.464 433.938 386.188C433.749 380.722 434.837 375.176 433.938 369.781C433.699 368.349 431.745 367.87 430.719 366.844C428.228 364.353 425.848 361.789 423.406 359.25C426.482 356.174 426.486 356.17 429.562 353.094ZM463.844 353.094C464.062 353.094 464.248 353.225 464.406 353.375C465.136 354.069 471.13 358.329 469.688 359.812C466.414 363.179 462.992 366.415 459.719 369.781C459.567 369.938 459.441 370.157 459.438 370.375C459.343 375.648 459.626 380.917 459.438 386.188C459.371 388.043 450.122 388.031 450.062 386.188C449.971 383.355 450.302 380.521 450.344 377.688C450.4 373.879 450.344 366.281 450.344 366.281C450.344 366.281 458.906 357.624 463.25 353.375C463.406 353.222 463.625 353.094 463.844 353.094ZM238.844 377.125C244.41 382.594 249.919 388.109 255.531 393.531C255.688 393.683 255.907 393.811 256.125 393.812C271.847 393.909 287.561 393.525 303.281 393.812C303.695 393.82 304.114 394.275 304.156 394.688C304.452 397.546 305.561 403.187 302.688 403.188C286.086 403.187 269.508 403.003 252.906 402.906C252.711 402.905 252.452 403.043 252.312 402.906C245.715 396.417 239.063 389.933 232.969 382.969C235.898 380.039 235.914 380.055 238.844 377.125ZM386.688 393C433.882 392.729 487.844 393.812 487.844 393.812L522.719 428.688L522.719 503.094L487.562 538.25C487.563 538.25 473.893 538.531 467.062 538.25C464.994 538.165 464.898 528.935 466.75 528.875C472.606 528.686 484.344 528.875 484.344 528.875C484.344 528.875 494.677 518.314 499.875 513.062C504.247 508.646 508.715 504.317 513.062 499.875C513.215 499.719 513.343 499.5 513.344 499.281C513.441 476.918 513.344 432.188 513.344 432.188L484.344 403.188C484.344 403.188 391.176 403.285 344.594 403.188C344.334 403.187 343.452 402.527 343.438 402.312C343.242 399.48 341.164 393.926 344 393.812C355.978 393.331 370.956 393.09 386.688 393ZM378.281 409.062C412.553 408.761 446.848 409.865 481.125 409.938C481.343 409.938 481.563 410.065 481.719 410.219C489.97 418.374 498.158 426.562 506.312 434.812C506.466 434.968 506.593 435.188 506.594 435.406C506.69 455.621 506.69 475.848 506.594 496.062C506.593 496.281 506.466 496.501 506.312 496.656C497.962 505.103 489.571 513.493 481.125 521.844C480.97 521.997 480.75 522.12 480.531 522.125C476.04 522.219 471.546 522.4 467.062 522.125C464.955 521.996 464.853 512.85 466.75 512.75C470.261 512.565 474.366 514.667 477.312 512.75C485.069 507.704 490.442 499.716 496.938 493.125C497.091 492.969 497.218 492.75 497.219 492.531C497.315 474.758 497.315 456.992 497.219 439.219C497.218 439 497.091 438.781 496.938 438.625C490.638 432.23 477.906 419.594 477.906 419.594C477.906 419.594 461.883 419.33 453.875 419.312C417.254 419.232 380.621 419.507 344 419.312C343.724 419.311 343.456 418.994 343.438 418.719C343.242 415.789 341.067 410.065 344 409.938C355.415 409.441 366.857 409.163 378.281 409.062ZM252.906 409.938C255.53 409.675 258.182 409.756 260.812 409.938C261.088 409.957 261.405 410.224 261.406 410.5C261.601 447.414 261.601 484.336 261.406 521.25C261.398 522.86 252.044 522.877 252.031 521.25C251.741 484.435 251.741 447.628 252.031 410.812C252.035 410.398 252.494 409.979 252.906 409.938ZM269.312 409.938C280.637 409.652 291.955 409.746 303.281 409.938C304.854 409.964 305.295 419.233 303.281 419.312C296.06 419.598 288.82 419.509 281.594 419.594C280.309 419.609 277.821 418.903 277.812 420.188C277.618 450.851 277.618 481.493 277.812 512.156C277.814 512.432 278.099 512.749 278.375 512.75C327.691 512.945 377.028 512.555 426.344 512.75C426.62 512.751 426.888 513.068 426.906 513.344C427.088 516.072 427.088 518.803 426.906 521.531C426.888 521.807 426.62 522.124 426.344 522.125C374 522.32 321.655 522.416 269.312 522.125C268.898 522.123 268.441 521.664 268.438 521.25C268.147 484.435 268.147 447.628 268.438 410.812C268.441 410.398 268.898 409.948 269.312 409.938ZM450.656 426.344C453.385 426.162 456.115 426.162 458.844 426.344C459.119 426.362 459.431 426.63 459.438 426.906C459.628 434.423 459.342 441.95 459.438 449.469C459.44 449.687 459.567 449.905 459.719 450.062C464.75 455.284 469.937 460.373 474.969 465.594C476.092 466.76 472.846 468.602 472.344 469.094C468.004 473.347 459.438 482 459.438 482C459.437 482 456.362 535.487 459.438 561.969C460.019 566.976 466.484 569.199 470 572.812C466.924 575.889 466.92 575.893 463.844 578.969C462.29 577.933 461.035 576.434 459.719 575.156C456.549 572.077 453.422 568.953 450.344 565.781C450.192 565.625 450.063 565.406 450.062 565.188C449.965 536.379 449.966 507.59 450.062 478.781C450.063 478.563 450.193 478.345 450.344 478.188C454.301 474.041 458.371 469.977 462.375 465.875C459.75 460.625 450.062 453.281 450.062 453.281C450.063 453.281 449.871 435.693 450.062 426.906C450.068 426.63 450.381 426.362 450.656 426.344ZM327.906 469.406C366.089 469.212 404.255 469.116 442.438 469.406C442.852 469.409 443.309 469.867 443.312 470.281C443.603 501.921 443.41 533.547 443.312 565.188C443.312 565.406 443.186 565.627 443.031 565.781C438.588 570.225 434.055 574.574 429.562 578.969C426.486 575.746 426.482 575.754 423.406 572.531C426.824 569.113 430.285 565.746 433.656 562.281C433.809 562.125 433.937 561.906 433.938 561.688C434.034 534.246 434.131 506.784 433.938 479.344C433.936 479.068 433.651 478.783 433.375 478.781C401.344 478.587 369.312 478.587 337.281 478.781C335.643 478.791 336.406 482.677 336.406 484.031C336.406 491.062 336.596 498.096 336.406 505.125C336.339 507.63 330.446 504.902 328.188 506.031C327.895 505.738 327.323 505.539 327.312 505.125C327.027 493.41 327.12 481.686 327.312 469.969C327.317 469.693 327.63 469.408 327.906 469.406ZM296.031 528.281C339.462 528.048 382.911 528.729 426.344 528.875C426.62 528.876 426.888 529.193 426.906 529.469C427.088 532.197 427.088 534.928 426.906 537.656C426.888 537.932 426.62 538.249 426.344 538.25C369.606 538.445 256.125 538.25 256.125 538.25C256.125 538.25 246.568 547.658 241.75 552.312C240.805 553.225 239.82 554.059 238.844 554.938C236.863 552.815 234.858 550.705 232.969 548.5C237.029 542.41 250.661 528.92 252.594 528.875C267.067 528.541 281.554 528.359 296.031 528.281ZM311.781 545.281C314.412 545.1 317.057 545.1 319.688 545.281C319.963 545.3 320.273 545.599 320.281 545.875C320.471 552.415 321.731 559.12 320.281 565.5C319.654 568.262 316.387 569.632 314.406 571.656C311.992 574.124 309.627 576.623 307.094 578.969C306.656 579.374 300.039 573.97 300.656 572.531C302.619 567.952 311.099 566.224 311.188 561.375C311.282 556.2 310.999 551.047 311.188 545.875C311.198 545.599 311.506 545.3 311.781 545.281ZM327.906 545.281C336.109 545.574 336.666 545.742 336.688 546.156C336.965 551.52 336.153 556.937 336.688 562.281C336.88 564.205 339.46 564.963 340.781 566.375C342.81 568.544 344.887 570.664 346.938 572.812C343.575 576.434 341.277 579.712 340.5 578.969C336.011 574.671 329.612 571.555 327.312 565.781C324.856 559.612 327.123 552.513 327.312 545.875C327.32 545.599 327.711 545.477 327.906 545.281ZM556.625 598.938C558.962 598.852 561.084 599.052 561.094 600.062C561.287 619.69 561.287 639.31 561.094 658.938C561.091 659.214 560.776 659.512 560.5 659.531C556.7 659.793 552.734 660.651 549.094 659.531C547.131 658.927 544.727 651.703 543.812 649.875C540.25 642.75 536.785 635.298 532.688 628.469C531.366 626.266 530.7 623.262 528.875 621.438C528.582 621.73 528.786 646.83 528.594 658.938C528.58 659.822 519.34 659.611 518.625 659.531C518.35 659.501 518.034 659.214 518.031 658.938C517.838 639.31 517.838 619.69 518.031 600.062C518.034 599.786 518.351 599.502 518.625 599.469C520.166 599.284 527.808 598.913 530.031 599.469C532.101 599.986 534.399 607.017 535.312 608.844C538.828 615.875 542.359 622.906 545.875 629.938C546.97 632.128 550.248 637.245 550.25 636.969C550.346 625.152 549.969 613.348 549.969 601.531C549.969 601.184 550.293 599.519 550.844 599.469C551.741 599.387 554.288 599.023 556.625 598.938ZM191.094 599.188C193.926 599.272 196.742 599.196 199.562 599.469C199.837 599.495 200.149 599.786 200.156 600.062C200.347 607.58 199.966 615.108 200.156 622.625C200.163 622.901 200.474 623.211 200.75 623.219C207.29 623.408 213.835 623.408 220.375 623.219C220.651 623.211 220.962 622.901 220.969 622.625C221.159 615.108 220.778 607.58 220.969 600.062C220.992 599.145 231.065 599.425 231.5 599.469C231.775 599.496 232.091 599.786 232.094 600.062C232.287 619.69 232.287 639.31 232.094 658.938C232.091 659.214 231.775 659.504 231.5 659.531C229.751 659.706 228.008 659.531 226.25 659.531C224.896 659.531 220.989 660.631 220.969 658.938C220.873 651.027 221.156 643.129 221.25 635.219C221.254 634.881 221.446 633.773 220.656 633.75C214.018 633.56 200.75 633.75 200.75 633.75L199.562 659.531C199.562 659.531 195.488 659.531 193.438 659.531C191.96 659.531 189.046 660.415 189.031 658.938C188.838 639.31 188.838 619.69 189.031 600.062C189.039 599.311 191.035 599.186 191.094 599.188ZM256.125 599.469L279.844 599.469L290.406 610.031L290.406 649.281L280.156 659.531L255.812 659.531L245.875 649.562C245.875 649.562 245.627 632.192 245.562 623.5C245.529 619.008 245.562 610.031 245.562 610.031L256.125 599.469ZM302.688 599.469C302.688 599.469 310.908 599.285 314.125 599.469C314.401 599.485 314.715 599.786 314.719 600.062C314.912 614.905 314.719 644.594 314.719 644.594C314.719 644.594 317.211 648.842 319.094 649.281C323.468 650.302 332.594 649.281 332.594 649.281L336.688 645.188C336.688 645.187 336.495 615.1 336.688 600.062C336.691 599.786 337.006 599.485 337.281 599.469C340.401 599.285 343.537 599.285 346.656 599.469C346.932 599.485 347.215 599.786 347.219 600.062C347.412 616.468 347.219 649.281 347.219 649.281L336.969 659.531L313.844 659.531L303.594 649.281L302.688 599.469ZM370.094 599.469L392.344 599.469L401.719 609.156L394.094 616.469L387.656 610.312L373.625 610.594L370.656 614.406L370.5 621.062L373.219 624.188L392.938 624.375L403.188 634.625L403.188 649.281L392.938 659.531L367.75 659.531C367.75 659.531 361.285 652.883 358.062 649.562C359.332 648.195 360.583 646.815 361.875 645.469C364.13 643.119 364.626 640.966 366.875 643.125C368.967 645.134 373 649.281 373 649.281L387.656 649.281L392.062 644.875L391.812 638L387.656 634.625C387.656 634.625 375.738 634.72 369.781 634.625C369.084 634.614 368.058 632.902 368.031 632.875C365.242 630.001 359.531 624.375 359.531 624.375C359.531 624.375 359.329 616.747 359.25 612.938C359.232 612.059 359.25 610.312 359.25 610.312L370.094 599.469ZM415.188 599.469C452.59 599.664 452.984 599.787 453 600.062C453.184 603.28 453.184 606.501 453 609.719C452.984 609.995 452.682 610.302 452.406 610.312C447.234 610.501 442.047 610.124 436.875 610.312C436.599 610.323 436.285 610.63 436.281 610.906C436.088 626.921 436.281 658.938 436.281 658.938C436.281 658.937 424.882 659.664 424.875 659.25C424.587 643.139 425.068 627.018 424.875 610.906C424.872 610.63 424.556 610.341 424.281 610.312C419.043 609.771 408.469 610.562 408.469 610.562C408.469 610.562 408.508 607.648 408.469 607.375C407.283 599.078 407.289 599.845 415.188 599.469ZM470 599.469L493.719 599.469L503.969 609.719L503.969 649.562L494 659.531L469.688 659.531L459.719 649.562C459.719 649.562 459.719 624.379 459.719 611.781C459.719 611.371 459.719 609.719 459.719 609.719C462.902 606.081 470 599.469 470 599.469ZM500.625 673.469C500.625 673.469 503.281 676.719 504.844 678.281C502.886 679.848 498.867 683.687 498.688 683.562C498.01 683.093 496.344 680.656 496.344 680.656L489.906 680.75C489.906 680.75 489.374 681.127 489.031 681.812C488.586 682.703 489.011 683.805 489.031 684.719C489.116 688.624 489.031 696.438 489.031 696.438L490.656 697.938L496.5 697.938L500.031 694.531L505.156 699.969L500.469 704.344L485.219 704.344L480.25 699.375L480.25 678.562L485.219 673.594L500.625 673.469ZM355.688 673.531C355.687 673.531 361.674 697.191 364.812 703.469C363.726 704.556 356.231 704.839 355.438 703.781C354.885 703.044 354.729 698.595 353.688 698.5C351.742 698.323 349.758 698.323 347.812 698.5C346.241 698.643 346.477 702.952 346.062 703.781C345.462 704.981 339.72 704.348 338.438 704.062C337.216 703.791 339.36 698.24 339.625 697.312C341.077 692.229 346.656 673.594 346.656 673.594L355.688 673.531ZM393 673.531C393 673.531 400.667 673.415 402.906 673.594C403.182 673.616 403.463 673.911 403.469 674.188C403.66 683.951 403.188 704.469 403.188 704.469L395.75 704.469L395.625 686.625L389.75 704.469L383.75 704.469L377.812 686.625C377.812 686.625 378 694.481 378 695.562C378 698.104 377.938 704.562 377.938 704.562L370.406 704.469C370.406 704.469 370.66 702.715 370.656 702.312C370.563 693.035 370.372 683.742 370.656 674.469C370.669 674.055 371.149 673.626 371.562 673.594C374.97 673.325 381.812 673.594 381.812 673.594L387.375 691.75L393 673.531ZM246.438 673.594C252.88 673.404 265.781 673.594 265.781 673.594L271.062 678.875L271.062 699.094L266.094 704.062C266.094 704.062 263.867 704.344 262.844 704.344C257.473 704.344 252.114 704.621 246.75 704.344C245.539 704.281 245.875 702.666 245.875 702C245.875 692.723 245.684 683.463 245.875 674.188C245.881 673.911 246.161 673.602 246.438 673.594ZM284.375 673.594L289.812 686.188C289.813 686.187 294.593 673.681 295.375 673.594C296.954 673.418 302.688 673.594 302.688 673.594C302.688 673.594 293.968 691.606 293.906 693.812C293.817 697.034 294.174 700.257 293.906 703.469C293.872 703.882 293.444 704.304 293.031 704.344C290.31 704.607 287.572 704.526 284.844 704.344C284.568 704.325 284.273 704.057 284.25 703.781C283.974 700.471 284.122 697.129 283.938 693.812C283.871 692.619 282.642 690.854 282.188 689.719C281.553 688.132 275.463 674.481 275.469 674.469C275.592 674.222 275.756 673.893 276.031 673.875C279.163 673.673 284.375 673.594 284.375 673.594ZM307.688 673.594C311.1 673.409 314.525 673.409 317.938 673.594C319.308 673.668 323.5 687.938 323.5 687.938L323.75 673.594L332 674.188C332 674.188 332.284 693.707 332 703.469C331.988 703.883 331.533 704.272 331.125 704.344C329.586 704.615 327.97 704.65 326.438 704.344C324.711 703.999 321.156 704.062 321.156 704.062L314.969 688.844C314.969 688.844 315.434 704.142 314.125 704.344C313.542 704.433 307.25 704.469 307.25 704.469C307.25 704.469 306.902 683.951 307.094 674.188C307.099 673.911 307.412 673.609 307.688 673.594ZM416.656 673.594L431.906 673.594L437.125 678.312L437.188 698.562L431.594 704.344L416.656 704.344L411.469 698.562L411.406 678.562L416.656 673.594ZM454.469 673.594C460.911 673.404 474.281 673.594 474.281 673.594L474.312 681.5L462.375 681.5L462.375 686.5L472.75 686.625L472.812 693.812C472.812 693.812 466.088 693.629 462.969 693.812C462.693 693.829 462.391 694.131 462.375 694.406C462.192 697.526 462.559 700.662 462.375 703.781C462.359 704.057 462.057 704.323 461.781 704.344C459.444 704.524 457.079 704.603 454.75 704.344C454.338 704.298 453.887 703.883 453.875 703.469C453.591 693.707 453.684 683.951 453.875 674.188C453.88 673.911 454.193 673.602 454.469 673.594ZM394.094 721.062C394.387 721.355 394.395 721.363 394.688 721.656C391.294 728.444 388.114 735.366 384.719 742.156C384.341 742.911 380.8 749.139 382.375 749.188C388.524 749.377 394.692 749.093 400.844 749.188C401.267 749.194 401.809 749.841 402.031 750.062C391.659 763.028 379.764 775.549 368.031 787.281C367.738 786.988 367.73 786.98 367.438 786.688C370.935 779.693 374.189 772.59 377.688 765.594C378.078 764.812 381.384 758.919 379.75 758.844C373.603 758.56 367.434 758.657 361.281 758.562C360.406 758.549 360.868 758.712 360.125 757.969C370.967 745.32 382.316 732.84 394.094 721.062ZM265 609.25C263.436 609.304 261.974 609.433 260.812 609.719C258.667 610.247 256.125 614.406 256.125 614.406L256.656 643.281L261.094 649.875L274.875 649.875L279.562 645.188C279.562 645.188 280.836 624.398 279.562 614.125C279.308 612.069 275.156 609.719 275.156 609.719C275.156 609.719 269.691 609.089 265 609.25ZM474.688 609.719L470 614.406C470 614.406 469.97 620.656 470 623.781C470.068 630.911 470.281 645.188 470.281 645.188L474.969 649.875L488.75 649.875L493.594 644.75L493.438 614.125L489.031 609.719L474.688 609.719ZM254.656 679.75C254.38 679.754 254.072 680.068 254.062 680.344C253.874 686.102 254.25 697.719 254.25 697.719L260.375 697.938L262.844 696.156L262.844 681.812L260.406 679.781C260.406 679.781 256.239 679.725 254.656 679.75ZM421.562 679.75L419.594 681.5L419.594 696.75L421.344 698.219L426.562 698.312L428.375 696.562L428.438 681.5L426.562 679.75L421.562 679.75ZM350.75 681.5C350.75 681.5 350.004 684.423 349.562 686.188C349.217 687.569 348.125 691.75 348.125 691.75L353.688 691.75L350.75 681.5Z" fill="#FFFFFF" fill-rule="nonzero" opacity="1" stroke="none"/>
</g>
</svg>
