<?xml version="1.0" encoding="UTF-8" standalone="no"?>
<!DOCTYPE svg PUBLIC "-//W3C//DTD SVG 1.1//EN" "http://www.w3.org/Graphics/SVG/1.1/DTD/svg11.dtd">
<!-- Created with Vectornator (http://vectornator.io/) -->
<svg height="100%" stroke-miterlimit="10" style="fill-rule:nonzero;clip-rule:evenodd;stroke-linecap:round;stroke-linejoin:round;" version="1.1" viewBox="0 0 750 1000" width="100%" xml:space="preserve" xmlns="http://www.w3.org/2000/svg" xmlns:vectornator="http://vectornator.io" xmlns:xlink="http://www.w3.org/1999/xlink">
<defs/>
<g id="Layer-1" vectornator:layerName="Layer 1">
<path d="" fill="none" opacity="1" stroke="#002f87" stroke-linecap="butt" stroke-linejoin="miter" stroke-width="1"/>
<path d="M156.267 200.147C155.989 200.148 155.663 200.454 155.663 200.733C155.467 274.477 155.713 348.227 155.663 421.973C155.615 491.096 155.379 560.213 155.379 629.337C155.379 665.904 160.575 703 191.362 726.09C196.816 730.181 204.258 736.248 210.826 737.89C216.527 739.315 221.828 742.438 227.647 744.101C236.697 746.686 245.865 749.036 255.078 750.878C279.242 755.711 305.218 756.718 328.233 765.925C340.567 770.858 350.274 778.117 360.384 787.163C364.12 790.506 367.861 793.845 371.598 797.188C372.756 798.224 374.08 800.621 375.43 799.85C381.991 796.101 388.063 788.396 393.724 783.331C404.17 773.984 416.087 767.37 429.405 763.565C467.638 752.641 516.178 754.687 549.757 732.301C553.821 729.592 557.769 726.828 561.556 723.731C565.739 720.307 569.483 716.691 573.355 712.819C579.625 706.548 582.853 697.796 586.041 689.824C586.852 687.799 589.066 683.427 588.703 681.253C588.7 681.23 588.635 681.184 588.628 681.159C589.705 679.717 590.062 676.944 589.628 675.042C589.71 675.042 589.793 675.077 589.874 675.061C591.044 674.827 591.21 669.993 591.346 669.171C592.374 663.004 593.226 656.824 593.706 650.575C593.835 648.906 593.915 647.244 594.008 645.572C594.112 643.705 594.308 641.836 594.31 639.965C594.505 493.557 594.692 347.141 594.594 200.733C594.593 200.454 594.286 200.148 594.008 200.147C448.091 199.951 302.184 199.951 156.267 200.147ZM375.128 202.583C447.005 202.583 518.884 202.662 590.761 202.809C591.178 202.81 591.648 203.279 591.648 203.696C591.845 348.63 591.541 493.559 591.346 638.493C591.334 647.851 590.012 657.279 588.987 666.509C588.758 668.57 586.807 671.57 587.816 673.589C586.925 674.48 586.036 677.428 586.627 678.61C584.486 680.751 581.092 693.911 579.547 697.772C575.806 707.125 567.513 714.896 560.083 721.087C521.827 752.968 468.447 747.297 423.212 762.375C410.574 766.588 399.835 773.829 389.891 782.727C386.155 786.07 382.424 789.44 378.677 792.77C377.426 793.883 376.309 796.83 374.845 796.017C367.082 791.704 359.479 781.662 352.134 775.949C338.53 765.369 322.282 759.837 305.522 756.485C260.057 747.392 189.204 745.038 168.651 693.657C160.439 673.127 158.325 650.467 158.325 628.468C158.325 601.723 158.608 574.979 158.627 548.234C158.706 433.388 158.332 318.542 158.627 203.696C158.628 203.279 159.078 202.81 159.495 202.809C231.372 202.662 303.251 202.583 375.128 202.583ZM169.236 212.834C168.958 212.834 168.657 213.141 168.651 213.419C168.459 223.053 168.658 232.686 168.651 242.322C168.56 372.31 168.349 502.313 168.349 632.301C168.349 647.24 169.151 662.599 172.786 677.138C188.418 739.668 270.07 737.078 319.379 749.406C333.43 752.918 346.131 759.006 357.722 767.699C362.613 771.368 367.072 775.687 371.598 779.782C372.751 780.825 374.097 783.243 375.43 782.443C381.259 778.946 385.85 772.42 391.364 768.284C402.759 759.738 414.749 754.227 428.517 750.293C465.111 739.838 505.269 740.528 539.43 723.447C547.987 719.169 556.594 711.305 563.33 704.569C577.411 690.488 581.297 657.491 581.322 639.38C581.516 497.396 581.722 355.403 581.624 213.419C581.624 213.141 581.317 212.834 581.039 212.834C443.775 212.637 306.501 212.637 169.236 212.834ZM233.462 229.938C280.585 229.837 327.722 230.24 374.845 230.24C437.872 230.24 500.888 230.044 563.916 230.24C564.194 230.241 564.519 230.547 564.52 230.825C564.716 353.34 564.52 475.861 564.52 598.376C564.52 617.711 564.872 636.679 563.632 655.899C563.044 665.019 560.46 672.951 558.309 681.555C555.307 693.561 542.517 699.893 533.54 706.626C527.006 711.526 516.126 714.59 507.883 716.651C482.396 723.023 456.159 726.318 430.594 731.999C417.088 735.001 403.754 739.963 391.949 747.046C387.286 749.844 382.891 753.037 378.677 756.485C377.968 757.066 375.656 759.894 374.845 759.43C367.805 755.407 362.125 748.643 354.777 744.969C344.403 739.782 333.597 735.266 321.739 732.301C312.43 729.974 302.859 728.267 293.421 726.694C258.654 720.9 200.968 715.6 189.305 674.778C186.697 665.651 185.762 655.598 185.755 646.158C185.659 507.91 185.755 369.658 185.755 231.41C185.755 230.542 185.31 230.252 186.341 230.24C202.047 230.06 217.754 229.972 233.462 229.938ZM248.15 280.382C246.626 280.437 244.812 280.836 243.581 280.967C243.166 281.011 242.707 281.438 242.694 281.855C242.408 291.093 242.501 300.347 242.694 309.587C242.699 309.865 243.001 310.164 243.279 310.173C249.667 310.363 256.071 310.363 262.46 310.173C264.631 310.108 263.242 305.842 263.045 303.678C262.703 299.914 251.045 306.168 250.944 302.508C250.753 295.628 251.226 288.732 250.944 281.855C250.893 280.618 249.673 280.327 248.15 280.382ZM444.942 280.439C443.605 280.414 442.02 280.666 440.921 280.684C440.42 280.692 439.169 281.11 439.146 281.855C438.86 290.994 438.86 300.145 439.146 309.285C439.159 309.702 439.617 310.153 440.033 310.173C446.123 310.454 452.233 310.357 458.327 310.173C461.166 310.087 459.546 304.334 459.497 303.98C458.93 299.824 447.499 306.233 447.396 302.508C447.205 295.628 447.679 288.732 447.396 281.855C447.351 280.756 446.278 280.463 444.942 280.439ZM376.771 280.476C374.791 280.553 372.803 281.132 372.768 281.855C372.572 285.981 371.223 290.544 373.07 294.239C372.775 294.534 372.78 294.548 372.485 294.843C367.497 289.855 361.126 284.312 355.079 280.684C354.882 280.881 354.499 280.991 354.494 281.269C354.301 290.707 354.301 300.15 354.494 309.587C354.525 311.129 362.085 311.205 362.158 309.587C362.355 305.261 359.681 299.661 362.744 296.599C367.864 301.719 374.055 306.413 379.848 310.758C380.143 310.463 380.722 310.306 380.735 309.889C381.021 300.651 380.831 291.399 380.735 282.157C380.721 280.834 378.75 280.4 376.771 280.476ZM278.771 280.514C276.321 280.58 273.472 281.336 271.597 282.742C261.772 290.111 261.083 305.497 274.259 309.889C285.954 313.788 298.89 302.334 294.006 290.123C291.596 284.098 286.521 281.77 281.036 280.684C280.36 280.55 279.588 280.492 278.771 280.514ZM278.375 287.462C280.329 287.23 282.744 287.394 284.284 288.934C288.661 293.312 287.964 303.98 280.149 303.98C270.176 303.98 268.448 288.637 278.375 287.462ZM308.467 280.684C299.35 280.033 291.612 287.994 300.217 296.599C301.644 298.025 311.334 299.766 309.94 302.206C307.301 306.824 303.242 301.953 300.802 300.733C300.351 300.508 295.554 304.438 295.195 304.868C292.84 307.694 304.626 310.375 305.522 310.475C313.898 311.405 317.907 307.009 317.907 298.959C317.907 294.172 310.631 292.707 307.297 291.596C306.374 291.289 303.836 290.331 304.635 288.934C306.981 284.828 311.384 289.767 311.714 289.519C319.928 283.359 314.565 281.12 308.467 280.684ZM337.975 280.684C334.726 283.933 330.688 294.889 328.819 299.563C328.28 300.91 322.646 310.28 324.986 310.475C327.046 310.646 329.139 310.513 331.178 310.173C332.087 310.021 332.281 307.87 332.953 307.813C336.186 307.536 339.461 307.543 342.694 307.813C343.736 307.9 343.726 309.975 344.752 310.173C346.876 310.581 349.09 310.339 351.246 310.173C351.685 310.139 352.024 309.784 352.417 309.587C348.656 302.065 344.992 294.153 341.203 286.574C340.157 284.482 339.757 282.467 337.975 280.684ZM337.673 295.428C338.438 294.91 342.067 301.966 340.033 302.206C333.484 302.976 333.925 297.965 337.673 295.428ZM397.556 280.684C376.103 284.259 380.796 312.195 403.163 310.475C412.548 309.753 412.149 303.745 411.715 294.843C411.702 294.565 411.408 294.253 411.13 294.239C407.3 294.052 403.439 293.966 399.614 294.239C397.727 294.374 398.518 297.966 398.727 299.846C398.912 301.519 402.077 300.253 403.748 300.45C405.162 300.616 404.193 302.773 403.446 303.093C396.2 306.199 388.556 298.427 392.836 291.294C394.68 288.221 398.353 287.514 401.691 288.349C402.795 288.625 404.538 291.3 405.523 290.709C407.304 289.64 408.899 287.647 410.526 286.291C407.487 282.914 406.434 282.562 397.556 280.684ZM472.769 280.76C469.621 280.737 466.471 280.782 463.33 280.967C461.883 281.052 462.151 282.562 462.159 283.327C462.253 291.98 462.062 300.64 462.442 309.285C462.461 309.702 462.913 310.155 463.33 310.173C469.813 310.455 476.31 310.455 482.794 310.173C484.832 310.084 483.075 306.38 484.285 305.17C490.726 311.611 507.581 313.977 507.581 301.035C507.581 291.844 498.115 294.88 494.31 290.123C491.423 286.515 499.064 288.171 501.087 289.519C502.718 288.005 504.573 286.651 505.807 284.8C501.238 280.231 487.478 278.541 486.645 286.876C486.174 291.581 486.14 294.6 490.477 297.203C491.948 298.086 500.606 299.942 499.313 302.206C496.907 306.416 492.779 302.474 490.477 301.035C489.277 300.285 485.43 304.178 484.568 304.868C483.874 304.405 483.625 303.169 482.794 303.093C478.779 302.728 474.738 303.28 470.711 303.093C469.373 303.031 470.253 300.766 471.296 300.733C474.245 300.641 477.207 300.917 480.151 300.733C482.123 300.61 480.932 296.81 480.736 294.843C480.397 291.46 471.564 297.119 470.409 293.654C469.911 292.158 470.381 290.475 470.711 288.934C471.508 285.216 479.248 290.415 482.208 288.047C483.814 286.762 484.329 281.031 482.208 280.967C479.063 280.872 475.917 280.782 472.769 280.76ZM425.138 280.835C422.04 280.812 418.944 280.827 415.85 280.967C415.433 280.986 414.975 281.438 414.962 281.855C414.677 291.093 414.77 300.347 414.962 309.587C414.968 309.865 415.27 310.165 415.548 310.173C422.133 310.364 428.732 310.455 435.314 310.173C437.526 310.078 437.556 303.253 435.314 303.093C430.01 302.714 421.961 305.073 423.212 301.319C424.367 297.853 433.201 303.532 433.539 300.148C435.05 285.041 421.65 302.995 423.212 288.934C423.243 288.658 423.52 288.364 423.798 288.349C427.135 288.163 430.499 288.437 433.841 288.349C434.246 288.338 434.649 288.228 435.012 288.047C436.952 287.076 436.641 281.001 434.426 280.967C431.329 280.92 428.236 280.858 425.138 280.835ZM242.977 342.625C242.72 342.518 242.393 342.932 242.392 343.21C242.196 387.26 242.392 431.311 242.392 475.362C242.392 518.331 242.293 561.297 242.392 604.266C242.392 604.516 243.063 605.455 243.279 605.455C285.264 605.553 327.253 605.447 369.238 605.153C370.738 605.143 368.822 601.242 368.653 600.735C367.098 596.071 365.415 591.373 364.216 586.576C362.724 580.606 361.289 574.623 360.082 568.585C359.942 567.888 359.61 563.271 358.326 563.261C333.45 563.066 308.574 563.456 283.698 563.261C283.42 563.259 283.095 562.954 283.094 562.676C282.898 499.255 283.582 435.835 283.094 372.416C283.089 371.681 275.051 366.157 273.957 365.336C266.924 360.061 259.749 354.978 252.718 349.705C249.623 347.383 246.542 344.12 242.977 342.625ZM315.245 342.625C315.048 342.822 314.664 342.932 314.659 343.21C314.466 355.893 313.519 368.637 314.659 381.27C314.773 382.532 320.554 387.566 321.739 388.633C363.15 425.903 403.229 464.719 444.168 502.509C443.873 502.952 443.859 502.954 443.564 503.397C432.199 492.032 419.332 481.863 407.279 471.227C380.637 447.72 353.901 424.338 327.346 400.734C327.051 401.029 326.474 401.204 326.459 401.621C326.175 409.384 326.459 417.15 326.459 424.918C326.459 426.785 338.948 435.63 341.203 437.321C375.896 463.341 410.303 490.162 444.168 517.254C443.873 517.696 443.859 517.698 443.564 518.141C438.842 515.78 434.281 511.018 430.009 507.814C420.29 500.525 410.39 493.447 400.803 485.99C387.221 475.427 373.253 465.328 359.497 455.01C354.889 451.554 350.251 448.142 345.64 444.684C344.914 444.139 338.607 438.977 338.56 440.851C338.368 448.42 338.276 455.997 338.56 463.562C338.588 464.318 341.862 465.871 342.392 466.224C346.782 469.151 351.443 471.76 355.966 474.474C373.433 484.955 390.112 496.748 407.581 507.229C416.905 512.824 425.977 519.523 435.597 524.333C437.365 525.217 444.973 529.701 443.564 531.111C429.977 524.317 416.999 514.998 404.05 507.229C386.736 496.84 368.29 487.026 351.246 475.664C351.05 475.86 350.651 475.971 350.642 476.249C350.452 482.146 350.642 488.058 350.642 493.957C350.642 495.657 354.204 497.205 355.664 497.79C366.589 502.16 376.646 509.841 387.815 514.309C394.718 517.07 400.993 522.049 408.166 524.918C420.374 529.801 431.884 537.221 443.866 543.212C449.692 546.125 456.007 549.726 461.857 552.651C462.532 552.989 467.135 554.459 467.162 555.596C467.548 571.914 466.968 588.247 467.162 604.568C467.165 604.846 467.517 605.029 467.766 605.153C468.118 605.329 468.543 605.153 468.937 605.153C481.621 605.153 494.313 605.347 506.996 605.153C507.274 605.149 507.581 604.846 507.581 604.568C507.778 518.335 507.581 432.105 507.581 345.872C507.581 345.216 507.917 344.059 506.996 343.796C502.504 342.512 488.989 346.5 483.983 347.93C457.113 355.607 434.113 369.095 414.66 390.709C409.099 396.889 403.943 403.556 399.331 410.475C398.601 411.57 395.517 415.045 395.781 416.366C396.154 418.226 400.595 421.951 401.691 423.162C407.109 429.151 412.489 435.165 417.907 441.153C418.406 441.704 424.037 448.991 424.987 448.516C426.308 447.856 431.423 437.673 432.652 435.83C438.198 427.509 445.251 419.622 453.003 413.421C457.041 410.19 461.266 407.221 465.689 404.566C465.941 404.416 467.152 403.668 467.162 404.868C467.455 439.773 467.358 474.683 467.162 509.589C467.16 509.867 466.773 509.977 466.577 510.174C449.027 492.625 433.041 473.159 416.435 454.708C382.768 417.301 349.252 379.724 315.245 342.625ZM370.408 519.916C370.131 519.937 369.836 520.223 369.823 520.501C369.636 524.626 369.729 528.757 369.823 532.885C369.857 534.379 370.093 537.594 370.125 538.492C370.715 555.006 373.839 571.869 378.375 587.747C379.705 592.402 381.013 597.127 382.812 601.623C383.043 602.2 383.716 605.14 384.567 605.153C397.545 605.347 410.537 605.344 423.514 605.153C426.075 605.115 423.013 598.838 422.627 597.488C420.221 589.066 418.034 580.672 416.133 572.115C414.358 564.131 413.014 556.055 411.998 547.932C411.731 545.794 412.085 541.056 410.828 539.38C408.81 536.689 403.402 536.099 400.501 534.358C394.177 530.563 386.337 527.568 379.263 524.031C377.013 522.906 372.716 519.735 370.408 519.916ZM433.237 642.061C426.963 642.585 420.569 648.614 420.569 656.182C420.569 667.571 438.667 670.997 443.564 661.204C436.577 654.218 437.408 664.026 430.594 660.619C426.681 658.662 426.111 648.965 431.481 648.518C435.846 648.154 434.918 649.509 438.259 651.179C438.639 651.37 442.451 648.284 442.978 647.932C440.721 643.418 437.001 641.747 433.237 642.061ZM302.634 642.25C301.469 642.08 300.182 642.1 298.726 642.325C282.135 644.888 284.002 667.094 300.802 667.094C308.903 667.094 316.946 656.198 311.412 648.82C308.561 645.018 306.129 642.76 302.634 642.25ZM299.84 647.744C306.584 647.595 309.768 658.807 302.577 661.204C293.054 664.378 290.28 649.923 298.443 647.932C298.922 647.815 299.39 647.753 299.84 647.744ZM275.599 642.269C274.458 642.09 273.239 642.111 271.899 642.325C255.29 644.988 256.817 667.094 273.655 667.094C282.033 667.094 290.045 656.199 284.284 648.518C281.68 645.046 279.024 642.805 275.599 642.269ZM273.995 647.649C276.319 647.87 278.325 649.54 279.262 652.35C280.256 655.331 278.439 661.506 274.542 661.506C265.56 661.506 263.549 650.475 271.597 647.932C272.414 647.674 273.22 647.575 273.995 647.649ZM468.295 642.344C467.139 642.357 465.748 642.619 464.802 642.627C464.512 642.63 463.645 643.117 463.632 643.496C463.442 648.999 463.538 654.509 463.632 660.015C463.739 666.348 473.049 667.618 477.489 666.811C480.445 666.273 483.879 663.092 483.983 660.015C484.17 654.511 484.38 649.002 484.285 643.496C484.28 643.218 483.957 642.945 483.681 642.911C468.267 640.984 483.159 660.401 475.129 661.204C466.254 662.092 470.57 647.837 470.409 643.496C470.374 642.551 469.451 642.331 468.295 642.344ZM383.699 642.363C382.418 642.452 380.881 642.821 379.848 642.911C379.571 642.935 379.27 643.218 379.263 643.496C379.071 651.065 379.071 658.657 379.263 666.226C379.284 667.065 380.602 666.811 381.037 666.811C385.855 666.811 390.669 667.089 395.479 666.811C397.257 666.709 396.393 663.26 396.084 661.506C395.496 658.177 386.148 663.507 386.04 660.317C385.85 654.715 386.23 649.097 386.04 643.496C386.005 642.459 384.981 642.274 383.699 642.363ZM402.88 642.363C401.598 642.452 400.062 642.821 399.029 642.911C398.752 642.935 398.45 643.218 398.443 643.496C398.252 651.065 398.252 658.657 398.443 666.226C398.45 666.504 398.751 666.801 399.029 666.811C404.236 667 409.452 667 414.66 666.811C416.44 666.746 415.442 663.276 415.245 661.506C414.882 658.237 405.329 663.495 405.221 660.317C405.031 654.715 405.411 649.097 405.221 643.496C405.186 642.459 404.161 642.274 402.88 642.363ZM317.944 642.476C316.448 642.537 314.968 642.666 313.489 642.911C311.829 643.186 312.688 646.261 312.885 647.932C313.155 650.225 319.021 646.85 319.096 649.103C319.286 654.803 318.906 660.526 319.096 666.226C319.157 668.052 325.773 667.43 325.873 665.924C326.246 660.332 325.684 654.704 325.873 649.103C325.937 647.225 329.612 648.714 331.48 648.518C333.211 648.335 333.15 642.964 331.48 642.911C326.984 642.768 322.432 642.294 317.944 642.476ZM449.963 642.476C448.623 642.505 447.011 642.821 445.923 642.911C445.646 642.933 445.345 643.218 445.338 643.496C445.147 650.966 445.055 658.456 445.338 665.924C445.354 666.341 445.809 666.786 446.225 666.811C450.937 667.088 455.665 666.811 460.385 666.811C460.778 666.811 461.203 666.987 461.555 666.811C463.292 665.943 463.35 661.014 461.555 660.902C460.117 660.812 452.044 663.466 452.116 659.429C452.209 654.218 452.604 649.007 452.418 643.798C452.379 642.707 451.304 642.447 449.963 642.476ZM365.689 642.627C363.84 644.477 362.585 648.349 361.573 650.877C359.448 656.19 356.705 661.199 354.192 666.226C355.589 667.623 358.125 667.091 360.082 666.811C360.979 666.683 360.958 664.858 361.856 664.734C364.389 664.385 366.978 664.471 369.521 664.734C370.807 664.867 370.098 666.593 371.296 666.811C373.336 667.182 376.021 667.692 377.488 666.226C374.832 660.914 370.186 646 365.689 642.627ZM365.84 653.785C367.726 655.294 368.558 659.901 368.558 659.901L363.348 659.694C363.348 659.694 364.285 655.339 365.84 653.785ZM499.313 642.627C495.576 642.726 491.845 642.631 488.117 642.911C487.84 642.931 487.52 643.218 487.513 643.496C487.322 651.065 487.322 658.657 487.513 666.226C487.52 666.504 487.84 666.798 488.117 666.811C492.046 666.998 495.985 666.902 499.917 666.811C508.46 666.612 508.978 657.36 503.447 652.935C507.241 649.141 504.981 645.314 499.313 642.627ZM495.971 647.479C497.866 647.638 500.734 648.747 499.029 650.877C496.398 654.166 490.683 650.533 494.593 647.63C494.803 647.474 495.339 647.426 495.971 647.479ZM495.442 655.673C496.606 655.651 497.849 656.117 499.029 656.182C502.133 656.355 501.917 661.629 499.029 661.789C497.251 661.888 493.921 662.974 493.724 661.204C493.528 659.434 492.662 656.574 494.31 655.899C494.674 655.75 495.054 655.68 495.442 655.673ZM243.279 642.911C243.001 642.921 242.701 643.218 242.694 643.496C242.502 650.769 242.694 658.062 242.694 665.339C242.694 668.348 246.872 667.003 248.886 666.811C251.502 666.562 247.689 660.748 250.358 659.146C252.215 658.032 254.687 659.43 256.853 659.429C258.666 659.429 258.235 655.925 258.023 654.125C257.712 651.481 252.711 653.736 250.056 653.539C248.573 653.429 249.275 650.578 249.471 649.103C249.508 648.827 249.779 648.536 250.056 648.518C252.902 648.334 255.763 648.701 258.608 648.518C260.314 648.408 260.289 642.973 258.608 642.911C253.499 642.721 248.388 642.721 243.279 642.911ZM335.011 642.911C334.716 643.206 334.14 643.381 334.123 643.798C333.84 651.167 333.84 658.555 334.123 665.924C334.193 667.739 340.331 666.974 346.527 666.811C355.173 666.584 355.555 657.333 350.057 652.935C352.399 650.593 353.487 646.19 349.34 644.175C346.73 642.908 341.419 643.836 335.011 642.911ZM342.581 647.479C344.471 647.645 347.326 648.769 345.64 650.877C343.008 654.166 337.293 650.533 341.203 647.63C341.413 647.474 341.951 647.424 342.581 647.479ZM341.977 655.691C343.067 655.674 344.231 656.121 345.337 656.182C348.475 656.357 348.85 661.611 345.64 661.789C343.861 661.888 340.531 662.974 340.335 661.204C340.138 659.434 339.281 656.595 340.92 655.899C341.26 655.755 341.614 655.697 341.977 655.691Z" fill="#FFFFFF" fill-rule="nonzero" opacity="1" stroke="none"/>
</g>
</svg>
