<?xml version="1.0" encoding="UTF-8" standalone="no"?>
<!DOCTYPE svg PUBLIC "-//W3C//DTD SVG 1.1//EN" "http://www.w3.org/Graphics/SVG/1.1/DTD/svg11.dtd">
<!-- Created with Vectornator (http://vectornator.io/) -->
<svg height="100%" stroke-miterlimit="10" style="fill-rule:nonzero;clip-rule:evenodd;stroke-linecap:round;stroke-linejoin:round;" version="1.1" viewBox="0 0 750 1000" width="100%" xml:space="preserve" xmlns="http://www.w3.org/2000/svg" xmlns:vectornator="http://vectornator.io" xmlns:xlink="http://www.w3.org/1999/xlink">
<defs/>
<g id="Layer-1" vectornator:layerName="Layer 1">
<path d="" fill="none" opacity="1" stroke="#002f87" stroke-linecap="butt" stroke-linejoin="miter" stroke-width="1"/>
<path d="M375 23.4375C375 23.4375 343.255 63.9326 325.625 81.5625C256.118 151.07 173.535 210.553 78.125 237.812C54.0587 244.689 25.1327 257.812 0 257.812C1.68405 259.497 5.61515 263.021 9.34375 266.281C5.90093 263.399 2.69747 260.51 0.625 258.438C0.625 289.386 0.739277 323.498 5.625 352.812C7.68692 365.184 12.5 380.307 12.5 394.062C12.5 403.256 15.5292 434.592 21.25 440.312C18.8064 445.2 26.8306 453.526 24.375 458.438C25 459.063 25 459.062 25.625 459.688C23.6406 463.656 37.8724 507.241 40 514.688C51.6419 555.434 67.461 594.277 83.125 633.438C88.3385 646.471 103.944 670.143 106.531 685.594C102.914 686.367 99.2233 687.013 95.625 687.812C90.7922 688.886 65.625 692.44 65.625 697.812C66.25 697.812 66.25 697.812 66.875 697.812C66.5625 698.438 66.5625 698.437 66.25 699.062C67.8727 699.874 67.5 699.222 67.5 700.938C68.125 700.938 68.125 700.938 68.75 700.938C68.75 701.875 68.75 701.875 68.75 702.812C69.375 702.812 69.375 702.812 70 702.812C69.6875 703.438 69.6875 703.437 69.375 704.062C70.9977 704.874 70.625 704.222 70.625 705.938C71.25 705.938 71.25 705.938 71.875 705.938C71.875 708.253 72.3502 708.675 74.375 709.688C74.0625 710.313 74.0625 710.312 73.75 710.938C74.375 710.938 74.375 710.938 75 710.938C75 713.253 75.4752 713.675 77.5 714.688C77.1875 715.313 77.1875 715.312 76.875 715.938C77.5 715.938 77.5 715.938 78.125 715.938C78.125 718.253 78.6002 718.675 80.625 719.688C80.3125 720.313 80.3125 720.312 80 720.938C81.6227 721.749 81.25 721.096 81.25 722.812C81.875 722.812 81.875 722.812 82.5 722.812C82.5 723.75 82.5 723.75 82.5 724.688C83.125 724.688 83.125 724.688 83.75 724.688C83.4375 725.313 83.4375 725.312 83.125 725.938C84.7477 726.749 84.375 726.096 84.375 727.812C85 727.812 85 727.812 85.625 727.812C85.625 730.128 86.1002 730.55 88.125 731.562C87.8125 732.188 87.8125 732.187 87.5 732.812C89.1227 733.624 88.75 732.971 88.75 734.688C89.375 734.688 89.375 734.688 90 734.688C90 735.625 90 735.625 90 736.562C90.625 736.562 90.625 736.562 91.25 736.562C90.9375 737.188 90.9375 737.187 90.625 737.812C91.8555 738.428 93.125 740.187 93.125 741.562C93.75 741.562 93.75 741.562 94.375 741.562C94.375 743.878 94.8502 744.3 96.875 745.312C96.5625 745.938 96.5625 745.937 96.25 746.562C97.8727 747.374 97.5 746.721 97.5 748.438C98.125 748.438 98.125 748.438 98.75 748.438C98.75 750.753 99.2252 751.175 101.25 752.188C100.937 752.813 100.938 752.812 100.625 753.438C102.248 754.249 101.875 753.596 101.875 755.312C102.5 755.312 102.5 755.312 103.125 755.312C103.125 757.655 104.707 759.853 106.875 760.938C106.562 761.563 106.563 761.562 106.25 762.188C107.873 762.999 107.5 762.347 107.5 764.062C108.125 764.062 108.125 764.062 108.75 764.062C108.75 765 108.75 765 108.75 765.938C109.375 765.938 109.375 765.938 110 765.938C110 768.28 111.582 770.478 113.75 771.562C113.437 772.188 113.438 772.187 113.125 772.812C114.355 773.428 115.625 775.187 115.625 776.562C116.25 776.562 116.25 776.562 116.875 776.562C116.875 783.277 133.899 776.252 138.125 775.312C142.929 774.245 150.185 771.081 155 771.562C159.551 772.018 159.309 777.188 162.5 777.188C162.5 778.125 162.5 778.125 162.5 779.062C163.125 779.062 163.125 779.062 163.75 779.062C163.75 780 163.75 780 163.75 780.938C164.375 780.938 164.375 780.938 165 780.938C165.603 782.747 167.418 787.188 169.375 787.188C169.375 789.445 171.095 791.438 173.094 792.781C173.063 794.146 175.14 796.38 175.625 797.188C185.31 813.329 199.664 826.947 210.625 841.562C241.134 882.242 282.817 918.441 326.875 947.812C338.559 955.602 375.625 976.562 375.625 976.562C375.625 976.562 449.802 929.019 462.5 918.438C498.801 888.187 531.015 853.204 560 815.938C564.4 810.281 588.289 772.966 592.5 771.562C602.757 768.143 622.047 784.601 631.875 779.688C639.28 775.985 667.652 724.226 673.75 714.062C676.481 709.51 685 701.126 685 695.938C671.139 691.317 656.675 688.232 642.5 684.688C708.319 553.049 750 406.955 750 258.438C749.85 258.512 749.186 258.904 749 259C749.321 258.602 749.797 258.218 750 257.812C635.469 229.18 530.156 186.719 448.125 104.688C424.693 81.2552 375 23.4375 375 23.4375ZM375.625 95.9375C383.969 112.625 404.53 126.718 417.5 139.688C467.053 189.241 530.504 233.264 598.125 260.312C623.389 270.418 649.102 280.557 675.625 287.188C678.803 287.982 700.849 292.011 701.25 294.688C705.157 320.732 697.129 353.034 693.125 379.062C681.403 455.256 659.755 528.426 631.25 599.688C628.176 607.373 599.177 673.673 595.625 674.688C590.039 676.283 572.5 670.938 572.5 670.938C572.5 670.938 541.952 666.103 530.625 664.688C496.866 660.468 462.149 656.562 428.125 656.562C377.351 656.562 326.841 656.565 276.25 660.312C243.436 662.743 209.657 670.938 176.875 670.938C178.75 670.938 178.75 670.938 180.625 670.938C173.629 672.337 162.029 676.445 155 674.688C153.406 674.289 125.668 614.17 123.125 607.812C93.0232 532.558 69.8945 456.502 57.5 375.938C53.5608 350.332 47.6549 321.114 49.375 295.312C49.5204 293.132 77.2689 287.681 80.625 286.562C112.442 275.957 142.737 263.968 173.75 251.562C252.399 220.103 317.656 153.906 375.625 95.9375ZM328.094 672.75C329.346 672.665 330.813 672.813 336.25 672.812C336.25 683.229 335.85 693.653 336.25 704.062C336.525 711.224 357.561 707.547 361.875 707.188C361.875 712.188 361.875 712.187 361.875 717.188C318.16 717.188 322.184 718.906 321.25 674.062C325.805 673.152 326.842 672.835 328.094 672.75ZM413.125 673.125C415.629 673.125 418.133 673.238 420.625 673.438C420.809 673.452 440.498 714.561 444.375 718.438C432.079 719.206 437.701 719.365 427.5 718.438C427.5 702.445 392.37 717.887 381.875 717.188C389.082 702.774 397.792 689.104 405 674.688C405.208 674.271 405.161 673.475 405.625 673.438C408.117 673.238 410.621 673.125 413.125 673.125ZM463.125 675.312C474.992 675.313 484.729 677.625 488.75 689.688C489.375 689.688 490.082 689.998 490.625 689.688C494.155 687.671 496.405 680.141 500 679.062C515.853 674.307 519.255 678.787 509.375 689.062C506.616 691.932 503.883 694.828 501.25 697.812C495.337 704.514 503.933 695.754 498.75 700.938C507.337 705.231 510.151 720.388 518.75 724.688C497.724 727.691 502.864 718.055 491.25 710.312C489.981 709.467 488.459 711.812 488.125 712.188C480.747 720.488 473.933 726.341 461.875 720.312C468.753 713.434 476.87 707.403 481.875 699.062C476.593 696.421 464.991 680.909 463.125 675.312ZM272.531 676.188C273.732 676.164 274.975 676.279 276.25 676.562C277.208 676.775 295.732 714.794 300 719.062C281.937 725.084 286.612 714.687 276.25 714.688C257.105 714.688 254.802 723.101 237.5 724.062C244.676 709.71 254.518 676.542 272.531 676.188ZM212.5 682.812C212.5 687.5 212.5 687.5 212.5 692.188C193.333 692.188 173.29 693.144 174.375 715.938C174.433 717.151 175.391 718.204 176.25 719.062C184.199 727.012 198.75 721.208 198.75 712.188C193.125 712.188 193.125 712.188 187.5 712.188C187.5 698.81 200.351 702.584 211.875 700.938C212.188 714.375 212.187 714.375 212.5 727.812C199.175 729.716 185.333 731.563 171.875 731.562C158.129 731.562 154.148 708.323 160.625 699.688C171.881 684.68 195.029 682.812 212.5 682.812ZM539.375 683.438C567.736 683.438 552.338 693.982 568.75 702.188C577.585 693.352 584.794 684.897 598.125 691.562C591.875 698.021 585.73 704.582 579.375 710.938C573.999 716.314 575.625 725.834 575.625 733.438C570.8 733.438 565.933 732.733 561.25 731.562C561.25 697.567 547.47 707.722 539.375 683.438ZM416.25 749.688C436.565 749.688 497.674 749.15 516.25 758.438C516.047 758.844 515.743 759.249 515.531 759.656C515.731 759.516 516.105 759.117 516.25 759.062C523.101 756.493 534.219 760.391 541.25 761.562C541.25 770.661 495.203 820.512 488.75 827.188C479.023 837.25 469.271 847.291 459.375 857.188C451.657 864.906 389.512 919.688 376.25 919.688C362.823 919.688 340.107 897.111 329.375 889.062C289.919 859.47 231.257 807.202 208.75 762.188C214.096 759.515 220.536 759.156 224.781 758.406C227.987 757.84 229.236 756.33 231.781 757.562C247.347 749.779 300.496 752.577 318.75 751.562C351.214 749.759 383.742 749.688 416.25 749.688ZM375 165.938C370.272 170.665 371.034 194.303 368.75 203.438C362.77 227.358 351.382 250.18 333.75 267.812C315.141 286.422 292.665 299.997 267.5 307.188C258.061 309.884 233.92 308.268 228.75 313.438C230.905 317.748 259.272 318.412 266.875 320.312C295.878 327.563 318.477 345.04 338.125 364.688C354.013 380.575 364.502 404.572 370 426.562C371.449 432.358 374.382 461.311 376.25 460.938C377.333 460.721 379.518 434.598 380.625 429.062C384.969 407.343 394.036 386.282 408.125 369.062C426 347.215 452.572 328.774 480 320.938C489.404 318.251 517.035 318.903 521.875 314.062C517.98 308.22 492.462 309.052 483.75 306.562C458.537 299.359 435.275 286.212 417.5 268.438C399.801 250.738 385.594 225.486 380 200.312C378.587 193.955 377.574 167.224 375 165.938ZM374.781 216.906C375.016 216.833 375.312 216.834 375.625 217.188C384.14 268.277 416.282 307.469 470 313.438C469.899 313.44 469.789 313.435 469.688 313.438C469.688 314.063 471.25 314.062 471.25 314.688C468.463 314.687 465.991 314.926 463.312 315.188C463.377 315.182 462.643 315.214 462.594 315.219C414.502 320.055 384.395 365.839 375.625 409.688C362.983 359.118 335.28 319.65 279.406 314.062C328.668 305.841 366.514 272.837 373.75 222.188C374.092 219.245 374.375 217.125 374.375 217.125C374.375 217.125 374.547 216.979 374.781 216.906ZM375.625 250.312C375.422 250.313 374.88 250.198 374.625 250.469C374.39 250.719 374.436 251.347 374.375 251.562C370.981 263.44 372.272 274.912 365.75 285.781C354.298 304.868 336.72 312.09 318 314.625C353.2 319.202 369.485 335.601 374.375 374.125C374.537 375.404 374.54 377.39 374.656 378.875C374.798 375.558 375.108 372.301 375.688 369.094C380.425 342.866 395.67 320.574 428.125 315.938C431.07 315.517 437.614 314.12 442.219 313.719C442.086 313.691 441.473 313.615 441.406 313.594C440.734 313.528 440.04 313.523 439.375 313.438C405.241 309.05 375.625 292.232 375.625 250.312ZM468.75 390.188C466.973 390.14 465.092 390.177 463.125 390.312C440.344 391.884 437.554 418.329 429.375 434.688C413.97 465.498 402.434 501.102 390 532.188C380.752 555.309 367.295 578.006 361.25 602.188C376.875 602.188 392.505 602.599 408.125 602.188C408.763 602.171 409.804 597.677 410 597.188C414.899 584.94 419.475 572.563 424.375 560.312C424.592 559.771 425.814 555.945 426.25 555.938C449.371 555.525 472.5 555.938 495.625 555.938C491.764 544.355 481.25 528.637 481.25 516.562C461.562 516.562 461.563 516.562 441.875 516.562C450.26 499.793 458.472 457.465 470 445.938C483.124 485.31 497.717 528.871 516.25 565.938C520.89 575.218 525.29 586.641 528.125 596.562C528.251 597.003 529.152 601.509 530 601.562C546.011 602.576 562.083 601.979 578.125 602.188C564.482 547.616 531.8 487.625 510.625 434.688C501.423 411.682 495.401 390.907 468.75 390.188ZM470.844 395.469C472.967 395.699 475.188 396.263 477.5 397.188C492.783 403.301 498.759 432.521 504.375 446.562C522.95 492.999 544.811 539.119 560.625 586.562C552.292 586.354 543.939 586.546 535.625 585.938C534.946 585.888 533.96 581.462 533.75 580.938C528.493 567.794 524.635 554.088 519.375 540.938C502.027 497.567 488.383 450.829 467.5 409.062C454.85 447.013 436.398 482.994 423.75 520.938C440.833 521.354 457.931 521.365 475 522.188C476.436 522.257 481.534 538.38 482.5 540.312C460.417 540.312 438.33 539.904 416.25 540.312C415.34 540.329 398.691 585.894 398.125 585.938C390.229 586.545 382.292 586.354 374.375 586.562C374.375 572.589 387.888 552.154 393.125 539.062C408.888 499.656 424.863 460.342 440.625 420.938C445.776 408.061 455.983 393.859 470.844 395.469ZM188.75 390.312C188.542 451.562 188.125 512.812 188.125 574.062C188.125 586.887 201.358 600.812 214.375 600.938C256.457 601.344 298.542 601.354 340.625 601.562C340.625 580.625 340.625 580.625 340.625 559.688C287.187 559.375 287.188 559.375 233.75 559.062C233.75 474.687 233.75 474.688 233.75 390.312C211.25 390.312 211.25 390.312 188.75 390.312ZM196.875 395.312C209.063 395.312 209.062 395.312 221.25 395.312C221.25 480 221.25 480 221.25 564.688C274.687 564.688 274.688 564.688 328.125 564.688C328.125 575.625 328.125 575.625 328.125 586.562C290 586.563 251.874 586.765 213.75 586.562C206.287 586.523 196.901 576.503 196.875 569.062C196.67 511.146 196.875 453.229 196.875 395.312ZM413.125 685.938C409.429 687.786 406.869 696.574 405 700.312C412.5 700.312 412.5 700.312 420 700.312C417.655 695.622 414.783 690.912 413.125 685.938ZM268.125 689.688C264.271 693.541 263.032 699.873 260.625 704.688C271.035 703.887 266.034 704.062 275.625 704.062C273.207 699.226 270.585 694.608 268.125 689.688Z" fill="#FFFFFF" fill-rule="nonzero" opacity="1" stroke="none"/>
</g>
</svg>
