<?xml version="1.0" encoding="UTF-8" standalone="no"?>
<!DOCTYPE svg PUBLIC "-//W3C//DTD SVG 1.1//EN" "http://www.w3.org/Graphics/SVG/1.1/DTD/svg11.dtd">
<!-- Created with Vectornator (http://vectornator.io/) -->
<svg height="100%" stroke-miterlimit="10" style="fill-rule:nonzero;clip-rule:evenodd;stroke-linecap:round;stroke-linejoin:round;" version="1.1" viewBox="0 0 750 1000" width="100%" xml:space="preserve" xmlns="http://www.w3.org/2000/svg" xmlns:vectornator="http://vectornator.io" xmlns:xlink="http://www.w3.org/1999/xlink">
<defs/>
<g id="Layer-1" vectornator:layerName="Layer 1">
<path d="M365.838 199.561C362.841 199.642 359.851 199.836 356.871 200.186C354.633 200.448 352.403 200.683 350.151 200.76C344.217 200.965 338.183 202.115 332.292 202.808C311.878 205.21 291.949 211.285 272.569 217.745C217.448 236.119 163.827 279.139 130.319 326.05C106.212 359.8 90.4226 397.442 81.437 437.877C78.6614 450.367 75.4537 464.893 75.2924 477.393C75.0998 492.32 75.0998 507.251 75.2924 522.178C75.2959 522.454 75.8364 522.479 75.8669 522.753C77.1741 534.518 77.9305 546.21 80.263 557.872C82.7162 570.138 86.5073 581.913 89.9296 593.891C91.8568 600.636 94.1883 609.19 97.8226 615.247C102.202 622.546 105.352 631.48 109.238 639.251C113.369 647.513 118.829 655.304 123.6 663.255C143.786 696.898 173.892 724.641 205.553 747.256C240.855 772.472 282.64 787.708 325.848 795.564C335.859 797.384 345.943 797.529 355.996 798.786C368.197 800.311 380.595 799.556 392.889 799.361C416.509 798.986 440.891 792.722 463.727 786.197C471.016 784.114 478.676 781.658 485.383 778.304C487.765 777.113 490.902 776.781 493.276 775.357C500.19 771.208 508.397 768.233 515.232 764.816C527.906 758.479 540.61 750.047 552.124 741.411C597.519 707.365 633.311 661.662 653.985 609.977C698.287 499.222 671.106 376.69 590.466 291.805C575.27 275.81 557.726 260.207 538.661 248.768C532.278 244.938 525.989 239.553 519.053 236.779C502.271 230.066 485.988 219.884 467.224 214.523C443.343 207.7 417.639 200.582 392.889 200.186C383.889 200.042 374.828 199.32 365.838 199.561ZM378.152 210.926C392.307 211.155 406.233 212.345 420.39 214.523C481.649 223.948 539.071 253.829 581.973 298.824C597.552 315.163 611.371 332.783 622.962 352.103C632.902 368.669 641.364 385.102 647.541 403.632C664.447 454.35 668.932 508.632 657.207 561.394C653.365 578.684 648.483 597.876 640.522 613.798C637.326 620.191 634.027 626.376 631.455 632.807C629.176 638.503 625.233 643.975 622.088 649.217C611.053 667.61 597.758 685.237 582.573 700.422C528.802 754.193 457.022 788.82 379.726 788.82C346.836 788.82 313.925 783.971 282.835 773.608C268.503 768.83 255.044 761.627 241.846 756.348C237.885 754.764 234.47 751.773 230.731 749.904C211.395 740.236 191.826 725.036 176.579 709.789C105.656 638.866 72.3554 548.71 90.8038 447.244C94.5375 426.708 99.8163 404.316 109.238 385.473C122.53 358.889 136.925 332.889 157.246 309.665C209.76 249.648 284.458 213.342 363.914 211.026C368.698 210.887 373.434 210.85 378.152 210.926ZM375.155 231.833C374.123 231.812 373.11 231.872 372.107 232.083C370.475 232.426 370.933 233.835 370.933 235.305C370.933 244.379 370.742 253.459 370.933 262.531C371.007 266.017 379.102 265.438 379.126 264.279C379.317 254.915 379.126 245.546 379.126 236.179C379.126 235.17 379.93 232.292 378.252 232.083C377.235 231.956 376.187 231.854 375.155 231.833ZM339.461 234.331C338.374 234.273 337.249 234.304 336.089 234.431C311.972 237.055 319.619 273.461 342.258 267.801C346.797 266.667 359.005 257.706 351.325 255.512C350.27 255.211 348.297 254.16 347.229 254.338C345.378 254.647 344.61 259.021 342.258 259.609C336.82 260.968 330.172 259.986 329.37 253.164C329.176 251.519 328.688 249.23 329.669 247.594C332.566 242.767 334.925 242.07 340.785 242.349C342.415 242.426 345.389 246.489 346.355 245.846C347.851 244.848 350.477 242.761 351.625 241.449C352.259 240.725 348.765 237.934 348.403 237.653C345.68 235.535 342.72 234.504 339.461 234.331ZM411.023 234.431C388.527 236.135 391.685 268.376 414.845 268.376C424.158 268.376 431.595 256.038 429.182 247.594C426.637 238.687 419.565 233.783 411.023 234.431ZM413.246 241.474C415.883 241.585 418.064 242.878 420.115 245.271C424.33 250.188 421.139 261.082 413.971 261.082C401.641 261.082 398.416 244.515 410.449 241.749C411.447 241.52 412.367 241.437 413.246 241.474ZM450.838 242.923C449.481 243.376 448.376 248.862 447.916 250.242C446.632 254.093 439.31 270.52 440.023 273.372C440.316 274.544 445.534 275.69 446.742 276.294C450.689 272.347 449.38 263.414 453.486 259.309C457.397 263.22 457.664 279.242 462.253 281.864C462.852 282.206 466.789 283.435 467.524 283.313C468.421 283.163 469.826 277.331 470.171 276.294C472.101 270.505 474.381 264.814 476.316 259.009C476.692 257.882 478.776 254.401 478.364 253.164C477.687 251.132 471.681 250.247 470.746 251.416C467.557 255.402 468.631 263.197 464.901 266.927C459.281 261.307 462.313 247.328 453.486 243.797C452.937 243.578 451.386 242.741 450.838 242.923ZM286.632 247.02C285.043 247.417 281.545 248.01 281.062 249.942C279.655 255.572 280.215 267.728 279.888 273.946C279.739 276.773 279.785 279.613 279.613 282.439C279.565 283.241 278.805 283.754 279.888 284.187C280.825 284.562 287.072 282.341 287.207 281.265C287.471 279.152 285.726 275.674 288.106 274.246C291.37 272.287 296.026 271.897 299.521 270.149C301.229 271.858 302.696 273.804 304.492 275.42C305.2 276.058 312.239 273.055 311.81 272.198C310.278 269.133 305.022 265.326 302.718 262.831C298.022 257.744 293.255 250.849 286.632 247.02ZM288.381 257.261C290.268 259.337 293.223 261.974 294.525 264.579C293.914 265.19 287.345 268.57 287.207 266.627C287.123 265.456 287.416 264.302 287.506 263.13C287.592 262.016 287.216 258.425 288.381 257.261ZM249.739 263.13C248.65 262.586 243.89 266.275 243.02 266.927C245.649 272.185 248.879 277.326 252.087 282.139C251.795 282.432 251.806 282.446 251.513 282.738C248.348 281.156 244.619 280.255 241.272 278.917C235.646 276.666 229.313 272.671 224.587 278.342C224.106 278.918 228.181 284.608 228.683 285.361C231.787 290.017 234.781 295.35 237.75 300.298C238.646 301.792 239.868 304.79 241.272 305.843C242.027 306.41 247.726 302.091 247.417 301.472C245.051 296.741 241.641 291.36 238.624 286.835C238.917 286.542 238.931 286.528 239.224 286.235C241.908 288.025 246.548 288.993 249.739 290.057C254.87 291.767 262.106 296.69 266.425 290.931C266.899 290.298 262.892 284.757 262.328 283.912C258.551 278.247 255.284 272.454 251.788 266.627C251.279 265.779 250.543 263.532 249.739 263.13ZM508.513 268.101C500.679 272.018 493.426 279.067 486.257 284.187C485.51 284.721 479.993 288.344 480.412 289.183C480.852 290.062 482.523 290.744 483.335 291.231C489.55 294.96 488.665 288.414 493.276 289.183C493.803 289.271 503.528 295.28 503.542 295.327C504.097 297.176 502.83 300.955 502.943 302.646C503.046 304.199 508.86 306.21 509.961 305.843C509.961 296.697 512.183 286.844 513.483 277.743C513.995 274.16 514.775 268.687 508.513 268.101ZM505.865 278.642C507.279 279.349 505.461 287.239 504.416 288.283C502.33 287.241 499.943 286.048 498.546 284.187C499.313 283.548 504.994 278.206 505.865 278.642ZM368.835 285.636C327.114 286.648 285.294 299.179 252.962 323.428C253.973 324.945 262.677 324.191 262.928 324.002C272.297 316.975 283.556 311.894 294.25 307.617C319.491 297.52 345.011 292.364 372.407 291.805C401.305 291.216 428.549 296.762 454.935 307.317C462.642 310.4 469.748 313.872 476.89 318.157C479.333 319.623 484.434 324.045 487.131 324.302C488.186 324.402 495.571 324.93 496.798 323.702C495.017 320.14 487.058 316.989 483.635 314.935C470.397 306.992 456.86 301.231 441.771 296.202C418.866 288.567 393.868 285.028 368.835 285.636ZM541.584 290.631C534.049 298.166 526.901 306.678 520.502 315.21C524.351 319.058 528.658 322.508 532.791 326.05C533.413 326.583 535.782 329.197 536.613 328.698C538.326 327.671 539.918 325.065 541.009 323.428C538.132 320.139 534.698 317.432 531.343 314.635C534.793 307.735 542.473 301.843 547.154 295.602C545.041 293.297 544.115 291.897 541.584 290.631ZM206.128 296.776C199.422 296.382 195.603 301.102 190.916 305.269C189.729 306.324 186.719 307.537 187.694 308.79C193.751 316.579 201.288 323.673 207.901 331.021C207.963 330.98 208.016 331.003 208.076 330.971C208.004 330.885 207.993 330.856 207.901 330.746C208.34 330.307 208.336 330.286 208.775 329.847C209.637 330.278 209.139 330.209 210.224 329.847C210.579 330.32 210.704 330.471 210.948 330.796C211.19 330.735 211.437 330.67 211.698 330.446C212.799 329.503 213.847 328.5 214.92 327.524C212.41 324.735 208.706 321.566 207.002 318.157C207.295 317.865 207.309 317.851 207.601 317.558C209.454 318.484 220.928 319.906 223.413 319.906C224.304 319.906 228.846 314.994 229.857 314.061C226.581 310.785 217.933 312.932 213.746 310.839C212.162 310.047 213.746 305.579 213.746 304.394C213.746 301.56 208.783 296.932 206.128 296.776ZM203.205 304.095C205.464 304.785 208.301 306.917 206.427 308.79C203.378 311.84 201.979 313.372 201.457 312.887C200.038 311.569 198.501 310.223 197.635 308.491C199.375 306.944 201.109 305.143 203.205 304.095ZM210.948 330.796C209.99 331.039 209.14 330.401 208.076 330.971C208.576 331.571 208.71 331.727 209.35 332.495C210.429 331.955 209.798 332.346 211.123 331.021C211.039 330.908 211.007 330.874 210.948 330.796ZM171.583 326.65C170.165 326.177 162.204 337.024 160.767 338.939C160.438 339.379 158.163 341.758 158.42 342.161C162.313 348.28 171.372 353.337 177.153 357.673C178.504 358.686 181.795 362.344 183.597 362.344C184.767 362.344 195.18 348.491 196.486 346.532C190.761 339.853 190.468 342.112 185.646 348.006C185.189 348.564 183.073 352.003 182.124 351.528C181.092 351.012 179.792 349.593 178.902 348.88C180.694 346.491 183.663 343.758 184.771 340.987C185.176 339.977 180.23 335.832 178.902 336.591C175.226 338.691 173.687 347.903 169.26 341.262C167.257 338.258 184.075 330.814 171.583 326.65ZM447.641 331.071C379.155 330.626 310.641 332.653 242.146 332.794C239.732 332.799 232.485 331.16 232.48 334.243C232.382 387.614 232.18 440.982 232.18 494.353C232.18 565.905 262.599 634.685 317.955 680.814C329.692 690.595 342.416 700.076 355.996 706.867C358.49 708.113 360.881 710.279 363.615 710.963C367.368 711.901 371.954 717.521 375.904 716.533C379.956 715.52 383.964 712.216 387.619 710.389C396.584 705.906 405.655 700.413 414.245 694.278C448.03 670.145 474.602 638.856 492.702 602.658C509.792 568.476 517.136 530.432 517.28 492.03C517.46 444.025 517.58 396.011 517.58 348.006C517.58 342.812 521.297 332.69 516.106 332.495C493.291 331.636 470.47 331.219 447.641 331.071ZM374.805 338.115C420.101 338.114 465.436 338.193 510.861 338.34C511.275 338.341 511.732 338.8 511.735 339.214C512.026 388.876 511.735 438.545 511.735 488.208C511.735 561.419 487.413 622.621 432.979 672.322C421.478 682.822 403.596 697.568 389.092 703.37C385.736 704.712 378.023 710.688 375.329 710.688C372.508 710.688 365.278 705.513 362.141 703.944C347.375 696.561 333.153 686.743 320.577 675.844C266.696 629.147 238.05 564.387 238.05 493.479C238.05 442.059 237.759 390.633 238.05 339.214C238.052 338.8 238.51 338.341 238.924 338.34C284.246 338.194 329.509 338.115 374.805 338.115ZM585.495 334.843C578.977 337.363 573.346 343.353 567.636 347.432C565.461 348.985 560.79 351.032 559.443 353.276C558.813 354.326 563.676 359.911 564.414 360.895C568.847 366.806 576.698 372.887 584.896 368.788C595.782 363.345 597.867 352.227 591.34 342.436C590.266 340.825 587.204 334.182 585.495 334.843ZM583.722 344.784C595.274 359.016 576.476 370.356 569.11 355.624C573.757 351.906 579.53 348.976 583.722 344.784ZM222.813 348.581C148.404 422.99 139.756 543.637 202.906 627.836C211.27 638.989 220.838 649.347 231.006 658.859C256.61 682.81 285.364 695.628 317.355 706.292C324.599 708.707 332.364 709.891 339.91 711.263C341.351 711.525 344.69 712.902 345.755 711.837C339.337 703.279 327.154 703.489 317.955 700.422C301.132 694.815 284.896 688.79 269.647 679.64C218.509 648.958 180.772 597.948 170.134 539.438C162.342 496.583 166.654 449.783 186.22 410.651C194.518 394.055 204.579 377.977 216.968 363.817C221.833 358.258 224.001 357.887 223.687 350.354C223.64 349.228 223.468 349.236 222.813 348.581ZM526.647 348.581C524.848 350.38 525.974 353.656 526.072 356.199C526.148 358.178 531.953 362.715 533.391 364.392C544.988 377.921 554.554 392.98 562.366 408.603C581.427 446.725 587.534 492.988 580.525 535.042C570.223 596.849 530.909 649.182 477.19 681.414C464.02 689.316 448.877 695.256 433.853 699.548C422.921 702.671 413.399 704.287 404.304 711.562C405.883 713.142 411.264 711.385 413.371 710.963C420.698 709.498 427.837 707.747 435.027 705.693C466.308 696.755 496.095 680.344 519.928 657.41C529.564 648.137 538.402 638.917 546.554 628.435C563.644 606.463 572.792 583.117 581.399 557.298C583.875 549.868 586.173 541.005 586.944 533.294C588.628 516.457 589.208 499.725 588.992 482.663C588.831 469.949 585.343 456.875 582.273 444.596C581.449 441.298 580.857 436.794 579.351 433.781C576.825 428.73 575.085 422.542 572.906 417.096C571.475 413.518 568.792 409.681 567.936 406.255C566.847 401.902 563.211 397.231 560.892 393.366C551.135 377.104 540.156 362.09 526.647 348.581ZM147.604 358.247C145.152 360.699 143.777 364.428 142.334 367.314C140.494 370.994 137.391 374.401 135.889 378.155C135.405 379.365 140.431 383.281 141.434 382.851C143.564 381.938 144.732 377.971 146.13 376.106C153.27 379.676 159.927 384.907 167.212 387.821C168.539 388.352 172.235 382.549 171.008 381.077C168.911 378.56 157.508 372.53 154.023 371.136C153.284 370.84 151.024 369.916 150.526 369.088C149.283 367.015 154.561 363.993 153.449 361.769C152.69 360.251 149.847 359.45 147.604 358.247ZM311.96 367.689C311.079 367.794 310.245 368.038 309.462 368.488C303.48 371.926 299.704 378.247 294.825 383.125C289.849 378.247 285.964 371.901 279.888 368.488C276.656 366.672 272.476 368.303 268.773 368.488C268.497 368.502 268.211 368.812 268.198 369.088C268.013 372.986 268.198 376.875 268.198 380.777C268.198 380.973 268.198 381.182 268.198 381.377C268.198 389.573 268.008 397.762 268.198 405.955C268.205 406.231 268.497 406.54 268.773 406.555C272.281 406.739 275.806 406.739 279.314 406.555C279.589 406.54 279.878 406.231 279.888 405.955C280.076 400.885 279.816 395.817 279.888 390.744C279.916 388.771 279.392 386.294 280.787 384.899C282.739 386.85 284.648 388.826 286.632 390.744C288.291 392.347 292.371 397.931 294.525 398.362C295.534 398.564 297.035 396.152 297.473 395.714C301.229 391.958 305.082 388.307 308.888 384.599C309.083 384.794 309.455 384.898 309.462 385.174C309.652 392.098 309.272 399.03 309.462 405.955C309.47 406.231 309.775 406.467 310.037 406.555C312.83 407.486 321.161 406.975 321.177 405.955C321.369 393.76 321.463 381.555 321.177 369.362C321.167 368.949 320.715 368.519 320.303 368.488C317.603 368.286 314.602 367.373 311.96 367.689ZM417.717 368.039C417.049 368.065 416.355 368.213 415.719 368.213C413.278 368.213 410.827 368.219 408.4 368.488C408.126 368.519 407.846 368.812 407.826 369.088C406.918 381.348 407.743 393.666 408.101 405.955C408.109 406.231 408.425 406.539 408.7 406.555C411.817 406.738 414.945 406.555 418.067 406.555C418.262 406.555 418.46 406.627 418.641 406.555C418.968 406.424 419.501 406.307 419.516 405.955C419.8 399.131 419.326 392.301 419.516 385.473C419.523 385.197 419.92 385.094 420.115 384.899C424.75 389.534 429.465 394.055 434.153 398.637C441.324 391.465 441.319 391.471 448.49 384.299C448.685 384.494 449.082 384.623 449.09 384.899C449.28 391.824 448.996 398.754 449.09 405.681C449.094 405.989 449.292 406.262 449.39 406.555C452.85 406.555 456.692 406.756 459.905 406.555C460.181 406.538 460.501 406.231 460.505 405.955C460.697 393.663 460.697 381.38 460.505 369.088C460.5 368.812 460.181 368.502 459.905 368.488C456.3 368.303 452.558 367.488 449.09 368.488C447.101 369.062 446.198 371.463 444.694 372.884C441.115 376.264 437.868 379.941 434.153 383.125C429.274 378.247 424.878 372.829 419.516 368.488C419.021 368.088 418.386 368.012 417.717 368.039ZM335.664 368.188C333.955 368.25 332.246 368.35 330.544 368.488C330.328 368.506 329.672 369.401 329.669 369.662C329.573 381.273 329.575 392.896 329.669 404.507C329.673 404.909 329.745 405.331 329.944 405.681C331.129 407.754 339.089 407.125 341.084 406.555C341.35 406.479 341.655 406.231 341.659 405.955C341.851 393.663 341.945 381.378 341.659 369.088C341.649 368.674 341.198 368.235 340.785 368.213C339.079 368.124 337.373 368.127 335.664 368.188ZM369.185 368.213C365.638 368.213 364.415 373.058 363.04 375.807C359.528 382.831 356.124 390.513 352.499 397.762C351.63 399.502 348.3 404.064 348.678 405.955C348.808 406.604 359.142 407.894 360.692 405.955C362.774 403.353 362.813 399.739 365.363 397.188C368.751 400.398 371.474 402.642 374.455 405.955C377.672 402.928 380.874 399.91 384.097 396.888C386.677 399.468 387.429 406.555 391.415 406.555C394.44 406.555 397.488 406.738 400.507 406.555C400.783 406.538 400.958 406.202 401.082 405.955C401.552 405.015 398.201 399.643 397.56 398.362C393.974 391.19 390.449 383.541 387.019 376.681C386.513 375.668 383.876 368.565 382.648 368.488C378.167 368.208 373.674 368.213 369.185 368.213ZM374.73 376.981C377.234 380.32 378.796 383.914 380.6 387.521C377.673 390.449 377.657 390.439 374.73 393.366C372.446 392.224 370.78 390.09 369.185 388.096C368.828 387.65 373.795 377.916 374.73 376.981ZM470.171 368.488C469.896 368.509 469.576 368.812 469.572 369.088C469.38 381.38 469.38 393.663 469.572 405.955C469.576 406.231 469.896 406.54 470.171 406.555C473.581 406.739 477.008 406.824 480.412 406.555C480.825 406.522 481.265 406.094 481.287 405.681C481.564 400.321 481.65 394.924 481.287 389.57C481.249 389.019 481.69 376.082 481.411 370.137C481.344 368.703 472.538 368.308 470.171 368.488ZM610.948 374.058C609.717 373.32 605.99 376.237 605.103 376.681C599.913 379.276 592.776 381.474 587.843 385.174C585.993 386.561 583.231 386.839 581.674 388.396C584.579 394.206 587.353 401.513 591.34 406.83C593.085 406.248 596.01 404.833 597.21 403.333C597.434 403.053 592.698 392.886 592.214 391.918C597.256 386.875 598.886 395.007 601.306 398.637C603.161 397.709 606.189 397.307 607.451 395.415C609.972 391.633 598.525 388.762 607.451 384.299C610.674 387.522 610.681 392.5 613.895 395.714C615.877 394.723 618.6 394.018 620.04 392.217C620.404 391.763 618.539 388.778 618.267 388.096C617.315 385.718 612.94 375.253 610.948 374.058ZM127.397 398.062C125.619 398.655 125.229 403.271 124.474 404.781C128.431 408.738 137.052 407.418 141.16 411.525C136.504 416.181 115.445 415.513 117.455 425.563C117.696 426.765 124.09 428.007 125.349 428.511C131.169 430.839 137.263 432.674 143.208 434.655C144.473 435.077 146.516 436.299 147.879 436.104C148.368 436.034 149.166 433.667 149.652 433.181C149.048 431.974 150.421 430.747 150.227 429.385C150.08 428.359 135.862 424.687 134.116 422.94C134.923 421.73 136.527 421.662 137.937 421.192C144.123 419.13 154.816 417.415 156.971 410.951C157.109 410.536 157.93 409.03 157.845 408.603C157.662 407.686 151.631 406.324 150.526 405.955C144.844 404.061 139.215 402.002 133.541 400.11C132.218 399.669 128.76 397.608 127.397 398.062ZM374.73 426.737C371.121 430.346 373.215 438.793 369.46 442.548C367.416 441.016 358.602 432.007 357.17 432.007C355.405 432.007 359.239 445.812 360.093 447.519C359.262 448.35 346.1 445.193 344.307 444.297C344.014 444.589 344 444.603 343.707 444.896C345.732 448.946 351.649 452.543 355.122 455.437C351.113 459.446 343.137 458.929 339.036 463.03C340.181 464.556 339.434 464.239 341.359 464.204C346.238 464.116 351.125 464.211 355.996 463.93C357.014 463.871 356.954 459.69 357.17 458.934C357.771 456.83 358.754 454.811 360.093 453.089C364.854 446.968 369.91 445.471 377.652 445.471C382.753 445.471 390.271 451.435 391.415 456.011C391.703 457.162 392.184 461.23 393.014 463.005C393.108 462.905 393.074 462.87 393.189 462.756C394.023 463.59 393.915 463.526 394.113 463.93C398.77 464.168 403.437 463.845 408.101 463.93C410.581 463.975 409.23 464.848 410.748 463.33C407.823 458.941 398.528 459.328 394.638 455.437C396.794 453.28 406.77 445.888 405.178 444.297C403.686 445.043 401.019 445.349 399.333 445.77C397.679 446.184 395.987 446.473 394.338 446.944C393.434 447.202 391.154 448.301 390.241 448.118C388.004 447.671 394.547 433.391 392.889 431.733C388.64 435.375 384.669 439.353 380.3 442.848C376.605 439.153 378.602 430.609 374.73 426.737ZM394.113 463.93C393.997 463.924 393.88 463.936 393.763 463.93C393.476 463.913 393.241 463.491 393.014 463.005C392.295 463.77 392.259 464.365 392.639 465.029C392.726 465.178 392.852 465.308 392.914 465.478C393.048 465.661 393.004 465.746 393.189 465.978C393.922 465.244 393.605 464.937 394.338 464.204C394.246 464.021 394.16 464.025 394.113 463.93ZM392.914 465.478C392.79 465.31 392.719 465.168 392.639 465.029C392.534 464.848 392.434 464.649 392.29 464.504C385.869 470.924 376.237 473.982 367.137 470.948C362.881 469.53 360.468 466.141 356.596 464.204C352.85 467.95 363.499 478.717 365.663 480.015C374.818 485.508 383.651 481.036 390.241 474.445C392.091 472.596 393.83 467.986 392.914 465.478ZM335.314 430.059C333.039 430.291 330.547 430.929 328.495 430.834C324.791 430.661 321.062 430.424 317.355 430.559C315.403 430.63 313.457 430.664 311.51 430.834C307.27 431.202 308.675 432.066 304.791 434.655C303.795 435.32 299.67 435.265 298.347 435.529C292.881 436.623 287.219 437.741 281.662 438.752C278.302 439.362 271.878 439.143 269.647 441.374C270.228 442.246 270.386 442.556 271.42 442.548C284.105 442.452 296.778 442.249 309.462 442.249C311.907 442.249 319.448 440.953 320.577 445.471C321.14 447.72 320.861 451.189 317.955 451.915C313.596 453.005 308.978 452.29 304.492 452.515C291.856 453.146 283.84 471.786 291.603 481.489C295.31 486.124 299.712 490.14 303.892 494.353C325.03 515.658 346.19 536.95 367.411 558.172C368.729 559.49 370.142 560.7 371.508 561.969C372.316 561.16 372.468 547.994 372.107 547.631C353.325 528.752 334.438 509.962 315.607 491.131C317.268 489.469 320.568 489.422 322.626 490.556C325.889 492.354 327.901 495.823 330.544 498.449C343.805 511.629 357.138 524.744 370.359 537.965C370.704 538.31 370.94 538.748 371.233 539.139C372.679 538.054 373.001 527.184 372.107 526.275C360.496 514.47 348.697 502.839 336.988 491.131C337.183 490.936 337.288 490.579 337.563 490.556C339.702 490.378 342.26 489.309 344.007 490.556C350.182 494.967 354.685 501.342 360.093 506.667C363.799 510.316 368.104 513.611 371.233 517.782C373.774 515.876 371.711 510.839 370.933 508.116C368.001 497.852 359.569 485.086 348.678 482.363C338.769 479.886 331.178 479.367 320.003 479.141C315.027 479.041 310.04 479.029 305.066 478.841C303.59 478.786 301.174 476.006 300.67 474.745C294.671 459.749 318.663 466.397 325.573 460.408C331.493 455.277 332.292 451.919 332.292 444.022C332.292 441.061 328.196 438.763 328.196 436.404C328.196 435.335 339.229 433.288 340.785 431.733C339.645 430.024 337.59 429.828 335.314 430.059ZM312.534 434.156C313.95 433.956 315.623 434.523 317.08 434.655C318.355 434.771 318.355 438.336 317.08 438.452C316.4 438.514 305.761 438.511 311.211 434.655C311.609 434.373 312.063 434.222 312.534 434.156ZM427.134 430.259C422.938 430.194 418.74 430.423 414.545 430.559C412.476 430.625 409.864 429.969 408.4 431.433C411.563 434.595 418.433 432.973 421.564 436.104C420.264 438.704 418.505 440.47 417.767 443.422C415.687 451.742 421.166 462.363 430.356 463.33C435.02 463.821 439.729 463.713 444.394 464.204C448.266 464.612 451.019 471.23 449.09 474.445C444.99 481.278 436.128 478.689 429.182 478.841C419.075 479.064 410.698 478.447 401.656 482.064C390.529 486.514 382.791 496.247 379.126 507.242C378.321 509.657 376.279 516.409 377.952 518.082C380.349 516.084 382.227 513.807 384.396 511.638C391.471 504.564 397.78 496.599 405.753 490.556C407.464 489.26 410.058 490.378 412.197 490.556C412.472 490.579 412.601 490.936 412.797 491.131C401.088 502.839 389.264 514.47 377.652 526.275C376.006 527.948 376.758 538.244 377.952 539.438C394.344 523.144 409.774 505.815 427.134 490.556C428.746 489.139 431.439 490.378 433.578 490.556C433.853 490.579 433.958 490.936 434.153 491.131C415.224 510.059 396.064 528.763 377.378 547.931C376.952 548.367 376.488 560.505 377.952 561.969C401.467 538.552 425.025 515.196 448.49 491.73C457.413 482.808 466.747 471.58 456.708 459.533C449.757 451.192 443.159 453.957 432.704 452.215C429.447 451.672 427.11 447.363 429.482 444.596C440.836 431.35 465.983 453.181 478.064 441.1C476.46 439.495 466.526 438.712 463.727 438.152C457.717 436.95 450.4 436.795 444.694 434.655C443.174 434.085 442.736 431.44 440.897 431.133C436.804 430.451 431.254 430.322 427.134 430.259ZM434.003 434.156C435.418 433.956 437.091 434.523 438.549 434.655C439.824 434.771 439.824 438.336 438.549 438.452C437.868 438.514 427.254 438.511 432.704 434.655C433.102 434.373 433.531 434.222 434.003 434.156ZM631.555 432.732C629.138 433.002 625.654 434.352 624.136 434.655C619.689 435.545 606.155 437.3 603.055 439.626C601.484 440.804 603.031 446.046 604.229 447.244C607.426 445.645 612.011 446.563 615.344 444.896C617.178 446.73 616.359 453.023 618.866 453.963C620.033 454.401 621.591 453.695 622.663 453.389C628.985 451.582 619.785 439.92 627.933 442.249C629.237 442.621 628.666 443.449 628.807 444.297C629.89 450.791 629.467 455.241 637 453.089C639.454 452.388 635.694 433.977 633.503 432.882C633.046 432.653 632.361 432.642 631.555 432.732ZM113.634 448.418C110.418 449.222 111.796 453.268 110.711 455.437C112.359 457.085 116.564 457.017 118.904 457.485C125.085 458.721 136.385 462.176 142.334 461.582C143.707 461.444 144.419 454.431 143.483 453.963C141.197 452.82 136.984 452.981 134.416 452.515C131.696 452.02 128.947 451.536 126.223 451.041C122.343 450.335 118.431 449.493 113.634 448.418ZM639.848 469.4C639.109 469.312 638.296 469.434 637.874 469.475C631.78 470.069 620.734 468.355 615.344 472.397C613.375 473.874 610.416 475.699 609.774 478.267C608.22 484.484 608.477 494.915 616.818 497.001C621.383 498.142 625.906 497.575 631.155 497.575C634.675 497.575 638.834 497.494 642.27 496.701C643.753 496.359 642.978 489.201 641.996 488.808C637.59 487.046 618.561 493.734 616.818 486.759C613.459 473.326 634.96 480.91 640.822 477.393C642.848 476.177 641.452 470.996 641.396 470.649C641.258 469.787 640.586 469.487 639.848 469.4ZM644.618 480.615C640.129 483.712 651.232 491.861 652.237 491.43C655.268 490.132 652.865 489.609 652.237 487.933C651.722 486.56 652.293 484.96 651.937 483.537C651.672 482.479 645.633 479.915 644.618 480.615ZM129.145 500.797C126.245 501.377 123.989 503.165 122.126 505.493C117.784 502.598 108.521 504.171 107.789 510.763C107.303 515.137 107.537 519.951 107.789 524.227C107.825 524.847 108.234 526.258 108.963 526.55C110.669 527.232 114.487 526.348 115.982 526.275C121.656 525.998 127.3 525.755 132.967 525.401C135.783 525.225 140.69 525.545 140.86 523.927C141.789 515.097 141.559 503.535 129.145 500.797ZM129.745 507.816C134.247 506.794 134.578 517.871 133.242 518.082C131.518 518.354 126.948 519.741 126.822 516.608C126.642 512.111 125.562 508.765 129.745 507.816ZM116.856 511.038C121.213 510.177 122.688 518.249 120.653 518.657C118.73 519.041 116.757 519.448 114.808 519.231C114.533 519.201 114.252 518.932 114.233 518.657C114.038 515.727 113.672 511.667 116.856 511.038ZM635.551 512.512C634.123 513.94 635.604 520.177 633.778 520.405C630.405 520.827 608.3 519.306 608.3 519.306C608.3 519.306 607.48 525.802 608.9 526.275C616.146 528.69 625.139 526.555 632.629 528.598C633.921 528.95 632.901 536.471 632.904 536.516C632.956 537.459 639.146 537.429 639.648 537.39C640.523 537.323 640.91 529.294 641.097 527.149C641.423 523.399 641.695 519.793 641.996 516.034C642.321 511.973 640.002 513.251 635.551 512.512ZM428.008 519.531C426.35 521.189 423.556 522.214 423.038 524.501C421.787 530.021 424.342 535.98 423.038 541.487C422.465 543.903 419.55 545.028 417.767 546.757C416.33 548.151 414.835 549.487 413.371 550.853C410.193 547.675 415.152 538.871 411.922 535.642C411.415 536.149 406.666 540.807 406.652 540.912C405.887 546.519 409.731 553.124 406.652 557.872C398.619 570.26 385.913 578.9 375.329 589.195C375.12 589.399 374.665 589.399 374.455 589.195C363.872 578.9 351.235 570.215 343.133 557.872C340.134 553.304 344.424 546.796 343.133 541.487C342.546 539.073 339.619 537.972 337.862 536.216C333.22 539.311 340.195 547.047 336.389 550.853C335.413 549.878 334.457 548.891 333.466 547.931C331.237 545.769 327.6 544.465 326.722 541.487C325.177 536.246 328.013 530.41 326.722 525.101C326.135 522.688 323.208 521.587 321.452 519.831C320.184 520.676 320.555 520.079 320.577 521.879C320.669 529.099 320.687 536.316 320.877 543.535C321.068 550.797 337.072 553.258 337.263 560.52C337.994 588.318 337.486 616.14 337.263 643.947C337.261 644.223 336.958 644.461 336.688 644.521C331.83 645.601 326.719 644.51 321.751 644.821C319.218 644.979 320.456 648.997 320.577 650.091C320.783 651.944 324.284 650.64 326.148 650.666C331.612 650.741 337.069 651.06 342.533 650.966C342.809 650.961 343.066 650.634 343.133 650.366C343.322 649.609 343.133 648.824 343.133 648.043C343.133 621.114 342.939 594.168 343.133 567.239C343.135 566.963 343.512 566.86 343.707 566.664C357.172 580.129 357.169 580.126 370.634 593.591C363.608 600.762 363.621 600.757 356.596 607.928C362.645 613.978 369.984 618.969 374.73 626.087C381.629 620.913 387.036 613.971 393.189 607.928C386.164 600.903 386.151 600.916 379.126 593.891C387.712 585.207 396.243 576.474 404.879 567.838C404.896 567.821 406.635 566.295 406.652 567.838C406.942 593.888 406.652 619.944 406.652 645.995C406.652 647.267 405.592 650.921 407.226 650.966C414.249 651.155 421.285 651.155 428.308 650.966C430.18 650.915 430.192 644.591 428.308 644.521C423.238 644.333 418.142 644.709 413.071 644.521C412.796 644.511 412.499 644.223 412.497 643.947C412.303 616.14 412.4 588.327 412.497 560.52C412.498 560.302 412.644 560.076 412.797 559.92C418.018 554.604 423.387 549.45 428.608 544.134C428.761 543.979 428.879 543.753 428.882 543.535C428.977 537.291 428.961 531.045 428.882 524.801C428.86 523.021 429.267 520.79 428.008 519.531ZM374.455 597.687C374.672 597.491 375.11 597.493 375.329 597.687C378.584 600.57 381.577 603.727 384.696 606.754C384.83 606.884 385.688 607.487 385.271 607.928C382.049 611.339 378.784 614.72 375.329 617.895C375.114 618.093 374.671 618.093 374.455 617.895C371.001 614.72 367.71 611.339 364.489 607.928C364.355 607.786 364.372 607.51 364.489 607.354C366.862 604.19 371.451 600.414 374.455 597.687ZM134.815 543.785C133.444 543.654 132.089 543.647 130.919 543.834C127.96 544.308 125.043 545.154 122.126 545.883C120.186 546.368 112.006 547.218 111.286 549.38C111.039 550.121 111.971 552.345 112.185 553.201C112.371 553.946 112.403 555.813 113.334 556.124C120.486 558.508 139.386 543.041 139.386 559.046C139.386 564.127 119.97 564.678 116.556 567.239C115.352 568.142 116.239 574.069 118.03 574.558C123.733 576.113 144.356 569.09 146.43 562.868C148.346 557.12 146.438 545.934 138.812 544.409C137.566 544.16 136.187 543.915 134.815 543.785ZM605.678 547.331C602.612 547.447 603.219 555.419 602.455 558.472C600.484 566.358 602.733 573.683 612.122 573.683C613.976 573.683 615.442 571.335 616.818 571.335C618.186 571.335 619.548 573.736 620.914 574.283C625.879 576.269 629.445 573.615 632.629 570.186C634.087 568.617 636.945 555.277 636.126 554.95C632.196 553.378 627.135 552.771 622.962 551.728C617.215 550.291 611.607 547.109 605.678 547.331ZM610.373 556.124C612.006 555.824 613.934 556.593 615.344 557.298C617.619 558.435 613.94 569.587 610.074 566.365C609.383 565.789 608.4 565.213 608.325 564.317C608.227 563.134 608.612 561.971 608.9 560.82C609.316 559.154 608.645 556.441 610.373 556.124ZM623.712 559.196C625.483 559.369 628.173 560.392 628.508 561.394C629.002 562.879 626.725 567.324 625.011 567.539C620.394 568.116 619.387 561.182 622.363 559.346C622.623 559.185 623.121 559.138 623.712 559.196ZM151.401 577.205C149.963 577.684 146.557 578.376 145.831 579.828C144.247 582.995 152.001 589.106 149.352 592.417C146.398 596.11 129.898 597.38 127.696 601.784C126.493 604.191 130.019 608.711 132.367 607.928C141.53 604.874 152.297 601.186 160.168 595.939C158.668 589.939 155.665 582.111 151.401 577.205ZM601.007 588.021C579.334 589.591 582.148 621.691 605.403 621.691C615.962 621.691 623.788 606.39 618.566 597.687C614.016 590.104 609.394 587.413 601.007 588.021ZM602.405 594.99C607.146 594.7 612.484 598.198 612.996 603.832C613.405 608.334 609.492 614.373 604.529 614.373C592.148 614.373 588.7 599.042 600.407 595.339C601.043 595.138 601.728 595.031 602.405 594.99ZM162.891 613.673C161.327 613.462 159.887 613.779 158.719 614.947C159.915 616.741 159.089 619.246 159.294 621.392C159.364 622.125 164.317 622.268 165.438 623.165C168.546 625.651 169.835 628.226 169.835 632.232C169.835 638.089 159.957 643.006 155.497 638.951C152.428 636.161 151.401 634.051 151.401 629.884C151.401 628.978 152.56 626.943 152.275 626.087C151.579 623.998 147.726 623.561 146.43 622.266C142.468 624.247 143.253 632.642 144.382 636.029C147.38 645.024 160.081 652.654 168.96 645.995C175.959 640.746 181.291 630.514 175.105 622.266C173.26 619.806 167.581 614.306 162.891 613.673ZM574.08 624.913C569.923 624.682 563.652 637.438 562.366 641.299C561.907 642.674 567.075 646.569 568.51 645.995C571.125 644.949 573.378 635.419 576.428 636.029C580.008 636.745 587.986 644.077 591.64 646.27C592.51 646.792 595.492 649.663 596.61 648.917C597.297 648.46 600.785 644.782 600.407 643.647C599.617 641.275 595.953 639.781 593.988 638.377C587.63 633.835 581.89 625.349 574.08 624.913ZM527.521 680.814C524.603 683.733 526.213 690.93 524.024 694.577C523.211 695.933 512.695 697.088 510.561 697.8C509.926 698.011 509.85 699.085 509.387 699.548C510.656 700.817 520.506 700.282 523.425 702.47C525.244 703.835 525.813 713.386 527.521 716.233C530.555 713.2 528.335 705.157 531.917 702.47C533.059 701.614 546.09 700.343 545.106 698.374C544.184 696.532 532.626 697.169 531.043 694.003C529.121 690.16 530.635 683.929 527.521 680.814ZM221.939 681.114C218.854 684.199 221.411 692.201 217.842 694.877C214.339 697.505 207.574 695.479 204.379 698.674C207.341 701.636 213.97 699.612 217.543 702.47C221.036 705.265 218.402 712.302 222.538 715.059C225.294 712.304 222.888 705.056 226.335 702.47C229.831 699.849 236.486 701.986 239.798 698.674C237.863 696.739 226.197 696.418 225.461 694.577C224.08 691.126 225.217 683.3 221.939 681.114ZM453.586 720.38C453.071 720.402 452.516 720.661 451.712 720.929C442.252 724.083 447.379 728.784 442.071 734.093C437.805 729.826 430.149 723.759 424.486 729.422C428.271 734.468 436.029 736.652 439.423 741.986C440.254 743.291 432.571 757.399 432.979 759.845C433.392 762.321 440.378 759.764 441.471 758.396C443.938 755.313 443.195 749.654 446.167 746.682C452.261 749.729 457.68 758.274 464.601 751.353C460.666 746.105 453.051 744.07 449.09 738.789C448.706 738.277 454.238 722.2 455.234 721.204C454.585 720.554 454.101 720.357 453.586 720.38ZM293.951 721.204C292.567 721.55 291.962 726.689 291.603 727.948C289.897 733.92 288.139 739.779 286.632 745.807C286.138 747.783 284.331 751.342 285.758 753.126C286.122 753.581 288.125 753.861 288.68 754C288.713 754.008 291.39 754.917 291.603 754.875C292.56 754.683 295.492 739.87 297.473 737.889C300.498 740.915 299.919 747.105 303.018 750.204C306.84 748.292 310 744.658 313.559 742.286C315.764 744.491 308.033 759.143 310.636 760.445C311.684 760.968 315.745 761.791 316.781 761.619C318.035 761.41 318.818 755.662 319.129 754.575C321.023 747.944 322.776 741.309 324.674 734.667C324.91 733.84 326.102 731.46 325.848 730.571C325.535 729.475 322.677 729.254 321.751 729.122C316.043 728.307 309.366 738.754 306.54 738.189C305.091 737.899 304.581 734.385 304.192 733.219C302.701 728.746 301.739 723.625 297.173 722.103C296.605 721.914 294.486 721.07 293.951 721.204ZM415.419 730.871C404.865 730.871 406.226 735.426 401.082 742.286C395.642 736.846 395.194 732.793 386.744 734.093C384.747 734.4 385.387 733.976 384.396 734.967C388.272 739.141 394.177 743.975 396.985 749.03C397.592 750.121 395.514 752.631 394.937 753.401C392.319 756.891 389.275 762.148 387.619 766.29C386.743 768.48 394.775 767.257 395.512 766.889C398.568 765.361 400.98 758.224 402.83 755.449C406.324 758.759 414.221 769.536 420.39 763.367C417.588 760.215 414.773 757.11 411.922 754C410.335 752.268 408.41 750.76 407.226 748.73C406.049 746.711 416.607 734.434 415.419 730.871ZM340.185 732.344C339.103 732.48 339.675 734.477 339.611 735.566C339.376 739.552 339.043 743.568 338.736 747.556C338.205 754.469 333.464 767.878 344.581 766.29C345.572 766.148 345.4 762.317 345.456 761.619C345.668 758.968 344.94 749.845 346.929 747.856C350.085 751.011 351.869 755.699 354.548 759.271C358.036 756.1 360.86 752.593 363.914 749.03C365.904 751.019 364.08 756.018 363.914 758.671C363.774 760.913 363.775 763.175 363.615 765.415C363.6 765.622 362.793 767.374 363.914 767.463C366.151 767.642 368.397 767.642 370.634 767.463C371.659 767.381 371.784 758.486 371.808 758.097C372.262 750.605 373.607 742.763 373.281 735.267C373.243 734.377 366.931 734.294 366.537 734.392C365.107 734.75 357.06 745.375 355.722 746.981C350.625 741.885 349.252 731.211 340.185 732.344Z" fill="#FFFFFF" fill-rule="nonzero" opacity="1" stroke="none"/>
</g>
</svg>
