<?xml version="1.0" encoding="UTF-8" standalone="no"?>
<!DOCTYPE svg PUBLIC "-//W3C//DTD SVG 1.1//EN" "http://www.w3.org/Graphics/SVG/1.1/DTD/svg11.dtd">
<!-- Created with Vectornator (http://vectornator.io/) -->
<svg height="100%" stroke-miterlimit="10" style="fill-rule:nonzero;clip-rule:evenodd;stroke-linecap:round;stroke-linejoin:round;" version="1.1" viewBox="0 0 750 1000" width="100%" xml:space="preserve" xmlns="http://www.w3.org/2000/svg" xmlns:vectornator="http://vectornator.io" xmlns:xlink="http://www.w3.org/1999/xlink">
<defs/>
<g id="Layer-1" vectornator:layerName="Layer 1">
<path d="M370.115 200.008C369.829 199.98 369.665 200.023 369.665 200.14C369.452 248.713 369.878 297.286 369.665 345.859C369.662 346.39 361.043 349.958 360.065 350.349C349.794 354.458 339.531 359.489 329.633 364.438C299.23 379.64 267.675 395.379 236.118 408.002C226.107 412.007 207.843 417.379 200.256 424.965C192.491 432.731 182.955 442.911 182.955 455.398C182.955 494.92 183.146 534.432 183.256 573.954C183.076 575.294 182.955 576.647 182.955 578.049C182.955 617.488 183.165 656.939 183.274 696.379C183.128 697.413 182.955 698.457 182.955 699.441C182.955 703.072 182.973 706.699 183.274 710.318C183.394 711.749 190.896 714.272 192.235 714.808C202.61 718.958 212.994 724.219 222.987 729.216C257.601 746.523 293.391 764.497 329.313 778.866C341 783.541 351.889 790.196 363.578 794.872C366.612 796.085 371.225 800 374.474 800C382.796 800 394.572 790.293 402.333 787.188C425.71 777.837 447.488 764.509 470.862 755.159C495.653 745.242 520.329 732.84 544.22 720.894C550.223 717.893 557.591 713.216 564.076 711.595C564.374 711.521 566.63 711.11 566.631 710.637C566.844 639.922 566.631 569.208 566.631 498.492C566.693 498.444 566.95 498.333 566.95 498.304C567.163 457.631 566.95 416.966 566.95 376.292C566.659 376.437 566.359 376.561 566.067 376.705C566.235 376.571 566.63 376.385 566.631 376.292C566.844 335.726 566.525 295.147 566.631 254.58C566.632 254.342 566.844 254.155 566.95 253.942C542.75 266.042 517.764 278.482 492.654 288.526C489.431 289.815 471.428 299.52 469.585 298.783C467.205 297.831 463.714 285.586 462.221 283.097C455.006 271.073 446.618 261.727 437.236 252.345C435.514 254.928 435.587 260.307 435.001 263.241C432.303 276.73 430.328 291.367 426.04 304.231C425.025 307.276 424.41 321.513 421.231 321.513C423.759 291.18 428.744 255.099 409.377 229.276C401.393 218.63 391.892 212.33 381.199 204.31C380.202 203.563 372.122 200.208 370.115 200.008ZM375.432 210.716C401.945 228.075 418.737 245.093 417.38 278.607C416.173 308.406 414.274 338.221 410.617 367.82C405.168 411.927 396.065 455.525 390.084 499.563C389.385 504.709 389.713 510.02 390.61 515.136C393.226 530.054 398.169 544.499 400.586 559.451C402.913 573.855 398.811 584.803 391.268 597.417C389.488 600.392 386.648 602.982 383.416 604.236C378.972 605.96 373.832 607.164 369.214 605.983C363.756 604.587 359.699 599.956 354.937 596.947C358.826 601.935 362.331 608.705 370.153 608.707C376.621 608.709 383.517 607.615 389.032 604.236C393.88 601.266 397.311 596.004 399.477 590.748C402.467 583.495 403.43 575.475 404.117 567.66C405.922 547.132 396.024 528.044 393.353 508.242C392.34 500.732 393.018 492.969 394.461 485.53C408.687 412.196 425.031 339.291 440.317 266.171C450.585 280.986 463.646 295.486 467.03 313.191C467.823 317.337 468.039 321.732 467.124 325.853C462.657 345.977 457.557 366.021 450.968 385.553C438.076 423.772 422.814 461.144 408.738 498.943C448.772 409.749 448.769 409.749 488.802 320.555C493.103 331.055 499.449 340.939 501.708 352.059C503.487 360.811 503.42 370.335 500.656 378.828C495.53 394.577 486.935 409.055 478.508 423.312C459.577 455.339 438.625 486.12 418.676 517.522C470.399 447.063 470.386 447.07 522.109 376.611C523.39 380.134 525.614 383.436 525.96 387.169C527.016 398.543 529.81 410.588 526.28 421.452C522.083 434.367 512.817 445.269 503.793 455.417C478.425 483.946 450.238 509.842 423.466 537.059C481.915 484.695 481.92 484.693 540.369 432.329C540.227 442.653 541.887 453.168 539.937 463.307C538.878 468.807 535.207 473.602 531.596 477.884C526.217 484.264 520.052 490.091 513.261 494.942C484.153 515.734 453.823 534.768 424.105 554.68C484.315 520.251 484.329 520.24 544.539 485.812C543.96 490.924 544.251 496.225 542.792 501.16C540.907 507.537 538.999 514.357 534.62 519.363C528.998 525.791 521.561 530.721 513.806 534.297C483.589 548.233 452.09 559.193 421.231 571.643C480.8 552.427 480.8 552.424 540.369 533.208C540.283 534.938 540.873 536.858 540.106 538.411C536.928 544.85 533.856 551.67 528.759 556.727C523.86 561.589 517.66 565.623 510.969 567.322C479.665 575.275 447.514 579.378 415.783 585.413C472.63 579.648 472.626 579.662 529.473 573.897C523.953 581.827 519.299 591.598 508.959 594.749C499.593 597.603 489.689 598.84 479.898 598.957C454.988 599.255 430.117 596.978 405.226 595.989C459.511 601.754 459.502 601.759 513.787 607.523C504.5 615.003 493.525 625.533 481.777 623.491C455.75 618.967 430.302 611.555 404.568 605.588C448.124 619.68 448.139 619.694 491.695 633.785C484.445 639.09 475.342 643.836 466.391 643.066C459.005 642.43 452.021 639.183 445.239 636.19C429.233 629.126 413.85 620.715 398.162 612.971C432.911 633.148 432.92 633.146 467.669 653.322C463.808 654.686 460.171 657.508 456.078 657.399C449.092 657.212 441.706 656.055 435.715 652.458C419.68 642.832 405.98 629.752 391.118 618.4C400.886 627.528 400.887 627.532 410.655 636.66C401.68 638.901 391.651 638.599 383.735 643.385C377.135 647.375 372.795 654.644 369.439 661.588C366.699 667.258 366.308 673.86 365.964 680.148C364.565 705.706 364.799 731.336 364.217 756.925C361.974 755.805 358.295 755.936 357.492 753.562C354.795 745.596 356.53 736.688 354.599 728.502C352.799 720.874 350.595 713.08 346.389 706.467C332.418 684.498 313.729 665.686 300.421 643.31C295.429 634.915 293.908 624.808 292.118 615.207C291.301 610.828 289.337 604.789 292.7 601.869C307.753 588.802 327.502 582.258 343.609 570.516C348.574 566.896 352.538 554.666 350.184 548.781C348.26 543.971 344.363 540.014 340.303 536.796C316.696 518.085 291.774 501.105 267.509 483.257C281.742 489.502 295.142 498.166 310.208 501.986C319.17 504.259 329.248 497.889 337.917 501.103C349.045 505.229 357.257 514.93 366.189 522.744C385.754 539.858 367.72 568.311 366.321 587.573C366.122 590.31 369.103 592.959 371.712 593.81C374.766 594.805 378.828 594.561 381.255 592.457C384.607 589.552 386.047 584.805 387.079 580.491C388.842 573.119 390.415 565.4 389.521 557.873C387.522 541.038 381.394 524.929 378.513 508.223C376.763 498.078 375.763 487.765 375.657 477.471C374.739 388.554 375.506 299.638 375.432 210.716ZM538.509 664.631C543.143 664.627 546.56 667.343 545.817 674.776C545.791 675.027 543.535 675.907 543.243 676.053C537.228 679.061 542.504 672.118 538.133 671.244C536.405 670.898 526.944 676.433 526.918 678.288C526.816 685.655 527.131 693.033 527.238 700.399C533.333 701.415 536.58 699.935 539.636 695.984C540.841 694.427 539.974 690.818 539.974 690.818C539.974 690.818 544.845 687.911 545.817 687.587C547.533 699.597 543.547 701.949 533.005 706.166C530.006 707.366 520.332 711.604 520.193 705.208C519.984 695.602 519.874 685.981 519.874 676.372C519.874 675.765 520.437 674.312 520.832 673.817C524.577 669.135 532.552 664.637 538.509 664.631ZM515.703 674.456C515.703 678.816 515.121 682.046 515.121 682.046L499.379 688.545C499.379 688.545 499.812 696.233 499.698 699.76C502.618 699.76 506.668 696.905 509.298 695.59C509.114 698.891 509.185 702.184 509.185 702.184C509.185 702.184 500.044 706.388 500.017 706.805C499.705 711.707 500.011 716.631 499.698 721.533C499.637 722.484 493.342 724.39 492.334 724.726C492.334 711.702 492.122 698.694 492.334 685.671C492.336 685.533 494.077 684.781 494.25 684.694C501.215 681.212 509.215 678.782 515.703 674.456ZM486.248 688.545C486.24 699.801 486.175 710.167 486.135 720.255C486.095 730.344 464.363 740.598 460.605 736.524C459.81 735.661 459.089 734.558 459.027 733.386C458.464 722.626 458.253 711.82 458.746 701.057C458.836 699.078 465 700.012 465.753 700.08C465.226 708.652 466.171 720.249 465.753 729.216C471.388 728.249 477.131 725.302 478.809 717.945C481.116 707.822 478.095 692.641 478.095 692.641C478.095 692.641 483.006 688.945 486.248 688.545ZM451.983 704.231C452.143 724.088 452.142 724.088 452.302 743.944C445.049 745.67 447.213 749.275 441.632 741.22C438.379 736.525 435.298 731.731 432.126 726.981C431.791 735.53 431.854 744.099 431.112 752.623C430.898 755.086 427.034 755.461 424.763 756.436C424.763 743.412 424.226 730.375 424.763 717.362C424.831 715.701 430.23 714.051 431.638 714.338C432.434 714.5 444.835 733.112 444.919 733.368C445.151 725.139 444.982 716.891 445.615 708.683C445.784 706.486 451.902 704.273 451.983 704.231ZM418.019 720.255C418.232 733.279 419.074 746.31 418.676 759.329C418.618 761.212 413.49 761.085 412.383 760.757C412.002 750.11 412.013 750.12 411.631 739.473C410.826 747.033 402.408 761.208 402.408 761.208C402.408 761.208 391.78 750.51 390.798 748.434C390.478 756.12 390.231 763.819 389.84 771.502C389.72 773.868 384.976 775.203 384.073 775.654C383.98 762.564 383.401 749.476 383.81 736.392C383.883 734.047 387.966 734.219 390.16 733.386C391.183 737.48 401.018 750.857 401.018 750.857L409.415 724.726C409.415 724.726 415.27 721.794 418.019 720.255ZM270.383 256.515C265.899 269.006 265.906 268.991 261.422 281.481C248.291 279.24 248.291 279.252 235.16 277.01C243.807 286.618 243.796 286.62 252.443 296.228C243.796 306.637 243.807 306.634 235.16 317.042C248.291 314.801 248.291 314.794 261.422 312.553C265.906 324.883 265.899 324.888 270.383 337.218C274.707 325.048 274.701 325.042 279.024 312.872C292.315 315.114 292.315 315.12 305.606 317.362C296.959 307.273 296.97 307.274 288.323 297.186C296.97 286.777 296.959 286.78 305.606 276.372C292.315 278.934 292.315 278.919 279.024 281.481C274.701 268.991 274.707 269.006 270.383 256.515ZM332.206 512.074C328.918 517.689 340.005 518.799 341.806 518.799C339.329 513.845 338.359 512.074 332.206 512.074Z" fill="#FFFFFF" fill-rule="nonzero" opacity="1" stroke="none"/>
</g>
</svg>
