<?xml version="1.0" encoding="UTF-8" standalone="no"?>
<!DOCTYPE svg PUBLIC "-//W3C//DTD SVG 1.1//EN" "http://www.w3.org/Graphics/SVG/1.1/DTD/svg11.dtd">
<!-- Created with Vectornator (http://vectornator.io/) -->
<svg height="100%" stroke-miterlimit="10" style="fill-rule:nonzero;clip-rule:evenodd;stroke-linecap:round;stroke-linejoin:round;" version="1.1" viewBox="0 0 750 1000" width="100%" xml:space="preserve" xmlns="http://www.w3.org/2000/svg" xmlns:vectornator="http://vectornator.io" xmlns:xlink="http://www.w3.org/1999/xlink">
<defs/>
<g id="Layer-1" vectornator:layerName="Layer 1">
<path d="M375 200C209.313 200 75 334.313 75 500C75 665.687 209.313 800 375 800C540.687 800 675 665.687 675 500C675 334.313 540.687 200 375 200ZM382.029 217.384C396.671 217.781 411.252 219.509 425.7 222.136C484.684 232.86 537.578 261.799 579.302 305.378C589.82 316.363 598.946 328.231 607.741 340.545C610.759 344.77 614.515 349.416 616.821 354.027C626.965 374.315 637.118 393.209 644.385 415.008C662.003 467.864 660.764 527.015 645.535 580.315C642.472 591.036 638.807 602.902 633.829 612.856C630.505 619.505 626.533 626.657 623.849 633.367C621.557 639.096 617.362 644.495 614.195 649.775C604.806 665.422 593.064 680.861 580.178 693.747C528.183 745.741 458.616 782.266 383.504 782.266C348.343 782.266 314.841 777.454 281.778 766.433C268.174 761.898 256.021 754.89 243.109 749.725C238.827 748.012 234.72 745.061 230.778 742.696C213.069 732.071 195.626 719.851 180.953 705.178C114.86 639.085 80.1575 551.722 95.9605 456.903C99.8505 433.563 105.233 408.194 115.895 386.868C127.744 363.172 140.571 339.884 158.092 318.859C210.961 255.416 285.957 220.411 367.371 217.434C372.264 217.255 377.148 217.251 382.029 217.384ZM374.925 230.515C367.202 230.531 359.499 230.719 351.838 230.915C340.931 231.195 328.801 233.53 318.147 236.193C280.297 245.656 247.675 259.566 215.545 282.516C158.338 323.379 123.117 384.18 109.742 451.051C105.76 470.963 105.34 491.499 105.34 511.731C105.34 526.606 107.972 542.085 111.193 556.578C111.982 560.131 112.345 567.433 114.82 570.31C114.695 570.421 114.534 570.521 114.42 570.635C115.635 573.066 115.383 576.877 117.346 578.839C118.194 578.416 119.327 578.77 119.997 579.44C125.623 576.627 132.552 575.649 138.457 573.287C155.089 566.634 172.483 561.361 189.457 555.703C196.235 553.444 202.93 550.904 209.692 548.649C211.166 548.158 214.914 546.022 216.421 546.323C216.692 546.377 216.934 546.636 217.021 546.898C218.663 551.826 220.031 556.938 221.998 561.856C227.737 576.203 235.711 589.199 245.435 601.701C260.892 621.574 279.217 634.401 299.962 646.848C305.047 649.899 312.004 652.14 317.846 654.477C319.408 655.102 321.747 655.31 323.124 656.228C327.134 658.902 330.58 662.769 334.555 665.608C344.131 672.448 353.868 678.053 364.145 683.192C366.977 684.608 371.94 687.894 375.3 687.894C378.298 687.894 382.865 684.537 385.555 683.192C394.098 678.92 402.309 674.273 410.468 668.834C416.026 665.129 420.833 659.432 426.601 656.228C428.558 655.141 431.692 654.762 433.904 653.877C439.787 651.524 445.63 648.915 450.913 646.273C471.121 636.169 490.602 619.568 504.265 602.001C513.722 589.841 520.325 577.183 526.826 564.182C529.282 559.27 529.602 550.301 533.579 546.323C540.094 549.58 548.285 551.325 555.265 553.652C572.314 559.335 589.215 565.552 606.266 571.236C612.401 573.281 618.701 575.254 624.725 577.664C625.975 578.164 630.531 580.431 631.778 580.015C633.339 579.495 635.111 571.677 634.43 570.06C634.74 570.074 635.103 570.119 635.28 570.06C635.28 565.594 637.534 560.356 638.507 555.978C640.862 545.382 642.946 533.924 643.484 523.162C645.142 490.01 643.895 455.486 633.229 423.487C629.772 413.116 627.543 400.82 621.798 391.246C615.877 381.376 611.621 370.565 605.39 360.18C591.785 337.505 574.169 316.71 554.69 298.924C512.174 260.106 455.592 235.318 398.162 231.216C390.404 230.661 382.648 230.499 374.925 230.515ZM356.816 261.406C358.497 260.733 361.444 264.141 362.394 264.932C369.144 270.557 376.691 275.703 382.904 281.916C383.099 281.721 383.496 281.617 383.504 281.341C383.693 275.286 383.225 269.208 383.504 263.157C383.523 262.742 383.967 262.321 384.38 262.281C386.666 262.06 393.759 260.101 393.759 264.632C393.759 276.26 393.555 287.873 393.459 299.5C393.454 300.096 393.682 300.709 392.884 300.975C390.749 301.687 387.812 298.024 386.431 296.873C379.879 291.413 373.273 286.017 366.796 280.465C366.6 280.661 366.204 280.764 366.196 281.041C366.006 287.193 366.385 293.347 366.196 299.5C366.189 299.725 365.298 300.391 365.045 300.4C362.238 300.5 356.267 301.221 356.241 299.5C356.048 286.995 356.048 274.486 356.241 261.981C356.245 261.705 356.559 261.508 356.816 261.406ZM421.323 266.083C429.967 266.395 438.123 270.739 446.511 272.836C448.371 273.301 454.961 274.1 455.615 276.063C455.662 276.203 455.09 278.425 455.015 278.689C453.298 284.698 451.992 282.907 446.511 281.341C445.354 281.01 441.364 279.094 440.658 280.74C437.179 288.857 437.558 299.271 433.629 307.129C433.078 308.23 423.933 307.364 423.649 305.378C423.099 301.528 427.847 290.062 428.927 285.743C429.406 283.828 431.737 279.412 430.978 277.514C428.923 272.377 416.921 279.279 419.847 269.035C420.233 267.684 419.804 266.028 421.323 266.083ZM312.269 270.21C320.731 270.736 325.226 272.254 330.728 279.59C333.148 282.817 333.439 287.245 333.079 291.021C331.865 303.766 320.005 310.766 308.167 309.78C294.44 308.636 289.075 295.901 292.059 283.967C294.202 275.394 304.371 269.72 312.269 270.21ZM484.355 288.044C486.595 287.819 489.575 291.221 491.658 292.471C498.911 296.823 509.829 302.485 505.74 312.706C504.66 315.407 501.037 319.16 497.811 319.16C495.952 319.16 492.564 317.601 492.259 319.435C491.776 322.333 495.357 335.757 492.834 337.019C491.61 337.631 488.761 335.235 487.856 334.692C482.429 331.436 483.377 325.231 483.154 319.435C483.063 317.062 484.149 313.743 481.103 312.981C479.341 312.541 474.439 325.556 471.723 325.013C470.223 324.712 465.347 321.615 464.695 320.31C463.92 318.761 467.677 314.072 468.497 312.706C473.045 305.127 476.199 293.389 483.454 288.369C483.74 288.172 484.035 288.076 484.355 288.044ZM252.764 293.947C252.931 293.846 253.223 293.812 253.364 293.947C255.609 296.099 257.669 298.427 259.817 300.675C263.637 304.673 267.438 308.7 271.248 312.706C274.012 315.611 278.48 317.596 279.452 321.486C279.666 322.341 273.272 327.726 271.823 327.364C270.142 326.943 263.041 317.981 261.268 316.208C260.279 317.197 260.473 318.914 260.393 320.31C260.264 322.556 260.133 324.815 260.093 327.064C260.035 330.287 260.513 333.547 260.093 336.743C259.75 339.35 256.148 337.763 254.815 337.319C249.523 335.555 244.123 333.695 238.707 332.341C237.331 334.405 246.021 345.694 245.16 346.698C244.158 347.867 242.585 348.731 241.333 349.625C240.544 350.189 239.096 351.778 238.107 351.976C236.569 352.283 234.124 347.213 233.429 345.823C230.091 339.146 226.285 332.135 222.874 325.313C222.14 323.845 218.676 319.661 219.347 317.984C219.984 316.392 223.271 318.2 224.35 318.559C230.623 320.65 237.015 322.592 243.384 324.412C244.454 324.718 250.665 327.398 251.013 325.888C251.893 322.075 251.492 318.069 251.588 314.157C251.714 309.077 251.811 304.005 251.888 298.924C251.92 296.825 250.908 295.061 252.764 293.947ZM536.831 325.063C538.915 325.122 540.6 329.33 542.359 331.166C544.988 333.909 547.658 336.626 550.288 339.37C552.439 341.615 555.516 343.265 556.741 346.123C557.42 347.708 552.271 352.508 551.163 351.401C549.355 349.592 547.652 347.672 545.885 345.823C543.26 343.075 541.381 339.318 537.981 337.619C537.387 337.322 532.019 341.784 532.704 342.596C536.662 347.297 542.832 351.171 545.585 356.678C543.803 358.349 541.46 362.783 539.732 361.056C537.631 358.954 535.657 356.752 533.579 354.627C531.357 352.355 529.073 350.121 526.826 347.874C525.165 348.981 520.822 351.933 521.848 353.152C524.965 356.852 528.466 360.228 531.828 363.707C536.018 368.041 536.432 369.159 529.777 372.486C523.168 365.59 515.616 359.028 509.542 351.676C509.293 351.375 509.286 350.795 509.542 350.5C511.311 348.466 513.441 346.804 515.395 344.947C520.105 340.474 524.783 335.956 529.477 331.466C531.625 329.412 533.35 326.787 535.93 325.313C536.246 325.132 536.533 325.054 536.831 325.063ZM549.112 325.888C558.589 326.181 559.87 325.954 561.118 326.188C563.204 326.579 561.619 333.241 560.243 333.517C559.107 333.744 554.123 332.95 553.214 332.041C551.504 330.33 549.898 328.522 548.237 326.763C548.676 326.324 548.672 326.328 549.112 325.888ZM372.199 345.173C375.843 345.178 379.497 345.291 383.204 345.523C402.259 346.714 419.359 351.13 436.856 358.129C441.629 360.038 448.636 362.305 452.389 366.058C451.052 367.394 445.802 365.431 443.884 365.158C433.444 363.666 423.041 362.012 412.519 361.056C383.899 358.454 355.144 359.529 326.626 362.531C320.346 363.192 314.077 364.122 307.866 365.158C306.207 365.434 303.557 365.286 302.014 366.058C301.281 365.179 301.271 365.161 300.538 364.282C302.818 362.002 306.754 361.049 309.642 359.605C317.883 355.484 326.246 352.764 335.13 350.225C343.544 347.821 352.445 346.128 361.218 345.523C364.917 345.268 368.554 345.167 372.199 345.173ZM367.671 368.984C415.923 369.278 449.258 375.005 481.403 383.042C488.613 384.844 495.644 386.878 502.789 388.919C503.909 389.239 509.586 390.349 509.842 391.546C510.764 395.845 510.718 400.932 510.718 405.328C510.718 423.813 510.697 441.862 508.667 460.13C507.716 468.691 506.679 477.176 505.14 485.643C504.922 486.845 504.813 493.262 503.389 493.547C502.308 493.763 499.73 492.328 498.687 492.096C497.831 491.906 493.196 491.797 492.684 490.995C491.278 492.444 488.043 491.351 485.805 491.496C481.442 491.777 475.928 493.07 472.024 495.023C460.024 501.022 452.441 511.292 443.009 520.785C443.009 520.794 443.009 520.802 443.009 520.81C443.009 522.232 435.022 533.446 433.629 535.768C426.755 547.225 420.951 560.296 416.621 573.287C412.82 584.689 409.287 596.082 406.666 607.879C405.943 611.131 405.08 614.576 404.615 617.834C404.593 617.986 404.958 619.852 404.015 619.885C398.546 620.073 393.075 620.074 387.606 619.885C387.33 619.875 387.037 619.584 387.006 619.31C386.54 615.117 388.746 609.029 389.657 604.927C392.88 590.424 396.092 576.218 400.788 562.131C405.897 546.805 411.209 531.468 416.321 516.133C419.762 505.809 423.678 495.318 425.125 484.467C428.152 461.763 419.626 434.996 403.139 418.509C395.742 411.112 385.307 399.776 375.3 394.772C374.072 394.158 371.716 396.54 370.898 397.124C365.556 400.939 360.025 404.77 355.365 409.43C351.514 413.281 347.643 417.176 344.235 421.436C334.447 433.671 323.999 451.133 323.999 467.184C324 481.787 325.686 499.271 332.204 512.306C334.501 516.902 334.947 522.796 337.181 527.264C339.36 531.622 339.804 536.872 341.583 541.321C348.963 559.77 355.211 579.595 359.167 599.375C360.217 604.626 361.276 609.869 362.094 615.183C362.331 616.728 363.656 619.831 362.094 619.885C356.625 620.073 351.154 620.074 345.685 619.885C345.409 619.875 345.219 619.564 345.11 619.31C343.615 615.822 343.586 611.302 342.759 607.579C340.955 599.462 338.949 591.173 336.306 583.242C333.857 575.895 331.537 567.551 328.102 560.68C326.157 556.791 323.527 552.089 322.524 548.074C320.973 541.871 315.93 534.657 312.569 529.615C311.257 527.647 307.554 523.771 307.141 521.261C307.081 521.301 307.037 521.34 306.991 521.386C299.764 510.546 289.656 502.08 278.852 495.598C272.509 491.792 265.1 491.901 258.042 491.196C257.852 491.177 257.764 490.968 257.641 490.82C256.357 491.81 248.501 492.602 246.611 493.547C244.11 491.046 244.253 484.952 243.684 481.541C241.985 471.342 240.779 461.062 239.882 450.75C238.189 431.278 237.599 410.955 239.882 391.546C240.036 390.241 244.754 389.522 245.735 389.195C252.469 386.95 259.357 385.064 266.246 383.342C299.649 374.991 333.031 370.37 367.671 368.984ZM171.873 375.438C174.438 376.536 178.602 377.007 178.602 379.24C178.602 380.571 170.584 395.186 169.522 396.248C171.109 397.834 172.429 398.57 173.574 398.824C173.503 398.733 173.415 398.673 173.349 398.574C174.557 397.367 175.184 397.532 176.151 398.349C180.548 395.325 181.354 381.747 186.531 383.042C195.529 385.291 187.913 393.459 185.355 398.574C184.973 399.338 182.62 402.797 183.004 403.277C185.779 406.745 193.587 406.559 195.61 410.605C196.249 411.883 192.024 419.457 190.633 419.11C187.393 418.3 184.512 415.586 181.553 414.107C176.609 411.635 171.309 409.331 166.596 406.503C164.684 405.356 159.184 403.914 158.392 401.801C157.702 399.962 160.268 397.448 161.018 395.948C163.739 390.506 167.587 379.724 171.873 375.438ZM542.659 386.568C544.51 386.4 546.38 386.771 548.237 386.868C551.484 387.039 556.787 387.317 559.967 387.444C566.623 387.71 573.225 388.002 579.877 388.319C581.734 388.408 583.793 387.788 585.455 388.619C587.741 389.762 582.244 396.514 581.353 397.999C577.31 404.738 572.791 411.195 568.747 417.934C567.216 420.484 565.312 425.354 562.594 426.713C561.141 424.97 556.93 419.735 557.616 417.334C558.259 415.083 560.665 413.012 561.718 410.905C558.505 407.692 557.031 401.301 554.69 397.399C552.959 394.513 548.524 398.311 546.461 396.248C545.542 395.329 540.109 386.8 542.659 386.568ZM151.938 431.991C152.592 431.688 157.768 438.022 156.916 439.045C155.454 440.799 153.35 442.14 151.938 444.022C147.913 449.389 150.74 456.586 155.465 460.13C161.008 464.287 173.349 460.844 173.349 452.801C173.349 451.528 173.389 446.777 172.449 444.897C172.216 444.433 170.399 442.669 170.998 441.971C171.649 441.212 176.876 436.912 178.027 437.569C180.082 438.743 181.553 443.66 181.553 445.773C181.553 453.727 180.737 461.373 174.225 466.583C173.165 467.431 170.957 469.751 169.522 470.11C163.813 471.537 155.556 473.728 150.463 468.634C147.745 465.916 144.883 463.178 143.434 459.555C140.102 451.223 142.757 436.243 151.938 431.991ZM602.739 438.144C605.84 437.762 607.963 446.654 605.39 448.124C600.522 450.906 588.126 451.922 582.229 453.102C581.799 453.188 578.503 453.462 578.127 453.677C576.853 454.405 578.206 457.963 578.427 458.954C579.616 464.304 583.803 474.976 573.724 472.736C572.249 472.408 572.176 468.668 571.973 467.759C570.733 462.179 569.684 456.617 568.447 451.051C568.125 449.603 566.64 446.557 568.447 445.473C570.531 444.222 574.015 444.194 576.376 443.722C585.182 441.961 593.841 439.24 602.739 438.144ZM519.797 446.348C522.024 448.575 522.835 453.846 523.599 456.903C526.771 469.592 529.777 482.333 529.777 495.598C529.777 537.983 515.319 578.34 485.205 608.454C473.34 620.319 460.156 628.072 446.511 637.169C446.218 636.875 446.229 636.886 445.935 636.593C452.449 626.823 461.049 618.313 467.621 608.454C486.974 579.426 500.715 547.013 509.242 512.906C513.035 497.735 515.681 482.37 517.746 466.883C518.144 463.901 518.905 447.241 519.797 446.348ZM229.627 447.249C231.522 449.143 231.755 463.72 232.254 467.459C234.396 483.526 236.868 499.906 241.333 515.533C254.317 560.976 271.666 597.027 301.438 634.242C302.218 635.021 302.985 635.814 303.764 636.593C302.442 637.475 301.039 636.194 299.962 635.118C300.287 634.793 300.449 634.631 300.613 634.467C296.989 635.188 287.541 627.745 284.73 625.738C273.877 617.986 264.243 608.762 255.69 598.499C230.692 568.501 217.876 530.625 220.523 490.92C221.24 480.168 222.905 469.935 225.5 459.555C226.355 456.136 227.143 449.732 229.627 447.249ZM469.622 574.212C472.37 574.322 475.088 574.807 475.825 575.913C473.127 578.611 471.724 583.924 469.672 587.344C465.171 594.846 460.51 602.657 455.315 609.93C453.676 612.224 450.277 618.849 447.686 619.885C447.233 620.066 446.724 619.885 446.236 619.885C438.908 619.885 431.575 620.075 424.25 619.885C422.915 619.85 424.806 612.241 425.125 610.805C427.966 598.019 432.351 592.501 441.833 582.991C441.834 582.975 441.833 582.958 441.833 582.941C441.834 582.913 441.969 582.848 441.983 582.816C442.039 582.761 442.078 582.722 442.134 582.666C442.142 582.675 442.15 582.683 442.159 582.691C442.67 582.044 444.865 580.946 445.36 580.615C450.374 577.273 456.292 575.343 462.344 574.737C462.425 575.087 462.442 575.437 462.444 575.788C462.729 575.375 463.064 574.804 463.219 574.737C464.094 574.362 466.874 574.102 469.622 574.212ZM280.528 574.337C283.327 574.306 286.016 574.551 286.481 574.737C286.581 574.778 286.738 575.053 286.856 575.163C286.912 575.015 286.938 574.855 287.056 574.737C291.495 575.015 305.537 578.855 307.016 583.367C307.033 583.211 307.121 583.137 307.591 582.666C316.182 586.962 321.9 599.757 324.3 608.154C324.513 608.899 324.851 611.61 324.925 614.107C325.904 615.19 327.088 619.834 325.175 619.885C318.045 620.075 310.897 619.885 303.764 619.885C303.013 619.885 302.359 619.654 301.788 619.235C301.766 619.264 301.738 619.285 301.713 619.31C301.663 619.235 301.613 619.159 301.563 619.085C301.526 619.051 301.474 619.046 301.438 619.01C301.45 618.997 301.451 618.973 301.463 618.959C291.893 604.635 281.374 590.611 273.874 575.613C274.815 574.672 277.728 574.368 280.528 574.337ZM325.175 643.622C360.127 645.745 355.182 652.909 353.614 654.477C352.668 655.424 348.472 659.894 346.286 661.206C345.402 661.736 341.508 658.304 340.708 657.704C335.124 653.516 329.514 649.161 324.575 644.222C324.868 643.929 324.882 643.915 325.175 643.622ZM391.408 643.622C402.447 643.43 413.486 643.43 424.525 643.622C424.801 643.627 424.93 644.027 425.125 644.222C420.128 648.765 414.989 653.056 409.592 657.104C408.806 657.693 404.695 661.702 403.714 661.506C402.614 661.286 400.667 659.334 399.912 658.579C394.532 653.199 393.786 650.128 390.833 644.222C391.028 644.027 391.132 643.627 391.408 643.622ZM311.093 277.814C295.984 280.227 297.514 302.451 313.144 302.451C325.655 302.451 326.143 285.809 318.147 279.59C316.249 278.114 313.312 277.46 311.093 277.814ZM488.132 298.924C486.746 299.019 483.527 304.997 484.03 306.253C484.958 308.574 493.039 311.765 495.185 310.93C501.16 308.607 495.527 303.166 492.834 301.551C491.294 300.627 489.928 298.802 488.132 298.924ZM176.151 398.349C175.406 398.861 174.566 399.044 173.574 398.824C174.554 400.085 175.961 400.654 176.851 398.874C176.54 398.563 176.39 398.552 176.151 398.349ZM562.019 394.472C560.739 395.751 566.037 404.368 567.296 405.628C568.108 404.816 575.657 395.036 573.724 394.772C571.788 394.508 569.835 394.765 562.019 394.472ZM300.613 634.467C300.896 634.411 301.233 634.406 301.438 634.242C301.338 634.142 301.238 634.042 301.138 633.942C300.876 634.204 300.745 634.335 300.613 634.467ZM435.38 701.376C431.786 701.702 418.882 705.703 421.023 711.056C421.39 711.974 422.874 712.341 423.649 712.806C427.439 715.08 427.508 712.475 430.103 709.88C431.224 708.758 435.571 708.704 436.256 708.704C436.63 708.704 437.271 709.366 437.431 709.58C442.573 716.435 424.381 713.576 430.103 721.586C432.451 724.874 440.717 717.53 442.134 722.486C443.368 726.806 438.139 728.339 434.805 728.339C433.801 728.339 430.389 726.48 429.527 726.863C428.66 727.249 425.9 731.239 426.301 732.441C427.171 735.053 435.342 735.368 436.856 735.368C444.227 735.368 452.805 728.384 450.613 720.71C449.605 717.183 446.402 717.375 444.46 715.433C449.275 708.21 444.065 702.42 435.38 701.376ZM314.92 702.251C310.981 702.744 302.745 702.149 303.489 708.104C303.772 710.368 309.934 708.847 310.818 711.056C312.687 715.728 300.369 732.017 308.167 733.317C309.788 733.587 311.741 735.005 313.444 734.792C314.998 734.598 323.474 706.003 323.474 706.003C323.474 706.003 320.089 703.381 314.92 702.251ZM352.139 708.404C349.81 708.571 346.593 708.593 344.51 710.155C331.814 719.677 343.11 735.78 356.241 729.215C359.261 732.235 351.606 735.068 349.487 735.068C346.654 735.068 344.599 730.838 342.459 731.266C341.598 731.438 337.176 735.181 337.781 735.968C340.658 739.707 344.171 741.298 348.612 741.821C363.146 743.531 369.991 725.432 363.094 714.557C360.892 711.085 357.358 710.026 352.139 708.404ZM352.139 714.557C354.602 714.64 356.367 715.084 357.716 717.784C360.306 722.963 353.519 725.73 349.787 724.237C344.039 721.938 347.647 714.407 352.139 714.557ZM393.759 708.704C371.9 713.076 384.818 740.541 401.088 728.339C402.931 730.182 400.408 734.506 398.162 735.068C396.353 735.52 393.257 735.902 391.408 734.792C390.89 734.481 389.029 732.411 388.182 733.017C387.501 733.503 383.532 737.528 384.08 738.294C389.516 745.905 401.802 742.558 407.241 737.119C410.468 733.892 410.168 725.857 410.168 722.486C410.168 715.696 405.335 708.411 393.759 708.704ZM396.011 714.657C398.023 714.518 399.393 715.458 400.788 717.784C402.266 720.247 400.245 724.601 397.286 724.812C390.687 725.284 386.608 717.506 393.759 715.158C394.595 714.883 395.34 714.704 396.011 714.657Z" fill="#FFFFFF" fill-rule="nonzero" opacity="1" stroke="none"/>
</g>
</svg>
