<?xml version="1.0" encoding="UTF-8" standalone="no"?>
<!DOCTYPE svg PUBLIC "-//W3C//DTD SVG 1.1//EN" "http://www.w3.org/Graphics/SVG/1.1/DTD/svg11.dtd">
<!-- Created with Vectornator (http://vectornator.io/) -->
<svg height="100%" stroke-miterlimit="10" style="fill-rule:nonzero;clip-rule:evenodd;stroke-linecap:round;stroke-linejoin:round;" version="1.1" viewBox="0 0 750 1000" width="100%" xml:space="preserve" xmlns="http://www.w3.org/2000/svg" xmlns:vectornator="http://vectornator.io" xmlns:xlink="http://www.w3.org/1999/xlink">
<defs/>
<g id="Layer-1" vectornator:layerName="Layer 1">
<path d="M368.804 199.788C362.848 199.708 357.192 199.741 352.707 199.988C351.232 200.069 349.808 200.47 348.333 200.562C342.333 200.937 335.033 201.758 328.687 202.912C308.6 206.564 288.352 210.793 269.248 218.434C211.533 241.52 163.324 279.225 126.6 330.638C105.81 359.744 90.683 394.771 82.9333 429.644C79.5111 445.044 75.2373 462.168 75.0348 477.66C74.8421 492.402 74.8421 507.16 75.0348 521.902C75.0542 523.379 75.5482 524.825 75.6097 526.301C76.1217 538.589 78.5179 551.198 81.1837 563.194C93.9727 620.745 122.495 672.167 164.368 714.04C184.128 733.8 206.559 749.023 230.28 763.256C256.373 778.912 288.343 789.178 318.164 794.6C329.363 796.636 340.882 797.997 352.132 798.999C366.066 800.24 397.25 799.035 397.524 798.999C407.649 797.649 417.867 797.316 427.993 795.475C449.144 791.629 469.62 785.557 489.506 777.603C515.021 767.397 538.917 752.373 560.693 735.436C615.439 692.856 647.087 639.231 665.548 574.617C669.424 561.052 671.697 546.758 673.172 532.75C673.517 529.47 674.584 524.779 674.621 521.902C674.898 500.72 675.462 483.957 673.172 464.487C666.51 407.861 643.81 353.703 607.259 309.842C563.941 257.86 514.006 227.409 450.839 209.361C439.097 206.006 426.867 203.943 414.821 202.337C412.497 202.027 409.735 201.953 407.772 201.462C407.317 201.349 386.672 200.025 368.804 199.788ZM368.529 212.585C401.805 212.073 432.031 217.574 463.736 226.632C514.167 241.041 560.991 275.378 594.362 314.816C603.058 325.093 611.445 336.049 618.382 347.61C621.797 353.301 624.672 360.204 628.63 365.481C631.181 368.882 633.216 373.534 634.804 377.504C639.303 388.751 644.922 399.433 648.276 411.173C663.23 463.511 667.811 519.504 652.65 572.567C645.733 596.777 637.251 620.92 624.256 642.579C573.249 727.59 481.261 786.976 380.552 786.976C349.755 786.976 320.085 782.798 290.619 774.379C282.466 772.049 274.447 769.045 266.599 765.905C262.286 764.18 257.874 761.443 253.426 760.331C246.782 758.67 239.03 753.278 233.205 749.783C214.163 738.358 195.152 726.078 179.315 710.241C123.69 654.616 87.6325 585.524 87.6325 505.205C87.6325 479.282 90.8172 454.493 96.4058 429.344C98.907 418.089 102.675 406.648 106.954 395.95C109.291 390.108 113.361 383.843 114.877 377.779C116.468 371.414 121.147 364.388 124.525 358.757C133.89 343.151 143.772 328.188 155.595 314.216C209.118 250.961 286.196 213.853 368.529 212.585ZM380.127 238.23C379.366 238.209 378.271 238.291 376.728 238.355C375.844 238.392 374.956 238.423 374.103 238.655C372.604 239.064 373.634 245.174 373.803 249.478C373.884 251.545 374.997 260.882 373.803 262.076C369.189 257.461 365.706 250.542 362.08 245.104C361.318 243.96 359.259 239.585 357.981 239.23C357.095 238.984 349.786 239.434 349.208 239.53C348.936 239.575 348.624 239.829 348.608 240.105C348.359 244.344 348.767 254.62 348.908 258.851C349.081 264.027 349.196 269.228 349.483 274.398C349.78 279.739 351.181 278.744 357.106 277.898C357.38 277.859 357.691 277.599 357.706 277.323C357.89 274.106 357.761 270.871 357.706 267.65C357.651 264.394 356.314 255.978 357.406 252.703C362.442 257.738 366.326 264.945 370.279 270.874C370.911 271.822 373.652 277.142 374.678 277.323C375.596 277.485 380.975 277.329 382.302 277.023C384.783 276.45 382.922 271.945 382.877 269.399C382.821 266.274 382.704 263.15 382.602 260.026C382.509 257.19 382.146 247.026 382.002 243.929C381.784 239.243 382.41 238.295 380.127 238.23ZM409.546 240.405C397.378 243.447 393.425 253.101 393.425 264.725C393.425 266.746 394.835 270.097 396.074 271.749C400.676 277.885 413.075 285.218 420.095 278.198C421.903 279.404 420.347 278.012 420.969 281.122C421.183 282.193 426.044 282.383 426.818 282.297C428.102 282.154 427.884 278.549 427.993 277.898C428.36 275.699 430.785 263.158 429.743 262.376C428.624 261.537 411.452 259.343 410.996 260.026C410.452 260.843 410.851 262.003 410.721 262.976C409.792 269.942 422.487 265.353 421.544 269.124C419.371 277.819 402.502 273.075 401.623 263.85C400.73 254.475 405.228 248.028 415.095 248.028C416.121 248.028 418.001 248.652 418.92 249.203C423.827 252.148 423.749 260.133 431.217 255.652C433.035 254.561 430.421 250.56 429.743 249.203C427.136 243.99 421.822 241.747 409.546 240.405ZM328.312 242.554C322.994 242.915 314.698 245.371 313.465 245.679C312.356 245.956 308.533 246.358 308.191 247.728C307.727 249.582 309.525 253.781 309.94 255.652C311.542 262.86 313.192 270.084 314.639 277.323C314.889 278.572 315.338 284.309 316.689 284.647C318.65 285.137 336.735 281.272 338.06 279.947C339.906 280.705 340.854 278.066 339.06 276.248C342.97 268.692 323.488 277.124 322.263 274.673C315.583 261.314 336.633 269.862 335.136 262.376C332.661 250.002 320.895 267.279 318.439 256.227C318.143 254.894 317.727 253.738 318.164 252.428C320.937 252.428 328.825 251.389 330.736 249.478C331.649 250.045 332.623 249.667 333.686 248.603C333.175 247.582 333.293 246.879 332.711 246.054C332.824 245.932 332.997 245.797 333.086 245.679C332.793 245.386 332.804 245.397 332.511 245.104C333.624 242.878 331.503 242.338 328.312 242.554ZM451.139 249.778C449.008 250.482 449.326 253.834 448.489 255.927C445.62 263.099 443.337 270.559 440.891 277.898C440.327 279.59 437.399 284.874 438.541 286.396C439.311 287.423 443.124 288.024 444.39 288.446C447.613 289.52 458.359 294.749 461.087 294.295C461.597 294.21 463.631 288.455 463.436 287.871C462.659 285.54 447.681 283.486 448.214 280.822C449.7 273.395 453.42 266.031 455.813 258.851C456.265 257.494 458.521 253.372 457.587 252.128C456.821 251.106 452.497 249.329 451.139 249.778ZM274.797 257.102C272.691 258.155 269.758 258.641 268.073 260.326C269.269 262.717 274.008 283.239 273.347 285.221C269.295 281.169 265.164 277.187 261.025 273.224C259.079 271.361 257.288 269.322 255.176 267.65C254.13 266.822 248.764 270.765 247.852 271.449C251.371 278.486 248.663 288.893 252.251 296.069C251.958 296.362 251.944 296.351 251.651 296.644C245.652 290.645 239.667 284.584 234.08 278.198C232.348 279.353 229.17 280.945 227.931 282.597C227.098 283.707 229.618 284.822 230.58 285.821C232.257 287.563 233.892 289.34 235.554 291.095C239.405 295.16 243.411 299.351 247.277 303.393C249.521 305.738 251.796 308.035 254.001 310.417C254.596 311.06 254.293 311.512 255.176 311.291C256.946 310.849 260.956 308.644 261.924 307.192C262.701 306.028 260.997 301.229 260.75 299.869C260.017 295.84 256.68 284.183 257.8 280.822C264.148 287.17 270.659 293.364 277.147 299.569C279.067 298.289 282.512 297.372 283.87 295.469C284.736 294.257 282.448 287.87 282.121 286.396C280.492 279.067 278.775 271.755 277.147 264.425C276.642 262.155 276.491 258.795 274.797 257.102ZM497.405 269.399C487.831 278.973 476.283 286.847 466.086 295.769C466.773 296.457 472.018 300.648 473.109 299.869C475.297 298.306 477.033 295.377 479.558 294.295C479.996 294.107 488.933 299.18 490.081 299.869C490.539 300.143 492.576 301.193 492.731 301.618C493.674 304.213 491.065 307.743 491.856 310.117C492.157 311.019 497.32 314.413 498.305 314.216C499.762 313.924 500.925 301.696 501.229 299.569C502.192 292.831 503.191 286.111 504.154 279.373C504.32 278.207 505.341 275.192 505.028 274.099C504.532 272.36 498.963 270.178 497.405 269.399ZM496.53 279.373C497.141 279.983 495.205 293.021 494.205 294.02C491.299 292.566 487.807 291.445 485.407 289.046C489.054 285.804 493.084 282.818 496.53 279.373ZM530.224 289.621C521.39 298.455 513.131 308.612 505.628 318.615C507.594 320.799 510.574 324.234 511.477 323.589C516.31 320.137 523.872 309.708 527.299 304.568C528.977 306.246 527.258 311.14 526.999 313.341C526.322 319.102 525.669 324.882 524.95 330.638C524.778 332.008 523.879 333.448 524.375 334.737C525.029 336.437 528.916 339.207 530.524 340.011C537.286 333.249 543.148 325.387 549.27 318.04C550.189 316.937 555.412 310.856 555.119 310.417C553.899 308.587 551.35 306.921 549.545 305.718C543.841 310.708 539.256 317.259 534.323 323.014C532.675 321.367 534.585 315.827 534.898 313.641C535.351 310.471 538.141 297.767 537.247 295.469C536.479 293.495 532.126 290.572 530.224 289.621ZM216.508 291.37C210.909 296.97 204.255 301.588 198.361 306.892C204.769 314.902 211.357 322.808 217.983 330.638C218.768 331.566 221.821 336.486 223.257 335.912C228.647 333.756 238.082 323.193 238.479 323.589C239.455 322.808 240.427 322.046 241.403 321.265C240.831 320.119 239.951 319.21 239.054 318.315C238.761 317.924 237.25 315.896 237.004 315.691C236.457 315.235 235.61 316.516 235.554 316.565C232.917 318.91 230.087 321.08 227.356 323.314C227.028 323.583 224.697 326.072 223.832 325.639C222.065 324.755 219.927 321.095 218.858 319.49C221.796 316.551 224.985 313.888 228.231 311.291C228.192 311.214 228.215 311.19 228.181 311.116C228.841 310.789 228.544 310.991 229.981 309.842C229.503 308.886 228.69 308.251 227.931 307.492C227.799 307.624 227.731 307.774 227.631 307.917C227.661 307.175 227.432 306.419 225.581 304.568C217.292 308.712 216.98 319.635 208.884 307.492C212.744 303.633 217.291 300.437 221.482 296.944C220.469 294.918 218.083 292.945 216.508 291.37ZM369.704 296.069C342.16 298.037 318.074 309.032 298.518 328.588C294.145 332.96 289.732 338.157 286.52 343.51C285.506 345.199 283.297 350.558 281.546 351.434C280.165 352.124 276.238 350.619 274.797 350.534C272.261 350.385 269.714 350.259 267.173 350.259C258.482 350.259 249.472 354.512 242.878 359.907C230.898 369.709 225.881 382.34 225.881 397.7C225.881 400.282 227.372 403.374 227.056 405.899C227.056 405.9 213.077 415.355 212.109 416.147C201.402 424.906 192.815 434.864 185.764 446.616C180.616 455.196 177.085 465.274 174.916 475.035C165.989 515.209 178.569 548.975 206.56 576.966C212.702 583.108 220.248 586.807 227.056 591.913C224.933 596.159 225.306 604.19 225.306 608.31C225.306 625.731 241.184 642.18 256.925 646.678C261.833 648.08 267.082 648.728 272.173 648.728C274.778 648.728 279.039 646.776 281.546 647.278C283.816 647.732 285.634 652.523 286.82 654.302C291.443 661.237 297.032 667.438 302.917 673.323C304.041 674.447 305.249 675.496 306.441 676.547C334.12 700.97 377.782 708.665 411.896 695.019C427.649 688.718 440.789 679.273 452.888 667.174C457.037 663.025 460.977 657.884 464.011 652.827C464.912 651.325 466.131 648.031 467.536 646.978C468.356 646.363 473.29 648.036 474.284 648.153C480.128 648.84 485.871 648.902 491.556 647.278C507.202 642.808 523.354 627.959 524.075 610.66C524.246 606.561 524.375 602.464 524.375 598.362C524.375 596.411 522.541 593.41 522.9 591.613C523.114 590.544 526.969 588.993 527.874 588.389C533.123 584.89 538.204 581.304 542.821 576.966C545.187 574.744 547.55 572.537 549.845 570.242C573.207 546.88 582.314 507.866 575.34 476.485C570.751 455.833 560.159 437.584 545.171 422.595C540.395 417.82 534.953 413.734 529.349 409.998C528.081 409.152 523.422 407.29 522.9 405.899C522.292 404.276 524.243 398.539 524.375 396.825C524.733 392.165 524.481 387.879 523.475 383.353C519.596 365.896 502.95 350.613 484.832 349.659C481.808 349.5 478.762 349.384 475.734 349.384C473.67 349.384 469.73 351.375 467.835 350.834C466.108 350.34 464.102 345.259 463.136 343.81C458.72 337.186 453.541 330.99 447.914 325.364C429.998 307.447 405.208 298.026 369.704 296.069ZM379.477 310.292C402.761 311.05 425.661 319.507 442.34 336.187C453.272 347.119 463.227 360.649 467.536 375.729C469.411 382.293 470.686 388.833 471.335 395.65C471.412 396.463 471.117 401.68 472.235 402.099C476.969 403.875 483.285 403.231 488.332 404.149C494.84 405.332 500.804 408.154 507.078 409.723C513.879 411.423 521.718 417.495 526.999 421.721C546.927 437.662 560.636 461.858 563.317 487.333C567.273 524.913 550.427 562.86 517.626 582.54C509.389 587.482 500.725 591.259 491.256 593.363C488.655 593.941 482.135 596.24 480.133 594.238C482.528 589.449 487.515 585.198 490.681 580.765C497.149 571.711 502.647 561.824 506.778 551.496C520.249 517.819 519.632 479.314 506.203 445.741C502.46 436.382 497.955 424.595 490.681 417.321C481.834 423.219 473.716 430.809 465.486 437.543C452.268 448.357 438.861 458.947 425.643 469.761C420.002 474.377 414.313 478.918 408.672 483.534C407.783 484.261 404.552 487.46 403.048 488.433C406.783 488.35 410.638 487.782 414.221 486.758C418.151 485.635 422.677 483.85 425.643 480.884C427.715 478.812 428.857 477.027 431.217 475.61C442.562 468.804 454.817 463.086 466.661 457.164C468.355 458.858 464.039 471.492 462.861 474.436C455.673 492.406 440.15 506.643 420.969 510.479C415.6 511.553 410.038 512.077 404.572 512.228C402.514 512.286 399.855 511.372 398.399 512.828C401.933 519.896 407.502 526.5 411.596 533.324C416.794 541.988 420.06 551.595 425.643 559.969C428.709 564.567 433.38 570.118 439.116 571.392C448.088 573.386 457.717 567.789 464.611 562.619C466.553 561.163 468.789 558.102 471.06 557.345C471.354 557.247 478.75 563.861 479.258 564.369C479.526 564.636 479.588 564.844 479.633 565.043C481.976 567.03 482.198 566.801 480.058 568.568C480.059 568.636 480.182 568.701 480.133 568.768C479.112 570.161 477.83 571.346 476.609 572.567C471.58 577.596 466.438 582.508 461.387 587.514C455.502 593.346 449.992 599.564 443.815 605.086C443.492 605.375 440.533 604.359 440.016 604.211C415.508 597.209 398.348 559.368 385.526 537.999C380.751 530.04 375.165 521.834 367.354 516.628C365.685 515.515 362.198 512.252 360.031 512.228C351.146 512.133 342.269 512.037 333.386 512.228C333.11 512.234 332.794 512.552 332.786 512.828C332.694 515.953 333.353 519.087 333.086 522.202C333.071 522.378 332.743 522.693 332.386 523.026C336.006 521.212 338.807 521.864 346.558 522.776C348.662 523.024 355.6 522.744 357.106 524.251C358.672 525.816 360.969 527.078 361.506 529.225C361.866 530.669 359.309 532.751 358.581 533.624C354.452 538.579 350.367 543.555 346.283 548.547C334.647 562.768 322.752 576.816 311.115 591.038C304.916 598.615 299.014 606.964 292.094 613.884C342.665 651.812 424.872 649.499 470.46 603.911C471.684 605.135 468.876 616.839 468.135 619.433C462.93 637.653 452.904 652.718 438.241 665.124C417.484 682.688 390.645 690.105 363.555 687.095C352.984 685.921 344.241 681.692 334.261 679.197C325.964 677.122 315.531 669.541 309.665 663.675C297.626 651.636 286.859 638.067 282.121 621.483C280.304 615.124 279.172 608.764 278.621 602.161C278.577 601.626 278.996 596.189 277.447 595.713C271.482 593.877 264.321 594.47 258.1 593.088C252.014 591.736 246.42 588.687 240.529 587.214C233.32 585.412 223.831 577.84 218.858 572.867C201.361 555.37 189.93 536.037 186.639 511.354C181.663 474.032 199.72 434.958 232.03 415.572C240.577 410.444 249.218 406.888 258.975 404.449C261.416 403.839 267.961 401.712 269.823 403.574C267.635 407.95 263.062 411.794 260.15 415.872C253.711 424.887 247.876 434.559 243.753 444.866C229.714 479.963 230.339 518.849 244.328 553.821C247.965 562.914 252.782 574.573 259.875 581.665C268.361 576.008 275.985 568.771 283.87 562.319C291.482 556.091 299.056 549.81 306.641 543.547C305.814 542.104 306.724 537.556 306.741 536.849C306.899 530.308 306.936 523.744 307.016 517.202C307.036 515.531 308.112 512.276 306.441 512.228C300.486 512.058 290.634 510.749 290.319 519.252C290.12 524.619 291.097 530.107 290.044 535.374C289.99 535.645 289.72 535.937 289.444 535.949C285.055 536.136 280.661 536.136 276.272 535.949C275.996 535.937 275.674 535.65 275.672 535.374C275.576 523.853 275.924 512.327 275.972 500.806C276.021 488.894 275.78 476.973 275.972 465.062C275.976 464.786 276.271 464.499 276.547 464.487C280.936 464.301 285.354 464.301 289.744 464.487C290.601 464.524 290.297 465.792 290.319 466.237C290.609 472.039 289.337 479.017 291.494 484.409C293.118 488.469 298.829 488.116 302.042 488.208C303.712 488.256 307.005 489.304 307.016 487.633C307.127 469.863 308.104 452.036 306.741 434.318C306.647 433.095 302.041 434.318 301.742 434.318C299.299 434.318 296.857 434.162 294.418 434.018C292.732 433.919 279.918 431.81 279.196 429.644C278.686 428.113 280.565 423.433 280.946 421.721C281.484 419.299 281.546 412.985 282.995 411.173C284.123 409.764 289.762 411.772 291.194 411.772C299.14 411.772 306.777 410.278 314.04 407.373C320.717 404.702 326.365 399.814 333.086 397.125C352.163 389.494 370.513 382.842 391.675 383.928C400.087 384.359 408.185 385.442 416.27 387.752C424.494 390.102 435.19 393.625 441.79 399.825C442.436 399.31 442.811 399.279 443.515 398.575C443.808 398.721 443.822 398.728 444.115 398.875C445.054 397.78 445.995 396.323 447.339 395.65C447.616 395.927 447.742 396.053 447.889 396.2C451.325 392.232 454.725 388.221 457.587 383.928C429.825 363.106 394.16 354.536 359.756 358.158C351.214 359.057 342.805 360.776 334.561 363.132C328.705 364.805 323.063 367.831 317.264 369.28C308.254 371.533 295.109 381.343 287.995 386.877C285.264 389.001 282.523 392.387 279.496 393.901C278.258 392.663 280.651 382.807 281.246 380.428C284.691 366.648 291.6 352.202 301.742 342.061C305.732 338.07 309.872 334.113 314.34 330.638C332.528 316.491 356.193 309.534 379.477 310.292ZM476.909 362.557C496.427 364.484 507.357 373.594 510.602 386.577C511.645 390.747 512.923 397.704 510.002 400.625C508.451 399.849 499.002 397.229 498.88 396.525C497.121 386.412 498.654 384.14 489.806 377.504C486.685 375.163 476.753 374.978 476.334 374.28C475.985 373.699 473.043 363.864 473.109 363.732C473.664 362.622 476.032 362.682 476.909 362.557ZM271.648 363.107C272.945 363.076 274.236 363.216 275.397 363.732C276.456 364.202 273.483 374.953 272.447 375.729C270.955 376.848 268.756 376.16 266.899 376.329C263.415 376.646 259.689 378.54 257.225 381.003C254.819 383.409 252.627 386.996 251.951 390.376C251.569 392.29 252.493 395.036 251.376 396.525C249.902 398.491 243.238 399.868 240.828 400.35C238.825 400.75 239.054 396.356 239.054 395.95C239.054 391.064 240.564 386.733 241.703 382.178C244.349 371.593 257.728 364.215 267.773 363.432C269.04 363.333 270.35 363.138 271.648 363.107ZM332.786 576.391C334.141 577.746 338.127 592.383 338.96 595.713C339.478 597.785 345.819 607.098 345.684 607.435C344.607 610.127 340.313 615.245 337.785 616.509C337.296 616.753 334.614 614.173 334.261 613.884C329.069 609.637 323.783 605.431 319.039 600.687C322.403 593.958 327.691 581.487 332.786 576.391ZM510.002 596.887C513.376 598.766 511.379 605.545 510.902 608.885C509.15 621.152 497.554 635.255 484.232 635.255C479.857 635.255 473.404 635.847 473.109 634.08C472.779 632.097 475.45 625.299 476.334 623.532C476.457 623.285 476.635 622.993 476.909 622.957C486.695 621.681 490.278 621.92 496.53 613.584C499.269 609.932 498.502 605.136 498.88 600.987C498.95 600.208 508.751 596.191 510.002 596.887ZM240.529 597.462C242.85 598.139 251.034 600.632 251.077 600.987C251.654 605.796 251.021 612.079 254.876 615.934C261.017 622.075 264.261 622.109 272.747 622.957C273.527 623.035 276.396 633.454 277.147 634.955C273.932 638.169 267.261 636.302 263.074 635.255C251.466 632.353 240.803 622.102 239.354 609.785C239.021 606.96 238.302 599.689 240.529 597.462ZM447.889 396.2C446.39 397.932 444.892 399.683 443.415 401.399C442.924 400.841 442.343 400.344 441.79 399.825C441.671 399.92 441.614 399.901 441.465 400.05C442.493 401.078 441.835 400.455 443.515 401.799C445.42 400.371 446.792 398.421 448.214 396.525C448.051 396.362 447.976 396.287 447.889 396.2ZM480.058 568.568C480.053 568.168 479.439 567.745 479.258 567.293C478.824 566.208 479.802 565.791 479.633 565.043C479.587 565.004 479.607 565.01 479.558 564.968C479.119 565.408 479.098 565.404 478.658 565.843C479.249 567.024 478.946 567.437 479.833 568.768C479.937 568.681 479.963 568.646 480.058 568.568ZM184.889 319.49C183.005 320.746 181.537 323.268 180.19 325.064C185.652 330.526 191.827 335.341 197.762 340.286C195.992 342.055 189.02 339.751 186.639 339.411C185.08 339.188 170.427 336.944 170.242 337.062C167.817 338.605 165.79 341.814 164.068 344.11C170.885 351.779 179.684 357.981 187.514 364.606C188.065 365.073 192.51 369.295 193.087 369.006C194.195 368.452 198.062 364.85 198.062 363.432C198.062 361.934 194.446 359.95 193.362 359.032C188.762 355.14 184.15 351.303 179.615 347.335C181.233 345.717 185.984 347.347 188.088 347.61C191.528 348.04 206.831 351.25 209.184 350.259C210.875 349.547 213.556 345.915 214.458 344.11C207.585 337.237 199.607 331.342 192.188 325.064C191.385 324.385 185.828 318.864 184.889 319.49ZM568.016 323.889C564.88 325.457 561.975 328.708 559.218 330.913C552.288 336.457 545.519 342.287 538.422 347.61C540.787 352.34 550.146 363.938 555.119 365.181C569.144 368.688 581.764 359.429 581.764 344.685C581.764 337.118 572.744 328.617 568.016 323.889ZM568.741 333.812C571.781 334.603 574.44 341.282 574.44 344.985C574.44 352.417 567.294 359.525 559.818 358.458C555.803 357.884 554.118 356.011 551.32 352.884C551.305 352.867 547.932 349.669 548.37 349.084C552.962 342.962 560.118 336.368 567.417 333.837C567.859 333.684 568.307 333.699 568.741 333.812ZM377.952 324.789C356.656 324.163 335.171 330.18 318.164 342.935C309.784 349.22 302.837 356.528 297.068 365.181C295.702 367.231 289.461 378.671 290.919 380.128C300.006 371.041 313.315 355.189 327.237 351.709C338.306 348.941 348.325 344.236 360.031 342.935C394.518 339.104 438.302 349.326 459.037 380.428C460.871 378.595 456.058 370.598 454.638 368.706C445.927 357.091 437.905 345.938 425.069 338.236C410.963 329.773 394.516 325.276 377.952 324.789ZM384.276 405.924C374.96 405.824 365.491 407.589 356.532 411.173C350.287 413.67 344.346 416.103 338.36 419.096C337.412 419.57 332.801 421.436 332.786 422.595C332.497 444.367 332.593 466.161 332.786 487.933C332.789 488.209 333.11 488.504 333.386 488.508C346.37 488.7 359.368 488.508 372.354 488.508C379.722 477.455 389.41 467.448 397.824 457.164C407.344 445.528 416.767 433.788 426.268 422.12C414.669 411.412 399.697 406.088 384.276 405.924ZM255.576 414.397C252.223 414.537 243.422 419.934 241.403 421.146C232.339 426.584 224.38 434.245 218.258 442.817C196.695 473.004 194.766 516.409 213.884 548.272C221.341 560.7 231.821 572.463 244.928 579.016C246.87 579.987 254.813 584.653 256.351 583.115C248.333 575.097 231.982 561.853 228.806 549.146C227.955 545.743 226.034 542.216 224.706 538.898C221.807 531.649 220.184 523.452 219.158 515.753C214.473 480.619 224.977 435.812 256.65 414.697C256.429 414.476 256.055 414.377 255.576 414.397ZM494.805 414.647C494.423 414.669 494.11 414.792 493.906 414.997C501.2 422.291 517.587 435.936 520.55 447.791C521.382 451.116 523.353 454.496 524.65 457.739C527.784 465.576 529.756 474.316 530.799 482.659C535.569 520.825 524.078 558.737 493.606 583.115C495.355 584.864 506.904 577.874 509.128 576.391C517.825 570.593 525.6 563.533 531.698 554.995C553.166 524.94 555.102 481.557 536.073 449.84C528.489 437.201 518.214 426.923 505.628 419.371C503.908 418.339 497.482 414.494 494.805 414.647ZM600.685 480.684C595.851 480.998 590.734 483.745 589.687 487.933C588.221 493.797 589.513 496.532 593.487 500.506C597.295 504.314 603.617 500.183 606.384 501.106C604.471 506.846 597.25 508.686 592.037 506.08C585.266 512.85 595.797 513.403 600.235 513.403C615.407 513.403 616.332 491.132 608.134 482.934C606.377 481.177 603.586 480.496 600.685 480.684ZM601.785 486.308C602.507 486.392 603.19 486.609 603.735 487.033C606.927 489.516 607.589 497.006 601.985 497.006C595.205 497.006 592.672 488.261 599.636 486.458C600.304 486.285 601.063 486.225 601.785 486.308ZM141.822 480.884C138.668 480.884 135.896 483.586 133.899 485.583C125.639 493.843 140.241 508.811 148.546 500.506C148.839 500.799 148.853 500.813 149.146 501.106C146.382 506.633 141.315 509.338 134.799 506.08C133.753 507.125 133.726 508.47 133.324 509.879C132.049 514.34 141.195 513.403 142.997 513.403C158.399 513.403 159.152 491.191 150.895 482.934C148.93 480.968 143.965 480.884 141.822 480.884ZM144.572 486.408C145.426 486.567 146.29 486.89 146.796 487.333C149.486 489.686 150.514 497.006 145.047 497.006C137.763 497.006 135.394 489.405 142.397 486.458C142.866 486.261 143.717 486.25 144.572 486.408ZM634.804 480.884C624.23 480.884 618.548 494.722 620.732 503.455C621.55 506.728 623.617 508.965 626.006 511.354C627.941 513.289 633.329 513.403 635.379 513.403C646.553 513.403 648.133 497.085 639.178 492.607C637.607 491.822 634.606 491.732 633.029 491.732C631.121 491.732 630.066 492.825 628.63 493.782C628.337 493.489 628.348 493.475 628.055 493.182C631.952 485.388 635.93 488.82 642.402 485.583C642.695 485.876 642.709 485.865 643.002 486.158C648.28 480.88 636.905 480.884 634.804 480.884ZM632.454 497.006C634.443 496.677 638.603 497.756 638.603 500.806C638.603 502.176 639.159 503.835 638.303 504.905C637.871 505.445 635.943 507.829 634.504 507.829C627.196 507.829 624.485 498.327 632.454 497.006ZM116.327 481.484C114.871 482.94 113.923 485.67 111.953 486.458C111.102 486.799 107.74 486.722 107.554 487.933C107.36 489.191 107.823 490.594 107.254 491.732C109.083 493.562 114.508 490.556 114.577 492.907C114.767 499.348 114.388 505.787 114.577 512.228C114.585 512.504 114.887 512.752 115.152 512.828C117.329 513.45 121.601 513.968 121.601 511.054C121.601 501.876 121.601 492.712 121.601 483.534C121.601 482.598 121.721 482.485 116.327 481.484ZM290.919 617.683C289.045 619.557 293.868 627.472 295.318 629.406C297.834 632.761 299.682 636.629 302.342 639.954C309.095 648.395 316.945 654.98 326.062 660.45C357.683 679.423 402.013 677.304 431.517 655.176C440.016 648.802 447.047 641.392 452.888 632.631C454.246 630.594 460.444 619.09 459.037 617.683C450.747 625.974 437.699 641.996 424.769 645.228C421.115 646.142 417.211 648.176 413.646 649.602C405.834 652.727 396.753 654.302 388.45 655.176C352.414 658.97 313.402 647.661 290.919 617.683ZM215.633 652.827C211.187 656.161 207.402 661.368 203.635 665.424C199.089 670.321 193.939 675.073 189.863 680.372C188.978 681.523 193.771 685.067 195.137 685.921C198.152 687.805 202.407 671.701 207.435 677.447C208.984 679.218 202.728 691.066 203.635 693.244C204.671 695.73 207.468 697.505 209.484 699.118C213.269 695.333 211.217 686.838 215.058 682.996C222.687 686.81 231.455 679.138 231.455 671.573C231.455 665.902 225.835 661.853 222.382 658.401C222.23 658.249 216.394 652.256 215.633 652.827ZM216.808 662.8C216.953 662.669 217.238 662.669 217.383 662.8C219.426 664.657 221.35 666.651 223.257 668.649C227.2 672.78 219.095 679.628 213.009 673.923C209.417 670.555 208.56 671.172 211.534 668.074C213.255 666.281 214.961 664.463 216.808 662.8ZM534.623 653.427C532.891 654.292 530.271 657.29 529.049 658.401C533.966 664.02 539.035 669.516 543.996 675.098C542.738 676.985 537.521 674.501 535.498 673.923C533.317 673.3 518.224 668.264 517.326 668.649C515.62 669.38 513.49 672.106 512.052 673.323C508.782 676.09 511.904 676.941 514.402 679.772C515.957 681.535 517.533 683.293 519.101 685.046C521.453 687.674 523.781 690.333 526.124 692.969C529.34 696.587 532.559 700.194 535.798 703.792C537.653 702.401 539.82 700.863 541.347 699.118C541.932 698.449 536.853 693.514 536.372 692.969C532.576 688.667 528.623 684.479 524.95 680.072C526.428 678.593 530.695 680.777 532.573 681.246C539.372 682.946 548 684.273 554.244 687.395C556.182 685.457 558.368 683.662 560.393 681.821C551.358 672.786 543.667 662.471 534.623 653.427ZM242.878 676.272C240.851 677.286 239.463 680.623 238.179 682.421C233.932 688.367 229.936 694.486 225.881 700.568C225.276 701.476 220.808 706.947 221.482 707.891C224.3 711.836 236.526 719.063 241.128 721.364C242.754 719.738 243.954 717.726 245.228 715.815C242.002 711.514 235.163 710.319 232.03 706.142C231.652 705.637 236.109 699.383 236.729 699.693C240.133 701.395 243.102 704.712 246.677 706.142C247.73 706.563 248.072 705.077 249.602 705.842C250.834 704.61 251.773 703.299 252.551 701.743C249.131 698.322 244.398 696.146 240.529 693.244C241.65 691 243.41 688.844 244.928 686.82C247.345 688.029 249.669 689.973 251.951 691.494C252.984 692.183 257.261 695.822 258.4 695.594C259.16 695.442 262.861 690.589 262.499 689.745C260.869 685.942 252.409 682.327 249.027 680.072C248.177 679.505 243.803 675.81 242.878 676.272ZM498.155 686.195C496.96 686.108 495.721 686.108 494.48 686.22C473.806 688.089 472.044 710.075 485.107 723.138C488.811 726.842 495.982 726.638 500.354 726.638C511.952 726.638 518.864 710.938 516.151 701.443C513.519 692.229 506.518 686.81 498.155 686.195ZM496.98 693.394C502.634 693.633 507.032 697.807 508.828 704.092C510.479 709.871 506.124 719.314 499.18 719.314C482.82 719.314 477.215 696.196 494.48 693.544C495.335 693.413 496.172 693.36 496.98 693.394ZM268.948 692.369C266.477 694.841 267.444 704.371 267.173 707.891C266.557 715.904 264.625 725.101 265.424 733.087C265.557 734.419 271.047 736.323 272.173 736.886C281.747 727.52 291.273 718.136 300.567 708.491C300.811 708.238 300.972 707.909 301.167 707.616C299.455 705.905 296.386 705.213 294.143 704.092C287.193 711.042 282.518 715.612 275.672 722.839C274.157 724.437 275.47 723.689 274.222 724.313C272.563 722.654 274.03 717.925 274.222 715.815C274.631 711.314 277.223 699.999 276.272 696.194C275.976 695.01 270.182 692.986 268.948 692.369ZM461.687 702.342C460.36 701.9 455.831 704.673 454.938 705.567C459.1 713.89 461.998 723.492 465.486 732.212C466.196 733.986 467.615 740.353 469.585 741.01C470.836 741.427 475.42 738.7 476.334 737.786C472.174 729.466 469.273 719.833 465.786 711.116C465.082 709.357 463.606 702.982 461.687 702.342ZM446.165 708.491C439.302 710.207 432.444 712.097 425.643 714.04C423.181 714.744 419.638 715.074 417.445 716.39C416.113 717.189 417.657 723.267 419.22 723.713C421.718 724.427 428.717 719.257 430.643 721.664C431.123 722.265 431.278 724.926 431.517 725.763C432.978 730.874 435.637 747.454 438.841 750.658C440.562 749.798 444.828 750.383 445.865 748.309C446.493 747.052 444.493 742.609 444.115 741.285C442.427 735.377 440.906 729.374 439.416 723.413C439.131 722.273 438.051 720.18 438.241 719.039C438.766 715.888 451.159 719.834 449.089 712.59C448.663 711.1 448.461 709.616 446.165 708.491ZM316.114 711.991C302.852 712.898 298.518 724.744 298.518 736.886C298.518 738.611 300.063 741.955 301.167 743.335C307.062 750.703 312.383 752.433 321.663 752.433C333.167 752.433 340.503 736.711 338.06 726.938C335.373 716.192 325.947 711.318 316.114 711.991ZM320.838 719.289C324.397 719.734 327.132 721.672 329.587 725.763C333.718 732.648 327.89 745.384 319.314 745.384C303.275 745.384 301.43 721.081 316.989 719.314C318.382 719.156 319.652 719.141 320.838 719.289ZM407.197 717.864C405.878 718.029 402.607 717.717 401.923 719.314C400.691 722.189 403.647 738.256 403.973 742.16C404.225 745.191 404.464 749.386 400.473 750.383C386.931 753.769 389.964 734.913 389.025 726.938C388.671 723.927 383.472 718.144 380.252 721.364C381.411 723.681 380.873 728.674 381.127 731.337C381.977 740.264 381.232 749.289 387.876 755.932C393.873 761.93 404.31 758.545 409.546 753.308C415.834 747.02 411.475 733.004 410.721 725.463C410.508 723.33 410.877 719.494 407.197 717.864ZM353.907 718.389C352.729 718.244 351.562 718.218 350.383 718.439C348.64 718.766 349.593 726.358 349.483 728.113C349.074 734.653 348.718 741.192 348.333 747.734C348.31 748.125 347.049 757.236 348.333 757.407C354.695 758.255 361.526 758.167 367.954 758.582C369.906 758.708 373.3 760.171 373.803 758.282C374.357 756.204 374.298 753.975 374.103 751.833C374.008 750.786 370.546 751.128 367.654 750.958C362.761 750.67 355.974 752.985 356.232 746.559C356.544 738.755 357.15 730.929 357.706 723.138C357.804 721.772 358.75 719.308 357.406 719.039C356.269 718.812 355.085 718.534 353.907 718.389Z" fill="#FFFFFF" fill-rule="nonzero" opacity="1" stroke="none"/>
</g>
</svg>
