<?xml version="1.0" encoding="UTF-8" standalone="no"?>
<!DOCTYPE svg PUBLIC "-//W3C//DTD SVG 1.1//EN" "http://www.w3.org/Graphics/SVG/1.1/DTD/svg11.dtd">
<!-- Created with Vectornator (http://vectornator.io/) -->
<svg height="100%" stroke-miterlimit="10" style="fill-rule:nonzero;clip-rule:evenodd;stroke-linecap:round;stroke-linejoin:round;" version="1.1" viewBox="0 0 750 1000" width="100%" xml:space="preserve" xmlns="http://www.w3.org/2000/svg" xmlns:vectornator="http://vectornator.io" xmlns:xlink="http://www.w3.org/1999/xlink">
<defs/>
<g id="Layer-1" vectornator:layerName="Layer 1">
<path d="M296.107 199.5L294.102 201.205C294.102 201.205 287.815 206.475 285.032 208.795C277.792 214.828 270.547 220.867 263.332 226.972C241.442 245.494 219.176 263.683 197.163 282.31C189.994 288.375 182.776 294.398 175.537 300.431C174.481 301.311 168.198 306.609 168.191 306.615L165.624 308.77L165.624 312.105C165.624 405.803 165.624 593.197 165.624 686.895L165.624 690.155L168.06 692.292C168.104 692.33 173.88 697.439 175.237 698.569L183.483 705.447C187.761 709.012 192.041 712.581 196.319 716.147C220.726 736.486 245.13 756.729 269.516 777.05C275.956 782.417 282.413 787.779 288.855 793.147C290.166 794.24 294.819 797.919 294.851 797.945L296.8 799.5L299.311 799.5C337.376 799.5 413.505 799.5 451.569 799.5L454.249 799.5L456.292 797.738C456.292 797.738 461.753 792.994 462.626 792.267L463.132 791.854C469.041 786.929 474.919 781.991 480.803 777.013C505.043 756.502 529.541 736.213 553.981 715.847C561.217 709.816 568.465 703.775 575.681 697.67C576.218 697.215 581.853 692.377 581.865 692.367L584.376 690.211L584.376 686.895C584.376 593.197 584.376 405.803 584.376 312.105L584.376 308.789L581.827 306.633C581.813 306.621 575.349 301.122 574.182 300.15C567.56 294.632 560.949 289.026 554.262 283.453C529.444 262.772 504.77 241.826 479.885 221.088C473.765 215.988 467.668 210.757 461.445 205.572C460.277 204.598 455.756 201.072 455.711 201.037L453.743 199.5L451.27 199.5C413.132 199.5 336.868 199.5 298.73 199.5L296.107 199.5ZM298.73 206.696L451.27 206.696C451.27 206.696 455.918 210.335 456.835 211.1C463.006 216.242 469.122 221.473 475.294 226.616C500.145 247.325 524.8 268.271 549.652 288.981C556.308 294.527 562.918 300.133 569.572 305.678C570.664 306.588 577.18 312.105 577.18 312.105L577.18 686.895C577.18 686.895 571.507 691.778 571.033 692.179C563.844 698.263 556.606 704.29 549.371 710.319C524.942 730.676 500.433 750.98 476.156 771.522C470.126 776.624 464.085 781.699 458.016 786.757C456.969 787.629 451.569 792.304 451.569 792.304L299.311 792.304C299.311 792.304 294.571 788.557 293.446 787.619C287.004 782.251 280.566 776.889 274.125 771.522C249.732 751.194 225.327 730.95 200.929 710.619C193.902 704.763 186.875 698.916 179.847 693.06C178.728 692.127 172.82 686.895 172.82 686.895L172.82 312.105C172.82 312.105 179.129 306.807 180.147 305.959C187.388 299.925 194.616 293.907 201.81 287.819C223.76 269.246 246.026 251.038 267.979 232.463C275.168 226.379 282.403 220.355 289.642 214.323C292.452 211.981 298.73 206.696 298.73 206.696ZM338.552 213.742C326.352 213.758 314.152 213.833 301.954 214.023C299.104 214.068 296.54 218.325 294.327 220.17C287.516 225.845 280.661 231.467 273.844 237.148C251.796 255.521 229.707 273.829 207.657 292.204C200.734 297.973 193.795 303.715 186.875 309.482C185.791 310.385 179.549 314.387 179.547 315.928C179.45 438.418 178.868 560.902 179.547 683.39C179.556 684.855 186.035 689.168 187.174 690.118C193.723 695.575 200.225 701.056 206.776 706.515C230.728 726.475 254.578 746.578 278.529 766.537C284.491 771.505 290.43 776.508 296.388 781.473C296.845 781.854 300.328 785.57 301.354 785.577C350.447 785.867 399.553 785.771 448.646 785.577C448.917 785.576 455.69 779.569 456.554 778.849C462.514 773.882 468.449 768.884 474.413 763.914C497.885 744.354 521.217 724.61 544.686 705.053C551.34 699.508 557.979 693.966 564.587 688.375C565.515 687.59 570.446 684.372 570.453 683.39C571.229 560.903 570.55 438.418 570.453 315.928C570.451 313.987 564.835 310.657 563.425 309.482C556.503 303.714 549.542 297.968 542.624 292.204C519.412 272.861 496.158 253.564 472.951 234.224C467.095 229.344 461.23 224.469 455.374 219.589C453.701 218.195 450.505 214.327 448.346 214.323C411.746 214.25 375.151 213.694 338.552 213.742ZM333.267 256.843C338.441 256.843 343.631 256.925 348.802 257.068C349.216 257.079 349.406 257.625 349.664 257.948C351.6 260.368 352.919 264.445 354.068 267.318C356.787 274.116 360.718 280.42 363.438 287.219C370.801 305.627 381.542 322.687 388.905 341.095C391.625 347.895 395.555 354.218 398.274 361.015C399.395 363.816 400.531 367.939 402.678 370.085C402.873 369.89 403.258 369.78 403.259 369.504C403.453 332.319 402.969 295.133 403.259 257.948C403.262 257.534 403.726 257.08 404.14 257.068C413.603 256.784 423.065 256.876 432.53 257.068C432.806 257.073 433.129 257.372 433.13 257.649C433.422 337.974 433.314 418.312 433.411 498.638C433.413 500.806 433.821 499.971 432.53 501.262C430.721 499.452 429.679 496.336 428.726 493.953C426.445 488.25 423.1 482.962 420.818 477.256C413.973 460.144 403.958 444.299 397.113 427.184C388.941 406.757 376.875 387.889 368.704 367.462C362.699 352.45 353.925 338.546 347.921 323.536C339.033 301.316 327.578 279.363 316.87 257.948C317.163 257.656 317.337 257.079 317.751 257.068C322.922 256.925 328.093 256.843 333.267 256.843ZM266.817 296.008C273.939 295.818 281.058 295.818 288.18 296.008C288.456 296.016 288.76 296.313 288.761 296.589C288.956 374.572 288.956 452.568 288.761 530.551C288.76 530.827 288.456 531.125 288.18 531.132C281.058 531.322 273.939 531.322 266.817 531.132C266.541 531.125 266.218 530.827 266.217 530.551C266.023 452.568 266.023 374.572 266.217 296.589C266.218 296.313 266.541 296.016 266.817 296.008ZM461.82 296.008C468.942 295.818 476.061 295.818 483.183 296.008C483.459 296.016 483.782 296.313 483.783 296.589C483.977 374.572 483.977 452.568 483.783 530.551C483.782 530.827 483.459 531.125 483.183 531.132C476.061 531.322 468.942 531.322 461.82 531.132C461.544 531.125 461.24 530.827 461.239 530.551C461.044 452.568 461.044 374.572 461.239 296.589C461.24 296.313 461.544 296.016 461.82 296.008ZM317.47 326.16C320.773 328.362 322.691 336.321 324.497 339.934C330.99 352.92 337.846 366.279 343.237 379.755C346.763 388.571 352.003 396.705 355.53 405.522C370.648 443.319 392.525 478.4 407.644 516.197C413.075 529.774 420.143 543.236 426.683 556.318C427.411 557.773 433.084 569.564 432.83 570.073C432.707 570.32 432.525 570.649 432.249 570.654C421.905 570.845 411.537 571.03 401.198 570.654C399.941 570.608 398.134 565.328 397.693 564.226C394.923 557.3 391.36 550.397 388.024 543.725C378.164 524.005 367.822 503.573 359.634 483.103C357.156 476.909 353.621 471.155 351.145 464.963C350.168 462.522 349.172 458.905 347.322 457.055C347.127 457.25 346.742 457.36 346.741 457.636C346.547 495.017 347.031 532.393 346.741 569.773C346.738 570.187 346.274 570.641 345.86 570.654C336.397 570.938 326.935 570.845 317.47 570.654C317.194 570.648 316.871 570.349 316.87 570.073C316.578 489.552 316.686 409.024 316.589 328.502C316.587 326.627 316.248 327.382 317.47 326.16ZM230.8 335.399C233.046 335.401 235.284 335.436 237.527 335.53C237.803 335.541 238.107 335.853 238.108 336.129C238.303 387.955 238.303 439.785 238.108 491.611C238.107 491.887 237.803 492.18 237.527 492.192C233.042 492.379 228.539 492.379 224.054 492.192C223.589 492.172 223.173 490.993 223.173 490.73C223.076 439.392 223.076 388.049 223.173 336.71C223.174 336.293 223.751 335.544 224.054 335.53C226.296 335.428 228.554 335.396 230.8 335.399ZM512.473 335.53C516.958 335.343 521.461 335.343 525.946 335.53C526.16 335.539 526.827 336.456 526.827 336.71C526.827 388.146 526.624 439.575 526.527 491.011C526.527 491.382 526.671 492.161 525.946 492.192C521.461 492.379 516.958 492.379 512.473 492.192C512.197 492.18 511.893 491.887 511.892 491.611C511.697 439.785 511.697 387.955 511.892 336.129C511.893 335.853 512.197 335.541 512.473 335.53ZM325.247 598.013C327.762 597.963 330.272 598.159 332.686 598.763C334.963 599.332 337.117 601.467 337.671 603.748C338.892 608.774 337.859 614.094 337.671 619.264C337.661 619.54 337.366 619.828 337.09 619.845C334.168 620.027 331.224 620.027 328.301 619.845C328.026 619.828 327.735 619.54 327.72 619.264C327.536 615.755 327.905 612.241 327.72 608.732C327.632 607.05 322.241 607.051 322.155 608.732C321.97 612.339 320.302 616.464 322.155 619.564C326.05 626.08 332.932 630.246 338.252 635.661C338.405 635.817 338.549 636.024 338.552 636.242C338.647 643.561 338.739 650.887 338.552 658.204C338.543 658.556 338.201 658.836 337.952 659.085C336.438 660.599 335.406 663.392 333.267 663.47C328.098 663.658 322.921 663.655 317.751 663.47C316.365 663.421 315.538 661.797 314.528 660.847C313.623 659.995 312.063 659.437 311.904 658.204C311.145 652.299 311.715 646.296 311.904 640.346C311.913 640.07 312.21 639.781 312.485 639.765C315.701 639.581 318.939 639.581 322.155 639.765C322.43 639.781 322.724 640.07 322.736 640.346C322.922 644.734 322.549 649.132 322.736 653.52C322.801 655.057 327.655 655.057 327.72 653.52C327.907 649.132 327.814 644.737 327.72 640.346C327.716 640.128 327.573 639.921 327.421 639.765C322.295 634.545 314.819 630.958 311.904 624.249C309.221 618.072 311.199 610.745 311.904 604.047C312.031 602.844 316.395 598.984 317.751 598.763C320.207 598.362 322.731 598.064 325.247 598.013ZM287.655 598.219C290.703 597.999 293.898 598.623 296.969 598.763C298.46 598.831 298.576 605.592 298.73 606.671C300.249 617.301 301.696 627.941 303.115 638.584C303.962 644.933 304.911 651.275 305.758 657.624C305.843 658.266 307.224 663.379 305.758 663.47C302.835 663.653 299.891 663.653 296.969 663.47C294.65 663.325 296.896 652.751 295.207 652.639C292.481 652.457 289.745 652.457 287.018 652.639C285.787 652.721 285.703 663.406 284.676 663.47C281.753 663.653 278.809 663.653 275.887 663.47C274.555 663.387 275.802 659.381 275.887 658.785C276.793 652.445 277.623 646.105 278.529 639.765C279.936 629.915 281.299 620.057 282.614 610.194C282.999 607.31 282.048 599.611 284.676 598.763C285.651 598.448 286.64 598.293 287.655 598.219ZM470.946 598.276C473.098 598.256 474.986 598.605 474.994 599.944C475.09 617.511 474.801 635.072 474.994 652.639C475.027 655.655 484.055 650.704 484.363 654.101C484.629 657.017 484.546 659.967 484.363 662.889C484.346 663.165 484.058 663.462 483.783 663.47C477.637 663.659 471.47 663.659 465.324 663.47C465.048 663.462 464.746 663.165 464.743 662.889C464.55 641.711 464.55 620.541 464.743 599.363C464.746 599.087 465.049 598.786 465.324 598.763C466.372 598.674 468.794 598.295 470.946 598.276ZM501.491 598.557C504.86 598.557 508.228 598.623 511.592 598.763C512.006 598.78 512.434 599.231 512.473 599.644C512.737 602.462 512.737 605.315 512.473 608.133C512.112 611.984 501.47 606.11 501.341 609.594C501.154 614.666 501.154 619.758 501.341 624.83C501.461 628.05 511.375 622.731 511.592 625.991C511.774 628.718 511.774 631.472 511.592 634.199C511.375 637.459 501.454 632.144 501.341 635.361C501.153 640.726 501.341 646.109 501.341 651.477C501.341 651.867 501.167 652.29 501.341 652.639C502.872 655.699 508.182 652.954 511.592 653.239C512.005 653.273 512.435 653.688 512.473 654.101C512.738 657.017 512.655 659.967 512.473 662.889C512.455 663.165 512.168 663.463 511.892 663.47C505.062 663.66 498.217 663.751 491.391 663.47C490.977 663.453 490.516 663.022 490.51 662.608C490.221 641.626 490.221 620.626 490.51 599.644C490.516 599.23 490.977 598.78 491.391 598.763C494.755 598.623 498.123 598.557 501.491 598.557ZM242.512 598.594C243.881 598.604 245.234 598.672 246.597 598.763C247.88 598.848 249.186 605.029 249.539 606.09C251.491 611.946 253.434 617.793 255.386 623.649C255.928 625.276 256.297 628.064 257.447 629.215C257.643 629.019 258.023 628.91 258.028 628.634C258.22 618.875 257.837 609.121 258.028 599.363C258.034 599.087 258.334 598.783 258.609 598.763C261.14 598.582 263.68 598.763 266.217 598.763C266.815 598.763 268.85 598.312 268.86 599.363C269.053 620.444 269.148 641.528 268.86 662.608C268.854 663.022 268.391 663.429 267.979 663.47C265.357 663.732 262.693 663.732 260.071 663.47C258.568 663.32 257.26 657.399 256.848 656.162C254.728 649.801 252.608 643.343 250.12 637.123C249.479 635.52 249.586 633.665 248.359 632.438C248.164 632.633 247.783 632.743 247.778 633.019C247.586 642.972 247.969 652.936 247.778 662.889C247.773 663.165 247.472 663.454 247.197 663.47C244.177 663.653 241.128 663.653 238.108 663.47C237.833 663.454 237.53 663.165 237.527 662.889C237.334 641.808 237.239 620.724 237.527 599.644C237.533 599.23 237.996 598.803 238.408 598.763C239.768 598.631 241.143 598.584 242.512 598.594ZM443.961 598.632C445.427 598.634 446.885 598.672 448.346 598.763C448.622 598.78 448.924 599.087 448.927 599.363C449.12 617.125 448.734 634.876 448.927 652.639C448.958 655.515 457.42 650.85 457.716 654.101C457.981 657.017 457.899 659.967 457.716 662.889C457.699 663.165 457.411 663.461 457.135 663.47C451.282 663.659 445.41 663.659 439.557 663.47C439.343 663.463 438.678 662.561 438.677 662.308C438.58 641.52 438.58 620.732 438.677 599.944C438.679 599.525 439.253 598.784 439.557 598.763C441.018 598.663 442.496 598.63 443.961 598.632ZM347.622 598.763C356.991 599.056 357.558 599.23 357.572 599.644C357.855 608.033 357.382 616.438 357.572 624.83C357.61 626.495 363.101 626.495 363.138 624.83C363.329 616.34 362.947 607.852 363.138 599.363C363.144 599.087 363.443 598.78 363.719 598.763C366.641 598.58 369.585 598.58 372.508 598.763C372.972 598.792 373.388 599.951 373.388 600.225C373.388 620.819 373.185 641.415 373.089 662.009C373.087 662.375 373.302 663.421 372.508 663.47C369.585 663.653 366.641 663.653 363.719 663.47C363.443 663.453 363.144 663.165 363.138 662.889C362.947 653.717 363.138 635.361 363.138 635.361L357.366 635.024L357.366 653.538C357.366 653.538 357.369 663.61 355.53 663.47C355.479 663.319 350.551 664.19 348.09 663.601C346.29 663.171 346.743 661.243 346.741 661.128C346.452 640.634 346.452 620.138 346.741 599.644C346.747 599.23 347.329 599.056 347.622 598.763ZM381.596 598.763C382.245 598.682 389.718 598.682 390.366 598.763C391.542 598.91 391.771 605.273 391.828 605.79C392.836 614.863 393.814 623.94 394.77 633.019C395.032 635.505 396.232 643.569 396.232 643.569C396.232 643.569 397.421 637.539 397.693 635.361C398.791 626.58 399.819 617.795 400.917 609.013C401.123 607.366 401.788 598.819 402.678 598.763C405.601 598.58 408.526 598.58 411.448 598.763C411.724 598.78 412.009 599.089 412.048 599.363C412.54 602.811 410.754 607.847 410.286 611.356C408.685 623.368 406.903 635.36 405.302 647.373C404.983 649.761 403.559 662.009 403.559 662.009C403.559 662.009 402.954 663.458 402.678 663.47C398.583 663.656 394.461 663.656 390.366 663.47C388.64 663.392 388.321 654.136 388.024 652.058C386.714 642.891 385.444 633.708 384.22 624.53C383.373 618.181 382.443 611.857 381.596 605.509C381.494 604.739 380.08 598.952 381.596 598.763ZM420.237 598.763C423.257 598.58 426.287 598.58 429.307 598.763C429.582 598.78 429.904 599.087 429.907 599.363C430.1 620.541 430.1 641.711 429.907 662.889C429.904 663.165 429.583 663.454 429.307 663.47C426.287 663.653 423.257 663.653 420.237 663.47C419.962 663.454 419.659 663.165 419.656 662.889C419.463 641.711 419.463 620.541 419.656 599.363C419.659 599.087 419.962 598.78 420.237 598.763ZM392.728 676.663C395.183 676.65 397.63 676.836 400.036 677.244C402.418 677.648 403.404 680.713 405.021 682.51C405.167 682.672 405.298 682.872 405.302 683.09C405.396 687.97 405.489 692.868 405.302 697.745C405.291 698.021 404.996 698.308 404.721 698.326C401.798 698.508 398.848 698.591 395.932 698.326C395.52 698.288 395.084 697.858 395.051 697.445C394.782 694.039 395.236 690.605 395.051 687.194C394.971 685.713 390.385 685.746 390.366 687.194C390.174 702.126 390.174 717.069 390.366 732C390.385 733.45 394.986 733.476 395.051 732C395.238 727.808 394.865 723.6 395.051 719.408C395.064 719.132 395.375 718.843 395.651 718.827C398.671 718.644 401.701 718.644 404.721 718.827C404.996 718.843 405.293 719.132 405.302 719.408C405.491 725.261 405.901 731.141 405.302 736.966C405.272 737.259 401.029 742.471 400.336 742.532C395.28 742.976 390.003 743.844 385.101 742.532C382.567 741.854 379.779 739.578 379.535 736.966C377.861 719.086 379.343 701.048 379.535 683.09C379.56 680.791 383.132 677.579 385.4 677.244C387.814 676.887 390.272 676.676 392.728 676.663ZM353.749 676.888C357.547 676.752 361.393 677.173 365.199 677.244C366.279 677.264 370.441 681.887 370.465 683.09C370.559 687.872 370.741 692.67 370.465 697.445C370.441 697.858 369.997 698.287 369.584 698.326C366.766 698.59 363.92 698.508 361.095 698.326C360.82 698.308 360.529 698.02 360.514 697.745C360.33 694.236 360.699 690.703 360.514 687.194C360.426 685.512 355.035 685.514 354.949 687.194C354.764 690.801 353.096 694.926 354.949 698.026C358.844 704.542 365.773 708.68 371.046 714.142C371.26 714.364 371.346 714.695 371.346 715.004C371.346 722.129 371.141 729.261 371.046 736.386C371.043 736.581 371.177 736.822 371.046 736.966C369.286 738.911 368.018 741.871 365.48 742.532C360.38 743.86 354.915 742.985 349.664 742.532C349.359 742.506 344.709 737.065 344.698 736.966C344.09 731.142 344.509 725.261 344.698 719.408C344.707 719.132 345.004 718.843 345.279 718.827C348.299 718.644 351.329 718.644 354.349 718.827C354.625 718.843 354.937 719.132 354.949 719.408C355.135 723.6 354.762 727.808 354.949 732C355.023 733.678 360.438 733.679 360.514 732C360.701 727.905 360.608 723.787 360.514 719.689C360.504 719.252 360.22 718.838 359.915 718.527C354.887 713.404 347.598 709.857 344.698 703.292C342.017 697.22 344.305 690.027 344.398 683.39C344.421 681.796 348.607 677.462 349.964 677.244C351.217 677.042 352.484 676.933 353.749 676.888ZM290.822 613.998C288.541 616.279 288.07 632.606 287.599 636.841C287.359 639.002 286.045 642.315 287.599 643.869C289.156 643.09 293.514 645.113 294.046 642.988C295.438 637.42 292.05 624.346 291.703 618.102C291.618 616.577 291.954 615.129 290.822 613.998Z" fill="#FFFFFF" fill-rule="nonzero" opacity="1" stroke="none"/>
</g>
</svg>
