<?xml version="1.0" encoding="UTF-8" standalone="no"?>
<!DOCTYPE svg PUBLIC "-//W3C//DTD SVG 1.1//EN" "http://www.w3.org/Graphics/SVG/1.1/DTD/svg11.dtd">
<!-- Created with Vectornator (http://vectornator.io/) -->
<svg height="100%" stroke-miterlimit="10" style="fill-rule:nonzero;clip-rule:evenodd;stroke-linecap:round;stroke-linejoin:round;" version="1.1" viewBox="0 0 750 1000" width="100%" xml:space="preserve" xmlns="http://www.w3.org/2000/svg" xmlns:vectornator="http://vectornator.io" xmlns:xlink="http://www.w3.org/1999/xlink">
<defs/>
<g id="Layer-1" vectornator:layerName="Layer 1">
<path d="M379.393 200.185C376.236 200.145 371.774 200.158 366.187 200.342C355.012 200.709 344.133 201.299 339.994 201.816C319.553 204.371 297.198 208.119 277.666 215.931C263.596 221.559 249.429 227.086 236.48 233.56C195.913 253.844 159.594 287.016 132.402 323.272C86.916 383.92 66.8646 465.367 77.6958 541.185C80.6854 562.113 86.0454 581.824 92.6897 601.757C94.5415 607.312 96.4411 614.063 99.4652 619.103C102.091 623.479 105.922 630.628 107.088 635.289C107.667 637.606 109.734 639.192 110.632 641.437C113.619 648.904 119.02 656.717 123.556 663.52C146.657 698.172 176.27 728.034 210.915 751.131C242.193 771.983 276.695 785.225 313.834 793.478C328.093 796.646 342.648 797.316 357.059 799.375C369.189 801.108 381.569 799.468 393.822 799.375C418.616 799.187 444.842 792.74 468.227 784.946C478.209 781.618 489.987 778.477 498.81 773.183C504.635 769.688 511.009 767.099 517.035 764.086C534.183 755.512 550.841 743.416 565.561 731.15C608.265 695.564 637.029 652.136 656.716 602.918C666.822 577.654 671.778 548.805 673.781 521.769C680.086 436.647 650.455 354.151 591.722 292.971C577.232 277.877 560.81 262.127 542.631 251.22C538.022 248.455 533.52 244.094 528.516 242.092C523.281 239.998 518.488 235.672 513.208 233.56C506.843 231.014 500.448 227.635 494.105 224.463C470.337 212.579 441.09 206.383 415.277 202.412C405.227 200.866 394.8 201.424 384.694 200.342C384.382 200.308 382.549 200.225 379.393 200.185ZM367.065 212.387C402.961 211.899 440.841 216.621 474.406 230.047C483.485 233.679 492.655 237.415 501.445 241.81C507.191 244.683 512.615 248.38 518.227 250.624C523.093 252.571 527.985 256.534 532.343 259.439C545.474 268.193 558.795 277.672 569.984 288.862C637.388 356.265 672.653 439.352 659.665 536.763C656.873 557.703 652.518 579.788 644.671 599.404C635.615 622.044 625.026 644.122 610.543 664.399C556.591 739.931 473.735 783.849 382.341 787.298C239.586 792.685 114.09 684.519 90.9331 545.577C84.881 509.264 86.7857 471.485 94.76 435.601C96.8004 426.419 99.8114 417.529 102.382 408.53C103.451 404.792 105.767 401.142 106.523 397.364C107.83 390.828 112.095 383.301 115.055 377.382C126.212 355.068 138.674 333.86 155.331 314.427C175.21 291.235 205.418 263.505 234.128 249.15C246.335 243.047 259.316 237.607 271.487 231.521C277.666 228.432 284.969 226.923 291.5 224.746C315.784 216.651 341.557 212.733 367.065 212.387ZM381.4 218.535C376.43 218.402 371.459 218.408 366.469 218.566C284.031 221.174 210.251 258.003 157.088 321.798C139.921 342.398 127.925 365.412 116.498 388.267C105.59 410.084 99.9443 436.607 96.5166 460.601C82.918 555.791 116.493 639.079 182.371 704.957C197.365 719.952 216.615 734.58 235.602 744.073C238.843 745.694 241.899 748.286 245.326 749.657C259.513 755.331 274.103 762.71 289.712 767.913C319.549 777.859 351.586 781.15 382.937 781.15C458.989 781.15 527.466 744.809 579.959 692.316C594.036 678.239 605.95 661.399 616.158 644.386C619.023 639.61 622.585 634.574 624.658 629.392C627.046 623.423 630.183 617.465 633.19 611.45C638.355 601.121 641.297 589.201 644.953 578.231C650.482 561.645 652.944 543.492 654.678 526.16C658.363 489.302 654.968 450.336 643.197 415.024C635.946 393.27 627.216 373.845 615.562 354.421C606.234 338.874 595.075 324.362 582.908 310.913C541.179 264.792 486.608 234.313 425.88 223.272C411.148 220.593 396.311 218.932 381.4 218.535ZM377.699 230.8C406.505 231.157 434.252 236.152 461.765 245.323C542.377 272.194 605.081 339.822 631.716 419.729C639.069 441.787 643.793 466.756 643.793 489.993C643.793 578.662 611.261 654.771 541.157 710.855C523.632 724.875 504.515 735.182 484.977 744.952C454.923 759.979 417.666 768.791 384.129 768.791C355.907 768.791 329.472 765.565 302.353 758.785C293.046 756.458 282.131 753.379 273.557 749.092C269.667 747.147 265.031 744.537 260.916 743.509C254.912 742.008 248.172 737.217 242.973 734.098C224.538 723.037 206.244 711.202 190.903 695.861C142.003 646.961 105.927 580.879 105.927 510.006C105.927 486.288 106.654 460.503 113.267 437.358C121.642 408.047 132.103 381.853 147.678 355.895C156.193 341.703 167.204 327.555 178.857 315.901C231.535 263.224 290.431 233.454 365.308 230.925C369.47 230.785 373.584 230.749 377.699 230.8ZM385.854 244.476C384.303 244.485 382.914 244.596 381.777 244.759C380.706 244.911 380.951 251.005 380.898 251.816C380.772 253.775 380.715 255.724 380.585 257.682C380.394 260.544 380.487 263.321 380.459 266.089C380.398 266.04 380.331 269.368 380.271 271.045C380.168 273.931 380.271 278.197 380.271 278.197C380.271 278.197 382.325 278.301 384.129 278.259C391.017 278.259 382.952 267.511 390.309 267.971C396.207 268.339 395.481 277.628 399.405 279.138C401.694 280.018 404.328 279.588 406.777 279.451C407.054 279.436 407.145 279.052 407.341 278.855C405.416 275.005 402.808 271.545 400.88 267.688C402.656 265.913 405.281 265.163 406.777 262.67C415.27 248.513 396.717 244.413 385.854 244.476ZM390.246 251.691C390.853 251.828 391.477 252.057 392.065 252.099C393.633 252.211 395.209 252.207 396.77 252.381C401.627 252.921 402.478 259.843 397.931 261.791C396.455 262.424 395.429 261.849 393.822 261.791C389.874 261.65 387.359 263.297 387.642 259.752C387.855 257.098 386.221 253.158 388.521 251.816C389.03 251.519 389.638 251.553 390.246 251.691ZM354.424 244.759C331.931 246.667 333.498 279.734 357.059 279.734C367.59 279.734 374.968 266.676 372.648 257.4C370.434 248.544 362.436 244.079 354.424 244.759ZM355.02 251.816C359.971 251.774 361.162 253.139 364.712 257.4C369.318 262.926 363.437 272.676 356.776 272.676C343.466 272.676 341.132 251.934 355.02 251.816ZM332.372 248.115C330.467 248.073 326.868 249.078 326.193 249.464C323.424 251.046 323.284 260.905 320.609 263.579C316.608 259.579 309.147 248.535 302.353 255.33C305.626 261.875 313.68 266.055 318.539 271.798C321.116 274.843 318.946 281.301 322.083 284.439C323.593 283.684 328.058 284.323 328.827 282.4C330.085 279.255 326.193 272.861 326.193 269.445C326.193 264.581 334.666 252.52 333.533 248.554C333.446 248.252 333.007 248.129 332.372 248.115ZM418.822 248.554C417.401 248.757 416.765 255.906 416.469 257.086C414.91 263.322 413.753 269.638 412.36 275.907C412.136 276.915 410.972 279.348 411.168 280.33C411.387 281.424 417.876 282.12 418.822 281.804C418.822 276.88 420.428 272.693 424.406 270.041C429.91 274.17 427.155 284.106 435.29 285.913C436.922 286.276 438.659 287.049 440.278 286.509C440.278 281.946 435.579 275.609 433.816 271.202C433.437 270.255 431.036 266.928 431.463 265.932C432.555 263.384 443.692 257.404 446.457 255.33C445.557 253.979 445.259 254.558 443.509 254.169C441.839 253.798 439.966 252.977 438.239 252.977C436.908 252.977 425.486 261.96 423.527 263.266C420.312 260.051 430.149 251.13 422.649 249.464C421.813 249.278 419.67 248.433 418.822 248.554ZM280.897 261.791C279.873 261.279 274.578 264.576 274.122 265.336C273.843 265.801 274.699 269.052 274.718 269.163C275.486 273.77 278.848 282.118 277.384 286.509C272.581 281.706 267.804 276.836 262.955 272.08C261.664 270.814 257.058 273.02 256.211 274.433C254.394 277.461 260.584 291.553 259.128 295.92C254.079 290.871 249.069 285.772 244.134 280.612C241.796 281.781 239.436 282.802 237.39 284.439C241.578 288.873 245.928 293.155 250.314 297.394C253.553 300.526 256.739 303.701 260.006 306.804C260.661 307.427 261.287 308.122 262.077 308.561C262.644 308.876 267.508 305.724 267.66 305.33C269.121 301.532 263.6 286.773 265.621 284.753C268.415 287.547 271.262 290.244 274.122 292.971C276.179 294.933 278.082 297.092 280.301 298.868C281.214 299.599 285.786 296.162 286.481 295.606C285.42 293.484 285.7 289.258 285.32 286.792C284.311 280.232 283.381 273.657 282.372 267.092C282.156 265.69 282.423 262.554 280.897 261.791ZM476.884 267.469C466.429 267.715 457.866 277.638 460.29 288.548C462.293 297.557 471.293 301.785 479.707 301.785C480.561 301.785 484.725 301.009 484.977 299.747C485.114 299.061 484.064 297.134 483.816 296.516C481.93 291.801 478.762 295.408 474.406 294.163C469.371 292.724 467.944 288.237 467.944 283.561C467.944 276.775 477.717 272.044 482.938 276.221C485.046 277.907 486.171 279.878 487.643 282.086C489.794 281.011 492.403 280.558 494.105 278.855C490.808 273.909 487.638 269.514 481.464 267.971C479.92 267.585 478.378 267.434 476.884 267.469ZM503.515 280.047C499.321 284.242 496.551 290.85 493.509 295.92C491.294 299.611 488.049 303.376 486.451 307.369C486.108 308.227 491.304 312.14 492.348 311.792C494.402 311.107 495.904 306.74 497.054 305.016C501.561 298.255 505.19 290.915 509.695 284.157C507.913 282.374 505.771 281.175 503.515 280.047ZM516.753 288.266C515.073 289.525 513.798 291.522 512.644 293.253C514.517 295.751 517.668 297.701 520.266 299.433C516.753 306.459 509.927 313.556 504.99 319.728C505.499 320.34 509.497 324.971 510.573 324.433C514.316 322.562 520.436 312.266 523.215 308.561C524.021 307.486 525.037 305.128 526.163 304.452C528.154 303.257 532.21 310.531 534.099 309.722C535.218 309.242 538.836 305.393 538.208 304.138C536.641 301.004 525.352 294.284 522.054 291.81C521.295 291.241 517.601 287.63 516.753 288.266ZM230.614 289.144C224.92 294.838 216.818 298.387 211.511 304.452C211.066 304.961 215.12 309.391 215.621 310.035C219.822 315.437 224.06 320.788 228.262 326.19C228.867 326.967 230.87 330.713 232.089 330.017C236.62 327.427 247.594 319.001 250.91 315.023C251.554 314.25 247.563 310.298 247.083 309.722C245.4 310.843 233.77 320.523 232.967 320.042C231.55 319.191 230.314 316.956 229.423 315.619C232.276 311.814 237.378 308.781 241.185 305.926C240.128 304.605 238.79 301.841 237.39 300.907C236.859 300.553 225.609 309.87 225.313 309.722C215.762 304.946 230.574 297.903 234.724 294.445C233.764 292.526 231.981 290.784 230.614 289.144ZM370.578 290.022C310.378 291.259 263.124 314.884 220.922 357.087C212.071 365.938 203.863 376.892 197.396 387.671C194.853 391.909 192.595 397.104 189.742 400.908C185.695 406.305 183.399 414.115 180.928 420.293C173.726 438.298 169.085 456.87 166.812 476.191C158.636 545.688 183.63 605.055 231.775 653.2C243.037 664.463 262.611 679.719 277.949 685.854C288.869 690.222 300.036 696.248 312.077 699.688C335.474 706.372 358.725 709.098 383.251 709.098C439.827 709.098 490.485 680.66 529.394 641.751C540.206 630.939 554.963 611.784 560.856 597.052C564.289 588.469 568.975 580.319 572.023 571.173C580.753 544.982 584.382 519.059 584.382 491.185C584.382 470.55 579.735 447.227 572.023 427.947C565.373 411.323 558.108 395.58 547.619 380.895C538.501 368.131 528.504 356.762 517.349 345.606C488.94 317.198 448.752 299.481 409.694 292.971C396.748 290.813 383.681 289.753 370.578 290.022ZM380.051 303.197C390.985 303.519 401.903 304.939 412.643 307.087C466.412 317.841 514.223 350.424 542.914 398.242C551.353 412.307 557.643 426.526 562.926 442.376C570.088 463.863 572.144 487.571 570.862 510.006C569.767 529.178 566.012 547.486 559.978 565.59C556.96 574.642 552.16 583.096 548.811 591.468C543.448 604.876 529.535 622.789 519.701 632.623C482.341 669.983 434.454 696.457 380.302 696.457C349.068 696.457 311.528 690.626 284.442 674.374C269.644 665.495 254.484 657.089 242.095 644.7C195.496 598.1 170.699 540.955 180.332 473.525C183.089 454.225 188.035 434.028 196.8 416.498C215.86 378.379 243.885 349.589 280.897 327.382C306.85 311.81 338.596 304.488 369.135 303.26C372.778 303.113 376.407 303.09 380.051 303.197ZM542.914 307.965C539.922 310.956 539.414 325.526 537.612 330.33C536.079 334.42 531.551 336.601 528.516 339.741C531.015 342.387 531.004 342.364 533.503 345.01C536.64 341.972 539.686 338.856 542.914 335.914C543.388 335.481 547.15 335.209 547.932 335.035C552.479 334.025 562.3 333.592 565.561 330.33C563.493 328.262 561.688 324.384 558.786 324.747C556.398 325.045 546.716 328.518 545.58 327.382C545.95 326.641 548.815 313.868 548.811 313.862C547.133 311.655 544.874 309.925 542.914 307.965ZM369.135 310.631C291.316 312.671 226.146 361.655 197.396 433.531C189.945 452.158 186.522 473.797 185.915 493.82C184.232 549.362 205.474 598.072 244.448 637.046C254.328 646.926 271.76 661.327 285.32 666.751C293.117 669.87 300.738 674.204 308.532 677.322C330.883 686.263 356.692 689.085 380.585 689.085C432.925 689.085 484.112 662.515 518.227 623.526C531.604 608.239 540.534 591.208 549.375 573.526C553.774 564.728 556.348 553.57 558.786 543.82C567.55 508.764 565.155 471.742 553.798 437.671C533.485 376.73 479.505 330.939 418.226 315.619C402.203 311.613 385.582 310.2 369.135 310.631ZM442.348 357.369C457.541 357.176 472.733 357.176 487.926 357.369C488.203 357.373 488.513 357.688 488.522 357.965C488.711 363.746 488.711 369.531 488.522 375.312C488.512 375.589 488.203 375.896 487.926 375.908C483.715 376.095 479.498 375.814 475.284 375.908C475.065 375.913 474.848 376.04 474.688 376.19C468.525 381.991 464.577 386.019 458.816 391.78C454.605 388.622 447.221 385.647 444.105 381.491C446.604 378.992 446.624 379.003 449.123 376.504C447.285 374.666 441.83 377.677 441.752 375.312C441.563 369.532 441.563 363.746 441.752 357.965C441.761 357.688 442.071 357.373 442.348 357.369ZM259.128 357.965C274.321 357.772 289.513 357.772 304.706 357.965C304.983 357.969 305.292 358.284 305.302 358.561C305.491 364.146 305.491 369.728 305.302 375.312C305.229 377.446 300.468 374.875 298.84 376.504C323.898 400.598 348.402 425.456 374.123 448.838C384.544 438.87 394.912 428.849 405.302 418.851C411.478 412.909 417.463 405.192 424.688 400.594C425.667 399.971 439.062 408.789 440.278 410.005C425.445 421.129 412.558 436.059 399.123 448.838C394.201 453.52 391.542 455.967 386.482 460.884C385.388 461.946 383.411 462.598 383.251 464.114C382.292 473.18 383.443 482.353 383.251 491.467C383.245 491.744 382.851 491.867 382.655 492.063C379.388 488.922 376.539 486.161 373.527 483.249C370.836 480.647 367.085 478.744 365.591 475.313C364.221 472.167 366.294 468.351 365.591 464.993C365.349 463.837 363.821 463.443 362.956 462.64C361.076 460.894 359.227 459.143 357.372 457.37C354.816 454.928 352.271 452.445 349.719 449.999C334.151 435.08 318.517 420.219 302.949 405.3C295.991 398.632 289.047 391.986 282.089 385.318C280.137 383.447 278.133 381.617 276.192 379.735C274.898 378.48 274.124 376.302 272.365 375.908C268.061 374.943 263.535 376.095 259.128 375.908C258.851 375.896 258.573 375.589 258.563 375.312C258.374 369.728 258.374 364.146 258.563 358.561C258.573 358.284 258.851 357.969 259.128 357.965ZM368.163 367.093C397.764 365.719 428.201 374.156 452.041 391.184C460.876 397.495 468.647 404.816 475.88 412.953C479.092 416.566 481.587 421.044 484.977 424.434C485.173 424.238 485.56 424.115 485.573 423.838C485.76 419.823 485.386 415.807 485.573 411.793C485.586 411.516 485.892 411.206 486.169 411.197C491.753 411.008 497.335 411.007 502.919 411.197C503.197 411.206 503.512 411.516 503.515 411.793C503.709 428.848 503.709 445.899 503.515 462.954C503.512 463.231 503.197 463.541 502.919 463.55C496.943 463.74 490.95 463.83 484.977 463.55C484.394 463.522 481.146 455.535 480.868 454.422C480.419 452.625 478.767 450.816 477.919 449.121C474.208 441.698 469.679 434.547 464.4 427.947C452.725 413.353 435.83 400.171 418.54 393.254C400.088 385.874 380.157 383.228 360.007 385.914C351.508 387.047 340.679 388.787 332.937 392.658C331.689 393.282 326.293 396.849 325.001 396.203C319.98 393.693 315.205 387.385 311.481 383.248C319.578 377.85 329.541 374.534 339.116 371.799C348.522 369.111 358.296 367.552 368.163 367.093ZM289.147 397.959C293.704 401.909 297.879 406.265 302.071 410.601C248.353 456.645 244.442 536.833 296.487 585.289C308.233 596.224 322.186 605.012 337.077 609.975C343.08 611.976 349.088 613.438 355.302 614.681C355.979 614.816 361.12 614.769 361.168 616.155C361.357 621.641 361.357 627.137 361.168 632.623C361.106 634.41 352.322 632.181 351.475 632.027C342.194 630.34 331.893 628.274 323.526 624.091C299.955 612.305 280.031 598.858 264.711 575.878C245.078 546.428 237.522 512.572 243.538 476.473C245.05 467.404 247.378 456.779 251.506 448.525C257.271 436.993 263.26 425.8 271.769 415.588C277.096 409.197 283.283 403.824 289.147 397.959ZM292.378 442.376C303.159 442.184 313.937 442.186 324.718 442.376C327.355 442.423 328.668 445.834 330.584 447.646C336.679 453.412 342.75 459.223 348.84 464.993C375.891 490.62 403.64 515.715 429.989 542.064C430.087 541.77 430.302 541.495 430.303 541.185C430.4 514.131 430.497 487.059 430.303 460.005C430.276 456.231 417.857 462.69 417.63 458.531C417.353 453.441 417.352 448.344 417.63 443.255C417.653 442.84 418.124 442.385 418.54 442.376C432.456 442.089 446.372 442.183 460.29 442.376C460.568 442.38 460.877 442.664 460.886 442.941C461.075 448.231 461.075 453.555 460.886 458.845C460.749 462.699 447.952 456.214 447.932 460.005C447.737 495.98 448.126 531.968 447.932 567.942C447.93 568.22 447.613 568.496 447.336 568.507C442.732 568.695 438.12 568.94 433.534 568.507C430.494 568.22 428.974 564.458 426.758 562.359C419.509 555.492 412.254 548.6 404.989 541.75C377.428 515.764 349.15 490.334 322.366 463.55C322.17 463.746 321.772 463.837 321.77 464.114C321.575 493.129 321.575 522.146 321.77 551.16C321.772 551.438 322.089 551.743 322.366 551.756C326.184 551.943 330.028 551.57 333.846 551.756C334.123 551.77 334.401 552.075 334.411 552.352C334.6 557.544 334.6 562.75 334.411 567.942C334.401 568.219 334.124 568.503 333.846 568.507C319.83 568.7 305.798 568.7 291.782 568.507C291.505 568.503 291.196 568.219 291.186 567.942C290.997 562.75 290.997 557.544 291.186 552.352C291.196 552.075 291.505 551.77 291.782 551.756C295.6 551.57 299.444 551.943 303.263 551.756C303.54 551.743 303.825 551.438 303.827 551.16C304.022 520.773 304.022 490.392 303.827 460.005C303.804 456.42 291.912 462.486 291.782 458.845C291.593 453.555 291.593 448.231 291.782 442.941C291.792 442.664 292.101 442.381 292.378 442.376ZM365.591 510.006C370.228 513.759 374.437 518.011 378.828 522.051C380.308 523.413 383.236 524.149 383.251 526.16C383.543 566.741 383.056 607.349 383.251 647.931C383.27 651.858 396.635 645.098 396.77 649.091C396.96 654.675 396.96 660.289 396.77 665.873C396.761 666.15 396.452 666.434 396.174 666.438C381.766 666.631 367.358 666.631 352.949 666.438C352.672 666.434 352.363 666.15 352.353 665.873C352.164 660.289 352.164 654.675 352.353 649.091C352.482 645.312 364.979 651.649 364.995 647.931C365.19 602.153 364.799 556.379 364.995 510.602C364.996 510.324 365.375 509.831 365.591 510.006ZM490.341 533.532C494.628 533.203 499.18 534.268 503.515 534.41C503.793 534.419 504.057 534.734 504.111 535.006C504.646 537.679 501.441 543.269 500.567 545.891C497.558 554.917 493.856 563.172 488.522 571.173C483.854 578.174 478.907 585.179 472.932 591.155C453.808 610.279 434.402 621.156 409.694 629.392C406.443 630.476 390.309 634.537 388.238 633.501C387.99 633.377 387.652 633.214 387.642 632.937C387.453 627.352 387.363 621.735 387.642 616.155C387.722 614.555 392.996 614.548 393.822 614.398C401.129 613.07 410.061 611.846 416.752 608.501C433.1 600.327 447.257 592.759 460.29 578.827C468.493 570.059 474.202 559.646 479.99 550C482.63 545.599 481.602 536.116 486.169 534.41C487.523 533.904 488.912 533.641 490.341 533.532ZM202.164 311.541C200.718 312.138 199.143 314.885 197.96 316.215C197.83 316.361 197.825 316.637 197.96 316.779C202.12 321.146 206.091 325.834 210.915 329.452C209.272 331.096 204.425 329.41 202.383 329.138C200.434 328.878 188.121 326.84 187.076 327.382C185.23 328.339 184.06 330.245 182.684 331.805C182.555 331.952 182.549 332.228 182.684 332.369C186.998 336.875 191.482 341.224 195.922 345.606C199.03 348.674 202.152 351.741 205.332 354.734C206.96 356.266 209.021 352.206 210.602 350.625C210.757 350.47 210.817 350.225 210.915 350.029C206.467 345.46 202.162 340.746 197.396 336.51C199.222 334.683 205.731 336.778 208.249 337.074C209.287 337.196 221.743 338.902 221.8 338.862C223.504 337.67 224.721 335.91 226.192 334.439C217.999 326.012 212.274 319.94 203.544 311.792C203.11 311.387 202.646 311.342 202.164 311.541ZM136.793 484.41C131.783 484.655 127.997 490.589 123.869 493.538C123.284 493.956 120.639 495.3 120.639 496.172C120.639 500.326 124.016 506.304 125.344 510.288C125.624 511.13 126.108 514.652 127.383 514.711C133.454 514.991 139.572 515.079 145.639 514.711C147.113 514.622 148.679 507.002 149.152 505.583C149.781 503.697 152.826 497.703 152.101 495.89C151.081 493.342 140.186 484.243 136.793 484.41ZM613.209 484.41C609.072 485.779 598.876 492.499 597.337 495.576C596.794 496.663 601.452 509.101 602.042 511.166C602.318 512.131 602.766 514.69 604.081 514.711C610.06 514.806 616.045 514.806 622.024 514.711C623.515 514.687 623.75 511.319 624.094 510.288C624.744 508.337 628.991 497.155 628.485 495.89C627.675 493.865 615.843 483.538 613.209 484.41ZM547.023 643.79C539.862 644.984 534.73 652.697 530.272 657.623C530.17 657.736 529.346 658.673 529.676 659.098C535.946 667.159 545.957 674.332 553.798 680.867C556.2 678.465 558.535 675.976 560.856 673.495C565.022 669.042 571.98 662.382 566.44 656.149C565.247 654.807 563.936 653.108 562.048 652.636C560.524 652.255 558.764 652.873 557.343 652.636C556.144 652.436 556.208 649.311 555.555 648.495C553.585 646.033 551.574 644.084 547.023 643.79ZM546.144 649.687C555.491 653.037 547.536 661.931 543.792 663.803C542.149 664.624 537.657 658.576 537.33 658.219C540.001 655.282 542.557 651.481 546.144 649.687ZM557.343 657.623C570.251 656.16 556.73 670.488 553.798 672.931C552.578 673.948 548.006 668.521 547.336 667.316C547.23 667.124 547.474 666.916 547.619 666.751C550.356 663.649 553.112 658.103 557.343 657.623ZM207.277 644.01C207.021 643.877 206.75 643.898 206.493 644.104C198.219 650.722 190.984 659.14 183.28 666.438C184.333 668.017 185.741 669.281 186.793 670.86C190.456 668.419 192.544 664.017 196.486 662.046C200.248 665.808 203.478 670.194 207.371 673.809C208.214 674.592 212.338 670.731 211.511 669.669C208.302 665.542 204.194 662.012 200.909 657.906C202.681 655.957 204.524 654.072 206.493 652.322C210.801 656.631 214.804 661.319 218.852 665.873C220.91 663.962 220.902 663.958 222.961 662.046C220.207 656.538 213.544 651.324 209.441 646.739C208.782 646.001 208.043 644.408 207.277 644.01ZM524.689 663.52C523.413 664.796 521.964 665.88 520.58 667.034C525.561 673.676 542.794 686.874 530.272 694.386C521.124 699.875 513.527 681.98 507.938 677.322C507.432 676.9 503.168 680.454 503.515 681.149C505.572 685.262 518.252 699.898 522.054 700.848C531.578 703.229 543.346 695.637 541.157 684.694C539.798 677.898 529.327 668.158 524.689 663.52ZM231.775 670.108C229.936 669.852 227.927 669.894 225.627 670.264C203.661 673.8 208.244 704.675 230.897 704.675C241.163 704.675 250.211 689.688 244.73 680.553C241.044 674.409 237.293 670.874 231.775 670.108ZM227.666 675.848C229.854 675.611 232.506 676.161 234.441 677.322C244.279 683.225 240.491 699.092 228.858 699.092C214.307 699.092 213.637 677.37 227.666 675.848ZM485.291 692.034C483.732 692.813 482.236 693.888 480.868 694.982C485.495 704.238 492.065 714.538 498.528 722.618C503.65 720.056 508.57 716.46 513.522 713.49C514.779 712.735 517.023 712.042 517.913 710.855C518.516 710.052 514.902 706.131 514.682 705.867C512.75 706.833 501.634 714.581 500.567 714.368C498.838 714.022 497.022 709.63 496.175 708.22C492.983 702.899 489.676 696.419 485.291 692.034ZM260.602 692.316C237.894 695.284 241.782 727.04 264.711 727.04C275.974 727.04 282.542 712.487 278.827 703.201C275.564 695.043 268.439 691.292 260.602 692.316ZM264.366 697.868C268.035 698.163 270.666 700.379 273.244 704.675C276.605 710.277 271.825 721.143 264.711 721.143C249.39 721.143 245.326 701.482 260.32 698.213C261.804 697.89 263.144 697.77 264.366 697.868ZM472.649 699.97C460.504 698.101 449.05 715.305 456.746 725.566C461.453 731.842 467.864 735.942 476.163 734.098C480.12 733.219 489.343 726.131 488.522 722.022C488.322 721.025 484.146 720.445 483.22 719.983C481.029 722.174 480.184 726.466 476.759 727.323C467.466 729.646 458.575 723.555 461.451 713.49C462.943 708.269 468.299 706.149 473.214 706.149C474.004 706.149 475.956 707.162 476.759 707.028C477.915 706.835 478.346 702.63 478.798 701.727C477.209 700.138 474.853 700.309 472.649 699.97ZM286.794 703.514C285.882 704.427 285.75 706.335 285.32 707.624C284.192 711.008 293.191 710.095 294.135 712.925C294.491 713.995 292.435 717.68 292.064 718.791C291.283 721.134 285.244 736.536 285.602 737.611C285.854 738.367 290.092 740.126 290.904 739.964C292.079 739.729 292.898 734.578 293.256 733.502C294.129 730.884 298.683 715.779 300.314 714.964C302.542 713.85 307.171 718.277 309.724 717.912C310.593 717.788 311.374 713.704 311.763 712.925C310.209 711.371 290.161 703.809 286.794 703.514ZM316.469 713.49C314.873 715.086 314.937 720.05 314.43 722.335C312.872 729.342 312.61 738.867 309.411 745.265C310.81 746.665 313.359 746.589 315.308 747.022C320.359 748.144 326.321 750.691 331.494 749.657C338.878 748.18 339.038 739.066 335.289 734.381C336.982 732.5 338.054 731.947 338.552 729.958C342.577 713.855 325.5 718.005 316.469 713.49ZM322.115 720.171C323.359 720.34 324.628 721.148 325.879 721.426C327.411 721.766 329.08 721.959 330.584 722.335C334.009 723.192 335.442 730.287 331.18 730.554C330.285 730.61 318.972 729.123 318.821 727.919C318.668 726.696 319.193 726.26 319.417 725.252C319.826 723.413 319.112 720.85 320.891 720.265C321.299 720.131 321.7 720.115 322.115 720.171ZM317.943 733.502C319.977 733.04 322.086 734.21 324.122 734.663C325.779 735.031 327.517 735.449 329.141 735.855C333.436 736.928 333.394 741.909 330.302 744.073C329.356 744.735 316.009 742.067 315.904 741.438C315.657 739.959 316.578 733.813 317.943 733.502ZM414.995 717.316C413.432 717.46 411.492 717.258 410.572 718.791C409.99 719.762 411.531 723.806 411.764 724.97C412.883 730.565 414.257 736.11 415.277 741.721C415.631 743.666 416.056 750.912 418.822 750.566C423.358 749.999 435.509 748.801 439.117 746.74C440.639 745.87 440.114 741.357 438.521 740.56C436.068 739.333 425.708 743.93 422.335 743.509C421.546 743.41 421.077 738.161 420.892 737.329C420.145 733.967 417.601 717.077 414.995 717.316ZM359.725 719.983C358.049 721.659 357.397 724.263 356.463 726.131C353.878 731.3 350.996 736.218 348.527 741.156C346.683 744.843 344.652 748.592 342.943 752.009C342.751 752.393 343.084 753.156 343.539 753.201C345.295 753.377 347.085 753.377 348.84 753.201C350.979 752.987 351.352 746.035 353.545 745.548C355.355 745.145 367.456 746.089 367.943 746.74C368.967 748.105 369.246 754.302 371.488 754.676C373.134 754.95 374.982 754.211 376.475 754.958C378.056 753.377 374.78 748.115 374.123 746.144C371.956 739.644 369.251 732.899 366.783 726.727C365.589 723.742 365.513 720.277 359.725 719.983ZM361.481 728.797C364.176 731.492 364.529 736.649 366.187 739.964C365.853 740.297 356.009 741.491 355.584 739.368C355.43 738.598 360.824 729.454 361.481 728.797ZM386.45 720.296C385.752 720.27 385.06 720.322 384.411 720.547C381.125 721.687 383.615 728.52 383.815 731.432C384.248 737.701 384.525 743.985 385.007 750.253C385.07 751.072 384.788 753.337 386.168 753.797C389.331 754.852 392.842 753.607 396.174 753.484C400.371 753.328 412.272 755.408 408.22 747.304C406.93 744.724 391.184 748.291 390.873 746.74C389.476 739.751 390.233 731.069 389.713 723.778C389.68 723.323 389.797 720.773 388.521 720.547C387.845 720.428 387.149 720.323 386.45 720.296Z" fill="#FFFFFF" fill-rule="nonzero" opacity="1" stroke="none"/>
</g>
</svg>
