<?xml version="1.0" encoding="UTF-8" standalone="no"?>
<!DOCTYPE svg PUBLIC "-//W3C//DTD SVG 1.1//EN" "http://www.w3.org/Graphics/SVG/1.1/DTD/svg11.dtd">
<!-- Created with Vectornator (http://vectornator.io/) -->
<svg height="100%" stroke-miterlimit="10" style="fill-rule:nonzero;clip-rule:evenodd;stroke-linecap:round;stroke-linejoin:round;" version="1.1" viewBox="0 0 750 1000" width="100%" xml:space="preserve" xmlns="http://www.w3.org/2000/svg" xmlns:vectornator="http://vectornator.io" xmlns:xlink="http://www.w3.org/1999/xlink">
<defs/>
<g id="Layer-1" vectornator:layerName="Layer 1">
<path d="M161.316 258.165C161.316 258.165 161.308 390.425 161.016 456.55C161.012 457.399 160.194 457.037 159.841 457.125C155.799 458.135 152.141 460.416 148.714 462.701C140.344 468.281 122.116 485.036 112.082 475.003C106.618 469.538 112.149 461.734 116.183 457.7C126.615 447.268 133.486 447.04 133.486 431.645C133.486 417.611 112.54 419.013 104.756 414.342C102.009 412.694 94.6866 406.162 92.454 408.766C85.3015 417.111 89.608 431.095 97.7299 436.896C99.6112 438.24 108.245 440.923 108.582 441.597C109.2 442.832 96.5656 453.745 95.6795 455.074C90.882 462.271 90.8026 472.762 93.9292 480.579C97.1675 488.675 106.176 495.065 115.008 495.507C118.424 495.677 121.865 495.807 125.285 495.807C126.331 495.807 127.563 494.796 128.51 495.507C129.66 496.369 129.296 500.666 129.385 501.383C129.719 504.054 133.305 513.039 132.886 515.135C132.292 518.105 118.424 517.8 116.783 519.236C112.222 523.227 113.334 530.82 108.282 534.188C107.875 534.459 107.276 534.323 106.806 534.188C105.339 533.769 104.96 531.742 103.881 530.663C102.595 529.376 99.4963 529.212 98.0299 529.212C93.1981 529.212 88.9532 535.476 86.878 538.589C85.763 540.262 81.7248 540.517 79.8517 542.39C77.6265 544.615 77.7472 549.768 76.9262 552.642C76.6117 553.742 74.9693 554.886 74.8759 555.867C74.7092 557.617 74.4495 559.437 74.8759 561.143C76.1172 566.108 89.4012 564.201 91.5788 564.369C99.7827 565 104.214 567.861 110.632 561.443C112.13 559.945 112.608 557.392 114.133 555.867C114.687 555.313 123.021 556.514 125.285 555.867C130.813 554.288 133.852 548.289 139.037 546.215C144.881 543.878 152.352 547.366 158.391 547.366C158.867 547.366 160.998 545.997 161.016 547.366C161.209 561.918 160.929 576.495 161.016 591.048C161.07 600.072 161.953 613.572 166.892 621.804C169.343 625.888 171.044 630.382 173.918 634.406C209.031 683.564 249.865 713.356 304.891 731.698C315.36 735.188 326.248 737.487 337.122 739.3C340.429 739.851 345.246 741.319 348.274 741.35C367.222 741.543 386.161 741.543 405.109 741.35C409.386 741.306 414.939 739.822 419.462 738.999C433.37 736.471 447.608 733.147 460.794 727.872C495.588 713.955 526.07 694.252 553.385 666.937C566.898 653.424 580.66 636.394 587.666 618.878C591.482 609.339 591.946 597.281 592.067 587.223C592.224 574.233 592.053 561.254 592.342 548.266C592.37 547.015 597.077 547.594 598.218 547.366C603.237 546.362 607.888 546.968 612.571 548.841C617.74 550.909 622.221 557.33 627.798 557.918C630.887 558.243 635.478 556.325 637.775 556.742C639.62 557.078 641.993 562.334 643.926 563.494C648.588 566.29 655.667 564.969 660.929 564.969C662.359 564.969 660.584 565.63 662.079 565.844C665.93 566.394 671.279 564.846 674.107 562.018C675.992 560.132 672.645 542.918 668.231 541.815C666.857 541.471 667.178 543.225 665.305 542.69C663.792 542.257 665.059 539.289 664.13 537.989C662.232 535.331 657.921 530.948 654.478 530.088C649.724 528.899 648.496 530.228 645.101 533.313C644.79 533.596 644.004 533.802 643.626 533.613C641.413 532.507 640.129 521.841 636.3 518.361C633.713 516.009 624.823 519.061 624.298 514.86C623.745 510.438 626.923 505.103 626.923 500.482C626.923 498.571 625.676 496.444 627.223 495.206C629.241 493.592 634.321 495.632 637.475 494.931C646.12 493.01 654.502 487.233 657.404 478.529C660.562 469.053 657.485 460.274 651.553 453.024C649.056 449.973 642.031 444.893 643.051 442.172C643.579 440.765 648.844 440.096 650.377 438.947C657.798 433.381 662.131 425.048 658.854 415.217C658.25 413.405 657.393 410.453 655.653 409.366C653.656 408.118 649.194 414.057 646.852 414.642C634.351 417.767 619.022 422.587 619.022 438.071C619.022 441.597 623.707 446.404 625.748 448.623C627.292 450.301 628.836 451.987 630.449 453.599C632.745 455.895 635.179 458.054 637.475 460.35C638.014 460.89 638.482 461.498 638.95 462.101C641.259 465.069 643.626 470.027 641.001 473.528C632.294 485.136 613.05 466.591 604.669 462.401C600.897 460.515 597.259 458.621 593.517 457.125C593.269 457.025 592.343 456.589 592.342 456.25C592.147 390.613 592.342 324.976 592.342 259.34C592.342 259.215 592.447 258.165 592.067 258.165C448.487 257.969 161.316 258.165 161.316 258.165ZM166.592 262.865C306.558 262.67 446.525 262.67 586.491 262.865C586.767 262.866 587.065 263.164 587.066 263.441C587.261 327.221 587.261 390.994 587.066 454.774C587.065 455.051 586.765 455.335 586.491 455.374C585.654 455.494 580.046 454.63 580.04 453.324C579.748 392.377 580.235 331.415 580.04 270.467C580.039 270.191 579.741 269.892 579.465 269.892C444.188 269.697 308.896 269.697 173.618 269.892C173.342 269.892 173.044 270.191 173.043 270.467C172.848 332.001 173.335 393.541 173.043 455.074C173.035 456.901 166.783 456.277 166.592 456.25C166.319 456.21 166.018 455.926 166.017 455.649C165.822 391.576 165.822 327.514 166.017 263.441C166.018 263.164 166.316 262.866 166.592 262.865ZM175.969 271.942C309.781 271.747 443.602 271.747 577.414 271.942C577.691 271.942 577.989 272.241 577.99 272.517C578.184 332.586 578.184 392.655 577.99 452.724C577.989 453 577.61 453.129 577.414 453.324C575.68 452.457 565.995 447.613 565.987 446.273C565.696 392.456 566.182 338.637 565.987 284.819C565.986 284.543 565.664 284.245 565.387 284.244C439.682 284.049 313.976 284.049 188.271 284.244C188.057 284.245 187.396 285.171 187.396 285.419C187.396 338.945 187.696 392.473 187.696 445.998C187.696 450.046 179.208 453.455 175.969 455.074C175.773 454.879 175.394 454.776 175.394 454.499C175.199 393.844 175.199 333.172 175.394 272.517C175.394 272.241 175.692 271.942 175.969 271.942ZM352.075 294.796C367.8 294.991 368.175 295.095 368.178 295.371C368.371 318.324 368.371 341.281 368.178 364.233C368.175 364.51 367.856 364.725 367.602 364.833C363.39 366.639 357.431 367.814 352.95 368.934C348.566 370.03 343.388 374.052 340.048 376.836C338.508 378.119 337.562 380.269 335.672 380.936C332.775 381.959 326.332 379.323 323.645 377.711C310.613 369.892 307.399 352.077 314.868 339.629C322.133 327.521 340.504 323.358 350.9 333.753C360.373 324.28 342.602 304.269 352.075 294.796ZM512.653 295.371C517.631 295.183 522.603 295.183 527.581 295.371C527.857 295.382 528.179 295.695 528.181 295.971C528.375 323.905 528.375 351.827 528.181 379.761C528.179 380.037 527.857 380.351 527.581 380.361C522.603 380.549 517.631 380.549 512.653 380.361C512.377 380.351 512.055 380.037 512.053 379.761C511.859 351.827 511.859 323.905 512.053 295.971C512.055 295.695 512.377 295.382 512.653 295.371ZM539.033 295.371C539.601 295.229 540.197 295.371 540.783 295.371C545.178 295.371 549.569 295.184 553.96 295.371C554.236 295.383 554.558 295.695 554.56 295.971C554.754 322.831 554.56 349.675 554.56 376.536C554.56 377.61 554.753 378.704 554.56 379.761C554.304 381.171 551.769 380.361 550.735 380.361C546.828 380.361 542.935 380.547 539.033 380.361C538.757 380.348 538.435 380.037 538.433 379.761C538.239 351.827 538.239 323.905 538.433 295.971C538.435 295.695 538.765 295.438 539.033 295.371ZM199.698 297.147C209.759 297.147 219.819 297.24 229.878 297.422C237.382 297.557 242.598 301.093 247.456 306.523C255.125 315.094 254.813 330.522 246.581 338.754C244.574 340.761 241.822 343.021 239.255 344.305C238.107 344.879 236.102 345.133 235.154 346.08C242.652 357.326 250.226 368.5 257.733 379.761C257.538 379.956 257.409 380.353 257.133 380.361C250.787 380.551 244.422 380.645 238.08 380.361C237.326 380.327 235.073 375.526 234.579 374.785C230.966 369.365 227.678 363.666 224.327 358.082C223.65 356.954 221.12 354.326 221.102 353.106C221.007 346.661 220.912 340.197 221.102 333.753C221.151 332.068 224.399 333.038 226.078 332.878C229.859 332.518 232.181 331.2 234.579 328.202C239.159 322.478 234.089 312.244 226.953 312.074C223.437 311.99 219.912 311.889 216.401 312.074C216.125 312.089 215.828 312.398 215.826 312.674C215.632 335.041 216.019 357.395 215.826 379.761C215.823 380.037 215.502 380.352 215.226 380.361C209.857 380.55 204.492 380.55 199.123 380.361C198.847 380.352 198.525 380.037 198.523 379.761C198.329 352.511 198.329 325.272 198.523 298.022C198.524 297.808 199.449 297.147 199.698 297.147ZM387.831 297.422C420.866 297.985 426.173 298.343 430.013 300.647C441.709 307.664 441.974 325.618 432.939 334.653C438.12 338.798 446.141 343.581 446.141 351.356C446.141 356.967 445.871 360.288 444.666 365.109C441.797 376.586 425.317 382.64 415.061 380.361C413.643 380.046 412.953 378.392 411.86 377.436C409.216 375.122 406.135 373.342 403.359 371.26C400.27 368.943 395.269 367.323 391.632 366.284C390.966 366.093 386.941 365.933 386.931 364.833C386.737 342.662 386.642 320.467 386.931 298.297C386.936 297.882 387.538 297.715 387.831 297.422ZM279.687 326.427C298.243 326.315 308.453 337.867 306.942 357.507C306.2 367.152 272.463 348.903 271.486 358.682C270.781 365.724 278.486 368.681 284.088 368.059C288.208 367.601 290.542 362.477 292.014 362.183C292.443 362.097 304.86 368.082 305.191 368.634C305.565 369.256 303.864 371.436 303.441 371.86C298.081 377.219 291.729 382.112 283.788 382.112C277.308 382.112 270.963 381.242 265.635 377.436C244.358 362.238 254.287 326.579 279.687 326.427ZM486.874 329.077C501.72 329.566 502.099 329.676 502.101 329.952C502.197 341.38 501.99 352.807 501.801 364.233C501.735 368.214 499.244 372.366 496.525 375.085C485.978 385.633 465.861 385.754 456.093 374.21C453.646 371.318 451.15 367.949 451.117 363.933C451.025 352.604 450.925 341.281 451.117 329.952C451.122 329.676 451.416 329.387 451.692 329.377C456.866 329.189 462.043 329.377 467.22 329.377C467.318 329.67 467.514 329.944 467.52 330.252C467.71 339.921 467.638 349.589 467.82 359.257C468.006 369.089 481.079 370.521 485.098 362.483C485.278 362.123 485.395 361.711 485.398 361.308C485.492 350.857 485.207 340.402 485.398 329.952C485.408 329.413 486.621 329.161 486.874 329.077ZM372.878 367.759C383.412 368.539 392.062 368.79 395.432 372.16C394.895 373.234 393.774 379.074 392.207 379.186C385.02 379.699 376.33 379.113 369.078 378.886C368.053 378.854 359.119 371.248 359.401 370.685C360.212 369.062 371.347 367.929 372.878 367.759ZM338.897 382.987C339.337 383.28 339.333 383.294 339.773 383.587C336.829 389.474 333.367 398.843 328.071 403.34C327.426 404.312 326.838 405.298 325.995 406.141C325.165 405.31 326.09 402.78 326.945 401.615C326.909 401.563 326.917 401.487 326.87 401.44C330.294 394.593 333.243 388.642 338.897 382.987ZM419.462 383.587C432.937 390.324 446.443 397.338 456.968 409.366C459.287 412.016 465.997 417.303 466.945 421.093C467.296 422.499 460.609 426.852 459.319 427.82C448.805 435.705 438.515 442.724 429.438 452.449C418.665 463.991 414.911 478.978 411.56 494.056C410.031 500.939 408.726 508.776 405.684 514.86C403.024 520.181 399.674 525.271 395.157 529.788C392.947 531.998 386.973 534.382 387.531 538.289C388.149 542.615 393.437 541.652 396.033 542.69C397.852 543.418 396.378 545.495 397.208 546.491C400.635 550.603 407.031 549.26 411.56 547.966C415.101 546.954 418.687 545.28 421.512 542.69C421.843 542.386 423.641 539.69 425.038 540.039C427.167 540.572 428.515 542.738 430.889 543.265C435.237 544.231 439.691 542.636 444.091 543.265C448.928 543.956 453.07 546.798 457.843 547.666C462.519 548.516 466.121 547.158 468.995 543.565C469.935 542.391 469.697 539.773 471.321 539.164C473.213 538.455 475.106 541.31 474.546 542.99C471.768 551.324 459.525 564.088 453.743 569.345C421.586 598.578 376.416 609.567 334.497 592.799C325.457 589.183 316.034 584.004 308.117 577.846C303.266 574.073 298.814 570.082 294.64 565.544C293.563 564.374 292.474 563.203 291.414 562.018C287.106 557.203 283.303 552.017 279.987 546.491C279.268 545.292 275.594 541.583 278.812 540.94C281.951 540.312 282.743 548.266 287.013 548.266C294.026 548.266 300.023 544.165 306.067 544.165C311.678 544.165 316.493 544.915 321.894 543.565C324.225 542.982 325.954 540.362 328.046 539.764C330.754 538.991 333.447 543.053 335.672 544.165C339.593 546.125 344.2 547.966 348.849 547.966C351.901 547.966 355.987 548.224 357.926 545.315C359.39 543.119 356.558 542.472 359.401 540.339C361.058 539.097 364.651 540.095 364.977 536.839C365.419 532.422 360.455 532.316 357.926 529.788C352.514 524.376 348.972 517.332 344.173 511.334C341.715 508.262 340.833 502.143 339.773 498.432C336.944 488.533 336.1 478.167 333.621 468.252C332.537 463.912 328.327 459.334 325.695 455.95C319.431 447.896 313.328 440.327 305.492 433.696C301.519 430.334 297.491 427.014 293.464 423.719C291.639 422.225 288.636 420.727 287.313 418.743C286.886 418.102 293.86 410.446 294.64 409.666C297.083 407.223 299.69 404.92 302.266 402.615C308.856 396.719 316.769 391.263 324.52 387.387C325.53 386.883 330.857 383.626 331.571 384.162C332.847 385.119 326.96 392.209 325.995 394.139C323.316 399.497 320.885 405.997 320.144 412.292C317.004 438.981 331.526 462.793 356.175 472.652C360.223 474.272 365.083 476.178 369.653 476.178C382.428 476.178 394.288 474.744 405.109 468.252C434.91 450.371 438.922 410.876 418.887 384.162C419.18 383.869 419.169 383.88 419.462 383.587ZM358.526 394.714C360.63 394.105 363.294 399.387 364.677 401.165C366.669 403.726 372.05 409.12 372.578 412.292C373.176 415.876 367.346 422.479 365.552 425.469C364.805 426.715 361.963 433.222 360.576 433.396C355.89 433.981 348.698 430.288 344.173 428.995C343.386 428.77 339.649 428.128 339.473 427.244C338.992 424.842 338.897 422.368 338.897 419.918C338.897 416.303 339.092 412.681 339.172 409.066C339.197 407.95 338.979 405.243 339.473 404.09C340.442 401.828 355.298 395.647 358.526 394.714ZM405.109 395.014C409.944 394.529 418.046 399.765 420.937 404.39C422.474 406.85 422.112 412.682 422.112 415.217C422.112 418.602 422.139 423.027 421.512 426.369C421.309 427.453 406.869 433.258 405.984 432.52C402.071 429.26 399.61 421.822 397.483 417.568C396.732 416.066 394.482 413.866 394.857 411.992C395.662 407.968 401.029 395.423 405.109 395.014ZM485.398 413.767C492.277 413.767 499.985 415.751 505.027 420.793C507.09 422.857 508.775 425.893 511.478 427.244C516.382 429.697 522.944 429.177 527.881 431.645C532.999 434.204 539.279 440.596 544.009 442.172C548.51 443.673 553.4 443.943 557.786 445.698C563.359 447.927 567.331 453.755 573.014 455.649C581.857 458.597 591.411 459.361 599.393 464.151C610.892 471.05 632.924 490.84 644.801 475.003C648.631 469.897 643.839 461.026 640.101 457.125C636.134 452.986 632.065 448.962 628.098 444.823C626.527 443.183 623.423 439.771 623.423 437.196C623.423 419.785 644.443 423.029 653.878 414.642C660.746 421.51 651.323 434.531 644.226 436.896C642.023 437.631 634.934 437.237 634.55 439.547C634.098 442.253 638.024 444.196 639.525 445.698C648.614 454.786 661.185 468.873 650.952 482.029C647.159 486.907 640.595 491.106 634.25 491.106C632.391 491.106 630.527 490.968 628.674 490.831C627.501 490.744 620.772 488.313 620.772 490.831C620.772 493.954 622.522 496.914 622.522 500.207C622.522 506.509 616.897 514.78 622.247 519.536C625.793 522.688 631.789 519.169 635.125 523.061C638.095 526.527 636.418 533.132 639.525 536.239C643.379 540.092 647.311 544.872 651.553 548.266C653.433 549.77 655.591 548.379 656.528 551.191C657.061 552.79 660.707 561.143 657.704 561.143C654.967 561.143 652.213 560.926 649.477 560.843C643.95 560.676 643.503 553.884 638.95 552.367C635.483 551.211 632.267 554.651 628.098 553.817C626.057 553.408 624.03 551.189 622.522 550.016C619.108 547.36 615.062 544.926 610.82 543.865C603.184 541.956 594.629 545.992 587.666 541.815C580.539 537.538 576.597 533.658 574.764 525.412C574.466 524.071 573.223 520.568 573.889 519.236C574.115 518.784 575.119 517.594 575.939 518.086C577.732 519.161 578.858 523.915 580.04 525.687C582.713 529.697 586.449 532.483 590.292 534.788C597.709 539.239 607.695 535.189 615.796 536.539C622.748 537.697 626.671 542.851 632.799 545.915C633.092 545.476 633.081 545.48 633.374 545.04C628.729 538.847 619.641 532.138 611.395 532.138C603.588 532.138 594.405 533.901 588.241 527.737C580.698 520.194 578.958 512.096 577.114 501.958C576.741 499.904 575.986 492.521 572.714 493.456C571.264 493.87 573.349 499.704 573.589 500.782C575.109 507.625 574.75 516.314 566.563 518.361C560.945 519.765 553.916 518.361 548.409 518.361C539.554 518.361 530.74 521.343 521.73 520.411C519.983 520.23 524.724 509.987 520.279 512.209C518.057 513.321 517.828 517.887 515.879 519.836C512.61 523.104 510.403 524.127 506.502 525.687C502.755 527.186 500.219 531.34 497.7 534.488C492.466 541.031 509.806 544.69 512.953 544.165C518.014 543.322 515.851 533.172 522.03 533.013C525.545 532.923 529.067 532.921 532.582 533.013C538.736 533.175 528.955 544.096 527.881 544.74C526.726 545.433 525.164 544.851 524.08 545.315C522.509 545.989 522.376 549.505 522.03 550.891C521.53 552.892 519.135 554.387 517.629 555.592C514.07 558.439 506.302 554.356 502.401 553.242C496.273 551.491 492.918 550.932 488.024 546.791C486.661 545.637 483.382 546.979 481.873 546.791C478.376 546.353 476.695 537.182 476.022 534.488C474.869 529.876 480.741 518.196 483.923 514.56C485.562 512.687 490.044 512.627 491.549 515.135C492.143 516.125 488.642 520.358 488.024 521.286C484.903 525.968 480.178 532.769 485.398 537.989C486.231 535.49 485.938 532.628 486.573 530.088C487.71 525.541 492.716 521.416 495.075 517.485C495.783 516.306 495.909 513.252 495.075 512.209C493.563 510.32 490.617 509.802 488.924 508.109C485.956 505.141 483.387 501.67 482.473 497.557C481.714 494.145 483.076 479.897 479.247 480.854C477.542 481.28 477.197 483.545 477.197 484.955C477.197 490.972 477.912 498.437 480.697 504.008C481.346 505.305 483.73 509.182 482.773 510.459C481.023 512.792 476.062 511.132 474.546 511.034C472.17 510.881 468.817 510.945 466.645 509.859C463.091 508.082 460.026 504.649 456.393 502.833C455.287 506.152 459.505 509.779 461.369 511.909C464.135 515.071 470.834 525.279 471.621 529.212C472.37 532.96 466.685 530.739 466.345 532.438C465.887 534.729 468.116 538.136 466.07 540.339C458.021 549.007 453.973 538.889 445.541 538.889C442.195 538.889 435.489 540.379 431.764 538.889C429.393 537.941 427.873 534.642 425.613 533.888C425.057 533.703 424.35 533.563 423.862 533.888C422.195 535 420.939 536.635 419.462 537.989C417.083 540.169 404.721 549.97 401.583 544.74C400.623 543.14 404.09 541.959 405.409 540.639C410.137 535.912 411.365 531.161 415.061 525.987C416.089 524.547 418.518 522.032 416.536 520.711C412.642 525.092 404.496 539.164 398.083 539.164C396.42 539.164 394.438 539.887 393.107 538.889C390.423 536.876 396.453 534.343 397.483 533.313C398.997 531.798 400.446 530.201 401.884 528.612C406.524 523.483 409.404 516.929 411.56 510.459C417.166 493.641 418.478 473.979 428.838 459.475C437.263 447.68 451.322 438.597 463.119 430.17C467.929 426.735 472.683 423.137 477.197 419.318C479.122 417.689 482.358 413.767 485.398 413.767ZM95.5795 413.917C97.8354 413.645 102.79 418.197 104.481 419.043C110.865 422.235 129.085 421.466 129.085 432.52C129.085 436.188 128.936 440.296 126.16 443.072C119.718 449.514 108.931 455.153 105.931 464.151C103.591 471.173 108.105 482.629 116.783 482.629C135.486 482.629 141.988 468.912 157.515 462.701C164.35 459.967 172.197 460.979 178.894 458.3C185.983 455.465 190.422 447.713 197.648 444.823C203.039 442.666 209.792 444.716 214.35 441.297C217.942 438.603 220.837 434.253 224.902 432.22C230.843 429.25 238.448 426.565 245.131 424.894C248.991 423.929 253.176 420.454 256.258 418.143C262.4 413.536 272.181 414.965 278.537 418.143C284.611 421.18 289.922 426.314 295.24 430.745C307.467 440.935 323.983 455.921 330.096 471.202C332.266 476.627 332.286 482.486 333.321 488.18C334.487 494.591 336.546 500.779 338.597 506.934C339.151 508.595 339.561 512.095 340.648 513.385C344.815 518.333 348.383 525.221 352.95 529.788C354.095 530.933 362.208 535.39 360.276 536.839C358.262 538.35 355.121 536.781 352.95 536.239C343.683 533.922 342.135 521.604 333.897 517.485C332.855 519.048 335.974 522.405 337.122 523.937C340.528 528.477 340.205 533.176 344.748 537.114C346.362 538.512 355.781 542.716 353.25 544.74C352.273 545.522 350.684 544.832 349.724 544.74C345.171 544.307 340.602 543.322 336.847 540.639C334.38 538.877 332.113 534.902 329.221 534.488C326.273 534.067 322.373 539.127 319.544 540.339C315.593 542.033 310.957 540.371 306.667 540.639C298.207 541.168 282.081 553.398 283.513 534.788C283.651 532.991 286.196 530.847 287.013 529.212C286.093 528.292 282.337 530.362 282.337 528.037C282.337 523.421 287.496 520.927 289.964 517.785C291.981 515.219 292.193 511.271 294.34 508.409C293.296 507.365 289.38 508.739 287.913 508.984C283.052 509.794 277.41 511.587 272.361 511.334C270.345 511.234 270.833 508.896 271.486 507.809C273.382 504.648 275.46 501.48 275.586 497.557C275.678 494.711 277.258 490.329 274.711 489.055C272.762 488.081 270.171 502.055 269.16 504.583C267.114 509.698 257.24 509.117 256.558 511.334C255.6 514.447 258.81 517.339 260.059 519.836C263.645 527.01 268.426 532.98 264.159 541.515C264.599 541.808 264.595 541.797 265.034 542.09C266.626 540.233 270.31 536.472 270.31 533.613C270.31 527.044 264.831 519.678 261.834 513.685C269.495 506.024 277.892 529.593 277.637 534.188C277.468 537.23 272.273 544.317 270.035 545.915C267.277 547.886 264.041 547.344 260.659 547.666C258.86 547.837 255.329 550.038 253.907 550.891C248.805 553.953 238.756 556.998 233.104 555.867C228.565 554.959 227.12 549.363 224.602 546.215C223.148 544.398 221.018 545.441 218.751 545.315C216.596 545.196 210.096 534.142 212.6 532.138C213.341 531.545 214.955 531.372 215.826 531.263C232.17 529.22 226.882 538.059 236.904 544.74C240.58 547.191 250.392 542.606 252.457 539.164C253.669 537.145 251.808 531.789 250.107 530.088C246.124 526.105 241.326 524.532 237.505 520.711C235.99 519.196 234.532 517.632 233.104 516.035C231.682 514.446 230.486 507.623 228.128 508.409C227.31 508.681 228.155 514.754 228.128 515.135C228.053 516.184 226.249 517.785 225.202 517.785C217.948 517.785 211.008 517.035 203.799 517.485C197.628 517.871 190.076 520.148 184.17 517.785C177.765 515.223 179.639 506.774 180.369 501.658C180.573 500.23 182.457 495.327 180.369 494.631C176.317 493.281 175.976 504.932 175.669 507.234C174.465 516.258 171.506 520.632 163.967 526.287C153.444 534.179 137.229 528.722 126.16 535.364C123.942 536.694 116.269 542.141 117.658 545.615C118.275 547.157 120.814 544.364 122.059 543.265C125.663 540.085 129.936 537.42 134.661 536.239C145.156 533.615 157.822 537.493 167.167 531.263C171.724 528.225 173.546 523.493 176.844 519.536C177.933 518.229 180.945 517.84 180.945 520.711C180.945 530.164 165.356 543.265 156.04 543.265C149.716 543.265 144.459 540.994 137.887 542.09C132.066 543.06 128.577 550.069 122.634 551.766C119.348 552.705 116.225 550.538 112.958 551.191C110.362 551.71 109.139 556.786 107.407 558.518C103.701 562.224 102.405 561.911 96.5547 561.443C95.8199 561.384 92.6131 561.098 92.1539 560.843C89.929 559.607 93.259 550.055 95.3795 548.541C96.2527 547.917 98.2056 548.302 98.9051 547.666C100.642 546.086 101.455 544.241 103.006 542.69C106.562 539.134 110.993 537.8 114.133 533.613C116.762 530.108 115.814 525.906 119.409 522.761C123.106 519.526 139.025 523.236 137.287 512.81C136.614 508.773 133.604 504.949 133.486 500.482C133.401 497.26 133.754 494.043 133.486 490.831C133.452 490.418 133.016 490.045 132.611 489.956C129.747 489.319 125.615 491.706 122.634 491.706C111.282 491.706 99.8572 486.713 96.8547 474.703C93.8557 462.707 100.485 455.897 108.582 448.323C110.483 446.545 119.08 441.735 117.958 438.371C117.631 437.388 116.354 436.393 115.308 436.321C112.773 436.146 110.242 436.196 107.707 436.021C99.4678 435.453 88.8245 422.315 94.8044 414.342C94.9999 414.081 95.2573 413.956 95.5795 413.917ZM325.42 432.22C332.175 438.975 335.825 445.34 340.948 453.024C341.969 454.557 343.791 456.356 344.448 458C344.846 458.994 343.239 460.931 342.398 460.65C341.935 460.496 341.568 460.121 341.223 459.775C335.333 453.886 331.512 447.759 327.47 441.022C325.985 438.546 326.041 435.238 324.82 432.795C325.113 432.502 325.127 432.513 325.42 432.22ZM387.831 450.549C389.786 450.527 391.733 450.538 393.682 450.674C394.338 450.719 398.129 461.131 398.383 462.401C398.421 462.592 398.508 462.826 398.383 462.976C396.153 465.651 383.037 471.202 379.63 471.202C375.486 471.202 365.099 467.337 362.627 463.876C362.513 463.717 362.579 463.465 362.627 463.276C362.812 462.536 371.211 451.31 371.403 451.274C374.863 450.615 378.435 450.766 381.955 450.674C383.908 450.622 385.876 450.57 387.831 450.549ZM284.088 512.81C287.577 514.967 281.159 521.604 279.412 522.186C277.058 522.971 275.788 516.088 275.311 515.135C277.221 513.225 281.462 513.247 284.088 512.81ZM475.096 513.96C476.353 513.888 477.54 514.028 478.372 514.86C476.965 517.674 476.202 522.005 473.971 524.237C472.241 521.929 465.959 514.068 471.321 514.26C472.496 514.302 473.84 514.032 475.096 513.96ZM567.438 521.586C568.823 521.516 570.31 521.569 570.663 523.336C571.426 527.148 572.165 530.929 573.589 534.488C574.178 535.962 577.963 539.522 577.99 540.339C578.553 557.619 577.866 574.911 577.69 592.199C577.441 616.576 563.506 634.955 547.509 652.284C467.911 738.515 338.299 753.471 242.18 684.815C223.983 671.817 208.135 655.838 194.422 638.207C186.846 628.467 179.303 618.273 176.844 605.976C176.036 601.939 175.415 597.463 175.394 593.374C175.3 575.207 174.56 557.037 175.394 538.889C175.47 537.228 177.738 536.49 178.594 535.063C180.649 531.638 182.494 527.953 183.87 524.512C184.246 523.573 185.61 521.581 186.821 522.186C187.191 522.372 187.689 522.647 187.696 523.061C188.082 546.402 187.788 569.755 187.971 593.099C188.021 599.464 189.698 605.258 191.196 611.252C192.548 616.659 197.349 622.181 200.573 626.48C208.278 636.753 216.391 646.345 225.777 655.21C270.532 697.478 324.258 717.378 386.056 715.87C456.952 714.141 525.22 673.339 561.587 612.727C566.414 604.682 565.952 591.633 565.987 583.122C566.072 562.904 565.794 542.679 565.987 522.461C565.993 521.923 567.177 521.599 567.438 521.586ZM242.18 528.987C242.861 528.959 243.505 529.062 243.956 529.513C244.724 530.281 248.162 537.348 247.456 538.289C246.206 539.956 243.41 541.581 241.305 541.815C240.867 541.863 239.517 542.052 238.98 541.515C236.694 539.229 236.699 536.008 234.579 533.888C234.004 533.313 232.375 532.345 231.929 531.563C231.783 531.308 231.798 530.925 231.929 530.663C233.059 528.403 237.846 529.375 240.13 529.212C240.765 529.167 241.499 529.015 242.18 528.987ZM508.952 530.638C510.514 530.629 512.135 530.72 513.228 530.663C516.998 530.466 513.96 541.515 511.478 541.515C506.137 541.515 502.572 540.73 502.976 535.063C503.06 533.896 503.843 531.939 505.027 531.263C505.891 530.769 507.391 530.647 508.952 530.638ZM98.33 533.313C108.72 532.02 97.5904 544.74 95.6795 544.74C90.1983 544.74 88.4883 540.341 93.3291 537.114C95.076 535.949 96.241 533.573 98.33 533.313ZM651.253 533.313C655.492 532.429 665.748 544.163 656.528 545.315C651.629 545.928 643.776 534.873 651.253 533.313ZM172.568 540.314C172.817 540.386 173.037 540.577 173.043 540.94C173.519 567.582 169.493 595.325 179.494 620.329C184.753 633.474 197.694 647.63 207.624 657.56C236.884 686.819 269.192 707.371 307.817 720.246C382.168 745.03 478.875 724.444 535.207 668.112C553.873 649.446 579.886 624.445 580.04 595.424C580.133 577.843 579.75 560.269 580.04 542.69C580.054 541.828 587.06 544.77 587.066 545.915C587.163 562.618 586.977 579.323 586.791 596.024C586.703 603.952 584.809 614.041 581.215 621.229C574.371 634.917 563.668 649.328 552.51 660.486C538.989 674.007 525.041 686.783 509.127 697.392C497.572 705.095 484.882 710.429 473.396 717.321C468.36 720.342 461.642 722.222 456.093 724.072C440.649 729.22 425.339 733.017 409.21 735.499C345.999 745.224 276.631 725.565 227.528 685.39C197.825 661.088 166.25 629.517 166.017 588.973C165.93 573.932 165.728 558.904 166.017 543.865C166.034 542.965 170.926 540.676 171.868 540.339C172.037 540.279 172.319 540.243 172.568 540.314ZM86.0028 544.165C87.714 543.816 90.0053 546.673 90.4036 548.266C90.6472 549.24 86.4957 560.795 86.3029 560.843C85.3495 561.081 79.5467 559.463 79.2766 558.518C78.8448 557.006 81.4184 553.54 81.6271 551.766C82.0781 547.933 81.9305 544.996 86.0028 544.165ZM665.33 544.64C668.9 545.299 668.73 551.788 669.131 554.992C669.356 556.796 671.35 556.787 670.581 559.093C670.093 560.558 665.746 561.524 664.43 561.743C662.095 562.132 662.161 557.592 661.804 556.167C660.705 551.769 657.386 546.298 663.555 544.74C664.23 544.57 664.82 544.546 665.33 544.64ZM485.973 566.119C488.149 568.295 488.439 570.055 491.249 572.57C497.811 578.441 512.01 586.758 506.502 597.775C507.866 598.684 510.602 596.024 512.653 596.024C514.568 596.024 517.32 596.486 519.104 597.199C525.047 599.576 530.428 606.28 535.207 610.377C537.848 612.64 541.897 613.842 544.009 615.953C543.348 617.273 540.315 621.471 538.733 622.104C535.221 623.508 521.7 609.951 519.104 607.726C515.116 604.308 510.318 600.787 506.202 606.276C515.053 613.357 525.124 620.907 532.582 629.43C530.817 631.547 529.102 633.484 527.006 635.281C513.717 623.654 500.28 612.192 486.874 600.7C482.449 596.908 472.351 590.407 469.57 585.772C468.868 584.601 473.787 580.08 474.546 579.321C483.649 583.872 490.586 595.993 499.451 600.425C504.332 595.544 499.906 591.213 495.95 587.823C492.657 585 480.697 576.568 480.697 572.295C480.697 570.773 484.817 567.276 485.973 566.119ZM267.385 566.719C267.773 566.442 273.253 571.686 272.661 572.87C271.139 575.914 267.791 578.736 265.635 581.372C259.554 588.803 253.978 596.829 247.181 603.626C247.621 603.919 247.617 603.933 248.056 604.226C257.69 595.333 267.87 587.11 277.937 578.721C278.453 579.323 283.646 584.292 282.913 585.172C280.25 588.367 275.868 591.001 272.661 593.674C264.187 600.735 255.655 607.716 247.181 614.778C241.322 619.66 232.876 628.806 226.378 632.056C226.358 632.036 226.323 632.05 226.303 632.031C225.29 632.916 225.403 632.993 224.327 633.531C223.439 632.643 223.234 632.437 222.552 631.756C222.515 631.7 222.336 631.552 222.277 631.48C221.504 630.548 219.16 628.487 219.326 627.655C219.765 625.462 224.302 621.557 225.777 619.753C232.23 611.867 238.199 603.231 245.406 596.024C245.113 595.731 245.124 595.717 244.831 595.424C237.282 602.287 229.51 608.825 221.677 615.353C220.75 616.125 214.586 621.697 214.05 621.229C212.398 619.782 210.061 617.026 209.075 615.053C229.203 599.956 246.946 581.318 267.385 566.719ZM290.239 595.724C297.06 595.724 300.298 599.311 305.492 603.351C306.719 604.305 309.168 605.452 309.867 606.851C310.316 607.749 305.632 613.708 304.616 613.302C300.52 611.664 296.062 607.004 292.589 604.226C287.222 610.666 281.709 617.458 277.062 624.429C280.074 626.839 283.413 629.03 286.138 631.756C284.985 634.062 282.907 636.673 280.862 638.207C277.925 636.004 275.078 633.127 271.786 631.48C266.347 637.825 260.891 644.734 256.258 651.684C260.488 654.504 264.969 657.77 268.56 661.361C267.513 662.932 265.034 665.762 265.034 665.762L263.459 667.587L261.234 666.062C261.234 666.062 247.456 657.899 247.456 652.284C247.456 647.638 251.232 643.997 253.907 640.557C260.325 632.305 266.546 623.9 272.961 615.653C275.511 612.374 286.935 595.724 290.239 595.724ZM460.244 596.024C461.194 595.984 462.155 596.058 463.119 596.299C465.708 596.947 467.526 600.693 468.995 602.75C470.921 605.446 482.173 618.725 482.173 620.929C482.173 622.202 481.788 623.459 481.873 624.729C481.95 625.882 484.07 625.152 484.823 625.604C486.574 626.655 486.842 627.351 488.624 629.43C493.812 635.484 497.346 643.428 502.976 649.059C504.775 650.857 506.684 651.591 508.252 653.159C506.844 654.286 502.659 658.648 500.626 657.835C498.441 656.961 496.994 654.652 495.65 652.859C490.491 645.98 485.896 637.83 479.822 631.756C477.848 633.071 475.695 634.558 474.271 636.456C478.96 643.489 484.289 650.086 489.199 656.96C489.754 657.737 494.376 663.139 493.9 663.711C492.514 665.374 489.379 667.422 487.449 668.387C477.143 654.646 466.95 640.755 456.968 626.78C452.36 620.328 445.833 613.886 442.316 606.851C447.332 602.838 453.59 596.305 460.244 596.024ZM317.494 612.127C318.241 611.913 320.027 613.026 320.719 613.302C321.701 613.695 323.911 614.016 324.52 614.778C325.649 616.189 322.145 622.203 321.594 623.854C318.706 632.521 315.315 641.142 311.918 649.634C311.178 651.483 307.745 657.763 308.992 659.01C312.499 653.75 314.93 647.154 318.969 642.307C319.782 641.332 325.972 641.841 326.295 643.783C326.886 647.329 321.064 661.106 323.07 663.111C325.208 660.973 326.038 656.291 327.17 653.459C330.104 646.125 332.573 637.229 336.547 630.605C338.793 626.862 338.217 619.551 343.873 622.379C344.913 622.899 346.534 622.924 347.374 623.554C348.698 624.547 346.72 627.314 346.224 628.555C344.194 633.629 342.227 638.574 339.773 643.483C333.832 655.363 328.861 667.822 323.945 680.114C323.086 682.262 318.875 693.599 317.494 694.192C316.083 694.796 312.652 691.841 311.043 691.841C309.748 687.959 313.959 671.949 315.143 667.212C315.584 665.45 317.86 659.677 316.618 658.435C313.73 662.768 311.612 667.571 308.717 671.913C307.178 674.221 300.517 686.273 298.74 686.865C297.433 687.301 292.292 684.45 292.014 683.34C291.632 681.811 296.263 671.443 296.99 669.262C301.834 654.73 307.374 640.436 312.218 625.905C312.751 624.306 316.993 612.27 317.494 612.127ZM425.038 615.053C430.622 615.14 432.32 616.103 436.165 621.229C439.972 626.305 441.439 634.678 443.791 640.557C448.08 651.279 452.986 662.242 456.693 673.363C458.891 679.956 454.008 689.491 446.416 689.491C441.207 689.491 437.855 687.827 434.714 683.64C432.491 680.675 431.673 676.187 430.314 672.788C426.676 663.693 423.393 654.912 419.762 645.833C418.011 641.458 413.611 634.401 413.611 629.705C413.611 622.019 416.947 614.926 425.038 615.053ZM398.383 623.854C401.043 625.635 400.411 628.801 400.708 631.18C401.771 639.683 405.405 653.308 402.184 661.361C401.274 663.633 396.99 665.301 396.608 667.212C396.337 668.566 397.046 669.941 397.208 671.313C397.966 677.754 398.5 684.224 399.258 690.666C399.604 693.606 400.674 697.37 400.133 700.343C399.855 701.874 393.724 702.198 392.507 701.793C391.287 701.386 390.143 687.48 389.881 685.39C389.47 682.095 389.514 670.734 388.106 668.387C386.697 666.038 382.309 665.243 380.505 662.236C377.274 656.852 378.052 648.218 377.279 642.032C377.061 640.288 374.961 626.538 376.404 626.205C377.833 625.875 381.802 625.197 383.43 625.604C385.044 626.008 384.828 631.88 384.881 632.356C385.564 638.51 386.344 644.648 386.931 650.809C387.12 652.799 386.879 658.383 388.106 659.61C388.65 659.339 394.742 659.4 394.857 658.135C395.551 650.499 393.057 641.178 392.207 633.531C391.992 631.602 390.454 627.084 391.332 625.329C392.085 623.822 397.312 623.951 398.383 623.854ZM404.534 311.799C404.258 311.805 403.937 312.098 403.934 312.374C403.741 330.052 403.741 347.731 403.934 365.409C403.937 365.685 404.258 365.998 404.534 366.009C409.61 366.197 414.683 366.096 419.762 366.009C426.855 365.886 432.352 355.432 427.963 349.581C426.562 347.712 424.452 344.668 421.812 344.605C417.905 344.512 413.983 344.583 410.085 344.305C409.809 344.285 409.522 344.006 409.51 343.73C409.323 339.338 409.323 334.944 409.51 330.552C409.559 329.406 415.525 329.808 416.536 329.652C418.416 329.363 420.357 327.307 421.512 326.152C425.168 322.496 422.751 312.209 416.836 312.074C412.734 311.981 408.636 311.706 404.534 311.799ZM278.237 338.154C275.309 339.618 272.317 341.579 271.486 344.905C271.271 345.764 269.942 348.659 271.486 348.706C277.734 348.895 283.994 348.985 290.239 348.706C290.653 348.687 290.821 348.124 291.114 347.83C288.926 343.454 288.467 340.925 278.237 338.154ZM342.223 341.529C340.858 341.315 339.42 341.367 337.997 341.679C322.939 344.986 324.961 368.059 340.948 368.059C349.847 368.059 353.872 356.998 351.5 349.881C349.91 345.113 346.318 342.171 342.223 341.529ZM487.024 436.996C486.525 436.954 485.887 437.017 485.098 437.196C479.205 438.537 473.871 446.6 471.921 452.449C471.537 453.601 470.203 461.879 472.496 460.35C474.151 459.247 475.306 455.621 476.597 453.899C479.032 450.652 483.338 446.582 485.398 444.523C487.451 442.47 490.517 437.294 487.024 436.996ZM275.086 444.072C274.442 443.955 273.732 443.986 272.961 444.222C269.09 445.412 275.273 453.773 276.186 457.425C276.44 458.441 277.465 465.739 279.112 464.751C280.777 463.752 280.464 459.105 280.587 458C281.083 453.534 279.596 444.894 275.086 444.072ZM318.094 482.329C315.9 482.12 309.817 495.301 312.518 496.382C316.414 497.94 315.185 487.621 322.194 494.631C324.649 497.086 325.69 505.839 327.47 505.483C330.052 504.967 330.146 499.31 329.796 497.557C328.723 492.195 323.27 482.823 318.094 482.329ZM441.916 485.805C441.423 485.641 440.963 485.623 440.565 485.83C435.71 488.349 428.989 496.252 427.963 501.383C427.581 503.295 426.001 510.875 429.713 509.284C431.67 508.446 431.26 505.04 432.064 503.433C433.47 500.62 437.027 497.288 439.99 495.807C443.588 494.008 445.208 500.489 447.317 498.732C450.45 496.121 445.365 486.952 441.916 485.805ZM317.444 521.536C317.041 521.434 316.585 521.444 316.043 521.586C310.707 522.985 304.086 530.343 315.743 529.788C316.052 529.773 316.332 529.627 316.618 529.513C319.739 528.264 320.262 522.254 317.444 521.536ZM439.865 523.436C439.549 523.434 439.272 523.493 439.09 523.636C434.654 527.124 440.683 531.838 444.666 531.838C449.178 531.838 444.809 524.868 442.916 524.237C442.192 523.995 440.813 523.445 439.865 523.436ZM459.319 603.926C457.718 605.527 454.778 606.579 453.468 608.326C453.35 608.483 453.38 608.727 453.468 608.902C454.883 611.733 457.764 614.507 459.619 617.103C462.423 621.028 465.333 626.566 468.995 629.705C469.557 630.187 475.045 625.374 475.447 625.029C471.827 617.79 465.173 610.072 459.319 603.926ZM427.963 622.679C426.625 622.01 421.567 624.975 420.637 625.905C427.159 638.948 431.619 654.259 437.04 667.812C437.726 669.526 441.484 681.487 442.616 681.864C444.525 682.501 449.02 679.861 450.242 678.639C443.604 665.362 439.02 650.159 433.539 636.456C432.649 634.23 429.786 623.59 427.963 622.679Z" fill="#FFFFFF" fill-rule="nonzero" opacity="1" stroke="none"/>
</g>
</svg>
