<?xml version="1.0" encoding="UTF-8" standalone="no"?>
<!DOCTYPE svg PUBLIC "-//W3C//DTD SVG 1.1//EN" "http://www.w3.org/Graphics/SVG/1.1/DTD/svg11.dtd">
<!-- Created with Vectornator (http://vectornator.io/) -->
<svg height="100%" stroke-miterlimit="10" style="fill-rule:nonzero;clip-rule:evenodd;stroke-linecap:round;stroke-linejoin:round;" version="1.1" viewBox="0 0 750 1000" width="100%" xml:space="preserve" xmlns="http://www.w3.org/2000/svg" xmlns:vectornator="http://vectornator.io" xmlns:xlink="http://www.w3.org/1999/xlink">
<defs/>
<g id="Layer-1" vectornator:layerName="Layer 1">
<path d="M383.862 221.505C369.299 221.404 354.806 221.784 341.615 221.899C339.425 221.918 334.584 223.232 332.536 223.364C322.617 224.004 312.458 224.96 302.673 225.99C260.808 230.397 222.405 239.072 182.562 252.353C172.971 255.55 162.053 258.812 152.699 263.489C149.703 264.987 144.032 265.66 142.153 268.477C140.671 270.7 140.352 274.144 139.506 276.681C135.86 287.618 133.718 298.16 130.142 308.886C126.372 320.195 125.394 332.415 122.223 344.044C120.118 351.762 118.317 361.176 117.825 369.532C116.953 384.355 114.135 399.174 113.143 414.053C113.088 414.886 112.336 416.372 112.268 417.204C86.7709 729.562 376.226 821.488 376.227 821.488C376.227 821.488 658.066 742.111 636.881 403.508C636.856 403.095 636.078 403.041 636.006 402.633C634.668 395.048 635.227 386.865 633.95 379.202C629.792 354.253 625.854 329.92 619.007 305.954C616.42 296.898 614.061 287.877 611.109 279.022C610.045 275.829 609.701 270.99 607.587 268.171C605.638 265.572 598.981 264.138 595.882 262.898C587.126 259.396 578.211 255.943 569.213 252.944C534.807 241.475 499.472 232.217 463.761 227.456C454.676 226.244 445.939 225.189 437.397 224.24C433.806 223.84 430.151 224.423 426.568 223.955C413.063 222.194 398.425 221.606 383.862 221.505ZM372.967 234.194C397.192 234.45 421.586 234.999 445.602 238.001C467.471 240.735 489.061 244.868 510.93 249.727C524.782 252.806 539.581 255.44 552.235 260.863C563.024 265.487 575.495 267.505 585.621 272.568C588.76 274.138 596.684 275.017 597.917 278.716C611.105 318.282 618.378 359.492 623.404 399.701C625.803 418.893 625.481 438.736 624.87 457.984C621.961 549.64 594.504 634.266 531.736 701.684C514.797 719.877 496.125 735.186 476.669 750.319C467.025 757.819 456.596 764.577 446.192 770.818C441.094 773.877 435.905 777.8 430.659 779.898C427.096 781.323 424.095 784.066 420.705 785.761C413.68 789.274 407.298 792.878 400.205 795.716C393.492 798.401 386.973 802.124 380.296 804.795C378.628 805.462 376.915 807.136 375.023 807.136C373.301 807.136 371.286 805.409 369.751 804.795C363.53 802.307 356.776 799.771 351.001 796.306C345.682 793.115 338.984 790.161 333.127 787.818C325.998 784.966 319.809 779.441 312.911 776.682C309.953 775.498 307.499 772.805 304.707 771.409C293.053 765.582 283.222 756.874 272.503 749.728C260.215 741.537 247.614 731.294 237.06 720.74C218.698 702.377 198.215 681.879 184.619 659.219C176.875 646.313 167.258 633.079 161.778 619.379C157.599 608.932 152.158 599.337 148.586 588.618C135.587 549.622 126.014 509.423 124.87 467.655C124.264 445.528 125.031 423.588 126.904 402.042C129.682 370.098 135.538 339.987 143.313 308.886C145.035 301.999 146.547 294.52 149.176 288.386C150.537 285.211 150.648 280.749 152.392 277.841C154.372 274.542 162.59 273.289 165.869 271.977C178.526 266.915 191.343 262.574 204.528 258.807C259.823 243.008 314.746 233.579 372.967 234.194ZM370.648 246.686C366.348 246.713 362.056 246.829 357.74 247.08C335.798 248.359 314.074 248.932 292.412 252.353C263.029 256.992 233.391 263.9 205.118 271.977C193.812 275.208 182.985 278.962 172.608 283.113C169.514 284.351 164.88 284.838 162.653 287.511C161.585 288.793 161.493 291.889 160.903 293.659C158.354 301.305 157.272 309.277 154.449 316.806C151.543 324.555 150.247 333.984 148.586 342.293C144.859 360.925 141.819 379.287 140.097 398.236C137.766 423.874 136.783 449.486 138.04 475.268C138.47 484.079 140.348 493.284 141.256 501.916C150.707 591.695 195.708 674.164 268.39 730.694C285.279 743.83 303.275 757.369 321.991 766.727C330.205 770.834 337.169 776.006 345.422 779.307C353.696 782.616 360.789 787.217 368.854 790.443C370.963 791.287 373.335 793.375 375.898 793.09C377.369 792.927 379.785 791.136 381.171 790.443C386.736 787.661 392.687 785.276 398.148 782.545C419.713 771.763 442.211 759.962 462.885 744.455C484.638 728.141 505.057 711.497 523.816 691.445C573.462 638.375 600.798 570.339 609.643 499.575C613.407 469.463 612.722 437.938 610.518 408.19C608.198 376.862 603.184 346.932 595.576 316.499C593.773 309.287 591.746 302.45 589.734 295.409C589.076 293.106 588.604 289.123 587.087 287.226C585.138 284.791 580.371 284.59 577.417 283.113C567.93 278.37 556.934 276.842 546.963 272.568C533.354 266.736 516.517 263.797 501.85 260.863C487.147 257.923 471.992 254.186 457.328 252.353C441.662 250.395 425.51 249.343 409.284 248.262C396.396 247.402 383.547 246.606 370.648 246.686ZM375.023 267.296C381.431 276.908 385.689 287.467 390.841 297.772C391.5 299.089 395.593 307.885 396.989 307.42C403.586 305.221 414.062 293.372 416.307 286.636C417.323 283.586 417.312 275.426 418.364 275.215C419.473 274.994 423.351 279.446 424.511 280.772C429.007 285.911 432.431 293.399 432.431 300.113C432.431 303.727 432.289 307.332 432.125 310.942C431.951 314.773 431.792 319.264 430.09 322.669C431.878 324.456 436.779 321.601 439.17 321.203C447.235 319.859 460.063 313.961 464.067 305.954C465.028 304.031 466.453 296.545 466.692 296.306C476.636 308.238 475.326 325.617 468.749 338.771C467.662 340.945 466.849 343.602 464.942 345.51C465.97 346.538 468.155 346.669 469.624 346.669C479.269 346.669 493.743 347.163 501.259 339.646C503.611 337.294 504.169 334.111 506.248 332.033C507.516 333.301 508.547 336.866 508.589 338.487C509.129 359.573 504.258 363.885 489.839 378.305C491.346 379.812 497.097 379.978 499.509 380.667C509.042 383.391 517.984 385.284 527.338 381.543C530.197 380.399 532.065 377.516 534.361 375.679C536.758 378.077 534.703 384.709 533.77 387.975C531.04 397.53 523.915 406.532 514.736 411.122C512.105 412.437 507.023 413.562 504.782 415.804C506.393 417.414 510.011 418.701 512.111 420.201C522.992 427.973 534.717 432.767 548.122 426.064C550.688 428.63 547.425 433.629 546.088 436.303C540.617 447.244 528.849 450.581 518.828 453.587C515.786 454.5 510.132 453.509 507.998 455.644C515.135 461.889 519.689 471.79 527.929 476.734C530.427 478.233 534.544 479.222 537.008 479.359C540.523 479.555 545.064 477.461 547.553 479.95C543.599 487.859 532.378 495.581 523.225 495.768C518.832 495.857 514.444 495.955 510.054 495.768C508.256 495.691 501.317 492.778 499.794 494.302C501.128 496.972 503.321 499.48 504.782 501.916C508.799 508.611 508.995 515.251 515.611 520.665C518.535 523.057 522.225 524.983 525.566 525.938C527.453 526.477 530.194 526.141 531.429 527.994C514.693 542.639 498.308 536.911 481.044 528.279C480.751 528.571 480.768 528.576 480.475 528.869C482.068 530.462 481.545 532.752 481.941 534.733C483.103 540.543 482.839 548.256 485.748 554.073C487.842 558.262 490.534 561.517 494.521 564.618C496.441 566.111 499.33 566.986 500.669 568.994C498.086 571.576 494.149 571.397 490.714 571.925C474.076 574.485 462.28 565.172 450.874 553.766C450.462 554.179 449.726 563.831 449.409 566.368C449.152 568.422 448.249 570.705 448.249 572.8C448.249 577.098 448.354 581.415 448.533 585.708C448.776 591.518 454.006 596.928 457.613 600.936C454.506 604.042 447.583 601.562 443.851 600.629C433.806 598.118 426.06 590.515 420.114 581.595C418.147 578.645 417.223 574.613 414.841 572.232C413.278 573.795 412.987 576.737 412.216 578.664C410.061 584.051 404.318 590.177 404.318 596.538C404.318 601.064 404.229 605.644 405.477 610.015C406.043 611.995 409.419 617.494 407.818 619.094C401.574 615.972 395.951 616.59 390.535 611.174C386.654 607.294 381.927 602.186 379.399 597.129C378.165 594.661 376.829 589.549 375.023 587.743C372.176 590.59 369.446 599.169 366.513 603.276C365.032 605.349 363.751 606.914 361.831 608.833C358.023 612.642 352.992 616.272 348.069 617.913C346.432 618.459 342.412 619.905 341.615 617.913C341.477 617.566 346.013 604.212 346.013 602.095C346.013 592.423 340.685 586.282 337.524 578.379C336.884 576.777 336.475 573.523 335.183 572.232C332.385 575.03 331.359 579.809 329.036 583.061C323.384 590.973 315.503 598.532 305.889 600.936C302.399 601.808 294.385 604.016 292.127 600.629C303.427 591.59 302.651 578.838 300.332 566.084C299.839 563.374 300.198 555.405 298.866 554.073C290.977 561.633 279.879 572.516 268.105 572.516C265.077 572.516 262.049 572.415 259.026 572.232C257.525 572.141 250.146 570.881 249.356 569.3C248.866 568.32 251.9 567.1 252.572 566.653C256.505 564.031 261.605 560.369 263.423 555.823C265.25 551.256 266.535 546.388 267.23 541.755C267.801 537.952 267.12 532.087 269.265 528.869C268.972 528.576 268.989 528.571 268.696 528.279C256.801 534.226 245.164 541.26 230.322 535.323C226.362 533.739 220.721 531.961 218.595 527.71C221.599 524.706 230.038 525.04 233.822 521.256C241.849 513.229 242.562 501.971 250.231 494.302C248.904 492.975 245.777 495.061 243.799 495.177C242.42 495.258 241.065 495.707 239.686 495.768C235.491 495.954 231.278 495.954 227.084 495.768C220.863 495.491 212.593 491.822 208.05 487.279C207.458 486.687 201.847 481.241 202.493 479.95C202.617 479.703 202.786 479.373 203.062 479.359C208.349 479.095 215.451 479.925 220.652 477.325C227.354 473.974 230.584 466.802 235.879 461.507C238.17 459.216 240.645 457.31 242.902 455.053C241.219 453.37 234.055 454.222 231.197 453.587C222.014 451.546 211.624 447.516 205.709 439.235C203.885 436.681 198.555 429.128 201.618 426.064C215.02 432.765 227.806 427.864 238.811 419.61C240.773 418.138 243.773 417.273 245.243 415.804C242.819 413.38 237.078 412.2 233.822 410.247C225.969 405.534 219.285 397.985 216.539 389.747C215.636 387.037 213.256 376.741 215.379 375.679C216.133 375.303 216.177 376.192 216.539 376.554C219.143 379.159 222.295 381.972 225.924 383.008C235.062 385.619 244.532 382.155 252.878 379.771C254.813 379.218 259.092 379.398 260.185 378.305C251.251 371.604 241.152 359.896 241.152 348.135C241.152 344.36 240.571 334.976 243.799 331.748C245.488 333.438 245.185 336.067 247.015 337.896C253.644 344.526 262.139 346.669 271.321 346.669C273.799 346.669 283.156 347.436 285.083 345.51C277.478 334.103 271.739 318.29 278.344 305.079C279.881 302.006 280.396 298.958 283.048 296.306C283.791 297.048 284.891 303.713 285.673 305.67C288.325 312.299 297.519 316.267 303.241 318.556C305.215 319.345 319.182 325.008 319.65 322.669C319.97 321.067 317.768 312.496 317.593 310.658C316.741 301.707 318.039 287.94 324.923 281.057C326.142 279.838 330.935 274.646 332.252 274.909C332.522 274.963 332.755 275.238 332.842 275.5C333.038 276.086 332.286 276.633 332.252 277.25C332.071 280.496 332.948 283.841 333.717 286.92C335.443 293.822 346.782 305.032 352.751 307.42C354.215 308.005 358.165 299.24 358.899 297.772C361.884 291.802 367.599 284.37 369.16 278.125C369.942 274.995 372.687 269.632 375.023 267.296ZM376.773 634.321C379.303 636.851 379.896 640.282 381.455 643.401C385.395 651.279 389.305 659.669 393.182 667.423C393.792 668.644 397.953 676.992 396.989 677.377C396.535 677.559 396.011 677.377 395.523 677.377C387.073 677.377 389.411 675.811 386.137 670.355C385.605 669.468 384.636 665.15 383.512 665.082C380.491 664.899 377.459 665.082 374.433 665.082C373.993 663.763 375.749 658.505 377.364 658.343C378.427 658.237 379.708 658.929 380.296 657.753C380.736 656.873 377.456 651.469 376.773 651.014C375.066 652.722 374.364 656.043 373.557 658.059C371.917 662.16 369.418 667.087 367.103 670.945C366.329 672.235 365.432 677.097 363.887 677.377C361.484 677.814 357.331 679.411 356.558 677.093C355.571 674.13 361.072 668.401 361.831 665.366C363.783 657.555 369.905 649.895 372.967 642.241C373.93 639.833 374.81 636.285 376.773 634.321ZM399.002 635.787C399.686 635.645 399.991 636.712 401.08 637.844C408.478 645.532 415.843 652.892 423.352 660.4C423.547 660.205 423.935 660.085 423.942 659.809C424.132 652.782 423.753 645.746 423.942 638.719C424.009 636.271 428.809 637.933 431.25 638.128C431.525 638.15 431.834 638.443 431.84 638.719C432.129 651.018 432.032 663.325 432.125 675.627C432.143 678.018 432.688 677.294 431.25 678.252C422.762 670.047 414.406 661.999 406.068 653.662C400.762 658.967 409.293 669.777 404.318 674.752C403.985 674.419 398.458 664.073 398.455 663.9C398.264 654.92 398.55 645.951 398.455 636.969C398.452 636.75 398.246 636.573 398.148 636.378C398.505 636.021 398.773 635.835 399.002 635.787ZM247.015 636.072C256.839 635.944 266.845 641.001 269.265 651.889C271.49 661.903 263.997 677.684 252.572 677.684C243.83 677.684 235.872 676.787 230.606 668.889C221.427 655.12 231.256 636.276 247.015 636.072ZM500.384 636.072C509.999 636.008 515.72 639.271 521.19 648.389C527.212 658.426 517.896 677.684 505.657 677.684C500.521 677.684 492.525 677.722 488.373 673.571C485.931 671.128 480.475 665.802 480.475 661.56C480.475 647.484 485.658 636.17 500.384 636.072ZM327.898 636.203C329.217 636.247 330.169 636.542 330.195 637.537C330.48 648.372 330.003 659.234 330.195 670.07C330.2 670.346 330.51 670.631 330.786 670.639C337.032 670.828 343.289 670.45 349.535 670.639C349.811 670.647 349.931 671.034 350.126 671.23C349.636 672.21 348.151 677.321 346.604 677.377C338.798 677.66 330.981 677.568 323.172 677.377C322.896 677.371 322.586 677.063 322.582 676.787C322.389 663.607 322.295 650.431 322.582 637.253C322.591 636.839 323.164 636.671 323.457 636.378C324.892 636.378 326.579 636.159 327.898 636.203ZM280.401 636.378C285.088 636.378 289.784 636.492 294.468 636.662C297.035 636.756 300.906 636.952 302.957 639.003C311.19 647.237 310.197 654.035 302.366 661.866C305.16 667.454 311.337 671.275 314.093 676.787C312.613 678.267 313.922 677.452 311.752 677.377C309.41 677.297 307.035 677.646 304.707 677.377C304.05 677.301 302.02 673.933 301.491 673.286C297.571 668.494 291.349 663.241 288.605 657.753C291.182 655.176 304.349 658.608 300.025 647.798C299.558 646.63 297.291 644.079 295.934 643.991C293.108 643.809 290.249 643.809 287.424 643.991C287.148 644.009 286.86 644.306 286.855 644.582C286.663 655.321 287.047 666.048 286.855 676.787C286.827 678.33 279.264 678.32 279.241 676.787C279.049 663.607 279.049 650.433 279.241 637.253C279.244 637.04 280.151 636.378 280.401 636.378ZM440.635 636.378C451.849 636.551 465.927 635.131 471.965 647.208C477.643 658.564 470.959 677.14 456.453 677.377C450.889 677.469 445.323 677.566 439.76 677.377C439.484 677.368 439.174 677.063 439.17 676.787C438.977 663.607 438.977 650.433 439.17 637.253C439.177 636.714 440.371 636.374 440.635 636.378ZM408.606 688.054C410.11 688.147 411.788 688.573 413.091 688.798C414.109 688.973 422.019 701.974 424.227 703.74C425.556 702.079 434.273 688.902 435.057 688.798C437.573 688.462 440.131 688.798 442.67 688.798C443.401 690.992 440.531 693.721 439.17 695.536C435.509 700.417 431.902 705.562 428.624 710.479C428.382 710.842 428.048 711.224 428.034 711.66C427.845 717.516 428.312 723.377 428.034 729.228C427.921 731.587 423.364 730.308 421.011 730.103C420.792 730.084 420.118 729.207 420.114 728.944C420.019 723.086 420.3 717.209 420.114 711.354C420.055 709.506 410.655 697.569 409 695.252C408.356 694.351 404.778 690.218 405.193 689.388C405.784 688.206 407.102 687.961 408.606 688.054ZM360.474 688.163C361.875 688.06 362.996 688.261 363.012 689.388C363.205 702.764 363.205 716.138 363.012 729.513C362.99 731.05 355.438 731.052 355.399 729.228C355.112 716.05 355.112 702.873 355.399 689.695C355.408 689.28 355.862 688.845 356.274 688.798C357.393 688.669 359.074 688.266 360.474 688.163ZM371.785 688.798L402.502 689.542L402.239 695.996L389.944 696.411C389.944 696.411 390.136 718.481 389.944 729.513C389.939 729.789 389.65 730.079 389.375 730.103C387.023 730.308 382.392 731.589 382.33 729.228C382.045 718.296 382.522 707.345 382.33 696.411C382.326 696.135 382.037 695.858 381.762 695.842C378.447 695.658 371.785 695.842 371.785 695.842L371.785 688.798ZM333.586 689.432C335.473 689.364 337.478 689.461 339.581 689.695C340.693 689.818 345.891 691.656 346.013 692.911C346.296 695.833 347.498 699.608 345.422 701.684C343.016 699.518 341.301 697.878 338.399 696.718C336.125 695.808 334.187 696.159 331.661 696.411C313.291 698.248 318.969 728.382 337.524 723.081C341.057 722.071 342.481 721.034 345.422 718.092C345.618 718.288 345.995 718.408 346.013 718.683C346.479 725.678 346.339 728.556 340.15 730.103C330.393 732.542 321.378 729.042 315.843 720.74C314.532 718.773 312.627 715.895 312.627 713.41C312.627 697.814 320.379 689.911 333.586 689.432ZM375.023 308.886C372.682 311.227 371.298 317.211 369.751 320.306C366.458 326.891 360.705 332.55 356.558 338.771C349.293 335.139 344.193 332.316 336.058 330.282C334.505 329.894 330.396 328.331 329.036 329.692C331.78 333.809 329.465 342.974 324.047 344.328C314.383 346.744 302.522 344.406 294.162 351.373C294.854 352.065 307.505 352.333 309.695 352.532C318.769 353.357 325.923 358.111 335.468 358.111C341.623 358.111 340.176 346.999 341.331 346.669C342.001 346.478 346.018 347.241 346.319 347.26C356.476 347.895 368.86 354.598 374.717 363.384C377.518 361.143 379.455 357.985 382.33 355.748C387.89 351.424 401.614 345.882 408.694 346.669C408.968 346.7 409.197 346.998 409.284 347.26C410.438 350.721 408.265 356.094 413.397 357.805C423.086 361.035 433.501 352.651 442.976 352.248C447.279 352.065 452.818 354.418 455.863 351.373C447.551 343.061 433.17 350.16 424.227 343.453C420.934 340.983 419.829 337.742 419.829 333.783C419.829 333.53 421.278 329.392 420.114 329.101C415.701 327.998 405.121 332.521 400.489 334.374C398.696 335.091 394.934 339.188 393.182 338.487C391.634 337.867 389.852 334.587 388.784 333.214C384.712 327.979 381.028 322.077 378.239 316.499C377.176 314.374 376.826 310.689 375.023 308.886ZM440.767 363.253C438.73 363.433 436.521 364.539 435.932 366.6C433.435 375.338 445.331 374.276 449.124 378.611C449.327 378.842 446.136 382.304 447.068 384.168C450.256 390.546 454.046 395.858 454.987 402.917C456.847 416.862 453.367 430.626 443.851 441.007C442.125 442.891 440.386 444.757 438.579 446.564C437.538 447.605 431.935 450.449 431.556 451.837C431.119 453.441 431.728 455.232 431.25 456.825C429.23 463.559 424.998 468.574 419.829 474.087C421.443 475.7 423.736 473.731 425.693 474.087C427.247 474.369 428.208 484.046 425.977 484.938C423.112 486.084 418.531 484.749 416.307 484.632C412.797 484.447 409.272 484.447 405.762 484.632C405.486 484.646 405.388 485.027 405.193 485.223C408.014 488.043 432.834 490.093 424.818 498.109C420.167 495.783 412.385 494.877 407.228 494.018C405.335 493.702 402.384 492.145 400.796 493.733C401.787 495.22 404.543 495.749 406.068 496.359C410.32 498.059 418.142 501.063 421.295 504.847C421.742 505.383 415.913 514.364 413.397 513.358C404.165 509.665 395.094 505.957 386.444 501.631C382.727 499.773 379.362 496.284 375.592 494.608C374.522 494.133 367.511 499.7 365.638 500.45C361.292 502.188 356.721 504.777 352.467 506.904C348.986 508.644 345.202 509.027 341.922 510.995C340.663 511.75 337.207 513.642 335.468 513.642C332.607 513.642 329.857 507.272 328.445 505.153C333.482 498.857 344.006 498.956 349.229 493.733C347.866 492.37 344.563 493.557 342.797 493.733C338.728 494.14 329.011 496.218 325.229 498.109C317.36 490.24 341.477 488.293 344.547 485.223C341.92 482.595 337.121 484.437 333.411 484.632C330.577 484.781 327.759 485.317 324.923 485.223C321.553 485.11 322.867 478.625 323.172 475.268C323.21 474.856 323.641 474.474 324.047 474.393C325.601 474.082 328.994 475.288 330.195 474.087C326.321 470.212 322.855 466.757 320.525 462.098C319.341 459.729 318.986 452.906 318.184 451.837C315.732 448.567 310.781 446.184 307.945 443.348C301.48 436.883 295.127 426.069 294.753 417.269C294.566 412.88 294.566 408.489 294.753 404.099C294.939 399.72 296.984 392.935 299.435 388.85C300.71 386.725 303.241 384.818 303.241 382.111C303.241 380.724 301.597 379.877 300.616 378.895C302.809 374.509 309.896 375.609 313.218 371.873C317.043 367.569 311.704 363.049 307.354 363.384C305.754 363.507 305.975 368.264 304.423 369.816C301.798 372.441 296.632 372.725 293.593 375.089C292.812 375.696 288.427 378.689 288.889 380.077C289.424 381.682 291.454 381.668 292.412 383.008C295.012 386.649 289.888 387.975 287.73 387.975C281.983 387.975 282.44 376.559 279.81 373.929C276.828 376.911 278.65 382.292 278.65 386.509C278.65 389.647 279.931 394.78 281.867 397.36C282.541 398.26 285.27 400.8 285.083 401.736C282.393 415.186 283.708 427.219 290.946 438.075C289.779 439.242 285.96 439.076 284.208 439.235C279.915 439.625 275.735 442.228 272.503 444.814C274.074 447.171 280.913 446.479 283.617 447.155C291.232 449.059 300.501 454.111 305.604 460.916C304.079 463.204 300.143 461.595 297.4 461.791C289.924 462.325 281.59 469.649 276.003 474.677C277.455 476.855 281.035 474.763 282.742 474.677C286.447 474.492 290.168 474.595 293.878 474.677C300.918 474.834 306.484 478.305 312.036 482.007C310.487 483.556 305.79 484.048 303.832 485.223C299.341 487.917 295.448 492.107 292.412 496.359C291.823 497.182 287.001 504.776 288.889 505.153C289.256 505.227 297.144 501.364 298.275 501.04C302.622 499.799 309.307 499.43 313.502 499.575C313.778 499.584 313.969 499.918 314.093 500.165C314.175 500.33 311.816 509.127 311.752 510.12C311.155 519.368 312.48 526.014 317.9 532.982C333.221 552.682 359.766 557.941 374.717 576.629C379.092 574.441 384.551 567.834 389.375 564.618C405.218 554.056 429.077 544.267 436.522 525.653C438.266 521.295 438.579 515.169 438.579 510.711C438.579 507.164 435.164 502.795 436.238 499.575C443.584 499.575 448.749 500.974 454.987 502.222C456.326 502.49 459.908 505.319 460.851 504.847C462.916 503.814 456.598 495.123 455.578 494.018C453.47 491.734 451.322 489.477 449.124 487.279C445.965 484.12 440.76 484.779 437.988 482.007C445.459 474.535 458.417 474.476 467.874 474.677C469.562 474.713 472.744 476.261 474.021 474.984C470.321 469.433 458.903 462.26 452.34 461.791C449.606 461.596 446.074 463.139 444.136 461.201C450.302 455.034 455.3 451.04 463.476 448.314C466.643 447.259 476.266 446.376 477.544 445.098C475.429 440.869 466.992 439.498 462.885 438.951C461.594 438.778 460 438.997 459.079 438.075C461.983 432.267 465.53 427.238 465.817 420.201C465.992 415.907 466.123 411.612 466.123 407.315C466.123 405.631 464.631 403.005 464.942 401.452C465.26 399.862 468.05 397.925 468.749 396.179C471.16 390.151 471.577 383.191 471.396 376.839C471.358 375.521 470.853 375.42 469.93 374.498C466.091 378.337 469.101 387.975 459.669 387.975C457.512 387.975 456.624 384.087 457.613 382.702C458.891 380.912 459.63 382.193 460.851 380.361C461.161 379.895 460.222 378.933 459.954 378.611C455.914 373.763 451.456 372.896 446.477 370.407C443.195 368.766 444.461 363.832 442.67 363.384C442.091 363.239 441.446 363.192 440.767 363.253ZM373.623 509.792C384.11 509.546 394.832 511.152 404.012 514.824C407.72 516.307 411.931 519.405 411.931 523.903C411.931 527.032 414.341 541.021 407.534 536.483C405.816 538.2 406.491 540.399 405.193 542.346C403.939 544.227 393.577 551.81 391.125 552.301C388.915 552.743 386.762 547.886 383.796 549.369C380.289 551.122 377.81 557.127 375.023 559.914C371.651 557.666 370.081 550.403 365.944 549.369C362.88 548.603 361.1 552.301 358.615 552.301C357.782 552.301 357.19 551.151 356.558 550.835C350.26 547.686 344.808 544.177 343.388 537.074C343.046 535.364 338.176 539.016 338.115 535.914C338.021 531.131 338.021 526.324 338.115 521.54C338.126 520.973 339.212 519.568 339.581 519.199C344.112 514.668 349.471 513.658 355.399 512.176C361.135 510.742 367.331 509.939 373.623 509.792ZM322.013 396.376C318.834 396.356 315.61 396.764 312.627 397.36C310.983 397.689 311.921 401.904 312.036 402.327C313.206 406.617 317.053 410.659 320.831 413.178C324.769 415.803 331.531 417.614 335.774 418.145C339.628 418.626 344.387 417.332 347.763 419.02C353.247 421.762 345.689 434.229 347.194 435.735C350.816 433.32 355.815 418.756 358.024 414.338C358.853 412.68 362.053 408.106 360.671 406.724C345 417.172 343.544 402.919 331.07 397.929C328.316 396.827 325.192 396.396 322.013 396.376ZM428.624 396.376C425.599 396.231 422.614 396.423 420.114 397.36C410.415 400.998 401.599 418.664 389.66 406.724C388.092 407.769 390.37 412.014 391.41 413.747C394.519 418.929 397.12 425.146 399.92 430.746C400.706 432.317 400.934 434.407 402.261 435.735C404.855 434.005 396.358 422.956 402.261 419.02C404.598 417.462 410.252 418.523 413.091 418.145C418.237 417.458 423.653 415.937 428.034 413.747C432.741 411.394 437.092 406.648 437.704 401.452C437.864 400.091 438.756 397.542 437.397 397.36C434.716 397.003 431.649 396.521 428.624 396.376ZM358.615 455.928C354.161 455.928 350.188 459.777 345.422 457.394C345.129 457.687 345.146 457.692 344.853 457.984C346.542 461.362 349.902 467.862 354.502 468.245C357.233 468.473 360.513 467.17 362.706 468.814C364.202 469.936 363.008 472.361 363.297 473.802C363.541 475.026 373.304 482.875 375.023 484.938C378.728 481.234 382.807 477.723 386.444 474.087C387.858 472.672 385.355 470.287 387.319 468.814C389.927 466.858 394.435 468.876 397.579 466.779C398.819 465.953 406.09 460.697 404.887 458.291C403.835 456.188 400.207 457.895 397.864 457.7C394.473 457.418 390.858 455.928 387.034 455.928C385.299 455.928 383.635 457.531 382.046 457.984C378.005 459.139 373.647 458.575 369.444 458.575C365.992 458.575 363.439 455.928 358.615 455.928ZM503.491 642.569C501.93 642.436 500.224 642.526 498.328 642.81C493.649 643.511 489.403 647.029 487.783 651.889C483.933 663.439 494.339 673.46 505.657 670.945C513.828 669.129 518.918 657.699 514.736 650.73C511.543 645.407 508.173 642.971 503.491 642.569ZM250.428 642.701C248.76 642.514 246.936 642.562 244.958 642.81C241.022 643.303 239.723 645.42 236.47 648.673C235.15 649.993 234.886 652.007 234.413 653.662C231.52 663.787 240.409 671.514 249.64 671.514C258.463 671.514 266.022 659.733 261.958 651.605C259.121 645.931 255.432 643.26 250.428 642.701ZM447.068 642.81C446.791 642.817 446.483 643.125 446.477 643.401C446.286 652.479 446.286 661.56 446.477 670.639C446.52 672.698 450.588 671.294 452.646 671.23C455.908 671.128 458.936 670.427 461.42 668.298C469.292 661.55 468.991 652.446 461.42 645.457C458.286 642.565 450.297 642.731 447.068 642.81Z" fill="#FFFFFF" fill-rule="nonzero" opacity="1" stroke="none"/>
</g>
</svg>
