<?xml version="1.0" encoding="UTF-8" standalone="no"?>
<!DOCTYPE svg PUBLIC "-//W3C//DTD SVG 1.1//EN" "http://www.w3.org/Graphics/SVG/1.1/DTD/svg11.dtd">
<!-- Created with Vectornator (http://vectornator.io/) -->
<svg height="100%" stroke-miterlimit="10" style="fill-rule:nonzero;clip-rule:evenodd;stroke-linecap:round;stroke-linejoin:round;" version="1.1" viewBox="0 0 750 1000" width="100%" xml:space="preserve" xmlns="http://www.w3.org/2000/svg" xmlns:vectornator="http://vectornator.io" xmlns:xlink="http://www.w3.org/1999/xlink">
<defs/>
<g id="Layer-1" vectornator:layerName="Layer 1">
<path d="M350.036 199.925C346.922 199.912 333.228 202.106 329.232 202.55C328.556 202.626 327.282 203.526 326.582 203.726C322.603 204.863 318.392 204.473 314.279 205.501C305.18 207.776 296.054 209.918 287.324 212.827C281.43 214.792 275.128 215.538 269.446 218.378C255.038 225.582 239.644 230.689 225.488 239.182C189.253 260.923 154.946 291.027 129.395 326.798C115.167 346.718 102.724 368.378 95.3887 390.385C92.3154 399.605 86.8296 409.282 85.737 419.116C85.463 421.581 83.8778 423.931 83.3865 426.142C80.9864 436.942 77.9389 448.108 77.5104 459.248C77.416 461.703 76.7887 464.423 76.1602 467.15C75.9777 466.122 75.6828 465.399 75.185 465.399C75.1113 469.527 75.0718 471.587 75.035 473.651C75.2178 471.578 75.6499 469.388 76.1602 467.175C76.8218 470.969 75.7601 479.877 75.7601 481.527C75.3206 481.674 75.3245 481.656 74.8849 481.802C74.9578 477.725 74.9986 475.689 75.035 473.651C74.9933 474.123 74.8902 474.62 74.8849 475.076C74.6919 491.679 74.597 508.283 74.8849 524.885C74.9148 526.609 76.483 531.061 76.6353 532.812C77.7947 546.145 80.2435 558.897 83.3865 571.469C95.6973 620.712 118.849 665.474 156.35 705.394C168.986 718.844 183.519 733.667 199.408 743.201C209.732 749.395 218.562 756.728 229.014 761.954C242.414 768.654 255.017 775.99 269.171 780.708C273.456 782.136 277.235 784.331 281.748 785.083C288.019 786.129 294.397 790.594 300.802 791.235C308.532 792.008 316.873 794.39 324.256 796.236C329.914 797.65 335.966 796.594 341.534 797.986C343.488 798.474 348.028 799.713 350.036 799.736C366.444 799.929 382.862 799.929 399.27 799.736C405.529 799.663 412.53 797.307 418.899 796.511C423.709 795.909 428.784 796.061 433.551 794.76C443.738 791.982 455.072 790.35 465.182 786.559C492.319 776.382 517.596 765.686 542.547 749.052C566.593 733.021 588.456 712.403 607.009 690.141C612.726 683.28 617.631 676.35 622.837 669.062C624.38 666.901 626.828 664.196 627.813 661.736C630.356 655.377 635.854 650.433 638.364 644.157C640.249 639.447 644.992 634.198 645.991 629.205C646.512 626.601 648.395 622.456 649.792 620.128C653.06 614.681 655.143 607.575 657.118 601.649C659.432 594.707 662.809 587.99 663.869 580.571C664.333 577.322 666.059 574.137 666.795 571.194C669.839 559.018 671.153 546.237 672.946 533.687C673.254 531.528 674.69 526.81 674.696 524.585C674.989 426.991 665.856 365.817 589.33 289.292C512.805 212.766 458.455 200.37 350.036 199.925ZM361.163 211.352C381.537 211.012 401.819 211.95 421.524 214.578C430.259 215.742 439.785 218.497 448.479 220.429C450.523 220.883 452.687 222.459 454.93 222.779C462.083 223.801 469.715 227.232 476.609 229.53C479.462 230.481 482.313 232.772 485.111 233.331C493.361 234.981 501.213 240.644 508.84 244.458C537.955 259.016 565.801 281.045 588.255 305.995C602.183 321.47 614.33 337.934 624.887 355.529C635.69 373.534 644.697 393.306 650.392 413.24C652.989 422.331 654.447 432.371 657.718 441.095C658.33 442.726 657.736 444.398 657.993 446.071C658.897 451.946 660.23 457.799 660.944 464.224C662.901 481.839 664.457 500.797 662.694 519.309C661.989 526.715 660.509 534.747 660.044 542.188C658.688 563.872 650.434 583.918 643.64 604.3C638.746 618.983 630.851 633.526 622.537 647.383C579.314 719.42 511.409 764.865 436.177 781.583C420.931 784.971 404.473 788.309 388.118 788.309C360.993 788.309 334.564 786.896 309.303 781.283C295.691 778.258 282.325 773.065 269.171 768.68C257.519 764.796 247.327 757.478 235.765 752.853C232.529 751.558 229.713 748.797 226.663 747.577C222.164 745.777 218.432 741.818 214.361 739.375C204.868 733.68 195.934 726.563 187.406 719.171C166.362 700.933 149.724 680.545 133.771 658.21C128.918 651.416 123.795 643.784 120.893 636.531C119.807 633.814 117.801 631.521 116.493 628.905C112.138 620.196 107.566 610.877 104.49 601.649C91.2194 561.837 83.7784 522.165 86.6121 476.826C87.2539 466.557 89.9368 455.678 91.588 445.771C97.1732 412.259 109.908 385.1 124.694 355.529C129.262 346.393 136.807 338.374 141.997 329.724C147.823 320.015 156.471 310.275 164.552 302.194C182.011 284.734 205.336 262.611 228.138 251.209C238.883 245.837 249.219 239.147 260.069 234.806C292.052 222.013 325.384 211.949 361.163 211.352ZM401.721 230.956C399.619 230.816 397.525 230.971 395.444 231.581C388.534 233.607 399.016 236.644 399.27 239.182C399.623 242.711 399.062 248.525 398.395 252.085C397.613 256.254 396.873 261.312 395.744 265.262C395.12 267.448 396.805 266.366 395.444 269.088C392.896 274.184 387.583 267.303 388.718 275.814C388.941 277.484 396.552 277.226 397.495 277.289C403.985 277.722 410.127 279.837 416.548 280.215C419.465 280.386 424.116 282.86 426.8 281.965C427.468 281.743 429.938 268.887 429.726 267.612C429.68 267.34 429.413 267.125 429.151 267.037C418.826 263.596 425.984 272.297 420.074 272.888C413.825 273.513 408.096 273.569 408.922 266.137C408.984 265.576 408.951 259.893 410.397 259.411C412.604 258.675 422.896 263.17 423.875 260.886C427.717 251.921 420.783 253.132 414.498 252.085C413.326 251.889 411.23 252.669 410.972 251.509C410.612 249.89 411.636 244.767 411.872 243.583C412.627 239.81 420.612 241.219 422.699 243.008C425.641 245.529 424.235 245.355 424.75 249.734C424.782 250.009 425.079 250.28 425.35 250.334C426.128 250.49 429.74 251.057 430.626 250.909C430.898 250.864 431.152 250.606 431.201 250.334C431.757 247.277 433.341 239.284 432.951 236.557C432.854 235.878 432.195 235.924 431.776 235.957C428.39 236.217 424.147 235.934 420.649 235.382C414.402 234.395 408.026 231.376 401.721 230.956ZM350.611 231.581C342.08 231.376 333.389 234.595 325.131 235.382C323.08 235.577 319.253 233.914 318.98 235.957C317.795 244.849 325.006 237.579 325.706 243.883C326.774 253.491 328.357 262.864 328.357 272.888C328.357 276.57 323 274.169 323.381 278.74C323.394 278.897 323.503 280.727 324.256 280.79C330.46 281.307 337.075 278.477 342.71 278.164C352.146 277.64 359.459 278.701 366.139 271.413C370.068 267.127 369.639 258.504 369.09 253.56C367.637 240.486 365.251 231.932 350.611 231.581ZM343.285 239.182C354.919 238.134 355.062 245.446 356.487 254.71C356.879 257.26 358.007 264.534 355.612 267.612C353.108 270.832 349.135 271.138 345.635 272.013C341.153 273.134 341.098 267.894 340.659 265.262C339.855 260.434 339.635 255.866 339.184 250.909C338.589 244.366 336.524 239.792 343.285 239.182ZM460.506 244.458C455.292 249.673 463.337 249.033 462.257 254.435C461.168 259.881 457.281 265.888 455.531 271.138C454.801 273.326 451.958 282.042 449.079 282.565C446.688 283 446.499 281.7 444.379 281.965C443.744 282.044 442.492 285.588 442.628 286.066C443.106 287.738 449.131 289.212 450.83 289.892C457.831 292.692 464.903 295.701 471.634 298.393C473.252 299.041 476.823 301.674 478.66 300.144C478.862 299.975 483.997 287.754 483.936 287.541C483.678 286.639 479.755 284.926 478.96 285.191C474.707 286.608 479.316 291.236 470.758 290.167C469.2 289.972 463.732 287.559 463.732 285.491C463.732 282.685 466.048 279.059 467.233 276.689C470.207 270.741 470.969 262.701 475.734 257.936C477.227 256.443 479.548 258.423 481.01 257.936C482.6 257.406 482.057 255.439 483.061 254.435C479.721 250.26 467.096 247.46 460.506 244.458ZM277.648 248.859C275.496 248.052 269.855 251.155 267.996 252.085C266.741 252.712 267.651 253.834 267.696 254.71C267.881 258.321 267.719 261.957 267.996 265.562C268.692 274.619 269.853 284.625 269.446 293.992C269.391 295.267 264.015 300.072 268.571 301.894C269.861 302.41 269.126 301.625 270.046 301.319C271.712 300.764 285.482 295.547 285.874 294.567C286.093 294.021 284.364 290.355 283.799 290.167C282.498 289.733 281.064 290.581 279.698 290.467C278.157 290.338 278.427 287.66 278.248 286.941C278.058 286.181 277.008 286.611 277.648 285.491C279.525 282.205 285.751 282.963 288.2 280.515C291.342 283.657 292.9 285.783 288.5 288.716C289.012 290.255 289.481 292.048 290.55 293.117C294.311 290.61 302.033 287.814 306.378 286.366C307.728 285.916 311.213 285.448 311.929 284.016C313.819 280.236 305.862 279.615 304.903 279.04C303.018 277.909 301.335 275.728 299.927 274.064C294.444 267.584 288.691 261.239 282.924 255.01C281.088 253.028 280.177 249.808 277.648 248.859ZM276.197 264.087C277.059 263.645 278.597 266.705 279.123 267.312C280.204 268.56 285.077 272.329 284.399 274.364C284.051 275.406 276.328 278.254 276.197 276.689C275.921 273.378 276.077 270.055 275.897 266.737C275.832 265.53 274.914 264.745 276.197 264.087ZM518.217 271.713C517.149 272.247 516.229 274.283 515.592 275.239C517.435 277.082 519.054 278.438 518.517 281.39C518.185 283.218 514.996 286.357 513.841 287.841C510.163 292.571 505.167 302.023 500.639 305.419C498.365 307.125 496.572 303.85 494.488 304.544C493.827 304.765 491.731 307.483 492.162 308.345C492.729 309.478 495.571 311.118 496.538 311.871C501.477 315.712 506.583 319.526 511.791 322.998C513.76 321.029 513.249 320.94 514.717 319.472C512.487 315.013 510.339 315.065 513.841 310.395C514.184 309.939 515.325 307.54 516.167 308.045C519.684 310.155 522.319 316.267 526.719 317.147C536.312 319.065 544.392 312.462 547.523 303.069C551.421 291.375 536.312 285.294 528.494 279.04C527.137 277.954 518.741 271.451 518.217 271.713ZM529.069 289.292C540.096 290.482 535.838 298.921 531.12 304.819C530.506 305.586 528.598 307.89 527.594 308.045C525.587 308.354 524.353 308.318 522.918 307.17C521.866 306.328 518.849 304.244 518.217 302.769C518.029 302.33 527.543 289.127 529.069 289.292ZM216.711 282.265C211.043 287.933 203.658 292.093 197.658 297.493C203.127 304.33 200.806 297.464 206.159 299.843C209.877 301.496 218.212 314.657 220.812 318.297C223.119 321.526 224.613 322.929 224.613 327.099C224.613 328.473 221.34 329.109 222.287 330.624C222.636 331.183 224.851 334.136 225.788 333.55C231.97 329.686 236.907 323.938 243.091 320.072C246.906 317.688 252.678 314.285 255.668 310.695C256.128 310.144 251.832 304.999 251.293 304.244C246.904 298.1 248.231 297.292 242.191 301.319C244.622 306.181 244.899 308.939 240.141 312.746C238.666 313.926 236.016 316.316 233.989 314.796C231.637 313.032 230.274 309.654 228.713 307.47C226.093 303.801 218.553 296.384 217.586 292.517C216.097 286.56 222.461 288.015 216.711 282.265ZM359.988 302.194C346.658 302.194 332.957 306.764 320.731 309.82C317.303 310.677 311.362 311.254 308.528 313.671C308.182 313.557 307.795 313.524 307.553 313.621C297.64 317.586 287.942 322.251 278.248 327.099C273.606 329.419 269.681 332.982 265.045 335.3C261.006 337.32 258.047 341.109 254.218 343.502C244.852 349.356 236.864 358.805 229.014 366.656C198.424 397.245 182.035 441.176 177.454 482.402C176.006 495.43 177.428 508.431 178.604 520.784C180.225 537.806 183.182 556.569 190.631 571.469C195.674 581.553 199.071 591.519 204.984 601.374C217.34 621.968 234.785 642.279 254.218 656.16C260.819 660.875 266.946 666.186 273.847 669.637C279.453 672.44 284.484 676.407 290.25 678.714C293.162 679.879 296.892 680.899 299.627 682.539C301.179 683.471 306.411 686.331 308.428 686.015C308.417 686.037 308.44 686.017 308.428 686.04C309.949 687.561 313.119 687.809 315.155 688.391C322.079 690.369 328.687 691.989 335.958 693.667C363.493 700.021 393.685 698.208 420.649 692.216C425.407 691.159 438.026 689.167 441.153 686.04C441.065 685.952 441.117 685.961 441.053 685.89C443.236 685.89 448.154 683.727 449.379 683.115C455.171 680.219 461.187 677.798 466.958 674.913C470.825 672.98 474.106 669.778 478.085 668.187C487.505 664.419 501.12 652.478 508.565 645.033C528.726 624.872 546.673 602.799 556.624 577.92C561.341 566.129 564.282 553.721 568.326 541.588C569.919 536.81 569.908 530.872 570.977 526.06C571.628 523.133 571.2 518.804 571.552 516.109C573.795 498.909 571.917 483.452 569.502 467.75C562.518 422.353 542.261 388.349 507.965 354.054C499.479 345.568 488.692 336.803 478.085 331.499C474.282 329.598 470.953 326.346 466.958 324.748C463.676 323.435 459.768 321.91 456.706 320.072C455.316 319.239 441.761 313.467 441.453 313.621C441.388 313.653 441.372 313.73 441.303 313.771C440.846 312.352 435.283 311.704 434.127 311.271C426.247 308.316 418.068 307.256 409.522 305.119C403.546 303.626 396.222 302.61 389.893 302.494C379.932 302.311 369.951 302.194 359.988 302.194ZM374.941 342.626C386.568 352.316 399.574 361.298 413.023 365.781C416.923 367.081 420.673 369.502 424.75 370.182C428.472 370.802 439.027 375.073 443.178 373.957C443.489 374.406 443.819 374.77 444.103 374.857C447.067 375.769 453.289 375.651 456.106 375.733C466.8 376.043 478.063 376.265 488.337 373.982C494.054 372.712 499.204 371.335 504.465 369.581C505.287 369.307 507.537 368.313 507.965 369.881C509.761 376.464 509.575 384.22 511.191 390.685C513.285 399.061 514.278 409.693 514.416 418.515C514.609 430.724 514.717 442.938 514.717 455.147C514.717 458.269 514.511 462.874 513.841 465.999C513.594 467.155 506.326 465.189 505.34 465.099C501.852 464.782 498.179 462.852 494.788 462.174C488.976 461.011 482.576 459.978 476.91 458.948C453.627 454.715 429.116 451.769 404.546 451.047C382.847 450.408 360.588 449.24 338.909 451.047C320.106 452.613 299.847 456.233 280.873 457.498C276.367 457.798 271.974 459.71 267.696 460.423C261.128 461.518 254.74 461.737 248.367 463.649C246.6 464.179 237.949 466.988 236.915 466.574C235.497 466.007 235.189 454.965 235.165 453.397C234.986 441.775 234.865 430.139 234.865 418.515C234.865 405.322 238.097 392.092 240.141 379.833C240.431 378.092 240.429 369.89 242.491 369.006C243.386 368.623 255.113 372.769 257.144 373.107C270.704 375.367 283.441 375.733 298.451 375.733C300.847 375.733 306.574 375.598 308.728 373.982C308.815 373.917 308.854 373.825 308.953 373.757C309.454 374.345 311.021 374.147 311.929 373.982C315.336 373.363 323.475 371.881 326.307 370.182C331.544 367.039 339.008 365.156 344.76 362.855C355.135 358.705 365.883 350.174 374.941 342.626ZM396.92 460.998C403.76 460.998 410.602 461.093 417.423 461.598C428.695 462.433 441.975 464.78 453.18 466.274C467.467 468.179 481.899 469.204 495.088 473.601C499.78 475.165 506.561 476.378 511.491 476.826C517.491 477.372 523.564 480.651 529.369 482.102C533.728 483.192 538.637 483.897 542.547 486.503C540.369 488.681 537.435 492.456 534.645 493.529C533.27 494.059 523.639 491.078 521.743 490.604C520.654 490.332 510.618 486.291 510.316 488.253C507.747 504.947 502.846 520.748 498.314 536.612C496.053 544.524 491.768 551.797 489.212 559.467C485.849 569.556 478.193 580.078 473.409 589.647C467.834 600.797 459.402 611.106 451.705 621.003C448.307 625.371 444.211 629.413 440.578 633.605C440.435 633.77 440.278 633.962 440.278 634.18C435.157 639.312 430.176 644.583 425.05 649.708C414.685 660.074 401.002 671.559 387.843 678.139C384.879 679.621 378.164 685.765 374.941 685.765C371.942 685.765 367.673 680.808 364.689 679.614C354.682 675.611 342.181 664.158 333.633 657.035C324.986 649.829 315.616 642.122 309.003 633.305C308.935 633.373 308.894 633.447 308.803 633.505C308.188 631.496 301.687 625.179 300.227 623.353C292.567 613.778 283.71 603.198 278.248 592.273C272.41 580.597 265.151 569.945 260.369 557.991C255.292 545.298 251.304 531.564 246.292 519.034C243.812 512.835 241.91 502.7 241.041 496.18C240.874 494.931 240.644 488.298 238.99 487.678C237.813 487.237 223.698 491.309 221.387 492.079C220.449 492.392 215.973 494.621 215.236 494.13C212.176 492.089 209.539 488.907 206.734 486.503C210.528 482.71 223.039 481.552 228.438 479.752C250.334 472.453 274.302 469.448 297.576 466.274C315.357 463.85 333.68 461.512 352.086 461.298C367.03 461.125 381.975 460.998 396.92 460.998ZM179.779 315.071C175.537 317.496 169.551 326.63 166.027 330.624C165.273 331.478 163.522 332.675 164.252 333.55C165.136 334.611 166.2 335.499 167.177 336.475C175.705 330.79 181.561 341.267 188.281 347.027C190.343 348.794 195.43 351.73 195.907 354.354C196.067 355.23 194.224 359.318 194.432 359.63C195.245 360.849 196.851 363.215 197.958 362.255C203.787 357.203 208.866 350.281 213.786 344.377C206.352 336.199 211.883 345.301 204.684 343.502C201.992 342.829 198.098 337.833 195.907 335.9C189.791 330.503 179.662 326.459 183.88 318.022C183.169 317.311 181.077 314.33 179.779 315.071ZM572.427 316.847C571.941 316.847 571.119 317.896 570.977 318.022C566.588 321.923 573.725 321.207 570.102 325.348C564.924 331.265 557.034 335.862 550.748 340.576C548.5 342.262 546.489 343.973 543.422 343.502C539.943 342.966 540.598 338.248 536.696 344.102C540.032 347.438 544.12 356.113 547.523 358.154C548.627 358.817 553.615 353.946 554.574 353.178C557.116 351.144 560.303 347.646 563.351 346.427C564.715 345.881 571.064 354.528 571.852 356.104C567.132 360.824 560.457 363.719 556.024 368.706C555.602 369.181 558.838 372.667 558.95 372.807C561.757 376.315 564.135 380.617 567.176 383.659C568.026 382.809 570.185 381.993 570.677 381.009C571.453 379.457 568.775 377.037 569.502 374.857C570.188 372.797 574.825 370.602 576.253 369.581C578.791 367.768 593.325 354.826 595.882 356.104C596.808 356.567 599.16 358.813 599.407 359.029C600.757 358.13 601.959 357.144 603.208 356.104C602.598 354.883 592.425 341.751 592.081 341.751C588.985 341.751 580.053 353.213 577.703 350.528C575.372 347.863 572.998 344.939 570.977 342.051C570.865 341.891 570.869 341.614 570.977 341.451C573.935 337.014 580.695 335.543 583.854 331.199C584.276 330.62 580.763 326.935 580.654 326.798C579.406 325.239 573.796 316.847 572.427 316.847ZM148.424 354.729C145.28 355.564 143.257 362.032 141.997 365.181C141.598 366.179 138.495 369.352 139.047 370.457C140.379 373.12 151.01 375.694 153.7 378.383C152.509 380.169 149.282 388.596 147.848 389.21C145.623 390.164 135.651 381.45 132.896 382.484C131.937 382.843 124.415 397.753 124.694 398.312C126.97 402.863 129.139 398.08 131.145 397.412C133.307 396.691 135.579 398.028 137.297 398.887C142.194 401.336 148.937 406.698 154 407.964C156.153 408.502 159.001 409.164 160.751 410.914C162.722 412.885 160.124 415.721 160.751 416.765C161.289 417.662 163.309 418.409 164.252 419.116C167.461 416.548 169.167 410.76 171.003 407.088C171.465 406.163 173.797 403.575 173.353 402.688C171.42 398.821 157.339 396.763 155.475 393.036C154.885 391.857 158.409 387.117 158.976 385.984C159.744 384.448 160.05 382.884 161.326 381.609C164.298 384.581 170.571 386.762 174.503 388.335C175.539 388.749 178.181 391.197 179.204 390.685C180.565 390.005 184.61 380.522 185.355 378.658C185.811 377.52 188.152 376.05 187.406 374.557C184.554 368.853 181.781 376.595 178.329 375.733C175.625 375.056 172.953 372.352 170.403 371.332C165.24 369.267 157.67 366.54 153.124 363.13C150.294 361.008 150.559 358.884 151.949 356.104C150.642 354.797 149.471 354.45 148.424 354.729ZM615.21 378.958C614.281 379.423 611.785 379.882 611.409 381.009C610.441 383.913 612.962 385.597 609.934 387.76C608.228 388.979 605.731 389.306 603.783 390.085C596.998 392.799 588.934 399.187 581.229 399.187C580.093 399.187 578.416 396.074 577.703 395.361C577.044 396.02 574.172 396.468 573.903 397.412C573.195 399.889 580.253 412.1 581.529 415.29C581.933 416.299 582.602 419.573 583.854 419.991C584.557 420.225 587.59 418.226 587.98 417.64C588.854 416.33 586.91 414.468 587.38 412.964C588.216 410.288 596.004 407.98 598.232 407.088C602.786 405.267 612.116 399.462 616.685 399.462C620.25 399.462 621.671 406.325 625.487 401.237C625.991 400.565 623.741 397.596 623.437 396.836C621.066 390.91 618.854 384.424 615.21 378.958ZM370.54 383.359C370.264 383.377 369.968 383.658 369.965 383.934C369.771 401.71 369.771 419.493 369.965 437.269C369.984 439.06 379.322 439.06 379.341 437.269C379.535 419.493 379.535 401.71 379.341 383.934C379.338 383.658 379.017 383.377 378.741 383.359C376.012 383.177 373.269 383.177 370.54 383.359ZM345.185 383.434C343.569 383.434 341.519 383.645 339.784 383.934C339.512 383.979 339.191 384.258 339.184 384.534C338.994 392.15 339.374 399.772 339.184 407.388C339.177 407.665 338.804 407.768 338.609 407.964C334.099 403.454 333.323 395.44 329.532 390.385C328.778 389.379 328.029 385.196 326.582 384.834C324.834 384.397 321.326 384.184 321.306 385.984C321.113 403.076 320.831 420.183 321.306 437.269C321.313 437.516 321.606 439.844 321.606 439.844C321.606 439.844 329.938 439.75 330.107 439.919C331.907 432.364 331.283 416.165 331.283 416.165C331.283 416.165 337.873 428.442 339.184 431.718C339.652 432.889 341.298 438.509 342.71 438.744C344.251 439.001 345.832 438.917 347.386 438.744C347.66 438.714 347.983 438.42 347.986 438.144C348.179 420.173 348.179 402.205 347.986 384.234C347.979 383.652 346.801 383.434 345.185 383.434ZM410.547 383.884C408.64 383.78 406.715 383.73 404.821 383.934C403.382 384.089 401.605 385.906 401.596 387.46C401.499 403.088 401.321 418.715 401.321 434.343C401.321 439.804 410.906 438.517 413.023 438.744C417.064 439.177 424.619 441.656 428.276 437.269C428.695 436.766 429.143 436.174 429.151 435.519C429.344 420.087 429.247 404.642 429.151 389.21C429.117 383.818 419.015 384.352 416.248 384.234C414.345 384.153 412.455 383.988 410.547 383.884ZM410.972 391.26C414.688 391.271 420.314 390.856 420.349 392.436C420.636 405.325 420.635 418.228 420.349 431.118C420.328 432.076 410.42 433.629 410.397 430.543C410.301 417.65 410.205 404.752 410.397 391.861C410.401 391.584 410.696 391.26 410.972 391.26ZM451.18 386.885C450.624 386.947 450.26 387.211 450.255 387.76C450.061 405.731 450.061 423.699 450.255 441.67C450.262 442.358 459.309 443.39 459.331 442.545C459.521 435.32 459.426 428.093 459.331 420.866C459.328 420.648 459.129 420.486 459.031 420.291C459.324 419.998 459.338 419.984 459.631 419.691C464.994 425.054 466.714 446.433 476.334 445.47C476.609 445.443 476.907 445.172 476.91 444.895C477.103 427.022 477.103 409.134 476.91 391.26C476.886 389.084 468.956 389.611 467.533 390.085C467.533 397.215 467.723 404.362 467.533 411.489C467.525 411.765 467.153 411.869 466.958 412.064C465.317 410.424 465.313 408.225 464.307 406.213C461.798 401.196 459.904 393.413 456.706 388.935C456.226 388.264 452.846 386.696 451.18 386.885ZM297.001 387.76C295.743 388.389 290.582 387.785 290.55 389.51C290.262 404.94 290.743 420.387 290.55 435.819C290.535 437.024 284.968 436.1 283.799 437.269C283.506 437.074 282.93 437.046 282.924 436.694C282.634 421.362 283.116 406.019 282.924 390.685C282.912 389.785 281.177 389.89 280.298 390.085C279.982 390.155 273.3 390.218 273.272 391.861C272.984 408.463 273.175 425.065 273.272 441.67C273.279 442.997 275.55 445.389 276.772 445.47C280.498 445.719 299.9 443.776 299.927 439.044C300.023 422.147 300.323 405.233 300.227 388.335C300.225 388.059 299.834 387.955 297.001 387.76ZM122.469 427.042C121.206 427.161 119.961 427.522 118.843 428.192C111.436 432.636 112.093 443.596 111.217 451.047C110.881 453.901 109.412 456.818 108.866 459.548C108.48 461.479 108.89 463.901 107.991 465.699C113.633 471.341 112.778 463.152 115.618 462.774C120.003 462.189 124.738 464.489 129.095 464.824C131.714 465.026 143.098 467.411 145.223 468.625C147.866 470.135 146.205 474.987 148.149 475.376C149.503 475.647 151.812 476.086 152.249 474.776C153.578 470.79 153.554 466.957 154.6 462.774C155.433 459.44 157.292 455.011 156.925 451.347C156.837 450.463 152.956 450.042 152.524 450.171C150.773 450.697 151.684 454.436 149.324 455.447C147.686 456.149 141.632 454.507 140.522 453.397C145.745 448.174 147.737 437.733 141.997 431.993C137.704 427.699 131.531 428.554 126.169 427.317C125.012 427.05 123.731 426.923 122.469 427.042ZM125.594 439.619C126.283 439.693 126.828 439.817 127.095 439.844C128.16 439.954 135.149 441.881 136.246 442.995C137.344 444.109 137.615 446.948 137.046 448.146C136.478 449.344 136.171 450.796 136.171 450.796L138.547 453.672C138.547 453.672 117.37 452.432 118.968 445.17C120.167 439.724 123.528 439.398 125.594 439.619ZM592.331 430.568C591.571 430.447 590.725 430.672 589.73 431.418C588.367 432.44 591.035 443.435 591.181 445.47C591.221 446.04 592.063 449.78 592.656 449.871C601.588 451.245 591.534 443.398 603.508 444.595C604.625 444.707 604.755 453.768 606.134 455.147C604.379 457.486 600.919 459.362 598.807 456.898C598.116 456.091 599.108 454.975 597.632 454.572C596.536 454.273 591.492 454.859 593.531 456.898C592.138 459.685 595.437 466.259 595.882 468.925C596.027 469.799 596.309 477.47 597.932 477.701C603.818 478.542 601.695 474.539 604.683 471.55C607.44 468.794 611.545 467.553 614.635 465.699C617.242 464.135 619.928 461.587 622.837 460.423C627.606 458.516 631.877 454.59 636.614 452.222C637.416 451.821 640.482 451.177 639.84 449.571C639.255 448.109 637.796 440.435 636.914 440.195C634.826 439.625 632.012 439.739 629.863 439.619C627.844 439.507 624.879 438.461 623.137 438.144C615.179 436.697 606.545 436.853 598.807 434.919C596.141 434.252 594.612 430.929 592.331 430.568ZM611.409 444.02C614.819 446.293 621.015 443.314 623.437 446.946C622.267 447.726 614.069 452.57 613.46 452.222C612.186 451.494 610.313 445.117 611.409 444.02ZM357.062 478.302C348.252 479.56 336.374 483.497 329.232 488.854C326.417 490.965 322.035 492.112 319.555 495.005C318.153 496.641 326.457 503.041 328.932 503.206C334.994 503.61 349.418 503.725 354.712 501.456C359.399 499.447 363.061 494.356 367.614 492.079C370.935 490.419 375.03 491.681 378.741 491.779C384.314 491.926 397.299 498.769 399.27 504.681C400.085 507.125 400.145 509.576 400.145 512.583C400.145 521.021 389.825 523.511 384.617 526.636C380.21 529.28 374.777 529.655 370.265 531.912C366.502 533.793 362.15 535.008 358.238 536.312C349.121 539.351 339.891 545.373 332.158 552.14C324.263 559.048 316.684 573.439 325.131 582.621C338.668 597.335 357.741 601.967 377.566 599.324C384.673 598.376 390.583 598.033 396.92 595.498C410.732 589.974 423.875 583.677 423.875 566.193C423.875 564.063 421.431 560.733 420.074 559.167C415.744 554.171 410.954 551.843 405.696 549.215C403.71 548.221 399.97 548.44 398.395 546.864C394.731 549.307 389.568 550.171 385.193 551.265C378.55 552.926 371.125 555.799 364.989 558.867C363.296 559.713 353.828 566.359 358.538 568.243C360.119 568.876 366.104 565.26 367.914 564.743C372.675 563.382 396.676 560.762 399.27 568.543C401.38 574.872 394.045 576.948 389.593 578.22C387.055 578.945 384.527 579.642 381.692 579.695C373.149 579.857 349.436 580.3 349.436 565.318C349.436 557.878 359.497 552.412 365.564 550.39C371.64 548.365 378 545.645 384.017 543.639C399.739 538.398 413.444 533.732 417.148 515.208C418.169 510.107 417.651 502.834 414.198 498.23C411.402 494.503 409.829 491.353 405.696 488.253C400.33 484.228 394.68 482.239 388.118 480.927C380.982 479.5 374.135 480.652 367.039 480.652C364.661 480.652 362.828 478.595 357.062 478.302ZM351.511 483.853C352.244 486.049 350.533 490.441 347.686 490.604C344.011 490.814 339.161 492.799 336.859 489.729C340.459 487.329 347.209 483.853 351.511 483.853ZM318.405 504.106C314.835 503.803 310.382 506.383 306.953 507.007C305.333 507.301 300.785 507.195 297.801 507.782C295.192 507.575 290.251 507.687 287.324 507.882C287.049 507.9 286.945 508.287 286.749 508.482C288.274 510.007 294.192 511.073 296.426 510.858C296.431 510.857 296.446 510.858 296.451 510.858C298.149 511.189 300.792 509.623 302.277 511.108C299.975 513.41 296.655 513.804 294.651 515.809C296.617 517.774 300.005 515.391 302.277 514.633C307.298 512.96 318.05 509.112 321.606 505.557C320.68 504.631 319.595 504.207 318.405 504.106ZM132.896 508.482C130.826 510.552 127.875 519.682 125.869 520.484C122.161 521.968 114.84 516.011 111.817 519.034C114.761 521.978 118.525 525.37 120.893 528.686C121.609 529.688 113.832 540.968 114.142 541.588C114.716 542.737 125.259 537.205 127.045 536.312C127.98 535.844 136.419 545.843 136.996 546.564C139.778 543.782 136.126 536.047 136.421 532.212C136.492 531.295 148.284 527.84 149.024 526.36C149.742 524.923 136.956 523.501 135.846 522.835C133.785 521.598 135.072 511.746 132.896 508.482ZM615.81 508.782C614.33 510.263 614.742 513.441 614.635 514.933C614.454 517.466 614.896 520.009 614.635 522.535C614.466 524.167 601.809 524.834 600.282 526.36C602.171 529.193 612.351 530.66 613.16 533.087C614.73 537.797 609.959 542.788 612.285 547.439C615.586 544.138 618.409 539.918 621.961 536.912C622.758 536.238 633.824 543.203 635.439 541.588C634.41 540.216 628.316 530.401 628.688 529.286C630.174 524.829 635.108 522.421 638.364 519.034C636.335 517.004 625.76 522.359 624.012 521.36C620.988 519.631 618.778 511.75 615.81 508.782ZM142.272 566.793C140.666 568.4 138.433 579.834 137.297 579.97C135.601 580.174 124.592 580.072 123.519 581.146C125.772 583.962 134.165 586.753 135.246 589.347C135.714 590.469 132.254 601.741 131.445 602.55C132.613 604.301 141.713 596.358 143.448 594.623C145.217 595.508 154.476 602.389 155.175 602.25C156.791 601.926 151.909 590.443 151.074 588.772C154.465 585.381 158.529 582.756 162.201 579.695C159.85 577.344 151.278 579.876 147.848 579.695C146.765 579.638 144.301 568.145 142.272 566.793ZM607.009 566.793C604.69 569.112 603.684 579.188 601.158 580.27C597.997 581.625 590.229 577.721 587.68 580.27C590.438 583.717 594.702 586.7 598.232 589.347C597.759 590.292 592.468 604.168 594.706 602.825C596.73 601.611 604.596 594.764 606.434 595.223C609.101 595.89 615.309 605.064 617.561 602.25C618.092 601.585 613.944 591.798 614.335 589.647C614.676 587.774 626.19 582.851 625.487 581.446C624.609 579.69 621.574 580.89 619.611 580.846C617.07 580.788 614.491 580.988 611.985 580.571C610.724 580.36 608.642 568.427 607.009 566.793ZM433.652 575.445C433.142 575.428 432.7 575.546 432.376 575.87C434.156 578.539 435.694 585.97 437.352 587.297C438.921 588.552 446.612 587.358 448.204 587.297C453 587.112 458.85 584.692 462.857 582.021C461.304 580.468 457.404 581.647 455.231 581.146C450.947 580.157 442.022 579.622 438.227 577.345C437.261 576.765 435.18 575.494 433.652 575.445ZM316.63 586.422C312.615 588.436 313.704 596.022 313.704 600.199C313.704 608.031 326.637 618.78 333.633 621.578C339.601 623.966 345.872 626.644 352.386 627.729C375.715 631.617 419.522 628.761 428.851 600.774C429.593 598.548 429.151 596.094 429.151 593.748C429.151 592.756 427.025 586.142 425.625 586.422C424.594 586.628 422.912 589.625 422.399 590.222C420.008 593.013 416.977 596.172 413.623 597.849C403.864 602.728 393.987 606.386 382.842 608.101C365.646 610.746 343.6 606.65 328.932 597.849C325.997 596.087 322.802 593.194 320.431 590.822C318.984 589.376 318.415 585.526 316.63 586.422ZM165.127 620.403C163.828 621.702 164.766 631.093 164.252 634.18C164.017 635.585 152.214 637.141 150.474 638.881C151.814 640.892 163.599 643.514 163.676 644.732C163.956 649.119 163.49 653.519 163.676 657.91C163.688 658.186 164.056 658.315 164.252 658.51C166.132 657.256 172.32 647.658 173.353 647.658C175.454 647.658 186.082 653.256 186.831 651.759C187.05 651.321 178.306 640.653 178.604 640.057C179.583 638.098 188.599 629.055 186.831 627.729C186.793 627.701 174.929 631.972 173.053 631.555C172.709 631.479 165.975 621.676 165.127 620.403ZM584.454 620.403C581.141 623.717 579.775 629.372 575.953 632.43C575.011 633.184 563.694 627.41 561.9 629.205C563.226 630.531 570.906 639.697 570.377 640.932C569.312 643.416 561.788 651.371 563.351 652.934C566.856 650.597 573.17 651.042 576.253 647.958C579.511 651.216 582.461 655.232 585.03 659.085C587.884 657.182 586.013 652.263 585.93 648.833C585.898 647.549 585.018 646.279 585.33 645.033C585.621 643.867 596.866 641.398 598.507 639.757C597.477 637.697 585.059 635.492 585.03 634.781C584.842 630.194 585.217 625.59 585.03 621.003C585.018 620.727 584.65 620.598 584.454 620.403ZM200.308 667.587C198.397 669.498 202.486 678.455 202.059 681.664C201.91 682.776 191.328 687.32 190.031 689.266C191.218 690.452 199.622 690.18 203.259 690.716C205.359 689.362 205.266 692.481 206.159 694.267C205.882 694.544 205.748 694.678 205.609 694.817C206.274 698.914 207.259 704.981 208.785 704.218C210.245 703.488 212.971 692.36 214.361 692.216C216.984 691.945 219.651 692.147 222.287 692.216C223.911 692.259 227.439 693.491 228.713 692.216C225.773 689.275 220.156 686.604 218.162 683.115C216.871 680.857 224.925 671.399 222.862 669.337C221.966 670.234 210.948 676.647 210.56 676.388C206.883 673.937 203.956 670.192 200.308 667.587ZM205.609 694.817C205.408 693.575 205.093 691.753 204.984 691.316C204.91 691.021 204.208 690.856 203.259 690.716C202.959 690.909 202.764 690.911 202.359 691.316C203.602 692.808 203.691 694.124 204.984 695.417C205.293 695.108 205.454 694.972 205.609 694.817ZM548.123 667.887C545.589 670.421 541.856 674.958 538.446 676.663C538.091 676.841 526.783 670.576 526.144 669.937C525.704 670.23 525.708 670.219 525.269 670.512C527.113 674.201 528.302 680.297 531.12 683.115C527.81 686.424 524.491 690.176 520.568 692.791C522.548 695.762 532.671 691.316 534.92 692.216C536.875 692.998 538.841 702.838 540.796 704.794C543.112 702.478 542.988 692.27 544.897 691.316C548.145 689.692 556.295 691.921 558.95 689.266C557.706 686.778 547.257 683.178 546.948 681.939C545.933 677.881 551.558 671.322 548.123 667.887ZM481.01 701.293C479.905 702.398 481.451 713.736 482.486 714.77C481.583 715.898 467.748 722.83 471.334 723.547C473.646 724.01 483.506 724.225 484.536 725.597C486.964 728.834 483.859 736.348 486.886 739.375C490.642 736.371 490.181 729.185 494.213 726.498C497.443 724.344 505.205 730.408 507.965 727.648C504.644 724.327 501.238 721.11 498.013 717.696C497.879 717.554 497.966 717.31 498.013 717.121C498.512 715.129 504.956 705.544 503.589 704.519C503.187 704.217 491.313 711.543 490.687 710.97C487.327 707.89 484.234 704.516 481.01 701.293ZM268.021 701.893C267.267 702.034 265.745 703.219 262.995 705.969C262.746 706.218 262.369 706.32 262.12 706.569C260.898 707.791 259.992 709.32 258.619 710.37C257.002 711.606 246.538 703.097 244.841 704.794C245.79 706.217 250.943 716.395 250.693 717.396C250.35 718.766 241.46 727.336 241.616 727.648C242.165 728.745 252.871 726.287 255.393 726.498C256.325 726.575 260.561 737.517 261.845 738.8C264.017 737.351 263.776 724.798 265.645 724.447C268.226 723.963 277.706 723.813 279.123 722.397C277.835 719.82 267.227 716.695 266.821 715.071C265.676 710.493 270.281 701.47 268.021 701.893ZM319.555 720.622C316.475 723.702 315.531 729.947 311.929 732.349C310.155 733.531 299.95 728.524 298.176 730.298C299.309 731.997 307.209 740.639 306.953 741.15C306.168 742.72 299.283 752.465 299.627 753.153C300.409 754.717 310.579 749.027 312.229 748.477C314.098 747.854 320.772 756.867 322.481 759.004C324.63 757.571 321.146 746.725 321.906 744.951C322.763 742.951 333.364 740.819 335.383 738.8C333.93 737.347 321.094 735.325 321.031 734.399C320.849 731.768 321.212 729.129 321.031 726.498C320.922 724.929 321.077 722.143 319.555 720.622ZM429.151 720.922C427.666 722.406 428.201 731.543 427.675 734.699C427.43 736.172 415.228 737.195 413.623 738.8C415.509 740.686 426.648 743.743 427.1 745.251C428.267 749.14 423.772 755.975 426.8 759.004C430.599 756.471 432.174 750.962 435.902 748.477C437.507 747.407 448.053 754.754 449.654 753.153C447.797 749.438 444.85 743.947 442.053 741.15C445.361 737.842 448.843 733.603 451.43 729.723C449.75 728.043 439.78 733.378 437.052 732.924C436.395 732.814 430.089 722.173 429.151 720.922ZM374.366 727.648C372.91 729.103 370.608 741.1 369.365 741.15C364.778 741.338 360.199 740.963 355.612 741.15C355.336 741.162 355.207 741.53 355.012 741.725C358.355 745.068 363.684 746.553 366.439 750.227C367.618 751.798 361.223 762.014 363.213 764.005C364.526 762.692 373.926 755.64 375.241 756.078C376.631 756.541 384.812 763.895 385.793 763.404C388.101 762.251 381.681 752.176 382.567 750.227C383.87 747.362 390.555 743.735 393.119 742.026C392.924 741.732 392.87 741.174 392.519 741.15C388.328 740.871 384.101 741.506 379.917 741.15C378.226 741.006 376.665 729.181 374.366 727.648Z" fill="#FFFFFF" fill-rule="nonzero" opacity="1" stroke="none"/>
</g>
</svg>
