<?xml version="1.0" encoding="UTF-8" standalone="no"?>
<!DOCTYPE svg PUBLIC "-//W3C//DTD SVG 1.1//EN" "http://www.w3.org/Graphics/SVG/1.1/DTD/svg11.dtd">
<!-- Created with Vectornator (http://vectornator.io/) -->
<svg height="100%" stroke-miterlimit="10" style="fill-rule:nonzero;clip-rule:evenodd;stroke-linecap:round;stroke-linejoin:round;" version="1.1" viewBox="0 0 750 1000" width="100%" xml:space="preserve" xmlns="http://www.w3.org/2000/svg" xmlns:vectornator="http://vectornator.io" xmlns:xlink="http://www.w3.org/1999/xlink">
<defs/>
<g id="Layer-1" vectornator:layerName="Layer 1">
<path d="M349.025 201.94C338.619 202.901 326.852 204.822 313.724 207.703C300.596 210.585 288.509 214.027 277.462 218.03C266.416 222.032 256.09 226.515 246.484 231.478C241.681 233.959 241.222 234.157 236.419 236.638C241.862 237.199 255.817 240.956 265.744 242.269C268.454 240.91 272.229 239.072 274.821 237.962C281.545 235.08 289.55 232.278 298.835 229.557C308.121 226.835 317.006 224.674 325.491 223.073C333.976 221.472 342.862 220.271 352.147 219.471C361.433 218.67 370.798 218.35 380.244 218.51C389.69 218.67 399.536 219.39 409.782 220.671C420.028 221.952 430.594 223.953 441.481 226.675C452.367 229.396 462.613 232.678 472.219 236.521C478.099 238.873 487.417 243.571 487.417 243.571C487.417 243.571 498.557 241.038 502.717 240.603C508.081 240.043 515.589 236.608 515.589 236.608C515.589 236.608 504.318 230.597 497.434 227.395C490.55 224.193 483.186 221.152 475.341 218.27C467.496 215.388 460.132 212.987 453.248 211.065C446.364 209.144 438.759 207.383 430.434 205.782C422.109 204.181 415.225 203.061 409.782 202.42C404.338 201.78 395.453 201.3 383.126 200.979C370.798 200.659 359.432 200.979 349.025 201.94ZM351.187 230.277C344.463 230.917 337.098 231.958 329.093 233.399C321.089 234.84 311.963 237.081 301.717 240.123C291.471 243.165 283.626 245.886 278.183 248.288C272.74 250.689 262.173 249.969 246.484 246.127C230.794 242.284 218.627 238.762 209.982 235.56C201.337 232.358 194.933 235.32 190.77 244.446C186.608 253.571 183.406 261.656 181.165 268.7C178.923 275.744 177.082 283.189 175.641 291.033C174.2 298.878 173.32 306.883 173 315.048C172.679 323.213 170.838 329.457 167.476 333.779C164.114 338.102 159.872 344.426 154.749 352.751C149.626 361.076 145.063 369.481 141.061 377.966C137.058 386.451 133.696 394.536 130.974 402.22C128.253 409.905 126.011 417.189 124.25 424.073C122.489 430.957 120.968 438.242 119.688 445.926C118.407 453.611 117.526 460.175 117.046 465.618C116.566 471.061 116.326 478.826 116.326 488.912C116.326 498.998 116.806 508.444 117.767 517.249C118.727 526.054 120.008 533.899 121.609 540.783C122.409 544.225 123.21 547.667 124.01 551.11C151.147 524.133 178.283 497.157 205.419 470.181C259.692 416.229 289.87 388.692 295.953 387.571C298.995 387.011 302.037 386.451 305.079 385.89C275.541 415.108 246.003 444.325 216.466 473.543C157.39 531.978 127.692 561.596 127.372 562.396C127.052 563.197 128.653 568.4 132.175 578.006C135.697 587.611 139.059 595.696 142.261 602.26C145.463 608.824 147.304 612.186 147.785 612.346C148.265 612.506 178.923 582.248 239.76 521.572C270.178 491.234 300.596 460.895 331.014 430.557C331.175 434.72 331.335 438.882 331.495 443.045C331.815 451.37 302.918 484.59 244.803 542.704C186.688 600.819 160.112 633.319 165.075 640.203C170.038 647.087 175.321 653.571 180.924 659.655C183.726 662.696 186.528 665.738 189.329 668.78C213.104 644.846 236.878 620.911 260.652 596.977C284.427 573.043 308.201 549.108 331.975 525.174C331.895 527.655 331.815 530.137 331.735 532.618C331.575 537.581 309.001 562.797 264.014 608.264C241.521 630.997 219.027 653.731 196.534 676.465C198.455 678.226 200.376 679.987 202.297 681.748C206.14 685.27 210.942 689.272 216.706 693.755C222.469 698.238 230.314 703.521 240.24 709.605C250.166 715.688 261.052 721.292 272.9 726.415C284.747 731.538 293.552 734.98 299.315 736.741C305.079 738.502 310.282 739.863 314.925 740.823C319.568 741.784 321.249 749.308 319.968 763.397C318.687 777.485 319.007 785.25 320.928 786.691C322.85 788.132 326.132 789.973 330.774 792.214C335.417 794.456 340.38 796.297 345.663 797.738C350.946 799.178 354.629 800.059 356.71 800.379C358.791 800.699 365.675 800.859 377.362 800.859C389.049 800.859 396.494 800.539 399.696 799.899C402.898 799.258 406.58 798.218 410.742 796.777C414.905 795.336 419.788 792.935 425.391 789.573C430.994 786.211 433.076 777.485 431.635 763.397C430.194 749.308 431.795 741.784 436.438 740.823C441.081 739.863 446.284 738.502 452.047 736.741C457.811 734.98 466.456 731.618 477.983 726.655C489.51 721.692 500.396 716.089 510.642 709.845C520.888 703.601 528.893 698.238 534.657 693.755C540.42 689.272 545.543 684.95 550.026 680.787C552.267 678.706 554.509 676.625 556.75 674.544C534.176 652.05 511.603 629.557 489.029 607.063C443.882 562.076 421.229 537.021 421.069 531.898C420.988 529.336 420.908 526.775 420.828 524.213C444.603 547.988 468.377 571.762 492.151 595.536C539.7 643.085 564.114 666.379 565.395 665.418C566.676 664.458 568.837 662.216 571.879 658.694C574.921 655.172 579.404 649.328 585.327 641.164C591.251 632.999 565.315 599.939 507.52 541.984C449.726 484.029 420.988 450.889 421.309 442.564C421.469 438.402 421.629 434.239 421.789 430.077C452.047 460.335 482.305 490.593 512.563 520.851C573.08 581.368 603.578 611.546 604.058 611.386C604.539 611.226 606.3 608.024 609.341 601.78C612.383 595.536 615.665 587.611 619.187 578.006C622.709 568.4 594.372 533.899 534.176 474.504C504.078 444.806 473.98 415.108 443.882 385.41C446.924 385.97 449.966 386.531 453.008 387.091C459.091 388.212 489.59 415.828 544.503 469.941C599.416 524.053 627.032 551.11 627.352 551.11C627.672 551.11 628.073 550.149 628.553 548.228C629.033 546.307 630.074 540.383 631.675 530.457C633.276 520.531 634.236 508.604 634.557 494.676C634.877 480.747 634.156 467.219 632.395 454.091C630.634 440.963 628.153 428.796 624.951 417.589C621.749 406.383 618.707 397.257 615.825 390.213C612.944 383.169 609.902 376.525 606.7 370.281C603.498 364.037 599.736 357.473 595.413 350.589C591.091 343.705 587.248 338.102 583.886 333.779C580.524 329.457 578.603 323.133 578.123 314.808C577.642 306.483 576.682 298.398 575.241 290.553C573.8 282.708 571.639 274.544 568.757 266.058C565.875 257.573 562.593 249.729 558.911 242.524C555.229 235.32 546.744 233.799 533.456 237.962C520.168 242.124 508.961 245.326 499.836 247.567C490.71 249.809 485.187 251.009 483.266 251.17C481.345 251.33 478.463 250.529 474.621 248.768C470.778 247.007 465.815 245.086 459.732 243.005C453.648 240.923 445.963 238.762 436.678 236.521C427.392 234.279 417.306 232.518 406.42 231.238C395.533 229.957 385.287 229.316 375.681 229.316C366.076 229.316 357.911 229.637 351.187 230.277ZM226.312 258.854C240.08 262.857 255.849 266.539 273.62 269.901C291.391 273.263 307.881 275.664 323.09 277.105C338.299 278.546 353.748 279.346 369.438 279.507C385.127 279.667 399.055 279.346 411.223 278.546C423.39 277.746 436.358 276.385 450.126 274.464C463.894 272.542 477.743 270.061 491.671 267.019C505.599 263.977 517.927 260.855 528.653 257.653C539.379 254.452 545.943 255.892 548.345 261.976C550.746 268.06 552.587 273.343 553.868 277.826C555.149 282.308 556.27 286.951 557.23 291.754C558.191 296.557 558.991 302.08 559.632 308.324C560.272 314.568 560.592 320.651 560.592 326.575C560.592 332.498 560.192 339.062 559.392 346.267C558.591 353.471 557.31 360.755 555.549 368.12C553.788 375.484 551.947 381.808 550.026 387.091C548.105 392.374 546.744 395.896 545.943 397.657C545.143 399.419 544.583 400.299 544.262 400.299C543.942 400.299 540.82 398.618 534.897 395.256C528.973 391.894 522.89 388.932 516.646 386.371C510.402 383.809 503.198 381.248 495.033 378.686C486.868 376.125 477.342 373.643 466.456 371.242C455.569 368.84 443.562 366.839 430.434 365.238C417.306 363.637 402.017 362.676 384.567 362.356C367.116 362.036 350.306 362.596 334.136 364.037C317.967 365.478 303.478 367.479 290.67 370.041C277.863 372.602 265.695 375.724 254.168 379.407C242.641 383.089 231.595 387.491 221.028 392.614C215.745 395.176 210.462 397.738 205.179 400.299C203.818 396.617 202.457 392.935 201.097 389.252C198.375 381.888 196.294 375.164 194.853 369.08C193.412 362.997 192.291 356.833 191.491 350.589C190.69 344.345 190.21 337.862 190.05 331.138C189.89 324.414 190.05 318.01 190.53 311.926C191.01 305.842 191.811 299.759 192.932 293.675C194.052 287.591 195.493 281.508 197.254 275.424C199.015 269.34 200.856 264.057 202.778 259.575C204.699 255.092 212.543 254.852 226.312 258.854ZM583.406 296.077C585.487 302.801 587.008 309.044 587.969 314.808C588.929 320.571 592.131 327.215 597.574 334.74C603.018 342.264 608.141 350.429 612.944 359.234C617.747 368.04 622.069 377.165 625.911 386.611C629.754 396.056 633.116 405.982 635.997 416.389C638.879 426.795 641.121 437.281 642.722 447.848C644.322 458.414 645.283 469.541 645.603 481.228C645.923 492.915 645.603 503.881 644.643 514.127C643.682 524.373 642.001 535.02 639.6 546.066C637.198 557.113 634.236 567.679 630.714 577.766C627.192 587.852 623.35 597.217 619.187 605.862C615.025 614.508 610.302 623.073 605.019 631.558C599.736 640.043 593.572 648.688 586.528 657.493C579.484 666.299 571.239 675.184 561.793 684.149C552.347 693.115 544.663 699.839 538.739 704.321C532.816 708.804 526.972 712.887 521.209 716.569C515.445 720.251 507.28 724.734 496.714 730.017C486.148 735.3 477.182 739.302 469.818 742.024C462.453 744.746 456.049 746.827 450.606 748.268C445.163 749.709 441.401 753.711 439.319 760.275C438.279 763.557 437.238 766.839 436.198 770.121C438.759 769.561 441.321 769 443.882 768.44C449.005 767.319 454.929 765.718 461.653 763.637C468.377 761.556 475.341 759.074 482.545 756.193C489.75 753.311 496.314 750.429 502.237 747.547C508.161 744.666 516.086 740.183 526.011 734.099C535.937 728.016 545.623 721.212 555.069 713.687C564.515 706.163 573.72 697.758 582.685 688.472C591.651 679.186 600.056 669.18 607.901 658.454C615.745 647.727 622.629 636.921 628.553 626.034C634.477 615.148 639.84 603.381 644.643 590.733C649.446 578.086 653.288 565.438 656.17 552.791C659.051 540.143 661.052 528.056 662.173 516.529C663.294 505.002 663.854 495.716 663.854 488.672C663.854 481.628 663.614 474.664 663.134 467.78C662.653 460.895 661.933 454.091 660.972 447.367C660.012 440.643 658.651 433.359 656.89 425.514C655.129 417.669 652.407 408.224 648.725 397.177C645.043 386.131 640.32 374.684 634.557 362.837C628.793 350.989 624.23 342.344 620.868 336.901C617.506 331.458 613.744 325.854 609.582 320.091C605.419 314.327 601.257 308.964 597.094 304.001C592.932 299.038 589.089 294.796 585.567 291.274C583.806 289.513 582.045 287.752 580.284 285.99C581.325 289.352 582.365 292.714 583.406 296.077ZM163.394 293.675C158.911 298.478 154.268 303.921 149.466 310.005C144.663 316.089 139.059 324.173 132.655 334.259C126.252 344.345 120.328 355.232 114.885 366.919C109.442 378.606 104.799 390.613 100.956 402.941C97.1141 415.268 94.3925 425.594 92.7915 433.919C91.1906 442.244 90.0699 449.128 89.4295 454.572C88.7891 460.015 88.3089 468.9 87.9887 481.228C87.6685 493.555 88.0687 505.402 89.1894 516.769C90.3101 528.136 92.3113 540.143 95.193 552.791C98.0747 565.438 101.517 577.205 105.519 588.092C109.522 598.978 114.725 610.505 121.129 622.672C127.532 634.84 132.736 643.885 136.738 649.809C140.74 655.732 144.823 661.336 148.985 666.619C153.148 671.902 159.712 679.186 168.677 688.472C177.642 697.758 186.848 706.163 196.294 713.687C205.739 721.212 215.585 728.096 225.831 734.339C236.078 740.583 244.002 745.066 249.606 747.788C255.209 750.509 261.853 753.391 269.538 756.433C277.222 759.475 284.186 761.956 290.43 763.877C296.674 765.798 302.357 767.319 307.48 768.44C310.042 769 312.603 769.561 315.165 770.121C314.124 766.839 313.084 763.557 312.043 760.275C309.962 753.711 306.2 749.709 300.756 748.268C295.313 746.827 289.309 744.906 282.746 742.504C276.182 740.103 267.216 736.101 255.849 730.497C244.483 724.894 236.158 720.411 230.874 717.049C225.591 713.687 219.748 709.605 213.344 704.802C206.94 699.999 199.095 693.195 189.81 684.389C180.524 675.584 172.679 667.259 166.276 659.415C159.872 651.57 154.028 643.565 148.745 635.4C143.462 627.235 138.339 618.11 133.376 608.024C128.413 597.938 124.17 587.852 120.648 577.766C117.126 567.679 114.164 557.113 111.763 546.066C109.361 535.02 107.68 524.373 106.72 514.127C105.759 503.881 105.359 493.875 105.519 484.109C105.679 474.343 106.48 464.017 107.921 453.131C109.361 442.244 111.443 431.518 114.164 420.951C116.886 410.385 120.328 399.819 124.491 389.252C128.653 378.686 133.216 368.84 138.179 359.715C143.142 350.589 148.345 342.264 153.788 334.74C159.231 327.215 162.353 320.811 163.154 315.528C163.954 310.245 165.315 304.081 167.236 297.037C168.197 293.515 169.157 289.993 170.118 286.471C167.877 288.872 165.635 291.274 163.394 293.675ZM387.929 379.407C394.893 379.647 401.857 379.887 408.821 380.127C408.261 384.209 407.7 388.292 407.14 392.374C406.019 400.539 404.979 410.865 404.018 423.353C403.058 435.84 402.577 457.774 402.577 489.152C402.577 520.531 403.218 559.274 404.499 605.382C405.779 651.49 407.06 685.35 408.341 706.963C409.622 728.576 410.822 744.986 411.943 756.193C413.064 767.399 411.463 774.043 407.14 776.125C402.818 778.206 397.454 779.727 391.05 780.687C384.647 781.648 379.604 782.128 375.921 782.128C372.239 782.128 367.837 781.808 362.713 781.168C357.59 780.527 353.508 779.727 350.466 778.766C347.424 777.806 344.623 776.525 342.061 774.924C339.5 773.323 338.779 767.079 339.9 756.193C341.02 745.306 342.221 728.976 343.502 707.203C344.783 685.43 345.903 660.135 346.864 631.318C347.825 602.5 348.545 573.123 349.025 543.185C349.506 513.247 349.586 487.391 349.265 465.618C348.945 443.845 347.825 424.153 345.903 406.543C344.943 397.738 343.982 388.932 343.022 380.127C347.024 379.887 351.026 379.647 355.029 379.407C363.034 378.926 374 378.926 387.929 379.407Z" fill="#FFFFFF" fill-rule="nonzero" opacity="1" stroke="none"/>
</g>
</svg>
