<?xml version="1.0" encoding="UTF-8" standalone="no"?>
<!DOCTYPE svg PUBLIC "-//W3C//DTD SVG 1.1//EN" "http://www.w3.org/Graphics/SVG/1.1/DTD/svg11.dtd">
<!-- Created with Vectornator (http://vectornator.io/) -->
<svg height="100%" stroke-miterlimit="10" style="fill-rule:nonzero;clip-rule:evenodd;stroke-linecap:round;stroke-linejoin:round;" version="1.1" viewBox="0 0 750 1000" width="100%" xml:space="preserve" xmlns="http://www.w3.org/2000/svg" xmlns:vectornator="http://vectornator.io" xmlns:xlink="http://www.w3.org/1999/xlink">
<defs/>
<g id="Layer-1" vectornator:layerName="Layer 1">
<path d="M153.164 199.495C152.882 199.495 152.571 199.806 152.57 200.089C152.371 280.414 152.473 360.757 152.57 441.083C152.573 443.779 152.759 446.456 152.876 449.149C155.335 505.692 170.659 571.814 200.16 620.982C208.92 635.582 216.854 650.457 226.809 664.395C253.727 702.08 285.824 735.436 322.008 764.383C335.187 774.926 349.329 783.798 363.313 793.121C366.898 795.511 374.211 801.553 378.276 798.504C389.941 789.756 403.426 782.806 415.405 774.25C438.205 757.964 459.087 738.941 478.858 719.169C553.374 644.653 597.748 539.64 598.005 434.186C598.195 356.155 598.411 278.12 598.311 200.089C598.311 199.806 597.981 199.495 597.698 199.495C449.52 199.295 301.343 199.295 153.164 199.495ZM375.287 207.695C446.533 207.682 517.774 207.737 589.02 207.886C589.443 207.887 589.919 208.363 589.92 208.787C590.119 282.926 589.801 357.058 589.614 431.198C589.341 538.617 544.651 640.828 468.992 716.487C449.909 735.569 429.302 753.472 407.32 769.173C397.33 776.309 386.219 782.211 376.475 789.519C374.955 790.659 364.845 783.867 363.007 782.641C349.483 773.625 336.105 764.502 323.502 754.191C289.459 726.337 259.232 694.468 233.687 658.705C225.975 647.908 219.242 636.514 212.44 625.177C209.896 620.936 208.212 615.651 205.256 611.709C197.486 601.349 192.957 586.509 188.186 574.58C172.083 534.323 163.094 491.014 161.249 447.655C161.134 444.961 160.946 442.266 160.942 439.57C160.846 362.537 160.743 285.513 160.942 208.48C160.943 208.198 161.273 207.887 161.555 207.886C232.801 207.786 304.042 207.707 375.287 207.695ZM178.319 224.65C178.037 224.65 177.707 224.962 177.706 225.244C177.507 295.292 177.611 365.345 177.706 435.393C177.711 438.987 177.884 442.569 178.012 446.16C181.735 550.404 229.748 645.362 304.937 716.487C321.323 731.987 339.145 746.457 357.93 758.98C360.71 760.834 372.619 770.054 375.287 770.054C377.776 770.054 390.241 760.5 392.952 758.693C412.511 745.653 431.187 730.449 448.032 714.092C520.713 643.518 565.966 556.591 571.969 454.552C572.162 451.266 572.555 444.175 572.562 441.371C572.755 369.327 572.949 297.288 572.85 225.244C572.849 224.962 572.538 224.65 572.256 224.65C440.941 224.451 309.634 224.451 178.319 224.65ZM187.592 233.022C313.319 232.823 439.057 232.823 564.784 233.022C565.066 233.023 565.378 233.334 565.378 233.616C565.478 302.467 565.264 371.332 565.071 440.183C564.815 532.268 523.52 627.818 458.512 692.826C453.672 697.666 448.75 702.43 443.837 707.195C427.861 722.686 410.435 736.489 392.358 749.401C390.09 751.021 378.154 760.187 376.188 760.187C373.901 760.187 360.972 750.249 358.524 748.501C339.514 734.922 321.168 720.149 304.631 703.612C232.77 631.752 187.143 537.8 186.998 434.78C186.903 367.726 186.799 300.67 186.998 233.616C186.999 233.334 187.309 233.023 187.592 233.022ZM375.287 253.981C370.14 259.129 369.833 263.4 367.203 269.538C367.091 269.798 366.891 270.141 366.609 270.151C361.224 270.344 355.82 269.868 350.439 270.151C348.357 270.261 350.068 274.607 350.439 275.535C351.526 278.252 354.224 280.814 356.129 282.719C360.02 286.61 367.103 285.609 370.498 289.003C364.696 300.607 356.916 306.073 343.848 306.073C342.175 306.073 339.234 304.701 337.871 303.679C334.381 301.061 331.157 298.172 328.886 294.387C327.875 292.702 327.192 290.298 325.897 289.003C324.804 290.096 325.035 292.546 324.69 294.099C323.492 299.489 320.131 306.988 314.21 308.468C307.386 310.174 299.94 310.165 293.557 306.974C292.411 306.401 285.905 300.324 286.373 299.483C289.113 294.55 298.112 287.561 291.776 281.225C277.541 295.46 265.098 266.843 249.263 280.918C255.219 286.874 264.006 288.981 269.015 296.494C270.958 299.408 275.518 307.914 275.012 311.457C274.611 314.262 272.214 317.908 272.617 320.73C272.715 321.415 282.056 324.829 283.384 325.826C287.493 328.908 287.375 337.308 291.162 341.095C300.855 336.249 312.43 334.132 322.908 331.803C353.634 324.975 385.861 324.633 416.9 329.408C427.361 331.018 437.57 333.691 447.726 336.593C451.111 337.56 455.976 340.789 459.412 340.789C460.885 340.789 465.451 327.464 467.785 325.519C469.863 323.787 477.15 323.516 478.264 320.73C479.346 318.025 475.563 312.62 475.563 309.656C475.563 308.079 477.665 305.465 478.264 303.966C482.819 292.58 492.035 287.876 501.312 280.918C488.723 265.812 474.522 294.072 459.106 281.225C457.144 282.533 457.018 284.964 457.018 287.202C457.018 290.635 464.319 299.497 464.202 299.789C459.203 312.286 438.633 312.231 430.368 303.966C426.439 300.037 428.158 292.483 424.678 289.003C423.761 289.92 423.714 291.49 422.877 292.605C420.342 295.985 418.212 299.071 415.099 302.184C411.396 305.887 404.771 306.073 400.136 306.073C390.796 306.073 383.923 296.082 380.384 289.003C381.814 287.573 384.124 287.975 386.055 287.202C390.44 285.448 394.005 283.447 397.435 280.018C398.188 279.265 403.679 270.268 400.423 270.151C395.038 269.959 389.658 270.344 384.273 270.151C383.991 270.141 383.829 269.764 383.66 269.538C382.816 268.413 382.774 265.388 382.165 263.867C380.705 260.216 378.032 256.726 375.287 253.981ZM275.012 332.11C268.516 338.606 260.895 344.12 254.34 350.674C245.03 359.984 238.584 371.27 231.905 382.401C224.718 394.379 220.547 409.499 217.824 423.113C207.137 476.547 225.126 524.119 262.425 561.418C272.037 571.03 283.975 578.784 295.952 584.772C297.299 585.445 298.589 586.777 300.148 587.167C305.913 588.608 313.359 591.675 318.712 594.351C321.147 591.917 307.221 587.399 304.344 585.96C294.273 580.925 284.475 574.463 275.893 567.108C249.937 544.86 232.902 515.593 226.809 482.083C220.353 446.571 227.411 411.323 245.661 380.907C251.846 370.598 259.633 360.957 268.115 352.475C271.342 349.248 277.131 346.021 279.801 342.283C280.226 341.688 275.833 332.931 275.012 332.11ZM476.004 333.585C475.133 333.464 474.278 333.701 473.475 334.505C478.412 340.147 484.143 344.971 489.031 350.674C496.149 358.978 501.729 368.005 507.309 377.305C509.109 380.305 511.841 384.379 512.692 387.784C513.972 392.903 516.68 398.387 518.67 403.36C522.339 412.535 524.349 423.254 525.567 432.998C531.122 477.438 519.833 519.856 492.633 554.827C481.472 569.177 467.606 582.239 451.921 591.65C446.118 595.132 439.568 597.791 433.951 601.536C434.927 603.489 434.192 609.947 436.346 610.808C437.482 611.263 446.084 606.533 447.726 605.712C460.809 599.17 473.339 589.701 483.954 579.676C487.545 576.285 491.12 572.859 494.434 569.196C498.867 564.297 502.858 559.011 506.696 553.64C529.886 521.173 539.766 477.629 534.533 438.382C532.447 422.741 527.77 408.295 521.965 393.781C515.483 377.576 504.299 361.445 492.327 348.874C489.261 345.654 486.198 342.438 483.054 339.294C481.347 337.587 478.616 333.947 476.004 333.585ZM367.509 335.712C349.4 336.336 330.848 337.584 313.329 342.59C305.647 344.784 298.15 347.289 292.369 353.069C290.586 354.853 289.957 358.436 291.776 360.254C327.99 342.147 375.189 341.91 413.911 347.073C424.806 348.525 436.577 350.771 446.825 354.87C448.184 355.413 457.89 360.051 458.512 359.947C461.363 359.472 459.849 355.112 458.512 353.663C454.645 349.474 450.616 347.053 445.331 345.291C425.32 338.621 404.407 336.736 367.509 335.712ZM468.685 346.785C464.213 351.257 470.367 354.045 474.069 357.859C478.339 362.258 482.191 367.238 485.755 372.228C492.348 381.457 496.758 391.531 501.619 401.253C503.794 405.603 504.447 410.837 506.696 415.334C508.932 413.844 503.512 401.244 502.519 398.264C496.131 379.099 482.756 360.856 468.685 346.785ZM295.665 368.932C295.382 368.934 295.251 369.327 295.052 369.526C297.255 371.73 303.428 374.214 303.443 377.611C303.542 399.963 303.148 422.316 303.443 444.666C303.462 446.076 309.865 447.84 310.934 448.268C317.091 450.731 323.32 452.988 329.479 455.452C330.86 456.004 333.684 457.788 335.17 457.54C339.175 456.873 332.571 445.081 336.377 444.973C343.159 444.779 349.938 444.889 356.723 444.973C360.606 445.02 366.829 445.746 370.191 448.268C378.074 454.18 385.12 461.282 392.358 468.02C398.145 473.409 403.928 478.802 409.715 484.19C428.606 501.778 443.165 516.817 469.873 516.817C476.361 516.817 483.557 515.017 488.744 511.127C487.394 509.776 483.794 509.882 481.847 509.326C477.489 508.081 473.221 505.792 469.873 502.735C456.382 490.418 443.307 477.614 430.062 465.031C424.541 459.786 419.23 454.205 413.011 449.762C409.811 447.476 405.238 444.15 401.324 443.172C398.84 442.551 393.486 441.618 391.745 439.876C393.3 438.321 405.13 436.646 408.508 435.681C424.256 431.181 440.254 420.733 440.254 402.766C440.254 395.871 434.124 389.739 429.774 385.39C418.85 374.465 397.676 371.421 383.372 370.12C377.809 369.615 372.191 369.281 366.609 369.239C342.96 369.061 319.313 368.833 295.665 368.932ZM352.412 377.439C358.057 377.451 363.683 377.615 369.291 378.205C375.749 378.885 381.683 380.858 387.855 382.401C403.203 386.238 411.393 406.923 401.937 419.53C393.815 430.36 379.033 435.58 366.015 436.581C364.32 436.711 362.618 436.871 360.919 436.888C352.537 436.971 344.14 437.176 335.763 436.888C335.34 436.873 334.889 436.41 334.882 435.987C334.587 416.731 334.685 397.462 334.882 378.205C334.885 377.923 335.194 377.613 335.476 377.611C341.115 377.569 346.767 377.426 352.412 377.439ZM374.387 403.954C374.088 404.254 374.092 404.249 373.793 404.548C375.767 406.522 379.712 407.497 379.771 410.832C379.867 416.32 379.789 421.827 380.077 427.308C380.092 427.59 380.394 427.847 380.671 427.902C381.847 428.138 383.667 426.548 384.56 426.101C391.418 422.672 399.485 417.494 400.423 409.05C400.757 406.047 401.437 405.559 374.387 403.954ZM340.86 404.261C337.465 404.426 340.066 411.041 340.266 414.434C340.31 415.184 342.711 415.909 343.254 416.235C345.993 417.878 348.788 420.054 350.439 422.806C351.334 424.298 353.078 432.104 354.328 431.791C360.505 430.247 365.462 419.393 361.512 414.127C356.459 407.389 348.735 403.876 340.86 404.261ZM297.446 404.548C290.183 406.364 283.182 409.189 277.1 413.533C273.302 416.246 269.626 419.4 267.214 423.419C259.171 436.825 263.994 450.953 275.606 460.242C290.77 472.373 311.175 476.225 328.292 484.784C334.964 488.12 345.217 493.248 347.144 500.954C355.201 533.183 310.855 539.652 290.262 527.297C284.367 523.76 279.025 519.359 277.1 512.621C276.37 510.065 277.588 503.223 276.2 501.835C273.301 503.284 270.423 503.74 267.827 506.031C249.727 522.002 270.72 533.542 285.472 537.757C310.251 544.837 352.675 545.13 368.41 518.905C378.442 502.184 372.335 484.118 356.723 473.71C336.05 459.928 306.304 457.413 288.768 439.876C282.063 433.172 287.388 423.898 292.657 418.63C293.471 417.815 298.836 415.488 298.96 414.434C299.345 411.158 300.677 406.881 297.446 404.548ZM380.671 463.518C380.471 463.718 380.08 463.849 380.077 464.131C379.879 486.781 380.175 509.436 380.077 532.086C380.062 535.626 376.31 537.592 373.793 539.271C373.993 539.47 374.105 539.863 374.387 539.865C405.319 540.063 436.258 539.961 467.191 539.865C476.54 539.835 487.844 535.694 487.844 524.902C487.844 522.858 486.922 520.072 485.449 518.599C478.331 525.716 471.091 530.173 460.6 530.285C443.039 530.473 425.476 530.671 407.914 530.573C407.632 530.571 407.324 530.261 407.32 529.979C407.124 516.11 408.249 502.205 407.32 488.367C407.301 488.07 400.595 481.895 399.829 481.182C393.491 475.281 387.324 469.062 380.671 463.518ZM303.98 480.033C303.655 480.062 303.452 480.224 303.443 480.588C303.249 488.169 303.539 495.766 303.443 503.348C303.403 506.536 298.215 509.618 295.952 511.127C296.152 511.326 296.283 511.717 296.565 511.721C312.03 511.918 327.483 511.918 342.948 511.721C343.23 511.717 343.361 511.326 343.561 511.127C341.296 508.862 336.185 507.192 336.07 503.636C335.977 500.742 336.267 497.808 335.763 494.957C335.359 492.665 323.755 488.053 321.395 486.872C316.903 484.626 311.993 483.046 307.332 481.182C306.925 481.019 304.952 479.945 303.98 480.033ZM233.093 543.754C232.794 544.053 232.799 544.048 232.499 544.348C233.09 545.529 233.839 546.556 234.645 547.585C234.868 547.362 234.911 547.319 235.181 547.049C235.217 547.084 235.242 547.129 235.277 547.164C235.706 545.872 234.125 544.785 233.093 543.754ZM235.277 547.164C235.193 547.418 235.166 547.677 234.894 547.949C234.8 547.832 234.736 547.702 234.645 547.585C234.621 547.609 234.616 547.614 234.587 547.643C238.583 555.633 245.375 563.316 251.351 569.79C265.221 584.816 279.983 595.406 297.159 605.712C302.509 608.922 308.645 610.421 314.21 613.203C315.506 611.907 315.396 608.342 314.21 606.919C312.959 605.417 306.436 604.155 304.344 603.317C297.35 600.52 290.723 596.701 284.285 592.838C271.434 585.127 260.125 575.288 249.55 564.713C244.203 559.366 240.547 552.477 235.277 547.164ZM371.398 568.008C357.786 568.008 361.507 572.522 357.029 581.477C357.081 581.528 357.06 581.507 357.106 581.553C356.373 581.732 356.748 582.933 356.435 583.872C356.142 584.751 356.15 584.937 356.359 585.251C355.741 586.085 355.131 589.224 354.328 589.255C349.343 589.447 344.354 589.333 339.365 589.255C335.505 589.195 334.965 588.204 333.081 591.343C328.707 598.635 325.05 608.441 325.59 617.092C325.673 618.415 340.02 626.585 341.76 628.76C342.204 629.314 340.496 632.86 340.266 633.55C338.955 637.482 335.476 643.551 335.476 647.631C335.476 648.551 336.639 649.056 337.277 649.719C339.283 651.805 341.208 653.957 343.254 656.003C346.229 658.978 352.155 663.018 356.435 664.088C357.11 664.257 358.797 665.114 359.424 664.989C361.164 664.641 368.579 658.055 370.498 656.616C372.331 655.241 374.669 652.109 376.782 654.222C376.796 654.208 376.806 654.197 376.82 654.183C378.748 655.997 390.235 664.989 391.457 664.989C398.367 664.989 408.38 655.231 412.397 651.214C413.4 650.211 414.601 649.246 415.099 647.918C415.546 646.725 410.943 633.754 409.6 631.844C409.632 631.812 409.685 631.802 409.715 631.768C410.309 631.099 408.925 629.449 409.121 628.76C410.056 625.487 422.896 620.349 425.272 616.786C426.181 615.422 424.958 611.588 424.678 609.908C424.193 606.999 418.993 589.774 415.693 588.949C409.496 587.4 402.917 589.492 396.534 589.255C395.608 589.221 394.977 585.559 394.752 584.772C393.612 580.779 392.739 574.008 390.25 570.691C388.755 568.697 381.993 568.423 379.771 568.296C376.979 568.136 374.194 568.008 371.398 568.008ZM379.809 571.265C385.783 571.402 388.372 572.624 390.557 580.27C391.08 582.1 393.241 585.67 391.745 587.167C386.99 584.79 380.196 577.531 375.594 576.381C374.582 576.128 360.828 585.835 358.83 587.167C358.531 586.868 358.517 586.853 358.217 586.554C362.825 577.338 358.589 571.284 372.586 571.284C375.439 571.284 377.818 571.22 379.809 571.265ZM406.228 591.133C409.209 591.138 412.259 591.466 413.604 591.65C414.439 591.764 415.474 594.839 415.999 595.539C419.435 600.12 423.302 610.709 421.689 616.192C421.53 616.732 411.429 623.717 410.309 624.277C408.333 622.3 416.263 607.262 414.792 604.812C412.457 600.92 402.883 596.198 399.236 592.55C400.338 591.448 403.248 591.127 406.228 591.133ZM347.412 591.592C348.935 591.526 350.474 591.685 351.339 592.55C346.184 596.675 340.43 600.452 335.763 605.118C338.646 610.884 338.341 618.32 341.166 623.97C340.867 624.27 340.852 624.284 340.553 624.583C339.302 623.749 328.926 616.632 328.886 616.192C328.323 610.003 331.229 601.945 333.982 596.44C334.467 595.469 336.123 591.788 337.277 591.65C339.36 591.4 341.463 591.956 343.561 591.956C344.388 591.956 345.889 591.659 347.412 591.592ZM357.317 592.55C358.169 593.248 365.815 600.321 366.302 600.329C372.388 600.425 378.48 600.609 384.56 600.329C386.9 600.221 391.541 594.248 393.239 592.55C393.538 592.85 393.553 592.845 393.852 593.144C392.678 595.493 389.35 600.467 389.35 603.03C389.35 604.768 393.846 619.606 394.752 620.694C397.364 623.828 402.368 624.42 405.213 627.266C402.547 629.932 395.422 624.945 391.745 627.572C387.868 630.341 380.448 633.954 377.989 638.052C376.195 641.041 377.741 646.978 375.287 649.432C372.552 646.697 374.582 640.739 372.586 637.745C372.135 637.068 357.944 626.712 357.623 626.672C354.444 626.274 348.122 629.738 345.649 627.266C348.537 625.34 353.743 623.754 355.822 620.982C358.437 617.495 360.368 608.81 361.225 604.524C361.815 601.576 355.356 594.511 357.317 592.55ZM343.561 632.956C346.687 635.04 348.9 650.707 351.339 651.52C355.036 652.752 359.111 652.043 363.007 652.114C365.708 652.163 369.181 650.798 371.092 652.708C369.831 653.759 360.446 661.406 359.712 661.406C354.502 661.406 339.43 649.715 338.771 646.424C338.612 645.629 342.905 633.612 343.561 632.956ZM407.014 632.956C407.7 633.413 412.11 644.82 412.11 646.137C412.11 649.454 407.663 651.085 405.213 653.321C403.663 654.737 393.359 662.349 390.844 661.406C388.899 660.677 386.828 658.451 385.173 657.21C383.369 655.857 381.026 654.592 379.771 652.708C379.97 652.509 380.103 652.142 380.384 652.114C386.564 651.496 393.449 652.628 399.542 651.52C400.632 651.322 401.292 647.575 401.63 646.731C403.162 642.902 404.17 635.799 407.014 632.956ZM353.159 572.97C348.854 573.346 339.059 582.351 339.059 583.565C339.059 585.484 342.851 584.75 344.749 584.466C345.167 584.403 345.385 583.896 345.649 583.565C347.476 581.282 348.612 578.514 350.745 576.381C352.516 574.61 353.077 576.137 354.328 574.886C353.868 573.966 353.912 574.476 354.635 573.392C354.288 573.045 353.774 572.917 353.159 572.97ZM396.86 572.99C396.483 573.032 396.174 573.158 395.94 573.392C396.656 574.823 396.578 576.753 397.435 578.182C398.339 579.688 402.339 579.595 404.025 580.27C405.503 580.861 409.596 584.076 410.616 583.872C410.925 583.81 411.217 583.665 411.516 583.565C409.99 581.53 408.219 579.674 406.42 577.875C405.142 576.597 399.502 572.694 396.86 572.99ZM376.475 604.908C373.48 604.885 370.497 604.932 367.509 605.118C366.249 605.197 365.73 608.923 365.402 609.908C364.697 612.021 360.632 623.703 361.512 624.583C365.481 620.615 367.752 614.826 371.992 611.115C375.403 608.131 382.642 609.124 386.055 605.712C385.855 605.513 385.743 605.127 385.461 605.118C382.469 605.022 379.471 604.93 376.475 604.908ZM424.084 623.683C418.665 626.392 419.888 629.455 419.888 635.063C419.888 635.993 418.952 637.319 418.701 637.151C416.997 638.855 417.515 640.468 418.988 641.941C419.427 641.502 419.566 641.099 419.601 640.715C423.728 636.569 424.29 629.804 424.084 623.683ZM326.184 623.97C322.955 627.2 329.48 638.749 331.874 641.941C332.851 641.29 334.269 637.889 334.269 636.557C334.269 635.371 330.41 632.112 329.479 630.561C328.217 628.457 328.15 625.281 326.184 623.97ZM380.671 662.9C378.886 662.391 375.842 664.548 374.08 664.989C371.677 665.589 367.615 664.883 366.015 666.483C368.812 669.28 379.117 669.815 382.204 667.249C383.076 667.766 383.82 667.53 384.867 666.483C383.412 664.665 384.179 665.243 382.51 664.414C382.486 664.402 382.498 664.408 382.472 664.395C382.017 663.915 381.208 663.054 380.671 662.9Z" fill="#FFFFFF" fill-rule="nonzero" opacity="1" stroke="none"/>
</g>
</svg>
