<?xml version="1.0" encoding="UTF-8" standalone="no"?>
<!DOCTYPE svg PUBLIC "-//W3C//DTD SVG 1.1//EN" "http://www.w3.org/Graphics/SVG/1.1/DTD/svg11.dtd">
<!-- Created with Vectornator (http://vectornator.io/) -->
<svg height="100%" stroke-miterlimit="10" style="fill-rule:nonzero;clip-rule:evenodd;stroke-linecap:round;stroke-linejoin:round;" version="1.1" viewBox="0 0 750 1000" width="100%" xml:space="preserve" xmlns="http://www.w3.org/2000/svg" xmlns:vectornator="http://vectornator.io" xmlns:xlink="http://www.w3.org/1999/xlink">
<defs/>
<g id="Layer-1" vectornator:layerName="Layer 1">
<path d="M370.308 200.063C370.033 200.084 369.88 200.414 369.727 200.644C368.528 202.443 366.809 202.461 364.735 203.29C358.196 205.906 351.343 207.713 344.805 210.328C324.436 218.475 303.143 225.385 282.332 232.322C268.072 237.075 254.074 242.53 239.827 247.278C237.295 248.123 225.928 251.371 224.87 253.134C224.77 253.301 224.873 253.52 224.87 253.715C224.775 260.362 224.57 267.017 224.57 273.664C224.57 278.259 224.754 282.845 224.87 287.438C225.301 304.465 226.258 321.48 227.516 338.464C228.092 346.231 230.22 354.02 229.562 361.921C229.539 362.197 229.256 362.489 228.98 362.503C225.466 362.688 221.933 362.557 218.415 362.503C204.516 362.289 190.828 360.175 177.373 359.876C176.001 359.845 173.532 358.812 173.263 360.157C173.049 361.23 177.576 369.025 178.255 370.723C182.276 380.776 186.535 389.958 190.566 400.036C191.372 402.053 195.423 410.732 194.957 412.365C194.68 413.333 190.715 414.367 189.684 414.711C184.997 416.273 180.491 418.433 175.909 420.266C175.127 420.578 170.34 422.044 170.336 422.912C170.141 465.819 170.336 508.721 170.336 551.629C173.505 552.421 190.207 544.214 194.375 542.546C195.765 541.99 199.673 539.612 201.112 539.9C202.818 540.241 200.296 546.197 199.949 547.238C197.947 553.242 195.491 559.094 193.193 564.84C192.636 566.232 191.753 568.848 192.911 569.814C197.855 573.933 204.231 577.072 209.613 580.66C219 586.918 228.167 593.746 236.899 600.89C267.704 626.094 295.027 654.491 318.12 686.821C335.739 711.488 347.812 739.169 360.925 765.395C364.844 773.232 367.184 782.003 371.19 790.016C372.727 793.09 372.687 797.386 375.3 800C377.247 798.053 377.772 794.375 378.81 791.78C382.083 783.596 384.873 773.78 389.375 766.277C395.193 756.58 399.168 745.19 404.313 734.9C410.963 721.601 418.948 708.968 426.607 696.204C450.461 656.447 485.058 622.657 521.32 594.454C533.245 585.179 546.542 577.94 558.552 568.932C554.175 560.177 553.257 549.238 548.888 540.501C550.405 538.984 554.912 541.921 556.788 542.546C562.459 544.436 567.955 547.062 573.509 549.283C575.397 550.039 577.598 551.629 579.664 551.629C579.664 508.623 579.859 465.617 579.664 422.611C579.661 421.919 575.071 420.605 574.391 420.266C571.437 418.789 556.54 414.195 555.625 412.365C555.004 411.122 559.085 402.842 559.735 401.218C563.803 391.046 567.944 381.257 572.045 371.004C572.88 368.918 578.284 361.123 576.437 359.275C576.291 359.129 565.299 360.382 564.426 360.458C553.387 361.417 542.358 361.905 531.285 362.222C527.962 362.317 524.644 362.595 521.32 362.503C521.044 362.495 520.862 362.169 520.738 361.921C519.039 358.522 521.054 354.484 521.902 351.656C523.338 346.869 522.725 339.964 523.084 334.936C524.598 313.749 525.329 292.553 525.712 271.318C525.812 265.747 526.012 260.169 526.012 254.597C526.012 254.099 525.934 253.579 525.712 253.134C524.899 251.508 511.003 247.715 508.409 246.678C492.431 240.287 475.783 234.839 459.448 229.394C440.313 223.016 420.71 216.643 401.967 209.146C392.722 205.447 380.041 199.314 370.308 200.063ZM374.7 217.947C377.413 217.947 381.013 219.879 383.501 220.874C390.9 223.834 398.68 225.835 406.077 228.794C429.417 238.13 453.784 246.066 477.632 254.016C485.699 256.704 493.609 259.829 501.672 262.517C502.607 262.828 509.276 264.406 509.291 265.444C509.386 271.797 509.129 278.158 509.01 284.511C508.462 313.549 506.342 342.452 503.136 371.304C502.461 377.379 501.598 383.432 500.79 389.489C500.696 390.191 500.749 395.157 499.626 395.344C498.749 395.49 491.835 393.85 491.482 393.054C491.116 393.156 490.541 393.104 489.924 393.036C489.255 392.964 488.529 392.83 487.729 392.642C488.529 392.832 489.252 392.961 489.924 393.036C490.526 393.1 491.123 393.155 491.482 393.054C491.723 392.987 491.906 392.883 491.989 392.717C492.83 391.035 492.598 387.591 492.871 385.679C494.013 377.685 494.906 369.646 495.798 361.621C499.11 331.811 500.83 301.575 500.49 271.6C500.479 270.625 494.593 269.252 493.753 268.972C486.482 266.549 479.33 263.777 472.059 261.353C452.692 254.898 432.947 248.403 413.996 240.823C404.01 236.828 393.492 233.086 383.201 229.976C381.223 229.378 382.761 235.473 382.919 237.295C383.304 241.719 382.74 260.135 387.611 261.353C392.722 262.631 397.506 266.838 401.104 270.436C402.416 271.749 403.603 278.028 404.913 278.355C412.068 280.144 420.661 280.708 426.907 285.393C430.361 287.983 435.066 293.513 438.918 294.476C445.058 296.011 455.272 302.729 456.802 308.85C458.946 317.425 455.683 323.14 448.601 328.198C446.965 329.367 441.543 331.167 440.682 332.89C440.092 334.069 440.363 336.174 439.8 337.582C438.065 341.918 431.832 347.197 426.907 348.428C425.492 348.782 415.571 352.094 415.46 352.538C413.827 359.069 413.793 366.631 412.833 373.35C412.548 375.343 411.329 378.758 411.65 380.688C411.659 380.742 411.975 380.77 412.063 380.819C413.246 381.481 420.789 381.767 421.916 381.87C420.789 381.767 413.246 381.481 412.063 380.819C411.15 381.717 406.177 380.878 405.795 380.688C404.902 380.241 407.01 368.178 407.259 366.313C408.084 360.13 408.264 353.297 409.605 347.265C409.925 345.826 414.589 345.535 415.76 345.201C421.738 343.493 439.151 338.513 433.063 329.381C438.133 324.31 447.291 324.846 449.765 316.188C451.813 309.02 444.42 305.578 439.8 302.113C437.958 300.732 434.558 300.381 433.063 298.886C425.254 291.077 416.396 287.743 405.795 285.092C400.089 283.666 394.039 282.933 388.193 282.465C387.356 282.398 382.246 283.084 382.037 281.001C381.232 272.944 391.087 274.861 394.348 271.6C389.876 268.245 380.726 266.039 378.509 261.053C376.436 256.388 377.175 244.022 376.764 238.477C376.551 235.607 377.487 230.099 375.3 227.912C373.568 229.644 373.981 232.664 373.818 234.949C373.223 243.271 373.87 252.963 372.072 261.053C370.17 269.613 353.306 268.007 353.306 278.355C350.312 279.353 353.908 283.047 350.078 283.047C349.134 285.88 339.882 286.439 336.886 287.438C328.83 290.123 323.99 293.339 317.519 298.886C314.104 301.813 308.934 301.897 305.509 305.322C302.01 308.821 298.649 313.15 301.699 318.234C305.675 324.859 314.063 325.055 317.519 329.662C310.345 336.836 330.12 343.727 334.54 345.201C335.975 345.679 340.059 345.834 340.695 347.265C342.676 351.721 342.347 358.823 343.041 363.685C343.343 365.798 346.122 380.537 344.205 380.988C342.394 381.414 340.419 381.78 338.631 381.269C338.511 381.235 338.463 381.06 338.368 380.969C338.047 381.291 337.374 381.519 336.492 381.682C336.183 381.741 335.808 381.751 335.46 381.795C334.735 381.883 334.18 381.981 333.395 382.02C334.125 381.98 334.788 381.879 335.46 381.795C335.808 381.753 336.182 381.739 336.492 381.682C337.353 381.518 338.05 381.288 338.368 380.969C338.46 380.877 338.604 380.795 338.631 380.688C339.479 377.294 337.657 371.803 337.167 368.377C336.507 363.758 336.905 356.405 334.822 352.238C334.126 350.847 328.782 350.243 327.202 349.611C322.104 347.571 317.07 345.052 313.128 341.11C310.984 338.966 311.119 333.659 309.318 332.308C301.214 326.23 292.898 323.377 292.898 311.778C292.898 304.652 302 299.017 307.554 296.24C309.239 295.397 312.097 294.813 313.428 293.594C316.498 290.779 321.012 285.917 325.438 284.811C329.256 283.857 333.006 281.81 336.886 280.701C339.46 279.966 343.773 279.819 345.969 278.355C347.016 277.657 350.477 269.456 352.424 267.508C355.857 264.076 360.6 263.418 364.153 260.753C367.356 258.35 367.015 240.303 367.381 235.55C367.512 233.846 368.839 229.476 367.081 229.976C337.082 238.509 308.409 251.191 278.823 261.053C271.554 263.476 264.399 266.249 257.129 268.672C255.617 269.176 250.306 270.184 249.792 271.9C247.938 278.079 249.949 284.798 250.092 291.248C250.159 294.279 250.263 297.32 250.374 300.349C250.933 315.724 251.987 331.058 253.32 346.383C254.317 357.85 255.702 369.269 257.129 380.688C257.58 384.296 257.428 389.342 258.875 392.717C258.955 392.904 259.145 393.025 259.381 393.111C258.558 394.865 250.91 395.88 249.792 394.762C250.937 392.472 249.241 387.861 248.91 385.379C247.804 377.085 246.858 368.779 245.982 360.458C242.671 329.005 240.424 297.063 241.291 265.444C241.323 264.256 247.379 262.833 248.328 262.517C256.391 259.829 264.307 256.702 272.368 254.016C297.095 245.773 322.352 237.591 346.55 227.912C353.374 225.182 360.555 223.323 367.381 220.593C369.315 219.819 372.634 217.947 374.7 217.947ZM395.192 293.274C403.385 292.934 412.632 295.943 418.106 300.049C421.182 302.356 430.411 311.202 425.425 316.188C423.861 314.722 422.286 313.256 420.733 311.778C419.351 310.462 416.093 309.808 417.524 313.242C419.262 317.412 427.575 323.14 422.216 328.499C416.989 322.226 409.808 317.462 402.568 313.842C399.476 312.296 393.99 311.42 391.721 309.151C395.972 306.317 398.386 306.053 404.031 306.505C406.023 306.664 409.806 309.165 411.65 308.55C416.802 306.833 405.082 302.163 404.031 301.813C399.631 300.346 394.914 298.731 390.238 298.585C387.691 298.506 384.421 299.806 382.619 298.004C385.734 294.889 390.277 293.479 395.192 293.274ZM354.32 348.297C357.997 348.468 363.544 349.602 363.571 352.238C363.667 361.327 363.763 370.436 363.571 379.524C363.566 379.8 363.245 380.07 362.971 380.106C359.674 380.536 356.274 381 353.006 380.387C351.67 380.137 351.112 366.739 350.96 364.849C350.681 361.359 347.411 349.485 351.542 348.428C352.083 348.29 353.094 348.24 354.32 348.297ZM397.576 348.428C398.717 348.322 400.122 348.081 400.503 349.892C401.621 355.199 399.202 366.42 398.758 372.186C398.705 372.881 399.288 380.28 397.576 380.387C394.258 380.595 390.922 380.407 387.611 380.106C387.336 380.081 387.032 379.8 387.029 379.524C386.933 370.336 387.215 361.144 387.311 351.956C387.344 348.741 395.416 348.63 397.576 348.428ZM553.523 374.307C554.569 374.383 555.435 374.624 555.925 375.114C551.953 383.058 548.167 391.334 545.36 399.754C544.973 400.915 543.117 408.091 542.132 408.255C540.623 408.507 536.558 406.491 536.558 406.491C539.864 403.185 542.809 391.766 544.778 386.843C545.389 385.315 548.061 381.62 546.242 380.387C537.064 380.846 527.852 380.511 518.674 380.988C518.663 380.988 518.648 381.022 518.637 381.025C518.428 379.794 518.231 376.045 519.256 375.996C527.362 375.61 535.493 375.864 543.596 375.414C545.519 375.307 550.385 374.08 553.523 374.307ZM196.721 374.513C199.526 374.36 204.054 375.339 205.522 375.414C207.769 375.53 210.009 375.67 212.259 375.696C218.612 375.768 224.975 375.506 231.326 375.696C232.371 375.727 232.548 380.402 232.489 380.988C232.48 381.085 232.345 381.103 232.283 381.194C232.491 381.409 232.602 381.756 232.658 382.17C232.594 381.771 232.488 381.406 232.283 381.194C232.179 381.087 232.077 380.992 231.908 380.988C224.775 380.798 217.63 381.065 210.495 380.988C208.052 380.962 204.904 379.26 203.176 380.988C206.036 386.707 208.095 393.152 210.495 399.154C211.281 401.117 211.655 404.122 213.141 405.609C214.126 405.117 215.002 405.909 216.069 405.909C216.757 405.909 220.47 404.726 224.345 403.413C220.464 404.729 216.757 405.909 216.069 405.909C215.861 405.909 215.682 405.837 215.487 405.797C214.879 406.248 214.2 406.412 213.442 406.791C213.283 406.632 213.208 406.558 213.123 406.472C212.003 407.711 209.571 407.826 208.15 408.537C202.821 397.88 200.024 385.81 194.675 375.114C195.053 374.736 195.786 374.565 196.721 374.513ZM380.423 391.703C398.676 391.872 416.938 393.073 435.108 395.344C462.051 398.712 489.893 403.147 515.747 411.764C529.545 416.364 544.628 419.618 557.67 426.139C558.987 426.797 569.996 430.739 570 431.413C570.194 465.719 570.194 500.039 570 534.345C569.998 534.622 569.595 534.732 569.399 534.927C548.473 524.464 524.676 518.458 502.254 512.051C433.089 492.29 357.976 491.34 287.624 504.132C261.824 508.823 235.186 514.906 210.796 524.662C201.786 528.266 192.158 530.894 183.528 535.209C182.176 533.856 182.946 532.043 182.946 530.236C182.946 497.395 182.656 464.553 182.946 431.713C182.962 429.952 188.948 429.003 189.984 428.485C199.064 423.945 209.273 420.579 218.996 417.338C270.976 400.011 325.667 391.196 380.423 391.703ZM349.591 506.609C351.253 506.509 352.881 506.612 353.006 507.36C353.366 509.522 352.333 512.977 352.124 515.279C351.51 522.035 350.871 528.772 350.078 535.509C347.823 554.681 344.729 573.704 341.277 592.69C340.268 598.239 336.054 611.136 337.167 616.147C337.582 618.014 345.11 625.989 346.851 627.294C352.102 611.541 353.846 593.482 356.816 577.151C357.154 575.289 358.492 560.762 362.389 562.495C364.724 563.533 364.328 568.569 364.435 570.114C364.839 575.977 365.238 581.833 365.617 587.698C366.493 601.284 367.414 614.87 368.263 628.458C368.905 638.731 367.694 648.119 375.3 655.725C376.991 653.189 380.112 650.005 381.155 647.224C383.381 641.29 382.476 629.255 382.919 622.603C383.414 615.175 383.904 607.738 384.383 600.309C384.768 594.346 385.135 588.386 385.547 582.424C385.811 578.582 385.904 577.239 386.147 573.342C386.203 572.45 385.443 560.622 389.656 562.495C392.766 563.877 392.985 571.859 393.466 574.505C395.763 587.14 398.285 599.747 400.804 612.338C401.32 614.918 402.712 626.257 404.031 627.576C405.156 626.076 413.414 616.63 413.414 615.847C413.414 607.955 410.138 599.012 408.723 591.226C405.54 573.72 402.469 556.129 400.503 538.436C399.667 530.911 398.814 523.405 398.158 515.861C397.943 513.389 396.888 509.766 397.576 507.36C397.869 506.334 403.813 506.888 404.613 507.059C404.937 507.129 405.119 507.361 405.289 507.604C404.342 508.804 405.383 517.327 405.495 518.507C406.279 526.735 407.254 534.946 408.423 543.128C410.54 557.948 413.3 572.654 415.76 587.416C416.382 591.145 416.394 600.36 418.988 602.955C423.872 598.071 427.184 590.958 430.717 585.07C440.022 569.563 447.761 553.128 454.456 536.391C455.872 532.851 462.417 518.854 462.376 514.847C464.604 513.504 468.747 515.861 471.177 515.861C471.89 517.998 469.661 522.004 468.831 524.08C466.059 531.009 463.381 537.969 460.611 544.892C448.129 576.099 430.343 606.536 407.841 631.686C399.96 640.494 391.42 648.757 382.338 656.326C381.329 657.166 376.23 662.373 375 661.881C369.782 659.793 360.279 649.806 356.534 646.061C354.139 643.666 351.83 641.179 349.497 638.723C329.52 617.695 313.134 593.266 300.235 567.468C293.992 554.981 288.684 542.277 283.515 529.354C282.698 527.312 278.498 518.066 278.823 516.442C279.104 515.039 286.574 514.003 287.624 514.397C287.691 514.422 287.731 514.528 287.793 514.566C287.743 514.611 287.671 514.65 287.624 514.697C292.333 524.115 295.402 535.314 299.353 545.192C307.739 566.157 319.71 585.692 332.194 604.418C334.287 602.326 335.614 585.571 336.285 581.542C339.256 563.715 341.927 545.855 343.923 527.89C344.55 522.252 347.114 512.924 345.424 507.528C345.577 507.344 345.694 507.118 345.969 507.059C346.231 507.003 347.928 506.708 349.591 506.609ZM229.862 529.053C227.624 529.799 223.7 530.334 222.074 532.187C222.04 532.226 221.974 532.242 221.943 532.281C220.502 534.081 220.407 539.587 219.878 541.964C218.467 548.316 216.95 555.759 214.023 561.613C217.392 564.981 222.154 567.342 226.034 570.114C234.544 576.192 242.878 582.538 250.974 589.162C277.552 610.907 301.999 635.642 323.093 662.763C337.192 680.891 348.607 700.082 360.344 719.643C364.545 726.646 368.157 734.654 371.19 742.238C372.261 744.914 373.252 748.972 375.3 751.02C377.195 749.126 378.095 745.056 379.11 742.519C381.996 735.303 385.893 728.37 389.375 721.407C397.896 704.364 409.058 688.277 420.152 672.746C442.17 641.921 469.217 613.957 498.444 590.044C510.03 580.565 522.564 572.395 534.213 563.076C533.919 562.783 533.924 562.788 533.631 562.495C535.201 560.924 534.443 560.2 535.676 558.967C532.95 553.515 531.732 545.879 530.403 539.9C529.903 537.648 529.79 534.295 528.639 532.281C528.592 532.198 528.494 532.134 528.433 532.056C528.067 531.587 527.457 531.191 526.725 530.855C526.406 530.711 526.014 530.604 525.655 530.48C525.136 530.297 524.639 530.103 524.079 529.954C524.653 530.105 525.122 530.295 525.655 530.48C526.016 530.606 526.405 530.708 526.725 530.855C527.474 531.193 528.062 531.58 528.433 532.056C528.501 531.936 528.543 531.795 528.639 531.699C530.229 532.494 533.163 532.646 534.213 534.045C535.066 535.183 535.052 537.366 535.395 538.737C536.748 544.149 538.022 549.564 539.786 554.857C540.147 555.939 543.361 562.881 542.714 563.658C539.523 567.487 533.001 570.14 528.939 573.041C520.142 579.325 511.508 585.84 503.136 592.69C478.553 612.803 456.39 635.569 436.29 660.135C419.749 680.352 404.546 703.075 392.884 726.399C388.585 734.997 384.136 743.578 380.574 752.484C379.193 755.937 377.807 762.588 375.3 765.095C372.476 762.27 368.852 750.476 367.081 746.047C361.632 732.426 354.409 719.048 346.851 706.45C325.612 671.053 299.148 639.956 268.858 611.756C255.197 599.037 240.952 586.826 225.752 575.969C222.971 573.982 208.867 565.99 207.868 563.658C207.437 562.653 209.84 558.325 210.214 557.203C212.148 551.401 213.703 545.552 215.187 539.619C215.546 538.183 215.525 535.171 216.369 534.045C217.311 532.789 220.549 531.717 222.074 532.187C223.7 530.334 227.624 529.799 229.862 529.053ZM375.244 408.124C374.337 408.185 373.468 408.389 372.654 408.837C366.761 412.077 376.07 413.623 378.228 413.829C378.503 413.855 378.797 414.134 378.81 414.41C378.996 418.609 378.623 422.823 378.81 427.021C378.884 428.693 382.14 427.799 383.801 427.603C384.076 427.571 384.371 427.298 384.383 427.021C384.57 422.92 384.197 418.812 384.383 414.711C384.481 412.554 388.688 414.306 390.839 414.11C392.4 413.968 392.391 409.257 390.839 409.137C388.5 408.957 386.147 409.175 383.801 409.137C381.015 409.092 377.965 407.94 375.244 408.124ZM351.017 408.593C345.181 409.488 340.649 424.149 338.631 428.185C342.894 432.447 344.852 425.63 345.969 425.257C347.64 424.7 349.485 425.087 351.242 424.957C352.802 424.842 354.682 424.019 355.934 424.957C358.859 427.151 355.112 428.862 362.389 427.303C362.659 427.245 362.775 426.917 362.971 426.721C361.532 423.844 355.746 410.371 353.588 409.137C352.704 408.632 351.851 408.465 351.017 408.593ZM350.66 413.829C351.374 414.542 354.998 420.503 353.306 420.866C352.009 421.144 348.627 421.76 347.432 420.566C348.504 418.422 348.968 415.521 350.66 413.829ZM402.173 409.287C401.81 409.322 401.465 409.452 401.104 409.719C395.353 413.96 407.518 415.067 407.541 415.574C407.727 419.675 407.268 423.807 407.541 427.903C407.64 429.395 410.467 428.971 411.951 428.785C415.922 428.289 413.02 418.198 413.114 416.174C413.208 414.159 417.402 416.296 418.106 415.874C425.24 411.594 416.995 410.768 414.578 410.601C413.209 410.507 411.856 410.392 410.487 410.301C408.923 410.196 407.357 410.149 405.795 410.019C404.412 409.904 403.264 409.184 402.173 409.287ZM324.857 411.483C323.305 411.095 308.885 412.756 307.854 413.528C307.633 413.694 307.282 413.834 307.273 414.11C307.084 419.874 307.084 425.649 307.273 431.413C307.318 432.802 312.069 431.734 312.246 431.713C314.06 431.5 325.59 430.108 325.739 429.367C327.785 419.134 314.051 429.509 312.828 425.839C311.569 422.064 325.236 425.691 324.519 419.609C321.534 417.931 315.9 422.102 312.828 420.566C310.652 419.478 312.356 417.032 314.01 416.756C316.915 416.272 321.68 416.872 324.275 415.574C325.629 414.897 324.885 413.262 325.251 411.877C325.137 411.714 325.038 411.528 324.857 411.483ZM433.063 412.365C432.789 412.401 432.471 412.67 432.462 412.947C432.273 418.613 432.184 424.287 432.462 429.949C432.512 430.97 447.164 433.164 448.601 432.876C450.636 432.469 449.998 427.886 448.019 427.603C446.796 427.428 438.416 427.606 438.336 425.839C438.15 421.738 438.522 417.629 438.336 413.528C438.287 412.447 433.678 412.283 433.063 412.365ZM461.118 416.7C460.467 416.683 460.039 416.781 460.03 417.056C459.841 422.82 459.751 428.58 460.03 434.34C460.087 435.524 464.213 435.676 465.022 435.823C468.938 436.535 474.372 436.679 477.914 438.45C478.749 437.615 478.514 436.948 478.514 435.823C478.514 431.102 463.664 432.927 465.303 429.649C466.469 427.316 473.309 430.813 475.287 430.531C475.802 430.457 477.501 427.768 477.632 427.603C474.988 424.958 466.969 427.126 465.303 423.794C464.054 421.296 469.456 422.814 469.995 422.912C473.883 423.618 479.451 426.451 478.214 420.266C478.086 419.624 468.97 418.213 467.649 417.92C467.026 417.781 463.073 416.749 461.118 416.7ZM287.024 416.756C279.945 416.756 272.597 419.037 272.086 426.139C273.18 427.233 272.074 428.763 273.55 429.649C277.08 431.767 283.108 427.417 287.024 428.485C293.295 430.195 279.751 433.442 279.405 433.477C276.787 433.739 275.69 431.075 272.086 432.876C271.108 440.036 278.793 437.49 283.214 436.686C290.213 435.413 292.898 434.252 292.898 426.44C292.898 424.926 291.514 424.355 290.214 423.925C290.016 424.101 289.793 424.27 289.37 424.375C286.741 425.032 283.305 425.658 280.587 425.839C278.285 425.993 274.87 425.019 278.241 422.611C279.692 421.575 283.186 421.316 284.978 421.148C286.966 420.961 287.046 422.579 288.788 422.33C289.532 422.223 290.08 422.516 290.364 422.893C291.205 422.663 292.083 422.524 292.316 421.748C293.472 417.894 289.915 416.756 287.024 416.756ZM365.617 434.64C362.294 434.738 358.974 434.818 355.652 434.941C354.55 434.982 348.075 434.579 346.55 436.104C347.346 436.9 349.758 439.284 349.778 439.632C350.507 452.024 349.586 464.453 349.778 476.864C349.816 479.315 354.665 477.491 357.116 477.446C360.245 477.389 363.374 477.338 366.499 477.165C373.202 476.792 378.036 469.521 378.228 463.372C378.399 457.9 378.509 452.425 378.509 446.951C378.509 439.392 373.311 435.691 365.617 434.64ZM362.352 443.123C365.733 443.207 370.008 443.885 370.008 447.833C370.008 453.21 369.821 458.577 369.727 463.953C369.716 464.55 369.542 465.242 369.126 465.717C366.709 468.48 358.768 471.074 358.88 466.599C359.07 458.978 358.689 451.345 358.88 443.723C358.887 443.447 359.185 443.143 359.462 443.142C360.195 443.139 361.224 443.095 362.352 443.123ZM390.557 434.903C389.257 434.855 387.979 434.863 386.729 434.941C386.453 434.958 386.158 435.246 386.147 435.522C385.959 440.504 386.335 445.498 386.147 450.479C386.097 451.802 382.529 450.57 381.737 451.361C383.155 452.779 385.911 453.461 386.147 455.452C386.929 462.052 386.054 468.755 386.147 475.401C386.151 475.71 386.27 476.018 386.429 476.283C387.545 478.144 390.717 477.044 392.884 477.165C397.966 477.447 403.062 477.689 408.141 478.028C409.607 478.126 412.428 479.212 412.532 477.746C412.564 477.302 413.839 469.714 411.65 469.245C409.762 468.841 396.631 469.378 396.412 467.481C396.155 465.248 396.233 462.985 396.412 460.744C396.575 458.713 403.878 461.089 404.913 460.744C406.803 460.114 408.808 455.325 409.886 453.707C407.683 451.504 397.379 453.894 396.112 451.361C395.264 449.665 397.072 447.125 396.112 445.206C399.127 442.191 408.162 446.119 411.951 445.487C412.223 445.442 412.513 445.181 412.532 444.906C412.714 442.273 412.795 439.612 412.532 436.986C412.401 435.672 402.926 435.857 402.267 435.823C398.513 435.63 394.458 435.046 390.557 434.903ZM340.695 435.823C340.156 435.789 331.056 435.822 331.012 437.286C330.823 443.539 331.201 449.8 331.012 456.053C331.004 456.329 330.626 456.439 330.43 456.634C323.84 450.044 315.9 444.419 308.736 438.45C308.443 438.645 307.862 438.679 307.854 439.032C307.565 452.908 307.662 466.796 307.854 480.674C307.873 482.01 318.317 480.722 318.401 479.792C319.059 472.555 319.76 466.653 316.656 460.444C316.949 460.151 316.944 460.155 317.238 459.862C324.325 466.95 333.269 472.487 340.977 478.91C342.252 478.06 341.874 478.673 341.859 476.864C341.765 465.82 341.737 454.767 341.577 443.723C341.542 441.278 341.547 438.835 341.277 436.404C341.247 436.13 340.971 435.84 340.695 435.823ZM418.35 436.93C417.18 436.917 416.316 437.012 416.042 437.286C417.46 438.705 420.105 439.673 420.152 441.678C420.436 453.892 419.865 466.114 420.152 478.328C420.185 479.76 430.089 480.213 430.116 479.51C430.304 474.725 429.929 469.921 430.116 465.136C430.143 464.469 430.93 464.513 431.299 464.554C436.723 465.157 437.909 476.515 440.682 480.674C441.82 482.382 445.566 482.101 447.419 482.438C449.299 482.78 451.039 483.809 452.411 482.438C448.389 478.417 446.502 470.021 443.91 464.835C445.962 462.783 449.281 461.533 450.065 458.398C453.849 443.264 441.663 439.413 429.835 438.168C428.166 437.993 421.859 436.968 418.35 436.93ZM431.524 446.426C432.966 446.517 434.523 447.418 435.99 447.552C442.923 448.182 444.408 458.273 434.226 456.916C433.716 456.848 429.618 457.043 429.535 455.752C429.339 452.722 427.355 447.931 430.116 446.67C430.563 446.466 431.043 446.395 431.524 446.426ZM302.581 440.214C300.046 440.637 294.029 440.971 292.016 441.978C291.769 442.102 291.44 442.283 291.434 442.56C291.243 451.55 291.53 460.535 291.434 469.527C291.378 474.806 287.091 478.028 282.051 478.028C278.554 478.028 277.991 473.082 277.941 470.709C277.764 462.305 277.927 453.889 277.641 445.487C277.595 444.144 270.006 445.936 269.14 446.369C268.892 446.493 268.564 446.675 268.558 446.951C268.367 456.332 268.467 465.718 268.558 475.1C268.646 484.212 275.334 488.012 283.515 488.012C294.37 488.012 300.308 476.574 300.517 467.181C300.686 459.559 300.531 451.943 300.817 444.324C300.853 443.379 303.07 441.808 303.745 440.796C303.451 440.503 303.461 440.507 302.581 440.214ZM467.48 443.686C460.062 443.432 453.28 447.201 455.638 456.634C457.958 465.914 468.897 466.73 472.059 473.055C472.585 474.108 472.519 475.401 472.34 476.564C471.471 482.217 458.335 472.578 457.102 471.591C455.233 473.46 455.404 477.333 454.175 479.792C459.896 485.513 479.02 493.272 482.024 481.256C484.24 472.389 479.709 466.92 472.641 462.208C470.243 460.61 463.355 457.455 465.603 453.707C468.799 448.381 476.2 457.798 478.514 457.798C479.376 457.798 481.515 450.438 481.142 449.597C480.861 448.966 480.198 448.588 479.678 448.133C476.607 445.446 471.931 443.838 467.48 443.686ZM248.028 451.061C235.858 451.056 226.714 462.832 224.87 474.819C223.139 486.073 227.142 498.558 240.409 498.558C264.503 498.558 278.371 451.074 248.028 451.061ZM247.84 460.669C261.585 462.081 254.626 488.894 244.218 488.894C228.189 488.894 232.405 462.394 244.8 460.744C245.905 460.597 246.924 460.575 247.84 460.669ZM502.254 451.624C501.555 451.564 501.1 451.643 501.09 451.943C500.901 457.511 500.908 463.077 501.09 468.645C501.106 469.122 501.191 469.471 501.278 469.808C500.187 469.299 498.557 469.002 497.281 468.363C496.987 468.657 496.973 468.652 496.68 468.945C498.055 470.32 499.327 471.779 500.508 473.318C500.5 473.326 500.498 473.328 500.49 473.336C500.587 473.532 500.784 473.718 500.79 473.937C500.98 480.875 500.805 487.814 501.09 494.749C501.15 496.205 511.04 497.532 511.055 497.094C511.244 491.722 510.867 486.347 511.055 480.974C511.065 480.698 511.441 480.569 511.637 480.374C513.152 481.131 518.511 482.845 520.138 482.438C521.772 482.029 523.899 477.678 524.83 476.283C523.156 474.609 511.212 473.058 511.055 471.591C510.795 469.162 510.875 466.69 511.055 464.254C511.076 463.978 511.441 463.867 511.637 463.672C516.123 465.915 522.037 465.504 526.594 467.782C528.396 465.979 527.457 462.677 527.175 460.144C527.146 459.881 526.926 459.724 526.687 459.562C527.358 458.466 526.555 457.992 523.666 457.216C523.64 457.243 523.652 457.265 523.628 457.291C520.806 454.963 512.817 454.414 509.291 453.407C508.592 453.207 504.35 451.805 502.254 451.624ZM218.227 461.72C215.445 461.54 211.914 462.571 209.914 463.372C200.558 467.114 194.675 474.289 194.675 484.484C194.675 491.187 202.742 491.57 207.268 492.103C208.368 492.232 211.803 492.727 211.959 494.448C212.607 501.573 204.639 502.086 199.367 502.086C198.832 502.086 196.642 501.036 196.139 501.204C194.277 501.825 193.852 509.587 192.911 511.469C194.617 513.175 198.941 512.933 201.112 512.933C210.585 512.933 221.436 503.906 222.224 494.448C222.582 490.154 222.846 484.118 217.251 482.719C213.968 481.899 204.264 483.009 204.922 477.746C205.742 471.183 215.438 473.992 218.715 473.336C219.881 473.103 220.433 465.181 221.943 463.672C221.297 462.38 219.896 461.828 218.227 461.72ZM537.44 466.018C526.737 468.693 524.765 480.117 527.175 489.757C530.427 502.763 545.057 516.69 559.434 513.815C562.933 513.115 559.063 503.523 557.971 503.25C556.065 502.773 554.061 503.832 552.097 503.831C545.045 503.831 538.243 496.562 537.159 490.057C534.005 471.132 548.547 475.781 557.67 483.602C558.357 482.915 561.479 476.822 560.898 475.982C557.185 470.619 549.738 467.539 537.44 466.018Z" fill="#FFFFFF" fill-rule="nonzero" opacity="1" stroke="none"/>
</g>
</svg>
