<?xml version="1.0" encoding="UTF-8" standalone="no"?>
<!DOCTYPE svg PUBLIC "-//W3C//DTD SVG 1.1//EN" "http://www.w3.org/Graphics/SVG/1.1/DTD/svg11.dtd">
<!-- Created with Vectornator (http://vectornator.io/) -->
<svg height="100%" stroke-miterlimit="10" style="fill-rule:nonzero;clip-rule:evenodd;stroke-linecap:round;stroke-linejoin:round;" version="1.1" viewBox="0 0 750 1000" width="100%" xml:space="preserve" xmlns="http://www.w3.org/2000/svg" xmlns:vectornator="http://vectornator.io" xmlns:xlink="http://www.w3.org/1999/xlink">
<defs/>
<g id="Layer-1" vectornator:layerName="Layer 1">
<path d="" fill="none" opacity="1" stroke="#f5c81a" stroke-linecap="butt" stroke-linejoin="round" stroke-width="1" vectornator:layerName="path"/>
<path d="M381.436 200.044C355.523 199.792 329.377 200.598 303.204 203.13C288.568 204.547 273.773 207.154 262.366 208.496C233.51 211.891 206.809 217.948 181.712 223.525C174.285 225.176 160.307 229.351 160.011 229.437C157.554 230.151 152.675 231.576 150.229 232.287L136.601 236.252L136.529 250.426C136.517 252.978 136.494 258.083 136.482 260.635C136.482 260.681 135.549 434.276 135.746 521.545C135.778 535.902 139.153 547.728 139.972 553.051C147.325 600.843 168.905 640.977 194.984 677.487C217.859 709.512 248.264 738.004 281.55 757.975C291.196 763.763 305.124 774.756 324.358 781.552C325.634 782.322 326.333 782.848 329.202 784.282C343.129 791.246 365.402 797.206 365.861 797.341L365.908 797.341L365.932 797.365C366.9 797.644 368.835 798.201 369.802 798.48L375.121 800L380.439 798.433C381.406 798.148 383.341 797.578 384.309 797.293L384.333 797.293L384.356 797.293C384.639 797.209 393.265 794.71 399.291 792.45C411.842 787.743 424.62 782.8 438.181 776.02C438.778 775.722 442.37 774.008 445.921 772.15C447.754 771.191 449.823 770.072 452.023 768.707C452.023 768.707 465.209 760.34 465.723 760.041C467.844 758.807 469.605 757.598 470.875 756.693C471.424 756.302 471.983 755.864 472.537 755.435C478.057 752.584 481.936 749.305 483.696 747.837C485.82 746.066 486.355 745.534 486.355 745.534C495.822 739.617 503.316 732.734 509.006 727.561C525.576 712.497 541.776 695.663 555.589 676.324C558.535 672.2 568.489 662.219 574.94 647.168C574.94 647.168 578.096 642.825 581.849 635.32C586.026 626.967 589.348 619.42 592.462 613.192C595.847 606.422 599.632 597.524 601.365 587.122C601.365 587.122 600.945 589.172 601.745 587.194C602.677 584.888 603.958 581.575 605.164 577.554C610.693 559.124 613.903 538.422 613.925 518.292C614.02 432.647 614.085 346.618 614.281 261.015L614.281 260.992L614.281 260.968C614.281 260.677 614.281 260.095 614.281 259.804L614.281 257.715L614.163 257.145L614.068 250.901L613.902 237.13L600.748 233.023C600.101 232.82 576.3 225.127 570.547 223.977C556.611 221.189 540.687 216.784 522.468 213.981C486.556 208.456 447.615 201.958 407.268 200.59C398.652 200.298 390.033 200.127 381.436 200.044ZM381.246 219.038C389.7 219.12 398.175 219.298 406.627 219.584C445.346 220.897 483.512 227.214 519.572 232.761C536.436 235.356 551.951 239.617 566.82 242.591C569.204 243.068 595.074 251.162 595.074 251.162L595.192 259.377L595.287 259.804L595.287 260.968C595.091 346.591 595.026 432.628 594.931 518.268C594.911 536.371 591.954 555.503 586.977 572.093C585.034 578.571 582.81 582.921 582.632 583.988C581.374 591.536 578.331 598.954 575.462 604.692C572.049 611.518 568.765 618.988 564.849 626.82C561.729 633.06 558.543 637.229 557.489 639.689C552.641 650.999 544.701 658.888 540.133 665.283C527.377 683.142 512.147 699.038 496.232 713.505C490.59 718.634 483.896 724.682 476.288 729.436C475.564 729.89 473.874 731.312 471.54 733.259C469.249 735.17 466.174 737.818 461.425 739.717C461.425 739.717 461.601 739.971 459.858 741.213C458.782 741.98 457.653 742.753 456.178 743.611C455.416 744.054 454.597 744.557 453.021 745.13C452.218 745.423 443.623 751.558 442.004 752.562C440.388 753.564 438.737 754.466 437.113 755.316C433.925 756.984 430.692 758.515 429.681 759.02C417.087 765.317 405.038 770.009 392.619 774.666C387.785 776.479 379.112 779.032 378.943 779.083L375.073 780.222L371.203 779.106C370.844 779.001 348.631 772.747 337.702 767.282C333.88 765.372 332.122 764.196 332.122 764.196C315.659 758.708 302.956 748.662 291.332 741.688C260.495 723.185 231.787 696.332 210.441 666.447C185.268 631.205 165.484 593.907 158.753 550.155C157.622 542.805 154.766 532.853 154.74 521.497C154.543 434.376 155.476 260.749 155.476 260.73L155.524 250.521L165.329 247.672C165.498 247.623 179.775 243.417 185.843 242.069C210.985 236.481 236.98 230.618 264.574 227.372C276.801 225.933 291.414 223.348 305.032 222.03C330.377 219.577 355.847 218.791 381.246 219.038ZM382.766 238.127C372.308 238.17 361.675 238.456 350.333 238.578C317.565 238.933 281.789 242.435 249.331 248.337C240.458 249.95 231.014 252.251 221.885 253.655C210.789 255.362 200.573 258.518 189.974 260.445C185.059 261.339 178.591 261.994 174.043 264.268C173.794 264.393 173.45 264.583 173.449 264.862C173.253 348.432 173.253 432.015 173.449 515.585C173.508 540.378 181.093 566.246 188.811 589.402C191.591 597.741 196.185 605.214 199.424 613.311C203.072 622.431 210.007 630.322 214.501 639.309C221.53 653.369 235.878 668.791 246.387 680.052C255.214 689.509 264.795 698.359 274.736 706.643C284.571 714.84 295.346 722.385 306.029 728.795C309.29 730.752 312.358 733.312 315.787 734.684C321.04 736.785 325.66 741.604 331.125 742.97C338.176 744.733 344.064 750.681 351.212 752.111C356.386 753.146 362.617 756.593 367.76 758.308C369.66 758.941 372.072 760.682 374.242 760.682C380.42 760.682 387.73 756.682 392.856 754.485C398.714 751.974 413.291 748.172 416.765 743.54C415.171 741.946 413.762 738.796 412.943 736.749C410.808 731.412 406.762 726.959 404.657 721.696C403.658 719.201 401.898 716.522 400.24 714.312C398.445 711.918 396.609 707.904 395.516 705.171C392.818 698.427 388.089 692.978 384.879 686.557C381.972 680.744 379.128 674.157 375.144 668.845C372.576 665.421 371.685 660.781 368.924 657.33C367.81 655.938 356.752 655.918 354.464 655.264C348.033 653.427 335.555 650.959 330.247 646.978C322.802 641.395 313.553 638.262 306.338 631.046C296.571 621.28 289.039 611.38 282.405 600.323C280.048 596.394 279.103 591.963 277.087 587.93C274.308 582.373 274.412 575.737 272.955 569.909C269.46 555.926 270.935 537.293 275.615 523.254C276.645 520.162 284.32 504.654 283.877 502.883C282.911 499.018 279.121 495.254 277.68 491.653C275.627 486.52 271.892 482.142 269.418 477.193C263.148 464.654 254.149 452.437 249.046 439.68C246.699 433.81 242.188 428.92 239.882 423.155C236.209 413.973 229.839 406.298 225.422 397.465C224.909 396.438 220.584 389.377 222.17 389.179C227.466 388.517 229.331 393.149 231.334 397.156C236.697 407.881 244.35 418.383 248.738 429.352C250.799 434.504 254.555 438.587 257.024 443.526C263.586 456.651 270.741 470.243 278.274 482.797C280.923 487.211 284.088 491.991 285.966 496.686C286.855 498.908 289.337 500.909 289.789 503.168C290.147 504.959 286.88 509.338 285.966 510.86C282.9 515.972 280.372 523.353 279.152 529.451C275.932 545.551 276.245 561.522 279.461 577.601C285.175 606.174 310.002 633.742 336.444 644.319C344.976 647.732 354.678 650.443 363.914 651.703C364.381 651.766 371.389 651.062 372.485 652.89C381.352 667.668 389.907 683.008 397.581 698.357C400.571 704.336 403.401 710.873 407.316 716.093C411.359 721.484 414.911 729.195 417.952 735.277C418.754 736.88 419.694 740.576 421.49 741.474C421.81 741.634 434.426 735.353 434.786 734.992C434.819 735.036 434.97 735.231 435.024 735.301C435.045 735.288 435.049 735.291 435.071 735.277C434.74 734.283 434.05 733.386 433.385 732.523C433.423 732.254 433.468 731.997 433.314 731.74C430.336 726.776 427.956 721.527 425.052 716.687C414.242 698.67 403.112 679.621 393.735 660.867C390.655 654.708 387.528 646.69 383.098 641.375C382.447 640.593 380.8 635.248 379.56 635.178C374.548 634.894 369.524 635.367 364.507 635.178C360.991 635.045 354.375 633.222 351.212 631.64C346.377 629.223 340.879 628.636 336.159 626.013C322.997 618.701 311.962 607.228 304.272 594.411C302.477 591.42 299.888 588.232 298.954 584.962C297.331 579.282 294.103 572.501 293.635 566.656C292.738 555.442 292.757 544.468 295.107 533.891C296.648 526.957 299.669 520.305 302.776 514.09C304.012 511.618 308.544 507.644 308.095 504.949C307.571 501.808 303.918 498.946 302.776 496.092C299.834 488.736 294.808 482.507 291.261 475.413C284.272 461.434 276.671 446.751 268.539 433.198C265.479 428.098 261.726 423.015 259.374 417.528C257.143 412.321 253.847 407.707 251.112 402.783C248.982 398.949 247.568 393.613 244.322 390.366C244.518 390.169 244.637 389.784 244.915 389.772C249.341 389.584 253.762 389.584 258.187 389.772C258.955 389.805 259.339 390.865 259.683 391.553C263.613 399.412 267.914 407.765 272.362 415.177C273.965 417.849 276.677 420.739 277.68 423.748C279.755 429.972 284.87 438.375 288.317 444.12C297.703 459.764 305.504 476.326 314.885 491.961C315.79 493.469 323.547 506.451 323.171 507.014C320.903 510.416 317.848 513.167 315.787 516.464C306.841 530.778 303.616 549.802 306.623 567.843C307.215 571.4 309.242 575.208 310.469 578.48C319.148 601.623 339.565 616.471 362.442 622.19C369.511 623.958 377.002 622.984 384.285 622.76C385.097 622.735 385.872 621.993 386.659 622.19C387.96 622.516 390.975 629.943 391.669 631.331C395.18 638.353 399.689 645.021 403.184 652.011C407.73 661.102 413.74 669.252 418.261 678.295C423.381 688.533 429.135 699.101 435.071 708.994C436.514 711.399 442.547 724.274 445.233 727.205C445.286 727.151 445.328 727.109 445.423 727.015C447.797 728.202 454.262 722.59 456.345 721.103C467.55 713.099 479.066 704.886 488.825 695.128C510.396 673.557 533.03 648.053 546.71 620.695C552.729 608.656 557.813 596.733 563.235 584.083C566.711 575.971 567.615 567.138 570.025 558.702C572.114 551.391 574.397 543.305 575.058 535.363C575.747 527.103 576.521 519.084 576.53 510.86C576.625 428.865 576.727 346.857 576.53 264.862C576.527 263.465 571.531 262.947 570.927 262.796C565.191 261.362 559.481 259.752 553.5 258.665C546.252 257.347 538.884 255.204 531.657 253.655C523.699 251.95 515.102 251.131 507.439 249.215C497.385 246.702 486.596 246.808 476.431 244.775C469.373 243.364 462.257 243.457 455.157 242.71C442.112 241.336 427.784 240.312 414.106 239.172C403.494 238.288 393.223 238.084 382.766 238.127ZM236.724 272.222C244.831 272.371 252.184 274.832 258.781 279.63C272.863 289.871 277.244 304.919 275.33 322.153C274.7 327.821 270.428 333.779 267.352 338.393C266.861 339.13 274.373 349.28 275.33 350.81C275.539 351.146 275.338 352.265 274.736 352.283C268.341 352.473 261.923 352.473 255.528 352.283C254.615 352.255 254.996 349.908 253.178 349.908C249.805 349.908 247.049 353.161 243.728 353.161C236.455 353.161 228.818 353.81 222.454 351.689C210.402 347.671 198.011 334.614 195.886 321.868C194.974 316.395 194.989 309.823 195.886 304.441C196.065 303.369 197.208 302.108 197.358 300.903C197.796 297.406 200.548 291.208 203.27 288.486C207.464 284.292 212.319 279.248 217.445 276.686C220.467 275.175 225.219 273.35 228.366 272.839C231.236 272.373 234.021 272.172 236.724 272.222ZM529.591 288.794C531.682 288.69 533.777 288.709 535.788 288.794C542.457 289.078 549.6 294.539 554.094 299.407C550.366 302.669 546.95 305.673 543.457 309.166C539.041 306.958 537.278 303.575 532.226 302.969C530.076 302.711 527.903 302.789 525.745 302.969C523.052 303.193 519.698 306.941 522.207 309.451C524.774 312.018 527.697 311.745 531.063 312.418C538.195 313.845 548.729 315.839 552.621 323.625C553.222 324.827 554.649 326.852 554.687 328.065C554.873 334.004 554.356 337.613 552.621 342.239C550.803 347.087 544.774 350.472 540.513 351.689C525.84 355.881 512.385 354.569 501.527 343.711C499.41 345.828 502.983 352.248 500.34 352.283C485.576 352.477 470.825 352.283 456.06 352.283C455.702 352.283 454.879 352.419 454.872 351.689C454.678 331.216 454.678 310.74 454.872 290.266C454.875 289.988 455.227 289.816 455.466 289.673C455.733 289.513 456.033 289.392 456.345 289.388C463.333 289.293 470.321 289.388 477.309 289.388C477.506 289.388 477.706 289.388 477.903 289.388C484.498 289.388 491.092 289.106 497.681 289.388C498.098 289.406 498.555 289.85 498.583 290.266C498.857 294.293 498.77 298.344 498.583 302.375C498.246 309.627 472.449 296.237 471.991 303.562C471.807 306.51 471.807 309.471 471.991 312.418C472.008 312.696 472.306 313.004 472.585 313.012C479.571 313.203 486.563 312.821 493.549 313.012C493.828 313.02 494.13 313.304 494.143 313.582C494.331 317.712 494.331 321.869 494.143 325.999C494.13 326.277 493.828 326.585 493.549 326.593C486.563 326.784 479.571 326.401 472.585 326.593C472.306 326.6 472.005 326.908 471.991 327.186C471.804 330.922 471.804 334.657 471.991 338.393C472.005 338.671 472.306 338.984 472.585 338.987C481.444 339.083 490.294 338.796 499.153 338.702C503.153 338.659 508.396 333.624 511.855 331.318C513.904 333.879 518.974 338.886 522.777 338.987C529.669 339.168 534.674 340.596 537.545 334.855C538.788 332.369 533.582 329.907 532.226 329.537C522.646 326.924 507.162 327.38 504.186 314.484C499.798 295.47 514.953 289.522 529.591 288.794ZM324.358 288.842C328.254 288.62 332.25 289.206 336.159 289.388C336.437 289.401 336.748 289.679 336.752 289.958C336.946 303.343 336.946 316.745 336.752 330.13C336.592 341.211 325.971 349.827 316.381 352.567C315.625 352.783 314.118 353.715 313.413 353.755C310.071 353.94 306.711 353.94 303.37 353.755C295.244 353.303 283.809 345.345 282.405 336.921C282.238 335.921 280.945 334.591 280.933 333.668C280.739 319.2 280.644 304.733 280.933 290.266C280.941 289.849 281.395 289.421 281.811 289.388C286.424 289.019 291.074 288.985 295.701 289.079C296.791 289.101 298.016 289.175 298.051 290.86C298.336 304.539 297.857 318.23 298.051 331.911C298.055 332.19 298.502 332.242 298.645 332.481C299.868 334.519 301.369 338.877 304.557 338.987C309.493 339.157 319.32 339.536 319.61 331.911C319.901 324.239 319.61 316.535 319.61 308.857C319.61 302.656 319.328 296.461 319.61 290.266C319.629 289.849 320.105 289.482 320.512 289.388C321.783 289.095 323.06 288.916 324.358 288.842ZM440.983 289.055C444.038 289.088 447.1 289.243 450.148 289.388C451.463 289.451 447.333 296.443 446.895 297.057C443.127 302.333 438.642 308.525 436.258 314.484C435.712 315.849 432.72 318.354 432.72 319.802C432.721 321.357 436.256 324.778 437.16 326.284C440.906 332.528 444.597 339.208 448.367 345.492C448.977 346.51 453.286 351.616 451.62 352.283C451.163 352.465 450.64 352.283 450.148 352.283C444.537 352.282 438.906 352.741 433.314 352.283C431.672 352.148 429.481 345.87 428.874 344.899C425.571 339.614 421.145 334.118 418.261 328.35C417.099 326.025 416.042 323.211 414.106 321.274C413.909 321.471 413.542 321.59 413.536 321.868C413.343 331.808 413.729 341.749 413.536 351.689C413.531 351.967 413.221 352.27 412.943 352.283C408.911 352.47 404.865 352.47 400.834 352.283C400.556 352.27 400.384 351.928 400.24 351.689C399.675 350.747 396.997 342.773 396.988 341.931C396.793 324.607 396.793 307.281 396.988 289.958C396.991 289.679 397.308 289.439 397.581 289.388C398.939 289.133 400.331 289.079 401.712 289.079C405.356 289.079 409.009 289.025 412.634 289.388C413.05 289.429 413.523 289.849 413.536 290.266C413.822 299.318 413.344 308.374 413.536 317.428C413.542 317.706 413.909 317.825 414.106 318.022C415.706 316.422 416.892 314.05 417.668 312.11C419.875 306.591 424.447 301.673 427.402 296.748C428.074 295.628 430.431 289.516 431.842 289.388C434.881 289.112 437.928 289.023 440.983 289.055ZM355.651 289.388C362.145 289.197 368.648 289.292 375.144 289.388C376.428 289.407 379.626 301.713 380.154 303.562C382.665 312.352 386.45 320.93 389.319 329.537C391.718 336.734 393.03 344.652 396.394 351.38C396.099 351.676 395.933 352.261 395.516 352.283C390.207 352.562 384.872 352.472 379.56 352.283C377.674 352.215 378.431 344.693 376.308 344.59C370.507 344.309 364.709 344.78 358.904 344.59C358.432 344.574 358.129 343.79 358.311 343.426C360.015 340.018 360.566 333.019 363.32 330.724C365.329 329.05 371.666 332.681 372.176 330.13C372.336 329.333 365.79 311.327 365.386 310.923C363.272 313.037 362.635 318.806 361.848 321.559C359.018 331.464 355.716 341.774 352.114 351.38C351.967 351.771 351.629 352.261 351.212 352.283C345.903 352.562 340.592 352.472 335.28 352.283C335.002 352.273 334.811 351.938 334.687 351.689C334.495 351.306 338.174 341.939 338.509 340.767C342.061 328.336 347.055 316.319 350.618 303.847C351.476 300.844 353.205 292.274 355.058 289.958C355.232 289.74 355.373 289.396 355.651 289.388ZM358.382 362.207C362.176 362.311 367.534 364.01 368.045 367.929C368.56 371.879 368 376.145 364.199 378.257C357.879 381.768 343.53 377.404 348.267 367.929C350.149 364.167 352.394 363.889 355.343 362.611C356.024 362.315 357.117 362.172 358.382 362.207ZM280.933 362.611C287.413 363.185 288.504 362.779 289.195 363.204C290.087 363.753 290.561 364.777 291.261 365.555C295.171 369.899 283.483 365.576 282.12 367.62C285.026 370.526 292.448 367.817 292.448 374.435C292.448 380.448 276.377 380.834 275.33 375.598C274.267 370.287 284.877 377.467 286.251 374.719C286.617 373.989 285.764 373.845 285.373 373.532C282.626 371.335 273.482 373.264 276.208 365.863C276.959 363.826 279.759 363.785 280.933 362.611ZM374.242 362.611C380.95 363.117 381.932 362.807 382.528 363.204C392.986 370.176 376.529 365.971 375.429 367.62C377.707 369.898 384.1 368.14 385.472 372.06C388.38 380.366 371.139 382.245 368.924 375.598C367.495 371.313 377.231 375.58 378.967 375.313C379.286 375.264 379.851 374.513 379.56 374.126C378.102 372.181 364.796 371.518 370.419 365.27C372.61 362.836 372.706 364.147 374.242 362.611ZM326.448 362.753C327.546 362.703 328.455 362.907 328.49 363.798C328.679 368.617 328.679 373.438 328.49 378.257C328.431 379.746 325.528 379.035 324.05 378.851C322.164 378.615 318.831 373.062 317.544 371.775C315.718 373.602 318.821 378.502 316.381 378.851C312.98 379.337 311.235 378.288 311.063 375.004C310.829 370.57 309.685 363.552 311.656 363.204C317.371 362.196 319.007 367.327 322.269 370.588C322.564 370.293 322.567 370.29 322.863 369.995C321.988 368.246 321.03 363.442 323.171 363.204C324.057 363.106 325.349 362.803 326.448 362.753ZM342.094 362.801C343.39 362.632 344.88 363.072 346.202 363.204C346.479 363.232 346.782 363.52 346.795 363.798C347.048 368.985 348.317 373.891 345.3 377.664C344.023 379.26 337.951 380.178 337.631 378.257C336.681 372.561 340.183 376.1 340.29 374.126C340.487 370.484 337.746 365.064 340.883 363.204C341.264 362.978 341.662 362.857 342.094 362.801ZM298.526 362.99L306.314 363.062L310.516 378.946L305.364 378.874L304.747 376.785L299.405 376.334L298.241 379.041L292.496 378.732L298.526 362.99ZM434.715 362.99C437.612 363.258 440.348 364.593 441.577 367.051C441.758 367.414 441.885 367.808 441.885 368.214C441.885 370.283 442.231 372.471 441.577 374.435C439.519 380.606 427.707 380.623 425.052 375.313C426.224 374.141 428.673 374.35 428.589 374.435C431.538 376.785 438.096 375.989 438.632 372.06C437.498 373.251 431.652 373.621 428.85 373.247C426.049 372.873 425.201 372.073 425.052 370.28C424.615 365.045 429.887 362.544 434.715 362.99ZM387.253 363.204C392.368 363.015 397.476 363.015 402.591 363.204C403.518 363.239 403.234 365.815 402.686 366.837C402.646 366.692 402.63 366.608 402.591 366.457C399.539 366.555 396.472 366.31 393.45 366.742C392.491 366.879 391.373 369.611 392.856 369.71C393.433 369.748 394.012 369.709 394.59 369.71C395.187 369.834 395.854 369.802 396.56 369.71C398.081 369.661 399.602 369.609 401.119 369.71C401.442 369.731 401.777 371.027 402.306 372.084C402.304 372.094 402.308 372.098 402.306 372.108C402.212 372.098 402.199 372.054 401.997 372.06C398.847 372.153 395.687 372.068 392.548 372.345C391.465 372.441 391.471 375.256 392.548 375.313C396.086 375.499 399.651 375.585 403.184 375.313C403.262 375.307 403.31 375.231 403.374 375.194C404.011 376.199 403.87 378.798 402.9 378.851C397.789 379.129 392.653 379.04 387.538 378.851C387.26 378.84 386.961 378.535 386.944 378.257C386.661 373.441 386.565 368.621 386.659 363.798C386.665 363.519 386.975 363.214 387.253 363.204ZM419.733 363.204C420.463 363.118 422.057 363.491 422.084 364.676C422.18 369.031 421.941 378.4 421.941 378.4L416.837 378.186L417.074 369.069L412.895 369.852L412.895 365.412C412.895 365.412 418.481 363.352 419.733 363.204ZM443.951 363.204C450.586 364.465 456.074 363.121 457.223 364.652C459.358 367.498 452.413 373.33 451.62 375.313C451.389 375.889 451.182 378.736 450.148 378.851C442.675 379.681 444.196 375.044 447.773 371.467C449.056 370.185 450.618 369.215 451.905 367.929C451.58 367.604 438.594 368.561 443.951 363.204ZM470.59 363.299C471.807 363.337 472.793 363.684 472.87 364.676C473.051 367.032 472.688 369.42 472.87 371.775C472.95 372.824 475.055 372.022 475.244 373.532C475.274 373.777 472.727 374.886 472.727 374.886C472.727 374.886 472.683 378.385 472.561 378.4C471.095 378.572 469.041 379.023 467.575 378.851C466.212 378.69 467.754 376.594 466.388 376.5C463.736 376.317 461.062 376.683 458.41 376.5C455.635 376.309 458.526 372.23 459.289 371.467C461.626 369.129 463.876 364.637 466.981 363.798C467.942 363.538 469.373 363.261 470.59 363.299ZM214.619 368.048C231.301 367.857 248.009 368.376 264.693 368.523C266.482 368.538 266.239 373.532 263.814 373.532C241.864 373.532 219.902 373.727 197.952 373.532C196.256 373.517 196.428 368.593 197.952 368.523C203.507 368.266 209.059 368.111 214.619 368.048ZM501.361 368.071C518.338 367.89 535.334 368.376 552.313 368.523C553.815 368.536 553.441 373.523 552.313 373.532C529.576 373.727 506.837 373.727 484.1 373.532C482.144 373.516 482.978 368.584 484.408 368.523C490.063 368.281 495.702 368.132 501.361 368.071ZM391.669 388.941C400.037 388.906 408.402 388.938 416.765 389.179C417.989 389.214 419.341 393.429 419.733 394.212C422.508 399.761 425.158 406.684 428.874 411.639C433.152 417.343 436.897 425.761 439.511 432.296C443.9 443.269 450.878 452.94 456.06 463.304C458.617 468.418 460.977 476.507 465.201 480.731C467.948 477.068 470.644 472.167 472.3 468.029C475.104 461.018 480.137 454.989 483.506 448.251C485.409 444.446 487.215 439.593 490.154 436.166C489.758 435.489 489.86 435.027 490.178 434.622C488.305 432.984 487.433 429.488 486.474 427.571C482.634 419.89 478.342 413.165 475.244 405.419C473.435 400.896 470.555 396.944 468.453 392.74C468.207 392.248 466.665 389.197 468.145 389.179C483.893 388.984 499.646 388.887 515.393 389.179C516.77 389.204 514.662 392.372 514.514 392.74C512.825 396.963 509.733 400.523 507.724 404.54C504.68 410.628 500.988 416.255 497.989 422.252C496.038 426.156 494.354 430.733 491.436 434.005C491.85 434.419 492.258 434.85 492.671 435.264C512.456 435.264 532.245 434.973 552.028 435.264C552.446 435.27 552.646 435.816 552.906 436.142C553.044 436.314 553.19 436.515 553.191 436.736C553.288 450.122 553.191 463.498 553.191 476.885C553.191 477.413 553.59 482.194 552.313 482.203C523.374 482.399 494.447 481.911 465.509 482.203C465.054 482.208 460.363 491.285 459.882 492.246C455.732 500.546 450.449 508.168 446.301 516.464C444.789 519.488 443.498 523.398 440.983 525.913C439.742 525.293 439.585 524.961 438.632 525.913C435.593 521.861 433.018 516.757 431.248 512.333C428.424 505.271 423.385 499.179 420.612 492.246C418.878 487.912 415.882 484.259 413.821 480.137C407.543 467.581 400.353 455.552 394.043 442.932C388.268 431.38 381.547 420.005 375.738 408.387C372.674 402.259 369.841 395.565 365.98 389.772C366.176 389.575 366.295 389.182 366.573 389.179C374.939 389.082 383.301 388.977 391.669 388.941ZM264.693 389.179C319.705 394.58 322.267 404.322 326.115 410.737C332.402 421.214 339.849 433.284 344.421 444.713C346.797 450.653 351.241 455.684 353.586 461.547C356.013 467.614 360.326 472.663 362.727 478.665C363.251 479.975 366.237 482.914 365.695 484.269C364.93 486.18 356.907 486.697 354.749 487.236C344.803 489.723 334.53 495.94 326.994 503.476C324.109 500.592 322.843 496.249 320.797 492.84C317.44 487.244 313.492 481.201 311.063 475.128C309.249 470.595 305.848 466.764 303.678 462.425C296.062 447.193 286.753 432.729 279.152 417.528C275.341 409.905 270.842 402.95 267.067 395.399C266.338 393.942 263.166 390.706 264.693 389.179ZM369.755 487.308C371.064 487.39 372.382 487.649 373.648 487.83C374.745 487.987 372.933 497.457 372.485 498.443C371.72 500.127 367.857 501.234 366.573 502.004C360.089 505.895 356.5 511.801 348.267 512.024C344.818 512.117 341.343 512.05 337.939 512.617C336.987 512.776 330.512 514.386 330.247 512.926C329.991 511.519 328.896 507.474 329.368 506.136C329.955 504.473 334.72 501.624 335.85 500.817C342.409 496.132 348.756 492.574 355.936 490.181C358.68 489.266 363.436 488.933 365.98 487.83C367.153 487.321 368.445 487.226 369.755 487.308ZM376.308 487.83C387.446 489.94 392.566 489.762 396.109 490.774C405.249 493.386 413.647 499.479 420.897 506.729C420.362 507.799 420.563 513.39 419.14 513.52C416.251 513.782 414.097 512.219 411.756 512.024C407.942 511.706 399.837 512.174 395.516 511.145C393.686 510.71 392.853 508.474 391.384 507.299C388.271 504.808 384.079 501.714 380.463 500.509C377.662 499.575 375.105 489.032 376.308 487.83ZM334.33 513.615C337.847 513.614 341.462 515.55 345.3 515.87C347.264 516.034 349.488 515.222 351.212 516.179C353.052 517.201 353.107 519.796 353.586 521.474C354.592 524.997 360.013 532.22 358.002 536.242C356.707 538.831 354.713 541.117 353.586 543.934C351.931 548.071 350.29 553.719 347.674 557.206C346.967 558.149 346.809 562.016 345.015 562.24C340.226 562.838 335.88 562.627 331.434 562.24C329.176 562.044 326.384 563.382 324.643 561.931C322.488 560.135 322.058 557.238 321.106 554.856C319.36 550.492 315.546 544.217 316.381 539.209C317.459 532.741 324.626 517.436 330.84 514.398C331.989 513.837 333.158 513.615 334.33 513.615ZM413.228 514.398C421.9 515.781 424.356 520.723 425.621 523.254C427.398 526.806 434.48 536.134 434.169 539.66C434.076 539.613 434.017 539.5 433.908 539.494C431.89 539.391 433.121 541.729 432.72 543.934C432.487 545.221 431.559 546.669 431.248 547.757C431.183 547.986 431.147 549.217 431.106 550.25C430.845 550.871 430.608 551.674 430.346 552.197C429.149 554.592 428.38 560.461 425.93 561.931C425.663 562.091 425.363 562.227 425.052 562.24C418.572 562.499 411.675 563.525 405.25 562.24C403.559 561.902 402.815 557.6 402.306 556.328C399.433 549.146 394.381 542.593 391.669 535.363C390.826 533.115 394.682 529.873 393.735 527.979C396.421 525.293 395.525 518.139 399.053 516.179C401.975 514.556 411.189 516.437 413.228 514.398ZM495.758 527.86C514.214 527.897 532.669 527.979 551.126 527.979C552.042 530.727 550.957 533.376 550.556 535.648C548.953 544.732 548.487 556.001 544.335 564.305C543.705 565.566 541.887 574.93 540.513 574.942C507.539 575.235 474.551 575.138 441.577 574.942C441.298 574.941 441.071 574.613 440.983 574.349C440.663 573.389 443.71 564.726 443.951 563.118C445.504 552.767 444.185 538.206 439.511 528.858C439.806 528.562 439.972 527.982 440.389 527.979C458.845 527.833 477.301 527.824 495.758 527.86ZM374.836 537.737C378.25 537.879 381.706 538.597 384.879 539.494C388.295 540.46 389.84 544.568 392.263 547.163C392.599 547.523 392.834 547.966 393.141 548.35C395.344 551.104 403.133 559.302 403.778 562.525C404.136 564.312 401.975 566.201 401.427 567.843C399.588 573.363 396.388 577.899 393.735 583.205C392.826 585.023 392.112 587.749 390.197 589.117C389.197 589.831 384.522 590.28 382.813 590.28C377.202 590.28 371.59 590.09 365.98 589.995C356.613 589.836 355.513 580.41 351.52 573.755C350.563 572.16 345.859 563.803 346.795 561.931C350.697 554.127 356.9 543.556 365.101 539.494C368.056 538.031 371.421 537.596 374.836 537.737ZM314.6 539.803C316.983 541.909 318.89 555.047 320.203 558.987C320.633 560.277 322.578 562.074 322.578 563.427C322.578 564.933 321.72 567.328 321.676 568.437C321.487 573.158 321.487 577.89 321.676 582.611C321.703 583.305 323.638 587.592 323.171 588.214C323.155 588.236 323.14 588.241 323.124 588.262C323.011 588.146 323.002 588.068 322.863 587.93C322.006 588.358 321.248 588.715 320.536 589.235C319.135 588.605 317.961 586.366 317.259 584.962C313.713 577.869 309.74 568.389 309.59 560.459C309.496 555.439 309.786 550.427 309.875 545.406C309.896 544.25 310.137 540.928 311.063 540.373C311.85 539.9 314.402 539.628 314.6 539.803ZM435.665 540.088C441.203 540.383 440.911 546.724 440.983 548.944C441.059 551.305 441.164 553.688 440.983 556.043C440.21 566.087 437.635 574.848 433.314 583.49C432.492 585.135 431.61 588.485 429.776 589.402C425.231 591.675 428.848 581.189 428.874 580.237C428.957 577.187 429.059 574.142 428.874 571.096C428.796 569.799 426.936 565.344 427.402 563.712C428.262 560.703 433.416 555.035 431.842 551.888C434.508 549.222 432.681 541.58 435.665 540.088ZM427.616 589.9C429.499 589.719 426.876 594.205 425.621 595.598C424.177 597.203 422.732 598.797 421.205 600.323C419.922 601.607 418.446 602.672 417.074 603.861C415.675 605.073 403.138 614.513 402.306 612.432C402.187 612.135 404.281 606.577 404.657 605.95C406.215 603.352 410.738 602.41 413.228 600.917C418.256 597.9 421.01 593.088 426.524 590.28C426.993 590.041 427.347 589.926 427.616 589.9ZM323.836 590.446C326.216 590.956 328.686 595.047 330.555 596.501C332.389 597.927 343.545 603.842 344.753 605.024C344.748 605.034 344.735 605.038 344.73 605.048C344.054 606.231 345.903 611.051 347.84 612.456C345.836 613.865 333.103 604.058 331.434 602.389C329.415 600.37 327.467 598.281 325.522 596.192C324.261 594.838 322.533 592.897 321.676 591.182C322.044 590.814 322.434 590.574 322.815 590.47C323.149 590.379 323.496 590.373 323.836 590.446ZM359.783 590.589C367.973 591.179 374.483 591.904 382.813 591.776C384.84 591.745 388.891 590.272 390.791 590.589C392.41 590.859 394.276 595.075 395.207 596.192C397.542 598.994 400.245 601.081 402.33 604.146C401.12 606.679 401.523 610.176 400.24 612.741C400.361 612.861 400.458 612.846 400.573 612.931C400.254 613.67 399.928 614.31 399.647 614.498C391.982 619.608 375.113 619.445 366.858 618.344C364.774 618.066 347.401 615.637 349.146 612.147C343.729 606.73 350.226 601.256 353.586 597.379C355.058 595.68 357.474 591.358 359.783 590.589ZM496.802 620.41C519.4 622.336 514.299 628.385 513.042 630.144C506.267 639.63 499.595 649.227 491.769 657.923C490.325 659.528 488.814 661.059 487.353 662.648C487.263 662.745 482.998 667.645 482.628 667.658C460.887 668.417 439.113 667.755 417.359 667.658C416.114 667.652 411.693 657.926 410.568 656.427C408.351 653.471 406.039 648.962 404.657 645.506C401.323 637.172 395.367 629.254 391.384 621.288C391.581 621.091 391.699 620.697 391.978 620.695C426.921 620.401 461.858 620.508 496.802 620.41ZM232.213 288.794C230.675 290.332 227.122 290.141 225.114 291.145C221.227 293.088 217.147 297.124 214.786 300.903C207.378 312.755 213.626 330.758 226.894 335.734C230.177 336.965 243.712 338.148 244.915 335.14C245.098 334.683 239.588 326.584 239.003 325.999C239.2 325.704 239.242 325.115 239.597 325.097C245.102 324.812 250.613 325.287 256.122 325.097C257.305 325.056 257.74 321.533 257.902 320.966C259.267 316.191 260.66 310.369 258.496 305.319C256.323 300.249 252.353 294.918 247.266 291.738C245.089 290.378 240.763 290.553 232.213 288.794ZM358.026 365.436C357.573 365.512 357.017 365.732 356.245 366.148C351.126 368.911 352.356 376.87 360.068 375.907C363.316 375.501 363.831 368.339 361.255 367.051C359.693 366.27 359.384 365.207 358.026 365.436ZM432.982 366.457C430.491 366.457 428.471 367.308 428.471 368.356C428.471 369.405 430.491 370.256 432.982 370.256C435.473 370.256 437.493 369.405 437.493 368.356C437.493 367.308 435.473 366.457 432.982 366.457ZM302.325 367.193C301.067 368 301.405 369.23 300.948 370.256C299.573 373.345 298.116 373.77 304.723 373.77C304.078 371.422 303.691 368.619 302.325 367.193ZM467.575 368.214C465.721 368.832 462.328 373.247 462.328 373.247L467.361 373.247C467.361 373.247 467.592 369.725 467.575 368.214ZM492.671 435.264C491.727 435.264 491.604 435.384 490.89 434.67C491.091 434.469 491.247 434.217 491.436 434.005C491.358 433.926 491.278 433.846 491.199 433.768C490.626 434.054 490.399 434.341 490.178 434.622C490.417 434.831 490.615 435.126 490.89 435.264C490.62 435.534 490.407 435.872 490.154 436.166C490.209 436.259 490.229 436.325 490.297 436.427C491.192 435.979 491.94 435.994 492.671 435.264Z" fill="#FFFFFF" fill-rule="nonzero" opacity="1" stroke="none" vectornator:layerName="path"/>
</g>
</svg>
