<?xml version="1.0" encoding="UTF-8" standalone="no"?>
<!DOCTYPE svg PUBLIC "-//W3C//DTD SVG 1.1//EN" "http://www.w3.org/Graphics/SVG/1.1/DTD/svg11.dtd">
<!-- Created with Vectornator (http://vectornator.io/) -->
<svg height="100%" stroke-miterlimit="10" style="fill-rule:nonzero;clip-rule:evenodd;stroke-linecap:round;stroke-linejoin:round;" version="1.1" viewBox="0 0 750 1000" width="100%" xml:space="preserve" xmlns="http://www.w3.org/2000/svg" xmlns:vectornator="http://vectornator.io" xmlns:xlink="http://www.w3.org/1999/xlink">
<defs/>
<g id="Layer-1" vectornator:layerName="Layer 1">
<path d="" fill="none" opacity="1" stroke="#f5c81a" stroke-linecap="butt" stroke-linejoin="round" stroke-width="1" vectornator:layerName="path"/>
<path d="M375 200C375 200 350.287 200.772 326.546 203.36C302.806 205.947 273.131 210.801 244.52 219.323C215.91 227.845 195.372 235.456 176.653 244.282C157.935 253.109 142.855 262.095 142.855 262.095C142.855 262.095 129.519 296.297 122.225 326.264C114.93 356.23 110.184 389.737 109.396 419.112C108.607 448.488 108.191 482.739 122.924 530.337C137.657 577.935 157.859 615.133 176.18 641.765C194.501 668.397 239.15 713.766 272.997 737.86C306.844 761.955 375 800 375 800C375 800 443.156 761.955 477.003 737.86C510.85 713.766 555.499 668.397 573.82 641.765C592.142 615.132 612.343 577.935 627.076 530.337C641.809 482.739 641.393 448.488 640.604 419.112C639.816 389.737 635.07 356.23 627.775 326.264C620.481 296.297 607.145 262.095 607.145 262.095C607.145 262.095 592.065 253.109 573.347 244.282C554.628 235.456 534.09 227.845 505.48 219.323C476.869 210.801 447.194 205.947 423.454 203.36C399.713 200.772 375 200 375 200ZM350.694 215.58C351.585 215.601 352.525 215.794 353.355 215.941C353.969 216.049 355.355 219.206 355.722 219.819C358.173 223.904 361.032 228.07 363.14 232.287C362.942 232.485 362.832 232.843 362.554 232.874C360.98 233.049 359.359 233.134 357.797 232.874C356.974 232.737 356.796 230.32 355.722 230.213C354.045 230.045 352.355 230.401 350.672 230.506C348.693 230.63 346.564 230.018 344.742 230.799C342.642 231.699 341.191 237.665 337.301 233.776C339.807 228.764 343.93 219.733 348.304 216.234C348.963 215.707 349.804 215.559 350.694 215.58ZM389.588 215.648C401.094 216.193 411.67 213.959 410.083 221.893C409.766 223.481 406.325 222.686 405.326 222.186C404.146 221.596 405.414 220.14 404.131 219.819C403.165 219.578 402.169 219.583 401.177 219.503C396.409 219.122 393.137 218.619 394.03 220.405C394.504 221.353 396.413 221.64 397.299 221.893C402.42 223.356 409.978 224.071 410.669 229.604C410.783 230.51 411.373 231.994 410.669 232.874C410.099 233.587 391.432 233.445 390.174 232.874C386.948 231.407 386.933 225.502 393.444 226.651C395.331 226.984 393.369 229.358 394.932 229.604C397.402 229.994 402.21 229.897 404.74 229.897C406.369 225.009 388.393 226.571 388.393 220.405C388.393 218.772 388.433 216.802 389.588 215.648ZM312.657 219.503C314.823 221.075 315.056 225.349 312.657 225.749C306.457 226.782 310.349 224.183 308.193 223.968C306.932 223.841 299.044 224.476 298.408 225.749C297.517 227.531 302.836 227.528 302.849 227.53C304.117 227.699 313.42 228.614 313.537 229.604C313.768 231.573 314.396 233.943 313.244 235.557C310.516 239.375 300.948 238.916 296.604 239.705C295.627 239.883 291.91 240.959 291.576 239.119C290.618 233.849 297.213 230.294 297.213 235.264C298.482 235.687 309.32 234.752 308.193 232.874C306.245 229.627 296.791 231.553 293.65 230.506C291.56 229.81 292.956 223.604 294.53 222.479C297.355 220.461 308.959 220.031 312.657 219.503ZM454.929 222.479C461.296 223.392 472.001 224.269 474.838 226.042C476.018 226.779 478.902 232.841 476.62 233.167C471.537 233.893 472.92 230.471 470.983 229.018C469.405 227.835 461.034 226.183 459.687 227.53C461.052 230.261 459.943 233.914 460.882 236.729C460.997 237.073 470.852 239.557 471.862 239.412C473.382 239.195 471.537 236.653 473.057 236.436C473.855 236.322 475.806 236.841 476.62 237.045C478.729 237.572 479.516 243.665 477.499 244.17C476.185 244.498 456.469 239.55 456.124 239.119C454.872 237.554 455.131 234.396 454.929 232.581C454.621 229.802 452.804 224.605 454.929 222.479ZM266.526 227.553C272.667 226.153 266.2 245.854 266.03 245.951C259.87 249.471 256.406 240.857 251.758 238.533C249.38 240.911 250.412 246.741 249.39 249.806C248.867 251.375 245.55 251.276 244.34 251.881C243.171 250.712 244.605 247.261 244.926 245.658C246.055 240.014 245.116 232.808 251.758 231.701C254.843 231.187 259.235 238.393 261.859 239.705C264.517 237.047 261.886 229.918 265.128 228.116C265.655 227.823 266.117 227.646 266.526 227.553ZM499.189 231.994C500.188 231.772 502.22 232.672 503.045 233.167C505.545 234.667 505.768 242.927 506.314 245.658C506.498 246.579 508.188 251.565 506.607 251.881C505.472 252.108 502.434 250.593 501.872 249.806C500.891 248.432 498.138 232.229 499.189 231.994ZM525.073 240.089C526.407 240.056 528.693 241.22 529.493 241.487C532.254 242.407 550.253 246.858 545.817 251.295C544.148 250.46 539.47 247.855 538.105 249.22C539.509 252.028 542.179 259.816 541.668 262.884C541.426 264.336 536.519 261.956 536.031 261.103C533.854 257.293 535.4 250.129 532.762 246.83C531.196 244.873 522.559 244.581 524.149 240.607C524.291 240.252 524.629 240.1 525.073 240.089ZM216.787 242.682C217.129 242.609 217.418 242.591 217.599 242.682C218.119 242.942 222.954 257.505 222.649 258.419C222.232 259.671 219.465 259.719 218.501 260.201C217.447 259.146 217.774 258.887 216.72 257.833C213.802 259.292 208.755 259.745 206.325 261.689C205.239 262.558 201.377 269.803 198.885 267.934C197.442 266.852 200.568 263.453 201.275 262.275C203.272 258.947 210.861 245.029 213.743 243.877C214.266 243.668 215.762 242.899 216.787 242.682ZM379.825 245.252C397.389 245.479 414.94 246.732 432.36 249.22C473.266 255.064 511.548 266.632 549.695 281.891C561.209 286.497 572.376 291.694 583.245 298.215C588.617 301.439 596.044 304.103 600.178 308.925C601.225 310.147 601.647 312.756 602.252 314.269C604.716 320.429 606.981 326.674 609.084 332.983C616.862 356.318 622.759 380.137 626.017 404.57C628.872 425.985 629.237 447.42 627.798 469.009C620.999 570.987 560.699 657.484 482.55 720.003C458.076 739.582 432.038 755.676 405.326 771.703C397.575 776.354 389.251 779.888 381.268 783.879C379.796 784.615 377.422 786.539 375.631 786.539C373.701 786.539 370.528 784.428 368.8 783.563C362.259 780.293 355.448 776.763 348.891 773.485C321.719 759.899 295.486 742.035 271.667 722.979C194.664 661.377 133.458 578.091 123.442 477.938C121.026 453.775 121.722 429.223 124.93 405.156C128.214 380.527 134.015 356.528 141.863 332.983C144.133 326.175 146.618 319.439 149.281 312.78C149.739 311.636 149.902 309.499 150.769 308.632C154.331 305.07 159.863 302.878 164.14 300.312C176.351 292.985 188.755 288.151 201.275 281.891C214.737 275.16 229.409 270.642 243.754 265.86C281.849 253.161 322.142 246.351 362.261 245.365C368.115 245.221 373.97 245.176 379.825 245.252ZM564.283 254.925C568.384 255.349 575.738 266.332 577.608 267.934C580.663 263.861 582.681 262.32 586.514 266.153C585.075 268.312 581.285 271.235 580.584 273.571C579.817 276.13 583.911 280.029 581.757 282.184C576.551 279.581 577.234 277.359 575.241 272.376C572.818 266.32 566.373 260.879 562.749 255.443C563.177 255.015 563.697 254.864 564.283 254.925ZM187.048 255.037C187.376 255.093 187.674 255.213 187.904 255.443C183.449 260.456 178.984 265.559 174.241 270.302C176.712 272.155 180.089 272.88 182.268 275.059C180.877 275.987 177.88 278.407 176.022 278.035C174.222 277.675 170.775 274.156 169.19 274.473C167.245 274.862 167.527 281.546 166.507 282.77C165.23 284.303 162.843 285.2 161.164 286.04C159.987 284.863 161.916 281.659 162.359 280.11C163.272 276.914 165.4 266.81 167.116 264.665C168.266 263.228 170.283 262.766 171.851 261.982C173.528 263.659 169.911 265.994 171.558 267.641C172.746 266.354 173.928 265.047 175.12 263.763C176.503 262.274 177.889 260.791 179.291 259.321C180.443 258.115 184.751 254.65 187.048 255.037ZM350.672 219.819C348.733 221.757 347.429 224.5 346.207 226.944C347.896 228.633 352.735 228.442 354.527 226.651C353.303 224.203 352.166 222.061 350.672 219.819ZM214.33 247.732C211.916 250.146 209.932 253.868 208.4 256.931C208.697 257.228 208.689 257.243 208.986 257.54C212.464 255.801 217.301 256.486 215.818 251.295C215.446 249.994 215.306 248.709 214.33 247.732ZM364.921 257.54C325.801 258.297 286.289 264.736 249.097 277.134C236.185 281.437 222.619 285.311 210.474 291.383C203.9 294.67 196.292 296.524 189.979 300.312C185.216 303.169 179.524 306.695 173.948 308.925C170.133 310.451 163.886 313.621 160.871 316.636C158.274 319.233 154.817 333.039 153.453 337.131C147.039 356.372 141.93 375.94 138.594 395.957C124.169 482.505 145.997 558.279 195.322 627.335C206.177 642.531 218.604 656.684 231.556 670.106C240.54 679.417 249.721 688.38 259.491 696.847C286.839 720.548 316.259 740.116 347.109 758.626C354.117 762.831 361.72 766.36 368.8 769.9C370.003 770.501 374.583 773.705 375.924 773.169C382.989 770.343 390.507 766.088 397.006 762.189C418.406 749.349 439.292 736.667 459.687 722.1C557.37 652.326 626.828 544.152 615.622 420.894C613.193 394.169 607.784 367.64 599.298 342.182C597.307 336.209 595.386 330.203 593.053 324.37C592.235 322.327 591.707 318.964 590.37 317.245C587.383 313.405 581.413 311.384 577.315 308.925C566.44 302.4 554.402 297.027 542.547 292.285C508.376 278.616 473.704 267.904 437.117 262.275C413.211 258.597 389.085 257.073 364.921 257.54ZM362.554 275.645C370.178 275.645 377.793 275.843 385.417 275.939C386.949 275.958 388.657 277.273 388.686 278.915C388.78 284.161 388.686 289.405 388.686 294.653C388.686 295.148 388.948 295.721 388.686 296.141C386.12 300.247 380.93 295.893 378.292 298.531C383.457 301.974 389.955 305.12 394.345 309.511C392.594 311.263 389.381 309.863 386.905 309.804C385.024 309.759 383.147 309.894 381.268 309.804C379.398 309.715 376.298 306.701 374.729 305.656C368.784 301.692 359.873 297.84 355.429 292.285C358.237 289.477 363.34 291.439 367.311 291.383C370.579 291.337 373.857 291.57 377.119 291.383C379.02 291.275 378.901 282.226 377.119 282.184C373.159 282.09 369.197 282.367 365.237 282.477C361.673 282.576 357.91 281.643 354.527 282.77C353.549 283.096 354.026 288.798 353.941 291.09C353.849 293.566 353.689 296.054 353.648 298.531C353.594 301.837 356.643 309.964 351.258 310.413C348.493 310.643 345.69 311.202 342.961 310.706C341.107 310.369 342.559 306.929 342.645 305.047C343.045 296.252 341.817 286.078 343.547 277.427C343.732 276.501 354.38 275.963 354.843 275.939C357.416 275.803 359.978 275.645 362.554 275.645ZM397.299 276.254C412.561 277.292 425.282 278.437 437.703 280.696C441.608 281.406 443.615 280.476 444.242 284.867C444.446 286.294 445.019 287.359 443.949 288.43C440.372 286.641 434.804 286.645 430.872 286.04C430.445 285.974 426.271 284.926 426.114 286.333C425.678 290.256 427.004 295.446 427.309 299.41C427.447 301.198 428.946 312.939 427.602 313.074C425.303 313.304 420.381 312.762 418.11 312.194C416.244 311.728 416.628 305.452 416.622 305.362C416.177 298.91 416.684 291.445 415.427 285.16C414.945 282.75 404.258 283.173 402.958 283.086C400.396 282.915 396.816 283.217 396.713 282.184C396.515 280.204 395.892 277.661 397.299 276.254ZM326.028 278.329C328.266 278.147 328.795 278.159 330.176 279.817C330.934 280.726 330.257 282.164 330.176 283.086C329.626 289.416 329.176 295.757 328.688 302.093C328.547 303.933 329.243 308.739 327.809 310.413C324.837 313.88 319.517 313.451 315.318 313.975C307.797 314.915 300.145 316.187 292.748 317.831C289.138 318.633 284.863 320.198 281.159 320.198C277.484 320.198 278.76 316.414 279.085 313.975C279.864 308.133 280.641 302.269 281.475 296.434C281.728 294.663 281.459 289.474 282.647 288.136C285.785 284.606 290.378 284.187 294.823 283.379C305.19 281.494 315.513 279.181 326.028 278.329ZM455.516 282.996C458.289 283.188 461.914 284.183 462.956 285.746C464.185 287.59 463.845 291.337 464.151 293.48C465.077 299.963 468.316 312.972 467.105 319.026C466.934 319.88 456.986 318.078 456.124 316.929C454.66 314.977 454.376 303.092 454.05 299.996C453.752 297.164 450.913 283.551 453.148 283.086C453.757 282.959 454.591 282.932 455.516 282.996ZM475.718 288.136C478.113 289.334 483.701 289.125 485.526 290.797C495.952 300.354 504.626 311.972 514.634 321.98C516.05 317.732 510.778 305.216 510.778 299.703C512.321 299.189 514.063 300.309 515.536 300.898C517.197 301.563 520.289 301.815 521.173 303.581C523.73 308.696 524.528 320.178 525.614 326.151C526.075 328.685 528.99 336.146 527.103 338.033C524.719 336.841 519.321 336.182 517.61 334.471C507.58 324.44 498.552 313.316 488.502 303.266C487.566 304.202 490.217 316.692 490.576 319.026C490.705 319.859 492.362 325.559 490.869 325.858C490.038 326.024 487.547 324.899 486.721 324.663C485.224 324.235 482.661 324.11 481.377 323.468C479.485 322.522 477.399 304.353 476.913 301.191C476.493 298.461 473.654 290.201 475.718 288.136ZM270.314 289.625C271.128 289.797 271.667 290.226 271.667 291.09C271.667 293.714 269.5 310.19 268.104 311.585C265.644 314.046 249.212 319.905 245.535 319.905C243.563 319.905 239.059 317.79 238.094 316.343C242.968 311.469 253.064 313.142 258.296 309.218C260.735 307.389 259.375 301.694 260.664 299.117C259.228 297.681 252.831 300.834 250.878 301.484C248.203 302.376 239.702 303.613 238.387 306.242C234.695 313.626 236.738 326.767 233.044 334.155C232.022 336.197 223.034 339.072 222.063 337.131C224.587 334.608 227.085 316.127 227.993 311.585C228.473 309.185 228.546 303.513 230.676 302.093C233.095 300.481 236.595 299.901 239.289 298.824C246.512 295.935 254.083 293.521 261.566 291.383C262.842 291.019 267.872 289.108 270.314 289.625ZM214.803 308.519C215.266 308.488 215.702 308.53 216.111 308.632C217.82 309.059 216.31 312.469 216.111 313.367C215.766 314.919 215.708 316.987 215.232 318.417C214.443 320.783 207.296 321.926 205.424 323.175C204.52 322.271 205.147 320.751 205.717 319.612C204.69 318.585 200.835 320.723 199.494 321.393C195.615 323.333 187.045 325.806 184.635 329.42C183.881 330.552 184.05 332.056 183.44 333.276C183.737 333.573 183.752 333.565 184.049 333.862C187.73 332.021 207.772 327.11 211.06 327.932C213.199 328.467 210.634 341.12 209.279 342.475C208.144 343.61 206.731 344.764 205.424 345.744C203.332 347.313 198.878 349.032 196.517 349.622C189.661 351.336 182.954 356.844 176.608 360.017C174.789 360.926 169.382 365.304 167.409 364.458C165.694 363.723 167.336 360.688 167.702 359.408C168.088 358.056 168.25 354.712 169.19 353.771C171.534 351.427 175.724 349.614 178.683 348.134C178.98 348.431 178.994 348.423 179.291 348.72C178.709 349.885 177.741 351.928 178.683 352.869C183.821 350.3 188.659 347.306 193.541 344.865C195.392 343.939 199.325 343.137 200.373 341.302C201.127 339.984 200.713 338.413 201.568 337.131C200.355 335.918 195.645 337.599 194.127 338.033C187.748 339.856 179.57 340.126 173.655 343.084C172.302 340.829 174.725 330.695 176.901 328.518C184.437 320.982 195.613 317.685 204.837 313.074C207.241 311.872 211.566 308.736 214.803 308.519ZM535.964 309.038C538.483 309.127 542.141 311.394 543.742 312.194C549.782 315.214 555.699 318.015 561.87 321.1C564.885 322.608 569.784 323.964 572.264 326.444C575.384 329.563 574.951 334.474 577.608 337.131C577.212 337.923 577.212 337.534 577.608 338.326C577.311 338.623 577.319 338.615 577.022 338.912C574.187 337.495 569.835 335.718 567.8 333.276C567.024 332.345 567.696 330.782 566.921 330.006C561.976 325.062 552.209 322.369 546.11 319.319C544.753 320.676 547.413 327.419 547.913 329.42C548.786 332.911 549.068 338.891 550.867 341.889C552.8 345.11 568.446 350.444 572.557 353.185C572.854 352.888 572.847 352.873 573.144 352.576C572.344 350.976 572.362 347.603 571.362 346.353C569.359 343.849 564.959 343.49 562.749 341.596C560.753 339.884 557.954 336.13 556.82 333.862C558.764 332.566 560.586 335.491 562.456 335.959C564.827 336.551 578.339 343.409 579.389 345.158C580.587 347.155 580.9 350.322 581.464 352.576C581.842 354.09 584.976 363.671 583.245 364.165C580.69 364.895 574.883 360.51 572.557 359.115C566.173 355.284 558.937 351.47 552.062 348.72C548.267 347.202 543.921 345.87 541.375 342.475C538.697 338.904 538.46 331.071 537.497 326.737C537.031 324.639 533.405 310.466 533.934 309.804C534.403 309.219 535.124 309.008 535.964 309.038ZM261.701 347.435C262.272 347.355 262.759 347.357 263.054 347.525C266.538 349.516 270.486 356.035 273.155 359.115C280.927 368.083 288.713 377.031 296.311 386.149C293.453 389.006 285.464 389.007 281.475 390.004C269.463 393.007 257.704 396.712 245.828 400.105C211.269 409.979 178.561 427.431 148.695 447.341C147.197 445.843 148.889 431.549 149.281 428.018C150.279 419.035 151.785 410.122 153.746 401.3C154.137 399.54 154.298 394.503 155.527 393.273C159.671 389.129 167.809 385.498 173.046 382.879C194.507 372.149 216.146 362.072 239.289 354.357C245.018 352.448 250.72 350.669 256.515 349.014C257.445 348.748 259.988 347.675 261.701 347.435ZM451.863 358.438C462.133 358.606 472.137 361.464 478.987 368.314C482.913 372.24 487.641 376.816 488.795 382.586C491.797 397.594 481.136 405.587 467.398 404.57C464.201 404.333 459.733 405.439 457.612 402.788C460.15 400.082 463.111 397.817 464.151 394.175C471.957 366.854 426.635 363.383 428.797 391.492C429.824 404.836 441.488 419.179 449.293 429.213C468.612 454.052 493.549 477.015 505.435 506.73C512.654 524.779 514.604 544.941 510.778 564.067C510.347 566.223 505.915 584.437 504.24 584.856C501.261 585.601 486.296 577.306 484.038 575.048C490.675 561.773 487.467 540.399 481.963 526.639C480.748 523.601 478.601 520.293 477.815 517.147C474.956 505.714 463.874 493.817 456.711 485.063C441.325 466.258 424.673 447.705 412.158 426.846C407.305 418.758 402.056 408.624 402.056 398.91C402.056 392.773 403.613 387.655 405.033 381.977C406.985 374.169 416.378 368.143 423.161 364.751C431.071 360.796 441.593 358.271 451.863 358.438ZM317.708 413.476C330.141 426.327 339.518 441.508 351.574 453.564C349.443 455.695 345.228 454.962 342.352 455.346C334.031 456.455 325.652 457.261 317.415 458.908C288.733 464.644 261.081 472.134 233.946 482.988C216.47 489.978 199.665 498.483 183.44 508.218C177.296 511.905 171.309 515.825 165.335 519.808C163.871 520.783 159.972 525.232 158.503 522.784C157.679 521.41 157.436 517.929 157.015 516.245C155.055 508.406 153.293 500.455 151.964 492.481C151.547 489.973 149.331 484.084 150.476 481.793C151.644 479.459 157.472 476.724 159.676 475.255C168.774 469.189 178.259 463.933 187.611 458.322C214.662 442.091 246.243 429.854 277.304 422.089C290.668 418.748 304.396 416.804 317.708 413.476ZM496.506 450.611C526.86 452.142 546.792 458.529 553.843 476.156C558.139 486.897 551.388 499.899 539.278 499.899C534.524 499.898 529.28 501.731 525.028 499.605C522.044 498.113 528.662 493.803 529.786 490.992C531.743 486.098 531.224 477.595 527.103 473.473C518.825 465.196 509.276 464.528 497.701 465.154C494.647 465.319 491.762 465.689 488.795 466.349C488.229 466.474 486.096 467.398 485.526 466.935C481.797 463.905 478.324 458.918 475.425 455.052C479.518 450.959 491.234 451.016 496.506 450.611ZM435.336 479.719C439.759 484.725 443.742 489.152 447.511 493.676C448.566 494.942 452.855 498.542 452.855 500.214C452.855 503.563 451.368 507.227 451.074 510.608C450.484 517.394 451.225 524.419 452.562 531.104C458.74 561.993 486.84 591.688 519.685 591.688C534.418 591.688 544.239 588.632 556.526 582.488C558.209 584.171 556.551 586.613 555.038 588.125C553.305 589.859 551.509 591.527 549.695 593.176C539.785 602.185 522.713 605.058 509.877 605.058C463.242 605.058 419.534 567.554 421.966 518.928C422.587 506.498 425.96 489.095 435.336 479.719ZM371.505 484.116C372.776 484.107 373.958 484.188 375.023 484.454C375.294 484.522 375.627 484.783 375.631 485.063C375.827 498.923 375.827 512.779 375.631 526.639C375.607 528.368 372.305 527.702 370.581 527.834C364.121 528.331 357.696 528.9 351.258 529.616C335.409 531.377 319.497 534.072 304.044 537.935C276.67 544.779 249.672 554.276 224.724 566.751C215.891 571.167 207.335 575.93 198.885 581C195.268 583.171 191.182 587.123 187.296 588.418C180.138 577.682 175.516 565.738 169.777 554.26C179.258 546.359 192.262 537.144 203.642 532.592C209.524 530.239 215.678 526.367 221.161 523.077C226.42 519.922 232.899 518.483 238.094 515.366C245.516 510.913 255.052 509.052 263.054 505.851C281.792 498.356 302.355 494.005 322.15 490.406C334.622 488.138 347.216 486.26 359.871 485.356C363.224 485.116 367.694 484.142 371.505 484.116ZM374.729 560.776C375.22 560.829 375.625 560.976 375.631 561.384C375.826 574.749 375.826 588.131 375.631 601.496C375.627 601.776 375.285 601.984 375.023 602.082C371.72 603.32 367.498 602.845 364.042 603.277C356.406 604.231 348.753 605.169 341.179 606.546C320.323 610.338 300.052 615.596 279.987 622.284C270.085 625.585 259.542 629.53 250.27 634.166C246.996 635.803 243.309 638.359 239.875 639.217C237.963 639.695 229.248 645.315 228.602 644.854C226.792 643.561 224.998 640.593 223.551 638.924C217.703 632.175 209.148 624.074 205.13 616.038C204.47 614.717 210.87 611.643 211.962 610.988C220.047 606.137 228.557 601.665 236.606 597.64C278.606 576.64 325.938 564.12 373.241 560.798C373.649 560.77 374.239 560.722 374.729 560.776ZM468.255 607.899C471.186 607.569 475.722 611.485 478.694 612.476C479.962 612.899 486.502 613.452 485.819 615.159C483.435 621.118 475.502 626.461 470.983 630.604C457.645 642.83 441.954 651.358 424.942 657.029C420.184 658.615 415.285 659.816 410.376 660.907C409.028 661.207 404.787 662.805 403.838 660.907C403.359 659.949 416.904 652.585 418.403 651.685C427.533 646.207 436.236 639.684 444.242 632.678C452.789 625.2 457.96 614.741 467.105 608.327C467.449 608.086 467.836 607.946 468.255 607.899ZM374.729 637.143C375.621 650.608 375.826 663.482 375.631 676.352C375.61 677.745 368.984 677.819 368.8 677.84C359.651 678.857 350.494 680.477 341.473 682.282C327.858 685.004 314.22 688.292 301.068 692.676C299.02 693.359 286.191 698.514 285.037 698.02C278.907 695.392 272.432 687.833 267.496 683.477C263.415 679.876 256.248 675.525 253.832 670.693C255.465 669.059 258.712 668.037 260.979 667.13C268.326 664.192 275.389 661.127 282.647 658.224C312.151 646.422 343.433 641.613 374.729 637.143ZM374.436 714.073C375.228 714.271 375.627 714.379 375.631 714.659C375.826 728.024 375.924 741.407 375.631 754.771C375.6 756.201 371.654 753.819 371.167 753.576C366.446 751.215 361.918 748.511 357.21 746.158C349.515 742.31 342.302 737.501 334.934 733.08C330.806 730.604 325.876 728.171 322.465 724.76C325.102 722.124 332.551 721.799 336.129 720.905C348.658 717.773 361.593 715.5 374.436 714.073ZM317.099 285.453C310.969 286.986 304.333 287.682 298.092 288.723C296.85 288.93 292.667 288.988 292.162 290.504C290.9 294.29 291.146 299.569 290.674 303.581C290.437 305.594 288.682 311.082 290.088 312.487C295.13 309.966 304.303 309.735 309.974 308.925C311.911 308.648 316.351 308.953 317.708 307.144C318.419 306.195 318.734 295.72 318.903 293.773C319.061 291.953 320.519 286.794 317.099 285.453Z" fill="#FFFFFF" fill-rule="nonzero" opacity="1" stroke="none" vectornator:layerName="path"/>
</g>
</svg>
