<?xml version="1.0" encoding="UTF-8" standalone="no"?>
<!DOCTYPE svg PUBLIC "-//W3C//DTD SVG 1.1//EN" "http://www.w3.org/Graphics/SVG/1.1/DTD/svg11.dtd">
<!-- Created with Vectornator (http://vectornator.io/) -->
<svg height="100%" stroke-miterlimit="10" style="fill-rule:nonzero;clip-rule:evenodd;stroke-linecap:round;stroke-linejoin:round;" version="1.1" viewBox="0 0 750 1000" width="100%" xml:space="preserve" xmlns="http://www.w3.org/2000/svg" xmlns:vectornator="http://vectornator.io" xmlns:xlink="http://www.w3.org/1999/xlink">
<defs/>
<g id="Layer-1" vectornator:layerName="Layer 1">
<path d="M371.099 200.006C352.109 200.152 334.151 203.905 316.757 210.863C314.036 211.951 308.595 213.29 303.094 217.415C296.806 222.132 288.094 226.515 279.286 232.807C258.772 247.46 241.053 261.916 220.582 270.105C209.316 274.611 197.256 277.668 185.09 279.29C176.664 280.414 162.023 279.74 150.175 291.588C147.102 294.661 146.373 297.344 145.794 299.275C145.165 301.369 144.819 303.147 144.814 305.539C144.619 392.648 144.506 479.764 144.506 566.874C144.506 626.329 171.037 680.894 211.762 721.619C238.394 748.251 272.034 765.969 305.035 779.17C320.386 785.31 335.926 790.126 351.384 794.543C351.799 794.661 351.897 794.692 351.845 794.677C357.383 796.316 365.908 800 375.884 800C385.556 800 393.64 796.082 398.021 794.831C398.2 794.78 398.379 794.729 398.424 794.716C414.316 790.167 430.163 785.156 445.849 778.882C484.023 763.612 518.001 741.568 547.347 712.222C587.213 672.356 605.085 613.392 605.205 559.86C605.394 475.782 605.493 391.695 605.494 307.614C605.494 305.452 605.239 303.516 604.706 301.35C604.184 299.232 603.485 296.737 601.266 293.779C595.635 286.27 587.798 283.019 581.282 281.615C574.777 280.214 569.1 280.156 564.91 279.598C552.803 277.983 540.654 274.88 529.437 270.393C509.767 262.525 492.319 248.309 472.674 234.229C472.587 234.167 472.233 233.919 471.886 233.672C463.969 228.017 456.045 222.96 447.905 218.069C447.939 218.089 447.887 218.058 447.617 217.896C447.481 217.815 447.343 217.724 447.309 217.703C445.29 216.441 441.681 213.592 435.76 212.112C430.328 210.753 422.991 206.659 412.855 204.406C399.038 201.336 385.232 199.897 371.099 200.006ZM371.195 212.304C384.438 212.202 397.265 213.545 410.184 216.416C418.011 218.155 425.187 222.146 432.782 224.045C435.562 224.74 438.829 226.978 441.275 228.445C449.327 233.276 457.067 238.204 464.738 243.683C484.147 257.547 502.588 272.897 524.864 281.807C537.102 286.703 550.204 290.037 563.276 291.78C573.509 293.145 584.737 292.237 591.428 301.158C592.606 302.728 593.195 305.79 593.195 307.614C593.195 391.685 593.096 475.751 592.907 559.822C592.793 610.874 575.512 666.667 538.642 703.537C510.481 731.697 477.995 752.78 441.275 767.468C426.018 773.571 410.467 778.496 394.658 783.013C389.025 784.622 381.764 787.702 375.884 787.702C369.154 787.702 361.219 784.55 354.766 782.706C339.482 778.339 324.353 773.653 309.609 767.756C277.427 754.883 245.332 737.799 220.447 712.914C181.67 674.137 156.805 622.588 156.805 566.874C156.805 479.773 156.918 392.659 157.112 305.558C157.115 304.115 157.745 301.409 158.861 300.293C166.685 292.469 176.108 292.908 186.724 291.492C199.845 289.743 212.857 286.431 225.136 281.519C247.885 272.42 266.449 257.075 286.434 242.799C294.169 237.275 302.966 232.884 310.473 227.254C313.459 225.014 317.898 223.65 321.33 222.277C337.438 215.834 353.76 212.438 371.195 212.304ZM445.676 244.567C445.428 244.691 445.101 244.867 445.099 245.144C444.905 272.026 445.293 298.91 445.099 325.792C445.097 326.069 444.699 326.193 444.504 326.388C419.608 301.492 384.5 287.581 349.789 301.465C333.871 307.832 320.743 319.347 308.725 331.365C288.924 351.166 278.85 377.659 264.74 401.176C257.01 414.059 251.349 428.17 243.622 441.049C229.348 464.838 216.759 491.257 204.325 516.125C196.152 532.471 187.27 548.467 179.095 564.818C177.137 568.734 170.007 578.95 169.718 582.708C168.961 592.543 172.573 603.369 174.694 612.915C175.859 618.154 178.947 632.405 182.611 636.07C187.587 631.095 189.841 622.188 193.468 616.143C203.69 599.107 211.111 580.391 221.331 563.357C227.016 553.883 231.193 543.487 236.877 534.015C259.079 497.01 275.663 456.65 297.868 419.642C311.057 397.66 320.436 373.268 336.588 353.079C341.87 346.476 347.573 340.121 354.478 335.189C385.476 313.047 414.432 339.008 430.438 365.684C434.158 371.885 437.559 378.265 441.275 384.458C442.27 386.116 445.087 389.557 445.099 391.491C445.196 406.936 445.292 422.376 445.099 437.821C445.096 438.097 444.776 438.371 444.504 438.416C441.646 438.892 436.227 436.421 433.358 435.784C426.453 434.249 419.524 432.834 412.548 431.671C384.405 426.981 355.175 422.965 326.615 424.043C325.607 424.081 323.873 428.517 323.386 429.327C320.584 433.997 318.193 439.118 315.758 443.989C315.245 445.015 312.92 447.938 313.125 448.966C313.397 450.326 314.422 449.863 315.469 449.85C322.606 449.759 329.739 449.561 336.876 449.561C347.518 449.561 358.247 450.446 368.851 451.329C388.963 453.005 408.982 456.332 428.67 460.707C433.523 461.785 440.048 462.284 444.504 464.511C444.751 464.635 445.094 464.831 445.099 465.107C445.291 475.174 445.291 485.247 445.099 495.314C445.094 495.591 444.699 495.695 444.504 495.891C436.563 491.92 422.312 490.349 413.412 488.569C384.474 482.782 355.515 480.69 326.019 479.769C317.789 479.511 304.822 477.933 296.984 480.345C295.995 480.649 290.512 491.847 289.663 493.546C283.248 506.376 276.13 518.843 269.717 531.671C252.395 566.314 233.083 599.962 215.759 634.61C211.565 642.997 207.382 651.798 202.557 659.84C201.509 661.588 197.793 666.686 198.445 668.641C198.973 670.224 201.026 672.185 201.981 673.618C206.312 680.114 211.259 686.181 216.335 692.103C219.503 688.935 220.784 683.901 223.08 680.074C229.998 668.544 234.937 655.823 241.854 644.294C263.125 608.842 278.366 569.772 299.636 534.322C303.809 527.366 307.44 519.867 311.069 512.608C311.494 511.758 313.938 505.914 314.874 505.864C321.804 505.489 328.763 505.794 335.704 505.864C339.244 505.899 343.749 504.532 346.253 507.036C342.385 510.904 340.58 517.882 337.76 522.581C331.264 533.407 326.364 545.193 319.87 556.017C295.528 596.587 277.053 640.676 252.711 681.246C248.217 688.735 244.887 696.932 240.393 704.421C239.777 705.448 235.966 711.124 236.569 712.03C238.935 715.578 244.3 718.558 247.715 721.119C248.754 721.899 257.691 728.578 258.283 728.46C259.862 728.144 264.457 717.767 265.604 715.854C273.584 702.555 279.629 688.086 287.607 674.79C311.388 635.154 329.524 592.137 353.305 552.5C359.687 541.864 364.504 530.3 370.888 519.661C372.432 517.086 374.139 510.594 376.768 509.092C378.24 508.251 391.706 511.029 394.35 511.436C406.494 513.304 418.524 516.087 430.438 519.065C434.389 520.053 440.816 520.603 444.215 522.87C444.56 523.1 445.098 523.339 445.099 523.754C445.391 600.003 444.904 676.249 445.099 752.499C445.103 753.82 447.36 752.685 447.732 752.499C451.836 750.446 457.26 749.105 460.933 746.349C466.133 742.45 473.504 739.626 479.399 736.088C492.131 728.449 504.31 719.819 515.468 709.974C558.003 672.443 581.328 619.285 581.455 562.473C581.644 477.524 581.762 392.564 581.762 307.614C581.762 305.228 576.812 304.925 575.306 304.693C569.267 303.764 563.17 303.279 557.127 302.349C541.94 300.013 527.852 295.089 513.719 289.436C495.108 281.992 478.55 268.19 462.682 256.289C458.43 253.1 454.21 249.859 449.788 246.912C449.073 246.435 446.535 244.138 445.676 244.567ZM490.833 339.878C498.215 339.554 504.701 340.77 511.663 342.51C522.829 345.302 526.92 364.24 526.92 373.601C526.92 383.084 526.788 392.579 526.613 402.06C526.393 413.917 522.897 427.996 510.779 432.844C508.729 433.664 504.082 435.741 501.978 434.9C501.721 434.797 501.407 434.58 501.402 434.304C501.21 425.313 501.118 416.314 501.402 407.325C501.433 406.328 504.014 406.192 504.63 405.576C505.823 404.384 507.081 403.11 507.551 401.464C509.553 394.457 512.11 369.939 499.941 368.317C488.75 366.825 479.995 369.214 479.995 381.518C479.995 388.563 479.744 395.791 481.456 402.636C481.944 404.591 486.994 406.259 487.028 407.325C487.312 416.314 487.219 425.312 487.028 434.304C486.998 435.736 477.613 432.844 476.171 432.267C463.91 427.363 461.51 409.217 461.51 398.236C461.51 371.529 457.574 341.336 490.833 339.878ZM548.769 391.972C549.307 392.03 549.742 392.215 549.787 392.663C549.962 394.414 550.036 396.206 549.787 397.948C549.781 397.992 549.722 398.021 549.71 398.063C549.534 398.026 549.413 397.974 549.21 397.948C545.853 397.508 545.844 401.367 545.675 404.404C545.528 407.046 544.722 412.09 545.982 415.242C547.306 418.552 548.533 417.819 549.441 416.068C550.107 415.485 550.334 414.398 550.46 413.282C550.745 412.239 550.927 411.288 550.959 410.842C551.078 409.181 551.129 407.525 551.247 405.865C551.44 403.167 552.357 400.944 551.843 399.523C552.956 394.688 555.269 390.629 560.356 392.663C563.623 393.97 565.621 398.379 565.621 401.752C565.621 407.512 567.181 420.814 558.3 422.294C557.688 422.396 557.352 422.002 557.127 421.449C557.929 420.078 557.52 418.066 557.704 416.414C557.819 415.381 559.372 415.166 560.048 414.377C561.074 413.18 560.539 411.242 560.644 409.669C560.774 407.716 560.932 405.766 560.932 403.809C560.932 402.198 559.944 397.008 557.127 399.12C555.633 400.241 554.842 415.197 554.975 416.376C554.229 420.037 552.847 423.159 550.075 423.159C539.898 423.159 540.19 413.4 540.698 405.269C541 400.433 541.159 393.389 547.154 392.087C547.595 391.991 548.23 391.913 548.769 391.972ZM563.353 423.678C564.419 423.727 565.316 424.09 565.333 424.927C565.524 434.505 565.524 444.095 565.333 453.674C565.327 453.95 565.011 454.218 564.737 454.25C563.075 454.446 559.85 455.344 559.76 453.674C559.575 450.257 559.945 446.81 559.76 443.393C559.745 443.117 559.46 442.826 559.183 442.817C553.321 442.628 547.441 443.096 541.582 442.817C539.5 442.718 539.303 436.135 541.294 436.072C547.254 435.883 553.223 436.261 559.183 436.072C561.72 435.991 556.939 426.485 560.356 424.331C561.063 423.885 562.288 423.629 563.353 423.678ZM478.669 441.491C483.904 441.546 489.142 441.744 494.369 441.933C494.482 441.937 494.518 442.104 494.599 442.183C494.703 442.072 494.796 441.937 494.945 441.933C505.108 441.648 515.276 441.741 525.441 441.933C525.717 441.938 525.87 442.307 526.036 442.528C526.69 443.4 526.05 443.031 526.036 444.277C525.943 452.586 526.227 460.912 526.036 469.219C526.03 469.496 525.717 469.793 525.441 469.796C504.619 469.989 483.809 470.086 462.989 469.796C462.637 469.791 462.589 469.205 462.393 468.912C462.67 468.636 462.556 468.747 462.682 468.604C462.578 468.502 462.397 468.467 462.393 468.335C462.203 460.517 462.393 452.693 462.393 444.873C462.393 443.67 461.729 442.032 462.989 441.933C468.203 441.522 473.434 441.435 478.669 441.491ZM554.322 472.678C557.797 472.742 561.268 472.929 564.737 473.024C566.17 473.063 566.183 479.722 564.737 479.769C558.875 479.958 553.017 479.58 547.154 479.769C546.878 479.778 546.568 480.069 546.559 480.345C546.37 486.11 546.748 491.894 546.559 497.659C546.513 499.04 543.462 498.618 542.062 498.6C541.958 498.599 540.714 498.332 540.698 497.659C540.507 489.645 540.507 481.614 540.698 473.6C540.704 473.324 541.017 473.034 541.294 473.024C542.557 472.979 543.212 473.048 543.599 473.158C543.709 473.12 543.81 473.036 543.926 473.024C547.379 472.672 550.847 472.614 554.322 472.678ZM506.974 475.368C513.13 475.179 519.285 475.179 525.441 475.368C525.717 475.377 526.034 475.687 526.036 475.964C526.23 502.846 526.23 529.73 526.036 556.613C526.034 556.889 525.717 557.181 525.441 557.189C519.285 557.378 513.13 557.379 506.974 557.189C506.698 557.181 506.385 556.889 506.378 556.613C506.187 548.012 506.57 539.387 506.378 530.787C506.372 530.51 506.078 530.214 505.802 530.21C491.629 530.017 477.449 530.497 463.277 530.21C462.863 530.202 462.407 529.741 462.393 529.326C462.11 520.533 462.202 511.739 462.393 502.943C462.4 502.666 462.713 502.351 462.989 502.347C477.26 502.154 491.531 502.54 505.802 502.347C506.078 502.343 506.372 502.047 506.378 501.771C506.57 493.17 506.187 484.564 506.378 475.964C506.385 475.687 506.698 475.377 506.974 475.368ZM553.803 500.272C559.755 500.656 565.621 504.129 565.621 511.436C565.621 517.727 565.581 531.094 555.648 531.094C552.499 531.094 547.35 530.982 544.81 528.442C536.693 520.325 538.822 501.319 551.247 500.291C552.084 500.222 552.953 500.217 553.803 500.272ZM558.146 533.477C560.349 533.512 562.539 533.633 564.737 533.727C566.182 533.788 566.244 540.371 564.737 540.471C552.065 541.316 543.921 537.56 546.559 553.384C546.861 555.199 549.023 557.746 550.959 557.785C555.553 557.877 560.146 557.597 564.737 557.785C566.206 557.845 566.148 564.503 564.737 564.53C559.751 564.624 554.77 564.403 549.787 564.222C548.824 564.187 546.404 563.49 545.675 562.762C537.298 554.385 537.963 535.192 551.555 533.727C553.742 533.491 555.943 533.441 558.146 533.477ZM525.441 560.129C527.791 561.696 526.649 561.264 526.613 565.106C526.527 574.197 526.802 583.284 526.613 592.373C526.57 594.447 523.747 595.359 522.231 596.774C517.324 601.354 512.016 605.835 507.551 610.859C506.034 612.564 510.59 614.279 512.258 615.836C514.009 617.469 519.493 622.56 521.04 624.06C522.727 625.696 525.693 626.712 526.036 629.037C527.437 638.514 526.228 648.206 526.036 657.784C526.031 658.06 525.636 658.165 525.441 658.36C522.629 655.671 519.89 653.07 517.235 650.443C508.097 641.4 501.455 628.951 489.968 623.176C481.933 619.137 471.981 623.367 462.989 623.176C462.713 623.17 462.399 622.857 462.393 622.58C462.202 613.785 462.202 604.993 462.393 596.197C462.399 595.921 462.713 595.607 462.989 595.601C471.981 595.41 482.148 600.044 489.968 595.601C504.513 587.339 513.612 571.958 525.441 560.129ZM547.116 566.893C552.967 566.671 558.873 567.307 564.737 567.45C566.169 567.485 566.169 574.16 564.737 574.195C556.919 574.386 549.112 574.386 541.294 574.195C539.884 574.161 539.157 567.8 541.294 567.45C543.223 567.134 545.165 566.967 547.116 566.893ZM548.615 576.751C549.176 576.776 549.739 576.923 549.787 577.423C549.963 579.272 549.963 581.147 549.787 582.996C549.773 583.139 545.982 585.175 545.982 589.452C545.982 592.817 545.421 600.669 547.443 601.174C549.643 601.724 550.159 600.334 550.383 598.542C550.517 597.47 550.594 596.39 550.671 595.313C550.926 591.738 550.427 577.423 557.416 577.423C558.385 577.423 560.875 577.484 561.816 578.307C568.037 583.751 568.285 605.669 558.588 607.054C555.597 607.481 556.987 601.867 557.127 600.886C557.137 600.819 559.374 599.284 559.472 599.137C560.204 598.039 560.356 595.063 560.356 594.141C560.356 589.249 560.423 583.003 557.704 584.168C555.941 584.924 556.064 588.432 555.955 589.741C555.587 594.164 556.914 606.551 550.075 607.919C536.845 610.565 536.783 579.483 547.443 576.847C547.498 576.833 548.054 576.726 548.615 576.751ZM221.043 429.615C207.152 432.394 193.117 435.997 179.691 440.472C178.251 440.952 167.987 443.77 167.95 444.873C167.666 453.275 167.666 461.682 167.95 470.084C167.964 470.498 168.54 470.674 168.834 470.968C177.134 466.818 187.754 464.722 196.697 462.167C199.62 461.332 203.764 461.03 206.381 459.534C209.089 457.987 213.292 447.395 215.163 444.277C216.513 442.027 223.212 431.11 221.043 429.615ZM192.584 485.918C186.659 485.918 178.434 490.467 172.946 492.662C171.987 493.046 168.016 493.816 167.95 495.314C167.576 503.811 167.666 512.333 167.95 520.833C167.964 521.247 168.54 521.404 168.834 521.698C170.621 520.804 173.079 520.646 174.694 519.353C176.703 517.747 177.517 514.757 178.807 512.608C182.025 507.245 184.679 501.56 187.896 496.198C189.324 493.817 193.47 488.574 192.584 485.918ZM551.555 506.459C544.595 507.275 542.301 521.47 549.499 524.349C550.753 524.851 554.782 524.926 555.071 524.926C560.535 524.926 560.644 516.775 560.644 513.492C560.644 507.926 556.047 505.933 551.555 506.459ZM393.985 693.641C392.545 693.647 391.252 693.733 390.257 693.852C376.713 695.476 371.253 708.879 381.745 719.37C386.308 723.934 398.227 722.916 403.439 720.831C407.058 719.383 411.7 714.706 411.068 710.281C411.029 710.008 410.767 709.709 410.492 709.686C408.348 709.507 406.178 709.507 404.035 709.686C403.749 709.71 401.387 714.161 400.519 714.682C394.866 718.073 385.37 716.349 384.377 709.397C383.156 700.848 392.646 697.554 399.923 701.192C401.34 701.901 403.354 706.336 404.323 706.457C406.36 706.712 408.446 706.635 410.492 706.457C414.202 706.135 406.891 697.303 406.668 697.08C403.919 694.332 398.305 693.622 393.985 693.641ZM349.481 693.852C343.102 694.385 332.507 700.478 340.681 707.63C345.024 711.43 354.13 710.485 359.166 710.858C360.072 710.925 366.533 711.074 365.027 714.086C363.322 717.496 350.157 716.582 346.849 715.258C345.701 714.799 345.047 712.075 344.505 712.03C342.158 711.835 337.982 710.328 337.472 712.626C336.292 717.932 342.219 720.53 346.253 721.427C354.282 723.211 365.227 723.859 371.484 717.603C372.422 716.664 372.656 713.762 372.656 712.626C372.656 704.36 358.365 705.315 353.594 704.997C352.419 704.919 351.248 704.832 350.077 704.709C349.043 704.6 345.388 704.259 345.388 702.364C345.388 699.154 353.362 700.02 358.878 700.02C362.255 700.02 364.246 703.519 364.451 703.537C366.496 703.715 368.554 703.715 370.6 703.537C370.875 703.513 371.135 703.211 371.195 702.941C372.534 696.918 363.853 694.262 359.454 694.14C356.131 694.048 352.795 693.575 349.481 693.852Z" fill="#FFFFFF" fill-rule="nonzero" opacity="1" stroke="none"/>
</g>
</svg>
