<?xml version="1.0" encoding="UTF-8" standalone="no"?>
<!DOCTYPE svg PUBLIC "-//W3C//DTD SVG 1.1//EN" "http://www.w3.org/Graphics/SVG/1.1/DTD/svg11.dtd">
<!-- Created with Vectornator (http://vectornator.io/) -->
<svg height="100%" stroke-miterlimit="10" style="fill-rule:nonzero;clip-rule:evenodd;stroke-linecap:round;stroke-linejoin:round;" version="1.1" viewBox="0 0 750 1000" width="100%" xml:space="preserve" xmlns="http://www.w3.org/2000/svg" xmlns:vectornator="http://vectornator.io" xmlns:xlink="http://www.w3.org/1999/xlink">
<defs/>
<g id="Layer-1" vectornator:layerName="Layer 1">
<path d="" fill="none" opacity="1" stroke="#f5c81a" stroke-linecap="butt" stroke-linejoin="round" stroke-width="1" vectornator:layerName="path"/>
<path d="M374.824 219.711C372.21 220.279 367.721 224.638 366.147 225.862C358.598 231.734 350.652 237.559 342.693 242.865C342.511 242.986 342.336 243.162 342.118 243.165C335.184 243.26 328.248 243.074 321.314 243.165C317.17 243.22 321.603 253.144 322.764 255.467C322.471 255.76 322.482 255.749 322.189 256.042C319.351 253.204 315.854 250.944 312.513 248.716C308.116 252.014 308.645 265.464 304.911 269.82C302.306 272.86 298.177 275.13 294.935 277.446C287.188 282.98 279.094 288.329 271.781 294.424C274.92 300.702 275.983 308.78 278.232 315.528C278.95 317.682 280.994 321.592 280.282 323.729C270.235 323.729 259.775 325.781 249.802 326.955C237.182 328.439 224.579 329.723 212.02 331.656C207.347 332.375 202.551 333.059 197.943 333.981C196.64 334.242 194.166 333.828 194.142 335.156C193.95 345.996 194.165 356.845 194.142 367.687C194.067 403.045 194.133 438.399 193.842 473.755C193.836 474.53 193.022 474.32 192.667 474.355C188.51 474.771 184.154 475.772 180.065 476.681C171.165 478.658 161.599 480.302 153.11 483.132C148.821 484.561 143.488 484.58 139.333 486.658C137.349 487.649 139.554 491.87 139.933 493.384C141.401 499.258 142.94 505.122 144.608 510.962C144.899 511.979 145.958 514.039 145.784 515.088C145.628 516.02 139.733 516.675 138.757 516.838C131.827 517.993 122.991 518.634 116.479 521.239C116.094 521.393 115.622 521.7 115.603 522.114C115.324 528.359 116.887 534.749 115.603 540.867C115.121 543.165 112.261 544.155 110.628 545.843C109.33 547.184 108.107 548.586 106.827 549.944C98.9108 558.339 90.9557 566.721 83.0726 575.148C81.5149 576.813 79.9506 578.455 78.3968 580.124C77.1588 581.454 74.2698 582.947 75.1712 584.525C76.5494 586.936 80.8485 588.787 83.0726 590.376C90.4829 595.669 97.9412 600.91 105.352 606.203C106.338 606.908 115.603 613.513 115.603 613.53C115.979 620.943 115.322 628.391 115.603 635.809C115.619 636.223 116.074 636.594 116.479 636.684C119.676 637.394 131.189 634.152 134.657 633.458C147.816 630.826 161.245 629.348 174.514 627.307C178.921 626.629 189.664 623.606 193.542 624.382C194.025 624.478 195.196 633.227 195.592 635.208C197.414 644.316 199.824 654.922 204.694 663.038C218.061 685.317 233.679 705.005 255.078 721.649C280.221 741.205 307.972 755.354 336.542 766.781C344.652 770.025 353.985 772.277 361.746 776.158C364.386 777.478 369.952 779.894 372.873 780.259C381.731 781.366 399.061 772.609 407.754 769.132C449.637 752.379 488.101 730.968 521.449 697.619C534.662 684.406 545.95 666.462 551.029 648.686C552.685 642.892 554.283 637.034 555.13 631.108C555.362 629.485 554.774 625.48 556.605 624.382C557.868 623.624 573.197 626.628 575.659 627.007C588.933 629.049 602.276 631.27 615.49 633.158C621.085 633.957 628.355 637.007 633.969 636.384C634.243 636.353 634.537 636.085 634.544 635.809C634.734 628.388 634.262 620.948 634.544 613.53C634.555 613.232 644.324 606.343 645.396 605.628C652.959 600.586 660.252 595.084 667.65 589.801C669.737 588.31 673.481 586.618 674.976 584.525C675.578 583.682 664.763 572.93 663.274 571.347C655.649 563.246 648.033 555.106 640.395 547.018C638.45 544.959 635.2 543.623 634.544 540.867C633.119 534.881 634.638 528.541 634.544 522.389C634.539 522.098 633.888 521.293 633.669 521.239C626.648 519.483 618.882 518.337 611.69 517.138C610.33 516.911 604.874 516.62 604.364 515.088C603.525 512.571 609.053 497.532 609.939 493.984C610.372 492.253 612.636 487.751 610.815 486.658C607.905 484.912 602.437 484.569 599.088 483.732C588.865 481.177 578.687 478.752 568.332 476.681C564.951 476.005 559.976 475.891 556.905 474.355C556.658 474.232 556.307 474.032 556.305 473.755C556.111 442.305 556.372 410.865 556.305 379.414C556.274 364.665 556.294 349.902 556.005 335.156C555.987 334.244 552.512 334.082 551.904 333.981C546.549 333.088 541.183 332.328 535.802 331.656C519.214 329.582 502.61 327.434 485.993 325.48C482.976 325.125 470.897 325.036 469.29 323.429C473.73 314.548 473.884 303.389 478.367 294.424C468.759 284.817 454.834 279.694 445.261 270.12C442.383 267.242 441.304 250.401 437.935 248.716C437.589 248.543 429.217 254.903 427.958 255.742C427.665 255.449 427.676 255.46 427.383 255.167C428.391 253.151 431.981 243.474 429.433 243.44C422.303 243.346 415.183 243.355 408.054 243.165C407.836 243.159 407.625 243.002 407.454 242.865C400.383 237.208 392.859 232.012 385.475 226.737C382.66 224.726 379.107 220.814 375.799 219.711C375.516 219.617 375.197 219.63 374.824 219.711ZM375.224 230.563C377.089 231.029 379.247 233.255 380.8 234.364C386.382 238.351 391.922 242.379 397.502 246.366C399.083 247.495 403.597 252.163 405.404 252.242C409.697 252.428 414.008 252.242 418.306 252.242C418.89 253.994 417.412 256.649 416.831 258.393C414.726 264.708 413.603 272.476 410.68 278.321C410.973 278.614 410.962 278.603 411.255 278.896C418.454 273.497 425.749 268.059 433.234 263.069C436.162 265.997 434.91 272.671 437.634 275.396C443.914 281.675 452.682 286.634 459.913 291.799C461.951 293.254 466.82 295.628 467.815 297.95C468.222 298.901 466.122 303.329 465.764 304.401C463.568 310.989 461.81 317.74 459.613 324.329C459.304 325.256 456.598 331.923 458.138 332.231C465.269 333.657 473.818 333.234 481.292 333.981C496.255 335.477 511.25 337.132 526.125 339.257C532.282 340.136 540.577 339.741 546.353 341.907C547.785 342.444 547.529 344.82 547.529 345.708C547.529 350.202 549.238 355.166 547.229 359.185C546.603 360.436 542.478 359.023 541.378 358.885C532.869 357.822 524.402 356.388 515.873 355.385C492.373 352.62 468.879 350.383 445.261 348.634C433.522 347.764 420.333 345.583 408.629 346.883C406.359 347.136 402.331 351.375 400.428 352.734C392.2 358.612 384.146 365.739 375.524 370.912C374.137 371.744 368.412 366.454 367.322 365.637C361.055 360.936 354.535 356.558 348.269 351.859C347.042 350.939 343.271 347.022 341.818 346.883C333.387 346.08 323.571 347.833 315.163 348.358C298.526 349.398 281.917 350.651 265.329 352.159C249.741 353.576 234.267 355.795 218.746 357.735C216.363 358.033 203.91 360.508 202.919 359.185C202.788 359.011 202.644 358.829 202.644 358.61C202.644 353.628 202.826 348.639 202.919 343.658C202.936 342.699 202.709 342.79 203.519 342.182C205.959 340.353 217.918 339.666 221.397 339.257C237.503 337.362 253.581 335.321 269.73 333.706C273.886 333.29 288.93 330.691 292.009 332.231C293.404 330.836 290.868 325.556 290.259 323.729C287.521 315.515 286.174 305.634 282.332 297.95C291.508 290.303 302.177 284.48 311.337 276.846C314.324 274.358 314.475 264.588 316.913 263.369C318.115 262.768 321.292 265.953 322.189 266.594C327.608 270.464 333.286 275.943 339.192 278.896C339.485 278.603 339.474 278.614 339.767 278.321C336.91 272.606 335.083 265.452 333.316 259.268C332.875 257.724 330.961 254.34 331.266 252.817C331.32 252.546 331.59 252.254 331.866 252.242C336.062 252.055 340.269 252.335 344.468 252.242C345.939 252.209 348.535 249.562 349.719 248.716C356.205 244.083 362.587 239.296 369.073 234.664C370.268 233.81 373.686 230.179 375.224 230.563ZM330.341 355.035C333.006 354.974 335.644 354.979 338.292 355.085C339.818 355.146 343.285 358.298 344.468 359.185C350.155 363.451 358.675 367.601 362.921 373.263C362.726 373.458 362.597 373.82 362.321 373.838C350.153 374.631 337.9 374.372 325.715 375.013C303.656 376.174 281.751 378.292 259.779 380.289C247.766 381.381 234.593 381.78 222.847 384.39C222.577 384.45 222.285 384.689 222.272 384.965C222.086 388.965 222.544 392.997 222.272 396.992C222.262 397.137 222.193 397.273 222.172 397.417C222.198 397.471 222.271 397.502 222.272 397.567C222.561 421.593 222.466 445.628 222.272 469.655C222.261 471.073 219.289 471.263 217.321 471.13C213.495 472.154 206.186 472.971 204.094 473.18C203.705 473.219 202.973 473.249 202.919 472.58C202.642 469.171 202.644 465.748 202.644 462.328C202.644 430.975 202.172 399.606 202.919 368.262C202.951 366.898 210.62 366.635 211.42 366.512C222.228 364.849 233.108 363.557 243.951 362.111C264.632 359.353 285.547 357.995 306.362 356.56C314.282 356.014 322.344 355.216 330.341 355.035ZM411.555 355.085C448.414 356.884 478.307 359.384 508.247 362.711C520.107 364.029 535.274 364.443 546.628 367.687C546.894 367.763 547.22 367.986 547.229 368.262C547.43 374.706 547.552 381.168 547.529 387.615C547.432 413.987 547.32 440.357 547.229 466.729C547.221 468.887 548.744 472.757 546.628 473.18C543.062 473.894 536.567 471.357 532.876 470.83C531.281 470.602 528.197 471.265 528.175 469.655C527.885 447.973 527.95 426.302 527.875 404.618C527.853 398.074 528.065 391.506 527.875 384.965C527.867 384.689 527.562 384.477 527.3 384.39C517.813 381.227 505.848 381.754 495.945 380.589C472.411 377.821 448.708 375.897 425.032 374.713C416.95 374.309 408.819 373.954 400.728 373.838C396.431 373.777 392.119 374.025 387.826 373.838C387.55 373.826 387.421 373.458 387.226 373.263C394.875 366.888 404.534 362.106 411.555 355.085ZM360.571 382.915C377.049 382.914 393.645 383.169 410.105 383.815C431.703 384.662 453.341 385.652 474.841 387.915C485.779 389.067 496.755 390.051 507.672 391.416C508.758 391.552 517.917 392.488 517.923 393.191C518.117 414.581 518.117 435.963 517.923 457.352C517.921 457.629 517.544 457.732 517.348 457.928C513.309 451.869 508.978 445.999 504.746 440.074C503.659 438.552 502.333 435.719 500.645 434.799C499.302 434.066 495.419 434.01 494.194 433.898C487.641 433.303 481.129 432.395 474.566 431.848C459.534 430.595 444.501 429.509 429.433 428.622C421.289 428.143 412.697 427.184 404.529 427.747C395.848 428.346 411.682 459.617 403.354 459.703C384.504 459.896 365.644 459.896 346.794 459.703C338.477 459.618 354.081 428.029 345.618 427.747C323.978 427.026 301.536 429.889 279.982 431.848C272.935 432.489 265.918 433.022 258.903 433.898C256.042 434.256 251.941 433.894 249.227 434.799C248.197 435.142 246.369 438.84 245.701 439.774C241.576 445.549 237.839 452.337 232.824 457.352C230.81 455.339 231.962 451.699 231.949 448.851C231.863 430.293 231.755 411.748 231.949 393.191C231.963 391.778 236.846 391.828 237.8 391.716C244.922 390.878 252.042 390.045 259.178 389.366C292.882 386.156 326.648 382.915 360.571 382.915ZM278.257 439.699C279.04 439.766 279.682 439.998 279.707 440.65C279.989 447.97 279.802 455.304 279.707 462.628C279.704 462.847 279.538 463.029 279.407 463.203C278.266 464.725 272.263 464.504 270.605 464.679C262.989 465.48 255.356 466.079 247.751 467.029C245.714 467.284 241.787 468.679 239.85 467.904C237.654 467.026 245.859 457.833 246.876 456.477C250.427 451.743 254.056 445.614 258.603 441.825C260.39 440.336 272.878 439.949 275.881 439.774C276.532 439.737 277.473 439.633 278.257 439.699ZM471.34 439.774C475.639 439.998 480.008 440.804 484.218 441.225C486.752 441.478 489.725 440.412 491.844 441.825C495.676 444.379 501.418 454.19 504.446 458.228C505.115 459.12 512.662 467.51 510.297 467.904C508.109 468.269 504.622 467.026 502.396 466.729C496.755 465.977 491.052 465.518 485.393 464.979C480.815 464.543 475.829 464.62 471.34 463.804C471.069 463.754 470.747 463.48 470.74 463.203C470.55 455.587 470.55 447.966 470.74 440.35C470.747 440.073 471.064 439.76 471.34 439.774ZM342.418 468.204C400.287 468.204 459.077 468.455 516.448 477.281C536.805 480.413 557.423 482.836 577.409 487.833C584.755 489.669 593.281 490.316 600.263 493.109C601.545 493.622 599.12 499.847 598.788 501.01C596.253 509.882 593.699 518.713 591.461 527.665C588.572 539.221 595.252 556.724 597.912 568.697C598.827 572.81 599.005 578.807 600.838 582.474C599.581 583.731 595.197 581.72 593.512 581.299C585.349 579.258 577.087 577.541 568.907 575.723C535.821 568.371 501.529 564.736 467.815 561.671C445.418 559.635 422.609 558.145 400.128 558.145C349.453 558.145 298.096 558.759 247.751 565.471C225.368 568.456 203.066 571.598 180.94 576.023C173.525 577.506 165.959 578.921 158.686 580.999C155.966 581.776 152.749 583.049 149.884 583.049C148.819 579.854 151.507 573.723 152.235 570.447C154.771 559.036 157.022 547.521 159.861 536.166C160.515 533.55 159.398 531.056 158.686 528.565C156.305 520.231 154.035 511.762 151.935 503.36C151.343 500.994 148.826 496.033 149.609 493.684C150.013 492.473 154.136 491.926 155.16 491.633C161.983 489.684 169.038 488.497 175.964 486.958C206.693 480.129 238.12 475.865 269.455 472.88C293.619 470.579 318.124 468.204 342.418 468.204ZM147.559 524.164C153.022 528.455 150.884 536.442 149.884 541.442C147.236 554.686 144.034 567.831 141.108 580.999C140.694 582.862 137.587 594.084 138.182 595.076C140.066 598.217 148.22 599.371 151.36 600.627C159.421 603.852 167.614 607.374 175.689 610.604C179.028 611.94 184.661 613.126 187.116 615.58C184.725 617.971 177.173 617.765 173.914 618.23C162.587 619.849 151.211 621.431 139.933 623.481C137.608 623.904 126.946 626.546 125.28 625.832C124.899 625.669 124.426 625.371 124.405 624.957C124.127 619.592 124.687 614.218 124.405 608.854C124.361 608.015 123.038 607.867 122.355 607.379C113.704 601.199 105.12 594.822 96.2749 588.925C95.2861 588.266 88.0542 583.323 88.6486 582.474C95.1238 573.224 104.677 565.184 112.378 556.97C114.032 555.206 115.718 553.452 117.379 551.694C119.039 549.936 120.68 548.163 122.355 546.418C123.024 545.72 124.289 545.328 124.405 544.368C125.002 539.422 124.217 534.418 124.405 529.44C124.452 528.186 128.93 527.815 129.681 527.665C135.506 526.5 141.935 526.039 147.559 524.164ZM601.738 524.164C603.203 523.745 612.554 526.332 614.615 526.79C615.956 527.088 625.738 528.669 625.767 529.44C625.955 534.32 625.583 539.212 625.767 544.093C625.781 544.444 626.11 544.703 626.342 544.968C627.846 546.686 633.788 552.926 634.844 554.044C640.538 560.073 646.189 566.16 651.847 572.222C654.147 574.687 660.352 580.156 661.799 583.049C653.027 590.066 643.385 596.149 634.244 602.678C633.342 603.322 625.774 608.654 625.767 608.854C625.579 614.223 626.045 619.592 625.767 624.957C625.746 625.371 625.269 625.731 624.867 625.832C622.531 626.416 613.034 623.719 610.215 623.206C599.71 621.297 589.11 619.85 578.584 618.23C575.701 617.787 564.676 617.2 563.056 615.58C565.672 612.964 570.16 612.753 573.308 611.179C581.851 606.908 591.31 603.633 600.263 600.052C601.795 599.439 611.754 595.901 611.99 595.076C612.469 593.399 609.329 582.984 608.764 580.724C606.216 570.531 604.288 560.18 602.013 549.944C600.92 545.024 598.513 539.159 598.513 534.116C598.512 532.793 600.52 524.512 601.738 524.164ZM355.595 566.346C368.293 566.346 380.979 566.569 393.677 566.647C396.9 566.666 400.136 566.463 403.354 566.647C403.629 566.662 403.927 566.945 403.929 567.222C404.123 613.323 403.637 659.445 403.929 705.546C403.934 706.33 407.407 708.308 408.329 709.046C413.208 712.949 418.619 716.909 422.682 721.649C412.714 728.294 400.493 732.425 389.301 736.901C385.608 738.378 379.738 741.877 375.799 741.877C372.864 741.877 368.574 739.865 366.147 738.651C360.317 735.737 353.774 733.767 347.669 731.325C343.107 729.501 330.33 725.194 327.465 721.373C332.098 717.403 336.83 713.553 341.518 709.646C342.307 708.989 345.885 706.885 345.919 705.821C346.394 690.786 346.187 675.755 346.219 660.713C346.284 629.555 346.024 598.379 346.219 567.222C346.22 566.945 346.519 566.672 346.794 566.647C349.713 566.373 352.663 566.346 355.595 566.346ZM278.232 570.447C279.031 570.661 279.707 571.206 279.707 571.622C279.707 587.446 279.463 603.282 279.407 619.106C279.366 630.631 279.599 642.138 279.407 653.662C279.402 653.938 279.027 654.066 278.832 654.262C263.78 644.227 234.71 617.086 232.224 595.952C231.459 589.452 231.711 582.864 231.949 576.323C231.985 575.312 240.55 574.447 242.2 574.273C254.217 573.008 266.172 571.375 278.232 570.447ZM471.34 570.447C484.465 571.736 496.342 573.147 508.247 574.548C509.652 574.713 518.211 575.596 518.224 576.323C518.638 600.376 513.295 615.232 496.245 632.283C489.673 638.854 480.213 649.825 471.34 654.262C471.145 654.066 470.742 653.938 470.74 653.662C470.546 626.118 470.546 598.59 470.74 571.047C470.742 570.771 471.145 570.643 471.34 570.447ZM221.097 577.198C221.578 577.113 222.256 577.585 222.272 578.074C222.75 592.522 222.39 606.976 222.572 621.431C222.682 630.182 225.365 641.119 229.298 648.986C246.567 683.523 280.969 708.952 315.163 726.049C322.396 729.666 330.437 732.811 338.017 736.601C346.458 740.822 355.559 744.39 364.672 747.428C367.538 748.384 371.644 750.954 374.649 750.954C376.701 750.954 379.789 749.358 381.675 748.603C388.721 745.785 396.629 744.064 403.354 740.702C405.631 739.563 408.414 737.818 410.98 737.176C419.673 735.003 427.971 729.281 436.184 725.174C469.345 708.594 499.874 684.752 519.399 652.211C527.77 638.259 528.074 619.877 528.175 604.453C528.233 595.663 527.984 586.862 528.175 578.074C528.181 577.797 528.502 577.537 528.775 577.498C531.932 577.048 543.249 579.279 546.628 580.124C547.252 580.28 547.529 581.476 547.529 581.874C547.529 596.172 548.043 612.759 546.628 627.607C541.81 678.205 491.257 719.317 448.486 740.702C439.187 745.352 429.533 749.441 420.056 754.179C410.432 758.992 399.983 763.012 389.576 766.481C385.571 767.816 380.012 771.182 375.799 771.182C372.17 771.182 368.063 768.787 364.672 767.657C357.167 765.155 348.464 763.142 341.818 759.155C339.439 757.728 336.373 757.458 333.916 756.23C329.802 754.172 325.054 751.232 320.439 750.078C313.283 748.29 305.991 742.404 299.635 739.227C280.671 729.744 260.795 716.814 245.701 701.72C218.759 674.778 202.925 650.595 202.644 611.779C202.569 601.524 202.359 591.251 202.644 580.999C202.679 579.737 205.776 579.838 205.869 579.824C210.9 579.05 216.091 578.082 221.097 577.198ZM193.542 582.124C194.026 582.181 194.433 582.372 194.442 582.774C194.633 591.172 194.633 599.556 194.442 607.954C194.436 608.23 194.037 608.358 193.842 608.554C184.517 603.891 173.969 600.71 164.262 596.827C161.187 595.597 154.013 594.218 152.235 591.551C155.219 588.567 174.826 585.727 179.79 584.825C183.889 584.079 187.949 582.635 192.092 582.174C192.492 582.13 193.058 582.067 193.542 582.124ZM557.48 582.249C560.003 582.272 564.284 583.614 565.682 583.925C573.477 585.657 581.47 587.01 589.136 589.2C591.472 589.868 596.593 589.872 597.912 591.851C595.042 594.721 588.793 595.899 585.035 597.402C575.571 601.188 565.216 604.398 556.305 608.854C556.11 608.659 555.74 608.53 555.73 608.254C555.445 600.64 555.522 593.018 555.43 585.4C555.421 584.656 555.217 583.458 555.73 582.774C556.009 582.402 556.64 582.241 557.48 582.249ZM328.64 590.976C329.268 590.97 330.553 590.701 330.691 591.851C330.947 593.984 330.957 596.17 330.691 598.302C330.463 600.125 328.258 597.708 328.04 597.702C320.62 597.512 313.207 597.512 305.787 597.702C305.51 597.709 305.246 598.032 305.186 598.302C303.155 607.445 324.253 595.627 324.815 601.528C325.01 603.579 326.299 607.615 324.24 607.679C318.089 607.868 311.937 607.489 305.787 607.679C305.51 607.687 305.208 607.978 305.186 608.254C304.956 611.137 304.916 614.71 306.962 616.755C305.943 617.774 304.801 617.33 303.436 617.33C300.897 617.33 298.343 617.511 295.81 617.33C295.534 617.311 295.43 616.951 295.235 616.755C295.685 616.455 297.258 615.497 297.285 615.005C297.653 608.373 297.285 601.718 297.285 595.076C297.285 593.141 297.387 593.703 295.535 591.851C295.73 591.656 295.834 591.258 296.11 591.251C306.948 590.963 317.799 591.07 328.64 590.976ZM440.86 590.976C445.158 590.902 449.465 590.881 453.762 590.976C454.177 590.985 454.588 591.439 454.637 591.851C454.918 594.186 456.141 597.825 454.037 598.877C453.053 599.369 452.622 597.718 451.987 597.702C444.566 597.512 437.156 597.607 429.733 597.702C428.97 597.712 428.034 598.418 427.958 599.177C427.608 602.676 427.681 606.224 427.958 609.729C428.029 610.625 431.54 610.901 431.783 610.904C439.206 610.995 446.617 610.714 454.037 610.904C454.314 610.911 454.598 611.206 454.637 611.479C455.008 614.074 454.738 617.323 454.037 617.33C445.247 617.426 436.472 617.244 427.683 617.055C426.646 617.033 424.653 616.303 423.857 615.58C417.68 609.965 417.467 591.479 427.958 591.251C432.255 591.157 436.562 591.049 440.86 590.976ZM232.824 622.331C242.212 633.597 250.392 644.539 261.529 654.562C265.642 658.264 270.003 661.793 274.431 665.114C275.891 666.209 278.459 667.335 279.407 668.914C281.869 673.018 279.471 678.481 279.407 683.267C279.366 686.301 280.977 690.198 278.832 692.343C274.375 689.372 270.002 685.564 266.23 681.792C263.348 678.91 260.537 675.968 257.728 673.015C247.762 662.538 238.837 649.679 234.874 635.809C234.074 633.008 230.833 624.322 232.824 622.331ZM517.348 622.331C519.093 624.076 516.136 632.396 515.298 634.908C510.861 648.219 504.68 661.079 494.494 671.265C490.441 675.318 486.303 679.297 482.167 683.267C479.199 686.116 475.026 690.501 471.34 692.343C471.145 692.148 470.747 692.044 470.74 691.768C470.55 684.25 470.277 676.721 470.74 669.214C470.775 668.657 474.039 666.674 474.566 666.264C478.628 663.104 482.673 659.988 486.568 656.612C494.64 649.616 502.167 641.808 508.847 633.458C511.73 629.855 514.091 625.589 517.348 622.331ZM287.908 675.065C292.207 677.215 295.974 680.574 300.211 682.692C306.328 685.75 312.791 689.12 318.664 692.643C323.38 695.473 334.835 698.177 337.717 702.02C333.348 705.765 328.96 709.463 324.54 713.147C323.168 714.29 320.362 717.943 318.389 717.548C315.325 716.935 312.13 713.693 309.287 712.272C303.97 709.614 290.709 703.029 287.308 698.494C284.964 695.369 287.257 690.699 287.308 686.792C287.36 682.881 285.142 677.831 287.908 675.065ZM461.964 675.065C463.147 675.854 463.12 677.744 463.139 679.166C463.221 685.417 463.234 691.669 463.139 697.919C463.129 698.605 451.476 706.072 449.937 706.996C447.498 708.459 432.946 717.988 431.183 717.548C427.378 716.597 422.456 710.72 419.481 708.171C417.258 706.266 413.755 704.369 412.43 701.72C415.97 698.18 422.888 696.941 427.383 694.694C435.972 690.399 445.178 685.357 454.037 680.041C456.528 678.546 460.04 676.99 461.964 675.065ZM374.924 251.367C367.601 255.028 360.444 261.945 353.845 266.894C356.657 272.518 357.971 280.147 359.996 286.223C360.273 287.055 361.062 291.77 362.321 291.799C370.817 291.99 379.33 291.99 387.826 291.799C389.013 291.772 389.626 287.273 389.876 286.523C390.974 283.229 396.677 269.192 396.027 266.594C395.697 265.274 392.114 263.552 391.051 262.794C385.869 259.092 380.81 255.193 374.924 251.367ZM427.433 288.848C426.905 288.692 426.482 288.685 426.207 288.873C419.433 293.518 410.64 297.82 405.704 304.401C405.09 305.22 406.853 309.047 407.154 309.952C408.772 314.805 410.454 319.701 411.855 324.604C412.148 325.63 412.726 329.212 413.905 329.605C416.409 330.44 419.171 329.748 421.807 329.88C427.306 330.155 433.333 331.177 438.81 330.755C439.706 330.686 443.234 318.358 443.786 316.703C444.713 313.92 448.411 306.9 447.611 304.101C447.214 302.71 443.721 301.133 442.61 300.3C440.16 298.463 431.127 289.942 427.433 288.848ZM323.365 288.873C318.406 290.776 314.242 295.714 309.887 298.825C307.695 300.391 304.121 302.217 302.561 304.401C301.908 305.315 303.698 308.736 304.011 309.677C305.732 314.839 307.291 320.042 309.012 325.204C309.366 326.266 309.842 330.589 311.337 330.755C318.768 331.581 327.341 330.432 334.792 329.88C335.288 329.843 335.784 329.801 336.242 329.605C336.932 329.309 339.597 320.166 340.067 318.753C340.563 317.267 344.928 304.831 344.743 304.401C343.522 301.551 331.183 294.044 328.04 291.799C326.861 290.956 324.707 288.358 323.365 288.873ZM362.921 309.677C360.754 310.399 360.301 314.586 359.696 316.703C358.063 322.42 356.504 329.262 353.845 334.581C358.403 339.139 364.41 342.567 369.648 346.308C370.783 347.119 374.107 350.376 375.524 349.809C378.289 348.703 394.642 337.073 396.027 334.856C396.879 333.493 394.677 329.531 394.277 328.13C393.097 324 390.58 312.429 362.921 309.677ZM372.573 487.783C367.884 487.691 363.206 487.665 358.521 487.833C354.438 487.979 348.664 492.001 348.569 496.609C348.378 505.887 348.173 515.185 348.269 524.464C348.285 526.008 350.688 529.209 351.795 530.315C356.623 535.144 363.668 533.316 369.948 533.541C375.512 533.739 381.088 533.777 386.651 533.541C390.765 533.366 395.941 528.625 396.027 524.464C396.214 515.382 396.327 506.294 396.327 497.209C396.327 496.196 395.471 494.209 394.852 493.384C392.798 490.644 390.209 488.178 386.651 488.108C381.963 488.016 377.262 487.875 372.573 487.783ZM372.298 496.459C376.499 496.49 380.701 496.562 384.9 496.609C385.801 496.62 386.634 497.541 386.951 498.385C387.329 499.395 387.213 500.506 387.226 501.585C387.31 508.617 387.321 515.657 387.226 522.689C387.216 523.424 385.666 524.739 384.9 524.739C376.5 524.739 368.096 524.56 359.696 524.464C359.501 524.462 359.258 524.573 359.096 524.464C358.461 524.041 357.655 523.452 357.646 522.689C357.55 514.68 357.55 506.668 357.646 498.66C357.657 497.727 358.872 496.643 359.696 496.609C363.892 496.44 368.097 496.429 372.298 496.459ZM405.879 488.233C405.125 488.287 404.511 488.426 404.229 488.708C405.396 489.875 407.741 491.171 407.754 492.809C407.85 505.115 407.85 517.409 407.754 529.715C407.742 531.305 405.653 532.116 404.529 533.241C405.174 534.208 420.179 534.868 420.932 534.116C420.159 532.57 417.616 532.033 417.431 530.315C416.478 521.478 417.24 512.522 417.431 503.636C417.437 503.359 417.811 503.256 418.006 503.06C425.049 510.103 430.643 519.226 436.759 527.09C440.685 532.137 441.321 535.683 448.186 535.891C449.392 535.928 457.733 537.472 459.038 536.166C458.327 534.744 455.927 534.252 455.813 532.666C454.909 520.098 454.909 507.426 455.813 494.859C455.912 493.481 457.761 492.91 458.738 491.933C457.963 490.771 443.949 489.719 442.91 490.758C443.56 492.057 445.707 492.538 445.836 493.984C446.633 502.934 446.027 511.955 445.836 520.939C445.83 521.215 445.456 521.318 445.261 521.514C437.96 514.213 432.242 504.753 425.907 496.609C424.848 495.247 421.299 488.965 419.756 488.708C417.251 488.29 414.694 488.766 412.155 488.708C411.769 488.699 408.142 488.072 405.879 488.233ZM319.264 489.283C317.406 489.283 315.542 489.459 313.688 489.583C309.584 489.857 305.485 490.165 301.386 490.458C297.816 490.713 288.758 489.308 285.858 492.209C286.835 493.185 288.685 493.781 288.784 495.159C289.688 507.824 288.976 520.545 288.784 533.241C288.764 534.555 287.023 535.177 286.158 536.166C287.144 537.645 300.481 536.77 301.961 535.291C300.837 534.167 298.785 533.355 298.735 531.765C298.644 528.837 298.552 525.913 298.735 522.989C298.753 522.713 299.062 522.431 299.335 522.389C307.521 521.13 318.063 520.768 326.29 521.239C327.782 521.324 327.112 524.121 327.165 525.614C327.395 532.062 328.504 529.551 323.94 534.116C324.379 534.555 324.375 534.551 324.815 534.991C328.781 533.008 337.301 536.882 340.643 533.541C339.471 532.369 337.653 531.592 337.142 530.015C336.389 527.692 337.218 525.13 337.142 522.689C337.033 519.201 335.327 518.248 332.741 515.663C335.28 512.842 336.645 511.68 336.842 508.036C337.71 491.983 335.319 489.283 319.264 489.283ZM322.189 497.785C328.747 497.6 328.054 499.645 327.765 505.986C327.629 508.984 328.652 510.212 326.59 511.862C324.348 513.656 302.119 513.988 298.735 513.612C298.461 513.582 298.172 513.288 298.16 513.012C297.974 508.816 298.067 504.634 298.16 500.435C298.166 500.152 298.814 499.304 299.035 499.26C306.461 497.775 314.624 497.998 322.189 497.785ZM467.515 491.633C467.244 491.688 466.953 491.933 466.94 492.209C466.754 496.013 466.754 499.831 466.94 503.636C466.953 503.911 467.319 504.04 467.515 504.236C471.952 500.538 475.328 501.889 480.992 502.485C482.594 502.654 485.608 502.027 485.693 503.636C485.97 508.903 485.644 514.189 485.693 519.463C485.741 524.641 486.792 529.875 485.993 534.991C485.758 536.492 483.842 537.142 482.767 538.217C483.895 539.344 498.631 540.744 498.87 540.267C499.311 539.385 495.959 536.707 495.945 536.466C495.309 525.937 495.753 515.358 495.945 504.811C495.967 503.585 499.452 504.418 503.571 504.811C509.038 505.331 510.784 505.381 514.398 509.512C514.593 509.316 514.985 509.187 514.998 508.911C515.184 505.009 515.184 501.112 514.998 497.209C514.985 496.933 514.67 496.655 514.398 496.609C504.295 494.925 493.572 494.761 483.342 493.684C479.816 493.313 470.549 491.026 467.515 491.633ZM267.405 493.109C255.379 493.521 241.245 492.564 232.224 501.585C231.218 502.591 230.202 505.201 230.173 506.586C229.986 515.571 229.898 524.554 229.898 533.541C229.898 539.827 237.519 541.742 242.2 541.742C247.301 541.742 252.666 540.587 257.728 539.992C264.922 539.146 277.431 538.252 277.657 527.965C277.845 519.371 277.932 510.781 277.932 502.185C277.932 496.28 272.093 492.948 267.405 493.109ZM264.179 502.185C264.605 502.121 268.493 501.866 268.555 503.636C268.838 511.737 268.65 519.858 268.555 527.965C268.54 529.281 266.405 530.15 265.329 530.315C259.32 531.24 253.211 531.695 247.176 532.366C245.915 532.506 239.309 534.09 239.275 531.19C239.18 523.084 239.086 514.966 239.275 506.861C239.284 506.474 240.547 505.254 240.725 505.111C243.514 502.88 259.884 502.836 264.179 502.185ZM458.438 496.609C458.243 496.805 457.868 496.933 457.863 497.209C457.671 508.538 457.049 519.889 457.863 531.19C457.952 532.43 459.609 532.962 460.488 533.841C461.905 521.094 460.909 507.3 462.239 499.535C460.833 497.427 460.347 498.041 458.438 496.609ZM399.253 498.385C398.267 499.37 398.646 498.707 398.678 500.71C398.766 506.375 398.953 512.047 398.953 517.713C398.953 525.032 398.368 528.275 393.402 533.241C392.263 534.38 388.809 535.859 387.226 535.891C377.948 536.082 368.671 535.879 359.396 536.166C359.12 536.175 359.016 536.571 358.821 536.766C359.598 537.543 360.935 538.494 362.046 538.517C371.617 538.708 381.179 538.817 390.751 538.817C391.967 538.817 393.955 537.484 394.852 536.766C401.218 531.673 401.407 528.961 401.603 520.638C401.743 514.681 401.878 508.719 401.878 502.76C401.878 501.625 400.628 499.174 399.253 498.385ZM340.343 498.66C338.054 500.948 339.555 505.101 339.467 508.336C339.381 511.545 335.632 514.453 338.017 516.838C338.521 516.38 342.362 513.447 342.418 511.562C342.51 508.438 342.51 505.309 342.418 502.185C342.383 501.006 341.109 499.426 340.343 498.66ZM221.572 498.685C220.386 498.491 218.08 499.225 217.871 499.26C213.469 499.994 209.085 500.787 204.694 501.585C197.763 502.845 190.826 504.15 183.89 505.411C181.209 505.898 177.14 505.75 174.789 507.161C174.552 507.303 174.228 507.485 174.214 507.761C174.029 511.273 174.214 514.772 174.214 518.288C174.214 519.226 174.094 518.722 174.789 519.763C175.008 519.544 178.03 515.785 178.889 515.663C183.095 515.062 188.808 515.242 192.667 513.312C192.862 513.508 193.262 513.636 193.267 513.912C193.459 524.362 193.363 534.817 193.267 545.268C193.259 546.085 191.077 547.893 190.616 548.468C191.664 550.04 204.529 548.034 206.144 546.418C205.167 545.344 203.341 544.664 203.219 543.217C202.336 532.804 203.027 522.311 203.219 511.862C203.234 511.013 209.538 510.544 210.245 510.387C212.492 509.887 216.455 508.495 218.746 508.911C219.88 509.118 222.675 513.544 222.572 509.512C222.484 506.093 222.548 502.669 222.272 499.26C222.246 498.934 221.967 498.749 221.572 498.685ZM368.923 499.21C366.721 499.218 364.504 499.273 362.321 499.535C361.636 499.617 361.237 500.424 360.871 501.01C360.716 501.259 360.875 501.592 360.871 501.885C360.778 508.332 360.476 514.792 360.571 521.239C360.583 522.044 362.14 522.009 362.921 521.814C363.189 521.747 363.486 521.515 363.497 521.239C363.684 516.261 363.414 511.267 363.497 506.286C363.511 505.402 363.517 504.475 363.797 503.636C366.031 496.932 382.066 508.589 384.3 501.885C384.982 499.839 383.953 499.589 382.55 499.535C380.205 499.445 377.87 499.26 375.524 499.26C373.325 499.26 371.124 499.202 368.923 499.21ZM530.226 499.535C521.397 500.553 522.324 509.362 522.324 516.838C522.324 522.503 522.231 528.176 522.324 533.841C522.341 534.85 523.153 536.813 523.774 537.641C529.939 545.861 537.289 545.835 546.929 547.318C552.018 548.101 557.282 549.644 562.456 549.644C565.755 549.644 570.015 545.547 570.083 542.317C570.272 533.235 570.383 524.172 570.383 515.088C570.383 514.095 569.519 512.078 568.907 511.262C563.196 503.646 557.137 503.691 548.104 502.185C542.148 501.193 536.24 498.841 530.226 499.535ZM533.751 508.336C540.839 509.3 547.83 510.86 554.855 512.137C555.717 512.294 558.781 512.37 559.531 513.012C561.119 514.374 561.255 514.395 561.281 516.538C561.37 523.96 561.376 531.394 561.281 538.817C561.271 539.579 560.571 540.382 559.831 540.567C558.262 540.959 555.551 539.982 553.955 539.692C548.494 538.699 543.014 538.034 537.552 537.041C535.917 536.744 531.736 537.042 531.701 534.116C531.606 526.107 531.241 518.083 531.701 510.087C531.749 509.253 532.968 508.23 533.751 508.336ZM321.314 501.01C315.017 501.216 308.185 501.018 301.961 502.185C300.358 502.486 300.329 507.992 302.261 508.636C305.092 509.58 303.467 505.035 305.186 504.811C311.242 504.021 317.564 504.807 323.665 503.936C326.662 503.507 324.662 500.901 321.314 501.01ZM280.882 501.885C280.687 502.081 280.292 502.209 280.282 502.485C280.094 507.952 280.282 513.418 280.282 518.888C280.282 527.585 280.426 531.946 274.431 537.942C268.491 543.882 255.233 542.386 247.751 543.217C245.577 543.459 241.73 543.088 240.15 544.668C244.028 548.546 252.053 546.108 256.853 545.543C266.171 544.447 282.321 543.761 282.933 530.615C283.11 526.809 283.208 522.999 283.208 519.188C283.208 513.538 285.311 506.314 280.882 501.885ZM517.923 502.76C515.571 505.113 517.251 509.412 517.348 512.737C517.383 513.913 518.842 514.531 519.674 515.363C521.66 513.377 521.331 504.41 517.923 502.76ZM226.848 503.26C226.357 503.215 225.837 503.3 225.773 503.36C223.194 505.768 224.437 510.414 224.897 513.912C225.035 514.955 227.744 516.137 227.823 515.088C228.101 511.386 228.008 507.643 227.823 503.936C227.8 503.47 227.339 503.306 226.848 503.26ZM472.791 504.236C471.175 505.852 471.175 508.771 472.791 510.387C473.942 509.811 474.817 508.077 476.016 507.761C478.388 507.137 480.734 508.743 482.767 508.336C483.937 508.103 483.895 505.433 482.767 505.111C480.899 504.577 478.281 504.775 472.791 504.236ZM264.454 505.111C258.421 505.904 252.335 506.357 246.301 507.161C245.093 507.322 242.332 507.906 242.2 509.512C241.664 516.034 242.011 522.599 242.2 529.14C242.208 529.416 242.51 529.639 242.776 529.715C249.076 531.515 242.8 514.819 245.126 511.562C247.247 508.593 261.096 509.524 265.054 508.336C266.428 507.924 266.052 504.901 264.454 505.111ZM502.296 507.061C501.027 507.043 499.836 507.087 498.87 507.161C498.595 507.182 498.301 507.485 498.295 507.761C498.104 516.941 497.577 526.138 498.295 535.291C498.381 536.393 499.864 536.86 500.645 537.641C501.916 536.794 501.541 537.395 501.521 535.591C501.428 527.386 501.125 519.166 501.221 510.962C501.245 508.872 510.562 512.198 512.072 510.687C510.644 507.83 506.101 507.116 502.296 507.061ZM420.632 510.687C419.106 512.212 420.092 514.981 420.056 517.138C419.991 521.143 419.19 525.174 419.756 529.14C419.913 530.234 421.325 530.709 422.107 531.49C424.804 528.793 422.682 523.878 422.682 520.063C422.682 518.107 422.982 516.143 422.982 514.187C422.982 512.813 421.404 511.652 420.632 510.687ZM217.296 511.562C216.103 511.237 205.887 513.048 205.869 513.912C205.678 523.189 205.495 532.471 205.869 541.742C205.901 542.542 207.552 543.171 208.195 543.492C208.39 543.297 208.789 543.194 208.795 542.917C208.986 534.031 208.604 525.124 208.795 516.238C208.801 515.962 209.104 515.739 209.37 515.663C212.221 514.848 217.106 515.853 219.346 513.612C218.878 512.987 218.156 511.796 217.296 511.562ZM540.202 512.062C538.832 511.93 537.469 511.933 536.102 512.137C533.931 512.46 534.957 512.74 534.926 514.787C534.836 520.941 534.532 527.087 534.626 533.241C534.639 534.046 536.195 534.036 536.977 533.841C539.07 533.317 537.515 529.547 537.552 527.39C537.616 523.677 537.574 519.94 537.852 516.238C537.873 515.962 538.155 515.712 538.427 515.663C544.752 514.513 551.474 518.814 557.78 518.288C559.243 518.166 558.267 515.756 557.48 515.363C556.364 514.805 553.781 515.02 552.504 514.787C548.429 514.046 544.313 512.458 540.202 512.062ZM189.166 516.238C183.376 517.396 178.987 515.94 179.79 523.564C179.818 523.839 180.169 523.969 180.365 524.164C181.587 522.942 182.668 521.56 183.89 520.338C184.812 519.417 194.057 519.956 189.166 516.238ZM573.608 516.838C573.413 517.033 573.015 517.137 573.008 517.413C572.818 524.736 573.09 532.067 573.008 539.392C572.957 543.954 572.047 546.504 568.907 549.644C563.606 554.945 548.286 550.055 541.378 549.068C539.417 548.788 534.248 546.821 532.876 548.193C537.264 552.581 561.811 556.631 567.457 555.22C570.097 554.56 572.878 552.119 574.183 549.944C574.824 548.875 575.63 547.39 575.659 546.143C575.847 537.745 576.029 529.338 575.934 520.939C575.921 519.866 574.449 517.679 573.608 516.838ZM340.343 522.689C338.233 524.799 339.214 529.588 341.818 530.89C344.068 528.64 342.241 524.587 340.343 522.689ZM315.213 523.239C313.894 523.185 312.456 523.2 310.987 523.289C307.323 523.511 303.782 524.131 302.161 524.914C301.749 524.831 301.428 524.898 301.386 525.339C301.21 527.187 300.953 529.086 301.386 530.89C301.647 531.977 302.844 532.495 303.736 532.941C305.412 531.265 303.744 529.171 305.361 527.29C309.524 528.214 314.926 527.1 318.964 526.79C320.624 526.79 322.298 527.036 323.94 526.79C328.236 526.145 324.171 522.52 318.689 523.614C317.731 523.417 316.532 523.293 315.213 523.239ZM337.717 535.741C334.586 535.909 331.463 537.144 329.516 539.092C330.114 539.69 344.293 540.442 345.919 538.817C343.979 536.49 340.848 535.573 337.717 535.741ZM417.981 536.341C414.899 536.206 411.821 537.075 409.805 539.092C410.489 539.776 425.433 540.466 426.207 539.692C424.145 537.629 421.063 536.476 417.981 536.341ZM302.011 537.967C297.925 537.956 292.959 539.917 291.134 541.742C292.32 542.929 306.304 541.799 307.537 540.567C306.594 538.681 304.462 537.973 302.011 537.967ZM447.611 538.217C443.421 542.406 463.3 542.756 464.314 541.742C461.887 536.888 452.932 538.913 447.611 538.217ZM495.27 542.017C494.128 541.938 493.058 542.013 492.144 542.317C490.865 542.743 491.118 543.919 490.369 544.668C491.242 545.541 503.063 546.604 504.446 546.143C502.683 544.027 498.694 542.256 495.27 542.017ZM208.795 548.768C207.04 549.061 205.267 549.326 203.519 549.644C200.402 550.21 198.36 550.117 196.192 552.594C195.887 552.943 195.552 553.873 196.492 554.044C198.315 554.376 210.498 552.041 211.72 550.819C210.115 548.893 210.942 549.403 208.795 548.768Z" fill="#FFFFFF" fill-rule="nonzero" opacity="1" stroke="none" vectornator:layerName="path"/>
</g>
</svg>
