<?xml version="1.0" encoding="UTF-8" standalone="no"?>
<!DOCTYPE svg PUBLIC "-//W3C//DTD SVG 1.1//EN" "http://www.w3.org/Graphics/SVG/1.1/DTD/svg11.dtd">
<!-- Created with Vectornator (http://vectornator.io/) -->
<svg height="100%" stroke-miterlimit="10" style="fill-rule:nonzero;clip-rule:evenodd;stroke-linecap:round;stroke-linejoin:round;" version="1.1" viewBox="0 0 750 1000" width="100%" xml:space="preserve" xmlns="http://www.w3.org/2000/svg" xmlns:vectornator="http://vectornator.io" xmlns:xlink="http://www.w3.org/1999/xlink">
<defs/>
<g id="Layer-1" vectornator:layerName="Layer 1">
<path d="" fill="none" opacity="1" stroke="#f5c81a" stroke-linecap="butt" stroke-linejoin="round" stroke-width="1" vectornator:layerName="path"/>
<path d="M374.849 200C369.34 205.509 364.431 217.149 360.273 224.079C348.064 244.427 336.833 265.323 323.693 285.031C320.28 281.618 318.154 276.36 315.68 272.237C310.05 262.855 304.802 253.109 298.733 244.005C293.298 248.081 289.736 258.071 286.233 263.911C277.996 277.639 268.67 291.336 261.566 305.545C254.585 319.506 244.941 332.84 236.879 346.277C218.061 377.641 199.507 409.173 180.688 440.537C171.54 455.783 162.484 471.079 153.337 486.324C152.013 488.531 144.393 499.871 144.716 501.489C145.053 503.172 147.358 505.592 148.282 507.132C151.553 512.583 154.826 518.039 158.098 523.491C168.048 540.075 178.024 556.929 188.114 573.746C211.873 613.345 235.414 653.07 259.175 692.672C267.43 706.429 275.606 720.233 283.862 733.993C287.975 740.849 291.543 748.421 296.342 754.82C299.617 751.545 301.702 746.58 304.081 742.614C310.116 732.556 315.721 722.059 322.224 712.304C324.243 714.323 325.492 717.568 326.965 720.024C330.705 726.256 334.243 732.238 337.976 738.46C350.234 758.889 361.637 780.181 374.849 800C377.545 798.203 379.129 793.554 380.786 790.792C384.791 784.116 389.25 777.428 392.679 770.572C396.587 762.756 402.141 755.213 406.668 747.668C413.706 735.937 420.181 723.686 427.769 712.304C430.323 714.859 431.846 719.001 433.705 722.1C440.114 732.781 445.859 745.104 453.631 754.82C458.384 750.066 461.473 742.155 464.936 736.383C472.575 723.651 481.31 710.746 487.82 697.727C494.289 684.789 503.25 672.428 510.723 659.973C530.25 627.429 549.465 594.692 568.991 562.147C578.323 546.595 587.619 531.01 596.95 515.458C598.072 513.588 605.703 501.655 605.277 500.588C603.799 496.895 600.524 493.072 598.439 489.596C592.973 480.487 587.546 471.356 582.079 462.245C566.277 435.909 550.606 409.489 534.802 383.15C515.914 351.67 497.207 320.08 478.317 288.597C472.853 279.489 467.424 270.357 461.958 261.246C458.564 255.59 455.674 249.154 451.554 244.005C448.205 246.237 445.893 252.728 443.815 256.191C438.151 265.632 432.818 275.664 426.574 285.031C422.409 282.255 415.038 266.996 412.604 262.128C407.486 251.891 400.382 241.979 394.462 232.112C392.405 228.684 389.398 225.097 387.918 221.395C385.797 216.095 378.927 204.078 374.849 200ZM375.143 213.676C382.314 223.236 387.723 234.635 393.874 244.886C400.161 255.365 407.829 265.979 413.192 276.705C416.441 283.203 420.832 293.259 426.28 298.707C432.181 290.839 437.812 281.579 442.032 273.139C444.137 268.928 447.523 260.368 451.554 257.68C456.055 263.307 458.974 269.819 462.565 275.803C469.816 287.888 477.004 300.006 484.254 312.089C490.726 322.876 497.121 333.71 503.592 344.495C506.287 348.986 510.035 353.754 511.918 358.464C513.563 362.576 517.083 365.835 519.05 369.769C527.763 387.195 538.771 403.322 548.791 420.024C552.569 426.32 557.501 432.608 560.077 439.048C560.88 441.055 562.692 442.495 563.643 444.397C570.196 457.503 581.254 470.115 586.546 483.346C588.198 487.475 597.244 497.61 597.244 501.195C597.244 503.874 590.297 512.11 588.917 514.871C580.95 530.805 570.502 546.156 561.272 561.54C549.744 580.752 538.32 600.198 527.083 618.926C521.358 628.467 513.45 638.568 509.528 648.374C508.079 651.996 505.064 655.605 502.984 659.071C497.336 668.485 490.726 677.651 486.037 687.03C480.481 698.142 472.153 708.567 466.719 719.436C463.926 725.02 457.927 737.472 453.337 741.144C447.937 733.045 442.07 724.252 437.878 715.87C435.271 710.656 431.992 703.146 427.769 698.922C423.502 704.611 418.656 712.026 416.17 718.241C413.414 725.13 407.571 730.971 404.277 737.559C400.244 745.626 395.011 753.526 390.308 761.364C386.741 767.309 383.179 773.245 379.61 779.193C378.266 781.434 377.05 784.858 374.849 786.324C366.095 773.193 358.574 759.12 350.457 745.592C345.69 737.648 339.766 729.578 335.586 721.219C332.252 714.55 327.811 704.51 322.224 698.922C316.262 707.866 309.61 717.861 304.963 727.155C303.056 730.969 300.003 738.704 296.342 741.144C289.382 731.863 284.614 721.668 278.807 711.991C274.526 704.855 268.651 697.318 265.719 689.988C264.496 686.929 261.83 684.579 260.371 681.661C255.773 672.467 248.624 663.537 244.011 654.31C238.097 642.483 229.073 631.252 222.91 618.926C215.325 603.757 204.945 588.293 195.853 573.139C188.708 561.232 181.903 549.706 174.732 537.755C171.468 532.315 166.915 526.54 164.622 520.807C162.576 515.693 158.581 510.746 155.708 505.956C155.065 504.885 153.21 502.954 153.043 501.783C152.639 498.957 159.872 489.016 161.664 486.031C170.359 471.539 180.547 457.159 188.114 442.026C195.68 426.893 207.499 412.17 215.171 396.826C220.632 385.904 229.03 375.378 234.509 364.42C243.281 346.874 255.313 329.139 265.719 311.795C273.075 299.535 280.151 287.637 287.428 275.509C290.341 270.655 294.634 260.754 298.733 257.68C305.052 267.159 311.968 277.626 316.856 287.402C318.621 290.933 320.721 295.735 323.693 298.707C331.884 286.421 338.286 274.183 345.696 261.834C350.502 253.824 356.277 246.04 360.273 238.049C363.974 230.645 369.002 219.817 375.143 213.676ZM374.849 244.005C370.303 248.551 366.653 256.812 363.838 262.441C355.697 278.724 343.709 293.471 335.586 309.718C331.422 318.046 325.556 326.056 320.735 334.091C310.793 350.66 299.526 367.28 290.994 384.346C284.686 396.962 275.334 408.22 268.991 420.905C270.076 421.989 269.474 421.819 270.774 421.806C280.586 421.71 290.421 421.988 300.222 421.513C300.782 421.485 301.038 420.748 301.397 420.317C305.185 415.772 308.333 409.13 310.919 403.958C313.841 398.113 318.147 392.205 321.617 386.422C339.327 356.904 355.783 326.111 374.849 297.512C377.288 299.341 378.631 302.932 380.198 305.545C384.772 313.167 389.301 320.827 393.874 328.448C409.761 354.928 425.819 382.089 441.444 408.131C442.25 409.473 449.273 421.489 449.771 421.513C459.968 421.989 470.188 421.707 480.394 421.513C480.674 421.507 480.784 421.103 480.982 420.905C475.866 410.673 469.041 400.998 463.153 391.183C452.2 372.929 441.597 354.839 430.747 336.755C426.47 329.628 422.228 322.486 417.953 315.361C415.896 311.932 412.89 308.365 411.409 304.663C409.525 299.954 405.777 295.166 403.082 290.674C398.212 282.557 393.397 274.421 388.525 266.301C384.317 259.288 380.625 249.78 374.849 244.005ZM298.439 288.009C294.801 291.647 292.036 297.797 289.799 302.273C286.373 309.123 281.37 316.033 277.318 322.786C261.985 348.342 246.804 374.055 231.53 399.51C223.536 412.834 216.067 426.712 207.451 439.636C204.128 444.62 201.546 450.11 198.223 455.094C197.82 455.699 194.725 460.116 196.44 460.149C206.647 460.343 216.859 460.438 227.063 460.149C228.236 460.116 231.294 453.783 231.824 452.723C235.369 445.635 239.856 439.134 244.011 432.21C262.135 402.003 279.027 370.34 298.439 341.223C301.1 343.883 302.414 347.738 304.669 350.745C308.751 346.663 311.96 339.435 314.485 334.385C316.113 331.129 319.256 328.417 320.441 324.863C321.109 322.859 316.154 317.162 315.073 315.361C310.386 307.55 304.897 294.467 298.439 288.009ZM451.26 288.009C444.603 294.666 439.727 307.827 434.313 315.948C433.335 317.415 428.897 323.226 429.552 324.863C430.833 328.067 433.696 331.366 435.508 334.385C438.722 339.741 441.434 345.584 445.304 350.745C447.964 348.084 449.302 344.225 451.554 341.223C453.986 343.654 455.43 347.507 457.197 350.451C460.765 356.398 464.346 362.334 467.914 368.28C480.219 388.788 492.482 409.331 504.787 429.839C509.377 437.49 513.788 444.932 518.462 452.723C519.05 453.703 521.89 460.12 522.91 460.149C533.213 460.441 543.541 460.343 553.846 460.149C554.127 460.144 554.236 459.759 554.434 459.561C547.93 446.552 539.265 434.469 531.844 422.1C516.852 397.113 502.263 372.524 487.232 347.473C478.977 333.715 470.821 319.893 462.565 306.132C459.009 300.207 456.208 292.957 451.26 288.009ZM380.512 432.876C378.851 432.747 377.06 432.833 375.143 433.092C371.047 433.644 370.232 435.045 366.817 438.46C361.947 443.33 363.771 456.211 370.676 458.973C374.457 460.486 377.432 460.756 382.275 460.756C390.834 460.756 395.264 447.47 392.091 441.125C389.329 435.601 385.493 433.263 380.512 432.876ZM377.632 438.088C379.28 437.948 381.044 438.438 382.569 439.048C389.354 441.762 387.837 451.64 382.569 454.8C382.111 455.075 381.614 455.408 381.08 455.408C373.858 455.408 368.627 452.004 370.676 443.809C371.407 440.886 373.773 439.382 376.025 438.46C376.532 438.253 377.082 438.134 377.632 438.088ZM445.657 433.013C444.223 433.014 442.669 433.438 442.032 434.287C438.921 438.435 439.55 445.997 435.802 449.745C429.894 443.838 435.8 432.563 423.302 433.699C423.022 433.724 422.912 434.089 422.714 434.287C425.76 440.379 427.891 447.515 430.453 453.918C430.917 455.08 432.038 459.907 433.411 460.149C435.32 460.486 437.404 461.038 438.466 459.267C441.447 454.3 443.366 447.048 445.617 441.418C446.26 439.811 448.913 435.971 448.576 434.287C448.405 433.433 447.09 433.012 445.657 433.013ZM349.869 433.092C346.334 434.859 342.163 435.704 340.347 440.243C334.824 454.05 344.351 460.756 356.413 460.756C358.689 460.756 361.511 457.888 363.251 456.583C362.896 455.873 358.984 451.992 358.196 452.429C357.017 453.084 356.263 454.643 354.924 454.8C351.316 455.225 346.474 454.158 346.009 449.745C345.259 442.619 347.446 438.608 354.924 439.048C356.004 439.111 356.626 440.831 357.588 440.831C358.51 440.831 361.686 437.687 362.056 437.265C363.533 435.576 357.395 433.733 349.869 433.092ZM417.6 433.19C416.426 433.244 415.03 433.565 414.093 433.699C413.816 433.739 413.515 434.007 413.505 434.287C413.314 439.834 413.598 445.391 413.505 450.94C413.426 455.72 405.969 454.569 404.004 451.491C400.615 446.181 409.378 432.71 398.341 433.405C397.921 433.432 397.459 433.867 397.44 434.287C397.156 440.326 397.347 446.384 397.44 452.429C397.555 459.905 406.809 460.965 412.016 460.756C413.975 460.678 417.155 457.381 418.247 456.289C418.879 455.657 419.416 453.86 419.442 453.017C419.631 446.775 419.832 440.531 419.736 434.287C419.721 433.34 418.775 433.135 417.6 433.19ZM333.157 433.209C331.985 433.272 330.591 433.6 329.65 433.699C329.371 433.728 329.072 434.007 329.062 434.287C328.871 439.338 329.252 444.4 329.062 449.451C329.051 449.732 328.653 449.841 328.454 450.039C326.565 448.15 319.108 433.881 318.051 433.699C315.609 433.278 313.096 433.516 310.625 433.699C310.346 433.72 310.024 434.007 310.018 434.287C309.824 442.709 309.824 451.139 310.018 459.561C310.061 461.454 313.797 460.347 315.68 460.149C315.959 460.12 316.258 459.841 316.268 459.561C316.459 454.312 316.077 449.058 316.268 443.809C316.278 443.529 316.657 443.4 316.856 443.201C319.999 446.345 322.297 451.578 324.595 455.408C325.039 456.148 326.797 460.059 327.573 460.149C329.936 460.422 332.333 460.331 334.704 460.149C334.984 460.127 335.286 459.841 335.292 459.561C335.486 451.139 335.486 442.709 335.292 434.287C335.27 433.34 334.328 433.146 333.157 433.209ZM261.625 433.229C260.207 433.323 258.863 433.674 258.588 433.699C258.309 433.724 258.104 434.027 258 434.287C257.491 435.56 260.093 439.991 260.664 441.418C262.647 446.375 264.639 451.334 266.621 456.289C266.974 457.172 267.525 459.942 268.697 460.149C270.064 460.39 271.485 460.39 272.851 460.149C274.087 459.931 275.378 454.752 275.829 453.625C278.389 447.224 280.781 440.45 283.862 434.287C282.453 432.878 279.878 433.417 277.906 433.699C276.771 433.861 272.884 447.93 271.068 449.745C267.68 446.357 267.67 438.518 265.132 434.287C264.535 433.292 263.042 433.135 261.625 433.229ZM293.521 433.542C292.774 433.533 292.021 433.577 291.288 433.699C290.032 433.908 289.224 438.34 288.623 439.342C284.979 445.415 282.939 453.061 279.689 459.561C280.135 460.007 280.144 460.016 280.59 460.462C282.188 459.663 284.174 460.428 285.939 460.149C287.709 459.869 286.938 454.975 288.917 454.8C291.977 454.53 295.059 454.614 298.125 454.8C299.491 454.883 299.134 459.997 300.809 460.149C302.784 460.328 304.772 460.328 306.746 460.149C307.898 460.044 303.951 451.791 303.494 450.647C302.766 448.827 296.567 433.795 295.755 433.699C295.016 433.612 294.268 433.551 293.521 433.542ZM293.384 441.418C294.687 443.374 296.636 446.952 296.636 449.451C287.591 452.466 289.869 444.933 293.384 441.418ZM452.455 433.699C452.175 433.709 451.854 434.007 451.848 434.287C451.654 442.709 451.654 451.139 451.848 459.561C451.854 459.841 452.175 460.14 452.455 460.149C458.3 460.341 464.146 460.34 469.991 460.149C471.681 460.093 471.977 454.358 469.991 454.212C466.234 453.938 462.447 454.4 458.686 454.212C457.384 454.147 457.9 451.641 458.098 450.353C458.672 446.623 468.732 452.887 469.403 448.864C469.682 447.19 470.489 443.903 468.795 443.809C465.431 443.622 462.05 443.996 458.686 443.809C458.406 443.793 458.144 443.478 458.098 443.201C457.9 442.012 457.482 439.699 458.686 439.636C462.249 439.448 465.84 439.823 469.403 439.636C471.186 439.542 471.166 433.759 469.403 433.699C463.757 433.508 458.101 433.508 452.455 433.699ZM475.927 433.699C475.729 433.897 475.346 434.007 475.339 434.287C475.146 442.709 475.146 451.139 475.339 459.561C475.381 461.383 481.476 461.425 481.589 459.561C481.775 456.494 481.403 453.419 481.589 450.353C481.606 450.073 481.907 449.822 482.177 449.745C485.778 448.717 487.631 459.889 489.622 460.149C491.686 460.418 493.779 460.329 495.853 460.149C496.132 460.125 496.262 459.759 496.46 459.561C495.851 458.648 490.441 450.057 490.504 449.745C490.817 448.178 494.124 447.004 494.971 445.592C496.047 443.799 495.559 441.432 495.559 439.342C495.559 437.691 494.95 435.434 491.954 434.6C488.981 433.773 483.643 434.373 475.927 433.699ZM482.726 438.186C484.197 438.132 485.749 438.619 487.232 438.754C490.581 439.058 490.537 444.813 486.938 444.984C485.057 445.074 483.17 445.163 481.295 444.984C480.148 444.875 480.982 443.15 480.982 442.908C480.982 441.282 479.575 439.088 481.295 438.46C481.761 438.29 482.235 438.204 482.726 438.186ZM547.89 476.803C544.471 477.291 541.97 478.274 539.27 480.074C537.102 481.52 535.366 483.121 534.215 485.423C533.354 487.144 533.265 488.828 533.02 490.792C531.911 499.663 539.387 502.717 546.401 505.055C549.838 506.201 554.646 507.343 554.14 511.893C553.629 516.492 544.875 515.84 542.248 514.263C540.998 513.514 539.951 510.514 538.368 511.305C535.733 512.623 534.397 515.653 532.432 517.849C530.242 520.296 534.403 522.324 536.585 523.197C550.583 528.797 564.838 523.9 564.838 507.739C564.838 500.349 555.909 498.212 550.574 496.434C548.514 495.747 544.075 494.671 543.737 491.967C542.732 483.933 553.993 487.121 557.706 489.596C559.96 487.342 562.724 484.699 564.544 482.151C566.313 479.674 554.1 477.17 547.89 476.803ZM422.557 476.861C418.613 476.972 414.789 477.79 412.016 478.899C394.009 486.102 393.93 514.145 410.821 522.59C415.34 524.849 421.02 525.274 425.986 525.274C431.14 525.274 437.067 521.092 439.955 517.241C437.509 514.795 434.507 512.617 431.628 510.697C420.062 521.212 409.332 512.891 409.332 499.099C409.332 497.12 410.162 494.237 411.409 492.574C415.008 487.776 418.63 486.618 424.497 486.618C425.688 486.618 430.969 490.458 431.335 490.184C433.895 488.264 436.171 485.895 438.76 483.954C436.002 478.437 429.131 476.676 422.557 476.861ZM327.436 477.253C324.493 477.349 321.556 477.568 318.639 477.998C315.788 478.417 317.853 483.744 318.051 486.618C318.07 486.898 318.359 487.192 318.639 487.206C322.499 487.394 326.377 487.018 330.237 487.206C330.517 487.22 330.84 487.533 330.845 487.813C331.04 499.705 330.65 511.6 330.845 523.491C330.849 523.772 331.153 524.063 331.433 524.079C334.599 524.265 337.788 524.265 340.954 524.079C341.234 524.063 341.538 523.772 341.542 523.491C341.737 511.6 341.347 499.705 341.542 487.813C341.547 487.533 341.85 487.219 342.13 487.206C346.09 487.018 350.063 487.395 354.023 487.206C354.303 487.193 354.611 486.898 354.63 486.618C354.814 483.949 354.814 481.255 354.63 478.585C354.611 478.306 354.303 478.002 354.023 477.998C345.178 477.851 336.264 476.966 327.436 477.253ZM303.846 477.312C301.996 477.304 300.526 477.686 300.516 479.193C300.418 493.663 300.222 508.12 300.222 522.59C300.222 522.904 300.354 523.223 300.516 523.491C300.66 523.732 300.824 524.062 301.103 524.079C304.17 524.265 307.265 524.265 310.331 524.079C310.611 524.062 310.916 523.772 310.919 523.491C311.115 508.527 311.115 493.55 310.919 478.585C310.912 478.039 309.697 477.702 309.43 477.704C307.923 477.714 305.697 477.32 303.846 477.312ZM377.514 477.665C372.456 477.603 367.392 477.652 362.349 477.998C361.301 478.069 361.767 478.312 361.762 479.193C361.664 493.96 361.37 508.724 361.468 523.491C361.47 523.772 361.775 524.074 362.056 524.079C372.659 524.274 383.271 524.274 393.874 524.079C395.753 524.045 395.79 514.317 393.874 514.263C386.939 514.071 380.002 514.456 373.067 514.263C372.786 514.256 372.48 513.955 372.459 513.676C372.276 511.205 372.276 508.721 372.459 506.25C372.807 501.548 385.728 509.871 387.918 504.761C389.011 502.21 388.148 499.2 387.918 496.434C387.551 492.039 373.069 498.601 372.459 494.945C372.101 492.794 372.278 490.574 372.459 488.401C372.482 488.122 372.786 487.822 373.067 487.813C379.605 487.621 386.14 488.006 392.679 487.813C394.599 487.757 394.56 478.034 392.679 477.998C387.625 477.9 382.572 477.727 377.514 477.665ZM213.094 477.821C211.605 477.811 210.107 477.863 208.627 477.998C207.463 478.103 206.597 483.224 206.256 484.248C204.708 488.893 201.812 502.661 198.831 505.643C197.782 504.594 197.721 501.811 197.342 500.294C196.09 495.287 194.447 482.275 191.679 478.585C191.511 478.361 191.371 478.013 191.092 477.998C187.727 477.811 184.346 477.811 180.982 477.998C180.702 478.013 180.498 478.325 180.394 478.585C179.498 480.826 182.908 487.909 183.666 490.184C187.097 500.476 188.726 514.018 193.462 523.491C193.588 523.742 193.79 524.061 194.07 524.079C196.839 524.264 199.634 524.346 202.396 524.079C203.544 523.968 204.682 518.084 205.061 516.947C206.727 511.948 209.632 496.918 212.8 493.75C213.83 494.78 214.075 497.574 214.583 499.099C216.526 504.928 218.283 510.827 220.226 516.654C220.56 517.657 221.85 524.011 222.91 524.079C226.089 524.284 230.773 525.929 232.412 523.197C233.573 521.263 233.865 517.416 234.509 515.165C236.841 507.003 239.314 498.934 241.64 490.792C242.548 487.615 245.674 481.859 245.206 478.585C245.166 478.308 244.898 478.014 244.618 477.998C241.452 477.811 238.262 477.811 235.096 477.998C234.816 478.014 234.613 478.325 234.509 478.585C232.01 484.833 231.328 492.539 229.454 499.099C228.865 501.159 228.744 505.471 227.377 506.838C224.66 504.121 221.719 489.317 220.226 484.835C219.889 483.827 218.841 478.078 217.561 477.998C216.077 477.905 214.583 477.832 213.094 477.821ZM250.261 477.998C249.981 478.014 249.677 478.305 249.673 478.585C249.477 493.55 249.478 508.527 249.673 523.491C249.677 523.772 249.981 524.063 250.261 524.079C253.427 524.265 256.617 524.265 259.783 524.079C265.363 523.751 255.466 504.644 260.958 504.467C266.902 504.275 272.864 504.275 278.807 504.467C279.087 504.476 279.386 504.775 279.395 505.055C279.587 511.197 279.203 517.35 279.395 523.491C279.404 523.772 279.722 524.062 280.002 524.079C283.069 524.265 286.144 524.265 289.211 524.079C289.491 524.062 289.795 523.772 289.799 523.491C289.994 508.527 289.994 493.55 289.799 478.585C289.795 478.305 289.491 478.015 289.211 477.998C286.144 477.812 283.069 477.812 280.002 477.998C279.722 478.015 279.405 478.305 279.395 478.585C279.204 483.835 279.586 489.108 279.395 494.357C279.385 494.638 279.087 494.936 278.807 494.945C272.864 495.137 266.902 495.137 260.958 494.945C260.678 494.936 260.381 494.637 260.371 494.357C260.18 489.108 260.561 483.835 260.371 478.585C260.36 478.305 260.063 478.014 259.783 477.998C256.617 477.811 253.427 477.811 250.261 477.998ZM460.469 477.998C458.022 480.444 456.729 486.015 455.414 489.303C452.167 497.419 448.257 505.264 445.01 513.382C443.915 516.119 440.175 521.153 441.15 524.079C444.619 524.079 448.145 524.718 451.554 524.079C454.039 523.613 453.566 514.406 456.315 514.263C461.759 513.982 467.227 514.072 472.675 514.263C473.548 514.294 476.166 523.983 477.416 524.079C480.974 524.353 484.57 524.267 488.133 524.079C489.185 524.024 488.55 522.897 488.427 522.59C486.483 517.731 484.169 513.306 482.177 508.327C479.327 501.201 475.818 494.331 472.969 487.206C471.807 484.301 470.713 480.214 460.469 477.998ZM464.348 491.673C467.205 493.325 469.146 501.384 469.991 504.761C470.085 505.14 470.004 505.923 469.403 505.956C466.038 506.143 462.658 506.143 459.293 505.956C459.013 505.941 458.732 505.625 458.686 505.349C458.514 504.317 463.584 491.232 464.348 491.673ZM493.188 477.998C491.956 479.229 492.274 478.474 492.287 480.368C492.383 494.739 492.287 509.123 492.581 523.491C492.586 523.772 492.908 524.063 493.188 524.079C496.453 524.266 499.719 524.266 502.984 524.079C503.264 524.063 503.581 523.772 503.592 523.491C503.79 518.043 505.736 512.008 503.298 507.132C505.335 505.094 509.039 506.629 511.918 506.544C514.673 506.463 519.031 505.946 521.421 504.154C525.825 500.851 527.831 495.778 526.848 491.673C526.182 488.892 523.858 482.61 520.186 480.447C514.81 477.279 506.233 478.698 493.188 477.998ZM505.727 486.109C507.926 485.903 510.281 486.479 512.506 486.618C519.316 487.044 518.315 497.714 511.625 497.923C508.851 498.01 506.067 498.108 503.298 497.923C502.153 497.847 502.979 496.029 502.984 495.846C503.075 492.769 500.756 487.817 503.592 486.618C504.276 486.329 504.994 486.178 505.727 486.109ZM393.501 540.733C380.436 540.891 369.795 551.633 369.795 565.419C369.795 587.537 397.316 596.565 411.409 581.466C411.544 581.321 411.511 581.048 411.409 580.878C409.933 578.417 405.679 576.34 403.396 574.628C401.046 576.717 399.667 577.996 396.852 578.801C376.408 584.642 375.99 545.554 397.146 550.842C399.319 551.386 400.77 552.735 402.494 554.114C405.016 552.223 408.184 550.256 410.233 547.864C410.362 547.714 410.357 547.431 410.233 547.277C407.132 543.4 403.654 542.305 399.222 541.321C397.281 540.889 395.368 540.71 393.501 540.733ZM263.505 541.634C258.3 541.681 253.093 541.831 247.89 541.928C247.61 541.933 247.338 542.241 247.283 542.516C247.117 543.344 254.611 554.821 255.61 556.485C263.453 569.558 271.256 582.674 279.101 595.748C299.689 630.062 320.281 664.761 340.954 699.216C352.259 718.057 362.66 737.711 374.849 755.995C378.823 753.346 385.613 739.209 387.918 734.6C394.571 721.293 403.721 708.463 411.409 695.65C430.894 663.176 450.213 630.592 469.697 598.119C480.809 579.598 493.12 561.656 502.69 542.516C502.492 542.317 502.383 541.933 502.103 541.928C491.698 541.733 481.268 541.455 470.872 541.928C469.563 541.987 467.91 545.976 467.306 546.983C464.149 552.245 460.962 557.472 457.804 562.735C438.893 594.253 420.296 625.628 401.299 657.288C392.589 671.806 384.538 686.907 375.143 700.999C372.254 699.073 370.385 693.865 368.599 690.889C363.728 682.771 358.893 674.614 354.023 666.497C336.847 637.87 319.768 609.21 302.592 580.584C296.685 570.738 291.379 560.619 285.057 551.136C284.313 550.021 279.817 541.967 279.101 541.928C273.905 541.645 268.711 541.587 263.505 541.634ZM212.056 541.673C206.851 541.708 201.643 541.831 196.44 541.928C194.601 541.962 197.963 546.549 198.223 546.983C201.084 551.75 203.984 556.48 206.844 561.246C214.391 573.824 221.906 586.441 229.454 599.02C243.769 622.879 257.947 646.809 272.263 670.67C280.171 683.849 287.122 698.522 296.342 710.815C302.525 704.633 309.341 690.755 313.29 682.857C314.398 680.64 319.605 675.651 318.952 673.041C318.416 670.896 316.213 668.711 315.073 666.81C311.071 660.14 307.556 652.817 302.886 646.591C299.933 648.806 298.557 653.141 296.342 656.093C294.321 654.072 293.054 650.827 291.581 648.374C287.601 641.74 283.667 635.079 279.689 628.448C267.795 608.625 255.905 588.809 244.011 568.985C239.987 562.279 235.927 555.31 231.824 548.472C231.246 547.508 228.76 541.978 227.671 541.928C222.473 541.689 217.26 541.638 212.056 541.673ZM537.937 541.752C532.733 541.74 527.523 541.783 522.322 541.928C520.969 541.965 518.497 547.696 517.855 548.766C513.876 555.398 509.941 562.06 505.962 568.691C488.533 597.74 472.456 627.855 453.631 656.093C450.979 653.441 449.747 649.524 447.4 646.591C442.92 649.951 437.99 661.347 434.9 666.497C434.02 667.964 430.616 671.951 431.041 673.648C432.038 677.636 436.322 682.26 438.466 685.835C443.393 694.046 447.641 703.327 453.631 710.815C456.413 708.033 458.155 703.759 460.175 700.392C465.046 692.273 469.881 684.137 474.751 676.019C489.96 650.672 505.038 625.248 520.245 599.902C527.906 587.133 535.469 574.307 543.129 561.54C546.103 556.584 549.071 551.644 552.044 546.689C552.284 546.288 555.387 541.963 553.533 541.928C548.33 541.831 543.141 541.763 537.937 541.752ZM338.564 541.928C338.284 541.933 337.98 542.235 337.976 542.516C337.781 557.579 337.781 572.652 337.976 587.716C337.98 587.996 338.284 588.286 338.564 588.303C341.631 588.489 344.725 588.489 347.792 588.303C348.072 588.286 348.37 587.996 348.38 587.716C348.571 582.069 348.189 576.414 348.38 570.768C348.39 570.488 348.688 570.172 348.968 570.161C353.523 569.971 358.088 570.35 362.643 570.161C362.923 570.149 363.232 569.853 363.251 569.573C363.435 566.804 363.518 564.008 363.251 561.246C363.21 560.828 362.769 560.391 362.349 560.364C357.898 560.086 353.424 560.554 348.968 560.364C348.688 560.353 348.401 560.037 348.38 559.757C348.197 557.286 348.197 554.803 348.38 552.332C348.401 552.052 348.688 551.752 348.968 551.744C355.407 551.552 361.866 551.936 368.306 551.744C369.616 551.705 369.267 547.554 368.893 542.516C368.873 542.236 368.586 541.933 368.306 541.928C358.396 541.734 348.473 541.734 338.564 541.928Z" fill="#FFFFFF" fill-rule="nonzero" opacity="1" stroke="none" vectornator:layerName="path"/>
</g>
</svg>
