<?xml version="1.0" encoding="UTF-8" standalone="no"?>
<!DOCTYPE svg PUBLIC "-//W3C//DTD SVG 1.1//EN" "http://www.w3.org/Graphics/SVG/1.1/DTD/svg11.dtd">
<!-- Created with Vectornator (http://vectornator.io/) -->
<svg height="100%" stroke-miterlimit="10" style="fill-rule:nonzero;clip-rule:evenodd;stroke-linecap:round;stroke-linejoin:round;" version="1.1" viewBox="0 0 750 1000" width="100%" xml:space="preserve" xmlns="http://www.w3.org/2000/svg" xmlns:vectornator="http://vectornator.io" xmlns:xlink="http://www.w3.org/1999/xlink">
<defs/>
<g id="Layer-1" vectornator:layerName="Layer 1">
<path d="M272.92 291.483C206.945 291.507 140.975 291.781 75.0018 291.579C74.849 300.037 84.2253 306.043 90.5875 311.618C237.219 440.104 516.579 707.406 516.578 707.406C516.578 707.406 632.32 708.135 675 708.519C668.752 701.689 647.64 682.782 640.731 676.622C522.216 570.949 402.464 466.684 283.326 361.715C335.956 361.231 388.585 359.912 441.216 360.263C494.905 360.62 536.039 401.746 532.696 455.616C531.931 467.945 516.917 486.545 516.917 486.545L592.812 548.5C592.812 548.5 665.061 429.904 593.442 347.726C580.665 333.066 567.31 318.833 549.202 310.94C525.555 300.634 496.6 293.221 470.838 292.789C404.874 291.684 338.895 291.458 272.92 291.483ZM150.123 454.454C149.853 482.709 150.849 541.869 150.849 541.869L78.4868 601.162C78.4868 601.162 236.995 603.043 314.401 602.759C274.39 562.646 231.021 526.015 188.796 488.239C176.036 476.823 162.842 464.832 150.123 454.454Z" fill="#FFFFFF" fill-rule="nonzero" opacity="1" stroke="none" vectornator:layerName="path"/>
</g>
</svg>
