<?xml version="1.0" encoding="UTF-8" standalone="no"?>
<!DOCTYPE svg PUBLIC "-//W3C//DTD SVG 1.1//EN" "http://www.w3.org/Graphics/SVG/1.1/DTD/svg11.dtd">
<!-- Created with Vectornator (http://vectornator.io/) -->
<svg height="100%" stroke-miterlimit="10" style="fill-rule:nonzero;clip-rule:evenodd;stroke-linecap:round;stroke-linejoin:round;" version="1.1" viewBox="0 0 750 1000" width="100%" xml:space="preserve" xmlns="http://www.w3.org/2000/svg" xmlns:vectornator="http://vectornator.io" xmlns:xlink="http://www.w3.org/1999/xlink">
<defs/>
<g id="Layer-1" vectornator:layerName="Layer 1">
<path d="M574.511 313.744C458.763 313.775 227.262 313.832 111.514 313.863L100.379 313.902L96.2867 324.211C96.2573 324.285 95.2926 326.728 94.6341 328.539C93.4125 331.898 86.5133 353.654 85.1121 358.325C85.1121 358.325 86.1133 356.034 85.3875 357.262C84.7603 358.324 82.8006 360.802 82.1217 366.233C81.9679 367.464 82.1611 367.139 82.1611 367.138C80.6787 370.474 78.6545 376.799 78.5411 377.133L74.9999 387.56L83.3415 394.76C83.5801 394.966 92.3033 402.674 97.8605 406.564C102.624 409.899 107.969 415.323 116.314 420.887C116.762 421.185 119.858 423.507 123.161 425.962C123.161 429.06 123.161 432.151 123.161 435.248C123.161 441.909 123.161 448.576 123.161 455.237C123.161 481.263 123.161 507.275 123.161 533.301C123.161 545.085 123.161 556.89 123.161 568.674C123.161 570.224 123.161 571.869 123.161 574.458C116.043 578.56 111.083 583.695 108.288 585.869C108.288 585.869 109.282 585.092 106.989 586.42C106.129 586.918 104.505 588.059 102.858 589.528C102.502 589.735 102.057 589.859 101.717 590.079C101.173 590.43 100.597 591.092 100.025 591.535C97.3049 592.978 95.4293 594.677 94.5947 595.509C93.717 596.383 93.7222 596.416 93.8865 596.335C93.8994 596.329 93.8314 596.423 93.8471 596.414C90.7326 598.49 85.2695 602.08 85.2695 602.08L75.5114 608.572L78.5411 619.943C78.6798 620.462 80.0536 625.943 81.4135 630.174C81.3724 631.022 80.9901 632.822 82.7119 637.413C83.1852 638.675 83.7607 639.622 84.3252 640.561C84.4472 641.37 84.3724 641.612 84.758 642.961C86.8935 650.436 89.6959 655.267 90.3059 657.402C91.0293 659.934 95.9433 674.745 96.0112 674.951L99.7492 686.164L111.553 686.164C111.559 686.165 420.376 686.369 574.826 686.164C580.009 686.158 582.248 684.501 583.325 683.882C584.624 683.137 585.335 682.582 585.922 682.112C587.06 681.199 587.713 680.541 588.283 679.987C588.643 679.636 588.816 679.452 589.03 679.239C594.114 676.091 597.961 672.881 600.795 670.898C608.722 665.349 619.746 659.449 629.754 650.87C634.501 646.801 631.879 648.588 631.879 648.588C636.901 645.392 644.604 641.293 651.553 634.344C652.548 633.349 657.797 630.498 664.183 625.531C664.183 625.531 662.41 626.836 664.616 625.609C665.799 624.951 667.537 623.995 669.692 621.753C671.783 619.578 674.782 615.208 674.807 609.32C675.113 536.713 675.011 464.134 674.807 391.573L674.807 391.534C674.776 385.324 671.845 381.373 670.164 379.415C668.311 377.257 666.736 376.118 665.481 375.244C663.219 373.668 662.294 373.277 662.294 373.277C659.221 371.125 655.555 367.144 648.759 362.614C633.286 352.298 616.741 340.583 601.11 329.641L600.598 329.247C598.204 327.523 584.387 317.089 584.387 317.089L580.02 313.744L574.511 313.744ZM574.511 330.113C574.511 330.113 589.303 341.309 591.745 343.019C607.321 353.922 623.919 365.727 639.67 376.228C644.438 379.407 648.043 383.3 652.89 386.694C654.092 387.535 658.432 389.483 658.438 391.612C658.643 464.158 658.744 536.695 658.438 609.241C658.431 610.994 655.128 611.833 654.11 612.625C649.693 616.06 643.787 618.974 639.985 622.776C635.302 627.459 628.61 631.249 623.065 634.777C621.064 636.051 620.731 637.031 619.091 638.437C610.901 645.456 600.382 651.254 591.43 657.52C587.112 660.543 583.179 663.979 578.8 666.412C578.164 666.766 575.594 669.795 574.826 669.796C420.409 670.001 111.553 669.796 111.553 669.796C111.553 669.796 106.458 654.323 106.045 652.877C104.665 648.047 101.852 643.179 100.497 638.437C100.077 636.967 100.134 634.613 99.5918 633.203C99.3317 632.527 98.3117 632.347 98.0573 631.669C97.6233 630.511 97.9595 628.08 97.4277 626.75C97.0779 625.876 94.3587 615.694 94.3587 615.694C94.3587 615.694 100.651 611.499 103.566 609.556C105.434 608.31 106.688 605.542 109.114 605.542C109.569 604.178 111.388 603.103 112.813 603.103C113.575 600.814 116.553 600.15 118.321 598.775C122.627 595.425 128.074 590.062 132.761 587.718C134.028 587.085 139.529 582.485 139.529 582.485C139.529 582.485 139.529 572.375 139.529 568.674C139.529 556.89 139.529 545.085 139.529 533.301C139.529 507.275 139.529 481.263 139.529 455.237C139.529 448.576 139.529 441.909 139.529 435.248C139.529 432.072 139.529 428.903 139.529 425.726C139.529 423.438 139.529 417.739 139.529 417.739C139.529 417.739 127.434 408.626 125.404 407.272C118.859 402.909 113.644 397.612 107.265 393.147C103.246 390.334 94.0439 382.366 94.0439 382.366C94.0439 382.366 96.4822 375.207 97.113 373.788C97.8084 372.223 98.1362 369.812 98.3327 368.24C98.5438 366.552 100.328 364.619 100.812 363.007C102.036 358.925 109.198 336.384 110.019 334.126C110.528 332.726 111.514 330.231 111.514 330.231L574.511 330.113ZM278.778 392.832C276.722 392.832 274.982 395.894 273.27 396.846C266.646 400.525 258.523 406.149 252.652 411.601C251.447 412.72 246.203 414.446 246.199 416.794C246.097 471.819 246.514 526.87 246.514 581.895C246.514 583.195 245.494 581.73 246.514 583.429C247.404 584.913 249.674 585.337 250.803 586.184C256.352 590.345 262.276 596.218 268.666 598.775C269.918 599.275 271.516 602.464 272.955 602.473C350.418 602.982 427.874 602.573 505.339 602.473C507.698 602.47 510.128 602.712 512.421 602.159C515.31 601.461 516.773 598.122 518.874 596.02C524.561 590.333 530.106 584.513 535.794 578.826C537.775 576.844 543.446 574.759 543.466 571.114C543.568 552.67 543.983 534.235 543.781 515.792C543.776 515.357 543.271 514.89 542.837 514.887C504.823 514.582 466.822 514.481 428.809 514.887C428.229 514.893 427.999 515.697 427.589 516.106C429.978 518.495 429.532 523.42 430.658 526.573C432.149 530.747 434.178 534.969 435.577 539.164C436.479 541.872 436.137 545.45 437.701 548.056C438.97 550.17 441.264 555.311 440.495 557.618C439.067 557.618 430.813 550.813 429.438 549.591C422.22 543.174 412.636 538.381 405.437 532.081C403.388 530.288 400.329 529.452 398.354 527.478C393.179 530.066 389.451 534.685 384.543 537.629C381.516 539.446 378.671 541.023 375.926 543.767C374.76 544.933 372.293 545.789 370.693 546.246C369.913 546.469 369.284 548.129 368.568 548.686C364.596 551.775 359.381 554.45 355.938 557.893C355.477 557.586 355.494 557.61 355.033 557.303C355.357 556.331 356.515 555.78 356.882 554.824C357.509 553.196 356.972 551.26 357.473 549.591C358.261 546.961 360.059 544.262 360.856 541.603C361.375 539.873 361.074 537.694 361.801 536.095C362.554 534.437 364.028 532.889 364.555 531.176C365.331 528.656 363.799 524.857 367.034 523.779C367.034 521.069 371.968 509.095 371.323 507.804C369.353 503.866 358.495 500.956 357.197 497.062C355.17 497.062 352.423 493.217 350.429 492.42C346.117 490.694 344.196 486.843 340.278 484.432C336.741 482.255 332.39 480.242 329.221 477.074C330.12 476.176 329.56 476.436 331.071 476.445C347.67 476.545 364.245 476.759 380.845 476.759C381.074 476.759 381.291 476.582 381.474 476.445C384 474.551 383.02 470.508 383.914 467.828C384.281 466.727 385.677 465.513 386.078 464.444C388.231 458.703 389.821 452.662 391.626 447.249C392.525 444.551 391.442 439.402 394.695 438.317C394.695 435.757 397.636 429.837 396.82 428.205C397.588 427.437 397.586 427.4 398.354 426.631C400.758 429.035 400.176 435.502 402.053 438.317C404.089 441.372 403.789 444.717 404.846 448.154C405.752 451.096 407.532 454.166 408.506 457.086C409.133 458.967 408.945 461.133 409.765 462.909C410.129 463.699 411.232 463.959 411.575 464.759C412.314 466.483 413.224 476.745 416.218 476.759C458.126 476.963 500.027 477.365 541.932 476.759C542.801 476.747 543.748 475.779 543.781 474.91C544.372 459.449 543.881 443.953 543.781 428.481C543.766 426.18 540.521 425.207 539.453 424.192C537.562 422.395 535.743 420.533 533.944 418.644C529.287 413.753 522.763 408.387 518.245 404.203C514.523 400.758 512.165 395.46 507.503 393.462C507.023 393.256 506.491 393.148 505.968 393.147C430.246 392.943 354.501 392.832 278.778 392.832Z" fill="#FFFFFF" fill-rule="nonzero" opacity="1" stroke="none" vectornator:layerName="path"/>
</g>
</svg>
