<?xml version="1.0" encoding="UTF-8" standalone="no"?>
<!DOCTYPE svg PUBLIC "-//W3C//DTD SVG 1.1//EN" "http://www.w3.org/Graphics/SVG/1.1/DTD/svg11.dtd">
<!-- Created with Vectornator (http://vectornator.io/) -->
<svg height="100%" stroke-miterlimit="10" style="fill-rule:nonzero;clip-rule:evenodd;stroke-linecap:round;stroke-linejoin:round;" version="1.1" viewBox="0 0 750 1000" width="100%" xml:space="preserve" xmlns="http://www.w3.org/2000/svg" xmlns:vectornator="http://vectornator.io" xmlns:xlink="http://www.w3.org/1999/xlink">
<defs/>
<g id="Layer-1" vectornator:layerName="Layer 1">
<path d="M376.572 234.444C363.739 253.351 338.04 291.214 338.04 291.214C338.04 291.214 233.232 290.781 180.822 290.585C174.16 322.913 160.812 387.603 160.812 387.603L176.991 400.866C176.991 400.866 172.222 429.538 170.417 435.111C158.88 435.451 158.857 435.457 147.32 435.797C142.721 454.064 133.542 490.566 133.542 490.566L153.266 518.751C153.266 518.751 150.63 534.428 148.921 542.191C142.958 569.278 142.184 598.261 130.283 623.315C125.445 633.502 101.756 641.495 101.756 641.495C101.756 641.495 83.9147 723.968 75 765.211C190.205 765.358 190.248 765.407 305.453 765.554C309.077 729.504 316.315 657.388 316.315 657.388L374.743 619.599L432.084 658.875C432.084 658.875 440.131 729.993 444.147 765.554C559.58 765.561 559.567 765.547 675 765.554C666.619 724.797 649.845 643.267 649.845 643.267L621.031 624.344C621.031 624.344 609.632 582.318 605.195 560.999C602.291 547.043 599.021 518.636 599.021 518.636L618.23 492.796C618.23 492.796 608.978 455.184 604.338 436.369C595.581 435.48 585.088 438.953 578.04 433.682L567.463 406.069L588.73 379.942L569.35 292.129L414.19 290.871C414.19 290.871 389.111 253.253 376.572 234.444ZM375.029 269.261L399.783 310.309C399.783 310.309 501.724 309.816 552.199 310.023C553.192 315.003 557.331 341.755 559.917 353.472C561.562 360.931 564.033 381.485 564.033 381.485L548.768 392.576C548.768 392.576 557.229 437.365 559.002 452.777C547.742 452.388 537.169 451.961 529.102 451.976C526.853 439.335 525.45 426.476 522.356 414.015C520.305 405.755 513.838 385.144 513.838 385.144L529.96 367.021C529.96 367.021 528.211 351.174 527.33 343.239C485.156 343.533 485.12 343.516 442.947 343.81C442.947 380.891 456.72 415.792 455.295 452.834C373.594 452.834 373.605 452.834 291.903 452.834C293.935 422.696 301.349 394.978 303.68 365.249C304.268 369.511 305.714 358.521 306.596 343.239C264.864 343.239 264.86 343.239 223.128 343.239C221.952 351.174 219.64 367.021 219.64 367.021L234.39 378.398C234.39 378.398 222.406 441.943 221.07 452.491C206.124 452.536 206.058 452.502 191.17 452.548C190.985 434.509 200.831 392.576 200.831 392.576C200.831 392.576 189.076 386.061 184.881 381.028C178.498 373.372 195.862 324.214 197.973 310.88C248.781 310.775 350.388 310.595 350.388 310.595C350.389 310.595 375.029 269.261 375.029 269.261ZM480.05 365.249C485.362 365.249 489.712 368.978 489.712 373.596C489.712 378.214 485.362 381.943 480.05 381.943C474.738 381.943 470.445 378.214 470.445 373.596C470.445 368.977 474.737 365.249 480.05 365.249ZM269.15 365.421C274.462 365.421 278.754 369.149 278.754 373.767C278.754 378.386 274.462 382.114 269.15 382.114C263.837 382.114 259.545 378.386 259.545 373.767C259.545 369.149 263.837 365.421 269.15 365.421ZM249.483 460.952C254.796 460.952 259.145 464.68 259.145 469.299C259.145 473.917 254.796 477.645 249.483 477.645C244.171 477.645 239.878 473.917 239.879 469.299C239.879 464.68 244.171 460.952 249.483 460.952ZM499.088 460.952C504.4 460.952 508.692 464.68 508.692 469.299C508.692 473.917 504.4 477.645 499.088 477.645C493.775 477.645 489.426 473.917 489.426 469.299C489.426 464.68 493.775 460.952 499.088 460.952ZM592.275 486.907L592.275 487.536C586.293 496.541 574.323 514.52 574.323 514.52C574.324 514.52 582.773 550.462 586.386 566.545C591.427 588.981 599.478 634.292 599.478 634.292L631.379 657.96C631.379 657.96 646.742 715.085 647.158 744.344C554.628 745.544 554.629 745.545 462.099 746.745C458.244 712.412 450.493 643.725 450.493 643.725L375.314 593.929L298.992 644.468C298.992 644.468 291.322 712.654 287.501 746.745C194.015 746.621 194.041 746.583 100.555 746.459C106.844 716.467 107.023 684.498 119.421 656.473C124.148 645.789 140.784 645.873 148.807 637.379C152.189 633.798 151.202 627.832 152.294 623.029C156.753 603.425 158.929 583.374 163.271 563.744C165.659 552.944 173.39 519.38 173.39 519.38C173.39 519.38 171.491 507.395 158.811 488.736C158.801 488.721 158.822 488.695 158.811 488.679C159.372 488.117 160.004 487.656 160.755 487.65C304.584 486.581 448.442 487.149 592.275 486.907ZM376.286 327.117C372.957 330.381 359.821 357.931 359.821 357.931C359.821 357.931 320.371 356.663 319.345 357.017C329.012 365.579 345.472 381.943 345.472 381.943C345.472 381.943 335.431 417.885 335.181 423.277C347.576 418.147 375.257 399.951 375.257 399.951C375.257 399.951 403.349 419.824 415.162 424.763C408.123 406.261 402.127 386.345 402.127 386.345C402.127 386.345 430.602 358.981 430.255 357.417C416.379 357.382 388.578 357.302 388.578 357.302C388.578 357.302 376.816 328.324 376.286 327.117ZM422.251 519.037L327.463 519.265C327.463 519.265 338.213 527.44 343.356 530.985C360.892 543.07 375.314 548.651 375.314 548.651C375.314 548.651 389.844 541.558 409.445 528.927C422.243 520.68 422.251 519.037 422.251 519.037ZM506.577 519.037C495.744 518.978 484.908 519.118 474.104 519.837C472.602 519.937 472.442 522.403 471.989 523.839C470.863 527.412 476.014 578.739 478.049 586.04C479.47 591.136 487.327 626.624 487.425 643.839C487.539 664.01 500.816 686.447 500.002 706.783C553.768 706.69 607.539 706.555 607.539 706.554L602.737 672.881L575.181 659.561C575.181 659.561 557.871 587.235 551.112 552.767C550.093 547.566 548.457 523.091 543.509 519.837C542.277 519.027 540.581 519.38 539.107 519.38C528.279 519.38 517.41 519.095 506.577 519.037ZM533.618 645.325C543.13 645.325 550.884 651.978 550.884 660.247C550.884 668.516 543.13 675.225 533.618 675.225C524.107 675.225 516.41 668.516 516.41 660.247C516.41 651.978 524.107 645.325 533.618 645.325ZM205.233 519.551C205.233 519.551 200.671 533.843 197.859 547.736C192.113 576.117 185.54 604.614 181.565 635.206C180.005 635.427 175.505 658.246 175.505 658.246L147.949 672.367L140.974 706.154L249.312 706.154C249.312 706.154 257.814 652.359 258.402 656.473C267.036 628.651 272.258 564.202 274.638 563.572C273.709 548.901 277.335 536.195 277.782 520.409C253.587 520.03 205.234 519.551 205.233 519.551ZM215.067 645.325C224.578 645.325 232.275 651.978 232.275 660.247C232.275 668.516 224.578 675.225 215.067 675.225C205.555 675.225 197.858 668.516 197.859 660.247C197.859 651.978 205.555 645.325 215.067 645.325ZM440.889 547.736L404.357 572.376L445.005 600.676L440.889 547.736ZM308.368 548.651L304.538 600.961L345.472 573.12L308.368 548.651Z" fill="#FFFFFF" fill-rule="nonzero" opacity="1" stroke="none" vectornator:layerName="path"/>
</g>
</svg>
