<?xml version="1.0" encoding="UTF-8" standalone="no"?>
<!DOCTYPE svg PUBLIC "-//W3C//DTD SVG 1.1//EN" "http://www.w3.org/Graphics/SVG/1.1/DTD/svg11.dtd">
<!-- Created with Vectornator (http://vectornator.io/) -->
<svg height="100%" stroke-miterlimit="10" style="fill-rule:nonzero;clip-rule:evenodd;stroke-linecap:round;stroke-linejoin:round;" version="1.1" viewBox="0 0 750 1000" width="100%" xml:space="preserve" xmlns="http://www.w3.org/2000/svg" xmlns:vectornator="http://vectornator.io" xmlns:xlink="http://www.w3.org/1999/xlink">
<defs/>
<g id="Layer-1" vectornator:layerName="Layer 1">
<path d="M408.42 312.493C397.002 311.677 395.168 326.146 385.671 328.046C378.8 329.42 361.066 324.836 354.565 324.836C315.141 324.836 278.765 326.492 240.381 331.976C197.446 338.109 155.578 347.911 113.91 359.816C105.636 362.18 80.2849 367.538 75.0001 372.823C98.1863 390.212 122.371 405.915 145.071 424.075C176.265 449.031 203.745 477.546 231.968 505.77C231.941 505.798 231.94 505.798 231.913 505.825C258.783 534.963 284.739 564.895 308.515 596.597C316.05 606.642 323.248 616.879 330.544 627.094C333.323 630.983 336.116 638.208 340.285 640.71C341.207 641.263 356.751 630.443 359.104 629.031C377.886 617.762 395.425 602.458 414.895 592.722C420.671 599.461 428.052 608.174 424.858 616.19C425.031 616.135 425.057 616.082 425.245 616.024C429.1 614.846 427.669 616.923 427.847 623.164C428.008 628.783 428.247 634.438 427.847 640.045C427.815 640.491 427.484 640.661 427.072 640.765C427.283 640.95 427.824 641.202 427.847 641.318C429.495 649.558 421.343 679.345 413.179 685.874C413.782 686.526 414.442 687.331 414.895 687.368C426.037 688.297 439.536 685.275 450.54 682.83C451.852 682.538 461.603 679.822 462.218 680.284C462.365 680.394 471.895 677.321 475.834 675.745C486.739 671.383 497.446 667.56 507.604 661.465C511.641 659.043 519.158 655.904 520.611 651.06C521.38 648.494 518.268 646.839 521.275 644.584C525.062 641.744 532.333 640.141 536.828 637.444C545.953 631.969 552.085 624.133 559.466 616.744C558.824 615.858 558.638 614.892 557.584 614.751C537.668 612.096 518.087 622.021 521.275 593.331C521.591 590.49 523.148 587.376 523.821 583.59C524.494 579.804 526.849 574.325 529.024 569.974C535.631 556.761 552.82 537.485 568.598 534.33C572.537 533.542 573.661 542.601 572.473 544.68C572.11 545.315 573.804 557.759 571.532 560.897C576.266 566.236 590.838 545.133 595.83 540.141L604.519 530.677L607.951 531.618C607.951 531.618 607.422 539.712 606.567 544.68C605.713 549.648 604.519 551.488 604.519 551.488L604.409 551.1C604.315 554.553 602.331 556.914 604.851 561.229C612.86 553.904 621.871 551.804 630.201 540.141C632.734 536.595 639.039 519.717 640.607 518.777C644.395 516.504 652.366 517.976 655.495 514.847C660.086 510.257 663.345 505.06 667.838 500.567C667.893 500.622 667.896 500.625 667.949 500.678C668.551 499.204 670.886 496.433 672.653 492.154C674.61 487.416 675.323 481.039 674.867 480.31C672.206 477.54 670.847 472.934 669.111 469.461C669.139 469.434 669.14 469.433 669.166 469.406C652.849 448.081 628.262 433.85 608.172 416.271C604.966 413.466 606.829 410.611 604.519 408.301C599.272 403.054 593.084 397.71 587.417 392.914C542.467 354.88 467.648 316.723 408.42 312.493ZM416.722 329.817C420.911 330.376 427.507 332.742 429.784 333.249C439.883 335.493 473.647 341.691 481.59 348.303C481.634 348.257 481.654 348.239 481.701 348.193C486.412 350.224 488.38 349.467 490.114 352.067C488.061 354.12 480.99 353.752 480.428 351.015C478.064 352.662 474.687 352.081 471.24 351.458C471.255 351.44 471.281 351.421 471.295 351.403C468.76 348.868 452.72 347.95 449.267 351.403C452.575 354.712 459.212 355.607 464.598 354.558C472.374 358.135 489.821 361.692 495.981 363.746C521.656 372.304 549.958 381.687 571.864 398.117C577.419 402.284 588.41 408.999 589.354 415.607C590.585 424.224 579.885 433.153 571.864 433.153C555.769 433.153 524.238 410.64 509.597 403.32C508.948 403.968 508.917 403.944 508.268 404.593C511.888 411.833 516.888 417.702 519.947 425.349C522.569 431.904 522.241 440.95 525.15 446.768C520.004 450.627 514.132 453.219 508.932 457.119C504.04 460.788 500.094 465.601 495.981 470.125C490.703 475.931 468.921 509.871 475.834 516.784C483.204 509.414 485.831 495.773 493.988 487.616C523.107 458.497 542.06 459.533 580.277 449.979C590.825 447.341 599.629 429.548 604.298 428.614C606.752 428.123 634.475 451.721 636.068 453.244C638.719 455.78 641.222 458.454 643.817 461.048C643.168 461.697 643.192 461.673 642.544 462.321C638.847 460.473 627.3 454.208 624.389 457.119C632.317 466.037 654.334 489.238 637.341 500.567C633.136 503.37 629.227 506.434 623.725 506.434C603.79 506.434 586.343 495.716 567.325 491.49C540.356 485.497 510.247 497.98 491.442 516.784C496.211 518.374 503.566 510.368 506.995 515.511C504.093 517.446 500.993 519.521 498.527 521.987C495.441 525.073 473.547 552.743 479.1 558.296C481.352 554.917 486.556 548.61 490.778 548.61C492.286 553.135 488.087 561.214 487.513 566.1C486.349 575.991 487.235 586.048 488.177 595.933C489.196 606.634 491.921 617.515 495.317 627.703C495.987 629.716 500.427 638.191 499.191 640.045C494.534 647.031 469.893 656.749 461.554 659.528C459.418 660.24 447.376 665.627 446.665 662.074C445.916 658.33 452.477 641.906 452.477 636.171C452.477 619.993 451.35 604.491 445.337 589.457C440.295 576.852 432.488 565.071 429.175 551.82C427.736 546.062 429.169 532.386 425.91 529.127C420.97 534.066 421.941 542.837 417.497 547.281C410.59 540.375 406.462 528.003 403.826 518.777C390.622 472.566 417.208 435.987 447.938 405.257C447.29 404.608 447.314 404.577 446.665 403.929C434.29 410.116 420.777 412.991 410.357 423.411C405.841 427.927 400.401 435.389 394.748 439.628C392.475 437.355 394.371 433.571 394.748 430.551C395.519 424.384 398.232 394.553 404.49 390.977C413.211 385.993 448.439 386.709 459.008 386.438C464.644 386.294 471.847 389.152 475.834 385.165C467.367 376.698 423 373.241 411.63 372.159C387.695 369.879 363.592 370.66 339.621 372.159C332.136 372.626 308.808 377.734 302.648 375.424C301.086 374.838 301.34 371.157 299.438 370.886C293.241 370 283.578 373.628 277.354 374.76C253.299 379.134 228.184 384.465 205.401 393.578C200.993 395.342 172.261 407.668 169.701 406.53C160.334 402.367 147.896 390.536 140.533 383.173C149.948 373.758 171.441 368.601 183.981 365.019C227.995 352.443 272.443 340.389 318.866 340.389C344.879 340.389 369.711 342.369 395.413 343.654C405.933 344.18 405.228 334.748 413.567 329.983C414.172 329.637 415.325 329.63 416.722 329.817ZM368.181 396.18C369.328 399.621 367.014 403.065 366.244 406.53C365.006 412.099 366.272 422.903 363.643 427.286C360.433 432.635 341.173 434.623 335.083 436.363C330.898 437.558 322.536 442.328 318.257 440.901C315.231 439.893 318.615 435.754 314.327 435.754C304.199 435.754 289.086 444.788 279.291 448.706C268.527 453.011 257.916 457.788 247.521 462.986C246.132 463.68 237.936 468.085 237.171 467.524C226.064 459.379 214.482 448.07 205.401 437.691C227.034 423.269 255.449 415.05 280.62 407.858C287.636 405.854 300.687 399.28 307.851 401.327C309.163 401.702 309.993 405.406 311.117 406.53C325.937 399.12 351.979 396.18 368.181 396.18ZM530.961 424.075C538.001 427.595 550.813 434.186 556.255 439.628C554.343 441.541 555.264 441.093 551.717 441.566C534.643 443.842 536.52 439.012 529.688 425.349C530.337 424.7 530.313 424.724 530.961 424.075ZM357.942 466.528C359.544 466.256 360.98 466.326 362.314 466.86C365.298 468.053 364.583 477.314 364.916 479.811C365.586 484.842 370.875 496.495 368.845 501.231C367.275 504.895 346.598 512.051 342.223 514.238C342.15 514.166 342.074 514.195 342.001 514.128C339.064 516.318 334.737 516.721 335.47 514.183C330.672 510.623 302.803 530.237 296.837 531.728C294.085 532.416 286.317 521.423 284.494 519.386C279.69 514.017 272.159 508.331 268.941 501.896C284.863 491.281 301.876 484.432 318.866 475.937C319.22 476.292 319.66 476.307 320.028 476.601C324.114 473.621 328.208 475.319 326.891 479.037C337.01 479.205 349.192 468.012 357.942 466.528ZM580.941 509.035C596.115 516.623 611.161 516.428 627.6 518.777C635.241 519.868 616.48 543.658 615.312 544.68C613.366 538.841 619.157 532.248 617.25 526.526C616.271 523.589 611.249 524.93 608.172 524.588C605.976 524.344 596.481 520.361 594.557 521.323C592.479 522.361 585.142 539.15 581.55 542.743C580.628 541.821 577.988 511.988 580.941 509.035ZM546.569 514.238C550.03 517.699 542.984 527.034 540.702 530.455C533.397 541.413 524.924 548.81 515.408 558.96C511.594 563.029 510.972 569.593 506.995 572.576C500.763 553.878 535.565 519.741 546.569 514.238ZM379.195 540.141C381.818 541.015 391.453 560.797 394.14 564.827C394.715 565.69 398.481 569.225 397.35 570.638C394.807 573.817 388.509 576.375 385.062 578.443C372.42 586.028 360.61 595.816 347.425 602.408C342.319 595.599 326.546 574.627 324.733 567.373C324.435 566.181 342.036 552.723 344.16 553.148C346.1 553.536 346.166 557.701 347.425 558.96C350.801 557.272 378.95 540.06 379.195 540.141ZM515.408 623.164C520.671 625.796 531.714 624.526 534.891 627.703C531.838 629.992 519.921 638.877 516.737 633.57C515.09 630.824 515.504 627.23 514.135 624.493C514.784 623.844 514.76 623.813 515.408 623.164ZM574.465 464.923C573.816 465.571 573.785 465.547 573.137 466.196C575.597 468.656 578.163 470.643 580.941 472.727C580.292 473.375 580.261 473.351 579.613 474C570.285 469.336 555.39 473.728 547.178 479.203C553.143 485.167 564.038 479.811 572.473 479.811C583.881 479.811 594.745 485.44 604.298 490.217C604.947 489.568 604.922 489.593 605.571 488.944C597.917 473.636 587.304 471.342 574.465 464.923Z" fill="#FFFFFF" fill-rule="nonzero" opacity="1" stroke="none" vectornator:layerName="path"/>
</g>
</svg>
