<?xml version="1.0" encoding="UTF-8" standalone="no"?>
<!DOCTYPE svg PUBLIC "-//W3C//DTD SVG 1.1//EN" "http://www.w3.org/Graphics/SVG/1.1/DTD/svg11.dtd">
<!-- Created with Vectornator (http://vectornator.io/) -->
<svg height="100%" stroke-miterlimit="10" style="fill-rule:nonzero;clip-rule:evenodd;stroke-linecap:round;stroke-linejoin:round;" version="1.1" viewBox="0 0 750 1000" width="100%" xml:space="preserve" xmlns="http://www.w3.org/2000/svg" xmlns:vectornator="http://vectornator.io" xmlns:xlink="http://www.w3.org/1999/xlink">
<defs/>
<g id="Layer-1" vectornator:layerName="Layer 1">
<path d="M330.689 328.924L320.665 336.018C319.333 336.958 317.936 337.905 316.604 338.845C314.142 340.583 310.861 342.565 306.734 344.705C302.705 346.794 296.716 349.412 288.794 352.519C280.978 355.584 272.357 358.324 262.937 360.641C253.532 362.954 243.684 364.699 233.482 365.936C223.273 367.173 212.91 367.837 202.382 367.992C191.834 368.147 181.407 367.893 171.179 367.118C160.93 366.341 150.787 365.123 140.696 363.571C130.637 362.023 118.99 359.749 105.74 356.631C99.079 355.064 92.4048 353.469 85.7437 351.902L75 349.332L81.9397 357.968C83.2719 359.613 84.6684 361.205 86.0007 362.851C88.8817 366.41 93.3861 371.072 99.7258 376.936C106.081 382.815 111.611 387.372 116.381 390.661C121.069 393.894 126.519 397.188 132.728 400.531C138.937 403.875 144.895 406.71 150.668 409.116L151.748 409.527C157.21 411.767 162.929 413.902 169.071 415.85C175.603 417.921 182.382 419.761 189.376 421.35C196.417 422.95 203.616 424.15 210.966 424.949C212.247 425.088 213.541 425.221 214.822 425.36C213.477 427.003 212.157 428.703 210.812 430.346C207.991 433.794 205.203 437.23 202.382 440.679L194.877 449.726L206.237 446.693C209.999 445.674 213.785 444.627 217.546 443.609C224.95 441.604 232.688 439.911 240.73 438.52C248.698 437.14 257.04 436.309 265.816 436.001C274.634 435.691 280.448 435.807 282.419 436.155C282.419 436.155 281.996 435.911 282.522 436.463C283.004 436.97 283.718 437.919 284.527 439.291C286.15 442.043 288.157 446.375 290.387 452.142C291.728 455.609 292.425 457.54 293.369 460.007C292.156 459.133 290.984 458.207 289.77 457.334L282.06 451.833L283.807 461.138C284.199 463.175 284.598 465.217 284.99 467.255C285.819 471.566 288.307 481.408 292.392 497.121C296.486 512.868 300.771 527.603 305.346 541.33C309.909 555.02 314.135 566.519 317.94 575.874C321.749 585.238 326.553 595.771 332.385 607.437C338.233 619.132 344.027 629.413 349.76 638.331C355.465 647.205 360.629 654.403 365.336 659.921L365.798 660.487C367.907 662.959 370.013 665.417 372.121 667.889L374.846 671.076L377.724 668.043C379.449 666.241 381.192 664.448 382.916 662.646C386.626 658.768 391.094 652.893 396.487 644.962C401.905 636.995 407.196 628.104 412.423 618.283C417.654 608.454 422.843 597.534 428.05 585.384C433.271 573.201 438.479 559.389 443.677 543.951C448.879 528.504 453.612 512.579 457.865 496.196C462.11 479.844 464.584 470.034 465.267 466.278C465.581 464.554 465.879 462.862 466.193 461.138L467.838 451.936L460.281 457.334C459.072 458.204 457.84 459.085 456.631 459.955C457.572 457.496 458.279 455.591 459.613 452.142C461.842 446.376 463.85 442.043 465.473 439.291C466.282 437.919 466.995 436.97 467.478 436.463C467.999 435.916 467.581 436.155 467.581 436.155C469.833 435.757 473.775 435.538 479.147 435.538C484.524 435.538 489.497 435.751 494.054 436.206C498.609 436.662 504.344 437.535 511.172 438.777C517.93 440.005 525.084 441.701 532.659 443.866C536.499 444.963 540.385 446.059 544.225 447.156L555.843 450.446L548.184 441.141C545.284 437.615 542.344 434.027 539.445 430.5C538.049 428.802 536.626 427.109 535.23 425.411C536.018 425.332 536.806 425.284 537.594 425.206C544.049 424.56 551.235 423.356 559.184 421.607C567.122 419.861 574.631 417.877 581.648 415.644C588.623 413.425 594.589 411.212 599.589 409.116C604.543 407.038 609.5 404.728 614.445 402.176C619.47 399.582 625.055 396.234 631.254 392.101C637.565 387.893 643.982 382.749 650.531 376.679C657.028 370.658 661.563 366.076 664.308 362.646C665.562 361.078 666.858 359.535 668.112 357.968L675 349.229L664.205 351.902C659.111 353.156 654.031 354.401 648.938 355.655C638.872 358.132 627.229 360.515 613.982 362.697C600.744 364.878 589.023 366.345 578.821 367.118C568.593 367.893 558.165 368.147 547.618 367.992C537.09 367.837 526.728 367.173 516.518 365.936C506.328 364.7 496.325 362.853 486.446 360.384C476.568 357.914 467.427 354.966 459.15 351.594C450.818 348.199 443.727 344.747 437.817 341.261C434.761 339.459 431.723 337.717 428.667 335.915L419.157 330.312L423.218 340.49C424.864 344.644 426.507 348.777 428.153 352.93L428.821 354.678C429.405 356.151 430.036 357.625 430.62 359.099C429.006 358.802 427.351 358.521 425.737 358.225C417.905 356.786 409.234 355.675 399.572 354.883C389.843 354.086 378.951 353.796 366.929 354.112C354.852 354.43 342.76 355.599 330.689 357.505C326.862 358.109 323.052 358.7 319.225 359.304C320.031 357.17 320.836 355.013 321.642 352.879C323.209 348.725 324.803 344.592 326.371 340.439L330.689 328.924ZM322.824 339.102C321.256 343.256 319.662 347.44 318.095 351.594C316.527 355.747 314.984 359.88 313.417 364.034C319.373 363.093 325.298 362.147 331.254 361.206C343.166 359.326 355.12 358.23 367.032 357.916C378.944 357.603 389.651 357.852 399.212 358.636C408.773 359.42 417.389 360.515 425.069 361.926C428.909 362.631 432.743 363.328 436.583 364.034C434.938 359.88 433.294 355.747 431.648 351.594C430.003 347.44 428.359 343.256 426.714 339.102C429.77 340.904 432.859 342.749 435.915 344.551C442.028 348.156 449.299 351.641 457.762 355.089C466.226 358.537 475.49 361.526 485.521 364.034C495.552 366.541 505.711 368.434 516.056 369.688C526.4 370.942 536.909 371.639 547.567 371.796C558.225 371.952 568.734 371.654 579.078 370.87C589.423 370.087 601.277 368.593 614.599 366.398C627.921 364.204 639.675 361.863 649.863 359.356C654.957 358.102 660.036 356.857 665.13 355.603C663.876 357.171 662.632 358.714 661.378 360.281C658.87 363.416 654.387 367.947 647.961 373.903C641.535 379.859 635.259 384.89 629.147 388.965C623.034 393.04 617.556 396.327 612.697 398.835C607.838 401.343 602.957 403.634 598.098 405.672C593.239 407.709 587.362 409.8 580.466 411.995C573.57 414.189 566.25 416.182 558.413 417.906C550.577 419.63 543.504 420.775 537.234 421.402C534.1 421.715 530.962 422.013 527.827 422.327C530.727 425.853 533.615 429.39 536.515 432.916C539.414 436.443 542.303 439.979 545.202 443.506C541.362 442.409 537.527 441.313 533.687 440.216C526.007 438.022 518.737 436.278 511.84 435.024C504.944 433.77 499.167 432.924 494.465 432.454C489.763 431.983 484.632 431.734 479.147 431.734C473.661 431.734 469.577 431.984 466.912 432.454C464.248 432.924 460.663 439.05 456.117 450.805C451.572 462.56 449.28 468.586 449.28 468.9C449.28 469.057 449.28 469.206 449.28 469.363C449.516 469.284 449.765 469.235 450 469.157C450.47 469 452.661 467.506 456.58 464.685C458.539 463.274 460.532 461.829 462.491 460.418C462.178 462.142 461.828 463.886 461.515 465.61C460.888 469.058 458.447 478.919 454.215 495.219C449.983 511.52 445.302 527.358 440.13 542.718C434.958 558.077 429.778 571.773 424.606 583.842C419.434 595.91 414.254 606.818 409.082 616.535C403.909 626.253 398.681 635.018 393.352 642.855C388.023 650.691 383.64 656.419 380.192 660.024C378.468 661.827 376.724 663.619 375 665.422C372.727 662.757 370.487 660.118 368.215 657.454C363.669 652.125 358.538 645.052 352.896 636.275C347.253 627.498 341.526 617.339 335.727 605.74C329.927 594.142 325.146 583.682 321.385 574.435C317.623 565.187 313.49 553.783 308.944 540.147C304.399 526.512 300.066 511.869 295.99 496.196C291.915 480.522 289.526 470.61 288.742 466.535C288.35 464.498 287.952 462.456 287.56 460.418C289.519 461.829 291.461 463.274 293.42 464.685C297.338 467.506 299.53 469 300 469.157C300.235 469.235 300.485 469.284 300.72 469.363C300.72 469.206 300.72 469.057 300.72 468.9C300.72 468.586 298.428 462.56 293.883 450.805C289.337 439.05 285.752 432.924 283.088 432.454C280.423 431.984 274.595 431.935 265.661 432.248C256.728 432.562 248.212 433.408 240.062 434.818C231.911 436.229 224.093 437.921 216.57 439.959C212.808 440.978 209.022 442.024 205.26 443.043C208.082 439.595 210.921 436.159 213.742 432.711C216.564 429.263 219.351 425.775 222.173 422.327C218.568 421.935 214.983 421.588 211.378 421.196C204.168 420.412 197.095 419.216 190.199 417.649C183.302 416.082 176.68 414.289 170.254 412.252C163.827 410.214 157.75 408.023 152.108 405.672C146.465 403.321 140.588 400.481 134.476 397.19C128.363 393.898 123.034 390.712 118.489 387.577C113.943 384.442 108.565 379.96 102.296 374.16C96.0267 368.361 91.5439 363.829 88.8794 360.538C87.5471 358.892 86.202 357.249 84.8698 355.603C91.531 357.171 98.2051 358.714 104.866 360.281C118.189 363.416 129.942 365.756 140.13 367.324C150.318 368.891 160.577 370.087 170.922 370.87C181.266 371.654 191.775 371.952 202.433 371.796C213.091 371.639 223.6 370.942 233.944 369.688C244.289 368.434 254.25 366.642 263.811 364.291C273.372 361.94 282.137 359.2 290.13 356.066C298.124 352.931 304.25 350.241 308.482 348.047C312.714 345.852 316.15 343.81 318.814 341.929C320.146 340.989 321.492 340.043 322.824 339.102ZM295.065 364.959C294.752 364.959 292.311 366.155 287.766 368.506C283.22 370.857 277.593 373.197 270.853 375.548C264.114 377.899 257.242 379.893 250.188 381.46C243.135 383.027 236.163 384.172 229.267 384.955C222.37 385.739 215.398 386.238 208.345 386.395C201.292 386.551 193.969 386.402 186.446 385.932C178.923 385.462 171.004 384.564 162.697 383.31C154.39 382.057 146.073 380.413 137.766 378.376C133.612 377.357 129.479 376.361 125.326 375.343C127.05 376.518 128.793 377.663 130.517 378.838C133.966 381.189 138.647 383.879 144.602 386.857C150.558 389.835 155.489 392.076 159.407 393.643C163.326 395.21 169.004 397.103 176.371 399.297C183.737 401.492 190.46 403.135 196.573 404.232C202.686 405.33 208.712 406.127 214.668 406.597C220.624 407.067 228.692 406.967 238.879 406.34C243.973 406.026 249.053 405.728 254.147 405.415C251.717 408.001 249.328 410.591 246.899 413.177C244.469 415.763 242.028 418.353 239.599 420.939C243.753 420.077 247.886 419.231 252.039 418.369C260.346 416.645 268.116 415.747 275.326 415.747C282.535 415.747 287.615 415.997 290.593 416.467C293.571 416.937 297.755 417.984 303.084 419.551C308.413 421.118 314.339 423.359 320.922 426.337C324.213 427.826 327.5 429.32 330.792 430.809C330.87 423.364 330.97 415.944 331.049 408.499C331.205 393.609 331.1 383.413 331.1 383.413C331.1 383.413 328.393 376.682 327.296 376.525C326.199 376.368 322.912 376.816 317.426 377.913C311.941 379.01 304.618 380.903 295.528 383.568C290.983 384.9 286.451 386.245 281.905 387.577C284.1 384.051 286.291 380.514 288.485 376.988C292.874 369.935 295.165 366.149 295.322 365.679C295.401 365.443 295.449 365.194 295.528 364.959C295.371 364.959 295.222 364.959 295.065 364.959ZM454.935 364.959C457.129 368.721 459.32 372.506 461.515 376.268C463.709 380.03 465.9 383.815 468.095 387.577C463.236 386.167 458.406 384.721 453.547 383.31C443.829 380.489 434.666 378.398 426.045 376.988C421.735 376.282 417.401 375.585 413.091 374.88C413.091 375.115 413.091 375.313 413.091 375.548C413.091 376.019 421.008 382.334 421.008 382.334C421.007 382.334 421.11 387.303 421.11 391.535C421.11 395.767 420.802 402.125 420.802 402.125L414.222 407.06L420.288 411.995C420.288 411.994 420.853 418.565 420.853 422.327C420.853 424.208 420.802 427.026 420.802 428.907C424.72 427.339 429.889 425.796 433.807 424.229C441.644 421.094 448.617 418.903 454.729 417.649C460.842 416.395 467.465 415.747 474.674 415.747C481.884 415.747 489.654 416.645 497.961 418.369C502.115 419.231 506.299 420.077 510.452 420.939C508.023 418.353 505.582 415.763 503.153 413.177C500.723 410.591 498.283 408.001 495.853 405.415C501.026 405.728 506.205 406.026 511.378 406.34C521.722 406.967 529.142 407.167 533.687 406.854C538.233 406.541 543.912 405.792 550.651 404.695C557.391 403.598 563.864 402.204 570.134 400.48C576.403 398.756 582.231 396.863 587.56 394.825C592.889 392.788 598.118 390.548 603.29 388.04C608.462 385.532 613.393 382.793 618.095 379.815C620.446 378.326 622.786 376.832 625.137 375.343C621.689 376.205 618.253 377.051 614.805 377.913C607.908 379.637 600.239 381.18 591.775 382.591C583.312 384.001 574.696 385.048 565.918 385.675C557.141 386.302 549.122 386.552 541.912 386.395C534.702 386.238 528.229 385.839 522.43 385.212C516.631 384.586 509.956 383.49 502.433 381.923C494.91 380.355 487.837 378.462 481.254 376.268C474.672 374.074 468.645 371.633 463.16 368.968C460.417 367.636 457.678 366.291 454.935 364.959ZM355.723 387.577C355.801 390.007 355.723 402.125 355.723 402.125C355.723 402.125 362.61 402.125 375.463 402.125C388.315 402.125 394.889 401.875 395.202 401.405C395.516 400.935 395.616 398.546 395.459 394.157C395.375 391.799 395.562 387.577 395.562 387.577C395.562 387.577 381.556 387.577 375.463 387.577C368.88 387.577 362.306 387.577 355.723 387.577ZM355.723 415.079C355.801 417.508 355.723 429.626 355.723 429.626C355.723 429.626 362.61 429.626 375.463 429.626C388.315 429.626 394.889 429.377 395.202 428.907C395.516 428.437 395.616 426.047 395.459 421.659C395.375 419.301 395.562 415.079 395.562 415.079C395.562 415.079 381.556 415.079 375.463 415.079C368.88 415.079 362.306 415.079 355.723 415.079ZM359.476 447.258C359.162 447.258 356.423 449.301 351.251 453.376C346.079 457.451 341.647 460.439 337.886 462.32C334.124 464.201 330.886 465.147 328.221 465.147C325.557 465.147 322.568 464.35 319.277 462.783C317.631 461.999 315.988 461.202 314.342 460.418C317.79 468.333 321.226 476.252 324.674 484.167C328.123 492.082 331.61 500.001 335.058 507.916C330.983 504.311 326.899 500.726 322.824 497.121C318.749 493.516 314.665 489.88 310.589 486.275C310.511 486.588 310.411 486.938 310.332 487.252C310.176 487.878 312.169 494.9 316.244 508.379C320.319 521.858 324.951 535.903 330.123 550.48C335.296 565.056 340.424 578.453 345.596 590.679C350.769 602.904 354.853 611.769 357.831 617.255C359.32 619.998 360.814 622.737 362.303 625.48C360.657 617.721 359.014 609.952 357.368 602.193C354.077 586.677 351.289 572.284 348.938 558.962C346.587 545.639 345.391 538.466 345.391 537.526C345.391 537.055 345.391 536.608 345.391 536.138C345.704 536.373 346.003 536.622 346.316 536.857C346.943 537.328 351.127 542.109 358.807 551.199C362.647 555.745 366.482 560.276 370.322 564.822C368.676 546.014 367.033 527.187 365.387 508.379C362.096 470.763 360.352 451.19 360.195 449.623C360.039 448.056 359.789 447.258 359.476 447.258ZM390.524 447.258C388.722 466.85 386.929 486.474 385.127 506.066C383.324 525.657 381.532 545.23 379.729 564.822C383.726 560.12 387.71 555.439 391.707 550.737C399.7 541.333 403.833 536.451 404.147 536.138C404.303 535.981 404.453 535.832 404.609 535.675C404.688 535.832 404.788 535.981 404.866 536.138C405.023 536.451 403.38 546.163 399.931 565.284C396.483 584.406 393.595 599.249 391.244 609.75C390.069 615 388.873 620.229 387.697 625.48C389.813 621.405 391.955 617.32 394.071 613.245C398.303 605.095 402.585 595.682 406.974 585.024C411.363 574.366 415.894 562.414 420.596 549.092C425.298 535.769 429.781 522.022 434.013 507.916C438.245 493.81 440.187 486.689 439.873 486.532C439.56 486.375 435.326 489.96 427.176 497.327C423.101 501.01 419.068 504.696 414.993 508.379C418.52 500.386 422.005 492.418 425.531 484.424C429.058 476.431 432.594 468.412 436.121 460.418C434.71 461.124 433.316 461.82 431.905 462.526C429.084 463.936 426.893 464.834 425.326 465.147C423.758 465.461 422.115 465.51 420.391 465.353C418.667 465.196 416.524 464.6 414.016 463.502C411.509 462.405 406.977 459.417 400.394 454.558C397.103 452.128 393.816 449.688 390.524 447.258Z" fill="#FFFFFF" fill-rule="nonzero" opacity="1" stroke="none" vectornator:layerName="path"/>
</g>
</svg>
