<?xml version="1.0" encoding="UTF-8" standalone="no"?>
<!DOCTYPE svg PUBLIC "-//W3C//DTD SVG 1.1//EN" "http://www.w3.org/Graphics/SVG/1.1/DTD/svg11.dtd">
<!-- Created with Vectornator (http://vectornator.io/) -->
<svg height="100%" stroke-miterlimit="10" style="fill-rule:nonzero;clip-rule:evenodd;stroke-linecap:round;stroke-linejoin:round;" version="1.1" viewBox="0 0 750 1000" width="100%" xml:space="preserve" xmlns="http://www.w3.org/2000/svg" xmlns:vectornator="http://vectornator.io" xmlns:xlink="http://www.w3.org/1999/xlink">
<defs/>
<g id="Layer-1" vectornator:layerName="Layer 1">
<path d="M218.179 232.036C226.639 255.055 237.517 277.33 250.434 298.177C233.492 298.312 216.403 296.365 199.606 298.575C176.025 301.676 153.145 308.859 129.925 314.006C148.286 320.112 167.665 323.763 185.009 332.341C194.013 336.794 201.605 344.268 207.52 352.386C212.487 359.202 204.116 374.355 200.64 378.039C190.907 388.352 179.224 396.597 168.504 405.879C175.435 411.048 199.437 424.248 200.998 438.174C202.107 448.069 200.747 458.493 197.219 467.804C193.352 478.012 185.318 486.099 179.362 495.247C190.96 496.937 202.775 497.561 214.162 500.338C240.93 506.866 224.975 523.146 215.514 539.115C247.034 544.155 278.867 547.645 310.092 554.269C345.201 561.716 382.381 578.557 403.755 609.074C406.881 613.537 404.553 619.946 404.948 625.381C391.701 630.122 380.657 611.199 368.199 604.66C356.939 598.749 344.244 595.948 332.006 592.489C299.958 583.432 265.403 589.146 232.139 590.779C229.205 590.923 226.564 592.684 223.787 593.643C238.18 600.626 238.189 600.62 252.582 607.603C235.192 607.405 217.632 604.647 200.401 607.006C146.323 614.411 112.62 647.928 75 683.488C111.396 679.142 149.304 673.678 184.97 682.135C222.666 691.075 250.821 723.128 285.195 740.998C322.011 760.137 359.993 770.658 401.687 767.367C499.334 759.66 598.673 648.727 549.877 550.411C537.661 525.796 507.451 508.813 487.356 494.094C499.173 487.816 510.403 480.026 519.969 470.668C527.564 477.591 527.566 477.585 535.162 484.509C538.682 468.692 538.681 468.706 542.201 452.89C595.548 466.351 624.113 461.426 675 437.856C637.499 426.238 637.491 426.247 599.99 414.629C611.774 394.019 611.751 394.036 623.535 373.425C592.996 380.756 593.024 380.731 562.485 388.061C562.545 378.426 565.089 368.507 562.644 359.187C560.259 350.095 556.337 339.934 548.485 334.767C540.683 329.632 529.398 334.807 520.645 331.546C504.183 325.412 491.067 311.176 473.992 307.046C454.299 302.282 433.159 309.144 413.221 305.535C399.28 303.011 387.91 292.222 374.125 288.95C359.328 285.437 343.365 289.201 328.626 285.45C288.903 275.34 253.173 251.865 218.179 232.036ZM253.178 269.7C273.296 278.671 292.81 289.061 313.513 296.586C323.158 300.092 333.489 301.556 343.699 302.592C352.304 303.464 361.318 300.029 369.671 302.273C381.572 305.471 390.721 316.492 402.88 318.5C423.83 321.96 445.771 314.153 466.595 318.301C475.766 320.129 480.402 331.231 488.668 335.602C491.259 336.972 494.638 333.683 497.418 334.608C506.301 337.562 513.721 344.162 522.673 346.898C528.236 348.597 534.74 345.38 540.093 347.653C548.714 351.313 548.033 365.488 547.213 374.817C546.497 382.963 543.262 390.706 541.287 398.641C526.532 384.595 515.762 376.598 494.395 376.05C486.691 375.853 478.984 378.762 471.328 377.88C465.611 377.221 461.015 372.187 455.3 371.516C438.887 369.591 433.431 377.705 420.937 386.789C438.03 403.883 453.708 422.535 472.242 438.055C484.834 448.599 498.884 446.994 513.725 447.839C499.294 466.055 490.944 481.299 464.646 480.412C464.571 474.916 465.432 469.314 464.447 463.907C463.799 460.344 462.47 456.567 459.873 454.043C434.614 429.494 399.456 408.623 363.148 415.822C366.425 400.894 366.433 400.882 369.71 385.954C354.673 385.996 339.458 383.963 324.569 386.073C313.522 387.638 303.436 393.265 292.871 396.851C311.694 398.63 311.712 398.612 330.535 400.391C320.397 415.696 303.779 425.743 288.735 436.265C300.69 434.091 312.809 426.841 324.609 429.743C333.368 431.896 336.857 443.008 342.984 449.629C330.385 464.302 330.406 464.267 317.808 478.94C330.798 473.691 343.424 467.534 356.745 463.191C367.73 459.609 383.063 469.675 390.471 472.736C379.321 490.661 379.349 490.685 368.199 508.61C381.713 498.256 396.57 482.464 416.124 483.793C430.144 484.745 445.26 489.013 455.618 498.508C444.326 506.742 434.583 517.097 425.669 527.86C430.412 525.093 434.713 521.366 439.908 519.587C453.036 515.093 466.461 507.544 480.237 509.207C491.501 510.566 499.188 521.635 508.674 527.86C494.38 534.89 481.911 545.587 470.731 556.933C478.99 554.239 486.96 550.361 495.509 548.82C505.723 546.978 524.736 540.757 533.213 552.36C538.718 559.895 543.076 569.237 543.076 578.569C524.886 583.426 506.968 589.979 490.299 598.734C509.019 597.15 527.969 598.516 546.616 600.802C545.43 610.584 545.401 620.578 543.076 630.154C540.913 639.063 537.373 647.656 533.253 655.846C530.64 661.039 527.343 666.067 523.031 669.965C476.482 712.042 419.089 681.742 367.642 670.283C349.594 666.264 341.648 671.678 324.609 677.283C333.897 677.678 343.571 675.813 352.489 678.437C377.45 685.781 397.097 705.281 420.34 716.976C430.992 722.335 442.803 725.04 454.027 729.066C446.938 733.116 440.571 738.86 432.749 741.197C383.963 755.772 331.07 750.287 287.86 722.902C256.219 702.849 234.43 679.4 199.486 667.261C173.708 658.305 145.002 658.918 117.834 661.494C149.753 637.521 180.135 620.467 221.44 620.37C240.825 620.324 260.185 622.245 279.547 623.193C280.233 619.751 282.898 616.104 281.576 612.853C279.615 608.034 274.368 605.383 270.758 601.637C307.413 602.531 336.83 601.733 368.716 621.364C379.079 627.744 386.242 639.161 397.511 643.756C405.543 647.031 414.97 634.208 416.522 628.682C421.188 612.07 414.156 595.855 402.801 583.819C361.939 540.509 296.677 535.804 242.679 525.195C244.43 517.697 250.223 505.958 240.69 499.423C229.83 491.979 216.803 488.33 204.855 482.798C221.699 445.799 223.17 434.34 193.958 404.05C202.398 395.464 211.508 387.502 219.293 378.317C223.135 373.785 228.223 362.419 226.253 355.926C223.898 348.165 221.295 339.544 215.117 334.29C204.536 325.291 190.488 321.455 178.169 315.04C197.989 313.71 217.772 310.458 237.628 311.063C260.14 311.748 282.392 316.283 304.763 318.898C285.866 304.492 268.265 288.058 253.178 269.7ZM456.214 393.868C477.702 399.24 498.224 404.102 521.122 404.845C534.174 405.269 547.289 404.442 560.298 403.294C567.489 402.66 574.543 400.967 581.615 399.516C583.518 399.126 587.067 397.328 587.422 399.237C588.855 406.95 574.38 409.452 573.184 417.692C590.552 426.743 611.966 430.54 628.149 440.441C596.887 458.086 553.338 440.275 524.105 427.396C524.62 434.721 525.131 442.176 523.986 449.43C515.468 440.532 507.829 431.927 497.895 424.413C484.159 414.023 466.397 407.759 456.214 393.868ZM452.118 334.966C449.368 335.009 446.066 335.394 441.698 336.08C453.748 346.457 471.369 357.549 485.844 344.67C482.4 343.172 478.38 345.329 475.345 343.756C463.592 337.663 460.368 334.836 452.118 334.966ZM524.105 355.926C522.29 357.741 528.238 363.563 529.156 363.642C532.405 363.92 535.685 363.827 538.94 363.642C539.219 363.626 539.299 363.243 539.497 363.045C536.878 357.807 529.295 358.521 524.105 355.926Z" fill="#FFFFFF" fill-rule="nonzero" opacity="1" stroke="none" vectornator:layerName="path"/>
</g>
</svg>
