<?xml version="1.0" encoding="UTF-8" standalone="no"?>
<!DOCTYPE svg PUBLIC "-//W3C//DTD SVG 1.1//EN" "http://www.w3.org/Graphics/SVG/1.1/DTD/svg11.dtd">
<!-- Created with Vectornator (http://vectornator.io/) -->
<svg height="100%" stroke-miterlimit="10" style="fill-rule:nonzero;clip-rule:evenodd;stroke-linecap:round;stroke-linejoin:round;" version="1.1" viewBox="0 0 750 1000" width="100%" xml:space="preserve" xmlns="http://www.w3.org/2000/svg" xmlns:vectornator="http://vectornator.io" xmlns:xlink="http://www.w3.org/1999/xlink">
<defs/>
<g id="Layer-1" vectornator:layerName="Layer 1">
<g opacity="1"/>
<path d="M374.007 231.816L368.226 254.541C361.661 280.255 347.796 330.22 347.795 330.22L347.619 331.014L347.619 331.764C347.067 393.827 345.968 517.627 345.413 580.025C343.736 588.241 340.887 602.06 338.838 612.106C333.432 611.349 324.715 609.889 316.112 606.325L308.125 602.927L307.64 611.708C307.199 619.911 311.961 626.906 315.759 631.654C319.724 636.611 323.653 639.841 323.834 639.994L325.158 641.186L327.1 641.45C327.127 641.453 341.767 643.118 350.487 644.054C350.478 669.513 351.012 702.095 351.061 704.552C348.389 707.763 344.643 712.258 342.5 714.834L339.544 718.497L342.235 722.336C348.976 731.965 362.457 751.229 369.197 760.859L374.272 768.184L379.302 760.771C385.802 751.213 398.793 732.114 405.293 722.556L407.985 718.497L404.72 714.922C402.727 712.751 399.294 709.065 396.733 706.273C396.776 703.194 397.283 665.219 397.13 644.627C406.386 644.568 417.605 644.628 417.605 644.627L420.209 644.716L422.062 642.907C422.211 642.759 426.314 638.651 430.534 632.801C434.664 627.077 439.492 619.242 439.492 610.649L439.492 600.809L430.623 605.045C422.969 608.717 419.296 610.81 416.546 611.708C414.894 612.248 411.51 612.201 408.78 612.37C405.815 599.651 401.726 580.393 401.631 579.937C401.22 517.853 400.406 394.962 399.998 333.309L399.998 332.559L399.822 331.853C399.816 331.83 386.754 279.002 380.141 254.453L374.007 231.816ZM374.184 256.086C380.762 280.505 393.82 333.309 393.82 333.309L395.453 580.775C395.453 580.775 400.946 607.116 403.925 619.034C418.419 619.034 418.3 617.851 433.314 610.649C433.314 623.056 417.737 638.494 417.737 638.494C417.737 638.494 401.986 638.181 390.952 638.494C391.302 656.345 390.555 708.568 390.555 708.568L400.175 719.07L374.184 757.285L347.222 718.761L357.239 706.759C357.239 706.759 356.417 665.068 356.577 638.494C351.38 638.01 327.762 635.272 327.762 635.272C327.762 635.272 313.228 622.933 313.817 611.973C327.085 617.469 343.78 619.034 343.78 619.034L351.546 580.775L353.797 331.853C353.797 331.853 367.588 281.917 374.184 256.086ZM75 293.727L81.928 314.996C95.2605 355.66 99.122 367.713 108.493 396.367C102.229 392.084 95.3841 388.231 87.2233 386.747L75.4854 384.629L80.6042 395.44C98.8475 434.032 103.189 443.147 117.098 472.575C113.219 471.481 109.331 470.4 101.653 468.206L84.708 463.396L94.9456 477.738C118.736 511.115 124.01 518.542 142.515 544.502C140.195 544.502 137.925 544.502 133.336 544.502L120.054 544.502L128.615 554.608C147.363 576.827 152.016 582.41 166.079 599.088C164.876 599.372 164.035 599.574 161.975 600.059L149.531 602.927L159.548 610.826C181.974 628.53 221.979 656.152 222.032 656.189L222.738 656.674L223.665 656.939C223.677 656.943 281.866 675.507 318.627 686.725L332.969 691.138L325.864 677.944C305.995 640.991 275.983 579.395 273.661 574.641C280.891 562.13 292.755 541.48 299.652 529.543C301.798 528.524 313.372 523.039 320.569 518.291L327.276 513.878L321.231 508.583C206.508 408.506 206.579 408.542 91.8567 308.465L75 293.727ZM87.7969 313.098C202.52 413.176 202.448 413.095 317.171 513.172C310.054 517.868 295.24 524.954 295.24 524.954L266.645 574.421C266.645 574.421 299.688 642.269 320.436 680.856C283.739 669.657 225.518 651.07 225.518 651.07C225.518 651.07 185.526 623.494 163.387 606.016C170.303 604.389 170.371 604.378 177.287 602.751C155.319 576.714 155.305 576.673 133.336 550.636C143.914 550.636 143.852 550.636 154.429 550.636C127.172 512.395 127.189 512.448 99.932 474.208C114.17 478.276 114.2 478.215 128.438 482.283C107.284 437.533 107.319 437.587 86.1642 392.837C99.0721 395.183 109.359 405.108 120.275 412.385C104.002 362.753 104.07 362.73 87.7969 313.098ZM675 293.727L658.187 308.465C543.467 408.54 543.406 408.504 428.681 508.583L422.636 513.878L429.387 518.291C436.577 523.035 448.118 528.525 450.259 529.543C457.157 541.48 469.021 562.13 476.25 574.641C473.929 579.395 443.96 640.994 424.092 677.944L416.943 691.138L431.284 686.725C468.043 675.507 526.324 656.943 526.335 656.939L527.306 656.674L527.968 656.189C528.022 656.151 567.94 628.528 590.364 610.826L600.381 602.927L587.981 600.059C585.921 599.574 585.035 599.372 583.833 599.088C597.915 582.41 602.626 576.841 621.385 554.608L629.946 544.502L616.664 544.502C612.048 544.502 609.749 544.502 607.397 544.502C625.902 518.542 631.176 511.115 654.966 477.738L665.204 463.396L648.259 468.206C640.582 470.4 636.737 471.481 632.858 472.575C646.785 443.149 651.191 434.044 669.44 395.44L674.515 384.629L662.777 386.747C654.605 388.233 647.707 392.084 641.419 396.367C650.813 367.714 654.735 355.673 668.072 314.996L675 293.727ZM662.203 313.098C645.93 362.73 645.954 362.753 629.681 412.385C640.597 405.108 650.928 395.184 663.836 392.837C642.681 437.587 642.628 437.533 621.473 482.283C635.712 478.215 635.741 478.276 649.98 474.208C622.723 512.448 622.739 512.395 595.482 550.636C606.06 550.636 606.086 550.636 616.664 550.636C594.696 576.673 594.637 576.714 572.669 602.751C579.584 604.378 579.609 604.389 586.525 606.016C564.386 623.494 524.526 651.07 524.526 651.07C524.526 651.07 466.172 669.657 429.475 680.856C450.224 642.269 483.311 574.421 483.311 574.421L454.672 524.954C454.672 524.954 439.858 517.868 432.741 513.172C547.463 413.095 547.481 413.175 662.203 313.098ZM374.14 317.952C371.156 331.081 365.711 349.901 365.711 349.901L364.123 578.039C364.123 578.039 358.539 606.968 356.886 618.989C363.243 618.989 368.756 618.989 368.756 618.989C368.756 618.989 373.815 585.777 373.919 579.363C375.332 492.231 374.691 405.095 374.14 317.952ZM128.438 374.921C135.761 396.075 135.766 396.04 143.089 417.195C145.529 411.5 145.546 411.506 147.987 405.81C189.16 439.941 228.141 473.951 268.322 509.245C266.682 510.388 261.482 511.539 261.482 511.539L230.946 571.244C230.946 571.244 261.951 616.139 274.323 635.272C265.367 613.274 246.876 570.935 246.876 570.935L273.706 515.864C273.706 515.864 287.037 511.598 289.547 509.951C208.997 442.419 208.988 442.453 128.438 374.921ZM621.518 374.921C540.968 442.453 540.959 442.419 460.409 509.951C462.919 511.598 476.25 515.864 476.25 515.864L503.08 570.935C503.08 570.935 484.589 613.274 475.632 635.272C488.005 616.139 518.966 571.244 518.966 571.244L488.429 511.539C488.429 511.539 483.274 510.388 481.634 509.245C521.815 473.951 560.796 439.941 601.969 405.81C604.41 411.506 604.426 411.5 606.867 417.195C614.19 396.04 614.195 396.075 621.518 374.921ZM128.438 438.376C138.202 458.717 138.223 458.721 147.987 479.062C148.902 473.366 147.336 470.283 148.251 464.588C169.099 476.444 230.946 518.82 230.946 518.82L234.785 532.765L243.214 514.408C243.214 514.408 191.532 478.964 185.407 474.958C166.518 462.604 147.423 450.581 128.438 438.376ZM621.518 438.376C602.533 450.581 583.437 462.604 564.549 474.958C558.424 478.964 506.742 514.408 506.742 514.408L515.171 532.765L518.966 518.82C518.966 518.82 580.857 476.444 601.704 464.588C602.62 470.283 601.054 473.366 601.969 479.062C611.733 458.721 611.754 458.717 621.518 438.376ZM139.823 503.464C151.214 518.109 150.54 517.281 161.931 531.926C161.931 527.044 161.004 526.085 161.004 521.203C176.576 526.504 219.429 549.577 219.429 549.577L221.679 562.021L227.725 544.723C227.725 544.723 153.281 509.67 139.823 503.464ZM610.133 503.464C596.675 509.67 522.231 544.723 522.231 544.723L528.276 562.021L530.527 549.577C530.527 549.577 573.38 526.504 588.952 521.203C588.952 526.085 588.025 527.044 588.025 531.926C599.416 517.281 598.742 518.109 610.133 503.464ZM167.491 566.919C176.441 576.683 176.457 576.66 185.407 586.423C185.407 582.355 185.407 582.372 185.407 578.304C196.512 579.314 215.457 581.481 215.457 581.481C215.457 581.481 224.916 589.311 230.946 594.587C226.959 586.612 218.149 573.185 218.149 573.185C218.149 573.185 185.343 569.624 167.491 566.919ZM582.465 566.919C564.612 569.624 531.807 573.185 531.807 573.185C531.807 573.185 522.953 586.612 518.966 594.587C524.996 589.311 534.454 581.481 534.454 581.481C534.454 581.481 553.444 579.314 564.549 578.304C564.549 582.372 564.549 582.355 564.549 586.423C573.499 576.66 573.515 576.683 582.465 566.919ZM379.17 586.423C379.17 597.491 377.639 605.185 378.729 618.989L386.981 618.989L379.17 586.423ZM200.057 615.724L214.707 627.109L213.869 620.093L243.214 623.049C243.214 623.049 253.187 629.801 255.349 630.374C252.197 625.962 245.376 616.739 245.376 616.739L200.057 615.724ZM549.899 615.724L504.58 616.739C504.58 616.739 497.715 625.962 494.563 630.374C496.725 629.801 506.742 623.049 506.742 623.049L536.087 620.093L535.249 627.109L549.899 615.724ZM366.858 638.45C366.858 660.658 365.623 711.569 365.623 711.569L359.533 720.35C359.533 720.35 371.63 737.774 374.14 741.046C374.14 690.6 374.14 688.895 374.14 638.45C370.885 638.45 370.113 638.45 366.858 638.45Z" fill="#FFFFFF" fill-rule="nonzero" opacity="1" stroke="none"/>
</g>
</svg>
