<?xml version="1.0" encoding="UTF-8" standalone="no"?>
<!DOCTYPE svg PUBLIC "-//W3C//DTD SVG 1.1//EN" "http://www.w3.org/Graphics/SVG/1.1/DTD/svg11.dtd">
<!-- Created with Vectornator (http://vectornator.io/) -->
<svg height="100%" stroke-miterlimit="10" style="fill-rule:nonzero;clip-rule:evenodd;stroke-linecap:round;stroke-linejoin:round;" version="1.1" viewBox="0 0 750 1000" width="100%" xml:space="preserve" xmlns="http://www.w3.org/2000/svg" xmlns:vectornator="http://vectornator.io" xmlns:xlink="http://www.w3.org/1999/xlink">
<defs/>
<g id="Layer-1" vectornator:layerName="Layer 1">
<path d="M75 333.811C75 333.811 114.126 376.742 126.677 388.186C139.228 399.63 170.428 421.759 197.561 431.357C224.694 440.955 307.226 469.954 307.226 469.954C307.226 469.954 232.986 384.288 228.75 379.04C224.514 373.792 208.445 373.598 208.445 373.598L274.527 360.473L75 333.811ZM675 333.811L475.473 360.473L541.555 373.598C541.555 373.598 525.486 373.792 521.25 379.04C517.014 384.288 442.774 469.954 442.774 469.954C442.774 469.954 525.306 440.955 552.439 431.357C579.572 421.759 610.772 399.63 623.323 388.186C635.874 376.742 675 333.811 675 333.811ZM197.79 442.104C197.79 442.104 310.998 546.898 333.887 591.372C356.776 635.846 362.607 666.189 362.607 666.189C362.607 666.189 349.914 577.393 347.424 559.131C344.934 540.869 342.413 521.514 329.131 502.698C315.85 483.883 304.045 479.256 281.936 470.732C259.827 462.208 197.79 442.104 197.79 442.104ZM552.21 442.104C552.21 442.104 490.173 462.208 468.064 470.732C445.955 479.256 434.15 483.883 420.869 502.698C407.587 521.514 405.066 540.869 402.576 559.131C400.086 577.393 387.393 666.189 387.393 666.189C387.393 666.189 393.224 635.846 416.113 591.372C439.002 546.898 552.21 442.104 552.21 442.104Z" fill="#FFFFFF" fill-rule="nonzero" opacity="1" stroke="none" vectornator:layerName="path"/>
</g>
</svg>
