<?xml version="1.0" encoding="UTF-8" standalone="no"?>
<!DOCTYPE svg PUBLIC "-//W3C//DTD SVG 1.1//EN" "http://www.w3.org/Graphics/SVG/1.1/DTD/svg11.dtd">
<!-- Created with Vectornator (http://vectornator.io/) -->
<svg height="100%" stroke-miterlimit="10" style="fill-rule:nonzero;clip-rule:evenodd;stroke-linecap:round;stroke-linejoin:round;" version="1.1" viewBox="0 0 500 500" width="100%" xml:space="preserve" xmlns="http://www.w3.org/2000/svg" xmlns:vectornator="http://vectornator.io" xmlns:xlink="http://www.w3.org/1999/xlink">
<defs/>
<g id="Layer-1" vectornator:layerName="Layer 1">
<path d="M100.931 227.615C108.27 234.954 115.608 242.292 122.947 249.631C115.567 257.011 108.188 264.39 100.808 271.77C93.4285 279.15 86.0489 286.529 78.6692 293.909C82.4411 293.95 100.383 294.032 100.383 294.032C100.383 294.032 106.999 288.415 118.396 276.936C129.794 265.456 135.738 259.102 136.23 257.872C136.722 256.642 136.927 253.731 136.845 249.139C136.763 244.547 136.795 242.312 136.385 241.492C135.975 240.672 134.878 239.136 133.648 237.824C132.418 236.512 126.76 230.813 116.674 220.727C106.589 210.642 100.629 205.599 100.629 205.599C100.629 205.599 82.687 205.599 78.9152 205.599C86.2539 212.938 93.5925 220.276 100.931 227.615ZM163.166 222.572C151.933 233.888 146.111 239.914 145.701 240.652C145.291 241.39 144.775 241.742 144.611 242.644C144.611 242.644 144.635 246.515 144.717 250.615C144.799 254.715 144.411 256.522 144.985 257.669C144.985 257.669 152.22 265.866 163.535 277.182C174.851 288.497 180.465 294.155 180.465 294.155C180.465 294.155 199.162 294.155 202.893 294.155C195.555 286.816 188.216 279.478 180.877 272.139C166.2 257.462 158.861 250 158.861 249.754C158.861 249.508 166.159 242.128 180.754 227.615C188.052 220.358 195.35 213.102 202.647 205.845C198.875 205.804 180.096 205.722 180.096 205.722C180.096 205.722 174.4 211.257 163.166 222.572ZM234.503 205.968C233.601 206.214 232.822 206.542 232.166 206.952C231.51 207.362 228.804 209.945 224.048 214.701C219.292 219.456 215.757 222.403 215.265 223.305C214.773 224.207 214.752 236.965 215.399 238.847C216.209 241.202 218.536 242.642 220.358 244.465C223.638 247.745 225.278 249.508 225.278 249.754C225.278 250 223.679 251.64 220.481 254.674C217.284 257.708 215.23 259.191 214.984 259.683C214.738 260.175 214.947 266.317 214.947 277.551C214.947 283.167 214.947 288.784 214.947 294.401C217.981 294.401 221.014 294.401 224.048 294.401C227.082 294.401 230.116 294.401 233.15 294.401C233.15 288.251 233.15 282.101 233.15 275.952C233.15 269.802 233.15 263.652 233.15 257.503C244.67 257.503 256.191 257.503 267.711 257.503C279.232 257.503 290.752 257.503 302.272 257.503C302.272 254.92 302.272 252.337 302.272 249.754C302.272 247.171 302.272 244.588 302.272 242.005C290.752 242.005 279.232 242.005 267.711 242.005C256.191 242.005 244.67 242.005 233.15 242.005C233.15 238.562 233.15 235.118 233.15 231.674C233.15 228.23 233.15 224.786 233.15 221.342C246.638 221.342 260.127 221.342 273.615 221.342C287.103 221.342 300.592 221.342 314.08 221.342C314.08 218.719 314.08 216.095 314.08 213.471C314.08 210.847 314.08 208.223 314.08 205.599C301.043 205.599 288.005 205.599 274.968 205.599C248.893 205.599 235.405 205.722 234.503 205.968ZM325.764 241.144C325.846 264.841 325.238 276.019 325.648 276.921C326.058 277.823 329.249 281.568 333.513 285.914C337.777 290.26 340.237 292.638 340.893 293.048C341.549 293.458 342.41 293.786 343.476 294.032C344.541 294.278 357.784 294.401 383.203 294.401C395.912 294.401 408.621 294.401 421.331 294.401C421.331 291.777 421.331 289.153 421.331 286.529C421.331 283.905 421.331 281.281 421.331 278.658C408.334 278.658 395.338 278.658 382.342 278.658C369.345 278.658 356.349 278.658 343.353 278.658C343.353 266.481 343.353 254.305 343.353 242.128C343.353 229.952 343.353 217.776 343.353 205.599C340.401 205.599 337.449 205.599 334.497 205.599C331.545 205.599 328.593 205.599 325.641 205.599C325.682 217.448 325.723 229.296 325.764 241.144Z" fill="#ffffff" fill-rule="nonzero" opacity="1" stroke="none" vectornator:layerName="Curve 1"/>
</g>
</svg>
